<?xml version="1.0" encoding="UTF-8"?>
<svg xmlns="http://www.w3.org/2000/svg" xmlns:xlink="http://www.w3.org/1999/xlink" width="384pt" height="384pt" viewBox="0 0 384 384" version="1.1">
<g id="surface1">
<path style=" stroke:none;fill-rule:evenodd;fill:rgb(0%,0%,74.117647%);fill-opacity:1;" d="M 0 0 L 128.640625 0 L 128.640625 383.988281 L 0 383.988281 Z M 0 0 "/>
<path style=" stroke:none;fill-rule:evenodd;fill:rgb(80%,9.803922%,0%);fill-opacity:1;" d="M 255.359375 0 L 384 0 L 384 383.988281 L 255.359375 383.988281 Z M 255.359375 0 "/>
<path style=" stroke:none;fill-rule:evenodd;fill:rgb(100%,96.470588%,0%);fill-opacity:1;" d="M 128.640625 0 L 255.359375 0 L 255.359375 383.988281 L 128.640625 383.988281 Z M 128.640625 0 "/>
<path style="fill-rule:evenodd;fill:rgb(79.607843%,63.921569%,13.72549%);fill-opacity:1;stroke-width:1.25;stroke-linecap:butt;stroke-linejoin:miter;stroke:rgb(0%,0%,0%);stroke-opacity:1;stroke-miterlimit:4;" d="M 398.535239 290.218393 C 446.360401 291.032919 443.057082 261.078012 460.515588 258.100778 C 477.974094 255.123544 494.437624 270.5855 493.814106 288.069729 C 495.684661 308.88228 464.097501 309.022716 462.173881 326.366509 C 460.250261 343.696258 477.562838 348.990679 495.485665 346.35049 C 513.408493 343.696258 526.130915 325.987333 535.284691 317.659503 C 521.965284 325.144719 511.073617 322.434313 510.078642 309.092934 C 510.741959 291.608705 528.173932 285.246974 536.425597 291.145268 C 542.899571 285.836803 542.514848 283.716226 549.625607 284.895885 C 554.454555 287.830988 555.767923 287.76077 558.633453 292.310883 C 562.348029 289.951565 563.900191 288.771907 570.838488 291.70701 C 575.136782 293.476498 578.015579 296.678429 580.668847 301.523456 C 583.81297 299.037747 588.761315 298.110872 594.43931 301.326847 C 598.047755 303.166553 602.545045 308.503104 603.155296 314.317137 C 611.605956 316.016407 614.537818 317.968462 617.191086 322.279834 C 632.9515 344.047347 614.750079 380.743162 615.758321 399.477267 C 616.766563 418.211372 632.40758 419.461248 632.40758 419.461248 C 617.695207 410.038022 632.208585 403.563942 639.146882 402.903895 C 661.407804 405.207038 657.666695 438.040874 633.973009 432.268972 C 614.988873 427.100943 672.896456 435.555165 671.50349 494.91728 C 670.097258 555.936536 638.68256 543.915251 638.68256 543.915251 C 638.68256 543.915251 665.52037 554.026612 660.33323 574.010594 C 655.132824 587.520495 627.392903 596.466241 629.754312 570.569922 C 621.502647 581.748594 619.141238 586.481272 619.167771 603.473976 C 618.026866 625.199359 619.831088 635.11411 626.013204 645.787214 C 627.499034 635.844375 634.225069 635.423069 639.969395 636.686989 C 648.07513 636.77125 652.57242 643.118938 649.534428 651.362506 C 653.607195 650.323283 657.335037 653.11795 658.926998 656.488404 C 660.1873 662.695656 662.973232 665.448193 656.499257 667.793467 C 662.973232 668.973126 666.104089 669.81574 666.873537 678.845747 C 667.045999 686.106266 654.270512 690.094636 640.738843 687.735318 C 647.796537 691.274295 670.720776 737.758469 667.656251 791.18016 C 665.533636 839.082733 581.624024 834.813491 544.133341 833.479353 C 506.642659 832.145216 471.619516 834.251749 457.000008 846.539861 C 468.236599 853.716119 455.68664 876.073462 446.134874 865.596968 C 446.134874 873.840536 436.675972 886.578043 423.635158 878.320431 C 424.165811 893.206602 409.400373 903.640964 396.505488 903.640964 C 383.62387 903.640964 368.858432 893.206602 369.389086 878.320431 C 356.348271 886.578043 346.88937 873.840536 346.88937 865.596968 C 337.337604 876.073462 324.787644 853.716119 336.024236 846.539861 C 321.404727 834.251749 286.381584 832.145216 248.890902 833.479353 C 211.413486 834.813491 127.490607 839.082733 125.367992 791.18016 C 122.303467 737.758469 149.061679 691.260251 156.132639 687.735318 C 142.587704 690.094636 129.812217 686.106266 129.997946 678.845747 C 130.767394 669.81574 133.89825 668.973126 140.372225 667.793467 C 133.89825 665.448193 136.684182 662.695656 137.931218 656.488404 C 139.536446 653.11795 143.251021 650.323283 147.337055 651.362506 C 144.285796 643.118938 148.796352 636.77125 156.902087 636.686989 C 162.646413 635.423069 169.372449 635.844375 170.845012 645.787214 C 177.040394 635.11411 178.844617 625.199359 177.690445 603.473976 C 177.716978 586.481272 175.355569 581.748594 167.11717 570.569922 C 169.465313 596.466241 141.725392 587.520495 136.538252 574.010594 C 131.351113 554.026612 158.188922 543.915251 158.188922 543.915251 C 158.188922 543.915251 126.760958 555.936536 125.367992 494.91728 C 123.975027 435.555165 181.869343 427.100943 162.898474 432.268972 C 139.204787 438.040874 135.463679 405.207038 157.711334 402.903895 C 164.662897 403.563942 179.176275 410.038022 164.463902 419.461248 C 164.463902 419.461248 180.104919 418.211372 181.113161 399.477267 C 182.108137 380.743162 163.906716 344.047347 179.680396 322.279834 C 182.333665 317.968462 185.265526 316.016407 193.716186 314.317137 C 194.326438 308.503104 198.823728 303.166553 202.432173 301.326847 C 208.110167 298.110872 213.045246 299.037747 216.189369 301.523456 C 218.855904 296.678429 221.721434 293.476498 226.032995 291.70701 C 232.971292 288.771907 234.523454 289.951565 238.238029 292.310883 C 241.090293 287.76077 242.403661 287.830988 247.232609 284.895885 C 254.356635 283.716226 253.971911 285.836803 260.445886 291.145268 C 268.684284 285.246974 286.116257 291.608705 286.792841 309.092934 C 285.797865 322.434313 274.906198 325.144719 261.586791 317.659503 C 270.740567 325.987333 283.462989 343.696258 301.385817 346.35049 C 319.308645 348.990679 336.607955 343.696258 334.684335 326.366509 C 332.760716 309.022716 301.173555 308.88228 303.04411 288.069729 C 302.420592 270.5855 318.897388 255.123544 336.355894 258.100778 C 353.8144 261.078012 350.497815 291.032919 398.535239 290.218393 Z M 398.535239 290.218393 " transform="matrix(0.294448,0,0,0.278152,75.827812,38.728164)"/>
<path style="fill:none;stroke-width:1.25;stroke-linecap:butt;stroke-linejoin:miter;stroke:rgb(0%,0%,0%);stroke-opacity:1;stroke-miterlimit:4;" d="M 356.441136 346.617318 C 355.870683 364.579027 325.185634 361.447314 304.92793 360.478309 C 278.594242 359.242476 227.333096 314.401398 260.658147 290.597569 " transform="matrix(0.294448,0,0,0.278152,75.827812,38.728164)"/>
<path style="fill:none;stroke-width:1.25;stroke-linecap:butt;stroke-linejoin:miter;stroke:rgb(0%,0%,0%);stroke-opacity:1;stroke-miterlimit:4;" d="M 164.83536 449.51446 C 148.358563 467.181255 193.530457 463.010319 174.254462 440.105277 C 166.387522 431.285923 133.049204 458.937687 133.049204 489.552642 C 133.049204 520.167596 143.649012 534.295414 149.539267 535.475073 C 155.416257 536.654732 164.83536 531.936097 164.83536 527.231505 C 164.83536 521.347255 160.125808 511.924028 153.068114 513.103687 C 141.287603 513.103687 147.177859 523.692529 153.068114 523.692529 " transform="matrix(0.294448,0,0,0.278152,75.827812,38.728164)"/>
<path style="fill:none;stroke-width:1.25;stroke-linecap:butt;stroke-linejoin:miter;stroke:rgb(0%,0%,0%);stroke-opacity:1;stroke-miterlimit:4;" d="M 163.389328 451.396297 C 163.389328 451.396297 138.93946 461.297005 138.93946 490.7323 C 138.93946 520.167596 145.997154 518.987937 145.997154 518.987937 " transform="matrix(0.294448,0,0,0.278152,75.827812,38.728164)"/>
<path style="fill:none;stroke-width:1.25;stroke-linecap:butt;stroke-linejoin:miter;stroke:rgb(0%,0%,0%);stroke-opacity:1;stroke-miterlimit:4;" d="M 166.016064 430.68205 C 166.016064 430.68205 190.744525 427.143074 189.563821 449.51446 C 188.396383 471.885847 180.144718 473.065506 167.196768 471.885847 C 154.248819 470.706188 161.306513 455.412754 161.306513 455.412754 " transform="matrix(0.294448,0,0,0.278152,75.827812,38.728164)"/>
<path style="fill:none;stroke-width:1.25;stroke-linecap:butt;stroke-linejoin:miter;stroke:rgb(0%,0%,0%);stroke-opacity:1;stroke-miterlimit:4;" d="M 156.596961 543.704597 C 156.596961 543.704597 175.435167 542.538982 174.254462 522.51287 C 173.087024 502.500801 158.95837 501.321142 150.706705 502.500801 C 142.468307 503.68046 139.974235 508.30079 142.468307 515.378743 " transform="matrix(0.294448,0,0,0.278152,75.827812,38.728164)"/>
<path style="fill:none;stroke-width:1.25;stroke-linecap:butt;stroke-linejoin:miter;stroke:rgb(0%,0%,0%);stroke-opacity:1;stroke-miterlimit:4;" d="M 150.706705 567.255643 C 150.706705 567.255643 154.646809 559.096336 167.594759 559.096336 C 180.542708 559.096336 186.578894 589.486593 185.39819 622.460865 C 184.217485 655.421094 151.88741 683.83121 144.81645 681.471892 C 137.758756 679.112574 134.229909 677.932916 140.106898 673.228324 " transform="matrix(0.294448,0,0,0.278152,75.827812,38.728164)"/>
<path style="fill:none;stroke-width:1.25;stroke-linecap:butt;stroke-linejoin:miter;stroke:rgb(0%,0%,0%);stroke-opacity:1;stroke-miterlimit:4;" d="M 172.383908 643.315548 L 149.526001 681.471892 " transform="matrix(0.294448,0,0,0.278152,75.827812,38.728164)"/>
<path style="fill:none;stroke-width:1.25;stroke-linecap:butt;stroke-linejoin:miter;stroke:rgb(0%,0%,0%);stroke-opacity:1;stroke-miterlimit:4;" d="M 141.293712 667.344824 C 141.293712 667.752087 146.348188 666.235383 149.877035 668.5947 C 153.405882 670.939974 154.241661 674.408733 154.241661 674.408733 " transform="matrix(0.294448,0,0,0.278152,75.525232,38.809986)"/>
<path style="fill:none;stroke-width:1.25;stroke-linecap:butt;stroke-linejoin:miter;stroke:rgb(0%,0%,0%);stroke-opacity:1;stroke-miterlimit:4;" d="M 144.824889 650.856221 C 144.824889 650.856221 149.336137 649.032461 155.229864 651.40531 C 161.109038 653.758548 160.919857 659.053335 160.919857 659.053335 " transform="matrix(0.268426,0,0,0.199194,80.578318,90.373149)"/>
<path style="fill:none;stroke-width:1.25;stroke-linecap:butt;stroke-linejoin:miter;stroke:rgb(0%,0%,0%);stroke-opacity:1;stroke-miterlimit:4;" d="M 171.778081 731.955064 C 184.036181 738.316796 196.055487 706.774967 172.454664 705.230175 C 155.566611 704.527998 143.361576 728.486306 145.722985 740.26885 C 152.157161 780.321075 156.163596 807.130225 196.294281 812.312298 C 226.899731 814.671615 274.73816 807.214487 304.58743 810.78155 C 334.025442 814.222222 366.52798 825.063848 378.308492 836.832348 C 390.075737 848.614893 397.412024 848.727241 397.412024 860.495742 C 397.412024 872.278286 380.603569 878.317016 373.943865 871.239063 " transform="matrix(0.294448,0,0,0.278152,75.510103,39.330676)"/>
<path style="fill:none;stroke-width:1.25;stroke-linecap:butt;stroke-linejoin:miter;stroke:rgb(0%,0%,0%);stroke-opacity:1;stroke-miterlimit:4;" d="M 369.844566 876.926704 C 374.14286 874.005644 384.397743 856.493328 374.567383 846.101096 C 359.364155 830.709358 348.392891 824.628497 340.897408 822.128744 " transform="matrix(0.294448,0,0,0.278152,75.510103,39.330676)"/>
<path style="fill:none;stroke-width:1.25;stroke-linecap:butt;stroke-linejoin:miter;stroke:rgb(0%,0%,0%);stroke-opacity:1;stroke-miterlimit:4;" d="M 347.543845 863.276366 C 353.381035 859.751434 354.230081 847.982933 348.14083 839.0091 C 342.051579 830.035267 326.198301 822.844966 295.075463 820.204777 C 271.487907 818.224635 207.225746 828.644955 183.67799 821.581045 C 150.618265 808.871626 129.829908 787.441158 134.910917 734.18799 C 136.42328 713.572048 146.824092 699.725101 167.187926 697.084912 C 190.045834 696.944477 196.002421 711.830647 196.002421 730.663057 C 196.002421 740.339068 170.676974 749.537598 166.08682 740.367155 C 158.976061 727.5173 155.871737 715.917322 181.966631 709.752201 " transform="matrix(0.294448,0,0,0.278152,75.510103,39.330676)"/>
<path style="fill:none;stroke-width:1.25;stroke-linecap:butt;stroke-linejoin:miter;stroke:rgb(0%,0%,0%);stroke-opacity:1;stroke-miterlimit:4;" d="M 337.40836 844.584392 C 337.40836 844.584392 347.172387 850.272033 344.824245 854.990668 C 342.462836 859.695259 336.161323 857.687031 340.326955 852.687524 " transform="matrix(0.294448,0,0,0.278152,75.510103,39.330676)"/>
<path style="fill:none;stroke-width:1.25;stroke-linecap:butt;stroke-linejoin:miter;stroke:rgb(0%,0%,0%);stroke-opacity:1;stroke-miterlimit:4;" d="M 238.954412 291.398052 C 238.954412 291.398052 232.294708 298.054698 235.62456 313.881787 C 238.954412 329.694832 245.614116 328.866262 245.614116 328.866262 " transform="matrix(0.294448,0,0,0.278152,75.827812,38.728164)"/>
<path style="fill:none;stroke-width:1.25;stroke-linecap:butt;stroke-linejoin:miter;stroke:rgb(0%,0%,0%);stroke-opacity:1;stroke-miterlimit:4;" d="M 216.467962 300.554451 C 215.632183 302.211591 206.770266 312.407213 211.758411 323.234796 C 216.759822 334.048334 220.713192 336.211042 220.713192 336.211042 " transform="matrix(0.294448,0,0,0.278152,75.827812,38.728164)"/>
<path style="fill:none;stroke-width:1.25;stroke-linecap:butt;stroke-linejoin:miter;stroke:rgb(0%,0%,0%);stroke-opacity:1;stroke-miterlimit:4;" d="M 193.994779 313.867743 C 193.994779 313.867743 186.791155 324.498716 185.424722 343.429431 C 184.045023 362.360145 193.212065 388.424987 192.960004 398.129085 C 192.376285 418.730983 168.947926 428.968736 168.947926 428.968736 " transform="matrix(0.294448,0,0,0.278152,75.827812,38.728164)"/>
<path style="fill:none;stroke-width:1.25;stroke-linecap:butt;stroke-linejoin:miter;stroke:rgb(0%,0%,0%);stroke-opacity:1;stroke-miterlimit:4;" d="M 159.847215 543.662467 C 161.518774 543.662467 193.981513 513.693516 193.981513 620.256027 C 191.487441 681.865112 155.681584 687.693188 155.681584 687.693188 " transform="matrix(0.294448,0,0,0.278152,75.827812,38.728164)"/>
<path style="fill:none;stroke-width:1.25;stroke-linecap:butt;stroke-linejoin:miter;stroke:rgb(0%,0%,0%);stroke-opacity:1;stroke-miterlimit:4;" d="M 162.48974 689.710105 C 175.636685 686.367738 202.912284 700.70621 193.108458 725.029651 " transform="matrix(0.294448,0,0,0.278152,76.327069,39.397622)"/>
<path style="fill:none;stroke-width:1.25;stroke-linecap:butt;stroke-linejoin:miter;stroke:rgb(0%,0%,0%);stroke-opacity:1;stroke-miterlimit:4;" d="M 167.782805 681.476081 C 176.220198 682.248477 183.105429 688.371468 186.236286 696.811646 " transform="matrix(0.294448,0,0,0.278152,75.729474,38.906686)"/>
<path style="fill:none;stroke-width:1.25;stroke-linecap:butt;stroke-linejoin:miter;stroke:rgb(0%,0%,0%);stroke-opacity:1;stroke-miterlimit:4;" d="M 148.199367 477.053876 C 148.199367 477.053876 158.188922 491.209781 173.179889 491.209781 C 188.157589 491.209781 193.159 475.396736 193.159 475.396736 " transform="matrix(0.294448,0,0,0.278152,75.827812,38.728164)"/>
<path style="fill:none;stroke-width:1.25;stroke-linecap:butt;stroke-linejoin:miter;stroke:rgb(0%,0%,0%);stroke-opacity:1;stroke-miterlimit:4;" d="M 146.527808 484.553135 C 146.527808 484.553135 155.681584 501.208794 171.50833 502.037364 C 187.321809 502.865934 193.159 491.209781 193.159 491.209781 " transform="matrix(0.294448,0,0,0.278152,75.827812,38.728164)"/>
<path style="fill:none;stroke-width:1.25;stroke-linecap:butt;stroke-linejoin:miter;stroke:rgb(0%,0%,0%);stroke-opacity:1;stroke-miterlimit:4;" d="M 179.839592 509.52258 C 179.839592 509.52258 191.500707 514.522086 191.500707 528.663948 C 191.500707 542.819853 180.675372 539.49153 180.675372 539.49153 " transform="matrix(0.294448,0,0,0.278152,75.827812,38.728164)"/>
<path style="fill:none;stroke-width:1.25;stroke-linecap:butt;stroke-linejoin:miter;stroke:rgb(0%,0%,0%);stroke-opacity:1;stroke-miterlimit:4;" d="M 356.435421 346.617318 C 355.864968 364.579027 325.179919 361.447314 304.922215 360.478309 C 278.601793 359.242476 227.340648 314.401398 260.665699 290.597569 " transform="matrix(-0.294448,0,0,0.278152,310.463474,38.728164)"/>
<path style="fill:none;stroke-width:1.25;stroke-linecap:butt;stroke-linejoin:miter;stroke:rgb(0%,0%,0%);stroke-opacity:1;stroke-miterlimit:4;" d="M 164.842911 449.51446 C 148.352848 467.181255 193.524742 463.010319 174.262014 440.105277 C 166.395073 431.285923 133.043489 458.937687 133.043489 489.552642 C 133.043489 520.167596 143.643297 534.295414 149.533552 535.475073 C 155.423808 536.654732 164.842911 531.936097 164.842911 527.231505 C 164.842911 521.347255 160.13336 511.924028 153.062399 513.103687 C 141.295154 513.103687 147.172144 523.692529 153.062399 523.692529 " transform="matrix(-0.294448,0,0,0.278152,310.463474,38.728164)"/>
<path style="fill:none;stroke-width:1.25;stroke-linecap:butt;stroke-linejoin:miter;stroke:rgb(0%,0%,0%);stroke-opacity:1;stroke-miterlimit:4;" d="M 163.383613 451.396297 C 163.383613 451.396297 138.933745 461.297005 138.933745 490.7323 C 138.933745 520.167596 146.004705 518.987937 146.004705 518.987937 " transform="matrix(-0.294448,0,0,0.278152,310.463474,38.728164)"/>
<path style="fill:none;stroke-width:1.25;stroke-linecap:butt;stroke-linejoin:miter;stroke:rgb(0%,0%,0%);stroke-opacity:1;stroke-miterlimit:4;" d="M 166.023615 430.68205 C 166.023615 430.68205 190.752077 427.143074 189.571372 449.51446 C 188.390668 471.885847 180.15227 473.065506 167.20432 471.885847 C 154.243104 470.706188 161.314064 455.412754 161.314064 455.412754 " transform="matrix(-0.294448,0,0,0.278152,310.463474,38.728164)"/>
<path style="fill:none;stroke-width:1.25;stroke-linecap:butt;stroke-linejoin:miter;stroke:rgb(0%,0%,0%);stroke-opacity:1;stroke-miterlimit:4;" d="M 156.604513 543.704597 C 156.604513 543.704597 175.442718 542.538982 174.262014 522.51287 C 173.081309 502.500801 158.952655 501.321142 150.714257 502.500801 C 142.475859 503.68046 139.96852 508.30079 142.475859 515.378743 " transform="matrix(-0.294448,0,0,0.278152,310.463474,38.728164)"/>
<path style="fill:none;stroke-width:1.25;stroke-linecap:butt;stroke-linejoin:miter;stroke:rgb(0%,0%,0%);stroke-opacity:1;stroke-miterlimit:4;" d="M 150.714257 567.255643 C 150.714257 567.255643 154.641094 559.096336 167.60231 559.096336 C 180.55026 559.096336 186.573179 589.486593 185.405741 622.460865 C 184.225037 655.421094 151.881695 683.83121 144.824001 681.471892 C 137.753041 679.112574 134.224194 677.932916 140.11445 673.228324 " transform="matrix(-0.294448,0,0,0.278152,310.463474,38.728164)"/>
<path style="fill:none;stroke-width:1.25;stroke-linecap:butt;stroke-linejoin:miter;stroke:rgb(0%,0%,0%);stroke-opacity:1;stroke-miterlimit:4;" d="M 172.39146 643.315548 L 149.533552 681.471892 " transform="matrix(-0.294448,0,0,0.278152,310.463474,38.728164)"/>
<path style="fill:none;stroke-width:1.25;stroke-linecap:butt;stroke-linejoin:miter;stroke:rgb(0%,0%,0%);stroke-opacity:1;stroke-miterlimit:4;" d="M 141.287997 667.33422 C 141.287997 667.755526 146.342473 666.238822 149.87132 668.584096 C 153.413433 670.943414 154.235946 674.398129 154.235946 674.398129 " transform="matrix(-0.294448,0,0,0.278152,310.766053,38.906686)"/>
<path style="fill:none;stroke-width:1.25;stroke-linecap:butt;stroke-linejoin:miter;stroke:rgb(0%,0%,0%);stroke-opacity:1;stroke-miterlimit:4;" d="M 144.81862 650.856221 C 144.81862 650.856221 149.329868 649.032461 155.223595 651.40531 C 161.117322 653.758548 160.913588 659.053335 160.913588 659.053335 " transform="matrix(-0.268426,0,0,0.199194,305.712967,90.373149)"/>
<path style="fill:none;stroke-width:1.25;stroke-linecap:butt;stroke-linejoin:miter;stroke:rgb(0%,0%,0%);stroke-opacity:1;stroke-miterlimit:4;" d="M 170.420454 741.504683 C 168.072311 741.504683 185.875742 721.619006 169.730604 717.602549 C 149.446367 713.726527 140.982441 734.159903 143.34385 745.928404 C 148.411593 774.675565 160.24517 809.95298 196.289821 812.312298 C 226.895271 814.671615 274.7337 807.214487 304.58297 810.795594 C 334.034249 814.222222 366.52352 825.063848 378.304032 836.832348 C 390.071277 848.614893 397.407564 848.727241 397.407564 860.509786 C 397.407564 872.278286 380.599109 878.317016 373.939405 871.239063 " transform="matrix(-0.294448,0,0,0.278152,309.578427,39.330676)"/>
<path style="fill:none;stroke-width:1.25;stroke-linecap:butt;stroke-linejoin:miter;stroke:rgb(0%,0%,0%);stroke-opacity:1;stroke-miterlimit:4;" d="M 369.840106 876.926704 C 374.1384 874.005644 384.393283 856.493328 374.562923 846.101096 C 359.372962 830.709358 348.401697 824.628497 340.906214 822.128744 " transform="matrix(-0.294448,0,0,0.278152,309.578427,39.330676)"/>
<path style="fill:none;stroke-width:1.25;stroke-linecap:butt;stroke-linejoin:miter;stroke:rgb(0%,0%,0%);stroke-opacity:1;stroke-miterlimit:4;" d="M 347.552651 863.276366 C 353.376575 859.751434 354.238887 847.982933 348.149637 839.0091 C 342.047119 830.035267 326.207107 822.844966 295.071003 820.204777 C 271.483447 818.224635 207.221286 828.644955 183.686796 821.581045 C 139.748671 803.212073 130.170373 778.944806 131.178615 739.847544 C 132.690977 719.231602 143.423448 703.264077 163.787283 700.623889 C 186.64519 700.483453 190.558761 712.532825 190.558761 731.365235 C 190.558761 741.055289 181.550915 757.078988 169.226483 754.733714 C 156.902051 751.545827 147.310486 729.722139 168.125377 718.065987 " transform="matrix(-0.294448,0,0,0.278152,309.578427,39.330676)"/>
<path style="fill:none;stroke-width:1.25;stroke-linecap:butt;stroke-linejoin:miter;stroke:rgb(0%,0%,0%);stroke-opacity:1;stroke-miterlimit:4;" d="M 337.4039 844.584392 C 337.4039 844.584392 347.181194 850.272033 344.819785 854.990668 C 342.471642 859.695259 336.156863 857.687031 340.322495 852.687524 " transform="matrix(-0.294448,0,0,0.278152,309.578427,39.330676)"/>
<path style="fill:none;stroke-width:1.25;stroke-linecap:butt;stroke-linejoin:miter;stroke:rgb(0%,0%,0%);stroke-opacity:1;stroke-miterlimit:4;" d="M 238.948697 291.398052 C 238.948697 291.398052 232.288993 298.054698 235.618845 313.881787 C 238.948697 329.694832 245.608401 328.866262 245.608401 328.866262 " transform="matrix(-0.294448,0,0,0.278152,310.463474,38.728164)"/>
<path style="fill:none;stroke-width:1.25;stroke-linecap:butt;stroke-linejoin:miter;stroke:rgb(0%,0%,0%);stroke-opacity:1;stroke-miterlimit:4;" d="M 216.475514 300.554451 C 215.639734 302.211591 206.764551 312.407213 211.765962 323.234796 C 216.754107 334.048334 220.720743 336.211042 220.720743 336.211042 " transform="matrix(-0.294448,0,0,0.278152,310.463474,38.728164)"/>
<path style="fill:none;stroke-width:1.25;stroke-linecap:butt;stroke-linejoin:miter;stroke:rgb(0%,0%,0%);stroke-opacity:1;stroke-miterlimit:4;" d="M 193.989064 313.867743 C 193.989064 313.867743 186.798707 324.498716 185.419007 343.429431 C 184.052574 362.360145 193.20635 388.424987 192.95429 398.129085 C 192.37057 418.730983 168.942211 428.968736 168.942211 428.968736 " transform="matrix(-0.294448,0,0,0.278152,310.463474,38.728164)"/>
<path style="fill:none;stroke-width:1.25;stroke-linecap:butt;stroke-linejoin:miter;stroke:rgb(0%,0%,0%);stroke-opacity:1;stroke-miterlimit:4;" d="M 159.854766 543.662467 C 161.513059 543.662467 193.989064 513.693516 193.989064 620.256027 C 191.481726 681.865112 155.689135 687.693188 155.689135 687.693188 " transform="matrix(-0.294448,0,0,0.278152,310.463474,38.728164)"/>
<path style="fill:none;stroke-width:1.25;stroke-linecap:butt;stroke-linejoin:miter;stroke:rgb(0%,0%,0%);stroke-opacity:1;stroke-miterlimit:4;" d="M 158.066127 701.025259 C 174.277597 686.728918 205.294305 714.141941 193.77912 739.532692 " transform="matrix(-0.294448,0,0,0.278152,310.561812,37.433878)"/>
<path style="fill:none;stroke-width:1.25;stroke-linecap:butt;stroke-linejoin:miter;stroke:rgb(0%,0%,0%);stroke-opacity:1;stroke-miterlimit:4;" d="M 167.773518 681.474761 C 176.224177 682.2612 185.139159 687.66797 188.270016 696.108147 " transform="matrix(-0.294448,0,0,0.278152,311.666229,39.598459)"/>
<path style="fill:none;stroke-width:1.25;stroke-linecap:butt;stroke-linejoin:miter;stroke:rgb(0%,0%,0%);stroke-opacity:1;stroke-miterlimit:4;" d="M 148.193652 477.053876 C 148.193652 477.053876 158.196474 491.209781 173.174174 491.209781 C 188.16514 491.209781 193.153285 475.396736 193.153285 475.396736 " transform="matrix(-0.294448,0,0,0.278152,310.463474,38.728164)"/>
<path style="fill:none;stroke-width:1.25;stroke-linecap:butt;stroke-linejoin:miter;stroke:rgb(0%,0%,0%);stroke-opacity:1;stroke-miterlimit:4;" d="M 146.535359 484.553135 C 146.535359 484.553135 155.689135 501.208794 171.502615 502.037364 C 187.329361 502.865934 193.153285 491.209781 193.153285 491.209781 " transform="matrix(-0.294448,0,0,0.278152,310.463474,38.728164)"/>
<path style="fill:none;stroke-width:1.25;stroke-linecap:butt;stroke-linejoin:miter;stroke:rgb(0%,0%,0%);stroke-opacity:1;stroke-miterlimit:4;" d="M 179.833877 509.52258 C 179.833877 509.52258 191.494992 514.522086 191.494992 528.663948 C 191.494992 542.819853 180.669657 539.49153 180.669657 539.49153 " transform="matrix(-0.294448,0,0,0.278152,310.463474,38.728164)"/>
<path style="fill:none;stroke-width:1.25;stroke-linecap:butt;stroke-linejoin:miter;stroke:rgb(0%,0%,0%);stroke-opacity:1;stroke-miterlimit:4;" d="M 353.005153 313.46048 C 353.429676 313.039173 351.346861 304.304081 361.336416 304.711344 C 371.325972 305.132651 367.584863 314.28905 375.902859 317.617373 C 383.809599 319.709863 397.964786 321.788309 398.429108 321.788309 C 398.89343 321.788309 413.048617 319.709863 420.968623 317.617373 C 429.286619 314.28905 425.545511 305.132651 435.535066 304.711344 C 445.524622 304.304081 443.441806 313.039173 443.853063 313.46048 " transform="matrix(0.294448,0,0,0.278152,75.827812,38.728164)"/>
<path style="fill:none;stroke-width:1.25;stroke-linecap:butt;stroke-linejoin:miter;stroke:rgb(0%,0%,0%);stroke-opacity:1;stroke-miterlimit:4;" d="M 373.276124 349.426029 C 372.984264 345.297224 372.029088 339.876411 366.404159 339.455104 C 355.88395 339.104015 347.552687 360.057002 370.848383 360.211481 C 387.908899 360.32383 388.054829 327.855126 371.65763 327.377645 C 348.109873 326.703554 344.872886 340.761155 345.25761 343.513692 C 351.214197 293.125409 312.012157 303.306988 313.882711 283.744313 C 314.094972 273.141428 324.734579 271.933682 336.355894 273.885736 C 353.8144 276.694448 350.511081 304.865823 398.442374 304.093427 C 446.360401 304.865823 443.057082 276.694448 460.515588 273.885736 C 472.15017 271.933682 482.789776 273.141428 483.002038 283.744313 C 484.872592 303.306988 445.670552 293.125409 451.627139 343.513692 C 452.011863 340.761155 448.774876 326.703554 425.227119 327.377645 C 408.82992 327.855126 408.97585 360.32383 426.023099 360.211481 C 449.318796 360.057002 440.987533 339.104015 430.467324 339.455104 C 424.842395 339.876411 423.887218 345.297224 423.595359 349.426029 " transform="matrix(0.294448,0,0,0.278152,75.827812,38.728164)"/>
<path style=" stroke:none;fill-rule:nonzero;fill:rgb(0%,0%,0%);fill-opacity:1;" d="M 240.246094 260.925781 L 240.28125 261.136719 L 236.964844 261.957031 L 236.929688 261.742188 L 237.140625 261.691406 C 237.324219 261.644531 237.464844 261.570312 237.566406 261.460938 C 237.636719 261.390625 237.683594 261.28125 237.707031 261.140625 C 237.726562 261.042969 237.703125 260.796875 237.640625 260.410156 L 236.800781 255.3125 C 236.734375 254.914062 236.675781 254.671875 236.625 254.582031 C 236.574219 254.492188 236.492188 254.421875 236.371094 254.375 C 236.257812 254.324219 236.113281 254.320312 235.933594 254.363281 L 235.722656 254.417969 L 235.6875 254.207031 L 239.003906 253.390625 L 239.035156 253.597656 L 238.828125 253.652344 C 238.644531 253.695312 238.5 253.773438 238.402344 253.882812 C 238.332031 253.953125 238.28125 254.0625 238.257812 254.203125 C 238.238281 254.300781 238.257812 254.546875 238.324219 254.9375 L 239.164062 260.035156 C 239.230469 260.429688 239.285156 260.671875 239.335938 260.765625 C 239.390625 260.855469 239.476562 260.925781 239.589844 260.976562 C 239.710938 261.019531 239.855469 261.023438 240.035156 260.980469 Z M 240.246094 260.925781 "/>
<path style=" stroke:none;fill-rule:nonzero;fill:rgb(0%,0%,0%);fill-opacity:1;" d="M 235.355469 254.433594 L 235.582031 256.554688 L 235.410156 256.582031 C 235.257812 256.105469 235.109375 255.773438 234.964844 255.582031 C 234.816406 255.386719 234.628906 255.242188 234.402344 255.148438 C 234.277344 255.097656 234.0625 255.097656 233.761719 255.144531 L 233.285156 255.21875 L 233.925781 261.265625 C 233.96875 261.667969 234.015625 261.914062 234.058594 262.007812 C 234.109375 262.105469 234.1875 262.179688 234.300781 262.242188 C 234.414062 262.296875 234.5625 262.3125 234.746094 262.28125 L 234.960938 262.25 L 234.980469 262.464844 L 231.625 262.996094 L 231.601562 262.78125 L 231.816406 262.746094 C 232 262.71875 232.148438 262.652344 232.25 262.554688 C 232.328125 262.488281 232.382812 262.386719 232.417969 262.246094 C 232.441406 262.148438 232.433594 261.902344 232.390625 261.511719 L 231.75 255.464844 L 231.285156 255.535156 C 230.855469 255.605469 230.550781 255.765625 230.378906 256.019531 C 230.140625 256.375 230.011719 256.847656 230 257.4375 L 229.824219 257.46875 L 229.597656 255.347656 Z M 235.355469 254.433594 "/>
<path style=" stroke:none;fill-rule:nonzero;fill:rgb(0%,0%,0%);fill-opacity:1;" d="M 211.527344 257.675781 L 211.738281 260.914062 L 211.925781 260.894531 C 212.210938 260.867188 212.4375 260.792969 212.613281 260.667969 C 212.785156 260.546875 212.925781 260.355469 213.035156 260.09375 C 213.144531 259.835938 213.203125 259.492188 213.214844 259.066406 L 213.378906 259.046875 L 213.640625 263.003906 L 213.476562 263.023438 C 213.367188 262.28125 213.167969 261.804688 212.882812 261.59375 C 212.601562 261.382812 212.292969 261.292969 211.953125 261.324219 L 211.765625 261.34375 L 211.925781 263.753906 C 211.953125 264.15625 211.988281 264.40625 212.027344 264.503906 C 212.074219 264.601562 212.148438 264.683594 212.261719 264.75 C 212.371094 264.8125 212.519531 264.835938 212.699219 264.820312 L 212.914062 264.796875 L 212.929688 265.011719 L 209.558594 265.34375 L 209.542969 265.128906 L 209.757812 265.109375 C 209.945312 265.089844 210.09375 265.035156 210.203125 264.941406 C 210.28125 264.878906 210.339844 264.78125 210.375 264.644531 C 210.402344 264.546875 210.402344 264.300781 210.378906 263.90625 L 210.035156 258.722656 C 210.007812 258.320312 209.972656 258.070312 209.933594 257.972656 C 209.890625 257.875 209.816406 257.796875 209.703125 257.734375 C 209.59375 257.664062 209.449219 257.640625 209.265625 257.660156 L 209.054688 257.679688 L 209.039062 257.464844 L 214.476562 256.929688 L 214.625 259.1875 L 214.429688 259.207031 C 214.351562 258.683594 214.210938 258.300781 214.007812 258.0625 C 213.8125 257.824219 213.539062 257.671875 213.183594 257.601562 C 212.992188 257.5625 212.636719 257.566406 212.125 257.617188 Z M 211.527344 257.675781 "/>
<path style=" stroke:none;fill-rule:nonzero;fill:rgb(0%,0%,0%);fill-opacity:1;" d="M 199.167969 257.800781 L 199.167969 259.9375 L 198.996094 259.9375 C 198.894531 259.445312 198.78125 259.089844 198.65625 258.878906 C 198.53125 258.660156 198.363281 258.488281 198.144531 258.359375 C 198.023438 258.289062 197.8125 258.253906 197.511719 258.253906 L 197.03125 258.253906 L 197.03125 264.351562 C 197.03125 264.753906 197.046875 265.007812 197.082031 265.109375 C 197.121094 265.210938 197.191406 265.300781 197.296875 265.378906 C 197.40625 265.453125 197.550781 265.488281 197.734375 265.488281 L 197.949219 265.488281 L 197.949219 265.703125 L 194.566406 265.703125 L 194.566406 265.488281 L 194.78125 265.488281 C 194.96875 265.488281 195.117188 265.449219 195.234375 265.367188 C 195.316406 265.3125 195.378906 265.21875 195.429688 265.085938 C 195.464844 264.992188 195.480469 264.746094 195.480469 264.351562 L 195.480469 258.253906 L 195.011719 258.253906 C 194.578125 258.253906 194.261719 258.367188 194.066406 258.59375 C 193.789062 258.90625 193.613281 259.355469 193.539062 259.9375 L 193.359375 259.9375 L 193.359375 257.800781 Z M 199.167969 257.800781 "/>
<path style=" stroke:none;fill-rule:nonzero;fill:rgb(0%,0%,0%);fill-opacity:1;" d="M 192.480469 265.488281 L 192.480469 265.707031 L 189.101562 265.707031 L 189.101562 265.488281 L 189.316406 265.488281 C 189.503906 265.488281 189.65625 265.449219 189.769531 265.367188 C 189.851562 265.3125 189.917969 265.21875 189.960938 265.089844 C 189.996094 264.996094 190.011719 264.75 190.011719 264.355469 L 190.011719 259.152344 C 190.011719 258.75 189.996094 258.496094 189.960938 258.394531 C 189.925781 258.292969 189.851562 258.207031 189.746094 258.132812 C 189.640625 258.054688 189.496094 258.015625 189.316406 258.015625 L 189.101562 258.015625 L 189.101562 257.800781 L 192.480469 257.800781 L 192.480469 258.015625 L 192.265625 258.015625 C 192.082031 258.015625 191.929688 258.058594 191.816406 258.136719 C 191.730469 258.191406 191.667969 258.285156 191.617188 258.417969 C 191.585938 258.511719 191.566406 258.757812 191.566406 259.152344 L 191.566406 264.355469 C 191.566406 264.757812 191.585938 265.011719 191.617188 265.109375 C 191.65625 265.210938 191.730469 265.300781 191.832031 265.378906 C 191.941406 265.453125 192.085938 265.488281 192.265625 265.488281 Z M 192.480469 265.488281 "/>
<path style=" stroke:none;fill-rule:nonzero;fill:rgb(0%,0%,0%);fill-opacity:1;" d="M 183.984375 257.800781 L 187.175781 262.703125 L 187.175781 259.300781 C 187.175781 258.828125 187.117188 258.507812 187.007812 258.339844 C 186.855469 258.117188 186.597656 258.007812 186.238281 258.015625 L 186.238281 257.800781 L 188.375 257.800781 L 188.375 258.015625 C 188.101562 258.058594 187.917969 258.113281 187.820312 258.183594 C 187.730469 258.25 187.65625 258.359375 187.601562 258.515625 C 187.550781 258.667969 187.527344 258.929688 187.527344 259.300781 L 187.527344 265.886719 L 187.363281 265.886719 L 182.992188 259.300781 L 182.992188 264.328125 C 182.992188 264.78125 183.078125 265.089844 183.246094 265.25 C 183.417969 265.410156 183.613281 265.488281 183.832031 265.488281 L 183.984375 265.488281 L 183.984375 265.703125 L 181.691406 265.703125 L 181.691406 265.488281 C 182.046875 265.484375 182.296875 265.394531 182.433594 265.21875 C 182.574219 265.046875 182.644531 264.746094 182.644531 264.328125 L 182.644531 258.75 L 182.507812 258.539062 C 182.371094 258.328125 182.25 258.191406 182.144531 258.125 C 182.039062 258.058594 181.886719 258.023438 181.691406 258.015625 L 181.691406 257.800781 Z M 183.984375 257.800781 "/>
<path style=" stroke:none;fill-rule:nonzero;fill:rgb(0%,0%,0%);fill-opacity:1;" d="M 181.292969 257.28125 L 181.289062 257.496094 C 181.050781 257.53125 180.835938 257.671875 180.644531 257.921875 C 180.503906 258.113281 180.289062 258.558594 180 259.261719 L 177.574219 265.1875 L 177.417969 265.179688 L 175.414062 258.789062 C 175.171875 258.015625 175.007812 257.5625 174.917969 257.425781 C 174.835938 257.292969 174.667969 257.199219 174.417969 257.152344 L 174.425781 256.9375 L 177.523438 257.089844 L 177.515625 257.304688 L 177.410156 257.300781 C 177.128906 257.285156 176.9375 257.320312 176.835938 257.402344 C 176.757812 257.457031 176.71875 257.539062 176.714844 257.652344 C 176.714844 257.722656 176.722656 257.804688 176.746094 257.902344 C 176.769531 258 176.84375 258.257812 176.976562 258.679688 L 178.222656 262.679688 L 179.617188 259.242188 C 179.78125 258.828125 179.886719 258.550781 179.925781 258.40625 C 179.964844 258.265625 179.988281 258.144531 179.992188 258.042969 C 179.996094 257.925781 179.972656 257.820312 179.925781 257.730469 C 179.875 257.636719 179.804688 257.566406 179.707031 257.515625 C 179.574219 257.441406 179.394531 257.398438 179.167969 257.386719 L 179.175781 257.175781 Z M 181.292969 257.28125 "/>
<path style=" stroke:none;fill-rule:nonzero;fill:rgb(0%,0%,0%);fill-opacity:1;" d="M 169.886719 256.289062 L 169.8125 258.921875 L 169.617188 258.910156 C 169.558594 258.242188 169.355469 257.695312 169.015625 257.269531 C 168.675781 256.839844 168.296875 256.609375 167.878906 256.578125 C 167.554688 256.554688 167.292969 256.644531 167.09375 256.84375 C 166.894531 257.039062 166.789062 257.277344 166.777344 257.550781 C 166.765625 257.726562 166.792969 257.882812 166.851562 258.023438 C 166.933594 258.210938 167.074219 258.402344 167.269531 258.597656 C 167.410156 258.738281 167.746094 258.988281 168.269531 259.351562 C 169 259.863281 169.488281 260.328125 169.734375 260.75 C 169.972656 261.175781 170.082031 261.644531 170.054688 262.164062 C 170.023438 262.824219 169.785156 263.378906 169.339844 263.824219 C 168.898438 264.265625 168.355469 264.464844 167.707031 264.417969 C 167.503906 264.402344 167.3125 264.363281 167.132812 264.300781 C 166.957031 264.234375 166.734375 264.125 166.46875 263.964844 C 166.320312 263.875 166.195312 263.828125 166.097656 263.820312 C 166.015625 263.816406 165.925781 263.847656 165.832031 263.917969 C 165.734375 263.988281 165.652344 264.101562 165.589844 264.257812 L 165.414062 264.246094 L 165.558594 261.265625 L 165.734375 261.277344 C 165.832031 262.125 166.070312 262.785156 166.445312 263.257812 C 166.824219 263.726562 167.242188 263.972656 167.703125 264.007812 C 168.058594 264.035156 168.347656 263.9375 168.566406 263.714844 C 168.789062 263.496094 168.910156 263.226562 168.925781 262.910156 C 168.933594 262.726562 168.902344 262.542969 168.828125 262.363281 C 168.757812 262.179688 168.644531 262.007812 168.488281 261.839844 C 168.328125 261.667969 168.046875 261.441406 167.640625 261.160156 C 167.070312 260.761719 166.664062 260.433594 166.417969 260.164062 C 166.171875 259.898438 165.988281 259.605469 165.863281 259.289062 C 165.742188 258.972656 165.691406 258.628906 165.707031 258.261719 C 165.738281 257.632812 165.953125 257.113281 166.355469 256.695312 C 166.753906 256.28125 167.238281 256.09375 167.8125 256.136719 C 168.023438 256.152344 168.222656 256.199219 168.417969 256.273438 C 168.566406 256.332031 168.742188 256.433594 168.949219 256.574219 C 169.15625 256.714844 169.304688 256.789062 169.390625 256.796875 C 169.472656 256.800781 169.539062 256.777344 169.589844 256.714844 C 169.640625 256.660156 169.695312 256.511719 169.746094 256.277344 Z M 169.886719 256.289062 "/>
<path style=" stroke:none;fill-rule:nonzero;fill:rgb(0%,0%,0%);fill-opacity:1;" d="M 165.46875 256.03125 L 165.449219 256.246094 C 165.210938 256.257812 164.988281 256.382812 164.78125 256.613281 C 164.628906 256.789062 164.390625 257.214844 164.058594 257.890625 L 161.273438 263.574219 L 161.121094 263.554688 L 159.511719 256.996094 C 159.320312 256.207031 159.183594 255.738281 159.105469 255.59375 C 159.027344 255.449219 158.867188 255.34375 158.621094 255.273438 L 158.640625 255.058594 L 161.71875 255.496094 L 161.699219 255.710938 L 161.59375 255.695312 C 161.316406 255.65625 161.125 255.671875 161.015625 255.742188 C 160.9375 255.789062 160.890625 255.871094 160.882812 255.980469 C 160.875 256.050781 160.878906 256.136719 160.894531 256.238281 C 160.910156 256.332031 160.972656 256.597656 161.078125 257.03125 L 162.074219 261.136719 L 163.675781 257.835938 C 163.867188 257.4375 163.988281 257.167969 164.035156 257.03125 C 164.085938 256.894531 164.113281 256.773438 164.121094 256.675781 C 164.132812 256.558594 164.117188 256.453125 164.074219 256.355469 C 164.035156 256.257812 163.964844 256.183594 163.871094 256.121094 C 163.742188 256.035156 163.566406 255.976562 163.34375 255.945312 L 163.363281 255.730469 Z M 165.46875 256.03125 "/>
<path style=" stroke:none;fill-rule:nonzero;fill:rgb(0%,0%,0%);fill-opacity:1;" d="M 158.125 255.378906 L 157.875 257.496094 L 157.703125 257.464844 C 157.660156 256.960938 157.589844 256.589844 157.492188 256.355469 C 157.398438 256.117188 157.25 255.917969 157.050781 255.753906 C 156.9375 255.664062 156.734375 255.589844 156.433594 255.539062 L 155.957031 255.453125 L 155.242188 261.488281 C 155.195312 261.890625 155.183594 262.140625 155.203125 262.246094 C 155.230469 262.355469 155.292969 262.457031 155.386719 262.550781 C 155.484375 262.644531 155.625 262.703125 155.808594 262.738281 L 156.019531 262.773438 L 155.996094 262.988281 L 152.644531 262.394531 L 152.671875 262.179688 L 152.882812 262.21875 C 153.066406 262.25 153.222656 262.238281 153.34375 262.175781 C 153.433594 262.136719 153.507812 262.058594 153.570312 261.933594 C 153.617188 261.847656 153.664062 261.609375 153.710938 261.21875 L 154.425781 255.183594 L 153.960938 255.101562 C 153.53125 255.023438 153.207031 255.078125 152.984375 255.269531 C 152.671875 255.53125 152.449219 255.945312 152.304688 256.507812 L 152.128906 256.476562 L 152.378906 254.359375 Z M 158.125 255.378906 "/>
<path style=" stroke:none;fill-rule:nonzero;fill:rgb(0%,0%,0%);fill-opacity:1;" d="M 142.769531 260.339844 L 142.730469 260.550781 L 139.445312 259.578125 L 139.484375 259.367188 L 139.695312 259.429688 C 139.875 259.484375 140.03125 259.488281 140.160156 259.441406 C 140.25 259.410156 140.328125 259.339844 140.398438 259.222656 C 140.449219 259.140625 140.515625 258.910156 140.589844 258.523438 L 141.589844 253.46875 C 141.667969 253.078125 141.699219 252.828125 141.6875 252.71875 C 141.671875 252.609375 141.621094 252.503906 141.527344 252.402344 C 141.441406 252.296875 141.308594 252.214844 141.132812 252.164062 L 140.925781 252.101562 L 140.964844 251.894531 L 144.25 252.867188 L 144.210938 253.074219 L 144 253.015625 C 143.820312 252.960938 143.664062 252.957031 143.539062 253.003906 C 143.445312 253.03125 143.367188 253.105469 143.292969 253.21875 C 143.242188 253.300781 143.179688 253.53125 143.101562 253.917969 L 142.101562 258.972656 C 142.023438 259.363281 141.992188 259.617188 142.007812 259.722656 C 142.023438 259.832031 142.074219 259.941406 142.164062 260.046875 C 142.253906 260.148438 142.386719 260.226562 142.5625 260.277344 Z M 142.769531 260.339844 "/>
<path style=" stroke:none;fill-rule:nonzero;fill:rgb(0%,0%,0%);fill-opacity:1;" d="M 140.4375 252.078125 L 140.390625 252.285156 C 140.152344 252.257812 139.917969 252.34375 139.6875 252.535156 C 139.515625 252.683594 139.230469 253.0625 138.824219 253.675781 L 135.414062 258.824219 L 135.261719 258.777344 L 134.425781 252.007812 C 134.328125 251.191406 134.246094 250.703125 134.183594 250.546875 C 134.125 250.394531 133.980469 250.261719 133.742188 250.148438 L 133.789062 249.9375 L 136.785156 250.902344 L 136.742188 251.113281 L 136.640625 251.078125 C 136.367188 250.992188 136.175781 250.972656 136.058594 251.023438 C 135.976562 251.058594 135.921875 251.128906 135.898438 251.238281 C 135.882812 251.304688 135.878906 251.390625 135.882812 251.492188 C 135.890625 251.589844 135.917969 251.863281 135.972656 252.3125 L 136.488281 256.546875 L 138.453125 253.554688 C 138.6875 253.191406 138.839844 252.949219 138.902344 252.820312 C 138.964844 252.691406 139.007812 252.578125 139.027344 252.480469 C 139.054688 252.367188 139.050781 252.261719 139.019531 252.160156 C 138.988281 252.054688 138.929688 251.96875 138.84375 251.890625 C 138.726562 251.785156 138.558594 251.695312 138.339844 251.625 L 138.382812 251.417969 Z M 140.4375 252.078125 "/>
<path style=" stroke:none;fill-rule:nonzero;fill:rgb(0%,0%,0%);fill-opacity:1;" d="M 243.203125 252.703125 C 244.21875 252.496094 245.089844 252.730469 245.808594 253.402344 C 246.527344 254.078125 246.953125 254.996094 247.074219 256.160156 C 247.179688 257.152344 247.035156 258.066406 246.640625 258.898438 C 246.117188 260 245.277344 260.640625 244.128906 260.824219 C 242.972656 261.007812 242.03125 260.671875 241.300781 259.816406 C 240.722656 259.140625 240.378906 258.28125 240.269531 257.246094 C 240.144531 256.082031 240.363281 255.0625 240.929688 254.183594 C 241.496094 253.300781 242.253906 252.808594 243.203125 252.703125 Z M 243.300781 253.066406 C 242.714844 253.160156 242.308594 253.597656 242.078125 254.378906 C 241.894531 255.019531 241.859375 255.902344 241.980469 257.027344 C 242.121094 258.363281 242.417969 259.320312 242.871094 259.898438 C 243.1875 260.304688 243.585938 260.46875 244.066406 260.394531 C 244.390625 260.339844 244.652344 260.203125 244.851562 259.976562 C 245.101562 259.683594 245.277344 259.257812 245.371094 258.691406 C 245.46875 258.125 245.472656 257.40625 245.378906 256.535156 C 245.269531 255.496094 245.109375 254.734375 244.894531 254.246094 C 244.683594 253.757812 244.445312 253.421875 244.175781 253.25 C 243.910156 253.078125 243.617188 253.015625 243.300781 253.066406 Z M 243.300781 253.066406 "/>
<path style=" stroke:none;fill-rule:nonzero;fill:rgb(0%,0%,0%);fill-opacity:1;" d="M 218.519531 256.417969 C 219.542969 256.269531 220.398438 256.554688 221.089844 257.269531 C 221.785156 257.984375 222.171875 258.925781 222.25 260.097656 C 222.316406 261.097656 222.132812 262 221.707031 262.804688 C 221.136719 263.875 220.277344 264.46875 219.121094 264.582031 C 217.960938 264.695312 217.03125 264.304688 216.335938 263.40625 C 215.785156 262.695312 215.476562 261.820312 215.40625 260.777344 C 215.328125 259.609375 215.589844 258.601562 216.1875 257.757812 C 216.789062 256.914062 217.566406 256.464844 218.519531 256.417969 Z M 218.601562 256.785156 C 218.011719 256.839844 217.585938 257.253906 217.328125 258.019531 C 217.117188 258.648438 217.050781 259.53125 217.125 260.660156 C 217.214844 262.003906 217.472656 262.980469 217.902344 263.585938 C 218.199219 264.007812 218.59375 264.195312 219.078125 264.148438 C 219.402344 264.113281 219.667969 263.992188 219.875 263.777344 C 220.136719 263.5 220.328125 263.085938 220.449219 262.527344 C 220.566406 261.964844 220.597656 261.246094 220.539062 260.371094 C 220.472656 259.328125 220.339844 258.558594 220.148438 258.058594 C 219.957031 257.554688 219.730469 257.207031 219.46875 257.019531 C 219.210938 256.832031 218.921875 256.75 218.601562 256.785156 Z M 218.601562 256.785156 "/>
<path style=" stroke:none;fill-rule:nonzero;fill:rgb(0%,0%,0%);fill-opacity:1;" d="M 225.289062 260.003906 L 225.519531 262.199219 C 225.566406 262.621094 225.613281 262.886719 225.667969 262.992188 C 225.722656 263.09375 225.808594 263.167969 225.921875 263.21875 C 226.035156 263.265625 226.238281 263.265625 226.53125 263.21875 L 226.554688 263.433594 L 223.273438 263.953125 L 223.25 263.742188 C 223.546875 263.695312 223.746094 263.628906 223.839844 263.546875 C 223.941406 263.460938 224.007812 263.359375 224.035156 263.246094 C 224.066406 263.132812 224.0625 262.863281 224.015625 262.4375 L 223.476562 257.351562 C 223.433594 256.925781 223.382812 256.664062 223.324219 256.5625 C 223.273438 256.457031 223.191406 256.378906 223.074219 256.332031 C 222.960938 256.285156 222.757812 256.28125 222.464844 256.328125 L 222.441406 256.113281 L 225.421875 255.644531 C 226.195312 255.519531 226.769531 255.496094 227.144531 255.570312 C 227.515625 255.644531 227.835938 255.839844 228.101562 256.15625 C 228.363281 256.472656 228.523438 256.867188 228.570312 257.339844 C 228.632812 257.917969 228.515625 258.421875 228.214844 258.855469 C 228.023438 259.128906 227.738281 259.355469 227.359375 259.539062 L 229.179688 261.949219 C 229.417969 262.257812 229.585938 262.449219 229.679688 262.519531 C 229.820312 262.621094 229.976562 262.660156 230.148438 262.644531 L 230.171875 262.859375 L 228.152344 263.179688 L 225.707031 259.933594 Z M 224.878906 256.15625 L 225.242188 259.589844 L 225.511719 259.546875 C 225.953125 259.480469 226.273438 259.378906 226.480469 259.246094 C 226.6875 259.113281 226.839844 258.910156 226.933594 258.636719 C 227.035156 258.355469 227.0625 258.011719 227.019531 257.597656 C 226.953125 257 226.792969 256.578125 226.53125 256.332031 C 226.277344 256.082031 225.894531 255.996094 225.386719 256.078125 Z M 224.878906 256.15625 "/>
<path style=" stroke:none;fill-rule:nonzero;fill:rgb(0%,0%,0%);fill-opacity:1;" d="M 249.816406 255.695312 L 250.269531 257.839844 C 250.355469 258.253906 250.429688 258.511719 250.492188 258.605469 C 250.558594 258.699219 250.652344 258.757812 250.769531 258.789062 C 250.886719 258.820312 251.089844 258.792969 251.375 258.703125 L 251.417969 258.910156 L 248.214844 259.917969 L 248.171875 259.710938 C 248.460938 259.617188 248.648438 259.523438 248.738281 259.429688 C 248.828125 259.328125 248.882812 259.21875 248.898438 259.101562 C 248.921875 258.984375 248.886719 258.714844 248.800781 258.300781 L 247.757812 253.332031 C 247.667969 252.917969 247.59375 252.664062 247.527344 252.574219 C 247.464844 252.476562 247.375 252.414062 247.257812 252.382812 C 247.136719 252.351562 246.9375 252.378906 246.648438 252.46875 L 246.605469 252.261719 L 249.515625 251.347656 C 250.273438 251.109375 250.839844 251 251.214844 251.015625 C 251.59375 251.035156 251.929688 251.183594 252.226562 251.457031 C 252.519531 251.730469 252.714844 252.101562 252.8125 252.5625 C 252.929688 253.128906 252.863281 253.644531 252.605469 254.121094 C 252.445312 254.417969 252.183594 254.6875 251.828125 254.925781 L 253.875 257.042969 C 254.144531 257.316406 254.328125 257.480469 254.429688 257.539062 C 254.578125 257.613281 254.738281 257.632812 254.90625 257.589844 L 254.953125 257.800781 L 252.980469 258.421875 L 250.230469 255.566406 Z M 249.027344 251.9375 L 249.734375 255.292969 L 249.996094 255.210938 C 250.425781 255.078125 250.734375 254.929688 250.925781 254.765625 C 251.121094 254.601562 251.25 254.378906 251.316406 254.089844 C 251.386719 253.800781 251.378906 253.453125 251.292969 253.050781 C 251.171875 252.46875 250.96875 252.070312 250.6875 251.863281 C 250.40625 251.65625 250.019531 251.628906 249.523438 251.785156 Z M 249.027344 251.9375 "/>
<path style=" stroke:none;fill-rule:nonzero;fill:rgb(0%,0%,0%);fill-opacity:1;" d="M 147.4375 257.714844 L 147.164062 259.902344 C 147.113281 260.328125 147.097656 260.597656 147.125 260.71875 C 147.15625 260.832031 147.222656 260.933594 147.320312 261.019531 C 147.417969 261.105469 147.613281 261.171875 147.90625 261.226562 L 147.878906 261.441406 L 144.609375 260.832031 L 144.636719 260.617188 C 144.929688 260.671875 145.132812 260.675781 145.246094 260.632812 C 145.363281 260.582031 145.445312 260.507812 145.5 260.40625 C 145.558594 260.308594 145.613281 260.046875 145.667969 259.625 L 146.296875 254.554688 C 146.351562 254.128906 146.363281 253.863281 146.332031 253.746094 C 146.304688 253.625 146.242188 253.523438 146.144531 253.4375 C 146.042969 253.355469 145.847656 253.285156 145.558594 253.230469 L 145.582031 253.015625 L 148.554688 253.570312 C 149.324219 253.714844 149.882812 253.886719 150.226562 254.082031 C 150.566406 254.28125 150.828125 254.578125 151.011719 254.972656 C 151.195312 255.363281 151.253906 255.796875 151.195312 256.269531 C 151.125 256.84375 150.894531 257.289062 150.507812 257.601562 C 150.261719 257.800781 149.9375 257.921875 149.53125 257.96875 L 150.738281 260.902344 C 150.898438 261.28125 151.015625 261.519531 151.089844 261.621094 C 151.203125 261.765625 151.34375 261.855469 151.511719 261.898438 L 151.484375 262.113281 L 149.472656 261.738281 L 147.859375 257.792969 Z M 147.914062 253.882812 L 147.488281 257.304688 L 147.757812 257.355469 C 148.195312 257.4375 148.527344 257.449219 148.757812 257.394531 C 148.984375 257.335938 149.175781 257.1875 149.332031 256.957031 C 149.488281 256.726562 149.59375 256.402344 149.644531 255.992188 C 149.71875 255.394531 149.660156 254.933594 149.464844 254.605469 C 149.273438 254.28125 148.925781 254.070312 148.421875 253.976562 Z M 147.914062 253.882812 "/>
<path style=" stroke:none;fill-rule:nonzero;fill:rgb(0%,0%,0%);fill-opacity:1;" d="M 203.328125 263.417969 L 201.046875 263.535156 L 200.800781 264.320312 C 200.722656 264.578125 200.683594 264.792969 200.691406 264.960938 C 200.699219 265.183594 200.777344 265.339844 200.925781 265.441406 C 201.015625 265.496094 201.226562 265.53125 201.566406 265.546875 L 201.570312 265.761719 L 199.425781 265.871094 L 199.417969 265.65625 C 199.648438 265.601562 199.832031 265.476562 199.976562 265.277344 C 200.121094 265.074219 200.289062 264.667969 200.488281 264.054688 L 202.582031 257.632812 L 202.671875 257.628906 L 205.222656 263.984375 C 205.46875 264.589844 205.664062 264.964844 205.8125 265.117188 C 205.921875 265.230469 206.078125 265.292969 206.277344 265.304688 L 206.28125 265.519531 L 203.160156 265.679688 L 203.152344 265.464844 L 203.28125 265.457031 C 203.53125 265.445312 203.707031 265.394531 203.804688 265.300781 C 203.871094 265.238281 203.902344 265.144531 203.898438 265.03125 C 203.898438 264.957031 203.886719 264.886719 203.863281 264.816406 C 203.855469 264.78125 203.804688 264.636719 203.707031 264.386719 Z M 203.152344 262.996094 L 202.097656 260.324219 L 201.199219 263.097656 Z M 203.152344 262.996094 "/>
<path style=" stroke:none;fill-rule:evenodd;fill:rgb(100%,96.470588%,0%);fill-opacity:1;" d="M 195.808594 193.464844 L 247.976562 193.464844 L 247.976562 242.746094 L 195.808594 242.746094 Z M 195.808594 193.464844 "/>
<path style=" stroke:none;fill-rule:evenodd;fill:rgb(80%,9.803922%,0%);fill-opacity:1;" d="M 203.261719 144.183594 L 210.714844 144.183594 L 210.714844 193.464844 L 203.261719 193.464844 Z M 203.261719 144.183594 "/>
<path style=" stroke:none;fill-rule:evenodd;fill:rgb(80%,9.803922%,0%);fill-opacity:1;" d="M 218.167969 144.183594 L 225.621094 144.183594 L 225.621094 193.464844 L 218.167969 193.464844 Z M 218.167969 144.183594 "/>
<path style=" stroke:none;fill-rule:evenodd;fill:rgb(80%,9.803922%,0%);fill-opacity:1;" d="M 233.070312 144.183594 L 240.523438 144.183594 L 240.523438 193.464844 L 233.070312 193.464844 Z M 233.070312 144.183594 "/>
<path style=" stroke:none;fill-rule:evenodd;fill:rgb(100%,96.470588%,0%);fill-opacity:1;" d="M 195.808594 144.183594 L 203.261719 144.183594 L 203.261719 193.464844 L 195.808594 193.464844 Z M 195.808594 144.183594 "/>
<path style=" stroke:none;fill-rule:evenodd;fill:rgb(100%,96.470588%,0%);fill-opacity:1;" d="M 210.714844 144.183594 L 218.167969 144.183594 L 218.167969 193.464844 L 210.714844 193.464844 Z M 210.714844 144.183594 "/>
<path style=" stroke:none;fill-rule:evenodd;fill:rgb(100%,96.470588%,0%);fill-opacity:1;" d="M 225.621094 144.183594 L 233.070312 144.183594 L 233.070312 193.464844 L 225.621094 193.464844 Z M 225.621094 144.183594 "/>
<path style=" stroke:none;fill-rule:evenodd;fill:rgb(100%,96.470588%,0%);fill-opacity:1;" d="M 240.523438 144.183594 L 247.976562 144.183594 L 247.976562 193.464844 L 240.523438 193.464844 Z M 240.523438 144.183594 "/>
<path style=" stroke:none;fill-rule:evenodd;fill:rgb(80%,9.803922%,0%);fill-opacity:1;" d="M 155.816406 198.394531 L 161.609375 198.394531 L 161.609375 242.746094 L 155.816406 242.746094 Z M 155.816406 198.394531 "/>
<path style=" stroke:none;fill-rule:evenodd;fill:rgb(80%,9.803922%,0%);fill-opacity:1;" d="M 167.40625 198.394531 L 173.203125 198.394531 L 173.203125 242.746094 L 167.40625 242.746094 Z M 167.40625 198.394531 "/>
<path style=" stroke:none;fill-rule:evenodd;fill:rgb(80%,9.803922%,0%);fill-opacity:1;" d="M 179 198.394531 L 184.796875 198.394531 L 184.796875 242.746094 L 179 242.746094 Z M 179 198.394531 "/>
<path style=" stroke:none;fill-rule:evenodd;fill:rgb(100%,96.470588%,0%);fill-opacity:1;" d="M 150.019531 198.394531 L 155.816406 198.394531 L 155.816406 242.746094 L 150.019531 242.746094 Z M 150.019531 198.394531 "/>
<path style=" stroke:none;fill-rule:evenodd;fill:rgb(100%,96.470588%,0%);fill-opacity:1;" d="M 161.613281 198.394531 L 167.410156 198.394531 L 167.410156 242.746094 L 161.613281 242.746094 Z M 161.613281 198.394531 "/>
<path style=" stroke:none;fill-rule:evenodd;fill:rgb(100%,96.470588%,0%);fill-opacity:1;" d="M 173.203125 198.394531 L 179 198.394531 L 179 242.746094 L 173.203125 242.746094 Z M 173.203125 198.394531 "/>
<path style=" stroke:none;fill-rule:evenodd;fill:rgb(100%,96.470588%,0%);fill-opacity:1;" d="M 184.796875 198.394531 L 190.59375 198.394531 L 190.59375 242.746094 L 184.796875 242.746094 Z M 184.796875 198.394531 "/>
<path style=" stroke:none;fill-rule:evenodd;fill:rgb(80%,9.803922%,0%);fill-opacity:1;" d="M 144.222656 198.394531 L 150.019531 198.394531 L 150.019531 242.746094 L 144.222656 242.746094 Z M 144.222656 198.394531 "/>
<path style=" stroke:none;fill-rule:evenodd;fill:rgb(100%,96.470588%,0%);fill-opacity:1;" d="M 138.425781 198.394531 L 144.222656 198.394531 L 144.222656 242.746094 L 138.425781 242.746094 Z M 138.425781 198.394531 "/>
<path style=" stroke:none;fill-rule:evenodd;fill:rgb(80%,9.803922%,0%);fill-opacity:1;" d="M 138.425781 144.183594 L 190.59375 144.183594 L 190.59375 193.464844 L 138.425781 193.464844 Z M 138.425781 144.183594 "/>
<path style=" stroke:none;fill-rule:evenodd;fill:rgb(100%,96.470588%,0%);fill-opacity:1;" d="M 185.964844 158.667969 C 187.035156 158.378906 187.191406 156.957031 187.351562 155.785156 C 187.679688 153.4375 185.695312 151.253906 182.917969 150.910156 C 180.140625 150.566406 177.65625 151.960938 177.328125 154.308594 L 175.167969 155.132812 L 178.179688 155.507812 L 174.929688 156.832031 L 178.953125 157.332031 L 146.527344 184.414062 L 148.300781 186.363281 L 180.726562 159.28125 C 181.582031 158.566406 180.964844 157.582031 180.019531 156.773438 C 178.902344 155.820312 179.191406 155.632812 179.335938 154.582031 C 179.550781 153.054688 181.015625 152.402344 182.679688 152.609375 C 184.347656 152.816406 185.539062 154.128906 185.34375 155.535156 C 185.242188 156.238281 184.953125 157.066406 184.207031 157.226562 C 182.976562 157.832031 184.75 159.78125 185.964844 158.667969 Z M 185.964844 158.667969 "/>
<path style="fill-rule:evenodd;fill:rgb(79.607843%,63.921569%,13.72549%);fill-opacity:1;stroke-width:1.25;stroke-linecap:butt;stroke-linejoin:miter;stroke:rgb(0%,0%,0%);stroke-opacity:1;stroke-miterlimit:4;" d="M 194.883624 361.419227 L 194.883624 698.029246 C 194.883624 733.46114 211.864542 751.184109 245.813111 751.184109 L 364.666268 751.184109 C 398.614837 751.184109 398.614837 786.616004 398.614837 786.616004 C 398.614837 786.616004 398.614837 751.184109 432.576672 751.184109 L 551.429829 751.184109 C 585.378398 751.184109 602.359316 733.46114 602.359316 698.029246 L 602.359316 361.419227 Z M 212.59419 379.142196 L 212.59419 556.301668 L 389.766187 556.301668 L 389.766187 379.142196 Z M 407.476753 379.142196 L 407.476753 556.301668 L 584.64875 556.301668 L 584.64875 379.142196 Z M 212.59419 574.010594 L 212.59419 680.32032 C 212.59419 715.752215 229.575108 733.46114 263.523677 733.46114 L 389.766187 733.46114 L 389.766187 574.010594 Z M 584.64875 574.010594 L 584.64875 680.32032 C 584.64875 715.752215 567.667832 733.46114 533.705997 733.46114 L 407.476753 733.46114 L 407.476753 574.010594 Z M 584.64875 574.010594 " transform="matrix(0.294448,0,0,0.278152,75.827812,38.728164)"/>
<path style=" stroke:none;fill-rule:evenodd;fill:rgb(100%,100%,100%);fill-opacity:1;" d="M 164.507812 149.113281 L 154.074219 159.671875 L 157.285156 178.679688 L 171.730469 178.679688 L 174.941406 159.671875 Z M 164.507812 149.113281 "/>
<path style=" stroke:none;fill-rule:evenodd;fill:rgb(100%,96.470588%,0%);fill-opacity:1;" d="M 163.707031 153.054688 L 155.683594 160.9375 L 158.894531 176.707031 L 163.707031 176.707031 Z M 165.3125 153.054688 L 165.3125 176.707031 L 170.128906 176.707031 L 173.339844 160.9375 Z M 165.3125 153.054688 "/>
<path style=" stroke:none;fill-rule:evenodd;fill:rgb(100%,98.431373%,100%);fill-opacity:1;" d="M 167.117188 178.679688 L 164.511719 178.679688 C 164.511719 178.679688 165.8125 182.761719 167.117188 182.761719 C 172.335938 182.761719 182.796875 176.808594 182.769531 178.679688 C 182.769531 182.761719 180.160156 180.722656 180.160156 182.761719 C 180.160156 184.804688 185.375 182.761719 185.375 180.722656 C 185.375 178.679688 185.375 176.640625 182.769531 176.640625 C 180.160156 176.640625 172.578125 180.75 169.726562 180.722656 C 167.117188 180.722656 167.117188 178.679688 167.117188 178.679688 Z M 167.117188 178.679688 "/>
<path style=" stroke:none;fill-rule:evenodd;fill:rgb(100%,98.431373%,100%);fill-opacity:1;" d="M 161.902344 178.679688 L 164.507812 178.679688 C 164.507812 178.679688 163.203125 182.761719 161.902344 182.761719 C 156.683594 182.761719 146.222656 176.808594 146.25 178.679688 C 146.25 182.761719 148.859375 180.722656 148.859375 182.761719 C 148.859375 184.804688 143.644531 182.761719 143.644531 180.722656 C 143.644531 178.679688 143.644531 176.640625 146.25 176.640625 C 148.859375 176.640625 156.441406 180.75 159.292969 180.722656 C 161.902344 180.722656 161.902344 178.679688 161.902344 178.679688 Z M 161.902344 178.679688 "/>
<path style="fill-rule:evenodd;fill:rgb(80%,9.803922%,0%);fill-opacity:1;stroke-width:5;stroke-linecap:butt;stroke-linejoin:miter;stroke:rgb(100%,96.470588%,0%);stroke-opacity:1;stroke-miterlimit:4;" d="M 70.871846 574.035187 C 70.866275 609.440489 99.557062 610.701212 88.572838 627.163981 L 53.151614 680.340618 L 35.420644 680.30209 L 53.163291 627.164984 C 59.069193 609.46928 70.853436 561.806188 70.871846 574.035187 Z M 70.871846 574.035187 " transform="matrix(0.109543,0.0187562,-0.023483,0.0874943,235.46259,155.961551)"/>
<path style="fill-rule:evenodd;fill:rgb(80%,9.803922%,0%);fill-opacity:1;stroke-width:7.9903;stroke-linecap:butt;stroke-linejoin:miter;stroke:rgb(100%,96.470588%,0%);stroke-opacity:1;stroke-miterlimit:4;" d="M 35.454714 423.443839 C 35.454714 427.107275 37.682946 455.280844 35.454714 458.508157 C 33.181917 461.648245 26.452654 439.842077 22.441836 442.197143 C 18.431017 444.639434 14.865845 466.358377 9.562651 467.753972 C 4.259458 469.062342 -2.737192 449.960139 -8.84255 449.960139 C -14.992471 449.960139 -20.785876 469.062342 -26.08907 467.753972 C -31.392263 466.358377 -36.160681 444.639434 -40.171499 442.197143 C -44.182318 439.842077 -50.91158 461.648245 -53.139813 458.508157 C -55.41261 455.280844 -53.139813 427.107275 -53.139813 423.443839 C -53.139813 408.790095 -33.308543 396.840315 -8.84255 396.840315 C 15.578879 396.840315 35.454714 408.790095 35.454714 423.443839 Z M 35.454714 423.443839 " transform="matrix(0.0876536,0,0,0.0447838,230.0993,191.87643)"/>
<path style=" stroke:none;fill-rule:evenodd;fill:rgb(0%,55.294118%,0%);fill-opacity:1;" d="M 211.0625 199.847656 C 212.210938 200.378906 212.117188 201.261719 211.726562 201.4375 C 211.335938 201.609375 210.792969 201.007812 209.644531 200.476562 C 208.492188 199.945312 207.167969 199.6875 207.558594 199.515625 C 207.949219 199.34375 209.910156 199.320312 211.0625 199.847656 Z M 211.0625 199.847656 "/>
<path style="fill-rule:evenodd;fill:rgb(80%,9.803922%,0%);fill-opacity:1;stroke-width:5;stroke-linecap:butt;stroke-linejoin:miter;stroke:rgb(100%,96.470588%,0%);stroke-opacity:1;stroke-miterlimit:4;" d="M -70.842345 414.56676 L -70.889979 467.718566 L -17.73607 467.718204 L -17.726276 449.983334 L -53.174642 450.003219 L -53.136802 414.586283 Z M -70.842345 414.56676 " transform="matrix(0.0598932,0.0756209,-0.0946779,0.0478378,258.001115,194.224429)"/>
<path style="fill-rule:evenodd;fill:rgb(80%,9.803922%,0%);fill-opacity:1;stroke-width:5;stroke-linecap:butt;stroke-linejoin:miter;stroke:rgb(100%,96.470588%,0%);stroke-opacity:1;stroke-miterlimit:4;" d="M 70.866481 574.013699 C 70.866481 609.460911 99.562337 610.683229 88.579112 627.184518 L 53.15385 680.311682 L 35.44122 680.311682 L 53.15385 627.184518 C 59.046438 609.460911 35.44122 591.737305 -17.731539 627.184518 C -29.935123 627.184518 -88.582062 618.191752 -88.582062 627.184518 L -88.582062 680.311682 L -106.294692 680.311682 L -106.294692 627.184518 C -106.294692 620.243499 -141.719954 574.013699 -141.719954 556.290092 C -141.719954 544.066915 -194.892713 556.290092 -194.892713 538.566486 C -194.892713 529.748337 -159.432584 520.886534 -159.432584 503.162927 C -159.432584 485.439321 -124.007323 503.162927 -106.294692 503.162927 C -106.294692 520.886534 -124.007323 538.566486 -88.582062 538.566486 C -64.140026 538.566486 88.579112 538.566486 88.579112 556.290092 C 88.579112 574.013699 70.866481 561.790522 70.866481 574.013699 Z M 70.866481 574.013699 " transform="matrix(0.112032,0,0,0.0894816,227.338056,155.96834)"/>
<path style=" stroke:none;fill-rule:evenodd;fill:rgb(0%,55.294118%,0%);fill-opacity:1;" d="M 216.089844 216.84375 C 217.167969 216.839844 217.554688 217.640625 217.371094 217.945312 C 217.183594 218.253906 216.496094 217.949219 215.417969 217.957031 C 214.339844 217.964844 213.28125 218.273438 213.464844 217.96875 C 213.652344 217.660156 215.011719 216.851562 216.089844 216.84375 Z M 216.089844 216.84375 "/>
<path style=" stroke:none;fill-rule:evenodd;fill:rgb(0%,55.294118%,0%);fill-opacity:1;" d="M 231.96875 216.84375 C 233.046875 216.839844 233.433594 217.640625 233.246094 217.945312 C 233.0625 218.253906 232.375 217.949219 231.296875 217.957031 C 230.21875 217.964844 229.160156 218.273438 229.34375 217.96875 C 229.53125 217.660156 230.890625 216.851562 231.96875 216.84375 Z M 231.96875 216.84375 "/>
<path style=" stroke:none;fill-rule:evenodd;fill:rgb(0%,55.294118%,0%);fill-opacity:1;" d="M 213.582031 214.628906 C 214.453125 214.125 215.351562 214.597656 215.425781 214.933594 C 215.496094 215.269531 214.714844 215.34375 213.839844 215.847656 C 212.96875 216.351562 212.332031 217.097656 212.257812 216.761719 C 212.1875 216.421875 212.707031 215.132812 213.582031 214.628906 Z M 213.582031 214.628906 "/>
<path style=" stroke:none;fill-rule:evenodd;fill:rgb(0%,55.294118%,0%);fill-opacity:1;" d="M 224.246094 215.53125 C 225.324219 215.503906 225.738281 216.296875 225.5625 216.605469 C 225.386719 216.917969 224.6875 216.628906 223.609375 216.660156 C 222.535156 216.6875 221.484375 217.023438 221.660156 216.710938 C 221.835938 216.402344 223.167969 215.5625 224.246094 215.53125 Z M 224.246094 215.53125 "/>
<path style=" stroke:none;fill-rule:evenodd;fill:rgb(0%,55.294118%,0%);fill-opacity:1;" d="M 210.703125 206.074219 L 215.429688 203.179688 L 216.636719 204.4375 L 211.910156 207.332031 Z M 210.703125 206.074219 "/>
<path style=" stroke:none;fill-rule:evenodd;fill:rgb(0%,55.294118%,0%);fill-opacity:1;" d="M 212.664062 208.125 C 212.664062 208.5625 212.394531 208.917969 212.0625 208.917969 C 211.730469 208.917969 211.460938 208.5625 211.460938 208.125 C 211.460938 207.6875 211.730469 207.332031 212.0625 207.332031 C 212.394531 207.332031 212.664062 207.6875 212.664062 208.125 Z M 212.664062 208.125 "/>
<path style="fill-rule:evenodd;fill:rgb(80%,9.803922%,0%);fill-opacity:1;stroke-width:5.0546;stroke-linecap:butt;stroke-linejoin:miter;stroke:rgb(100%,96.470588%,0%);stroke-opacity:1;stroke-miterlimit:4;" d="M 48.003022 681.829657 C 82.081501 681.888081 82.081501 694.741299 67.859773 694.741299 C 48.003022 694.741299 -0.0288514 699.123078 -0.0288514 698.013027 C -0.0288514 696.902977 -16.464339 683.816064 -16.464339 683.816064 C -17.738927 680.31064 -15.323917 697.954604 -17.738927 698.013027 C -20.153938 698.129875 -34.174415 682.647589 -34.174415 682.647589 C -34.174415 682.647589 -32.832742 697.89618 -34.174415 697.954604 C -35.449004 698.013027 -51.817407 688.548385 -51.817407 688.548385 L -52.957829 696.786129 L -68.319978 706.192348 L -52.957829 716.767041 L -52.957829 725.063209 L -37.662763 716.767041 L -36.522341 732.074055 L -17.671844 716.767041 C -17.671844 716.767041 -12.908907 733.067259 -15.323917 733.300953 C -17.738927 733.476225 1.178654 716.767041 1.178654 716.767041 C -0.0288514 715.773838 55.248053 716.767041 88.588613 715.773838 C 121.929172 714.722211 121.32542 663.835152 106.298689 662.608254 C 91.271957 661.381355 48.003022 665.938406 48.003022 662.374559 " transform="matrix(0.0582296,0,0,0.0668607,230.497774,160.881151)"/>
<path style="fill-rule:evenodd;fill:rgb(80%,9.803922%,0%);fill-opacity:1;stroke-width:5;stroke-linecap:butt;stroke-linejoin:miter;stroke:rgb(100%,96.470588%,0%);stroke-opacity:1;stroke-miterlimit:4;" d="M 70.867799 574.016309 C 70.871378 609.464295 99.553015 610.682333 88.577942 627.187787 L 53.147567 680.32174 L 35.425747 680.325895 L 53.159244 627.146106 C 59.065146 609.450401 70.849389 561.78731 70.867799 574.016309 Z M 70.867799 574.016309 " transform="matrix(0.109543,0.0187562,-0.023483,0.0874943,235.46259,175.674216)"/>
<path style="fill-rule:evenodd;fill:rgb(80%,9.803922%,0%);fill-opacity:1;stroke-width:7.9903;stroke-linecap:butt;stroke-linejoin:miter;stroke:rgb(100%,96.470588%,0%);stroke-opacity:1;stroke-miterlimit:4;" d="M 35.454714 423.405262 C 35.454714 427.068698 37.682946 455.329491 35.454714 458.469579 C 33.181917 461.696892 26.452654 439.8035 22.441836 442.24579 C 18.431017 444.600856 14.865845 466.407024 9.562651 467.715394 C 4.259458 469.023764 -2.737192 450.008786 -8.84255 450.008786 C -14.992471 450.008786 -20.785876 469.023764 -26.08907 467.715394 C -31.392263 466.407024 -36.160681 444.600856 -40.171499 442.24579 C -44.182318 439.8035 -50.91158 461.696892 -53.139813 458.469579 C -55.41261 455.329491 -53.139813 427.068698 -53.139813 423.405262 C -53.139813 408.751517 -33.308543 396.888962 -8.84255 396.888962 C 15.578879 396.888962 35.454714 408.751517 35.454714 423.405262 Z M 35.454714 423.405262 " transform="matrix(0.0876536,0,0,0.0447838,230.0993,211.589095)"/>
<path style=" stroke:none;fill-rule:evenodd;fill:rgb(0%,55.294118%,0%);fill-opacity:1;" d="M 211.0625 219.5625 C 212.210938 220.09375 212.117188 220.976562 211.726562 221.148438 C 211.335938 221.324219 210.792969 220.71875 209.644531 220.1875 C 208.492188 219.660156 207.167969 219.402344 207.558594 219.226562 C 207.949219 219.054688 209.910156 219.03125 211.0625 219.5625 Z M 211.0625 219.5625 "/>
<path style="fill-rule:evenodd;fill:rgb(80%,9.803922%,0%);fill-opacity:1;stroke-width:5;stroke-linecap:butt;stroke-linejoin:miter;stroke:rgb(100%,96.470588%,0%);stroke-opacity:1;stroke-miterlimit:4;" d="M -70.858662 414.556438 L -70.869403 467.731582 L -17.715495 467.73122 L -17.705701 449.99635 L -53.154067 450.016235 L -53.153119 414.575961 Z M -70.858662 414.556438 " transform="matrix(0.0598932,0.0756209,-0.0946779,0.0478378,258.001115,213.937094)"/>
<path style="fill-rule:evenodd;fill:rgb(80%,9.803922%,0%);fill-opacity:1;stroke-width:5;stroke-linecap:butt;stroke-linejoin:miter;stroke:rgb(100%,96.470588%,0%);stroke-opacity:1;stroke-miterlimit:4;" d="M 70.866481 574.038045 C 70.866481 609.441604 99.562337 610.707576 88.579112 627.16521 L 53.15385 680.336029 L 35.44122 680.336029 L 53.15385 627.16521 C 59.046438 609.441604 35.44122 591.717998 -17.731539 627.16521 C -29.935123 627.16521 -88.582062 618.216099 -88.582062 627.16521 L -88.582062 680.336029 L -106.294692 680.336029 L -106.294692 627.16521 C -106.294692 620.224192 -141.719954 574.038045 -141.719954 556.314439 C -141.719954 544.091262 -194.892713 556.314439 -194.892713 538.590833 C -194.892713 529.72903 -159.432584 520.867226 -159.432584 503.14362 C -159.432584 485.420014 -124.007323 503.14362 -106.294692 503.14362 C -106.294692 520.867226 -124.007323 538.590833 -88.582062 538.590833 C -64.140026 538.590833 88.579112 538.590833 88.579112 556.314439 C 88.579112 574.038045 70.866481 561.814869 70.866481 574.038045 Z M 70.866481 574.038045 " transform="matrix(0.112032,0,0,0.0894816,227.338056,175.681005)"/>
<path style=" stroke:none;fill-rule:evenodd;fill:rgb(0%,55.294118%,0%);fill-opacity:1;" d="M 216.089844 236.554688 C 217.167969 236.550781 217.554688 237.351562 217.371094 237.660156 C 217.183594 237.964844 216.496094 237.664062 215.417969 237.667969 C 214.339844 237.675781 213.28125 237.988281 213.464844 237.679688 C 213.652344 237.375 215.011719 236.5625 216.089844 236.554688 Z M 216.089844 236.554688 "/>
<path style=" stroke:none;fill-rule:evenodd;fill:rgb(0%,55.294118%,0%);fill-opacity:1;" d="M 231.96875 236.554688 C 233.046875 236.550781 233.433594 237.351562 233.246094 237.660156 C 233.0625 237.964844 232.375 237.664062 231.296875 237.667969 C 230.21875 237.675781 229.160156 237.988281 229.34375 237.679688 C 229.53125 237.375 230.890625 236.5625 231.96875 236.554688 Z M 231.96875 236.554688 "/>
<path style=" stroke:none;fill-rule:evenodd;fill:rgb(0%,55.294118%,0%);fill-opacity:1;" d="M 213.582031 234.34375 C 214.453125 233.839844 215.351562 234.3125 215.425781 234.648438 C 215.496094 234.984375 214.714844 235.054688 213.839844 235.558594 C 212.96875 236.0625 212.332031 236.808594 212.257812 236.472656 C 212.1875 236.136719 212.707031 234.84375 213.582031 234.34375 Z M 213.582031 234.34375 "/>
<path style=" stroke:none;fill-rule:evenodd;fill:rgb(0%,55.294118%,0%);fill-opacity:1;" d="M 224.246094 235.246094 C 225.324219 235.214844 225.738281 236.007812 225.5625 236.320312 C 225.386719 236.628906 224.6875 236.34375 223.609375 236.371094 C 222.535156 236.402344 221.484375 236.734375 221.660156 236.425781 C 221.835938 236.113281 223.167969 235.273438 224.246094 235.246094 Z M 224.246094 235.246094 "/>
<path style=" stroke:none;fill-rule:evenodd;fill:rgb(0%,55.294118%,0%);fill-opacity:1;" d="M 210.703125 225.785156 L 215.429688 222.894531 L 216.636719 224.152344 L 211.910156 227.046875 Z M 210.703125 225.785156 "/>
<path style=" stroke:none;fill-rule:evenodd;fill:rgb(0%,55.294118%,0%);fill-opacity:1;" d="M 212.664062 227.835938 C 212.664062 228.273438 212.394531 228.628906 212.0625 228.628906 C 211.730469 228.628906 211.460938 228.273438 211.460938 227.835938 C 211.460938 227.398438 211.730469 227.042969 212.0625 227.042969 C 212.394531 227.042969 212.664062 227.398438 212.664062 227.835938 Z M 212.664062 227.835938 "/>
<path style="fill-rule:evenodd;fill:rgb(80%,9.803922%,0%);fill-opacity:1;stroke-width:5.0546;stroke-linecap:butt;stroke-linejoin:miter;stroke:rgb(100%,96.470588%,0%);stroke-opacity:1;stroke-miterlimit:4;" d="M 48.003022 681.862241 C 82.081501 681.862241 82.081501 694.773883 67.859773 694.773883 C 48.003022 694.773883 -0.0288514 699.155662 -0.0288514 698.045611 C -0.0288514 696.935561 -16.464339 683.848648 -16.464339 683.848648 C -17.738927 680.343225 -15.323917 697.928764 -17.738927 698.045611 C -20.153938 698.104035 -34.174415 682.62175 -34.174415 682.62175 C -34.174415 682.62175 -32.832742 697.87034 -34.174415 697.928764 C -35.449004 698.045611 -51.817407 688.522545 -51.817407 688.522545 L -52.957829 696.76029 L -68.319978 706.224932 L -52.957829 716.799625 L -52.957829 725.037369 L -37.662763 716.799625 L -36.522341 732.106639 L -17.671844 716.799625 C -17.671844 716.799625 -12.908907 733.099843 -15.323917 733.275114 C -17.738927 733.450385 1.178654 716.799625 1.178654 716.799625 C -0.0288514 715.747998 55.248053 716.799625 88.588613 715.747998 C 121.929172 714.696371 121.32542 663.809312 106.298689 662.582414 C 91.271957 661.355516 48.003022 665.912566 48.003022 662.407143 " transform="matrix(0.0582296,0,0,0.0668607,230.497774,180.593816)"/>
</g>
</svg>
