<?xml version="1.0" encoding="UTF-8"?>
<svg xmlns="http://www.w3.org/2000/svg" xmlns:xlink="http://www.w3.org/1999/xlink" width="384pt" height="384pt" viewBox="0 0 384 384" version="1.1">
<g id="surface1">
<rect x="0" y="0" width="384" height="384" style="fill:rgb(87.058824%,12.941176%,6.27451%);fill-opacity:1;stroke:none;"/>
<path style=" stroke:none;fill-rule:nonzero;fill:rgb(0%,0%,0%);fill-opacity:1;" d="M 125.609375 95.476562 C 131.125 94.9375 132.246094 95.007812 136.292969 96.058594 C 131.09375 98.4375 124.945312 97.246094 121.132812 93.867188 C 115.367188 88.632812 101.640625 79.585938 106.550781 87.296875 C 132.015625 115.515625 153.945312 96.4375 167.285156 112.683594 C 171.828125 118.21875 175.839844 125.648438 173.449219 132.945312 C 172.632812 135.441406 169.679688 141.316406 166.109375 139.824219 C 161.433594 137.867188 166.996094 122.507812 163.59375 117.511719 C 155.867188 106.164062 141.867188 109.199219 130.382812 107.972656 C 127.050781 117.007812 119.023438 115.648438 111.644531 111.089844 C 102.222656 105.269531 102.503906 90.960938 94.085938 86.238281 C 85.3125 81.3125 86.742188 97.804688 88.152344 101.722656 C 94.277344 118.707031 112.3125 125.054688 128.820312 122.035156 C 116.601562 140.949219 97.238281 109.789062 87.648438 117.421875 C 81.5625 122.261719 92.3125 131.074219 96.035156 133.09375 C 106.339844 138.6875 118.71875 135.878906 128.820312 131.40625 C 123.050781 137.671875 112.4375 141.515625 103.824219 140.242188 C 99.375 139.585938 90.460938 133.996094 86.40625 137.722656 C 80.148438 143.476562 95.425781 150.300781 99.136719 151.105469 C 111.644531 153.828125 120.503906 147.226562 130.382812 140.78125 C 124.179688 146.980469 117.554688 155.472656 108.511719 157.328125 C 102.871094 158.484375 90.417969 152.726562 86.773438 158.703125 C 82.414062 165.851562 93.972656 170.371094 99.136719 169.925781 C 111.371094 168.867188 122.734375 159.023438 131.945312 151.714844 C 125.613281 160.695312 115.84375 170.199219 105.386719 174.257812 C 99.898438 176.386719 90.460938 173.089844 86.328125 177.871094 C 79.960938 185.238281 93.976562 189.585938 99.136719 188.332031 C 114.195312 184.667969 122.230469 168.191406 136.632812 162.652344 C 126.863281 171.648438 116.515625 185.589844 105.246094 192.257812 C 99.648438 195.574219 90.515625 191.511719 86.089844 196.402344 C 76.078125 207.453125 101.15625 209.816406 108.238281 203.960938 C 120.105469 194.15625 125.792969 180.097656 139.757812 172.027344 C 130.445312 184.691406 118.648438 203.605469 106.804688 213.828125 C 101.164062 218.695312 88.785156 214.425781 85.210938 219.835938 C 78.039062 230.707031 101.175781 232.574219 106.941406 228.730469 C 125.875 216.125 126.910156 186.902344 150.691406 179.835938 C 143.953125 194.269531 137.230469 213.804688 121.007812 218.894531 C 123.441406 226.226562 132.046875 226.867188 137.578125 221.523438 C 147.070312 212.355469 145.109375 191.480469 161.628906 190.773438 L 149.714844 207.472656 C 150.347656 214.292969 162.574219 205.144531 166.316406 198.585938 L 167.875 198.585938 C 161.367188 214.109375 149.878906 222.78125 135.070312 229.832031 C 135.359375 239.085938 129.167969 243.855469 121.007812 247.015625 C 116.617188 238.945312 104.921875 232.941406 99.136719 242.328125 C 103.726562 242.949219 107.828125 243.808594 108.511719 248.578125 C 101.230469 245.949219 95.488281 244.703125 92.886719 253.265625 C 101.414062 251.863281 104.328125 252.175781 105.777344 255.902344 C 99.949219 262.613281 100.898438 272.824219 111.636719 273.816406 C 108.640625 271.652344 106.621094 270.222656 108.265625 267.324219 C 110.648438 264.164062 113.464844 267.363281 114.847656 265.476562 C 117.425781 261.714844 115.105469 263.03125 118.390625 264.542969 C 121.085938 266.472656 125.464844 258.40625 131.699219 272.011719 C 139.203125 266.617188 131.984375 258.085938 128.820312 251.703125 L 152.253906 247.015625 L 178.8125 222.019531 L 180.375 223.582031 C 171.789062 237.089844 159.4375 248.6875 142.878906 250.140625 C 148.421875 260.191406 159.292969 255.007812 167.875 251.703125 C 164.144531 258.984375 154.457031 259.027344 151.203125 265.050781 C 144.53125 277.410156 172.398438 264.671875 174.125 264.203125 C 171.898438 272.042969 163.121094 273.617188 160.839844 280.261719 C 159.070312 285.425781 166.300781 285.9375 169.371094 284.4375 C 175.300781 281.542969 179.175781 273.691406 183.5 268.890625 C 181.472656 278.261719 185.308594 285.683594 174.988281 296.523438 L 190.824219 316 L 208.902344 296.5 C 198.921875 287.863281 205.050781 277.765625 203.125 268.402344 C 207.355469 273.359375 208.792969 281.496094 214.800781 284.4375 C 217.601562 285.808594 223.382812 285.855469 222.679688 281.242188 C 221.683594 274.707031 212.085938 271.351562 210.058594 264.203125 C 212.058594 264.863281 239.070312 277.53125 232.855469 265.050781 C 229.910156 259.136719 219.945312 258.804688 216.308594 251.703125 C 224.988281 255.046875 233.902344 259.261719 241.304688 251.703125 C 227.542969 246.921875 207.078125 238.78125 205.371094 222.019531 L 232.375 245.273438 L 255.363281 253.265625 L 255.363281 254.828125 C 249.761719 260.664062 246.519531 264.738281 251.164062 271.867188 L 256.875 273.578125 C 253.214844 269.539062 254.4375 267.457031 256.875 265.863281 C 261.011719 263.890625 263.496094 267.714844 265.097656 263.769531 C 265.824219 261.855469 266.078125 260.953125 266.449219 263.292969 C 266.855469 267.433594 272.59375 264.246094 274.597656 264.789062 C 277.738281 267.878906 273.066406 270.972656 272.546875 273.578125 C 281.425781 270.464844 283.101562 265.019531 280.359375 256.390625 C 280.945312 253.121094 282.996094 251.558594 285.046875 251.703125 C 287.375 251.980469 289.210938 252.746094 291.296875 253.265625 C 288.246094 245.304688 282.867188 245.605469 275.671875 248.578125 C 276.324219 243.8125 278.683594 241.484375 283.484375 242.332031 C 279.875 231.507812 266.832031 240.195312 263.175781 247.019531 C 254.679688 244.199219 246.546875 239.597656 249.113281 229.832031 C 234.757812 223 221.398438 214.535156 216.304688 198.585938 L 217.867188 198.585938 C 221.609375 205.144531 233.589844 209.65625 232.757812 203.566406 L 222.554688 190.777344 C 244.527344 191.71875 235.777344 231.660156 263.175781 223.582031 L 263.175781 220.460938 C 247.40625 211.675781 240.929688 195.773438 233.492188 179.839844 C 256.875 186.789062 257.648438 215.792969 275.816406 228.460938 C 281.628906 232.511719 306.082031 231.425781 298.894531 219.839844 C 295.660156 214.628906 282.761719 218.390625 277.296875 213.832031 C 265.429688 203.933594 253.496094 184.683594 244.425781 172.027344 C 258.777344 181.148438 265.648438 199.519531 280.359375 206.886719 C 286.574219 210 301.300781 209.535156 299.1875 198.8125 C 297.683594 191.183594 285.449219 195.4375 280.382812 193.265625 C 269.019531 188.390625 256.660156 171.375 247.550781 162.65625 C 261.191406 168.644531 269.28125 183.90625 283.484375 188.195312 C 288.710938 189.769531 302.210938 187.421875 298.472656 178.953125 C 295.816406 172.9375 283.917969 176.183594 278.796875 174.339844 C 267.542969 170.285156 258.890625 159.933594 250.675781 151.71875 C 261.703125 158.0625 271.671875 168.789062 285.046875 169.925781 C 290.210938 170.367188 303.605469 164.242188 296.570312 157.707031 C 291.996094 153.457031 282.746094 158.199219 277.234375 157.574219 C 268.363281 156.566406 260.902344 148.742188 255.363281 142.347656 C 268.269531 150.273438 308.324219 153.652344 301.304688 137.074219 C 296.433594 133.019531 291.109375 140.078125 281.53125 140.34375 C 271.488281 140.367188 261.535156 137.988281 253.3125 131.652344 C 263.78125 135.1875 275.792969 138.9375 286.585938 133.882812 C 290.421875 132.085938 304.160156 120.703125 295.28125 116.796875 C 288.359375 113.753906 281.226562 123.558594 275.671875 126.039062 C 268.789062 129.117188 260.757812 126.875 253.800781 125.160156 L 253.800781 123.597656 C 268.070312 122.839844 282.238281 122.03125 291.625 109.476562 C 294.707031 105.351562 302.742188 88.464844 293.769531 85.714844 C 290.183594 84.617188 287.410156 88.195312 285.917969 90.882812 C 281.535156 98.785156 261.984375 130.167969 253.800781 107.976562 C 242.292969 109.203125 228.351562 106.175781 220.589844 117.511719 C 217.148438 122.542969 222.464844 137.984375 217.820312 139.828125 C 204.691406 145.035156 213.460938 116.34375 216.640625 112.6875 C 230.789062 96.421875 269.042969 110.425781 275.671875 87.667969 C 276.394531 81.632812 267.792969 92.429688 263.742188 95.050781 C 259.355469 97.753906 253.785156 97.929688 249.113281 97.039062 C 254.070312 94.445312 258.050781 95.265625 261.175781 94.746094 C 258.242188 89.59375 251.515625 90.246094 249.796875 87.394531 C 247.554688 83.339844 238.605469 82.160156 233.523438 82.964844 C 223.855469 85.101562 220.132812 87.984375 202.246094 82.980469 L 210.058594 92.351562 L 198.863281 97.03125 L 203.808594 100.164062 L 194.433594 106.414062 C 195.996094 106.933594 199.71875 106.9375 199.46875 108.40625 L 191.914062 121.25 C 190.347656 118.558594 185.195312 111.507812 184.46875 108.804688 C 184.105469 107.597656 186.285156 107.035156 189.230469 106.5 L 180.375 100.164062 L 186.097656 96.820312 L 174.125 92.355469 L 180.375 82.980469 C 170.414062 89.625 161.859375 80.335938 150.328125 83.054688 C 145.410156 84.171875 141.4375 89.648438 136.804688 88.734375 C 132.902344 88.066406 128.347656 90.386719 125.609375 95.476562 Z M 125.609375 95.476562 "/>
<path style=" stroke:none;fill-rule:evenodd;fill:rgb(87.058824%,12.941176%,6.27451%);fill-opacity:1;" d="M 99.253906 248.476562 C 99.742188 248.710938 100.640625 248.59375 100.777344 249.121094 C 99.859375 249.453125 98.765625 249.492188 97.847656 249.414062 C 98.277344 248.4375 98.765625 248.808594 99.253906 248.476562 Z M 99.253906 248.476562 "/>
<path style=" stroke:none;fill-rule:evenodd;fill:rgb(87.058824%,12.941176%,6.27451%);fill-opacity:1;" d="M 141.148438 248.648438 C 140.664062 248.882812 139.765625 248.765625 139.628906 249.292969 C 140.546875 249.625 141.640625 249.664062 142.558594 249.585938 C 142.128906 248.609375 141.636719 248.980469 141.148438 248.648438 Z M 141.148438 248.648438 "/>
</g>
</svg>
