<?xml version="1.0" encoding="UTF-8"?>
<svg xmlns="http://www.w3.org/2000/svg" xmlns:xlink="http://www.w3.org/1999/xlink" width="384pt" height="384pt" viewBox="0 0 384 384" version="1.1">
<g id="surface1">
<rect x="0" y="0" width="384" height="384" style="fill:rgb(22.745098%,49.019608%,80.784314%);fill-opacity:1;stroke:none;"/>
<path style=" stroke:none;fill-rule:nonzero;fill:rgb(100%,100%,100%);fill-opacity:1;" d="M 71.878906 178.425781 C 69.101562 172.746094 69.101562 172.746094 69.101562 167.070312 C 67.714844 167.070312 67.453125 167.335938 66.652344 167.113281 C 65.851562 166.890625 65.546875 172.347656 62.941406 171.285156 C 62.507812 170.75 64.808594 166.804688 62.3125 165.164062 C 61.511719 164.628906 62.507812 161.390625 62.164062 159.972656 C 62.164062 159.972656 58.996094 161.65625 56.609375 155.714844 C 55.4375 154.164062 53.832031 157.132812 53.832031 157.132812 C 53.832031 157.132812 54.527344 158.953125 53.269531 159.398438 C 51.492188 158.066406 50.1875 158.761719 47.933594 156.933594 C 45.679688 155.105469 48.410156 153.007812 44.117188 151.457031 C 46.894531 144.359375 46.894531 145.78125 53.832031 142.941406 C 49.667969 140.101562 49.667969 140.101562 46.894531 135.84375 C 42.726562 134.425781 41.339844 133.007812 37.175781 130.167969 C 31.625 123.066406 28.847656 108.875 28.847656 98.9375 C 32.359375 95.609375 37.175781 110.292969 44.117188 114.550781 L 53.832031 118.808594 C 59.386719 121.648438 60.773438 124.484375 64.9375 127.324219 L 77.433594 131.582031 C 82.984375 135.839844 85.761719 141.515625 89.925781 142.9375 C 94.4375 142.9375 95.304688 140.28125 96.753906 140.113281 C 104.914062 139.6875 109.078125 138.613281 110.703125 136.105469 C 112.351562 134.109375 116.300781 137.257812 127.40625 133 L 126.019531 127.324219 C 126.019531 127.324219 128.96875 124.839844 132.957031 125.902344 C 132.851562 123.308594 132.589844 116.390625 136.519531 113.269531 C 134.132812 110.707031 135.734375 108.871094 135.734375 108.871094 C 135.734375 108.871094 137.949219 106.699219 138.207031 105.546875 C 137.035156 99.292969 139.222656 99.195312 139.714844 97.355469 C 140.203125 95.515625 137.824219 96.144531 138.496094 93.609375 C 139.164062 91.074219 143.1875 90.46875 143.722656 88.378906 C 144.265625 86.292969 142.578125 85.242188 142.675781 84.746094 C 143.542969 82.75 142.804688 78.046875 142.675781 76.226562 C 150.136719 74.1875 152.566406 67.976562 155.167969 70.550781 C 156.558594 62.035156 157.945312 59.195312 166.273438 59.195312 C 167.445312 56.578125 163.238281 54.359375 164.886719 53.519531 C 167.660156 53.164062 169.789062 53.339844 173.042969 57.644531 C 174.070312 59.007812 174.257812 55.648438 175.296875 55.292969 C 176.339844 54.9375 178.828125 54.933594 179.199219 53.253906 C 179.59375 51.523438 180.15625 49.261719 181.542969 46.421875 C 182.714844 44.117188 183.625 47.308594 184.667969 51.832031 C 190.523438 52.054688 203.753906 53.386719 209.304688 54.9375 C 213.472656 56.046875 216.246094 53.828125 220.238281 53.386719 C 223.1875 56.402344 225.964844 54.140625 227.527344 60.570312 C 229.730469 64.039062 233.339844 60.882812 234.121094 61.902344 C 238.761719 74.984375 254.726562 66.160156 255.941406 66.382812 C 257.976562 66.382812 260.46875 72.230469 262.074219 72.085938 C 264.679688 71.636719 263.941406 69.820312 266.21875 70.550781 C 265.613281 75.472656 270.6875 81.152344 270.6875 84.832031 C 270.6875 84.832031 271.925781 85.453125 273.070312 84.359375 C 274.214844 83.269531 275.265625 80.464844 276.285156 80.53125 C 278.714844 80.882812 279.699219 81.203125 282.496094 81.703125 C 290.023438 84.332031 293.859375 84.925781 296.78125 86.273438 C 298.144531 88.820312 299.460938 90.121094 302.21875 89.644531 C 304.496094 91.210938 302.832031 93.257812 304.179688 93.390625 C 306.953125 91.972656 307.867188 90.421875 310.640625 91.839844 C 313.417969 93.257812 316.195312 96.097656 317.582031 98.9375 C 317.582031 100.355469 316.195312 106.035156 317.582031 114.550781 C 318.277344 117.386719 318.613281 119.636719 321.59375 124.507812 C 320.804688 129.507812 325.347656 137.921875 325.347656 140.054688 C 325.347656 142.890625 323.136719 144.355469 321.746094 147.195312 C 327.300781 151.453125 321.746094 158.546875 318.972656 162.804688 C 339.792969 167.0625 330.078125 175.582031 346.734375 171.320312 C 342.570312 181.257812 344.042969 180.460938 348.207031 190.394531 C 339.878906 196.070312 348.035156 197.800781 342.484375 204.898438 C 342.136719 205.339844 345.777344 211.0625 350.898438 211.0625 C 349.511719 222.417969 345.34375 218.160156 346.734375 235.191406 C 335.800781 234.96875 340.226562 247.921875 332.851562 246.546875 C 333.285156 254.664062 337.058594 255.375 335.628906 263.578125 C 330.078125 264.996094 330.078125 264.996094 327.300781 269.257812 L 323.136719 267.835938 C 321.746094 274.933594 318.972656 276.351562 323.136719 283.449219 C 323.136719 283.449219 317.757812 283.625 316.195312 283.449219 C 316.0625 285.890625 318.582031 286.554688 318.972656 289.125 C 318.753906 290.148438 311.074219 294.625 305.089844 294.804688 C 303.527344 298.308594 309.253906 302.035156 308.90625 303.808594 C 302.398438 305.09375 299.535156 313.253906 299.535156 313.253906 C 299.535156 313.253906 302.875 314.628906 302.3125 316.09375 C 300.535156 314.761719 299.535156 314.675781 296.761719 314.675781 C 295.371094 315.027344 291.988281 314.585938 288.746094 320.183594 C 285.183594 321.386719 283.503906 320.953125 280.800781 324.605469 C 279.605469 321.125 277.886719 324.636719 275.785156 325.984375 C 273.683594 327.335938 270.851562 330.695312 270.472656 330.554688 C 270.558594 329.578125 271.773438 326.027344 271.773438 326.027344 L 264.832031 327.449219 C 264.832031 327.449219 264.523438 327.480469 263.976562 327.535156 C 263.429688 327.589844 263.578125 323.394531 262.261719 323.546875 C 260.945312 323.699219 257.183594 328.824219 255.902344 328.984375 C 254.621094 329.144531 254.214844 327.355469 253.109375 327.511719 C 252.007812 327.667969 249.855469 332.917969 249.074219 333.058594 C 248.292969 333.195312 245.191406 329.867188 242.535156 330.332031 C 228.871094 335.253906 226.703125 320.617188 224.574219 328.867188 C 221.714844 327.316406 222.210938 328.214844 219.300781 328.996094 C 217.445312 329.484375 217.273438 326.484375 215.625 326.53125 C 212.320312 326.628906 212.496094 329.820312 210.695312 328.867188 C 209.21875 322.214844 200.328125 323.410156 199.460938 320.574219 C 198.753906 317.613281 203.3125 317.625 204.785156 315.621094 C 205.914062 312.726562 203.609375 311.628906 208.183594 308.835938 C 214.144531 304.714844 210.71875 303.15625 211.765625 300.058594 C 213.632812 295.585938 213.644531 294.492188 212.082031 290.546875 C 212.082031 290.546875 207.441406 277.773438 206.53125 277.773438 C 203.753906 276.972656 203.753906 282.472656 199.675781 283.980469 C 191.347656 286.820312 176.644531 276.796875 174.082031 276.796875 C 171.742188 276.839844 160.890625 279.421875 161.300781 273.890625 C 159.679688 279.269531 153.714844 275.15625 153.347656 275.15625 C 147.792969 275.15625 149.917969 279.546875 146.1875 279.367188 C 144.496094 278.792969 127.40625 277.769531 127.40625 277.769531 L 127.40625 280.609375 L 116.300781 274.933594 L 106.582031 272.09375 C 98.253906 269.253906 102.417969 262.160156 88.539062 266.417969 L 88.539062 257.902344 L 81.597656 257.902344 C 84.371094 240.867188 81.597656 249.386719 80.207031 233.773438 L 74.65625 235.191406 C 69.105469 227.519531 82.378906 228.980469 70.492188 223.835938 C 70.492188 223.835938 70.707031 215.363281 67.714844 218.160156 C 67.109375 218.515625 69.105469 222.417969 69.105469 222.417969 C 58 220.996094 55.222656 218.160156 55.222656 206.804688 C 55.222656 206.804688 64.375 208.136719 63.550781 206.804688 C 62.25 204.675781 60.558594 190.835938 60.859375 189.90625 C 60.730469 188.042969 69.363281 183.34375 67.695312 178.859375 C 68.757812 178.460938 71.878906 178.417969 71.878906 178.417969 "/>
<path style="fill:none;stroke-width:2.5336;stroke-linecap:butt;stroke-linejoin:round;stroke:rgb(100%,100%,100%);stroke-opacity:1;stroke-miterlimit:4;" d="M 119.510417 164.088542 C 119.510417 164.088542 116.40625 163.708333 117.104167 166.432292 C 118.114583 164.34375 119.447917 164.21875 119.510417 164.088542 Z M 119.510417 164.088542 " transform="matrix(0.75,0,0,0.75,0,0)"/>
<path style="fill:none;stroke-width:2.5336;stroke-linecap:butt;stroke-linejoin:round;stroke:rgb(100%,100%,100%);stroke-opacity:1;stroke-miterlimit:4;" d="M 120.208333 157.760417 C 118.5 157.822917 116.411458 157.505208 117.104167 160.229167 C 118.119792 158.140625 120.145833 157.885417 120.208333 157.760417 Z M 120.208333 157.760417 " transform="matrix(0.75,0,0,0.75,0,0)"/>
<path style="fill:none;stroke-width:2.5336;stroke-linecap:butt;stroke-linejoin:round;stroke:rgb(100%,100%,100%);stroke-opacity:1;stroke-miterlimit:4;" d="M 131.890625 194.052083 C 131.890625 194.052083 134.552083 193.859375 133.854167 196.583333 C 132.838542 194.494792 131.953125 194.177083 131.890625 194.052083 Z M 131.890625 194.052083 " transform="matrix(0.75,0,0,0.75,0,0)"/>
</g>
</svg>
