<?xml version="1.0" encoding="UTF-8"?>
<svg xmlns="http://www.w3.org/2000/svg" xmlns:xlink="http://www.w3.org/1999/xlink" width="384pt" height="384pt" viewBox="0 0 384 384" version="1.1">
<g id="surface1">
<path style=" stroke:none;fill-rule:evenodd;fill:rgb(0%,76.862745%,100%);fill-opacity:1;" d="M 0 -0.0078125 L 384.003906 -0.0078125 L 384.003906 128.335938 L 0 128.335938 Z M 0 -0.0078125 "/>
<path style=" stroke:none;fill-rule:evenodd;fill:rgb(100%,100%,100%);fill-opacity:1;" d="M 0 127.808594 L 384.003906 127.808594 L 384.003906 256.152344 L 0 256.152344 Z M 0 127.808594 "/>
<path style=" stroke:none;fill-rule:evenodd;fill:rgb(0%,76.862745%,100%);fill-opacity:1;" d="M 0 255.632812 L 384.003906 255.632812 L 384.003906 383.976562 L 0 383.976562 Z M 0 255.632812 "/>
<path style="fill-rule:evenodd;fill:rgb(100%,83.921569%,0%);fill-opacity:1;stroke-width:0.625;stroke-linecap:butt;stroke-linejoin:miter;stroke:rgb(0%,0%,0%);stroke-opacity:0.388235;stroke-miterlimit:4;" d="M 382.490479 221.332034 C 382.490479 235.893338 370.625839 247.698216 355.993059 247.698216 C 341.356153 247.698216 329.491513 235.893338 329.491513 221.332034 C 329.491513 206.766541 341.356153 194.961663 355.993059 194.961663 C 370.625839 194.961663 382.490479 206.766541 382.490479 221.332034 Z M 382.490479 221.332034 " transform="matrix(0.946879,0,0,0.93248,-143.129132,-14.719729)"/>
<path style="fill:none;stroke-width:0.5;stroke-linecap:butt;stroke-linejoin:miter;stroke:rgb(0%,0%,0%);stroke-opacity:0.388235;stroke-miterlimit:4;" d="M 364.427939 195.281922 C 360.089621 194.228876 355.644448 195.700935 354.244645 195.596182 C 352.321253 195.596182 347.454002 193.92013 344.061352 195.596182 " transform="matrix(0.73113,0,0,0.70851,-65.416891,35.730617)"/>
<path style="fill:none;stroke-width:0.5;stroke-linecap:butt;stroke-linejoin:miter;stroke:rgb(0%,0%,0%);stroke-opacity:0.388235;stroke-miterlimit:4;" d="M 338.70791 200.492019 C 343.014171 197.481741 347.822652 201.578145 349.104914 200.806278 C 352.593734 198.512733 355.84213 198.93726 359.181352 201.015785 C 361.339826 202.289364 365.095784 197.305314 369.471501 201.330045 " transform="matrix(0.73113,0,0,0.70851,-65.416891,35.730617)"/>
<path style="fill-rule:evenodd;fill:rgb(93.72549%,75.294118%,0%);fill-opacity:1;stroke-width:0.5;stroke-linecap:butt;stroke-linejoin:miter;stroke:rgb(0%,0%,0%);stroke-opacity:0.388235;stroke-miterlimit:4;" d="M 333.878058 205.630442 C 336.154072 203.77245 343.575161 203.70629 351.204617 208.04528 C 352.358652 207.7641 353.095953 206.959154 352.150285 205.839948 C 346.406822 203.844123 339.723034 201.324531 333.562835 203.215603 C 331.88521 204.406483 332.307288 205.172835 333.878058 205.630442 Z M 333.878058 205.630442 " transform="matrix(0.73113,0,0,0.70851,-65.416891,35.730617)"/>
<path style="fill-rule:evenodd;fill:rgb(93.72549%,75.294118%,0%);fill-opacity:1;stroke-width:0.5;stroke-linecap:butt;stroke-linejoin:miter;stroke:rgb(0%,0%,0%);stroke-opacity:0.388235;stroke-miterlimit:4;" d="M 333.877555 205.630442 C 336.153569 203.77245 343.574658 203.70629 351.204114 208.04528 C 352.358149 207.7641 353.09545 206.959154 352.149782 205.839948 C 346.411661 203.844123 339.72253 201.324531 333.562332 203.215603 C 331.884707 204.406483 332.306784 205.172835 333.877555 205.630442 Z M 333.877555 205.630442 " transform="matrix(-0.73113,0,0,0.70851,452.50246,35.730617)"/>
<path style="fill-rule:evenodd;fill:rgb(94.117647%,74.901961%,0%);fill-opacity:1;stroke-width:0.625;stroke-linecap:butt;stroke-linejoin:round;stroke:rgb(0%,0%,0%);stroke-opacity:0.388235;stroke-miterlimit:4;" d="M 330.83803 211.827424 C 338.365973 206.997747 348.3035 209.517339 352.47085 212.147197 C 346.380108 210.989398 346.273253 210.465632 341.865479 210.360878 C 338.750652 210.465632 334.166567 210.151372 330.83803 211.827424 Z M 330.83803 211.827424 " transform="matrix(0.73113,0,0,0.70851,-65.416891,35.730617)"/>
<path style="fill:none;stroke-width:0.625;stroke-linecap:butt;stroke-linejoin:miter;stroke:rgb(0%,0%,0%);stroke-opacity:0.388235;stroke-miterlimit:4;" d="M 348.057734 211.298144 C 344.38726 218.967186 337.981295 219.071939 333.466666 210.879131 " transform="matrix(0.73113,0,0,0.70851,-65.416891,35.730617)"/>
<path style=" stroke:none;fill-rule:evenodd;fill:rgb(0%,0%,0%);fill-opacity:0.368627;" d="M 187.628906 187.101562 C 186.832031 187.976562 184.882812 188.492188 183.273438 188.261719 C 181.667969 188.027344 181.007812 187.132812 181.804688 186.261719 C 182.601562 185.390625 184.550781 184.871094 186.160156 185.105469 C 187.769531 185.335938 188.425781 186.230469 187.628906 187.101562 Z M 187.628906 187.101562 "/>
<path style=" stroke:none;fill-rule:evenodd;fill:rgb(100%,84.313725%,0%);fill-opacity:1;" d="M 183.667969 185.984375 C 183.75 186.1875 183.496094 186.457031 183.101562 186.585938 C 182.707031 186.714844 182.320312 186.65625 182.238281 186.453125 C 182.15625 186.25 182.410156 185.980469 182.804688 185.851562 C 183.199219 185.722656 183.585938 185.78125 183.667969 185.984375 Z M 183.667969 185.984375 "/>
<path style="fill:none;stroke-width:0.625;stroke-linecap:butt;stroke-linejoin:miter;stroke:rgb(0%,0%,0%);stroke-opacity:0.388235;stroke-miterlimit:4;" d="M 349.179712 224.502569 C 344.942907 231.62579 350.718426 226.597634 351.653409 228.665132 C 353.30432 230.578258 354.955232 230.126165 355.932956 228.665132 C 356.905338 227.011134 363.060193 231.77465 358.855444 224.728615 " transform="matrix(0.73113,0,0,0.70851,-65.416891,35.730617)"/>
<path style="fill:none;stroke-width:0.625;stroke-linecap:round;stroke-linejoin:round;stroke:rgb(0%,0%,0%);stroke-opacity:0.388235;stroke-miterlimit:4;" d="M 341.641083 236.31212 C 345.2795 235.898621 351.391614 233.119903 353.571458 235.407934 C 355.441423 233.345949 362.04507 236.008887 366.281876 236.31212 C 363.209791 238.186652 356.980137 236.90756 354.02025 238.897872 C 351.129818 237.133607 344.750567 238.749012 341.641083 236.31212 Z M 341.641083 236.31212 " transform="matrix(0.73113,0,0,0.70851,-65.416891,35.730617)"/>
<path style="fill:none;stroke-width:0.625;stroke-linecap:butt;stroke-linejoin:round;stroke:rgb(0%,0%,0%);stroke-opacity:0.388235;stroke-miterlimit:4;" d="M 347.502087 239.581525 C 353.015811 241.830963 354.249988 241.49465 360.217847 239.807571 C 358.978328 243.071462 355.815416 243.755115 354.025592 243.628309 C 352.171656 243.512529 349.639189 243.744089 347.502087 239.581525 Z M 347.502087 239.581525 " transform="matrix(0.73113,0,0,0.70851,-65.416891,35.730617)"/>
<path style="fill-rule:evenodd;fill:rgb(100%,84.313725%,0%);fill-opacity:1;stroke-width:0.625;stroke-linecap:butt;stroke-linejoin:round;stroke:rgb(0%,0%,0%);stroke-opacity:0.388235;stroke-miterlimit:4;" d="M 343.169111 258.062205 C 339.194101 268.471371 343.548447 273.416828 341.603684 279.023884 C 339.728376 284.421434 331.57533 297.802284 337.783613 303.613334 C 342.714977 303.83938 336.928772 296.236499 346.7915 282.155455 C 351.370242 275.561513 345.600066 271.387923 350.419232 258.453652 C 350.868023 257.345473 343.799557 256.419233 343.169111 258.062205 Z M 343.169111 258.062205 " transform="matrix(0.73113,0,0,0.70851,-65.416891,35.730617)"/>
<path style="fill-rule:evenodd;fill:rgb(100%,84.313725%,0%);fill-opacity:1;stroke-width:0.625;stroke-linecap:butt;stroke-linejoin:round;stroke:rgb(0%,0%,0%);stroke-opacity:0.388235;stroke-miterlimit:4;" d="M 342.968496 258.159376 C 341.440468 269.842122 342.348737 305.73941 346.008525 304.300431 C 350.058334 305.60709 350.59261 269.136415 350.218617 258.352343 C 350.165189 257.161464 343.182207 256.417164 342.968496 258.159376 Z M 342.968496 258.159376 " transform="matrix(0.73113,0,0,0.70851,-59.113965,36.216458)"/>
<path style="fill:none;stroke-width:0.625;stroke-linecap:butt;stroke-linejoin:round;stroke:rgb(0%,0%,0%);stroke-opacity:0.388235;stroke-miterlimit:4;" d="M 343.167324 258.061029 C 339.19199 268.472214 343.545941 273.418823 341.604304 279.024274 C 339.728884 284.424543 331.576284 297.798639 337.779236 303.613349 C 342.712296 303.842835 336.932373 296.235975 346.795752 282.160024 C 351.366567 275.563444 345.596922 271.391436 350.417055 258.451467 C 350.867484 257.341774 343.796827 256.416907 343.167324 258.061029 Z M 343.167324 258.061029 " transform="matrix(-0.52259,-0.495502,-0.511331,0.506417,491.657703,255.646524)"/>
<path style="fill:none;stroke-width:0.625;stroke-linecap:butt;stroke-linejoin:round;stroke:rgb(0%,0%,0%);stroke-opacity:0.388235;stroke-miterlimit:4;" d="M 343.167663 258.059575 C 339.190384 268.470682 343.549043 273.420607 341.603389 279.023507 C 339.729103 284.419599 331.576673 297.801064 337.784736 303.612696 C 342.715004 303.842502 336.928422 296.237477 346.793562 282.15538 C 351.369332 275.561331 345.599377 271.390393 350.416529 258.451458 C 350.867438 257.345022 343.796495 256.416932 343.167663 258.059575 Z M 343.167663 258.059575 " transform="matrix(0.51161,0.506148,-0.522311,0.495771,127.676514,-96.530497)"/>
<path style="fill:none;stroke-width:0.625;stroke-linecap:butt;stroke-linejoin:round;stroke:rgb(0%,0%,0%);stroke-opacity:0.388235;stroke-miterlimit:4;" d="M 343.168205 258.057849 C 339.192295 268.472529 343.548831 273.416278 341.60176 279.021423 C 339.730706 284.423103 331.576096 297.800392 337.78466 303.615045 C 342.715018 303.843119 336.931702 296.236172 346.791465 282.159843 C 351.368261 275.561823 345.599207 271.39023 350.420674 258.448869 C 350.866429 257.345681 343.798336 256.419317 343.168205 258.057849 Z M 343.168205 258.057849 " transform="matrix(-0.0042087,-0.708492,-0.731121,0.00407846,356.244662,441.966026)"/>
<path style="fill:none;stroke-width:0.625;stroke-linecap:butt;stroke-linejoin:round;stroke:rgb(0%,0%,0%);stroke-opacity:0.388235;stroke-miterlimit:4;" d="M 342.971775 258.15906 C 341.443315 269.840618 342.348157 305.735391 346.005675 304.299596 C 350.056876 305.607007 350.588647 269.139683 350.219976 258.353701 C 350.167673 257.159019 343.180516 256.416549 342.971775 258.15906 Z M 342.971775 258.15906 " transform="matrix(-0.670693,-0.282066,-0.291068,0.64994,490.951701,146.894347)"/>
<path style="fill:none;stroke-width:0.625;stroke-linecap:butt;stroke-linejoin:round;stroke:rgb(0%,0%,0%);stroke-opacity:0.388235;stroke-miterlimit:4;" d="M 342.970601 258.158389 C 341.44264 269.841521 342.350047 305.734786 346.007 304.299233 C 350.059452 305.60624 350.587968 269.138608 350.216881 258.355263 C 350.165401 257.159057 343.184533 256.418746 342.970601 258.158389 Z M 342.970601 258.158389 " transform="matrix(-0.520816,-0.497258,-0.513133,0.504699,486.418425,253.11978)"/>
<path style="fill:none;stroke-width:0.625;stroke-linecap:butt;stroke-linejoin:round;stroke:rgb(0%,0%,0%);stroke-opacity:0.388235;stroke-miterlimit:4;" d="M 342.966879 258.159524 C 341.439234 269.841741 342.349666 305.737242 346.004863 304.301754 C 350.056371 305.605935 350.59172 269.137353 350.219169 258.354605 C 350.168552 257.163016 343.185993 256.418125 342.966879 258.159524 Z M 342.966879 258.159524 " transform="matrix(-0.28568,-0.652179,-0.673006,0.276846,440.491137,356.549073)"/>
<path style="fill:none;stroke-width:0.625;stroke-linecap:butt;stroke-linejoin:miter;stroke:rgb(0%,0%,0%);stroke-opacity:0.0823529;stroke-miterlimit:4;" d="M 349.179712 224.502569 C 344.942907 231.62579 350.718426 226.597634 351.653409 228.665132 C 353.30432 230.578258 354.955232 230.126165 355.932956 228.665132 C 356.905338 227.011134 363.060193 231.77465 358.855444 224.728615 " transform="matrix(0.73113,0,0,0.70851,-65.416891,35.730617)"/>
<path style="fill-rule:evenodd;fill:rgb(94.117647%,74.901961%,0%);fill-opacity:1;stroke-width:0.625;stroke-linecap:round;stroke-linejoin:round;stroke:rgb(0%,0%,0%);stroke-opacity:0.0823529;stroke-miterlimit:4;" d="M 341.641083 236.31212 C 345.2795 235.898621 351.391614 233.119903 353.571458 235.407934 C 355.441423 233.345949 362.04507 236.008887 366.281876 236.31212 C 363.209791 238.186652 356.980137 236.90756 354.02025 238.897872 C 351.129818 237.133607 344.750567 238.749012 341.641083 236.31212 Z M 341.641083 236.31212 " transform="matrix(0.73113,0,0,0.70851,-65.416891,35.730617)"/>
<path style="fill-rule:evenodd;fill:rgb(94.117647%,74.901961%,0%);fill-opacity:1;stroke-width:0.625;stroke-linecap:butt;stroke-linejoin:round;stroke:rgb(0%,0%,0%);stroke-opacity:0.0823529;stroke-miterlimit:4;" d="M 347.502087 239.581525 C 353.015811 241.830963 354.249988 241.49465 360.217847 239.807571 C 358.978328 243.071462 355.815416 243.755115 354.025592 243.628309 C 352.171656 243.512529 349.639189 243.744089 347.502087 239.581525 Z M 347.502087 239.581525 " transform="matrix(0.73113,0,0,0.70851,-65.416891,35.730617)"/>
<path style="fill-rule:evenodd;fill:rgb(100%,84.313725%,0%);fill-opacity:1;stroke-width:0.625;stroke-linecap:butt;stroke-linejoin:round;stroke:rgb(0%,0%,0%);stroke-opacity:0.14902;stroke-miterlimit:4;" d="M 343.167324 258.061029 C 339.19199 268.472214 343.545941 273.418823 341.604304 279.024274 C 339.728884 284.424543 331.576284 297.798639 337.779236 303.613349 C 342.712296 303.842835 336.932373 296.235975 346.795752 282.160024 C 351.366567 275.563444 345.596922 271.391436 350.417055 258.451467 C 350.867484 257.341774 343.796827 256.416907 343.167324 258.061029 Z M 343.167324 258.061029 " transform="matrix(-0.52259,-0.495502,-0.511331,0.506417,491.657703,255.646524)"/>
<path style="fill-rule:evenodd;fill:rgb(100%,84.313725%,0%);fill-opacity:1;stroke-width:0.625;stroke-linecap:butt;stroke-linejoin:round;stroke:rgb(0%,0%,0%);stroke-opacity:0.14902;stroke-miterlimit:4;" d="M 343.167663 258.059575 C 339.190384 268.470682 343.549043 273.420607 341.603389 279.023507 C 339.729103 284.419599 331.576673 297.801064 337.784736 303.612696 C 342.715004 303.842502 336.928422 296.237477 346.793562 282.15538 C 351.369332 275.561331 345.599377 271.390393 350.416529 258.451458 C 350.867438 257.345022 343.796495 256.416932 343.167663 258.059575 Z M 343.167663 258.059575 " transform="matrix(0.51161,0.506148,-0.522311,0.495771,127.676514,-96.530497)"/>
<path style="fill-rule:evenodd;fill:rgb(100%,84.313725%,0%);fill-opacity:1;stroke-width:0.625;stroke-linecap:butt;stroke-linejoin:round;stroke:rgb(0%,0%,0%);stroke-opacity:0.14902;stroke-miterlimit:4;" d="M 343.168205 258.057849 C 339.192295 268.472529 343.548831 273.416278 341.60176 279.021423 C 339.730706 284.423103 331.576096 297.800392 337.78466 303.615045 C 342.715018 303.843119 336.931702 296.236172 346.791465 282.159843 C 351.368261 275.561823 345.599207 271.39023 350.420674 258.448869 C 350.866429 257.345681 343.798336 256.419317 343.168205 258.057849 Z M 343.168205 258.057849 " transform="matrix(-0.0042087,-0.708492,-0.731121,0.00407846,356.244662,441.966026)"/>
<path style="fill-rule:evenodd;fill:rgb(100%,84.313725%,0%);fill-opacity:1;stroke-width:0.625;stroke-linecap:butt;stroke-linejoin:round;stroke:rgb(0%,0%,0%);stroke-opacity:0.14902;stroke-miterlimit:4;" d="M 342.971775 258.15906 C 341.443315 269.840618 342.348157 305.735391 346.005675 304.299596 C 350.056876 305.607007 350.588647 269.139683 350.219976 258.353701 C 350.167673 257.159019 343.180516 256.416549 342.971775 258.15906 Z M 342.971775 258.15906 " transform="matrix(-0.670693,-0.282066,-0.291068,0.64994,490.951701,146.894347)"/>
<path style="fill-rule:evenodd;fill:rgb(100%,84.313725%,0%);fill-opacity:1;stroke-width:0.625;stroke-linecap:butt;stroke-linejoin:round;stroke:rgb(0%,0%,0%);stroke-opacity:0.14902;stroke-miterlimit:4;" d="M 342.970601 258.158389 C 341.44264 269.841521 342.350047 305.734786 346.007 304.299233 C 350.059452 305.60624 350.587968 269.138608 350.216881 258.355263 C 350.165401 257.159057 343.184533 256.418746 342.970601 258.158389 Z M 342.970601 258.158389 " transform="matrix(-0.520816,-0.497258,-0.513133,0.504699,486.418425,253.11978)"/>
<path style="fill-rule:evenodd;fill:rgb(100%,84.313725%,0%);fill-opacity:1;stroke-width:0.625;stroke-linecap:butt;stroke-linejoin:round;stroke:rgb(0%,0%,0%);stroke-opacity:0.14902;stroke-miterlimit:4;" d="M 342.966879 258.159524 C 341.439234 269.841741 342.349666 305.737242 346.004863 304.301754 C 350.056371 305.605935 350.59172 269.137353 350.219169 258.354605 C 350.168552 257.163016 343.185993 256.418125 342.966879 258.159524 Z M 342.966879 258.159524 " transform="matrix(-0.28568,-0.652179,-0.673006,0.276846,440.491137,356.549073)"/>
<path style="fill-rule:evenodd;fill:rgb(100%,84.313725%,0%);fill-opacity:1;stroke-width:0.625;stroke-linecap:butt;stroke-linejoin:round;stroke:rgb(0%,0%,0%);stroke-opacity:0.388235;stroke-miterlimit:4;" d="M 342.971324 258.159716 C 341.444132 269.844324 342.348318 305.736961 346.009169 304.29976 C 350.055953 305.603392 350.590746 269.13908 350.221353 258.357398 C 350.166219 257.16062 343.180831 256.417977 342.971324 258.159716 Z M 342.971324 258.159716 " transform="matrix(0,-0.70851,0.73113,0,33.611037,437.06117)"/>
<path style="fill-rule:evenodd;fill:rgb(100%,84.313725%,0%);fill-opacity:1;stroke-width:0.625;stroke-linecap:butt;stroke-linejoin:round;stroke:rgb(0%,0%,0%);stroke-opacity:0.388235;stroke-miterlimit:4;" d="M 343.172358 258.058359 C 339.192004 268.467525 343.546351 273.418495 341.601587 279.025551 C 339.731622 284.423101 331.578576 297.798438 337.781516 303.615001 C 342.712881 303.841047 336.932018 296.238166 346.794746 282.157122 C 351.368146 275.56318 345.597969 271.38959 350.417135 258.449806 C 350.865927 257.341626 343.79746 256.4209 343.172358 258.058359 Z M 343.172358 258.058359 " transform="matrix(-0.73113,0,0,0.70851,453.477858,36.096623)"/>
<path style="fill-rule:evenodd;fill:rgb(100%,84.313725%,0%);fill-opacity:1;stroke-width:0.625;stroke-linecap:butt;stroke-linejoin:round;stroke:rgb(0%,0%,0%);stroke-opacity:0.388235;stroke-miterlimit:4;" d="M 343.172673 258.060505 C 339.19352 268.467954 343.55129 273.418299 341.601979 279.023955 C 339.730414 284.420283 331.577777 297.802056 337.784585 303.612825 C 342.713827 303.838575 336.930048 296.235655 346.793426 282.159705 C 351.371916 275.562921 345.598452 271.387176 350.422404 258.450944 C 350.868977 257.345191 343.79832 256.420325 343.172673 258.060505 Z M 343.172673 258.060505 " transform="matrix(0.52259,-0.495502,0.511331,0.506417,-103.386793,256.008814)"/>
<path style="fill-rule:evenodd;fill:rgb(100%,84.313725%,0%);fill-opacity:1;stroke-width:0.625;stroke-linecap:butt;stroke-linejoin:round;stroke:rgb(0%,0%,0%);stroke-opacity:0.388235;stroke-miterlimit:4;" d="M 343.167436 258.060998 C 339.193894 268.468289 343.552554 273.418214 341.603161 279.024931 C 339.728875 284.421023 331.580183 297.798671 337.784508 303.61412 C 342.710837 303.840068 336.928194 296.2389 346.793335 282.156804 C 351.369104 275.562755 345.595211 271.387959 350.42004 258.449065 C 350.86721 257.346446 343.796267 256.418355 343.167436 258.060998 Z M 343.167436 258.060998 " transform="matrix(-0.51161,0.506148,0.522311,0.495771,260.59997,-96.347494)"/>
<path style="fill-rule:evenodd;fill:rgb(100%,84.313725%,0%);fill-opacity:1;stroke-width:0.625;stroke-linecap:butt;stroke-linejoin:round;stroke:rgb(0%,0%,0%);stroke-opacity:0.388235;stroke-miterlimit:4;" d="M 343.168203 258.057404 C 339.192292 268.472085 343.548828 273.415833 341.601788 279.026321 C 339.730704 284.422659 331.576094 297.799947 337.784657 303.6146 C 342.715016 303.842674 336.9317 296.235727 346.791462 282.159399 C 351.368258 275.561378 345.599204 271.389785 350.420672 258.448424 C 350.866426 257.345236 343.798333 256.418873 343.168203 258.057404 Z M 343.168203 258.057404 " transform="matrix(0.0042087,-0.708492,0.731121,0.00407846,31.818163,441.966026)"/>
<path style="fill-rule:evenodd;fill:rgb(100%,84.313725%,0%);fill-opacity:1;stroke-width:0.625;stroke-linecap:butt;stroke-linejoin:round;stroke:rgb(0%,0%,0%);stroke-opacity:0.388235;stroke-miterlimit:4;" d="M 342.97283 258.158769 C 341.442175 269.845385 342.349212 305.735101 346.00673 304.299305 C 350.057931 305.606717 350.589703 269.139393 350.221031 258.353411 C 350.166533 257.163786 343.181571 256.416258 342.97283 258.158769 Z M 342.97283 258.158769 " transform="matrix(0.670693,-0.282066,0.291068,0.64994,-102.717949,147.265927)"/>
<path style="fill-rule:evenodd;fill:rgb(100%,84.313725%,0%);fill-opacity:1;stroke-width:0.625;stroke-linecap:butt;stroke-linejoin:round;stroke:rgb(0%,0%,0%);stroke-opacity:0.388235;stroke-miterlimit:4;" d="M 342.969224 258.157033 C 341.441263 269.840165 342.352476 305.737179 346.009429 304.301626 C 350.058075 305.604883 350.590397 269.141002 350.21931 258.357657 C 350.167831 257.16145 343.183156 256.417389 342.969224 258.157033 Z M 342.969224 258.157033 " transform="matrix(0.520816,-0.497258,0.513133,0.504699,-98.643574,253.11978)"/>
<path style="fill-rule:evenodd;fill:rgb(100%,84.313725%,0%);fill-opacity:1;stroke-width:0.625;stroke-linecap:butt;stroke-linejoin:round;stroke:rgb(0%,0%,0%);stroke-opacity:0.388235;stroke-miterlimit:4;" d="M 342.967503 258.160993 C 341.439858 269.843211 342.35029 305.738712 346.005487 304.303224 C 350.056995 305.607405 350.592344 269.138823 350.219793 258.356075 C 350.167088 257.159568 343.184529 256.414676 342.967503 258.160993 Z M 342.967503 258.160993 " transform="matrix(0.28568,-0.652179,0.673006,0.276846,-52.113398,356.549073)"/>
<path style="fill-rule:evenodd;fill:rgb(100%,84.313725%,0%);fill-opacity:1;stroke-width:0.625;stroke-linecap:butt;stroke-linejoin:round;stroke:rgb(0%,0%,0%);stroke-opacity:0.14902;stroke-miterlimit:4;" d="M 343.172673 258.060505 C 339.19352 268.467954 343.55129 273.418299 341.601979 279.023955 C 339.730414 284.420283 331.577777 297.802056 337.784585 303.612825 C 342.713827 303.838575 336.930048 296.235655 346.793426 282.159705 C 351.371916 275.562921 345.598452 271.387176 350.422404 258.450944 C 350.868977 257.345191 343.79832 256.420325 343.172673 258.060505 Z M 343.172673 258.060505 " transform="matrix(0.52259,-0.495502,0.511331,0.506417,-103.386793,256.008814)"/>
<path style="fill-rule:evenodd;fill:rgb(100%,84.313725%,0%);fill-opacity:1;stroke-width:0.625;stroke-linecap:butt;stroke-linejoin:round;stroke:rgb(0%,0%,0%);stroke-opacity:0.14902;stroke-miterlimit:4;" d="M 343.167436 258.060998 C 339.193894 268.468289 343.552554 273.418214 341.603161 279.024931 C 339.728875 284.421023 331.580183 297.798671 337.784508 303.61412 C 342.710837 303.840068 336.928194 296.2389 346.793335 282.156804 C 351.369104 275.562755 345.595211 271.387959 350.42004 258.449065 C 350.86721 257.346446 343.796267 256.418355 343.167436 258.060998 Z M 343.167436 258.060998 " transform="matrix(-0.51161,0.506148,0.522311,0.495771,260.59997,-96.347494)"/>
<path style="fill-rule:evenodd;fill:rgb(100%,84.313725%,0%);fill-opacity:1;stroke-width:0.625;stroke-linecap:butt;stroke-linejoin:round;stroke:rgb(0%,0%,0%);stroke-opacity:0.14902;stroke-miterlimit:4;" d="M 343.168203 258.057404 C 339.192292 268.472085 343.548828 273.415833 341.601788 279.026321 C 339.730704 284.422659 331.576094 297.799947 337.784657 303.6146 C 342.715016 303.842674 336.9317 296.235727 346.791462 282.159399 C 351.368258 275.561378 345.599204 271.389785 350.420672 258.448424 C 350.866426 257.345236 343.798333 256.418873 343.168203 258.057404 Z M 343.168203 258.057404 " transform="matrix(0.0042087,-0.708492,0.731121,0.00407846,31.818163,441.966026)"/>
<path style="fill-rule:evenodd;fill:rgb(100%,84.313725%,0%);fill-opacity:1;stroke-width:0.625;stroke-linecap:butt;stroke-linejoin:round;stroke:rgb(0%,0%,0%);stroke-opacity:0.14902;stroke-miterlimit:4;" d="M 342.97283 258.158769 C 341.442175 269.845385 342.349212 305.735101 346.00673 304.299305 C 350.057931 305.606717 350.589703 269.139393 350.221031 258.353411 C 350.166533 257.163786 343.181571 256.416258 342.97283 258.158769 Z M 342.97283 258.158769 " transform="matrix(0.670693,-0.282066,0.291068,0.64994,-102.717949,147.265927)"/>
<path style="fill-rule:evenodd;fill:rgb(100%,84.313725%,0%);fill-opacity:1;stroke-width:0.625;stroke-linecap:butt;stroke-linejoin:round;stroke:rgb(0%,0%,0%);stroke-opacity:0.14902;stroke-miterlimit:4;" d="M 342.969224 258.157033 C 341.441263 269.840165 342.352476 305.737179 346.009429 304.301626 C 350.058075 305.604883 350.590397 269.141002 350.21931 258.357657 C 350.167831 257.16145 343.183156 256.417389 342.969224 258.157033 Z M 342.969224 258.157033 " transform="matrix(0.520816,-0.497258,0.513133,0.504699,-98.643574,253.11978)"/>
<path style="fill-rule:evenodd;fill:rgb(100%,84.313725%,0%);fill-opacity:1;stroke-width:0.625;stroke-linecap:butt;stroke-linejoin:round;stroke:rgb(0%,0%,0%);stroke-opacity:0.14902;stroke-miterlimit:4;" d="M 342.967503 258.160993 C 341.439858 269.843211 342.35029 305.738712 346.005487 304.303224 C 350.056995 305.607405 350.592344 269.138823 350.219793 258.356075 C 350.167088 257.159568 343.184529 256.414676 342.967503 258.160993 Z M 342.967503 258.160993 " transform="matrix(0.28568,-0.652179,0.673006,0.276846,-52.113398,356.549073)"/>
<path style="fill-rule:evenodd;fill:rgb(100%,84.313725%,0%);fill-opacity:1;stroke-width:0.625;stroke-linecap:butt;stroke-linejoin:round;stroke:rgb(0%,0%,0%);stroke-opacity:0.388235;stroke-miterlimit:4;" d="M 342.972284 258.158007 C 341.439578 269.842615 342.349277 305.735253 346.004615 304.303394 C 350.056912 305.607026 350.591705 269.137371 350.216799 258.355689 C 350.167179 257.158911 343.18179 256.416268 342.972284 258.158007 Z M 342.972284 258.158007 " transform="matrix(0,0.70851,-0.73113,0,354.368182,-53.772787)"/>
<path style="fill-rule:evenodd;fill:rgb(100%,84.313725%,0%);fill-opacity:1;stroke-width:0.625;stroke-linecap:butt;stroke-linejoin:round;stroke:rgb(0%,0%,0%);stroke-opacity:0.388235;stroke-miterlimit:4;" d="M 343.172046 258.059249 C 339.191693 268.468415 343.551382 273.419385 341.601276 279.026441 C 339.731311 284.42399 331.578265 297.799328 337.781205 303.610377 C 342.712569 303.841937 336.931707 296.239055 346.794435 282.158012 C 351.367834 275.56407 345.597657 271.390479 350.416824 258.450695 C 350.865615 257.342516 343.797149 256.42179 343.172046 258.059249 Z M 343.172046 258.059249 " transform="matrix(0.73113,0,0,-0.70851,-65.489349,347.185257)"/>
<path style="fill-rule:evenodd;fill:rgb(100%,84.313725%,0%);fill-opacity:1;stroke-width:0.625;stroke-linecap:butt;stroke-linejoin:round;stroke:rgb(0%,0%,0%);stroke-opacity:0.388235;stroke-miterlimit:4;" d="M 343.168809 258.061638 C 339.193475 268.472823 343.547426 273.419432 341.60579 279.024884 C 339.726551 284.421416 331.57777 297.799249 337.780721 303.613958 C 342.713782 303.843445 336.930003 296.240525 346.793419 282.156897 C 351.368053 275.564053 345.598408 271.392045 350.418541 258.452077 C 350.86897 257.342383 343.798312 256.417517 343.168809 258.061638 Z M 343.168809 258.061638 " transform="matrix(-0.52259,0.495502,-0.511331,-0.506417,491.369728,127.274923)"/>
<path style="fill-rule:evenodd;fill:rgb(100%,84.313725%,0%);fill-opacity:1;stroke-width:0.625;stroke-linecap:butt;stroke-linejoin:round;stroke:rgb(0%,0%,0%);stroke-opacity:0.388235;stroke-miterlimit:4;" d="M 343.173273 258.059673 C 339.195993 268.470781 343.550714 273.416847 341.601321 279.023565 C 339.730974 284.423515 331.578343 297.797305 337.782668 303.612753 C 342.712936 303.842559 336.930092 296.233717 346.795433 282.159296 C 351.367264 275.561389 345.597309 271.390451 350.422138 258.451557 C 350.86537 257.34508 343.798366 256.420847 343.173273 258.059673 Z M 343.173273 258.059673 " transform="matrix(0.51161,-0.506148,-0.522311,-0.495771,127.388539,479.634948)"/>
<path style="fill-rule:evenodd;fill:rgb(100%,84.313725%,0%);fill-opacity:1;stroke-width:0.625;stroke-linecap:butt;stroke-linejoin:round;stroke:rgb(0%,0%,0%);stroke-opacity:0.388235;stroke-miterlimit:4;" d="M 343.169937 258.057706 C 339.194027 268.472386 343.550563 273.416135 341.603523 279.026623 C 339.726925 284.422992 331.577828 297.800249 337.780878 303.614934 C 342.711237 303.843008 336.927921 296.236061 346.793197 282.1597 C 351.369993 275.56168 345.595426 271.390119 350.416893 258.448757 C 350.868161 257.345538 343.794555 256.419206 343.169937 258.057706 Z M 343.169937 258.057706 " transform="matrix(-0.0042087,0.708492,-0.731121,-0.00407846,356.170346,-58.686003)"/>
<path style="fill-rule:evenodd;fill:rgb(100%,84.313725%,0%);fill-opacity:1;stroke-width:0.625;stroke-linecap:butt;stroke-linejoin:round;stroke:rgb(0%,0%,0%);stroke-opacity:0.388235;stroke-miterlimit:4;" d="M 342.97099 258.158061 C 341.440336 269.844677 342.352274 305.73652 346.009792 304.300724 C 350.056092 305.606009 350.587863 269.138685 350.219191 258.352703 C 350.166889 257.158021 343.184633 256.417678 342.97099 258.158061 Z M 342.97099 258.158061 " transform="matrix(-0.670693,0.282066,-0.291068,-0.64994,490.700884,236.0271)"/>
<path style="fill-rule:evenodd;fill:rgb(100%,84.313725%,0%);fill-opacity:1;stroke-width:0.625;stroke-linecap:butt;stroke-linejoin:round;stroke:rgb(0%,0%,0%);stroke-opacity:0.388235;stroke-miterlimit:4;" d="M 342.966982 258.159753 C 341.43902 269.842885 342.350234 305.739899 346.007186 304.304347 C 350.055833 305.607603 350.588218 269.136045 350.220937 258.35645 C 350.169457 257.160243 343.184783 256.416182 342.966982 258.159753 Z M 342.966982 258.159753 " transform="matrix(-0.520816,0.497258,-0.513133,-0.504699,486.632083,130.163958)"/>
<path style="fill-rule:evenodd;fill:rgb(100%,84.313725%,0%);fill-opacity:1;stroke-width:0.625;stroke-linecap:butt;stroke-linejoin:round;stroke:rgb(0%,0%,0%);stroke-opacity:0.388235;stroke-miterlimit:4;" d="M 342.968723 258.159433 C 341.441078 269.841651 342.35151 305.737152 346.006707 304.301664 C 350.058215 305.605845 350.588489 269.139417 350.221013 258.354515 C 350.168309 257.158008 343.180674 256.415271 342.968723 258.159433 Z M 342.968723 258.159433 " transform="matrix(-0.28568,0.652179,-0.673006,-0.276846,440.100978,26.730949)"/>
<path style="fill-rule:evenodd;fill:rgb(100%,84.313725%,0%);fill-opacity:1;stroke-width:0.625;stroke-linecap:butt;stroke-linejoin:round;stroke:rgb(0%,0%,0%);stroke-opacity:0.14902;stroke-miterlimit:4;" d="M 343.168809 258.061638 C 339.193475 268.472823 343.547426 273.419432 341.60579 279.024884 C 339.726551 284.421416 331.57777 297.799249 337.780721 303.613958 C 342.713782 303.843445 336.930003 296.240525 346.793419 282.156897 C 351.368053 275.564053 345.598408 271.392045 350.418541 258.452077 C 350.86897 257.342383 343.798312 256.417517 343.168809 258.061638 Z M 343.168809 258.061638 " transform="matrix(-0.52259,0.495502,-0.511331,-0.506417,491.369728,127.274923)"/>
<path style="fill-rule:evenodd;fill:rgb(100%,84.313725%,0%);fill-opacity:1;stroke-width:0.625;stroke-linecap:butt;stroke-linejoin:round;stroke:rgb(0%,0%,0%);stroke-opacity:0.14902;stroke-miterlimit:4;" d="M 343.173273 258.059673 C 339.195993 268.470781 343.550714 273.416847 341.601321 279.023565 C 339.730974 284.423515 331.578343 297.797305 337.782668 303.612753 C 342.712936 303.842559 336.930092 296.233717 346.795433 282.159296 C 351.367264 275.561389 345.597309 271.390451 350.422138 258.451557 C 350.86537 257.34508 343.798366 256.420847 343.173273 258.059673 Z M 343.173273 258.059673 " transform="matrix(0.51161,-0.506148,-0.522311,-0.495771,127.388539,479.634948)"/>
<path style="fill-rule:evenodd;fill:rgb(100%,84.313725%,0%);fill-opacity:1;stroke-width:0.625;stroke-linecap:butt;stroke-linejoin:round;stroke:rgb(0%,0%,0%);stroke-opacity:0.14902;stroke-miterlimit:4;" d="M 343.169937 258.057706 C 339.194027 268.472386 343.550563 273.416135 341.603523 279.026623 C 339.726925 284.422992 331.577828 297.800249 337.780878 303.614934 C 342.711237 303.843008 336.927921 296.236061 346.793197 282.1597 C 351.369993 275.56168 345.595426 271.390119 350.416893 258.448757 C 350.868161 257.345538 343.794555 256.419206 343.169937 258.057706 Z M 343.169937 258.057706 " transform="matrix(-0.0042087,0.708492,-0.731121,-0.00407846,356.170346,-58.686003)"/>
<path style="fill-rule:evenodd;fill:rgb(100%,84.313725%,0%);fill-opacity:1;stroke-width:0.625;stroke-linecap:butt;stroke-linejoin:round;stroke:rgb(0%,0%,0%);stroke-opacity:0.14902;stroke-miterlimit:4;" d="M 342.97099 258.158061 C 341.440336 269.844677 342.352274 305.73652 346.009792 304.300724 C 350.056092 305.606009 350.587863 269.138685 350.219191 258.352703 C 350.166889 257.158021 343.184633 256.417678 342.97099 258.158061 Z M 342.97099 258.158061 " transform="matrix(-0.670693,0.282066,-0.291068,-0.64994,490.700884,236.0271)"/>
<path style="fill-rule:evenodd;fill:rgb(100%,84.313725%,0%);fill-opacity:1;stroke-width:0.625;stroke-linecap:butt;stroke-linejoin:round;stroke:rgb(0%,0%,0%);stroke-opacity:0.14902;stroke-miterlimit:4;" d="M 342.966982 258.159753 C 341.43902 269.842885 342.350234 305.739899 346.007186 304.304347 C 350.055833 305.607603 350.588218 269.136045 350.220937 258.35645 C 350.169457 257.160243 343.184783 256.416182 342.966982 258.159753 Z M 342.966982 258.159753 " transform="matrix(-0.520816,0.497258,-0.513133,-0.504699,486.632083,130.163958)"/>
<path style="fill-rule:evenodd;fill:rgb(100%,84.313725%,0%);fill-opacity:1;stroke-width:0.625;stroke-linecap:butt;stroke-linejoin:round;stroke:rgb(0%,0%,0%);stroke-opacity:0.14902;stroke-miterlimit:4;" d="M 342.968723 258.159433 C 341.441078 269.841651 342.35151 305.737152 346.006707 304.301664 C 350.058215 305.605845 350.588489 269.139417 350.221013 258.354515 C 350.168309 257.158008 343.180674 256.415271 342.968723 258.159433 Z M 342.968723 258.159433 " transform="matrix(-0.28568,0.652179,-0.673006,-0.276846,440.100978,26.730949)"/>
<path style="fill-rule:evenodd;fill:rgb(100%,84.313725%,0%);fill-opacity:1;stroke-width:0.625;stroke-linecap:butt;stroke-linejoin:round;stroke:rgb(0%,0%,0%);stroke-opacity:0.388235;stroke-miterlimit:4;" d="M 342.967861 258.162383 C 341.439833 269.845128 342.348102 305.736904 346.00789 304.303438 C 350.057699 305.604584 350.591975 269.139422 350.217982 258.35535 C 350.164554 257.158957 343.181572 256.414658 342.967861 258.162383 Z M 342.967861 258.162383 " transform="matrix(-0.73113,0,0,-0.70851,447.058813,347.055204)"/>
<path style="fill-rule:evenodd;fill:rgb(100%,84.313725%,0%);fill-opacity:1;stroke-width:0.625;stroke-linecap:butt;stroke-linejoin:round;stroke:rgb(0%,0%,0%);stroke-opacity:0.388235;stroke-miterlimit:4;" d="M 343.1682 258.057433 C 339.193089 268.470465 343.548619 273.417857 341.602414 279.022409 C 339.727882 284.423936 331.579181 297.802198 337.781677 303.615117 C 342.710593 303.839512 336.932624 296.23677 346.795971 282.158607 C 351.366521 275.565645 345.599578 271.38761 350.418228 258.452797 C 350.870321 257.341503 343.796719 256.422549 343.1682 258.057433 Z M 343.1682 258.057433 " transform="matrix(0,0.70851,0.73113,0,33.295194,-59.810033)"/>
<path style="fill-rule:evenodd;fill:rgb(100%,84.313725%,0%);fill-opacity:1;stroke-width:0.625;stroke-linecap:butt;stroke-linejoin:round;stroke:rgb(0%,0%,0%);stroke-opacity:0.388235;stroke-miterlimit:4;" d="M 343.171417 258.059145 C 339.192085 268.472288 343.549446 273.415978 341.603082 279.023708 C 339.727975 284.424593 331.578645 297.798829 337.782332 303.614719 C 342.712698 303.841869 336.929729 296.240045 346.795119 282.160442 C 351.367315 275.563972 345.59494 271.388493 350.416719 258.450942 C 350.867031 257.344271 343.795624 256.419993 343.171417 258.059145 Z M 343.171417 258.059145 " transform="matrix(-0.511331,-0.506417,0.52259,-0.495502,260.228389,479.820738)"/>
<path style="fill-rule:evenodd;fill:rgb(100%,84.313725%,0%);fill-opacity:1;stroke-width:0.625;stroke-linecap:butt;stroke-linejoin:round;stroke:rgb(0%,0%,0%);stroke-opacity:0.388235;stroke-miterlimit:4;" d="M 343.172547 258.059742 C 339.191583 268.468837 343.550573 273.417615 341.602048 279.025987 C 339.727567 284.421334 331.579167 297.802322 337.779068 303.612723 C 342.715893 303.840928 336.928497 296.235057 346.791882 282.15687 C 351.366276 275.562718 345.598842 271.387583 350.418296 258.450346 C 350.865468 257.344828 343.799081 256.419889 343.172547 258.059742 Z M 343.172547 258.059742 " transform="matrix(0.522311,0.495771,0.51161,-0.506148,-103.382148,127.098423)"/>
<path style="fill-rule:evenodd;fill:rgb(100%,84.313725%,0%);fill-opacity:1;stroke-width:0.625;stroke-linecap:butt;stroke-linejoin:round;stroke:rgb(0%,0%,0%);stroke-opacity:0.388235;stroke-miterlimit:4;" d="M 343.170489 258.057701 C 339.19124 268.467993 343.547412 273.41607 341.602846 279.02344 C 339.726528 284.420905 331.575592 297.799407 337.780023 303.613487 C 342.712746 303.838711 336.930787 296.235834 346.792745 282.158298 C 351.370993 275.565396 345.598058 271.386334 350.417626 258.451547 C 350.865403 257.346274 343.796869 256.422107 343.170489 258.057701 Z M 343.170489 258.057701 " transform="matrix(-0.731121,-0.00407846,0.0042087,-0.708492,452.121591,348.80163)"/>
<path style="fill-rule:evenodd;fill:rgb(100%,84.313725%,0%);fill-opacity:1;stroke-width:0.625;stroke-linecap:butt;stroke-linejoin:round;stroke:rgb(0%,0%,0%);stroke-opacity:0.388235;stroke-miterlimit:4;" d="M 342.971249 258.160433 C 341.440884 269.843594 342.349674 305.73651 346.007693 304.30126 C 350.057843 305.604661 350.588627 269.136707 350.219933 258.353354 C 350.166993 257.159714 343.18102 256.416846 342.971249 258.160433 Z M 342.971249 258.160433 " transform="matrix(-0.291068,-0.64994,0.670693,-0.282066,148.00194,479.170473)"/>
<path style="fill-rule:evenodd;fill:rgb(100%,84.313725%,0%);fill-opacity:1;stroke-width:0.625;stroke-linecap:butt;stroke-linejoin:round;stroke:rgb(0%,0%,0%);stroke-opacity:0.388235;stroke-miterlimit:4;" d="M 342.968594 258.161505 C 341.442887 269.843748 342.350339 305.733991 346.005344 304.302413 C 350.053707 305.605969 350.591226 269.136815 350.218797 258.352029 C 350.16823 257.16217 343.185362 256.41751 342.968594 258.161505 Z M 342.968594 258.161505 " transform="matrix(-0.513133,-0.504699,0.520816,-0.497258,257.237171,475.222436)"/>
<path style="fill-rule:evenodd;fill:rgb(100%,84.313725%,0%);fill-opacity:1;stroke-width:0.625;stroke-linecap:butt;stroke-linejoin:round;stroke:rgb(0%,0%,0%);stroke-opacity:0.388235;stroke-miterlimit:4;" d="M 342.968138 258.158639 C 341.445065 269.843896 342.350987 305.737981 346.006654 304.299975 C 350.055206 305.606108 350.588431 269.137051 350.220269 258.356434 C 350.166554 257.163359 343.18011 256.415545 342.968138 258.158639 Z M 342.968138 258.158639 " transform="matrix(-0.673006,-0.276846,0.28568,-0.652179,363.982815,430.131202)"/>
<path style="fill-rule:evenodd;fill:rgb(100%,84.313725%,0%);fill-opacity:1;stroke-width:0.625;stroke-linecap:butt;stroke-linejoin:round;stroke:rgb(0%,0%,0%);stroke-opacity:0.14902;stroke-miterlimit:4;" d="M 343.171417 258.059145 C 339.192085 268.472288 343.549446 273.415978 341.603082 279.023708 C 339.727975 284.424593 331.578645 297.798829 337.782332 303.614719 C 342.712698 303.841869 336.929729 296.240045 346.795119 282.160442 C 351.367315 275.563972 345.59494 271.388493 350.416719 258.450942 C 350.867031 257.344271 343.795624 256.419993 343.171417 258.059145 Z M 343.171417 258.059145 " transform="matrix(-0.511331,-0.506417,0.52259,-0.495502,260.228389,479.820738)"/>
<path style="fill-rule:evenodd;fill:rgb(100%,84.313725%,0%);fill-opacity:1;stroke-width:0.625;stroke-linecap:butt;stroke-linejoin:round;stroke:rgb(0%,0%,0%);stroke-opacity:0.14902;stroke-miterlimit:4;" d="M 343.172547 258.059742 C 339.191583 268.468837 343.550573 273.417615 341.602048 279.025987 C 339.727567 284.421334 331.579167 297.802322 337.779068 303.612723 C 342.715893 303.840928 336.928497 296.235057 346.791882 282.15687 C 351.366276 275.562718 345.598842 271.387583 350.418296 258.450346 C 350.865468 257.344828 343.799081 256.419889 343.172547 258.059742 Z M 343.172547 258.059742 " transform="matrix(0.522311,0.495771,0.51161,-0.506148,-103.382148,127.098423)"/>
<path style="fill-rule:evenodd;fill:rgb(100%,84.313725%,0%);fill-opacity:1;stroke-width:0.625;stroke-linecap:butt;stroke-linejoin:round;stroke:rgb(0%,0%,0%);stroke-opacity:0.14902;stroke-miterlimit:4;" d="M 343.170489 258.057701 C 339.19124 268.467993 343.547412 273.41607 341.602846 279.02344 C 339.726528 284.420905 331.575592 297.799407 337.780023 303.613487 C 342.712746 303.838711 336.930787 296.235834 346.792745 282.158298 C 351.370993 275.565396 345.598058 271.386334 350.417626 258.451547 C 350.865403 257.346274 343.796869 256.422107 343.170489 258.057701 Z M 343.170489 258.057701 " transform="matrix(-0.731121,-0.00407846,0.0042087,-0.708492,452.121591,348.80163)"/>
<path style="fill-rule:evenodd;fill:rgb(100%,84.313725%,0%);fill-opacity:1;stroke-width:0.625;stroke-linecap:butt;stroke-linejoin:round;stroke:rgb(0%,0%,0%);stroke-opacity:0.14902;stroke-miterlimit:4;" d="M 342.971249 258.160433 C 341.440884 269.843594 342.349674 305.73651 346.007693 304.30126 C 350.057843 305.604661 350.588627 269.136707 350.219933 258.353354 C 350.166993 257.159714 343.18102 256.416846 342.971249 258.160433 Z M 342.971249 258.160433 " transform="matrix(-0.291068,-0.64994,0.670693,-0.282066,148.00194,479.170473)"/>
<path style="fill-rule:evenodd;fill:rgb(100%,84.313725%,0%);fill-opacity:1;stroke-width:0.625;stroke-linecap:butt;stroke-linejoin:round;stroke:rgb(0%,0%,0%);stroke-opacity:0.14902;stroke-miterlimit:4;" d="M 342.968594 258.161505 C 341.442887 269.843748 342.350339 305.733991 346.005344 304.302413 C 350.053707 305.605969 350.591226 269.136815 350.218797 258.352029 C 350.16823 257.16217 343.185362 256.41751 342.968594 258.161505 Z M 342.968594 258.161505 " transform="matrix(-0.513133,-0.504699,0.520816,-0.497258,257.237171,475.222436)"/>
<path style="fill-rule:evenodd;fill:rgb(100%,84.313725%,0%);fill-opacity:1;stroke-width:0.625;stroke-linecap:butt;stroke-linejoin:round;stroke:rgb(0%,0%,0%);stroke-opacity:0.14902;stroke-miterlimit:4;" d="M 342.968138 258.158639 C 341.445065 269.843896 342.350987 305.737981 346.006654 304.299975 C 350.055206 305.606108 350.588431 269.137051 350.220269 258.356434 C 350.166554 257.163359 343.18011 256.415545 342.968138 258.158639 Z M 342.968138 258.158639 " transform="matrix(-0.673006,-0.276846,0.28568,-0.652179,363.982815,430.131202)"/>
<path style="fill:none;stroke-width:1.25;stroke-linecap:butt;stroke-linejoin:miter;stroke:rgb(0%,0%,0%);stroke-opacity:0.172549;stroke-miterlimit:4;" d="M 328.141064 202.54968 L 324.988838 202.54968 " transform="matrix(0.73113,0,0,0.70851,-65.038808,36.280555)"/>
<path style="fill:none;stroke-width:1.25;stroke-linecap:butt;stroke-linejoin:miter;stroke:rgb(0%,0%,0%);stroke-opacity:0.172549;stroke-miterlimit:4;" d="M 328.138088 202.548685 L 324.991204 202.548685 " transform="matrix(0.73113,0,0,0.70851,-65.614757,37.714854)"/>
<path style="fill:none;stroke-width:1.25;stroke-linecap:butt;stroke-linejoin:miter;stroke:rgb(0%,0%,0%);stroke-opacity:0.172549;stroke-miterlimit:4;" d="M 328.138316 202.548869 L 324.987136 202.548869 " transform="matrix(0.809468,0,0,0.70851,-91.566833,39.070192)"/>
<path style="fill:none;stroke-width:1.25;stroke-linecap:butt;stroke-linejoin:miter;stroke:rgb(0%,0%,0%);stroke-opacity:0.172549;stroke-miterlimit:4;" d="M 328.141224 202.550234 L 324.990007 202.550234 " transform="matrix(0.809459,0,0,0.70851,-92.30442,40.346569)"/>
<path style="fill:none;stroke-width:1.25;stroke-linecap:butt;stroke-linejoin:miter;stroke:rgb(0%,0%,0%);stroke-opacity:0.172549;stroke-miterlimit:4;" d="M 328.139805 202.550418 L 324.990086 202.550418 " transform="matrix(0.966108,0,0,0.70851,-143.877866,41.701907)"/>
<path style="fill:none;stroke-width:1.25;stroke-linecap:butt;stroke-linejoin:miter;stroke:rgb(0%,0%,0%);stroke-opacity:0.172549;stroke-miterlimit:4;" d="M 328.138921 202.550603 L 324.989902 202.550603 " transform="matrix(1.070522,0,0,0.70851,-178.065084,43.057245)"/>
<path style="fill:none;stroke-width:1.25;stroke-linecap:butt;stroke-linejoin:miter;stroke:rgb(0%,0%,0%);stroke-opacity:0.172549;stroke-miterlimit:4;" d="M 328.138721 202.55263 L 324.98937 202.55263 " transform="matrix(1.018315,0,0,0.70851,-161.422015,44.571434)"/>
<path style="fill:none;stroke-width:1.25;stroke-linecap:butt;stroke-linejoin:miter;stroke:rgb(0%,0%,0%);stroke-opacity:0.172549;stroke-miterlimit:4;" d="M 328.139202 202.547833 L 324.989671 202.547833 " transform="matrix(0.992211,0,0,0.70851,-152.688957,46.086551)"/>
<path style="fill:none;stroke-width:1.25;stroke-linecap:butt;stroke-linejoin:miter;stroke:rgb(0%,0%,0%);stroke-opacity:0.172549;stroke-miterlimit:4;" d="M 328.138365 202.55104 L 324.989015 202.55104 " transform="matrix(1.018315,0,0,0.70851,-161.257591,47.521779)"/>
<path style="fill:none;stroke-width:1.25;stroke-linecap:butt;stroke-linejoin:miter;stroke:rgb(0%,0%,0%);stroke-opacity:0.172549;stroke-miterlimit:4;" d="M 328.140525 202.548086 L 324.989739 202.548086 " transform="matrix(1.279443,0,0,0.70851,-246.114387,49.195747)"/>
<path style="fill:none;stroke-width:1.25;stroke-linecap:butt;stroke-linejoin:miter;stroke:rgb(0%,0%,0%);stroke-opacity:0.172549;stroke-miterlimit:4;" d="M 328.141557 202.548687 L 324.989131 202.548687 " transform="matrix(1.096625,0,0,0.70851,-186.465579,51.109384)"/>
<path style="fill:none;stroke-width:1.25;stroke-linecap:butt;stroke-linejoin:miter;stroke:rgb(0%,0%,0%);stroke-opacity:0.0784314;stroke-miterlimit:4;" d="M 328.140969 202.548871 L 324.988542 202.548871 " transform="matrix(1.096625,0,0,0.70851,-186.382902,52.464722)"/>
<path style="fill:none;stroke-width:1.25;stroke-linecap:butt;stroke-linejoin:miter;stroke:rgb(0%,0%,0%);stroke-opacity:0.0784314;stroke-miterlimit:4;" d="M 328.139391 202.551962 L 324.990527 202.551962 " transform="matrix(1.096625,0,0,0.70851,-185.806953,54.298469)"/>
<path style="fill:none;stroke-width:1.25;stroke-linecap:butt;stroke-linejoin:miter;stroke:rgb(0%,0%,0%);stroke-opacity:0.0784314;stroke-miterlimit:4;" d="M 328.13965 202.550188 L 324.987223 202.550188 " transform="matrix(1.096625,0,0,0.70851,-185.725205,55.893477)"/>
<path style="fill:none;stroke-width:1.25;stroke-linecap:butt;stroke-linejoin:miter;stroke:rgb(0%,0%,0%);stroke-opacity:0.0784314;stroke-miterlimit:4;" d="M 328.140386 202.550257 L 324.987959 202.550257 " transform="matrix(1.096625,0,0,0.70851,-184.737732,57.647334)"/>
<path style="fill:none;stroke-width:1.25;stroke-linecap:butt;stroke-linejoin:miter;stroke:rgb(0%,0%,0%);stroke-opacity:0.0784314;stroke-miterlimit:4;" d="M 328.141122 202.547951 L 324.988696 202.547951 " transform="matrix(1.096625,0,0,0.70851,-183.750258,59.082562)"/>
<path style="fill:none;stroke-width:1.25;stroke-linecap:butt;stroke-linejoin:miter;stroke:rgb(0%,0%,0%);stroke-opacity:0.0784314;stroke-miterlimit:4;" d="M 328.138885 202.55051 L 324.99002 202.55051 " transform="matrix(1.096625,0,0,0.70851,-182.84546,60.75653)"/>
<path style="fill:none;stroke-width:1.25;stroke-linecap:butt;stroke-linejoin:miter;stroke:rgb(0%,0%,0%);stroke-opacity:0.0784314;stroke-miterlimit:4;" d="M 328.139033 202.550047 L 324.990168 202.550047 " transform="matrix(1.096625,0,0,0.70851,-181.77531,62.350608)"/>
<path style="fill:none;stroke-width:1.25;stroke-linecap:butt;stroke-linejoin:miter;stroke:rgb(0%,0%,0%);stroke-opacity:0.0784314;stroke-miterlimit:4;" d="M 328.140687 202.552074 L 324.988261 202.552074 " transform="matrix(1.096625,0,0,0.70851,-181.034937,63.864796)"/>
<path style="fill:none;stroke-width:1.25;stroke-linecap:butt;stroke-linejoin:miter;stroke:rgb(0%,0%,0%);stroke-opacity:0.0784314;stroke-miterlimit:4;" d="M 328.140693 202.547299 L 324.988266 202.547299 " transform="matrix(1.096625,0,0,0.70851,-179.472443,65.704117)"/>
<path style="fill:none;stroke-width:1.25;stroke-linecap:butt;stroke-linejoin:miter;stroke:rgb(0%,0%,0%);stroke-opacity:0.0784314;stroke-miterlimit:4;" d="M 328.137545 202.55248 L 324.990376 202.55248 " transform="matrix(0.704999,0,0,0.70851,-50.293585,67.376227)"/>
<path style="fill:none;stroke-width:1.25;stroke-linecap:butt;stroke-linejoin:miter;stroke:rgb(0%,0%,0%);stroke-opacity:0.0784314;stroke-miterlimit:4;" d="M 328.140969 202.548871 L 324.988542 202.548871 " transform="matrix(1.096625,0,0,0.70851,-186.382902,52.464722)"/>
<path style="fill:none;stroke-width:1.25;stroke-linecap:butt;stroke-linejoin:miter;stroke:rgb(0%,0%,0%);stroke-opacity:0.0784314;stroke-miterlimit:4;" d="M 328.139391 202.551962 L 324.990527 202.551962 " transform="matrix(1.096625,0,0,0.70851,-185.806953,54.298469)"/>
<path style="fill:none;stroke-width:1.25;stroke-linecap:butt;stroke-linejoin:miter;stroke:rgb(0%,0%,0%);stroke-opacity:0.0784314;stroke-miterlimit:4;" d="M 328.13965 202.550188 L 324.987223 202.550188 " transform="matrix(1.096625,0,0,0.70851,-185.725205,55.893477)"/>
<path style="fill:none;stroke-width:1.25;stroke-linecap:butt;stroke-linejoin:miter;stroke:rgb(0%,0%,0%);stroke-opacity:0.0784314;stroke-miterlimit:4;" d="M 328.140386 202.550257 L 324.987959 202.550257 " transform="matrix(1.096625,0,0,0.70851,-184.737732,57.647334)"/>
<path style="fill:none;stroke-width:1.25;stroke-linecap:butt;stroke-linejoin:miter;stroke:rgb(0%,0%,0%);stroke-opacity:0.0784314;stroke-miterlimit:4;" d="M 328.141122 202.547951 L 324.988696 202.547951 " transform="matrix(1.096625,0,0,0.70851,-183.750258,59.082562)"/>
<path style="fill:none;stroke-width:1.25;stroke-linecap:butt;stroke-linejoin:miter;stroke:rgb(0%,0%,0%);stroke-opacity:0.0784314;stroke-miterlimit:4;" d="M 328.138885 202.55051 L 324.99002 202.55051 " transform="matrix(1.096625,0,0,0.70851,-182.84546,60.75653)"/>
<path style="fill:none;stroke-width:1.25;stroke-linecap:butt;stroke-linejoin:miter;stroke:rgb(0%,0%,0%);stroke-opacity:0.0784314;stroke-miterlimit:4;" d="M 328.139033 202.550047 L 324.990168 202.550047 " transform="matrix(1.096625,0,0,0.70851,-181.77531,62.350608)"/>
<path style="fill:none;stroke-width:1.25;stroke-linecap:butt;stroke-linejoin:miter;stroke:rgb(0%,0%,0%);stroke-opacity:0.0784314;stroke-miterlimit:4;" d="M 328.140687 202.552074 L 324.988261 202.552074 " transform="matrix(1.096625,0,0,0.70851,-181.034937,63.864796)"/>
<path style="fill:none;stroke-width:1.25;stroke-linecap:butt;stroke-linejoin:miter;stroke:rgb(0%,0%,0%);stroke-opacity:0.0784314;stroke-miterlimit:4;" d="M 328.140693 202.547299 L 324.988266 202.547299 " transform="matrix(1.096625,0,0,0.70851,-179.472443,65.704117)"/>
<path style="fill:none;stroke-width:1.25;stroke-linecap:butt;stroke-linejoin:miter;stroke:rgb(0%,0%,0%);stroke-opacity:0.0784314;stroke-miterlimit:4;" d="M 328.139998 202.55067 L 324.987288 202.55067 " transform="matrix(0.704999,0,0,0.70851,-49.935939,67.236885)"/>
<path style="fill:none;stroke-width:1.25;stroke-linecap:butt;stroke-linejoin:miter;stroke:rgb(0%,0%,0%);stroke-opacity:0.133333;stroke-miterlimit:4;" d="M 328.139515 202.549324 L 324.987289 202.549324 " transform="matrix(-0.73113,0,0,0.70851,452.920488,35.91362)"/>
<path style="fill:none;stroke-width:1.25;stroke-linecap:butt;stroke-linejoin:miter;stroke:rgb(0%,0%,0%);stroke-opacity:0.133333;stroke-miterlimit:4;" d="M 328.141881 202.552531 L 324.989655 202.552531 " transform="matrix(-0.73113,0,0,0.70851,453.496437,37.348848)"/>
<path style="fill:none;stroke-width:1.25;stroke-linecap:butt;stroke-linejoin:miter;stroke:rgb(0%,0%,0%);stroke-opacity:0.133333;stroke-miterlimit:4;" d="M 328.138535 202.552716 L 324.987355 202.552716 " transform="matrix(-0.809468,0,0,0.70851,479.44201,38.704186)"/>
<path style="fill:none;stroke-width:1.25;stroke-linecap:butt;stroke-linejoin:miter;stroke:rgb(0%,0%,0%);stroke-opacity:0.133333;stroke-miterlimit:4;" d="M 328.138677 202.549878 L 324.98746 202.549878 " transform="matrix(-0.809459,0,0,0.70851,480.18517,39.979634)"/>
<path style="fill:none;stroke-width:1.25;stroke-linecap:butt;stroke-linejoin:miter;stroke:rgb(0%,0%,0%);stroke-opacity:0.133333;stroke-miterlimit:4;" d="M 328.139594 202.550062 L 324.989875 202.550062 " transform="matrix(-0.966108,0,0,0.70851,531.760474,41.334972)"/>
<path style="fill:none;stroke-width:1.25;stroke-linecap:butt;stroke-linejoin:miter;stroke:rgb(0%,0%,0%);stroke-opacity:0.133333;stroke-miterlimit:4;" d="M 328.140644 202.550246 L 324.987976 202.550246 " transform="matrix(-1.070522,0,0,0.70851,565.945834,42.69031)"/>
<path style="fill:none;stroke-width:1.25;stroke-linecap:butt;stroke-linejoin:miter;stroke:rgb(0%,0%,0%);stroke-opacity:0.133333;stroke-miterlimit:4;" d="M 328.140719 202.550963 L 324.987532 202.550963 " transform="matrix(-1.018315,0,0,0.70851,549.299051,44.205428)"/>
<path style="fill:none;stroke-width:1.25;stroke-linecap:butt;stroke-linejoin:miter;stroke:rgb(0%,0%,0%);stroke-opacity:0.133333;stroke-miterlimit:4;" d="M 328.138252 202.551679 L 324.988722 202.551679 " transform="matrix(-0.992211,0,0,0.70851,540.56692,45.720545)"/>
<path style="fill:none;stroke-width:1.25;stroke-linecap:butt;stroke-linejoin:miter;stroke:rgb(0%,0%,0%);stroke-opacity:0.133333;stroke-miterlimit:4;" d="M 328.139078 202.549373 L 324.989727 202.549373 " transform="matrix(-1.018315,0,0,0.70851,549.141129,47.155773)"/>
<path style="fill:none;stroke-width:1.25;stroke-linecap:butt;stroke-linejoin:miter;stroke:rgb(0%,0%,0%);stroke-opacity:0.133333;stroke-miterlimit:4;" d="M 328.139062 202.551932 L 324.988277 202.551932 " transform="matrix(-1.279443,0,0,0.70851,633.991422,48.829741)"/>
<path style="fill:none;stroke-width:1.25;stroke-linecap:butt;stroke-linejoin:miter;stroke:rgb(0%,0%,0%);stroke-opacity:0.133333;stroke-miterlimit:4;" d="M 328.140698 202.552533 L 324.988271 202.552533 " transform="matrix(-1.096625,0,0,0.70851,574.343542,50.743378)"/>
<path style="fill:none;stroke-width:1.25;stroke-linecap:butt;stroke-linejoin:miter;stroke:rgb(0%,0%,0%);stroke-opacity:0.0627451;stroke-miterlimit:4;" d="M 328.139262 202.552717 L 324.990398 202.552717 " transform="matrix(-1.096625,0,0,0.70851,574.259937,52.098716)"/>
<path style="fill:none;stroke-width:1.25;stroke-linecap:butt;stroke-linejoin:miter;stroke:rgb(0%,0%,0%);stroke-opacity:0.0627451;stroke-miterlimit:4;" d="M 328.141247 202.550295 L 324.98882 202.550295 " transform="matrix(-1.096625,0,0,0.70851,573.683988,53.932463)"/>
<path style="fill:none;stroke-width:1.25;stroke-linecap:butt;stroke-linejoin:miter;stroke:rgb(0%,0%,0%);stroke-opacity:0.0627451;stroke-miterlimit:4;" d="M 328.139811 202.549832 L 324.987385 202.549832 " transform="matrix(-1.096625,0,0,0.70851,573.600382,55.526541)"/>
<path style="fill:none;stroke-width:1.25;stroke-linecap:butt;stroke-linejoin:miter;stroke:rgb(0%,0%,0%);stroke-opacity:0.0627451;stroke-miterlimit:4;" d="M 328.139527 202.54859 L 324.990662 202.54859 " transform="matrix(-1.096625,0,0,0.70851,572.615695,57.281328)"/>
<path style="fill:none;stroke-width:1.25;stroke-linecap:butt;stroke-linejoin:miter;stroke:rgb(0%,0%,0%);stroke-opacity:0.0627451;stroke-miterlimit:4;" d="M 328.139242 202.551797 L 324.990378 202.551797 " transform="matrix(-1.096625,0,0,0.70851,571.631009,58.716556)"/>
<path style="fill:none;stroke-width:1.25;stroke-linecap:butt;stroke-linejoin:miter;stroke:rgb(0%,0%,0%);stroke-opacity:0.0627451;stroke-miterlimit:4;" d="M 328.139046 202.548843 L 324.990182 202.548843 " transform="matrix(-1.096625,0,0,0.70851,570.720637,60.390523)"/>
<path style="fill:none;stroke-width:1.25;stroke-linecap:butt;stroke-linejoin:miter;stroke:rgb(0%,0%,0%);stroke-opacity:0.0627451;stroke-miterlimit:4;" d="M 328.140888 202.548648 L 324.988462 202.548648 " transform="matrix(-1.096625,0,0,0.70851,569.652345,61.988318)"/>
<path style="fill:none;stroke-width:1.25;stroke-linecap:butt;stroke-linejoin:miter;stroke:rgb(0%,0%,0%);stroke-opacity:0.0627451;stroke-miterlimit:4;" d="M 328.141348 202.550676 L 324.988922 202.550676 " transform="matrix(-1.096625,0,0,0.70851,568.918474,63.502506)"/>
<path style="fill:none;stroke-width:1.25;stroke-linecap:butt;stroke-linejoin:miter;stroke:rgb(0%,0%,0%);stroke-opacity:0.0627451;stroke-miterlimit:4;" d="M 328.141701 202.547985 L 324.989275 202.547985 " transform="matrix(-1.096625,0,0,0.70851,567.348549,65.332538)"/>
<path style="fill:none;stroke-width:1.25;stroke-linecap:butt;stroke-linejoin:miter;stroke:rgb(0%,0%,0%);stroke-opacity:0.0627451;stroke-miterlimit:4;" d="M 328.137796 202.547653 L 324.990627 202.547653 " transform="matrix(-0.704999,0,0,0.70851,438.168762,67.004648)"/>
<path style="fill:none;stroke-width:1.25;stroke-linecap:butt;stroke-linejoin:miter;stroke:rgb(0%,0%,0%);stroke-opacity:0.0627451;stroke-miterlimit:4;" d="M 328.139262 202.552717 L 324.990398 202.552717 " transform="matrix(-1.096625,0,0,0.70851,574.259937,52.098716)"/>
<path style="fill:none;stroke-width:1.25;stroke-linecap:butt;stroke-linejoin:miter;stroke:rgb(0%,0%,0%);stroke-opacity:0.0627451;stroke-miterlimit:4;" d="M 328.141247 202.550295 L 324.98882 202.550295 " transform="matrix(-1.096625,0,0,0.70851,573.683988,53.932463)"/>
<path style="fill:none;stroke-width:1.25;stroke-linecap:butt;stroke-linejoin:miter;stroke:rgb(0%,0%,0%);stroke-opacity:0.0627451;stroke-miterlimit:4;" d="M 328.139811 202.549832 L 324.987385 202.549832 " transform="matrix(-1.096625,0,0,0.70851,573.600382,55.526541)"/>
<path style="fill:none;stroke-width:1.25;stroke-linecap:butt;stroke-linejoin:miter;stroke:rgb(0%,0%,0%);stroke-opacity:0.0627451;stroke-miterlimit:4;" d="M 328.139527 202.54859 L 324.990662 202.54859 " transform="matrix(-1.096625,0,0,0.70851,572.615695,57.281328)"/>
<path style="fill:none;stroke-width:1.25;stroke-linecap:butt;stroke-linejoin:miter;stroke:rgb(0%,0%,0%);stroke-opacity:0.0627451;stroke-miterlimit:4;" d="M 328.139242 202.551797 L 324.990378 202.551797 " transform="matrix(-1.096625,0,0,0.70851,571.631009,58.716556)"/>
<path style="fill:none;stroke-width:1.25;stroke-linecap:butt;stroke-linejoin:miter;stroke:rgb(0%,0%,0%);stroke-opacity:0.0627451;stroke-miterlimit:4;" d="M 328.139046 202.548843 L 324.990182 202.548843 " transform="matrix(-1.096625,0,0,0.70851,570.720637,60.390523)"/>
<path style="fill:none;stroke-width:1.25;stroke-linecap:butt;stroke-linejoin:miter;stroke:rgb(0%,0%,0%);stroke-opacity:0.0627451;stroke-miterlimit:4;" d="M 328.140888 202.548648 L 324.988462 202.548648 " transform="matrix(-1.096625,0,0,0.70851,569.652345,61.988318)"/>
<path style="fill:none;stroke-width:1.25;stroke-linecap:butt;stroke-linejoin:miter;stroke:rgb(0%,0%,0%);stroke-opacity:0.0627451;stroke-miterlimit:4;" d="M 328.141348 202.550676 L 324.988922 202.550676 " transform="matrix(-1.096625,0,0,0.70851,568.918474,63.502506)"/>
<path style="fill:none;stroke-width:1.25;stroke-linecap:butt;stroke-linejoin:miter;stroke:rgb(0%,0%,0%);stroke-opacity:0.0627451;stroke-miterlimit:4;" d="M 328.141701 202.547985 L 324.989275 202.547985 " transform="matrix(-1.096625,0,0,0.70851,567.348549,65.332538)"/>
<path style="fill:none;stroke-width:1.25;stroke-linecap:butt;stroke-linejoin:miter;stroke:rgb(0%,0%,0%);stroke-opacity:0.0627451;stroke-miterlimit:4;" d="M 328.137796 202.547653 L 324.990627 202.547653 " transform="matrix(-0.704999,0,0,0.70851,438.168762,67.004648)"/>
<path style="fill-rule:evenodd;fill:rgb(94.117647%,74.901961%,0%);fill-opacity:1;stroke-width:0.625;stroke-linecap:butt;stroke-linejoin:round;stroke:rgb(0%,0%,0%);stroke-opacity:0.388235;stroke-miterlimit:4;" d="M 330.840877 211.832104 C 338.363478 207.002427 348.306347 209.522019 352.468355 212.146364 C 346.377612 210.988564 346.2761 210.464798 341.862983 210.360045 C 338.748156 210.464798 334.164071 210.150538 330.840877 211.832104 Z M 330.840877 211.832104 " transform="matrix(-0.73113,0,0,0.70851,453.25491,35.547614)"/>
<path style="fill:none;stroke-width:0.625;stroke-linecap:butt;stroke-linejoin:miter;stroke:rgb(0%,0%,0%);stroke-opacity:0.388235;stroke-miterlimit:4;" d="M 348.061698 211.301991 C 344.385882 218.965519 337.979917 219.070272 333.465288 210.877464 " transform="matrix(0.73113,0,0,0.70851,-46.326039,35.36461)"/>
<path style=" stroke:none;fill-rule:evenodd;fill:rgb(0%,0%,0%);fill-opacity:0.368627;" d="M 206.707031 186.785156 C 205.882812 187.621094 203.867188 188.117188 202.207031 187.894531 C 200.546875 187.671875 199.867188 186.8125 200.691406 185.980469 C 201.511719 185.144531 203.527344 184.648438 205.1875 184.871094 C 206.847656 185.09375 207.527344 185.953125 206.707031 186.785156 Z M 206.707031 186.785156 "/>
<path style=" stroke:none;fill-rule:evenodd;fill:rgb(100%,84.313725%,0%);fill-opacity:1;" d="M 202.761719 185.625 C 202.84375 185.824219 202.589844 186.09375 202.195312 186.222656 C 201.800781 186.355469 201.414062 186.292969 201.332031 186.089844 C 201.25 185.886719 201.503906 185.617188 201.898438 185.488281 C 202.292969 185.359375 202.679688 185.421875 202.761719 185.625 Z M 202.761719 185.625 "/>
</g>
</svg>
