<?xml version="1.0" encoding="UTF-8"?>
<svg xmlns="http://www.w3.org/2000/svg" xmlns:xlink="http://www.w3.org/1999/xlink" width="384pt" height="384pt" viewBox="0 0 384 384" version="1.1">
<defs>
<clipPath id="clip1">
  <path d="M 0 0 L 383.976562 0 L 383.976562 383.988281 L 0 383.988281 Z M 0 0 "/>
</clipPath>
<clipPath id="clip2">
  <path d="M 0 20 L 383.976562 20 L 383.976562 364 L 0 364 Z M 0 20 "/>
</clipPath>
</defs>
<g id="surface1">
<g clip-path="url(#clip1)" clip-rule="nonzero">
<path style=" stroke:none;fill-rule:nonzero;fill:rgb(0%,0%,40%);fill-opacity:1;" d="M -384 0 L 383.984375 0 L 383.984375 383.988281 L -384 383.988281 Z M -384 0 "/>
<path style=" stroke:none;fill-rule:evenodd;fill:rgb(74.117647%,6.27451%,12.941176%);fill-opacity:1;" d="M -384 191.996094 L 383.984375 383.988281 L 383.984375 0.00390625 Z M -384 191.996094 "/>
</g>
<g clip-path="url(#clip2)" clip-rule="nonzero">
<path style=" stroke:none;fill-rule:evenodd;fill:rgb(100%,100%,100%);fill-opacity:1;" d="M 383.984375 20.570312 L 383.984375 363.417969 L -301.714844 191.988281 L 383.984375 20.5625 Z M 383.984375 20.570312 "/>
</g>
<path style="fill-rule:evenodd;fill:rgb(61.176471%,22.352941%,0%);fill-opacity:1;stroke-width:1.25;stroke-linecap:butt;stroke-linejoin:round;stroke:rgb(0%,0%,0%);stroke-opacity:1;stroke-miterlimit:4;" d="M 131.809119 174.071482 C 131.809119 174.071482 127.272621 170.355768 132.6336 164.373654 C 129.746066 161.900209 132.430253 157.156666 132.430253 157.156666 C 132.430253 157.156666 127.479665 155.300658 132.6336 147.665884 C 128.921584 145.192439 130.570547 139.620717 130.570547 139.620717 C 130.570547 139.620717 118.402972 135.084219 129.95311 130.754766 C 120.466025 134.877174 111.596376 125.183044 111.596376 125.183044 L 97.776141 125.597134 C 95.432098 114.117243 77.208465 124.084968 90.755106 91.153763 C 87.250134 90.532629 83.331073 89.5048 79.412012 92.392335 C 75.489254 95.276172 64.353205 101.465331 57.753654 95.276172 C 51.150406 89.090711 62.083108 80.221062 62.290152 80.014017 C 62.497197 79.806973 76.93487 72.38294 78.997923 67.432353 C 78.790878 63.716639 74.25438 60.832802 78.380486 52.787635 C 83.124029 45.15286 112.206419 37.932175 125.416612 35.45873 C 131.809119 32.571196 134.696653 27.003171 134.696653 27.003171 L 136.142269 32.364151 C 136.142269 32.364151 165.431704 23.701547 166.87732 19.575441 C 168.319239 15.449336 167.494757 23.287458 167.494757 23.287458 C 179.044895 22.255931 193.689613 12.358454 195.752666 16.894952 C 205.450493 15.038943 224.014272 6.786732 224.014272 6.786732 C 224.014272 6.786732 230.406778 6.579687 225.87028 13.593328 C 228.757815 18.133523 225.045798 22.052584 224.838754 22.052584 C 224.631709 22.052584 226.077325 26.589082 222.361611 29.066224 C 223.600182 32.985285 220.095211 36.079864 220.095211 36.079864 C 220.095211 36.079864 221.744174 40.823407 215.144623 43.296852 C 215.76206 47.422958 211.432607 48.24744 211.432607 48.24744 C 211.432607 48.24744 212.050044 52.58059 209.16251 54.436598 C 209.16251 57.738222 205.860886 59.387186 205.860886 59.387186 C 205.860886 59.387186 207.923938 60.625757 205.036404 62.68881 C 202.148869 64.751863 172.2383 83.108597 172.2383 82.901552 C 172.2383 82.698204 194.103702 86.820613 195.549318 87.645095 C 196.991237 88.473274 213.49566 99.405975 213.49566 99.405975 L 196.784192 120.032806 C 196.784192 120.032806 178.220414 117.969753 177.395932 119.00128 C 176.57145 120.032806 181.314993 120.443199 182.346519 122.095859 C 183.378046 123.744823 185.027009 127.663884 188.328633 127.253491 C 191.630257 126.839402 182.139475 133.235605 175.950316 133.853042 C 175.950316 136.12314 183.788438 136.326487 185.851491 134.470479 C 187.914544 132.614471 180.900904 139.835156 180.076422 140.866683 C 179.25194 141.898209 189.36016 139.421067 189.36016 139.421067 C 189.36016 139.421067 187.707499 146.227662 178.841548 148.290715 C 182.346519 154.069482 180.900904 157.781498 180.697556 157.781498 C 180.490511 157.781498 174.91879 152.006429 169.55781 153.034258 C 170.999729 158.60598 175.332879 163.763612 176.57145 164.588093 C 177.806324 165.412575 166.87732 165.20553 165.431704 162.110951 C 163.989786 159.016372 162.751214 169.538681 166.670275 172.840305 C 162.133777 173.043652 158.211019 170.363163 158.211019 170.363163 C 158.211019 170.363163 155.530529 176.552321 157.386537 179.6469 C 159.242546 182.74148 150.994031 173.457742 150.994031 173.457742 L 135.317787 180.057293 L 131.809119 174.075179 Z M 131.809119 174.071482 " transform="matrix(1.056535,0,0,1.056535,115.727339,51.138174)"/>
<path style="fill-rule:evenodd;fill:rgb(100%,76.078431%,12.941176%);fill-opacity:1;stroke-width:1.25;stroke-linecap:butt;stroke-linejoin:miter;stroke:rgb(0%,0%,0%);stroke-opacity:1;stroke-miterlimit:4;" d="M 10.650978 161.789292 C 11.0207 161.789292 33.425898 161.423267 43.711585 155.544675 C 48.854428 163.626814 55.834793 169.135683 55.834793 169.135683 L 59.140115 157.382197 C 59.140115 157.382197 67.222254 157.748223 67.954305 159.585745 C 66.852531 161.789292 66.486505 164.728588 66.486505 164.728588 C 66.486505 164.728588 71.995374 165.094614 72.365097 165.830362 C 72.731122 166.56611 70.8936 172.810727 70.8936 172.810727 L 94.404269 178.319596 C 94.404269 178.319596 96.241791 169.135683 98.075616 170.237457 C 99.913138 171.339231 107.995277 182.726691 119.382737 183.462439 C 130.770198 184.198187 131.502249 173.912501 131.502249 173.912501 L 134.075519 175.3803 C 134.075519 175.3803 138.848639 165.094614 139.584388 165.094614 C 140.320136 165.094614 141.42191 166.56611 147.666527 166.56611 C 149.504049 168.769658 150.2361 173.912501 150.2361 173.912501 C 150.2361 173.912501 143.259432 180.889169 145.462979 186.401735 C 147.666527 191.910604 148.032552 190.442804 148.032552 190.442804 L 198.725237 202.562316 C 198.725237 202.562316 201.298507 206.603385 196.887715 208.806933 C 196.887715 209.176656 145.829005 197.053447 145.829005 197.053447 C 145.829005 197.053447 141.052187 202.562316 137.38084 201.460542 C 133.709493 200.358768 136.279066 203.664089 136.279066 203.664089 L 191.378846 208.071185 C 191.378846 208.071185 195.419915 213.217725 192.48062 214.685524 C 188.805576 215.05155 132.973745 211.01048 132.973745 211.01048 C 132.973745 211.01048 129.668424 217.990846 125.99338 212.112254 C 123.423807 216.153324 120.484511 211.01048 120.484511 211.01048 C 120.484511 211.01048 115.707693 214.685524 114.971945 210.644455 C 110.930876 213.583751 108.361303 208.806933 108.361303 208.806933 L 84.854331 207.339134 L 83.382834 209.542681 C 83.382834 209.542681 87.423904 210.644455 81.179287 213.217725 C 74.93467 215.787298 118.646989 214.685524 119.748763 215.05155 C 120.850537 215.421273 116.809467 218.726594 116.809467 218.726594 C 116.809467 218.726594 139.218362 220.194393 143.255734 215.421273 C 147.296804 210.644455 141.787935 221.662192 141.787935 221.662192 C 141.787935 221.662192 159.420013 220.930141 159.420013 220.194393 C 159.420013 219.458645 159.053987 225.703262 146.930778 224.971211 C 154.277169 229.744331 163.461082 232.683627 163.461082 232.683627 C 163.461082 232.683627 154.277169 234.887175 143.625457 232.317602 C 145.462979 237.090722 153.545118 241.501514 153.545118 241.501514 C 153.545118 241.501514 147.666527 246.644358 134.441544 234.151426 C 138.116588 240.765766 135.177293 243.335339 134.80757 242.603288 C 134.441544 241.86754 128.196927 232.683627 113.504146 229.378306 C 122.688059 235.2532 118.646989 237.82647 118.646989 237.82647 C 118.646989 237.82647 113.870171 229.378306 106.157755 237.82647 C 103.218459 230.114054 91.830999 225.703262 77.873966 224.971211 C 73.466871 219.828368 70.8936 221.296167 60.607914 218.356871 C 54.73302 211.746229 46.284855 204.399838 46.284855 204.399838 C 46.284855 204.399838 46.65088 194.480177 56.566844 195.585648 C 57.668618 198.890969 57.668618 197.789195 57.668618 197.789195 C 57.668618 197.789195 68.690053 193.748126 71.995374 199.256994 C 76.772192 190.80883 83.382834 197.992543 84.484608 200.931838 C 87.649435 201.397689 103.588182 201.826567 103.588182 201.826567 C 103.588182 201.826567 101.75066 198.521246 102.852434 198.890969 C 103.954208 199.256994 112.768398 195.585648 112.402372 194.480177 C 112.032649 193.378403 111.666624 189.707056 113.13812 190.073082 C 114.60592 190.442804 100.648886 188.23556 92.932773 194.114151 C 90.3632 191.544578 92.197024 184.564213 92.197024 184.564213 L 69.425801 179.787395 L 68.324027 185.665987 C 68.324027 185.665987 61.709688 186.76776 62.07941 185.299961 C 62.445436 183.828465 60.607914 190.442804 60.607914 190.442804 C 60.607914 190.442804 51.793724 188.23556 51.793724 187.869534 C 51.793724 187.503509 54.363297 174.644552 54.363297 175.014275 C 54.363297 175.3803 47.016906 175.746326 36.731219 183.462439 C 33.791924 174.278526 10.650978 162.155318 10.650978 161.789292 Z M 10.650978 161.789292 " transform="matrix(1.056535,0,0,1.056535,115.727339,51.138174)"/>
<path style="fill:none;stroke-width:1.25;stroke-linecap:butt;stroke-linejoin:miter;stroke:rgb(0%,0%,0%);stroke-opacity:1;stroke-miterlimit:4;" d="M 66.486505 165.098311 L 61.713385 186.405432 " transform="matrix(1.056535,0,0,1.056535,115.727339,51.138174)"/>
<path style="fill:none;stroke-width:1.25;stroke-linecap:butt;stroke-linejoin:miter;stroke:rgb(0%,0%,0%);stroke-opacity:1;stroke-miterlimit:4;" d="M 70.8936 173.18045 L 69.425801 180.160815 " transform="matrix(1.056535,0,0,1.056535,115.727339,51.138174)"/>
<path style="fill:none;stroke-width:1.25;stroke-linecap:butt;stroke-linejoin:miter;stroke:rgb(0%,0%,0%);stroke-opacity:1;stroke-miterlimit:4;" d="M 94.404269 178.689319 L 92.200722 185.303658 " transform="matrix(1.056535,0,0,1.056535,115.727339,51.138174)"/>
<path style="fill:none;stroke-width:1.25;stroke-linecap:butt;stroke-linejoin:miter;stroke:rgb(0%,0%,0%);stroke-opacity:1;stroke-miterlimit:4;" d="M 135.18099 223.499714 C 134.811267 223.499714 123.427504 224.967514 121.956008 224.601488 C 120.488208 224.235463 139.95411 230.48008 139.95411 233.049653 " transform="matrix(1.056535,0,0,1.056535,115.727339,51.138174)"/>
<path style="fill:none;stroke-width:1.25;stroke-linecap:butt;stroke-linejoin:miter;stroke:rgb(0%,0%,0%);stroke-opacity:1;stroke-miterlimit:4;" d="M 114.609617 226.080379 C 114.609617 226.080379 103.222156 218.733988 101.384634 219.469737 C 99.55081 220.201788 112.772095 219.100014 113.873869 217.99824 " transform="matrix(1.056535,0,0,1.056535,115.727339,51.138174)"/>
<path style="fill:none;stroke-width:1.25;stroke-linecap:butt;stroke-linejoin:miter;stroke:rgb(0%,0%,0%);stroke-opacity:1;stroke-miterlimit:4;" d="M 91.098948 217.628517 C 91.098948 217.628517 79.345462 217.99824 78.243688 216.896466 C 77.138217 215.794692 89.627451 224.974908 91.834696 224.242857 " transform="matrix(1.056535,0,0,1.056535,115.727339,51.138174)"/>
<path style="fill:none;stroke-width:1.25;stroke-linecap:butt;stroke-linejoin:miter;stroke:rgb(0%,0%,0%);stroke-opacity:1;stroke-miterlimit:4;" d="M 68.324027 212.47828 C 67.954305 212.47828 60.241888 209.542681 56.936567 208.806933 C 59.875863 211.746229 62.07941 215.787298 69.425801 217.255097 " transform="matrix(1.056535,0,0,1.056535,115.727339,51.138174)"/>
<path style="fill:none;stroke-width:1.25;stroke-linecap:butt;stroke-linejoin:miter;stroke:rgb(0%,0%,0%);stroke-opacity:1;stroke-miterlimit:4;" d="M 71.263323 207.708856 C 70.8936 206.976805 56.570542 202.566013 56.570542 200.362465 C 59.875863 201.464239 64.648983 202.935736 69.059776 201.830265 " transform="matrix(1.056535,0,0,1.056535,115.727339,51.138174)"/>
<path style="fill:none;stroke-width:1.25;stroke-linecap:butt;stroke-linejoin:miter;stroke:rgb(0%,0%,0%);stroke-opacity:1;stroke-miterlimit:4;" d="M 147.300501 190.80883 L 145.832702 197.419472 " transform="matrix(1.056535,0,0,1.056535,115.727339,51.138174)"/>
<path style="fill-rule:evenodd;fill:rgb(100%,76.078431%,12.941176%);fill-opacity:1;stroke-width:1.25;stroke-linecap:butt;stroke-linejoin:miter;stroke:rgb(0%,0%,0%);stroke-opacity:1;stroke-miterlimit:4;" d="M 39.30449 131.671678 C 39.30449 131.671678 23.87596 144.892963 39.30449 152.60538 C 40.040238 147.462536 41.142012 146.730485 41.142012 146.730485 C 41.142012 146.730485 53.997271 151.503606 61.709688 140.119843 C 58.404366 135.343025 52.525775 137.180547 52.525775 137.180547 C 52.525775 137.180547 40.406263 137.180547 39.30449 131.671678 Z M 39.30449 131.671678 " transform="matrix(1.056535,0,0,1.056535,115.727339,51.138174)"/>
<path style="fill:none;stroke-width:1.25;stroke-linecap:butt;stroke-linejoin:miter;stroke:rgb(0%,0%,0%);stroke-opacity:1;stroke-miterlimit:4;" d="M 52.159749 137.55027 L 41.508037 146.734182 " transform="matrix(1.056535,0,0,1.056535,115.727339,51.138174)"/>
<path style="fill:none;stroke-width:1.25;stroke-linecap:butt;stroke-linejoin:miter;stroke:rgb(0%,0%,0%);stroke-opacity:1;stroke-miterlimit:4;" d="M 84.968945 201.331139 C 84.968945 201.331139 87.423904 204.037509 85.220356 207.342831 " transform="matrix(1.056535,0,0,1.056535,115.727339,51.138174)"/>
<path style="fill:none;stroke-width:1.25;stroke-linecap:butt;stroke-linejoin:miter;stroke:rgb(0%,0%,0%);stroke-opacity:1;stroke-miterlimit:4;" d="M 136.648789 204.041207 L 132.611417 204.407232 " transform="matrix(1.056535,0,0,1.056535,115.727339,51.138174)"/>
<path style="fill:none;stroke-width:1.25;stroke-linecap:butt;stroke-linejoin:miter;stroke:rgb(0%,0%,0%);stroke-opacity:1;stroke-miterlimit:4;" d="M 103.588182 201.830265 L 110.934573 202.932038 " transform="matrix(1.056535,0,0,1.056535,115.727339,51.138174)"/>
<path style="fill:none;stroke-width:1.25;stroke-linecap:butt;stroke-linejoin:miter;stroke:rgb(0%,0%,0%);stroke-opacity:1;stroke-miterlimit:4;" d="M 123.349862 182.94113 C 123.349862 182.94113 123.556907 190.365163 117.367748 190.161815 C 111.17859 189.95477 113.241643 190.365163 113.241643 190.365163 " transform="matrix(1.056535,0,0,1.056535,115.727339,51.138174)"/>
<path style="fill:none;stroke-width:1.25;stroke-linecap:butt;stroke-linejoin:miter;stroke:rgb(0%,0%,0%);stroke-opacity:1;stroke-miterlimit:4;" d="M 128.100799 181.698862 C 128.100799 181.698862 130.574245 182.523343 129.956808 184.383049 C 129.339371 186.239057 130.574245 191.600037 123.357257 196.757669 C 115.722482 198.406632 116.550661 190.365163 116.550661 190.365163 " transform="matrix(1.056535,0,0,1.056535,115.727339,51.138174)"/>
<path style="fill:none;stroke-width:1.25;stroke-linecap:butt;stroke-linejoin:miter;stroke:rgb(0%,0%,0%);stroke-opacity:1;stroke-miterlimit:4;" d="M 130.781289 183.968959 C 130.781289 183.968959 135.317787 181.288469 135.935224 185.62162 C 136.556358 189.951073 132.223208 197.99624 129.128629 199.234811 C 126.034049 200.473382 122.529078 199.027766 122.93947 196.964713 " transform="matrix(1.056535,0,0,1.056535,115.727339,51.138174)"/>
<path style="fill:none;stroke-width:1.25;stroke-linecap:butt;stroke-linejoin:miter;stroke:rgb(0%,0%,0%);stroke-opacity:1;stroke-miterlimit:4;" d="M 136.349314 185.828665 C 136.349314 185.828665 140.475419 182.530738 141.713991 186.860191 C 142.952562 191.193342 138.412367 200.887472 136.556358 201.094516 " transform="matrix(1.056535,0,0,1.056535,115.727339,51.138174)"/>
<path style="fill:none;stroke-width:1.25;stroke-linecap:butt;stroke-linejoin:miter;stroke:rgb(0%,0%,0%);stroke-opacity:1;stroke-miterlimit:4;" d="M 142.120686 186.860191 C 142.120686 186.860191 144.183739 185.828665 145.625657 187.067236 " transform="matrix(1.056535,0,0,1.056535,115.727339,51.138174)"/>
<path style="fill:none;stroke-width:1.25;stroke-linecap:butt;stroke-linejoin:miter;stroke:rgb(0%,0%,0%);stroke-opacity:1;stroke-miterlimit:4;" d="M 135.521135 201.708256 C 134.696653 201.915301 131.187984 202.122346 129.949413 199.441856 " transform="matrix(1.056535,0,0,1.056535,115.727339,51.138174)"/>
<path style="fill:none;stroke-width:1.25;stroke-linecap:butt;stroke-linejoin:miter;stroke:rgb(0%,0%,0%);stroke-opacity:1;stroke-miterlimit:4;" d="M 116.961053 194.491268 C 116.754009 194.491268 112.627903 194.698313 112.627903 194.698313 " transform="matrix(1.056535,0,0,1.056535,115.727339,51.138174)"/>
<path style="fill:none;stroke-width:1.25;stroke-linecap:butt;stroke-linejoin:miter;stroke:rgb(0%,0%,0%);stroke-opacity:1;stroke-miterlimit:4;" d="M 132.840645 210.788647 L 132.426555 203.982051 L 130.777592 201.715651 L 127.890058 204.603185 C 127.890058 204.603185 127.475968 211.409781 126.241094 212.027218 " transform="matrix(1.056535,0,0,1.056535,115.727339,51.138174)"/>
<path style="fill:none;stroke-width:1.25;stroke-linecap:butt;stroke-linejoin:miter;stroke:rgb(0%,0%,0%);stroke-opacity:1;stroke-miterlimit:4;" d="M 127.890058 204.388746 C 127.683013 203.978354 125.61996 200.059293 125.61996 200.059293 L 122.114988 204.388746 C 122.114988 204.388746 121.700899 210.577905 120.462328 211.199039 " transform="matrix(1.056535,0,0,1.056535,115.727339,51.138174)"/>
<path style="fill:none;stroke-width:1.25;stroke-linecap:butt;stroke-linejoin:miter;stroke:rgb(0%,0%,0%);stroke-opacity:1;stroke-miterlimit:4;" d="M 122.111291 204.181701 C 122.111291 203.974657 120.665675 200.055596 120.665675 200.055596 C 120.665675 200.055596 116.539569 202.325693 116.129177 203.974657 C 115.715088 205.62362 115.508043 210.163815 114.476517 210.574207 " transform="matrix(1.056535,0,0,1.056535,115.727339,51.138174)"/>
<path style="fill:none;stroke-width:1.25;stroke-linecap:butt;stroke-linejoin:miter;stroke:rgb(0%,0%,0%);stroke-opacity:1;stroke-miterlimit:4;" d="M 116.129177 203.150175 C 116.129177 203.150175 116.543267 199.438159 115.304696 199.438159 C 114.069822 199.438159 108.4981 204.595791 108.291055 209.132289 " transform="matrix(1.056535,0,0,1.056535,115.727339,51.138174)"/>
<path style="fill-rule:evenodd;fill:rgb(100%,100%,100%);fill-opacity:1;stroke-width:1.25;stroke-linecap:butt;stroke-linejoin:round;stroke:rgb(0%,0%,0%);stroke-opacity:1;stroke-miterlimit:4;" d="M 39.81101 131.778898 C 39.81101 131.778898 41.874063 129.715845 42.4915 127.2424 C 43.112634 124.765257 41.667018 122.084768 44.14416 119.81467 C 46.617605 117.54827 79.208665 103.728034 81.889155 101.043847 C 84.573342 98.363357 89.523929 92.588288 90.141366 91.349716 C 90.758803 90.111145 92.618508 97.538875 87.046787 100.840499 C 93.028901 99.187838 96.947962 97.33183 99.425104 98.156312 C 96.947962 101.664981 90.348411 107.44005 87.253831 107.44005 C 94.474517 104.75956 101.074067 102.489462 102.930076 103.931381 C 104.786084 105.376997 94.060427 112.597682 89.727277 113.008074 C 96.947962 111.152066 106.642092 108.264532 107.880663 111.359111 C 103.961602 112.597682 105.200173 113.625511 97.155006 118.165707 C 96.12348 118.990188 90.965848 119.197233 90.965848 119.197233 C 97.155006 118.579796 105.610565 116.102654 106.435047 120.639152 C 101.488157 122.49516 99.628451 124.972302 95.506043 126.003829 C 91.379937 127.035355 81.889155 128.891363 76.114085 131.161461 C 70.339016 133.431558 61.87976 140.031109 61.87976 140.031109 C 61.87976 140.031109 43.523026 140.648546 43.523026 140.441501 C 43.523026 140.238154 40.018055 131.985942 39.81101 131.778898 Z M 39.81101 131.778898 " transform="matrix(1.056535,0,0,1.056535,115.727339,51.138174)"/>
<path style="fill:none;stroke-width:1.25;stroke-linecap:butt;stroke-linejoin:miter;stroke:rgb(0%,0%,0%);stroke-opacity:1;stroke-miterlimit:4;" d="M 48.473614 130.340676 C 48.473614 130.340676 48.680658 126.214571 50.536666 124.772652 C 52.392675 123.327036 61.676413 119.818367 63.739465 116.727485 C 65.802518 113.632906 60.644886 122.088465 61.469368 124.358562 " transform="matrix(1.056535,0,0,1.056535,115.727339,51.138174)"/>
<path style="fill:none;stroke-width:1.25;stroke-linecap:butt;stroke-linejoin:miter;stroke:rgb(0%,0%,0%);stroke-opacity:1;stroke-miterlimit:4;" d="M 52.18563 124.151518 C 52.18563 124.151518 56.725825 125.800481 55.694299 129.305453 " transform="matrix(1.056535,0,0,1.056535,115.727339,51.138174)"/>
<path style="fill:none;stroke-width:1.25;stroke-linecap:butt;stroke-linejoin:miter;stroke:rgb(0%,0%,0%);stroke-opacity:1;stroke-miterlimit:4;" d="M 57.344265 126.010614 C 57.344265 128.173383 55.590209 129.927439 53.423183 129.927439 C 51.260414 129.927439 49.506358 128.173383 49.506358 126.010614 C 49.506358 123.843588 51.260414 122.089532 53.423183 122.089532 C 55.590209 122.089532 57.344265 123.843588 57.344265 126.010614 Z M 57.344265 126.010614 " transform="matrix(0.917516,0,0,0.917516,123.916964,69.199639)"/>
<path style="fill-rule:evenodd;fill:rgb(100%,100%,100%);fill-opacity:1;stroke-width:1.25;stroke-linecap:butt;stroke-linejoin:miter;stroke:rgb(0%,0%,0%);stroke-opacity:1;stroke-miterlimit:4;" d="M 197.198282 119.20093 L 232.88392 126.007526 C 232.88392 126.007526 236.806679 121.467331 234.743626 118.993885 C 240.104605 117.755314 238.662687 110.741674 238.662687 110.741674 C 238.662687 110.741674 244.848148 108.061184 239.690516 101.872026 C 243.199185 98.367054 238.866034 95.686564 238.866034 95.686564 C 238.866034 95.686564 240.31165 89.497406 235.771455 88.876271 C 237.010026 83.925684 227.933333 82.27672 227.933333 82.27672 C 227.933333 82.27672 209.16251 87.434353 195.963408 87.848442 C 200.292861 92.177895 194.310747 94.858385 194.310747 94.858385 C 194.310747 94.858385 197.819416 97.335528 196.78789 99.39858 C 195.756363 101.461633 197.405327 103.731731 192.868829 105.17365 C 198.850942 107.857837 192.247694 112.394335 192.247694 112.394335 C 192.247694 112.394335 198.850942 116.930833 197.198282 119.20093 Z M 197.198282 119.20093 " transform="matrix(1.056535,0,0,1.056535,115.727339,51.138174)"/>
<path style="fill:none;stroke-width:1.25;stroke-linecap:butt;stroke-linejoin:miter;stroke:rgb(0%,0%,0%);stroke-opacity:1;stroke-miterlimit:4;" d="M 193.689613 111.569853 C 193.689613 111.569853 225.249146 115.281869 226.694762 115.281869 C 228.13668 115.281869 233.708402 117.141575 234.739929 118.997583 " transform="matrix(1.056535,0,0,1.056535,115.727339,51.138174)"/>
<path style="fill:none;stroke-width:1.25;stroke-linecap:butt;stroke-linejoin:miter;stroke:rgb(0%,0%,0%);stroke-opacity:1;stroke-miterlimit:4;" d="M 195.338576 109.710148 L 239.276427 110.741674 " transform="matrix(1.056535,0,0,1.056535,115.727339,51.138174)"/>
<path style="fill:none;stroke-width:1.25;stroke-linecap:butt;stroke-linejoin:miter;stroke:rgb(0%,0%,0%);stroke-opacity:1;stroke-miterlimit:4;" d="M 195.549318 108.678621 C 195.549318 108.678621 237.217071 106.205176 240.104605 101.872026 " transform="matrix(1.056535,0,0,1.056535,115.727339,51.138174)"/>
<path style="fill:none;stroke-width:1.25;stroke-linecap:butt;stroke-linejoin:miter;stroke:rgb(0%,0%,0%);stroke-opacity:1;stroke-miterlimit:4;" d="M 196.780495 99.605625 C 196.780495 99.605625 238.655292 95.06543 239.065685 95.686564 " transform="matrix(1.056535,0,0,1.056535,115.727339,51.138174)"/>
<path style="fill:none;stroke-width:1.25;stroke-linecap:butt;stroke-linejoin:miter;stroke:rgb(0%,0%,0%);stroke-opacity:1;stroke-miterlimit:4;" d="M 195.338576 94.447993 C 195.338576 94.447993 235.974802 88.05179 236.388892 89.083316 " transform="matrix(1.056535,0,0,1.056535,115.727339,51.138174)"/>
<path style="fill:none;stroke-width:1.25;stroke-linecap:butt;stroke-linejoin:miter;stroke:rgb(0%,0%,0%);stroke-opacity:1;stroke-miterlimit:4;" d="M 79.415709 68.24944 C 79.415709 68.24944 92.204419 82.27672 90.965848 91.767503 " transform="matrix(1.056535,0,0,1.056535,115.727339,51.138174)"/>
<path style="fill:none;stroke-width:1.25;stroke-linecap:butt;stroke-linejoin:miter;stroke:rgb(0%,0%,0%);stroke-opacity:1;stroke-miterlimit:4;" d="M 90.141366 84.339773 C 90.141366 84.339773 94.267472 90.321887 95.916435 90.939324 C 97.569096 91.560458 112.006769 92.38494 112.83125 98.574099 C 113.659429 102.49316 109.740368 101.254589 110.357805 104.142123 C 111.389332 107.854139 121.083462 112.597682 131.602074 107.029658 " transform="matrix(1.056535,0,0,1.056535,115.727339,51.138174)"/>
<path style="fill:none;stroke-width:1.25;stroke-linecap:butt;stroke-linejoin:miter;stroke:rgb(0%,0%,0%);stroke-opacity:1;stroke-miterlimit:4;" d="M 121.911641 109.92089 C 121.911641 109.92089 130.574245 122.709599 143.362954 108.889363 " transform="matrix(1.056535,0,0,1.056535,115.727339,51.138174)"/>
<path style="fill:none;stroke-width:1.25;stroke-linecap:butt;stroke-linejoin:miter;stroke:rgb(0%,0%,0%);stroke-opacity:1;stroke-miterlimit:4;" d="M 136.759706 114.461085 C 136.759706 114.461085 147.278318 120.029109 155.944619 105.591436 " transform="matrix(1.056535,0,0,1.056535,115.727339,51.138174)"/>
<path style="fill:none;stroke-width:1.25;stroke-linecap:butt;stroke-linejoin:miter;stroke:rgb(0%,0%,0%);stroke-opacity:1;stroke-miterlimit:4;" d="M 144.801175 115.688564 C 144.801175 115.688564 149.958808 120.021715 160.684464 114.246646 " transform="matrix(1.056535,0,0,1.056535,115.727339,51.138174)"/>
<path style="fill:none;stroke-width:1.25;stroke-linecap:butt;stroke-linejoin:miter;stroke:rgb(0%,0%,0%);stroke-opacity:1;stroke-miterlimit:4;" d="M 175.539924 108.471576 C 175.539924 108.471576 191.423213 111.769503 192.454739 112.80103 " transform="matrix(1.056535,0,0,1.056535,115.727339,51.138174)"/>
<path style="fill:none;stroke-width:1.25;stroke-linecap:butt;stroke-linejoin:miter;stroke:rgb(0%,0%,0%);stroke-opacity:1;stroke-miterlimit:4;" d="M 181.518341 104.970302 C 181.725385 104.970302 192.658087 105.384392 192.658087 105.384392 " transform="matrix(1.056535,0,0,1.056535,115.727339,51.138174)"/>
<path style="fill:none;stroke-width:1.25;stroke-linecap:butt;stroke-linejoin:miter;stroke:rgb(0%,0%,0%);stroke-opacity:1;stroke-miterlimit:4;" d="M 174.711745 98.777446 C 174.711745 98.777446 193.685916 97.542572 196.163058 101.461633 " transform="matrix(1.056535,0,0,1.056535,115.727339,51.138174)"/>
<path style="fill:none;stroke-width:1.25;stroke-linecap:butt;stroke-linejoin:miter;stroke:rgb(0%,0%,0%);stroke-opacity:1;stroke-miterlimit:4;" d="M 166.459533 92.795332 C 166.459533 92.795332 193.068479 93.826859 194.30705 95.272475 " transform="matrix(1.056535,0,0,1.056535,115.727339,51.138174)"/>
<path style="fill:none;stroke-width:1.25;stroke-linecap:butt;stroke-linejoin:miter;stroke:rgb(0%,0%,0%);stroke-opacity:1;stroke-miterlimit:4;" d="M 172.441647 120.021715 C 172.441647 120.021715 176.978145 118.783144 177.595582 119.40058 " transform="matrix(1.056535,0,0,1.056535,115.727339,51.138174)"/>
<path style="fill:none;stroke-width:1.25;stroke-linecap:butt;stroke-linejoin:miter;stroke:rgb(0%,0%,0%);stroke-opacity:1;stroke-miterlimit:4;" d="M 162.13008 131.161461 C 162.13008 131.161461 168.112194 136.315396 175.743271 134.048995 " transform="matrix(1.056535,0,0,1.056535,115.727339,51.138174)"/>
<path style="fill:none;stroke-width:1.25;stroke-linecap:butt;stroke-linejoin:miter;stroke:rgb(0%,0%,0%);stroke-opacity:1;stroke-miterlimit:4;" d="M 165.431704 139.831459 C 165.431704 139.831459 172.2383 142.922341 180.283467 141.066333 " transform="matrix(1.056535,0,0,1.056535,115.727339,51.138174)"/>
<path style="fill:none;stroke-width:1.25;stroke-linecap:butt;stroke-linejoin:miter;stroke:rgb(0%,0%,0%);stroke-opacity:1;stroke-miterlimit:4;" d="M 167.701802 144.981697 C 167.701802 144.981697 174.508397 149.518195 179.044895 148.693713 " transform="matrix(1.056535,0,0,1.056535,115.727339,51.138174)"/>
<path style="fill:none;stroke-width:1.25;stroke-linecap:butt;stroke-linejoin:miter;stroke:rgb(0%,0%,0%);stroke-opacity:1;stroke-miterlimit:4;" d="M 164.61092 147.669581 C 164.61092 147.669581 169.354462 151.17825 169.561507 153.034258 " transform="matrix(1.056535,0,0,1.056535,115.727339,51.138174)"/>
<path style="fill:none;stroke-width:1.25;stroke-linecap:butt;stroke-linejoin:miter;stroke:rgb(0%,0%,0%);stroke-opacity:1;stroke-miterlimit:4;" d="M 158.011369 151.788292 C 158.011369 151.788292 159.453288 159.216022 164.61092 161.896512 " transform="matrix(1.056535,0,0,1.056535,115.727339,51.138174)"/>
<path style="fill:none;stroke-width:1.25;stroke-linecap:butt;stroke-linejoin:miter;stroke:rgb(0%,0%,0%);stroke-opacity:1;stroke-miterlimit:4;" d="M 154.499003 155.089916 C 154.499003 155.089916 152.232603 164.784046 158.007672 170.76616 " transform="matrix(1.056535,0,0,1.056535,115.727339,51.138174)"/>
<path style="fill:none;stroke-width:1.25;stroke-linecap:butt;stroke-linejoin:miter;stroke:rgb(0%,0%,0%);stroke-opacity:1;stroke-miterlimit:4;" d="M 148.520586 162.720994 C 148.520586 162.924341 148.106497 167.257492 148.313542 167.671581 " transform="matrix(1.056535,0,0,1.056535,115.727339,51.138174)"/>
<path style="fill:none;stroke-width:1.25;stroke-linecap:butt;stroke-linejoin:miter;stroke:rgb(0%,0%,0%);stroke-opacity:1;stroke-miterlimit:4;" d="M 111.389332 125.179347 L 122.529078 124.56191 C 122.529078 124.56191 126.655184 122.909249 123.767649 120.228759 " transform="matrix(1.056535,0,0,1.056535,115.727339,51.138174)"/>
<path style="fill:none;stroke-width:1.25;stroke-linecap:butt;stroke-linejoin:miter;stroke:rgb(0%,0%,0%);stroke-opacity:1;stroke-miterlimit:4;" d="M 125.209568 122.709599 C 125.416612 122.709599 135.72818 123.534081 138.412367 126.62866 C 141.092856 129.723239 144.39448 135.912398 146.250489 136.943924 C 148.106497 137.975451 148.520586 136.529835 148.520586 136.529835 " transform="matrix(1.056535,0,0,1.056535,115.727339,51.138174)"/>
<path style="fill:none;stroke-width:1.25;stroke-linecap:butt;stroke-linejoin:miter;stroke:rgb(0%,0%,0%);stroke-opacity:1;stroke-miterlimit:4;" d="M 143.980391 134.880871 C 143.980391 134.880871 138.412367 144.367957 142.74182 147.255491 " transform="matrix(1.056535,0,0,1.056535,115.727339,51.138174)"/>
<path style="fill:none;stroke-width:1.25;stroke-linecap:butt;stroke-linejoin:miter;stroke:rgb(0%,0%,0%);stroke-opacity:1;stroke-miterlimit:4;" d="M 140.878417 145.399483 C 140.878417 145.399483 135.931527 152.002731 139.850588 155.300658 " transform="matrix(1.056535,0,0,1.056535,115.727339,51.138174)"/>
<path style="fill:none;stroke-width:1.25;stroke-linecap:butt;stroke-linejoin:miter;stroke:rgb(0%,0%,0%);stroke-opacity:1;stroke-miterlimit:4;" d="M 138.819062 154.468782 C 138.819062 154.468782 134.900001 160.864985 139.647241 165.194439 " transform="matrix(1.056535,0,0,1.056535,115.727339,51.138174)"/>
<path style="fill:none;stroke-width:1.25;stroke-linecap:butt;stroke-linejoin:miter;stroke:rgb(0%,0%,0%);stroke-opacity:1;stroke-miterlimit:4;" d="M 137.088759 137.5096 C 136.822559 137.775801 132.297153 140.970205 130.703648 140.171604 " transform="matrix(1.056535,0,0,1.056535,115.727339,51.138174)"/>
<path style="fill:none;stroke-width:1.25;stroke-linecap:butt;stroke-linejoin:miter;stroke:rgb(0%,0%,0%);stroke-opacity:1;stroke-miterlimit:4;" d="M 132.30085 147.621517 C 132.30085 147.621517 134.164252 149.481222 135.761455 149.218719 " transform="matrix(1.056535,0,0,1.056535,115.727339,51.138174)"/>
<path style="fill:none;stroke-width:1.25;stroke-linecap:butt;stroke-linejoin:miter;stroke:rgb(0%,0%,0%);stroke-opacity:1;stroke-miterlimit:4;" d="M 132.518986 157.300858 L 135.491557 159.338031 " transform="matrix(1.056535,0,0,1.056535,115.727339,51.138174)"/>
<path style="fill:none;stroke-width:1.25;stroke-linecap:butt;stroke-linejoin:miter;stroke:rgb(0%,0%,0%);stroke-opacity:1;stroke-miterlimit:4;" d="M 132.918287 164.710102 L 135.491557 166.262937 " transform="matrix(1.056535,0,0,1.056535,115.727339,51.138174)"/>
<path style="fill:none;stroke-width:1.25;stroke-linecap:butt;stroke-linejoin:miter;stroke:rgb(0%,0%,0%);stroke-opacity:1;stroke-miterlimit:4;" d="M 86.329525 63.542869 C 86.329525 63.542869 91.753357 66.363854 96.090205 63.542869 C 100.43075 60.725582 121.253534 50.096053 126.677367 48.358357 C 132.097502 46.624357 135.136623 36.64554 136.219911 32.308693 " transform="matrix(1.056535,0,0,1.056535,115.727339,51.138174)"/>
<path style="fill:none;stroke-width:1.25;stroke-linecap:butt;stroke-linejoin:miter;stroke:rgb(0%,0%,0%);stroke-opacity:1;stroke-miterlimit:4;" d="M 132.101199 44.021509 L 162.466528 35.129677 C 162.466528 35.129677 167.457785 31.007269 167.672224 23.416861 " transform="matrix(1.056535,0,0,1.056535,115.727339,51.138174)"/>
<path style="fill:none;stroke-width:1.25;stroke-linecap:butt;stroke-linejoin:miter;stroke:rgb(0%,0%,0%);stroke-opacity:1;stroke-miterlimit:4;" d="M 165.498254 31.657981 C 165.498254 31.657981 195.86728 28.622557 195.86728 17.342316 " transform="matrix(1.056535,0,0,1.056535,115.727339,51.138174)"/>
<path style="fill:none;stroke-width:1.25;stroke-linecap:butt;stroke-linejoin:miter;stroke:rgb(0%,0%,0%);stroke-opacity:1;stroke-miterlimit:4;" d="M 191.101554 25.15086 C 191.101554 25.15086 222.986443 16.473468 226.021866 13.219908 " transform="matrix(1.056535,0,0,1.056535,115.727339,51.138174)"/>
<path style="fill:none;stroke-width:1.25;stroke-linecap:butt;stroke-linejoin:miter;stroke:rgb(0%,0%,0%);stroke-opacity:1;stroke-miterlimit:4;" d="M 102.161052 70.486262 C 102.161052 70.486262 121.464276 60.507446 124.503397 59.424158 C 127.538821 58.337173 134.478517 49.663478 124.067124 49.663478 " transform="matrix(1.056535,0,0,1.056535,115.727339,51.138174)"/>
<path style="fill:none;stroke-width:1.25;stroke-linecap:butt;stroke-linejoin:miter;stroke:rgb(0%,0%,0%);stroke-opacity:1;stroke-miterlimit:4;" d="M 111.489157 74.390534 C 111.707293 74.390534 127.324382 64.193581 132.530078 62.892157 C 135.351062 58.987885 133.831502 54.869174 129.058381 55.734325 " transform="matrix(1.056535,0,0,1.056535,115.727339,51.138174)"/>
<path style="fill:none;stroke-width:1.25;stroke-linecap:butt;stroke-linejoin:miter;stroke:rgb(0%,0%,0%);stroke-opacity:1;stroke-miterlimit:4;" d="M 133.831502 60.289309 C 134.264077 60.07487 142.290758 59.856734 139.469774 66.145717 C 135.351062 69.184838 117.563701 78.07667 117.563701 78.07667 " transform="matrix(1.056535,0,0,1.056535,115.727339,51.138174)"/>
<path style="fill:none;stroke-width:1.25;stroke-linecap:butt;stroke-linejoin:miter;stroke:rgb(0%,0%,0%);stroke-opacity:1;stroke-miterlimit:4;" d="M 129.709093 53.56775 L 163.549815 42.287509 C 163.549815 42.287509 166.3708 36.431101 162.248391 35.562253 " transform="matrix(1.056535,0,0,1.056535,115.727339,51.138174)"/>
<path style="fill:none;stroke-width:1.25;stroke-linecap:butt;stroke-linejoin:miter;stroke:rgb(0%,0%,0%);stroke-opacity:1;stroke-miterlimit:4;" d="M 190.450842 25.3653 C 190.450842 25.583436 194.78769 27.968148 192.184841 31.876117 C 187.415418 34.693404 164.854937 40.117237 164.854937 40.117237 " transform="matrix(1.056535,0,0,1.056535,115.727339,51.138174)"/>
<path style="fill:none;stroke-width:1.25;stroke-linecap:butt;stroke-linejoin:miter;stroke:rgb(0%,0%,0%);stroke-opacity:1;stroke-miterlimit:4;" d="M 224.720442 21.8973 L 192.835554 30.789132 " transform="matrix(1.056535,0,0,1.056535,115.727339,51.138174)"/>
<path style="fill:none;stroke-width:1.25;stroke-linecap:butt;stroke-linejoin:miter;stroke:rgb(0%,0%,0%);stroke-opacity:1;stroke-miterlimit:4;" d="M 222.328336 29.055132 L 194.565856 37.514389 " transform="matrix(1.056535,0,0,1.056535,115.727339,51.138174)"/>
<path style="fill:none;stroke-width:1.25;stroke-linecap:butt;stroke-linejoin:miter;stroke:rgb(0%,0%,0%);stroke-opacity:1;stroke-miterlimit:4;" d="M 219.951019 35.994828 L 195.438402 43.370797 " transform="matrix(1.056535,0,0,1.056535,115.727339,51.138174)"/>
<path style="fill:none;stroke-width:1.25;stroke-linecap:butt;stroke-linejoin:miter;stroke:rgb(0%,0%,0%);stroke-opacity:1;stroke-miterlimit:4;" d="M 215.38864 42.938221 C 214.737928 42.938221 197.168704 48.358357 197.168704 48.358357 " transform="matrix(1.056535,0,0,1.056535,115.727339,51.138174)"/>
<path style="fill:none;stroke-width:1.25;stroke-linecap:butt;stroke-linejoin:miter;stroke:rgb(0%,0%,0%);stroke-opacity:1;stroke-miterlimit:4;" d="M 211.491763 48.358357 L 200.211522 52.913341 " transform="matrix(1.056535,0,0,1.056535,115.727339,51.138174)"/>
<path style="fill:none;stroke-width:1.25;stroke-linecap:butt;stroke-linejoin:miter;stroke:rgb(0%,0%,0%);stroke-opacity:1;stroke-miterlimit:4;" d="M 208.670778 54.432901 C 208.234505 54.432901 198.910098 58.55531 198.910098 58.55531 " transform="matrix(1.056535,0,0,1.056535,115.727339,51.138174)"/>
<path style="fill:none;stroke-width:1.25;stroke-linecap:butt;stroke-linejoin:miter;stroke:rgb(0%,0%,0%);stroke-opacity:1;stroke-miterlimit:4;" d="M 205.849794 59.420461 L 197.172401 63.542869 " transform="matrix(1.056535,0,0,1.056535,115.727339,51.138174)"/>
<path style="fill:none;stroke-width:1.25;stroke-linecap:butt;stroke-linejoin:miter;stroke:rgb(0%,0%,0%);stroke-opacity:1;stroke-miterlimit:4;" d="M 190.87972 68.748566 C 190.87972 68.748566 191.966705 69.184838 191.748569 70.486262 " transform="matrix(1.056535,0,0,1.056535,115.727339,51.138174)"/>
<path style="fill:none;stroke-width:1.25;stroke-linecap:butt;stroke-linejoin:miter;stroke:rgb(0%,0%,0%);stroke-opacity:1;stroke-miterlimit:4;" d="M 168.969951 80.679518 C 168.969951 80.679518 172.659784 81.980942 169.188087 85.452639 C 167.45039 87.83735 162.462831 87.186638 159.427407 91.527183 " transform="matrix(1.056535,0,0,1.056535,115.727339,51.138174)"/>
<path style="fill:none;stroke-width:1.25;stroke-linecap:butt;stroke-linejoin:miter;stroke:rgb(0%,0%,0%);stroke-opacity:1;stroke-miterlimit:4;" d="M 192.621114 32.090556 C 192.621114 32.090556 197.176098 33.177541 193.704402 39.033949 C 184.594434 42.501948 166.156361 48.143917 166.156361 48.143917 C 166.156361 48.143917 165.29121 49.663478 162.902801 50.964902 C 160.518089 52.266326 134.271472 59.638597 134.271472 59.638597 " transform="matrix(1.056535,0,0,1.056535,115.727339,51.138174)"/>
<path style="fill:none;stroke-width:1.25;stroke-linecap:butt;stroke-linejoin:miter;stroke:rgb(0%,0%,0%);stroke-opacity:1;stroke-miterlimit:4;" d="M 194.140675 38.815813 C 194.140675 38.815813 199.128234 40.986085 194.140675 44.672221 C 188.498706 47.925781 168.759209 54.000326 168.759209 54.000326 C 168.759209 54.000326 168.54477 55.734325 167.675921 56.385037 C 166.81077 57.035749 140.778592 65.713142 140.778592 65.713142 " transform="matrix(1.056535,0,0,1.056535,115.727339,51.138174)"/>
<path style="fill:none;stroke-width:1.25;stroke-linecap:butt;stroke-linejoin:miter;stroke:rgb(0%,0%,0%);stroke-opacity:1;stroke-miterlimit:4;" d="M 195.438402 44.672221 C 195.438402 44.672221 200.647795 46.191781 196.092811 50.528629 C 190.668978 53.782189 173.314193 59.638597 173.314193 59.638597 C 173.314193 59.638597 171.580193 61.80887 168.759209 62.674021 C 165.938224 63.542869 147.936424 70.918838 147.936424 70.918838 " transform="matrix(1.056535,0,0,1.056535,115.727339,51.138174)"/>
<path style="fill:none;stroke-width:1.25;stroke-linecap:butt;stroke-linejoin:miter;stroke:rgb(0%,0%,0%);stroke-opacity:1;stroke-miterlimit:4;" d="M 196.739826 50.528629 C 198.259386 51.179341 202.381795 51.830053 197.390538 55.734325 C 191.534129 58.337173 177.218465 63.979142 177.218465 63.979142 L 175.917041 66.363854 L 153.14212 76.124534 " transform="matrix(1.056535,0,0,1.056535,115.727339,51.138174)"/>
<path style="fill:none;stroke-width:1.25;stroke-linecap:butt;stroke-linejoin:miter;stroke:rgb(0%,0%,0%);stroke-opacity:1;stroke-miterlimit:4;" d="M 198.04125 56.385037 C 198.04125 56.385037 200.207825 58.987885 195.438402 62.027006 C 190.232705 64.844293 178.952465 69.184838 178.952465 69.184838 " transform="matrix(1.056535,0,0,1.056535,115.727339,51.138174)"/>
<path style="fill:none;stroke-width:1.25;stroke-linecap:butt;stroke-linejoin:miter;stroke:rgb(0%,0%,0%);stroke-opacity:1;stroke-miterlimit:4;" d="M 195.438402 62.459582 C 195.438402 62.459582 197.82681 63.979142 194.791387 66.145717 C 191.31969 67.883414 177.654738 75.041246 177.654738 75.041246 L 168.759209 80.897655 " transform="matrix(1.056535,0,0,1.056535,115.727339,51.138174)"/>
<path style="fill:none;stroke-width:1.25;stroke-linecap:butt;stroke-linejoin:miter;stroke:rgb(0%,0%,0%);stroke-opacity:1;stroke-miterlimit:4;" d="M 164.200528 42.501948 C 164.200528 42.720085 167.886663 45.755508 166.585239 49.227205 C 169.838799 51.611917 169.188087 54.214765 169.188087 54.214765 C 169.188087 54.214765 173.743071 56.817613 173.092359 60.507446 C 177.647343 61.590733 177.432904 64.193581 177.432904 64.193581 L 175.913344 66.578293 C 175.913344 66.578293 180.468328 66.363854 176.564056 72.220262 C 178.948767 73.521686 177.86548 75.041246 177.86548 75.041246 " transform="matrix(1.056535,0,0,1.056535,115.727339,51.138174)"/>
<path style="fill:none;stroke-width:1.25;stroke-linecap:butt;stroke-linejoin:miter;stroke:rgb(0%,0%,0%);stroke-opacity:1;stroke-miterlimit:4;" d="M 176.560359 72.438398 C 175.909647 72.438398 160.725134 78.07667 156.820862 81.548367 " transform="matrix(1.056535,0,0,1.056535,115.727339,51.138174)"/>
<path style="fill:none;stroke-width:1.25;stroke-linecap:butt;stroke-linejoin:miter;stroke:rgb(0%,0%,0%);stroke-opacity:1;stroke-miterlimit:4;" d="M 139.909744 65.713142 C 139.909744 65.713142 144.464728 65.495005 143.814016 70.486262 C 149.019712 68.748566 147.936424 73.739822 147.936424 73.739822 C 147.936424 73.739822 154.007272 71.351414 152.923984 78.945519 C 156.828256 78.07667 156.177544 81.980942 156.177544 81.980942 C 156.177544 81.980942 159.649241 81.762806 159.649241 83.714942 C 162.033952 81.548367 164.6368 82.631654 164.6368 82.631654 C 164.6368 82.631654 166.374497 80.246943 168.759209 80.897655 " transform="matrix(1.056535,0,0,1.056535,115.727339,51.138174)"/>
<path style="fill:none;stroke-width:1.25;stroke-linecap:butt;stroke-linejoin:miter;stroke:rgb(0%,0%,0%);stroke-opacity:1;stroke-miterlimit:4;" d="M 144.028455 70.268126 C 144.028455 70.700702 123.638246 81.980942 123.638246 81.980942 " transform="matrix(1.056535,0,0,1.056535,115.727339,51.138174)"/>
<path style="fill:none;stroke-width:1.25;stroke-linecap:butt;stroke-linejoin:miter;stroke:rgb(0%,0%,0%);stroke-opacity:1;stroke-miterlimit:4;" d="M 147.92903 73.954262 L 132.530078 83.500503 " transform="matrix(1.056535,0,0,1.056535,115.727339,51.138174)"/>
<path style="fill:none;stroke-width:1.25;stroke-linecap:butt;stroke-linejoin:miter;stroke:rgb(0%,0%,0%);stroke-opacity:1;stroke-miterlimit:4;" d="M 153.138423 78.727382 C 153.138423 78.945519 139.691607 86.754063 139.691607 86.754063 " transform="matrix(1.056535,0,0,1.056535,115.727339,51.138174)"/>
<path style="fill:none;stroke-width:1.25;stroke-linecap:butt;stroke-linejoin:miter;stroke:rgb(0%,0%,0%);stroke-opacity:1;stroke-miterlimit:4;" d="M 156.181241 81.762806 C 156.181241 81.762806 146.635 89.57135 144.468425 89.138774 " transform="matrix(1.056535,0,0,1.056535,115.727339,51.138174)"/>
<path style="fill:none;stroke-width:1.25;stroke-linecap:butt;stroke-linejoin:miter;stroke:rgb(0%,0%,0%);stroke-opacity:1;stroke-miterlimit:4;" d="M 159.431104 84.151215 C 159.431104 84.151215 154.007272 88.269926 149.452288 90.222062 " transform="matrix(1.056535,0,0,1.056535,115.727339,51.138174)"/>
<path style="fill:none;stroke-width:1.25;stroke-linecap:butt;stroke-linejoin:miter;stroke:rgb(0%,0%,0%);stroke-opacity:1;stroke-miterlimit:4;" d="M 165.069376 82.413518 C 165.069376 82.413518 166.803376 84.58379 155.959408 90.222062 " transform="matrix(1.056535,0,0,1.056535,115.727339,51.138174)"/>
</g>
</svg>
