<?xml version="1.0" encoding="UTF-8"?>
<svg xmlns="http://www.w3.org/2000/svg" xmlns:xlink="http://www.w3.org/1999/xlink" width="384pt" height="384pt" viewBox="0 0 384 384" version="1.1">
<g id="surface1">
<path style=" stroke:none;fill-rule:evenodd;fill:rgb(80%,20%,20%);fill-opacity:1;" d="M 0 128 L 384.003906 128 L 384.003906 256 L 0 256 Z M 0 128 "/>
<path style=" stroke:none;fill-rule:evenodd;fill:rgb(0%,60%,80%);fill-opacity:1;" d="M 0 0 L 384.003906 0 L 384.003906 128 L 0 128 Z M 0 0 "/>
<path style=" stroke:none;fill-rule:evenodd;fill:rgb(0%,60%,20%);fill-opacity:1;" d="M 0 256 L 384.003906 256 L 384.003906 384 L 0 384 Z M 0 256 "/>
<path style=" stroke:none;fill-rule:nonzero;fill:rgb(100%,100%,100%);fill-opacity:1;" d="M 233.4375 192.097656 C 233.460938 223.144531 208.28125 248.347656 177.230469 248.347656 C 146.179688 248.394531 120.960938 223.234375 120.9375 192.183594 C 120.863281 161.132812 146 135.894531 177.050781 135.847656 C 208.101562 135.746094 233.359375 160.867188 233.433594 191.917969 L 233.433594 192.097656 Z M 233.4375 192.097656 "/>
<path style=" stroke:none;fill-rule:nonzero;fill:rgb(80%,20%,20%);fill-opacity:1;" d="M 236.5625 192.097656 C 236.582031 217.625 215.878906 238.347656 190.347656 238.347656 C 164.816406 238.386719 144.082031 217.699219 144.0625 192.167969 C 144 166.640625 164.671875 145.886719 190.199219 145.847656 C 215.730469 145.765625 236.5 166.417969 236.5625 191.949219 Z M 236.5625 192.097656 "/>
<path style=" stroke:none;fill-rule:evenodd;fill:rgb(100%,100%,100%);fill-opacity:1;" d="M 217.585938 214.195312 L 225.25 198.078125 L 208.4375 192.097656 L 225.25 186.113281 L 217.585938 169.996094 L 233.703125 177.660156 L 239.6875 160.847656 L 245.667969 177.660156 L 261.785156 169.996094 L 254.125 186.113281 L 270.9375 192.097656 L 254.125 198.078125 L 261.785156 214.195312 L 245.667969 206.535156 L 239.6875 223.347656 L 233.703125 206.535156 Z M 217.585938 214.195312 "/>
</g>
</svg>
