<?xml version="1.0" encoding="UTF-8"?>
<svg xmlns="http://www.w3.org/2000/svg" xmlns:xlink="http://www.w3.org/1999/xlink" width="384pt" height="384pt" viewBox="0 0 384 384" version="1.1">
<g id="surface1">
<path style=" stroke:none;fill-rule:evenodd;fill:rgb(0%,0%,61.568627%);fill-opacity:1;" d="M 0 0 L 128 0 L 128 383.988281 L 0 383.988281 Z M 0 0 "/>
<path style=" stroke:none;fill-rule:evenodd;fill:rgb(0%,0%,61.568627%);fill-opacity:1;" d="M 255.996094 0 L 383.996094 0 L 383.996094 383.988281 L 255.996094 383.988281 Z M 255.996094 0 "/>
<path style=" stroke:none;fill-rule:evenodd;fill:rgb(100%,83.137255%,0%);fill-opacity:1;" d="M 128 0 L 255.996094 0 L 255.996094 383.988281 L 128 383.988281 Z M 128 0 "/>
<path style=" stroke:none;fill-rule:evenodd;fill:rgb(0%,0%,0%);fill-opacity:1;" d="M 191.011719 284.058594 C 197.851562 284.535156 194.074219 283.746094 200.914062 284.226562 L 201.390625 243.660156 L 227.640625 243.660156 C 227.484375 195.214844 246.300781 154.378906 268.757812 119.765625 C 270.105469 118.03125 269.222656 117.28125 267.726562 117.667969 C 250.78125 120.3125 233.34375 129.210938 221.402344 141.5625 C 220.007812 143.273438 221.601562 143.539062 222.390625 143.4375 C 228.929688 141.476562 227.640625 148.800781 227.167969 151.742188 C 220.460938 173.15625 214.613281 193.910156 212.464844 218.554688 C 212.460938 220.269531 212.191406 221.515625 211.378906 221.597656 C 208.355469 221.753906 205.402344 221.710938 202.34375 221.703125 C 201.230469 221.714844 200.988281 220.484375 200.914062 219.320312 C 201.074219 194.5 200.851562 169.6875 201.011719 144.871094 C 201.085938 143.230469 207.015625 136.582031 207.980469 136.558594 C 211.019531 136.480469 212.296875 136.554688 215.695312 136.496094 C 216.578125 136.488281 216.769531 133.765625 215.757812 133.632812 C 213.6875 133.632812 209.851562 133.445312 207.785156 133.445312 C 206.804688 133.480469 192.929688 122.898438 192.898438 120.726562 C 192.738281 117.386719 192.832031 114.109375 192.675781 110.765625 C 192.855469 109.945312 188.800781 109.757812 188.855469 110.828125 L 188.855469 120.117188 C 188.160156 124.539062 190.851562 270.53125 191.011719 284.054688 Z M 191.011719 284.058594 "/>
<path style=" stroke:none;fill-rule:evenodd;fill:rgb(0%,0%,0%);fill-opacity:1;" d="M 190.652344 284.058594 C 183.8125 284.535156 187.589844 283.746094 180.75 284.226562 L 180.273438 243.660156 L 154.023438 243.660156 C 154.179688 195.214844 135.359375 154.378906 112.90625 119.765625 C 111.554688 118.03125 112.4375 117.28125 113.9375 117.667969 C 130.882812 120.3125 148.320312 129.210938 160.261719 141.5625 C 161.65625 143.273438 160.0625 143.539062 159.273438 143.4375 C 152.734375 141.476562 154.023438 148.800781 154.496094 151.742188 C 161.199219 173.15625 167.050781 193.910156 169.199219 218.554688 C 169.203125 220.269531 169.472656 221.515625 170.285156 221.597656 C 173.304688 221.753906 176.261719 221.710938 179.320312 221.703125 C 180.433594 221.714844 180.675781 220.484375 180.75 219.320312 C 180.589844 194.5 180.8125 169.6875 180.652344 144.871094 C 180.574219 143.230469 174.644531 136.582031 173.683594 136.558594 C 170.644531 136.480469 169.363281 136.554688 165.96875 136.496094 C 165.082031 136.488281 164.894531 133.765625 165.90625 133.632812 C 167.972656 133.632812 171.808594 133.445312 173.878906 133.445312 C 174.859375 133.480469 188.734375 122.898438 188.765625 120.726562 C 188.921875 117.386719 188.828125 114.109375 188.988281 110.765625 C 188.804688 109.945312 192.863281 109.757812 192.804688 110.828125 L 192.804688 120.117188 C 193.5 124.539062 190.808594 270.53125 190.652344 284.054688 Z M 190.652344 284.058594 "/>
</g>
</svg>
