<?xml version="1.0" encoding="UTF-8"?>
<svg xmlns="http://www.w3.org/2000/svg" xmlns:xlink="http://www.w3.org/1999/xlink" width="384pt" height="384pt" viewBox="0 0 384 384" version="1.1">
<defs>
<clipPath id="clip1">
  <path d="M 0 0.00390625 L 384 0.00390625 L 384 384 L 0 384 Z M 0 0.00390625 "/>
</clipPath>
<clipPath id="clip2">
  <path d="M 0 0.00390625 L 128 0.00390625 L 128 384 L 0 384 Z M 0 0.00390625 "/>
</clipPath>
</defs>
<g id="surface1">
<g clip-path="url(#clip1)" clip-rule="nonzero">
<path style=" stroke:none;fill-rule:evenodd;fill:rgb(88.235294%,0%,6.666667%);fill-opacity:1;" d="M -64.5 0.00390625 L 511.503906 0.00390625 L 511.503906 384.003906 L -64.5 384.003906 Z M -64.5 0.00390625 "/>
</g>
<g clip-path="url(#clip2)" clip-rule="nonzero">
<path style=" stroke:none;fill-rule:evenodd;fill:rgb(100%,100%,100%);fill-opacity:1;" d="M 52.902344 383.820312 L -64.5 384.003906 L -64.5 0.00390625 L 52.347656 0.0664062 L 127.742188 24.308594 L 52.902344 47.941406 L 127.742188 72.308594 L 52.902344 95.941406 L 127.742188 120.308594 L 52.902344 143.941406 L 127.742188 168.308594 L 52.902344 191.941406 L 127.742188 216.308594 L 52.902344 239.941406 L 127.742188 264.308594 L 52.902344 287.945312 L 127.742188 312.308594 L 52.902344 335.945312 L 127.742188 360.308594 L 52.902344 383.945312 "/>
</g>
</g>
</svg>
