<?xml version="1.0" encoding="UTF-8"?>
<svg xmlns="http://www.w3.org/2000/svg" xmlns:xlink="http://www.w3.org/1999/xlink" width="384pt" height="384pt" viewBox="0 0 384 384" version="1.1">
<defs>
<clipPath id="clip1">
  <path d="M 0 0 L 189 0 L 189 383.992188 L 0 383.992188 Z M 0 0 "/>
</clipPath>
<clipPath id="clip2">
  <path d="M 188 0 L 383.996094 0 L 383.996094 383.992188 L 188 383.992188 Z M 188 0 "/>
</clipPath>
<clipPath id="clip3">
  <path d="M 0 0 L 383.996094 0 L 383.996094 192 L 0 192 Z M 0 0 "/>
</clipPath>
<clipPath id="clip4">
  <path d="M 0 191 L 383.996094 191 L 383.996094 383.992188 L 0 383.992188 Z M 0 191 "/>
</clipPath>
<clipPath id="clip5">
  <path d="M 0 0 L 383.996094 0 L 383.996094 383.992188 L 0 383.992188 Z M 0 0 "/>
</clipPath>
<clipPath id="clip6">
  <path d="M 0 0 L 383.996094 0 L 383.996094 383.992188 L 0 383.992188 Z M 0 0 "/>
</clipPath>
</defs>
<g id="surface1">
<g clip-path="url(#clip1)" clip-rule="nonzero">
<path style=" stroke:none;fill-rule:evenodd;fill:rgb(0%,81.176471%,0%);fill-opacity:1;" d="M -133.5 -0.0078125 L 188.09375 191.992188 L -133.5 383.992188 Z M -133.5 -0.0078125 "/>
</g>
<g clip-path="url(#clip2)" clip-rule="nonzero">
<path style=" stroke:none;fill-rule:evenodd;fill:rgb(0%,81.176471%,0%);fill-opacity:1;" d="M 509.6875 -0.0078125 L 188.09375 191.992188 L 509.6875 383.992188 Z M 509.6875 -0.0078125 "/>
</g>
<g clip-path="url(#clip3)" clip-rule="nonzero">
<path style=" stroke:none;fill-rule:evenodd;fill:rgb(100%,0%,0%);fill-opacity:1;" d="M -133.5 -0.0078125 L 188.09375 191.992188 L 509.6875 -0.0078125 Z M -133.5 -0.0078125 "/>
</g>
<g clip-path="url(#clip4)" clip-rule="nonzero">
<path style=" stroke:none;fill-rule:evenodd;fill:rgb(100%,0%,0%);fill-opacity:1;" d="M -133.5 383.992188 L 188.09375 191.992188 L 509.6875 383.992188 Z M -133.5 383.992188 "/>
</g>
<g clip-path="url(#clip5)" clip-rule="nonzero">
<path style=" stroke:none;fill-rule:evenodd;fill:rgb(100%,100%,100%);fill-opacity:1;" d="M 509.6875 -0.0078125 L 449.761719 -0.0078125 L -133.5 348.226562 L -133.5 384.003906 L -73.574219 384.003906 L 509.6875 35.769531 Z M 509.6875 -0.0078125 "/>
</g>
<path style=" stroke:none;fill-rule:evenodd;fill:rgb(100%,100%,100%);fill-opacity:1;" d="M 299.140625 191.984375 C 299.140625 253.308594 249.425781 303.023438 188.101562 303.023438 C 126.777344 303.023438 77.0625 253.308594 77.0625 191.984375 C 77.0625 130.65625 126.777344 80.945312 188.101562 80.945312 C 249.425781 80.945312 299.140625 130.65625 299.140625 191.984375 Z M 299.140625 191.984375 "/>
<g clip-path="url(#clip6)" clip-rule="nonzero">
<path style=" stroke:none;fill-rule:evenodd;fill:rgb(100%,100%,100%);fill-opacity:1;" d="M -133.5 -0.0078125 L -133.5 35.769531 L 449.761719 384.003906 L 509.6875 384.003906 L 509.6875 348.226562 L -73.574219 -0.0078125 Z M -133.5 -0.0078125 "/>
</g>
<path style="fill-rule:evenodd;fill:rgb(100%,0%,0%);fill-opacity:1;stroke-width:1.25;stroke-linecap:butt;stroke-linejoin:miter;stroke:rgb(0%,87.058824%,0%);stroke-opacity:1;stroke-miterlimit:4;" d="M 134.279371 105.870885 L 127.699749 105.979477 L 124.299565 111.599571 L 120.910063 105.970576 L 114.339342 105.82994 L 117.520561 100.079892 L 114.360705 94.312041 L 120.929645 94.199888 L 124.34051 88.574454 L 127.730012 94.21235 L 134.300733 94.351206 L 131.110613 100.099474 Z M 134.279371 105.870885 " transform="matrix(2.194275,0,0,2.194275,-84.692741,-82.204366)"/>
<path style="fill-rule:evenodd;fill:rgb(100%,0%,0%);fill-opacity:1;stroke-width:1.25;stroke-linecap:butt;stroke-linejoin:miter;stroke:rgb(0%,87.058824%,0%);stroke-opacity:1;stroke-miterlimit:4;" d="M 134.280685 105.869488 L 127.699283 105.97986 L 124.30088 111.599954 L 120.909597 105.969179 L 114.340656 105.830323 L 117.520095 100.080275 L 114.360239 94.312424 L 120.929179 94.198492 L 124.340044 88.574837 L 127.729546 94.212733 L 134.300267 94.351589 L 131.110147 100.099857 Z M 134.280685 105.869488 " transform="matrix(2.194275,0,0,2.194275,-133.062813,1.529168)"/>
<path style="fill-rule:evenodd;fill:rgb(100%,0%,0%);fill-opacity:1;stroke-width:1.25;stroke-linecap:butt;stroke-linejoin:miter;stroke:rgb(0%,87.058824%,0%);stroke-opacity:1;stroke-miterlimit:4;" d="M 134.280778 105.869488 L 127.699375 105.97986 L 124.299192 111.599954 L 120.90969 105.969179 L 114.340749 105.830323 L 117.520188 100.080275 L 114.360331 94.312424 L 120.929272 94.198492 L 124.340137 88.574837 L 127.729639 94.212733 L 134.30036 94.351589 L 131.11024 100.099857 Z M 134.280778 105.869488 " transform="matrix(2.194275,0,0,2.194275,-35.137235,1.529168)"/>
</g>
</svg>
