<?xml version="1.0" encoding="UTF-8"?>
<svg xmlns="http://www.w3.org/2000/svg" xmlns:xlink="http://www.w3.org/1999/xlink" width="384pt" height="384pt" viewBox="0 0 384 384" version="1.1">
<defs>
<filter id="alpha" filterUnits="objectBoundingBox" x="0%" y="0%" width="100%" height="100%">
  <feColorMatrix type="matrix" in="SourceGraphic" values="0 0 0 0 1 0 0 0 0 1 0 0 0 0 1 0 0 0 1 0"/>
</filter>
<mask id="mask0">
  <g filter="url(#alpha)">
<rect x="0" y="0" width="384" height="384" style="fill:rgb(0%,0%,0%);fill-opacity:0.988235;stroke:none;"/>
  </g>
</mask>
<clipPath id="clip1">
  <rect width="384" height="384"/>
</clipPath>
<g id="surface6" clip-path="url(#clip1)">
<path style="fill-rule:evenodd;fill:rgb(81.176471%,6.666667%,14.901961%);fill-opacity:1;stroke-width:2.5;stroke-linecap:butt;stroke-linejoin:bevel;stroke:rgb(0%,0%,0%);stroke-opacity:1;stroke-miterlimit:4;" d="M 457.894177 1168.70313 C 460.705417 1170.583042 471.923775 1172.55163 492.26758 1169.013493 C 527.776122 1162.788499 527.48347 1127.761826 582.794852 1144.007108 C 580.294001 1139.005831 571.541021 1123.700505 549.982263 1123.079779 C 552.172725 1115.888227 553.73354 1105.273815 549.671874 1098.702988 C 545.503789 1107.969538 539.04769 1112.279149 534.374113 1115.311838 C 532.928586 1114.531497 524.574678 1107.703513 523.670115 1097.408331 C 522.410821 1077.013053 512.460625 1073.412843 511.396433 1073.953761 C 505.01128 1073.767543 466.531869 1134.598678 384.12793 1134.997716 C 302.938944 1135.387886 262.313412 1074.485812 257.719649 1073.953761 C 256.664325 1073.412843 246.705261 1077.013053 245.454836 1097.408331 C 244.550272 1107.703513 236.089946 1114.230002 234.671023 1115.143356 C 230.006314 1112.243679 223.621162 1107.969538 219.453076 1098.702988 C 215.39141 1105.273815 216.952225 1115.888227 219.133819 1123.079779 C 197.575061 1123.700505 188.822081 1139.005831 186.32123 1144.007108 C 241.641481 1127.761826 241.7479 1162.788499 277.26531 1169.013493 C 297.600247 1172.55163 308.144617 1170.893405 310.964726 1169.02236 " transform="matrix(0.440475,0,0,0.440513,29.895,-216.14865)"/>
</g>
<mask id="mask1">
  <g filter="url(#alpha)">
<rect x="0" y="0" width="384" height="384" style="fill:rgb(0%,0%,0%);fill-opacity:0.988235;stroke:none;"/>
  </g>
</mask>
<clipPath id="clip2">
  <rect width="384" height="384"/>
</clipPath>
<g id="surface9" clip-path="url(#clip2)">
<path style="fill-rule:evenodd;fill:rgb(81.176471%,6.666667%,14.901961%);fill-opacity:1;stroke-width:2.5;stroke-linecap:butt;stroke-linejoin:bevel;stroke:rgb(0%,0%,0%);stroke-opacity:1;stroke-miterlimit:4;" d="M 286.284338 1151.198661 C 267.013593 1150.427187 229.429877 1121.128927 234.768574 1115.099018 C 236.462413 1113.387588 244.736506 1115.152223 259.076494 1125.18138 C 280.351467 1139.679762 298.602361 1185.400655 383.950565 1185.045955 C 470.93053 1184.700122 488.782351 1139.679762 510.057324 1125.18138 C 524.388444 1115.152223 533.336526 1113.547204 534.33864 1115.506924 C 539.464499 1121.288542 501.845309 1150.515862 482.574564 1151.287336 " transform="matrix(0.440475,0,0,0.440513,29.895,-216.14865)"/>
</g>
</defs>
<g id="surface1">
<path style=" stroke:none;fill-rule:evenodd;fill:rgb(100%,100%,100%);fill-opacity:1;" d="M -165.664062 26.511719 L -165.570312 117.84375 L 602.414062 277.320312 L 602.414062 186.644531 Z M -165.664062 26.511719 "/>
<path style=" stroke:none;fill-rule:evenodd;fill:rgb(99.215686%,81.960784%,7.843137%);fill-opacity:1;" d="M -165.570312 197.3125 L -165.570312 383.988281 L 602.414062 383.988281 L 602.414062 357.328125 Z M -165.570312 197.3125 "/>
<path style=" stroke:none;fill-rule:evenodd;fill:rgb(99.215686%,81.960784%,7.843137%);fill-opacity:1;" d="M 602.414062 186.667969 L 602.414062 -0.0078125 L -165.570312 -0.0078125 L -165.570312 26.652344 L 602.414062 186.671875 Z M 602.414062 186.667969 "/>
<path style=" stroke:none;fill-rule:evenodd;fill:rgb(0%,0%,0%);fill-opacity:1;" d="M -165.570312 117.367188 L -165.570312 197.367188 L 602.660156 357.328125 L 602.414062 277.320312 Z M -165.570312 117.367188 "/>
<path style="fill-rule:evenodd;fill:rgb(81.176471%,6.666667%,14.901961%);fill-opacity:1;stroke-width:1.5623;stroke-linecap:butt;stroke-linejoin:miter;stroke:rgb(0%,0%,0%);stroke-opacity:1;stroke-miterlimit:4;" d="M 274.570689 617.609065 L 284.108603 617.609065 L 284.108603 643.072201 L 274.570689 643.072201 Z M 274.570689 617.609065 " transform="matrix(0.704835,0,0,0.70491,2.43,-276.82365)"/>
<path style="fill-rule:evenodd;fill:rgb(81.176471%,6.666667%,14.901961%);fill-opacity:1;stroke-width:3.2074;stroke-linecap:butt;stroke-linejoin:miter;stroke:rgb(0%,0%,0%);stroke-opacity:1;stroke-miterlimit:4;" d="M 415.114772 645.67564 C 414.883691 612.109879 416.245855 579.831835 418.885049 570.679471 C 421.524243 561.516466 425.440466 559.622139 430.305339 555.067242 C 418.787751 554.024298 406.07827 563.719418 400.240422 576.479516 C 396.530956 562.080507 389.598512 552.321533 383.505258 547.426083 C 377.399842 552.321533 370.211992 562.229499 366.940364 576.607223 C 360.920084 565.890444 350.375471 554.013656 337.909233 555.354584 C 342.336268 559.973335 346.386275 561.686742 349.08628 570.636902 C 351.786284 579.587062 353.124124 611.652261 352.163312 645.239307 " transform="matrix(0.32118,0,0,0.36705,76.0875,-31.0929)"/>
<path style="fill-rule:evenodd;fill:rgb(81.176471%,6.666667%,14.901961%);fill-opacity:1;stroke-width:2.8036;stroke-linecap:butt;stroke-linejoin:miter;stroke:rgb(0%,0%,0%);stroke-opacity:1;stroke-miterlimit:4;" d="M 414.441821 641.958003 C 414.19645 608.39447 415.813668 579.743537 418.122386 570.636602 C 420.431103 561.529667 424.111668 559.827105 429.37599 555.889929 C 417.865861 554.843563 406.891087 557.645697 400.477983 573.243651 C 396.875491 558.745268 389.837805 551.615788 383.736991 546.720922 C 377.636176 551.615788 370.442346 558.993559 367.163298 573.367796 C 360.114459 557.893987 350.266161 554.42679 337.785701 555.765784 C 342.971951 560.075395 347.054032 561.689282 349.585814 570.618867 C 352.128749 579.548452 352.452193 607.933359 351.481862 641.514628 " transform="matrix(0.350235,0,0,0.440513,64.8675,-46.05615)"/>
<path style="fill-rule:evenodd;fill:rgb(81.176471%,6.666667%,14.901961%);fill-opacity:1;stroke-width:2.5;stroke-linecap:butt;stroke-linejoin:miter;stroke:rgb(0%,0%,0%);stroke-opacity:1;stroke-miterlimit:4;" d="M 417.501703 590.831546 C 417.191313 583.019267 418.264374 572.529 420.038027 568.476547 C 421.811681 564.415227 424.285927 561.453477 426.786778 558.02175 C 416.065043 556.469936 405.165943 557.259144 399.374965 572.990111 C 395.623687 558.615874 390.001206 551.113958 383.899838 546.210224 C 377.79847 551.113958 372.504115 558.615874 368.752838 572.990111 C 362.961859 557.259144 352.009549 556.31032 340.959688 558.02175 C 343.46054 561.453477 346.032337 564.415227 347.903542 568.476547 C 349.774746 572.529 350.945357 583.019267 350.6261 590.831546 " transform="matrix(0.440475,0,0,0.440513,30.2025,-15.3429)"/>
<path style="fill-rule:evenodd;fill:rgb(81.176471%,6.666667%,14.901961%);fill-opacity:1;stroke-width:2.5;stroke-linecap:butt;stroke-linejoin:miter;stroke:rgb(0%,0%,0%);stroke-opacity:1;stroke-miterlimit:4;" d="M 378.948862 610.765642 L 378.948862 642.981314 L 390.317981 642.981314 L 390.317981 610.765642 Z M 378.948862 610.765642 " transform="matrix(0.440475,0,0,0.440513,29.895,-145.39365)"/>
<use xlink:href="#surface6" mask="url(#mask0)"/>
<use xlink:href="#surface9" mask="url(#mask1)"/>
<path style="fill-rule:evenodd;fill:rgb(81.176471%,6.666667%,14.901961%);fill-opacity:1;stroke-width:2.5;stroke-linecap:butt;stroke-linejoin:miter;stroke:rgb(0%,0%,0%);stroke-opacity:1;stroke-miterlimit:4;" d="M 259.203133 399.541571 C 183.086796 479.721617 224.031585 663.899847 382.223736 666.5601 C 541.258372 668.34247 587.648277 482.302063 508.632017 399.18687 M 274.607313 402.2905 C 234.123673 470.472802 276.212469 589.935927 384.494012 589.935927 C 493.662382 589.935927 533.667135 469.603785 493.573699 401.882594 " transform="matrix(0.440475,0,0,0.440513,30.2025,-15.3429)"/>
<path style="fill-rule:evenodd;fill:rgb(99.215686%,81.960784%,7.843137%);fill-opacity:1;stroke-width:0.22025;stroke-linecap:butt;stroke-linejoin:miter;stroke:rgb(81.176471%,6.666667%,14.901961%);stroke-opacity:1;stroke-miterlimit:4;" d="M 512.189375 379.897575 C 515.439375 380.621533 518.402917 383.9757 517.210208 387.428825 C 515.887292 391.5382 510.991458 392.5382 509.1425 392.236117 C 507.147708 391.043408 508.340417 389.31945 514.444583 388.657992 C 518.42375 387.19445 514.79875 384.50695 511.793542 383.215283 C 510.158125 382.517367 510.663333 379.559033 512.189375 379.897575 Z M 512.189375 379.897575 " transform="matrix(0.75,0,0,0.75,-172.3725,3.72135)"/>
<path style="fill-rule:evenodd;fill:rgb(99.215686%,81.960784%,7.843137%);fill-opacity:1;stroke-width:0.22025;stroke-linecap:butt;stroke-linejoin:miter;stroke:rgb(81.176471%,6.666667%,14.901961%);stroke-opacity:1;stroke-miterlimit:4;" d="M 502.11125 378.840283 C 503.621667 377.121533 504.850833 382.392367 505.184167 386.043408 C 505.626875 389.611117 505.668542 394.012158 504.231042 394.230908 C 503.356042 394.376742 504.090417 390.13195 503.184167 386.241325 C 502.001875 381.730908 501.491458 379.595492 502.11125 378.840283 Z M 502.11125 378.840283 " transform="matrix(0.75,0,0,0.75,-172.3725,3.72135)"/>
<path style="fill-rule:evenodd;fill:rgb(99.215686%,81.960784%,7.843137%);fill-opacity:1;stroke-width:0.22025;stroke-linecap:butt;stroke-linejoin:miter;stroke:rgb(79.607843%,30.980392%,27.45098%);stroke-opacity:1;stroke-miterlimit:4;" d="M 498.6425 385.340283 C 502.434167 389.017367 496.007083 399.668408 481.944583 395.022575 C 481.147708 393.564242 487.527917 395.00695 492.027917 394.230908 C 500.585208 392.876742 496.913333 383.710075 498.6425 385.340283 Z M 498.6425 385.340283 " transform="matrix(0.75,0,0,0.75,-172.3725,3.72135)"/>
<path style="fill-rule:evenodd;fill:rgb(99.215686%,81.960784%,7.843137%);fill-opacity:1;stroke-width:0.22025;stroke-linecap:butt;stroke-linejoin:miter;stroke:rgb(81.176471%,6.666667%,14.901961%);stroke-opacity:1;stroke-miterlimit:4;" d="M 491.762292 378.0382 C 493.272708 376.31945 492.3925 381.762158 492.705 385.418408 C 493.012292 388.855908 492.632083 393.032992 491.001875 392.496533 C 490.116458 392.06945 491.564375 388.210075 490.658125 384.585075 C 489.689375 380.022575 490.61125 379.19445 491.762292 378.0382 Z M 491.762292 378.0382 " transform="matrix(0.75,0,0,0.75,-172.3725,3.72135)"/>
<path style="fill-rule:evenodd;fill:rgb(99.215686%,81.960784%,7.843137%);fill-opacity:1;stroke-width:0.22025;stroke-linecap:butt;stroke-linejoin:miter;stroke:rgb(81.176471%,6.666667%,14.901961%);stroke-opacity:1;stroke-miterlimit:4;" d="M 482.11125 376.579867 C 484.793542 376.564242 484.074792 377.314242 483.882083 384.480908 C 483.67375 392.517367 476.8925 393.4132 475.277917 391.210075 C 473.92375 389.480908 474.418542 388.960075 468.356042 389.5382 C 467.001875 388.855908 467.053958 387.402783 462.626875 387.777783 C 461.481042 387.986117 461.5175 385.814242 459.449792 384.517367 C 455.850833 382.366325 454.652917 386.105908 447.783125 382.147575 C 447.356042 381.907992 444.569583 380.142367 445.074792 376.647575 C 445.606042 372.241325 441.585208 377.189242 437.163333 375.262158 C 436.309167 374.88195 433.715417 373.803825 431.428958 371.798617 C 428.205 369.022575 431.585208 368.460075 435.944583 371.293408 C 438.637292 372.996533 442.590417 369.06945 442.694583 365.137158 C 442.939375 360.980908 440.866458 359.887158 444.074792 359.986117 C 445.866458 360.043408 445.439375 367.25695 442.397708 370.449658 C 438.33 374.845492 441.074792 374.001742 442.527917 373.777783 C 444.043542 373.397575 450.934167 364.861117 452.085208 365.595492 C 453.876875 366.809033 446.710208 372.267367 448.314375 377.439242 C 449.08 379.741325 453.350833 381.949658 456.866458 382.303825 C 461.001875 382.991325 461.012292 377.38195 462.689375 378.44445 C 465.007083 379.965283 458.257083 382.829867 465.340417 384.918408 C 466.908125 385.387158 467.809167 381.402783 468.73625 381.574658 C 470.960208 381.939242 467.283125 386.230908 471.257083 386.9132 C 474.027917 387.371533 473.272708 382.902783 474.991458 383.173617 C 476.975833 383.048617 475.11125 390.324658 480.621667 389.579867 C 482.944583 389.277783 479.309167 376.595492 482.11125 376.579867 Z M 482.11125 376.579867 " transform="matrix(0.75,0,0,0.75,-172.3725,3.72135)"/>
<path style="fill-rule:evenodd;fill:rgb(99.215686%,81.960784%,7.843137%);fill-opacity:1;stroke-width:0.22025;stroke-linecap:butt;stroke-linejoin:miter;stroke:rgb(81.176471%,6.666667%,14.901961%);stroke-opacity:1;stroke-miterlimit:4;" d="M 432.158125 367.142367 C 433.757083 366.798617 436.491458 365.31945 436.606042 362.923617 C 436.835208 360.303825 433.184167 359.392367 428.856042 360.074658 C 426.574792 360.418408 422.699792 358.934033 420.42375 356.996533 C 418.1425 354.147575 418.1425 350.954867 415.408125 352.324658 C 413.356042 353.236117 418.257083 358.4757 420.647708 359.730908 C 423.043542 360.986117 426.918542 360.871533 427.147708 362.69445 C 427.371667 364.517367 426.23625 367.366325 432.158125 367.142367 Z M 432.158125 367.142367 " transform="matrix(0.75,0,0,0.75,-172.3725,3.72135)"/>
<path style="fill-rule:evenodd;fill:rgb(99.215686%,81.960784%,7.843137%);fill-opacity:1;stroke-width:0.22025;stroke-linecap:butt;stroke-linejoin:miter;stroke:rgb(81.176471%,6.666667%,14.901961%);stroke-opacity:1;stroke-miterlimit:4;" d="M 529.1425 379.371533 C 528.262292 379.793408 527.543542 387.762158 532.5175 387.934033 C 538.7675 388.152783 541.908125 384.986117 543.470625 383.861117 C 546.069583 381.887158 550.757083 377.939242 548.585208 374.532992 C 547.501875 373.298617 546.902917 376.809033 545.652917 378.861117 C 543.949792 381.871533 538.121667 385.449658 533.658125 384.960075 C 528.194583 384.626742 530.251875 379.085075 529.1425 379.371533 Z M 529.1425 379.371533 " transform="matrix(0.75,0,0,0.75,-172.3725,3.72135)"/>
<path style="fill-rule:evenodd;fill:rgb(99.215686%,81.960784%,7.843137%);fill-opacity:1;stroke-width:0.22025;stroke-linecap:butt;stroke-linejoin:miter;stroke:rgb(81.176471%,6.666667%,14.901961%);stroke-opacity:1;stroke-miterlimit:4;" d="M 541.981042 375.678825 C 540.710208 374.720492 544.803958 373.147575 545.231042 371.657992 C 545.652917 370.173617 543.418542 368.772575 544.663333 367.142367 C 545.965417 364.996533 546.038333 371.184033 547.694583 371.361117 C 552.277917 371.840283 549.007083 374.803825 547.272708 374.230908 C 545.319583 373.647575 542.746667 376.402783 541.981042 375.678825 Z M 541.981042 375.678825 " transform="matrix(0.75,0,0,0.75,-172.3725,3.72135)"/>
<path style="fill-rule:evenodd;fill:rgb(99.215686%,81.960784%,7.843137%);fill-opacity:1;stroke-width:0.22025;stroke-linecap:butt;stroke-linejoin:miter;stroke:rgb(81.176471%,6.666667%,14.901961%);stroke-opacity:1;stroke-miterlimit:4;" d="M 538.428958 366.309033 C 538.137292 368.376742 539.387292 368.892367 539.757083 367.710075 C 540.199792 365.496533 538.944583 364.465283 538.428958 366.309033 Z M 538.428958 366.309033 " transform="matrix(0.75,0,0,0.75,-172.3725,3.72135)"/>
<path style="fill-rule:evenodd;fill:rgb(99.215686%,81.960784%,7.843137%);fill-opacity:1;stroke-width:0.22025;stroke-linecap:butt;stroke-linejoin:miter;stroke:rgb(81.176471%,6.666667%,14.901961%);stroke-opacity:1;stroke-miterlimit:4;" d="M 541.751875 364.168408 C 541.012292 364.2257 540.908125 366.793408 541.871667 366.861117 C 542.908125 366.94445 542.428958 368.69445 543.29875 368.668408 C 544.335208 368.642367 544.413333 365.736117 543.241458 365.710075 C 542.152917 365.684033 542.408125 364.184033 541.751875 364.168408 Z M 541.751875 364.168408 " transform="matrix(0.75,0,0,0.75,-172.3725,3.72135)"/>
<path style="fill-rule:evenodd;fill:rgb(99.215686%,81.960784%,7.843137%);fill-opacity:1;stroke-width:0.22025;stroke-linecap:butt;stroke-linejoin:miter;stroke:rgb(81.176471%,6.666667%,14.901961%);stroke-opacity:1;stroke-miterlimit:4;" d="M 550.04875 363.678825 C 549.17375 364.7882 547.507083 359.402783 553.11125 358.63195 C 555.772708 358.866325 558.043542 363.251742 557.809167 367.480908 C 557.720625 369.043408 557.652917 372.574658 556.793542 374.293408 C 556.085208 375.939242 553.501875 381.345492 552.246667 380.876742 C 550.996667 380.402783 552.574792 378.142367 554.678958 375.001742 C 556.376875 372.428825 557.027917 365.2882 556.163333 364.0382 C 555.303958 362.782992 554.434167 367.168408 552.6425 368.111117 C 551.147708 368.892367 549.585208 366.626742 549.350833 365.532992 C 549.168542 364.230908 550.350833 363.428825 551.152917 364.9757 C 551.793542 366.137158 553.757083 363.835075 553.715417 362.189242 C 553.7675 359.522575 552.001875 361.637158 550.04875 363.678825 Z M 550.04875 363.678825 " transform="matrix(0.75,0,0,0.75,-172.3725,3.72135)"/>
<path style="fill-rule:evenodd;fill:rgb(99.215686%,81.960784%,7.843137%);fill-opacity:1;stroke-width:0.22025;stroke-linecap:butt;stroke-linejoin:miter;stroke:rgb(81.176471%,6.666667%,14.901961%);stroke-opacity:1;stroke-miterlimit:4;" d="M 562.121667 351.657992 C 561.413333 352.678825 558.98625 354.949658 558.5175 355.892367 C 558.04875 356.829867 557.970625 358.4757 558.751875 360.043408 C 559.538333 361.605908 561.178958 364.111117 560.866458 366.387158 C 560.553958 368.657992 558.98625 373.355908 559.850833 372.965283 C 560.710208 372.56945 562.824792 367.949658 562.356042 364.423617 C 561.887292 360.902783 560.241458 358.94445 560.553958 357.767367 C 560.866458 356.595492 562.824792 354.402783 563.215417 352.9132 C 563.606042 351.423617 562.981042 347.428825 562.434167 347.116325 C 561.887292 346.803825 559.928958 347.512158 560.553958 348.840283 C 561.178958 350.173617 562.512292 349.387158 562.121667 351.657992 Z M 562.121667 351.657992 " transform="matrix(0.75,0,0,0.75,-172.3725,3.72135)"/>
<path style="fill-rule:evenodd;fill:rgb(99.215686%,81.960784%,7.843137%);fill-opacity:1;stroke-width:0.20734;stroke-linecap:butt;stroke-linejoin:miter;stroke:rgb(81.176471%,6.666667%,14.901961%);stroke-opacity:1;stroke-miterlimit:4;" d="M 565.340417 353.480908 C 564.460208 354.282992 564.897708 358.642367 566.106042 357.085075 C 567.205 355.56945 566.043542 352.767367 565.340417 353.480908 Z M 565.340417 353.480908 " transform="matrix(0.75,0,0,0.75,-172.3725,3.72135)"/>
<path style="fill-rule:evenodd;fill:rgb(99.215686%,81.960784%,7.843137%);fill-opacity:1;stroke-width:0.25044;stroke-linecap:butt;stroke-linejoin:miter;stroke:rgb(81.176471%,6.666667%,14.901961%);stroke-opacity:1;stroke-miterlimit:4;" d="M 542.319583 385.88195 C 541.908125 387.7882 543.788333 388.392367 544.303958 387.303825 C 544.92375 385.25695 543.043542 384.173617 542.319583 385.88195 Z M 542.319583 385.88195 " transform="matrix(0.75,0,0,0.75,-172.3725,3.72135)"/>
<path style="fill-rule:evenodd;fill:rgb(99.215686%,81.960784%,7.843137%);fill-opacity:1;stroke-width:0.27617;stroke-linecap:butt;stroke-linejoin:miter;stroke:rgb(81.176471%,6.666667%,14.901961%);stroke-opacity:1;stroke-miterlimit:4;" d="M 545.199792 384.262158 C 544.590417 385.824658 547.314375 385.965283 548.08 385.06945 C 548.996667 383.392367 546.2675 382.861117 545.199792 384.262158 Z M 545.199792 384.262158 " transform="matrix(0.75,0,0,0.75,-172.3725,3.72135)"/>
<path style="fill-rule:evenodd;fill:rgb(81.176471%,6.666667%,14.901961%);fill-opacity:1;stroke-width:0.22025;stroke-linecap:butt;stroke-linejoin:miter;stroke:rgb(81.176471%,6.666667%,14.901961%);stroke-opacity:1;stroke-miterlimit:4;" d="M 431.819583 361.668408 C 430.36125 361.017367 430.455 363.949658 431.137292 364.746533 C 431.819583 365.543408 435.793542 363.496533 431.819583 361.668408 Z M 431.819583 361.668408 " transform="matrix(0.75,0,0,0.75,-172.3725,3.72135)"/>
<path style="fill-rule:evenodd;fill:rgb(81.176471%,6.666667%,14.901961%);fill-opacity:1;stroke-width:2.5;stroke-linecap:round;stroke-linejoin:miter;stroke:rgb(0%,0%,0%);stroke-opacity:1;stroke-miterlimit:4;" d="M 385.653272 680.278071 C 360.706836 685.27048 343.573344 699.893008 351.607994 704.867683 C 356.521014 708.148662 379.62285 699.13927 384.491529 691.495474 C 393.350928 705.01843 417.3928 710.11725 423.201515 707.084561 " transform="matrix(0.440475,0,0,0.440513,29.895,-145.39365)"/>
<path style=" stroke:none;fill-rule:evenodd;fill:rgb(81.176471%,6.666667%,14.901961%);fill-opacity:1;" d="M 142.777344 150.753906 C 144.597656 153.574219 154.046875 160.371094 160.84375 160.867188 C 167.640625 161.363281 183.054688 164.511719 186.039062 163.1875 C 189.023438 161.859375 197.476562 156.058594 199.632812 157.054688 C 201.785156 158.046875 214.382812 165.011719 219.023438 164.84375 C 223.667969 164.679688 253.667969 156.226562 254.664062 154.566406 C 255.660156 152.910156 248.695312 148.597656 244.222656 148.597656 C 239.746094 148.597656 142.773438 150.921875 142.773438 150.753906 Z M 142.777344 150.753906 "/>
<path style="fill-rule:evenodd;fill:rgb(81.176471%,6.666667%,14.901961%);fill-opacity:1;stroke-width:2.5;stroke-linecap:round;stroke-linejoin:miter;stroke:rgb(0%,0%,0%);stroke-opacity:1;stroke-miterlimit:4;" d="M 316.197003 703.333603 C 316.321159 707.173236 319.28316 709.957635 326.368906 710.028575 C 338.278989 710.276865 358.427692 704.645995 370.46193 691.123039 " transform="matrix(0.440475,0,0,0.440513,29.895,-145.39365)"/>
<path style="fill-rule:evenodd;fill:rgb(81.176471%,6.666667%,14.901961%);fill-opacity:1;stroke-width:2.5;stroke-linecap:round;stroke-linejoin:miter;stroke:rgb(0%,0%,0%);stroke-opacity:1;stroke-miterlimit:4;" d="M 280.466755 697.622925 C 279.845976 700.841832 285.184673 705.062768 295.604887 705.186913 C 306.025101 705.311058 342.376128 700.841832 354.037899 688.684473 " transform="matrix(0.440475,0,0,0.440513,29.895,-145.39365)"/>
<path style="fill-rule:evenodd;fill:rgb(81.176471%,6.666667%,14.901961%);fill-opacity:1;stroke-width:2.5;stroke-linecap:round;stroke-linejoin:miter;stroke:rgb(0%,0%,0%);stroke-opacity:1;stroke-miterlimit:4;" d="M 255.857313 687.850926 C 250.279173 695.042479 268.060049 697.622925 278.728574 697.49878 C 289.405968 697.374635 316.941938 697.232754 329.268829 688.054879 " transform="matrix(0.440475,0,0,0.440513,29.895,-145.39365)"/>
<path style="fill-rule:evenodd;fill:rgb(81.176471%,6.666667%,14.901961%);fill-opacity:1;stroke-width:2.5;stroke-linecap:round;stroke-linejoin:miter;stroke:rgb(0%,0%,0%);stroke-opacity:1;stroke-miterlimit:4;" d="M 236.37373 675.782242 C 231.035033 682.84965 248.957801 689.065776 270.800343 688.569195 C 290.895837 688.072614 311.363798 681.120485 311.363798 681.120485 " transform="matrix(0.440475,0,0,0.440513,29.895,-145.39365)"/>
<path style="fill-rule:evenodd;fill:rgb(81.176471%,6.666667%,14.901961%);fill-opacity:1;stroke-width:2.5;stroke-linecap:round;stroke-linejoin:miter;stroke:rgb(0%,0%,0%);stroke-opacity:1;stroke-miterlimit:4;" d="M 452.475665 703.333603 C 452.360378 707.173236 449.398377 709.957635 442.303763 710.028575 C 430.39368 710.276865 410.253845 704.645995 398.219607 691.123039 " transform="matrix(0.440475,0,0,0.440513,29.895,-145.39365)"/>
<path style="fill-rule:evenodd;fill:rgb(81.176471%,6.666667%,14.901961%);fill-opacity:1;stroke-width:2.5;stroke-linecap:round;stroke-linejoin:miter;stroke:rgb(0%,0%,0%);stroke-opacity:1;stroke-miterlimit:4;" d="M 488.205914 697.622925 C 488.826693 700.841832 483.496864 705.062768 473.07665 705.186913 C 462.656436 705.311058 426.305409 700.841832 414.643638 688.684473 " transform="matrix(0.440475,0,0,0.440513,29.895,-145.39365)"/>
<path style="fill-rule:evenodd;fill:rgb(81.176471%,6.666667%,14.901961%);fill-opacity:1;stroke-width:2.5;stroke-linecap:round;stroke-linejoin:miter;stroke:rgb(0%,0%,0%);stroke-opacity:1;stroke-miterlimit:4;" d="M 512.655727 688.001674 C 518.242735 695.193227 500.61262 697.614057 489.944094 697.489912 C 479.275569 697.365767 451.739599 697.223887 439.40384 688.046012 " transform="matrix(0.440475,0,0,0.440513,29.895,-145.39365)"/>
<path style="fill-rule:evenodd;fill:rgb(81.176471%,6.666667%,14.901961%);fill-opacity:1;stroke-width:2.5;stroke-linecap:round;stroke-linejoin:miter;stroke:rgb(0%,0%,0%);stroke-opacity:1;stroke-miterlimit:4;" d="M 532.369885 675.658097 C 537.708582 682.734372 519.714867 689.065776 497.881194 688.569195 C 477.7857 688.072614 457.317739 681.120485 457.317739 681.120485 " transform="matrix(0.440475,0,0,0.440513,29.895,-145.39365)"/>
<path style="fill-rule:evenodd;fill:rgb(81.176471%,6.666667%,14.901961%);fill-opacity:1;stroke-width:2.5;stroke-linecap:round;stroke-linejoin:miter;stroke:rgb(0%,0%,0%);stroke-opacity:1;stroke-miterlimit:4;" d="M 279.207461 675.117179 C 251.476389 679.125294 238.697216 677.085767 233.163417 674.43438 C 226.246169 671.392824 214.407032 662.126273 231.904123 661.789308 C 243.48608 661.56762 249.330268 662.454371 262.508514 662.383431 C 296.207929 661.957791 344.868111 635.346386 359.61604 635.239976 C 373.317512 635.133566 376.953502 641.473837 384.766445 641.597982 C 392.765622 641.695525 395.355156 635.133566 409.047761 635.239976 C 423.804558 635.346386 472.455872 661.957791 506.164155 662.383431 C 519.3424 662.454371 525.17772 661.56762 536.768545 661.789308 C 554.256768 662.126273 542.417632 671.392824 535.500383 674.43438 C 529.966584 677.085767 517.19628 679.125294 489.45634 675.117179 " transform="matrix(0.440475,0,0,0.440513,29.895,-145.39365)"/>
<path style="fill-rule:evenodd;fill:rgb(81.176471%,6.666667%,14.901961%);fill-opacity:1;stroke-width:2.5;stroke-linecap:butt;stroke-linejoin:miter;stroke:rgb(0%,0%,0%);stroke-opacity:1;stroke-miterlimit:4;" d="M 383.553976 280.291266 C 370.499886 280.947462 352.541645 278.712849 346.777272 293.264436 C 337.988819 309.917624 340.471934 328.78769 344.418313 329.186729 C 351.477453 329.958202 352.151442 310.334397 355.166652 310.307795 C 358.314887 310.272325 358.314887 327.351153 364.469465 327.218141 C 369.063227 327.085128 371.945414 310.04177 373.382073 310.174782 C 374.827601 310.307795 377.842812 326.561945 383.642658 326.561945 C 389.841577 326.561945 392.466584 310.307795 393.903244 310.174782 C 395.348771 310.04177 398.230958 327.085128 402.815852 327.218141 C 408.979298 327.351153 408.979298 310.272325 412.127533 310.307795 C 415.142744 310.334397 416.464115 329.834057 423.532124 329.053716 C 427.478503 328.654678 429.429522 309.917624 420.649938 293.264436 C 414.876696 278.712849 396.528251 280.947462 383.553976 280.291266 Z M 383.553976 280.291266 " transform="matrix(0.440475,0,0,0.440513,30.2025,-15.3429)"/>
<path style="fill-rule:evenodd;fill:rgb(81.176471%,6.666667%,14.901961%);fill-opacity:1;stroke-width:2.5;stroke-linecap:butt;stroke-linejoin:miter;stroke:rgb(0%,0%,0%);stroke-opacity:1;stroke-miterlimit:4;" d="M 352.222388 286.250234 C 355.725353 292.138262 383.057353 291.996382 384.600431 291.996382 C 386.134642 291.996382 409.963676 292.280142 415.56842 286.533994 " transform="matrix(0.440475,0,0,0.440513,30.2025,-15.3429)"/>
<path style="fill-rule:evenodd;fill:rgb(81.176471%,6.666667%,14.901961%);fill-opacity:1;stroke-width:2.5;stroke-linecap:butt;stroke-linejoin:miter;stroke:rgb(0%,0%,0%);stroke-opacity:1;stroke-miterlimit:4;" d="M 378.623219 224.860447 L 378.623219 282.889447 C 378.623219 282.889447 378.933609 286.134956 383.740209 286.241367 C 388.555679 286.338909 389.282876 283.51904 389.282876 283.102267 L 389.078906 224.754036 " transform="matrix(0.440475,0,0,0.440513,30.2025,-15.3429)"/>
<path style="fill-rule:evenodd;fill:rgb(81.176471%,6.666667%,14.901961%);fill-opacity:1;stroke-width:2.5;stroke-linecap:butt;stroke-linejoin:miter;stroke:rgb(0%,0%,0%);stroke-opacity:1;stroke-miterlimit:4;" d="M 384.245701 231.590888 C 406.114848 230.464714 412.633024 243.366945 418.79647 246.169079 C 424.968784 248.971213 427.771156 250.088519 436.178273 249.529866 C 444.585391 248.971213 421.598842 263.549403 421.598842 264.108056 L 430.014828 279.244899 C 422.166411 280.362206 407.303195 273.117448 401.423534 269.15367 C 394.772334 265.225363 387.402804 267.468843 384.600431 266.91019 Z M 384.245701 231.590888 " transform="matrix(0.440475,0,0,0.440513,30.2025,-15.3429)"/>
<path style="fill-rule:evenodd;fill:rgb(81.176471%,6.666667%,14.901961%);fill-opacity:1;stroke-width:1.6744;stroke-linecap:butt;stroke-linejoin:miter;stroke:rgb(0%,0%,0%);stroke-opacity:1;stroke-miterlimit:4;" d="M 313.399528 264.671253 C 313.399528 269.001859 309.507925 272.518311 304.712151 272.518311 C 299.916376 272.518311 296.018664 269.001859 296.018664 264.671253 C 296.018664 260.340647 299.916376 256.824194 304.712151 256.824194 C 309.507925 256.824194 313.399528 260.340647 313.399528 264.671253 Z M 313.399528 264.671253 " transform="matrix(0.639398,0,0,0.676508,4.41,-100.15365)"/>
<path style="fill-rule:evenodd;fill:rgb(99.215686%,81.960784%,7.843137%);fill-opacity:1;stroke-width:0.375;stroke-linecap:butt;stroke-linejoin:miter;stroke:rgb(81.176471%,6.666667%,14.901961%);stroke-opacity:1;stroke-miterlimit:4;" d="M 249.3214 508.248376 C 247.654166 510.580532 246.217507 504.453081 240.488606 508.744957 C 237.269425 511.511621 235.974658 515.732557 235.992395 524.573466 C 236.018999 532.057647 240.328977 537.058924 242.82096 536.562343 C 246.652052 536.065762 244.656692 526.905622 248.815909 525.23853 C 254.819726 522.409793 263.306658 526.737139 264.805395 532.234997 C 266.304132 537.723987 261.976418 543.727293 257.311709 543.06223 C 254.651229 542.060201 258.810446 538.229435 259.14744 536.562343 C 259.475566 534.895251 259.981057 529.397393 255.981469 527.898784 C 251.98188 526.400174 252.647 531.898032 252.487372 533.396641 C 252.318875 534.895251 249.489897 539.559562 246.323926 539.391079 C 243.157954 539.231464 238.129647 539.249199 233.163417 533.902089 C 230.529542 531.153161 227.336966 523.73992 230.165943 514.411297 C 232.99492 505.082674 237.828126 504.249128 240.488606 504.089513 C 243.157954 503.92103 249.98652 505.588123 249.3214 508.248376 Z M 249.3214 508.248376 " transform="matrix(0.440475,0,0,0.440513,29.895,-18.022575)"/>
<path style="fill-rule:evenodd;fill:rgb(99.215686%,81.960784%,7.843137%);fill-opacity:1;stroke-width:0.375;stroke-linecap:butt;stroke-linejoin:miter;stroke:rgb(81.176471%,6.666667%,14.901961%);stroke-opacity:1;stroke-miterlimit:4;" d="M 242.492834 547.061478 C 239.708199 545.571735 243.53929 540.162553 236.329389 542.060201 C 233.429465 542.876012 240.657103 551.220341 243.823075 551.557306 C 247.317172 551.220341 246.341662 548.950258 242.492834 547.061478 Z M 242.492834 547.061478 " transform="matrix(0.440475,0,0,0.440513,29.895,-18.022575)"/>
<path style="fill-rule:evenodd;fill:rgb(99.215686%,81.960784%,7.843137%);fill-opacity:1;stroke-width:0.375;stroke-linecap:butt;stroke-linejoin:miter;stroke:rgb(81.176471%,6.666667%,14.901961%);stroke-opacity:1;stroke-miterlimit:4;" d="M 250.146149 551.557306 C 251.644886 558.385291 253.063809 557.808902 253.31212 561.222895 C 253.436276 565.576843 245.986932 563.714666 244.984818 565.718723 C 243.982703 567.713914 242.652463 572.874806 247.485669 573.211771 C 252.310006 573.539869 259.244991 571.686559 260.637309 575.038479 C 264.406323 584.482379 272.423236 583.116782 276.165645 581.644775 C 280.395809 579.951081 290.346004 570.986026 292.616281 570.214552 C 295.995091 568.9731 289.450309 566.55227 285.628086 569.877587 C 284.625972 570.879616 276.298669 579.374692 271.970955 579.543175 C 268.804983 579.889008 263.900831 571.872777 264.140275 569.04404 C 264.468401 567.04885 271.758116 568.698207 272.795704 564.548212 C 273.576111 561.586463 273.629321 558.385291 271.296966 558.216808 C 268.964612 558.057193 257.976829 559.555802 257.639835 557.88871 C 255.644475 553.055916 259.644063 551.060726 258.145326 549.730599 C 256.478092 549.056668 250.314646 548.063506 250.146149 551.557306 Z M 250.146149 551.557306 " transform="matrix(0.440475,0,0,0.440513,29.895,-18.022575)"/>
<path style="fill-rule:evenodd;fill:rgb(99.215686%,81.960784%,7.843137%);fill-opacity:1;stroke-width:0.375;stroke-linecap:butt;stroke-linejoin:miter;stroke:rgb(81.176471%,6.666667%,14.901961%);stroke-opacity:1;stroke-miterlimit:4;" d="M 287.180033 578.035698 C 283.659331 581.733451 274.383123 587.639214 274.383123 591.815812 C 274.383123 594.183438 276.963789 597.890058 279.10991 598.767942 C 282.302486 600.027128 287.206638 599.716765 290.940178 596.825956 C 295.152605 593.394229 297.050414 589.927032 295.250156 589.306306 C 288.873872 587.488466 288.714243 596.276171 285.645823 596.542196 C 282.728163 596.790486 278.276293 592.090705 284.120481 586.247014 C 289.964669 580.403324 298.034792 574.559633 297.751007 572.892541 C 297.476091 571.225448 289.707489 575.490722 287.180033 578.035698 Z M 287.180033 578.035698 " transform="matrix(0.440475,0,0,0.440513,29.895,-18.022575)"/>
<path style="fill-rule:evenodd;fill:rgb(99.215686%,81.960784%,7.843137%);fill-opacity:1;stroke-width:0.375;stroke-linecap:butt;stroke-linejoin:miter;stroke:rgb(81.176471%,6.666667%,14.901961%);stroke-opacity:1;stroke-miterlimit:4;" d="M 259.353296 585.688899 C 259.087248 588.03879 265.330508 588.056525 266.44791 585.963792 C 267.281527 584.43858 259.628212 583.321274 259.353296 585.688899 Z M 259.353296 585.688899 " transform="matrix(0.440475,0,0,0.440513,35.472294,-10.60875)"/>
<path style="fill-rule:evenodd;fill:rgb(99.215686%,81.960784%,7.843137%);fill-opacity:1;stroke-width:0.375;stroke-linecap:butt;stroke-linejoin:miter;stroke:rgb(81.176471%,6.666667%,14.901961%);stroke-opacity:1;stroke-miterlimit:4;" d="M 273.840958 583.060714 C 270.320255 586.749599 274.257766 590.943932 276.944851 594.384527 C 278.443588 596.220102 281.866739 598.01134 284.003992 598.898091 C 287.196568 600.157278 293.572852 599.713902 297.297524 596.823093 C 301.51882 593.400233 301.846945 587.379192 299.292884 587.35259 C 292.668289 587.28165 297.279788 596.15803 294.220236 596.424055 C 291.293707 596.672345 283.09056 594.819035 279.09984 586.368296 C 276.820695 581.393622 283.303399 580.444798 282.336758 578.281125 C 281.343512 575.957837 276.368414 580.50687 273.840958 583.060714 Z M 273.840958 583.060714 " transform="matrix(0.440475,0,0,0.440513,38.35256,-8.767408)"/>
<path style="fill-rule:evenodd;fill:rgb(99.215686%,81.960784%,7.843137%);fill-opacity:1;stroke-width:0.375;stroke-linecap:butt;stroke-linejoin:miter;stroke:rgb(81.176471%,6.666667%,14.901961%);stroke-opacity:1;stroke-miterlimit:4;" d="M 259.353819 585.689047 C 259.085432 588.040662 265.335599 588.056734 266.44815 585.971272 C 267.278259 584.441964 259.628111 583.330816 259.353819 585.689047 Z M 259.353819 585.689047 " transform="matrix(0.328612,-0.293337,0.293312,0.32864,-90.473603,131.527013)"/>
<path style="fill-rule:evenodd;fill:rgb(99.215686%,81.960784%,7.843137%);fill-opacity:1;stroke-width:0.375;stroke-linecap:butt;stroke-linejoin:miter;stroke:rgb(81.176471%,6.666667%,14.901961%);stroke-opacity:1;stroke-miterlimit:4;" d="M 319.558077 621.309158 C 319.371843 624.013749 320.169987 627.676032 316.986279 627.800177 C 313.811439 627.915454 309.76751 623.632446 306.583802 623.756591 C 303.408962 623.880736 302.060985 626.32817 302.424584 627.676032 C 302.788183 629.023893 308.304245 630.611178 317.722345 629.99932 C 327.149313 629.387461 325.06527 635.142477 331.67213 634.645896 C 338.287857 634.158183 339.263366 631.95904 338.775612 630.487033 C 338.287857 629.023893 332.656507 629.99932 330.572464 629.635752 C 328.49729 629.263316 324.825827 625.964602 324.329204 623.144733 C 323.84145 620.333731 323.84145 615.483202 326.289091 615.438865 C 330.820776 615.359057 328.727865 619.55339 328.90523 621.025397 C 329.055991 622.328922 330.536991 623.676784 332.532351 621.309158 C 335.183963 618.170058 333.756172 613.230854 331.184375 611.519424 C 328.612577 609.807994 320.036963 614.720596 319.558077 621.309158 Z M 319.558077 621.309158 " transform="matrix(0.440475,0,0,0.440513,29.895,-18.022575)"/>
<path style="fill-rule:evenodd;fill:rgb(99.215686%,81.960784%,7.843137%);fill-opacity:1;stroke-width:0.375;stroke-linecap:butt;stroke-linejoin:miter;stroke:rgb(81.176471%,6.666667%,14.901961%);stroke-opacity:1;stroke-miterlimit:4;" d="M 342.925961 621.796871 C 342.447074 626.656268 338.970713 627.002101 339.378654 628.775603 C 339.884145 630.806263 341.143439 631.444724 341.950451 636.490339 C 342.411601 638.973242 345.497758 640.019609 349.417532 639.789053 C 352.618977 639.700378 354.809439 635.364165 356.884613 635.506045 C 359.82001 635.66566 357.372368 642.307427 364.227538 642.236487 C 369.734732 642.183282 371.082709 637.465765 373.033728 637.34162 C 374.993615 637.217475 374.754172 642.848345 379.276988 642.848345 C 383.808672 642.848345 385.76856 637.714056 387.843734 637.58991 C 390.051933 637.714056 390.051933 643.096635 396.782947 642.7242 C 403.513962 642.360632 408.533401 641.385206 410.120821 640.037344 C 411.717109 638.689482 412.444307 634.282328 414.652506 634.034038 C 416.851836 633.794615 420.283855 638.201769 423.343408 638.201769 C 426.40296 638.201769 432.761507 630.487033 434.721395 630.362888 C 436.681282 630.24761 438.268701 635.142477 442.67623 635.142477 C 449.531401 635.018332 450.329545 626.106482 453.522121 625.689709 C 459.277626 625.122188 459.508201 622.781165 459.809722 622.169306 C 460.421633 620.449009 459.765381 612.415043 458.461746 608.75276 C 457.823231 606.810775 450.50691 590.46795 447.207915 590.104382 C 443.900051 589.731947 444.884429 594.502668 446.835448 597.322537 C 448.795335 600.133538 458.834213 613.230854 457.486236 617.026149 C 456.13826 620.821445 449.043646 615.438865 443.412296 615.438865 C 435.581616 615.438865 430.819357 631.267374 425.294426 631.834895 C 422.87339 632.092053 420.283855 629.751029 421.135209 628.0396 C 422.731497 625.592166 424.567229 619.721873 418.448124 620.573154 C 412.32902 621.433303 406.08576 624.244304 407.061269 627.551886 C 408.036778 630.859469 411.717109 634.158183 407.67318 635.506045 C 403.638118 636.853907 396.658792 637.217475 393.235641 636.117903 C 389.803621 635.018332 391.887664 627.303596 389.803621 627.303596 C 387.480135 627.303596 387.355979 636.366194 384.056984 636.605616 C 380.74912 636.853907 377.813724 635.506045 377.077658 632.934466 C 376.341591 630.362888 378.301479 627.188318 376.102148 626.815883 C 373.89395 626.452315 371.694619 636.978052 368.386756 636.729762 C 365.078892 636.490339 364.963605 635.754335 363.003718 633.67047 C 361.043831 631.586605 364.715293 624.492595 361.407429 623.880736 C 358.108434 623.268878 354.80057 634.406473 352.60124 634.282328 C 350.393042 634.158183 347.094046 634.042905 346.109669 631.834895 C 345.621914 630.735323 345.754938 623.845266 345.870225 621.052 C 345.808147 619.730741 342.686517 620.307129 342.925961 621.796871 Z M 342.925961 621.796871 " transform="matrix(0.440475,0,0,0.440513,29.895,-18.022575)"/>
<path style="fill-rule:evenodd;fill:rgb(99.215686%,81.960784%,7.843137%);fill-opacity:1;stroke-width:0.375;stroke-linecap:butt;stroke-linejoin:miter;stroke:rgb(81.176471%,6.666667%,14.901961%);stroke-opacity:1;stroke-miterlimit:4;" d="M 454.178373 591.806944 C 460.208794 600.940482 465.645042 613.292927 468.988379 613.95799 C 471.214314 614.286088 462.009053 597.437815 458.949501 593.64252 C 456.386571 589.731947 448.990436 583.852786 454.178373 591.806944 Z M 454.178373 591.806944 " transform="matrix(0.440475,0,0,0.440513,29.895,-18.022575)"/>
<path style="fill-rule:evenodd;fill:rgb(99.215686%,81.960784%,7.843137%);fill-opacity:1;stroke-width:0.375;stroke-linecap:butt;stroke-linejoin:miter;stroke:rgb(81.176471%,6.666667%,14.901961%);stroke-opacity:1;stroke-miterlimit:4;" d="M 342.159915 613.738261 C 341.010854 616.026698 341.42767 618.232752 343.387832 617.903217 C 345.347994 617.582836 347.87142 613.738261 347.229298 613.005961 C 346.575911 612.273661 343.714526 611.614591 342.159915 613.738261 Z M 342.159915 613.738261 " transform="matrix(0.346751,0,0,0.426738,62.058925,-9.432582)"/>
<path style="fill-rule:evenodd;fill:rgb(99.215686%,81.960784%,7.843137%);fill-opacity:1;stroke-width:0.375;stroke-linecap:butt;stroke-linejoin:miter;stroke:rgb(81.176471%,6.666667%,14.901961%);stroke-opacity:1;stroke-miterlimit:4;" d="M 471.897171 595.859398 C 471.879434 600.807469 475.3824 606.411737 481.909444 606.057037 C 488.436489 605.702336 495.584312 598.493049 496.116408 591.079808 C 496.648504 583.675436 487.505321 578.239651 485.217308 579.826935 C 482.920427 581.41422 486.068662 586.93868 491.930586 587.275646 C 494.440306 587.435261 493.615557 592.338995 488.808956 596.214098 C 483.780649 600.195611 476.322436 600.115803 474.504441 597.375742 C 473.094387 593.491772 471.808488 593.465169 471.897171 595.859398 Z M 471.897171 595.859398 " transform="matrix(0.440475,0,0,0.440513,29.895,-18.022575)"/>
<path style="fill-rule:evenodd;fill:rgb(99.215686%,81.960784%,7.843137%);fill-opacity:1;stroke-width:0.375;stroke-linecap:butt;stroke-linejoin:miter;stroke:rgb(81.176471%,6.666667%,14.901961%);stroke-opacity:1;stroke-miterlimit:4;" d="M 475.825813 580.855567 C 474.876908 582.824155 476.8634 587.337718 479.018389 587.142633 C 481.208851 586.929813 476.526406 579.56091 475.825813 580.855567 Z M 475.825813 580.855567 " transform="matrix(0.440475,0,0,0.440513,29.895,-18.022575)"/>
<path style="fill-rule:evenodd;fill:rgb(99.215686%,81.960784%,7.843137%);fill-opacity:1;stroke-width:0.375;stroke-linecap:butt;stroke-linejoin:miter;stroke:rgb(81.176471%,6.666667%,14.901961%);stroke-opacity:1;stroke-miterlimit:4;" d="M 494.98127 577.352899 C 496.249432 580.288046 497.757038 584.76614 500.435255 584.76614 C 503.113471 584.76614 505.277328 585.484408 505.277328 587.745624 C 505.277328 590.015707 498.298002 597.553092 498.067427 600.106936 C 497.677223 604.452017 500.852063 604.230329 502.395142 601.853836 C 503.93822 599.48621 508.115174 588.348615 508.984264 585.280455 C 509.3656 582.850757 512.363074 578.283988 512.48723 573.539869 C 512.292128 568.183892 517.222884 572.511238 519.590712 572.715191 C 521.763437 572.812733 524.122396 568.804618 524.432786 565.922676 C 524.743175 563.031867 522.162509 562.526419 522.162509 559.945973 C 522.162509 558.509436 524.92054 553.871727 525.044696 550.785833 C 525.355085 548.054639 519.697131 540.180288 517.329304 540.277831 C 515.369417 540.384241 517.018914 543.266182 518.145184 544.498766 C 519.280322 545.740218 522.162509 548.311797 521.13379 550.573012 C 519.280322 555.006769 510.216953 556.14181 509.809013 560.877062 C 509.392204 564.273319 510.216953 574.985274 507.441186 574.985274 C 504.65655 574.985274 502.386273 568.290302 498.067427 568.290302 C 493.234222 568.157289 493.979156 575.109419 494.98127 577.352899 Z M 494.98127 577.352899 " transform="matrix(0.440475,0,0,0.440513,29.895,-18.022575)"/>
<path style="fill-rule:evenodd;fill:rgb(99.215686%,81.960784%,7.843137%);fill-opacity:1;stroke-width:0.375;stroke-linecap:butt;stroke-linejoin:miter;stroke:rgb(81.176471%,6.666667%,14.901961%);stroke-opacity:1;stroke-miterlimit:4;" d="M 502.093621 536.677621 C 502.226645 538.584136 506.208497 546.87526 508.576324 546.87526 C 511.97287 546.87526 507.033245 542.964687 507.343635 541.519282 C 507.654024 540.073878 512.513834 537.910205 510.536211 537.404757 C 506.980036 536.314053 501.916255 534.159247 502.093621 536.677621 Z M 502.093621 536.677621 " transform="matrix(0.440475,0,0,0.440513,29.895,-18.022575)"/>
<path style="fill-rule:evenodd;fill:rgb(99.215686%,81.960784%,7.843137%);fill-opacity:1;stroke-width:0.375;stroke-linecap:butt;stroke-linejoin:miter;stroke:rgb(81.176471%,6.666667%,14.901961%);stroke-opacity:1;stroke-miterlimit:4;" d="M 501.783231 525.965666 C 502.501561 528.643655 513.515949 532.660638 518.251603 533.999632 C 522.996126 535.338626 528.7605 541.004967 530.924357 539.151657 C 533.079346 537.298347 516.398136 530.709785 513.932757 529.778696 C 511.458511 528.856475 501.268872 523.296545 501.783231 525.965666 Z M 501.783231 525.965666 " transform="matrix(0.440475,0,0,0.440513,29.895,-18.022575)"/>
<path style="fill-rule:evenodd;fill:rgb(99.215686%,81.960784%,7.843137%);fill-opacity:1;stroke-width:0.375;stroke-linecap:butt;stroke-linejoin:miter;stroke:rgb(81.176471%,6.666667%,14.901961%);stroke-opacity:1;stroke-miterlimit:4;" d="M 535.039233 543.266182 C 539.162977 543.372592 536.892701 535.241084 535.863982 533.281363 C 534.835263 531.321643 533.292185 536.987984 533.496155 538.637341 C 533.700125 540.286698 533.806544 543.16864 535.039233 543.266182 Z M 535.039233 543.266182 " transform="matrix(0.440475,0,0,0.440513,29.895,-18.022575)"/>
<path style="fill-rule:evenodd;fill:rgb(99.215686%,81.960784%,7.843137%);fill-opacity:1;stroke-width:0.375;stroke-linecap:butt;stroke-linejoin:miter;stroke:rgb(81.176471%,6.666667%,14.901961%);stroke-opacity:1;stroke-miterlimit:4;" d="M 511.05057 502.803724 C 511.015097 504.639299 522.428557 503.335775 527.731781 504.754576 C 530.019794 505.393037 537.823869 509.596238 539.260528 508.567607 C 540.910026 506.403934 528.654081 501.766225 521.657018 501.766225 C 519.386742 501.801695 511.086043 500.631183 511.05057 502.803724 Z M 511.05057 502.803724 " transform="matrix(0.440475,0,0,0.440513,29.895,-18.022575)"/>
<path style="fill-rule:evenodd;fill:rgb(99.215686%,81.960784%,7.843137%);fill-opacity:1;stroke-width:0.375;stroke-linecap:butt;stroke-linejoin:miter;stroke:rgb(81.176471%,6.666667%,14.901961%);stroke-opacity:1;stroke-miterlimit:4;" d="M 508.061964 508.053291 C 506.013395 510.234699 514.94374 512.682132 522.889707 512.992495 C 530.800201 513.302858 535.92606 518.055845 535.243203 521.540777 C 534.108065 527.41107 524.228815 523.59804 525.461505 526.790344 C 526.179834 529.26438 530.534153 528.351027 531.021908 531.01128 C 531.367771 533.689269 534.152406 534.159247 534.001646 530.860533 C 533.992778 528.235749 540.138487 523.908403 539.978858 522.675819 C 539.677337 520.201783 535.970401 511.547091 526.490224 510.62487 C 517.018914 509.693781 510.669235 505.13588 508.061964 508.053291 Z M 508.061964 508.053291 " transform="matrix(0.440475,0,0,0.440513,29.895,-18.022575)"/>
<path style="fill-rule:evenodd;fill:rgb(81.176471%,6.666667%,14.901961%);fill-opacity:1;stroke-width:0.073416;stroke-linecap:butt;stroke-linejoin:miter;stroke:rgb(81.176471%,6.666667%,14.901961%);stroke-opacity:1;stroke-miterlimit:4;" d="M 419.371667 303.329867 C 418.621667 302.897575 415.965417 305.2882 416.918542 305.81945 C 418.731042 306.845492 420.501875 303.965283 419.371667 303.329867 Z M 419.371667 303.329867 " transform="matrix(0.75,0,0,0.75,-172.3725,3.72135)"/>
<path style="fill-rule:evenodd;fill:rgb(81.176471%,6.666667%,14.901961%);fill-opacity:1;stroke-width:0.073416;stroke-linecap:butt;stroke-linejoin:miter;stroke:rgb(81.176471%,6.666667%,14.901961%);stroke-opacity:1;stroke-miterlimit:4;" d="M 425.08 300.491325 C 423.788333 300.329867 423.163333 303.06945 424.246667 303.230908 C 426.991458 303.611117 427.527917 300.7882 425.08 300.491325 Z M 425.08 300.491325 " transform="matrix(0.75,0,0,0.75,-172.3725,3.72135)"/>
<path style="fill-rule:evenodd;fill:rgb(81.176471%,6.666667%,14.901961%);fill-opacity:1;stroke-width:0.073416;stroke-linecap:butt;stroke-linejoin:miter;stroke:rgb(81.176471%,6.666667%,14.901961%);stroke-opacity:1;stroke-miterlimit:4;" d="M 564.262292 308.178825 C 563.647708 308.178825 561.720625 309.027783 562.387292 310.355908 C 563.04875 311.689242 564.960208 311.720492 565.835208 310.965283 C 566.61125 310.2257 566.434167 308.19445 564.262292 308.178825 Z M 564.262292 308.178825 " transform="matrix(0.75,0,0,0.75,-172.3725,3.72135)"/>
<path style="fill-rule:evenodd;fill:rgb(81.176471%,6.666667%,14.901961%);fill-opacity:1;stroke-width:0.073416;stroke-linecap:butt;stroke-linejoin:miter;stroke:rgb(81.176471%,6.666667%,14.901961%);stroke-opacity:1;stroke-miterlimit:4;" d="M 571.819583 302.371533 C 572.0175 303.835075 573.085208 303.595492 573.934167 303.277783 C 574.902917 302.855908 575.184167 301.574658 574.241458 301.1007 C 573.251875 300.605908 571.621667 301.324658 571.819583 302.371533 Z M 571.819583 302.371533 " transform="matrix(0.75,0,0,0.75,-172.3725,3.72135)"/>
<path style="fill-rule:evenodd;fill:rgb(81.176471%,6.666667%,14.901961%);fill-opacity:1;stroke-width:0.073416;stroke-linecap:butt;stroke-linejoin:miter;stroke:rgb(81.176471%,6.666667%,14.901961%);stroke-opacity:1;stroke-miterlimit:4;" d="M 528.121667 336.579867 C 526.819583 339.460075 527.939375 342.272575 530.0175 341.730908 C 532.095625 341.189242 534.17375 337.210075 532.637292 335.94445 C 531.100833 334.684033 528.98625 334.668408 528.121667 336.579867 Z M 528.121667 336.579867 " transform="matrix(0.75,0,0,0.75,-172.3725,3.72135)"/>
<path style=" stroke:none;fill-rule:evenodd;fill:rgb(81.176471%,6.666667%,14.901961%);fill-opacity:1;" d="M 92.210938 166.605469 C 88.574219 166.273438 80.308594 164.621094 79.976562 166.273438 C 79.648438 167.925781 84.441406 187.265625 86.921875 189.746094 C 89.398438 192.226562 100.96875 197.515625 102.125 196.855469 C 103.28125 196.191406 99.8125 184.125 98.488281 181.976562 C 97.167969 179.828125 93.199219 172.058594 93.53125 171.726562 C 93.863281 171.398438 92.042969 166.605469 92.210938 166.605469 Z M 92.210938 166.605469 "/>
<path style="fill-rule:evenodd;fill:rgb(81.176471%,6.666667%,14.901961%);fill-opacity:1;stroke-width:2.5;stroke-linecap:butt;stroke-linejoin:miter;stroke:rgb(0%,0%,0%);stroke-opacity:1;stroke-miterlimit:4;" d="M 124.236403 411.544198 C 126.249499 400.974123 138.532049 413.619196 137.317097 427.381575 C 136.722923 432.045886 139.330193 437.189043 141.848781 439.707417 " transform="matrix(0.440475,0,0,0.440513,30.206658,-15.341145)"/>
<path style="fill-rule:evenodd;fill:rgb(81.176471%,6.666667%,14.901961%);fill-opacity:1;stroke-width:2.5;stroke-linecap:butt;stroke-linejoin:miter;stroke:rgb(0%,0%,0%);stroke-opacity:1;stroke-miterlimit:4;" d="M 134.798509 412.040778 L 134.337359 412.652637 C 140.500805 402.23331 146.451412 417.068658 147.373712 434.174089 " transform="matrix(0.440475,0,0,0.440513,30.206658,-15.341145)"/>
<path style="fill-rule:evenodd;fill:rgb(81.176471%,6.666667%,14.901961%);fill-opacity:1;stroke-width:2.5;stroke-linecap:butt;stroke-linejoin:miter;stroke:rgb(0%,0%,0%);stroke-opacity:1;stroke-miterlimit:4;" d="M 113.621087 410.409156 C 113.266356 401.869742 127.127458 399.422308 126.267236 430.281251 C 132.315394 434.191824 139.427744 449.133582 139.782475 454.462957 C 144.323028 455.535926 151.878791 461.113591 153.723391 465.733565 " transform="matrix(0.440475,0,0,0.440513,30.206658,-15.341145)"/>
<path style="fill-rule:evenodd;fill:rgb(81.176471%,6.666667%,14.901961%);fill-opacity:1;stroke-width:2.5;stroke-linecap:butt;stroke-linejoin:miter;stroke:rgb(0%,0%,0%);stroke-opacity:1;stroke-miterlimit:4;" d="M 147.622023 581.401395 C 148.269407 557.902488 148.641874 507.597091 146.176496 502.134703 C 141.848781 492.034607 120.086053 480.320623 113.45259 464.430041 C 106.819126 447.626105 101.161171 409.300717 103.848256 404.680743 C 107.377827 398.021241 119.146017 412.856589 115.944573 429.226017 C 130.178142 445.941278 127.180667 455.899494 129.814543 458.027697 C 138.594127 464.784741 151.985211 469.413583 154.361906 475.461226 C 159.230585 486.279591 153.288846 460.164767 149.37794 454.826525 C 145.467034 449.49715 138.709415 437.756564 143.329782 434.910093 C 147.959017 432.063621 156.13556 439.538934 157.199752 441.667137 C 158.272812 443.804207 169.296068 455.899494 172.497513 458.745965 C 178.19094 463.011239 192.566401 472.552682 192.273749 480.728528 C 192.26488 493.949989 193.435492 580.940285 193.435492 580.940285 " transform="matrix(0.440475,0,0,0.440513,30.206658,-15.341145)"/>
<path style="fill-rule:evenodd;fill:rgb(81.176471%,6.666667%,14.901961%);fill-opacity:1;stroke-width:2.5;stroke-linecap:butt;stroke-linejoin:miter;stroke:rgb(0%,0%,0%);stroke-opacity:1;stroke-miterlimit:4;" d="M 144.970411 612.366748 C 144.970411 612.366748 144.881729 621.828384 144.881729 622.005734 C 148.987736 626.998143 166.11236 627.556797 169.95232 627.539062 C 173.703597 627.423784 189.817239 627.716412 193.568516 621.562358 C 193.657198 621.385008 193.799091 613.528392 193.799091 611.364719 " transform="matrix(0.440475,0,0,0.440513,30.206658,-15.341145)"/>
<path style="fill-rule:evenodd;fill:rgb(81.176471%,6.666667%,14.901961%);fill-opacity:1;stroke-width:2.5;stroke-linecap:butt;stroke-linejoin:miter;stroke:rgb(0%,0%,0%);stroke-opacity:1;stroke-miterlimit:4;" d="M 144.198872 585.220416 C 139.454349 586.27565 138.212792 592.075003 141.564997 596.295939 C 144.278686 599.718799 155.532518 603.673709 168.453583 603.939735 C 181.374648 604.196893 198.50814 599.718799 199.297416 592.598186 C 199.563464 585.486442 192.876791 585.92095 193.666067 586.178108 " transform="matrix(0.440475,0,0,0.440513,30.206658,-9.53519)"/>
<path style="fill-rule:evenodd;fill:rgb(81.176471%,6.666667%,14.901961%);fill-opacity:1;stroke-width:2.5;stroke-linecap:butt;stroke-linejoin:miter;stroke:rgb(0%,0%,0%);stroke-opacity:1;stroke-miterlimit:4;" d="M 144.198872 585.311968 C 139.454349 586.367202 138.567522 592.343905 141.919727 596.564841 C 144.633417 599.987701 156.064614 604.73182 168.976811 604.997845 C 181.897876 605.263871 198.242092 599.987701 199.031368 592.867089 C 199.297416 585.755344 194.384396 586.367202 194.020797 586.544552 " transform="matrix(0.440475,0,0,0.440513,30.206658,-15.341145)"/>
<path style="fill-rule:evenodd;fill:rgb(81.176471%,6.666667%,14.901961%);fill-opacity:1;stroke-width:2.5;stroke-linecap:butt;stroke-linejoin:miter;stroke:rgb(0%,0%,0%);stroke-opacity:1;stroke-miterlimit:4;" d="M 171.087458 592.601063 C 188.22095 592.867089 199.297416 584.425217 199.297416 579.947123 C 199.297416 575.46903 193.763617 575.203004 190.331598 576.515396 C 186.908447 577.836655 181.631828 581.179707 170.56423 581.268383 C 159.230585 581.605348 149.209443 573.358562 145.786292 573.615719 C 142.354272 573.881745 139.667187 577.597232 140.775721 581.52554 C 142.132566 585.427246 154.220014 593.124246 171.087458 592.601063 Z M 171.087458 592.601063 " transform="matrix(0.440475,0,0,0.440513,30.206658,-15.341145)"/>
<path style=" stroke:none;fill-rule:evenodd;fill:rgb(81.176471%,6.666667%,14.901961%);fill-opacity:1;" d="M 307.113281 166.605469 C 310.75 166.273438 319.011719 164.621094 319.34375 166.273438 C 319.675781 167.925781 314.882812 187.265625 312.402344 189.746094 C 309.921875 192.226562 298.351562 197.515625 297.195312 196.855469 C 296.039062 196.191406 299.507812 184.125 300.832031 181.976562 C 302.152344 179.828125 306.121094 172.058594 305.789062 171.726562 C 305.460938 171.398438 307.277344 166.605469 307.113281 166.605469 Z M 307.113281 166.605469 "/>
<path style="fill-rule:evenodd;fill:rgb(81.176471%,6.666667%,14.901961%);fill-opacity:1;stroke-width:2.5;stroke-linecap:butt;stroke-linejoin:miter;stroke:rgb(0%,0%,0%);stroke-opacity:1;stroke-miterlimit:4;" d="M 124.237427 411.544198 C 126.250523 400.974123 138.533073 413.619196 137.318121 427.381575 C 136.715079 432.045886 139.331217 437.189043 141.840937 439.707417 " transform="matrix(-0.440475,0,0,0.440513,369.118012,-15.341145)"/>
<path style="fill-rule:evenodd;fill:rgb(81.176471%,6.666667%,14.901961%);fill-opacity:1;stroke-width:2.5;stroke-linecap:butt;stroke-linejoin:miter;stroke:rgb(0%,0%,0%);stroke-opacity:1;stroke-miterlimit:4;" d="M 134.799533 412.040778 L 134.338383 412.652637 C 140.501829 402.23331 146.452436 417.068658 147.374736 434.174089 " transform="matrix(-0.440475,0,0,0.440513,369.118012,-15.341145)"/>
<path style="fill-rule:evenodd;fill:rgb(81.176471%,6.666667%,14.901961%);fill-opacity:1;stroke-width:2.5;stroke-linecap:butt;stroke-linejoin:miter;stroke:rgb(0%,0%,0%);stroke-opacity:1;stroke-miterlimit:4;" d="M 113.622111 410.409156 C 113.26738 401.869742 127.128482 399.422308 126.26826 430.281251 C 132.316418 434.191824 139.428768 449.133582 139.783499 454.462957 C 144.324052 455.535926 151.879816 461.113591 153.715547 465.733565 " transform="matrix(-0.440475,0,0,0.440513,369.118012,-15.341145)"/>
<path style="fill-rule:evenodd;fill:rgb(81.176471%,6.666667%,14.901961%);fill-opacity:1;stroke-width:2.5;stroke-linecap:butt;stroke-linejoin:miter;stroke:rgb(0%,0%,0%);stroke-opacity:1;stroke-miterlimit:4;" d="M 147.623047 581.401395 C 148.270431 557.902488 148.63403 507.597091 146.17752 502.134703 C 141.849805 492.034607 120.087078 480.320623 113.453614 464.430041 C 106.82015 447.626105 101.153327 409.300717 103.84928 404.680743 C 107.378851 398.021241 119.147041 412.856589 115.945597 429.226017 C 130.170297 445.941278 127.181691 455.899494 129.815567 458.027697 C 138.595151 464.784741 151.986235 469.413583 154.354062 475.461226 C 159.231609 486.279591 153.28987 460.164767 149.378964 454.826525 C 145.468058 449.49715 138.710439 437.756564 143.330806 434.910093 C 147.960041 432.063621 156.136584 439.538934 157.200776 441.667137 C 158.273836 443.804207 169.297092 455.899494 172.498537 458.745965 C 178.191964 463.011239 192.558557 472.552682 192.274773 480.728528 C 192.257036 493.949989 193.436516 580.940285 193.436516 580.940285 " transform="matrix(-0.440475,0,0,0.440513,369.118012,-15.341145)"/>
<path style="fill-rule:evenodd;fill:rgb(81.176471%,6.666667%,14.901961%);fill-opacity:1;stroke-width:2.5;stroke-linecap:butt;stroke-linejoin:miter;stroke:rgb(0%,0%,0%);stroke-opacity:1;stroke-miterlimit:4;" d="M 144.971435 612.366748 C 144.971435 612.366748 144.882753 621.828384 144.882753 622.005734 C 148.98876 626.998143 166.113384 627.556797 169.953344 627.539062 C 173.704621 627.423784 189.818263 627.716412 193.56954 621.562358 C 193.658222 621.385008 193.800115 613.528392 193.800115 611.364719 " transform="matrix(-0.440475,0,0,0.440513,369.118012,-15.341145)"/>
<path style="fill-rule:evenodd;fill:rgb(81.176471%,6.666667%,14.901961%);fill-opacity:1;stroke-width:2.5;stroke-linecap:butt;stroke-linejoin:miter;stroke:rgb(0%,0%,0%);stroke-opacity:1;stroke-miterlimit:4;" d="M 144.199896 585.220416 C 139.455373 586.27565 138.213816 592.075003 141.566021 596.295939 C 144.279711 599.718799 155.533542 603.673709 168.454607 603.939735 C 181.366804 604.196893 198.509165 599.718799 199.29844 592.598186 C 199.564488 585.486442 192.877815 585.92095 193.667091 586.178108 " transform="matrix(-0.440475,0,0,0.440513,369.118012,-9.53519)"/>
<path style="fill-rule:evenodd;fill:rgb(81.176471%,6.666667%,14.901961%);fill-opacity:1;stroke-width:2.5;stroke-linecap:butt;stroke-linejoin:miter;stroke:rgb(0%,0%,0%);stroke-opacity:1;stroke-miterlimit:4;" d="M 144.199896 585.311968 C 139.455373 586.367202 138.568546 592.343905 141.911883 596.564841 C 144.634441 599.987701 156.065638 604.73182 168.977835 604.997845 C 181.8989 605.263871 198.243117 599.987701 199.032392 592.867089 C 199.29844 585.755344 194.38542 586.367202 194.021821 586.544552 " transform="matrix(-0.440475,0,0,0.440513,369.118012,-15.341145)"/>
<path style="fill-rule:evenodd;fill:rgb(81.176471%,6.666667%,14.901961%);fill-opacity:1;stroke-width:2.5;stroke-linecap:butt;stroke-linejoin:miter;stroke:rgb(0%,0%,0%);stroke-opacity:1;stroke-miterlimit:4;" d="M 171.088482 592.601063 C 188.221975 592.867089 199.29844 584.425217 199.29844 579.947123 C 199.29844 575.46903 193.764642 575.203004 190.332622 576.515396 C 186.909471 577.836655 181.632852 581.179707 170.565255 581.268383 C 159.231609 581.605348 149.210467 573.358562 145.778448 573.615719 C 142.355297 573.881745 139.668212 577.597232 140.776745 581.52554 C 142.13359 585.427246 154.221038 593.124246 171.088482 592.601063 Z M 171.088482 592.601063 " transform="matrix(-0.440475,0,0,0.440513,369.118012,-15.341145)"/>
</g>
</svg>
