<?xml version="1.0" encoding="UTF-8"?>
<svg xmlns="http://www.w3.org/2000/svg" xmlns:xlink="http://www.w3.org/1999/xlink" width="384pt" height="384pt" viewBox="0 0 384 384" version="1.1">
<g id="surface1">
<rect x="0" y="0" width="384" height="384" style="fill:rgb(13.333333%,61.960784%,27.058824%);fill-opacity:1;stroke:none;"/>
<path style=" stroke:none;fill-rule:evenodd;fill:rgb(97.254902%,89.803922%,3.529412%);fill-opacity:1;" d="M 196.019531 304.046875 L 368.421875 192.152344 L 194.976562 79.953125 L 22.003906 192.421875 Z M 196.019531 304.046875 "/>
<path style=" stroke:none;fill-rule:evenodd;fill:rgb(16.862745%,28.627451%,63.921569%);fill-opacity:1;" d="M 271.140625 192.003906 C 271.140625 232.21875 238.484375 264.824219 198.203125 264.824219 C 157.921875 264.824219 125.265625 232.21875 125.265625 192.003906 C 125.265625 151.785156 157.921875 119.183594 198.203125 119.183594 C 238.484375 119.183594 271.140625 151.785156 271.140625 192.003906 Z M 271.140625 192.003906 "/>
<path style=" stroke:none;fill-rule:evenodd;fill:rgb(100%,100%,93.72549%);fill-opacity:1;" d="M 174.226562 235.617188 L 171.972656 234.316406 L 169.632812 235.476562 L 170.15625 232.875 L 168.347656 230.96875 L 170.933594 230.664062 L 172.148438 228.332031 L 173.230469 230.746094 L 175.78125 231.207031 L 173.867188 233 Z M 174.226562 235.617188 "/>
<path style=" stroke:none;fill-rule:evenodd;fill:rgb(100%,100%,93.72549%);fill-opacity:1;" d="M 223.105469 247.992188 L 220.851562 246.691406 L 218.511719 247.851562 L 219.035156 245.25 L 217.226562 243.34375 L 219.8125 243.042969 L 221.027344 240.707031 L 222.109375 243.121094 L 224.660156 243.585938 L 222.746094 245.375 Z M 223.105469 247.992188 "/>
<path style=" stroke:none;fill-rule:evenodd;fill:rgb(100%,100%,93.72549%);fill-opacity:1;" d="M 202.035156 228.222656 L 200.089844 227.097656 L 198.066406 228.101562 L 198.519531 225.851562 L 196.960938 224.207031 L 199.191406 223.945312 L 200.242188 221.929688 L 201.175781 224.011719 L 203.378906 224.414062 L 201.726562 225.960938 Z M 202.035156 228.222656 "/>
<path style=" stroke:none;fill-rule:evenodd;fill:rgb(100%,100%,93.72549%);fill-opacity:1;" d="M 251.402344 221.113281 L 249.488281 220.011719 L 247.503906 220.992188 L 247.949219 218.785156 L 246.414062 217.167969 L 248.609375 216.914062 L 249.636719 214.933594 L 250.558594 216.980469 L 252.71875 217.375 L 251.097656 218.890625 Z M 251.402344 221.113281 "/>
<path style=" stroke:none;fill-rule:evenodd;fill:rgb(100%,100%,93.72549%);fill-opacity:1;" d="M 201.144531 206.3125 L 198.890625 205.011719 L 196.550781 206.171875 L 197.074219 203.570312 L 195.265625 201.664062 L 197.851562 201.359375 L 199.066406 199.027344 L 200.148438 201.441406 L 202.699219 201.90625 L 200.785156 203.695312 Z M 201.144531 206.3125 "/>
<path style=" stroke:none;fill-rule:evenodd;fill:rgb(100%,100%,93.72549%);fill-opacity:1;" d="M 140.960938 183.71875 L 138.710938 182.417969 L 136.367188 183.578125 L 136.890625 180.976562 L 135.085938 179.070312 L 137.667969 178.765625 L 138.882812 176.433594 L 139.964844 178.847656 L 142.515625 179.308594 L 140.605469 181.101562 Z M 140.960938 183.71875 "/>
<path style=" stroke:none;fill-rule:evenodd;fill:rgb(100%,100%,93.72549%);fill-opacity:1;" d="M 148.199219 213.777344 L 145.945312 212.476562 L 143.605469 213.632812 L 144.128906 211.03125 L 142.320312 209.125 L 144.90625 208.824219 L 146.121094 206.488281 L 147.203125 208.902344 L 149.753906 209.367188 L 147.839844 211.15625 Z M 148.199219 213.777344 "/>
<path style=" stroke:none;fill-rule:evenodd;fill:rgb(100%,100%,93.72549%);fill-opacity:1;" d="M 223.300781 172.65625 L 221.308594 171.507812 L 219.242188 172.527344 L 219.707031 170.230469 L 218.109375 168.546875 L 220.390625 168.28125 L 221.464844 166.21875 L 222.421875 168.351562 L 224.671875 168.761719 L 222.984375 170.339844 Z M 223.300781 172.65625 "/>
<path style=" stroke:none;fill-rule:evenodd;fill:rgb(100%,100%,93.72549%);fill-opacity:1;" d="M 219.171875 192.207031 L 217.605469 191.304688 L 215.976562 192.109375 L 216.339844 190.300781 L 215.082031 188.972656 L 216.882812 188.761719 L 217.726562 187.140625 L 218.480469 188.820312 L 220.253906 189.140625 L 218.921875 190.386719 Z M 219.171875 192.207031 "/>
<path style=" stroke:none;fill-rule:evenodd;fill:rgb(100%,100%,93.72549%);fill-opacity:1;" d="M 137.609375 219.222656 L 136.101562 218.355469 L 134.539062 219.125 L 134.890625 217.390625 L 133.683594 216.117188 L 135.410156 215.914062 L 136.21875 214.359375 L 136.941406 215.96875 L 138.644531 216.277344 L 137.367188 217.472656 Z M 137.609375 219.222656 "/>
<path style=" stroke:none;fill-rule:evenodd;fill:rgb(100%,100%,93.72549%);fill-opacity:1;" d="M 251.820312 226.144531 L 250.59375 225.496094 L 249.320312 226.074219 L 249.605469 224.773438 L 248.621094 223.824219 L 250.027344 223.671875 L 250.6875 222.507812 L 251.277344 223.710938 L 252.664062 223.941406 L 251.625 224.835938 Z M 251.820312 226.144531 "/>
<path style=" stroke:none;fill-rule:evenodd;fill:rgb(100%,100%,93.72549%);fill-opacity:1;" d="M 137.609375 219.222656 L 136.101562 218.355469 L 134.539062 219.125 L 134.890625 217.390625 L 133.683594 216.117188 L 135.410156 215.914062 L 136.21875 214.359375 L 136.941406 215.96875 L 138.644531 216.277344 L 137.367188 217.472656 Z M 137.609375 219.222656 "/>
<path style=" stroke:none;fill-rule:evenodd;fill:rgb(100%,100%,93.72549%);fill-opacity:1;" d="M 137.609375 219.222656 L 136.101562 218.355469 L 134.539062 219.125 L 134.890625 217.390625 L 133.683594 216.117188 L 135.410156 215.914062 L 136.21875 214.359375 L 136.941406 215.96875 L 138.644531 216.277344 L 137.367188 217.472656 Z M 137.609375 219.222656 "/>
<path style=" stroke:none;fill-rule:evenodd;fill:rgb(100%,100%,93.72549%);fill-opacity:1;" d="M 161.558594 219.214844 L 160.050781 218.347656 L 158.488281 219.121094 L 158.839844 217.382812 L 157.632812 216.113281 L 159.359375 215.910156 L 160.167969 214.351562 L 160.890625 215.964844 L 162.59375 216.273438 L 161.316406 217.46875 Z M 161.558594 219.214844 "/>
<path style=" stroke:none;fill-rule:evenodd;fill:rgb(100%,100%,93.72549%);fill-opacity:1;" d="M 158.582031 227.183594 L 157.078125 226.316406 L 155.515625 227.089844 L 155.863281 225.351562 L 154.65625 224.078125 L 156.382812 223.875 L 157.191406 222.320312 L 157.917969 223.929688 L 159.617188 224.238281 L 158.34375 225.433594 Z M 158.582031 227.183594 "/>
<path style=" stroke:none;fill-rule:evenodd;fill:rgb(100%,100%,93.72549%);fill-opacity:1;" d="M 208.3125 212.679688 L 206.804688 211.8125 L 205.242188 212.585938 L 205.59375 210.847656 L 204.386719 209.574219 L 206.113281 209.375 L 206.921875 207.816406 L 207.644531 209.425781 L 209.347656 209.734375 L 208.070312 210.933594 Z M 208.3125 212.679688 "/>
<path style=" stroke:none;fill-rule:evenodd;fill:rgb(100%,100%,93.72549%);fill-opacity:1;" d="M 193.71875 212.675781 L 192.214844 211.804688 L 190.652344 212.578125 L 191 210.84375 L 189.792969 209.570312 L 191.519531 209.367188 L 192.332031 207.808594 L 193.054688 209.421875 L 194.757812 209.730469 L 193.480469 210.925781 Z M 193.71875 212.675781 "/>
<path style=" stroke:none;fill-rule:evenodd;fill:rgb(100%,100%,93.72549%);fill-opacity:1;" d="M 154.136719 207.585938 L 153.195312 207.042969 L 152.214844 207.527344 L 152.433594 206.4375 L 151.675781 205.640625 L 152.757812 205.515625 L 153.265625 204.539062 L 153.71875 205.546875 L 154.785156 205.742188 L 153.988281 206.492188 Z M 154.136719 207.585938 "/>
<path style=" stroke:none;fill-rule:evenodd;fill:rgb(100%,100%,93.72549%);fill-opacity:1;" d="M 249.964844 232.445312 L 248.460938 231.578125 L 246.898438 232.351562 L 247.246094 230.613281 L 246.039062 229.339844 L 247.765625 229.140625 L 248.578125 227.582031 L 249.300781 229.191406 L 251.003906 229.5 L 249.726562 230.695312 Z M 249.964844 232.445312 "/>
<path style=" stroke:none;fill-rule:evenodd;fill:rgb(100%,100%,93.72549%);fill-opacity:1;" d="M 237.8125 234.039062 L 236.566406 233.316406 L 235.273438 233.957031 L 235.5625 232.515625 L 234.5625 231.460938 L 235.992188 231.292969 L 236.664062 230 L 237.261719 231.335938 L 238.671875 231.59375 L 237.613281 232.585938 Z M 237.8125 234.039062 "/>
<path style=" stroke:none;fill-rule:evenodd;fill:rgb(100%,100%,93.72549%);fill-opacity:1;" d="M 243.546875 233.898438 L 242.382812 233.230469 L 241.179688 233.824219 L 241.449219 232.484375 L 240.515625 231.5 L 241.847656 231.347656 L 242.472656 230.144531 L 243.03125 231.386719 L 244.34375 231.625 L 243.359375 232.550781 Z M 243.546875 233.898438 "/>
<path style=" stroke:none;fill-rule:evenodd;fill:rgb(100%,100%,93.72549%);fill-opacity:1;" d="M 260.007812 219.535156 L 258.890625 218.890625 L 257.726562 219.464844 L 257.988281 218.171875 L 257.089844 217.226562 L 258.375 217.078125 L 258.976562 215.917969 L 259.511719 217.117188 L 260.777344 217.347656 L 259.828125 218.234375 Z M 260.007812 219.535156 "/>
<path style=" stroke:none;fill-rule:evenodd;fill:rgb(100%,100%,93.72549%);fill-opacity:1;" d="M 237.667969 242.144531 L 236.207031 241.347656 L 234.691406 242.058594 L 235.03125 240.464844 L 233.859375 239.296875 L 235.535156 239.109375 L 236.320312 237.679688 L 237.023438 239.160156 L 238.675781 239.441406 L 237.4375 240.539062 Z M 237.667969 242.144531 "/>
<path style=" stroke:none;fill-rule:evenodd;fill:rgb(100%,100%,93.72549%);fill-opacity:1;" d="M 237.75 248.6875 L 236.417969 247.890625 L 235.035156 248.597656 L 235.34375 247.003906 L 234.277344 245.835938 L 235.804688 245.652344 L 236.523438 244.222656 L 237.160156 245.699219 L 238.667969 245.984375 L 237.539062 247.082031 Z M 237.75 248.6875 "/>
<path style=" stroke:none;fill-rule:evenodd;fill:rgb(100%,100%,93.72549%);fill-opacity:1;" d="M 226.714844 233.898438 L 225.597656 233.25 L 224.433594 233.828125 L 224.695312 232.535156 L 223.796875 231.589844 L 225.082031 231.441406 L 225.683594 230.28125 L 226.21875 231.480469 L 227.484375 231.710938 L 226.535156 232.597656 Z M 226.714844 233.898438 "/>
<path style=" stroke:none;fill-rule:evenodd;fill:rgb(100%,100%,93.72549%);fill-opacity:1;" d="M 216.367188 233.898438 L 215.25 233.25 L 214.089844 233.828125 L 214.347656 232.535156 L 213.453125 231.589844 L 214.734375 231.441406 L 215.335938 230.28125 L 215.875 231.480469 L 217.140625 231.710938 L 216.191406 232.597656 Z M 216.367188 233.898438 "/>
<path style=" stroke:none;fill-rule:evenodd;fill:rgb(100%,100%,93.72549%);fill-opacity:1;" d="M 198.800781 218.535156 L 197.683594 217.890625 L 196.523438 218.464844 L 196.78125 217.175781 L 195.886719 216.230469 L 197.167969 216.078125 L 197.769531 214.921875 L 198.308594 216.117188 L 199.574219 216.347656 L 198.625 217.234375 Z M 198.800781 218.535156 "/>
<path style=" stroke:none;fill-rule:evenodd;fill:rgb(100%,100%,93.72549%);fill-opacity:1;" d="M 200.757812 249.84375 L 199.8125 249.296875 L 198.828125 249.785156 L 199.050781 248.691406 L 198.289062 247.890625 L 199.375 247.761719 L 199.886719 246.78125 L 200.339844 247.796875 L 201.414062 247.992188 L 200.609375 248.742188 Z M 200.757812 249.84375 "/>
<path style=" stroke:none;fill-rule:evenodd;fill:rgb(100%,100%,93.72549%);fill-opacity:1;" d="M 174.226562 199.203125 L 171.972656 197.902344 L 169.632812 199.0625 L 170.15625 196.460938 L 168.347656 194.554688 L 170.933594 194.25 L 172.148438 191.917969 L 173.230469 194.332031 L 175.78125 194.792969 L 173.867188 196.585938 Z M 174.226562 199.203125 "/>
<path style=" stroke:none;fill-rule:evenodd;fill:rgb(100%,100%,100%);fill-opacity:1;" d="M 266.335938 218.199219 C 267.445312 215.292969 268.878906 210.910156 269.640625 206.886719 C 230.902344 172.855469 187.71875 155.421875 133.148438 159.007812 C 131.195312 162.761719 129.628906 166.6875 128.308594 170.933594 C 192.964844 164.765625 240.355469 193.390625 266.335938 218.199219 Z M 266.335938 218.199219 "/>
<path style=" stroke:none;fill-rule:nonzero;fill:rgb(18.823529%,61.960784%,22.745098%);fill-opacity:1;" d="M 248.917969 199.070312 L 250.304688 199.824219 C 250.085938 200.316406 250.027344 200.746094 250.125 201.109375 C 250.230469 201.480469 250.484375 201.800781 250.890625 202.078125 C 251.320312 202.371094 251.703125 202.5 252.042969 202.464844 C 252.386719 202.429688 252.640625 202.289062 252.804688 202.042969 C 252.910156 201.886719 252.953125 201.722656 252.933594 201.550781 C 252.917969 201.378906 252.824219 201.171875 252.652344 200.9375 C 252.53125 200.777344 252.238281 200.4375 251.777344 199.921875 C 251.183594 199.257812 250.828125 198.695312 250.710938 198.242188 C 250.554688 197.597656 250.648438 197.015625 251.003906 196.492188 C 251.234375 196.152344 251.539062 195.902344 251.925781 195.738281 C 252.316406 195.570312 252.746094 195.535156 253.207031 195.625 C 253.671875 195.714844 254.160156 195.933594 254.664062 196.277344 C 255.496094 196.839844 255.996094 197.449219 256.167969 198.097656 C 256.34375 198.75 256.238281 199.386719 255.847656 200.011719 L 254.472656 199.164062 C 254.644531 198.78125 254.6875 198.453125 254.597656 198.175781 C 254.511719 197.898438 254.28125 197.632812 253.90625 197.378906 C 253.515625 197.117188 253.160156 196.988281 252.832031 197 C 252.621094 197.007812 252.457031 197.09375 252.34375 197.265625 C 252.234375 197.425781 252.210938 197.605469 252.269531 197.804688 C 252.34375 198.0625 252.648438 198.488281 253.199219 199.082031 C 253.742188 199.675781 254.113281 200.164062 254.3125 200.539062 C 254.515625 200.914062 254.609375 201.304688 254.589844 201.710938 C 254.574219 202.117188 254.425781 202.527344 254.144531 202.949219 C 253.886719 203.328125 253.542969 203.613281 253.109375 203.800781 C 252.671875 203.992188 252.210938 204.035156 251.714844 203.9375 C 251.222656 203.835938 250.6875 203.589844 250.113281 203.199219 C 249.277344 202.632812 248.765625 202.003906 248.578125 201.3125 C 248.390625 200.621094 248.503906 199.871094 248.917969 199.070312 Z M 248.917969 199.070312 "/>
<path style=" stroke:none;fill-rule:nonzero;fill:rgb(18.823529%,61.960784%,22.745098%);fill-opacity:1;" d="M 242.355469 194.761719 L 243.769531 195.457031 C 243.570312 195.957031 243.53125 196.386719 243.644531 196.75 C 243.761719 197.113281 244.027344 197.425781 244.445312 197.683594 C 244.886719 197.960938 245.277344 198.074219 245.613281 198.027344 C 245.953125 197.976562 246.203125 197.828125 246.359375 197.578125 C 246.457031 197.417969 246.492188 197.25 246.46875 197.078125 C 246.445312 196.90625 246.34375 196.703125 246.160156 196.472656 C 246.035156 196.320312 245.730469 195.992188 245.246094 195.496094 C 244.625 194.855469 244.246094 194.308594 244.113281 193.859375 C 243.929688 193.222656 244.003906 192.636719 244.335938 192.097656 C 244.550781 191.753906 244.847656 191.488281 245.226562 191.308594 C 245.613281 191.128906 246.039062 191.074219 246.503906 191.144531 C 246.96875 191.214844 247.464844 191.414062 247.984375 191.738281 C 248.839844 192.269531 249.363281 192.855469 249.558594 193.496094 C 249.761719 194.140625 249.679688 194.78125 249.316406 195.421875 L 247.90625 194.628906 C 248.0625 194.242188 248.09375 193.914062 247.992188 193.640625 C 247.898438 193.367188 247.65625 193.109375 247.269531 192.867188 C 246.871094 192.621094 246.507812 192.511719 246.183594 192.535156 C 245.972656 192.546875 245.8125 192.644531 245.703125 192.820312 C 245.605469 192.984375 245.585938 193.160156 245.652344 193.363281 C 245.734375 193.613281 246.0625 194.027344 246.632812 194.601562 C 247.199219 195.171875 247.589844 195.644531 247.804688 196.011719 C 248.023438 196.378906 248.128906 196.765625 248.125 197.171875 C 248.128906 197.574219 247.996094 197.992188 247.730469 198.425781 C 247.492188 198.8125 247.15625 199.113281 246.730469 199.320312 C 246.304688 199.527344 245.839844 199.589844 245.34375 199.511719 C 244.847656 199.429688 244.304688 199.207031 243.714844 198.839844 C 242.859375 198.304688 242.320312 197.699219 242.105469 197.015625 C 241.890625 196.328125 241.972656 195.578125 242.355469 194.761719 Z M 242.355469 194.761719 "/>
<path style=" stroke:none;fill-rule:nonzero;fill:rgb(18.823529%,61.960784%,22.745098%);fill-opacity:1;" d="M 234.230469 192.582031 L 238.394531 185.742188 L 243.445312 188.835938 L 242.742188 189.996094 L 239.066406 187.742188 L 238.140625 189.257812 L 241.5625 191.355469 L 240.863281 192.507812 L 237.441406 190.410156 L 236.308594 192.273438 L 240.117188 194.605469 L 239.414062 195.761719 Z M 234.230469 192.582031 "/>
<path style=" stroke:none;fill-rule:nonzero;fill:rgb(18.823529%,61.960784%,22.745098%);fill-opacity:1;" d="M 222.398438 182.867188 L 223.015625 181.664062 L 226.105469 183.261719 L 224.648438 186.101562 C 224.199219 186.238281 223.628906 186.269531 222.941406 186.199219 C 222.261719 186.125 221.632812 185.9375 221.046875 185.632812 C 220.304688 185.25 219.738281 184.761719 219.34375 184.164062 C 218.953125 183.5625 218.769531 182.902344 218.789062 182.179688 C 218.808594 181.449219 218.996094 180.746094 219.347656 180.0625 C 219.726562 179.320312 220.222656 178.742188 220.828125 178.324219 C 221.433594 177.910156 222.113281 177.699219 222.867188 177.699219 C 223.445312 177.699219 224.070312 177.875 224.75 178.222656 C 225.632812 178.679688 226.222656 179.222656 226.527344 179.851562 C 226.832031 180.476562 226.890625 181.15625 226.695312 181.882812 L 225.136719 181.414062 C 225.214844 181.011719 225.167969 180.640625 224.992188 180.296875 C 224.824219 179.949219 224.53125 179.667969 224.121094 179.457031 C 223.492188 179.132812 222.894531 179.074219 222.316406 179.28125 C 221.742188 179.488281 221.257812 179.984375 220.855469 180.769531 C 220.417969 181.613281 220.28125 182.347656 220.4375 182.964844 C 220.597656 183.578125 220.976562 184.042969 221.585938 184.359375 C 221.886719 184.511719 222.214844 184.609375 222.574219 184.648438 C 222.941406 184.683594 223.273438 184.675781 223.578125 184.621094 L 224.042969 183.714844 Z M 222.398438 182.867188 "/>
<path style=" stroke:none;fill-rule:nonzero;fill:rgb(18.823529%,61.960784%,22.745098%);fill-opacity:1;" d="M 170.792969 170.066406 L 171.957031 162.136719 L 174.34375 162.492188 L 174.984375 168.109375 L 177.191406 162.910156 L 179.585938 163.265625 L 178.425781 171.195312 L 176.941406 170.976562 L 177.859375 164.734375 L 175.375 170.746094 L 173.839844 170.519531 L 173.191406 164.042969 L 172.277344 170.285156 Z M 170.792969 170.066406 "/>
<path style=" stroke:none;fill-rule:nonzero;fill:rgb(18.823529%,61.960784%,22.745098%);fill-opacity:1;" d="M 162.726562 169.132812 L 163.472656 161.148438 L 169.367188 161.707031 L 169.242188 163.054688 L 164.953125 162.652344 L 164.785156 164.421875 L 168.777344 164.796875 L 168.652344 166.140625 L 164.660156 165.765625 L 164.457031 167.9375 L 168.898438 168.355469 L 168.773438 169.703125 Z M 162.726562 169.132812 "/>
<path style=" stroke:none;fill-rule:nonzero;fill:rgb(18.823529%,61.960784%,22.745098%);fill-opacity:1;" d="M 136.027344 164.136719 C 136.050781 163.320312 136.191406 162.640625 136.449219 162.09375 C 136.640625 161.691406 136.898438 161.332031 137.21875 161.015625 C 137.542969 160.699219 137.894531 160.46875 138.273438 160.320312 C 138.777344 160.125 139.351562 160.035156 140 160.050781 C 141.175781 160.082031 142.109375 160.476562 142.789062 161.226562 C 143.480469 161.980469 143.804688 163.007812 143.769531 164.3125 C 143.734375 165.605469 143.359375 166.609375 142.636719 167.320312 C 141.917969 168.03125 140.96875 168.371094 139.800781 168.339844 C 138.609375 168.304688 137.679688 167.917969 136.996094 167.171875 C 136.316406 166.425781 135.992188 165.414062 136.027344 164.136719 Z M 136.027344 164.136719 "/>
<path style=" stroke:none;fill-rule:nonzero;fill:rgb(96.862745%,100%,100%);fill-opacity:1;" d="M 137.695312 164.125 C 137.667969 165.03125 137.859375 165.726562 138.265625 166.207031 C 138.667969 166.683594 139.191406 166.933594 139.835938 166.949219 C 140.476562 166.96875 141.011719 166.75 141.433594 166.296875 C 141.859375 165.84375 142.085938 165.152344 142.109375 164.222656 C 142.132812 163.304688 141.953125 162.613281 141.5625 162.148438 C 141.175781 161.6875 140.648438 161.445312 139.984375 161.429688 C 139.320312 161.410156 138.777344 161.625 138.359375 162.074219 C 137.941406 162.519531 137.71875 163.203125 137.695312 164.125 Z M 137.695312 164.125 "/>
<path style=" stroke:none;fill-rule:nonzero;fill:rgb(18.823529%,61.960784%,22.745098%);fill-opacity:1;" d="M 145.492188 168.273438 L 145.585938 160.257812 L 148.980469 160.296875 C 149.832031 160.308594 150.449219 160.386719 150.835938 160.539062 C 151.222656 160.683594 151.527344 160.945312 151.757812 161.316406 C 151.984375 161.6875 152.097656 162.109375 152.089844 162.582031 C 152.082031 163.183594 151.902344 163.679688 151.542969 164.070312 C 151.1875 164.453125 150.660156 164.695312 149.957031 164.789062 C 150.300781 164.996094 150.585938 165.222656 150.808594 165.472656 C 151.035156 165.71875 151.335938 166.15625 151.714844 166.78125 L 152.671875 168.355469 L 150.742188 168.335938 L 149.597656 166.578125 C 149.191406 165.949219 148.914062 165.554688 148.761719 165.390625 C 148.609375 165.226562 148.453125 165.113281 148.28125 165.050781 C 148.113281 164.988281 147.839844 164.953125 147.46875 164.949219 L 147.144531 164.945312 L 147.105469 168.292969 Z M 145.492188 168.273438 "/>
<path style=" stroke:none;fill-rule:nonzero;fill:rgb(100%,100%,100%);fill-opacity:1;" d="M 147.164062 163.667969 L 148.359375 163.679688 C 149.132812 163.691406 149.613281 163.664062 149.808594 163.601562 C 150 163.535156 150.152344 163.425781 150.261719 163.265625 C 150.375 163.109375 150.429688 162.90625 150.433594 162.667969 C 150.4375 162.398438 150.367188 162.179688 150.222656 162.015625 C 150.085938 161.84375 149.882812 161.734375 149.621094 161.691406 C 149.492188 161.671875 149.097656 161.65625 148.445312 161.648438 L 147.1875 161.632812 Z M 147.164062 163.667969 "/>
<path style=" stroke:none;fill-rule:nonzero;fill:rgb(18.823529%,61.960784%,22.745098%);fill-opacity:1;" d="M 154.613281 160.65625 L 157.558594 160.804688 C 158.222656 160.839844 158.722656 160.914062 159.066406 161.035156 C 159.527344 161.199219 159.917969 161.464844 160.230469 161.835938 C 160.546875 162.203125 160.78125 162.648438 160.929688 163.171875 C 161.078125 163.691406 161.132812 164.324219 161.09375 165.074219 C 161.0625 165.734375 160.949219 166.296875 160.761719 166.765625 C 160.535156 167.339844 160.226562 167.796875 159.835938 168.136719 C 159.546875 168.394531 159.15625 168.589844 158.675781 168.71875 C 158.3125 168.8125 157.835938 168.84375 157.238281 168.816406 L 154.210938 168.660156 Z M 154.613281 160.65625 "/>
<path style=" stroke:none;fill-rule:nonzero;fill:rgb(100%,100%,100%);fill-opacity:1;" d="M 156.160156 162.082031 L 155.894531 167.386719 L 157.09375 167.445312 C 157.542969 167.472656 157.871094 167.460938 158.070312 167.421875 C 158.335938 167.367188 158.558594 167.269531 158.738281 167.121094 C 158.917969 166.972656 159.074219 166.722656 159.199219 166.371094 C 159.328125 166.015625 159.40625 165.53125 159.4375 164.910156 C 159.46875 164.292969 159.4375 163.8125 159.347656 163.476562 C 159.253906 163.140625 159.113281 162.875 158.925781 162.679688 C 158.742188 162.484375 158.5 162.34375 158.203125 162.265625 C 157.980469 162.203125 157.539062 162.152344 156.882812 162.121094 Z M 156.160156 162.082031 "/>
<path style=" stroke:none;fill-rule:nonzero;fill:rgb(18.823529%,61.960784%,22.745098%);fill-opacity:1;" d="M 193.859375 174.96875 L 195.722656 167.175781 L 198.238281 167.78125 C 199.191406 168.011719 199.804688 168.199219 200.074219 168.347656 C 200.492188 168.574219 200.804688 168.917969 201.007812 169.382812 C 201.214844 169.84375 201.246094 170.386719 201.097656 171.007812 C 200.984375 171.484375 200.800781 171.867188 200.546875 172.152344 C 200.296875 172.4375 200.015625 172.640625 199.703125 172.761719 C 199.394531 172.882812 199.09375 172.941406 198.804688 172.933594 C 198.414062 172.917969 197.863281 172.824219 197.152344 172.652344 L 196.128906 172.40625 L 195.425781 175.347656 Z M 193.859375 174.96875 "/>
<path style=" stroke:none;fill-rule:nonzero;fill:rgb(100%,100%,100%);fill-opacity:1;" d="M 196.980469 168.871094 L 196.449219 171.082031 L 197.308594 171.289062 C 197.925781 171.4375 198.347656 171.496094 198.574219 171.464844 C 198.804688 171.433594 198.996094 171.34375 199.15625 171.199219 C 199.316406 171.054688 199.425781 170.867188 199.480469 170.636719 C 199.546875 170.351562 199.519531 170.097656 199.398438 169.875 C 199.277344 169.648438 199.09375 169.484375 198.851562 169.378906 C 198.671875 169.296875 198.300781 169.1875 197.738281 169.050781 Z M 196.980469 168.871094 "/>
<path style=" stroke:none;fill-rule:nonzero;fill:rgb(18.823529%,61.960784%,22.745098%);fill-opacity:1;" d="M 201.28125 177.191406 L 203.933594 169.632812 L 207.132812 170.765625 C 207.9375 171.050781 208.5 171.324219 208.8125 171.589844 C 209.132812 171.855469 209.339844 172.199219 209.4375 172.625 C 209.535156 173.046875 209.507812 173.484375 209.347656 173.929688 C 209.148438 174.5 208.820312 174.910156 208.355469 175.164062 C 207.894531 175.414062 207.316406 175.46875 206.621094 175.332031 C 206.882812 175.640625 207.082031 175.949219 207.210938 176.253906 C 207.347656 176.558594 207.492188 177.070312 207.648438 177.789062 L 208.050781 179.589844 L 206.230469 178.945312 L 205.710938 176.910156 C 205.527344 176.183594 205.390625 175.722656 205.296875 175.519531 C 205.207031 175.3125 205.09375 175.15625 204.953125 175.042969 C 204.8125 174.925781 204.566406 174.808594 204.214844 174.683594 L 203.910156 174.574219 L 202.800781 177.730469 Z M 201.28125 177.191406 "/>
<path style=" stroke:none;fill-rule:nonzero;fill:rgb(100%,100%,100%);fill-opacity:1;" d="M 204.328125 173.371094 L 205.453125 173.769531 C 206.183594 174.027344 206.648438 174.160156 206.851562 174.160156 C 207.054688 174.164062 207.234375 174.105469 207.390625 173.992188 C 207.546875 173.875 207.664062 173.707031 207.742188 173.480469 C 207.832031 173.222656 207.835938 172.996094 207.753906 172.792969 C 207.675781 172.585938 207.519531 172.421875 207.289062 172.292969 C 207.171875 172.230469 206.804688 172.089844 206.1875 171.875 L 205 171.453125 Z M 204.328125 173.371094 "/>
<path style=" stroke:none;fill-rule:nonzero;fill:rgb(18.823529%,61.960784%,22.745098%);fill-opacity:1;" d="M 210.660156 176.902344 C 210.902344 176.125 211.222656 175.503906 211.617188 175.050781 C 211.914062 174.714844 212.253906 174.4375 212.652344 174.222656 C 213.046875 174.003906 213.449219 173.878906 213.851562 173.839844 C 214.390625 173.789062 214.96875 173.859375 215.589844 174.050781 C 216.714844 174.402344 217.5 175.035156 217.957031 175.945312 C 218.417969 176.855469 218.453125 177.933594 218.066406 179.179688 C 217.683594 180.414062 217.046875 181.277344 216.160156 181.769531 C 215.277344 182.253906 214.273438 182.324219 213.152344 181.972656 C 212.019531 181.617188 211.226562 180.988281 210.773438 180.089844 C 210.320312 179.183594 210.28125 178.121094 210.660156 176.902344 Z M 210.660156 176.902344 "/>
<path style=" stroke:none;fill-rule:nonzero;fill:rgb(100%,100%,100%);fill-opacity:1;" d="M 212.269531 177.351562 C 212 178.21875 211.996094 178.9375 212.253906 179.511719 C 212.515625 180.082031 212.953125 180.464844 213.566406 180.65625 C 214.179688 180.847656 214.75 180.785156 215.28125 180.464844 C 215.8125 180.140625 216.21875 179.539062 216.492188 178.648438 C 216.765625 177.773438 216.777344 177.058594 216.527344 176.503906 C 216.28125 175.957031 215.835938 175.582031 215.203125 175.382812 C 214.570312 175.183594 213.988281 175.242188 213.464844 175.558594 C 212.941406 175.875 212.542969 176.472656 212.269531 177.351562 Z M 212.269531 177.351562 "/>
<path style=" stroke:none;fill-rule:nonzero;fill:rgb(18.823529%,61.960784%,22.745098%);fill-opacity:1;" d="M 226.269531 188.066406 L 229.9375 180.945312 L 232.953125 182.511719 C 233.710938 182.90625 234.226562 183.253906 234.5 183.5625 C 234.78125 183.867188 234.941406 184.238281 234.976562 184.671875 C 235.015625 185.105469 234.925781 185.53125 234.710938 185.953125 C 234.433594 186.488281 234.050781 186.847656 233.554688 187.035156 C 233.066406 187.21875 232.484375 187.195312 231.816406 186.964844 C 232.03125 187.304688 232.183594 187.636719 232.273438 187.957031 C 232.363281 188.28125 232.4375 188.804688 232.496094 189.539062 L 232.644531 191.375 L 230.933594 190.488281 L 230.695312 188.402344 C 230.613281 187.65625 230.542969 187.175781 230.480469 186.964844 C 230.417969 186.75 230.324219 186.574219 230.199219 186.445312 C 230.078125 186.3125 229.851562 186.15625 229.523438 185.988281 L 229.230469 185.835938 L 227.699219 188.808594 Z M 226.269531 188.066406 "/>
<path style=" stroke:none;fill-rule:nonzero;fill:rgb(100%,100%,100%);fill-opacity:1;" d="M 229.8125 184.695312 L 230.871094 185.246094 C 231.558594 185.601562 232.003906 185.796875 232.203125 185.824219 C 232.40625 185.855469 232.589844 185.824219 232.761719 185.734375 C 232.933594 185.640625 233.070312 185.488281 233.179688 185.273438 C 233.304688 185.035156 233.339844 184.808594 233.285156 184.597656 C 233.238281 184.382812 233.105469 184.195312 232.894531 184.035156 C 232.785156 183.960938 232.441406 183.769531 231.859375 183.46875 L 230.746094 182.886719 Z M 229.8125 184.695312 "/>
<path style=" stroke:none;fill-rule:nonzero;fill:rgb(18.823529%,61.960784%,22.745098%);fill-opacity:1;" d="M 255.890625 202.695312 C 256.347656 202.019531 256.832031 201.519531 257.34375 201.199219 C 257.71875 200.960938 258.128906 200.796875 258.570312 200.703125 C 259.011719 200.613281 259.433594 200.609375 259.828125 200.6875 C 260.359375 200.792969 260.894531 201.027344 261.433594 201.394531 C 262.40625 202.054688 262.980469 202.890625 263.15625 203.890625 C 263.332031 204.898438 263.058594 205.941406 262.328125 207.019531 C 261.605469 208.09375 260.75 208.734375 259.761719 208.949219 C 258.773438 209.15625 257.796875 208.933594 256.824219 208.273438 C 255.839844 207.605469 255.261719 206.773438 255.085938 205.777344 C 254.910156 204.78125 255.179688 203.753906 255.890625 202.695312 Z M 255.890625 202.695312 "/>
<path style=" stroke:none;fill-rule:nonzero;fill:rgb(100%,100%,100%);fill-opacity:1;" d="M 257.304688 203.582031 C 256.796875 204.335938 256.585938 205.023438 256.667969 205.644531 C 256.753906 206.269531 257.0625 206.757812 257.597656 207.121094 C 258.128906 207.480469 258.695312 207.585938 259.292969 207.433594 C 259.894531 207.28125 260.457031 206.820312 260.976562 206.046875 C 261.488281 205.289062 261.703125 204.605469 261.621094 204.007812 C 261.542969 203.40625 261.230469 202.921875 260.679688 202.546875 C 260.128906 202.171875 259.554688 202.0625 258.964844 202.214844 C 258.371094 202.363281 257.820312 202.820312 257.304688 203.582031 Z M 257.304688 203.582031 "/>
<path style=" stroke:none;fill-rule:nonzero;fill:rgb(18.823529%,61.960784%,22.745098%);fill-opacity:1;" d="M 184.820312 171.710938 L 186.105469 166.085938 L 190.261719 167.042969 L 190.046875 167.992188 L 187.023438 167.296875 L 186.734375 168.542969 L 189.550781 169.195312 L 189.332031 170.140625 L 186.519531 169.492188 L 186.167969 171.023438 L 189.300781 171.746094 L 189.082031 172.695312 Z M 184.820312 171.710938 "/>
</g>
</svg>
