<?xml version="1.0" encoding="UTF-8"?>
<svg xmlns="http://www.w3.org/2000/svg" xmlns:xlink="http://www.w3.org/1999/xlink" width="384pt" height="384pt" viewBox="0 0 384 384" version="1.1">
<g id="surface1">
<rect x="0" y="0" width="384" height="384" style="fill:rgb(100%,100%,100%);fill-opacity:1;stroke:none;"/>
<path style=" stroke:none;fill-rule:evenodd;fill:rgb(84.313725%,15.686275%,15.686275%);fill-opacity:1;" d="M -69.742188 -58.378906 L 94.296875 -58.378906 L 94.296875 148.816406 L -69.742188 148.816406 Z M -69.742188 -58.378906 "/>
<path style=" stroke:none;fill-rule:evenodd;fill:rgb(84.313725%,15.686275%,15.686275%);fill-opacity:1;" d="M 187.066406 -0.429688 L 472.746094 -0.429688 L 472.746094 148.820312 L 187.066406 148.820312 Z M 187.066406 -0.429688 "/>
<path style=" stroke:none;fill-rule:evenodd;fill:rgb(84.313725%,15.686275%,15.686275%);fill-opacity:1;" d="M -50.660156 240.007812 L 92.089844 240.007812 L 92.089844 382.753906 L -50.660156 382.753906 Z M -50.660156 240.007812 "/>
<path style=" stroke:none;fill-rule:evenodd;fill:rgb(84.313725%,15.686275%,15.686275%);fill-opacity:1;" d="M 189 241.589844 L 472.753906 241.589844 L 472.753906 382.746094 L 189 382.746094 Z M 189 241.589844 "/>
<path style=" stroke:none;fill-rule:evenodd;fill:rgb(0%,21.960784%,59.215686%);fill-opacity:1;" d="M 117.488281 -19.085938 L 165.804688 -19.085938 L 165.804688 382.75 L 117.488281 382.75 Z M 117.488281 -19.085938 "/>
<path style=" stroke:none;fill-rule:evenodd;fill:rgb(0%,21.960784%,59.215686%);fill-opacity:1;" d="M -50.660156 168.628906 L 472.75 168.628906 L 472.75 216.214844 L -50.660156 216.214844 Z M -50.660156 168.628906 "/>
</g>
</svg>
