<?xml version="1.0" encoding="UTF-8"?>
<svg xmlns="http://www.w3.org/2000/svg" xmlns:xlink="http://www.w3.org/1999/xlink" width="384pt" height="384pt" viewBox="0 0 384 384" version="1.1">
<g id="surface1">
<rect x="0" y="0" width="384" height="384" style="fill:rgb(0%,0%,40%);fill-opacity:1;stroke:none;"/>
<path style=" stroke:none;fill-rule:nonzero;fill:rgb(100%,100%,100%);fill-opacity:1;" d="M 0 0 L 0 20.964844 L 230.277344 187.5 L 259.261719 187.5 L 259.261719 166.539062 L 28.984375 0 Z M 259.261719 0 L 259.261719 20.960938 L 28.984375 187.5 L 0 187.5 L 0 166.535156 L 230.277344 0 Z M 259.261719 0 "/>
<path style=" stroke:none;fill-rule:nonzero;fill:rgb(100%,100%,100%);fill-opacity:1;" d="M 108.027344 0 L 108.027344 187.5 L 151.238281 187.5 L 151.238281 0 Z M 0 62.5 L 0 125 L 259.261719 125 L 259.261719 62.5 Z M 0 62.5 "/>
<path style=" stroke:none;fill-rule:nonzero;fill:rgb(80%,0%,0%);fill-opacity:1;" d="M 0 75 L 0 112.5 L 259.261719 112.5 L 259.261719 75 Z M 116.667969 0 L 116.667969 187.5 L 142.59375 187.5 L 142.59375 0 Z M 116.667969 0 "/>
<path style=" stroke:none;fill-rule:nonzero;fill:rgb(80%,0%,0%);fill-opacity:1;" d="M 0 187.5 L 86.421875 125 L 105.746094 125 L 19.324219 187.5 Z M 0 0 L 86.421875 62.5 L 67.097656 62.5 L 0 13.976562 Z M 153.519531 62.5 L 239.9375 0 L 259.261719 0 L 172.84375 62.5 Z M 259.261719 187.5 L 172.84375 125 L 192.164062 125 L 259.261719 173.523438 Z M 259.261719 187.5 "/>
<path style=" stroke:none;fill-rule:evenodd;fill:rgb(100%,100%,100%);fill-opacity:1;" d="M 41.164062 276.480469 L 71.664062 288.03125 L 81.652344 256.976562 L 91.644531 288.03125 L 122.140625 276.480469 L 104.097656 303.648438 L 132.144531 320.296875 L 99.648438 323.121094 L 104.125 355.433594 L 81.652344 331.785156 L 59.183594 355.433594 L 63.660156 323.121094 L 31.164062 320.296875 L 59.210938 303.648438 Z M 41.164062 276.480469 "/>
<path style=" stroke:none;fill-rule:evenodd;fill:rgb(100%,100%,100%);fill-opacity:1;" d="M 302.855469 357.308594 L 288.738281 358.539062 L 290.6875 372.570312 L 280.921875 362.300781 L 271.15625 372.570312 L 273.105469 358.539062 L 258.988281 357.308594 L 271.171875 350.074219 L 263.328125 338.273438 L 276.585938 343.292969 L 280.921875 329.800781 L 285.257812 343.292969 L 298.511719 338.273438 L 290.667969 350.074219 Z M 302.855469 357.308594 "/>
<path style=" stroke:none;fill-rule:evenodd;fill:rgb(100%,100%,100%);fill-opacity:1;" d="M 302.855469 147.3125 L 288.738281 148.542969 L 290.6875 162.574219 L 280.921875 152.304688 L 271.15625 162.574219 L 273.105469 148.542969 L 258.988281 147.3125 L 271.171875 140.078125 L 263.328125 128.277344 L 276.585938 133.292969 L 280.921875 119.804688 L 285.257812 133.292969 L 298.511719 128.277344 L 290.667969 140.078125 Z M 302.855469 147.3125 "/>
<path style=" stroke:none;fill-rule:evenodd;fill:rgb(100%,100%,100%);fill-opacity:1;" d="M 224.105469 232.625 L 209.988281 233.851562 L 211.9375 247.886719 L 202.171875 237.617188 L 192.40625 247.886719 L 194.355469 233.851562 L 180.238281 232.625 L 192.421875 225.390625 L 184.578125 213.585938 L 197.835938 218.605469 L 202.171875 205.113281 L 206.507812 218.605469 L 219.765625 213.585938 L 211.921875 225.390625 Z M 224.105469 232.625 "/>
<path style=" stroke:none;fill-rule:evenodd;fill:rgb(100%,100%,100%);fill-opacity:1;" d="M 372.847656 211.625 L 358.726562 212.851562 L 360.667969 226.886719 L 350.902344 216.617188 L 341.136719 226.886719 L 343.078125 212.851562 L 328.984375 211.625 L 341.191406 204.390625 L 333.332031 192.589844 L 346.597656 197.605469 L 350.902344 184.113281 L 355.257812 197.605469 L 368.488281 192.589844 L 360.667969 204.390625 Z M 372.847656 211.625 "/>
<path style=" stroke:none;fill-rule:evenodd;fill:rgb(100%,100%,100%);fill-opacity:1;" d="M 312.421875 266.261719 L 304.703125 271.042969 L 306.871094 262.226562 L 299.9375 256.375 L 308.992188 255.707031 L 312.421875 247.304688 L 315.847656 255.707031 L 324.90625 256.375 L 317.96875 262.226562 L 320.136719 271.042969 Z M 312.421875 266.261719 "/>
</g>
</svg>
