<?xml version="1.0" encoding="UTF-8"?>
<svg xmlns="http://www.w3.org/2000/svg" xmlns:xlink="http://www.w3.org/1999/xlink" width="384pt" height="384pt" viewBox="0 0 384 384" version="1.1">
<g id="surface1">
<path style=" stroke:none;fill-rule:evenodd;fill:rgb(0%,0%,100%);fill-opacity:1;" d="M -39 -0.378906 L 537 -0.378906 L 537 94.871094 L -39 94.871094 Z M -39 -0.378906 "/>
<path style=" stroke:none;fill-rule:evenodd;fill:rgb(100%,100%,0%);fill-opacity:1;" d="M -39 287.625 L 537 287.625 L 537 384 L -39 384 Z M -39 287.625 "/>
<path style=" stroke:none;fill-rule:evenodd;fill:rgb(0%,60.392157%,0%);fill-opacity:1;" d="M -39 191.25 L 537 191.25 L 537 287.625 L -39 287.625 Z M -39 191.25 "/>
<path style=" stroke:none;fill-rule:evenodd;fill:rgb(100%,100%,100%);fill-opacity:1;" d="M -39 94.867188 L 537 94.867188 L 537 191.242188 L -39 191.242188 Z M -39 94.867188 "/>
<path style=" stroke:none;fill-rule:evenodd;fill:rgb(100%,0%,0%);fill-opacity:1;" d="M 201 0 L 297 0 L 297 384 L 201 384 Z M 201 0 "/>
<path style=" stroke:none;fill-rule:evenodd;fill:rgb(100%,100%,0%);fill-opacity:1;" d="M 82.121094 84.230469 L 56.960938 66.832031 L 31.886719 84.398438 L 40.589844 54.996094 L 16.203125 36.484375 L 46.746094 35.707031 L 56.746094 6.703125 L 66.917969 35.625 L 97.484375 36.210938 L 73.234375 54.859375 Z M 82.121094 84.230469 "/>
</g>
</svg>
