<?xml version="1.0" encoding="UTF-8"?>
<svg xmlns="http://www.w3.org/2000/svg" xmlns:xlink="http://www.w3.org/1999/xlink" width="384pt" height="384pt" viewBox="0 0 384 384" version="1.1">
<g id="surface1">
<rect x="0" y="0" width="384" height="384" style="fill:rgb(0%,0%,40%);fill-opacity:1;stroke:none;"/>
<path style=" stroke:none;fill-rule:nonzero;fill:rgb(100%,100%,100%);fill-opacity:1;" d="M 0 0 L 0 15.34375 L 243.8125 137.25 L 274.5 137.25 L 274.5 121.90625 L 30.6875 0 Z M 274.5 0 L 274.5 15.34375 L 30.6875 137.25 L 0 137.25 L 0 121.90625 L 243.8125 0 Z M 274.5 0 "/>
<path style=" stroke:none;fill-rule:nonzero;fill:rgb(100%,100%,100%);fill-opacity:1;" d="M 114.375 0 L 114.375 137.25 L 160.125 137.25 L 160.125 0 Z M 0 45.75 L 0 91.5 L 274.5 91.5 L 274.5 45.75 Z M 0 45.75 "/>
<path style=" stroke:none;fill-rule:nonzero;fill:rgb(80%,0%,0%);fill-opacity:1;" d="M 0 54.898438 L 0 82.351562 L 274.5 82.351562 L 274.5 54.898438 Z M 123.523438 0 L 123.523438 137.25 L 150.976562 137.25 L 150.976562 0 Z M 123.523438 0 "/>
<path style=" stroke:none;fill-rule:nonzero;fill:rgb(80%,0%,0%);fill-opacity:1;" d="M 0 137.25 L 91.5 91.5 L 111.960938 91.5 L 20.460938 137.25 Z M 0 0 L 91.5 45.75 L 71.039062 45.75 L 0 10.230469 Z M 162.539062 45.75 L 254.039062 0 L 274.5 0 L 183 45.75 Z M 274.5 137.25 L 183 91.5 L 203.460938 91.5 L 274.5 127.019531 Z M 274.5 137.25 "/>
<path style=" stroke:none;fill-rule:evenodd;fill:rgb(100%,100%,100%);fill-opacity:1;" d="M 252.617188 187.578125 L 256.898438 173.847656 L 245.355469 165.078125 L 259.898438 164.890625 L 264.742188 151.351562 L 269.445312 164.964844 L 283.992188 165.363281 L 272.351562 173.960938 L 276.496094 187.753906 L 264.601562 179.453125 Z M 252.617188 187.578125 "/>
<path style=" stroke:none;fill-rule:evenodd;fill:rgb(100%,100%,100%);fill-opacity:1;" d="M 286.878906 190.277344 L 295.453125 178.796875 L 287.480469 166.609375 L 301.242188 171.382812 L 310.285156 160.277344 L 310.210938 174.699219 L 323.78125 180.023438 L 309.976562 184.164062 L 309.316406 198.566406 L 300.855469 186.699219 Z M 286.878906 190.277344 "/>
<path style=" stroke:none;fill-rule:evenodd;fill:rgb(100%,100%,100%);fill-opacity:1;" d="M 219.808594 199.035156 L 219.234375 184.644531 L 205.441406 180.375 L 219.058594 175.1875 L 219.078125 160.785156 L 228.0625 171.96875 L 241.875 167.332031 L 233.808594 179.425781 L 242.324219 190.972656 L 228.355469 187.261719 Z M 219.808594 199.035156 "/>
<path style=" stroke:none;fill-rule:evenodd;fill:rgb(100%,100%,100%);fill-opacity:1;" d="M 195.660156 220.921875 L 189.621094 207.890625 L 175.273438 209.394531 L 185.832031 199.25 L 180.335938 185.96875 L 192.894531 192.730469 L 203.84375 183.011719 L 201.050781 197.335938 L 213.316406 204.617188 L 199.027344 206.707031 Z M 195.660156 220.921875 "/>
<path style=" stroke:none;fill-rule:evenodd;fill:rgb(100%,100%,100%);fill-opacity:1;" d="M 184.636719 252.488281 L 173.671875 243.339844 L 161.347656 250.9375 L 166.597656 237.179688 L 156.015625 227.574219 L 170.222656 228.222656 L 176.007812 214.679688 L 179.535156 228.835938 L 193.699219 230.082031 L 181.671875 238.183594 Z M 184.636719 252.488281 "/>
<path style=" stroke:none;fill-rule:evenodd;fill:rgb(100%,100%,100%);fill-opacity:1;" d="M 184.375 287.949219 L 170.726562 283.980469 L 162.398438 295.925781 L 161.820312 281.183594 L 148.34375 276.640625 L 161.632812 271.5 L 161.628906 256.742188 L 170.417969 268.308594 L 183.898438 263.734375 L 176.039062 276.019531 Z M 184.375 287.949219 "/>
<path style=" stroke:none;fill-rule:evenodd;fill:rgb(100%,100%,100%);fill-opacity:1;" d="M 200.351562 317.90625 L 186.289062 319.878906 L 183.4375 334.21875 L 177.027344 320.976562 L 162.890625 322.351562 L 172.992188 312.199219 L 167.105469 298.703125 L 179.753906 305.671875 L 190.257812 295.957031 L 187.972656 310.417969 Z M 200.351562 317.90625 "/>
<path style=" stroke:none;fill-rule:evenodd;fill:rgb(100%,100%,100%);fill-opacity:1;" d="M 225.074219 341.675781 L 212.546875 348.453125 L 214.75 362.910156 L 204.226562 352.726562 L 191.429688 358.96875 L 197.453125 345.902344 L 187.332031 335.300781 L 201.578125 337.410156 L 208.128906 324.613281 L 210.90625 338.984375 Z M 225.074219 341.675781 "/>
<path style=" stroke:none;fill-rule:evenodd;fill:rgb(100%,100%,100%);fill-opacity:1;" d="M 255.25 346.371094 L 248.414062 358.992188 L 258.050781 369.875 L 243.753906 367.183594 L 236.402344 379.507812 L 234.402344 365.226562 L 220.210938 361.960938 L 233.277344 355.828125 L 231.863281 341.480469 L 241.9375 351.972656 Z M 255.25 346.371094 "/>
<path style=" stroke:none;fill-rule:evenodd;fill:rgb(100%,100%,100%);fill-opacity:1;" d="M 289.140625 341.160156 L 288.714844 355.554688 L 302.179688 360.796875 L 288.238281 365 L 287.21875 379.367188 L 279.03125 367.574219 L 264.933594 371.214844 L 273.816406 359.722656 L 266.121094 347.601562 L 279.796875 352.292969 Z M 289.140625 341.160156 "/>
<path style=" stroke:none;fill-rule:evenodd;fill:rgb(100%,100%,100%);fill-opacity:1;" d="M 324.65625 184.902344 L 334.492188 195.28125 L 347.609375 189.195312 L 340.8125 202.238281 L 350.214844 213.03125 L 336.179688 210.707031 L 328.878906 223.472656 L 327 208.996094 L 313.078125 206.085938 L 325.957031 199.460938 Z M 324.65625 184.902344 "/>
<path style=" stroke:none;fill-rule:evenodd;fill:rgb(100%,100%,100%);fill-opacity:1;" d="M 354.117188 216.847656 L 358.582031 230.515625 L 373 230.757812 L 361.328125 239.554688 L 365.226562 253.40625 L 353.550781 245.171875 L 341.535156 253.5 L 345.996094 239.613281 L 334.667969 230.902344 L 349.101562 230.554688 Z M 354.117188 216.847656 "/>
<path style=" stroke:none;fill-rule:evenodd;fill:rgb(100%,100%,100%);fill-opacity:1;" d="M 365.1875 257.910156 L 363.535156 272.210938 L 376.5 278.617188 L 362.253906 281.578125 L 360.011719 295.804688 L 352.863281 283.335938 L 338.507812 285.726562 L 348.335938 275.054688 L 341.703125 262.304688 L 354.929688 268.179688 Z M 365.1875 257.910156 "/>
<path style=" stroke:none;fill-rule:evenodd;fill:rgb(100%,100%,100%);fill-opacity:1;" d="M 357.390625 300.957031 L 350.992188 313.8125 L 360.996094 324.347656 L 346.613281 322.164062 L 339.691406 334.742188 L 337.199219 320.539062 L 322.90625 317.777344 L 335.753906 311.1875 L 333.847656 296.898438 L 344.277344 307.027344 Z M 357.390625 300.957031 "/>
<path style=" stroke:none;fill-rule:evenodd;fill:rgb(100%,100%,100%);fill-opacity:1;" d="M 336.15625 339.242188 L 324.070312 346.796875 L 327.15625 361.085938 L 316.03125 351.585938 L 303.636719 358.621094 L 308.851562 345.203125 L 298.097656 335.257812 L 312.445312 336.464844 L 318.199219 323.28125 L 321.851562 337.449219 Z M 336.15625 339.242188 "/>
</g>
</svg>
