<?xml version="1.0" encoding="UTF-8"?>
<svg xmlns="http://www.w3.org/2000/svg" xmlns:xlink="http://www.w3.org/1999/xlink" width="384pt" height="384pt" viewBox="0 0 384 384" version="1.1">
<g id="surface1">
<rect x="0" y="0" width="384" height="384" style="fill:rgb(87.058824%,16.078431%,6.27451%);fill-opacity:1;stroke:none;"/>
<path style=" stroke:none;fill-rule:nonzero;fill:rgb(100%,87.058824%,0%);fill-opacity:1;" d="M 150.78125 78.199219 L 62.144531 142.597656 L 96 38.398438 L 129.855469 142.597656 L 41.21875 78.199219 Z M 150.78125 78.199219 "/>
<path style=" stroke:none;fill-rule:nonzero;fill:rgb(100%,87.058824%,0%);fill-opacity:1;" d="M 177.515625 25.792969 L 211.125 40.085938 L 175.535156 48.277344 L 199.511719 20.730469 L 196.308594 57.109375 Z M 177.515625 25.792969 "/>
<path style=" stroke:none;fill-rule:nonzero;fill:rgb(100%,87.058824%,0%);fill-opacity:1;" d="M 221.945312 59.5625 L 247.371094 85.773438 L 211.394531 79.515625 L 244.179688 63.429688 L 227.109375 95.714844 Z M 221.945312 59.5625 "/>
<path style=" stroke:none;fill-rule:nonzero;fill:rgb(100%,87.058824%,0%);fill-opacity:1;" d="M 229.710938 115.210938 L 242.234375 149.519531 L 211.9375 129.125 L 248.4375 127.816406 L 219.679688 150.328125 Z M 229.710938 115.210938 "/>
<path style=" stroke:none;fill-rule:nonzero;fill:rgb(100%,87.058824%,0%);fill-opacity:1;" d="M 198.773438 154.835938 L 197.078125 191.316406 L 177.007812 160.804688 L 211.179688 173.691406 L 175.960938 183.351562 Z M 198.773438 154.835938 "/>
</g>
</svg>
