<?xml version="1.0" encoding="UTF-8"?>
<svg xmlns="http://www.w3.org/2000/svg" xmlns:xlink="http://www.w3.org/1999/xlink" width="384pt" height="384pt" viewBox="0 0 384 384" version="1.1">
<g id="surface1">
<path style=" stroke:none;fill-rule:evenodd;fill:rgb(100%,100%,100%);fill-opacity:1;" d="M -92.574219 174.789062 L 542.324219 174.789062 L 542.324219 329.265625 L -92.574219 329.265625 Z M -92.574219 174.789062 "/>
<path style=" stroke:none;fill-rule:evenodd;fill:rgb(3.137255%,9.411765%,45.098039%);fill-opacity:1;" d="M -92.070312 0 L 542.390625 0 L 542.390625 192.480469 L -92.070312 192.480469 Z M -92.070312 0 "/>
<path style=" stroke:none;fill-rule:evenodd;fill:rgb(3.137255%,9.411765%,45.098039%);fill-opacity:1;" d="M -91.890625 289.402344 L 547.199219 289.402344 L 547.199219 384 L -91.890625 384 Z M -91.890625 289.402344 "/>
<path style=" stroke:none;fill-rule:evenodd;fill:rgb(87.058824%,22.352941%,16.078431%);fill-opacity:1;" d="M -91.890625 226.914062 L 542.574219 226.914062 L 542.574219 256.648438 L -91.890625 256.648438 Z M -91.890625 226.914062 "/>
<path style=" stroke:none;fill-rule:evenodd;fill:rgb(100%,80.784314%,3.137255%);fill-opacity:1;" d="M 98.191406 299.375 L 103.179688 314.726562 L 119.320312 314.726562 L 106.261719 324.214844 L 111.25 339.566406 L 98.191406 330.078125 L 85.132812 339.566406 L 90.121094 324.214844 L 77.0625 314.726562 L 93.203125 314.726562 Z M 98.191406 299.375 "/>
<path style=" stroke:none;fill-rule:evenodd;fill:rgb(100%,80.784314%,3.137255%);fill-opacity:1;" d="M 237.683594 187.875 L 242.671875 203.226562 L 258.8125 203.226562 L 245.753906 212.710938 L 250.742188 228.0625 L 237.683594 218.574219 L 224.625 228.0625 L 229.613281 212.710938 L 216.554688 203.226562 L 232.695312 203.226562 Z M 237.683594 187.875 "/>
<path style=" stroke:none;fill-rule:evenodd;fill:rgb(100%,80.784314%,3.137255%);fill-opacity:1;" d="M 66.203125 251.585938 L 71.191406 266.9375 L 87.332031 266.9375 L 74.273438 276.425781 L 79.261719 291.777344 L 66.203125 282.289062 L 53.144531 291.777344 L 58.132812 276.425781 L 45.074219 266.9375 L 61.214844 266.9375 Z M 66.203125 251.585938 "/>
<path style=" stroke:none;fill-rule:evenodd;fill:rgb(100%,80.784314%,3.137255%);fill-opacity:1;" d="M 237.683594 247.09375 L 242.671875 262.445312 L 258.8125 262.445312 L 245.753906 271.933594 L 250.742188 287.285156 L 237.683594 277.796875 L 224.625 287.285156 L 229.613281 271.933594 L 216.554688 262.445312 L 232.695312 262.445312 Z M 237.683594 247.09375 "/>
<path style=" stroke:none;fill-rule:evenodd;fill:rgb(100%,80.784314%,3.137255%);fill-opacity:1;" d="M 202.363281 141.132812 L 207.351562 156.484375 L 223.492188 156.484375 L 210.433594 165.972656 L 215.421875 181.324219 L 202.363281 171.835938 L 189.304688 181.324219 L 194.292969 165.972656 L 181.234375 156.484375 L 197.378906 156.484375 Z M 202.363281 141.132812 "/>
<path style=" stroke:none;fill-rule:evenodd;fill:rgb(100%,80.784314%,3.137255%);fill-opacity:1;" d="M 149.054688 122.570312 L 154.042969 137.921875 L 170.183594 137.921875 L 157.125 147.410156 L 162.113281 162.761719 L 149.054688 153.273438 L 135.996094 162.761719 L 140.984375 147.410156 L 127.925781 137.921875 L 144.066406 137.921875 Z M 149.054688 122.570312 "/>
<path style=" stroke:none;fill-rule:evenodd;fill:rgb(100%,80.784314%,3.137255%);fill-opacity:1;" d="M 95.738281 140.089844 L 100.726562 155.441406 L 116.867188 155.441406 L 103.808594 164.929688 L 108.796875 180.28125 L 95.738281 170.792969 L 82.679688 180.28125 L 87.667969 164.929688 L 74.609375 155.441406 L 90.75 155.441406 Z M 95.738281 140.089844 "/>
<path style=" stroke:none;fill-rule:evenodd;fill:rgb(100%,80.784314%,3.137255%);fill-opacity:1;" d="M 64.636719 187.875 L 69.625 203.226562 L 85.765625 203.226562 L 72.707031 212.710938 L 77.695312 228.0625 L 64.636719 218.574219 L 51.578125 228.0625 L 56.566406 212.710938 L 43.507812 203.226562 L 59.648438 203.226562 Z M 64.636719 187.875 "/>
<path style=" stroke:none;fill-rule:evenodd;fill:rgb(100%,80.784314%,3.137255%);fill-opacity:1;" d="M 149.054688 315.304688 L 154.042969 330.65625 L 170.183594 330.65625 L 157.125 340.144531 L 162.113281 355.496094 L 149.054688 346.007812 L 135.996094 355.496094 L 140.984375 340.144531 L 127.925781 330.65625 L 144.066406 330.65625 Z M 149.054688 315.304688 "/>
<path style=" stroke:none;fill-rule:evenodd;fill:rgb(100%,80.784314%,3.137255%);fill-opacity:1;" d="M 205.695312 299.375 L 210.683594 314.726562 L 226.824219 314.726562 L 213.765625 324.214844 L 218.753906 339.566406 L 205.695312 330.078125 L 192.636719 339.566406 L 197.625 324.214844 L 184.566406 314.726562 L 200.707031 314.726562 Z M 205.695312 299.375 "/>
</g>
</svg>
