<?xml version="1.0" encoding="UTF-8"?>
<svg xmlns="http://www.w3.org/2000/svg" xmlns:xlink="http://www.w3.org/1999/xlink" width="384pt" height="384pt" viewBox="0 0 384 384" version="1.1">
<g id="surface1">
<rect x="0" y="0" width="384" height="384" style="fill:rgb(0%,16.862745%,49.803922%);fill-opacity:1;stroke:none;"/>
<path style=" stroke:none;fill-rule:nonzero;fill:rgb(97.647059%,90.980392%,7.843137%);fill-opacity:1;" d="M 0 240 L 576 240 L 576 288 L 0 288 Z M 0 240 "/>
<path style=" stroke:none;fill-rule:nonzero;fill:rgb(100%,100%,100%);fill-opacity:1;" d="M 64 32 L 71.183594 54.113281 L 94.433594 54.113281 L 75.625 67.777344 L 82.808594 89.890625 L 64 76.222656 L 45.191406 89.890625 L 52.375 67.777344 L 33.566406 54.113281 L 56.816406 54.113281 Z M 64 32 "/>
<path style=" stroke:none;fill-rule:nonzero;fill:rgb(100%,100%,100%);fill-opacity:1;" d="M 128 85.332031 L 137.578125 114.816406 L 168.578125 114.816406 L 143.5 133.035156 L 153.078125 162.519531 L 128 144.296875 L 102.921875 162.519531 L 112.5 133.035156 L 87.421875 114.816406 L 118.421875 114.816406 Z M 128 85.332031 "/>
</g>
</svg>
