<?xml version="1.0" encoding="UTF-8"?>
<svg xmlns="http://www.w3.org/2000/svg" xmlns:xlink="http://www.w3.org/1999/xlink" width="384pt" height="384pt" viewBox="0 0 384 384" version="1.1">
<g id="surface1">
<rect x="0" y="0" width="384" height="384" style="fill:rgb(0%,12.941176%,67.843137%);fill-opacity:1;stroke:none;"/>
<path style=" stroke:none;fill-rule:evenodd;fill:rgb(10.980392%,54.117647%,25.882353%);fill-opacity:1;" d="M 0 0 L 384 384 L 383.78125 0.285156 Z M 0 0 "/>
<path style=" stroke:none;fill-rule:evenodd;fill:rgb(100%,77.647059%,22.352941%);fill-opacity:1;" d="M 259.039062 194.058594 C 259.039062 232.371094 227.980469 263.429688 189.667969 263.429688 C 151.359375 263.429688 120.300781 232.371094 120.300781 194.058594 C 120.300781 155.75 151.359375 124.691406 189.667969 124.691406 C 227.980469 124.691406 259.039062 155.75 259.039062 194.058594 Z M 259.039062 194.058594 "/>
<path style=" stroke:none;fill-rule:evenodd;fill:rgb(10.980392%,54.117647%,25.882353%);fill-opacity:1;" d="M 146.542969 163.101562 C 151.289062 169.617188 158.476562 180.527344 164.261719 177.683594 C 168.769531 177.699219 171.101562 178.019531 171.714844 181.015625 C 182.359375 182.832031 200.25 178.339844 211.375 163.84375 C 211.375 163.84375 212.316406 163.964844 211.988281 158.457031 C 212.050781 156.050781 215.273438 156.535156 215.351562 157.3125 C 215.800781 158.503906 215.71875 159.402344 216.324219 159.429688 C 217.699219 158.96875 219.570312 155.898438 221.140625 153.949219 C 221.570312 153.089844 221.335938 152.179688 221.4375 151.101562 C 222.261719 149.0625 224.328125 149.507812 224.765625 150.574219 C 225.15625 151.261719 225.164062 151.789062 225.554688 152.476562 C 227.648438 153.875 231.4375 152.570312 231.734375 152.570312 C 232.105469 150.863281 233.203125 151.023438 233.203125 151.023438 C 234.601562 150.714844 234.054688 150.839844 234.96875 151.316406 C 234.160156 160.539062 236.78125 160.945312 236.566406 165.675781 C 236.660156 170.953125 234.96875 172.453125 234.96875 174.472656 C 235.503906 176.929688 243.292969 177.011719 240.550781 179.09375 C 238.144531 180.382812 240.566406 182.792969 236.9375 183.726562 C 226.398438 189.078125 224.378906 193.667969 224.378906 193.667969 C 224.378906 193.667969 221.730469 198.667969 221.4375 198.667969 C 219.667969 202.007812 217.429688 200.183594 216.1875 201.8125 C 215.566406 203.855469 214.867188 208.382812 216.109375 210.734375 C 216.730469 213.96875 216.035156 215.734375 215.257812 218.972656 C 214.558594 225.71875 211.882812 226.742188 211.574219 229.117188 C 210.332031 231.644531 211.835938 243.53125 210.660156 243.53125 C 202.808594 243.6875 196.792969 242.03125 193.691406 241.410156 C 196.714844 228.371094 195.542969 216.910156 195.542969 215.734375 C 194.765625 206.40625 181.566406 208.679688 179.550781 207.4375 C 177.875 207.082031 176.824219 205.71875 176.234375 205.128906 C 174.367188 204.933594 173.671875 204.503906 171.804688 204.308594 C 170.875 204.773438 171.4375 205.257812 169.359375 205.894531 C 164.097656 206.527344 161.769531 201.308594 161.769531 201.308594 C 162.027344 199.546875 149.941406 201.664062 143.367188 200.140625 C 140.675781 201.644531 139.5 206.082031 137.289062 206.613281 C 137.226562 207.988281 133.660156 205.480469 132.941406 204.128906 C 132.789062 200.1875 136.378906 198.441406 136.378906 198.441406 C 139.222656 196.441406 140.914062 196.109375 142.285156 194.730469 C 142.972656 191.296875 142.625 188.761719 144.089844 186.179688 C 145.324219 184.210938 147.152344 185.136719 148.390625 184.25 C 149.722656 183.371094 150.285156 177.597656 149.058594 176.015625 C 149.058594 176.015625 143.730469 171.207031 143.4375 170.914062 C 141.703125 165.945312 145.460938 162.742188 146.542969 163.101562 Z M 146.542969 163.101562 "/>
<path style=" stroke:none;fill-rule:evenodd;fill:rgb(100%,77.647059%,22.352941%);fill-opacity:1;" d="M 341.632812 48.378906 C 339.804688 41.152344 323.453125 25.578125 311.164062 15.671875 C 308.226562 13.671875 306.316406 14.863281 306.699219 17.710938 C 308.230469 20.265625 309.375 23.070312 310.90625 25.621094 C 311.332031 27.324219 312.140625 28.511719 312.566406 30.214844 C 312.566406 30.214844 312.691406 33.148438 312.949219 33.402344 C 316.777344 37.613281 317.285156 41.1875 317.285156 41.1875 C 319.496094 45.4375 321.453125 48.542969 325.324219 52.03125 C 329.660156 54.75 326.472656 63.214844 326.597656 67.722656 C 326.597656 70.570312 324.558594 70.230469 322.773438 69.890625 C 308.695312 56.964844 294.75 56.921875 282.457031 53.179688 C 277.652344 52.667969 277.566406 54.964844 279.140625 56.242188 C 287.730469 65.425781 295.8125 71.675781 306.445312 76.90625 C 308.230469 78.015625 310.015625 79.121094 311.800781 80.226562 C 313.84375 81.925781 315.882812 83.628906 317.925781 85.328125 C 322.644531 88.390625 323.027344 91.199219 323.027344 91.453125 C 323.15625 97.191406 320.09375 101.65625 319.199219 103.445312 C 317.585938 109.53125 314.351562 110.589844 314.351562 110.589844 C 288.070312 128.320312 274.292969 132.914062 231.679688 127.429688 C 231.042969 127.085938 226.960938 127.769531 231.679688 129.46875 C 242.523438 133.082031 269.164062 138.878906 294.9375 126.675781 C 301.125 122.335938 305.261719 123.757812 309.746094 121.164062 C 317.105469 116.625 327.617188 110.972656 329.53125 110.332031 C 335.273438 107.273438 351.347656 103.828125 355.046875 100.765625 C 359.300781 100.425781 363.703125 99.867188 364.003906 96.210938 C 365.402344 95.308594 367.441406 95.964844 368.960938 92.988281 C 372.328125 92.402344 371.761719 91.195312 371.761719 91.195312 C 370.910156 88.816406 367.761719 87.835938 365.511719 86.09375 C 362.191406 84.988281 359.898438 84.648438 357.472656 85.835938 C 356.707031 86.179688 355.941406 86.519531 355.175781 86.859375 C 355.175781 86.859375 351.601562 86.347656 351.601562 86.09375 C 343.664062 85.65625 344.4375 59.351562 341.628906 48.378906 Z M 341.632812 48.378906 "/>
<path style=" stroke:none;fill-rule:evenodd;fill:rgb(10.980392%,54.117647%,25.882353%);fill-opacity:1;" d="M 360.242188 91.445312 C 360.015625 92.085938 358.992188 92.339844 357.957031 92.015625 C 356.925781 91.691406 356.273438 90.910156 356.503906 90.273438 C 356.730469 89.632812 357.753906 89.378906 358.789062 89.703125 C 359.820312 90.027344 360.472656 90.808594 360.242188 91.445312 Z M 360.242188 91.445312 "/>
<path style=" stroke:none;fill-rule:evenodd;fill:rgb(100%,100%,100%);fill-opacity:1;" d="M 39.675781 294.175781 L 30.851562 285.917969 L 21.921875 294.0625 L 22.878906 282.019531 L 10.941406 280.113281 L 20.960938 273.347656 L 15.003906 262.832031 L 26.539062 266.445312 L 31.050781 255.230469 L 35.414062 266.5 L 46.996094 263.035156 L 40.90625 273.476562 L 50.835938 280.367188 L 38.875 282.121094 Z M 39.675781 294.175781 "/>
<path style=" stroke:none;fill-rule:evenodd;fill:rgb(100%,100%,100%);fill-opacity:1;" d="M 99.363281 223.863281 L 92.410156 217.359375 L 85.378906 223.773438 L 86.132812 214.289062 L 76.730469 212.789062 L 84.621094 207.460938 L 79.929688 199.175781 L 89.015625 202.023438 L 92.566406 193.191406 L 96.007812 202.066406 L 105.125 199.335938 L 100.328125 207.5625 L 108.152344 212.988281 L 98.730469 214.367188 Z M 99.363281 223.863281 "/>
<path style=" stroke:none;fill-rule:evenodd;fill:rgb(100%,100%,100%);fill-opacity:1;" d="M 108.445312 372.9375 L 96.828125 367.082031 L 92.183594 379.238281 L 88.113281 366.878906 L 76.230469 372.191406 L 82.089844 360.574219 L 69.9375 355.929688 L 82.296875 351.855469 L 76.980469 339.980469 L 88.597656 345.835938 L 93.246094 333.679688 L 97.316406 346.039062 L 109.195312 340.726562 L 103.339844 352.347656 L 115.488281 356.988281 L 103.132812 361.0625 Z M 108.445312 372.9375 "/>
<path style=" stroke:none;fill-rule:evenodd;fill:rgb(100%,100%,100%);fill-opacity:1;" d="M 161.523438 285.515625 L 152.730469 285.253906 L 148.488281 292.96875 L 144.3125 285.21875 L 135.519531 285.402344 L 140.148438 277.917969 L 135.578125 270.390625 L 144.382812 270.652344 L 148.617188 262.9375 L 152.789062 270.6875 L 161.589844 270.5 L 156.964844 277.984375 Z M 161.523438 285.515625 "/>
<path style=" stroke:none;fill-rule:evenodd;fill:rgb(100%,100%,100%);fill-opacity:1;" d="M 105.867188 309.492188 L 98.371094 304.488281 L 91.074219 309.757812 L 93.640625 301.273438 L 86.238281 296.140625 L 95.324219 295.898438 L 98.042969 287.449219 L 101.089844 295.789062 L 110.175781 295.703125 L 102.976562 301.101562 Z M 105.867188 309.492188 "/>
</g>
</svg>
