<?xml version="1.0" encoding="UTF-8"?>
<svg xmlns="http://www.w3.org/2000/svg" xmlns:xlink="http://www.w3.org/1999/xlink" width="384pt" height="384pt" viewBox="0 0 384 384" version="1.1">
<g id="surface1">
<path style=" stroke:none;fill-rule:nonzero;fill:rgb(100%,100%,100%);fill-opacity:1;" d="M -1.566406 1.566406 L 382.433594 1.566406 L 382.433594 385.566406 L -1.566406 385.566406 Z M -1.566406 1.566406 "/>
<path style=" stroke:none;fill-rule:evenodd;fill:rgb(50.196078%,50.196078%,50.196078%);fill-opacity:1;" d="M 191.355469 178.558594 L 192.390625 177.199219 L 191.851562 175.578125 L 193.464844 176.136719 L 194.84375 175.125 L 194.808594 176.832031 L 196.191406 177.832031 L 194.5625 178.324219 L 194.042969 179.953125 L 193.066406 178.550781 Z M 191.355469 178.558594 "/>
<path style=" stroke:none;fill-rule:evenodd;fill:rgb(100%,80.784314%,0%);fill-opacity:1;" d="M 96.203125 193.410156 L 96.390625 193.410156 C 95.890625 193.410156 96.152344 193.371094 96.953125 193.984375 C 97.609375 194.25 98.1875 194.367188 99.207031 194.367188 C 100.105469 194.429688 100.878906 194.558594 101.835938 194.558594 C 102.71875 194.9375 103.222656 195.28125 103.902344 195.511719 C 104.207031 195.976562 104.863281 197.019531 105.21875 197.425781 C 105.878906 197.921875 106.679688 198.222656 107.285156 198.761719 C 108.042969 198.972656 108.523438 199.300781 109.351562 199.910156 C 109.976562 200.210938 110.566406 200.460938 111.417969 200.867188 C 112.234375 201.152344 113.128906 201.539062 113.859375 201.824219 C 114.503906 201.976562 115.363281 202.238281 115.925781 202.585938 C 116.722656 202.761719 117.394531 202.988281 118.367188 203.160156 C 119.363281 203.28125 119.863281 203.546875 120.808594 203.734375 C 121.660156 204.171875 122.320312 204.496094 123.253906 204.882812 C 123.628906 205.449219 123.957031 205.957031 124.753906 206.21875 C 125.164062 206.726562 125.847656 206.859375 126.257812 207.367188 C 126.863281 207.660156 127.53125 207.851562 128.324219 208.132812 C 129.28125 208.199219 129.972656 208.476562 130.953125 208.515625 L 136.214844 208.515625 C 137.050781 208.617188 137.992188 208.75 138.65625 208.894531 C 139.574219 208.894531 140.472656 208.914062 141.285156 208.707031 C 142.335938 208.691406 142.828125 208.394531 143.726562 208.324219 C 144.734375 208.484375 145.414062 208.394531 145.792969 209.277344 C 146.417969 209.914062 146.796875 210.53125 146.921875 211.382812 C 147.117188 211.988281 147.109375 212.984375 147.109375 213.867188 C 147.109375 214.699219 147.113281 215.601562 147.296875 216.160156 C 147.894531 216.75 148.359375 216.921875 149.175781 217.117188 C 149.78125 217.320312 150.890625 217.5 151.429688 217.882812 C 151.875 218.355469 152.089844 219.109375 152.746094 219.601562 C 153.316406 220.050781 154.273438 220.144531 155.1875 220.175781 L 157.816406 220.175781 C 158.636719 220.175781 159.726562 220.257812 160.257812 219.984375 C 161.070312 219.683594 161.285156 219.125 162.324219 219.03125 C 163.304688 219.179688 163.285156 219.652344 164.015625 219.984375 C 164.480469 220.667969 164.921875 220.949219 165.519531 221.324219 C 165.902344 221.886719 166.410156 222.320312 167.207031 222.472656 C 168.1875 222.371094 169.074219 222.078125 169.839844 221.898438 C 170.105469 221.214844 170.433594 220.742188 170.777344 220.175781 C 171.03125 219.738281 171.152344 219.625 171.152344 218.839844 C 171.433594 218.265625 171.398438 217.105469 171.152344 216.351562 C 171.117188 215.378906 170.894531 214.867188 170.777344 213.867188 C 170.777344 212.941406 170.820312 212.058594 170.964844 211.382812 C 171.351562 210.929688 171.601562 210.1875 171.90625 209.660156 C 172.417969 209.035156 172.890625 208.800781 173.59375 208.515625 C 174.191406 208.3125 175.171875 208.324219 176.039062 208.324219 C 176.496094 208.183594 177.261719 208.230469 176.976562 207.941406 C 176.734375 208.1875 175.796875 208.265625 176.789062 208.324219 C 177.328125 207.949219 178.3125 207.78125 178.855469 207.558594 C 179.65625 207.433594 180.140625 207.15625 180.921875 206.984375 C 181.507812 206.636719 182.164062 206.46875 182.988281 206.21875 C 183.667969 205.957031 184.433594 205.699219 185.242188 205.453125 C 186.105469 205.042969 186.640625 204.808594 187.496094 204.691406 C 188.085938 204.375 188.824219 204.308594 189.75 204.308594 C 190.617188 204.875 191.074219 205.320312 191.816406 206.027344 C 192.171875 206.558594 192.488281 206.878906 192.757812 207.558594 C 193.355469 207.972656 193.679688 208.28125 194.824219 208.324219 C 195.726562 208.324219 196.085938 208.480469 196.324219 207.75 C 196.820312 207.300781 197.074219 206.507812 197.640625 206.027344 C 198.199219 205.46875 198.894531 205.183594 199.519531 204.882812 C 200.222656 204.6875 200.792969 204.425781 201.773438 204.308594 C 202.425781 204.066406 203.097656 204.015625 203.839844 204.5 C 204.390625 205.28125 205.011719 206.082031 205.71875 206.984375 C 206.195312 207.300781 206.78125 207.367188 207.597656 207.367188 C 208.167969 207.074219 209.351562 207.175781 210.226562 207.175781 C 210.996094 207.402344 211.332031 207.917969 212.105469 208.132812 C 212.535156 208.175781 212.769531 208.324219 213.230469 208.324219 C 214.605469 208.503906 215.175781 208.367188 216.238281 208.132812 L 218.867188 208.132812 C 219.789062 208.167969 220.289062 208.324219 221.308594 208.324219 C 221.878906 208.675781 222.859375 208.839844 223.5625 209.085938 C 224.453125 209.300781 224.621094 209.644531 225.441406 210.042969 C 225.972656 210.3125 227.0625 210.234375 227.882812 210.234375 C 228.863281 210.117188 229.515625 209.945312 230.324219 209.660156 C 231.039062 209.484375 231.339844 209.300781 231.640625 208.707031 C 232.109375 208.382812 232.753906 207.863281 233.144531 207.367188 C 233.660156 207.011719 234.105469 206.554688 234.457031 206.027344 C 234.964844 205.6875 235.816406 204.824219 236.148438 204.308594 C 236.628906 203.917969 237.140625 203.097656 237.464844 202.585938 C 237.875 201.964844 238.394531 201.601562 238.777344 200.675781 C 239.070312 199.78125 239.109375 199.082031 239.34375 198.191406 C 239.535156 197.46875 239.890625 196.855469 240.09375 195.894531 C 240.476562 195.058594 240.78125 194.242188 241.03125 193.601562 C 241.496094 193.074219 241.800781 192.4375 242.347656 191.878906 C 242.664062 191.386719 243.082031 191.132812 243.476562 190.734375 C 243.921875 190.300781 244.597656 189.976562 245.351562 189.777344 C 246.128906 189.5625 246.464844 189.214844 246.855469 188.628906 C 247.566406 188.390625 247.984375 188.078125 248.921875 187.867188 C 249.746094 187.617188 250.421875 187.460938 251.175781 187.292969 L 253.808594 187.292969 C 254.753906 187.292969 255.570312 187.378906 256.4375 187.484375 C 257.292969 187.730469 258.097656 187.949219 258.878906 188.058594 C 259.417969 188.316406 260.3125 188.789062 260.757812 189.203125 C 261.316406 189.582031 261.929688 190.191406 262.261719 190.734375 C 262.503906 191.484375 262.90625 191.816406 263.386719 192.453125 C 263.886719 193.117188 264.3125 193.539062 265.265625 193.984375 C 266.027344 194.164062 266.648438 194.488281 267.519531 194.558594 C 268.515625 194.558594 269.121094 194.683594 269.960938 194.75 C 270.878906 194.75 271.777344 194.765625 272.589844 194.558594 C 273.410156 194.074219 273.707031 193.945312 274.28125 193.21875 C 275.039062 192.839844 275.589844 192.539062 276.535156 192.453125 C 277.160156 192.316406 277.929688 192.261719 278.789062 192.261719 C 279.277344 192.605469 279.796875 192.730469 280.105469 193.21875 C 280.601562 193.574219 280.632812 193.769531 281.421875 193.792969 C 281.957031 194.113281 282.75 194.265625 283.488281 194.367188 L 286.117188 194.367188 L 283.488281 194.367188 L 286.117188 194.367188 C 286.835938 193.75 287.054688 193.820312 287.054688 193.027344 C 287.636719 192.554688 287.925781 191.890625 288.558594 191.117188 C 288.902344 190.546875 289.230469 190.078125 289.496094 189.394531 C 289.703125 188.769531 289.957031 187.808594 290.0625 187.101562 C 290.296875 186.46875 290.523438 185.492188 290.625 184.617188 C 290.851562 183.730469 291 182.941406 291 181.9375 L 291 179.261719 C 290.988281 178.316406 290.851562 177.65625 290.625 176.96875 C 290.328125 176.125 289.828125 175.507812 289.496094 174.863281 C 288.941406 174.417969 288.253906 173.792969 287.808594 173.335938 C 286.953125 172.8125 286.304688 172.429688 285.554688 171.996094 C 284.730469 171.480469 283.941406 171.027344 283.296875 170.660156 C 282.921875 170.230469 282.308594 169.640625 281.984375 169.320312 C 281.726562 168.796875 281.726562 167.550781 281.984375 167.027344 C 282.007812 166.230469 282.089844 165.773438 282.546875 165.304688 C 283.402344 164.992188 283.972656 164.582031 284.613281 164.160156 C 285.027344 163.566406 285.679688 163.453125 286.492188 162.820312 C 287.304688 162.457031 287.765625 162.265625 288.371094 161.671875 C 289.25 161.375 290.070312 160.765625 290.8125 160.527344 C 291.214844 160.03125 291.96875 159.621094 292.878906 159.378906 C 293.53125 158.925781 294.308594 158.445312 294.945312 158.230469 C 295.828125 157.753906 296.488281 157.585938 297.386719 157.085938 C 298.304688 156.851562 299.125 156.429688 300.015625 156.128906 C 300.246094 155.84375 300.519531 155.632812 300.957031 155.554688 C 302.125 155.484375 303.101562 155.355469 303.773438 154.789062 C 304.53125 154.519531 304.609375 153.964844 305.089844 153.453125 C 305.433594 152.820312 305.8125 152.539062 306.027344 151.730469 C 306.625 151.078125 306.296875 150.886719 305.277344 150.773438 C 304.957031 150.449219 304.667969 150.777344 304.527344 150.203125 C 303.851562 149.894531 303.675781 149.359375 303.210938 148.863281 C 302.925781 148.074219 302.933594 147.71875 303.773438 147.332031 C 304.296875 146.972656 305.042969 146.851562 305.464844 146.378906 C 306.246094 146.257812 306.84375 145.914062 307.53125 145.613281 C 308.550781 145.539062 309.09375 145.304688 309.972656 145.039062 C 310.71875 144.632812 311.207031 144.394531 311.851562 144.082031 C 312.625 143.742188 313.542969 143.261719 314.292969 142.9375 C 314.96875 142.480469 315.824219 142.03125 316.734375 141.789062 C 317.410156 141.441406 318.234375 141.167969 318.988281 140.832031 C 319.632812 140.679688 320.492188 140.417969 321.054688 140.070312 C 321.921875 139.902344 322.859375 139.582031 323.5 139.304688 C 324.125 139.015625 324.867188 138.652344 325.375 138.347656 C 326.15625 138.003906 326.710938 137.597656 327.441406 137.390625 C 327.886719 136.960938 328.484375 136.65625 329.132812 136.4375 C 329.664062 135.9375 330.785156 135.246094 331.386719 134.90625 C 331.957031 134.632812 332.625 134.351562 333.078125 133.949219 C 333.515625 133.902344 333.390625 133.808594 333.828125 133.757812 C 335.199219 133.339844 335.898438 133.183594 336.648438 132.421875 C 337.230469 132.140625 337.828125 131.835938 338.339844 131.464844 C 338.964844 130.960938 339.464844 130.5 339.839844 129.9375 C 340.523438 129.6875 340.898438 129.207031 341.53125 128.789062 C 342.1875 128.523438 342.765625 128.40625 343.785156 128.40625 C 344.605469 128.40625 345.695312 128.484375 346.226562 128.214844 C 347.40625 128.199219 347.714844 127.914062 348.480469 127.449219 C 348.734375 126.71875 349.277344 126.355469 349.984375 125.921875 C 350.398438 125.535156 351.449219 124.957031 351.863281 124.582031 C 352.675781 124.1875 353.027344 123.679688 353.742188 123.054688 C 354.292969 122.449219 354.984375 121.890625 355.621094 121.523438 C 356.410156 121.171875 356.976562 121.015625 357.6875 120.757812 C 358.574219 120.597656 359.46875 120.429688 360.3125 120.183594 C 361.273438 120.109375 361.613281 119.824219 362.382812 119.613281 C 362.914062 119.09375 363.238281 118.835938 363.886719 118.082031 C 364.203125 117.203125 364.671875 116.882812 365.574219 116.742188 C 366.484375 116.261719 367.210938 116.203125 367.832031 115.597656 C 368.46875 114.949219 368.90625 114.222656 369.523438 113.492188 C 369.871094 112.667969 370.195312 112.175781 370.273438 111.199219 C 370.257812 110.027344 370.007812 109.859375 369.523438 109.097656 C 369.050781 108.410156 368.757812 107.976562 368.394531 107.375 C 367.808594 107.039062 366.980469 106.703125 366.324219 106.417969 C 365.433594 106.488281 364.882812 106.695312 364.261719 106.992188 C 363.621094 107.519531 363.179688 107.953125 362.757812 108.714844 C 362.472656 109.328125 362.28125 110.007812 362.007812 110.816406 C 361.652344 111.335938 360.796875 111.832031 360.125 112.15625 C 359.339844 112.503906 358.777344 112.664062 358.0625 112.921875 C 357.171875 113.234375 356.757812 113.503906 355.808594 113.875 C 355.253906 114.144531 354.484375 114.554688 353.929688 114.832031 C 353.113281 115.328125 352.328125 115.710938 351.675781 115.980469 C 350.84375 116.460938 350.367188 116.726562 349.609375 116.933594 C 348.753906 117.453125 347.929688 117.84375 347.167969 118.273438 C 346.535156 118.589844 345.917969 119 345.101562 119.421875 C 344.4375 119.566406 343.496094 119.703125 342.660156 119.804688 L 339.839844 119.804688 C 339.039062 119.613281 338.082031 119.449219 337.210938 119.039062 C 336.277344 118.546875 335.816406 118.234375 335.144531 117.699219 C 334.734375 116.882812 334.59375 116.496094 334.582031 115.40625 C 333.996094 115.109375 333.191406 115.035156 332.328125 115.023438 C 331.375 115.023438 330.492188 114.988281 329.886719 115.40625 C 329.066406 115.53125 328.378906 115.867188 327.820312 116.363281 C 326.953125 116.78125 326.390625 117.285156 325.753906 117.699219 C 325.089844 118.105469 324.234375 118.714844 323.5 119.039062 C 322.808594 119.339844 321.726562 119.671875 320.867188 119.992188 C 319.765625 120.316406 318.96875 120.671875 317.863281 120.757812 C 316.917969 121.191406 316.179688 121.324219 315.234375 121.714844 C 314.269531 122.078125 313.589844 122.347656 312.601562 122.671875 C 311.949219 123.007812 310.773438 123.574219 310.160156 124.007812 C 309.039062 124.582031 308.21875 125.066406 307.34375 125.539062 C 306.464844 125.914062 305.828125 126.269531 304.902344 126.6875 C 304.445312 127.097656 303.542969 127.421875 303.023438 127.832031 C 302.183594 128.046875 301.222656 128.398438 300.769531 128.789062 C 300.027344 128.878906 299.617188 129.078125 299.265625 129.554688 C 298.597656 130.371094 298.890625 130.320312 298.140625 130.320312 C 297.496094 130.714844 296.5 130.699219 295.507812 130.699219 C 294.507812 130.671875 293.71875 130.507812 292.691406 130.507812 C 291.808594 130.347656 291.003906 130.160156 290.0625 130.128906 L 273.90625 130.128906 C 272.910156 130.128906 272.304688 130.253906 271.464844 130.320312 C 270.53125 130.386719 269.800781 130.59375 269.023438 130.699219 C 268.175781 130.832031 267.789062 131.15625 267.144531 131.464844 C 266.550781 131.75 265.953125 132.039062 265.265625 132.230469 C 264.34375 132.726562 263.28125 132.988281 262.261719 133.1875 C 261.488281 133.550781 260.394531 133.746094 259.816406 134.140625 C 258.9375 134.210938 258.359375 134.453125 257.375 134.523438 C 256.539062 134.910156 255.851562 135.113281 255.121094 135.289062 C 254.445312 135.519531 253.796875 135.660156 252.867188 135.671875 C 252 135.792969 251.519531 136.039062 250.613281 136.246094 C 250.289062 136.523438 249.777344 136.71875 249.296875 136.820312 C 248.195312 137.351562 247.832031 137.390625 246.667969 137.390625 L 244.039062 137.390625 C 242.785156 137.269531 241.542969 137.109375 240.28125 136.820312 C 238.996094 136.753906 237.769531 136.589844 236.523438 136.4375 L 228.257812 136.4375 C 227.265625 136.402344 226.386719 136.207031 225.441406 136.054688 C 224.558594 135.894531 223.625 135.816406 222.8125 135.480469 C 221.644531 135.417969 220.460938 135.257812 219.429688 134.90625 C 218.492188 134.738281 217.589844 134.414062 216.613281 134.332031 C 216.070312 134 215.007812 133.886719 214.546875 133.570312 C 213.6875 133.5 212.972656 133.230469 212.480469 132.804688 C 211.601562 132.671875 211.09375 132.277344 210.226562 132.039062 C 209.445312 131.558594 208.503906 131.398438 207.40625 130.890625 C 206.476562 130.6875 205.542969 130.351562 204.589844 130.128906 C 203.839844 129.863281 202.929688 129.613281 202.335938 129.171875 C 201.507812 128.941406 201.03125 128.691406 200.082031 128.40625 C 199.640625 128.003906 198.769531 127.585938 198.203125 127.257812 C 197.792969 126.886719 196.714844 126.246094 196.136719 125.921875 C 195.527344 125.199219 194.910156 124.488281 194.070312 123.628906 C 193.488281 122.980469 192.828125 122.464844 192.191406 122.097656 C 191.378906 121.753906 190.457031 121.257812 189.9375 120.949219 C 189.226562 120.753906 188.652344 120.3125 188.246094 119.804688 C 187.605469 119.433594 187.1875 119.105469 186.558594 118.65625 C 185.574219 119.035156 185.472656 118.847656 184.492188 118.847656 C 183.371094 118.753906 182.546875 118.71875 181.484375 118.847656 C 180.566406 118.957031 179.667969 119.039062 178.667969 119.039062 L 176.039062 119.039062 C 174.847656 119.054688 174.65625 119.210938 174.347656 120.1875 C 173.800781 120.796875 173.570312 121.515625 173.03125 121.90625 C 172.570312 122.503906 171.898438 122.910156 171.152344 123.246094 C 170.226562 123.898438 169.945312 124.132812 169.464844 124.964844 C 168.847656 125.515625 168.335938 126.300781 167.960938 126.878906 C 167.621094 127.472656 167.390625 128.019531 167.207031 128.980469 C 167.207031 129.894531 167.28125 130.859375 167.019531 131.65625 C 167.019531 132.570312 167.09375 133.535156 166.832031 134.332031 L 166.832031 139.6875 C 167.222656 140.273438 167.75 140.496094 167.960938 141.40625 C 168.238281 142.164062 167.722656 141.890625 167.207031 142.363281 L 161.949219 142.363281 C 160.992188 142.363281 160.214844 142.238281 159.320312 142.171875 C 158.558594 142.035156 157.449219 141.984375 156.878906 141.789062 L 154.246094 141.789062 C 153.3125 141.722656 152.585938 141.515625 151.804688 141.40625 C 150.71875 141.195312 149.964844 140.875 148.988281 140.261719 C 147.988281 140.042969 147.222656 139.660156 146.359375 139.113281 C 145.425781 138.863281 144.683594 138.367188 143.726562 138.15625 C 143.082031 137.847656 142.621094 137.546875 141.847656 137.203125 C 141.394531 136.566406 140.957031 136.214844 139.972656 136.054688 C 139.214844 135.660156 138.574219 135.671875 137.527344 135.671875 C 136.550781 135.789062 135.980469 136.050781 135.273438 136.246094 C 134.492188 136.605469 133.472656 136.914062 132.832031 137.203125 C 132.195312 137.460938 131.613281 137.8125 130.953125 138.15625 C 130.449219 138.820312 130.152344 139.214844 129.828125 139.878906 C 129.578125 139.878906 129.640625 139.816406 129.640625 140.070312 C 128.628906 140.105469 127.5625 140.070312 126.445312 140.070312 C 125.914062 140.339844 124.882812 140.398438 124.191406 140.453125 C 123.640625 140.886719 122.992188 141.261719 122.5 141.597656 C 122.175781 142.257812 121.949219 142.433594 121.9375 143.511719 C 121.976562 144.652344 122.378906 144.984375 122.6875 145.804688 C 122.460938 146.847656 122.0625 146.933594 121.1875 147.144531 C 120.519531 147.289062 119.65625 147.335938 118.742188 147.335938 L 113.109375 147.335938 C 112.027344 147.335938 111.519531 147.347656 111.042969 146.761719 C 110.714844 146.113281 110.683594 145.285156 110.480469 144.65625 C 109.917969 143.882812 109.667969 143.363281 108.789062 142.746094 C 108.59375 142.152344 108.128906 141.285156 107.847656 140.644531 C 107.546875 139.996094 107.316406 139.425781 106.722656 138.921875 C 106.097656 138.332031 105.390625 137.949219 104.84375 137.394531 C 104.214844 136.980469 103.710938 136.640625 102.589844 136.628906 C 101.679688 136.628906 100.8125 136.671875 100.148438 136.820312 C 99.6875 137.222656 98.921875 137.65625 98.269531 138.15625 C 97.75 138.863281 97.289062 139.375 96.578125 140.070312 C 95.777344 140.816406 94.980469 141.269531 94.324219 141.597656 C 93.722656 141.90625 93.109375 142.28125 92.632812 142.9375 C 92.074219 143.183594 91.804688 143.601562 91.507812 144.277344 C 91.015625 144.71875 90.734375 145.460938 90.566406 146.1875 C 90.261719 147.125 90.21875 148.199219 90.191406 149.246094 L 90.191406 151.921875 C 89.894531 152.28125 89.734375 152.664062 89.253906 153.070312 C 88.792969 153.488281 88.101562 153.941406 87.5625 154.21875 C 87.039062 154.902344 86.710938 155.304688 86.621094 156.320312 C 86.621094 157.15625 86.542969 158.265625 86.808594 158.804688 C 87.191406 159.347656 87.957031 159.722656 88.6875 160.144531 C 89.390625 160.398438 89.757812 160.953125 90.191406 161.671875 C 90.996094 162.042969 90.898438 162.382812 91.882812 162.4375 C 92.476562 162.914062 93.394531 163.066406 94.136719 163.394531 C 94.886719 163.601562 95.261719 163.949219 96.015625 164.160156 C 96.5 164.804688 97.039062 165.222656 97.328125 166.261719 C 97.410156 166.929688 97.667969 167.601562 97.328125 168.171875 C 96.5625 168.636719 95.539062 168.933594 95.074219 169.320312 C 94.46875 169.351562 94.511719 169.496094 94.136719 169.703125 C 94.128906 170.980469 93.960938 171.632812 93.761719 172.570312 C 93.695312 173.425781 93.574219 174.039062 93.574219 175.058594 L 93.574219 177.734375 C 93.972656 178.582031 94.5 178.742188 95.074219 179.261719 C 95.648438 179.679688 95.824219 180.167969 96.015625 180.984375 C 96.335938 181.730469 96.679688 182.355469 96.953125 183.085938 C 97.296875 183.820312 97.515625 184.484375 97.515625 185.570312 C 97.421875 186.617188 96.992188 186.800781 96.203125 187.292969 C 95.78125 187.808594 95.921875 188.726562 95.640625 189.585938 C 95.640625 190.46875 95.628906 191.46875 95.828125 192.074219 C 96.148438 192.507812 96.070312 192.691406 96.203125 193.410156 Z M 96.203125 193.410156 "/>
<path style=" stroke:none;fill-rule:evenodd;fill:rgb(0%,60.392157%,0%);fill-opacity:1;" d="M 117.339844 234.179688 L 117.035156 233.867188 C 117.726562 234.570312 117.390625 234.3125 116.730469 232.625 C 116.664062 230.835938 116.238281 230.546875 115.203125 229.828125 C 113.988281 229.417969 113.472656 228.890625 113.066406 227.65625 C 112.292969 227.003906 111.707031 226.132812 111.234375 225.171875 C 110.398438 224.589844 109.671875 223.851562 109.101562 222.996094 C 108.261719 222.417969 107.535156 221.675781 106.964844 220.824219 C 105.804688 220.410156 105.039062 219.570312 103.605469 218.960938 C 102.800781 218.175781 102.042969 217.792969 100.859375 217.097656 C 99.535156 216.449219 99.460938 215.984375 97.808594 215.851562 C 97.304688 216.417969 96.503906 216.195312 96.285156 217.097656 C 96.351562 218.9375 96.710938 219.320312 97.503906 220.824219 C 97.566406 222.519531 98.011719 223.316406 98.726562 224.550781 C 99.589844 225.167969 100.257812 226.265625 101.164062 227.035156 C 102.136719 227.707031 102.519531 228.417969 103.914062 229.207031 C 104.640625 230.132812 105.855469 230.632812 106.964844 231.382812 C 108.328125 231.917969 109.449219 232.332031 110.320312 232.9375 C 111.546875 233.230469 112.382812 233.699219 113.371094 234.179688 C 114.835938 234.316406 115.433594 234.484375 117.339844 234.179688 Z M 117.339844 234.179688 "/>
<path style=" stroke:none;fill-rule:evenodd;fill:rgb(0%,60.392157%,0%);fill-opacity:1;" d="M 123.75 242.871094 L 123.445312 242.5625 C 124.167969 243.300781 123.824219 242.996094 122.832031 241.320312 C 121.707031 240.230469 121.460938 239.398438 119.78125 239.144531 C 118.886719 238.78125 117.429688 238.554688 116.425781 238.214844 C 114.6875 238.214844 113.890625 238.023438 112.457031 237.59375 C 111.433594 237.308594 110.136719 236.800781 109.101562 236.347656 C 107.875 236.164062 106.601562 235.675781 105.4375 235.417969 L 101.167969 235.417969 C 99.796875 235.746094 99.023438 235.761719 98.726562 237.28125 C 99.351562 238.050781 100.175781 238.726562 100.863281 239.457031 C 101.246094 240.820312 102.179688 241.144531 102.996094 241.941406 C 104.410156 242.4375 104.699219 242.808594 106.355469 242.871094 C 107.757812 243.347656 108.78125 243.472656 110.320312 243.492188 C 111.957031 243.492188 113.132812 243.832031 114.59375 244.113281 C 115.8125 244.28125 117.003906 244.425781 118.5625 244.425781 C 119.886719 244.425781 121.332031 244.417969 122.222656 244.113281 C 124.144531 242.546875 123.75 242.207031 123.75 244.425781 C 123.953125 244.632812 124.15625 244.839844 124.359375 245.046875 "/>
<path style=" stroke:none;fill-rule:evenodd;fill:rgb(0%,60.392157%,0%);fill-opacity:1;" d="M 134.121094 247.53125 L 133.816406 247.53125 C 134.640625 247.53125 134.222656 247.550781 132.597656 247.21875 C 131.074219 246.777344 130.210938 246.347656 128.628906 246.289062 C 127.691406 245.730469 126.539062 245.667969 124.96875 245.667969 L 120.695312 245.667969 C 119.183594 245.785156 118.542969 246.167969 117.035156 246.289062 C 116.230469 246.765625 114.640625 247.15625 113.675781 247.53125 C 112.820312 248.125 112.085938 248.863281 110.929688 249.394531 C 111.195312 250.9375 112.039062 251.515625 113.066406 252.1875 C 114.101562 252.609375 115.160156 253.007812 116.730469 253.121094 C 118.226562 253.175781 119.035156 253.429688 120.695312 253.429688 C 122.25 253.429688 123.445312 253.289062 124.664062 253.121094 C 125.675781 252.632812 126.539062 252.121094 128.019531 251.878906 C 128.757812 251.226562 129.839844 250.773438 130.765625 250.324219 C 131.585938 249.929688 132.699219 249.566406 133.511719 249.082031 L 130.765625 250.324219 C 131.585938 249.929688 132.699219 249.566406 134.121094 247.53125 Z M 134.121094 247.53125 "/>
<path style=" stroke:none;fill-rule:evenodd;fill:rgb(0%,60.392157%,0%);fill-opacity:1;" d="M 148.996094 254.753906 L 148.996094 254.488281 C 148.996094 255.230469 149.035156 254.835938 148.386719 253.433594 C 147.257812 252.917969 145.902344 252.550781 145.03125 252.109375 C 143.695312 252.109375 141.925781 252 141.0625 252.375 C 139.523438 252.390625 138.5 252.496094 137.097656 252.902344 C 135.757812 253.078125 134.984375 253.484375 134.042969 253.960938 C 132.980469 254.457031 131.441406 255.097656 130.078125 255.546875 C 128.871094 256.277344 128.460938 256.703125 127.027344 257.398438 C 126.121094 258.257812 125.195312 258.773438 124.585938 259.515625 C 124.3125 260.40625 124.601562 261.460938 125.804688 261.894531 C 126.566406 262.441406 127.734375 262.722656 128.855469 262.953125 C 130.28125 262.90625 131.539062 262.738281 132.519531 262.160156 C 134.03125 261.988281 134.929688 261.601562 136.179688 261.367188 C 137.25 261.035156 138.277344 260.722656 139.535156 260.574219 C 140.410156 260.058594 141.957031 259.617188 142.894531 259.25 C 144.425781 258.710938 145.40625 258.003906 146.554688 257.398438 C 147.105469 256.851562 147.835938 256.257812 148.691406 256.078125 L 146.554688 257.398438 C 147.105469 256.851562 147.835938 256.257812 148.996094 254.753906 Z M 148.996094 254.753906 "/>
<path style=" stroke:none;fill-rule:evenodd;fill:rgb(0%,60.392157%,0%);fill-opacity:1;" d="M 160.671875 260.679688 C 160.617188 260.664062 159.253906 260.128906 158.230469 260.128906 C 157.328125 259.648438 155.863281 259.550781 154.570312 259.023438 C 152.902344 259.023438 151.765625 259.191406 150.90625 259.851562 C 149.640625 260.003906 148.503906 260.34375 147.550781 260.953125 C 146.363281 261.207031 145.285156 261.445312 144.195312 262.058594 C 142.722656 262.617188 142.074219 263.140625 141.140625 263.714844 C 140.515625 264.402344 139.15625 264.785156 138.394531 265.371094 C 137.710938 266.117188 137.714844 267.105469 138.089844 268.128906 C 138.871094 268.5625 140.207031 268.996094 141.140625 269.507812 C 142.507812 269.730469 143.894531 269.785156 145.414062 269.785156 C 146.769531 269.691406 147.914062 269.484375 148.769531 268.957031 C 150.304688 268.289062 150.714844 267.792969 151.824219 267.023438 C 152.464844 266.324219 153.535156 265.757812 154.570312 265.371094 C 155.347656 264.757812 156.292969 264.3125 157.621094 263.988281 C 158.363281 263.347656 159.046875 262.730469 159.757812 262.058594 C 160.609375 262.058594 160.023438 262.144531 160.671875 260.679688 Z M 160.671875 260.679688 "/>
<path style=" stroke:none;fill-rule:evenodd;fill:rgb(0%,60.392157%,0%);fill-opacity:1;" d="M 173.832031 263.394531 C 173.761719 263.382812 172.109375 263.125 171.085938 263.125 C 170.222656 262.746094 168.453125 262.855469 167.121094 262.855469 C 165.4375 262.910156 164.917969 263.21875 164.066406 263.933594 C 163.203125 264.402344 162.160156 264.824219 161.320312 265.546875 C 160.253906 266.125 159.289062 266.921875 158.269531 267.429688 C 157.152344 267.855469 156.183594 268.339844 154.914062 268.507812 C 154.300781 269.160156 153.226562 269.726562 152.472656 270.390625 C 151.632812 270.945312 151.277344 271.210938 151.25 272.542969 C 150.628906 272.984375 150.210938 273.851562 150.335938 274.15625 C 151.570312 274.71875 152.59375 274.949219 154.304688 274.964844 C 155.933594 274.980469 157.078125 275.296875 158.574219 274.964844 C 160.101562 274.566406 160.710938 274.289062 162.238281 273.890625 C 163.015625 272.992188 163.601562 272.394531 164.679688 271.734375 C 165.261719 270.980469 165.957031 270.285156 167.121094 269.851562 C 167.992188 269.152344 169.277344 268.382812 170.171875 267.96875 C 170.71875 267.296875 171.78125 266.578125 172.613281 266.085938 C 173.222656 265.171875 173.398438 265.019531 173.832031 263.394531 Z M 173.832031 263.394531 "/>
<path style=" stroke:none;fill-rule:evenodd;fill:rgb(0%,60.392157%,0%);fill-opacity:1;" d="M 175.320312 260.886719 L 175.320312 251.570312 C 173.902344 250.714844 173.691406 250.207031 173.183594 248.464844 C 172.429688 247.222656 171.855469 246.441406 171.351562 245.355469 C 170.644531 244.601562 170.0625 243.621094 169.824219 242.25 C 169.242188 241.101562 168.882812 239.945312 167.691406 239.457031 C 166.609375 239.21875 165.203125 239.144531 163.722656 239.144531 C 161.703125 239.222656 161.890625 239.585938 161.890625 241.628906 C 162.035156 243.21875 162.53125 243.636719 163.113281 245.046875 C 163.5625 246.007812 164.046875 247 164.636719 247.839844 C 165.09375 248.871094 165.8125 250.195312 166.46875 250.949219 C 167.003906 252.089844 167.773438 253.125 167.996094 254.363281 C 168.832031 255.445312 169.410156 256.390625 170.132812 257.160156 C 170.730469 258.429688 171.179688 259.148438 172.265625 259.644531 C 172.890625 260.59375 173.941406 260.671875 175.320312 260.886719 Z M 175.320312 260.886719 "/>
<path style=" stroke:none;fill-rule:evenodd;fill:rgb(0%,60.392157%,0%);fill-opacity:1;" d="M 160.671875 255.917969 L 160.976562 255.917969 C 160.125 255.917969 160.578125 255.957031 162.199219 255.296875 C 162.628906 254.417969 162.503906 252.617188 162.503906 251.261719 C 162.503906 249.492188 162.214844 248.738281 161.894531 247.53125 C 161.335938 246.183594 160.886719 245.550781 160.671875 244.117188 C 160.214844 243.136719 159.757812 242.148438 159.453125 241.011719 C 158.902344 240.1875 158.511719 238.949219 158.230469 237.90625 C 157.199219 237.3125 156.25 236.714844 155.179688 236.351562 C 154.210938 235.882812 153.304688 235.1875 152.128906 234.796875 C 150.597656 235.085938 150.425781 235.597656 150.296875 237.285156 C 149.945312 238.535156 150.429688 239.667969 150.90625 240.699219 C 151.410156 241.925781 151.710938 243.167969 152.433594 244.117188 C 152.875 245.507812 153.320312 245.996094 153.347656 247.53125 C 153.875 248.445312 154.09375 249.792969 154.570312 250.949219 C 155.183594 252.390625 155.753906 253.011719 156.707031 254.054688 C 158.007812 254.957031 158.457031 255.335938 160.671875 255.917969 Z M 160.671875 255.917969 "/>
<path style=" stroke:none;fill-rule:evenodd;fill:rgb(0%,60.392157%,0%);fill-opacity:1;" d="M 148.464844 251.878906 C 148.464844 251.730469 149.433594 251.121094 149.992188 250.324219 C 150.449219 249.398438 150.390625 247.507812 149.992188 246.289062 C 149.414062 244.832031 148.78125 243.742188 148.464844 242.5625 C 148.144531 241.578125 148.160156 239.957031 148.160156 238.523438 C 147.882812 237.21875 147.421875 236.253906 146.941406 234.796875 C 146.546875 233.792969 145.777344 232.539062 145.414062 231.378906 C 144.9375 230.921875 144.398438 229.984375 143.886719 229.515625 C 143.292969 229.019531 143.269531 228.894531 142.058594 228.894531 C 140.4375 228.957031 139.621094 229.109375 138.699219 230.136719 C 138.378906 231.121094 138.394531 232.742188 138.394531 234.175781 C 138.414062 235.886719 138.570312 236.695312 139.3125 237.902344 C 139.851562 239.207031 140.980469 240.480469 141.753906 241.628906 C 142.386719 242.71875 142.789062 243.757812 143.582031 244.425781 C 143.789062 245.824219 144.308594 246.464844 144.804688 247.53125 C 145.011719 248.929688 145.527344 249.570312 146.023438 250.636719 C 146.824219 250.726562 146.449219 250.925781 146.941406 251.257812 L 146.023438 250.636719 C 146.824219 250.726562 146.449219 250.925781 148.464844 251.878906 Z M 148.464844 251.878906 "/>
<path style=" stroke:none;fill-rule:evenodd;fill:rgb(0%,60.392157%,0%);fill-opacity:1;" d="M 136.257812 242.5625 C 136.445312 242.136719 137.578125 240.472656 137.785156 239.457031 C 137.765625 237.695312 137.5625 236.492188 136.5625 235.417969 C 136.316406 234.332031 135.71875 232.691406 135.34375 231.691406 C 135.34375 230.257812 135.359375 228.636719 135.039062 227.652344 C 135.039062 226.023438 134.816406 225.042969 134.429688 223.925781 C 133.738281 222.894531 132.996094 222.59375 131.375 222.0625 C 130.0625 221.617188 129.15625 221.9375 127.714844 222.375 L 127.714844 226.722656 C 127.734375 228.367188 128.023438 229.539062 128.628906 230.449219 C 129.125 231.515625 129.605469 232.277344 130.15625 233.554688 C 130.214844 235.242188 130.65625 236.117188 130.765625 237.59375 C 130.886719 239.179688 131.03125 240.003906 131.988281 241.007812 C 133.285156 241.632812 133.683594 242.238281 134.734375 242.5625 L 131.988281 241.007812 C 133.285156 241.632812 133.683594 242.238281 136.257812 242.5625 Z M 136.257812 242.5625 "/>
<path style=" stroke:none;fill-rule:evenodd;fill:rgb(0%,60.392157%,0%);fill-opacity:1;" d="M 125.277344 235.730469 L 125.277344 235.417969 C 125.277344 236.289062 125.238281 235.824219 125.886719 234.175781 C 126.21875 232.832031 126.191406 231.347656 126.191406 229.828125 C 126.097656 228.578125 125.921875 227.132812 125.582031 226.101562 C 125.304688 224.511719 124.984375 223.515625 124.667969 222.0625 C 124.449219 220.800781 123.609375 219.410156 123.140625 218.335938 C 122.84375 217.421875 122.535156 215.515625 122.226562 214.609375 C 122.007812 213.449219 121.460938 213.082031 120.394531 212.746094 C 119.558594 212.320312 117.570312 212.320312 116.734375 212.746094 C 115.835938 213.0625 115.835938 213.785156 115.511719 214.609375 C 115.398438 216.21875 115.128906 217.40625 115.511719 218.957031 C 116.027344 219.855469 116.574219 220.808594 117.039062 221.753906 C 117.636719 222.855469 118.238281 224.507812 118.871094 225.480469 C 119.328125 227.058594 119.5 227.785156 120.394531 229.207031 C 120.722656 230.214844 121.246094 231.425781 121.921875 232.3125 C 122.355469 233.417969 122.988281 234.203125 123.445312 235.417969 C 124.269531 235.417969 123.652344 235.398438 125.277344 235.730469 Z M 125.277344 235.730469 "/>
<path style=" stroke:none;fill-rule:evenodd;fill:rgb(0%,60.392157%,0%);fill-opacity:1;" d="M 187.945312 268.847656 L 182.898438 268.847656 C 182.121094 269.597656 181.851562 270.027344 180.507812 270.199219 C 179.828125 270.796875 179.183594 271.351562 178.117188 271.550781 C 177.175781 271.757812 175.953125 271.820312 174.664062 271.820312 C 173.089844 271.800781 172.546875 271.871094 172.273438 270.46875 C 172.296875 269.074219 172.363281 269 173.601562 268.847656 C 174.265625 268.289062 175.375 268.023438 176.523438 267.765625 C 177.398438 267.449219 178.472656 267.167969 179.445312 266.953125 C 180.386719 266.613281 181.285156 266.265625 182.101562 265.871094 C 181.898438 265.046875 181.242188 265.226562 180.507812 265.601562 C 179.554688 265.601562 178.414062 265.675781 177.851562 265.332031 C 177.1875 264.328125 176.828125 264 175.195312 263.980469 C 173.644531 263.960938 173.378906 263.546875 172.007812 263.441406 C 170.691406 263.421875 169.773438 263.222656 168.820312 262.898438 C 167.417969 262.796875 166.472656 262.578125 165.367188 262.085938 C 165.007812 261.726562 165.855469 261.648438 166.429688 261.546875 C 167.214844 261.003906 168.042969 260.785156 169.351562 260.734375 L 173.070312 260.734375 C 174.433594 260.734375 175.480469 260.957031 176.789062 261.007812 C 177.855469 261.382812 178.972656 261.578125 179.710938 262.085938 C 180.671875 262.414062 181.277344 262.988281 181.835938 263.710938 C 182.769531 263.96875 183.710938 264.289062 184.757812 264.519531 C 185.984375 264.519531 187.371094 264.507812 188.210938 264.792969 C 188.820312 265.824219 188.339844 267.515625 187.945312 268.847656 Z M 187.945312 268.847656 "/>
<path style=" stroke:none;fill-rule:evenodd;fill:rgb(0%,60.392157%,0%);fill-opacity:1;" d="M 259.625 234.449219 L 259.929688 234.136719 C 259.238281 234.84375 259.574219 234.585938 260.234375 232.894531 C 260.300781 231.105469 260.726562 230.816406 261.761719 230.101562 C 262.976562 229.6875 263.492188 229.160156 263.898438 227.925781 C 264.671875 227.273438 265.257812 226.402344 265.730469 225.441406 C 266.566406 224.863281 267.292969 224.121094 267.863281 223.269531 C 268.703125 222.6875 269.429688 221.945312 270 221.09375 C 271.160156 220.679688 271.925781 219.84375 273.359375 219.230469 C 274.164062 218.449219 274.921875 218.0625 276.105469 217.367188 C 277.429688 216.722656 277.503906 216.253906 279.15625 216.125 C 279.660156 216.691406 280.460938 216.46875 280.683594 217.367188 C 280.613281 219.207031 280.253906 219.59375 279.460938 221.09375 C 279.398438 222.789062 278.953125 223.589844 278.242188 224.820312 C 277.375 225.4375 276.707031 226.535156 275.800781 227.304688 C 274.828125 227.976562 274.445312 228.6875 273.050781 229.480469 C 272.324219 230.40625 271.109375 230.902344 270 231.652344 C 268.636719 232.191406 267.515625 232.601562 266.644531 233.207031 C 265.417969 233.5 264.582031 233.972656 263.59375 234.449219 C 262.128906 234.589844 261.53125 234.753906 259.625 234.449219 Z M 259.625 234.449219 "/>
<path style=" stroke:none;fill-rule:evenodd;fill:rgb(0%,60.392157%,0%);fill-opacity:1;" d="M 253.214844 243.140625 L 253.519531 242.832031 C 252.796875 243.570312 253.140625 243.269531 254.132812 241.589844 C 255.261719 240.503906 255.503906 239.667969 257.183594 239.414062 C 258.078125 239.050781 259.535156 238.824219 260.539062 238.484375 C 262.277344 238.484375 263.074219 238.292969 264.507812 237.863281 C 265.53125 237.578125 266.828125 237.070312 267.863281 236.621094 C 269.089844 236.433594 270.363281 235.945312 271.527344 235.6875 L 275.796875 235.6875 C 277.167969 236.015625 277.941406 236.03125 278.238281 237.550781 C 277.613281 238.324219 276.789062 238.996094 276.101562 239.726562 C 275.71875 241.089844 274.785156 241.414062 273.96875 242.210938 C 272.554688 242.707031 272.265625 243.082031 270.609375 243.140625 C 269.207031 243.621094 268.183594 243.746094 266.644531 243.765625 C 265.007812 243.765625 263.832031 244.101562 262.371094 244.386719 C 261.152344 244.550781 259.960938 244.695312 258.402344 244.695312 C 257.078125 244.695312 255.632812 244.6875 254.742188 244.386719 C 252.820312 242.820312 253.214844 242.480469 253.214844 244.695312 C 253.011719 244.902344 252.808594 245.109375 252.605469 245.316406 "/>
<path style=" stroke:none;fill-rule:evenodd;fill:rgb(0%,60.392157%,0%);fill-opacity:1;" d="M 242.84375 247.800781 L 243.148438 247.800781 C 242.324219 247.800781 242.742188 247.820312 244.367188 247.492188 C 245.890625 247.046875 246.753906 246.617188 248.335938 246.558594 C 249.273438 246 250.425781 245.9375 251.996094 245.9375 L 256.269531 245.9375 C 257.78125 246.054688 258.421875 246.441406 259.929688 246.558594 C 260.734375 247.035156 262.324219 247.429688 263.289062 247.800781 C 264.144531 248.394531 264.878906 249.132812 266.035156 249.664062 C 265.769531 251.207031 264.925781 251.789062 263.898438 252.460938 C 262.867188 252.878906 261.804688 253.277344 260.234375 253.390625 C 258.738281 253.449219 257.929688 253.703125 256.269531 253.703125 C 254.714844 253.703125 253.519531 253.558594 252.300781 253.390625 C 251.289062 252.902344 250.425781 252.390625 248.945312 252.148438 C 248.207031 251.496094 247.125 251.042969 246.199219 250.597656 C 245.378906 250.203125 244.265625 249.835938 243.453125 249.355469 L 246.199219 250.597656 C 245.378906 250.203125 244.265625 249.835938 242.84375 247.800781 Z M 242.84375 247.800781 "/>
<path style=" stroke:none;fill-rule:evenodd;fill:rgb(0%,60.392157%,0%);fill-opacity:1;" d="M 227.96875 255.023438 L 227.96875 254.761719 C 227.96875 255.5 227.929688 255.105469 228.578125 253.703125 C 229.707031 253.1875 231.0625 252.824219 231.933594 252.378906 C 233.269531 252.378906 235.039062 252.269531 235.902344 252.644531 C 237.441406 252.660156 238.464844 252.769531 239.871094 253.171875 C 241.207031 253.347656 241.980469 253.753906 242.921875 254.230469 C 243.984375 254.730469 245.523438 255.367188 246.886719 255.820312 C 248.09375 256.546875 248.503906 256.972656 249.9375 257.671875 C 250.84375 258.53125 251.769531 259.046875 252.378906 259.785156 C 252.652344 260.679688 252.363281 261.730469 251.160156 262.167969 C 250.398438 262.710938 249.230469 262.996094 248.109375 263.222656 C 246.683594 263.179688 245.425781 263.007812 244.445312 262.429688 C 242.933594 262.257812 242.035156 261.871094 240.785156 261.636719 C 239.714844 261.308594 238.6875 260.992188 237.429688 260.84375 C 236.554688 260.332031 235.007812 259.886719 234.070312 259.519531 C 232.539062 258.984375 231.558594 258.273438 230.410156 257.671875 C 229.859375 257.121094 229.128906 256.527344 228.273438 256.347656 L 230.410156 257.671875 C 229.859375 257.121094 229.128906 256.527344 227.96875 255.023438 Z M 227.96875 255.023438 "/>
<path style=" stroke:none;fill-rule:evenodd;fill:rgb(0%,60.392157%,0%);fill-opacity:1;" d="M 216.292969 260.949219 C 216.347656 260.9375 217.710938 260.398438 218.734375 260.398438 C 219.636719 259.917969 221.101562 259.824219 222.394531 259.292969 C 224.0625 259.292969 225.199219 259.464844 226.058594 260.121094 C 227.324219 260.277344 228.460938 260.613281 229.414062 261.226562 C 230.601562 261.476562 231.679688 261.714844 232.769531 262.328125 C 234.242188 262.886719 234.890625 263.410156 235.824219 263.984375 C 236.449219 264.671875 237.808594 265.054688 238.570312 265.640625 C 239.253906 266.386719 239.25 267.378906 238.875 268.398438 C 238.09375 268.835938 236.757812 269.265625 235.824219 269.777344 C 234.457031 270 233.070312 270.054688 231.550781 270.054688 C 230.195312 269.960938 229.050781 269.753906 228.195312 269.226562 C 226.660156 268.558594 226.25 268.066406 225.140625 267.296875 C 224.5 266.59375 223.429688 266.03125 222.394531 265.640625 C 221.617188 265.03125 220.671875 264.582031 219.34375 264.261719 C 218.601562 263.621094 217.917969 263 217.207031 262.328125 C 216.355469 262.328125 216.941406 262.414062 216.292969 260.949219 Z M 216.292969 260.949219 "/>
<path style=" stroke:none;fill-rule:evenodd;fill:rgb(0%,60.392157%,0%);fill-opacity:1;" d="M 203.132812 263.664062 C 203.203125 263.65625 204.855469 263.394531 205.878906 263.394531 C 206.742188 263.015625 208.511719 263.125 209.84375 263.125 C 211.527344 263.183594 212.046875 263.488281 212.898438 264.203125 C 213.761719 264.671875 214.804688 265.09375 215.644531 265.816406 C 216.714844 266.394531 217.675781 267.191406 218.695312 267.703125 C 219.816406 268.125 220.78125 268.609375 222.050781 268.777344 C 222.664062 269.433594 223.738281 270 224.492188 270.660156 C 225.332031 271.214844 225.6875 271.480469 225.714844 272.8125 C 226.335938 273.257812 226.753906 274.125 226.628906 274.429688 C 225.394531 274.988281 224.375 275.21875 222.660156 275.234375 C 221.03125 275.253906 219.886719 275.566406 218.390625 275.234375 C 216.863281 274.835938 216.253906 274.558594 214.726562 274.160156 C 213.949219 273.265625 213.363281 272.664062 212.285156 272.007812 C 211.703125 271.253906 211.007812 270.558594 209.84375 270.125 C 208.972656 269.425781 207.6875 268.652344 206.792969 268.238281 C 206.246094 267.566406 205.183594 266.847656 204.351562 266.355469 C 203.742188 265.445312 203.566406 265.292969 203.132812 263.664062 Z M 203.132812 263.664062 "/>
<path style=" stroke:none;fill-rule:evenodd;fill:rgb(0%,60.392157%,0%);fill-opacity:1;" d="M 201.644531 261.15625 L 201.644531 251.839844 C 203.0625 250.988281 203.273438 250.476562 203.78125 248.734375 C 204.535156 247.492188 205.109375 246.710938 205.613281 245.628906 C 206.320312 244.871094 206.902344 243.894531 207.140625 242.523438 C 207.722656 241.371094 208.082031 240.214844 209.273438 239.726562 C 210.355469 239.488281 211.761719 239.414062 213.242188 239.414062 C 215.261719 239.492188 215.074219 239.855469 215.074219 241.902344 C 214.929688 243.492188 214.433594 243.90625 213.851562 245.316406 C 213.402344 246.28125 212.917969 247.269531 212.328125 248.113281 C 211.871094 249.140625 211.152344 250.464844 210.496094 251.21875 C 209.960938 252.359375 209.191406 253.394531 208.96875 254.636719 C 208.132812 255.714844 207.554688 256.660156 206.832031 257.429688 C 206.234375 258.699219 205.785156 259.417969 204.699219 259.914062 C 204.074219 260.863281 203.023438 260.941406 201.644531 261.15625 Z M 201.644531 261.15625 "/>
<path style=" stroke:none;fill-rule:evenodd;fill:rgb(0%,60.392157%,0%);fill-opacity:1;" d="M 216.292969 256.1875 L 215.988281 256.1875 C 216.839844 256.1875 216.386719 256.226562 214.765625 255.566406 C 214.335938 254.691406 214.460938 252.886719 214.460938 251.53125 C 214.460938 249.761719 214.75 249.007812 215.070312 247.804688 C 215.628906 246.453125 216.078125 245.824219 216.292969 244.386719 C 216.75 243.40625 217.207031 242.417969 217.511719 241.28125 C 218.0625 240.460938 218.453125 239.222656 218.734375 238.175781 C 219.765625 237.582031 220.714844 236.984375 221.785156 236.621094 C 222.753906 236.15625 223.660156 235.457031 224.835938 235.070312 C 226.367188 235.355469 226.539062 235.867188 226.667969 237.554688 C 227.019531 238.808594 226.535156 239.941406 226.058594 240.96875 C 225.554688 242.195312 225.253906 243.4375 224.53125 244.386719 C 224.089844 245.78125 223.644531 246.265625 223.617188 247.804688 C 223.089844 248.71875 222.871094 250.0625 222.394531 251.21875 C 221.78125 252.664062 221.210938 253.285156 220.257812 254.324219 C 218.957031 255.226562 218.507812 255.605469 216.292969 256.1875 Z M 216.292969 256.1875 "/>
<path style=" stroke:none;fill-rule:evenodd;fill:rgb(0%,60.392157%,0%);fill-opacity:1;" d="M 228.5 252.148438 C 228.5 252 227.53125 251.390625 226.972656 250.597656 C 226.515625 249.667969 226.574219 247.78125 226.972656 246.558594 C 227.550781 245.105469 228.183594 244.011719 228.5 242.832031 C 228.820312 241.847656 228.804688 240.226562 228.804688 238.792969 C 229.082031 237.488281 229.542969 236.523438 230.023438 235.066406 C 230.417969 234.0625 231.1875 232.808594 231.550781 231.652344 C 232.027344 231.191406 232.566406 230.253906 233.078125 229.789062 C 233.671875 229.289062 233.695312 229.167969 234.90625 229.167969 C 236.53125 229.226562 237.34375 229.378906 238.265625 230.410156 C 238.585938 231.390625 238.570312 233.015625 238.570312 234.445312 C 238.550781 236.15625 238.394531 236.96875 237.652344 238.171875 C 237.113281 239.480469 235.984375 240.75 235.210938 241.898438 C 234.582031 242.988281 234.175781 244.027344 233.382812 244.695312 C 233.175781 246.09375 232.65625 246.734375 232.160156 247.800781 C 231.953125 249.199219 231.4375 249.839844 230.941406 250.90625 C 230.140625 250.996094 230.515625 251.195312 230.023438 251.527344 L 230.941406 250.90625 C 230.140625 250.996094 230.515625 251.195312 228.5 252.148438 Z M 228.5 252.148438 "/>
<path style=" stroke:none;fill-rule:evenodd;fill:rgb(0%,60.392157%,0%);fill-opacity:1;" d="M 240.707031 242.832031 C 240.519531 242.40625 239.386719 240.742188 239.179688 239.726562 C 239.199219 237.964844 239.402344 236.761719 240.402344 235.691406 C 240.648438 234.601562 241.246094 232.960938 241.621094 231.960938 C 241.621094 230.53125 241.605469 228.90625 241.925781 227.925781 C 241.925781 226.292969 242.148438 225.3125 242.535156 224.199219 C 243.226562 223.167969 243.96875 222.863281 245.589844 222.335938 C 246.902344 221.890625 247.808594 222.210938 249.25 222.644531 L 249.25 226.992188 C 249.230469 228.636719 248.941406 229.808594 248.335938 230.71875 C 247.839844 231.785156 247.359375 232.546875 246.808594 233.824219 C 246.75 235.515625 246.308594 236.386719 246.199219 237.863281 C 246.078125 239.453125 245.933594 240.273438 244.976562 241.28125 C 243.679688 241.90625 243.28125 242.507812 242.230469 242.832031 L 244.976562 241.28125 C 243.679688 241.90625 243.28125 242.507812 240.707031 242.832031 Z M 240.707031 242.832031 "/>
<path style=" stroke:none;fill-rule:evenodd;fill:rgb(0%,60.392157%,0%);fill-opacity:1;" d="M 251.6875 236 L 251.6875 235.691406 C 251.6875 236.558594 251.726562 236.097656 251.078125 234.449219 C 250.746094 233.101562 250.773438 231.617188 250.773438 230.097656 C 250.867188 228.847656 251.046875 227.402344 251.382812 226.371094 C 251.660156 224.78125 251.980469 223.789062 252.296875 222.335938 C 252.515625 221.074219 253.355469 219.679688 253.824219 218.609375 C 254.125 217.691406 254.429688 215.789062 254.738281 214.878906 C 254.957031 213.71875 255.503906 213.355469 256.570312 213.015625 C 257.40625 212.59375 259.394531 212.59375 260.230469 213.015625 C 261.128906 213.332031 261.128906 214.054688 261.453125 214.878906 C 261.566406 216.488281 261.835938 217.675781 261.453125 219.230469 C 260.9375 220.128906 260.390625 221.082031 259.925781 222.023438 C 259.328125 223.125 258.726562 224.78125 258.097656 225.75 C 257.636719 227.328125 257.46875 228.054688 256.570312 229.476562 C 256.242188 230.484375 255.71875 231.695312 255.042969 232.582031 C 254.609375 233.6875 253.976562 234.472656 253.519531 235.691406 C 252.695312 235.691406 253.3125 235.667969 251.6875 236 Z M 251.6875 236 "/>
<path style=" stroke:none;fill-rule:evenodd;fill:rgb(0%,60.392157%,0%);fill-opacity:1;" d="M 189.019531 269.117188 L 194.066406 269.117188 C 194.84375 269.867188 195.113281 270.296875 196.457031 270.46875 C 197.136719 271.070312 197.78125 271.621094 198.847656 271.820312 C 199.789062 272.03125 201.015625 272.09375 202.300781 272.09375 C 203.875 272.074219 204.417969 272.140625 204.691406 270.738281 C 204.667969 269.347656 204.601562 269.269531 203.363281 269.117188 C 202.699219 268.558594 201.589844 268.296875 200.441406 268.035156 C 199.566406 267.71875 198.492188 267.441406 197.519531 267.226562 C 196.578125 266.882812 195.679688 266.539062 194.863281 266.144531 C 195.066406 265.316406 195.722656 265.5 196.457031 265.875 C 197.410156 265.875 198.550781 265.945312 199.113281 265.601562 C 199.777344 264.601562 200.136719 264.269531 201.769531 264.25 C 203.320312 264.230469 203.585938 263.816406 204.957031 263.710938 C 206.273438 263.695312 207.191406 263.492188 208.144531 263.167969 C 209.550781 263.066406 210.492188 262.851562 211.601562 262.359375 C 211.957031 261.996094 211.109375 261.921875 210.539062 261.816406 C 209.75 261.273438 208.921875 261.054688 207.613281 261.007812 L 203.894531 261.007812 C 202.53125 261.007812 201.484375 261.230469 200.175781 261.277344 C 199.109375 261.652344 197.992188 261.847656 197.253906 262.359375 C 196.292969 262.683594 195.6875 263.257812 195.128906 263.980469 C 194.195312 264.242188 193.253906 264.558594 192.207031 264.792969 C 190.980469 264.792969 189.59375 264.777344 188.753906 265.0625 C 188.144531 266.09375 188.625 267.785156 189.019531 269.117188 Z M 189.019531 269.117188 "/>
</g>
</svg>
