<?xml version="1.0" encoding="UTF-8"?>
<svg xmlns="http://www.w3.org/2000/svg" xmlns:xlink="http://www.w3.org/1999/xlink" width="384pt" height="384pt" viewBox="0 0 384 384" version="1.1">
<defs>
<clipPath id="clip1">
  <path d="M 0 0 L 383.988281 0 L 383.988281 383.988281 L 0 383.988281 Z M 0 0 "/>
</clipPath>
<clipPath id="clip2">
  <path d="M 0 164 L 383.988281 164 L 383.988281 220 L 0 220 Z M 0 164 "/>
</clipPath>
<clipPath id="clip3">
  <path d="M 116 0 L 172 0 L 172 383.988281 L 116 383.988281 Z M 116 0 "/>
</clipPath>
</defs>
<g id="surface1">
<g clip-path="url(#clip1)" clip-rule="nonzero">
<path style=" stroke:none;fill-rule:evenodd;fill:rgb(98.431373%,10.588235%,13.333333%);fill-opacity:1;" d="M -48 0 L 459.414062 0 L 459.414062 383.988281 L -48 383.988281 Z M -48 0 "/>
</g>
<g clip-path="url(#clip2)" clip-rule="nonzero">
<path style=" stroke:none;fill-rule:evenodd;fill:rgb(100%,100%,100%);fill-opacity:1;" d="M -48 164.566406 L 459.414062 164.566406 L 459.414062 219.425781 L -48 219.425781 Z M -48 164.566406 "/>
</g>
<g clip-path="url(#clip3)" clip-rule="nonzero">
<path style=" stroke:none;fill-rule:evenodd;fill:rgb(100%,100%,100%);fill-opacity:1;" d="M 116.566406 0 L 171.425781 0 L 171.425781 383.988281 L 116.566406 383.988281 Z M 116.566406 0 "/>
</g>
</g>
</svg>
