<?xml version="1.0" encoding="UTF-8"?>
<svg xmlns="http://www.w3.org/2000/svg" xmlns:xlink="http://www.w3.org/1999/xlink" width="384pt" height="384pt" viewBox="0 0 384 384" version="1.1">
<g id="surface1">
<rect x="0" y="0" width="384" height="384" style="fill:rgb(6.27451%,54.901961%,0%);fill-opacity:1;stroke:none;"/>
<path style=" stroke:none;fill-rule:evenodd;fill:rgb(100%,83.921569%,0%);fill-opacity:1;" d="M -195 133.621094 L 579.449219 133.621094 L 579.449219 171.242188 L -195 171.242188 Z M -195 133.621094 "/>
<path style=" stroke:none;fill-rule:evenodd;fill:rgb(100%,83.921569%,0%);fill-opacity:1;" d="M 135.808594 0 L 172.132812 0 L 172.132812 384 L 135.808594 384 Z M 135.808594 0 "/>
<path style=" stroke:none;fill-rule:evenodd;fill:rgb(0%,0%,0%);fill-opacity:1;" d="M 170.835938 0 L 207.160156 0 L 207.160156 384 L 170.835938 384 Z M 170.835938 0 "/>
<path style=" stroke:none;fill-rule:evenodd;fill:rgb(0%,0%,0%);fill-opacity:1;" d="M -195 169.941406 L 579.449219 169.941406 L 579.449219 207.5625 L -195 207.5625 Z M -195 169.941406 "/>
<path style=" stroke:none;fill-rule:evenodd;fill:rgb(100%,100%,100%);fill-opacity:1;" d="M -195 207.570312 L 579.449219 207.570312 L 579.449219 245.191406 L -195 245.191406 Z M -195 207.570312 "/>
<path style=" stroke:none;fill-rule:evenodd;fill:rgb(100%,100%,100%);fill-opacity:1;" d="M 207.164062 0 L 243.488281 0 L 243.488281 384 L 207.164062 384 Z M 207.164062 0 "/>
<path style=" stroke:none;fill-rule:evenodd;fill:rgb(90.588235%,16.078431%,6.27451%);fill-opacity:1;" d="M 193.265625 295.402344 C 136.566406 295.402344 90.609375 249.226562 90.609375 192.269531 L 90.609375 192.261719 C 90.609375 135.304688 136.566406 89.128906 193.265625 89.128906 C 249.960938 89.128906 295.921875 135.304688 295.921875 192.261719 L 295.921875 192.269531 C 295.921875 249.226562 249.960938 295.402344 193.265625 295.402344 Z M 193.265625 295.402344 "/>
<path style=" stroke:none;fill-rule:evenodd;fill:rgb(0%,0%,0%);fill-opacity:1;" d="M 187.882812 102.691406 C 187.882812 102.496094 192.089844 90.691406 192.089844 90.691406 L 195.914062 102.496094 C 195.914062 102.496094 208.722656 102.882812 208.722656 102.691406 C 208.722656 102.496094 198.589844 110.429688 198.589844 110.429688 C 198.589844 110.429688 203.371094 123.976562 203.179688 123.589844 C 202.988281 123.203125 192.089844 115.460938 192.089844 115.460938 C 192.089844 115.460938 181 123.203125 181.191406 123.203125 C 181.382812 123.203125 185.398438 110.429688 185.398438 110.429688 L 175.453125 102.882812 L 187.882812 102.6875 Z M 187.882812 102.691406 "/>
<path style=" stroke:none;fill-rule:evenodd;fill:rgb(100%,90.588235%,0%);fill-opacity:1;" d="M 188.457031 103.289062 C 188.457031 103.121094 192.097656 92.898438 192.097656 92.898438 L 195.410156 103.121094 C 195.410156 103.121094 206.507812 103.457031 206.507812 103.289062 C 206.507812 103.121094 197.730469 109.992188 197.730469 109.992188 C 197.730469 109.992188 201.867188 121.726562 201.703125 121.390625 C 201.539062 121.054688 192.097656 114.351562 192.097656 114.351562 C 192.097656 114.351562 182.492188 121.054688 182.660156 121.054688 C 182.824219 121.054688 186.300781 109.992188 186.300781 109.992188 L 177.691406 103.457031 Z M 188.457031 103.289062 "/>
<path style=" stroke:none;fill-rule:evenodd;fill:rgb(6.27451%,54.901961%,0%);fill-opacity:1;" d="M 189.996094 104.988281 C 189.996094 104.894531 192.097656 99 192.097656 99 L 194.007812 104.894531 C 194.007812 104.894531 200.402344 105.085938 200.402344 104.988281 C 200.402344 104.894531 195.34375 108.855469 195.34375 108.855469 C 195.34375 108.855469 197.730469 115.621094 197.636719 115.425781 C 197.539062 115.234375 192.097656 111.367188 192.097656 111.367188 C 192.097656 111.367188 186.558594 115.234375 186.65625 115.234375 C 186.75 115.234375 188.753906 108.855469 188.753906 108.855469 L 183.789062 105.085938 Z M 189.996094 104.988281 "/>
<path style=" stroke:none;fill-rule:evenodd;fill:rgb(0%,0%,0%);fill-opacity:1;" d="M 267.65625 158.851562 C 267.65625 158.65625 271.863281 146.851562 271.863281 146.851562 L 275.6875 158.65625 C 275.6875 158.65625 288.496094 159.042969 288.496094 158.851562 C 288.496094 158.65625 278.363281 166.589844 278.363281 166.589844 C 278.363281 166.589844 283.144531 180.136719 282.953125 179.75 C 282.761719 179.363281 271.863281 171.621094 271.863281 171.621094 C 271.863281 171.621094 260.773438 179.363281 260.964844 179.363281 C 261.15625 179.363281 265.171875 166.589844 265.171875 166.589844 L 255.226562 159.042969 L 267.65625 158.847656 Z M 267.65625 158.851562 "/>
<path style=" stroke:none;fill-rule:evenodd;fill:rgb(100%,90.588235%,0%);fill-opacity:1;" d="M 268.226562 159.449219 C 268.226562 159.28125 271.871094 149.058594 271.871094 149.058594 L 275.183594 159.28125 C 275.183594 159.28125 286.277344 159.617188 286.277344 159.449219 C 286.277344 159.28125 277.503906 166.152344 277.503906 166.152344 C 277.503906 166.152344 281.640625 177.886719 281.476562 177.550781 C 281.3125 177.214844 271.871094 170.511719 271.871094 170.511719 C 271.871094 170.511719 262.265625 177.214844 262.433594 177.214844 C 262.597656 177.214844 266.074219 166.152344 266.074219 166.152344 L 257.464844 159.617188 Z M 268.226562 159.449219 "/>
<path style=" stroke:none;fill-rule:evenodd;fill:rgb(6.27451%,54.901961%,0%);fill-opacity:1;" d="M 269.769531 161.148438 C 269.769531 161.054688 271.871094 155.160156 271.871094 155.160156 L 273.78125 161.054688 C 273.78125 161.054688 280.175781 161.246094 280.175781 161.148438 C 280.175781 161.054688 275.117188 165.015625 275.117188 165.015625 C 275.117188 165.015625 277.503906 171.78125 277.40625 171.585938 C 277.3125 171.394531 271.871094 167.527344 271.871094 167.527344 C 271.871094 167.527344 266.332031 171.394531 266.425781 171.394531 C 266.523438 171.394531 268.527344 165.015625 268.527344 165.015625 L 263.5625 161.246094 Z M 269.769531 161.148438 "/>
<path style=" stroke:none;fill-rule:evenodd;fill:rgb(0%,0%,0%);fill-opacity:1;" d="M 244.40625 247.988281 C 244.40625 247.792969 248.613281 235.988281 248.613281 235.988281 L 252.4375 247.792969 C 252.4375 247.792969 265.246094 248.179688 265.246094 247.988281 C 265.246094 247.792969 255.113281 255.726562 255.113281 255.726562 C 255.113281 255.726562 259.894531 269.273438 259.703125 268.886719 C 259.511719 268.5 248.613281 260.757812 248.613281 260.757812 C 248.613281 260.757812 237.523438 268.5 237.714844 268.5 C 237.90625 268.5 241.921875 255.726562 241.921875 255.726562 L 231.976562 248.179688 Z M 244.40625 247.988281 "/>
<path style=" stroke:none;fill-rule:evenodd;fill:rgb(100%,90.588235%,0%);fill-opacity:1;" d="M 244.976562 248.585938 C 244.976562 248.417969 248.621094 238.195312 248.621094 238.195312 L 251.933594 248.417969 C 251.933594 248.417969 263.027344 248.753906 263.027344 248.585938 C 263.027344 248.417969 254.253906 255.292969 254.253906 255.292969 C 254.253906 255.292969 258.390625 267.023438 258.226562 266.6875 C 258.0625 266.351562 248.621094 259.648438 248.621094 259.648438 C 248.621094 259.648438 239.015625 266.351562 239.183594 266.351562 C 239.347656 266.351562 242.824219 255.292969 242.824219 255.292969 L 234.214844 248.753906 Z M 244.976562 248.585938 "/>
<path style=" stroke:none;fill-rule:evenodd;fill:rgb(6.27451%,54.901961%,0%);fill-opacity:1;" d="M 246.519531 250.289062 C 246.519531 250.191406 248.621094 244.296875 248.621094 244.296875 L 250.53125 250.191406 C 250.53125 250.191406 256.925781 250.382812 256.925781 250.289062 C 256.925781 250.191406 251.867188 254.152344 251.867188 254.152344 C 251.867188 254.152344 254.253906 260.917969 254.15625 260.722656 C 254.0625 260.53125 248.621094 256.664062 248.621094 256.664062 C 248.621094 256.664062 243.082031 260.53125 243.175781 260.53125 C 243.273438 260.53125 245.277344 254.152344 245.277344 254.152344 L 240.3125 250.382812 Z M 246.519531 250.289062 "/>
<path style=" stroke:none;fill-rule:evenodd;fill:rgb(0%,0%,0%);fill-opacity:1;" d="M 132.875 247.988281 C 132.875 247.792969 137.082031 235.988281 137.082031 235.988281 L 140.90625 247.792969 C 140.90625 247.792969 153.714844 248.179688 153.714844 247.988281 C 153.714844 247.792969 143.582031 255.726562 143.582031 255.726562 C 143.582031 255.726562 148.363281 269.273438 148.171875 268.886719 C 147.980469 268.5 137.082031 260.757812 137.082031 260.757812 C 137.082031 260.757812 125.992188 268.5 126.183594 268.5 C 126.375 268.5 130.390625 255.726562 130.390625 255.726562 L 120.445312 248.179688 Z M 132.875 247.988281 "/>
<path style=" stroke:none;fill-rule:evenodd;fill:rgb(100%,90.588235%,0%);fill-opacity:1;" d="M 133.445312 248.585938 C 133.445312 248.417969 137.089844 238.195312 137.089844 238.195312 L 140.402344 248.417969 C 140.402344 248.417969 151.496094 248.753906 151.496094 248.585938 C 151.496094 248.417969 142.722656 255.292969 142.722656 255.292969 C 142.722656 255.292969 146.859375 267.023438 146.695312 266.6875 C 146.53125 266.351562 137.089844 259.648438 137.089844 259.648438 C 137.089844 259.648438 127.484375 266.351562 127.652344 266.351562 C 127.816406 266.351562 131.292969 255.292969 131.292969 255.292969 L 122.683594 248.753906 L 133.449219 248.585938 Z M 133.445312 248.585938 "/>
<path style=" stroke:none;fill-rule:evenodd;fill:rgb(6.27451%,54.901961%,0%);fill-opacity:1;" d="M 134.988281 250.289062 C 134.988281 250.191406 137.089844 244.296875 137.089844 244.296875 L 139 250.191406 C 139 250.191406 145.394531 250.382812 145.394531 250.289062 C 145.394531 250.191406 140.335938 254.152344 140.335938 254.152344 C 140.335938 254.152344 142.722656 260.917969 142.625 260.722656 C 142.53125 260.53125 137.089844 256.664062 137.089844 256.664062 C 137.089844 256.664062 131.550781 260.53125 131.644531 260.53125 C 131.742188 260.53125 133.746094 254.152344 133.746094 254.152344 L 128.78125 250.382812 Z M 134.988281 250.289062 "/>
<path style=" stroke:none;fill-rule:evenodd;fill:rgb(0%,0%,0%);fill-opacity:1;" d="M 112.507812 156.554688 C 112.507812 156.363281 116.714844 144.558594 116.714844 144.558594 L 120.539062 156.363281 C 120.539062 156.363281 133.347656 156.75 133.347656 156.554688 C 133.347656 156.363281 123.214844 164.296875 123.214844 164.296875 C 123.214844 164.296875 127.996094 177.839844 127.804688 177.453125 C 127.613281 177.066406 116.714844 169.328125 116.714844 169.328125 C 116.714844 169.328125 105.625 177.066406 105.816406 177.066406 C 106.007812 177.066406 110.023438 164.296875 110.023438 164.296875 L 100.078125 156.746094 Z M 112.507812 156.554688 "/>
<path style=" stroke:none;fill-rule:evenodd;fill:rgb(100%,90.588235%,0%);fill-opacity:1;" d="M 113.078125 157.15625 C 113.078125 156.988281 116.722656 146.761719 116.722656 146.761719 L 120.035156 156.988281 C 120.035156 156.988281 131.128906 157.324219 131.128906 157.15625 C 131.128906 156.988281 122.351562 163.859375 122.351562 163.859375 C 122.351562 163.859375 126.492188 175.589844 126.328125 175.253906 C 126.164062 174.921875 116.722656 168.214844 116.722656 168.214844 C 116.722656 168.214844 107.117188 174.921875 107.285156 174.921875 C 107.449219 174.921875 110.925781 163.859375 110.925781 163.859375 L 102.316406 157.320312 L 113.078125 157.152344 Z M 113.078125 157.15625 "/>
<path style=" stroke:none;fill-rule:evenodd;fill:rgb(6.27451%,54.901961%,0%);fill-opacity:1;" d="M 114.621094 158.855469 C 114.621094 158.757812 116.722656 152.863281 116.722656 152.863281 L 118.628906 158.757812 C 118.628906 158.757812 125.027344 158.953125 125.027344 158.855469 C 125.027344 158.757812 119.96875 162.71875 119.96875 162.71875 C 119.96875 162.71875 122.355469 169.484375 122.257812 169.292969 C 122.164062 169.097656 116.722656 165.234375 116.722656 165.234375 C 116.722656 165.234375 111.183594 169.097656 111.277344 169.097656 C 111.375 169.097656 113.378906 162.71875 113.378906 162.71875 L 108.414062 158.953125 Z M 114.621094 158.855469 "/>
<path style=" stroke:none;fill-rule:evenodd;fill:rgb(0%,0%,0%);fill-opacity:1;" d="M 243.460938 130.605469 C 243.460938 130.796875 239.253906 142.601562 239.253906 142.601562 L 235.429688 130.796875 C 235.429688 130.796875 222.621094 130.410156 222.621094 130.605469 C 222.621094 130.796875 232.753906 122.863281 232.753906 122.863281 C 232.753906 122.863281 227.972656 109.320312 228.164062 109.707031 C 228.355469 110.09375 239.253906 117.832031 239.253906 117.832031 C 239.253906 117.832031 250.34375 110.09375 250.152344 110.09375 C 249.960938 110.09375 245.945312 122.863281 245.945312 122.863281 L 255.890625 130.410156 Z M 243.460938 130.605469 "/>
<path style=" stroke:none;fill-rule:evenodd;fill:rgb(100%,90.588235%,0%);fill-opacity:1;" d="M 242.890625 130.003906 C 242.890625 130.171875 239.246094 140.398438 239.246094 140.398438 L 235.933594 130.171875 C 235.933594 130.171875 224.839844 129.835938 224.839844 130.003906 C 224.839844 130.171875 233.617188 123.300781 233.617188 123.300781 C 233.617188 123.300781 229.476562 111.570312 229.640625 111.902344 C 229.804688 112.238281 239.246094 118.945312 239.246094 118.945312 C 239.246094 118.945312 248.851562 112.238281 248.683594 112.238281 C 248.519531 112.238281 245.042969 123.300781 245.042969 123.300781 L 253.652344 129.839844 Z M 242.890625 130.003906 "/>
<path style=" stroke:none;fill-rule:evenodd;fill:rgb(6.27451%,54.901961%,0%);fill-opacity:1;" d="M 241.347656 128.304688 C 241.347656 128.402344 239.246094 134.296875 239.246094 134.296875 L 237.339844 128.402344 C 237.339844 128.402344 230.941406 128.207031 230.941406 128.304688 C 230.941406 128.402344 236 124.441406 236 124.441406 C 236 124.441406 233.613281 117.675781 233.710938 117.867188 C 233.804688 118.0625 239.246094 121.925781 239.246094 121.925781 C 239.246094 121.925781 244.785156 118.0625 244.691406 118.0625 C 244.59375 118.0625 242.589844 124.441406 242.589844 124.441406 L 247.554688 128.207031 Z M 241.347656 128.304688 "/>
<path style=" stroke:none;fill-rule:evenodd;fill:rgb(0%,0%,0%);fill-opacity:1;" d="M 275.488281 217.710938 C 275.488281 217.902344 271.28125 229.707031 271.28125 229.707031 L 267.457031 217.902344 C 267.457031 217.902344 254.644531 217.515625 254.644531 217.710938 C 254.644531 217.902344 264.777344 209.96875 264.777344 209.96875 C 264.777344 209.96875 260 196.421875 260.191406 196.808594 C 260.382812 197.199219 271.28125 204.9375 271.28125 204.9375 C 271.28125 204.9375 282.371094 197.199219 282.179688 197.199219 C 281.988281 197.199219 277.972656 209.96875 277.972656 209.96875 L 287.914062 217.515625 Z M 275.488281 217.710938 "/>
<path style=" stroke:none;fill-rule:evenodd;fill:rgb(100%,90.588235%,0%);fill-opacity:1;" d="M 274.914062 217.109375 C 274.914062 217.277344 271.269531 227.5 271.269531 227.5 L 267.957031 217.277344 C 267.957031 217.277344 256.863281 216.941406 256.863281 217.109375 C 256.863281 217.277344 265.640625 210.40625 265.640625 210.40625 C 265.640625 210.40625 261.5 198.675781 261.664062 199.007812 C 261.832031 199.34375 271.269531 206.046875 271.269531 206.046875 C 271.269531 206.046875 280.875 199.34375 280.710938 199.34375 C 280.542969 199.34375 277.066406 210.40625 277.066406 210.40625 L 285.679688 216.941406 Z M 274.914062 217.109375 "/>
<path style=" stroke:none;fill-rule:evenodd;fill:rgb(6.27451%,54.901961%,0%);fill-opacity:1;" d="M 273.375 215.410156 C 273.375 215.507812 271.273438 221.402344 271.273438 221.402344 L 269.363281 215.507812 C 269.363281 215.507812 262.964844 215.3125 262.964844 215.410156 C 262.964844 215.507812 268.027344 211.542969 268.027344 211.542969 C 268.027344 211.542969 265.640625 204.78125 265.734375 204.972656 C 265.828125 205.167969 271.273438 209.03125 271.273438 209.03125 C 271.273438 209.03125 276.808594 205.167969 276.714844 205.167969 C 276.621094 205.167969 274.613281 211.542969 274.613281 211.542969 L 279.578125 215.3125 Z M 273.375 215.410156 "/>
<path style=" stroke:none;fill-rule:evenodd;fill:rgb(0%,0%,0%);fill-opacity:1;" d="M 196.070312 281.4375 C 196.070312 281.632812 191.863281 293.433594 191.863281 293.433594 L 188.039062 281.632812 C 188.039062 281.632812 175.226562 281.242188 175.226562 281.4375 C 175.226562 281.632812 185.363281 273.695312 185.363281 273.695312 C 185.363281 273.695312 180.582031 260.152344 180.773438 260.539062 C 180.964844 260.925781 191.863281 268.664062 191.863281 268.664062 C 191.863281 268.664062 202.953125 260.925781 202.761719 260.925781 C 202.570312 260.925781 198.554688 273.695312 198.554688 273.695312 L 208.496094 281.246094 Z M 196.070312 281.4375 "/>
<path style=" stroke:none;fill-rule:evenodd;fill:rgb(100%,90.588235%,0%);fill-opacity:1;" d="M 195.496094 280.835938 C 195.496094 281.003906 191.851562 291.230469 191.851562 291.230469 L 188.542969 281.003906 C 188.542969 281.003906 177.445312 280.671875 177.445312 280.835938 C 177.445312 281.003906 186.222656 274.132812 186.222656 274.132812 C 186.222656 274.132812 182.082031 262.402344 182.25 262.738281 C 182.414062 263.070312 191.851562 269.777344 191.851562 269.777344 C 191.851562 269.777344 201.457031 263.070312 201.292969 263.070312 C 201.128906 263.070312 197.648438 274.132812 197.648438 274.132812 L 206.261719 280.671875 L 195.496094 280.839844 Z M 195.496094 280.835938 "/>
<path style=" stroke:none;fill-rule:evenodd;fill:rgb(6.27451%,54.901961%,0%);fill-opacity:1;" d="M 193.957031 279.136719 C 193.957031 279.234375 191.855469 285.128906 191.855469 285.128906 L 189.945312 279.234375 C 189.945312 279.234375 183.546875 279.039062 183.546875 279.136719 C 183.546875 279.234375 188.609375 275.273438 188.609375 275.273438 C 188.609375 275.273438 186.222656 268.507812 186.316406 268.699219 C 186.414062 268.894531 191.855469 272.757812 191.855469 272.757812 C 191.855469 272.757812 197.394531 268.894531 197.296875 268.894531 C 197.203125 268.894531 195.195312 275.273438 195.195312 275.273438 L 200.160156 279.042969 Z M 193.957031 279.136719 "/>
<path style=" stroke:none;fill-rule:evenodd;fill:rgb(0%,0%,0%);fill-opacity:1;" d="M 121.453125 217.710938 C 121.453125 217.902344 117.246094 229.707031 117.246094 229.707031 L 113.421875 217.902344 C 113.421875 217.902344 100.609375 217.515625 100.609375 217.710938 C 100.609375 217.902344 110.742188 209.96875 110.742188 209.96875 C 110.742188 209.96875 105.964844 196.421875 106.15625 196.808594 C 106.347656 197.199219 117.246094 204.9375 117.246094 204.9375 C 117.246094 204.9375 128.335938 197.199219 128.144531 197.199219 C 127.953125 197.199219 123.9375 209.96875 123.9375 209.96875 L 133.878906 217.515625 Z M 121.453125 217.710938 "/>
<path style=" stroke:none;fill-rule:evenodd;fill:rgb(100%,90.588235%,0%);fill-opacity:1;" d="M 120.878906 217.109375 C 120.878906 217.277344 117.234375 227.5 117.234375 227.5 L 113.925781 217.277344 C 113.925781 217.277344 102.828125 216.941406 102.828125 217.109375 C 102.828125 217.277344 111.605469 210.40625 111.605469 210.40625 C 111.605469 210.40625 107.464844 198.675781 107.632812 199.007812 C 107.796875 199.34375 117.234375 206.046875 117.234375 206.046875 C 117.234375 206.046875 126.839844 199.34375 126.675781 199.34375 C 126.507812 199.34375 123.03125 210.40625 123.03125 210.40625 L 131.644531 216.941406 Z M 120.878906 217.109375 "/>
<path style=" stroke:none;fill-rule:evenodd;fill:rgb(6.27451%,54.901961%,0%);fill-opacity:1;" d="M 119.339844 215.410156 C 119.339844 215.507812 117.238281 221.402344 117.238281 221.402344 L 115.328125 215.507812 C 115.328125 215.507812 108.929688 215.3125 108.929688 215.410156 C 108.929688 215.507812 113.992188 211.542969 113.992188 211.542969 C 113.992188 211.542969 111.605469 204.78125 111.699219 204.972656 C 111.796875 205.167969 117.238281 209.03125 117.238281 209.03125 C 117.238281 209.03125 122.777344 205.167969 122.679688 205.167969 C 122.585938 205.167969 120.578125 211.542969 120.578125 211.542969 L 125.542969 215.3125 Z M 119.339844 215.410156 "/>
<path style=" stroke:none;fill-rule:evenodd;fill:rgb(0%,0%,0%);fill-opacity:1;" d="M 148.992188 131.886719 C 148.992188 132.082031 144.785156 143.886719 144.785156 143.886719 L 140.960938 132.082031 C 140.960938 132.082031 128.148438 131.695312 128.148438 131.886719 C 128.148438 132.082031 138.285156 124.148438 138.285156 124.148438 C 138.285156 124.148438 133.503906 110.601562 133.695312 110.988281 C 133.886719 111.375 144.785156 119.117188 144.785156 119.117188 C 144.785156 119.117188 155.875 111.375 155.683594 111.375 C 155.492188 111.375 151.476562 124.148438 151.476562 124.148438 L 161.417969 131.695312 Z M 148.992188 131.886719 "/>
<path style=" stroke:none;fill-rule:evenodd;fill:rgb(100%,90.588235%,0%);fill-opacity:1;" d="M 148.417969 131.289062 C 148.417969 131.457031 144.777344 141.679688 144.777344 141.679688 L 141.464844 131.457031 C 141.464844 131.457031 130.367188 131.121094 130.367188 131.289062 C 130.367188 131.457031 139.144531 124.582031 139.144531 124.582031 C 139.144531 124.582031 135.003906 112.851562 135.171875 113.1875 C 135.335938 113.523438 144.777344 120.226562 144.777344 120.226562 C 144.777344 120.226562 154.378906 113.523438 154.214844 113.523438 C 154.050781 113.523438 150.570312 124.582031 150.570312 124.582031 L 159.183594 131.121094 Z M 148.417969 131.289062 "/>
<path style=" stroke:none;fill-rule:evenodd;fill:rgb(6.27451%,54.901961%,0%);fill-opacity:1;" d="M 146.878906 129.585938 C 146.878906 129.683594 144.777344 135.578125 144.777344 135.578125 L 142.867188 129.683594 C 142.867188 129.683594 136.46875 129.492188 136.46875 129.585938 C 136.46875 129.683594 141.53125 125.722656 141.53125 125.722656 C 141.53125 125.722656 139.144531 118.957031 139.238281 119.152344 C 139.335938 119.34375 144.777344 123.210938 144.777344 123.210938 C 144.777344 123.210938 150.316406 119.34375 150.21875 119.34375 C 150.125 119.34375 148.121094 125.722656 148.121094 125.722656 L 153.085938 129.492188 Z M 146.878906 129.585938 "/>
<path style="fill-rule:evenodd;fill:rgb(0%,57.254902%,0%);fill-opacity:1;stroke-width:2.5;stroke-linecap:butt;stroke-linejoin:miter;stroke:rgb(0%,0%,0%);stroke-opacity:1;stroke-miterlimit:4;" d="M 711.018736 586.135771 C 711.024156 481.29452 697.233463 396.311442 680.216779 396.311661 C 663.200096 396.311879 649.396711 481.28579 649.41303 586.129866 C 649.40761 690.971117 663.198302 775.954195 680.214986 775.953976 C 697.23167 775.953757 711.013316 690.977021 711.018736 586.135771 Z M 711.018736 586.135771 " transform="matrix(0.178364,-0.018592,0.0102181,0.143072,80.452596,146.621105)"/>
<path style="fill-rule:evenodd;fill:rgb(0%,57.254902%,0%);fill-opacity:1;stroke-width:2.5;stroke-linecap:butt;stroke-linejoin:miter;stroke:rgb(0%,0%,0%);stroke-opacity:1;stroke-miterlimit:4;" d="M 711.020819 586.124647 C 711.016582 481.305053 697.219942 396.300725 680.199604 396.315037 C 663.201293 396.305066 649.398983 481.292973 649.401745 586.139669 C 649.405982 690.959263 663.202622 775.963591 680.202409 775.946461 C 697.221271 775.95925 711.023581 690.971343 711.020819 586.124647 Z M 711.020819 586.124647 " transform="matrix(0.188662,-0.0196171,0.0102779,0.143067,78.841342,147.261319)"/>
<path style="fill-rule:evenodd;fill:rgb(0%,57.254902%,0%);fill-opacity:1;stroke-width:2.5;stroke-linecap:butt;stroke-linejoin:miter;stroke:rgb(0%,0%,0%);stroke-opacity:1;stroke-miterlimit:4;" d="M 711.019019 586.125853 C 711.015007 481.302523 697.21642 396.304662 680.210103 396.318679 C 663.205577 396.308178 649.413787 481.290119 649.416007 586.137968 C 649.394325 690.958707 663.192912 775.956568 680.199229 775.942551 C 697.229449 775.955643 711.02124 690.973702 711.019019 586.125853 Z M 711.019019 586.125853 " transform="matrix(0.150918,-0.0159482,0.0110247,0.158154,101.502048,137.375945)"/>
<path style="fill-rule:evenodd;fill:rgb(66.27451%,33.72549%,0%);fill-opacity:1;stroke-width:2.5054;stroke-linecap:butt;stroke-linejoin:miter;stroke:rgb(0%,0%,0%);stroke-opacity:1;stroke-miterlimit:4;" d="M 238.336628 971.785858 C 268.317936 970.12108 254.982672 955.144486 269.976496 946.809129 C 284.970777 938.497285 306.609019 943.483593 313.263023 953.465244 C 319.942322 963.470003 314.943698 973.453461 323.267134 973.458889 C 331.590571 973.464316 557.813265 960.791627 566.149077 969.099452 C 574.460508 977.431196 576.125933 994.079805 567.807704 1000.730485 C 559.489933 1007.404678 273.316627 1015.080606 263.323388 1008.422689 C 253.330148 1001.764771 238.344254 973.455662 238.336628 971.785858 Z M 238.336628 971.785858 " transform="matrix(0.15722,0.00270755,-0.00305734,0.166081,133.359178,69.896776)"/>
<path style="fill-rule:evenodd;fill:rgb(100%,100%,0%);fill-opacity:1;stroke-width:3.8527;stroke-linecap:butt;stroke-linejoin:miter;stroke:rgb(0%,0%,0%);stroke-opacity:1;stroke-miterlimit:4;" d="M 529.575988 405.457243 C 529.606597 445.44386 575.162206 433.343506 576.395376 466.725593 C 575.66069 502.116407 499.682485 470.182759 497.764181 405.472255 C 499.686039 340.740249 572.888359 307.539061 574.459504 344.47078 C 575.709985 375.131164 529.579355 365.470047 529.575988 405.457243 Z M 529.575988 405.457243 " transform="matrix(0.114933,0.00151551,-0.00213945,0.0889935,133.017463,198.520632)"/>
<path style="fill-rule:evenodd;fill:rgb(100%,100%,0%);fill-opacity:1;stroke-width:3.8527;stroke-linecap:butt;stroke-linejoin:miter;stroke:rgb(0%,0%,0%);stroke-opacity:1;stroke-miterlimit:4;" d="M 529.601372 405.477122 C 529.598005 445.464318 575.152797 433.320085 576.385968 466.702172 C 575.686075 502.136287 499.707053 470.158758 497.754772 405.448833 C 499.677447 340.760707 572.878951 307.515639 574.484072 344.44678 C 575.701393 375.151623 529.60474 365.489927 529.601372 405.477122 Z M 529.601372 405.477122 " transform="matrix(0.114933,0.00151551,-0.00213945,0.0889935,136.123963,198.561793)"/>
<path style="fill-rule:evenodd;fill:rgb(100%,100%,0%);fill-opacity:1;stroke-width:3.8527;stroke-linecap:butt;stroke-linejoin:miter;stroke:rgb(0%,0%,0%);stroke-opacity:1;stroke-miterlimit:4;" d="M 529.603422 405.442332 C 529.600054 445.429528 575.155663 433.329174 576.388834 466.711261 C 575.688125 502.101496 499.709919 470.167848 497.757639 405.457923 C 499.679496 340.725917 572.881817 307.524729 574.486938 344.455869 C 575.703443 375.116832 529.572813 365.455715 529.603422 405.442332 Z M 529.603422 405.442332 " transform="matrix(0.114933,0.00151551,-0.00213945,0.0889935,139.455684,198.43598)"/>
<path style="fill-rule:evenodd;fill:rgb(100%,100%,0%);fill-opacity:1;stroke-width:3.8527;stroke-linecap:butt;stroke-linejoin:miter;stroke:rgb(0%,0%,0%);stroke-opacity:1;stroke-miterlimit:4;" d="M 529.59483 405.46279 C 529.591463 445.449986 575.147072 433.349633 576.413402 466.687261 C 575.679533 502.121955 499.701327 470.188306 497.749047 405.478381 C 499.704881 340.745797 572.873225 307.545187 574.477529 344.432448 C 575.728828 375.136712 529.598197 365.475594 529.59483 405.46279 Z M 529.59483 405.46279 " transform="matrix(0.114933,0.00151551,-0.00213945,0.0889935,142.562184,198.477141)"/>
<path style="fill-rule:evenodd;fill:rgb(66.27451%,33.72549%,0%);fill-opacity:1;stroke-width:0.39908;stroke-linecap:butt;stroke-linejoin:miter;stroke:rgb(0%,0%,0%);stroke-opacity:1;stroke-miterlimit:4;" d="M 481.915597 -41.085819 C 481.915262 -42.964841 480.332738 -44.489922 478.379689 -44.488177 C 476.426543 -44.49079 474.847397 -42.964135 474.847731 -41.085112 C 474.848066 -39.20609 476.43059 -37.681009 478.379045 -37.682689 C 480.332094 -37.684434 481.915931 -39.206796 481.915597 -41.085819 Z M 481.915597 -41.085819 " transform="matrix(0.850016,0.0128011,-0.0188611,0.895992,-190.051547,265.596646)"/>
<path style="fill-rule:evenodd;fill:rgb(0%,57.254902%,0%);fill-opacity:1;stroke-width:2.5;stroke-linecap:butt;stroke-linejoin:miter;stroke:rgb(0%,0%,0%);stroke-opacity:1;stroke-miterlimit:4;" d="M 447.933151 905.003617 C 447.929448 891.667221 438.607672 880.850705 427.111799 880.855076 C 415.615925 880.859447 406.292223 891.659783 406.295926 904.996179 C 406.299629 918.332576 415.621405 929.149091 427.117278 929.14472 C 438.613152 929.140349 447.936854 918.340013 447.933151 905.003617 Z M 447.933151 905.003617 " transform="matrix(0.127773,-0.0192758,0.0260328,0.243406,121.190816,12.651322)"/>
<path style="fill-rule:evenodd;fill:rgb(0%,57.254902%,0%);fill-opacity:1;stroke-width:2.5;stroke-linecap:butt;stroke-linejoin:miter;stroke:rgb(0%,0%,0%);stroke-opacity:1;stroke-miterlimit:4;" d="M 447.915257 905.00223 C 447.911554 891.665834 438.619864 880.851701 427.123991 880.856072 C 415.628118 880.860442 406.304415 891.660779 406.308118 904.997175 C 406.281735 918.331188 415.603511 929.147704 427.099384 929.143333 C 438.595258 929.138962 447.91896 918.338626 447.915257 905.00223 Z M 447.915257 905.00223 " transform="matrix(0.127773,-0.0192758,0.0260328,0.243406,116.657983,12.291939)"/>
<path style="fill-rule:evenodd;fill:rgb(0%,57.254902%,0%);fill-opacity:1;stroke-width:2.5;stroke-linecap:butt;stroke-linejoin:miter;stroke:rgb(0%,0%,0%);stroke-opacity:1;stroke-miterlimit:4;" d="M 447.92239 904.993613 C 447.918687 891.657217 438.593693 880.856495 427.09782 880.860865 C 415.605164 880.849443 406.30833 891.667955 406.281947 905.001969 C 406.28565 918.338365 415.610644 929.139087 427.1033 929.150509 C 438.599173 929.146139 447.926093 918.330009 447.92239 904.993613 Z M 447.92239 904.993613 " transform="matrix(0.127773,-0.0192758,0.0260328,0.243406,113.415108,6.493393)"/>
<path style="fill-rule:evenodd;fill:rgb(0%,57.254902%,0%);fill-opacity:1;stroke-width:2.5;stroke-linecap:butt;stroke-linejoin:miter;stroke:rgb(0%,0%,0%);stroke-opacity:1;stroke-miterlimit:4;" d="M 447.909047 904.996706 C 447.922815 891.658691 438.602406 880.860196 427.123802 880.858987 C 415.613925 880.855515 406.299901 891.658823 406.286133 904.996837 C 406.303637 918.337114 415.620723 929.149915 427.10265 929.136818 C 438.612526 929.14029 447.926551 918.336982 447.909047 904.996706 Z M 447.909047 904.996706 " transform="matrix(0.122848,-0.0194258,0.0285348,0.268538,117.846752,-16.438306)"/>
<path style="fill-rule:evenodd;fill:rgb(0%,57.254902%,0%);fill-opacity:1;stroke-width:2.5;stroke-linecap:butt;stroke-linejoin:miter;stroke:rgb(0%,0%,0%);stroke-opacity:1;stroke-miterlimit:4;" d="M 447.927534 905.001427 C 447.916699 891.658479 438.609803 880.856609 427.103063 880.857239 C 415.627593 880.860227 406.306396 891.668428 406.289293 904.993755 C 406.300128 918.336703 415.607024 929.138573 427.113764 929.137943 C 438.617172 929.152577 447.910431 918.326754 447.927534 905.001427 Z M 447.927534 905.001427 " transform="matrix(0.122891,-0.0189968,0.0268339,0.251787,125.703993,-1.405258)"/>
<path style="fill-rule:evenodd;fill:rgb(0%,57.254902%,0%);fill-opacity:1;stroke-width:2.5;stroke-linecap:butt;stroke-linejoin:miter;stroke:rgb(0%,0%,0%);stroke-opacity:1;stroke-miterlimit:4;" d="M 447.922721 905.000014 C 447.911886 891.657066 438.60499 880.855196 427.09825 880.855825 C 415.62278 880.858814 406.301583 891.667015 406.28448 904.992341 C 406.295315 918.33529 415.602211 929.13716 427.108951 929.13653 C 438.612359 929.151163 447.936889 918.3277 447.922721 905.000014 Z M 447.922721 905.000014 " transform="matrix(0.122891,-0.0189968,0.0268339,0.251787,122.220247,-3.50265)"/>
<path style="fill-rule:evenodd;fill:rgb(0%,57.254902%,0%);fill-opacity:1;stroke-width:2.5;stroke-linecap:butt;stroke-linejoin:miter;stroke:rgb(0%,0%,0%);stroke-opacity:1;stroke-miterlimit:4;" d="M 447.917791 905.002125 C 447.938227 891.661535 438.60006 880.857306 427.124591 880.860295 C 415.617851 880.860924 406.296653 891.669125 406.310821 904.996811 C 406.290385 918.3374 415.628552 929.141629 427.104021 929.138641 C 438.610762 929.138011 447.931959 918.32981 447.917791 905.002125 Z M 447.917791 905.002125 " transform="matrix(0.122891,-0.0189968,0.0268339,0.251787,117.830171,-6.530619)"/>
<path style="fill-rule:evenodd;fill:rgb(0%,57.254902%,0%);fill-opacity:1;stroke-width:2.5;stroke-linecap:butt;stroke-linejoin:miter;stroke:rgb(0%,0%,0%);stroke-opacity:1;stroke-miterlimit:4;" d="M 447.915164 904.996312 C 447.932267 891.670986 438.597433 880.851494 427.121963 880.854483 C 415.615223 880.855112 406.294025 891.663313 406.304861 905.006262 C 406.287758 918.331588 415.622591 929.15108 427.098061 929.148091 C 438.604801 929.147462 447.925999 918.339261 447.915164 904.996312 Z M 447.915164 904.996312 " transform="matrix(0.122891,-0.0189968,0.0268339,0.251787,113.756432,-8.365143)"/>
<path style="fill-rule:evenodd;fill:rgb(50.196078%,29.411765%,100%);fill-opacity:1;stroke-width:2.5;stroke-linecap:butt;stroke-linejoin:miter;stroke:rgb(0%,0%,0%);stroke-opacity:1;stroke-miterlimit:4;" d="M 173.156481 346.348183 C 173.156481 346.348183 118.971804 411.241746 151.930536 555.164102 C 185.863633 699.769487 330.88558 744.943892 330.88558 744.943892 C 330.88558 744.943892 357.378211 697.515851 332.599951 580.917026 C 292.646085 411.061629 216.461441 346.343895 216.461441 346.343895 Z M 173.156481 346.348183 " transform="matrix(0.137377,0.0250003,-0.0244031,0.141625,170.687659,107.560759)"/>
<path style="fill-rule:evenodd;fill:rgb(0%,57.254902%,0%);fill-opacity:1;stroke-width:2.5;stroke-linecap:butt;stroke-linejoin:miter;stroke:rgb(0%,0%,0%);stroke-opacity:1;stroke-miterlimit:4;" d="M 447.917388 904.993615 C 447.9291 891.665952 438.608835 880.851638 427.117037 880.854748 C 415.625239 880.857858 406.283951 891.65903 406.304612 905.002188 C 406.2929 918.329851 415.613165 929.144165 427.104963 929.141055 C 438.596761 929.137945 447.938049 918.336773 447.917388 904.993615 Z M 447.917388 904.993615 " transform="matrix(0.129163,0.00380516,-0.0177652,0.24415,167.265818,2.802227)"/>
<path style="fill-rule:evenodd;fill:rgb(0%,57.254902%,0%);fill-opacity:1;stroke-width:2.5;stroke-linecap:butt;stroke-linejoin:miter;stroke:rgb(0%,0%,0%);stroke-opacity:1;stroke-miterlimit:4;" d="M 447.931256 904.998889 C 447.91279 891.671696 438.592525 880.857383 427.100727 880.860493 C 415.608929 880.863603 406.297819 891.664304 406.288302 905.007933 C 406.306768 918.335126 415.627033 929.149439 427.118831 929.146329 C 438.610629 929.143219 447.919544 918.326553 447.931256 904.998889 Z M 447.931256 904.998889 " transform="matrix(0.129163,0.00380516,-0.0177652,0.24415,162.869589,1.64073)"/>
<path style="fill-rule:evenodd;fill:rgb(0%,57.254902%,0%);fill-opacity:1;stroke-width:2.5;stroke-linecap:butt;stroke-linejoin:miter;stroke:rgb(0%,0%,0%);stroke-opacity:1;stroke-miterlimit:4;" d="M 447.910061 904.99324 C 447.921773 891.665576 438.601508 880.851262 427.10971 880.854372 C 415.617912 880.857483 406.306802 891.658184 406.297285 905.001812 C 406.285573 918.329476 415.605838 929.143789 427.097636 929.140679 C 438.589434 929.137569 447.930722 918.336398 447.910061 904.99324 Z M 447.910061 904.99324 " transform="matrix(0.129163,0.00380516,-0.0177652,0.24415,160.71207,-4.642966)"/>
<path style="fill-rule:evenodd;fill:rgb(0%,57.254902%,0%);fill-opacity:1;stroke-width:2.5;stroke-linecap:butt;stroke-linejoin:miter;stroke:rgb(0%,0%,0%);stroke-opacity:1;stroke-miterlimit:4;" d="M 447.92194 904.998648 C 447.93757 891.669463 438.615246 880.858798 427.117795 880.861435 C 415.618039 880.849591 406.280527 891.664299 406.296261 904.99316 C 406.282935 918.336824 415.605259 929.14749 427.10271 929.144853 C 438.600162 929.142216 447.937674 918.327509 447.92194 904.998648 Z M 447.92194 904.998648 " transform="matrix(0.124344,0.00277976,-0.0197823,0.269325,169.159794,-26.417781)"/>
<path style="fill-rule:evenodd;fill:rgb(0%,57.254902%,0%);fill-opacity:1;stroke-width:2.5;stroke-linecap:butt;stroke-linejoin:miter;stroke:rgb(0%,0%,0%);stroke-opacity:1;stroke-miterlimit:4;" d="M 447.909342 905.004058 C 447.939268 891.670357 438.601852 880.853232 427.101906 880.860179 C 415.599666 880.851687 406.301404 891.658174 406.305136 905.006915 C 406.306574 918.340218 415.610333 929.142303 427.112572 929.150795 C 438.612518 929.143848 447.91078 918.33736 447.909342 905.004058 Z M 447.909342 905.004058 " transform="matrix(0.12431,0.00320963,-0.0184705,0.252539,174.211996,-10.224996)"/>
<path style="fill-rule:evenodd;fill:rgb(0%,57.254902%,0%);fill-opacity:1;stroke-width:2.5;stroke-linecap:butt;stroke-linejoin:miter;stroke:rgb(0%,0%,0%);stroke-opacity:1;stroke-miterlimit:4;" d="M 447.934954 904.992696 C 447.933516 891.659393 438.598393 880.857707 427.096153 880.849215 C 415.627572 880.855764 406.297945 891.66265 406.299383 904.995952 C 406.300821 918.329255 415.606874 929.146778 427.10682 929.139831 C 438.60906 929.148323 447.938686 918.341437 447.934954 904.992696 Z M 447.934954 904.992696 " transform="matrix(0.12431,0.00320963,-0.0184705,0.252539,171.157822,-12.909708)"/>
<path style="fill-rule:evenodd;fill:rgb(0%,57.254902%,0%);fill-opacity:1;stroke-width:2.5;stroke-linecap:butt;stroke-linejoin:miter;stroke:rgb(0%,0%,0%);stroke-opacity:1;stroke-miterlimit:4;" d="M 447.926208 904.993627 C 447.924769 891.660325 438.621011 880.85824 427.118771 880.849748 C 415.618825 880.856695 406.289199 891.663581 406.290637 904.996884 C 406.292075 918.330186 415.629492 929.147311 427.098073 929.140763 C 438.600313 929.149255 447.927646 918.32693 447.926208 904.993627 Z M 447.926208 904.993627 " transform="matrix(0.12431,0.00320963,-0.0184705,0.252539,167.377676,-16.671634)"/>
<path style="fill-rule:evenodd;fill:rgb(0%,57.254902%,0%);fill-opacity:1;stroke-width:2.5;stroke-linecap:butt;stroke-linejoin:miter;stroke:rgb(0%,0%,0%);stroke-opacity:1;stroke-miterlimit:4;" d="M 447.909974 904.993654 C 447.908536 891.660351 438.604778 880.858267 427.102538 880.849775 C 415.602592 880.856722 406.30433 891.663209 406.305768 904.996512 C 406.307206 918.329814 415.613258 929.147338 427.113204 929.140391 C 438.615444 929.148883 447.911412 918.326957 447.909974 904.993654 Z M 447.909974 904.993654 " transform="matrix(0.12431,0.00320963,-0.0184705,0.252539,163.696101,-19.202839)"/>
<path style="fill-rule:evenodd;fill:rgb(78.823529%,0%,0%);fill-opacity:1;stroke-width:1.25;stroke-linecap:butt;stroke-linejoin:miter;stroke:rgb(0%,0%,0%);stroke-opacity:1;stroke-miterlimit:4;" d="M 682.688853 606.105223 C 682.696789 503.10651 656.62309 419.61739 624.418452 419.610991 C 592.241307 419.615824 566.141054 503.108495 566.133118 606.107207 C 566.125182 709.10592 592.226373 792.606272 624.403518 792.601439 C 656.608156 792.607838 682.708409 709.115167 682.688853 606.105223 Z M 682.688853 606.105223 " transform="matrix(0.121891,-0.0470852,0.049426,0.115251,99.098366,156.923044)"/>
<path style="fill-rule:evenodd;fill:rgb(0%,57.254902%,0%);fill-opacity:1;stroke-width:1.4635;stroke-linecap:butt;stroke-linejoin:miter;stroke:rgb(0%,0%,0%);stroke-opacity:1;stroke-miterlimit:4;" d="M 228.947475 356.743547 C 228.955475 349.628013 224.10705 343.84952 218.125694 343.838666 C 212.157288 343.844688 207.308415 349.615746 207.300642 356.748462 C 207.305591 363.880872 212.154017 369.659365 218.135145 369.653037 C 224.103552 369.647016 228.952424 363.875957 228.947475 356.743547 Z M 228.947475 356.743547 " transform="matrix(0.306951,0.00546521,-0.00404672,0.227282,133.796949,93.124481)"/>
<path style="fill-rule:evenodd;fill:rgb(0%,57.254902%,0%);fill-opacity:1;stroke-width:1.5462;stroke-linecap:butt;stroke-linejoin:miter;stroke:rgb(0%,0%,0%);stroke-opacity:1;stroke-miterlimit:4;" d="M 228.958593 356.743135 C 228.953321 349.627906 224.109136 343.837177 218.128592 343.845696 C 212.147795 343.837034 207.303616 349.630218 207.308887 356.745447 C 207.300211 363.878163 212.158345 369.651405 218.12494 369.660373 C 224.105484 369.651854 228.949916 363.87585 228.958593 356.743135 Z M 228.958593 356.743135 " transform="matrix(0.274974,0.00489588,-0.00404672,0.227282,143.267127,89.10643)"/>
<path style="fill-rule:evenodd;fill:rgb(0%,57.254902%,0%);fill-opacity:1;stroke-width:1.5462;stroke-linecap:butt;stroke-linejoin:miter;stroke:rgb(0%,0%,0%);stroke-opacity:1;stroke-miterlimit:4;" d="M 228.95461 356.748347 C 228.949086 349.615937 224.105153 343.842389 218.124609 343.850908 C 212.158013 343.84194 207.313582 349.617944 207.304905 356.75066 C 207.310429 363.883069 212.154362 369.656617 218.134906 369.648098 C 224.101502 369.657066 228.960135 363.880757 228.95461 356.748347 Z M 228.95461 356.748347 " transform="matrix(0.274974,0.00489588,-0.00404672,0.227282,139.252619,89.034953)"/>
<path style="fill-rule:evenodd;fill:rgb(0%,57.254902%,0%);fill-opacity:1;stroke-width:1.56;stroke-linecap:butt;stroke-linejoin:miter;stroke:rgb(0%,0%,0%);stroke-opacity:1;stroke-miterlimit:4;" d="M 228.946891 356.755436 C 228.947652 349.615427 224.106706 343.836604 218.134119 343.85187 C 212.14772 343.84916 207.30996 349.622399 207.308957 356.744106 C 207.308196 363.884115 212.149143 369.662939 218.1353 369.647347 C 224.108128 369.650382 228.959458 363.876818 228.946891 356.755436 Z M 228.946891 356.755436 " transform="matrix(0.287763,0.00512358,-0.00379896,0.213367,137.261826,90.910304)"/>
<path style="fill-rule:evenodd;fill:rgb(0%,57.254902%,0%);fill-opacity:1;stroke-width:1.56;stroke-linecap:butt;stroke-linejoin:miter;stroke:rgb(0%,0%,0%);stroke-opacity:1;stroke-miterlimit:4;" d="M 228.954014 356.745034 C 228.955017 349.623327 224.11407 343.844504 218.127671 343.841794 C 212.154843 343.838758 207.303755 349.630625 207.302752 356.752332 C 207.301749 363.874039 212.156266 369.652537 218.129094 369.655572 C 224.101923 369.658608 228.953253 363.885043 228.954014 356.745034 Z M 228.954014 356.745034 " transform="matrix(0.287763,0.00512358,-0.00379896,0.213367,136.912081,87.432019)"/>
<path style="fill-rule:evenodd;fill:rgb(0%,57.254902%,0%);fill-opacity:1;stroke-width:1.5462;stroke-linecap:butt;stroke-linejoin:miter;stroke:rgb(0%,0%,0%);stroke-opacity:1;stroke-miterlimit:4;" d="M 228.948428 356.75018 C 228.957105 349.617464 224.113172 343.843916 218.132628 343.852435 C 212.151831 343.843773 207.307399 349.619777 207.312924 356.752186 C 207.304247 363.884902 212.14818 369.65845 218.128724 369.649931 C 224.109521 369.658593 228.953952 363.88259 228.948428 356.75018 Z M 228.948428 356.75018 " transform="matrix(0.274974,0.00489588,-0.00404672,0.227282,135.418389,86.690816)"/>
<path style="fill-rule:evenodd;fill:rgb(0%,57.254902%,0%);fill-opacity:1;stroke-width:1.5623;stroke-linecap:butt;stroke-linejoin:miter;stroke:rgb(0%,0%,0%);stroke-opacity:1;stroke-miterlimit:4;" d="M 228.949922 356.75478 C 228.94642 349.614179 224.104258 343.843194 218.123714 343.85189 C 212.157118 343.842735 207.310916 349.616227 207.300217 356.75714 C 207.303466 363.880202 212.145628 369.651187 218.126425 369.66003 C 224.106969 369.651333 228.953171 363.877841 228.949922 356.75478 Z M 228.949922 356.75478 " transform="matrix(0.274974,0.00489588,-0.00396418,0.222646,136.286988,84.585763)"/>
<path style="fill-rule:evenodd;fill:rgb(0%,57.254902%,0%);fill-opacity:1;stroke-width:1.4635;stroke-linecap:butt;stroke-linejoin:miter;stroke:rgb(0%,0%,0%);stroke-opacity:1;stroke-miterlimit:4;" d="M 228.950342 356.757037 C 228.958115 349.624322 224.10969 343.845829 218.128561 343.852156 C 212.147206 343.841302 207.311282 349.629236 207.303283 356.744771 C 207.308232 363.877181 212.156657 369.655673 218.125064 369.649652 C 224.106419 369.660506 228.955065 363.872266 228.950342 356.757037 Z M 228.950342 356.757037 " transform="matrix(0.306951,0.00546521,-0.00404672,0.227282,124.42503,82.898743)"/>
<path style="fill-rule:evenodd;fill:rgb(0%,57.254902%,0%);fill-opacity:1;stroke-width:1.56;stroke-linecap:butt;stroke-linejoin:miter;stroke:rgb(0%,0%,0%);stroke-opacity:1;stroke-miterlimit:4;" d="M 228.949569 356.744709 C 228.950572 349.623002 224.109625 343.844178 218.123226 343.841468 C 212.150398 343.838433 207.31288 349.629974 207.311877 356.751681 C 207.310874 363.873388 212.15182 369.652211 218.124649 369.655247 C 224.111048 369.657957 228.948807 363.884718 228.949569 356.744709 Z M 228.949569 356.744709 " transform="matrix(0.287763,0.00512358,-0.00379896,0.213367,134.636015,83.080548)"/>
<path style="fill-rule:evenodd;fill:rgb(0%,57.254902%,0%);fill-opacity:1;stroke-width:1.5623;stroke-linecap:butt;stroke-linejoin:miter;stroke:rgb(0%,0%,0%);stroke-opacity:1;stroke-miterlimit:4;" d="M 228.951981 356.74282 C 228.948732 349.619759 224.10657 343.848773 218.125773 343.839931 C 212.15943 343.848315 207.313228 349.621807 207.302276 356.745181 C 207.305777 363.885782 212.14794 369.656767 218.128484 369.64807 C 224.109281 369.656913 228.955483 363.883421 228.951981 356.74282 Z M 228.951981 356.74282 " transform="matrix(0.274974,0.00489588,-0.00396418,0.222646,133.317624,80.346228)"/>
<path style="fill-rule:evenodd;fill:rgb(0%,57.254902%,0%);fill-opacity:1;stroke-width:1.5462;stroke-linecap:butt;stroke-linejoin:miter;stroke:rgb(0%,0%,0%);stroke-opacity:1;stroke-miterlimit:4;" d="M 228.955503 356.753811 C 228.949978 349.621401 224.106046 343.847853 218.125249 343.839191 C 212.158906 343.847404 207.300273 349.623714 207.305797 356.756123 C 207.311069 363.871352 212.155254 369.662081 218.135799 369.653562 C 224.102394 369.66253 228.946573 363.869345 228.955503 356.753811 Z M 228.955503 356.753811 " transform="matrix(0.274974,0.00489588,-0.00404672,0.227282,127.037552,83.18605)"/>
<path style="fill-rule:evenodd;fill:rgb(0%,57.254902%,0%);fill-opacity:1;stroke-width:1.5623;stroke-linecap:butt;stroke-linejoin:miter;stroke:rgb(0%,0%,0%);stroke-opacity:1;stroke-miterlimit:4;" d="M 228.948471 356.753633 C 228.959424 349.630259 224.102807 343.842047 218.136464 343.850431 C 212.155667 343.841589 207.309465 349.61508 207.312967 356.755681 C 207.302014 363.879055 212.158378 369.649728 218.124974 369.658883 C 224.105518 369.650186 228.95172 363.876694 228.948471 356.753633 Z M 228.948471 356.753633 " transform="matrix(0.274974,0.00489588,-0.00396418,0.222646,128.041289,82.652431)"/>
<path style="fill-rule:evenodd;fill:rgb(0%,57.254902%,0%);fill-opacity:1;stroke-width:1.5623;stroke-linecap:butt;stroke-linejoin:miter;stroke:rgb(0%,0%,0%);stroke-opacity:1;stroke-miterlimit:4;" d="M 228.959671 356.746818 C 228.956423 349.623756 224.11426 343.852771 218.133463 343.843929 C 212.152919 343.852625 207.306717 349.626117 207.309966 356.749179 C 207.313215 363.87224 212.15563 369.660765 218.136174 369.652068 C 224.10277 369.661223 228.948719 363.870192 228.959671 356.746818 Z M 228.959671 356.746818 " transform="matrix(0.274974,0.00489588,-0.00396418,0.222646,129.303807,80.235925)"/>
<path style="fill-rule:evenodd;fill:rgb(0%,57.254902%,0%);fill-opacity:1;stroke-width:2.5449;stroke-linecap:butt;stroke-linejoin:miter;stroke:rgb(0%,0%,0%);stroke-opacity:1;stroke-miterlimit:4;" d="M 596.125124 564.467255 C 596.125409 450.903595 565.925438 358.848743 528.682251 358.856495 C 491.449853 358.836994 461.244896 450.905456 461.244611 564.469115 C 461.233536 678.060028 491.433507 770.114881 528.676694 770.107128 C 565.909092 770.12663 596.114049 678.058167 596.125124 564.467255 Z M 596.125124 564.467255 " transform="matrix(0.135103,-0.0476968,0.0534877,0.124448,105.769688,148.701893)"/>
<path style="fill-rule:evenodd;fill:rgb(0%,57.254902%,0%);fill-opacity:1;stroke-width:2.5;stroke-linecap:butt;stroke-linejoin:miter;stroke:rgb(0%,0%,0%);stroke-opacity:1;stroke-miterlimit:4;" d="M 542.004191 646.076303 C 541.990973 623.542619 536.040933 605.268791 528.671076 605.27703 C 521.337996 605.272331 515.361167 623.544842 515.348966 646.066791 C 515.362184 668.600475 521.312224 686.874304 528.682081 686.866064 C 536.04058 686.882498 541.99199 668.598253 542.004191 646.076303 Z M 542.004191 646.076303 " transform="matrix(0.126743,-0.0602775,0.0583451,0.130569,110.633028,145.715405)"/>
<path style="fill-rule:evenodd;fill:rgb(0%,57.254902%,0%);fill-opacity:1;stroke-width:1.5327;stroke-linecap:butt;stroke-linejoin:miter;stroke:rgb(0%,0%,0%);stroke-opacity:1;stroke-miterlimit:4;" d="M 139.869378 643.99953 C 139.864539 701.671268 121.116129 730.171279 105.329355 754.303908 C 112.837146 721.849571 118.218902 701.673717 118.223741 644.001979 C 118.216388 586.32496 147.798994 558.672659 158.605021 542.018462 C 154.419033 558.656316 139.874216 586.327791 139.869378 643.99953 Z M 139.869378 643.99953 " transform="matrix(0.261146,-0.0721666,0.136842,0.166616,89.832121,100.996491)"/>
<path style="fill-rule:evenodd;fill:rgb(0%,57.254902%,0%);fill-opacity:1;stroke-width:1.5327;stroke-linecap:butt;stroke-linejoin:miter;stroke:rgb(0%,0%,0%);stroke-opacity:1;stroke-miterlimit:4;" d="M 139.875732 643.981667 C 139.860881 701.672513 121.122483 730.153417 105.325697 754.305154 C 112.843501 721.831709 118.227435 701.680243 118.220083 644.003225 C 118.224921 586.331486 147.805349 558.654797 158.601363 542.019707 C 154.415375 558.657561 139.870559 586.329037 139.86572 644.000775 Z M 139.875732 643.981667 " transform="matrix(0.261146,-0.0721666,0.136842,0.166616,90.543843,108.757739)"/>
<path style="fill-rule:evenodd;fill:rgb(0%,57.254902%,0%);fill-opacity:1;stroke-width:1.5327;stroke-linecap:butt;stroke-linejoin:miter;stroke:rgb(0%,0%,0%);stroke-opacity:1;stroke-miterlimit:4;" d="M 139.869272 643.998772 C 139.872097 701.661864 121.120795 730.159398 105.319847 754.305643 C 112.840288 721.837088 118.219455 701.669619 118.21663 644.006527 C 118.22406 586.324437 147.802906 558.670871 158.602316 542.007252 C 154.413808 558.658749 139.876701 586.316681 139.869272 643.998772 Z M 139.869272 643.998772 " transform="matrix(0.259653,-0.077696,0.140147,0.16367,88.861705,117.678839)"/>
<path style="fill-rule:evenodd;fill:rgb(0%,57.254902%,0%);fill-opacity:1;stroke-width:1.3887;stroke-linecap:butt;stroke-linejoin:miter;stroke:rgb(0%,0%,0%);stroke-opacity:1;stroke-miterlimit:4;" d="M 542.007493 646.066497 C 542.010278 623.534813 536.037184 605.270929 528.679229 605.280359 C 521.327453 605.274695 515.362644 623.531776 515.359859 646.063461 C 515.357074 668.595146 521.32399 686.874121 528.681945 686.864692 C 536.033722 686.870356 542.004708 668.598182 542.007493 646.066497 Z M 542.007493 646.066497 " transform="matrix(0.251242,-0.0639393,0.102838,0.232651,10.560856,72.640812)"/>
<path style="fill-rule:evenodd;fill:rgb(0%,57.254902%,0%);fill-opacity:1;stroke-width:1.6398;stroke-linecap:butt;stroke-linejoin:miter;stroke:rgb(0%,0%,0%);stroke-opacity:1;stroke-miterlimit:4;" d="M 542.002475 646.07967 C 542.005872 623.546115 536.039334 605.283938 528.678579 605.278867 C 521.317823 605.273796 515.356916 623.542159 515.35352 646.075714 C 515.350123 668.609268 521.316661 686.871446 528.684113 686.857585 C 536.044869 686.862656 542.005776 668.594293 542.002475 646.07967 Z M 542.002475 646.07967 " transform="matrix(0.226017,-0.0388727,0.0799496,0.192589,35.551356,90.602313)"/>
<path style="fill-rule:evenodd;fill:rgb(0%,57.254902%,0%);fill-opacity:1;stroke-width:1.6398;stroke-linecap:butt;stroke-linejoin:miter;stroke:rgb(0%,0%,0%);stroke-opacity:1;stroke-miterlimit:4;" d="M 541.992573 646.073469 C 541.996303 623.529084 536.035852 605.267938 528.681905 605.264943 C 521.321598 605.280945 515.362389 623.542577 515.365019 646.067966 C 515.367648 668.593355 521.321739 686.873497 528.682046 686.857495 C 536.035993 686.86049 541.995202 668.598857 541.992573 646.073469 Z M 541.992573 646.073469 " transform="matrix(0.226782,-0.0340744,0.0759295,0.194229,33.99867,90.634061)"/>
<path style="fill-rule:evenodd;fill:rgb(0%,57.254902%,0%);fill-opacity:1;stroke-width:2.0966;stroke-linecap:butt;stroke-linejoin:miter;stroke:rgb(0%,0%,0%);stroke-opacity:1;stroke-miterlimit:4;" d="M 542.003557 646.078468 C 542.006752 623.551712 536.032766 605.264054 528.677437 605.264194 C 521.322108 605.264334 515.347211 623.54284 515.363676 646.074177 C 515.360482 668.600933 521.324214 686.858995 528.679543 686.858855 C 536.034872 686.858715 542.000363 668.605224 542.003557 646.078468 Z M 542.003557 646.078468 " transform="matrix(0.182692,-0.0334551,0.0686943,0.143575,65.078888,109.903653)"/>
<path style="fill-rule:evenodd;fill:rgb(0%,57.254902%,0%);fill-opacity:1;stroke-width:2.0966;stroke-linecap:butt;stroke-linejoin:miter;stroke:rgb(0%,0%,0%);stroke-opacity:1;stroke-miterlimit:4;" d="M 541.994073 646.069532 C 541.991942 623.543388 536.040238 605.276613 528.673999 605.272828 C 521.327894 605.272249 515.36388 623.528256 515.357846 646.079663 C 515.359977 668.605806 521.311681 686.872582 528.67792 686.876367 C 536.024025 686.876946 541.996205 668.595676 541.994073 646.069532 Z M 541.994073 646.069532 " transform="matrix(0.184511,-0.0234084,0.0596355,0.147054,66.803631,104.774106)"/>
<path style="fill-rule:evenodd;fill:rgb(0%,57.254902%,0%);fill-opacity:1;stroke-width:2.0862;stroke-linecap:butt;stroke-linejoin:miter;stroke:rgb(0%,0%,0%);stroke-opacity:1;stroke-miterlimit:4;" d="M 145.713727 569.470004 C 145.700746 603.486646 138.997211 631.083104 130.710409 631.084737 C 122.455633 631.07729 115.734178 603.484243 115.724435 569.457509 " transform="matrix(0.141428,-0.0744453,0.0686096,0.167629,140.734948,99.067993)"/>
<path style="fill-rule:evenodd;fill:rgb(0%,57.254902%,0%);fill-opacity:1;stroke-width:2.0966;stroke-linecap:butt;stroke-linejoin:miter;stroke:rgb(0%,0%,0%);stroke-opacity:1;stroke-miterlimit:4;" d="M 541.993153 646.081576 C 541.999187 623.530168 536.047483 605.263393 528.673078 605.284872 C 521.326974 605.284293 515.362959 623.540299 515.365091 646.066443 C 515.367222 668.592586 521.318926 686.859362 528.685165 686.863146 C 536.03127 686.863726 541.995284 668.607719 541.993153 646.081576 Z M 541.993153 646.081576 " transform="matrix(0.184511,-0.0234084,0.0596355,0.147054,66.42027,98.077001)"/>
<path style="fill-rule:evenodd;fill:rgb(0%,57.254902%,0%);fill-opacity:1;stroke-width:2.0966;stroke-linecap:butt;stroke-linejoin:miter;stroke:rgb(0%,0%,0%);stroke-opacity:1;stroke-miterlimit:4;" d="M 541.994818 646.078145 C 541.994965 623.540114 536.030435 605.267206 528.684466 605.262134 C 521.330784 605.282393 515.348931 623.542539 515.348785 646.080569 C 515.356351 668.593269 521.32088 686.866177 528.687138 686.873957 C 536.040821 686.853698 542.002384 668.590845 541.994818 646.078145 Z M 541.994818 646.078145 " transform="matrix(0.185012,-0.0197772,0.0563296,0.148187,64.386056,97.306961)"/>
<path style="fill-rule:evenodd;fill:rgb(0%,57.254902%,0%);fill-opacity:1;stroke-width:2.8797;stroke-linecap:butt;stroke-linejoin:miter;stroke:rgb(0%,0%,0%);stroke-opacity:1;stroke-miterlimit:4;" d="M 145.696132 569.4811 C 145.699343 603.485195 138.97991 631.081916 130.727943 631.072142 C 122.45877 631.08619 115.72724 603.465099 115.724029 569.461004 " transform="matrix(0.0922286,-0.0701932,0.0666193,0.113274,144.975777,121.660753)"/>
<path style="fill-rule:evenodd;fill:rgb(0%,57.254902%,0%);fill-opacity:1;stroke-width:2.8797;stroke-linecap:butt;stroke-linejoin:miter;stroke:rgb(0%,0%,0%);stroke-opacity:1;stroke-miterlimit:4;" d="M 145.720275 569.468246 C 145.706278 603.496164 138.986845 631.092885 130.70562 631.06498 C 122.436447 631.079028 115.734175 603.476068 115.730964 569.471973 " transform="matrix(0.0922286,-0.0701932,0.0666193,0.113274,146.544719,119.10531)"/>
<path style="fill-rule:evenodd;fill:rgb(0%,57.254902%,0%);fill-opacity:1;stroke-width:2.0862;stroke-linecap:butt;stroke-linejoin:miter;stroke:rgb(0%,0%,0%);stroke-opacity:1;stroke-miterlimit:4;" d="M 145.703673 569.474641 C 145.701621 603.478297 138.995937 631.077116 130.702894 631.083188 C 122.443409 631.08483 115.73844 603.47342 115.740492 569.469764 " transform="matrix(0.128658,-0.0959763,0.0928287,0.154734,133.359172,99.796691)"/>
<path style="fill-rule:evenodd;fill:rgb(0%,57.254902%,0%);fill-opacity:1;stroke-width:2.7424;stroke-linecap:butt;stroke-linejoin:miter;stroke:rgb(0%,0%,0%);stroke-opacity:1;stroke-miterlimit:4;" d="M 145.695031 569.452979 C 145.711689 603.47807 138.991359 631.066862 130.708822 631.079765 C 122.441954 631.0711 115.723003 603.468663 115.735642 569.461646 " transform="matrix(0.092071,-0.0771516,0.0668862,0.12506,148.805738,111.192561)"/>
<path style="fill-rule:evenodd;fill:rgb(50.196078%,29.411765%,100%);fill-opacity:1;stroke-width:2.5;stroke-linecap:butt;stroke-linejoin:miter;stroke:rgb(0%,0%,0%);stroke-opacity:1;stroke-miterlimit:4;" d="M 276.281953 345.409789 C 263.9941 354.59243 276.693248 370.563472 288.277042 376.092424 C 301.367604 383.765957 374.907342 434.271286 424.612949 388.095911 C 383.817175 388.927017 305.955363 324.905913 276.281953 345.409789 Z M 276.281953 345.409789 " transform="matrix(0.121251,0.0057564,-0.00322498,0.174458,167.704251,103.161882)"/>
<path style="fill-rule:evenodd;fill:rgb(50.196078%,29.411765%,100%);fill-opacity:1;stroke-width:2.5;stroke-linecap:butt;stroke-linejoin:miter;stroke:rgb(0%,0%,0%);stroke-opacity:1;stroke-miterlimit:4;" d="M 276.281724 345.398955 C 263.993871 354.581596 276.693019 370.552639 288.276813 376.081591 C 301.367376 383.755123 374.907708 434.282824 424.612721 388.085078 C 383.816946 388.916184 305.955135 324.89508 276.281724 345.398955 Z M 276.281724 345.398955 " transform="matrix(0.121251,0.0057564,-0.00322498,0.174458,166.618307,98.597367)"/>
<path style="fill-rule:evenodd;fill:rgb(50.196078%,29.411765%,100%);fill-opacity:1;stroke-width:2.5;stroke-linecap:butt;stroke-linejoin:miter;stroke:rgb(0%,0%,0%);stroke-opacity:1;stroke-miterlimit:4;" d="M 276.278687 345.419459 C 263.990239 354.579729 276.689387 370.550771 288.305369 376.078661 C 301.363743 383.753256 374.904076 434.280956 424.609088 388.08321 C 383.813314 388.914316 305.952098 324.915583 276.278687 345.419459 Z M 276.278687 345.419459 " transform="matrix(0.121251,0.0057564,-0.00322498,0.174458,165.239835,94.234432)"/>
<path style="fill-rule:evenodd;fill:rgb(50.196078%,29.411765%,100%);fill-opacity:1;stroke-width:2.5;stroke-linecap:butt;stroke-linejoin:miter;stroke:rgb(0%,0%,0%);stroke-opacity:1;stroke-miterlimit:4;" d="M 276.261681 345.402158 C 264.006016 354.583736 276.672976 370.555841 288.288958 376.083731 C 301.347332 383.758326 374.88707 434.263655 424.624865 388.087218 C 383.829091 388.918324 305.96728 324.89722 276.261681 345.402158 Z M 276.261681 345.402158 " transform="matrix(0.121251,0.0057564,-0.00322498,0.174458,162.234029,89.237548)"/>
<path style="fill-rule:evenodd;fill:rgb(50.196078%,29.411765%,100%);fill-opacity:1;stroke-width:2.5;stroke-linecap:butt;stroke-linejoin:miter;stroke:rgb(0%,0%,0%);stroke-opacity:1;stroke-miterlimit:4;" d="M 211.17293 247.289158 C 232.939323 235.226516 267.78768 237.545642 290.894972 258.473978 C 310.255433 275.418112 336.217101 333.667866 361.218793 351.297031 C 341.002922 351.311923 329.930387 345.521086 318.992071 336.125718 C 290.22881 351.550627 280.858151 352.84595 255.090522 351.750544 C 219.219259 350.413937 192.644926 334.098211 186.908914 311.157885 C 180.742747 289.349306 191.833245 258.65704 211.17293 247.289158 Z M 211.17293 247.289158 " transform="matrix(0.162722,-0.0288802,0.0342355,0.14089,141.011242,117.55502)"/>
<path style="fill-rule:evenodd;fill:rgb(100%,0%,0%);fill-opacity:1;stroke-width:2.5;stroke-linecap:butt;stroke-linejoin:miter;stroke:rgb(0%,0%,0%);stroke-opacity:1;stroke-miterlimit:4;" d="M 301.391309 323.02514 C 301.392645 314.748774 295.049733 308.064234 287.233287 308.056134 C 279.41684 308.048035 273.081602 314.770139 273.080266 323.046505 C 273.07893 331.322872 279.421842 338.007411 287.238288 338.015511 C 295.054735 338.023611 301.389973 331.301506 301.391309 323.02514 Z M 301.391309 323.02514 " transform="matrix(0.190406,0.00339015,-0.00185718,0.104307,136.389059,116.276533)"/>
<path style="fill-rule:evenodd;fill:rgb(100%,100%,0%);fill-opacity:1;stroke-width:2.5;stroke-linecap:butt;stroke-linejoin:miter;stroke:rgb(0%,0%,0%);stroke-opacity:1;stroke-miterlimit:4;" d="M 227.839721 348.267378 C 227.83424 339.472667 217.419543 332.352642 204.565532 332.371428 C 191.7426 332.374254 181.316787 339.479439 181.330677 348.248734 C 181.336157 357.043445 191.728184 364.154015 204.573786 364.160645 C 217.419388 364.167274 227.830939 357.027218 227.839721 348.267378 Z M 227.839721 348.267378 " transform="matrix(0.151412,-0.0563268,0.0500956,0.135059,133.836879,121.761529)"/>
<path style=" stroke:none;fill-rule:evenodd;fill:rgb(0%,0%,0%);fill-opacity:1;" d="M 191.316406 150.859375 C 191.324219 150.398438 190.898438 150.015625 190.363281 150.003906 C 189.828125 149.996094 189.386719 150.363281 189.378906 150.824219 C 189.371094 151.289062 189.796875 151.671875 190.332031 151.679688 C 190.867188 151.691406 191.308594 151.324219 191.316406 150.859375 Z M 191.316406 150.859375 "/>
<path style="fill-rule:evenodd;fill:rgb(100%,100%,0%);fill-opacity:1;stroke-width:6.5598;stroke-linecap:butt;stroke-linejoin:miter;stroke:rgb(0%,0%,0%);stroke-opacity:1;stroke-miterlimit:4;" d="M 516.813771 260.281478 C 521.210476 278.371672 510.111004 303.394064 483.684906 312.908034 C 456.906727 326.053069 437.604375 354.703522 428.014144 400.929342 C 380.760152 297.640986 404.917509 252.642114 448.654667 240.593257 C 485.996644 226.183154 509.0583 227.215825 516.813771 260.281478 Z M 516.813771 260.281478 " transform="matrix(0.0716502,0.00196506,-0.00381041,0.0658135,148.50884,134.893458)"/>
<path style=" stroke:none;fill-rule:evenodd;fill:rgb(0%,0%,0%);fill-opacity:1;" d="M 182.347656 153.523438 C 182.328125 153.136719 182.003906 152.835938 181.625 152.855469 C 181.246094 152.878906 180.957031 153.207031 180.980469 153.59375 C 181 153.980469 181.324219 154.277344 181.703125 154.257812 C 182.082031 154.238281 182.371094 153.910156 182.347656 153.523438 Z M 182.347656 153.523438 "/>
</g>
</svg>
