<?xml version="1.0" encoding="UTF-8"?>
<svg xmlns="http://www.w3.org/2000/svg" xmlns:xlink="http://www.w3.org/1999/xlink" width="384pt" height="384pt" viewBox="0 0 384 384" version="1.1">
<g id="surface1">
<rect x="0" y="0" width="384" height="384" style="fill:rgb(100%,100%,100%);fill-opacity:1;stroke:none;"/>
<path style=" stroke:none;fill-rule:evenodd;fill:rgb(0%,74.901961%,7.45098%);fill-opacity:1;" d="M 0 0 L 192 0 L 192 384 L 0 384 Z M 0 0 "/>
<path style=" stroke:none;fill-rule:evenodd;fill:rgb(94.901961%,9.803922%,18.823529%);fill-opacity:1;" d="M 272.597656 241.933594 C 247.058594 287.871094 190.726562 304.191406 145.96875 279.539062 C 101.207031 254.886719 84.890625 198.550781 109.542969 153.789062 C 134.199219 109.03125 190.527344 92.710938 235.289062 117.367188 C 251.835938 126.480469 263.617188 138.460938 272.882812 155.53125 C 269.5 150.878906 265.726562 147.039062 260.769531 143.144531 C 230.242188 119.140625 185.984375 124.4375 161.980469 154.96875 C 137.980469 185.496094 143.277344 229.753906 173.804688 253.757812 C 204.335938 277.757812 248.59375 272.460938 272.59375 241.933594 Z M 272.597656 241.933594 "/>
<path style=" stroke:none;fill-rule:evenodd;fill:rgb(94.901961%,9.803922%,18.823529%);fill-opacity:1;" d="M 192.074219 168.304688 L 228.679688 180.761719 L 251.371094 149.457031 L 250.832031 188.121094 L 287.617188 200.027344 L 250.683594 211.460938 L 250.726562 250.132812 L 228.433594 218.535156 L 191.675781 230.523438 L 214.832031 199.558594 Z M 192.074219 168.304688 "/>
</g>
</svg>
