<?xml version="1.0" encoding="UTF-8"?>
<svg xmlns="http://www.w3.org/2000/svg" xmlns:xlink="http://www.w3.org/1999/xlink" width="384pt" height="384pt" viewBox="0 0 384 384" version="1.1">
<g id="surface1">
<path style=" stroke:none;fill-rule:evenodd;fill:rgb(100%,90.980392%,0%);fill-opacity:1;" d="M 0 0 L 383.996094 0 L 383.996094 383.988281 L 0 383.988281 Z M 0 0 "/>
<path style=" stroke:none;fill-rule:evenodd;fill:rgb(0%,7.843137%,55.686275%);fill-opacity:1;" d="M 0 191.992188 L 383.996094 191.992188 L 383.996094 383.988281 L 0 383.988281 Z M 0 191.992188 "/>
<path style=" stroke:none;fill-rule:evenodd;fill:rgb(85.490196%,0%,6.27451%);fill-opacity:1;" d="M 0 287.996094 L 383.996094 287.996094 L 383.996094 383.996094 L 0 383.996094 Z M 0 287.996094 "/>
<path style=" stroke:none;fill-rule:evenodd;fill:rgb(0%,0%,0%);fill-opacity:1;" d="M 160.105469 183.121094 L 119.105469 226.414062 L 118.382812 225.484375 L 159.382812 182.191406 Z M 160.105469 183.121094 "/>
<path style=" stroke:none;fill-rule:evenodd;fill:rgb(0%,0%,0%);fill-opacity:1;" d="M 188.664062 190.195312 L 135.011719 246.75 L 134.074219 245.859375 L 187.722656 189.304688 Z M 188.664062 190.195312 "/>
<path style="fill-rule:evenodd;fill:rgb(50.196078%,50.196078%,50.196078%);fill-opacity:1;stroke-width:4.1036;stroke-linecap:butt;stroke-linejoin:miter;stroke:rgb(0%,0%,0%);stroke-opacity:1;stroke-miterlimit:4;" d="M 478.349318 60.199393 L 478.321678 148.817635 L 496.046061 237.408568 L 513.775536 148.801767 L 513.752986 60.222275 Z M 478.349318 60.199393 " transform="matrix(-0.0388053,-0.0384294,-0.0502628,0.0510321,157.545307,261.642621)"/>
<path style="fill-rule:evenodd;fill:rgb(50.196078%,50.196078%,50.196078%);fill-opacity:1;stroke-width:4.1036;stroke-linecap:butt;stroke-linejoin:miter;stroke:rgb(0%,0%,0%);stroke-opacity:1;stroke-miterlimit:4;" d="M 478.352255 60.230846 L 478.374805 148.810339 L 496.099188 237.401273 L 513.778472 148.833221 L 513.806113 60.214979 Z M 478.352255 60.230846 " transform="matrix(-0.0388053,-0.0384294,-0.0502628,0.0510321,143.711064,239.551285)"/>
<path style="fill-rule:evenodd;fill:rgb(100%,87.45098%,0%);fill-opacity:1;stroke-width:1.25;stroke-linecap:butt;stroke-linejoin:miter;stroke:rgb(0%,0%,0%);stroke-opacity:1;stroke-miterlimit:4;" d="M 301.182839 272.841799 C 301.182839 272.841799 283.462475 609.45386 354.328548 609.45386 C 425.194621 609.45386 460.635348 574.012556 460.635348 574.012556 L 459.773942 388.987313 Z M 301.182839 272.841799 " transform="matrix(0.253945,0,0,0.36471,48.484836,-15.343941)"/>
<path style="fill-rule:evenodd;fill:rgb(0%,0%,76.862745%);fill-opacity:1;stroke-width:1.25;stroke-linecap:butt;stroke-linejoin:miter;stroke:rgb(0%,0%,0%);stroke-opacity:1;stroke-miterlimit:4;" d="M 344.453137 304.202373 C 344.453137 321.91767 336.608184 574.023267 372.048912 574.023267 C 407.474257 574.023267 460.635348 556.30797 460.635348 556.30797 L 459.773942 388.998023 Z M 344.453137 304.202373 " transform="matrix(0.253945,0,0,0.36471,48.484836,-15.343941)"/>
<path style="fill-rule:evenodd;fill:rgb(88.235294%,0%,0%);fill-opacity:1;stroke-width:1.25;stroke-linecap:butt;stroke-linejoin:miter;stroke:rgb(0%,0%,0%);stroke-opacity:1;stroke-miterlimit:4;" d="M 367.526527 321.157219 C 367.526527 338.872516 372.048912 538.581962 407.474257 538.581962 L 460.635348 538.581962 L 459.773942 388.987313 Z M 367.526527 321.157219 " transform="matrix(0.253945,0,0,0.36471,48.484836,-15.343941)"/>
<path style=" stroke:none;fill-rule:evenodd;fill:rgb(0%,0%,0%);fill-opacity:1;" d="M 124.246094 84.164062 L 165.242188 127.457031 L 165.964844 126.527344 L 124.96875 83.234375 Z M 124.246094 84.164062 "/>
<path style="fill-rule:evenodd;fill:rgb(100%,87.45098%,0%);fill-opacity:1;stroke-width:1.25;stroke-linecap:butt;stroke-linejoin:miter;stroke:rgb(0%,0%,0%);stroke-opacity:1;stroke-miterlimit:4;" d="M 301.176958 272.845053 C 301.176958 272.845053 265.750173 609.454009 372.042344 609.454009 C 460.63294 609.454009 460.63294 556.304637 478.346332 556.304637 L 460.621123 432.281978 Z M 301.176958 272.845053 " transform="matrix(0.330567,0,0,0.349105,12.971988,12.725113)"/>
<path style="fill:none;stroke-width:2.3046;stroke-linecap:butt;stroke-linejoin:miter;stroke:rgb(0%,0%,0%);stroke-opacity:1;stroke-miterlimit:4;" d="M 269.586749 155.235537 C 270.716606 155.244001 297.905206 61.228778 388.538431 7.998248 " transform="matrix(0.218022,-0.0153171,-0.0283575,0.198621,84.016837,101.905634)"/>
<path style="fill-rule:evenodd;fill:rgb(0%,35.686275%,0%);fill-opacity:1;stroke-width:1.25;stroke-linecap:butt;stroke-linejoin:miter;stroke:rgb(0%,0%,0%);stroke-opacity:1;stroke-miterlimit:4;" d="M 421.357968 -20.326068 C 421.365713 -2.193575 416.811388 11.377567 410.049163 24.980257 C 404.397817 6.855195 400.975117 -2.183931 400.991464 -20.327891 C 400.983719 -38.460384 407.825388 -55.443636 413.430175 -69.040652 C 415.674786 -56.572155 421.374315 -38.470028 421.357968 -20.326068 Z M 421.357968 -20.326068 " transform="matrix(0.0784305,-0.124484,0.164769,0.0791153,107.075214,164.169732)"/>
<path style="fill-rule:evenodd;fill:rgb(100%,0%,0%);fill-opacity:1;stroke-width:1.25;stroke-linecap:butt;stroke-linejoin:miter;stroke:rgb(0%,0%,0%);stroke-opacity:1;stroke-miterlimit:4;" d="M 454.225588 -169.269747 C 454.223912 -165.203218 450.404194 -161.912933 445.717293 -161.925658 C 441.015338 -161.907557 437.222644 -165.236074 437.209268 -169.271778 C 437.210944 -173.338307 441.030662 -176.628591 445.732616 -176.646692 C 450.419518 -176.633968 454.227265 -173.336276 454.225588 -169.269747 Z M 454.225588 -169.269747 " transform="matrix(0.102377,-0.0569424,0.0499927,0.0989169,108.061391,163.78413)"/>
<path style="fill-rule:evenodd;fill:rgb(0%,35.686275%,0%);fill-opacity:1;stroke-width:1.25;stroke-linecap:butt;stroke-linejoin:miter;stroke:rgb(0%,0%,0%);stroke-opacity:1;stroke-miterlimit:4;" d="M 421.353832 -20.323629 C 421.353761 -2.19189 416.797551 11.400935 410.049522 24.988478 C 404.421978 6.85495 400.992162 -2.199165 400.992233 -20.330904 C 400.992303 -38.462643 407.803132 -55.437294 413.443364 -69.043995 C 415.664214 -56.566667 421.353903 -38.455367 421.353832 -20.323629 Z M 421.353832 -20.323629 " transform="matrix(0.0999764,0.06727,-0.0719556,0.188077,109.978561,73.05995)"/>
<path style="fill-rule:evenodd;fill:rgb(0%,35.686275%,0%);fill-opacity:1;stroke-width:1.25;stroke-linecap:butt;stroke-linejoin:miter;stroke:rgb(0%,0%,0%);stroke-opacity:1;stroke-miterlimit:4;" d="M 421.371761 -20.320478 C 421.352674 -2.192045 416.809023 11.389667 410.051929 24.974228 C 404.420611 6.863094 400.993194 -2.186671 400.97207 -20.318909 C 400.987318 -38.468935 407.813814 -55.443695 413.423975 -69.030636 C 415.679107 -56.567654 421.390848 -38.448911 421.371761 -20.320478 Z M 421.371761 -20.320478 " transform="matrix(0.0988053,-0.0174111,-0.017565,0.183999,109.024935,108.64187)"/>
<path style="fill-rule:evenodd;fill:rgb(0%,35.686275%,0%);fill-opacity:1;stroke-width:1.25;stroke-linecap:butt;stroke-linejoin:miter;stroke:rgb(0%,0%,0%);stroke-opacity:1;stroke-miterlimit:4;" d="M 421.377532 -20.334963 C 421.356404 -2.190352 416.802009 11.373572 410.059172 24.97485 C 404.415763 6.872704 400.982259 -2.182751 400.982036 -20.335189 C 400.979274 -38.448574 407.812364 -55.455317 413.43836 -69.02622 C 415.667307 -56.573978 421.353418 -38.456176 421.377532 -20.334963 Z M 421.377532 -20.334963 " transform="matrix(0.0358163,0.142877,-0.0976974,0.109316,136.573495,44.217183)"/>
<path style="fill-rule:evenodd;fill:rgb(0%,35.686275%,0%);fill-opacity:1;stroke-width:1.25;stroke-linecap:butt;stroke-linejoin:miter;stroke:rgb(0%,0%,0%);stroke-opacity:1;stroke-miterlimit:4;" d="M 421.382521 -20.324998 C 421.373697 -2.181104 416.792728 11.386889 410.05102 24.97972 C 404.416961 6.868974 400.981947 -2.204934 400.975276 -20.331734 C 400.968605 -38.458533 407.805289 -55.43651 413.439403 -69.023745 C 415.671847 -56.559096 421.37585 -38.451798 421.382521 -20.324998 Z M 421.382521 -20.324998 " transform="matrix(0.116919,-0.105131,0.105981,0.133215,92.581542,154.957067)"/>
<path style="fill-rule:evenodd;fill:rgb(0%,35.686275%,0%);fill-opacity:1;stroke-width:1.25;stroke-linecap:butt;stroke-linejoin:miter;stroke:rgb(0%,0%,0%);stroke-opacity:1;stroke-miterlimit:4;" d="M 421.377195 -20.329116 C 421.370841 -2.196407 416.796059 11.392154 410.046053 24.990344 C 404.421684 6.855723 400.974667 -2.199285 400.981021 -20.331995 C 400.987374 -38.464704 407.812563 -55.451104 413.435091 -69.037539 C 415.662166 -56.567652 421.383548 -38.461825 421.377195 -20.329116 Z M 421.377195 -20.329116 " transform="matrix(0.122743,-0.126993,0.142224,0.114777,84.259839,178.181271)"/>
<path style="fill-rule:evenodd;fill:rgb(0%,35.686275%,0%);fill-opacity:1;stroke-width:1.25;stroke-linecap:butt;stroke-linejoin:miter;stroke:rgb(0%,0%,0%);stroke-opacity:1;stroke-miterlimit:4;" d="M 421.38479 -20.32474 C 421.369893 -2.189662 416.807971 11.384601 410.039467 24.992292 C 404.410246 6.86012 400.991266 -2.187238 400.970971 -20.333399 C 400.985869 -38.468477 407.812465 -55.443065 413.438119 -69.033012 C 415.669385 -56.58336 421.377725 -38.453248 421.38479 -20.32474 Z M 421.38479 -20.32474 " transform="matrix(0.145283,0.0540763,-0.108872,0.180763,81.551424,102.070626)"/>
<path style="fill-rule:evenodd;fill:rgb(0%,35.686275%,0%);fill-opacity:1;stroke-width:1.25;stroke-linecap:butt;stroke-linejoin:miter;stroke:rgb(0%,0%,0%);stroke-opacity:1;stroke-miterlimit:4;" d="M 421.367625 -20.333697 C 421.353544 -2.191487 416.792294 11.390295 410.046311 24.975467 C 404.412272 6.861574 400.971163 -2.198967 400.970007 -20.326815 C 400.984088 -38.469025 407.818666 -55.439538 413.450263 -69.033409 C 415.673152 -56.581864 421.366469 -38.461545 421.367625 -20.333697 Z M 421.367625 -20.333697 " transform="matrix(0.0855417,0.118201,-0.181227,0.125404,108.563462,76.989933)"/>
<path style="fill-rule:evenodd;fill:rgb(0%,35.686275%,0%);fill-opacity:1;stroke-width:1.25;stroke-linecap:butt;stroke-linejoin:miter;stroke:rgb(0%,0%,0%);stroke-opacity:1;stroke-miterlimit:4;" d="M 421.343482 -20.33079 C 421.386027 -2.183574 416.806194 11.368385 410.032578 24.989889 C 404.431477 6.844715 401.007253 -2.191554 400.964708 -20.33877 C 400.959588 -38.463659 407.843249 -55.439692 413.459942 -69.036712 C 415.692049 -56.576777 421.338362 -38.455679 421.343482 -20.33079 Z M 421.343482 -20.33079 " transform="matrix(0.0456503,0.0492261,-0.076522,0.0924436,149.420708,76.587552)"/>
<path style="fill-rule:evenodd;fill:rgb(0%,35.686275%,0%);fill-opacity:1;stroke-width:1.25;stroke-linecap:butt;stroke-linejoin:miter;stroke:rgb(0%,0%,0%);stroke-opacity:1;stroke-miterlimit:4;" d="M 421.381594 -20.323611 C 421.375961 -2.204588 416.797023 11.408826 410.056551 24.974817 C 404.383833 6.846961 400.949896 -2.196758 401.018432 -20.317908 C 400.995486 -38.476139 407.822796 -55.459925 413.46534 -69.02896 C 415.651606 -56.568363 421.387227 -38.442633 421.381594 -20.323611 Z M 421.381594 -20.323611 " transform="matrix(0.0606057,0.00328833,-0.0441768,0.0972314,142.29843,95.703733)"/>
<path style="fill-rule:evenodd;fill:rgb(0%,35.686275%,0%);fill-opacity:1;stroke-width:1.25;stroke-linecap:butt;stroke-linejoin:miter;stroke:rgb(0%,0%,0%);stroke-opacity:1;stroke-miterlimit:4;" d="M 421.38511 -20.34372 C 421.385025 -2.216859 416.810142 11.367168 410.036099 24.958279 C 404.4538 6.829867 401.005788 -2.212113 401.005873 -20.338973 C 401.005958 -38.465834 407.806784 -55.460845 413.416418 -69.018328 C 415.703352 -56.591777 421.385195 -38.47058 421.38511 -20.34372 Z M 421.38511 -20.34372 " transform="matrix(-0.00557658,0.0818573,-0.0769318,0.0465473,170.194964,64.410522)"/>
<path style="fill-rule:evenodd;fill:rgb(0%,35.686275%,0%);fill-opacity:1;stroke-width:1.25;stroke-linecap:butt;stroke-linejoin:miter;stroke:rgb(0%,0%,0%);stroke-opacity:1;stroke-miterlimit:4;" d="M 421.378902 -20.332599 C 421.373364 -2.192388 416.775635 11.392196 410.054749 24.988708 C 404.395956 6.852086 400.982159 -2.206892 400.960651 -20.326786 C 400.966188 -38.466997 407.797145 -55.447767 413.420713 -69.034081 C 415.671553 -56.568798 421.357393 -38.452494 421.378902 -20.332599 Z M 421.378902 -20.332599 " transform="matrix(0.0378393,0.0648792,-0.141895,0.0863698,132.443649,83.925187)"/>
<path style="fill-rule:evenodd;fill:rgb(0%,35.686275%,0%);fill-opacity:1;stroke-width:1.25;stroke-linecap:butt;stroke-linejoin:miter;stroke:rgb(0%,0%,0%);stroke-opacity:1;stroke-miterlimit:4;" d="M 421.374456 -20.32995 C 421.379405 -2.195778 416.800928 11.38189 410.03752 24.976525 C 404.404985 6.861722 400.97593 -2.186359 400.984744 -20.335844 C 400.979795 -38.470016 407.810276 -55.449939 413.4445 -69.029723 C 415.663536 -56.56619 421.369508 -38.464122 421.374456 -20.32995 Z M 421.374456 -20.32995 " transform="matrix(0.0736211,0.126027,-0.188933,0.11327,124.715063,58.174978)"/>
<path style="fill:none;stroke-width:2.3703;stroke-linecap:butt;stroke-linejoin:miter;stroke:rgb(0%,0%,0%);stroke-opacity:1;stroke-miterlimit:4;" d="M 269.584597 155.231314 C 270.716118 155.236317 297.904703 61.221117 388.529329 7.987963 " transform="matrix(0.199875,-0.111171,0.0799897,0.15827,70.785879,147.448328)"/>
<path style="fill-rule:evenodd;fill:rgb(100%,0%,0%);fill-opacity:1;stroke-width:1.25;stroke-linecap:butt;stroke-linejoin:miter;stroke:rgb(0%,0%,0%);stroke-opacity:1;stroke-miterlimit:4;" d="M 454.218744 -169.297041 C 454.217068 -165.230571 450.427134 -161.923189 445.725179 -161.905088 C 441.038278 -161.917812 437.230531 -165.215457 437.232207 -169.281927 C 437.233884 -173.348397 441.023818 -176.655779 445.71072 -176.643055 C 450.412674 -176.661156 454.220421 -173.363511 454.218744 -169.297041 Z M 454.218744 -169.297041 " transform="matrix(0.102377,-0.0569424,0.0499934,0.0989183,120.92686,145.638244)"/>
<path style="fill-rule:evenodd;fill:rgb(100%,0%,0%);fill-opacity:1;stroke-width:1.25;stroke-linecap:butt;stroke-linejoin:miter;stroke:rgb(0%,0%,0%);stroke-opacity:1;stroke-miterlimit:4;" d="M 454.231598 -169.287962 C 454.229922 -165.221492 450.410204 -161.931254 445.70825 -161.913153 C 441.021348 -161.925877 437.243385 -165.206377 437.215278 -169.289992 C 437.216954 -173.356462 441.036672 -176.6467 445.723573 -176.633976 C 450.425528 -176.652076 454.233274 -173.354432 454.231598 -169.287962 Z M 454.231598 -169.287962 " transform="matrix(0.102377,-0.0569424,0.0499934,0.0989183,127.030559,142.036516)"/>
<path style="fill-rule:evenodd;fill:rgb(100%,0%,0%);fill-opacity:1;stroke-width:1.25;stroke-linecap:butt;stroke-linejoin:miter;stroke:rgb(0%,0%,0%);stroke-opacity:1;stroke-miterlimit:4;" d="M 454.219462 -169.288973 C 454.207334 -165.197726 450.41713 -161.893694 445.742198 -161.91986 C 441.023924 -161.927813 437.238762 -165.191681 437.2221 -169.305754 C 437.219677 -173.355962 441.038671 -176.637168 445.728154 -176.652041 C 450.417637 -176.666913 454.21704 -173.339181 454.219462 -169.288973 Z M 454.219462 -169.288973 " transform="matrix(0.105908,-0.058906,0.0375505,0.0742984,101.946865,150.209153)"/>
<path style="fill-rule:evenodd;fill:rgb(100%,0%,0%);fill-opacity:1;stroke-width:1.25;stroke-linecap:butt;stroke-linejoin:miter;stroke:rgb(0%,0%,0%);stroke-opacity:1;stroke-miterlimit:4;" d="M 454.226511 -169.280674 C 454.228933 -165.230466 450.395388 -161.908221 445.720456 -161.934387 C 441.030973 -161.919515 437.21702 -165.206208 437.229148 -169.297455 C 437.226726 -173.347663 441.04572 -176.628869 445.735203 -176.643742 C 450.424686 -176.658615 454.224088 -173.330883 454.226511 -169.280674 Z M 454.226511 -169.280674 " transform="matrix(0.105908,-0.058906,0.0375505,0.0742984,103.711432,149.443327)"/>
<path style="fill-rule:evenodd;fill:rgb(100%,0%,0%);fill-opacity:1;stroke-width:1.25;stroke-linecap:butt;stroke-linejoin:miter;stroke:rgb(0%,0%,0%);stroke-opacity:1;stroke-miterlimit:4;" d="M 454.208094 -169.270715 C 454.210516 -165.220507 450.420312 -161.916475 445.730829 -161.901602 C 441.012556 -161.909555 437.241944 -165.214461 437.239522 -169.26467 C 437.208309 -173.337704 441.041854 -176.659949 445.716786 -176.633783 C 450.406269 -176.648655 454.220222 -173.361962 454.208094 -169.270715 Z M 454.208094 -169.270715 " transform="matrix(0.105908,-0.058906,0.0375505,0.0742984,102.697383,151.086033)"/>
<path style="fill-rule:evenodd;fill:rgb(100%,0%,0%);fill-opacity:1;stroke-width:1.25;stroke-linecap:butt;stroke-linejoin:miter;stroke:rgb(0%,0%,0%);stroke-opacity:1;stroke-miterlimit:4;" d="M 454.212856 -169.268257 C 454.223157 -165.21067 450.421393 -161.925891 445.719558 -161.931428 C 441.044529 -161.921535 437.229339 -165.219541 437.219038 -169.277128 C 437.222284 -173.362457 441.024048 -176.647236 445.725883 -176.641699 C 450.427717 -176.636161 454.216102 -173.353586 454.212856 -169.268257 Z M 454.212856 -169.268257 " transform="matrix(0.113753,-0.0632697,0.055548,0.109909,108.691376,158.041191)"/>
<path style="fill-rule:evenodd;fill:rgb(100%,0%,0%);fill-opacity:1;stroke-width:1.25;stroke-linecap:butt;stroke-linejoin:miter;stroke:rgb(0%,0%,0%);stroke-opacity:1;stroke-miterlimit:4;" d="M 454.222671 -169.28106 C 454.232972 -165.223474 450.417661 -161.910952 445.715827 -161.916489 C 441.040797 -161.906596 437.225608 -165.204602 437.228854 -169.289931 C 437.218552 -173.347517 441.020317 -176.632297 445.722151 -176.62676 C 450.39718 -176.636652 454.21237 -173.338647 454.222671 -169.28106 Z M 454.222671 -169.28106 " transform="matrix(0.113753,-0.0632697,0.055548,0.109909,109.991752,156.695563)"/>
<path style="fill-rule:evenodd;fill:rgb(100%,0%,0%);fill-opacity:1;stroke-width:1.25;stroke-linecap:butt;stroke-linejoin:miter;stroke:rgb(0%,0%,0%);stroke-opacity:1;stroke-miterlimit:4;" d="M 454.225445 -169.268689 C 454.235746 -165.211102 450.420434 -161.89858 445.7186 -161.904118 C 441.016766 -161.909655 437.241928 -165.219973 437.231627 -169.277559 C 437.221326 -173.335146 441.036637 -176.647668 445.738472 -176.642131 C 450.413501 -176.652023 454.22869 -173.354018 454.225445 -169.268689 Z M 454.225445 -169.268689 " transform="matrix(0.113753,-0.0632697,0.055548,0.109909,110.318875,157.342816)"/>
<path style="fill-rule:evenodd;fill:rgb(0%,0%,76.862745%);fill-opacity:1;stroke-width:1.25;stroke-linecap:butt;stroke-linejoin:miter;stroke:rgb(0%,0%,0%);stroke-opacity:1;stroke-miterlimit:4;" d="M 336.61556 308.270538 C 336.603743 325.983265 301.176958 520.868024 389.755737 574.017395 C 425.194338 591.741312 478.346332 556.304668 478.346332 574.017395 L 460.63294 432.282008 Z M 336.61556 308.270538 " transform="matrix(0.330567,0,0,0.349105,12.971988,12.725102)"/>
<path style="fill-rule:evenodd;fill:rgb(88.235294%,0%,0%);fill-opacity:1;stroke-width:1.25;stroke-linecap:butt;stroke-linejoin:miter;stroke:rgb(0%,0%,0%);stroke-opacity:1;stroke-miterlimit:4;" d="M 372.054161 343.695962 C 372.054161 361.419879 354.328952 503.155266 407.480946 538.580721 C 442.919547 574.017365 531.498326 564.40572 531.498326 564.40572 L 460.63294 432.281978 L 372.054161 343.707152 Z M 372.054161 343.695962 " transform="matrix(0.330567,0,0,0.349105,12.971988,12.725113)"/>
<path style=" stroke:none;fill-rule:evenodd;fill:rgb(0%,0%,0%);fill-opacity:1;" d="M 111.589844 107.972656 L 165.242188 164.527344 L 166.183594 163.636719 L 112.53125 107.082031 Z M 111.589844 107.972656 "/>
<path style="fill-rule:evenodd;fill:rgb(80.784314%,80.784314%,80%);fill-opacity:1;stroke-width:1.25;stroke-linecap:butt;stroke-linejoin:miter;stroke:rgb(0%,0%,0%);stroke-opacity:1;stroke-miterlimit:4;" d="M 460.624203 184.255097 L 478.34395 219.696391 L 478.33233 237.394985 C 477.487322 236.109413 478.346212 255.126649 460.628725 255.115614 C 442.911239 255.104579 442.908978 219.674321 442.908978 219.674321 C 442.908978 219.674321 425.193752 255.093544 425.196014 290.523802 C 425.198275 325.954061 442.929643 343.69676 442.929643 343.69676 C 442.929643 343.69676 440.288473 306.995385 460.644868 308.277537 C 480.951401 309.558292 478.350734 325.987166 478.350734 325.987166 L 478.352995 361.417424 L 496.070482 361.428459 L 496.061437 219.707426 L 513.801022 184.256529 L 486.647984 131.078524 Z M 460.624203 184.255097 " transform="matrix(0.0766883,-0.0800706,0.0589798,0.0617461,56.401924,127.259334)"/>
<path style="fill-rule:evenodd;fill:rgb(80.784314%,80.784314%,80%);fill-opacity:1;stroke-width:1.25;stroke-linecap:butt;stroke-linejoin:miter;stroke:rgb(0%,0%,0%);stroke-opacity:1;stroke-miterlimit:4;" d="M 557.829883 95.667397 L 531.489048 166.524781 L 549.210437 219.668137 L 513.783352 201.980891 L 549.234725 255.12414 L 549.208922 290.568128 L 566.938906 290.568021 L 566.914618 255.112018 L 602.38318 201.968339 L 566.940421 219.66803 L 584.64889 166.546976 Z M 557.829883 95.667397 " transform="matrix(0.0590459,-0.0905507,0.0789527,0.0523936,72.044369,122.546423)"/>
<path style="fill-rule:evenodd;fill:rgb(88.235294%,0%,0%);fill-opacity:1;stroke-width:1.25;stroke-linecap:butt;stroke-linejoin:miter;stroke:rgb(0%,0%,0%);stroke-opacity:1;stroke-miterlimit:4;" d="M 422.530265 136.95049 C 422.530265 139.019171 420.567712 140.709706 418.15756 140.709706 C 415.747407 140.709706 413.784854 139.019171 413.784854 136.95049 C 413.784854 134.881808 415.747407 133.213517 418.15756 133.213517 C 420.567712 133.213517 422.530265 134.881808 422.530265 136.95049 Z M 416.281084 144.869313 C 416.281084 180.659723 437.197765 332.674432 438.867657 336.433648 C 439.00538 340.860181 434.150644 342.817643 431.792137 337.256672 C 425.233079 319.928686 411.047609 177.345384 410.462287 144.046289 C 410.221271 130.299568 414.215239 129.231862 418.777313 129.476544 C 422.547481 129.676739 427.109555 133.191273 427.109555 137.373124 C 427.109555 142.377998 421.273543 146.11497 416.281084 144.869313 Z M 416.281084 144.869313 " transform="matrix(0.226905,0,0,0.17561,32.286045,57.996991)"/>
<path style="fill-rule:evenodd;fill:rgb(0%,0%,76.862745%);fill-opacity:1;stroke-width:1.25;stroke-linecap:butt;stroke-linejoin:miter;stroke:rgb(0%,0%,0%);stroke-opacity:1;stroke-miterlimit:4;" d="M 422.527104 136.961455 C 422.532338 139.034857 420.57016 140.704951 418.158834 140.6988 C 415.755872 140.713633 413.791525 139.036064 413.786291 136.962662 C 413.781058 134.88926 415.743236 133.219166 418.170802 133.220277 C 420.573764 133.205444 422.521871 134.888053 422.527104 136.961455 Z M 416.279606 144.866192 C 447.766694 206.281073 465.014285 311.635281 466.67433 315.388003 C 466.818132 319.823541 461.958893 321.779721 459.595784 316.217343 C 457.109452 312.909714 446.931233 216.04305 410.454602 144.033158 C 410.222534 130.310979 414.211158 129.238087 418.775435 129.472061 C 422.541024 129.670964 427.106982 133.205593 427.109573 137.378421 C 427.112584 142.376412 421.286199 146.118296 416.279606 144.866192 Z M 416.279606 144.866192 " transform="matrix(0.214052,0.0514161,-0.0853194,0.165661,50.570716,40.086182)"/>
<path style="fill-rule:evenodd;fill:rgb(88.235294%,0%,0%);fill-opacity:1;stroke-width:1.25;stroke-linecap:butt;stroke-linejoin:miter;stroke:rgb(0%,0%,0%);stroke-opacity:1;stroke-miterlimit:4;" d="M 422.531146 136.963692 C 422.531146 139.028272 420.577665 140.710016 418.152655 140.710016 C 415.741117 140.710016 413.787636 139.028272 413.787636 136.963692 C 413.787636 134.885439 415.741117 133.217367 418.152655 133.217367 C 420.577665 133.217367 422.531146 134.885439 422.531146 136.963692 Z M 416.280008 144.866522 C 416.280008 180.675368 437.202459 332.674962 438.873022 336.434959 C 439.007744 340.864919 434.144251 342.806445 431.786602 337.255322 C 425.239074 319.918317 411.052764 177.352898 410.459983 144.046159 C 410.217482 130.305079 414.218749 129.238607 418.785852 129.471043 C 422.544618 129.676134 427.111721 133.203695 427.111721 137.387546 C 427.111721 142.378088 421.278224 146.124412 416.280008 144.880195 Z M 416.280008 144.866522 " transform="matrix(0.289947,0,0,0.285697,-6.410166,65.502739)"/>
<path style="fill-rule:evenodd;fill:rgb(0%,0%,76.862745%);fill-opacity:1;stroke-width:1.25;stroke-linecap:butt;stroke-linejoin:miter;stroke:rgb(0%,0%,0%);stroke-opacity:1;stroke-miterlimit:4;" d="M 422.534057 136.956412 C 422.532091 139.029632 420.57407 140.709886 418.158926 140.705802 C 415.743781 140.701717 413.792847 139.031709 413.782104 136.962433 C 413.78407 134.889213 415.74209 133.208959 418.157235 133.213043 C 420.572379 133.217127 422.523314 134.887136 422.534057 136.956412 Z M 416.289623 144.865943 C 447.769309 206.288978 465.011158 311.641072 466.675102 315.385801 C 466.814829 319.821011 461.954156 321.778933 459.595899 316.22057 C 457.116728 312.902789 446.929955 216.042914 410.461019 144.037109 C 410.213186 130.301459 414.219799 129.246339 418.778632 129.469204 C 422.545935 129.676849 427.107677 133.203391 427.101319 137.379573 C 427.108396 142.37773 421.277581 146.129615 416.289623 144.865943 Z M 416.289623 144.865943 " transform="matrix(0.273525,0.0836489,-0.109021,0.269512,16.955325,36.361236)"/>
<path style=" stroke:none;fill-rule:evenodd;fill:rgb(0%,0%,0%);fill-opacity:1;" d="M 217.222656 183.121094 L 258.21875 226.414062 L 258.941406 225.484375 L 217.945312 182.191406 Z M 217.222656 183.121094 "/>
<path style=" stroke:none;fill-rule:evenodd;fill:rgb(0%,0%,0%);fill-opacity:1;" d="M 188.664062 190.195312 L 242.3125 246.75 L 243.253906 245.859375 L 189.605469 189.304688 Z M 188.664062 190.195312 "/>
<path style="fill-rule:evenodd;fill:rgb(50.196078%,50.196078%,50.196078%);fill-opacity:1;stroke-width:4.1036;stroke-linecap:butt;stroke-linejoin:miter;stroke:rgb(0%,0%,0%);stroke-opacity:1;stroke-miterlimit:4;" d="M 478.36516 60.211322 L 478.337519 148.829564 L 496.061902 237.420497 L 513.791377 148.813696 L 513.768827 60.234204 Z M 478.36516 60.211322 " transform="matrix(0.0388053,-0.0384294,0.0502628,0.0510321,219.781604,261.642621)"/>
<path style="fill-rule:evenodd;fill:rgb(50.196078%,50.196078%,50.196078%);fill-opacity:1;stroke-width:4.1036;stroke-linecap:butt;stroke-linejoin:miter;stroke:rgb(0%,0%,0%);stroke-opacity:1;stroke-miterlimit:4;" d="M 478.368096 60.242775 L 478.390646 148.822268 L 496.064071 237.374827 L 513.794313 148.84515 L 513.821954 60.226908 Z M 478.368096 60.242775 " transform="matrix(0.0388053,-0.0384294,0.0502628,0.0510321,233.615846,239.551285)"/>
<path style="fill-rule:evenodd;fill:rgb(100%,87.45098%,0%);fill-opacity:1;stroke-width:1.25;stroke-linecap:butt;stroke-linejoin:miter;stroke:rgb(0%,0%,0%);stroke-opacity:1;stroke-miterlimit:4;" d="M 301.17418 272.841799 C 301.17418 272.841799 283.469198 609.45386 354.335271 609.45386 C 425.201344 609.45386 460.626689 574.012556 460.626689 574.012556 L 459.765283 388.987313 Z M 301.17418 272.841799 " transform="matrix(-0.253945,0,0,0.36471,328.848902,-15.343941)"/>
<path style="fill-rule:evenodd;fill:rgb(0%,0%,76.862745%);fill-opacity:1;stroke-width:1.25;stroke-linecap:butt;stroke-linejoin:miter;stroke:rgb(0%,0%,0%);stroke-opacity:1;stroke-miterlimit:4;" d="M 344.45986 304.202373 C 344.45986 321.91767 336.614907 574.023267 372.040253 574.023267 C 407.48098 574.023267 460.626689 556.30797 460.626689 556.30797 L 459.765283 388.998023 Z M 344.45986 304.202373 " transform="matrix(-0.253945,0,0,0.36471,328.848902,-15.343941)"/>
<path style="fill-rule:evenodd;fill:rgb(88.235294%,0%,0%);fill-opacity:1;stroke-width:1.25;stroke-linecap:butt;stroke-linejoin:miter;stroke:rgb(0%,0%,0%);stroke-opacity:1;stroke-miterlimit:4;" d="M 367.517868 321.157219 C 367.517868 338.872516 372.040253 538.581962 407.48098 538.581962 L 460.626689 538.581962 L 459.765283 388.987313 Z M 367.517868 321.157219 " transform="matrix(-0.253945,0,0,0.36471,328.848902,-15.343941)"/>
<path style=" stroke:none;fill-rule:evenodd;fill:rgb(0%,0%,0%);fill-opacity:1;" d="M 253.089844 84.164062 L 212.09375 127.457031 L 211.371094 126.527344 L 252.367188 83.234375 Z M 253.089844 84.164062 "/>
<path style="fill-rule:evenodd;fill:rgb(0%,35.686275%,0%);fill-opacity:1;stroke-width:1.25;stroke-linecap:butt;stroke-linejoin:miter;stroke:rgb(0%,0%,0%);stroke-opacity:1;stroke-miterlimit:4;" d="M 428.173806 -16.931256 C 428.173806 -16.931256 509.738633 73.69089 539.186403 137.117536 C 568.625364 200.561924 593.570528 293.443273 593.570528 293.443273 C 593.570528 293.443273 595.821512 207.366476 557.31488 130.333101 C 505.192045 32.903379 425.918682 -12.389078 428.173806 -16.931256 Z M 428.173806 -16.931256 " transform="matrix(0.0926272,-0.0417153,0.045988,0.199448,182.727465,137.917993)"/>
<path style="fill-rule:evenodd;fill:rgb(0%,35.686275%,0%);fill-opacity:1;stroke-width:1.25;stroke-linecap:butt;stroke-linejoin:miter;stroke:rgb(0%,0%,0%);stroke-opacity:1;stroke-miterlimit:4;" d="M 428.156458 -16.922532 C 428.156458 -16.922532 509.732063 73.691557 539.189375 137.12347 C 568.646687 200.555382 593.558185 293.438239 593.558185 293.438239 C 593.558185 293.438239 595.811561 207.34664 557.304543 130.324677 C 505.20615 32.915432 425.898574 -12.400006 428.156458 -16.922532 Z M 428.156458 -16.922532 " transform="matrix(0.111034,-0.0289496,0.0390233,0.220482,172.522663,121.837005)"/>
<path style="fill-rule:evenodd;fill:rgb(0%,35.686275%,0%);fill-opacity:1;stroke-width:1.25;stroke-linecap:butt;stroke-linejoin:miter;stroke:rgb(0%,0%,0%);stroke-opacity:1;stroke-miterlimit:4;" d="M 428.176237 -16.922434 C 428.176237 -16.922434 509.730775 73.68123 539.185326 137.126812 C 568.637812 200.555764 593.550703 293.434127 593.550703 293.434127 C 593.550703 293.434127 595.827134 207.348242 557.297359 130.338614 C 505.204606 32.904411 425.906502 -12.39931 428.176237 -16.922434 Z M 428.176237 -16.922434 " transform="matrix(0.131068,0.0799984,-0.0162727,0.224958,175.346499,57.776066)"/>
<path style="fill-rule:evenodd;fill:rgb(0%,35.686275%,0%);fill-opacity:1;stroke-width:1.25;stroke-linecap:butt;stroke-linejoin:miter;stroke:rgb(0%,0%,0%);stroke-opacity:1;stroke-miterlimit:4;" d="M 428.174888 -16.928485 C 428.174888 -16.928485 509.737888 73.684891 539.186334 137.125782 C 568.635835 200.550943 593.555337 293.439992 593.555337 293.439992 C 593.555337 293.439992 595.821812 207.350846 557.293197 130.338908 C 505.203875 32.919384 425.907127 -12.405883 428.174888 -16.928485 Z M 428.174888 -16.928485 " transform="matrix(0.139196,0.0169184,0.00933642,0.249461,162.850943,83.533655)"/>
<path style="fill-rule:evenodd;fill:rgb(0%,35.686275%,0%);fill-opacity:1;stroke-width:1.25;stroke-linecap:butt;stroke-linejoin:miter;stroke:rgb(0%,0%,0%);stroke-opacity:1;stroke-miterlimit:4;" d="M 428.181889 -16.935078 C 428.181889 -16.935078 509.72796 73.683876 539.198046 137.123045 C 568.629696 200.560914 593.535055 293.454682 593.535055 293.454682 C 593.535055 293.454682 595.818048 207.346711 557.316092 130.32086 C 505.189457 32.912385 425.901166 -12.397416 428.181889 -16.935078 Z M 428.181889 -16.935078 " transform="matrix(0.102334,0.0948268,-0.0208764,0.200893,194.317252,56.400586)"/>
<path style="fill-rule:evenodd;fill:rgb(0%,35.686275%,0%);fill-opacity:1;stroke-width:1.25;stroke-linecap:butt;stroke-linejoin:miter;stroke:rgb(0%,0%,0%);stroke-opacity:1;stroke-miterlimit:4;" d="M 428.170112 -16.936546 C 428.170112 -16.936546 509.734332 73.694485 539.192629 137.11492 C 568.617834 200.552602 593.548704 293.438028 593.548704 293.438028 C 593.548704 293.438028 595.80774 207.361258 557.318026 130.335792 C 505.2176 32.920133 425.898503 -12.405854 428.170112 -16.936546 Z M 428.170112 -16.936546 " transform="matrix(0.128169,0.000799637,0.0194286,0.228015,166.349328,98.78894)"/>
<path style="fill-rule:evenodd;fill:rgb(0%,35.686275%,0%);fill-opacity:1;stroke-width:1.25;stroke-linecap:butt;stroke-linejoin:miter;stroke:rgb(0%,0%,0%);stroke-opacity:1;stroke-miterlimit:4;" d="M 428.176086 -16.932938 C 428.176086 -16.932938 509.712281 73.687694 539.176452 137.12248 C 568.640623 200.557265 593.556239 293.444397 593.556239 293.444397 C 593.556239 293.444397 595.828952 207.363461 557.301445 130.338001 C 505.203887 32.904245 425.917287 -12.402528 428.176086 -16.932938 Z M 428.176086 -16.932938 " transform="matrix(0.111963,-0.0401899,0.0377162,0.217937,171.75751,129.9104)"/>
<path style="fill-rule:evenodd;fill:rgb(0%,35.686275%,0%);fill-opacity:1;stroke-width:1.25;stroke-linecap:butt;stroke-linejoin:miter;stroke:rgb(0%,0%,0%);stroke-opacity:1;stroke-miterlimit:4;" d="M 428.183174 -16.923972 C 428.183174 -16.923972 509.734858 73.695147 539.172061 137.123197 C 568.643374 200.554068 593.554684 293.44095 593.554684 293.44095 C 593.554684 293.44095 595.825726 207.360769 557.293665 130.325118 C 505.212994 32.920746 425.889129 -12.397675 428.183174 -16.923972 Z M 428.183174 -16.923972 " transform="matrix(0.112171,-0.0184943,0.0283717,0.22364,173.200461,112.895237)"/>
<path style="fill-rule:evenodd;fill:rgb(0%,35.686275%,0%);fill-opacity:1;stroke-width:1.25;stroke-linecap:butt;stroke-linejoin:miter;stroke:rgb(0%,0%,0%);stroke-opacity:1;stroke-miterlimit:4;" d="M 428.183084 -16.926741 C 428.183084 -16.926741 509.733275 73.687379 539.184647 137.115505 C 568.636018 200.543631 593.542135 293.447131 593.542135 293.447131 C 593.542135 293.447131 595.822233 207.34844 557.311443 130.320534 C 505.213436 32.901336 425.894432 -12.400115 428.183084 -16.926741 Z M 428.183084 -16.926741 " transform="matrix(0.125867,0.0860734,-0.0286976,0.21352,180.217831,55.571532)"/>
<path style="fill-rule:evenodd;fill:rgb(0%,35.686275%,0%);fill-opacity:1;stroke-width:1.25;stroke-linecap:butt;stroke-linejoin:miter;stroke:rgb(0%,0%,0%);stroke-opacity:1;stroke-miterlimit:4;" d="M 428.163575 -16.920893 C 428.163575 -16.920893 509.732888 73.683326 539.179688 137.123689 C 568.626191 200.548448 593.543309 293.447742 593.543309 293.447742 C 593.543309 293.447742 595.802744 207.350247 557.297787 130.325096 C 505.191182 32.908849 425.901824 -12.396259 428.163575 -16.920893 Z M 428.163575 -16.920893 " transform="matrix(0.138072,0.0299079,-0.00263769,0.249776,165.384921,73.772519)"/>
<path style="fill-rule:evenodd;fill:rgb(0%,35.686275%,0%);fill-opacity:1;stroke-width:1.25;stroke-linecap:butt;stroke-linejoin:miter;stroke:rgb(0%,0%,0%);stroke-opacity:1;stroke-miterlimit:4;" d="M 428.157659 -16.921959 C 428.157659 -16.921959 509.710652 73.696984 539.167664 137.137619 C 568.618682 200.560398 593.55304 293.43228 593.55304 293.43228 C 593.55304 293.43228 595.816612 207.362755 557.295969 130.342251 C 505.188191 32.916274 425.904166 -12.394636 428.157659 -16.921959 Z M 428.157659 -16.921959 " transform="matrix(0.0962689,0.0958042,-0.0323237,0.1866,199.394905,58.110979)"/>
<path style="fill-rule:evenodd;fill:rgb(0%,35.686275%,0%);fill-opacity:1;stroke-width:1.25;stroke-linecap:butt;stroke-linejoin:miter;stroke:rgb(0%,0%,0%);stroke-opacity:1;stroke-miterlimit:4;" d="M 428.162422 -16.924581 C 428.162422 -16.924581 509.723716 73.688206 539.182697 137.117706 C 568.641678 200.547206 593.556424 293.449667 593.556424 293.449667 C 593.556424 293.449667 595.822353 207.362159 557.311137 130.326597 C 505.191927 32.908196 425.906358 -12.396107 428.162422 -16.924581 Z M 428.162422 -16.924581 " transform="matrix(0.136042,0.008585,0.00480593,0.232865,163.997277,90.952873)"/>
<path style="fill-rule:evenodd;fill:rgb(100%,87.45098%,0%);fill-opacity:1;stroke-width:1.25;stroke-linecap:butt;stroke-linejoin:miter;stroke:rgb(0%,0%,0%);stroke-opacity:1;stroke-miterlimit:4;" d="M 301.180306 272.845007 C 301.180306 272.845007 265.741705 609.453963 372.045692 609.453963 C 460.624471 609.453963 460.624471 556.304591 478.34968 556.304591 L 460.624471 432.281932 Z M 301.180306 272.845007 " transform="matrix(-0.330567,0,0,0.349105,364.365056,12.725129)"/>
<path style="fill-rule:evenodd;fill:rgb(0%,0%,76.862745%);fill-opacity:1;stroke-width:1.25;stroke-linecap:butt;stroke-linejoin:miter;stroke:rgb(0%,0%,0%);stroke-opacity:1;stroke-miterlimit:4;" d="M 336.607091 308.270492 C 336.607091 325.98322 301.180306 520.867978 389.759085 574.017349 C 425.197686 591.741266 478.337863 556.304622 478.337863 574.017349 L 460.636288 432.281962 Z M 336.607091 308.270492 " transform="matrix(-0.330567,0,0,0.349105,364.365056,12.725118)"/>
<path style="fill-rule:evenodd;fill:rgb(88.235294%,0%,0%);fill-opacity:1;stroke-width:1.25;stroke-linecap:butt;stroke-linejoin:miter;stroke:rgb(0%,0%,0%);stroke-opacity:1;stroke-miterlimit:4;" d="M 372.045692 343.695916 C 372.045692 361.419833 354.3323 503.15522 407.484294 538.580675 C 442.911079 574.017319 531.501674 564.405675 531.501674 564.405675 L 460.636288 432.281932 L 372.057509 343.707106 Z M 372.045692 343.695916 " transform="matrix(-0.330567,0,0,0.349105,364.365056,12.725129)"/>
<path style=" stroke:none;fill-rule:evenodd;fill:rgb(0%,0%,0%);fill-opacity:1;" d="M 265.746094 107.972656 L 212.09375 164.527344 L 211.15625 163.636719 L 264.804688 107.082031 Z M 265.746094 107.972656 "/>
<path style="fill-rule:evenodd;fill:rgb(80.784314%,80.784314%,80%);fill-opacity:1;stroke-width:1.25;stroke-linecap:butt;stroke-linejoin:miter;stroke:rgb(0%,0%,0%);stroke-opacity:1;stroke-miterlimit:4;" d="M 460.635349 184.269552 L 478.329594 219.677774 L 478.343476 237.409439 C 477.472966 236.090797 478.331856 255.108033 460.639872 255.130069 C 442.922385 255.119034 442.920124 219.688775 442.920124 219.688775 C 442.920124 219.688775 425.204899 255.107999 425.20716 290.538257 C 425.209421 325.968515 442.915287 343.678144 442.915287 343.678144 C 442.915287 343.678144 440.299619 307.009839 460.630512 308.258921 C 480.937045 309.539676 478.336378 325.968549 478.336378 325.968549 L 478.338639 361.398808 L 496.056126 361.409843 L 496.047081 219.688809 L 513.786666 184.237912 L 486.65913 131.092978 Z M 460.635349 184.269552 " transform="matrix(-0.0766883,-0.0800706,-0.0589798,0.0617461,320.931815,127.259334)"/>
<path style="fill-rule:evenodd;fill:rgb(80.784314%,80.784314%,80%);fill-opacity:1;stroke-width:1.25;stroke-linecap:butt;stroke-linejoin:miter;stroke:rgb(0%,0%,0%);stroke-opacity:1;stroke-miterlimit:4;" d="M 557.835544 95.677181 L 531.494709 166.534565 L 549.216098 219.677921 L 513.769032 201.956142 L 549.220405 255.099391 L 549.194602 290.543379 L 566.924586 290.543272 L 566.920279 255.121802 L 602.36886 201.94359 L 566.946082 219.677814 L 584.63457 166.522228 Z M 557.835544 95.677181 " transform="matrix(-0.0590459,-0.0905507,-0.0789527,0.0523936,305.292675,122.546423)"/>
<path style="fill-rule:evenodd;fill:rgb(88.235294%,0%,0%);fill-opacity:1;stroke-width:1.25;stroke-linecap:butt;stroke-linejoin:miter;stroke:rgb(0%,0%,0%);stroke-opacity:1;stroke-miterlimit:4;" d="M 422.522832 136.95049 C 422.522832 139.019171 420.577494 140.709706 418.167342 140.709706 C 415.739974 140.709706 413.794636 139.019171 413.794636 136.95049 C 413.794636 134.881808 415.739974 133.213517 418.167342 133.213517 C 420.577494 133.213517 422.522832 134.881808 422.522832 136.95049 Z M 416.290866 144.869313 C 416.290866 180.659723 437.207547 332.674432 438.860223 336.433648 C 439.015162 340.860181 434.14321 342.817643 431.784704 337.256672 C 425.242861 319.928686 411.040176 177.345384 410.454853 144.046289 C 410.213838 130.299568 414.225021 129.231862 418.787095 129.476544 C 422.540047 129.676739 427.102122 133.191273 427.102122 137.373124 C 427.102122 142.377998 421.283325 146.11497 416.290866 144.869313 Z M 416.290866 144.869313 " transform="matrix(-0.226905,0,0,0.17561,345.059924,57.996991)"/>
<path style="fill-rule:evenodd;fill:rgb(0%,0%,76.862745%);fill-opacity:1;stroke-width:1.25;stroke-linecap:butt;stroke-linejoin:miter;stroke:rgb(0%,0%,0%);stroke-opacity:1;stroke-miterlimit:4;" d="M 422.534202 136.959252 C 422.539436 139.032654 420.577258 140.702748 418.149692 140.701637 C 415.74673 140.71647 413.798623 139.033861 413.793389 136.960459 C 413.788156 134.887057 415.750334 133.216963 418.16166 133.223114 C 420.564622 133.208281 422.528969 134.88585 422.534202 136.959252 Z M 416.286704 144.863989 C 447.773792 206.27887 465.005143 311.638118 466.665188 315.390841 C 466.80899 319.826378 461.965991 321.777518 459.586642 316.22018 C 457.11655 312.907511 446.922091 216.045888 410.4617 144.030955 C 410.213392 130.313816 414.218256 129.235884 418.782533 129.469858 C 422.531882 129.673802 427.11408 133.20339 427.100431 137.381258 C 427.103442 142.379249 421.277057 146.121133 416.286704 144.863989 Z M 416.286704 144.863989 " transform="matrix(-0.214052,0.0514161,0.0853194,0.165661,326.763023,40.086182)"/>
<path style="fill-rule:evenodd;fill:rgb(88.235294%,0%,0%);fill-opacity:1;stroke-width:1.25;stroke-linecap:butt;stroke-linejoin:miter;stroke:rgb(0%,0%,0%);stroke-opacity:1;stroke-miterlimit:4;" d="M 422.524285 136.963692 C 422.524285 139.028272 420.570804 140.710016 418.159266 140.710016 C 415.747728 140.710016 413.794247 139.028272 413.794247 136.963692 C 413.794247 134.885439 415.747728 133.217367 418.159266 133.217367 C 420.570804 133.217367 422.524285 134.885439 422.524285 136.963692 Z M 416.286619 144.866522 C 416.286619 180.675368 437.20907 332.674962 438.86616 336.434959 C 439.000883 340.864919 434.150862 342.806445 431.793213 337.255322 C 425.245685 319.918317 411.045902 177.352898 410.453122 144.046159 C 410.210621 130.305079 414.22536 129.238607 418.778991 129.471043 C 422.537757 129.676134 427.10486 133.203695 427.10486 137.387546 C 427.10486 142.378088 421.284835 146.124412 416.286619 144.880195 Z M 416.286619 144.866522 " transform="matrix(-0.289947,0,0,0.285697,383.736301,65.502739)"/>
<path style="fill-rule:evenodd;fill:rgb(0%,0%,76.862745%);fill-opacity:1;stroke-width:1.25;stroke-linecap:butt;stroke-linejoin:miter;stroke:rgb(0%,0%,0%);stroke-opacity:1;stroke-miterlimit:4;" d="M 422.534719 136.956206 C 422.532753 139.029427 420.574732 140.70968 418.159588 140.705596 C 415.744443 140.701512 413.793508 139.031504 413.782765 136.962228 C 413.784731 134.889007 415.742752 133.208754 418.157897 133.212838 C 420.573041 133.216922 422.523976 134.88693 422.534719 136.956206 Z M 416.290284 144.865738 C 447.769971 206.288773 465.01182 311.640866 466.675763 315.385596 C 466.815491 319.820806 461.954818 321.778728 459.59656 316.220365 C 457.117389 312.902584 446.930617 216.042709 410.46168 144.036904 C 410.213848 130.301254 414.220461 129.246134 418.779294 129.468998 C 422.546597 129.676643 427.108339 133.203186 427.10198 137.379368 C 427.109058 142.377524 421.278242 146.12941 416.277575 144.869682 Z M 416.290284 144.865738 " transform="matrix(-0.273525,0.0836489,0.109021,0.269512,360.365191,36.361236)"/>
<path style="fill-rule:evenodd;fill:rgb(88.235294%,0%,0%);fill-opacity:1;stroke-width:1.25;stroke-linecap:butt;stroke-linejoin:miter;stroke:rgb(0%,0%,0%);stroke-opacity:1;stroke-miterlimit:4;" d="M 478.346332 698.028835 C 496.071541 708.681088 515.439286 706.297758 531.498326 698.028835 L 531.498326 556.304637 L 496.071541 556.304637 C 513.784934 609.454009 513.784934 662.60338 478.346332 698.028835 Z M 478.346332 698.028835 " transform="matrix(0.330567,0,0,0.349105,12.971988,12.725113)"/>
<path style="fill-rule:evenodd;fill:rgb(0%,0%,76.862745%);fill-opacity:1;stroke-width:1.25;stroke-linecap:butt;stroke-linejoin:miter;stroke:rgb(0%,0%,0%);stroke-opacity:1;stroke-miterlimit:4;" d="M 513.783242 609.454068 C 513.783242 698.033867 471.312941 717.717162 471.312941 735.431133 C 489.020364 735.431133 500.772905 727.185831 513.783242 715.747838 C 531.490665 698.023921 533.200483 608.061617 531.490665 609.444122 L 513.783242 609.444122 Z M 513.783242 609.454068 " transform="matrix(0.19876,0,0,0.392743,77.419394,-32.421088)"/>
<path style="fill-rule:evenodd;fill:rgb(0%,0%,76.862745%);fill-opacity:1;stroke-width:1.25;stroke-linecap:butt;stroke-linejoin:miter;stroke:rgb(0%,0%,0%);stroke-opacity:1;stroke-miterlimit:4;" d="M 478.348743 609.454068 C 477.542967 661.223421 433.559379 709.09391 441.852977 719.686486 C 451.325761 729.165101 478.348743 698.033867 513.783242 715.757784 C 531.490665 698.033867 533.200483 608.071563 531.490665 609.454068 Z M 478.348743 609.454068 " transform="matrix(0.19876,0,0,0.392743,77.419394,-32.421088)"/>
<path style="fill-rule:evenodd;fill:rgb(100%,87.45098%,0%);fill-opacity:1;stroke-width:1.25;stroke-linecap:butt;stroke-linejoin:miter;stroke:rgb(0%,0%,0%);stroke-opacity:1;stroke-miterlimit:4;" d="M 513.78839 609.454057 C 513.78839 698.025341 473.086866 703.918158 473.086866 727.534183 C 490.794289 727.534183 513.690125 714.629659 513.78839 715.748548 C 531.495813 698.025341 533.205631 608.066634 531.495813 609.454057 Z M 513.78839 609.454057 " transform="matrix(0.19876,0,0,0.261839,71.21134,47.358728)"/>
<path style="fill-rule:evenodd;fill:rgb(100%,87.45098%,0%);fill-opacity:1;stroke-width:1.25;stroke-linecap:butt;stroke-linejoin:miter;stroke:rgb(0%,0%,0%);stroke-opacity:1;stroke-miterlimit:4;" d="M 478.353891 609.454057 C 477.548114 661.221339 434.625792 705.156396 442.919391 715.748548 C 452.392175 725.221812 478.353891 698.040259 513.78839 715.748548 C 531.495813 698.040259 533.205631 608.066634 531.495813 609.454057 Z M 478.353891 609.454057 " transform="matrix(0.19876,0,0,0.261839,71.21134,47.358728)"/>
<path style="fill-rule:evenodd;fill:rgb(88.235294%,0%,0%);fill-opacity:1;stroke-width:1.25;stroke-linecap:butt;stroke-linejoin:miter;stroke:rgb(0%,0%,0%);stroke-opacity:1;stroke-miterlimit:4;" d="M 478.34968 698.035527 C 496.063072 708.676591 515.442634 706.282072 531.501674 698.013149 L 531.501674 556.300141 L 496.063072 556.300141 C 513.788282 609.449512 513.788282 662.598883 478.34968 698.024338 Z M 478.34968 698.035527 " transform="matrix(-0.330567,0,0,0.349105,364.365056,12.730589)"/>
<path style="fill-rule:evenodd;fill:rgb(0%,0%,76.862745%);fill-opacity:1;stroke-width:1.25;stroke-linecap:butt;stroke-linejoin:miter;stroke:rgb(0%,0%,0%);stroke-opacity:1;stroke-miterlimit:4;" d="M 513.772179 609.445179 C 513.772179 698.034924 471.321531 717.718219 471.321531 735.43219 C 489.028954 735.43219 500.781495 727.186888 513.772179 715.748895 C 531.499255 698.024978 533.209073 608.062674 531.499255 609.445179 Z M 513.772179 609.445179 " transform="matrix(-0.19876,0,0,0.392743,299.914344,-32.417597)"/>
<path style="fill-rule:evenodd;fill:rgb(0%,0%,76.862745%);fill-opacity:1;stroke-width:1.25;stroke-linecap:butt;stroke-linejoin:miter;stroke:rgb(0%,0%,0%);stroke-opacity:1;stroke-miterlimit:4;" d="M 478.357333 609.445179 C 477.531904 661.224478 433.548315 709.085021 441.861567 719.687543 C 451.334351 729.166159 478.357333 698.034924 513.791832 715.748895 C 531.499255 698.034924 533.209073 608.07262 531.499255 609.455125 L 478.357333 609.455125 Z M 478.357333 609.445179 " transform="matrix(-0.19876,0,0,0.392743,299.914344,-32.417597)"/>
<path style="fill-rule:evenodd;fill:rgb(100%,87.45098%,0%);fill-opacity:1;stroke-width:1.25;stroke-linecap:butt;stroke-linejoin:miter;stroke:rgb(0%,0%,0%);stroke-opacity:1;stroke-miterlimit:4;" d="M 513.774305 609.447643 C 513.774305 698.033845 473.092434 703.911744 473.092434 727.542688 C 490.799857 727.542688 513.695693 714.623245 513.774305 715.742134 C 531.501381 698.033845 533.211199 608.075139 531.501381 609.447643 Z M 513.774305 609.447643 " transform="matrix(-0.19876,0,0,0.261839,306.125704,47.364314)"/>
<path style="fill-rule:evenodd;fill:rgb(100%,87.45098%,0%);fill-opacity:1;stroke-width:1.25;stroke-linecap:butt;stroke-linejoin:miter;stroke:rgb(0%,0%,0%);stroke-opacity:1;stroke-miterlimit:4;" d="M 478.359459 609.454057 C 477.53403 661.221339 434.611708 705.156396 442.924959 715.748548 C 452.397743 725.221812 478.359459 698.040259 513.774305 715.748548 C 531.501381 698.040259 533.211199 608.066634 531.501381 609.454057 Z M 478.359459 609.454057 " transform="matrix(-0.19876,0,0,0.261839,306.125704,47.358728)"/>
<path style="fill-rule:evenodd;fill:rgb(56.470588%,56.078431%,54.117647%);fill-opacity:1;stroke-width:4.4666;stroke-linecap:butt;stroke-linejoin:miter;stroke:rgb(0%,0%,0%);stroke-opacity:1;stroke-miterlimit:4;" d="M 198.586423 77.949658 L 108.912463 113.398112 L 198.586423 148.815795 L 243.423403 131.091568 L 265.813261 148.815795 L 288.260383 184.264248 L 310.650241 148.815795 L 333.097363 131.091568 L 1534.991836 131.091568 L 1534.991836 95.673885 L 333.097363 95.673885 L 310.650241 77.949658 C 310.650241 60.225431 315.345813 42.531976 333.097363 42.531976 C 350.79165 42.531976 387.325486 42.531976 422.771323 42.531976 C 422.771323 24.807749 377.934343 -10.640705 288.260383 -10.640705 C 198.586423 -10.640705 153.749443 24.807749 153.749443 42.531976 C 189.138017 42.531976 225.671853 42.531976 243.423403 42.531976 C 261.11769 42.531976 265.813261 60.225431 265.813261 77.949658 L 243.36614 95.673885 L 198.52916 77.949658 Z M 198.586423 77.949658 " transform="matrix(0.0682159,0,0,0.126945,130.812629,202.096877)"/>
<path style="fill-rule:evenodd;fill:rgb(71.764706%,30.196078%,0%);fill-opacity:1;stroke-width:1.723;stroke-linecap:butt;stroke-linejoin:miter;stroke:rgb(0%,0%,0%);stroke-opacity:1;stroke-miterlimit:4;" d="M 204.354054 95.660883 L 540.949023 95.660883 L 540.949023 113.384977 L 204.354054 113.384977 Z M 204.354054 95.660883 " transform="matrix(0.157413,0,0,0.155156,129.824232,207.892012)"/>
<path style="fill-rule:evenodd;fill:rgb(71.764706%,30.196078%,0%);fill-opacity:1;stroke-width:1.723;stroke-linecap:butt;stroke-linejoin:miter;stroke:rgb(0%,0%,0%);stroke-opacity:1;stroke-miterlimit:4;" d="M 204.354054 77.961966 L 540.949023 77.961966 L 540.949023 95.660883 L 204.354054 95.660883 Z M 204.354054 77.961966 " transform="matrix(0.157413,0,0,0.155156,129.824232,207.892012)"/>
<path style="fill-rule:evenodd;fill:rgb(71.764706%,30.196078%,0%);fill-opacity:1;stroke-width:1.723;stroke-linecap:butt;stroke-linejoin:miter;stroke:rgb(0%,0%,0%);stroke-opacity:1;stroke-miterlimit:4;" d="M 204.354054 60.237872 L 540.949023 60.237872 L 540.949023 77.961966 L 204.354054 77.961966 Z M 204.354054 60.237872 " transform="matrix(0.157413,0,0,0.155156,129.824232,207.892012)"/>
<path style="fill-rule:evenodd;fill:rgb(71.764706%,30.196078%,0%);fill-opacity:1;stroke-width:1.723;stroke-linecap:butt;stroke-linejoin:miter;stroke:rgb(0%,0%,0%);stroke-opacity:1;stroke-miterlimit:4;" d="M 204.354054 42.513778 L 540.949023 42.513778 L 540.949023 60.237872 L 204.354054 60.237872 Z M 204.354054 42.513778 " transform="matrix(0.157413,0,0,0.155156,129.824232,207.892012)"/>
<path style="fill-rule:evenodd;fill:rgb(71.764706%,30.196078%,0%);fill-opacity:1;stroke-width:1.723;stroke-linecap:butt;stroke-linejoin:miter;stroke:rgb(0%,0%,0%);stroke-opacity:1;stroke-miterlimit:4;" d="M 204.354054 24.81486 L 540.949023 24.81486 L 540.949023 42.513778 L 204.354054 42.513778 Z M 204.354054 24.81486 " transform="matrix(0.157413,0,0,0.155156,129.824232,207.892012)"/>
<path style="fill-rule:evenodd;fill:rgb(71.764706%,30.196078%,0%);fill-opacity:1;stroke-width:1.723;stroke-linecap:butt;stroke-linejoin:miter;stroke:rgb(0%,0%,0%);stroke-opacity:1;stroke-miterlimit:4;" d="M 204.354054 7.090766 L 540.949023 7.090766 L 540.949023 24.81486 L 204.354054 24.81486 Z M 204.354054 7.090766 " transform="matrix(0.157413,0,0,0.155156,129.824232,207.892012)"/>
<path style="fill-rule:evenodd;fill:rgb(71.764706%,30.196078%,0%);fill-opacity:1;stroke-width:1.723;stroke-linecap:butt;stroke-linejoin:miter;stroke:rgb(0%,0%,0%);stroke-opacity:1;stroke-miterlimit:4;" d="M 204.354054 -10.633328 L 540.949023 -10.633328 L 540.949023 7.090766 L 204.354054 7.090766 Z M 204.354054 -10.633328 " transform="matrix(0.157413,0,0,0.155156,129.824232,207.892012)"/>
<path style="fill-rule:evenodd;fill:rgb(56.470588%,56.078431%,54.117647%);fill-opacity:1;stroke-width:3.2546;stroke-linecap:butt;stroke-linejoin:miter;stroke:rgb(0%,0%,0%);stroke-opacity:1;stroke-miterlimit:4;" d="M 423.227918 60.245057 L 561.039186 184.263362 L 580.72651 184.263362 L 442.915242 60.245057 Z M 423.227918 60.245057 " transform="matrix(0.141668,0,0,0.155156,104.823426,196.89871)"/>
<path style="fill-rule:evenodd;fill:rgb(56.470588%,56.078431%,54.117647%);fill-opacity:1;stroke-width:3.2546;stroke-linecap:butt;stroke-linejoin:miter;stroke:rgb(0%,0%,0%);stroke-opacity:1;stroke-miterlimit:4;" d="M 423.227918 60.224083 L 561.039186 184.267564 L 580.72651 184.267564 L 442.915242 60.224083 Z M 423.227918 60.224083 " transform="matrix(0.141668,0,0,-0.155156,104.823426,234.832411)"/>
<path style="fill-rule:evenodd;fill:rgb(56.470588%,56.078431%,54.117647%);fill-opacity:1;stroke-width:3.0875;stroke-linecap:butt;stroke-linejoin:miter;stroke:rgb(0%,0%,0%);stroke-opacity:1;stroke-miterlimit:4;" d="M 425.208535 60.245057 L 425.208535 184.263362 L 442.925928 184.263362 L 442.925928 60.245057 Z M 425.208535 60.245057 " transform="matrix(0.157419,0,0,0.155156,97.845149,196.89871)"/>
<path style="fill-rule:evenodd;fill:rgb(56.470588%,56.078431%,54.117647%);fill-opacity:1;stroke-width:3.2546;stroke-linecap:butt;stroke-linejoin:miter;stroke:rgb(0%,0%,0%);stroke-opacity:1;stroke-miterlimit:4;" d="M 423.239109 60.245057 L 561.022804 184.263362 L 580.710128 184.263362 L 442.926433 60.245057 Z M 423.239109 60.245057 " transform="matrix(0.141668,0,0,0.155156,129.923403,196.89871)"/>
<path style="fill-rule:evenodd;fill:rgb(56.470588%,56.078431%,54.117647%);fill-opacity:1;stroke-width:3.2546;stroke-linecap:butt;stroke-linejoin:miter;stroke:rgb(0%,0%,0%);stroke-opacity:1;stroke-miterlimit:4;" d="M 423.239109 60.224083 L 561.022804 184.267564 L 580.710128 184.267564 L 442.926433 60.224083 Z M 423.239109 60.224083 " transform="matrix(0.141668,0,0,-0.155156,129.923403,234.832411)"/>
<path style="fill-rule:evenodd;fill:rgb(56.470588%,56.078431%,54.117647%);fill-opacity:1;stroke-width:3.0875;stroke-linecap:butt;stroke-linejoin:miter;stroke:rgb(0%,0%,0%);stroke-opacity:1;stroke-miterlimit:4;" d="M 425.203555 60.245057 L 425.203555 184.263362 L 442.92132 184.263362 L 442.92132 60.245057 Z M 425.203555 60.245057 " transform="matrix(0.157416,0,0,0.155156,142.468433,196.89871)"/>
<path style="fill-rule:evenodd;fill:rgb(56.470588%,56.078431%,54.117647%);fill-opacity:1;stroke-width:3.0875;stroke-linecap:butt;stroke-linejoin:miter;stroke:rgb(0%,0%,0%);stroke-opacity:1;stroke-miterlimit:4;" d="M 425.202721 60.245057 L 425.202721 184.263362 L 442.920486 184.263362 L 442.920486 60.245057 Z M 425.202721 60.245057 " transform="matrix(0.157416,0,0,0.155156,122.945126,196.89871)"/>
<path style="fill-rule:evenodd;fill:rgb(56.470588%,56.078431%,54.117647%);fill-opacity:1;stroke-width:3.0875;stroke-linecap:butt;stroke-linejoin:miter;stroke:rgb(0%,0%,0%);stroke-opacity:1;stroke-miterlimit:4;" d="M 425.209369 60.245057 L 425.209369 184.263362 L 442.926762 184.263362 L 442.926762 60.245057 Z M 425.209369 60.245057 " transform="matrix(0.157419,0,0,0.155156,117.368456,196.89871)"/>
<path style="fill-rule:evenodd;fill:rgb(100%,87.45098%,0%);fill-opacity:1;stroke-width:1.25;stroke-linecap:butt;stroke-linejoin:miter;stroke:rgb(0%,0%,0%);stroke-opacity:1;stroke-miterlimit:4;" d="M 655.515706 396.845334 C 655.515706 484.860693 599.953084 556.304637 531.486509 556.304637 C 463.031751 556.304637 407.469129 484.871882 407.469129 396.845334 C 407.469129 308.829975 463.031751 237.397219 531.486509 237.397219 C 599.941267 237.397219 655.515706 308.829975 655.515706 396.845334 Z M 637.790497 396.856523 C 637.790497 475.092398 590.168768 538.580721 531.498326 538.580721 C 472.816067 538.580721 425.194338 475.081208 425.194338 396.856523 C 425.194338 318.609459 472.816067 255.121136 531.498326 255.121136 C 590.168768 255.121136 637.790497 318.620648 637.790497 396.856523 Z M 637.790497 396.856523 " transform="matrix(0.330567,0,0,0.349105,12.971988,12.725113)"/>
<path style="fill-rule:evenodd;fill:rgb(100%,87.45098%,0%);fill-opacity:1;stroke-width:1.25;stroke-linecap:butt;stroke-linejoin:miter;stroke:rgb(0%,0%,0%);stroke-opacity:1;stroke-miterlimit:4;" d="M 579.746345 249.940471 C 564.916254 241.872956 548.609061 237.408409 531.486509 237.408409 C 514.375774 237.408409 498.068581 241.872956 483.23849 249.940471 L 490.127688 266.26572 C 502.842571 259.093352 516.821853 255.121136 531.486509 255.121136 C 546.162982 255.121136 560.142264 259.093352 572.857147 266.26572 Z M 579.746345 249.940471 " transform="matrix(0.330567,0,0,0.349105,12.971988,12.725113)"/>
<path style="fill-rule:evenodd;fill:rgb(100%,87.45098%,0%);fill-opacity:1;stroke-width:1.25;stroke-linecap:butt;stroke-linejoin:miter;stroke:rgb(0%,0%,0%);stroke-opacity:1;stroke-miterlimit:4;" d="M 579.754388 249.938614 C 564.912479 241.871099 548.605287 237.406552 531.494552 237.406552 C 514.383816 237.406552 498.064807 241.871099 483.234716 249.938614 L 490.123913 266.263863 C 502.838797 259.091496 516.818079 255.119279 531.494552 255.119279 C 546.159208 255.119279 560.13849 259.091496 572.853373 266.263863 Z M 579.754388 249.938614 " transform="matrix(0.330567,0,0,-0.349105,13.039642,289.809396)"/>
<path style=" stroke:none;fill-rule:evenodd;fill:rgb(65.490196%,81.176471%,100%);fill-opacity:1;" d="M 223.808594 151.265625 C 223.808594 178.59375 208.074219 200.746094 188.667969 200.746094 C 169.261719 200.746094 153.527344 178.59375 153.527344 151.265625 C 153.527344 123.941406 169.261719 101.789062 188.667969 101.789062 C 208.074219 101.789062 223.808594 123.941406 223.808594 151.265625 Z M 223.808594 151.265625 "/>
<path style="fill-rule:evenodd;fill:rgb(68.627451%,100%,48.235294%);fill-opacity:1;stroke-width:1.25;stroke-linecap:butt;stroke-linejoin:miter;stroke:rgb(0%,0%,0%);stroke-opacity:1;stroke-miterlimit:4;" d="M 637.802314 396.845334 C 638.936727 423.509534 633.170126 436.48917 625.914607 464.205169 C 624.000284 467.181533 614.948611 457.670593 609.465613 452.97107 C 603.982615 448.271546 601.654704 457.21183 594.930941 449.927569 C 588.195362 442.643308 583.882227 451.986408 578.942803 445.83227 C 574.003378 439.678132 527.646047 438.771796 527.575146 438.245897 C 532.171884 435.963271 555.840947 438.391358 552.047752 427.056555 C 547.746434 415.330126 520.957735 426.698496 517.353609 411.6824 C 514.919347 396.778198 463.788027 396.140405 460.136634 392.459112 C 461.578284 398.120919 499.864736 400.515438 498.954842 415.028013 C 498.115849 420.947175 461.25923 422.670333 457.702372 427.683158 C 454.665453 433.971568 486.629913 425.971189 487.823411 433.714213 C 487.740693 436.903176 483.120322 433.781349 466.458625 438.70466 C 458.139594 441.166315 481.915008 449.032422 472.875151 453.340318 C 463.823477 457.648215 444.609351 459.528024 445.436527 461.340697 C 448.378912 470.247413 490.127688 480.877287 485.979989 482.399038 C 471.220798 488.967181 463.421706 493.275077 456.343439 497.057075 C 437.105679 471.399915 425.206155 435.963271 425.206155 396.856523 C 456.922463 385.454584 450.175066 383.116012 508.845509 383.116012 C 567.527768 383.116012 586.824612 385.454584 637.802314 396.856523 Z M 637.802314 396.845334 " transform="matrix(0.330567,0,0,0.349105,12.971988,12.725113)"/>
<path style="fill-rule:evenodd;fill:rgb(100%,100%,100%);fill-opacity:1;stroke-width:1.25;stroke-linecap:butt;stroke-linejoin:miter;stroke:rgb(0%,0%,0%);stroke-opacity:1;stroke-miterlimit:4;" d="M 637.802314 396.845334 C 629.731435 396.845334 621.341503 400.246893 612.727051 400.246893 C 604.1126 400.246893 595.261812 396.856523 586.269222 396.856523 C 577.264816 396.856523 566.972378 401.377017 557.755269 401.377017 C 548.526344 401.377017 540.360931 396.856523 531.072921 396.856523 C 521.784911 396.856523 512.508719 400.246893 503.315243 400.246893 C 494.133585 400.246893 485.034644 396.856523 476.101139 396.856523 C 467.167634 396.856523 458.41138 400.246893 449.90328 400.246893 C 441.395179 400.246893 433.135232 396.845334 425.206155 396.845334 C 425.206155 377.286365 428.172173 358.656112 433.560637 341.704259 C 460.63294 343.695962 444.597534 325.983235 460.63294 325.983235 C 469.294659 325.983235 478.074546 327.840665 485.873638 335.773908 C 488.319716 335.773908 500.349225 324.394348 513.784934 325.983235 C 527.220642 327.572121 522.281217 353.25166 540.160045 354.616759 C 549.223535 361.419879 554.552915 365.750154 566.936928 368.491543 C 584.65032 370.102808 635.285334 365.996319 635.639838 368.301324 C 637.057855 377.521341 637.802314 387.065849 637.802314 396.845334 Z M 637.802314 396.845334 " transform="matrix(0.330567,0,0,0.349105,12.971988,12.725113)"/>
<path style="fill-rule:evenodd;fill:rgb(0%,0%,0%);fill-opacity:1;stroke-width:1.25;stroke-linecap:butt;stroke-linejoin:miter;stroke:rgb(0%,0%,0%);stroke-opacity:1;stroke-miterlimit:4;" d="M 549.835774 473.944247 C 549.835774 468.280609 563.366468 464.480953 563.366468 455.419132 C 563.366468 446.357311 551.451379 446.070545 550.980161 437.55358 C 550.778211 434.098044 561.313303 430.513463 565.890851 430.226697 C 570.502058 429.925592 574.406437 437.63961 574.406437 439.345871 C 574.406437 441.037793 569.727914 435.144742 565.823535 434.958343 C 561.885497 434.771945 553.504544 435.58923 553.504544 437.29549 C 553.504544 440.693673 568.347918 444.894802 567.203531 456.222078 C 566.092802 467.549354 554.514298 470.875845 554.514298 474.274028 C 554.514298 477.672211 559.563064 487.135505 559.563064 487.135505 C 559.563064 487.135505 549.835774 479.607885 549.835774 473.944247 Z M 549.835774 473.944247 " transform="matrix(0.116056,0,0,0.272434,130.485367,52.170436)"/>
<path style="fill-rule:evenodd;fill:rgb(0%,0%,0%);fill-opacity:1;stroke-width:1.25;stroke-linecap:butt;stroke-linejoin:miter;stroke:rgb(0%,0%,0%);stroke-opacity:1;stroke-miterlimit:4;" d="M 549.866155 473.934261 C 549.866155 468.270623 563.36319 464.470967 563.36319 455.409147 C 563.36319 446.347326 551.414443 446.074898 550.976883 437.557933 C 550.034447 433.600556 562.790997 431.005319 567.402203 430.718552 C 571.979752 430.431786 577.365103 438.647646 577.365103 440.339568 C 577.365103 442.045828 571.979752 435.149095 568.041714 434.962696 C 564.137335 434.776298 553.501267 435.593583 553.501267 437.285505 C 553.501267 440.698026 568.34464 444.884817 567.200253 456.212093 C 566.089524 467.539369 554.51102 470.880198 554.51102 474.278381 C 554.51102 477.676564 559.559786 487.125519 559.559786 487.125519 C 559.559786 487.125519 549.866155 479.597899 549.866155 473.934261 Z M 549.866155 473.934261 " transform="matrix(-0.116056,0,0,0.272434,259.889253,51.9505)"/>
<path style=" stroke:none;fill-rule:evenodd;fill:rgb(0%,0%,0%);fill-opacity:1;" d="M 196 168.410156 C 196 169.164062 195.632812 169.773438 195.179688 169.773438 C 194.722656 169.773438 194.355469 169.164062 194.355469 168.410156 C 194.355469 167.652344 194.722656 167.042969 195.179688 167.042969 C 195.632812 167.042969 196 167.652344 196 168.410156 Z M 196 168.410156 "/>
<path style=" stroke:none;fill-rule:evenodd;fill:rgb(0%,0%,0%);fill-opacity:1;" d="M 206.914062 172.632812 L 207.179688 172.632812 L 207.179688 183.675781 L 206.914062 183.675781 Z M 206.914062 172.632812 "/>
<path style=" stroke:none;fill-rule:evenodd;fill:rgb(0%,0%,0%);fill-opacity:1;" d="M 209.300781 171.792969 L 209.5625 171.792969 L 209.5625 182.839844 L 209.300781 182.839844 Z M 209.300781 171.792969 "/>
<path style=" stroke:none;fill-rule:evenodd;fill:rgb(0%,0%,0%);fill-opacity:1;" d="M 207.113281 177.683594 L 207.117188 177.402344 L 209.367188 177.792969 L 209.367188 178.070312 Z M 207.113281 177.683594 "/>
<path style="fill-rule:evenodd;fill:rgb(71.764706%,30.196078%,0%);fill-opacity:1;stroke-width:1.25;stroke-linecap:butt;stroke-linejoin:miter;stroke:rgb(0%,0%,0%);stroke-opacity:1;stroke-miterlimit:4;" d="M 497.258285 478.066286 C 497.258285 478.066286 523.314343 489.401089 528.974593 496.193019 C 534.634843 502.996138 532.377833 502.984949 532.377833 502.984949 L 590.138381 505.256385 C 590.138381 501.854826 600.336285 501.854826 602.605112 493.932772 C 604.862122 485.999529 604.862122 483.739282 604.862122 483.739282 L 586.746958 489.401089 L 587.881371 479.207599 L 572.023217 479.207599 L 569.754391 489.401089 L 535.769256 488.259776 L 538.038083 461.080866 L 531.24342 462.210989 L 530.109006 488.259776 C 528.974593 488.259776 498.392699 480.337722 497.258285 478.066286 Z M 497.258285 478.066286 " transform="matrix(0.330567,0,0,0.349105,11.474221,13.120508)"/>
<path style="fill-rule:evenodd;fill:rgb(99.607843%,87.058824%,0%);fill-opacity:1;stroke-width:1.25;stroke-linecap:butt;stroke-linejoin:miter;stroke:rgb(99.607843%,87.058824%,0%);stroke-opacity:1;stroke-miterlimit:4;" d="M 440.532553 316.282076 C 440.532553 316.282076 478.180897 305.070356 532.644556 305.864799 C 587.108216 306.670432 624.744743 318.676595 623.953017 318.676595 C 623.149474 318.676595 613.530594 300.258939 613.530594 300.258939 C 613.530594 300.258939 575.090524 289.852852 531.841013 289.047219 C 488.591503 288.241586 450.943159 297.058787 451.746702 297.853231 Z M 440.532553 316.282076 " transform="matrix(0.330567,0,0,0.349105,12.971988,12.725113)"/>
<path style=" stroke:none;fill-rule:evenodd;fill:rgb(21.960784%,66.27451%,97.647059%);fill-opacity:1;" d="M 180.777344 114.636719 L 188.457031 114.488281 L 188.53125 118.960938 L 180.855469 119.109375 Z M 180.777344 114.636719 "/>
<path style=" stroke:none;fill-rule:evenodd;fill:rgb(21.960784%,66.27451%,97.647059%);fill-opacity:1;" d="M 163.0625 117.070312 L 160.355469 121.476562 L 169.503906 120.351562 L 168.769531 115.945312 Z M 163.0625 117.070312 "/>
<path style=" stroke:none;fill-rule:evenodd;fill:rgb(21.960784%,66.27451%,97.647059%);fill-opacity:1;" d="M 170.863281 115.375 L 178.511719 114.703125 L 178.863281 119.160156 L 171.210938 119.835938 Z M 170.863281 115.375 "/>
<path style=" stroke:none;fill-rule:evenodd;fill:rgb(21.960784%,66.27451%,97.647059%);fill-opacity:1;" d="M 198.507812 114.917969 L 190.84375 114.40625 L 190.574219 118.871094 L 198.238281 119.382812 Z M 198.507812 114.917969 "/>
<path style=" stroke:none;fill-rule:evenodd;fill:rgb(21.960784%,66.27451%,97.647059%);fill-opacity:1;" d="M 215.027344 117.722656 L 217.808594 123.207031 L 209.519531 121.164062 L 210.445312 116.796875 Z M 215.027344 117.722656 "/>
<path style=" stroke:none;fill-rule:evenodd;fill:rgb(21.960784%,66.27451%,97.647059%);fill-opacity:1;" d="M 208.382812 116.128906 L 200.765625 115.089844 L 200.226562 119.527344 L 207.839844 120.566406 Z M 208.382812 116.128906 "/>
<path style="fill-rule:evenodd;fill:rgb(100%,87.45098%,0%);fill-opacity:1;stroke-width:1.25;stroke-linecap:butt;stroke-linejoin:miter;stroke:rgb(0%,0%,0%);stroke-opacity:1;stroke-miterlimit:4;" d="M 532.644556 323.488012 L 530.056676 310.016045 L 522.517553 321.48512 L 525.294503 308.046721 L 513.950369 315.744987 L 521.654927 304.398995 L 508.219218 307.185141 L 519.669703 299.643525 L 506.198544 297.058787 L 519.669703 294.485239 L 508.219218 286.954812 L 521.654927 289.718579 L 513.950369 278.372587 L 525.294503 286.070854 L 522.517553 272.643645 L 530.056676 284.10153 L 532.644556 270.629563 L 535.208803 284.10153 L 542.747925 272.643645 L 539.982793 286.070854 L 551.326927 278.372587 L 543.622369 289.718579 L 557.058078 286.954812 L 545.595776 294.485239 L 559.066935 297.058787 L 545.595776 299.643525 L 557.058078 307.185141 L 543.622369 304.398995 L 551.326927 315.744987 L 539.982793 308.046721 L 542.747925 321.48512 L 535.208803 310.016045 Z M 532.644556 323.488012 " transform="matrix(0.330567,0,0,0.349105,12.971988,12.725113)"/>
<path style="fill-rule:evenodd;fill:rgb(100%,87.45098%,0%);fill-opacity:1;stroke-width:1.25;stroke-linecap:butt;stroke-linejoin:miter;stroke:rgb(0%,0%,0%);stroke-opacity:1;stroke-miterlimit:4;" d="M 547.050004 293.853541 C 547.050004 303.145207 540.418786 310.677902 532.232997 310.677902 C 524.047208 310.677902 517.41599 303.145207 517.41599 293.853541 C 517.41599 284.575302 524.047208 277.042607 532.232997 277.042607 C 540.418786 277.042607 547.050004 284.575302 547.050004 293.853541 Z M 547.050004 293.853541 " transform="matrix(0.321632,0,0,0.290919,17.859757,30.801397)"/>
<path style=" stroke:none;fill-rule:evenodd;fill:rgb(0%,0%,0%);fill-opacity:1;" d="M 189.046875 115.03125 C 189.046875 115.339844 188.332031 115.589844 187.457031 115.589844 C 186.578125 115.589844 185.867188 115.339844 185.867188 115.03125 C 185.867188 114.722656 186.578125 114.472656 187.457031 114.472656 C 188.332031 114.472656 189.046875 114.722656 189.046875 115.03125 Z M 189.046875 115.03125 "/>
<path style=" stroke:none;fill-rule:evenodd;fill:rgb(0%,0%,0%);fill-opacity:1;" d="M 192.484375 115.03125 C 192.484375 115.339844 191.953125 115.589844 191.292969 115.589844 C 190.636719 115.589844 190.101562 115.339844 190.101562 115.03125 C 190.101562 114.722656 190.636719 114.472656 191.292969 114.472656 C 191.953125 114.472656 192.484375 114.722656 192.484375 115.03125 Z M 192.484375 115.03125 "/>
<path style="fill:none;stroke-width:1.25;stroke-linecap:butt;stroke-linejoin:miter;stroke:rgb(0%,0%,0%);stroke-opacity:1;stroke-miterlimit:4;" d="M 529.425999 297.862462 L 530.236495 298.662735 C 528.32466 296.754296 529.238509 297.538507 531.826758 301.864642 C 534.227527 301.373863 534.92602 300.472141 536.64216 299.463448 " transform="matrix(0.316951,-0.0991631,0.0938976,0.334725,-7.602853,69.789743)"/>
<path style="fill:none;stroke-width:1.25;stroke-linecap:butt;stroke-linejoin:miter;stroke:rgb(0%,0%,0%);stroke-opacity:1;stroke-miterlimit:4;" d="M 527.82993 304.264754 L 528.633473 305.070386 C 526.730967 303.168198 527.510877 304.074535 531.835828 306.670462 C 535.865359 307.21874 539.93034 305.473203 542.246434 302.664678 " transform="matrix(0.330567,0,0,0.349105,12.442453,12.725102)"/>
<path style=" stroke:none;fill-rule:evenodd;fill:rgb(71.764706%,88.235294%,100%);fill-opacity:1;" d="M 167.863281 128.175781 C 167.863281 128.175781 168.390625 132.648438 164.949219 138.238281 C 161.507812 143.832031 162.039062 141.875 162.039062 141.875 C 162.039062 141.875 163.625 144.949219 163.363281 144.949219 C 163.097656 144.949219 160.714844 142.15625 160.714844 142.15625 L 157.800781 145.230469 C 157.800781 145.230469 160.449219 140.476562 160.183594 140.476562 C 159.917969 140.476562 159.390625 138.800781 159.390625 138.800781 L 161.507812 137.960938 C 161.507812 137.960938 164.683594 132.089844 164.683594 132.367188 C 164.683594 132.648438 155.152344 138.800781 155.152344 138.800781 Z M 167.863281 128.175781 "/>
<path style=" stroke:none;fill-rule:evenodd;fill:rgb(71.764706%,88.235294%,100%);fill-opacity:1;" d="M 169.980469 129.851562 C 169.714844 129.851562 171.304688 134.328125 172.628906 136.5625 C 173.953125 138.800781 173.953125 141.597656 173.953125 141.597656 L 178.453125 143.835938 L 172.628906 135.167969 L 176.335938 136.5625 Z M 169.980469 129.851562 "/>
<path style=" stroke:none;fill-rule:evenodd;fill:rgb(71.764706%,88.235294%,100%);fill-opacity:1;" d="M 169.980469 141.597656 C 169.980469 141.597656 173.160156 144.953125 173.421875 146.070312 C 173.6875 147.1875 173.6875 149.707031 173.6875 149.707031 L 172.363281 146.910156 L 170.511719 149.425781 C 170.511719 149.425781 171.835938 145.511719 171.570312 145.230469 C 171.304688 144.953125 169.453125 146.628906 169.453125 146.628906 C 169.453125 146.628906 170.246094 144.394531 170.246094 144.113281 C 170.246094 143.832031 170.246094 142.4375 169.980469 141.597656 Z M 169.980469 141.597656 "/>
<path style=" stroke:none;fill-rule:evenodd;fill:rgb(71.764706%,88.235294%,100%);fill-opacity:1;" d="M 154.09375 149.425781 C 155.152344 148.585938 157.273438 148.027344 157.273438 148.027344 C 157.273438 148.027344 155.949219 150.261719 155.683594 150.261719 C 155.417969 150.261719 154.625 150.261719 154.09375 149.425781 Z M 154.09375 149.425781 "/>
<path style=" stroke:none;fill-rule:evenodd;fill:rgb(71.764706%,88.235294%,100%);fill-opacity:1;" d="M 190.632812 137.121094 C 190.632812 137.121094 197.515625 141.316406 197.515625 141.59375 C 197.515625 141.875 193.015625 139.636719 193.015625 139.636719 Z M 190.632812 137.121094 "/>
<path style=" stroke:none;fill-rule:evenodd;fill:rgb(71.764706%,88.235294%,100%);fill-opacity:1;" d="M 178.191406 128.453125 C 178.71875 128.734375 188.25 136.5625 187.984375 136.5625 C 187.722656 136.5625 183.75 134.324219 183.75 134.605469 L 183.75 136.5625 L 181.632812 132.089844 L 181.101562 133.765625 Z M 178.191406 128.453125 "/>
<path style=" stroke:none;fill-rule:evenodd;fill:rgb(71.764706%,88.235294%,100%);fill-opacity:1;" d="M 180.570312 141.035156 L 183.21875 146.347656 L 185.863281 145.789062 C 185.863281 145.789062 180.835938 141.035156 180.570312 141.035156 Z M 180.570312 141.035156 "/>
<path style=" stroke:none;fill-rule:evenodd;fill:rgb(71.764706%,88.235294%,100%);fill-opacity:1;" d="M 188.78125 137.679688 C 188.78125 138.519531 189.046875 142.714844 189.046875 142.714844 C 189.046875 142.714844 190.632812 144.109375 190.632812 143.832031 C 190.632812 143.550781 189.046875 137.960938 188.78125 137.679688 Z M 188.78125 137.679688 "/>
<path style=" stroke:none;fill-rule:evenodd;fill:rgb(59.607843%,25.098039%,0%);fill-opacity:1;" d="M 110.890625 69.164062 C 110.890625 69.164062 122.769531 62.589844 136.289062 57.699219 C 149.8125 52.804688 164.980469 49.589844 166.984375 49.589844 C 170.992188 49.589844 177.859375 59.65625 179.003906 59.65625 C 180.148438 59.65625 184.726562 56.859375 190.453125 56.859375 C 196.175781 56.859375 199.609375 61.332031 200.753906 61.332031 L 211.054688 61.332031 C 212.203125 61.332031 207.621094 50.148438 211.054688 50.707031 C 212.773438 50.988281 227.367188 53.222656 240.964844 57.628906 C 254.558594 62.03125 273.855469 69.808594 273.855469 69.808594 C 273.855469 69.808594 242.316406 74.019531 233.953125 72.773438 C 232.808594 73.332031 233.894531 80.171875 232.292969 77.164062 C 229.65625 76.558594 219.984375 75.050781 218.265625 75.050781 C 216.550781 75.050781 213.347656 76.992188 208.769531 78.109375 C 204.191406 79.230469 198.464844 80.90625 198.464844 80.90625 L 205.90625 92.652344 L 196.75 97.125 C 196.75 97.125 191.023438 83.703125 188.734375 83.703125 C 186.445312 83.703125 185.300781 93.210938 182.441406 92.652344 C 179.578125 92.09375 178.433594 83.703125 176.144531 81.464844 C 173.855469 79.230469 161.785156 78.414062 157.203125 77.296875 C 152.625 76.179688 145.234375 75.3125 141.226562 74.195312 C 137.222656 73.078125 133.214844 76.992188 131.496094 76.992188 C 129.78125 76.992188 133.789062 73.636719 132.070312 73.078125 C 130.351562 72.519531 129.207031 74.753906 128.0625 74.753906 C 126.917969 74.753906 114.898438 72.519531 113.753906 71.957031 C 112.609375 71.398438 116.617188 69.164062 115.472656 69.164062 Z M 110.890625 69.164062 "/>
<path style="fill-rule:evenodd;fill:rgb(50.196078%,50.196078%,50.196078%);fill-opacity:1;stroke-width:3.7057;stroke-linecap:butt;stroke-linejoin:miter;stroke:rgb(46.666667%,14.901961%,0%);stroke-opacity:1;stroke-miterlimit:4;" d="M 462.91404 -64.939011 C 462.91404 -43.793372 442.418162 -26.651796 417.129401 -26.651796 C 391.840641 -26.651796 371.31323 -43.793372 371.31323 -64.939011 C 371.31323 -86.08465 391.840641 -103.226227 417.129401 -103.226227 C 442.418162 -103.226227 462.91404 -86.08465 462.91404 -64.939011 Z M 462.91404 -64.939011 " transform="matrix(0.123882,0,0,0.149262,138.637836,73.122644)"/>
<path style="fill-rule:evenodd;fill:rgb(59.607843%,25.098039%,0%);fill-opacity:1;stroke-width:5.25;stroke-linecap:butt;stroke-linejoin:miter;stroke:rgb(46.666667%,14.901961%,0%);stroke-opacity:1;stroke-miterlimit:4;" d="M 284.743483 -59.938867 C 291.403067 -66.597487 299.727547 -76.585416 321.371194 -76.585416 C 326.365882 -78.27169 326.365882 -88.259619 338.020154 -88.259619 C 349.674426 -88.259619 346.344634 -78.27169 354.669114 -74.920761 C 362.993594 -71.591452 431.279554 -78.27169 431.279554 -78.27169 C 431.279554 -78.27169 437.939138 -73.256106 437.939138 -66.597487 C 437.939138 -59.938867 432.94445 -54.944903 431.279554 -54.944903 C 429.614658 -54.944903 362.993594 -59.938867 357.998906 -58.274213 C 353.004218 -56.609558 349.674426 -54.944903 338.020154 -54.944903 C 326.365882 -54.944903 323.03609 -66.597487 314.711611 -66.597487 C 306.387131 -66.597487 298.062651 -68.262142 284.743483 -59.938867 Z M 284.743483 -59.938867 " transform="matrix(0.154852,0,0,0.180687,123.785803,75.462978)"/>
<path style="fill:none;stroke-width:3.5;stroke-linecap:butt;stroke-linejoin:miter;stroke:rgb(46.666667%,14.901961%,0%);stroke-opacity:1;stroke-miterlimit:4;" d="M 487.886017 -76.603602 L 514.524352 -76.603602 C 524.084891 -76.473889 527.389457 -73.598576 536.167999 -73.274293 L 559.476543 -73.274293 C 567.952377 -73.576957 572.442551 -75.565896 581.120191 -76.603602 C 595.624966 -76.776554 590.680729 -77.900736 587.779774 -86.591532 C 585.156302 -93.142057 584.828368 -96.190321 581.120191 -99.908771 C 579.732777 -107.864524 576.478662 -110.67498 576.125503 -119.884629 C 574.611961 -126.91077 571.786683 -131.645308 574.460607 -139.882107 C 578.294913 -134.217956 579.858906 -131.904735 589.44467 -131.537213 C 599.509723 -131.537213 603.39448 -131.753402 609.423422 -128.207904 C 614.090176 -123.322033 620.320923 -124.878594 629.427399 -124.878594 C 637.096011 -123.473366 638.382521 -119.581965 644.411463 -116.555319 C 651.499884 -112.620681 656.09096 -111.561355 666.05511 -111.561355 C 674.02643 -110.134508 680.938271 -108.988706 686.033862 -106.56739 C 690.271779 -101.48695 696.981814 -100.233054 706.012613 -99.908771 C 711.057753 -99.908771 714.967736 -100.427624 719.331781 -101.573426 C 727.000393 -101.205904 734.795133 -101.573426 744.305221 -101.573426 C 750.485516 -94.374334 751.898155 -91.71521 762.619076 -91.585496 C 769.959754 -86.440199 776.165275 -85.553825 782.597828 -83.262222 L 807.596493 -83.262222 C 816.52639 -82.570417 819.376893 -78.916824 827.575245 -76.603602 C 835.672693 -72.820296 843.290853 -70.247647 849.218892 -68.280328 C 855.096479 -66.983194 862.790317 -66.615673 870.86254 -66.615673 C 877.042835 -63.437696 884.45919 -63.15665 889.176395 -59.935435 C 896.06301 -58.46535 905.472195 -56.735838 910.820043 -54.94147 C 919.649036 -53.77405 923.004054 -51.006831 930.798794 -49.947506 C 937.50883 -48.045043 928.578933 -46.402007 924.13921 -44.953541 C 914.326415 -45.321062 913.620095 -48.909799 904.160459 -49.947506 C 899.140545 -52.887675 891.522385 -52.498535 884.181707 -54.94147 L 882.516811 -54.94147 C 889.125944 -51.050069 895.457594 -48.520659 892.506187 -41.624231 C 884.005127 -41.624231 877.143738 -42.726795 869.197644 -43.288886 C 860.822712 -44.910303 856.963181 -46.618196 847.553996 -46.618196 C 856.937955 -48.88818 859.410073 -46.358769 865.867852 -43.288886 C 868.264293 -35.246657 863.143477 -38.294921 854.21358 -38.294921 C 846.59542 -41.040521 842.029569 -44.283355 832.569932 -44.953541 L 812.591181 -44.953541 C 822.479654 -44.58602 824.548161 -40.86757 830.905036 -36.630267 C 831.40955 -34.035999 830.753682 -34.165713 825.910349 -33.300957 C 820.739081 -37.776068 814.00382 -39.31101 805.931597 -41.624231 C 798.035954 -41.905277 789.711474 -42.597081 782.597828 -44.953541 C 777.754494 -45.256205 778.486039 -51.136545 789.257412 -41.624231 C 795.790867 -37.776068 798.111631 -34.684566 797.607117 -31.636302 C 789.03038 -33.776573 784.767238 -37.213977 779.268036 -39.959576 C 771.548973 -42.81327 765.141646 -43.288886 755.959492 -43.288886 C 747.35753 -45.55887 756.867617 -46.877623 762.619076 -38.294921 C 775.004893 -29.539269 761.004632 -33.300957 755.959492 -34.965612 C 748.467461 -37.105882 740.67272 -40.154146 734.315845 -41.624231 C 729.270706 -43.072697 724.881434 -44.477925 719.331781 -44.953541 C 727.958969 -44.175261 730.910376 -41.126997 734.315845 -34.965612 C 743.069162 -28.93394 733.937459 -31.87411 725.991365 -33.300957 C 720.921 -37.711211 714.513673 -39.959576 711.007301 -44.953541 C 702.657596 -49.125988 702.45579 -53.947001 707.677509 -43.288886 C 709.039697 -39.89472 708.78744 -32.501058 709.342405 -31.636302 C 703.212561 -38.273303 704.524297 -39.959576 697.688134 -39.959576 C 693.046606 -43.202411 686.185216 -45.731821 682.70407 -49.947506 C 676.271517 -50.552835 675.867906 -52.844437 669.384902 -54.94147 C 674.73275 -48.671991 681.770719 -42.467368 686.033862 -36.630267 C 693.626797 -32.392963 695.720529 -28.566419 701.017926 -24.977682 C 703.16211 -21.345708 708.913569 -18.319063 702.682822 -23.313028 C 695.543949 -30.360787 690.221328 -31.982204 679.374278 -36.630267 C 673.219208 -41.602612 670.999347 -43.678026 664.390214 -48.282851 C 655.384641 -51.201401 658.865787 -52.822819 664.390214 -43.288886 C 670.696639 -37.516641 675.565198 -31.074211 681.039174 -26.642337 C 684.797803 -21.734848 691.179904 -16.524695 696.023238 -13.325098 C 697.511554 -11.076733 702.001728 -10.665974 696.023238 -9.995789 C 690.927647 -14.600613 683.612195 -17.519164 677.709382 -21.648373 C 669.410128 -23.983213 665.525371 -28.306992 659.395527 -33.300957 C 655.485544 -39.159677 649.00254 -43.678026 644.411463 -48.282851 C 634.775247 -52.066157 646.30339 -44.650876 649.406151 -39.959576 C 651.550335 -33.906286 654.173807 -28.93394 656.065735 -23.313028 C 658.840561 -17.756972 647.589901 -24.63178 644.411463 -26.642337 C 637.070785 -30.793165 631.722938 -33.582002 622.767815 -34.965612 C 616.7641 -36.262745 609.145939 -37.430166 602.763838 -38.294921 C 595.170903 -40.348716 606.825175 -33.495527 611.088318 -26.642337 C 619.5137 -18.729822 602.763838 -25.21549 597.76915 -26.642337 C 589.545573 -28.285373 581.498576 -28.306992 572.795711 -28.306992 C 562.125241 -27.680044 569.743401 -26.361292 572.795711 -21.648373 C 576.100277 -19.118962 578.446267 -13.800714 577.790399 -11.660443 C 570.752429 -12.611675 564.773939 -14.687089 556.146751 -14.989753 C 549.184459 -12.676532 540.809528 -13.325098 532.838208 -13.325098 C 532.459822 -9.131033 534.276072 -12.676532 537.832895 -8.331134 C 543.60958 -5.996293 547.41866 -3.142599 546.157375 -0.00785937 L 497.875392 -0.00785937 C 492.577996 1.440607 499.010549 0.705564 502.87008 6.65076 C 500.70067 12.055484 497.925844 10.001689 491.215808 10.001689 C 486.675183 8.164083 477.619158 7.364184 472.901953 4.986105 C 468.209973 4.986105 468.563133 3.775447 464.577473 3.32145 C 478.60296 13.266142 471.640668 10.779969 479.561537 18.324963 C 480.923724 18.77896 484.076936 19.989618 481.226433 19.989618 " transform="matrix(0.154852,0,0,0.180687,123.785803,77.868608)"/>
<path style="fill:none;stroke-width:3.5;stroke-linecap:butt;stroke-linejoin:miter;stroke:rgb(46.666667%,14.901961%,0%);stroke-opacity:1;stroke-miterlimit:4;" d="M 371.318073 73.258574 C 370.334271 73.258574 368.11441 67.897088 364.65849 63.270645 C 362.337725 57.217354 359.26019 60.676377 356.33401 51.618061 C 356.687169 42.213842 357.015104 40.527568 356.33401 31.642202 C 349.47262 26.842808 346.622117 25.372723 341.349946 16.660308 C 332.899338 9.569311 342.586005 -2.407557 344.20045 -11.206447 C 336.809321 -12.827864 333.202046 0.273186 321.850483 4.986105 C 313.702583 10.477304 320.942358 -6.363814 316.956698 -16.200411 C 314.181871 -30.058123 306.134874 -9.239127 303.057339 -3.337169 C 297.583363 0.381281 295.918467 5.202294 288.073275 -1.672514 C 288.073275 -6.817811 292.992286 -21.151138 290.898553 -23.939976 C 283.103813 -20.13505 272.811729 -8.460847 264.739506 -6.666479 C 256.616832 -8.439228 266.53053 -21.49704 266.53053 -31.182305 C 263.579124 -32.155155 251.823949 -5.434202 247.005841 -5.174775 C 242.187733 -4.936967 244.281466 -31.160686 242.036379 -30.598595 C 238.479556 -25.647868 231.391135 -15.184323 226.446899 -11.660443 C 217.012488 -12.871102 227.859538 -29.085272 229.297403 -35.095325 C 230.937073 -42.251179 220.392732 -21.324089 214.792627 -19.983718 C 210.706064 -16.438219 202.558164 -13.908809 199.808563 -13.325098 C 203.062678 -19.443245 218.87919 -32.025442 217.744034 -35.59256 C 208.536654 -35.268276 194.43549 -23.053601 186.489396 -21.648373 C 181.292902 -21.648373 174.103579 -19.897242 173.170228 -19.983718 C 173.624291 -27.917852 192.594014 -34.641328 195.621098 -39.440723 C 186.312816 -37.949019 168.427797 -29.733839 163.180852 -23.313028 C 157.025782 -21.972656 149.231042 -20.286382 143.202101 -23.313028 C 144.085 -30.793165 158.060036 -45.321062 161.137571 -50.077219 C 152.737414 -46.380388 148.499497 -43.483456 139.493923 -41.753945 C 137.829027 -40.08929 132.960468 -36.522172 134.499235 -40.08929 C 137.147933 -47.028955 141.158819 -50.185313 144.488611 -55.071184 C 137.021805 -53.709193 134.196527 -49.428652 126.174756 -45.083254 C 121.079165 -44.845446 106.523938 -30.231074 101.579702 -29.971647 C 90.127235 -21.583516 85.561384 -20.156669 73.251244 -16.654408 C 65.683536 -15.292418 62.000584 -13.714238 58.267181 -9.995789 C 62.076261 -16.676027 67.878171 -23.07522 73.251244 -26.642337 C 76.934196 -32.220012 80.390117 -36.846456 88.260534 -39.959576 C 90.152461 -42.272798 95.424632 -42.878127 89.92543 -43.288886 C 85.157773 -39.051583 77.211679 -34.338664 73.251244 -31.636302 C 68.155654 -28.436706 62.252841 -25.150634 59.932077 -26.642337 C 62.555549 -33.841429 67.373657 -35.549322 71.586349 -41.624231 C 80.415342 -47.223525 71.6368 -43.548313 64.926765 -41.624231 C 60.587945 -37.754449 52.81843 -34.900755 46.612909 -31.636302 C 39.499263 -29.777077 34.908186 -25.496536 26.634157 -23.313028 C 26.634157 -20.934949 29.005373 -27.550331 29.963949 -29.971647 C 36.800113 -37.386928 38.616363 -39.440723 46.612909 -41.624231 C 48.530062 -44.499544 51.027406 -43.288886 44.948013 -43.288886 C 40.432613 -39.267772 34.151415 -37.084263 28.299053 -33.300957 C 22.421466 -32.025442 14.727629 -31.636302 6.655406 -31.636302 C -3.68713 -30.404025 -2.80423 -29.604126 6.655406 -34.965612 C 12.003254 -40.002814 16.41775 -38.748918 16.644782 -44.953541 C 10.388809 -40.435192 2.770649 -37.105882 -4.998866 -33.300957 C -11.431418 -33.106387 -13.12154 -31.636302 -19.98293 -31.636302 C -16.678363 -35.052087 -14.710759 -39.267772 -9.993554 -41.624231 C -3.106939 -49.298939 -14.382825 -43.115935 -16.653138 -41.624231 L -41.626577 -41.624231 C -46.091525 -36.046556 -41.853608 -41.580993 -38.296785 -44.953541 C -34.008417 -47.201906 -29.543468 -50.120457 -29.972305 -51.61216 C -34.941767 -47.31 -40.693226 -45.321062 -44.956369 -41.624231 C -49.597897 -40.240622 -54.945745 -39.548817 -54.945745 -38.294921 C -51.313244 -43.634788 -45.435657 -46.877623 -41.626577 -51.61216 C -36.026472 -52.844437 -31.23359 -54.55233 -29.972305 -56.606125 L -53.280849 -56.606125 L -36.631889 -56.606125 C -28.231732 -56.606125 -21.017183 -57.362786 -13.323346 -58.27078 C -0.0546293 -60.497526 -14.483728 -61.60009 -21.647825 -61.60009 C -23.035239 -64.151119 -17.536037 -65.599585 -11.65845 -66.615673 C -6.638536 -68.993752 -0.433015 -71.090784 4.99051 -73.274293 C 10.237455 -74.70114 17.704261 -79.068156 18.309678 -79.932912 C 13.289764 -79.651867 13.340215 -78.527684 8.320302 -78.268257 C 15.761882 -78.830349 21.10973 -79.932912 29.963949 -79.932912 C 37.985721 -82.505561 44.872336 -85.337636 51.607597 -88.256187 C 54.559003 -91.844923 55.845514 -91.585496 48.277805 -91.585496 C 54.98784 -93.747386 64.523154 -94.785093 69.921453 -96.579461 C 77.79187 -98.265735 84.829839 -100.838383 89.92543 -103.23808 C 94.793989 -106.545771 97.594042 -110.415553 103.244598 -113.22601 C 109.752827 -108.794136 109.828504 -108.232045 121.558453 -108.232045 C 130.967638 -108.34014 136.719097 -110.610123 141.537205 -114.890665 C 148.751754 -116.857984 150.013039 -120.317007 158.186164 -121.549284 C 165.627745 -120.230532 173.220679 -119.884629 181.494708 -119.884629 C 189.592156 -122.003281 197.185091 -125.894682 203.138355 -129.872558 C 208.233946 -132.38035 214.288113 -135.990706 219.787315 -138.195833 C 225.866708 -135.082712 230.634364 -132.553301 238.101171 -131.537213 C 245.845459 -132.704634 249.856345 -136.423083 256.415026 -138.195833 C 259.997075 -142.541231 265.193569 -144.832833 271.424316 -146.540726 C 281.085757 -151.275264 280.328986 -144.962547 284.743483 -139.882107 C 289.637268 -134.73681 296.095047 -137.179745 303.057339 -134.866523 C 306.891645 -128.986184 309.691697 -124.965069 314.711611 -121.549284 C 318.596368 -116.836365 323.21267 -115.517613 331.36057 -114.890665 C 334.337202 -110.934407 331.965987 -108.080713 338.020154 -106.56739 C 340.416595 -104.03798 344.528384 -102.957035 348.00953 -101.573426 " transform="matrix(0.154852,0,0,0.180687,123.785803,77.868608)"/>
<path style="fill:none;stroke-width:3.125;stroke-linecap:butt;stroke-linejoin:miter;stroke:rgb(47.058824%,14.901961%,0%);stroke-opacity:1;stroke-miterlimit:4;" d="M 468.739713 30.799065 L 468.739713 31.642202 C 468.739713 29.307362 468.63881 30.539639 470.404609 34.971512 C 471.010026 38.603486 469.597387 38.192727 467.907265 40.786994 C 467.629782 44.527063 467.074817 47.186187 467.074817 51.618061 C 466.545077 55.228416 464.501796 58.66582 462.912577 61.60599 C 461.298133 64.74073 454.361066 66.470241 454.588097 70.772401 C 450.602437 71.896584 450.501534 69.323935 450.425857 64.9353 C 448.029416 62.211319 447.222194 58.47125 445.431169 54.94737 C 444.321239 51.466728 441.950023 48.915699 440.436482 44.959441 C 437.964363 41.176135 435.895856 40.073571 433.776898 35.79303 C 432.94445 33.739235 433.095804 31.188205 431.279554 29.977547 C 428.555179 26.540143 426.78938 25.978052 422.122626 25.805101 C 418.515351 26.648238 417.153164 28.226417 413.798146 29.13441 C 411.225125 29.999166 406.230437 29.718121 402.976322 30.799065 C 402.1691 32.117818 404.565541 32.744766 405.473666 35.79303 C 403.329482 37.565779 402.547486 40.6789 401.311426 43.294786 C 399.343822 45.780959 398.00686 46.991617 397.149187 50.774924 C 398.511374 53.109764 397.350992 56.179647 395.484291 58.27668 C 394.9041 62.146462 393.037398 64.157019 392.154499 67.443091 C 389.455349 69.259078 388.496773 70.966971 386.327363 74.101711 C 384.41021 76.782454 382.669637 76.587884 377.977657 76.587884 C 374.319931 75.593415 373.815417 73.604476 370.485625 72.437056 C 370.132466 71.37773 369.880209 71.118303 368.820729 70.772401 " transform="matrix(0.154852,0,0,0.180687,123.785803,77.868608)"/>
<path style=" stroke:none;fill-rule:evenodd;fill:rgb(50.588235%,18.039216%,0%);fill-opacity:1;" d="M 181.671875 89.546875 C 181.671875 89.546875 181.414062 92.351562 179.609375 94.222656 C 177.804688 96.09375 174.066406 98.273438 174.066406 98.273438 C 174.066406 98.273438 179.09375 95.882812 179.609375 96.402344 C 180.125 96.921875 176.386719 101.078125 176.386719 101.078125 C 176.386719 101.078125 181.285156 96.714844 181.929688 96.714844 C 182.574219 96.714844 183.992188 100.976562 184.507812 100.871094 C 185.023438 100.765625 183.347656 95.46875 183.605469 94.636719 C 183.863281 93.808594 183.605469 89.339844 183.605469 89.339844 Z M 181.671875 89.546875 "/>
<path style=" stroke:none;fill-rule:evenodd;fill:rgb(50.588235%,18.039216%,0%);fill-opacity:1;" d="M 193.273438 89.167969 C 193.273438 89.167969 193.015625 92.164062 191.210938 94.164062 C 189.40625 96.164062 185.667969 98.496094 185.667969 98.496094 C 185.667969 98.496094 190.695312 95.941406 191.210938 96.496094 C 191.726562 97.050781 187.988281 101.492188 187.988281 101.492188 C 187.988281 101.492188 192.886719 96.828125 193.53125 96.828125 C 194.175781 96.828125 195.59375 101.382812 196.109375 101.269531 C 196.625 101.160156 194.949219 95.496094 195.207031 94.609375 C 195.464844 93.71875 195.207031 88.945312 195.207031 88.945312 Z M 193.273438 89.167969 "/>
<path style=" stroke:none;fill-rule:evenodd;fill:rgb(50.588235%,18.039216%,0%);fill-opacity:1;" d="M 177.03125 61.972656 C 177.03125 62.53125 176.484375 62.984375 175.808594 62.984375 C 175.132812 62.984375 174.585938 62.53125 174.585938 61.972656 C 174.585938 61.414062 175.132812 60.960938 175.808594 60.960938 C 176.484375 60.960938 177.03125 61.414062 177.03125 61.972656 Z M 177.03125 61.972656 "/>
</g>
</svg>
