<?xml version="1.0" encoding="UTF-8"?>
<svg xmlns="http://www.w3.org/2000/svg" xmlns:xlink="http://www.w3.org/1999/xlink" width="384pt" height="384pt" viewBox="0 0 384 384" version="1.1">
<defs>
<clipPath id="clip1">
  <path d="M 0 126 L 383.988281 126 L 383.988281 256 L 0 256 Z M 0 126 "/>
</clipPath>
<clipPath id="clip2">
  <path d="M 0 255 L 383.988281 255 L 383.988281 383.988281 L 0 383.988281 Z M 0 255 "/>
</clipPath>
<clipPath id="clip3">
  <path d="M 0 0 L 383.988281 0 L 383.988281 127 L 0 127 Z M 0 0 "/>
</clipPath>
</defs>
<g id="surface1">
<g clip-path="url(#clip1)" clip-rule="nonzero">
<path style=" stroke:none;fill-rule:evenodd;fill:rgb(100%,100%,100%);fill-opacity:1;" d="M -96 126.167969 L 479.980469 126.167969 L 479.980469 255.082031 L -96 255.082031 Z M -96 126.167969 "/>
</g>
<g clip-path="url(#clip2)" clip-rule="nonzero">
<path style=" stroke:none;fill-rule:evenodd;fill:rgb(0%,0%,0%);fill-opacity:1;" d="M -96 255.082031 L 479.980469 255.082031 L 479.980469 383.996094 L -96 383.996094 Z M -96 255.082031 "/>
</g>
<g clip-path="url(#clip3)" clip-rule="nonzero">
<path style=" stroke:none;fill-rule:evenodd;fill:rgb(100%,0%,0%);fill-opacity:1;" d="M -96 0 L 479.980469 0 L 479.980469 126.167969 L -96 126.167969 Z M -96 0 "/>
</g>
<path style="fill-rule:evenodd;fill:rgb(84.313725%,72.54902%,0%);fill-opacity:1;stroke-width:1.25;stroke-linecap:butt;stroke-linejoin:miter;stroke:rgb(100%,100%,100%);stroke-opacity:1;stroke-miterlimit:4;" d="M 322.439346 -322.441166 L 329.527634 -322.441154 L 333.278036 -262.203921 L 325.987031 -255.11583 L 318.893427 -262.206078 Z M 322.439346 -322.441166 " transform="matrix(0.468973,-0.0247998,0.044274,0.587314,48.954833,390.464373)"/>
<path style="fill-rule:evenodd;fill:rgb(84.313725%,72.54902%,0%);fill-opacity:1;stroke-width:1.25;stroke-linecap:butt;stroke-linejoin:miter;stroke:rgb(100%,100%,100%);stroke-opacity:1;stroke-miterlimit:4;" d="M 322.442703 -322.43876 L 329.524126 -322.441746 L 333.27555 -262.201823 L 325.985625 -255.115843 L 318.895888 -262.202539 Z M 322.442703 -322.43876 " transform="matrix(0.469415,0.0178997,-0.0319561,0.587871,17.86024,376.718349)"/>
<path style="fill-rule:evenodd;fill:rgb(84.313725%,72.54902%,0%);fill-opacity:1;stroke-width:4.8244;stroke-linecap:butt;stroke-linejoin:miter;stroke:rgb(100%,100%,100%);stroke-opacity:1;stroke-miterlimit:4;" d="M 177.165801 255.12072 L 159.434981 698.018305 L 194.877698 662.583309 L 212.589595 255.12072 Z M 177.165801 255.12072 " transform="matrix(-0.206429,0,0,0.146946,266.908105,121.600873)"/>
<path style="fill-rule:evenodd;fill:rgb(84.313725%,72.54902%,0%);fill-opacity:1;stroke-width:4.8244;stroke-linecap:butt;stroke-linejoin:miter;stroke:rgb(100%,100%,100%);stroke-opacity:1;stroke-miterlimit:4;" d="M 177.155215 290.548583 L 159.443318 698.037755 L 194.867113 662.602758 L 212.597933 290.548583 Z M 177.155215 290.548583 " transform="matrix(-0.206429,0,0,0.146946,259.593419,116.390984)"/>
<path style="fill-rule:evenodd;fill:rgb(84.313725%,72.54902%,0%);fill-opacity:1;stroke-width:4.8244;stroke-linecap:butt;stroke-linejoin:miter;stroke:rgb(100%,100%,100%);stroke-opacity:1;stroke-miterlimit:4;" d="M 177.163553 325.975318 L 159.451656 698.029493 L 194.894373 662.594497 L 212.60627 325.975318 Z M 177.163553 325.975318 " transform="matrix(-0.206429,0,0,0.146946,252.278734,111.189073)"/>
<path style="fill-rule:evenodd;fill:rgb(84.313725%,72.54902%,0%);fill-opacity:1;stroke-width:4.8244;stroke-linecap:butt;stroke-linejoin:miter;stroke:rgb(100%,100%,100%);stroke-opacity:1;stroke-miterlimit:4;" d="M 177.152967 361.429765 L 159.44107 698.048943 L 194.883787 662.613946 L 212.595684 361.429765 Z M 177.152967 361.429765 " transform="matrix(-0.206429,0,0,0.146946,244.964049,105.979183)"/>
<path style="fill-rule:evenodd;fill:rgb(84.313725%,72.54902%,0%);fill-opacity:1;stroke-width:4.8244;stroke-linecap:butt;stroke-linejoin:miter;stroke:rgb(100%,100%,100%);stroke-opacity:1;stroke-miterlimit:4;" d="M 177.163999 255.106728 L 159.451963 698.030896 L 194.876036 662.595899 L 212.588072 255.106728 Z M 177.163999 255.106728 " transform="matrix(0.183712,0,0,0.146946,108.695109,121.556054)"/>
<path style="fill-rule:evenodd;fill:rgb(84.313725%,72.54902%,0%);fill-opacity:1;stroke-width:4.8244;stroke-linecap:butt;stroke-linejoin:miter;stroke:rgb(100%,100%,100%);stroke-opacity:1;stroke-miterlimit:4;" d="M 177.153692 290.561174 L 159.441656 698.023763 L 194.865729 662.588767 L 212.599028 290.534591 L 177.153692 290.534591 Z M 177.153692 290.561174 " transform="matrix(0.183712,0,0,0.146946,115.204815,116.346165)"/>
<path style="fill-rule:evenodd;fill:rgb(84.313725%,72.54902%,0%);fill-opacity:1;stroke-width:4.8244;stroke-linecap:butt;stroke-linejoin:miter;stroke:rgb(100%,100%,100%);stroke-opacity:1;stroke-miterlimit:4;" d="M 177.169621 325.987909 L 159.457585 698.042084 L 194.881658 662.607088 L 212.593694 325.987909 Z M 177.169621 325.987909 " transform="matrix(0.183712,0,0,0.146946,121.705795,111.144254)"/>
<path style="fill-rule:evenodd;fill:rgb(84.313725%,72.54902%,0%);fill-opacity:1;stroke-width:4.8244;stroke-linecap:butt;stroke-linejoin:miter;stroke:rgb(100%,100%,100%);stroke-opacity:1;stroke-miterlimit:4;" d="M 177.170273 361.425017 L 159.436974 698.044195 L 194.88231 662.609199 L 212.594346 361.425017 Z M 177.170273 361.425017 " transform="matrix(0.183712,0,0,0.146946,128.494737,106.620506)"/>
<path style="fill-rule:evenodd;fill:rgb(100%,100%,100%);fill-opacity:1;stroke-width:4.8244;stroke-linecap:butt;stroke-linejoin:miter;stroke:rgb(84.313725%,72.54902%,0%);stroke-opacity:1;stroke-miterlimit:4;" d="M 181.721565 256.051242 C 180.717767 254.750021 201.581009 237.409266 237.009154 237.409266 C 290.151372 237.409266 298.319527 256.051242 333.747672 256.051242 L 485.77378 256.051242 C 521.201925 256.051242 531.49577 237.409266 584.637987 237.409266 C 620.085815 237.409266 636.815772 255.70602 637.799888 256.051242 C 637.799888 256.051242 620.085815 255.121799 584.637987 255.121799 C 549.209842 255.121799 535.333819 294.158414 499.590757 293.335193 C 472.803142 294.158414 355.358841 293.335193 319.930696 293.335193 C 284.502551 293.335193 272.437299 256.051242 237.009154 256.051242 C 201.581009 256.051242 180.717767 254.750021 181.721565 256.051242 Z M 181.721565 256.051242 " transform="matrix(0.198465,0,0,0.147097,104.65727,121.421447)"/>
<path style="fill-rule:evenodd;fill:rgb(100%,100%,100%);fill-opacity:1;stroke-width:1.25;stroke-linecap:butt;stroke-linejoin:miter;stroke:rgb(84.313725%,72.54902%,0%);stroke-opacity:1;stroke-miterlimit:4;" d="M 400.391797 -109.838565 L 400.391797 -106.296019 L 403.931219 -102.753473 L 400.391797 -99.210928 L 400.391797 -95.668382 C 386.21504 -88.579099 371.54246 -88.579099 357.869155 -88.579099 C 344.199665 -88.579099 329.52327 -88.579099 311.807092 -95.668382 L 311.807092 -99.210928 L 308.263856 -102.753473 L 311.807092 -106.296019 L 311.807092 -109.838565 C 325.980034 -106.296019 340.152977 -102.753473 357.869155 -102.753473 C 375.585333 -102.753473 386.218854 -106.296019 400.391797 -109.838565 Z M 400.391797 -109.838565 " transform="matrix(1.024179,0,0,0.931754,-178.592254,332.135499)"/>
<path style="fill-rule:evenodd;fill:rgb(100%,100%,100%);fill-opacity:1;stroke-width:0.62344;stroke-linecap:butt;stroke-linejoin:miter;stroke:rgb(84.313725%,72.54902%,0%);stroke-opacity:1;stroke-miterlimit:4;" d="M -70.763431 -406.530026 C -69.439487 -406.530824 -68.368273 -404.514158 -68.36865 -402.023651 L -68.370787 -370.904778 C -68.371164 -368.414271 -69.44362 -366.399371 -70.762732 -366.400122 C -72.086675 -366.399324 -73.157889 -368.41599 -73.157512 -370.906497 L -73.160208 -402.023821 C -73.159831 -404.514328 -72.087375 -406.529228 -70.763431 -406.530026 Z M -70.763431 -406.530026 " transform="matrix(0.268998,-0.758175,0.839165,0.156731,510.89957,239.135032)"/>
<path style="fill-rule:evenodd;fill:rgb(100%,100%,100%);fill-opacity:1;stroke-width:4.7128;stroke-linecap:butt;stroke-linejoin:miter;stroke:rgb(84.313725%,72.54902%,0%);stroke-opacity:1;stroke-miterlimit:4;" d="M 318.885582 574.021643 L 336.62598 591.733122 L 354.332906 574.020545 L 372.042986 591.736009 L 389.78023 574.019448 L 407.49031 591.734912 C 412.724484 582.310828 414.571351 568.851729 407.357742 555.215633 C 371.192832 541.399021 338.543263 542.576938 300.190533 556.400243 C 297.113569 567.439014 297.230645 580.333498 300.198611 591.839426 Z M 318.885582 574.021643 " transform="matrix(0.121768,0.0435388,-0.0538171,0.331324,155.823856,20.925328)"/>
<path style="fill-rule:evenodd;fill:rgb(100%,100%,100%);fill-opacity:1;stroke-width:4.7128;stroke-linecap:butt;stroke-linejoin:miter;stroke:rgb(84.313725%,72.54902%,0%);stroke-opacity:1;stroke-miterlimit:4;" d="M 318.891544 574.017999 L 336.601623 591.733463 L 354.338868 574.016902 L 372.048947 591.732366 L 389.755873 574.019789 L 407.465953 591.735253 C 412.730445 582.307185 414.577312 568.848086 407.363703 555.21199 C 371.198794 541.395378 338.549224 542.573295 300.201419 556.407742 C 297.089212 567.439355 297.206288 580.333839 300.204572 591.835783 Z M 318.891544 574.017999 " transform="matrix(0.121768,0.0435388,-0.0538171,0.331324,156.838559,14.746588)"/>
<path style="fill-rule:evenodd;fill:rgb(100%,100%,100%);fill-opacity:1;stroke-width:4.7128;stroke-linecap:butt;stroke-linejoin:miter;stroke:rgb(84.313725%,72.54902%,0%);stroke-opacity:1;stroke-miterlimit:4;" d="M 318.90243 574.025499 L 336.612509 591.740963 L 354.344829 574.013259 L 372.059833 591.739865 L 389.761835 574.016146 L 407.471914 591.731609 C 412.741331 582.314685 414.583274 568.844443 407.374589 555.219489 C 371.174437 541.395719 338.555186 542.569652 300.177062 556.408083 C 297.095173 567.435711 297.21225 580.330196 300.180215 591.836124 L 318.897505 574.014356 Z M 318.90243 574.025499 " transform="matrix(0.121768,0.0435388,-0.0538171,0.331324,157.853262,8.567848)"/>
<path style="fill-rule:evenodd;fill:rgb(100%,100%,100%);fill-opacity:1;stroke-width:4.7128;stroke-linecap:butt;stroke-linejoin:miter;stroke:rgb(84.313725%,72.54902%,0%);stroke-opacity:1;stroke-miterlimit:4;" d="M 318.900528 574.022106 L 336.610607 591.73757 L 354.347852 574.021009 L 372.057932 591.736472 L 389.764857 574.023896 L 407.474937 591.739359 C 412.73943 582.311292 414.586297 568.852192 407.372688 555.216096 C 371.17746 541.403469 338.558209 542.577402 300.17516 556.404691 C 297.093272 567.432319 297.215272 580.337946 300.183238 591.843874 Z M 318.900528 574.022106 " transform="matrix(0.121768,0.0435388,-0.0538171,0.331324,159.173624,0.940148)"/>
<path style="fill-rule:evenodd;fill:rgb(100%,100%,100%);fill-opacity:1;stroke-width:4.7128;stroke-linecap:butt;stroke-linejoin:miter;stroke:rgb(84.313725%,72.54902%,0%);stroke-opacity:1;stroke-miterlimit:4;" d="M 318.910818 574.023807 L 336.620897 591.739271 L 354.322899 574.015552 L 372.037903 591.742158 L 389.770223 574.014454 L 407.485227 591.741061 C 412.74972 582.312993 414.561344 568.846735 407.382978 555.217798 C 371.182825 541.394028 338.533255 542.571944 300.18545 556.406392 C 297.103562 567.43402 297.220638 580.328505 300.188603 591.834432 Z M 318.910818 574.023807 " transform="matrix(0.121768,0.0435388,-0.0538171,0.331324,160.188087,-5.236645)"/>
<path style="fill-rule:evenodd;fill:rgb(100%,100%,100%);fill-opacity:1;stroke-width:4.7128;stroke-linecap:butt;stroke-linejoin:miter;stroke:rgb(84.313725%,72.54902%,0%);stroke-opacity:1;stroke-miterlimit:4;" d="M 318.886461 574.024148 L 336.626859 591.735628 L 354.333785 574.023051 L 372.043864 591.738515 L 389.781109 574.021954 L 407.491188 591.737417 C 412.725362 582.313334 414.567305 568.843092 407.35862 555.218139 C 371.193711 541.401527 338.544142 542.579444 300.191411 556.402749 C 297.109523 567.430377 297.231524 580.336004 300.19949 591.841932 Z M 318.886461 574.024148 " transform="matrix(0.121768,0.0435388,-0.0538171,0.331324,161.20279,-11.415385)"/>
<path style="fill-rule:evenodd;fill:rgb(100%,100%,100%);fill-opacity:1;stroke-width:1.25;stroke-linecap:butt;stroke-linejoin:miter;stroke:rgb(84.313725%,72.54902%,0%);stroke-opacity:1;stroke-miterlimit:4;" d="M 345.631164 -96.121427 C 345.629231 -92.84642 344.513152 -90.188336 343.131572 -90.186643 C 341.749992 -90.18495 340.626987 -92.846897 340.630007 -96.128403 C 340.63194 -99.40341 341.748019 -102.061494 343.129599 -102.063187 C 344.511179 -102.06488 345.626784 -99.405346 345.631164 -96.121427 Z M 345.631164 -96.121427 " transform="matrix(-0.500549,-0.185908,-0.0837875,0.570023,343.892822,356.273699)"/>
<path style="fill-rule:evenodd;fill:rgb(100%,100%,100%);fill-opacity:1;stroke-width:1.25;stroke-linecap:butt;stroke-linejoin:miter;stroke:rgb(84.313725%,72.54902%,0%);stroke-opacity:1;stroke-miterlimit:4;" d="M 345.627551 -96.122845 C 345.627139 -92.849444 344.513362 -90.189669 343.130066 -90.18972 C 341.74677 -90.189771 340.628805 -92.848643 340.629981 -96.127988 C 340.630393 -99.401388 341.752248 -102.064546 343.127466 -102.061113 C 344.510762 -102.061062 345.628727 -99.402189 345.627551 -96.122845 Z M 345.627551 -96.122845 " transform="matrix(-0.511118,-0.220285,-0.0656975,0.628858,336.032976,371.424068)"/>
<path style="fill-rule:evenodd;fill:rgb(100%,100%,100%);fill-opacity:1;stroke-width:1.25;stroke-linecap:butt;stroke-linejoin:miter;stroke:rgb(84.313725%,72.54902%,0%);stroke-opacity:1;stroke-miterlimit:4;" d="M 345.631546 -96.127023 C 345.631184 -92.844089 344.514213 -90.187173 343.126851 -90.189134 C 341.746381 -90.188841 340.632521 -92.843601 340.632883 -96.126535 C 340.632243 -99.403435 341.749213 -102.06035 343.129684 -102.060643 C 344.510155 -102.060936 345.630906 -99.403923 345.631546 -96.127023 Z M 345.631546 -96.127023 " transform="matrix(-0.537652,-0.200775,-0.0892992,0.613948,330.026843,360.895592)"/>
<path style="fill-rule:evenodd;fill:rgb(100%,100%,100%);fill-opacity:1;stroke-width:4.8244;stroke-linecap:butt;stroke-linejoin:miter;stroke:rgb(84.313725%,72.54902%,0%);stroke-opacity:1;stroke-miterlimit:4;" d="M 268.295714 261.839922 C 268.295714 261.839922 301.182085 219.669755 301.182085 166.532158 C 301.182085 166.532158 372.050822 166.532158 372.050822 166.532158 C 372.050822 219.669755 406.346375 261.839922 407.476998 255.121375 C 389.76391 255.121375 354.337734 237.408843 336.608261 201.957223 C 318.895173 237.408843 286.008802 261.839922 268.295714 261.839922 Z M 268.295714 261.839922 " transform="matrix(0.238392,0,0,0.147097,104.192825,126.050416)"/>
<path style="fill-rule:evenodd;fill:rgb(100%,100%,100%);fill-opacity:1;stroke-width:4.8244;stroke-linecap:butt;stroke-linejoin:miter;stroke:rgb(84.313725%,72.54902%,0%);stroke-opacity:1;stroke-miterlimit:4;" d="M 253.456778 240.408913 C 253.456778 240.408913 301.402609 181.694657 301.402609 128.530504 L 301.402609 53.936045 C 301.402609 36.223513 325.36699 35.29407 337.349181 35.29407 C 355.066437 35.29407 373.312821 36.223513 373.312821 53.936045 L 373.312821 128.530504 C 373.312821 181.668101 421.241583 240.408913 421.241583 240.408913 C 385.807071 240.408913 367.048627 201.266075 349.331371 165.814455 C 349.331371 183.553543 354.332485 219.695607 336.615229 237.408139 C 318.897973 219.695607 325.36699 183.553543 325.36699 165.814455 C 307.649734 201.266075 288.89129 240.408913 253.456778 240.408913 Z M 253.456778 240.408913 " transform="matrix(0.228855,0,0,0.147097,107.405236,126.460675)"/>
<path style="fill-rule:evenodd;fill:rgb(100%,100%,100%);fill-opacity:1;stroke-width:5.9087;stroke-linecap:butt;stroke-linejoin:miter;stroke:rgb(84.313725%,72.54902%,0%);stroke-opacity:1;stroke-miterlimit:4;" d="M 283.119989 77.935878 L 336.273178 77.939812 C 336.265789 95.681044 336.268293 113.373165 318.544503 113.375819 C 300.838893 113.366576 283.112599 95.67711 283.119989 77.935878 Z M 283.119989 77.935878 " transform="matrix(0.187551,0.0599614,-0.0417559,0.0916195,121.764327,106.574689)"/>
<path style="fill-rule:evenodd;fill:rgb(100%,100%,100%);fill-opacity:1;stroke-width:4.8244;stroke-linecap:butt;stroke-linejoin:miter;stroke:rgb(84.313725%,72.54902%,0%);stroke-opacity:1;stroke-miterlimit:4;" d="M 183.961595 42.513681 C 195.765232 42.523324 195.772425 60.252659 195.774095 77.94478 C 178.056519 77.942212 166.239093 60.252344 148.523188 77.941897 C 148.526397 58.411657 148.526444 42.508545 166.24402 42.511113 Z M 183.961595 42.513681 " transform="matrix(0.28133,0.0899398,-0.0417559,0.0916195,129.01741,110.746953)"/>
<path style="fill-rule:evenodd;fill:rgb(100%,100%,100%);fill-opacity:1;stroke-width:4.8244;stroke-linecap:butt;stroke-linejoin:miter;stroke:rgb(84.313725%,72.54902%,0%);stroke-opacity:1;stroke-miterlimit:4;" d="M 336.614296 69.09045 C 336.603191 73.984174 332.640267 77.9587 327.746843 77.961958 C 322.85342 77.965216 318.897581 73.978012 318.890507 69.09222 C 318.901611 64.198497 322.864536 60.22397 327.739781 60.228644 C 332.641489 60.250195 336.607222 64.204659 336.614296 69.09045 Z M 336.614296 69.09045 " transform="matrix(0.187551,0.0599614,-0.0626335,0.137429,126.277184,104.856242)"/>
<path style="fill-rule:evenodd;fill:rgb(84.313725%,72.54902%,0%);fill-opacity:1;stroke-width:1.25;stroke-linecap:butt;stroke-linejoin:miter;stroke:rgb(100%,100%,100%);stroke-opacity:1;stroke-miterlimit:4;" d="M 322.436285 -322.44325 L 329.527188 -322.44325 L 333.276306 -262.204921 L 325.985893 -255.115716 L 318.89499 -262.204921 Z M 322.436285 -322.44325 " transform="matrix(0.469902,0,0,0.588483,31.213034,382.748393)"/>
<path style="fill-rule:evenodd;fill:rgb(100%,100%,100%);fill-opacity:1;stroke-width:0.62344;stroke-linecap:butt;stroke-linejoin:miter;stroke:rgb(84.313725%,72.54902%,0%);stroke-opacity:1;stroke-miterlimit:4;" d="M -70.764854 -406.528576 C -69.440096 -406.530453 -68.368356 -404.514511 -68.370035 -402.026829 L -68.368085 -370.903879 C -68.369763 -368.416197 -69.441858 -366.400945 -70.766616 -366.399069 C -72.08653 -366.398653 -73.159017 -368.418599 -73.157338 -370.906281 L -73.158542 -402.025227 C -73.156863 -404.512909 -72.085515 -406.532165 -70.764854 -406.528576 Z M -70.764854 -406.528576 " transform="matrix(-0.278482,-0.763499,-0.923487,0.142376,-176.138437,232.671506)"/>
<path style="fill-rule:evenodd;fill:rgb(100%,100%,100%);fill-opacity:1;stroke-width:4.7128;stroke-linecap:butt;stroke-linejoin:miter;stroke:rgb(84.313725%,72.54902%,0%);stroke-opacity:1;stroke-miterlimit:4;" d="M 318.910232 574.017825 L 336.60285 591.733113 L 354.325113 574.017636 L 372.049771 591.740675 L 389.767715 574.013991 L 407.492372 591.737029 C 412.748339 582.30698 414.565538 568.853927 407.3655 555.221626 C 371.184493 541.397909 338.548714 542.578526 300.183329 556.408037 C 297.110996 567.433424 297.200753 580.331496 300.181404 591.835344 Z M 318.910232 574.017825 " transform="matrix(-0.134455,0.0414745,0.0518154,0.332549,217.91349,20.399713)"/>
<path style="fill-rule:evenodd;fill:rgb(100%,100%,100%);fill-opacity:1;stroke-width:4.7128;stroke-linecap:butt;stroke-linejoin:miter;stroke:rgb(84.313725%,72.54902%,0%);stroke-opacity:1;stroke-miterlimit:4;" d="M 318.895417 574.015665 L 336.620074 591.738703 L 354.342338 574.023227 L 372.062676 591.735057 L 389.75722 574.023038 L 407.477558 591.734868 C 412.733525 582.30482 414.578443 568.848309 407.378406 555.216008 C 371.169679 541.395748 338.5339 542.576365 300.196235 556.402419 C 297.096182 567.431263 297.217977 580.337086 300.198628 591.840934 Z M 318.895417 574.015665 " transform="matrix(-0.134455,0.0414745,0.0518154,0.332549,216.935048,14.19792)"/>
<path style="fill-rule:evenodd;fill:rgb(100%,100%,100%);fill-opacity:1;stroke-width:4.7128;stroke-linecap:butt;stroke-linejoin:miter;stroke:rgb(84.313725%,72.54902%,0%);stroke-opacity:1;stroke-miterlimit:4;" d="M 318.912642 574.021255 L 336.60526 591.736543 L 354.327524 574.021066 L 372.047862 591.732897 L 389.770125 574.01742 L 407.490463 591.729251 C 412.750749 582.31041 414.563629 568.846149 407.363591 555.213848 C 371.186903 541.401338 338.546805 542.570748 300.18142 556.400259 C 297.113406 567.436854 297.203163 580.334926 300.183814 591.838774 Z M 318.912642 574.021255 " transform="matrix(-0.134455,0.0414745,0.0518154,0.332549,215.956605,7.996128)"/>
<path style="fill-rule:evenodd;fill:rgb(100%,100%,100%);fill-opacity:1;stroke-width:4.7128;stroke-linecap:butt;stroke-linejoin:miter;stroke:rgb(84.313725%,72.54902%,0%);stroke-opacity:1;stroke-miterlimit:4;" d="M 318.903295 574.013912 L 336.627953 591.73695 L 354.322496 574.024931 L 372.042834 591.736762 L 389.765098 574.021285 L 407.485436 591.733116 C 412.745722 582.314275 414.586322 568.846557 407.358564 555.217713 C 371.181876 541.405203 338.541778 542.574613 300.176393 556.404124 C 297.108379 567.440719 297.225856 580.335333 300.178786 591.842639 Z M 318.903295 574.013912 " transform="matrix(-0.134455,0.0414745,0.0518154,0.332549,214.674479,0.338801)"/>
<path style="fill-rule:evenodd;fill:rgb(100%,100%,100%);fill-opacity:1;stroke-width:4.7128;stroke-linecap:butt;stroke-linejoin:miter;stroke:rgb(84.313725%,72.54902%,0%);stroke-opacity:1;stroke-miterlimit:4;" d="M 318.892204 574.017161 L 336.616861 591.740199 L 354.339125 574.024723 L 372.059463 591.736553 L 389.754007 574.024534 L 407.474345 591.736365 C 412.730311 582.306316 414.57523 568.849806 407.375192 555.217505 C 371.194186 541.393787 338.558406 542.574405 300.193022 556.403916 C 297.092968 567.43276 297.214764 580.338582 300.195415 591.842431 Z M 318.892204 574.017161 " transform="matrix(-0.134455,0.0414745,0.0518154,0.332549,213.696257,-5.861038)"/>
<path style="fill-rule:evenodd;fill:rgb(100%,100%,100%);fill-opacity:1;stroke-width:4.7128;stroke-linecap:butt;stroke-linejoin:miter;stroke:rgb(84.313725%,72.54902%,0%);stroke-opacity:1;stroke-miterlimit:4;" d="M 318.909428 574.022751 L 336.629766 591.734582 L 354.32431 574.022562 L 372.044648 591.734393 L 389.766912 574.018917 L 407.48725 591.730747 C 412.747536 582.311906 414.560415 568.847645 407.360378 555.215344 C 371.18369 541.402835 338.543592 542.572244 300.178207 556.401755 C 297.110193 567.43835 297.22767 580.332965 300.1806 591.84027 Z M 318.909428 574.022751 " transform="matrix(-0.134455,0.0414745,0.0518154,0.332549,212.717814,-12.06283)"/>
<path style="fill-rule:evenodd;fill:rgb(100%,100%,100%);fill-opacity:1;stroke-width:1.25;stroke-linecap:butt;stroke-linejoin:miter;stroke:rgb(84.313725%,72.54902%,0%);stroke-opacity:1;stroke-miterlimit:4;" d="M 345.630416 -96.126728 C 345.632368 -92.848034 344.507585 -90.185199 343.130333 -90.189005 C 341.752141 -90.186273 340.629164 -92.842943 340.628153 -96.128176 C 340.632964 -99.404772 341.750043 -102.063168 343.128236 -102.065899 C 344.512252 -102.059995 345.628464 -99.405423 345.630416 -96.126728 Z M 345.630416 -96.126728 " transform="matrix(0.552852,-0.177429,0.0794949,0.57198,4.430324,352.799559)"/>
<path style="fill-rule:evenodd;fill:rgb(100%,100%,100%);fill-opacity:1;stroke-width:1.25;stroke-linecap:butt;stroke-linejoin:miter;stroke:rgb(84.313725%,72.54902%,0%);stroke-opacity:1;stroke-miterlimit:4;" d="M 345.630932 -96.126568 C 345.630444 -92.843413 344.513065 -90.189149 343.130716 -90.188532 C 341.748366 -90.187916 340.626647 -92.844173 340.627135 -96.127329 C 340.627004 -99.404496 341.751681 -102.062505 343.127351 -102.065364 C 344.509082 -102.059994 345.630801 -99.403736 345.630932 -96.126568 Z M 345.630932 -96.126568 " transform="matrix(0.565187,-0.211654,0.0583835,0.630555,12.71926,368.099236)"/>
<path style="fill-rule:evenodd;fill:rgb(100%,100%,100%);fill-opacity:1;stroke-width:1.25;stroke-linecap:butt;stroke-linejoin:miter;stroke:rgb(84.313725%,72.54902%,0%);stroke-opacity:1;stroke-miterlimit:4;" d="M 345.628724 -96.123657 C 345.628811 -92.845382 344.513434 -90.18682 343.13191 -90.185471 C 341.750386 -90.184122 340.629957 -92.84715 340.62987 -96.125425 C 340.629783 -99.4037 341.751459 -102.060302 343.132983 -102.061651 C 344.508209 -102.06496 345.628637 -99.401932 345.628724 -96.123657 Z M 345.628724 -96.123657 " transform="matrix(0.593856,-0.191668,0.0845847,0.61604,19.533084,357.665086)"/>
<path style="fill-rule:evenodd;fill:rgb(100%,100%,100%);fill-opacity:1;stroke-width:4.8244;stroke-linecap:butt;stroke-linejoin:miter;stroke:rgb(84.313725%,72.54902%,0%);stroke-opacity:1;stroke-miterlimit:4;" d="M 301.175741 290.555081 C 301.175741 485.438948 336.609065 467.727061 407.475714 538.574609 C 478.342363 467.727061 513.775687 485.438948 513.775687 290.555081 C 478.342363 290.555081 442.909039 290.555081 407.475714 272.843194 C 372.04239 290.555081 336.609065 290.555081 301.175741 290.555081 Z M 301.175741 290.555081 " transform="matrix(0.190719,0,0,0.147103,106.727996,121.727275)"/>
<path style=" stroke:none;fill-rule:evenodd;fill:rgb(84.313725%,72.54902%,0%);fill-opacity:1;" d="M 165.585938 165.5 C 165.585938 191.789062 171.871094 189.398438 184.441406 198.957031 C 197.015625 189.398438 203.300781 191.789062 203.300781 165.5 C 197.015625 165.5 190.726562 165.5 184.441406 163.109375 C 178.15625 165.5 171.871094 165.5 165.585938 165.5 Z M 165.585938 165.5 "/>
<path style=" stroke:none;fill-rule:evenodd;fill:rgb(100%,100%,100%);fill-opacity:1;" d="M 177.785156 165.839844 L 177.785156 193.234375 L 184.542969 197.214844 L 191.300781 193.234375 L 191.300781 165.839844 C 188.890625 165.539062 186.5625 164.992188 184.554688 164.363281 C 182.316406 165.03125 180.039062 165.558594 177.785156 165.839844 Z M 177.785156 165.839844 "/>
</g>
</svg>
