<?xml version="1.0" encoding="UTF-8"?>
<svg xmlns="http://www.w3.org/2000/svg" xmlns:xlink="http://www.w3.org/1999/xlink" width="384pt" height="384pt" viewBox="0 0 384 384" version="1.1">
<g id="surface1">
<path style=" stroke:none;fill-rule:evenodd;fill:rgb(0%,0%,0%);fill-opacity:1;" d="M -135 0 L 633 0 L 633 192 L -135 192 Z M -135 0 "/>
<path style=" stroke:none;fill-rule:evenodd;fill:rgb(6.27451%,48.235294%,0%);fill-opacity:1;" d="M -135 192 L 633 192 L 633 384 L -135 384 Z M -135 192 "/>
<path style=" stroke:none;fill-rule:evenodd;fill:rgb(100%,100%,100%);fill-opacity:1;" d="M -135 126.984375 L 633 126.984375 L 633 259.078125 L -135 259.078125 Z M -135 126.984375 "/>
<path style=" stroke:none;fill-rule:evenodd;fill:rgb(100%,0%,100%);fill-opacity:1;" d="M 232.484375 146.664062 C 198.582031 132.09375 169.40625 162.144531 169.4375 190.226562 C 169.472656 219.59375 197.953125 250.914062 234.0625 237.050781 C 208.5 229.519531 197.945312 210.636719 197.953125 191.539062 C 197.769531 172.625 209.867188 150.632812 232.484375 146.664062 Z M 232.484375 146.664062 "/>
<path style=" stroke:none;fill-rule:evenodd;fill:rgb(100%,9.411765%,0%);fill-opacity:1;" d="M 272.359375 220.660156 L 252.980469 206.507812 L 233.488281 220.683594 L 240.960938 197.878906 L 221.460938 183.726562 L 245.449219 183.777344 L 252.894531 160.867188 L 260.257812 183.691406 L 284.34375 183.695312 L 264.902344 197.746094 Z M 272.359375 220.660156 "/>
<path style=" stroke:none;fill-rule:evenodd;fill:rgb(100%,0%,0%);fill-opacity:1;" d="M 235.753906 236.738281 C 197.867188 249.890625 169.339844 221.378906 168.84375 192.144531 C 168.347656 162.914062 197.035156 132.769531 235.949219 146.496094 C 213.929688 149.761719 197.765625 169.058594 197.570312 190.875 C 197.421875 207.367188 207.179688 230.882812 235.753906 236.738281 Z M 235.753906 236.738281 "/>
<path style=" stroke:none;fill-rule:evenodd;fill:rgb(100%,0%,0%);fill-opacity:1;" d="M -134.984375 0 L 126.472656 192.464844 L -135 384 L -135 1.964844 L -134.988281 0 Z M -134.984375 0 "/>
</g>
</svg>
