<?xml version="1.0" encoding="UTF-8"?>
<svg xmlns="http://www.w3.org/2000/svg" xmlns:xlink="http://www.w3.org/1999/xlink" width="384pt" height="384pt" viewBox="0 0 384 384" version="1.1">
<g id="surface1">
<rect x="0" y="0" width="384" height="384" style="fill:rgb(74.509804%,0%,15.294118%);fill-opacity:1;stroke:none;"/>
<path style=" stroke:none;fill-rule:evenodd;fill:rgb(70.588235%,84.313725%,95.686275%);fill-opacity:1;" d="M -36 384 L 407.585938 383.761719 L 407.566406 192 Z M -36 384 "/>
<path style=" stroke:none;fill-rule:evenodd;fill:rgb(13.72549%,61.960784%,27.45098%);fill-opacity:1;" d="M -36 0 L 407.585938 0.242188 L 407.566406 192 Z M -36 0 "/>
<path style=" stroke:none;fill-rule:evenodd;fill:rgb(95.294118%,88.627451%,58.431373%);fill-opacity:1;" d="M 111.570312 263.578125 C 105.042969 265.382812 101.296875 270.449219 101.394531 275.226562 L 133.527344 275.097656 C 133.816406 269.960938 129.59375 265.214844 123.160156 263.34375 C 154.625 262.691406 181.960938 250.90625 186.925781 243.347656 C 182.011719 241.210938 176.328125 244.644531 172.277344 243.855469 C 181.894531 239.410156 210.714844 220.757812 206.027344 200.757812 C 202.386719 211.867188 191.351562 221.054688 186.652344 223.523438 C 197.417969 207.175781 212.121094 190.160156 199.367188 176.980469 C 200.007812 184.617188 194.511719 193.023438 192.082031 193.65625 C 198.328125 176.382812 204.285156 154.699219 190.757812 140.402344 C 192.535156 145.570312 191.816406 160.144531 189.371094 160.800781 C 188.617188 149.054688 186.613281 124.351562 174.242188 124.703125 C 178.171875 128.199219 179.890625 137.746094 179.976562 147.386719 C 177.160156 140.78125 173.953125 135.808594 167.101562 130.929688 C 161.558594 120.300781 151.695312 111.492188 141.832031 105.183594 C 142.941406 112.921875 143.859375 119.027344 154.660156 127.050781 C 149.027344 126.699219 143.398438 116.023438 137.375 115.726562 C 132.589844 115.496094 128.832031 120.066406 121.003906 117.433594 C 121.871094 120.019531 125.523438 121.160156 126.292969 123.074219 C 124.617188 124.230469 120.636719 122.890625 117.332031 121.167969 C 121.882812 127.367188 128.933594 131.011719 134.917969 129.78125 C 142.035156 128.414062 149.667969 129.136719 156.945312 133.28125 C 155.089844 134.234375 147.851562 134.226562 143.207031 133.648438 C 147.429688 137.921875 150.261719 140.753906 157.601562 140.707031 C 164.15625 140.664062 167.59375 137.210938 169.277344 139.347656 C 173.386719 144.222656 176.15625 149.089844 179.59375 154.828125 C 171.996094 155.664062 174.285156 146.234375 165.824219 141.410156 C 161.070312 151.25 171.292969 162.914062 178.253906 167.761719 C 178.347656 175.160156 179.425781 181.347656 182.5625 186.980469 C 184.679688 190.949219 187.414062 195.011719 186.382812 203.972656 C 182.214844 200.9375 178.144531 190.707031 179.644531 182.585938 C 174.429688 184.007812 172.390625 193.175781 174.847656 197.789062 C 176.683594 201.304688 177.910156 208.027344 175.792969 211.03125 C 173.730469 213.832031 173.511719 213.519531 173.539062 219.53125 C 173.613281 223.125 171.605469 227.378906 168.332031 230.34375 C 169.015625 227.8125 169.792969 223.453125 169.039062 220.726562 C 166.449219 225.113281 159.960938 229.65625 157.917969 234.371094 C 155.910156 239.101562 155.402344 247.289062 145.691406 249.179688 C 133.199219 251.660156 128.886719 253.824219 120.847656 257.113281 C 119.957031 251.007812 122.625 238.273438 127.730469 239 C 132.71875 239.886719 147.832031 233.792969 142.425781 221.058594 C 141.355469 225.074219 137.792969 228.988281 133.941406 229.164062 C 138.105469 223.765625 145.527344 218.175781 141.914062 209.128906 C 139.902344 212.976562 136.742188 217.589844 131.945312 220.1875 C 137.085938 210.335938 132.542969 207.390625 126.441406 215.5 C 124.136719 218.632812 122.742188 224.902344 121.277344 232.867188 C 118.882812 226.390625 119.039062 217.863281 116.199219 210.9375 C 113.230469 203.449219 120.136719 201.472656 123.386719 202.074219 C 131.34375 204.199219 144.644531 204.195312 143.65625 191.050781 C 140.21875 195.496094 134.191406 196.871094 127.683594 195.269531 C 134.992188 189.933594 140.761719 179.890625 132.617188 174.648438 C 132.347656 180.207031 128.042969 186.441406 122.300781 189.3125 C 120.957031 184.621094 120.957031 179.644531 122.109375 174.1875 C 118.902344 177.5625 116.558594 184.585938 114.699219 192.570312 C 114.558594 184.675781 116.050781 178.992188 117.15625 174.746094 C 118.835938 168.542969 123.007812 172.578125 129.394531 173.035156 C 135.542969 173.382812 144.011719 169.984375 142.394531 161.644531 C 140.292969 164.945312 135.984375 166.230469 131.578125 165.878906 C 136.878906 162.667969 146.117188 156.960938 141.050781 148.179688 C 138.925781 151.503906 138.234375 154.351562 132.074219 155.371094 C 133.6875 151.660156 133.957031 146.410156 138.738281 144.332031 C 130.207031 142.632812 125.324219 148.230469 122.84375 157 C 121.835938 150.921875 120.636719 148.683594 120.398438 144.238281 C 125.011719 139.117188 125.492188 129.101562 115.511719 126.859375 C 114.917969 132.027344 115.09375 133.257812 116.230469 137.464844 C 111.546875 134.683594 104.941406 133.144531 100.546875 137.082031 C 103.523438 140.296875 108.132812 143.125 115.242188 139.621094 C 113.5625 145.113281 109.195312 144.171875 103.195312 142.078125 C 106.863281 148.964844 111.492188 150.1875 116.597656 149.394531 C 119.273438 156.445312 119.390625 161.800781 111.574219 172.066406 C 111.9375 165.6875 111.484375 160.933594 106.414062 155.777344 C 102.070312 151.523438 98.539062 155.957031 105.328125 165.417969 C 101.210938 162.382812 96.550781 156.230469 95.148438 150.074219 C 93.789062 157.679688 95.011719 166.636719 99.21875 171.660156 C 97.230469 173.789062 94.964844 171.433594 91.617188 166.230469 C 92.882812 182.886719 99.988281 186.097656 109.539062 182.386719 C 109.808594 191.527344 109.808594 199.992188 110.351562 211.035156 C 104.785156 203.023438 97.726562 197.050781 93.789062 195.554688 C 92.566406 200.035156 97.183594 205.875 99.761719 209.132812 C 95.824219 208.316406 87.273438 201.800781 87.273438 201.800781 C 86.410156 209.222656 96.007812 216.101562 102.207031 219.179688 C 94.921875 218.863281 91.707031 216.101562 87 211.574219 C 87.089844 232.167969 109.3125 228.589844 113.476562 225.421875 C 114.019531 235.5625 114.792969 247.28125 115.335938 257.417969 C 109.054688 256.320312 109.546875 254.433594 104.171875 253.933594 C 89.253906 253.355469 77.421875 236.027344 73.503906 223.28125 C 72.378906 225.378906 73.269531 227.574219 72.242188 230.152344 C 69.820312 223.894531 66.726562 215.816406 62.578125 212.054688 C 63.632812 215.703125 63.746094 219.410156 63.378906 226.226562 C 61.953125 221.808594 60.628906 220.453125 60.53125 215.269531 C 60.625 211.289062 64.371094 208.355469 64.164062 202.753906 C 64.011719 198.667969 60.285156 189.808594 59.734375 182.953125 C 57.929688 190.011719 56.796875 197.449219 54.03125 201.820312 C 55.40625 194.285156 54.964844 189.082031 57.289062 184.007812 C 59.976562 178.667969 62.257812 173.902344 60.46875 168.511719 C 58.757812 170.59375 59.347656 172.484375 55.039062 177.542969 C 54.105469 172.042969 60.609375 163.238281 66.921875 159.699219 C 71.371094 157.355469 76.984375 148.964844 73.328125 143.214844 C 69.140625 146.21875 67.261719 150.28125 61.347656 157.222656 C 65.566406 140.734375 76.527344 136.417969 89.648438 136.363281 C 92.554688 136.347656 98.40625 135.300781 100.050781 131.457031 C 96.351562 132.886719 91.976562 133.066406 88.085938 132.289062 C 90.917969 128.132812 96.882812 128.671875 102.441406 128.648438 C 106.800781 128.625 113.609375 128.035156 116.359375 121.824219 C 111.042969 124.128906 102.746094 124.609375 97.523438 122.976562 C 105.832031 118.675781 118.839844 118.210938 125.511719 112.5625 C 117.90625 106.886719 98.875 113.886719 86.855469 122.128906 C 90.214844 119.058594 95.527344 113.609375 98.457031 109.207031 C 91.882812 106.058594 75.253906 124.476562 69.527344 135.417969 C 64.085938 138.492188 61.910156 143.308594 59.800781 146.667969 C 62.699219 136.871094 63.003906 129.765625 65.421875 121.699219 C 46.777344 128.117188 54.527344 162.574219 50.472656 170.816406 C 50.949219 161.714844 50.5625 150.023438 46.816406 143.996094 C 41.070312 148.378906 40.609375 174.167969 46 195.636719 C 44.054688 189.890625 40.378906 184.527344 39.199219 177.535156 C 30.699219 193.039062 44.183594 211.328125 55.457031 225.777344 C 46.96875 221.355469 38.574219 211.847656 33.0625 203.875 C 34.585938 231.625 63.5625 237.390625 68.0625 244.210938 C 61.953125 241.367188 50.28125 235.742188 45.328125 241.636719 C 53.390625 243.5 59.824219 245.648438 65.007812 249.046875 C 72.527344 258.4375 86.765625 262.542969 111.570312 263.582031 Z M 111.570312 263.578125 "/>
</g>
</svg>
