<?xml version="1.0" encoding="UTF-8"?>
<svg xmlns="http://www.w3.org/2000/svg" xmlns:xlink="http://www.w3.org/1999/xlink" width="384pt" height="384pt" viewBox="0 0 384 384" version="1.1">
<defs>
<clipPath id="clip1">
  <path d="M 0.00390625 2 L 384 2 L 384 377 L 0.00390625 377 Z M 0.00390625 2 "/>
</clipPath>
<clipPath id="clip2">
  <path d="M 0.00390625 256 L 384 256 L 384 384 L 0.00390625 384 Z M 0.00390625 256 "/>
</clipPath>
<clipPath id="clip3">
  <path d="M 0.00390625 0 L 384 0 L 384 135 L 0.00390625 135 Z M 0.00390625 0 "/>
</clipPath>
</defs>
<g id="surface1">
<g clip-path="url(#clip1)" clip-rule="nonzero">
<path style=" stroke:none;fill-rule:evenodd;fill:rgb(100%,77.647059%,12.941176%);fill-opacity:1;" d="M -178.492188 2.625 L 599.980469 2.625 L 599.980469 376.136719 L -178.492188 376.136719 Z M -178.492188 2.625 "/>
</g>
<g clip-path="url(#clip2)" clip-rule="nonzero">
<path style=" stroke:none;fill-rule:evenodd;fill:rgb(93.72549%,12.941176%,9.411765%);fill-opacity:1;" d="M -180 256.886719 L 599.523438 256.886719 L 599.523438 384.011719 L -180 384.011719 Z M -180 256.886719 "/>
</g>
<g clip-path="url(#clip3)" clip-rule="nonzero">
<path style=" stroke:none;fill-rule:evenodd;fill:rgb(16.078431%,54.901961%,3.137255%);fill-opacity:1;" d="M -178.492188 0 L 600.050781 0 L 600.050781 135 L -178.492188 135 Z M -178.492188 0 "/>
</g>
<path style=" stroke:none;fill-rule:evenodd;fill:rgb(0%,41.960784%,77.647059%);fill-opacity:1;" d="M 277.4375 198.210938 C 277.4375 153.617188 241.285156 117.46875 196.695312 117.46875 C 152.101562 117.46875 115.953125 153.617188 115.953125 198.210938 C 115.953125 242.804688 152.101562 278.953125 196.695312 278.953125 C 241.285156 278.953125 277.4375 242.804688 277.4375 198.210938 Z M 277.4375 198.210938 "/>
<path style=" stroke:none;fill-rule:evenodd;fill:rgb(100%,77.647059%,12.941176%);fill-opacity:1;" d="M 160.699219 141.15625 L 155.875 144.546875 L 173.496094 169.3125 L 178.195312 166.316406 Z M 182.757812 199.613281 L 175.511719 194.5625 L 178.503906 185.054688 L 142.410156 185.558594 L 131.964844 177.558594 L 181.234375 177.027344 L 190.371094 149.347656 L 195.28125 160.539062 Z M 240.152344 146.605469 L 235.460938 143.03125 L 217.175781 167.3125 L 221.453125 170.886719 Z M 191.089844 185.296875 L 193.71875 176.859375 L 203.6875 176.84375 L 192.300781 142.589844 L 196.765625 130.214844 L 212.160156 177.019531 L 241.308594 177.367188 L 232.125 185.425781 L 191.09375 185.296875 Z M 259.097656 223.671875 L 261.058594 218.109375 L 232.335938 208.164062 L 230.246094 213.332031 Z M 207.210938 188.859375 L 216.042969 188.769531 L 219.121094 198.25 L 248.226562 176.894531 L 261.375 177.347656 L 221.554688 206.371094 L 230.175781 234.21875 L 219.683594 227.949219 Z M 192.398438 265.421875 L 198.292969 265.507812 L 198.566406 235.113281 L 193.003906 234.78125 Z M 208.855469 205.148438 L 211.757812 213.492188 L 203.753906 219.429688 L 233.265625 240.210938 L 237.03125 252.816406 L 196.832031 224.324219 L 173.183594 241.371094 L 175.78125 229.429688 Z M 131.402344 214.886719 L 133.148438 220.519531 L 162.132812 211.367188 L 160.726562 205.972656 Z M 193.8125 211.871094 L 186.777344 217.214844 L 178.652344 211.441406 L 168.03125 245.941406 L 157.210938 253.421875 L 171.855469 206.375 L 148.320312 189.167969 L 160.480469 187.941406 Z M 193.8125 211.871094 "/>
</g>
</svg>
