<?xml version="1.0" encoding="UTF-8"?>
<svg xmlns="http://www.w3.org/2000/svg" xmlns:xlink="http://www.w3.org/1999/xlink" width="384pt" height="384pt" viewBox="0 0 384 384" version="1.1">
<g id="surface1">
<path style=" stroke:none;fill-rule:evenodd;fill:rgb(100%,100%,100%);fill-opacity:1;" d="M -79.214844 244.246094 L 107.800781 244.246094 L 107.800781 383.996094 L -79.214844 383.996094 Z M -79.214844 244.246094 "/>
<path style=" stroke:none;fill-rule:evenodd;fill:rgb(0%,38.431373%,85.490196%);fill-opacity:1;" d="M 107.675781 0 L 220.132812 0 L 220.132812 383.996094 L 107.675781 383.996094 Z M 107.675781 0 "/>
<path style=" stroke:none;fill-rule:evenodd;fill:rgb(0%,38.431373%,85.490196%);fill-opacity:1;" d="M -79.214844 139.636719 L 594.039062 139.636719 L 594.039062 244.359375 L -79.214844 244.359375 Z M -79.214844 139.636719 "/>
<path style=" stroke:none;fill-rule:evenodd;fill:rgb(100%,100%,100%);fill-opacity:1;" d="M -79.214844 0.00390625 L 107.800781 0.00390625 L 107.800781 139.75 L -79.214844 139.75 Z M -79.214844 0.00390625 "/>
<path style=" stroke:none;fill-rule:evenodd;fill:rgb(100%,100%,100%);fill-opacity:1;" d="M 220.007812 244.246094 L 594.03125 244.246094 L 594.03125 383.996094 L 220.007812 383.996094 Z M 220.007812 244.246094 "/>
<path style=" stroke:none;fill-rule:evenodd;fill:rgb(100%,100%,100%);fill-opacity:1;" d="M 220.007812 0 L 594.03125 0 L 594.03125 139.75 L 220.007812 139.75 Z M 220.007812 0 "/>
<path style=" stroke:none;fill-rule:evenodd;fill:rgb(100%,100%,100%);fill-opacity:1;" d="M -79.214844 244.246094 L 107.800781 244.246094 L 107.800781 383.996094 L -79.214844 383.996094 Z M -79.214844 244.246094 "/>
<path style=" stroke:none;fill-rule:evenodd;fill:rgb(0%,38.431373%,85.490196%);fill-opacity:1;" d="M 107.675781 0 L 220.132812 0 L 220.132812 383.996094 L 107.675781 383.996094 Z M 107.675781 0 "/>
<path style=" stroke:none;fill-rule:evenodd;fill:rgb(100%,100%,100%);fill-opacity:1;" d="M -79.214844 0.00390625 L 107.800781 0.00390625 L 107.800781 139.75 L -79.214844 139.75 Z M -79.214844 0.00390625 "/>
<path style=" stroke:none;fill-rule:evenodd;fill:rgb(100%,100%,100%);fill-opacity:1;" d="M 220.007812 244.246094 L 594.03125 244.246094 L 594.03125 383.996094 L 220.007812 383.996094 Z M 220.007812 244.246094 "/>
<path style=" stroke:none;fill-rule:evenodd;fill:rgb(100%,100%,100%);fill-opacity:1;" d="M 220.007812 0 L 594.03125 0 L 594.03125 139.75 L 220.007812 139.75 Z M 220.007812 0 "/>
</g>
</svg>
