<?xml version="1.0" encoding="UTF-8"?>
<svg xmlns="http://www.w3.org/2000/svg" xmlns:xlink="http://www.w3.org/1999/xlink" width="384pt" height="384pt" viewBox="0 0 384 384" version="1.1">
<g id="surface1">
<rect x="0" y="0" width="384" height="384" style="fill:rgb(40.392157%,69.411765%,100%);fill-opacity:1;stroke:none;"/>
<path style=" stroke:none;fill-rule:evenodd;fill:rgb(0%,0%,70.588235%);fill-opacity:1;" d="M 0 0 L 235.105469 0 L 235.105469 155.703125 L 0 155.703125 Z M 0 0 "/>
<path style=" stroke:none;fill-rule:nonzero;fill:rgb(100%,100%,100%);fill-opacity:1;" d="M 0 0 L 0 17.40625 L 208.820312 155.703125 L 235.105469 155.703125 L 235.105469 138.296875 L 26.285156 0 Z M 235.105469 0 L 235.105469 17.40625 L 26.285156 155.703125 L 0 155.703125 L 0 138.292969 L 208.820312 0 Z M 235.105469 0 "/>
<path style=" stroke:none;fill-rule:nonzero;fill:rgb(100%,100%,100%);fill-opacity:1;" d="M 97.960938 0 L 97.960938 155.703125 L 137.144531 155.703125 L 137.144531 0 Z M 0 51.902344 L 0 103.800781 L 235.105469 103.800781 L 235.105469 51.902344 Z M 0 51.902344 "/>
<path style=" stroke:none;fill-rule:nonzero;fill:rgb(80%,0%,0%);fill-opacity:1;" d="M 0 62.28125 L 0 93.421875 L 235.105469 93.421875 L 235.105469 62.28125 Z M 105.796875 0 L 105.796875 155.703125 L 129.308594 155.703125 L 129.308594 0 Z M 105.796875 0 "/>
<path style=" stroke:none;fill-rule:nonzero;fill:rgb(80%,0%,0%);fill-opacity:1;" d="M 0 155.703125 L 78.367188 103.800781 L 95.890625 103.800781 L 17.523438 155.703125 Z M 0 0 L 78.367188 51.902344 L 60.84375 51.902344 L 0 11.605469 Z M 139.214844 51.902344 L 217.582031 0 L 235.105469 0 L 156.738281 51.902344 Z M 235.105469 155.703125 L 156.738281 103.800781 L 174.261719 103.800781 L 235.105469 144.097656 Z M 235.105469 155.703125 "/>
<path style=" stroke:none;fill-rule:evenodd;fill:rgb(100%,100%,100%);fill-opacity:1;" d="M 227.53125 179.914062 L 227.53125 276.671875 C 240.007812 344.40625 261.835938 354.082031 289.90625 373.433594 C 317.976562 354.082031 339.804688 344.40625 352.28125 276.671875 L 352.28125 179.914062 Z M 227.53125 179.914062 "/>
<path style=" stroke:none;fill-rule:evenodd;fill:rgb(85.490196%,0%,0%);fill-opacity:1;" d="M 281.589844 179.914062 L 281.71875 367.945312 L 290.039062 373.40625 L 298.355469 367.792969 L 298.222656 179.917969 L 281.589844 179.917969 Z M 281.589844 179.914062 "/>
<path style=" stroke:none;fill-rule:evenodd;fill:rgb(85.490196%,0%,0%);fill-opacity:1;" d="M 227.53125 277.695312 L 233.769531 304.050781 L 346.371094 303.976562 L 352.28125 277.695312 Z M 227.53125 277.695312 "/>
<path style=" stroke:none;fill-rule:evenodd;fill:rgb(85.490196%,0%,0%);fill-opacity:1;" d="M 227.53125 179.914062 L 352.28125 179.914062 L 352.28125 247.644531 L 227.53125 247.644531 Z M 227.53125 179.914062 "/>
<path style="fill-rule:evenodd;fill:rgb(96.470588%,93.72549%,92.54902%);fill-opacity:1;stroke-width:0.75;stroke-linecap:butt;stroke-linejoin:miter;stroke:rgb(0%,0%,0%);stroke-opacity:1;stroke-miterlimit:4;" d="M 329.313902 -281.676961 C 342.146131 -281.676961 352.539552 -269.141928 352.539552 -253.688686 C 352.539552 -238.235445 342.146131 -225.700412 329.313902 -225.700412 C 316.481674 -225.700412 306.088252 -238.235445 306.088252 -253.688686 C 306.088252 -269.141928 316.481674 -281.676961 329.313902 -281.676961 Z M 329.313902 -281.676961 " transform="matrix(0.171382,0,0,0.23559,177.905128,277.633636)"/>
<path style="fill-rule:evenodd;fill:rgb(100%,100%,0%);fill-opacity:1;stroke-width:0.875;stroke-linecap:butt;stroke-linejoin:miter;stroke:rgb(0%,0%,0%);stroke-opacity:1;stroke-miterlimit:4;" d="M 850.405411 -296.564043 C 850.405411 -296.564043 898.049199 -300.152123 914.707685 -319.209343 C 931.392078 -338.266563 903.412039 -372.792922 921.262268 -376.35724 C 928.412722 -376.975055 938.542532 -374.575081 946.288857 -365.046471 C 945.097115 -372.198869 940.330146 -376.35724 938.542532 -380.539373 C 931.987949 -386.503664 925.433366 -385.885849 915.899427 -385.885849 C 909.344844 -384.697743 908.153102 -387.097717 897.453328 -399.596592 C 892.090487 -405.537122 892.090487 -420.435971 896.261585 -430.558633 C 883.74829 -421.030024 886.131775 -407.937096 887.323517 -404.943069 C 890.302873 -391.850141 893.282229 -388.285823 893.282229 -382.321531 C 889.707002 -384.10369 883.152419 -399.596592 849.213669 -401.972804 C 815.274919 -404.349016 729.521283 -378.163161 690.789656 -378.163161 C 652.083936 -378.163161 596.12386 -394.226353 596.12386 -394.226353 C 596.12386 -394.226353 610.398861 -405.537122 593.144504 -410.313308 C 575.864239 -415.065732 537.754391 -393.6323 527.02871 -405.537122 C 519.282384 -416.871653 522.26174 -414.471679 521.069998 -419.841918 C 518.090642 -418.059759 516.303028 -410.907361 520.474127 -401.378751 C 524.645225 -391.850141 527.02871 -394.820406 526.432838 -394.820406 C 525.836967 -394.820406 512.727801 -394.820406 511.536059 -390.067982 C 510.370224 -386.503664 508.58261 -382.321531 515.111286 -369.228604 C 517.494771 -382.321531 508.58261 -384.10369 528.220452 -385.291796 C 547.884201 -386.503664 561.563331 -377.569108 578.247724 -374.575081 C 594.932117 -371.604816 594.932117 -381.727479 595.527989 -381.133426 C 596.12386 -380.539373 646.721096 -366.82863 693.173141 -369.822657 C 739.625186 -372.792922 814.679048 -398.408486 849.187762 -393.038247 C 883.74829 -387.69177 906.365488 -362.670259 906.961359 -339.454668 C 906.365488 -325.149873 891.494616 -317.997475 879.577192 -315.621263 C 865.276284 -313.245051 831.933405 -309.680733 831.933405 -309.680733 L 850.379504 -296.564043 Z M 850.405411 -296.564043 " transform="matrix(0.150777,0,0,0.16439,197.403309,256.517729)"/>
<path style="fill-rule:evenodd;fill:rgb(100%,100%,0%);fill-opacity:1;stroke-width:0.5;stroke-linecap:butt;stroke-linejoin:miter;stroke:rgb(0%,0%,0%);stroke-opacity:1;stroke-miterlimit:4;" d="M 683.064233 -248.919538 C 682.450841 -248.919538 650.314419 -248.322631 640.766834 -234.626947 C 631.245919 -220.931263 627.085519 -207.832485 627.672242 -207.832485 C 628.258965 -207.832485 649.114303 -219.140544 649.114303 -219.140544 C 649.114303 -219.140544 633.61948 -196.507845 641.96695 -176.262772 C 650.314419 -156.017699 619.964835 -157.211512 602.469819 -156.614605 C 594.709073 -162.567088 569.986697 -172.697915 561.159182 -174.488634 C 555.66532 -176.561225 544.837613 -176.826517 533.556528 -164.142257 C 526.889221 -156.299571 543.450813 -171.504102 559.852389 -170.310289 C 561.612559 -168.51957 562.759336 -166.745432 563.079366 -162.567088 C 554.331859 -163.163994 545.237651 -173.294821 534.516621 -152.452842 C 545.237651 -159.599137 546.571113 -159.44991 552.011636 -159.89759 C 559.265666 -160.428173 558.332243 -156.614605 558.038882 -156.614605 C 556.838766 -156.614605 553.878482 -156.017699 549.398051 -151.855935 C 547.02449 -148.871404 541.077251 -142.322015 542.250697 -142.322015 C 543.450813 -142.322015 547.02449 -145.903453 552.598359 -148.871404 C 556.065359 -151.259029 559.372343 -151.259029 569.906689 -148.274497 C 627.672242 -134.578813 658.635219 -144.70964 662.208895 -150.065216 C 663.995734 -152.452842 628.872357 -219.73745 722.374679 -237.611479 C 721.174564 -238.208385 683.064233 -248.322631 683.064233 -248.919538 Z M 683.064233 -248.919538 " transform="matrix(0.14647,0,0,0.23559,217.537319,268.654604)"/>
<path style="fill-rule:evenodd;fill:rgb(100%,100%,0%);fill-opacity:1;stroke-width:0.625;stroke-linecap:butt;stroke-linejoin:miter;stroke:rgb(0%,0%,0%);stroke-opacity:1;stroke-miterlimit:4;" d="M 472.838848 -212.601634 C 505.591801 -185.210265 726.520386 -241.783721 754.509687 -261.431888 C 770.601257 -272.739947 798.590558 -281.080055 798.590558 -242.380628 C 805.724639 -268.578183 805.724639 -275.127572 805.724639 -274.530666 C 806.340039 -273.93376 817.052557 -264.41642 826.57986 -232.249801 C 828.95029 -260.834982 822.408816 -277.515198 825.987253 -275.127572 C 828.357682 -277.515198 828.357682 -260.834982 847.412288 -237.605377 C 843.241244 -256.076312 842.056029 -264.41642 842.056029 -264.41642 C 842.056029 -264.41642 877.794812 -229.862175 898.034633 -225.103505 C 918.297246 -220.344835 947.471763 -234.637426 956.406459 -226.297318 C 965.341154 -217.95721 980.817323 -203.067713 980.224716 -191.162748 C 979.632109 -179.257783 946.879155 -189.372029 943.300719 -179.854689 C 939.722282 -170.320768 945.671148 -170.320768 945.671148 -170.320768 C 945.671148 -170.320768 948.656978 -163.174473 951.0502 -157.22199 C 952.828022 -161.383754 949.249585 -170.320768 955.813851 -170.917675 C 960.577503 -170.320768 960.577503 -162.577567 961.762717 -158.415803 C 963.153065 -163.174473 961.557584 -172.691813 965.933762 -172.691813 C 970.697413 -173.686657 971.29002 -165.164161 974.868457 -159.593035 L 974.868457 -172.691813 C 988.566804 -176.870157 1000.464537 -177.467064 1002.265152 -186.404078 C 1004.042974 -195.324512 981.409931 -215.569585 976.053672 -228.684943 C 970.697413 -241.783721 980.224716 -247.139298 970.104806 -254.285593 C 959.962103 -261.431888 921.260283 -242.977534 903.390892 -250.123829 C 885.544293 -257.270124 892.678374 -308.471423 825.394645 -319.796063 C 758.088124 -331.104122 575.861359 -260.238075 543.701013 -257.270124 C 511.540667 -254.285593 472.24624 -267.384371 472.24624 -267.384371 Z M 472.838848 -212.601634 " transform="matrix(0.171382,0,0,0.23559,177.905128,277.633636)"/>
<path style="fill-rule:evenodd;fill:rgb(100%,100%,0%);fill-opacity:1;stroke-width:0.5;stroke-linecap:butt;stroke-linejoin:miter;stroke:rgb(0%,0%,0%);stroke-opacity:1;stroke-miterlimit:4;" d="M 420.426437 -263.223451 C 420.426437 -263.223451 391.85462 -300.735921 368.620404 -304.31243 C 345.39285 -307.289097 322.765689 -290.015912 318.009823 -292.397953 C 313.231532 -294.784076 311.461854 -291.807018 308.470423 -286.444936 C 305.501416 -281.078774 309.069395 -277.516109 309.060389 -278.103076 C 310.266289 -278.109766 313.235481 -287.041071 314.432375 -287.634727 C 315.629268 -288.228384 308.47428 -276.91936 315.623934 -275.724631 C 317.995205 -275.133453 319.20391 -284.065876 322.170481 -287.636591 C 322.756498 -287.037736 317.415851 -275.132465 320.3889 -274.538194 C 323.361948 -273.943923 326.935447 -286.450154 332.295713 -289.42561 C 340.036441 -294.788064 351.342804 -296.574978 365.635543 -296.567934 C 379.934758 -292.395905 409.117545 -257.858518 412.099692 -258.459852 Z M 420.426437 -263.223451 " transform="matrix(0.168613,0.0534388,0.0306877,-0.293639,188.903254,123.150385)"/>
<path style="fill-rule:evenodd;fill:rgb(100%,100%,0%);fill-opacity:1;stroke-width:0.5;stroke-linecap:butt;stroke-linejoin:miter;stroke:rgb(0%,0%,0%);stroke-opacity:1;stroke-miterlimit:4;" d="M 420.428806 -263.226735 C 420.428806 -263.226735 391.846897 -300.738638 368.621247 -304.307704 C 345.395597 -307.289268 322.762554 -290.016755 317.998902 -292.396132 C 313.235251 -294.790196 311.457429 -291.808632 308.471599 -286.44769 C 305.48577 -281.086748 309.064207 -277.517683 309.064207 -278.105183 C 310.249421 -278.105183 313.235251 -287.03519 314.420465 -287.637378 C 315.628473 -288.224879 308.471599 -276.915495 315.628473 -275.725807 C 317.998902 -275.123619 319.184117 -284.068313 322.169946 -287.637378 C 322.762554 -287.03519 317.406295 -275.123619 320.392124 -274.536118 C 323.355161 -273.93393 326.933598 -286.44769 332.289857 -289.429255 C 340.039338 -294.775509 351.344463 -296.567385 365.635417 -296.567385 C 379.926372 -292.396132 409.123681 -257.865793 412.086718 -258.453293 Z M 420.428806 -263.226735 " transform="matrix(0.171382,0,0,0.265957,179.84432,287.585181)"/>
<path style="fill-rule:evenodd;fill:rgb(100%,100%,0%);fill-opacity:1;stroke-width:0.5;stroke-linecap:butt;stroke-linejoin:miter;stroke:rgb(0%,0%,0%);stroke-opacity:1;stroke-miterlimit:4;" d="M 417.452852 -267.981277 L 385.907906 -252.494874 L 409.133556 -246.542391 L 392.449379 -227.491131 L 416.267637 -235.217752 L 414.489815 -209.617102 L 428.188162 -226.297318 L 437.122858 -203.067713 L 446.650161 -220.344835 L 457.955286 -201.276994 L 462.718937 -219.747929 L 476.417285 -201.276994 L 481.180936 -226.297318 L 497.865113 -210.810915 L 495.471891 -237.008471 L 515.711711 -230.459082 L 503.221372 -250.704155 C 503.221372 -250.704155 525.239015 -251.897967 524.0538 -251.897967 C 522.868585 -251.897967 507.392416 -264.996745 493.694069 -268.578183 Z M 417.452852 -267.981277 " transform="matrix(0.171382,0,0,0.23559,177.905128,277.633636)"/>
<path style="fill-rule:evenodd;fill:rgb(100%,100%,0%);fill-opacity:1;stroke-width:0.80806;stroke-linecap:butt;stroke-linejoin:miter;stroke:rgb(0%,0%,0%);stroke-opacity:1;stroke-miterlimit:4;" d="M 417.446542 -267.968602 L 385.894229 -252.511169 L 409.121393 -246.538979 L 392.429471 -227.480667 L 416.281021 -235.238659 L 414.491114 -209.622648 L 428.185983 -226.280374 L 437.093891 -203.064949 L 446.626186 -220.337459 L 457.948388 -201.279147 L 462.735348 -219.75195 L 476.430217 -201.279147 L 481.175552 -226.280374 L 497.867474 -210.822941 L 495.453181 -237.024461 L 515.724917 -230.466762 L 503.195569 -250.696092 C 503.195569 -250.696092 525.257212 -251.896385 524.050065 -251.896385 C 522.884545 -251.896385 507.399769 -265.011782 493.7049 -268.583386 Z M 417.446542 -267.968602 " transform="matrix(0.0938422,0,0,0.133431,213.134504,248.653743)"/>
<path style="fill-rule:evenodd;fill:rgb(100%,100%,0%);fill-opacity:1;stroke-width:0.5;stroke-linecap:butt;stroke-linejoin:miter;stroke:rgb(0%,0%,0%);stroke-opacity:1;stroke-miterlimit:4;" d="M 441.880724 -316.811516 C 441.880724 -316.811516 432.946028 -323.957811 429.367591 -316.811516 C 425.789155 -309.665221 437.117072 -312.633172 437.117072 -311.45594 C 437.117072 -310.262127 429.367591 -301.922019 429.367591 -292.388099 C 429.367591 -282.870759 435.316458 -266.787449 435.316458 -264.399824 C 435.316458 -262.028779 437.70968 -255.47939 446.028976 -253.091765 C 454.371064 -250.70414 457.356893 -260.834966 459.134715 -262.028779 C 460.93533 -263.206011 472.240455 -260.23806 476.411499 -270.352306 C 480.582543 -280.483133 480.582543 -298.937488 480.582543 -298.937488 C 480.582543 -298.937488 487.716624 -293.581911 487.716624 -304.309645 C 487.716624 -315.020797 479.989936 -304.309645 479.989936 -304.309645 C 479.989936 -304.309645 481.175151 -315.617703 462.713152 -320.97328 C 444.251153 -326.345437 442.473331 -315.617703 441.880724 -316.811516 Z M 441.880724 -316.811516 " transform="matrix(0.171382,0,0,0.23559,178.109244,277.633632)"/>
<path style="fill-rule:evenodd;fill:rgb(100%,100%,0%);fill-opacity:1;stroke-width:0.54015;stroke-linecap:butt;stroke-linejoin:miter;stroke:rgb(0%,0%,0%);stroke-opacity:1;stroke-miterlimit:4;" d="M 441.480843 -317.305009 C 439.110015 -322.131974 432.333358 -340.636602 432.333358 -340.636602 L 448.546417 -333.686674 C 443.003859 -335.060437 438.288249 -335.862899 438.89352 -335.867784 C 439.474596 -335.872942 446.032686 -326.936134 446.032686 -326.936134 C 452.484082 -327.308312 458.943333 -325.163201 466.869545 -323.434748 C 466.869545 -323.434748 473.419792 -330.713473 472.839129 -330.720019 C 472.233858 -330.715134 469.250518 -331.907845 469.250518 -331.907845 L 484.15958 -338.74111 L 479.38027 -329.522326 L 476.403132 -329.520761 L 470.454641 -322.832356 C 477.163073 -321.574237 480.419995 -320.589184 486.976229 -316.394097 C 492.790509 -317.230065 497.689337 -320.242314 500.819707 -322.525191 C 495.617938 -323.953653 493.237387 -325.08103 493.818049 -325.074485 C 494.42332 -325.07937 515.707465 -323.961353 515.707465 -323.961353 C 515.707465 -323.961353 494.822616 -311.037093 482.626004 -306.304091 C 471.340925 -309.557311 442.676494 -315.523638 441.480843 -317.305009 Z M 441.480843 -317.305009 " transform="matrix(0.161389,-0.00376095,0.00570344,0.333642,183.989205,310.081409)"/>
<path style=" stroke:none;fill-rule:evenodd;fill:rgb(0%,0%,0%);fill-opacity:1;" d="M 255.078125 207.074219 C 255.664062 207.457031 255.90625 207.730469 255.617188 207.6875 C 255.328125 207.644531 254.617188 207.300781 254.03125 206.917969 C 253.441406 206.539062 253.199219 206.261719 253.488281 206.304688 C 253.777344 206.347656 254.492188 206.691406 255.078125 207.074219 Z M 255.078125 207.074219 "/>
<path style=" stroke:none;fill-rule:evenodd;fill:rgb(0%,0%,0%);fill-opacity:1;" d="M 258.121094 208.753906 C 258.710938 209.132812 258.953125 209.410156 258.664062 209.367188 C 258.375 209.320312 257.660156 208.976562 257.074219 208.597656 C 256.488281 208.214844 256.246094 207.941406 256.535156 207.984375 C 256.824219 208.027344 257.535156 208.371094 258.121094 208.753906 Z M 258.121094 208.753906 "/>
<path style=" stroke:none;fill-rule:evenodd;fill:rgb(0%,0%,0%);fill-opacity:1;" d="M 256.171875 213.414062 C 257.316406 213.949219 257.785156 214.335938 257.222656 214.273438 C 256.65625 214.214844 255.273438 213.730469 254.132812 213.195312 C 252.988281 212.660156 252.519531 212.273438 253.082031 212.335938 C 253.644531 212.394531 255.027344 212.878906 256.171875 213.414062 Z M 256.171875 213.414062 "/>
<path style=" stroke:none;fill-rule:evenodd;fill:rgb(0%,0%,0%);fill-opacity:1;" d="M 255.980469 211.191406 C 256.492188 211.457031 256.703125 211.648438 256.453125 211.617188 C 256.199219 211.589844 255.582031 211.347656 255.070312 211.082031 C 254.554688 210.816406 254.347656 210.625 254.597656 210.65625 C 254.851562 210.683594 255.46875 210.925781 255.980469 211.191406 Z M 255.980469 211.191406 "/>
<path style=" stroke:none;fill-rule:evenodd;fill:rgb(0%,0%,0%);fill-opacity:1;" d="M 255.234375 211.738281 C 255.390625 211.132812 255.535156 210.855469 255.5625 211.121094 C 255.585938 211.382812 255.484375 212.089844 255.332031 212.695312 C 255.175781 213.300781 255.03125 213.578125 255.003906 213.316406 C 254.980469 213.050781 255.082031 212.347656 255.234375 211.738281 Z M 255.234375 211.738281 "/>
<path style="fill-rule:evenodd;fill:rgb(100%,45.098039%,0%);fill-opacity:1;stroke-width:0.375;stroke-linecap:butt;stroke-linejoin:miter;stroke:rgb(0%,0%,0%);stroke-opacity:1;stroke-miterlimit:4;" d="M 737.050147 319.500257 C 738.715441 324.243692 737.863169 319.500257 736.091341 326.844227 C 737.184716 324.657743 738.749083 323.404692 739.371466 323.408324 C 740.313451 323.408324 740.778836 323.404692 742.657198 324.813921 C 740.935833 322.31145 737.969703 322.939792 738.126701 319.187903 C 737.969703 318.330743 737.123038 319.267807 737.050147 319.500257 Z M 737.050147 319.500257 " transform="matrix(0.696667,0,0,1.0755,-250.131164,-7.434965)"/>
<path style="fill-rule:evenodd;fill:rgb(69.803922%,50.196078%,18.039216%);fill-opacity:1;stroke-width:0.10288;stroke-linecap:butt;stroke-linejoin:miter;stroke:rgb(0%,0%,0%);stroke-opacity:1;stroke-miterlimit:4;" d="M 709.484852 717.592117 C 709.864745 717.593449 710.169271 717.818269 710.167164 718.094993 L 710.16802 735.123057 C 710.165914 735.399781 709.86005 735.627147 709.486443 735.6295 C 709.10655 735.628169 708.802024 735.403349 708.797845 735.12294 L 708.796989 718.094876 C 708.799096 717.818152 709.104959 717.590786 709.484852 717.592117 Z M 709.484852 717.592117 " transform="matrix(0.544513,-0.444807,0.13119,0.75888,-229.8825,86.204888)"/>
<path style="fill-rule:evenodd;fill:rgb(100%,100%,100%);fill-opacity:1;stroke-width:0.375;stroke-linecap:butt;stroke-linejoin:miter;stroke:rgb(0%,0%,0%);stroke-opacity:1;stroke-miterlimit:4;" d="M 734.061538 312.158981 C 734.844495 311.689511 740.62065 301.067091 768.120168 302.630274 C 752.49796 307.938904 742.80702 319.190724 740.465536 319.660194 C 738.744507 320.129665 734.999609 313.876935 734.061538 312.158981 Z M 734.061538 312.158981 " transform="matrix(0.528844,0,0,0.757169,-128.220022,89.224864)"/>
<path style="fill-rule:evenodd;fill:rgb(0%,45.882353%,0%);fill-opacity:1;stroke-width:0.33302;stroke-linecap:butt;stroke-linejoin:miter;stroke:rgb(0%,0%,0%);stroke-opacity:1;stroke-miterlimit:4;" d="M -3819.316296 -4447.12061 L -3826.732374 -4449.874216 L -3811.579637 -4438.457499 L -3814.486266 -4443.814066 Z M -3819.316296 -4447.12061 " transform="matrix(-0.340665,-0.811133,0.208191,0.734759,-123.49335,484.750706)"/>
<path style="fill-rule:evenodd;fill:rgb(0%,45.882353%,0%);fill-opacity:1;stroke-width:0.33302;stroke-linecap:butt;stroke-linejoin:miter;stroke:rgb(0%,0%,0%);stroke-opacity:1;stroke-miterlimit:4;" d="M -3819.307693 -4447.110333 L -3824.616648 -4446.838032 L -3811.921558 -4439.252298 L -3814.494687 -4443.824853 Z M -3819.307693 -4447.110333 " transform="matrix(0.0489069,-0.523959,-0.194106,0.414449,-425.238797,156.656446)"/>
<path style="fill-rule:evenodd;fill:rgb(0%,45.882353%,0%);fill-opacity:1;stroke-width:0.33302;stroke-linecap:butt;stroke-linejoin:miter;stroke:rgb(0%,0%,0%);stroke-opacity:1;stroke-miterlimit:4;" d="M -3819.907115 -4447.604568 L -3815.274888 -4440.213898 L -3810.838038 -4438.939373 L -3814.410754 -4443.892193 Z M -3819.907115 -4447.604568 " transform="matrix(-0.90267,-0.365014,1.009207,0.498333,1292.176766,1135.603705)"/>
<path style="fill-rule:evenodd;fill:rgb(0%,45.882353%,0%);fill-opacity:1;stroke-width:0.33302;stroke-linecap:butt;stroke-linejoin:miter;stroke:rgb(0%,0%,0%);stroke-opacity:1;stroke-miterlimit:4;" d="M -3821.79667 -4448.694349 L -3804.260794 -4426.294832 L -3810.947383 -4438.785134 L -3814.420445 -4443.877405 Z M -3821.79667 -4448.694349 " transform="matrix(-0.364492,0.243979,0.50787,-0.116539,1117.215152,726.499598)"/>
<path style="fill-rule:evenodd;fill:rgb(0%,45.882353%,0%);fill-opacity:1;stroke-width:0.33302;stroke-linecap:butt;stroke-linejoin:miter;stroke:rgb(0%,0%,0%);stroke-opacity:1;stroke-miterlimit:4;" d="M -3822.20479 -4449.904893 L -3834.683648 -4456.396442 L -3810.632154 -4437.73504 L -3814.457577 -4443.877608 Z M -3822.20479 -4449.904893 " transform="matrix(0.651327,0.0532122,-0.7821,-0.188942,-740.022323,-322.929987)"/>
<path style="fill-rule:evenodd;fill:rgb(0%,45.882353%,0%);fill-opacity:1;stroke-width:0.33302;stroke-linecap:butt;stroke-linejoin:miter;stroke:rgb(0%,0%,0%);stroke-opacity:1;stroke-miterlimit:4;" d="M -3823.528569 -4450.224865 L -3828.717601 -4451.407548 L -3810.927728 -4438.107758 L -3814.47777 -4443.886455 Z M -3823.528569 -4450.224865 " transform="matrix(0.996227,0.503876,-1.0879,-0.631987,-783.290487,-572.630526)"/>
<path style="fill-rule:evenodd;fill:rgb(0%,45.882353%,0%);fill-opacity:1;stroke-width:0.33302;stroke-linecap:butt;stroke-linejoin:miter;stroke:rgb(0%,0%,0%);stroke-opacity:1;stroke-miterlimit:4;" d="M -3824.712402 -4451.71066 L -3838.125678 -4461.465428 L -3813.74119 -4440.472663 L -3814.459166 -4443.780653 Z M -3824.712402 -4451.71066 " transform="matrix(1.163638,0.957897,-1.175987,-1.038045,-536.271738,-645.25246)"/>
<path style="fill-rule:evenodd;fill:rgb(0%,45.882353%,0%);fill-opacity:1;stroke-width:0.33302;stroke-linecap:butt;stroke-linejoin:miter;stroke:rgb(0%,0%,0%);stroke-opacity:1;stroke-miterlimit:4;" d="M -3822.232355 -4449.333624 L -3811.618328 -4434.90891 L -3809.875509 -4437.474573 L -3814.459142 -4443.859235 Z M -3822.232355 -4449.333624 " transform="matrix(0.911251,1.079312,-0.836521,-1.080149,9.470525,-369.28679)"/>
<path style="fill-rule:evenodd;fill:rgb(0%,45.882353%,0%);fill-opacity:1;stroke-width:0.33302;stroke-linecap:butt;stroke-linejoin:miter;stroke:rgb(0%,0%,0%);stroke-opacity:1;stroke-miterlimit:4;" d="M -3820.192563 -4446.993034 L -3804.580181 -4427.727311 L -3807.941631 -4435.481772 L -3814.474478 -4443.804121 Z M -3820.192563 -4446.993034 " transform="matrix(0.611572,0.968355,-0.498844,-0.923007,366.91492,-94.227429)"/>
<path style="fill-rule:evenodd;fill:rgb(0%,45.882353%,0%);fill-opacity:1;stroke-width:0.33302;stroke-linecap:butt;stroke-linejoin:miter;stroke:rgb(0%,0%,0%);stroke-opacity:1;stroke-miterlimit:4;" d="M -3821.012737 -4448.712366 L -3808.794042 -4431.572491 L -3808.899697 -4436.821007 L -3814.46791 -4443.804738 Z M -3821.012737 -4448.712366 " transform="matrix(0.126952,0.661627,0.0145623,-0.565558,799.778031,324.025774)"/>
<path style="fill-rule:evenodd;fill:rgb(0%,45.882353%,0%);fill-opacity:1;stroke-width:0.33302;stroke-linecap:butt;stroke-linejoin:miter;stroke:rgb(0%,0%,0%);stroke-opacity:1;stroke-miterlimit:4;" d="M -3818.899146 -4446.899963 L -3816.920263 -4442.631467 L -3812.682141 -4440.500751 L -3814.467566 -4443.865555 Z M -3818.899146 -4446.899963 " transform="matrix(-0.756201,-1.032978,0.658977,1.007839,294.688217,852.098665)"/>
<path style="fill-rule:evenodd;fill:rgb(0%,45.882353%,0%);fill-opacity:1;stroke-width:0.33302;stroke-linecap:butt;stroke-linejoin:miter;stroke:rgb(0%,0%,0%);stroke-opacity:1;stroke-miterlimit:4;" d="M -3819.276039 -4447.072282 L -3819.295793 -4441.315454 L -3812.669626 -4439.979794 L -3814.476861 -4443.80696 Z M -3819.276039 -4447.072282 " transform="matrix(-0.333411,-0.564313,0.226846,0.492042,-13.276654,347.172972)"/>
<path style="fill-rule:evenodd;fill:rgb(0%,45.882353%,0%);fill-opacity:1;stroke-width:0.33302;stroke-linecap:butt;stroke-linejoin:miter;stroke:rgb(0%,0%,0%);stroke-opacity:1;stroke-miterlimit:4;" d="M -3819.283121 -4447.085536 L -3819.307521 -4441.327133 L -3812.672573 -4439.985427 L -3814.488697 -4443.817984 Z M -3819.283121 -4447.085536 " transform="matrix(-0.560708,-0.216382,0.59797,0.304344,768.883867,840.36542)"/>
<path style="fill-rule:evenodd;fill:rgb(0%,45.882353%,0%);fill-opacity:1;stroke-width:0.33302;stroke-linecap:butt;stroke-linejoin:miter;stroke:rgb(0%,0%,0%);stroke-opacity:1;stroke-miterlimit:4;" d="M -3819.283993 -4447.086584 L -3819.326911 -4441.342495 L -3812.6953 -4439.999001 L -3814.479807 -4443.813528 Z M -3819.283993 -4447.086584 " transform="matrix(0.470919,0.10688,-0.548,-0.190295,-388.2592,-124.501887)"/>
<path style="fill-rule:evenodd;fill:rgb(0%,45.882353%,0%);fill-opacity:1;stroke-width:0.33302;stroke-linecap:butt;stroke-linejoin:miter;stroke:rgb(0%,0%,0%);stroke-opacity:1;stroke-miterlimit:4;" d="M -3819.279309 -4447.078722 L -3803.62618 -4428.158654 L -3813.776224 -4441.832727 L -3814.480795 -4443.809222 Z M -3819.279309 -4447.078722 " transform="matrix(0.165753,0.481329,-0.0867556,-0.436413,497.336323,210.149497)"/>
<path style="fill-rule:evenodd;fill:rgb(0%,45.882353%,0%);fill-opacity:1;stroke-width:0.33302;stroke-linecap:butt;stroke-linejoin:miter;stroke:rgb(0%,0%,0%);stroke-opacity:1;stroke-miterlimit:4;" d="M -3819.306976 -4447.107573 L -3808.330806 -4433.902012 L -3812.660212 -4439.971619 L -3814.470545 -4443.80089 Z M -3819.306976 -4447.107573 " transform="matrix(1.094351,1.067871,-1.063122,-1.11181,-299.539601,-553.989931)"/>
<path style="fill-rule:evenodd;fill:rgb(0%,45.882353%,0%);fill-opacity:1;stroke-width:0.33302;stroke-linecap:butt;stroke-linejoin:miter;stroke:rgb(0%,0%,0%);stroke-opacity:1;stroke-miterlimit:4;" d="M -3819.283589 -4447.08618 L -3833.702367 -4459.665547 L -3815.499847 -4442.926111 L -3814.506396 -4443.835008 Z M -3819.283589 -4447.08618 " transform="matrix(0.970437,0.463605,-1.066691,-0.593501,-788.108936,-555.785556)"/>
<path style="fill-rule:evenodd;fill:rgb(0%,45.882353%,0%);fill-opacity:1;stroke-width:0.33302;stroke-linecap:butt;stroke-linejoin:miter;stroke:rgb(0%,0%,0%);stroke-opacity:1;stroke-miterlimit:4;" d="M -3819.292027 -4447.090564 L -3819.286199 -4441.305857 L -3812.652991 -4439.96435 L -3814.490825 -4443.820692 Z M -3819.292027 -4447.090564 " transform="matrix(-0.242096,-0.567955,0.148804,0.513779,-11.421837,430.307362)"/>
<path style="fill-rule:evenodd;fill:rgb(100%,100%,100%);fill-opacity:1;stroke-width:0.375;stroke-linecap:butt;stroke-linejoin:miter;stroke:rgb(0%,0%,0%);stroke-opacity:1;stroke-miterlimit:4;" d="M 759.392421 305.009924 C 756.151546 306.077742 754.56475 306.582594 752.927491 306.793252 C 753.757335 307.149191 755.613269 306.931269 757.732734 307.501498 C 755.848765 307.545083 752.355572 308.983367 750.908953 309.019688 C 751.912615 309.618973 755.484307 309.04148 756.145939 309.197657 C 754.233934 309.317514 751.155663 310.799383 749.238051 310.799383 C 748.357744 311.467677 753.695657 310.338115 755.837551 311.605695 C 753.622766 311.48947 749.322157 312.764313 746.989624 312.459222 C 748.767059 313.501615 751.94065 312.346629 754.592786 313.476191 C 753.824619 313.559728 747.679291 314.246182 745.503755 313.919299 C 746.804591 314.569433 750.72392 314.464104 751.682726 315.041597 C 750.062288 314.827307 745.756073 315.731683 744.25899 315.372112 C 745.610289 316.345497 749.675401 315.79706 750.421139 316.381817 C 747.763397 317.307985 743.737534 316.567051 741.887207 316.817661 C 743.126365 317.398786 744.152456 317.987175 745.251438 318.53198 C 746.855055 319.65791 751.862151 322.825042 754.85071 323.776635 C 751.54255 323.340791 750.387497 323.28631 748.245603 323.108341 L 753.112524 328.269459 C 751.082771 327.176217 747.505473 325.109591 745.128083 324.041773 C 739.863061 321.46303 736.067088 321.90977 732.422504 319.726919 C 727.297659 314.761931 724.454884 308.841718 724.202567 307.261784 C 723.944643 305.685482 723.720361 302.856129 719.049687 304.330734 C 723.557756 303.749609 725.452939 298.537643 725.806184 298.7483 C 725.968788 298.835469 726.38371 302.231419 727.443443 303.600695 C 728.149931 304.581344 734.155083 307.948238 735.147531 308.126208 C 744.090778 302.812544 751.346303 302.158779 759.392421 305.009924 Z M 759.392421 305.009924 " transform="matrix(0.696667,0,0,1.0755,-249.586924,-6.420926)"/>
<path style="fill-rule:evenodd;fill:rgb(89.411765%,80%,0%);fill-opacity:1;stroke-width:0.25;stroke-linecap:butt;stroke-linejoin:miter;stroke:rgb(0%,0%,0%);stroke-opacity:1;stroke-miterlimit:4;" d="M 803.759799 -352.617009 C 804.527713 -352.617095 805.151854 -350.132654 805.152373 -347.059762 L 805.148199 -347.055634 C 805.148717 -343.982742 804.528626 -341.495539 803.760712 -341.495453 C 802.992798 -341.495367 802.372831 -343.983937 802.372312 -347.056828 C 802.371794 -350.12972 802.991885 -352.616923 803.759799 -352.617009 Z M 803.759799 -352.617009 " transform="matrix(0.473023,0.544353,-0.46788,0.550336,-228.039003,86.204876)"/>
<path style="fill-rule:evenodd;fill:rgb(0%,37.647059%,0%);fill-opacity:1;stroke-width:0.25;stroke-linecap:butt;stroke-linejoin:miter;stroke:rgb(0%,0%,0%);stroke-opacity:1;stroke-miterlimit:4;" d="M 801.328225 335.448675 C 801.122735 334.277923 800.981827 333.6875 801.574813 332.148365 C 802.437871 331.063401 802.889949 330.104595 804.469287 328.984306 C 806.177789 328.419116 806.753161 328.928796 808.995938 326.849702 C 809.718089 325.477096 810.815993 324.442595 811.438334 322.969062 C 812.900249 320.789041 813.393425 319.714169 814.561782 318.038783 C 816.111764 316.297793 817.362318 314.738473 818.266474 313.406237 C 819.235212 311.695526 820.110013 310.635794 821.513216 309.232909 C 822.082717 307.628172 823.303915 306.437234 824.759959 305.059582 C 825.869605 303.025904 828.006701 300.699539 828.934342 299.034245 C 830.572391 297.151958 831.212345 296.33445 832.639033 294.396653 C 833.895458 293.569053 836.009069 291.752368 837.741057 291.151853 C 840.101257 290.162769 841.363552 289.183778 842.913534 290.687589 C 843.940984 291.711997 845.784523 293.367199 844.504614 294.588414 C 843.829433 295.335274 842.725658 295.426108 841.45162 294.860917 C 840.142355 294.013131 839.5024 291.545468 837.741057 293.468126 C 836.467019 294.92652 835.815322 296.087179 834.030494 297.641454 C 833.143951 298.943411 832.503997 299.922402 831.711392 301.814781 C 830.666329 303.020858 829.7974 304.383371 828.934342 306.452373 C 827.807082 307.375854 826.838343 309.21777 826.15142 310.620654 C 825.035902 311.78636 824.237427 312.987391 823.368498 314.793982 C 821.618897 316.474415 820.961329 317.892439 819.657935 318.96731 C 818.800748 320.789041 817.444514 322.524984 816.411192 323.604902 C 815.600975 324.921998 814.796628 326.29965 814.097962 327.77823 C 812.618434 329.282041 812.553851 329.605007 810.387399 331.946511 C 808.579087 334.303155 809.189686 334.020559 806.359795 336.750632 C 804.815684 337.260313 803.259831 337.431889 801.328225 335.448675 Z M 801.328225 335.448675 " transform="matrix(0.66533,0,0,0.774075,-232.237836,85.341473)"/>
<path style="fill-rule:evenodd;fill:rgb(89.411765%,80%,0%);fill-opacity:1;stroke-width:0.25;stroke-linecap:butt;stroke-linejoin:miter;stroke:rgb(0%,0%,0%);stroke-opacity:1;stroke-miterlimit:4;" d="M 863.683578 -20.84023 C 864.450008 -20.841905 865.072574 -18.349198 865.069932 -15.274808 C 865.072727 -12.202633 864.450624 -9.715016 863.678757 -9.711126 C 862.910423 -9.714126 862.289761 -12.202159 862.292403 -15.276549 C 862.289608 -18.348724 862.909807 -20.841014 863.683578 -20.84023 Z M 863.683578 -20.84023 " transform="matrix(0.61615,0.292077,-0.251045,0.716857,-228.039003,86.204876)"/>
<path style="fill-rule:evenodd;fill:rgb(89.411765%,80%,0%);fill-opacity:1;stroke-width:0.25;stroke-linecap:butt;stroke-linejoin:miter;stroke:rgb(0%,0%,0%);stroke-opacity:1;stroke-miterlimit:4;" d="M 864.831859 -48.486217 C 865.59738 -48.485007 866.224866 -45.996624 866.220044 -42.92239 C 866.220585 -39.850548 865.600233 -37.363789 864.82935 -37.362608 C 864.063829 -37.363818 863.441705 -39.854592 863.441165 -42.926435 C 863.440624 -45.998278 864.060975 -48.485036 864.831859 -48.486217 Z M 864.831859 -48.486217 " transform="matrix(0.607654,0.315252,-0.270964,0.706971,-228.039003,86.204876)"/>
<path style="fill-rule:evenodd;fill:rgb(89.411765%,80%,0%);fill-opacity:1;stroke-width:0.25;stroke-linecap:butt;stroke-linejoin:miter;stroke:rgb(0%,0%,0%);stroke-opacity:1;stroke-miterlimit:4;" d="M 841.867662 -224.520756 C 842.63809 -224.517082 843.262019 -222.029385 843.26091 -218.953138 C 843.261605 -215.88442 842.641429 -213.39435 841.869198 -213.390495 C 841.101727 -213.390079 840.479601 -215.885305 840.478906 -218.954023 C 840.480015 -222.030269 841.10019 -224.520339 841.867662 -224.520756 Z M 841.867662 -224.520756 " transform="matrix(0.539303,0.453329,-0.389637,0.62745,-228.039003,86.204876)"/>
<path style="fill-rule:evenodd;fill:rgb(89.411765%,80%,0%);fill-opacity:1;stroke-width:0.25;stroke-linecap:butt;stroke-linejoin:miter;stroke:rgb(0%,0%,0%);stroke-opacity:1;stroke-miterlimit:4;" d="M 774.993748 -420.330305 C 775.75914 -420.333238 776.384243 -417.83945 776.383789 -414.768041 C 776.379525 -411.692166 775.760834 -409.202321 774.991603 -409.202663 C 774.222373 -409.203006 773.601109 -411.693518 773.601562 -414.764927 C 773.598177 -417.839612 774.224517 -420.330647 774.993748 -420.330305 Z M 774.993748 -420.330305 " transform="matrix(0.431866,0.588839,-0.506117,0.502452,-228.039003,86.204876)"/>
<path style="fill-rule:evenodd;fill:rgb(89.411765%,80%,0%);fill-opacity:1;stroke-width:0.25;stroke-linecap:butt;stroke-linejoin:miter;stroke:rgb(0%,0%,0%);stroke-opacity:1;stroke-miterlimit:4;" d="M 801.080226 -363.860999 C 801.851147 -363.860165 802.473201 -361.369858 802.47294 -358.297554 C 802.47268 -355.22525 801.848091 -352.734409 801.080767 -352.731703 C 800.309845 -352.732537 799.687792 -355.222845 799.688052 -358.295149 C 799.688313 -361.367452 800.312901 -363.858294 801.080226 -363.860999 Z M 801.080226 -363.860999 " transform="matrix(0.466676,0.551714,-0.474208,0.542952,-228.039003,86.204876)"/>
<path style="fill-rule:evenodd;fill:rgb(89.411765%,80%,0%);fill-opacity:1;stroke-width:0.25;stroke-linecap:butt;stroke-linejoin:miter;stroke:rgb(0%,0%,0%);stroke-opacity:1;stroke-miterlimit:4;" d="M 845.548016 -224.228859 C 846.320247 -224.232714 846.942373 -221.737488 846.943068 -218.668771 C 846.941959 -215.592524 846.321783 -213.102454 845.551356 -213.106128 C 844.783884 -213.105711 844.159955 -215.593408 844.161063 -218.669655 C 844.160368 -221.738373 844.780544 -224.228443 845.548016 -224.228859 Z M 845.548016 -224.228859 " transform="matrix(0.539303,0.453329,-0.389637,0.62745,-228.039003,86.204876)"/>
<path style="fill-rule:evenodd;fill:rgb(89.411765%,80%,0%);fill-opacity:1;stroke-width:0.25;stroke-linecap:butt;stroke-linejoin:miter;stroke:rgb(0%,0%,0%);stroke-opacity:1;stroke-miterlimit:4;" d="M 843.678322 -224.621182 C 844.448749 -224.617508 845.072679 -222.129811 845.068615 -219.057655 L 845.07157 -219.053565 C 845.072265 -215.984847 844.44733 -213.491338 843.679858 -213.490922 C 842.912386 -213.490506 842.290261 -215.985731 842.289566 -219.054449 C 842.290674 -222.130696 842.91085 -224.620766 843.678322 -224.621182 Z M 843.678322 -224.621182 " transform="matrix(0.539303,0.453329,-0.389637,0.62745,-228.039003,86.204876)"/>
<path style="fill-rule:evenodd;fill:rgb(89.411765%,80%,0%);fill-opacity:1;stroke-width:0.25;stroke-linecap:butt;stroke-linejoin:miter;stroke:rgb(0%,0%,0%);stroke-opacity:1;stroke-miterlimit:4;" d="M 840.180106 -244.566755 C 840.947583 -244.567172 841.57154 -242.079473 841.575219 -239.006661 L 841.57046 -239.003223 C 841.571184 -235.934501 840.951028 -233.444427 840.18355 -233.444009 C 839.411314 -233.440154 838.789161 -235.935381 838.788437 -239.004103 C 838.789516 -242.080354 839.409673 -244.570428 840.180106 -244.566755 Z M 840.180106 -244.566755 " transform="matrix(0.539299,0.453327,-0.389642,0.627445,-232.237836,85.341473)"/>
<path style="fill-rule:evenodd;fill:rgb(89.411765%,80%,0%);fill-opacity:1;stroke-width:0.25;stroke-linecap:butt;stroke-linejoin:miter;stroke:rgb(0%,0%,0%);stroke-opacity:1;stroke-miterlimit:4;" d="M 842.241895 -244.680523 C 843.009372 -244.68094 843.62857 -242.189803 843.63225 -239.116991 C 843.63117 -236.04074 843.008058 -233.554757 842.240581 -233.554339 C 841.473103 -233.553922 840.849146 -236.041621 840.850226 -239.117871 C 840.849502 -242.186593 841.474417 -244.680105 842.241895 -244.680523 Z M 842.241895 -244.680523 " transform="matrix(0.539299,0.453327,-0.389642,0.627445,-232.237836,85.341473)"/>
<path style="fill-rule:evenodd;fill:rgb(89.411765%,80%,0%);fill-opacity:1;stroke-width:0.25;stroke-linecap:butt;stroke-linejoin:miter;stroke:rgb(0%,0%,0%);stroke-opacity:1;stroke-miterlimit:4;" d="M 844.393495 -244.659959 C 845.160973 -244.660376 845.780171 -242.169239 845.78385 -239.096427 C 845.779815 -236.024267 845.159659 -233.534193 844.392181 -233.533775 C 843.624704 -233.533358 842.997791 -236.025147 843.001826 -239.097307 C 842.998147 -242.170119 843.626018 -244.659541 844.393495 -244.659959 Z M 844.393495 -244.659959 " transform="matrix(0.539299,0.453327,-0.389642,0.627445,-232.237836,85.341473)"/>
<path style="fill-rule:evenodd;fill:rgb(89.411765%,80%,0%);fill-opacity:1;stroke-width:0.25;stroke-linecap:butt;stroke-linejoin:miter;stroke:rgb(0%,0%,0%);stroke-opacity:1;stroke-miterlimit:4;" d="M 846.689517 -244.700159 C 847.456994 -244.700576 848.083907 -242.208787 848.079872 -239.136627 C 848.083551 -236.063815 847.458636 -233.570303 846.688203 -233.573976 C 845.920726 -233.573558 845.301527 -236.064695 845.297848 -239.137508 C 845.301883 -242.209668 845.92204 -244.699742 846.689517 -244.700159 Z M 846.689517 -244.700159 " transform="matrix(0.539299,0.453327,-0.389642,0.627445,-232.237836,85.341473)"/>
<path style="fill-rule:evenodd;fill:rgb(89.411765%,80%,0%);fill-opacity:1;stroke-width:0.25;stroke-linecap:butt;stroke-linejoin:miter;stroke:rgb(0%,0%,0%);stroke-opacity:1;stroke-miterlimit:4;" d="M 848.543909 -244.539571 C 849.311386 -244.539988 849.930585 -242.048851 849.934264 -238.976039 C 849.930229 -235.903879 849.310072 -233.413804 848.542595 -233.413387 C 847.775118 -233.41297 847.148205 -235.904759 847.15224 -238.976919 C 847.148561 -242.049731 847.773476 -244.543244 848.543909 -244.539571 Z M 848.543909 -244.539571 " transform="matrix(0.539299,0.453327,-0.389642,0.627445,-232.237836,85.341473)"/>
<path style="fill-rule:evenodd;fill:rgb(89.411765%,80%,0%);fill-opacity:1;stroke-width:0.25;stroke-linecap:butt;stroke-linejoin:miter;stroke:rgb(0%,0%,0%);stroke-opacity:1;stroke-miterlimit:4;" d="M 859.230534 -245.748597 C 859.998011 -245.749014 860.621968 -243.261315 860.620889 -240.185065 C 860.621613 -237.116343 859.996697 -234.622831 859.22922 -234.622413 C 858.461742 -234.621996 857.842544 -237.113133 857.838865 -240.185945 C 857.839944 -243.262196 858.463056 -245.748179 859.230534 -245.748597 Z M 859.230534 -245.748597 " transform="matrix(0.539299,0.453327,-0.389642,0.627445,-232.237836,85.341473)"/>
<path style="fill-rule:evenodd;fill:rgb(89.411765%,80%,0%);fill-opacity:1;stroke-width:0.25;stroke-linecap:butt;stroke-linejoin:miter;stroke:rgb(0%,0%,0%);stroke-opacity:1;stroke-miterlimit:4;" d="M 857.758378 -245.319985 C 858.525855 -245.320402 859.152768 -242.828613 859.148733 -239.756453 C 859.152412 -236.683641 858.527497 -234.190128 857.760019 -234.189711 C 856.989587 -234.193384 856.370388 -236.684521 856.369664 -239.753243 L 856.366709 -239.757333 C 856.370744 -242.829493 856.990901 -245.319568 857.758378 -245.319985 Z M 857.758378 -245.319985 " transform="matrix(0.539299,0.453327,-0.389642,0.627445,-232.237836,85.341473)"/>
<path style="fill-rule:evenodd;fill:rgb(89.411765%,80%,0%);fill-opacity:1;stroke-width:0.25;stroke-linecap:butt;stroke-linejoin:miter;stroke:rgb(0%,0%,0%);stroke-opacity:1;stroke-miterlimit:4;" d="M 856.331966 -245.098741 C 857.099443 -245.099158 857.723401 -242.611459 857.722321 -239.535209 C 857.723045 -236.466487 857.098129 -233.972975 856.330652 -233.972557 C 855.563175 -233.97214 854.941021 -236.467368 854.940297 -239.536089 C 854.936618 -242.608901 855.564489 -245.098323 856.331966 -245.098741 Z M 856.331966 -245.098741 " transform="matrix(0.539299,0.453327,-0.389642,0.627445,-232.237836,85.341473)"/>
<path style="fill-rule:evenodd;fill:rgb(89.411765%,80%,0%);fill-opacity:1;stroke-width:0.25;stroke-linecap:butt;stroke-linejoin:miter;stroke:rgb(0%,0%,0%);stroke-opacity:1;stroke-miterlimit:4;" d="M 854.223391 -245.019652 C 854.990869 -245.02007 855.610067 -242.528932 855.613746 -239.45612 C 855.609711 -236.38396 854.989555 -233.893886 854.222077 -233.893469 C 853.4546 -233.893051 852.827687 -236.384841 852.831722 -239.457001 C 852.828043 -242.529813 853.455914 -245.019235 854.223391 -245.019652 Z M 854.223391 -245.019652 " transform="matrix(0.539299,0.453327,-0.389642,0.627445,-232.237836,85.341473)"/>
<path style="fill-rule:evenodd;fill:rgb(89.411765%,80%,0%);fill-opacity:1;stroke-width:0.25;stroke-linecap:butt;stroke-linejoin:miter;stroke:rgb(0%,0%,0%);stroke-opacity:1;stroke-miterlimit:4;" d="M 852.150823 -244.680198 C 852.9183 -244.680616 853.545213 -242.188826 853.541178 -239.116666 C 853.544857 -236.043854 852.916986 -233.554432 852.149509 -233.554015 C 851.382031 -233.553597 850.762833 -236.044735 850.759154 -239.117547 C 850.763189 -242.189707 851.383346 -244.679781 852.150823 -244.680198 Z M 852.150823 -244.680198 " transform="matrix(0.539299,0.453327,-0.389642,0.627445,-232.237836,85.341473)"/>
<path style="fill-rule:evenodd;fill:rgb(89.411765%,80%,0%);fill-opacity:1;stroke-width:0.25;stroke-linecap:butt;stroke-linejoin:miter;stroke:rgb(0%,0%,0%);stroke-opacity:1;stroke-miterlimit:4;" d="M 850.349822 -244.636561 C 851.122058 -244.640417 851.741256 -242.14928 851.744935 -239.076468 C 851.740901 -236.004308 851.120744 -233.514233 850.353266 -233.513816 C 849.585789 -233.513399 848.958877 -236.005188 848.958153 -239.07391 L 848.962912 -239.077348 C 848.959232 -242.15016 849.579389 -244.640234 850.349822 -244.636561 Z M 850.349822 -244.636561 " transform="matrix(0.539299,0.453327,-0.389642,0.627445,-232.237836,85.341473)"/>
<path style="fill-rule:evenodd;fill:rgb(89.411765%,80%,0%);fill-opacity:1;stroke-width:0.25;stroke-linecap:butt;stroke-linejoin:miter;stroke:rgb(0%,0%,0%);stroke-opacity:1;stroke-miterlimit:4;" d="M 861.204002 -115.04916 C 861.970729 -115.051672 862.594283 -112.559677 862.591195 -109.486703 C 862.593267 -106.416528 861.967838 -103.924538 861.201111 -103.922026 C 860.431978 -103.92395 859.81083 -106.411509 859.811512 -109.488919 C 859.80944 -112.559094 860.434869 -115.051084 861.204002 -115.04916 Z M 861.204002 -115.04916 " transform="matrix(0.584852,0.369048,-0.317203,0.680443,-228.299712,86.204865)"/>
<path style="fill-rule:evenodd;fill:rgb(89.411765%,80%,0%);fill-opacity:1;stroke-width:0.25;stroke-linecap:butt;stroke-linejoin:miter;stroke:rgb(0%,0%,0%);stroke-opacity:1;stroke-miterlimit:4;" d="M 840.180953 -244.570366 C 840.948431 -244.570783 841.575343 -242.078994 841.571308 -239.006834 C 841.574988 -235.934022 840.947117 -233.4446 840.179639 -233.444183 C 839.412162 -233.443765 838.788205 -235.931464 838.789284 -239.007715 C 838.78856 -242.076436 839.413476 -244.569949 840.180953 -244.570366 Z M 840.180953 -244.570366 " transform="matrix(0.539299,0.453327,-0.389642,0.627445,-235.9897,90.667574)"/>
<path style="fill-rule:evenodd;fill:rgb(89.411765%,80%,0%);fill-opacity:1;stroke-width:0.25;stroke-linecap:butt;stroke-linejoin:miter;stroke:rgb(0%,0%,0%);stroke-opacity:1;stroke-miterlimit:4;" d="M 842.237984 -244.680696 C 843.008416 -244.677023 843.632373 -242.189324 843.628338 -239.117164 L 843.631294 -239.113074 C 843.632018 -236.044352 843.007102 -233.550839 842.239625 -233.550422 C 841.472147 -233.550005 840.849994 -236.045232 840.84927 -239.113954 C 840.85035 -242.190204 841.470506 -244.680279 842.237984 -244.680696 Z M 842.237984 -244.680696 " transform="matrix(0.539299,0.453327,-0.389642,0.627445,-235.9897,90.667574)"/>
<path style="fill-rule:evenodd;fill:rgb(89.411765%,80%,0%);fill-opacity:1;stroke-width:0.25;stroke-linecap:butt;stroke-linejoin:miter;stroke:rgb(0%,0%,0%);stroke-opacity:1;stroke-miterlimit:4;" d="M 844.389584 -244.660132 C 845.157061 -244.660549 845.783974 -242.16876 845.779939 -239.0966 C 845.783618 -236.023788 845.158703 -233.530275 844.38827 -233.533948 C 843.620793 -233.533531 843.001594 -236.024668 842.997915 -239.09748 C 843.00195 -242.16964 843.622107 -244.659715 844.389584 -244.660132 Z M 844.389584 -244.660132 " transform="matrix(0.539299,0.453327,-0.389642,0.627445,-235.9897,90.667574)"/>
<path style="fill-rule:evenodd;fill:rgb(89.411765%,80%,0%);fill-opacity:1;stroke-width:0.25;stroke-linecap:butt;stroke-linejoin:miter;stroke:rgb(0%,0%,0%);stroke-opacity:1;stroke-miterlimit:4;" d="M 846.69332 -244.69968 C 847.460797 -244.700098 848.079996 -242.20896 848.083675 -239.136148 C 848.07964 -236.063988 847.459483 -233.573914 846.692006 -233.573497 C 845.924529 -233.573079 845.297616 -236.064869 845.301651 -239.137029 C 845.297972 -242.209841 845.925843 -244.699263 846.69332 -244.69968 Z M 846.69332 -244.69968 " transform="matrix(0.539299,0.453327,-0.389642,0.627445,-235.9897,90.667574)"/>
<path style="fill-rule:evenodd;fill:rgb(89.411765%,80%,0%);fill-opacity:1;stroke-width:0.25;stroke-linecap:butt;stroke-linejoin:miter;stroke:rgb(0%,0%,0%);stroke-opacity:1;stroke-miterlimit:4;" d="M 848.539998 -244.539744 C 849.307475 -244.540161 849.934388 -242.048372 849.930353 -238.976212 C 849.934032 -235.9034 849.306161 -233.413978 848.538684 -233.41356 C 847.771206 -233.413143 847.152008 -235.90428 847.148329 -238.977092 C 847.152364 -242.049252 847.772521 -244.539326 848.539998 -244.539744 Z M 848.539998 -244.539744 " transform="matrix(0.539299,0.453327,-0.389642,0.627445,-235.9897,90.667574)"/>
<path style="fill-rule:evenodd;fill:rgb(89.411765%,80%,0%);fill-opacity:1;stroke-width:0.25;stroke-linecap:butt;stroke-linejoin:miter;stroke:rgb(0%,0%,0%);stroke-opacity:1;stroke-miterlimit:4;" d="M 859.231382 -245.752208 C 859.998859 -245.752626 860.621012 -243.257398 860.621736 -240.188676 C 860.620657 -237.112426 860.0005 -234.622352 859.233023 -234.621934 C 858.46259 -234.625608 857.838633 -237.113306 857.842668 -240.185466 L 857.839713 -240.189557 C 857.838989 -243.258279 858.463904 -245.751791 859.231382 -245.752208 Z M 859.231382 -245.752208 " transform="matrix(0.539299,0.453327,-0.389642,0.627445,-235.9897,90.667574)"/>
<path style="fill-rule:evenodd;fill:rgb(89.411765%,80%,0%);fill-opacity:1;stroke-width:0.25;stroke-linecap:butt;stroke-linejoin:miter;stroke:rgb(0%,0%,0%);stroke-opacity:1;stroke-miterlimit:4;" d="M 857.762181 -245.319506 C 858.529659 -245.319923 859.148857 -242.828786 859.152536 -239.755974 C 859.148501 -236.683814 858.528344 -234.19374 857.760867 -234.193323 C 856.99339 -234.192905 856.369433 -236.680604 856.370512 -239.756854 C 856.366833 -242.829667 856.994704 -245.319089 857.762181 -245.319506 Z M 857.762181 -245.319506 " transform="matrix(0.539299,0.453327,-0.389642,0.627445,-235.9897,90.667574)"/>
<path style="fill-rule:evenodd;fill:rgb(89.411765%,80%,0%);fill-opacity:1;stroke-width:0.25;stroke-linecap:butt;stroke-linejoin:miter;stroke:rgb(0%,0%,0%);stroke-opacity:1;stroke-miterlimit:4;" d="M 856.328055 -245.098914 C 857.100291 -245.10277 857.722445 -242.607542 857.723169 -239.53882 C 857.722089 -236.46257 857.101932 -233.972496 856.3315 -233.976169 C 855.564022 -233.975751 854.940065 -236.46345 854.941145 -239.539701 C 854.940421 -242.608422 855.560578 -245.098497 856.328055 -245.098914 Z M 856.328055 -245.098914 " transform="matrix(0.539299,0.453327,-0.389642,0.627445,-235.9897,90.667574)"/>
<path style="fill-rule:evenodd;fill:rgb(89.411765%,80%,0%);fill-opacity:1;stroke-width:0.25;stroke-linecap:butt;stroke-linejoin:miter;stroke:rgb(0%,0%,0%);stroke-opacity:1;stroke-miterlimit:4;" d="M 854.21948 -245.019825 C 854.986958 -245.020243 855.61387 -242.528453 855.609835 -239.456293 C 855.613514 -236.383481 854.988599 -233.889969 854.218166 -233.893642 C 853.450689 -233.893225 852.831491 -236.384362 852.827811 -239.457174 C 852.831846 -242.529334 853.452003 -245.019408 854.21948 -245.019825 Z M 854.21948 -245.019825 " transform="matrix(0.539299,0.453327,-0.389642,0.627445,-235.9897,90.667574)"/>
<path style="fill-rule:evenodd;fill:rgb(89.411765%,80%,0%);fill-opacity:1;stroke-width:0.25;stroke-linecap:butt;stroke-linejoin:miter;stroke:rgb(0%,0%,0%);stroke-opacity:1;stroke-miterlimit:4;" d="M 852.149867 -244.676281 C 852.922103 -244.680137 853.541302 -242.188999 853.544981 -239.116187 C 853.540946 -236.044027 852.920789 -233.553953 852.153312 -233.553536 C 851.385835 -233.553118 850.758922 -236.044908 850.762957 -239.117068 C 850.759278 -242.18988 851.379434 -244.679954 852.149867 -244.676281 Z M 852.149867 -244.676281 " transform="matrix(0.539299,0.453327,-0.389642,0.627445,-235.9897,90.667574)"/>
<path style="fill-rule:evenodd;fill:rgb(89.411765%,80%,0%);fill-opacity:1;stroke-width:0.25;stroke-linecap:butt;stroke-linejoin:miter;stroke:rgb(0%,0%,0%);stroke-opacity:1;stroke-miterlimit:4;" d="M 850.350669 -244.640173 C 851.118147 -244.64059 851.745059 -242.148801 851.741024 -239.076641 C 851.744704 -236.003829 851.116833 -233.514407 850.349355 -233.513989 C 849.581878 -233.513572 848.96268 -236.004709 848.959 -239.077521 C 848.963035 -242.149681 849.583192 -244.639755 850.350669 -244.640173 Z M 850.350669 -244.640173 " transform="matrix(0.539299,0.453327,-0.389642,0.627445,-235.9897,90.667574)"/>
<path style="fill-rule:evenodd;fill:rgb(69.803922%,50.196078%,18.039216%);fill-opacity:1;stroke-width:0.1723;stroke-linecap:butt;stroke-linejoin:miter;stroke:rgb(0%,0%,0%);stroke-opacity:1;stroke-miterlimit:4;" d="M 776.320265 -28.089423 C 777.110457 -28.087369 777.751976 -27.786962 777.752182 -27.409588 L 777.751353 -4.579839 C 777.751559 -4.202465 777.109649 -3.901188 776.321258 -3.897958 C 775.531067 -3.900012 774.887747 -4.205703 774.889341 -4.577793 L 774.88837 -27.412826 C 774.889964 -27.784916 775.530074 -28.091477 776.320265 -28.089423 Z M 776.320265 -28.089423 " transform="matrix(0.60858,0.225676,-0.207355,0.66235,-214.351694,104.123176)"/>
<path style="fill-rule:evenodd;fill:rgb(69.803922%,50.196078%,18.039216%);fill-opacity:1;stroke-width:0.1723;stroke-linecap:butt;stroke-linejoin:miter;stroke:rgb(0%,0%,0%);stroke-opacity:1;stroke-miterlimit:4;" d="M 728.871619 221.74215 C 729.661453 221.74215 730.305472 222.043601 730.305472 222.417623 L 730.305472 245.249746 C 730.305472 245.623768 729.661453 245.930802 728.871619 245.930802 C 728.081784 245.930802 727.437765 245.623768 727.437765 245.249746 L 727.437765 222.417623 C 727.437765 222.043601 728.081784 221.74215 728.871619 221.74215 Z M 728.871619 221.74215 " transform="matrix(0.642935,0,0,0.699741,-214.351694,104.123176)"/>
<path style="fill-rule:evenodd;fill:rgb(69.803922%,50.196078%,18.039216%);fill-opacity:1;stroke-width:0.1723;stroke-linecap:butt;stroke-linejoin:miter;stroke:rgb(0%,0%,0%);stroke-opacity:1;stroke-miterlimit:4;" d="M 709.399161 221.278808 C 710.195071 221.278808 710.833014 221.585842 710.833014 221.959864 L 710.833014 244.791987 C 710.833014 245.166009 710.195071 245.46746 709.399161 245.46746 C 708.609326 245.46746 707.971383 245.166009 707.971383 244.791987 L 707.971383 221.959864 C 707.971383 221.585842 708.609326 221.278808 709.399161 221.278808 Z M 709.399161 221.278808 " transform="matrix(0.642935,0,0,0.699741,-214.351694,104.123176)"/>
<path style="fill-rule:evenodd;fill:rgb(0%,27.058824%,0%);fill-opacity:1;stroke-width:0.25;stroke-linecap:butt;stroke-linejoin:miter;stroke:rgb(0%,0%,0%);stroke-opacity:1;stroke-miterlimit:4;" d="M 692.68394 226.058789 C 692.97745 221.161794 696.826006 219.660399 703.074836 221.842716 C 703.603901 222.140592 704.061302 221.239892 703.904855 221.161618 C 693.881071 215.889602 689.412865 201.701072 705.465267 204.260805 C 707.878829 205.01757 703.299716 206.406068 699.959328 207.020255 C 695.441936 207.591621 698.251812 213.853341 707.224594 219.653363 C 709.181999 221.161752 713.552298 224.255021 713.552298 224.255021 C 713.552298 224.255021 711.970973 227.040467 711.822821 227.03779 C 711.671932 227.04225 699.613917 222.673882 696.75289 226.437685 C 694.943363 229.453435 697.434154 229.88735 696.835799 234.412377 C 695.782872 238.323815 695.255052 237.876862 695.020898 234.331086 C 695.806879 231.868988 692.677377 228.020308 692.68394 226.058789 Z M 692.68394 226.058789 " transform="matrix(0.271672,0.418961,-0.443182,0.160717,160.631229,-75.894347)"/>
<path style="fill-rule:evenodd;fill:rgb(0%,27.058824%,0%);fill-opacity:1;stroke-width:0.25;stroke-linecap:butt;stroke-linejoin:miter;stroke:rgb(0%,0%,0%);stroke-opacity:1;stroke-miterlimit:4;" d="M 692.682324 226.063213 C 692.977961 221.163219 696.82305 219.654242 703.07967 221.838315 C 703.605756 222.144042 704.05575 221.239881 703.909659 221.159789 C 693.886811 215.889856 697.712672 201.987725 713.766092 204.549934 C 716.171424 205.306177 715.709499 206.160531 712.372681 206.779991 C 707.851863 207.347401 698.256503 213.855093 707.225373 219.654794 C 709.182355 221.160343 713.556069 224.250432 713.556069 224.250432 C 713.556069 224.250432 711.968098 227.040114 711.817341 227.035341 C 711.672045 227.042216 699.615533 222.673526 696.749701 226.44134 C 694.944158 229.449212 697.846355 232.251746 697.242787 236.775246 C 696.184614 240.694736 695.657944 240.241586 695.430462 236.698889 C 695.510694 236.102545 692.678767 228.016868 692.682324 226.063213 Z M 692.682324 226.063213 " transform="matrix(0.24749,0.436344,-0.451427,0.130759,179.701297,-78.248911)"/>
<path style="fill-rule:evenodd;fill:rgb(0%,27.058824%,0%);fill-opacity:1;stroke-width:0.25;stroke-linecap:butt;stroke-linejoin:miter;stroke:rgb(0%,0%,0%);stroke-opacity:1;stroke-miterlimit:4;" d="M 692.682807 226.062934 C 692.98161 221.162612 696.822861 219.657238 703.077932 221.844629 C 703.608831 222.14331 704.061985 221.241398 703.906957 221.160572 C 693.884898 215.889911 701.265251 209.236734 715.897579 212.060503 C 717.482482 212.264516 713.798655 214.225776 710.466904 214.847027 C 705.947873 215.41578 698.259893 213.851673 707.2258 219.657933 C 709.184299 221.166572 713.550342 224.248872 713.550342 224.248872 C 713.550342 224.248872 711.968964 227.038045 711.823501 227.038169 C 711.668663 227.042419 699.612114 222.666791 696.74878 226.438631 C 694.942673 229.454407 703.820789 235.874107 703.220835 240.395965 C 702.159683 244.311712 701.633141 243.862087 701.404732 240.32205 C 701.4816 239.720511 692.679328 228.01601 692.682807 226.062934 Z M 692.682807 226.062934 " transform="matrix(0.214438,0.456596,-0.459629,0.0908156,205.039338,-79.747431)"/>
<path style="fill-rule:evenodd;fill:rgb(0%,27.058824%,0%);fill-opacity:1;stroke-width:0.25;stroke-linecap:butt;stroke-linejoin:miter;stroke:rgb(0%,0%,0%);stroke-opacity:1;stroke-miterlimit:4;" d="M 692.681955 226.063775 C 692.979174 221.157875 696.824864 219.659775 703.07977 221.842292 C 703.607624 222.143908 704.058536 221.239923 703.909895 221.165199 C 693.888271 215.889949 693.717653 204.762962 709.763301 207.322388 C 712.174414 208.078821 707.670723 209.486054 704.331445 210.105832 C 699.812713 210.672947 698.257106 213.850933 707.225563 219.655788 C 709.180721 221.162826 713.54978 224.249961 713.54978 224.249961 C 713.54978 224.249961 711.968872 227.041026 711.820389 227.037104 C 711.669103 227.040277 699.613149 222.665723 696.74609 226.433705 C 694.944856 229.450164 695.016612 229.600825 694.412183 234.121319 C 693.359113 238.044758 692.833745 237.594441 692.603078 234.04844 C 692.682537 233.443826 692.676953 228.02269 692.681955 226.063775 Z M 692.681955 226.063775 " transform="matrix(0.274752,0.416577,-0.441986,0.164579,145.812195,-75.36588)"/>
<path style="fill-rule:evenodd;fill:rgb(0%,27.058824%,0%);fill-opacity:1;stroke-width:0.25;stroke-linecap:butt;stroke-linejoin:miter;stroke:rgb(0%,0%,0%);stroke-opacity:1;stroke-miterlimit:4;" d="M 692.680317 226.062418 C 692.976684 221.162944 696.827311 219.655099 703.076805 221.841095 C 703.603899 222.143117 704.057091 221.233298 703.909024 221.159564 C 693.885443 215.884523 693.711701 204.757116 709.76582 207.326727 C 712.177476 208.079227 707.672636 209.491805 704.333495 210.104931 C 699.811054 210.675207 698.258615 213.852333 707.22669 219.65862 C 709.180415 221.162207 713.555725 224.256325 713.555725 224.256325 C 713.555725 224.256325 711.971506 227.04287 711.820429 227.036836 C 711.667059 227.038198 699.615923 222.672641 696.748061 226.435811 C 694.939352 229.452967 695.019234 229.601488 694.41733 234.12279 C 693.354788 238.04085 692.828333 237.59176 692.604412 234.050393 C 692.674441 233.447643 692.675877 228.019806 692.680317 226.062418 Z M 692.680317 226.062418 " transform="matrix(0.250693,0.434175,-0.450447,0.134693,164.862369,-77.884946)"/>
<path style="fill-rule:evenodd;fill:rgb(0%,27.058824%,0%);fill-opacity:1;stroke-width:0.25;stroke-linecap:butt;stroke-linejoin:miter;stroke:rgb(0%,0%,0%);stroke-opacity:1;stroke-miterlimit:4;" d="M 692.679891 226.059276 C 692.979443 221.16272 696.825354 219.651417 703.077376 221.843886 C 703.60867 222.138578 704.062582 221.239004 703.906243 221.16481 C 693.881811 215.888356 693.711374 204.759753 709.76532 207.322686 C 712.176887 208.075614 707.673057 209.487475 704.331188 210.105972 C 699.813671 210.677226 698.257733 213.854046 707.226866 219.659562 C 709.180711 221.165563 713.553608 224.253645 713.553608 224.253645 C 713.553608 224.253645 711.967117 227.041466 711.821308 227.040361 C 711.667681 227.035545 699.615085 222.669087 696.751055 226.43374 C 694.937417 229.445707 695.016425 229.602361 694.416537 234.126581 C 693.359393 238.042281 692.835336 237.589309 692.60293 234.048947 C 692.677166 233.445826 692.675801 228.014943 692.679891 226.059276 Z M 692.679891 226.059276 " transform="matrix(0.217801,0.454712,-0.458947,0.0948288,190.187591,-79.606308)"/>
<path style="fill-rule:evenodd;fill:rgb(0%,27.058824%,0%);fill-opacity:1;stroke-width:0.25;stroke-linecap:butt;stroke-linejoin:miter;stroke:rgb(0%,0%,0%);stroke-opacity:1;stroke-miterlimit:4;" d="M 692.677548 226.060343 C 692.977795 221.164141 696.821399 219.653369 703.078021 221.843497 C 703.606884 222.14442 704.059064 221.237009 703.907115 221.162753 C 693.885228 215.887282 689.416353 201.697476 705.465428 204.258485 C 707.878253 205.015065 703.296728 206.402985 699.960985 207.021296 C 695.438814 207.597078 698.253416 213.848208 707.221243 219.652012 C 709.186173 221.166594 713.552095 224.25429 713.552095 224.25429 C 713.552095 224.25429 711.967938 227.040875 711.817825 227.042391 C 711.667507 227.035489 699.612967 222.669656 696.748558 226.434069 C 694.940862 229.453387 697.440575 229.881992 696.830925 234.402365 C 695.780114 238.327517 695.255535 237.877185 695.027524 234.336373 C 695.805432 231.868633 692.67754 228.017611 692.677548 226.060343 Z M 692.677548 226.060343 " transform="matrix(0.125392,0.494297,-0.467009,-0.0119726,280.837295,-91.107517)"/>
<path style="fill-rule:evenodd;fill:rgb(0%,27.058824%,0%);fill-opacity:1;stroke-width:0.25;stroke-linecap:butt;stroke-linejoin:miter;stroke:rgb(0%,0%,0%);stroke-opacity:1;stroke-miterlimit:4;" d="M 692.677836 226.059048 C 692.980266 221.162339 696.821126 219.656778 703.081376 221.837323 C 703.605683 222.139873 704.057216 221.235505 703.910836 221.162965 C 693.888632 215.888665 697.713705 201.992682 713.761132 204.547645 C 716.169491 205.302512 715.706351 206.162493 712.373255 206.783825 C 707.852049 207.349989 698.252304 213.854499 707.222167 219.655889 C 709.181603 221.164606 713.550156 224.250799 713.550156 224.250799 C 713.550156 224.250799 711.968757 227.04241 711.820335 227.036583 C 711.672649 227.039301 699.610326 222.664823 696.751188 226.439981 C 694.939643 229.452071 697.84375 232.257525 697.243813 236.773177 C 696.187478 240.689947 695.658591 240.24377 695.431039 236.696621 C 695.512099 236.100912 692.675602 228.022394 692.677836 226.059048 Z M 692.677836 226.059048 " transform="matrix(0.0972311,0.501749,-0.465453,-0.0431999,299.514566,-86.300299)"/>
<path style="fill-rule:evenodd;fill:rgb(0%,27.058824%,0%);fill-opacity:1;stroke-width:0.25;stroke-linecap:butt;stroke-linejoin:miter;stroke:rgb(0%,0%,0%);stroke-opacity:1;stroke-miterlimit:4;" d="M 692.68074 226.06385 C 692.978613 221.159877 696.824607 219.658513 703.082963 221.844646 C 703.608068 222.141741 704.057465 221.233611 703.90764 221.163287 C 693.883588 215.88541 701.267121 209.23949 715.89405 212.063024 C 717.485725 212.261239 713.800285 214.224306 710.461477 214.842001 C 705.948362 215.417415 698.256056 213.850477 707.222128 219.652248 C 709.183451 221.161682 713.556276 224.255966 713.556276 224.255966 C 713.556276 224.255966 711.972656 227.043041 711.818555 227.039986 C 711.672302 227.037949 699.608618 222.665167 696.751595 226.439883 C 694.943974 229.452209 703.820912 235.878252 703.213384 240.394417 C 702.162775 244.318933 701.634092 243.860292 701.404121 240.32055 C 701.481844 239.720229 692.680877 228.022278 692.68074 226.06385 Z M 692.68074 226.06385 " transform="matrix(0.0598328,0.508634,-0.460753,-0.0838079,323.823951,-78.379236)"/>
<path style="fill-rule:evenodd;fill:rgb(69.803922%,50.196078%,18.039216%);fill-opacity:1;stroke-width:0.1723;stroke-linecap:butt;stroke-linejoin:miter;stroke:rgb(0%,0%,0%);stroke-opacity:1;stroke-miterlimit:4;" d="M 827.484369 222.491101 C 828.271102 222.491101 828.911057 222.793882 828.911057 223.167312 L 828.911057 246.002026 C 828.911057 246.375455 828.271102 246.678236 827.484369 246.678236 C 826.691764 246.678236 826.05181 246.375455 826.05181 246.002026 L 826.05181 223.167312 C 826.05181 222.793882 826.691764 222.491101 827.484369 222.491101 Z M 827.484369 222.491101 " transform="matrix(0.66533,0,0,0.774075,-229.8825,86.204888)"/>
<path style="fill-rule:evenodd;fill:rgb(0%,45.882353%,0%);fill-opacity:1;stroke-width:0.33302;stroke-linecap:butt;stroke-linejoin:miter;stroke:rgb(0%,0%,0%);stroke-opacity:1;stroke-miterlimit:4;" d="M -3819.300515 -4447.100199 L -3826.723708 -4449.86288 L -3811.591483 -4438.470879 L -3814.488145 -4443.817783 Z M -3819.300515 -4447.100199 " transform="matrix(1.882447,-0.96254,-2.027984,0.734046,-1511.053176,-149.371137)"/>
<path style="fill-rule:evenodd;fill:rgb(0%,45.882353%,0%);fill-opacity:1;stroke-width:0.33302;stroke-linecap:butt;stroke-linejoin:miter;stroke:rgb(0%,0%,0%);stroke-opacity:1;stroke-miterlimit:4;" d="M -3819.300132 -4447.099756 L -3824.607351 -4446.82655 L -3811.913457 -4439.242509 L -3814.495636 -4443.825901 Z M -3819.300132 -4447.099756 " transform="matrix(2.080702,-0.252429,-2.145504,-0.0137513,-1276.724674,-763.840329)"/>
<path style="fill-rule:evenodd;fill:rgb(0%,45.882353%,0%);fill-opacity:1;stroke-width:0.33302;stroke-linecap:butt;stroke-linejoin:miter;stroke:rgb(0%,0%,0%);stroke-opacity:1;stroke-miterlimit:4;" d="M -3819.895044 -4447.59575 L -3815.264383 -4440.204508 L -3810.841182 -4438.940783 L -3814.417707 -4443.898782 Z M -3819.895044 -4447.59575 " transform="matrix(-1.562111,-1.462163,1.415211,1.689775,651.035968,2191.578002)"/>
<path style="fill-rule:evenodd;fill:rgb(0%,45.882353%,0%);fill-opacity:1;stroke-width:0.33302;stroke-linecap:butt;stroke-linejoin:miter;stroke:rgb(0%,0%,0%);stroke-opacity:1;stroke-miterlimit:4;" d="M -3821.80677 -4448.706692 L -3804.265056 -4426.295285 L -3810.94326 -4438.783225 L -3814.401256 -4443.862172 Z M -3821.80677 -4448.706692 " transform="matrix(-2.067493,-0.351697,2.060622,0.626313,1590.363922,1701.793773)"/>
<path style="fill-rule:evenodd;fill:rgb(0%,45.882353%,0%);fill-opacity:1;stroke-width:0.33302;stroke-linecap:butt;stroke-linejoin:miter;stroke:rgb(0%,0%,0%);stroke-opacity:1;stroke-miterlimit:4;" d="M -3822.202295 -4449.901337 L -3834.700717 -4456.410165 L -3810.653016 -4437.753258 L -3814.464881 -4443.884086 Z M -3822.202295 -4449.901337 " transform="matrix(1.898677,0.926844,-1.820844,-1.189206,-528.182532,-1488.615034)"/>
<path style="fill-rule:evenodd;fill:rgb(0%,45.882353%,0%);fill-opacity:1;stroke-width:0.33302;stroke-linecap:butt;stroke-linejoin:miter;stroke:rgb(0%,0%,0%);stroke-opacity:1;stroke-miterlimit:4;" d="M -3823.50751 -4450.207387 L -3828.739573 -4451.42945 L -3810.929959 -4438.109821 L -3814.473541 -4443.883467 Z M -3823.50751 -4450.207387 " transform="matrix(1.353135,1.675332,-1.177566,-1.879356,249.366351,-1700.333506)"/>
<path style="fill-rule:evenodd;fill:rgb(0%,45.882353%,0%);fill-opacity:1;stroke-width:0.33302;stroke-linecap:butt;stroke-linejoin:miter;stroke:rgb(0%,0%,0%);stroke-opacity:1;stroke-miterlimit:4;" d="M -3824.696659 -4451.696146 L -3838.094878 -4461.435126 L -3813.754978 -4440.484138 L -3814.494506 -4443.813716 Z M -3824.696659 -4451.696146 " transform="matrix(0.224638,2.182145,0.0298834,-2.247987,1310.129305,-1405.428658)"/>
<path style="fill-rule:evenodd;fill:rgb(0%,45.882353%,0%);fill-opacity:1;stroke-width:0.33302;stroke-linecap:butt;stroke-linejoin:miter;stroke:rgb(0%,0%,0%);stroke-opacity:1;stroke-miterlimit:4;" d="M -3822.203847 -4449.303601 L -3811.600983 -4434.890377 L -3809.889106 -4437.488295 L -3814.447066 -4443.846765 Z M -3822.203847 -4449.303601 " transform="matrix(-1.032503,1.909629,1.275835,-1.807522,2051.616714,-487.704446)"/>
<path style="fill-rule:evenodd;fill:rgb(0%,45.882353%,0%);fill-opacity:1;stroke-width:0.33302;stroke-linecap:butt;stroke-linejoin:miter;stroke:rgb(0%,0%,0%);stroke-opacity:1;stroke-miterlimit:4;" d="M -3820.203501 -4447.002472 L -3804.598246 -4427.747902 L -3807.952086 -4435.492111 L -3814.477683 -4443.80747 Z M -3820.203501 -4447.002472 " transform="matrix(-1.588648,1.43044,1.784593,-1.247985,2191.052835,170.900826)"/>
<path style="fill-rule:evenodd;fill:rgb(0%,45.882353%,0%);fill-opacity:1;stroke-width:0.33302;stroke-linecap:butt;stroke-linejoin:miter;stroke:rgb(0%,0%,0%);stroke-opacity:1;stroke-miterlimit:4;" d="M -3820.995678 -4448.696343 L -3808.788985 -4431.568955 L -3808.905027 -4436.823966 L -3814.468401 -4443.808362 Z M -3820.995678 -4448.696343 " transform="matrix(-2.020698,0.577884,2.122995,-0.324963,2047.292654,1020.409687)"/>
<path style="fill-rule:evenodd;fill:rgb(0%,45.882353%,0%);fill-opacity:1;stroke-width:0.33302;stroke-linecap:butt;stroke-linejoin:miter;stroke:rgb(0%,0%,0%);stroke-opacity:1;stroke-miterlimit:4;" d="M -3818.897044 -4446.897469 L -3816.929758 -4442.639929 L -3812.694221 -4440.513817 L -3814.494276 -4443.893699 Z M -3818.897044 -4446.897469 " transform="matrix(1.360894,-1.668458,-1.581184,1.519618,-1515.140301,648.927964)"/>
<path style="fill-rule:evenodd;fill:rgb(0%,45.882353%,0%);fill-opacity:1;stroke-width:0.33302;stroke-linecap:butt;stroke-linejoin:miter;stroke:rgb(0%,0%,0%);stroke-opacity:1;stroke-miterlimit:4;" d="M -3819.305526 -4447.106839 L -3819.301708 -4441.321831 L -3812.659946 -4439.969828 L -3814.489822 -4443.819187 Z M -3819.305526 -4447.106839 " transform="matrix(0.999687,-0.802033,-1.076987,0.611619,-651.655172,-81.939087)"/>
<path style="fill-rule:evenodd;fill:rgb(0%,45.882353%,0%);fill-opacity:1;stroke-width:0.33302;stroke-linecap:butt;stroke-linejoin:miter;stroke:rgb(0%,0%,0%);stroke-opacity:1;stroke-miterlimit:4;" d="M -3819.302449 -4447.10118 L -3819.303304 -4441.32454 L -3812.670897 -4439.98054 L -3814.493678 -4443.825173 Z M -3819.302449 -4447.10118 " transform="matrix(-1.008335,-0.901932,0.805223,1.006751,52.473544,1292.925481)"/>
<path style="fill-rule:evenodd;fill:rgb(0%,45.882353%,0%);fill-opacity:1;stroke-width:0.33302;stroke-linecap:butt;stroke-linejoin:miter;stroke:rgb(0%,0%,0%);stroke-opacity:1;stroke-miterlimit:4;" d="M -3819.289639 -4447.090643 L -3819.305063 -4441.324204 L -3812.670602 -4439.979433 L -3814.481222 -4443.810958 Z M -3819.289639 -4447.090643 " transform="matrix(1.121649,0.711846,-1.063245,-0.868569,-125.696675,-884.552023)"/>
<path style="fill-rule:evenodd;fill:rgb(0%,45.882353%,0%);fill-opacity:1;stroke-width:0.33302;stroke-linecap:butt;stroke-linejoin:miter;stroke:rgb(0%,0%,0%);stroke-opacity:1;stroke-miterlimit:4;" d="M -3819.293308 -4447.093638 L -3803.61139 -4428.142586 L -3813.794821 -4441.856128 L -3814.491983 -4443.823035 Z M -3819.293308 -4447.093638 " transform="matrix(-1.234075,0.521192,1.323162,-0.385319,1492.983725,535.645652)"/>
<path style="fill-rule:evenodd;fill:rgb(0%,45.882353%,0%);fill-opacity:1;stroke-width:0.33302;stroke-linecap:butt;stroke-linejoin:miter;stroke:rgb(0%,0%,0%);stroke-opacity:1;stroke-miterlimit:4;" d="M -3819.30202 -4447.101174 L -3808.355766 -4433.925785 L -3812.674001 -4439.984803 L -3814.493626 -4443.824228 Z M -3819.30202 -4447.101174 " transform="matrix(-0.401835,2.154079,0.663536,-2.137997,1736.197282,-1024.688587)"/>
<path style="fill-rule:evenodd;fill:rgb(0%,45.882353%,0%);fill-opacity:1;stroke-width:0.33302;stroke-linecap:butt;stroke-linejoin:miter;stroke:rgb(0%,0%,0%);stroke-opacity:1;stroke-miterlimit:4;" d="M -3819.300613 -4447.100176 L -3833.729205 -4459.690077 L -3815.469043 -4442.899444 L -3814.488743 -4443.818114 Z M -3819.300613 -4447.100176 " transform="matrix(1.418055,1.615355,-1.25066,-1.826758,172.03676,-1696.675576)"/>
<path style="fill-rule:evenodd;fill:rgb(0%,45.882353%,0%);fill-opacity:1;stroke-width:0.33302;stroke-linecap:butt;stroke-linejoin:miter;stroke:rgb(0%,0%,0%);stroke-opacity:1;stroke-miterlimit:4;" d="M -3819.306301 -4447.105119 L -3819.304879 -4441.323602 L -3812.668645 -4439.978277 L -3814.481267 -4443.811355 Z M -3819.306301 -4447.105119 " transform="matrix(1.306636,-0.678861,-1.407689,0.517711,-950.880112,-28.68467)"/>
</g>
</svg>
