<?xml version="1.0" encoding="UTF-8"?>
<svg xmlns="http://www.w3.org/2000/svg" xmlns:xlink="http://www.w3.org/1999/xlink" width="384pt" height="384pt" viewBox="0 0 384 384" version="1.1">
<defs>
<clipPath id="clip1">
  <path d="M 0 0 L 383.984375 0 L 383.984375 383.988281 L 0 383.988281 Z M 0 0 "/>
</clipPath>
</defs>
<g id="surface1">
<g clip-path="url(#clip1)" clip-rule="nonzero">
<path style=" stroke:none;fill-rule:evenodd;fill:rgb(40.392157%,59.215686%,83.921569%);fill-opacity:1;" d="M -189 0 L 578.984375 0 L 578.984375 383.988281 L -189 383.988281 Z M -189 0 "/>
</g>
<path style=" stroke:none;fill-rule:evenodd;fill:rgb(100%,100%,100%);fill-opacity:1;" d="M 204.109375 65.371094 L 234.203125 65.351562 L 209.839844 81.972656 L 219.164062 108.902344 L 194.832031 92.238281 L 170.5 108.898438 L 179.828125 81.972656 L 155.472656 65.339844 L 185.5625 65.371094 L 194.835938 38.429688 Z M 204.109375 65.371094 "/>
<path style=" stroke:none;fill-rule:evenodd;fill:rgb(100%,100%,100%);fill-opacity:1;" d="M 204.109375 319.394531 L 234.203125 319.414062 L 209.839844 302.792969 L 219.164062 275.863281 L 194.832031 292.527344 L 170.5 275.867188 L 179.828125 302.792969 L 155.472656 319.425781 L 185.5625 319.394531 L 194.835938 346.335938 Z M 204.109375 319.394531 "/>
<path style=" stroke:none;fill-rule:evenodd;fill:rgb(100%,100%,100%);fill-opacity:1;" d="M 78.890625 178.117188 L 107.664062 169.300781 L 89.226562 192.320312 L 106.011719 215.34375 L 77.875 206.523438 L 59.476562 229.566406 L 60.523438 201.09375 L 32.371094 192.308594 L 61.152344 183.539062 L 62.148438 155.066406 Z M 78.890625 178.117188 "/>
<path style=" stroke:none;fill-rule:evenodd;fill:rgb(100%,100%,100%);fill-opacity:1;" d="M 310.703125 178.117188 L 281.933594 169.300781 L 300.367188 192.320312 L 283.582031 215.34375 L 311.722656 206.523438 L 330.117188 229.566406 L 329.070312 201.09375 L 357.226562 192.308594 L 328.441406 183.539062 L 327.449219 155.066406 Z M 310.703125 178.117188 "/>
</g>
</svg>
