<?xml version="1.0" encoding="UTF-8"?>
<svg xmlns="http://www.w3.org/2000/svg" xmlns:xlink="http://www.w3.org/1999/xlink" width="384pt" height="384pt" viewBox="0 0 384 384" version="1.1">
<g id="surface1">
<rect x="0" y="0" width="384" height="384" style="fill:rgb(0%,0%,40%);fill-opacity:1;stroke:none;"/>
<path style=" stroke:none;fill-rule:nonzero;fill:rgb(100%,100%,100%);fill-opacity:1;" d="M -192 0 L -192 42.933594 L 490.152344 384.007812 L 576.015625 384.007812 L 576.015625 341.078125 L -106.136719 0 Z M 576.015625 0 L 576.015625 42.933594 L -106.136719 384.007812 L -192 384.007812 L -192 341.074219 L 490.152344 0 Z M 576.015625 0 "/>
<path style=" stroke:none;fill-rule:nonzero;fill:rgb(100%,100%,100%);fill-opacity:1;" d="M 128.007812 0 L 128.007812 384.007812 L 256.007812 384.007812 L 256.007812 0 Z M -192 128.003906 L -192 256.003906 L 576.015625 256.003906 L 576.015625 128.003906 Z M -192 128.003906 "/>
<path style=" stroke:none;fill-rule:nonzero;fill:rgb(80%,0%,0%);fill-opacity:1;" d="M -192 153.601562 L -192 230.40625 L 576.015625 230.40625 L 576.015625 153.601562 Z M 153.605469 0 L 153.605469 384.007812 L 230.410156 384.007812 L 230.410156 0 Z M 153.605469 0 "/>
<path style=" stroke:none;fill-rule:nonzero;fill:rgb(80%,0%,0%);fill-opacity:1;" d="M -192 384.007812 L 64.003906 256.003906 L 121.246094 256.003906 L -134.757812 384.007812 Z M -192 0 L 64.003906 128.003906 L 6.761719 128.003906 L -192 28.621094 Z M 262.765625 128.003906 L 518.773438 0 L 576.015625 0 L 320.011719 128.003906 Z M 576.015625 384.007812 L 320.011719 256.003906 L 377.253906 256.003906 L 576.015625 355.386719 Z M 576.015625 384.007812 "/>
</g>
</svg>
