<?xml version="1.0" encoding="UTF-8"?>
<svg xmlns="http://www.w3.org/2000/svg" xmlns:xlink="http://www.w3.org/1999/xlink" width="384pt" height="384pt" viewBox="0 0 384 384" version="1.1">
<g id="surface1">
<rect x="0" y="0" width="384" height="384" style="fill:rgb(100%,0%,0%);fill-opacity:1;stroke:none;"/>
<path style=" stroke:none;fill-rule:evenodd;fill:rgb(0%,60.392157%,0%);fill-opacity:1;" d="M 47.738281 66.304688 L 336.28125 66.304688 L 336.28125 317.667969 L 47.738281 317.667969 Z M 47.738281 66.304688 "/>
<path style=" stroke:none;fill-rule:evenodd;fill:rgb(100%,79.215686%,0%);fill-opacity:1;" d="M 47.738281 317.671875 L 336.28125 317.671875 L 192.007812 192 Z M 47.738281 317.671875 "/>
<path style=" stroke:none;fill-rule:evenodd;fill:rgb(100%,79.215686%,0%);fill-opacity:1;" d="M 47.738281 66.363281 L 192.007812 192.035156 L 336.28125 66.363281 Z M 47.738281 66.363281 "/>
<path style=" stroke:none;fill-rule:evenodd;fill:rgb(100%,80.784314%,0%);fill-opacity:1;" d="M 73.101562 48.648438 L 59.953125 39.273438 L 46.789062 48.625 L 51.644531 33.226562 L 38.6875 23.597656 L 54.832031 23.453125 L 59.984375 8.152344 L 65.109375 23.464844 L 81.25 23.632812 L 68.269531 33.238281 Z M 73.101562 48.648438 "/>
<path style=" stroke:none;fill-rule:evenodd;fill:rgb(100%,80.784314%,0%);fill-opacity:1;" d="M 204.925781 49.039062 L 191.777344 39.664062 L 178.609375 49.015625 L 183.464844 33.617188 L 170.507812 23.988281 L 186.652344 23.847656 L 191.804688 8.542969 L 196.929688 23.855469 L 213.074219 24.027344 L 200.09375 33.632812 Z M 204.925781 49.039062 "/>
<path style=" stroke:none;fill-rule:evenodd;fill:rgb(100%,80.784314%,0%);fill-opacity:1;" d="M 336.832031 48.828125 L 323.683594 39.453125 L 310.519531 48.804688 L 315.375 33.40625 L 302.417969 23.777344 L 318.5625 23.632812 L 323.714844 8.332031 L 328.839844 23.644531 L 344.980469 23.8125 L 332 33.417969 Z M 336.832031 48.828125 "/>
<path style=" stroke:none;fill-rule:evenodd;fill:rgb(100%,80.784314%,0%);fill-opacity:1;" d="M 73.101562 374.375 L 59.953125 365 L 46.789062 374.351562 L 51.644531 358.953125 L 38.6875 349.324219 L 54.832031 349.179688 L 59.984375 333.878906 L 65.109375 349.191406 L 81.25 349.359375 L 68.269531 358.964844 Z M 73.101562 374.375 "/>
<path style=" stroke:none;fill-rule:evenodd;fill:rgb(100%,80.784314%,0%);fill-opacity:1;" d="M 204.925781 374.765625 L 191.777344 365.386719 L 178.609375 374.742188 L 183.464844 359.339844 L 170.507812 349.710938 L 186.652344 349.570312 L 191.804688 334.265625 L 196.929688 349.578125 L 213.074219 349.75 L 200.09375 359.355469 Z M 204.925781 374.765625 "/>
<path style=" stroke:none;fill-rule:evenodd;fill:rgb(100%,80.784314%,0%);fill-opacity:1;" d="M 336.832031 374.554688 L 323.683594 365.179688 L 310.519531 374.53125 L 315.375 359.132812 L 302.417969 349.503906 L 318.5625 349.359375 L 323.714844 334.058594 L 328.839844 349.371094 L 344.980469 349.539062 L 332 359.144531 Z M 336.832031 374.554688 "/>
<path style=" stroke:none;fill-rule:evenodd;fill:rgb(100%,0%,0%);fill-opacity:1;" d="M 226.617188 193.941406 C 226.617188 213.265625 210.953125 228.933594 191.628906 228.933594 C 172.304688 228.933594 156.636719 213.265625 156.636719 193.941406 C 156.636719 174.617188 172.304688 158.953125 191.628906 158.953125 C 210.953125 158.953125 226.617188 174.617188 226.617188 193.941406 Z M 226.617188 193.941406 "/>
<path style=" stroke:none;fill-rule:evenodd;fill:rgb(100%,80.784314%,0%);fill-opacity:1;" d="M 207.433594 215.472656 L 191.816406 204.335938 L 176.179688 215.445312 L 181.945312 197.152344 L 166.554688 185.71875 L 185.730469 185.550781 L 191.851562 167.371094 L 197.9375 185.558594 L 217.109375 185.761719 L 201.691406 197.171875 Z M 207.433594 215.472656 "/>
<path style=" stroke:none;fill-rule:evenodd;fill:rgb(100%,0%,0%);fill-opacity:1;" d="M 66.910156 218.210938 C 66.910156 218.210938 68.683594 203.507812 67.667969 193.621094 C 66.65625 183.730469 41.300781 180.941406 41.300781 180.941406 L 41.046875 204.015625 C 41.046875 204.015625 61.332031 220.496094 66.910156 218.210938 Z M 66.910156 218.210938 "/>
<path style=" stroke:none;fill-rule:evenodd;fill:rgb(100%,80.784314%,0%);fill-opacity:1;" d="M 29.890625 159.898438 C 29.890625 159.898438 32.335938 172.855469 28.878906 198.691406 C 27.03125 212.71875 42.316406 222.273438 61.078125 226.582031 C 57.273438 219.988281 47.132812 209.339844 49.667969 189.816406 C 63.359375 191.59375 76.289062 218.214844 76.289062 218.214844 C 76.289062 218.214844 86.53125 180.464844 65.894531 174.605469 C 45.835938 168.96875 29.890625 160.152344 29.890625 159.902344 Z M 29.890625 159.898438 "/>
</g>
</svg>
