<?xml version="1.0" encoding="UTF-8"?>
<svg xmlns="http://www.w3.org/2000/svg" xmlns:xlink="http://www.w3.org/1999/xlink" width="384pt" height="384pt" viewBox="0 0 384 384" version="1.1">
<defs>
<clipPath id="clip1">
  <path d="M 22 30 L 156 30 L 156 209 L 22 209 Z M 22 30 "/>
</clipPath>
<clipPath id="clip2">
  <path d="M -42.117188 244.375 C 27 244.375 83.035156 188.339844 83.035156 119.21875 C 83.035156 50.101562 27 -5.933594 -42.117188 -5.933594 L 220.21875 -5.933594 C 151.101562 -5.933594 95.066406 50.101562 95.066406 119.21875 C 95.066406 188.339844 151.101562 244.375 220.21875 244.375 Z M -42.117188 244.375 "/>
</clipPath>
<clipPath id="clip3">
  <path d="M 0 53 L 179 53 L 179 186 L 0 186 Z M 0 53 "/>
</clipPath>
<clipPath id="clip4">
  <path d="M -36.101562 -11.949219 C -36.101562 57.171875 19.929688 113.203125 89.050781 113.203125 C 158.171875 113.203125 214.203125 57.171875 214.203125 -11.949219 L 214.203125 250.390625 C 214.203125 181.269531 158.171875 125.238281 89.050781 125.238281 C 19.929688 125.238281 -36.101562 181.269531 -36.101562 250.390625 Z M -36.101562 -11.949219 "/>
</clipPath>
<clipPath id="clip5">
  <path d="M 228 175 L 362 175 L 362 355 L 228 355 Z M 228 175 "/>
</clipPath>
<clipPath id="clip6">
  <path d="M 163.78125 390.105469 C 232.902344 390.105469 288.933594 334.074219 288.933594 264.953125 C 288.933594 195.835938 232.902344 139.800781 163.78125 139.800781 L 426.121094 139.800781 C 357 139.800781 300.96875 195.835938 300.96875 264.953125 C 300.96875 334.074219 357 390.105469 426.121094 390.105469 Z M 163.78125 390.105469 "/>
</clipPath>
<clipPath id="clip7">
  <path d="M 205 198 L 384 198 L 384 332 L 205 332 Z M 205 198 "/>
</clipPath>
<clipPath id="clip8">
  <path d="M 169.796875 133.785156 C 169.796875 202.90625 225.832031 258.9375 294.949219 258.9375 C 364.070312 258.9375 420.101562 202.90625 420.101562 133.785156 L 420.101562 396.125 C 420.101562 327.003906 364.070312 270.972656 294.949219 270.972656 C 225.832031 270.972656 169.796875 327.003906 169.796875 396.125 Z M 169.796875 133.785156 "/>
</clipPath>
<clipPath id="clip9">
  <path d="M 228 30 L 362 30 L 362 209 L 228 209 Z M 228 30 "/>
</clipPath>
<clipPath id="clip10">
  <path d="M 163.78125 244.375 C 232.902344 244.375 288.933594 188.339844 288.933594 119.21875 C 288.933594 50.101562 232.902344 -5.933594 163.78125 -5.933594 L 426.121094 -5.933594 C 357 -5.933594 300.96875 50.101562 300.96875 119.21875 C 300.96875 188.339844 357 244.375 426.121094 244.375 Z M 163.78125 244.375 "/>
</clipPath>
<clipPath id="clip11">
  <path d="M 205 53 L 384 53 L 384 186 L 205 186 Z M 205 53 "/>
</clipPath>
<clipPath id="clip12">
  <path d="M 169.796875 -11.949219 C 169.796875 57.171875 225.832031 113.203125 294.949219 113.203125 C 364.070312 113.203125 420.101562 57.171875 420.101562 -11.949219 L 420.101562 250.390625 C 420.101562 181.269531 364.070312 125.238281 294.949219 125.238281 C 225.832031 125.238281 169.796875 181.269531 169.796875 250.390625 Z M 169.796875 -11.949219 "/>
</clipPath>
<clipPath id="clip13">
  <path d="M 22 175 L 156 175 L 156 355 L 22 355 Z M 22 175 "/>
</clipPath>
<clipPath id="clip14">
  <path d="M -42.117188 390.105469 C 27 390.105469 83.035156 334.074219 83.035156 264.953125 C 83.035156 195.835938 27 139.800781 -42.117188 139.800781 L 220.21875 139.800781 C 151.101562 139.800781 95.066406 195.835938 95.066406 264.953125 C 95.066406 334.074219 151.101562 390.105469 220.21875 390.105469 Z M -42.117188 390.105469 "/>
</clipPath>
<clipPath id="clip15">
  <path d="M 0 198 L 179 198 L 179 332 L 0 332 Z M 0 198 "/>
</clipPath>
<clipPath id="clip16">
  <path d="M -36.101562 133.785156 C -36.101562 202.90625 19.929688 258.9375 89.050781 258.9375 C 158.171875 258.9375 214.203125 202.90625 214.203125 133.785156 L 214.203125 396.125 C 214.203125 327.003906 158.171875 270.972656 89.050781 270.972656 C 19.929688 270.972656 -36.101562 327.003906 -36.101562 396.125 Z M -36.101562 133.785156 "/>
</clipPath>
</defs>
<g id="surface1">
<rect x="0" y="0" width="384" height="384" style="fill:rgb(100%,100%,100%);fill-opacity:1;stroke:none;"/>
<path style=" stroke:none;fill-rule:nonzero;fill:rgb(100%,100%,100%);fill-opacity:1;" d="M 11.492188 71.746094 L 372.507812 71.746094 L 372.507812 312.425781 L 11.492188 312.425781 Z M 11.492188 71.746094 "/>
<path style=" stroke:none;fill-rule:nonzero;fill:rgb(100%,0%,0%);fill-opacity:1;" d="M 167.933594 71.746094 L 167.933594 168.019531 L 11.492188 168.019531 L 11.492188 216.152344 L 167.933594 216.152344 L 167.933594 312.425781 L 216.070312 312.425781 L 216.070312 216.152344 L 372.507812 216.152344 L 372.507812 168.019531 L 216.070312 168.019531 L 216.070312 71.746094 Z M 167.933594 71.746094 "/>
<g clip-path="url(#clip1)" clip-rule="nonzero">
<g clip-path="url(#clip2)" clip-rule="nonzero">
<path style=" stroke:none;fill-rule:nonzero;fill:rgb(100%,0%,0%);fill-opacity:1;" d="M 22.863281 208.273438 C 22.863281 171.71875 52.496094 142.085938 89.050781 142.085938 C 125.605469 142.085938 155.238281 171.71875 155.238281 208.273438 L 155.238281 30.167969 C 155.238281 66.722656 125.605469 96.355469 89.050781 96.355469 C 52.496094 96.355469 22.863281 66.722656 22.863281 30.167969 Z M 22.863281 208.273438 "/>
</g>
</g>
<g clip-path="url(#clip3)" clip-rule="nonzero">
<g clip-path="url(#clip4)" clip-rule="nonzero">
<path style=" stroke:none;fill-rule:nonzero;fill:rgb(100%,0%,0%);fill-opacity:1;" d="M 0 53.035156 C 36.554688 53.035156 66.1875 82.667969 66.1875 119.21875 C 66.1875 155.773438 36.554688 185.40625 0 185.40625 L 178.101562 185.40625 C 141.546875 185.40625 111.914062 155.773438 111.914062 119.21875 C 111.914062 82.667969 141.546875 53.035156 178.101562 53.035156 Z M 0 53.035156 "/>
</g>
</g>
<g clip-path="url(#clip5)" clip-rule="nonzero">
<g clip-path="url(#clip6)" clip-rule="nonzero">
<path style=" stroke:none;fill-rule:nonzero;fill:rgb(100%,0%,0%);fill-opacity:1;" d="M 228.765625 354.003906 C 228.765625 317.453125 258.398438 287.820312 294.949219 287.820312 C 331.503906 287.820312 361.136719 317.453125 361.136719 354.003906 L 361.136719 175.902344 C 361.136719 212.457031 331.503906 242.089844 294.949219 242.089844 C 258.398438 242.089844 228.765625 212.457031 228.765625 175.902344 Z M 228.765625 354.003906 "/>
</g>
</g>
<g clip-path="url(#clip7)" clip-rule="nonzero">
<g clip-path="url(#clip8)" clip-rule="nonzero">
<path style=" stroke:none;fill-rule:nonzero;fill:rgb(100%,0%,0%);fill-opacity:1;" d="M 205.898438 198.769531 C 242.453125 198.769531 272.085938 228.402344 272.085938 264.953125 C 272.085938 301.507812 242.453125 331.140625 205.898438 331.140625 L 384 331.140625 C 347.449219 331.140625 317.816406 301.507812 317.816406 264.953125 C 317.816406 228.402344 347.449219 198.769531 384 198.769531 Z M 205.898438 198.769531 "/>
</g>
</g>
<g clip-path="url(#clip9)" clip-rule="nonzero">
<g clip-path="url(#clip10)" clip-rule="nonzero">
<path style=" stroke:none;fill-rule:nonzero;fill:rgb(100%,0%,0%);fill-opacity:1;" d="M 228.765625 208.273438 C 228.765625 171.71875 258.398438 142.085938 294.949219 142.085938 C 331.503906 142.085938 361.136719 171.71875 361.136719 208.273438 L 361.136719 30.167969 C 361.136719 66.722656 331.503906 96.355469 294.949219 96.355469 C 258.398438 96.355469 228.765625 66.722656 228.765625 30.167969 Z M 228.765625 208.273438 "/>
</g>
</g>
<g clip-path="url(#clip11)" clip-rule="nonzero">
<g clip-path="url(#clip12)" clip-rule="nonzero">
<path style=" stroke:none;fill-rule:nonzero;fill:rgb(100%,0%,0%);fill-opacity:1;" d="M 205.898438 53.035156 C 242.453125 53.035156 272.085938 82.667969 272.085938 119.21875 C 272.085938 155.773438 242.453125 185.40625 205.898438 185.40625 L 384 185.40625 C 347.449219 185.40625 317.816406 155.773438 317.816406 119.21875 C 317.816406 82.667969 347.449219 53.035156 384 53.035156 Z M 205.898438 53.035156 "/>
</g>
</g>
<g clip-path="url(#clip13)" clip-rule="nonzero">
<g clip-path="url(#clip14)" clip-rule="nonzero">
<path style=" stroke:none;fill-rule:nonzero;fill:rgb(100%,0%,0%);fill-opacity:1;" d="M 22.863281 354.003906 C 22.863281 317.453125 52.496094 287.820312 89.050781 287.820312 C 125.605469 287.820312 155.238281 317.453125 155.238281 354.003906 L 155.238281 175.902344 C 155.238281 212.457031 125.605469 242.089844 89.050781 242.089844 C 52.496094 242.089844 22.863281 212.457031 22.863281 175.902344 Z M 22.863281 354.003906 "/>
</g>
</g>
<g clip-path="url(#clip15)" clip-rule="nonzero">
<g clip-path="url(#clip16)" clip-rule="nonzero">
<path style=" stroke:none;fill-rule:nonzero;fill:rgb(100%,0%,0%);fill-opacity:1;" d="M 0 198.769531 C 36.554688 198.769531 66.1875 228.402344 66.1875 264.953125 C 66.1875 301.507812 36.554688 331.140625 0 331.140625 L 178.101562 331.140625 C 141.546875 331.140625 111.914062 301.507812 111.914062 264.953125 C 111.914062 228.402344 141.546875 198.769531 178.101562 198.769531 Z M 0 198.769531 "/>
</g>
</g>
</g>
</svg>
