<?xml version="1.0" encoding="UTF-8"?>
<svg xmlns="http://www.w3.org/2000/svg" xmlns:xlink="http://www.w3.org/1999/xlink" width="384pt" height="384pt" viewBox="0 0 384 384" version="1.1">
<g id="surface1">
<rect x="0" y="0" width="384" height="384" style="fill:rgb(100%,100%,100%);fill-opacity:1;stroke:none;"/>
<path style=" stroke:none;fill-rule:nonzero;fill:rgb(100%,100%,100%);fill-opacity:1;" d="M 0 64 L 384 64 L 384 320 L 0 320 Z M 0 64 "/>
<path style="fill:none;stroke-width:6;stroke-linecap:butt;stroke-linejoin:miter;stroke:rgb(90.980392%,6.666667%,17.647059%);stroke-opacity:1;stroke-miterlimit:4;" d="M 0 -18 L 0 18 M -18 0 L 18 0 " transform="matrix(10.666667,0,0,10.666667,192,192)"/>
<path style=" stroke:none;fill-rule:nonzero;fill:rgb(97.647059%,86.666667%,8.627451%);fill-opacity:1;" d="M 96 213.332031 L 106.667969 202.667969 L 202.667969 202.667969 L 202.667969 181.332031 L 106.667969 181.332031 L 96 170.667969 Z M 96 213.332031 "/>
<path style=" stroke:none;fill-rule:nonzero;fill:rgb(97.647059%,86.666667%,8.627451%);fill-opacity:1;" d="M 170.667969 96 L 181.332031 106.667969 L 181.332031 202.667969 L 202.667969 202.667969 L 202.667969 106.667969 L 213.332031 96 Z M 170.667969 96 "/>
<path style=" stroke:none;fill-rule:nonzero;fill:rgb(97.647059%,86.666667%,8.627451%);fill-opacity:1;" d="M 213.332031 288 L 202.667969 277.332031 L 202.667969 181.332031 L 181.332031 181.332031 L 181.332031 277.332031 L 170.667969 288 Z M 213.332031 288 "/>
<path style=" stroke:none;fill-rule:nonzero;fill:rgb(97.647059%,86.666667%,8.627451%);fill-opacity:1;" d="M 288 170.667969 L 277.332031 181.332031 L 181.332031 181.332031 L 181.332031 202.667969 L 277.332031 202.667969 L 288 213.332031 Z M 288 170.667969 "/>
</g>
</svg>
