<?xml version="1.0" encoding="UTF-8"?>
<svg xmlns="http://www.w3.org/2000/svg" xmlns:xlink="http://www.w3.org/1999/xlink" width="384pt" height="384pt" viewBox="0 0 384 384" version="1.1">
<g id="surface1">
<path style=" stroke:none;fill-rule:evenodd;fill:rgb(100%,100%,100%);fill-opacity:1;" d="M -190.914062 0 L 575.4375 0 L 575.4375 383.160156 L -190.914062 383.160156 Z M -190.914062 0 "/>
<path style=" stroke:none;fill-rule:nonzero;fill:rgb(63.137255%,6.27451%,6.666667%);fill-opacity:1;" d="M 303.898438 131.324219 Z M 249.964844 84.230469 L 240.40625 132.96875 L 307.140625 132.289062 L 299.972656 84.234375 "/>
<path style=" stroke:none;fill-rule:evenodd;fill:rgb(63.137255%,6.27451%,6.666667%);fill-opacity:1;" d="M 207.113281 58.1875 L 227.59375 58.1875 L 227.59375 63.308594 L 207.113281 63.308594 Z M 207.113281 58.1875 "/>
<path style=" stroke:none;fill-rule:evenodd;fill:rgb(63.137255%,6.27451%,6.666667%);fill-opacity:1;" d="M 182.535156 58.1875 L 202.332031 58.1875 L 202.332031 63.308594 L 182.535156 63.308594 Z M 182.535156 58.1875 "/>
<path style=" stroke:none;fill-rule:evenodd;fill:rgb(63.137255%,6.27451%,6.666667%);fill-opacity:1;" d="M 157.273438 57.847656 L 177.074219 57.847656 L 177.074219 62.625 L 157.273438 62.625 Z M 157.273438 57.847656 "/>
<path style=" stroke:none;fill-rule:nonzero;fill:rgb(63.137255%,6.27451%,6.666667%);fill-opacity:1;" d="M 226.378906 74.667969 Z M 157.453125 62.375 L 157.453125 74.9375 L 227.605469 74.9375 L 227.605469 62.644531 L 157.453125 62.375 "/>
<path style=" stroke:none;fill-rule:nonzero;fill:rgb(63.137255%,6.27451%,6.666667%);fill-opacity:1;" d="M 165.996094 80.128906 L 157.804688 131.941406 L 228.632812 132.285156 L 219.074219 80.472656 M 221.296875 130.296875 Z M 221.296875 130.296875 "/>
<path style=" stroke:none;fill-rule:evenodd;fill:rgb(83.921569%,8.235294%,9.019608%);fill-opacity:1;" d="M -192 288.40625 L 576.148438 288.40625 L 576.148438 384 L -192 384 Z M -192 288.40625 "/>
<path style=" stroke:none;fill-rule:evenodd;fill:rgb(63.137255%,6.27451%,6.666667%);fill-opacity:1;" d="M 62.003906 131.398438 L 322.914062 131.398438 L 322.914062 151.167969 L 62.003906 151.167969 Z M 62.003906 131.398438 "/>
<path style=" stroke:none;fill-rule:nonzero;fill:rgb(63.137255%,6.27451%,6.666667%);fill-opacity:1;" d="M 71.933594 148.988281 L 66.414062 247.710938 L 38.046875 248.050781 L 38.046875 263.917969 L 348.164062 263.917969 L 348.164062 248.050781 L 319.796875 248.394531 L 314.277344 149.453125 L 71.9375 148.980469 Z M 71.933594 148.988281 "/>
<path style=" stroke:none;fill-rule:nonzero;fill:rgb(83.921569%,8.235294%,9.019608%);fill-opacity:1;" d="M 153.421875 175.726562 L 153.421875 192.042969 L 157.421875 192.042969 L 157.421875 175.726562 L 153.421875 175.726562 M 159.425781 175.726562 L 159.425781 192.042969 L 191.457031 192.042969 L 191.457031 175.726562 L 159.425781 175.726562 M 193.457031 175.726562 L 193.457031 192.042969 L 223.488281 192.042969 L 223.488281 175.726562 L 193.457031 175.726562 M 225.488281 175.726562 L 225.488281 192.042969 L 231.496094 192.042969 L 231.496094 175.726562 Z M 225.488281 175.726562 "/>
<path style=" stroke:none;fill-rule:nonzero;fill:rgb(83.921569%,8.235294%,9.019608%);fill-opacity:1;" d="M 275.226562 192.007812 Z M 246.488281 175.707031 L 246.488281 192.363281 L 275.738281 192.363281 L 275.738281 176.0625 L 246.488281 175.703125 "/>
<path style=" stroke:none;fill-rule:nonzero;fill:rgb(83.921569%,8.235294%,9.019608%);fill-opacity:1;" d="M 237.503906 229.640625 L 237.503906 247.304688 L 259.523438 247.304688 L 259.523438 229.640625 L 237.503906 229.640625 M 261.527344 229.640625 L 261.527344 240.679688 L 265.53125 240.679688 L 265.53125 229.640625 L 261.527344 229.640625 M 289.550781 229.640625 L 289.550781 240.679688 L 293.554688 240.679688 L 293.554688 229.640625 L 289.550781 229.640625 M 295.558594 229.640625 L 295.558594 247.304688 L 317.578125 247.304688 L 317.578125 229.640625 Z M 295.558594 229.640625 "/>
<path style=" stroke:none;fill-rule:nonzero;fill:rgb(83.921569%,8.235294%,9.019608%);fill-opacity:1;" d="M 239.496094 211.671875 L 239.496094 227.648438 L 243.5 227.648438 L 243.5 211.671875 L 239.496094 211.671875 M 245.503906 211.671875 L 245.503906 227.648438 L 259.515625 227.648438 L 259.515625 211.671875 Z M 245.503906 211.671875 "/>
<path style=" stroke:none;fill-rule:nonzero;fill:rgb(83.921569%,8.235294%,9.019608%);fill-opacity:1;" d="M 295.550781 211.671875 L 295.550781 227.648438 L 309.902344 227.648438 L 309.902344 211.671875 L 295.550781 211.671875 M 311.953125 211.671875 L 311.953125 227.648438 L 316.054688 227.648438 L 316.054688 211.671875 Z M 311.953125 211.671875 "/>
<path style=" stroke:none;fill-rule:nonzero;fill:rgb(83.921569%,8.235294%,9.019608%);fill-opacity:1;" d="M 238.433594 151.417969 L 238.433594 155.753906 L 315.621094 155.753906 L 315.621094 151.417969 Z M 238.433594 151.417969 "/>
<path style=" stroke:none;fill-rule:nonzero;fill:rgb(83.921569%,8.235294%,9.019608%);fill-opacity:1;" d="M 76.171875 212.011719 L 76.171875 227.984375 L 89.699219 227.984375 L 89.699219 212.011719 Z M 76.171875 212.011719 "/>
<path style=" stroke:none;fill-rule:nonzero;fill:rgb(83.921569%,8.235294%,9.019608%);fill-opacity:1;" d="M 125.390625 211.671875 L 125.390625 228.328125 L 139.40625 228.328125 L 139.40625 211.671875 L 125.390625 211.671875 M 141.40625 211.671875 L 141.40625 228.328125 L 145.410156 228.328125 L 145.410156 211.671875 Z M 141.40625 211.671875 "/>
<path style=" stroke:none;fill-rule:nonzero;fill:rgb(83.921569%,8.235294%,9.019608%);fill-opacity:1;" d="M 152.40625 151.761719 L 152.40625 155.757812 L 231.984375 155.757812 L 231.984375 151.761719 Z M 152.40625 151.761719 "/>
<path style=" stroke:none;fill-rule:nonzero;fill:rgb(83.921569%,8.235294%,9.019608%);fill-opacity:1;" d="M 71.507812 152.109375 L 71.507812 156.101562 L 144.257812 156.101562 L 144.257812 152.109375 Z M 71.507812 152.109375 "/>
<path style=" stroke:none;fill-rule:nonzero;fill:rgb(100%,100%,100%);fill-opacity:1;" d="M 234.808594 150.398438 C 227.171875 150.960938 235.820312 222.425781 235.835938 244.710938 C 235.835938 244.710938 244.972656 155.078125 234.808594 150.398438 Z M 234.808594 150.398438 "/>
<path style=" stroke:none;fill-rule:nonzero;fill:rgb(83.921569%,8.235294%,9.019608%);fill-opacity:1;" d="M 63.332031 138.464844 L 63.332031 149.421875 L 321.582031 149.421875 L 321.582031 138.464844 Z M 63.332031 138.464844 "/>
<path style=" stroke:none;fill-rule:nonzero;fill:rgb(100%,100%,100%);fill-opacity:1;" d="M 147.425781 150.734375 C 139.789062 151.308594 148.4375 224.066406 148.453125 246.757812 C 148.453125 246.757812 157.589844 155.503906 147.425781 150.734375 Z M 147.425781 150.734375 "/>
<path style=" stroke:none;fill-rule:nonzero;fill:rgb(83.921569%,8.235294%,9.019608%);fill-opacity:1;" d="M 68.175781 212.011719 L 68.175781 227.984375 L 74.339844 227.984375 L 74.339844 212.011719 Z M 68.175781 212.011719 "/>
<path style=" stroke:none;fill-rule:nonzero;fill:rgb(83.921569%,8.235294%,9.019608%);fill-opacity:1;" d="M 68.019531 229.296875 L 68.019531 247.320312 L 90.039062 247.320312 L 89.921875 229.320312 L 68.019531 229.296875 M 89.65625 246.933594 Z M 89.65625 246.933594 "/>
<path style=" stroke:none;fill-rule:nonzero;fill:rgb(83.921569%,8.235294%,9.019608%);fill-opacity:1;" d="M 341.023438 262.386719 Z M 38.664062 248.757812 L 38.664062 262.683594 L 346.402344 262.683594 L 346.402344 249.054688 L 38.664062 248.757812 "/>
<path style=" stroke:none;fill-rule:nonzero;fill:rgb(83.921569%,8.235294%,9.019608%);fill-opacity:1;" d="M 125.371094 229.640625 L 125.371094 247.0625 L 146.707031 247.0625 L 146.707031 229.660156 L 125.371094 229.640625 M 146.335938 246.691406 Z M 146.335938 246.691406 "/>
<path style=" stroke:none;fill-rule:nonzero;fill:rgb(83.921569%,8.235294%,9.019608%);fill-opacity:1;" d="M 151.3125 229.296875 L 151.3125 246.957031 L 173.332031 246.957031 L 173.214844 229.320312 L 151.3125 229.296875 M 172.949219 246.582031 Z M 172.949219 246.582031 "/>
<path style=" stroke:none;fill-rule:nonzero;fill:rgb(83.921569%,8.235294%,9.019608%);fill-opacity:1;" d="M 209.683594 229.640625 L 209.683594 247.304688 L 234.09375 247.304688 L 233.976562 229.664062 L 209.683594 229.640625 M 233.667969 246.925781 Z M 233.667969 246.925781 "/>
<path style=" stroke:none;fill-rule:nonzero;fill:rgb(83.921569%,8.235294%,9.019608%);fill-opacity:1;" d="M 104.609375 192.335938 Z M 75.953125 175.367188 L 75.953125 192.707031 L 105.121094 192.707031 L 105.121094 175.738281 L 75.953125 175.367188 "/>
<path style=" stroke:none;fill-rule:nonzero;fill:rgb(83.921569%,8.235294%,9.019608%);fill-opacity:1;" d="M 73.261719 192.34375 Z M 70.410156 175.710938 L 70.410156 192.707031 L 73.3125 192.707031 L 73.3125 176.070312 L 70.410156 175.707031 "/>
<path style=" stroke:none;fill-rule:nonzero;fill:rgb(83.921569%,8.235294%,9.019608%);fill-opacity:1;" d="M 137.632812 192.675781 Z M 107.277344 175.707031 L 107.277344 193.046875 L 138.171875 193.046875 L 138.171875 176.078125 L 107.277344 175.707031 "/>
<path style=" stroke:none;fill-rule:nonzero;fill:rgb(83.921569%,8.235294%,9.019608%);fill-opacity:1;" d="M 143.226562 192.683594 Z M 139.703125 176.046875 L 139.703125 193.046875 L 143.289062 193.046875 L 143.289062 176.410156 L 139.703125 176.046875 "/>
<path style=" stroke:none;fill-rule:nonzero;fill:rgb(83.921569%,8.235294%,9.019608%);fill-opacity:1;" d="M 259.671875 209.773438 Z M 239.378906 194.140625 L 239.378906 210.117188 L 260.035156 210.117188 L 260.035156 194.484375 L 239.378906 194.140625 "/>
<path style=" stroke:none;fill-rule:nonzero;fill:rgb(83.921569%,8.235294%,9.019608%);fill-opacity:1;" d="M 315.652344 209.445312 Z M 295.023438 194.480469 L 295.023438 209.773438 L 316.019531 209.773438 L 316.019531 194.804688 L 295.023438 194.480469 "/>
<path style=" stroke:none;fill-rule:nonzero;fill:rgb(83.921569%,8.235294%,9.019608%);fill-opacity:1;" d="M 292.613281 209.78125 Z M 262.671875 194.484375 L 262.671875 210.117188 L 293.144531 210.117188 L 293.144531 194.816406 L 262.671875 194.484375 "/>
<path style=" stroke:none;fill-rule:nonzero;fill:rgb(100%,100%,100%);fill-opacity:1;" d="M 236.421875 137.941406 Z M 232.898438 130.992188 L 232.898438 138.089844 L 236.484375 138.089844 L 236.484375 131.144531 L 232.898438 130.992188 "/>
<path style=" stroke:none;fill-rule:nonzero;fill:rgb(83.921569%,8.235294%,9.019608%);fill-opacity:1;" d="M 243.921875 191.675781 Z M 240.0625 175.710938 L 240.0625 192.027344 L 243.992188 192.027344 L 243.992188 176.058594 L 240.0625 175.710938 "/>
<path style=" stroke:none;fill-rule:nonzero;fill:rgb(83.921569%,8.235294%,9.019608%);fill-opacity:1;" d="M 306.367188 192.015625 Z M 278.578125 176.046875 L 278.578125 192.363281 L 306.859375 192.363281 L 306.859375 176.394531 L 278.578125 176.046875 "/>
<path style=" stroke:none;fill-rule:nonzero;fill:rgb(83.921569%,8.235294%,9.019608%);fill-opacity:1;" d="M 314.894531 192.015625 Z M 309.359375 176.046875 L 309.359375 192.363281 L 314.992188 192.363281 L 314.992188 176.394531 L 309.359375 176.046875 "/>
<path style=" stroke:none;fill-rule:nonzero;fill:rgb(83.921569%,8.235294%,9.019608%);fill-opacity:1;" d="M 257.332031 173.917969 Z M 239.722656 157.617188 L 239.722656 174.273438 L 257.644531 174.273438 L 257.644531 157.972656 L 239.722656 157.613281 "/>
<path style=" stroke:none;fill-rule:nonzero;fill:rgb(83.921569%,8.235294%,9.019608%);fill-opacity:1;" d="M 291.90625 173.925781 Z M 260.488281 157.957031 L 260.488281 174.273438 L 292.464844 174.273438 L 292.464844 158.304688 L 260.488281 157.957031 "/>
<path style=" stroke:none;fill-rule:nonzero;fill:rgb(83.921569%,8.235294%,9.019608%);fill-opacity:1;" d="M 313.289062 173.917969 Z M 294.335938 157.617188 L 294.335938 174.273438 L 313.625 174.273438 L 313.625 157.972656 L 294.335938 157.613281 "/>
<path style=" stroke:none;fill-rule:nonzero;fill:rgb(83.921569%,8.235294%,9.019608%);fill-opacity:1;" d="M 151.3125 210.863281 L 151.3125 227.179688 L 160.363281 227.179688 L 160.363281 210.96875 L 151.3125 210.863281 M 160.203125 226.828125 Z M 160.203125 226.828125 "/>
<path style=" stroke:none;fill-rule:nonzero;fill:rgb(83.921569%,8.235294%,9.019608%);fill-opacity:1;" d="M 162.234375 211.207031 L 162.234375 227.523438 L 173.429688 227.523438 L 173.429688 211.316406 L 162.234375 211.207031 M 173.234375 227.175781 Z M 173.234375 227.175781 "/>
<path style=" stroke:none;fill-rule:nonzero;fill:rgb(83.921569%,8.235294%,9.019608%);fill-opacity:1;" d="M 209.683594 211.550781 L 209.683594 227.867188 L 224.195312 227.867188 L 224.195312 211.539062 L 209.683594 211.550781 M 223.941406 227.519531 Z M 223.941406 227.519531 "/>
<path style=" stroke:none;fill-rule:nonzero;fill:rgb(83.921569%,8.235294%,9.019608%);fill-opacity:1;" d="M 233.28125 227.519531 Z M 226.066406 211.550781 L 226.066406 227.867188 L 233.40625 227.867188 L 233.40625 211.902344 L 226.066406 211.550781 "/>
<path style=" stroke:none;fill-rule:nonzero;fill:rgb(83.921569%,8.235294%,9.019608%);fill-opacity:1;" d="M 69.460938 151.078125 L 69.460938 154.390625 L 146.648438 154.390625 L 146.648438 151.078125 Z M 69.460938 151.078125 "/>
<path style=" stroke:none;fill-rule:nonzero;fill:rgb(83.921569%,8.235294%,9.019608%);fill-opacity:1;" d="M 148.648438 151.078125 L 148.648438 154.390625 L 234.03125 154.390625 L 234.03125 151.078125 Z M 148.648438 151.078125 "/>
<path style=" stroke:none;fill-rule:nonzero;fill:rgb(83.921569%,8.235294%,9.019608%);fill-opacity:1;" d="M 235.980469 150.734375 L 235.980469 154.046875 L 317.664062 154.046875 L 317.664062 150.734375 Z M 235.980469 150.734375 "/>
<path style=" stroke:none;fill-rule:nonzero;fill:rgb(83.921569%,8.235294%,9.019608%);fill-opacity:1;" d="M 89.339844 210.105469 Z M 69.046875 194.136719 L 69.046875 210.453125 L 89.699219 210.453125 L 89.699219 194.484375 L 69.046875 194.136719 "/>
<path style=" stroke:none;fill-rule:nonzero;fill:rgb(83.921569%,8.235294%,9.019608%);fill-opacity:1;" d="M 144.328125 210.105469 Z M 125.710938 194.136719 L 125.710938 210.453125 L 144.660156 210.453125 L 144.660156 194.484375 L 125.710938 194.136719 "/>
<path style=" stroke:none;fill-rule:nonzero;fill:rgb(83.921569%,8.235294%,9.019608%);fill-opacity:1;" d="M 92.199219 194.484375 L 92.199219 210.796875 L 123.835938 210.796875 L 123.957031 194.589844 L 92.199219 194.480469 M 123.28125 210.449219 Z M 123.28125 210.449219 "/>
<path style=" stroke:none;fill-rule:nonzero;fill:rgb(83.921569%,8.235294%,9.019608%);fill-opacity:1;" d="M 152.675781 193.453125 L 152.675781 209.769531 L 173.675781 209.769531 L 173.792969 193.5625 L 152.679688 193.453125 M 173.308594 209.421875 Z M 173.308594 209.421875 "/>
<path style=" stroke:none;fill-rule:nonzero;fill:rgb(83.921569%,8.235294%,9.019608%);fill-opacity:1;" d="M 207.578125 209.421875 Z M 175.207031 193.453125 L 175.207031 209.769531 L 208.152344 209.769531 L 208.03125 193.683594 L 175.207031 193.453125 "/>
<path style=" stroke:none;fill-rule:nonzero;fill:rgb(83.921569%,8.235294%,9.019608%);fill-opacity:1;" d="M 210.023438 193.800781 L 210.023438 210.117188 L 231.359375 210.117188 L 231.480469 193.785156 L 210.023438 193.800781 M 230.988281 209.765625 Z M 230.988281 209.765625 "/>
<path style=" stroke:none;fill-rule:nonzero;fill:rgb(83.921569%,8.235294%,9.019608%);fill-opacity:1;" d="M 174.316406 173.242188 Z M 153.011719 157.273438 L 153.011719 173.589844 L 174.691406 173.589844 L 174.691406 157.625 L 153.011719 157.273438 "/>
<path style=" stroke:none;fill-rule:nonzero;fill:rgb(83.921569%,8.235294%,9.019608%);fill-opacity:1;" d="M 208.320312 173.574219 Z M 176.226562 157.269531 L 176.226562 173.929688 L 208.890625 173.929688 L 208.890625 157.625 L 176.226562 157.269531 "/>
<path style=" stroke:none;fill-rule:nonzero;fill:rgb(83.921569%,8.235294%,9.019608%);fill-opacity:1;" d="M 230.003906 173.574219 Z M 211.050781 157.269531 L 211.050781 173.929688 L 230.339844 173.929688 L 230.339844 157.625 L 211.050781 157.269531 "/>
<path style=" stroke:none;fill-rule:nonzero;fill:rgb(63.137255%,6.27451%,6.666667%);fill-opacity:1;" d="M 140.046875 136.785156 Z M 84.75 89.6875 L 76.554688 138.429688 L 143.289062 137.75 L 135.777344 88.667969 "/>
<path style=" stroke:none;fill-rule:nonzero;fill:rgb(83.921569%,8.235294%,9.019608%);fill-opacity:1;" d="M 165.464844 92.878906 L 163.425781 100.867188 L 191.964844 100.867188 L 191.964844 92.878906 L 165.464844 92.878906 M 194.003906 92.878906 L 194.003906 100.867188 L 220.503906 100.867188 L 220.503906 92.878906 Z M 194.003906 92.878906 "/>
<path style=" stroke:none;fill-rule:nonzero;fill:rgb(83.921569%,8.235294%,9.019608%);fill-opacity:1;" d="M 163.425781 102.863281 L 163.425781 110.851562 L 173.550781 110.851562 L 173.550781 102.863281 L 163.425781 102.863281 M 175.578125 102.863281 L 175.578125 110.851562 L 207.984375 110.851562 L 207.984375 102.863281 L 175.578125 102.863281 M 210.011719 102.863281 L 210.011719 110.851562 L 222.164062 110.851562 L 222.164062 102.863281 Z M 210.011719 102.863281 "/>
<path style=" stroke:none;fill-rule:nonzero;fill:rgb(83.921569%,8.235294%,9.019608%);fill-opacity:1;" d="M 167.476562 82.898438 L 165.433594 90.886719 L 173.597656 90.886719 L 173.597656 82.898438 L 167.476562 82.898438 M 175.640625 82.898438 L 175.640625 90.886719 L 208.300781 90.886719 L 208.300781 82.898438 L 175.640625 82.898438 M 210.34375 82.898438 L 210.34375 90.886719 L 218.507812 90.886719 L 218.507812 82.898438 Z M 210.34375 82.898438 "/>
<path style=" stroke:none;fill-rule:nonzero;fill:rgb(83.921569%,8.235294%,9.019608%);fill-opacity:1;" d="M 157.425781 64.921875 L 157.425781 68.917969 L 191.800781 68.917969 L 191.800781 64.921875 L 157.425781 64.921875 M 193.820312 64.921875 L 193.820312 68.917969 L 226.171875 68.917969 L 226.171875 64.921875 Z M 193.820312 64.921875 "/>
<path style=" stroke:none;fill-rule:nonzero;fill:rgb(83.921569%,8.235294%,9.019608%);fill-opacity:1;" d="M 157.425781 70.914062 L 157.425781 74.910156 L 173.441406 74.910156 L 173.441406 70.914062 L 157.425781 70.914062 M 175.441406 70.914062 L 175.441406 74.910156 L 207.472656 74.910156 L 207.472656 70.914062 L 175.441406 70.914062 M 209.476562 70.914062 L 209.476562 74.910156 L 225.492188 74.910156 L 225.492188 70.914062 Z M 209.476562 70.914062 "/>
<path style=" stroke:none;fill-rule:nonzero;fill:rgb(83.921569%,8.235294%,9.019608%);fill-opacity:1;" d="M 183.449219 58.933594 L 183.449219 62.925781 L 201.46875 62.925781 L 201.46875 58.933594 Z M 183.449219 58.933594 "/>
<path style=" stroke:none;fill-rule:nonzero;fill:rgb(83.921569%,8.235294%,9.019608%);fill-opacity:1;" d="M 63.332031 132.816406 L 63.332031 136.8125 L 79.347656 136.8125 L 79.347656 132.816406 Z M 63.332031 132.816406 "/>
<path style=" stroke:none;fill-rule:nonzero;fill:rgb(83.921569%,8.235294%,9.019608%);fill-opacity:1;" d="M 305.566406 132.816406 L 305.566406 136.8125 L 321.582031 136.8125 L 321.582031 132.816406 Z M 305.566406 132.816406 "/>
<path style=" stroke:none;fill-rule:nonzero;fill:rgb(83.921569%,8.235294%,9.019608%);fill-opacity:1;" d="M 95.574219 136.996094 Z M 80.308594 133.722656 L 80.308594 137.066406 L 95.84375 137.066406 L 95.84375 133.792969 L 80.308594 133.722656 "/>
<path style=" stroke:none;fill-rule:nonzero;fill:rgb(83.921569%,8.235294%,9.019608%);fill-opacity:1;" d="M 129.742188 137.347656 Z M 116.492188 134.546875 L 116.492188 137.410156 L 129.976562 137.410156 L 129.976562 134.609375 L 116.492188 134.546875 "/>
<path style=" stroke:none;fill-rule:nonzero;fill:rgb(100%,100%,100%);fill-opacity:1;" d="M 152.4375 138.253906 Z M 148.578125 130.304688 L 148.578125 138.429688 L 152.507812 138.429688 L 152.507812 130.480469 L 148.578125 130.304688 "/>
<path style=" stroke:none;fill-rule:nonzero;fill:rgb(83.921569%,8.235294%,9.019608%);fill-opacity:1;" d="M 93.21875 132.066406 Z M 79.964844 122.25 L 79.964844 132.28125 L 93.453125 132.28125 L 93.453125 122.464844 L 79.964844 122.25 "/>
<path style=" stroke:none;fill-rule:nonzero;fill:rgb(83.921569%,8.235294%,9.019608%);fill-opacity:1;" d="M 101.183594 132.074219 Z M 94.304688 122.59375 L 94.304688 132.28125 L 101.304688 132.28125 L 101.304688 122.800781 L 94.304688 122.59375 "/>
<path style=" stroke:none;fill-rule:nonzero;fill:rgb(83.921569%,8.235294%,9.019608%);fill-opacity:1;" d="M 140.347656 133.066406 Z M 128.4375 121.914062 L 128.4375 133.308594 L 140.558594 133.308594 L 140.558594 122.15625 L 128.4375 121.914062 "/>
<path style=" stroke:none;fill-rule:nonzero;fill:rgb(83.921569%,8.235294%,9.019608%);fill-opacity:1;" d="M 126.121094 132.136719 Z M 116.835938 122.398438 L 116.835938 132.347656 L 126.285156 132.347656 L 126.285156 122.613281 L 116.835938 122.398438 "/>
<path style=" stroke:none;fill-rule:nonzero;fill:rgb(63.137255%,6.27451%,6.666667%);fill-opacity:1;" d="M 144.734375 136.273438 Z M 129.804688 131.332031 L 129.804688 136.382812 L 145 136.382812 L 145 131.4375 L 129.804688 131.332031 "/>
<path style=" stroke:none;fill-rule:nonzero;fill:rgb(63.137255%,6.27451%,6.666667%);fill-opacity:1;" d="M 221.296875 130.296875 Z M 165.65625 80.476562 L 157.117188 74.9375 L 227.269531 74.9375 L 219.414062 81.15625 "/>
<path style=" stroke:none;fill-rule:nonzero;fill:rgb(83.921569%,8.235294%,9.019608%);fill-opacity:1;" d="M 158.191406 58.933594 L 158.191406 62.925781 L 176.207031 62.925781 L 176.207031 58.933594 Z M 158.191406 58.933594 "/>
<path style=" stroke:none;fill-rule:nonzero;fill:rgb(83.921569%,8.235294%,9.019608%);fill-opacity:1;" d="M 207.683594 59.273438 L 207.683594 63.269531 L 226.722656 63.269531 L 226.722656 59.273438 Z M 207.683594 59.273438 "/>
<path style=" stroke:none;fill-rule:nonzero;fill:rgb(83.921569%,8.235294%,9.019608%);fill-opacity:1;" d="M 216.15625 81.058594 Z M 166 79.789062 L 166 81.085938 L 217.035156 81.085938 L 217.035156 79.816406 L 166 79.789062 "/>
<path style=" stroke:none;fill-rule:nonzero;fill:rgb(83.921569%,8.235294%,9.019608%);fill-opacity:1;" d="M 218.789062 80.375 Z M 163.265625 79.105469 L 163.265625 80.402344 L 219.765625 80.402344 L 219.765625 79.132812 L 163.265625 79.105469 "/>
<path style=" stroke:none;fill-rule:nonzero;fill:rgb(83.921569%,8.235294%,9.019608%);fill-opacity:1;" d="M 221.125 79.351562 Z M 162.917969 78.082031 L 162.917969 79.378906 L 222.148438 79.378906 L 222.148438 78.109375 L 162.917969 78.082031 "/>
<path style=" stroke:none;fill-rule:nonzero;fill:rgb(83.921569%,8.235294%,9.019608%);fill-opacity:1;" d="M 221.125 79.351562 Z M 162.917969 78.082031 L 162.917969 79.378906 L 222.148438 79.378906 L 222.148438 78.109375 L 162.917969 78.082031 "/>
<path style=" stroke:none;fill-rule:nonzero;fill:rgb(83.921569%,8.235294%,9.019608%);fill-opacity:1;" d="M 222.800781 77.984375 Z M 162.246094 76.714844 L 162.246094 78.011719 L 223.863281 78.011719 L 223.863281 76.742188 L 162.246094 76.714844 "/>
<path style=" stroke:none;fill-rule:nonzero;fill:rgb(83.921569%,8.235294%,9.019608%);fill-opacity:1;" d="M 182.339844 137.011719 Z M 170.429688 134.40625 L 170.429688 137.066406 L 182.550781 137.066406 L 182.550781 134.460938 L 170.429688 134.40625 "/>
<path style=" stroke:none;fill-rule:nonzero;fill:rgb(83.921569%,8.235294%,9.019608%);fill-opacity:1;" d="M 212.40625 137.011719 Z M 202.175781 134.40625 L 202.175781 137.066406 L 212.589844 137.066406 L 212.589844 134.460938 L 202.175781 134.40625 "/>
<path style=" stroke:none;fill-rule:nonzero;fill:rgb(83.921569%,8.235294%,9.019608%);fill-opacity:1;" d="M 88.042969 173.910156 Z M 71.773438 157.273438 L 71.773438 174.273438 L 88.332031 174.273438 L 88.332031 157.636719 L 71.773438 157.273438 "/>
<path style=" stroke:none;fill-rule:nonzero;fill:rgb(83.921569%,8.235294%,9.019608%);fill-opacity:1;" d="M 182.144531 133.085938 Z M 159.503906 122.800781 L 159.503906 133.3125 L 182.546875 133.3125 L 182.546875 123.023438 L 159.503906 122.800781 "/>
<path style=" stroke:none;fill-rule:nonzero;fill:rgb(83.921569%,8.235294%,9.019608%);fill-opacity:1;" d="M 226.925781 133.085938 Z M 207.71875 122.800781 L 207.71875 133.3125 L 227.269531 133.3125 L 227.269531 123.023438 L 207.71875 122.800781 "/>
<path style=" stroke:none;fill-rule:nonzero;fill:rgb(83.921569%,8.235294%,9.019608%);fill-opacity:1;" d="M 204.984375 133.085938 Z M 199.445312 122.800781 L 199.445312 133.3125 L 205.082031 133.3125 L 205.082031 123.023438 L 199.445312 122.800781 "/>
<path style=" stroke:none;fill-rule:nonzero;fill:rgb(63.137255%,6.27451%,6.666667%);fill-opacity:1;" d="M 170.03125 136.605469 Z M 157.453125 131.328125 L 157.453125 136.71875 L 170.257812 136.71875 L 170.257812 131.441406 L 157.453125 131.328125 "/>
<path style=" stroke:none;fill-rule:nonzero;fill:rgb(83.921569%,8.235294%,9.019608%);fill-opacity:1;" d="M 131.398438 132.816406 L 131.398438 137.152344 L 147.414062 137.152344 L 147.414062 132.816406 L 131.398438 132.816406 M 153.421875 132.816406 L 153.421875 137.152344 L 169.4375 137.152344 L 169.4375 132.816406 Z M 153.421875 132.816406 "/>
<path style=" stroke:none;fill-rule:nonzero;fill:rgb(63.137255%,6.27451%,6.666667%);fill-opacity:1;" d="M 228.015625 136.613281 Z M 212.75 131.667969 L 212.75 136.71875 L 228.285156 136.71875 L 228.285156 131.777344 L 212.75 131.667969 "/>
<path style=" stroke:none;fill-rule:nonzero;fill:rgb(83.921569%,8.235294%,9.019608%);fill-opacity:1;" d="M 123.921875 173.917969 Z M 90.488281 157.617188 L 90.488281 174.273438 L 124.515625 174.273438 L 124.515625 157.972656 L 90.488281 157.613281 "/>
<path style=" stroke:none;fill-rule:nonzero;fill:rgb(83.921569%,8.235294%,9.019608%);fill-opacity:1;" d="M 143.324219 173.917969 Z M 126.046875 157.617188 L 126.046875 174.273438 L 143.632812 174.273438 L 143.632812 157.972656 L 126.046875 157.613281 "/>
<path style=" stroke:none;fill-rule:nonzero;fill:rgb(83.921569%,8.235294%,9.019608%);fill-opacity:1;" d="M 191.234375 121.171875 Z M 161.214844 112.21875 L 161.214844 121.367188 L 191.769531 121.367188 L 191.769531 112.414062 L 161.214844 112.21875 "/>
<path style=" stroke:none;fill-rule:nonzero;fill:rgb(83.921569%,8.235294%,9.019608%);fill-opacity:1;" d="M 223.65625 121.507812 Z M 193.636719 112.554688 L 193.636719 121.703125 L 224.191406 121.703125 L 224.191406 112.75 L 193.636719 112.554688 "/>
<path style=" stroke:none;fill-rule:evenodd;fill:rgb(63.137255%,6.27451%,6.666667%);fill-opacity:1;" d="M 126.554688 66.722656 L 144.304688 66.722656 L 144.304688 71.84375 L 126.554688 71.84375 Z M 126.554688 66.722656 "/>
<path style=" stroke:none;fill-rule:evenodd;fill:rgb(63.137255%,6.27451%,6.666667%);fill-opacity:1;" d="M 100.613281 66.378906 L 120.410156 66.378906 L 120.410156 72.183594 L 100.613281 72.183594 Z M 100.613281 66.378906 "/>
<path style=" stroke:none;fill-rule:evenodd;fill:rgb(63.137255%,6.27451%,6.666667%);fill-opacity:1;" d="M 78.765625 66.722656 L 94.46875 66.722656 L 94.46875 71.84375 L 78.765625 71.84375 Z M 78.765625 66.722656 "/>
<path style=" stroke:none;fill-rule:nonzero;fill:rgb(63.137255%,6.27451%,6.666667%);fill-opacity:1;" d="M 142.175781 81.929688 Z M 84.714844 90.03125 L 78.605469 81.425781 L 144.320312 81.765625 L 136.445312 88.949219 "/>
<path style=" stroke:none;fill-rule:nonzero;fill:rgb(83.921569%,8.235294%,9.019608%);fill-opacity:1;" d="M 79.351562 76.90625 L 79.351562 80.898438 L 93.363281 80.898438 L 93.363281 76.90625 L 79.351562 76.90625 M 95.367188 76.90625 L 95.367188 80.898438 L 127.394531 80.898438 L 127.394531 76.90625 L 95.367188 76.90625 M 129.398438 76.90625 L 129.398438 80.898438 L 143.410156 80.898438 L 143.410156 76.90625 Z M 129.398438 76.90625 "/>
<path style=" stroke:none;fill-rule:nonzero;fill:rgb(83.921569%,8.235294%,9.019608%);fill-opacity:1;" d="M 79.351562 67.601562 L 79.351562 71.113281 L 93.363281 71.113281 L 93.363281 67.601562 L 79.351562 67.601562 M 101.371094 67.601562 L 101.371094 71.113281 L 119.386719 71.113281 L 119.386719 67.601562 Z M 101.371094 67.601562 "/>
<path style=" stroke:none;fill-rule:nonzero;fill:rgb(83.921569%,8.235294%,9.019608%);fill-opacity:1;" d="M 127.394531 67.945312 L 127.394531 70.972656 L 143.410156 70.972656 L 143.410156 67.945312 Z M 127.394531 67.945312 "/>
<path style=" stroke:none;fill-rule:evenodd;fill:rgb(63.137255%,6.27451%,6.666667%);fill-opacity:1;" d="M 78.765625 71.84375 L 144.304688 71.84375 L 144.304688 82.082031 L 78.765625 82.082031 Z M 78.765625 71.84375 "/>
<path style=" stroke:none;fill-rule:nonzero;fill:rgb(83.921569%,8.235294%,9.019608%);fill-opacity:1;" d="M 106.71875 120.164062 Z M 81.332031 112.351562 L 81.332031 120.335938 L 107.167969 120.335938 L 107.167969 112.523438 L 81.332031 112.351562 "/>
<path style=" stroke:none;fill-rule:nonzero;fill:rgb(83.921569%,8.235294%,9.019608%);fill-opacity:1;" d="M 138.667969 120.164062 Z M 108.828125 112.351562 L 108.828125 120.335938 L 139.199219 120.335938 L 139.199219 112.523438 L 108.828125 112.351562 "/>
<path style=" stroke:none;fill-rule:nonzero;fill:rgb(83.921569%,8.235294%,9.019608%);fill-opacity:1;" d="M 109.980469 75.898438 Z M 79.621094 72.960938 L 79.621094 75.964844 L 110.519531 75.964844 L 110.519531 73.023438 L 79.621094 72.960938 "/>
<path style=" stroke:none;fill-rule:nonzero;fill:rgb(83.921569%,8.235294%,9.019608%);fill-opacity:1;" d="M 93.601562 110.257812 Z M 82.695312 101.972656 L 82.695312 110.4375 L 93.792969 110.4375 L 93.792969 102.152344 L 82.695312 101.972656 "/>
<path style=" stroke:none;fill-rule:nonzero;fill:rgb(83.921569%,8.235294%,9.019608%);fill-opacity:1;" d="M 125.414062 110.28125 Z M 95.949219 102.941406 L 95.949219 110.441406 L 125.9375 110.441406 L 125.9375 103.101562 L 95.949219 102.941406 "/>
<path style=" stroke:none;fill-rule:nonzero;fill:rgb(83.921569%,8.235294%,9.019608%);fill-opacity:1;" d="M 137.664062 110.601562 Z M 128.101562 102.316406 L 128.101562 110.785156 L 137.832031 110.785156 L 137.832031 102.5 L 128.101562 102.316406 "/>
<path style=" stroke:none;fill-rule:nonzero;fill:rgb(83.921569%,8.235294%,9.019608%);fill-opacity:1;" d="M 108.773438 101.0625 Z M 84.058594 93.722656 L 84.058594 101.222656 L 109.210938 101.222656 L 109.210938 93.882812 L 84.058594 93.722656 "/>
<path style=" stroke:none;fill-rule:nonzero;fill:rgb(83.921569%,8.235294%,9.019608%);fill-opacity:1;" d="M 136.363281 101.0625 Z M 111.375 93.722656 L 111.375 101.222656 L 136.808594 101.222656 L 136.808594 93.882812 L 111.375 93.722656 "/>
<path style=" stroke:none;fill-rule:nonzero;fill:rgb(83.921569%,8.235294%,9.019608%);fill-opacity:1;" d="M 128.648438 91.941406 Z M 91.917969 89.003906 L 91.917969 92.007812 L 129.300781 92.007812 L 129.300781 89.066406 L 91.917969 89.003906 "/>
<path style=" stroke:none;fill-rule:nonzero;fill:rgb(83.921569%,8.235294%,9.019608%);fill-opacity:1;" d="M 135.34375 91.941406 Z M 130.144531 89.003906 L 130.144531 92.007812 L 135.4375 92.007812 L 135.4375 89.066406 L 130.144531 89.003906 "/>
<path style=" stroke:none;fill-rule:nonzero;fill:rgb(83.921569%,8.235294%,9.019608%);fill-opacity:1;" d="M 90.613281 91.941406 Z M 84.742188 89.003906 L 84.742188 92.007812 L 90.71875 92.007812 L 90.71875 89.066406 L 84.742188 89.003906 "/>
<path style=" stroke:none;fill-rule:nonzero;fill:rgb(83.921569%,8.235294%,9.019608%);fill-opacity:1;" d="M 143.09375 75.898438 Z M 112.679688 72.960938 L 112.679688 75.964844 L 143.632812 75.964844 L 143.632812 73.023438 L 112.679688 72.960938 "/>
<path style=" stroke:none;fill-rule:nonzero;fill:rgb(83.921569%,8.235294%,9.019608%);fill-opacity:1;" d="M 94.898438 82.359375 Z M 79.96875 78.164062 L 79.96875 82.449219 L 95.164062 82.449219 L 95.164062 78.253906 L 79.96875 78.164062 "/>
<path style=" stroke:none;fill-rule:nonzero;fill:rgb(83.921569%,8.235294%,9.019608%);fill-opacity:1;" d="M 125.070312 81.878906 Z M 98.621094 78.015625 L 98.621094 81.960938 L 125.539062 81.960938 L 125.539062 78.101562 L 98.621094 78.015625 "/>
<path style=" stroke:none;fill-rule:nonzero;fill:rgb(83.921569%,8.235294%,9.019608%);fill-opacity:1;" d="M 143.023438 81.886719 Z M 128.179688 78.164062 L 128.179688 81.964844 L 143.289062 81.964844 L 143.289062 78.246094 L 128.179688 78.164062 "/>
<path style=" stroke:none;fill-rule:nonzero;fill:rgb(83.921569%,8.235294%,9.019608%);fill-opacity:1;" d="M 134.226562 87.402344 Z M 84.070312 86.273438 L 84.070312 87.425781 L 135.105469 87.425781 L 135.105469 86.296875 L 84.070312 86.273438 "/>
<path style=" stroke:none;fill-rule:nonzero;fill:rgb(83.921569%,8.235294%,9.019608%);fill-opacity:1;" d="M 136.859375 86.796875 Z M 81.335938 85.667969 L 81.335938 86.820312 L 137.835938 86.820312 L 137.835938 85.691406 L 81.335938 85.667969 "/>
<path style=" stroke:none;fill-rule:nonzero;fill:rgb(83.921569%,8.235294%,9.019608%);fill-opacity:1;" d="M 139.195312 85.882812 Z M 80.988281 84.753906 L 80.988281 85.910156 L 140.21875 85.910156 L 140.21875 84.78125 L 80.988281 84.753906 "/>
<path style=" stroke:none;fill-rule:nonzero;fill:rgb(83.921569%,8.235294%,9.019608%);fill-opacity:1;" d="M 139.195312 85.882812 Z M 80.988281 84.753906 L 80.988281 85.910156 L 140.21875 85.910156 L 140.21875 84.78125 L 80.988281 84.753906 "/>
<path style=" stroke:none;fill-rule:nonzero;fill:rgb(83.921569%,8.235294%,9.019608%);fill-opacity:1;" d="M 140.871094 84.667969 Z M 80.3125 83.539062 L 80.3125 84.695312 L 141.933594 84.695312 L 141.933594 83.566406 L 80.3125 83.539062 "/>
<path style=" stroke:none;fill-rule:nonzero;fill:rgb(83.921569%,8.235294%,9.019608%);fill-opacity:1;" d="M 265.640625 137.003906 Z M 254.402344 134.0625 L 254.402344 137.066406 L 265.84375 137.066406 L 265.84375 134.128906 L 254.402344 134.0625 "/>
<path style=" stroke:none;fill-rule:nonzero;fill:rgb(83.921569%,8.235294%,9.019608%);fill-opacity:1;" d="M 303.425781 136.65625 Z M 286.488281 133.71875 L 286.488281 136.722656 L 303.730469 136.722656 L 303.730469 133.78125 L 286.488281 133.71875 "/>
<path style=" stroke:none;fill-rule:nonzero;fill:rgb(83.921569%,8.235294%,9.019608%);fill-opacity:1;" d="M 305.167969 132.425781 Z M 290.042969 123.199219 L 290.042969 132.628906 L 305.4375 132.628906 L 305.4375 123.402344 L 290.042969 123.199219 "/>
<path style=" stroke:none;fill-rule:nonzero;fill:rgb(83.921569%,8.235294%,9.019608%);fill-opacity:1;" d="M 287.917969 132.421875 Z M 281.734375 122.855469 L 281.734375 132.628906 L 288.027344 132.628906 L 288.027344 123.066406 L 281.734375 122.855469 "/>
<path style=" stroke:none;fill-rule:nonzero;fill:rgb(83.921569%,8.235294%,9.019608%);fill-opacity:1;" d="M 255.375 132.742188 Z M 242.792969 122.511719 L 242.792969 132.964844 L 255.597656 132.964844 L 255.597656 122.734375 L 242.792969 122.511719 "/>
<path style=" stroke:none;fill-rule:nonzero;fill:rgb(83.921569%,8.235294%,9.019608%);fill-opacity:1;" d="M 265.695312 132.742188 Z M 257.75 122.371094 L 257.75 132.96875 L 265.835938 132.96875 L 265.835938 122.597656 L 257.75 122.371094 "/>
<path style=" stroke:none;fill-rule:nonzero;fill:rgb(63.137255%,6.27451%,6.666667%);fill-opacity:1;" d="M 253.996094 137.273438 Z M 240.742188 131.328125 L 240.742188 137.402344 L 254.230469 137.402344 L 254.230469 131.457031 L 240.742188 131.328125 "/>
<path style=" stroke:none;fill-rule:nonzero;fill:rgb(83.921569%,8.235294%,9.019608%);fill-opacity:1;" d="M 214.15625 132.816406 L 214.15625 137.152344 L 231.863281 137.152344 L 231.863281 132.816406 L 214.15625 132.816406 M 237.769531 132.816406 L 237.769531 137.152344 L 253.511719 137.152344 L 253.511719 132.816406 Z M 237.769531 132.816406 "/>
<path style=" stroke:none;fill-rule:nonzero;fill:rgb(83.921569%,8.235294%,9.019608%);fill-opacity:1;" d="M 223.6875 121.507812 Z M 195.089844 112.554688 L 195.089844 121.703125 L 224.195312 121.703125 L 224.195312 112.75 L 195.089844 112.554688 "/>
<path style=" stroke:none;fill-rule:evenodd;fill:rgb(63.137255%,6.27451%,6.666667%);fill-opacity:1;" d="M 290.746094 66.640625 L 308.496094 66.640625 L 308.496094 71.757812 L 290.746094 71.757812 Z M 290.746094 66.640625 "/>
<path style=" stroke:none;fill-rule:evenodd;fill:rgb(63.137255%,6.27451%,6.666667%);fill-opacity:1;" d="M 264.800781 66.296875 L 284.601562 66.296875 L 284.601562 72.101562 L 264.800781 72.101562 Z M 264.800781 66.296875 "/>
<path style=" stroke:none;fill-rule:evenodd;fill:rgb(63.137255%,6.27451%,6.666667%);fill-opacity:1;" d="M 242.953125 66.640625 L 258.65625 66.640625 L 258.65625 71.757812 L 242.953125 71.757812 Z M 242.953125 66.640625 "/>
<path style=" stroke:none;fill-rule:nonzero;fill:rgb(63.137255%,6.27451%,6.666667%);fill-opacity:1;" d="M 306.367188 81.847656 Z M 248.90625 89.949219 L 242.796875 81.34375 L 308.507812 81.683594 L 300.636719 88.867188 "/>
<path style=" stroke:none;fill-rule:nonzero;fill:rgb(83.921569%,8.235294%,9.019608%);fill-opacity:1;" d="M 243.539062 76.824219 L 243.539062 80.816406 L 257.554688 80.816406 L 257.554688 76.824219 L 243.539062 76.824219 M 259.554688 76.824219 L 259.554688 80.816406 L 291.585938 80.816406 L 291.585938 76.824219 L 259.554688 76.824219 M 293.589844 76.824219 L 293.589844 80.816406 L 307.601562 80.816406 L 307.601562 76.824219 Z M 293.589844 76.824219 "/>
<path style=" stroke:none;fill-rule:nonzero;fill:rgb(83.921569%,8.235294%,9.019608%);fill-opacity:1;" d="M 243.539062 67.519531 L 243.539062 70.546875 L 257.554688 70.546875 L 257.554688 67.519531 L 243.539062 67.519531 M 265.5625 67.519531 L 265.5625 70.546875 L 283.578125 70.546875 L 283.578125 67.519531 Z M 265.5625 67.519531 "/>
<path style=" stroke:none;fill-rule:nonzero;fill:rgb(83.921569%,8.235294%,9.019608%);fill-opacity:1;" d="M 291.585938 67.863281 L 291.585938 70.40625 L 307.601562 70.40625 L 307.601562 67.863281 Z M 291.585938 67.863281 "/>
<path style=" stroke:none;fill-rule:evenodd;fill:rgb(63.137255%,6.27451%,6.666667%);fill-opacity:1;" d="M 242.953125 71.757812 L 308.496094 71.757812 L 308.496094 82 L 242.953125 82 Z M 242.953125 71.757812 "/>
<path style=" stroke:none;fill-rule:nonzero;fill:rgb(83.921569%,8.235294%,9.019608%);fill-opacity:1;" d="M 271.371094 120.074219 Z M 244.84375 111.789062 L 244.84375 120.253906 L 271.84375 120.253906 L 271.84375 111.972656 L 244.84375 111.789062 "/>
<path style=" stroke:none;fill-rule:nonzero;fill:rgb(83.921569%,8.235294%,9.019608%);fill-opacity:1;" d="M 302.878906 120.074219 Z M 274.339844 111.789062 L 274.339844 120.253906 L 303.386719 120.253906 L 303.386719 111.972656 L 274.339844 111.789062 "/>
<path style=" stroke:none;fill-rule:nonzero;fill:rgb(83.921569%,8.235294%,9.019608%);fill-opacity:1;" d="M 272.28125 75.816406 Z M 243.820312 72.878906 L 243.820312 75.882812 L 272.785156 75.882812 L 272.785156 72.941406 L 243.820312 72.878906 "/>
<path style=" stroke:none;fill-rule:nonzero;fill:rgb(83.921569%,8.235294%,9.019608%);fill-opacity:1;" d="M 257.796875 110.175781 Z M 246.894531 101.890625 L 246.894531 110.355469 L 257.992188 110.355469 L 257.992188 102.070312 L 246.894531 101.890625 "/>
<path style=" stroke:none;fill-rule:nonzero;fill:rgb(83.921569%,8.235294%,9.019608%);fill-opacity:1;" d="M 289.621094 110.175781 Z M 260.628906 101.890625 L 260.628906 110.355469 L 290.136719 110.355469 L 290.136719 102.070312 L 260.628906 101.890625 "/>
<path style=" stroke:none;fill-rule:nonzero;fill:rgb(83.921569%,8.235294%,9.019608%);fill-opacity:1;" d="M 301.851562 110.511719 Z M 292.289062 102.226562 L 292.289062 110.691406 L 302.023438 110.691406 L 302.023438 102.410156 L 292.289062 102.226562 "/>
<path style=" stroke:none;fill-rule:nonzero;fill:rgb(83.921569%,8.235294%,9.019608%);fill-opacity:1;" d="M 273.441406 100.042969 Z M 248.253906 94.121094 L 248.253906 100.171875 L 273.890625 100.171875 L 273.890625 94.25 L 248.253906 94.121094 "/>
<path style=" stroke:none;fill-rule:nonzero;fill:rgb(83.921569%,8.235294%,9.019608%);fill-opacity:1;" d="M 300.5625 100.042969 Z M 276.046875 94.121094 L 276.046875 100.171875 L 301 100.171875 L 301 94.25 L 276.046875 94.121094 "/>
<path style=" stroke:none;fill-rule:nonzero;fill:rgb(83.921569%,8.235294%,9.019608%);fill-opacity:1;" d="M 292.835938 91.859375 Z M 256.109375 88.921875 L 256.109375 91.925781 L 293.488281 91.925781 L 293.488281 88.984375 L 256.109375 88.921875 "/>
<path style=" stroke:none;fill-rule:nonzero;fill:rgb(83.921569%,8.235294%,9.019608%);fill-opacity:1;" d="M 299.542969 91.859375 Z M 294.339844 88.921875 L 294.339844 91.925781 L 299.636719 91.925781 L 299.636719 88.984375 L 294.339844 88.921875 "/>
<path style=" stroke:none;fill-rule:nonzero;fill:rgb(83.921569%,8.235294%,9.019608%);fill-opacity:1;" d="M 254.8125 91.859375 Z M 248.941406 88.921875 L 248.941406 91.925781 L 254.917969 91.925781 L 254.917969 88.984375 L 248.941406 88.921875 "/>
<path style=" stroke:none;fill-rule:nonzero;fill:rgb(83.921569%,8.235294%,9.019608%);fill-opacity:1;" d="M 307.265625 75.816406 Z M 275.902344 72.878906 L 275.902344 75.882812 L 307.824219 75.882812 L 307.824219 72.941406 L 275.902344 72.878906 "/>
<path style=" stroke:none;fill-rule:nonzero;fill:rgb(83.921569%,8.235294%,9.019608%);fill-opacity:1;" d="M 258.140625 81.300781 Z M 244.164062 76.632812 L 244.164062 81.402344 L 258.390625 81.402344 L 258.390625 76.734375 L 244.164062 76.632812 "/>
<path style=" stroke:none;fill-rule:nonzero;fill:rgb(83.921569%,8.235294%,9.019608%);fill-opacity:1;" d="M 288.285156 81.308594 Z M 260.890625 76.976562 L 260.890625 81.402344 L 288.773438 81.402344 L 288.773438 77.070312 L 260.890625 76.976562 "/>
<path style=" stroke:none;fill-rule:nonzero;fill:rgb(83.921569%,8.235294%,9.019608%);fill-opacity:1;" d="M 307.191406 81.308594 Z M 290.921875 77.113281 L 290.921875 81.398438 L 307.480469 81.398438 L 307.480469 77.203125 L 290.921875 77.113281 "/>
<path style=" stroke:none;fill-rule:nonzero;fill:rgb(83.921569%,8.235294%,9.019608%);fill-opacity:1;" d="M 298.421875 87.320312 Z M 248.265625 86.191406 L 248.265625 87.34375 L 299.300781 87.34375 L 299.300781 86.214844 L 248.265625 86.191406 "/>
<path style=" stroke:none;fill-rule:nonzero;fill:rgb(83.921569%,8.235294%,9.019608%);fill-opacity:1;" d="M 301.054688 86.710938 Z M 245.53125 85.582031 L 245.53125 86.734375 L 302.03125 86.734375 L 302.03125 85.609375 L 245.53125 85.582031 "/>
<path style=" stroke:none;fill-rule:nonzero;fill:rgb(83.921569%,8.235294%,9.019608%);fill-opacity:1;" d="M 303.390625 85.800781 Z M 245.183594 84.671875 L 245.183594 85.824219 L 304.414062 85.824219 L 304.414062 84.695312 L 245.183594 84.671875 "/>
<path style=" stroke:none;fill-rule:nonzero;fill:rgb(83.921569%,8.235294%,9.019608%);fill-opacity:1;" d="M 303.390625 85.800781 Z M 245.183594 84.671875 L 245.183594 85.824219 L 304.414062 85.824219 L 304.414062 84.695312 L 245.183594 84.671875 "/>
<path style=" stroke:none;fill-rule:nonzero;fill:rgb(83.921569%,8.235294%,9.019608%);fill-opacity:1;" d="M 305.066406 84.585938 Z M 244.511719 83.457031 L 244.511719 84.609375 L 306.128906 84.609375 L 306.128906 83.480469 L 244.511719 83.457031 "/>
<path style=" stroke:none;fill-rule:nonzero;fill:rgb(83.921569%,8.235294%,9.019608%);fill-opacity:1;" d="M 298.421875 86.371094 Z M 248.265625 86.085938 L 248.265625 86.378906 L 299.300781 86.378906 L 299.300781 86.089844 L 248.265625 86.085938 "/>
<path style=" stroke:none;fill-rule:nonzero;fill:rgb(83.921569%,8.235294%,9.019608%);fill-opacity:1;" d="M 301.054688 86.21875 Z M 245.53125 85.929688 L 245.53125 86.222656 L 302.03125 86.222656 L 302.03125 85.9375 L 245.53125 85.929688 "/>
<path style=" stroke:none;fill-rule:nonzero;fill:rgb(83.921569%,8.235294%,9.019608%);fill-opacity:1;" d="M 303.390625 85.984375 Z M 245.183594 85.699219 L 245.183594 85.992188 L 304.414062 85.992188 L 304.414062 85.703125 L 245.183594 85.699219 "/>
<path style=" stroke:none;fill-rule:nonzero;fill:rgb(83.921569%,8.235294%,9.019608%);fill-opacity:1;" d="M 303.390625 85.984375 Z M 245.183594 85.699219 L 245.183594 85.992188 L 304.414062 85.992188 L 304.414062 85.703125 L 245.183594 85.699219 "/>
<path style=" stroke:none;fill-rule:nonzero;fill:rgb(83.921569%,8.235294%,9.019608%);fill-opacity:1;" d="M 305.066406 85.675781 Z M 244.511719 85.386719 L 244.511719 85.683594 L 306.128906 85.683594 L 306.128906 85.394531 L 244.511719 85.386719 "/>
<path style=" stroke:none;fill-rule:evenodd;fill:rgb(50.196078%,50.196078%,50.196078%);fill-opacity:1;" d="M 174.050781 346.949219 L 189.019531 346.949219 L 189.019531 368.671875 L 174.050781 368.671875 Z M 174.050781 346.949219 "/>
<path style=" stroke:none;fill-rule:evenodd;fill:rgb(100%,77.254902%,0%);fill-opacity:1;" d="M 175.980469 348.40625 L 189.015625 348.40625 L 189.015625 367.230469 L 175.980469 367.230469 Z M 175.980469 348.40625 "/>
<path style=" stroke:none;fill-rule:evenodd;fill:rgb(50.196078%,50.196078%,50.196078%);fill-opacity:1;" d="M 178.394531 352.261719 L 187.085938 352.261719 L 187.085938 365.292969 L 178.394531 365.292969 Z M 178.394531 352.261719 "/>
<path style=" stroke:none;fill-rule:evenodd;fill:rgb(83.921569%,8.235294%,9.019608%);fill-opacity:1;" d="M 180.328125 353.714844 L 185.640625 353.714844 L 185.640625 363.851562 L 180.328125 363.851562 Z M 180.328125 353.714844 "/>
<path style=" stroke:none;fill-rule:evenodd;fill:rgb(50.196078%,50.196078%,50.196078%);fill-opacity:1;" d="M 173.582031 355.65625 L 179.375 355.65625 L 179.375 362.414062 L 173.582031 362.414062 Z M 173.582031 355.65625 "/>
<path style=" stroke:none;fill-rule:evenodd;fill:rgb(83.921569%,8.235294%,9.019608%);fill-opacity:1;" d="M 173.582031 357.101562 L 179.859375 357.101562 L 179.859375 360.960938 L 173.582031 360.960938 Z M 173.582031 357.101562 "/>
<path style=" stroke:none;fill-rule:evenodd;fill:rgb(50.196078%,50.196078%,50.196078%);fill-opacity:1;" d="M 196.035156 377.246094 L 188.792969 377.246094 L 188.792969 320.761719 L 196.035156 320.761719 Z M 196.035156 377.246094 "/>
<path style=" stroke:none;fill-rule:evenodd;fill:rgb(100%,77.254902%,0%);fill-opacity:1;" d="M 194.582031 375.800781 L 190.238281 375.800781 L 190.238281 322.214844 L 194.582031 322.214844 Z M 194.582031 375.800781 "/>
<path style=" stroke:none;fill-rule:evenodd;fill:rgb(50.196078%,50.196078%,50.196078%);fill-opacity:1;" d="M 212.335938 305.605469 L 208.816406 308.9375 L 189.917969 291.046875 L 193.4375 287.714844 Z M 212.335938 305.605469 "/>
<path style=" stroke:none;fill-rule:evenodd;fill:rgb(50.196078%,50.196078%,50.196078%);fill-opacity:1;" d="M 195.761719 324.085938 L 192.4375 320.445312 L 208.886719 302.429688 L 212.210938 306.070312 Z M 195.761719 324.085938 "/>
<path style=" stroke:none;fill-rule:evenodd;fill:rgb(100%,77.254902%,0%);fill-opacity:1;" d="M 190.746094 291.292969 L 193.621094 288.535156 L 211.511719 305.691406 L 208.636719 308.449219 Z M 190.746094 291.292969 "/>
<path style=" stroke:none;fill-rule:evenodd;fill:rgb(100%,77.254902%,0%);fill-opacity:1;" d="M 194.773438 324.15625 L 192.109375 321.207031 L 208.679688 302.875 L 211.34375 305.820312 Z M 194.773438 324.15625 "/>
<path style=" stroke:none;fill-rule:evenodd;fill:rgb(50.196078%,50.196078%,50.196078%);fill-opacity:1;" d="M 173.152344 307.914062 L 176.476562 304.644531 L 192.929688 320.8125 L 189.601562 324.078125 Z M 173.152344 307.914062 "/>
<path style=" stroke:none;fill-rule:evenodd;fill:rgb(50.196078%,50.196078%,50.196078%);fill-opacity:1;" d="M 191.152344 287.878906 L 194.753906 291.371094 L 175.421875 310.125 L 171.824219 306.632812 Z M 191.152344 287.878906 "/>
<path style=" stroke:none;fill-rule:evenodd;fill:rgb(100%,77.254902%,0%);fill-opacity:1;" d="M 176.484375 308.621094 L 173.679688 305.816406 L 191.128906 288.363281 L 193.933594 291.167969 Z M 176.484375 308.621094 "/>
<path style=" stroke:none;fill-rule:evenodd;fill:rgb(50.196078%,50.196078%,50.196078%);fill-opacity:1;" d="M 190.605469 252.164062 L 194.46875 252.164062 L 194.46875 298.78125 L 190.605469 298.78125 Z M 190.605469 252.164062 "/>
<path style=" stroke:none;fill-rule:evenodd;fill:rgb(100%,77.254902%,0%);fill-opacity:1;" d="M 191.257812 252.789062 L 193.914062 252.789062 L 193.914062 297.871094 L 191.257812 297.871094 Z M 191.257812 252.789062 "/>
<path style=" stroke:none;fill-rule:evenodd;fill:rgb(100%,77.254902%,0%);fill-opacity:1;" d="M 172.824219 306.722656 L 175.816406 303.726562 L 194.445312 322.355469 L 191.453125 325.347656 Z M 172.824219 306.722656 "/>
<path style=" stroke:none;fill-rule:evenodd;fill:rgb(63.137255%,6.27451%,6.666667%);fill-opacity:1;" d="M 260.289062 212.78125 L 294.28125 212.78125 L 294.28125 247.859375 L 260.289062 247.859375 Z M 260.289062 212.78125 "/>
<path style=" stroke:none;fill-rule:evenodd;fill:rgb(63.137255%,6.27451%,6.666667%);fill-opacity:1;" d="M 277.304688 198.78125 C 286.621094 198.78125 294.171875 205.269531 294.171875 213.269531 C 294.171875 221.273438 286.621094 227.757812 277.304688 227.757812 C 267.988281 227.757812 260.433594 221.273438 260.433594 213.269531 C 260.433594 205.269531 267.988281 198.78125 277.304688 198.78125 Z M 277.304688 198.78125 "/>
<path style=" stroke:none;fill-rule:evenodd;fill:rgb(83.921569%,8.235294%,9.019608%);fill-opacity:1;" d="M 261.507812 214 L 293.691406 214 L 293.691406 247.871094 L 261.507812 247.871094 Z M 261.507812 214 "/>
<path style=" stroke:none;fill-rule:evenodd;fill:rgb(83.921569%,8.235294%,9.019608%);fill-opacity:1;" d="M 277.617188 200.480469 C 286.4375 200.480469 293.589844 206.742188 293.589844 214.472656 C 293.589844 222.199219 286.4375 228.460938 277.617188 228.460938 C 268.796875 228.460938 261.648438 222.199219 261.648438 214.472656 C 261.648438 206.742188 268.796875 200.480469 277.617188 200.480469 Z M 277.617188 200.480469 "/>
<path style=" stroke:none;fill-rule:evenodd;fill:rgb(63.137255%,6.27451%,6.666667%);fill-opacity:1;" d="M 265.609375 216.0625 L 289.585938 216.0625 L 289.585938 247.867188 L 265.609375 247.867188 Z M 265.609375 216.0625 "/>
<path style=" stroke:none;fill-rule:evenodd;fill:rgb(63.137255%,6.27451%,6.666667%);fill-opacity:1;" d="M 277.613281 203.371094 C 284.183594 203.371094 289.511719 209.253906 289.511719 216.507812 C 289.511719 223.761719 284.183594 229.644531 277.613281 229.644531 C 271.042969 229.644531 265.714844 223.761719 265.714844 216.507812 C 265.714844 209.253906 271.042969 203.371094 277.613281 203.371094 Z M 277.613281 203.371094 "/>
<path style=" stroke:none;fill-rule:evenodd;fill:rgb(83.921569%,8.235294%,9.019608%);fill-opacity:1;" d="M 266.984375 216.921875 L 288.015625 216.921875 L 288.015625 247.257812 L 266.984375 247.257812 Z M 266.984375 216.921875 "/>
<path style=" stroke:none;fill-rule:evenodd;fill:rgb(83.921569%,8.235294%,9.019608%);fill-opacity:1;" d="M 277.519531 204.816406 C 283.28125 204.816406 287.953125 210.425781 287.953125 217.347656 C 287.953125 224.269531 283.28125 229.878906 277.519531 229.878906 C 271.753906 229.878906 267.082031 224.269531 267.082031 217.347656 C 267.082031 210.425781 271.753906 204.816406 277.519531 204.816406 Z M 277.519531 204.816406 "/>
<path style=" stroke:none;fill-rule:evenodd;fill:rgb(63.137255%,6.27451%,6.666667%);fill-opacity:1;" d="M 173.652344 211.996094 L 208.613281 211.996094 L 208.613281 247.078125 L 173.652344 247.078125 Z M 173.652344 211.996094 "/>
<path style=" stroke:none;fill-rule:evenodd;fill:rgb(63.137255%,6.27451%,6.666667%);fill-opacity:1;" d="M 191.15625 197.996094 C 200.738281 197.996094 208.503906 204.484375 208.503906 212.484375 C 208.503906 220.488281 200.738281 226.976562 191.15625 226.976562 C 181.574219 226.976562 173.804688 220.488281 173.804688 212.484375 C 173.804688 204.484375 181.574219 197.996094 191.15625 197.996094 Z M 191.15625 197.996094 "/>
<path style=" stroke:none;fill-rule:evenodd;fill:rgb(83.921569%,8.235294%,9.019608%);fill-opacity:1;" d="M 174.898438 213.214844 L 208 213.214844 L 208 247.089844 L 174.898438 247.089844 Z M 174.898438 213.214844 "/>
<path style=" stroke:none;fill-rule:evenodd;fill:rgb(83.921569%,8.235294%,9.019608%);fill-opacity:1;" d="M 191.46875 199.695312 C 200.539062 199.695312 207.894531 205.960938 207.894531 213.6875 C 207.894531 221.414062 200.539062 227.679688 191.46875 227.679688 C 182.398438 227.679688 175.042969 221.414062 175.042969 213.6875 C 175.042969 205.960938 182.398438 199.695312 191.46875 199.695312 Z M 191.46875 199.695312 "/>
<path style=" stroke:none;fill-rule:evenodd;fill:rgb(63.137255%,6.27451%,6.666667%);fill-opacity:1;" d="M 179.105469 215.28125 L 203.765625 215.28125 L 203.765625 247.082031 L 179.105469 247.082031 Z M 179.105469 215.28125 "/>
<path style=" stroke:none;fill-rule:evenodd;fill:rgb(63.137255%,6.27451%,6.666667%);fill-opacity:1;" d="M 191.449219 202.589844 C 198.207031 202.589844 203.6875 208.46875 203.6875 215.722656 C 203.6875 222.980469 198.207031 228.859375 191.449219 228.859375 C 184.691406 228.859375 179.214844 222.980469 179.214844 215.722656 C 179.214844 208.46875 184.691406 202.589844 191.449219 202.589844 Z M 191.449219 202.589844 "/>
<path style=" stroke:none;fill-rule:evenodd;fill:rgb(83.921569%,8.235294%,9.019608%);fill-opacity:1;" d="M 180.523438 216.144531 L 202.148438 216.144531 L 202.148438 246.480469 L 180.523438 246.480469 Z M 180.523438 216.144531 "/>
<path style=" stroke:none;fill-rule:evenodd;fill:rgb(83.921569%,8.235294%,9.019608%);fill-opacity:1;" d="M 191.347656 204.039062 C 197.277344 204.039062 202.082031 209.648438 202.082031 216.570312 C 202.082031 223.488281 197.277344 229.097656 191.347656 229.097656 C 185.421875 229.097656 180.617188 223.488281 180.617188 216.570312 C 180.617188 209.648438 185.421875 204.039062 191.347656 204.039062 Z M 191.347656 204.039062 "/>
<path style=" stroke:none;fill-rule:evenodd;fill:rgb(63.137255%,6.27451%,6.666667%);fill-opacity:1;" d="M 90.148438 212.117188 L 124.625 212.117188 L 124.625 247.195312 L 90.148438 247.195312 Z M 90.148438 212.117188 "/>
<path style=" stroke:none;fill-rule:evenodd;fill:rgb(63.137255%,6.27451%,6.666667%);fill-opacity:1;" d="M 107.40625 198.117188 C 116.859375 198.117188 124.519531 204.605469 124.519531 212.605469 C 124.519531 220.609375 116.859375 227.097656 107.40625 227.097656 C 97.957031 227.097656 90.296875 220.609375 90.296875 212.605469 C 90.296875 204.605469 97.957031 198.117188 107.40625 198.117188 Z M 107.40625 198.117188 "/>
<path style=" stroke:none;fill-rule:evenodd;fill:rgb(83.921569%,8.235294%,9.019608%);fill-opacity:1;" d="M 91.339844 213.335938 L 123.980469 213.335938 L 123.980469 247.207031 L 91.339844 247.207031 Z M 91.339844 213.335938 "/>
<path style=" stroke:none;fill-rule:evenodd;fill:rgb(83.921569%,8.235294%,9.019608%);fill-opacity:1;" d="M 107.679688 199.816406 C 116.628906 199.816406 123.878906 206.082031 123.878906 213.808594 C 123.878906 221.535156 116.628906 227.796875 107.679688 227.796875 C 98.734375 227.796875 91.484375 221.535156 91.484375 213.808594 C 91.484375 206.082031 98.734375 199.816406 107.679688 199.816406 Z M 107.679688 199.816406 "/>
<path style=" stroke:none;fill-rule:evenodd;fill:rgb(63.137255%,6.27451%,6.666667%);fill-opacity:1;" d="M 95.515625 215.402344 L 119.832031 215.402344 L 119.832031 247.203125 L 95.515625 247.203125 Z M 95.515625 215.402344 "/>
<path style=" stroke:none;fill-rule:evenodd;fill:rgb(63.137255%,6.27451%,6.666667%);fill-opacity:1;" d="M 107.6875 202.710938 C 114.351562 202.710938 119.753906 208.589844 119.753906 215.84375 C 119.753906 223.101562 114.351562 228.980469 107.6875 228.980469 C 101.023438 228.980469 95.621094 223.101562 95.621094 215.84375 C 95.621094 208.589844 101.023438 202.710938 107.6875 202.710938 Z M 107.6875 202.710938 "/>
<path style=" stroke:none;fill-rule:evenodd;fill:rgb(83.921569%,8.235294%,9.019608%);fill-opacity:1;" d="M 96.914062 216.265625 L 118.242188 216.265625 L 118.242188 246.601562 L 96.914062 246.601562 Z M 96.914062 216.265625 "/>
<path style=" stroke:none;fill-rule:evenodd;fill:rgb(83.921569%,8.235294%,9.019608%);fill-opacity:1;" d="M 107.59375 204.160156 C 113.4375 204.160156 118.175781 209.769531 118.175781 216.6875 C 118.175781 223.609375 113.4375 229.21875 107.59375 229.21875 C 101.746094 229.21875 97.007812 223.609375 97.007812 216.6875 C 97.007812 209.769531 101.746094 204.160156 107.59375 204.160156 Z M 107.59375 204.160156 "/>
<path style=" stroke:none;fill-rule:nonzero;fill:rgb(63.137255%,6.27451%,6.666667%);fill-opacity:1;" d="M 174.773438 241.703125 L 174.773438 243.4375 L 179.492188 243.4375 L 179.492188 241.703125 Z M 174.773438 241.703125 "/>
<path style=" stroke:none;fill-rule:nonzero;fill:rgb(63.137255%,6.27451%,6.666667%);fill-opacity:1;" d="M 90.890625 240.496094 L 90.890625 242.230469 L 95.613281 242.230469 L 95.613281 240.496094 Z M 90.890625 240.496094 "/>
<path style=" stroke:none;fill-rule:nonzero;fill:rgb(63.137255%,6.27451%,6.666667%);fill-opacity:1;" d="M 90.890625 227.578125 L 90.890625 229.3125 L 95.613281 229.3125 L 95.613281 227.578125 Z M 90.890625 227.578125 "/>
<path style=" stroke:none;fill-rule:nonzero;fill:rgb(63.137255%,6.27451%,6.666667%);fill-opacity:1;" d="M 91.011719 215.390625 L 91.011719 217.125 L 95.734375 217.125 L 95.734375 215.390625 Z M 91.011719 215.390625 "/>
<path style=" stroke:none;fill-rule:nonzero;fill:rgb(63.137255%,6.27451%,6.666667%);fill-opacity:1;" d="M 119.738281 240.976562 L 119.738281 242.707031 L 124.457031 242.707031 L 124.457031 240.976562 Z M 119.738281 240.976562 "/>
<path style=" stroke:none;fill-rule:nonzero;fill:rgb(63.137255%,6.27451%,6.666667%);fill-opacity:1;" d="M 119.617188 227.941406 L 119.617188 229.675781 L 124.339844 229.675781 L 124.339844 227.941406 Z M 119.617188 227.941406 "/>
<path style=" stroke:none;fill-rule:nonzero;fill:rgb(63.137255%,6.27451%,6.666667%);fill-opacity:1;" d="M 119.257812 215.632812 L 119.257812 217.367188 L 123.976562 217.367188 L 123.976562 215.632812 Z M 119.257812 215.632812 "/>
<path style=" stroke:none;fill-rule:nonzero;fill:rgb(63.137255%,6.27451%,6.666667%);fill-opacity:1;" d="M 181.566406 208.523438 L 182.792969 207.296875 L 179.457031 203.957031 L 178.230469 205.183594 Z M 181.566406 208.523438 "/>
<path style=" stroke:none;fill-rule:nonzero;fill:rgb(63.137255%,6.27451%,6.666667%);fill-opacity:1;" d="M 203.371094 241.582031 L 203.371094 243.316406 L 208.089844 243.316406 L 208.089844 241.582031 Z M 203.371094 241.582031 "/>
<path style=" stroke:none;fill-rule:nonzero;fill:rgb(63.137255%,6.27451%,6.666667%);fill-opacity:1;" d="M 174.890625 227.699219 L 174.890625 229.433594 L 179.613281 229.433594 L 179.613281 227.699219 Z M 174.890625 227.699219 "/>
<path style=" stroke:none;fill-rule:nonzero;fill:rgb(63.137255%,6.27451%,6.666667%);fill-opacity:1;" d="M 174.53125 215.273438 L 174.53125 217.007812 L 179.253906 217.007812 L 179.253906 215.273438 Z M 174.53125 215.273438 "/>
<path style=" stroke:none;fill-rule:nonzero;fill:rgb(63.137255%,6.27451%,6.666667%);fill-opacity:1;" d="M 203.371094 227.941406 L 203.371094 229.675781 L 208.089844 229.675781 L 208.089844 227.941406 Z M 203.371094 227.941406 "/>
<path style=" stroke:none;fill-rule:nonzero;fill:rgb(63.137255%,6.27451%,6.666667%);fill-opacity:1;" d="M 203.617188 214.664062 L 203.617188 216.398438 L 208.339844 216.398438 L 208.339844 214.664062 Z M 203.617188 214.664062 "/>
<path style=" stroke:none;fill-rule:nonzero;fill:rgb(63.137255%,6.27451%,6.666667%);fill-opacity:1;" d="M 261.179688 242.183594 L 261.179688 243.917969 L 265.902344 243.917969 L 265.902344 242.183594 Z M 261.179688 242.183594 "/>
<path style=" stroke:none;fill-rule:nonzero;fill:rgb(63.137255%,6.27451%,6.666667%);fill-opacity:1;" d="M 261.179688 227.699219 L 261.179688 229.433594 L 265.902344 229.433594 L 265.902344 227.699219 Z M 261.179688 227.699219 "/>
<path style=" stroke:none;fill-rule:nonzero;fill:rgb(63.137255%,6.27451%,6.666667%);fill-opacity:1;" d="M 261.300781 213.945312 L 261.300781 215.679688 L 266.019531 215.679688 L 266.019531 213.945312 Z M 261.300781 213.945312 "/>
<path style=" stroke:none;fill-rule:nonzero;fill:rgb(63.137255%,6.27451%,6.666667%);fill-opacity:1;" d="M 289.183594 242.300781 L 289.183594 244.035156 L 293.90625 244.035156 L 293.90625 242.300781 Z M 289.183594 242.300781 "/>
<path style=" stroke:none;fill-rule:nonzero;fill:rgb(63.137255%,6.27451%,6.666667%);fill-opacity:1;" d="M 289.066406 227.820312 L 289.066406 229.554688 L 293.785156 229.554688 L 293.785156 227.820312 Z M 289.066406 227.820312 "/>
<path style=" stroke:none;fill-rule:nonzero;fill:rgb(63.137255%,6.27451%,6.666667%);fill-opacity:1;" d="M 289.183594 214.425781 L 289.183594 216.160156 L 293.90625 216.160156 L 293.90625 214.425781 Z M 289.183594 214.425781 "/>
<path style=" stroke:none;fill-rule:evenodd;fill:rgb(63.137255%,6.27451%,6.666667%);fill-opacity:1;" d="M 266.601562 121.59375 L 281.097656 121.59375 L 281.097656 136.96875 L 266.601562 136.96875 Z M 266.601562 121.59375 "/>
<path style=" stroke:none;fill-rule:evenodd;fill:rgb(63.137255%,6.27451%,6.666667%);fill-opacity:1;" d="M 273.855469 115.457031 C 277.832031 115.457031 281.050781 118.300781 281.050781 121.808594 C 281.050781 125.316406 277.832031 128.160156 273.855469 128.160156 C 269.882812 128.160156 266.664062 125.316406 266.664062 121.808594 C 266.664062 118.300781 269.882812 115.457031 273.855469 115.457031 Z M 273.855469 115.457031 "/>
<path style=" stroke:none;fill-rule:evenodd;fill:rgb(83.921569%,8.235294%,9.019608%);fill-opacity:1;" d="M 267.113281 122.125 L 280.839844 122.125 L 280.839844 136.972656 L 267.113281 136.972656 Z M 267.113281 122.125 "/>
<path style=" stroke:none;fill-rule:evenodd;fill:rgb(83.921569%,8.235294%,9.019608%);fill-opacity:1;" d="M 273.984375 116.199219 C 277.746094 116.199219 280.796875 118.941406 280.796875 122.332031 C 280.796875 125.71875 277.746094 128.464844 273.984375 128.464844 C 270.222656 128.464844 267.175781 125.71875 267.175781 122.332031 C 267.175781 118.941406 270.222656 116.199219 273.984375 116.199219 Z M 273.984375 116.199219 "/>
<path style=" stroke:none;fill-rule:evenodd;fill:rgb(63.137255%,6.27451%,6.666667%);fill-opacity:1;" d="M 268.859375 123.03125 L 279.085938 123.03125 L 279.085938 136.972656 L 268.859375 136.972656 Z M 268.859375 123.03125 "/>
<path style=" stroke:none;fill-rule:evenodd;fill:rgb(63.137255%,6.27451%,6.666667%);fill-opacity:1;" d="M 273.980469 117.46875 C 276.78125 117.46875 279.054688 120.046875 279.054688 123.226562 C 279.054688 126.40625 276.78125 128.984375 273.980469 128.984375 C 271.175781 128.984375 268.90625 126.40625 268.90625 123.226562 C 268.90625 120.046875 271.175781 117.46875 273.980469 117.46875 Z M 273.980469 117.46875 "/>
<path style=" stroke:none;fill-rule:evenodd;fill:rgb(83.921569%,8.235294%,9.019608%);fill-opacity:1;" d="M 269.453125 123.410156 L 278.417969 123.410156 L 278.417969 136.707031 L 269.453125 136.707031 Z M 269.453125 123.410156 "/>
<path style=" stroke:none;fill-rule:evenodd;fill:rgb(83.921569%,8.235294%,9.019608%);fill-opacity:1;" d="M 273.941406 118.101562 C 276.398438 118.101562 278.390625 120.5625 278.390625 123.59375 C 278.390625 126.628906 276.398438 129.085938 273.941406 129.085938 C 271.484375 129.085938 269.492188 126.628906 269.492188 123.59375 C 269.492188 120.5625 271.484375 118.101562 273.941406 118.101562 Z M 273.941406 118.101562 "/>
<path style=" stroke:none;fill-rule:nonzero;fill:rgb(63.137255%,6.27451%,6.666667%);fill-opacity:1;" d="M 278.40625 198.929688 L 276.671875 198.929688 L 276.671875 203.652344 L 278.40625 203.652344 Z M 278.40625 198.929688 "/>
<path style=" stroke:none;fill-rule:nonzero;fill:rgb(63.137255%,6.27451%,6.666667%);fill-opacity:1;" d="M 204.996094 205.546875 L 203.769531 204.320312 L 200.433594 207.65625 L 201.660156 208.882812 Z M 204.996094 205.546875 "/>
<path style=" stroke:none;fill-rule:nonzero;fill:rgb(63.137255%,6.27451%,6.666667%);fill-opacity:1;" d="M 289.84375 205.425781 L 288.617188 204.199219 L 285.28125 207.535156 L 286.507812 208.761719 Z M 289.84375 205.425781 "/>
<path style=" stroke:none;fill-rule:nonzero;fill:rgb(63.137255%,6.27451%,6.666667%);fill-opacity:1;" d="M 268.703125 208.640625 L 269.929688 207.417969 L 266.589844 204.078125 L 265.363281 205.304688 Z M 268.703125 208.640625 "/>
<path style=" stroke:none;fill-rule:nonzero;fill:rgb(63.137255%,6.27451%,6.666667%);fill-opacity:1;" d="M 97.027344 202.996094 L 95.800781 204.222656 L 99.140625 207.558594 L 100.367188 206.332031 Z M 97.027344 202.996094 "/>
<path style=" stroke:none;fill-rule:nonzero;fill:rgb(63.137255%,6.27451%,6.666667%);fill-opacity:1;" d="M 192.359375 198.570312 L 190.625 198.570312 L 190.625 203.289062 L 192.359375 203.289062 Z M 192.359375 198.570312 "/>
<path style=" stroke:none;fill-rule:nonzero;fill:rgb(63.137255%,6.27451%,6.666667%);fill-opacity:1;" d="M 106.746094 204.015625 L 108.480469 204.015625 L 108.480469 199.292969 L 106.746094 199.292969 Z M 106.746094 204.015625 "/>
<path style=" stroke:none;fill-rule:nonzero;fill:rgb(63.137255%,6.27451%,6.666667%);fill-opacity:1;" d="M 116.078125 207.171875 L 117.304688 208.398438 L 120.640625 205.0625 L 119.414062 203.835938 Z M 116.078125 207.171875 "/>
<path style=" stroke:none;fill-rule:nonzero;fill:rgb(63.137255%,6.27451%,6.666667%);fill-opacity:1;" d="M 268.972656 131.894531 L 268.972656 137.148438 L 286.148438 137.148438 L 286.148438 131.894531 Z M 268.972656 131.894531 "/>
<path style=" stroke:none;fill-rule:nonzero;fill:rgb(83.921569%,8.235294%,9.019608%);fill-opacity:1;" d="M 269.527344 132.816406 L 269.527344 136.8125 L 285.542969 136.8125 L 285.542969 132.816406 Z M 269.527344 132.816406 "/>
<path style=" stroke:none;fill-rule:evenodd;fill:rgb(63.137255%,6.27451%,6.666667%);fill-opacity:1;" d="M 182.988281 121.382812 L 199.375 121.382812 L 199.375 137.210938 L 182.988281 137.210938 Z M 182.988281 121.382812 "/>
<path style=" stroke:none;fill-rule:evenodd;fill:rgb(63.137255%,6.27451%,6.666667%);fill-opacity:1;" d="M 191.191406 115.066406 C 195.683594 115.066406 199.324219 117.992188 199.324219 121.605469 C 199.324219 125.214844 195.683594 128.140625 191.191406 128.140625 C 186.699219 128.140625 183.058594 125.214844 183.058594 121.605469 C 183.058594 117.992188 186.699219 115.066406 191.191406 115.066406 Z M 191.191406 115.066406 "/>
<path style=" stroke:none;fill-rule:evenodd;fill:rgb(83.921569%,8.235294%,9.019608%);fill-opacity:1;" d="M 183.566406 121.925781 L 199.082031 121.925781 L 199.082031 137.210938 L 183.566406 137.210938 Z M 183.566406 121.925781 "/>
<path style=" stroke:none;fill-rule:evenodd;fill:rgb(83.921569%,8.235294%,9.019608%);fill-opacity:1;" d="M 191.332031 115.828125 C 195.585938 115.828125 199.03125 118.652344 199.03125 122.140625 C 199.03125 125.628906 195.585938 128.453125 191.332031 128.453125 C 187.082031 128.453125 183.632812 125.628906 183.632812 122.140625 C 183.632812 118.652344 187.082031 115.828125 191.332031 115.828125 Z M 191.332031 115.828125 "/>
<path style=" stroke:none;fill-rule:evenodd;fill:rgb(63.137255%,6.27451%,6.666667%);fill-opacity:1;" d="M 185.542969 122.867188 L 197.101562 122.867188 L 197.101562 137.21875 L 185.542969 137.21875 Z M 185.542969 122.867188 "/>
<path style=" stroke:none;fill-rule:evenodd;fill:rgb(63.137255%,6.27451%,6.666667%);fill-opacity:1;" d="M 191.328125 117.140625 C 194.496094 117.140625 197.0625 119.796875 197.0625 123.070312 C 197.0625 126.34375 194.496094 128.996094 191.328125 128.996094 C 188.160156 128.996094 185.589844 126.34375 185.589844 123.070312 C 185.589844 119.796875 188.160156 117.140625 191.328125 117.140625 Z M 191.328125 117.140625 "/>
<path style=" stroke:none;fill-rule:evenodd;fill:rgb(83.921569%,8.235294%,9.019608%);fill-opacity:1;" d="M 186.207031 123.257812 L 196.34375 123.257812 L 196.34375 136.945312 L 186.207031 136.945312 Z M 186.207031 123.257812 "/>
<path style=" stroke:none;fill-rule:evenodd;fill:rgb(83.921569%,8.235294%,9.019608%);fill-opacity:1;" d="M 191.28125 117.792969 C 194.0625 117.792969 196.3125 120.324219 196.3125 123.449219 C 196.3125 126.570312 194.0625 129.101562 191.28125 129.101562 C 188.503906 129.101562 186.25 126.570312 186.25 123.449219 C 186.25 120.324219 188.503906 117.792969 191.28125 117.792969 Z M 191.28125 117.792969 "/>
<path style=" stroke:none;fill-rule:nonzero;fill:rgb(63.137255%,6.27451%,6.666667%);fill-opacity:1;" d="M 183.238281 132.105469 L 183.238281 137.359375 L 202.308594 137.359375 L 202.308594 132.105469 Z M 183.238281 132.105469 "/>
<path style=" stroke:none;fill-rule:nonzero;fill:rgb(83.921569%,8.235294%,9.019608%);fill-opacity:1;" d="M 183.449219 133.164062 L 183.449219 137.15625 L 201.46875 137.15625 L 201.46875 133.164062 Z M 183.449219 133.164062 "/>
<path style=" stroke:none;fill-rule:evenodd;fill:rgb(63.137255%,6.27451%,6.666667%);fill-opacity:1;" d="M 99.144531 121.382812 L 115.53125 121.382812 L 115.53125 137.210938 L 99.144531 137.210938 Z M 99.144531 121.382812 "/>
<path style=" stroke:none;fill-rule:evenodd;fill:rgb(63.137255%,6.27451%,6.666667%);fill-opacity:1;" d="M 107.347656 115.066406 C 111.839844 115.066406 115.480469 117.992188 115.480469 121.605469 C 115.480469 125.214844 111.839844 128.140625 107.347656 128.140625 C 102.855469 128.140625 99.214844 125.214844 99.214844 121.605469 C 99.214844 117.992188 102.855469 115.066406 107.347656 115.066406 Z M 107.347656 115.066406 "/>
<path style=" stroke:none;fill-rule:evenodd;fill:rgb(83.921569%,8.235294%,9.019608%);fill-opacity:1;" d="M 99.722656 121.925781 L 115.238281 121.925781 L 115.238281 137.210938 L 99.722656 137.210938 Z M 99.722656 121.925781 "/>
<path style=" stroke:none;fill-rule:evenodd;fill:rgb(83.921569%,8.235294%,9.019608%);fill-opacity:1;" d="M 107.488281 115.828125 C 111.742188 115.828125 115.191406 118.652344 115.191406 122.140625 C 115.191406 125.628906 111.742188 128.453125 107.488281 128.453125 C 103.238281 128.453125 99.789062 125.628906 99.789062 122.140625 C 99.789062 118.652344 103.238281 115.828125 107.488281 115.828125 Z M 107.488281 115.828125 "/>
<path style=" stroke:none;fill-rule:evenodd;fill:rgb(63.137255%,6.27451%,6.666667%);fill-opacity:1;" d="M 101.699219 122.867188 L 113.257812 122.867188 L 113.257812 137.21875 L 101.699219 137.21875 Z M 101.699219 122.867188 "/>
<path style=" stroke:none;fill-rule:evenodd;fill:rgb(63.137255%,6.27451%,6.666667%);fill-opacity:1;" d="M 107.484375 117.140625 C 110.652344 117.140625 113.222656 119.796875 113.222656 123.070312 C 113.222656 126.34375 110.652344 128.996094 107.484375 128.996094 C 104.316406 128.996094 101.75 126.34375 101.75 123.070312 C 101.75 119.796875 104.316406 117.140625 107.484375 117.140625 Z M 107.484375 117.140625 "/>
<path style=" stroke:none;fill-rule:evenodd;fill:rgb(83.921569%,8.235294%,9.019608%);fill-opacity:1;" d="M 102.363281 123.257812 L 112.503906 123.257812 L 112.503906 136.945312 L 102.363281 136.945312 Z M 102.363281 123.257812 "/>
<path style=" stroke:none;fill-rule:evenodd;fill:rgb(83.921569%,8.235294%,9.019608%);fill-opacity:1;" d="M 107.441406 117.792969 C 110.21875 117.792969 112.46875 120.324219 112.46875 123.449219 C 112.46875 126.570312 110.21875 129.101562 107.441406 129.101562 C 104.660156 129.101562 102.410156 126.570312 102.410156 123.449219 C 102.410156 120.324219 104.660156 117.792969 107.441406 117.792969 Z M 107.441406 117.792969 "/>
<path style=" stroke:none;fill-rule:nonzero;fill:rgb(63.137255%,6.27451%,6.666667%);fill-opacity:1;" d="M 96.238281 130.425781 L 96.238281 136.730469 L 112.996094 136.730469 L 112.996094 130.425781 Z M 96.238281 130.425781 "/>
<path style=" stroke:none;fill-rule:nonzero;fill:rgb(83.921569%,8.235294%,9.019608%);fill-opacity:1;" d="M 111.96875 136.941406 Z M 97.375 131.332031 L 97.375 137.066406 L 112.226562 137.066406 L 112.226562 131.453125 L 97.375 131.332031 "/>
</g>
</svg>
