<?xml version="1.0" encoding="UTF-8"?>
<svg xmlns="http://www.w3.org/2000/svg" xmlns:xlink="http://www.w3.org/1999/xlink" width="384pt" height="384pt" viewBox="0 0 384 384" version="1.1">
<defs>
<clipPath id="clip1">
  <path d="M 0 0 L 383.988281 0 L 383.988281 129 L 0 129 Z M 0 0 "/>
</clipPath>
<clipPath id="clip2">
  <path d="M 0 128 L 383.988281 128 L 383.988281 256 L 0 256 Z M 0 128 "/>
</clipPath>
<clipPath id="clip3">
  <path d="M 0 255 L 383.988281 255 L 383.988281 383.988281 L 0 383.988281 Z M 0 255 "/>
</clipPath>
<clipPath id="clip4">
  <path d="M 0 0 L 192 0 L 192 383.988281 L 0 383.988281 Z M 0 0 "/>
</clipPath>
</defs>
<g id="surface1">
<g clip-path="url(#clip1)" clip-rule="nonzero">
<path style=" stroke:none;fill-rule:evenodd;fill:rgb(24.313725%,60.392157%,0%);fill-opacity:1;" d="M 0 0 L 575.980469 0 L 575.980469 128.914062 L 0 128.914062 Z M 0 0 "/>
</g>
<g clip-path="url(#clip2)" clip-rule="nonzero">
<path style=" stroke:none;fill-rule:evenodd;fill:rgb(100%,100%,100%);fill-opacity:1;" d="M 0 128.914062 L 575.980469 128.914062 L 575.980469 255.082031 L 0 255.082031 Z M 0 128.914062 "/>
</g>
<g clip-path="url(#clip3)" clip-rule="nonzero">
<path style=" stroke:none;fill-rule:evenodd;fill:rgb(89.019608%,12.941176%,9.411765%);fill-opacity:1;" d="M 0 255.082031 L 575.980469 255.082031 L 575.980469 383.996094 L 0 383.996094 Z M 0 255.082031 "/>
</g>
<g clip-path="url(#clip4)" clip-rule="nonzero">
<path style=" stroke:none;fill-rule:evenodd;fill:rgb(33.333333%,40.392157%,89.411765%);fill-opacity:1;" d="M 0 0 L 0 383.988281 L 191.996094 191.992188 Z M 0 0 "/>
</g>
<path style="fill-rule:evenodd;fill:rgb(80%,80%,80%);fill-opacity:1;stroke-width:3.7907;stroke-linecap:butt;stroke-linejoin:miter;stroke:rgb(0%,0%,0%);stroke-opacity:1;stroke-miterlimit:4;" d="M 283.468538 148.810688 L 283.468538 591.741493 C 283.468538 627.16922 301.167071 662.596947 336.607835 662.596947 L 407.467514 662.596947 C 425.187896 662.596947 442.908278 698.024674 442.908278 698.024674 C 442.908278 698.024674 459.842059 662.596947 478.349043 662.596947 L 549.208721 662.596947 C 584.649486 662.596947 602.348018 627.16922 602.348018 591.741493 L 602.348018 148.810688 L 283.446688 148.810688 Z M 283.468538 148.810688 " transform="matrix(0.178775,0,0,0.139148,202.131387,134.820676)"/>
<path style="fill-rule:evenodd;fill:rgb(80%,80%,80%);fill-opacity:1;stroke-width:1.25;stroke-linecap:butt;stroke-linejoin:miter;stroke:rgb(0%,0%,0%);stroke-opacity:1;stroke-miterlimit:4;" d="M 215.374742 731.789754 C 197.353638 731.789754 179.636872 714.075714 179.636872 696.361673 L 179.636872 607.763397 C 195.136325 623.287747 268.220703 678.647633 250.503937 696.361673 C 232.787171 714.075714 214.766068 696.361673 215.070405 696.361673 C 215.374742 696.361673 215.374742 731.789754 215.374742 731.789754 Z M 215.374742 731.789754 " transform="matrix(0.179694,0,0,0.139146,200.857079,120.263985)"/>
<path style=" stroke:none;fill-rule:evenodd;fill:rgb(80%,80%,80%);fill-opacity:1;" d="M 239.503906 217.160156 C 242.6875 214.695312 242.6875 219.625 245.871094 217.160156 L 242.6875 231.949219 C 239.601562 231.488281 239.496094 231.949219 237.710938 229.484375 C 237.710938 227.019531 237.710938 219.144531 239.503906 217.160156 Z M 239.503906 217.160156 "/>
<path style="fill-rule:evenodd;fill:rgb(80%,80%,80%);fill-opacity:1;stroke-width:1.25;stroke-linecap:butt;stroke-linejoin:miter;stroke:rgb(0%,0%,0%);stroke-opacity:1;stroke-miterlimit:4;" d="M 215.375938 731.790054 C 197.354835 731.790054 179.638069 714.076014 179.638069 696.361973 L 179.638069 607.763697 C 195.137522 623.288047 268.2219 678.647933 250.505134 696.361973 C 232.788367 714.076014 214.767264 696.361973 215.071601 696.361973 C 215.375938 696.361973 215.375938 731.790054 215.375938 731.790054 Z M 215.375938 731.790054 " transform="matrix(-0.179694,0,0,0.139146,361.420479,120.263943)"/>
<path style=" stroke:none;fill-rule:evenodd;fill:rgb(80%,80%,80%);fill-opacity:1;" d="M 322.277344 217.160156 C 319.09375 214.695312 319.09375 219.625 315.910156 217.160156 L 319.09375 231.949219 C 322.183594 231.488281 322.289062 231.949219 324.074219 229.484375 C 324.074219 227.019531 324.074219 219.144531 322.277344 217.160156 Z M 322.277344 217.160156 "/>
<path style="fill-rule:evenodd;fill:rgb(80%,80%,80%);fill-opacity:1;stroke-width:1.25;stroke-linecap:butt;stroke-linejoin:miter;stroke:rgb(0%,0%,0%);stroke-opacity:1;stroke-miterlimit:4;" d="M 513.776845 1140.896766 C 513.776845 1123.182725 478.343313 1087.754644 478.343313 1070.040603 C 478.343313 1052.326563 513.776845 1087.754644 584.64391 1087.754644 C 655.510975 1087.754644 690.944507 999.184441 673.227741 981.4704 C 690.944507 1016.898481 690.944507 1052.326563 690.944507 1070.040603 C 690.944507 1105.468684 655.510975 1140.896766 584.64391 1140.896766 Z M 513.776845 1140.896766 " transform="matrix(0.179694,0,0,0.139146,201.302466,80.588245)"/>
<path style="fill-rule:evenodd;fill:rgb(80%,80%,80%);fill-opacity:1;stroke-width:1.25;stroke-linecap:butt;stroke-linejoin:miter;stroke:rgb(0%,0%,0%);stroke-opacity:1;stroke-miterlimit:4;" d="M 513.787399 1140.896766 C 513.787399 1123.182725 478.353867 1087.754644 478.353867 1070.040603 C 478.353867 1052.326563 513.787399 1087.754644 584.654464 1087.754644 C 655.521529 1087.754644 690.955062 999.184441 673.238295 981.4704 C 690.955062 1016.898481 690.955062 1052.326563 690.955062 1070.040603 C 690.955062 1105.468684 655.521529 1140.896766 584.654464 1140.896766 Z M 513.787399 1140.896766 " transform="matrix(-0.179694,0,0,0.139146,360.480681,80.588245)"/>
<path style=" stroke:none;fill-rule:evenodd;fill:rgb(80%,80%,80%);fill-opacity:1;" d="M 268.15625 236.878906 C 268.15625 234.414062 274.523438 231.945312 274.523438 229.480469 L 274.523438 241.808594 L 268.15625 241.808594 Z M 268.15625 236.878906 "/>
<path style=" stroke:none;fill-rule:evenodd;fill:rgb(80%,80%,80%);fill-opacity:1;" d="M 293.625 236.878906 C 293.625 234.414062 287.257812 231.945312 287.257812 229.480469 L 287.257812 241.808594 L 293.625 241.808594 Z M 293.625 236.878906 "/>
<path style="fill-rule:evenodd;fill:rgb(80%,80%,80%);fill-opacity:1;stroke-width:1.25;stroke-linecap:butt;stroke-linejoin:miter;stroke:rgb(0%,0%,0%);stroke-opacity:1;stroke-miterlimit:4;" d="M 371.167091 1034.612725 C 371.167091 1052.298693 512.901221 1052.298693 512.901221 1034.612725 L 512.901221 1105.468888 C 512.901221 1123.182928 371.167091 1123.182928 371.167091 1105.468888 Z M 371.167091 1034.612725 " transform="matrix(0.179694,0,0,0.139146,201.45981,92.912436)"/>
<path style="fill:none;stroke-width:1.25;stroke-linecap:butt;stroke-linejoin:miter;stroke:rgb(0%,0%,0%);stroke-opacity:1;stroke-miterlimit:4;" d="M 249.627837 696.361673 C 231.911071 714.075714 231.911071 678.647633 214.194305 696.361673 C 196.477538 714.075714 231.911071 802.67399 302.778136 802.67399 C 373.645201 802.67399 409.078733 767.217836 409.078733 784.931876 C 409.078733 802.67399 373.645201 820.38803 373.645201 838.102071 C 373.645201 855.816112 515.379331 855.816112 515.379331 838.102071 C 515.379331 820.38803 479.945798 802.67399 479.945798 784.931876 C 479.945798 767.217836 515.379331 802.67399 586.246395 802.67399 C 657.11346 802.67399 692.546993 714.075714 674.830227 696.361673 C 657.11346 678.647633 657.11346 714.075714 639.396694 696.361673 " transform="matrix(0.179694,0,0,0.139146,201.014509,120.263985)"/>
<path style=" stroke:none;fill-rule:nonzero;fill:rgb(0%,0%,0%);fill-opacity:1;" d="M 320.121094 235.195312 L 316.847656 229.730469 L 317.417969 229.5 L 320.695312 234.960938 Z M 320.121094 235.195312 "/>
<path style=" stroke:none;fill-rule:nonzero;fill:rgb(0%,0%,0%);fill-opacity:1;" d="M 318.074219 234.003906 L 318.757812 234 C 318.933594 234.652344 318.941406 235.195312 318.777344 235.625 C 318.617188 236.054688 318.300781 236.34375 317.835938 236.5 C 317.355469 236.660156 316.902344 236.667969 316.476562 236.519531 C 316.054688 236.371094 315.648438 236.085938 315.261719 235.671875 C 314.871094 235.253906 314.546875 234.773438 314.28125 234.234375 C 313.992188 233.644531 313.828125 233.105469 313.789062 232.609375 C 313.753906 232.109375 313.839844 231.695312 314.058594 231.359375 C 314.273438 231.023438 314.578125 230.789062 314.972656 230.65625 C 315.417969 230.507812 315.867188 230.527344 316.3125 230.714844 C 316.757812 230.902344 317.167969 231.234375 317.546875 231.714844 L 317.046875 232.082031 C 316.742188 231.707031 316.445312 231.457031 316.15625 231.335938 C 315.867188 231.214844 315.574219 231.203125 315.277344 231.300781 C 314.933594 231.414062 314.695312 231.613281 314.566406 231.898438 C 314.441406 232.183594 314.414062 232.515625 314.496094 232.898438 C 314.574219 233.28125 314.703125 233.65625 314.886719 234.027344 C 315.125 234.507812 315.386719 234.910156 315.671875 235.234375 C 315.960938 235.554688 316.261719 235.761719 316.582031 235.863281 C 316.90625 235.960938 317.199219 235.96875 317.472656 235.875 C 317.804688 235.765625 318.023438 235.550781 318.136719 235.234375 C 318.246094 234.917969 318.226562 234.507812 318.074219 234.003906 Z M 318.074219 234.003906 "/>
<path style=" stroke:none;fill-rule:nonzero;fill:rgb(0%,0%,0%);fill-opacity:1;" d="M 314.074219 237.769531 L 311.9375 231.9375 L 312.546875 231.789062 L 314.683594 237.621094 Z M 314.074219 237.769531 "/>
<path style=" stroke:none;fill-rule:nonzero;fill:rgb(0%,0%,0%);fill-opacity:1;" d="M 310.039062 238.414062 L 309.476562 233.0625 L 307.894531 233.175781 L 307.820312 232.457031 L 311.625 232.1875 L 311.699219 232.90625 L 310.113281 233.019531 L 310.671875 238.371094 Z M 310.039062 238.414062 "/>
<path style=" stroke:none;fill-rule:nonzero;fill:rgb(0%,0%,0%);fill-opacity:1;" d="M 303.929688 236.792969 L 304.53125 236.726562 C 304.558594 237.03125 304.625 237.28125 304.726562 237.480469 C 304.832031 237.675781 304.996094 237.832031 305.214844 237.953125 C 305.433594 238.074219 305.679688 238.132812 305.953125 238.132812 C 306.195312 238.132812 306.410156 238.085938 306.597656 237.996094 C 306.785156 237.902344 306.921875 237.777344 307.011719 237.621094 C 307.101562 237.460938 307.148438 237.285156 307.148438 237.097656 C 307.148438 236.90625 307.105469 236.738281 307.015625 236.597656 C 306.929688 236.453125 306.785156 236.335938 306.585938 236.238281 C 306.453125 236.171875 306.167969 236.074219 305.726562 235.941406 C 305.285156 235.808594 304.972656 235.679688 304.796875 235.558594 C 304.566406 235.40625 304.394531 235.21875 304.28125 234.996094 C 304.167969 234.769531 304.113281 234.515625 304.113281 234.234375 C 304.113281 233.925781 304.183594 233.640625 304.320312 233.375 C 304.457031 233.105469 304.660156 232.902344 304.925781 232.765625 C 305.191406 232.625 305.484375 232.554688 305.808594 232.554688 C 306.164062 232.554688 306.480469 232.628906 306.75 232.777344 C 307.023438 232.921875 307.234375 233.132812 307.382812 233.417969 C 307.527344 233.699219 307.609375 234.019531 307.617188 234.375 L 307.007812 234.433594 C 306.976562 234.050781 306.863281 233.757812 306.671875 233.5625 C 306.484375 233.363281 306.207031 233.265625 305.835938 233.265625 C 305.449219 233.265625 305.167969 233.355469 304.992188 233.539062 C 304.816406 233.714844 304.726562 233.929688 304.726562 234.179688 C 304.726562 234.398438 304.789062 234.578125 304.914062 234.722656 C 305.039062 234.863281 305.359375 235.007812 305.875 235.15625 C 306.394531 235.304688 306.75 235.433594 306.941406 235.542969 C 307.222656 235.707031 307.429688 235.914062 307.5625 236.167969 C 307.695312 236.414062 307.761719 236.703125 307.761719 237.03125 C 307.761719 237.355469 307.691406 237.660156 307.542969 237.949219 C 307.398438 238.234375 307.183594 238.457031 306.910156 238.617188 C 306.636719 238.777344 306.328125 238.855469 305.984375 238.855469 C 305.546875 238.855469 305.179688 238.773438 304.886719 238.613281 C 304.59375 238.453125 304.359375 238.210938 304.191406 237.890625 C 304.027344 237.566406 303.9375 237.203125 303.929688 236.792969 Z M 303.929688 236.792969 "/>
<path style=" stroke:none;fill-rule:nonzero;fill:rgb(0%,0%,0%);fill-opacity:1;" d="M 302.195312 232.59375 L 302.832031 232.617188 L 302.636719 236.132812 C 302.601562 236.746094 302.519531 237.230469 302.390625 237.585938 C 302.261719 237.941406 302.046875 238.226562 301.75 238.441406 C 301.453125 238.65625 301.070312 238.753906 300.609375 238.738281 C 300.15625 238.71875 299.792969 238.605469 299.519531 238.402344 C 299.242188 238.191406 299.054688 237.902344 298.953125 237.527344 C 298.851562 237.148438 298.816406 236.636719 298.851562 235.992188 L 299.046875 232.476562 L 299.683594 232.5 L 299.488281 236.011719 C 299.460938 236.539062 299.476562 236.933594 299.539062 237.1875 C 299.605469 237.4375 299.726562 237.636719 299.90625 237.777344 C 300.089844 237.921875 300.320312 237.996094 300.59375 238.007812 C 301.058594 238.023438 301.402344 237.902344 301.617188 237.644531 C 301.828125 237.382812 301.957031 236.871094 302 236.105469 Z M 302.195312 232.59375 "/>
<path style=" stroke:none;fill-rule:nonzero;fill:rgb(0%,0%,0%);fill-opacity:1;" d="M 294.332031 236.675781 L 294.90625 236.574219 C 294.921875 237.039062 294.988281 237.359375 295.113281 237.53125 C 295.234375 237.703125 295.402344 237.789062 295.621094 237.789062 C 295.78125 237.789062 295.917969 237.742188 296.035156 237.652344 C 296.152344 237.554688 296.230469 237.429688 296.273438 237.273438 C 296.320312 237.113281 296.339844 236.855469 296.339844 236.507812 L 296.339844 232.3125 L 296.976562 232.3125 L 296.976562 236.460938 C 296.976562 236.972656 296.929688 237.367188 296.828125 237.648438 C 296.734375 237.925781 296.578125 238.140625 296.367188 238.285156 C 296.15625 238.433594 295.910156 238.507812 295.625 238.507812 C 295.203125 238.507812 294.878906 238.351562 294.652344 238.046875 C 294.429688 237.738281 294.320312 237.28125 294.332031 236.675781 Z M 294.332031 236.675781 "/>
<path style=" stroke:none;fill-rule:nonzero;fill:rgb(0%,0%,0%);fill-opacity:1;" d="M 283.496094 246.847656 L 283.496094 246.003906 L 285.964844 241.601562 C 286.140625 241.285156 286.304688 241.015625 286.464844 240.785156 L 283.777344 240.785156 L 283.777344 239.972656 L 287.226562 239.972656 L 287.226562 240.785156 L 284.523438 245.554688 L 284.230469 246.035156 L 287.304688 246.035156 L 287.304688 246.847656 Z M 283.496094 246.847656 "/>
<path style=" stroke:none;fill-rule:nonzero;fill:rgb(0%,0%,0%);fill-opacity:1;" d="M 248.425781 238.402344 L 249.945312 231.640625 L 250.570312 231.734375 L 249.050781 238.496094 Z M 248.425781 238.402344 "/>
<path style=" stroke:none;fill-rule:nonzero;fill:rgb(0%,0%,0%);fill-opacity:1;" d="M 241.605469 235.738281 L 245.566406 229.679688 L 246.140625 229.933594 L 245.261719 235.671875 L 248.371094 230.917969 L 248.910156 231.15625 L 244.949219 237.210938 L 244.375 236.957031 L 245.257812 231.214844 L 242.144531 235.972656 Z M 241.605469 235.738281 "/>
<path style=" stroke:none;fill-rule:nonzero;fill:rgb(0%,0%,0%);fill-opacity:1;" d="M 245.011719 228.980469 L 245.460938 229.347656 L 242.046875 232.160156 C 241.453125 232.648438 240.941406 233.007812 240.515625 233.230469 C 240.089844 233.453125 239.664062 233.574219 239.238281 233.589844 C 238.820312 233.601562 238.445312 233.476562 238.117188 233.207031 C 237.796875 232.945312 237.632812 232.652344 237.621094 232.328125 C 237.609375 232.003906 237.738281 231.660156 238.011719 231.289062 C 238.289062 230.921875 238.738281 230.476562 239.367188 229.960938 L 242.78125 227.152344 L 243.230469 227.519531 L 239.820312 230.328125 C 239.308594 230.75 238.957031 231.085938 238.765625 231.332031 C 238.578125 231.578125 238.488281 231.808594 238.488281 232.027344 C 238.492188 232.246094 238.589844 232.433594 238.785156 232.59375 C 239.117188 232.863281 239.480469 232.949219 239.882812 232.851562 C 240.285156 232.753906 240.859375 232.398438 241.601562 231.789062 Z M 245.011719 228.980469 "/>
<path style=" stroke:none;fill-rule:nonzero;fill:rgb(0%,0%,0%);fill-opacity:1;" d="M 251.8125 238.921875 L 252.042969 232.050781 L 253.703125 232.089844 C 254.074219 232.097656 254.359375 232.136719 254.554688 232.207031 C 254.828125 232.304688 255.058594 232.472656 255.246094 232.714844 C 255.488281 233.027344 255.664062 233.425781 255.773438 233.90625 C 255.882812 234.382812 255.929688 234.929688 255.910156 235.539062 C 255.890625 236.0625 255.832031 236.523438 255.734375 236.925781 C 255.636719 237.328125 255.515625 237.660156 255.371094 237.921875 C 255.230469 238.179688 255.074219 238.386719 254.910156 238.535156 C 254.746094 238.679688 254.550781 238.789062 254.324219 238.863281 C 254.097656 238.9375 253.839844 238.96875 253.546875 238.960938 Z M 252.476562 238.128906 L 253.503906 238.152344 C 253.820312 238.15625 254.070312 238.121094 254.253906 238.039062 C 254.4375 237.960938 254.585938 237.84375 254.699219 237.695312 C 254.855469 237.480469 254.984375 237.195312 255.078125 236.835938 C 255.175781 236.472656 255.234375 236.03125 255.253906 235.511719 C 255.277344 234.792969 255.210938 234.238281 255.058594 233.851562 C 254.90625 233.460938 254.714844 233.195312 254.484375 233.058594 C 254.316406 232.960938 254.042969 232.910156 253.664062 232.898438 L 252.652344 232.875 Z M 252.476562 238.128906 "/>
<path style=" stroke:none;fill-rule:nonzero;fill:rgb(0%,0%,0%);fill-opacity:1;" d="M 256.257812 238.96875 L 258.105469 232.09375 L 258.792969 232.09375 L 260.765625 238.96875 L 260.039062 238.96875 L 259.476562 236.886719 L 257.460938 236.886719 L 256.933594 238.96875 Z M 257.648438 236.144531 L 259.28125 236.144531 L 258.777344 234.242188 C 258.625 233.664062 258.507812 233.1875 258.433594 232.816406 C 258.375 233.257812 258.285156 233.695312 258.175781 234.128906 Z M 257.648438 236.144531 "/>
<path style=" stroke:none;fill-rule:nonzero;fill:rgb(0%,0%,0%);fill-opacity:1;" d="M 261.273438 238.96875 L 261.273438 232.09375 L 262.929688 232.09375 C 263.304688 232.09375 263.59375 232.125 263.789062 232.191406 C 264.066406 232.285156 264.300781 232.449219 264.496094 232.683594 C 264.75 232.992188 264.9375 233.382812 265.0625 233.863281 C 265.191406 234.335938 265.253906 234.882812 265.253906 235.492188 C 265.253906 236.015625 265.210938 236.480469 265.125 236.882812 C 265.039062 237.285156 264.929688 237.621094 264.796875 237.886719 C 264.664062 238.148438 264.515625 238.355469 264.355469 238.507812 C 264.199219 238.660156 264.007812 238.773438 263.78125 238.851562 C 263.558594 238.929688 263.300781 238.96875 263.011719 238.96875 Z M 261.910156 238.15625 L 262.9375 238.15625 C 263.253906 238.15625 263.503906 238.117188 263.683594 238.03125 C 263.867188 237.945312 264.011719 237.828125 264.117188 237.675781 C 264.269531 237.457031 264.386719 237.167969 264.46875 236.808594 C 264.554688 236.441406 264.597656 236 264.597656 235.480469 C 264.597656 234.761719 264.515625 234.210938 264.347656 233.824219 C 264.183594 233.4375 263.984375 233.175781 263.746094 233.046875 C 263.574219 232.953125 263.300781 232.90625 262.921875 232.90625 L 261.910156 232.90625 Z M 261.910156 238.15625 "/>
<path style=" stroke:none;fill-rule:nonzero;fill:rgb(0%,0%,0%);fill-opacity:1;" d="M 274.90625 246.847656 L 274.90625 239.972656 L 276.726562 239.972656 C 277.042969 239.972656 277.289062 239.996094 277.457031 240.039062 C 277.695312 240.09375 277.890625 240.203125 278.050781 240.363281 C 278.210938 240.519531 278.339844 240.738281 278.4375 241.023438 C 278.535156 241.308594 278.585938 241.621094 278.585938 241.960938 C 278.585938 242.546875 278.453125 243.039062 278.195312 243.445312 C 277.933594 243.851562 277.460938 244.050781 276.78125 244.050781 L 275.546875 244.050781 L 275.546875 246.847656 Z M 275.546875 243.242188 L 276.789062 243.242188 C 277.203125 243.242188 277.496094 243.132812 277.667969 242.914062 C 277.839844 242.695312 277.925781 242.386719 277.925781 241.988281 C 277.925781 241.699219 277.875 241.457031 277.773438 241.253906 C 277.671875 241.046875 277.539062 240.910156 277.371094 240.84375 C 277.265625 240.804688 277.066406 240.785156 276.777344 240.785156 L 275.546875 240.785156 Z M 275.546875 243.242188 "/>
<path style=" stroke:none;fill-rule:nonzero;fill:rgb(0%,0%,0%);fill-opacity:1;" d="M 278.867188 246.847656 L 280.714844 239.972656 L 281.402344 239.972656 L 283.375 246.847656 L 282.648438 246.847656 L 282.085938 244.765625 L 280.074219 244.765625 L 279.542969 246.847656 Z M 280.257812 244.023438 L 281.890625 244.023438 L 281.386719 242.121094 C 281.234375 241.542969 281.117188 241.066406 281.046875 240.695312 C 280.984375 241.136719 280.898438 241.574219 280.785156 242.007812 Z M 280.257812 244.023438 "/>
<path style=" stroke:none;fill-rule:nonzero;fill:rgb(0%,0%,0%);fill-opacity:1;" d="M 321.566406 234.65625 L 318.351562 228.777344 L 318.859375 228.472656 L 324.902344 232.640625 L 324.363281 232.964844 L 322.558594 231.6875 L 321.070312 232.589844 L 322.066406 234.355469 Z M 320.710938 231.960938 L 321.921875 231.230469 L 320.277344 230.058594 C 319.777344 229.699219 319.378906 229.402344 319.074219 229.164062 C 319.324219 229.511719 319.550781 229.875 319.757812 230.242188 Z M 320.710938 231.960938 "/>
<path style="fill-rule:evenodd;fill:rgb(40.784314%,16.078431%,0%);fill-opacity:1;stroke-width:5.0292;stroke-linecap:butt;stroke-linejoin:miter;stroke:rgb(0%,0%,0%);stroke-opacity:1;stroke-miterlimit:4;" d="M 419.171134 331.784045 C 419.241832 364.734358 439.037288 463.409842 381.489068 616.721786 C 377.211835 627.845587 388.558874 633.214488 397.961716 635.565575 C 407.399907 637.916662 412.101328 626.126135 412.101328 623.775048 C 412.101328 621.42396 414.434364 642.618837 423.872555 640.267749 C 433.275396 637.916662 442.713587 623.775048 442.713587 623.775048 C 442.713587 623.775048 447.415008 644.969924 459.186235 644.969924 C 470.957462 644.969924 470.957462 619.072873 470.957462 619.072873 C 470.957462 621.42396 479.123088 641.320475 488.561279 641.320475 C 497.964121 641.320475 512.492572 632.547761 504.079503 618.160511 C 444.268945 517.449758 447.415008 350.627834 447.415008 331.784045 C 447.415008 312.940256 475.199346 278.726673 502.842287 277.884493 L 492.16688 261.146155 C 485.203121 263.286697 476.896099 264.795604 462.756487 276.586131 C 448.616875 288.341567 440.345202 301.18482 440.345202 301.18482 L 440.345202 221.10749 L 416.802749 221.10749 L 419.171134 294.096467 C 419.171134 294.096467 411.111555 284.657028 399.057536 274.164862 C 387.675148 264.23415 367.102013 264.971058 354.411711 267.076509 L 353.209844 283.042848 C 368.197833 286.165934 387.286309 279.989944 396.7245 294.096467 C 408.495727 305.886995 419.135785 315.361525 419.171134 331.784045 Z M 419.171134 331.784045 " transform="matrix(0.110505,0,0,0.111318,234.093492,151.515623)"/>
<path style="fill-rule:evenodd;fill:rgb(0%,57.254902%,0%);fill-opacity:1;stroke-width:4.4636;stroke-linecap:butt;stroke-linejoin:miter;stroke:rgb(0%,0%,0%);stroke-opacity:1;stroke-miterlimit:4;" d="M 310.539277 312.221389 L 310.539277 311.368893 C 310.539277 313.346683 310.488157 312.494188 311.382763 308.879606 C 312.149568 306.01522 313.78542 303.355434 315.549072 301.377644 C 318.590733 300.388749 322.987083 301.445843 326.361027 300.559248 C 328.635882 297.285664 332.188747 304.821726 332.188747 299.706752 C 336.533977 299.399854 336.585097 295.171475 338.016467 293.057285 C 342.080535 292.545788 343.000701 287.635413 346.349085 290.567998 C 349.109584 291.863791 346.758047 289.715502 351.358879 289.715502 C 354.068258 290.397499 355.474068 292.034291 358.004525 290.567998 C 358.617969 287.703612 359.410335 284.29363 359.665936 280.576748 C 358.490168 278.22386 358.848011 273.381684 358.848011 269.733003 C 361.122867 266.732218 365.110254 272.22229 368.84204 271.403894 C 369.838887 267.857512 372.982788 267.959812 371.321377 264.754428 C 371.014655 260.730648 370.24785 258.241361 371.321377 253.944782 C 372.650506 250.227901 374.567519 250.3302 377.992583 248.113712 C 379.091671 244.840128 377.864782 242.078042 378.810509 238.122462 C 382.721216 237.986062 382.644535 236.963068 382.976817 233.109787 C 384.254826 230.45 385.839557 227.756114 387.986612 225.607825 C 389.954746 223.254937 392.280722 223.493635 393.814332 219.810854 C 395.117901 216.53727 395.117901 215.036878 398.798567 213.979783 C 401.507945 212.68399 403.62944 212.54759 405.469773 210.638 C 407.182304 207.569015 408.639235 205.147928 411.297493 201.465146 C 413.930191 199.691955 426.531358 203.136038 430.442065 203.136038 C 432.56356 200.476251 435.835262 196.281972 437.931197 194.81568 C 441.509621 192.906089 442.889871 192.326392 447.925226 192.326392 C 452.219335 193.588086 454.008548 195.122578 458.73718 193.997284 C 460.679754 191.269297 462.571207 190.007604 467.069798 191.473896 C 470.494862 193.724485 472.411875 193.622186 473.741004 197.304967 C 475.683577 201.942544 475.249054 203.511136 480.38665 203.988533 C 485.575366 204.159033 486.112129 205.420726 489.562753 208.148713 C 494.802589 210.399301 494.546988 209.137608 494.546988 213.979783 C 498.278773 213.979783 498.611056 213.536485 498.713296 217.287467 C 501.013712 218.003563 503.62085 220.015453 505.358942 221.447646 C 507.454877 223.868733 507.99164 225.403226 512.873634 225.607825 C 516.452059 224.107432 517.602267 224.141532 517.857869 219.810854 C 520.618368 218.821959 521.078451 216.162172 522.024177 213.127287 C 524.120112 210.262902 525.500361 209.819604 530.356795 209.819604 C 534.625344 211.592795 534.497543 213.365986 533.679618 217.287467 C 536.337876 217.833064 537.436964 217.526165 537.845927 220.62925 C 539.251736 222.982138 538.868334 225.778324 537.002441 227.278716 C 539.149496 228.847308 540.376384 231.541195 541.168749 234.780679 C 539.76294 237.133567 540.631986 240.577649 541.168749 243.101037 C 544.08261 244.567329 545.59066 245.931322 549.501367 247.261216 C 551.469501 248.966207 555.68693 250.705298 559.495396 251.421395 C 563.968427 250.841698 565.450917 250.875798 569.489425 253.092286 C 571.559799 256.093071 571.71316 259.878152 573.630174 261.412645 C 575.828349 263.254035 579.457894 264.072431 581.144865 266.425319 C 583.905365 268.437209 584.72329 270.687798 588.633997 271.403894 C 590.090927 273.654483 593.260389 277.303165 594.461717 279.724252 C 595.407444 282.418139 595.816407 287.158015 596.941055 290.567998 L 596.941055 302.230139 C 596.787693 306.526718 596.123129 309.118305 596.123129 313.858181 C 595.381884 316.245169 594.461717 317.165864 594.461717 320.541747 C 592.876986 324.05403 591.522297 327.020715 589.451923 329.680501 C 588.531756 333.94298 586.998146 335.92077 585.285614 339.671751 C 585.336734 344.070629 586.1291 345.980219 586.1291 350.515496 C 584.314327 353.209383 582.243953 355.153073 578.639968 357.164963 C 575.905029 360.370347 574.269178 361.597941 573.630174 366.337817 C 572.071003 369.031703 572.198804 368.827104 568.645939 368.827104 C 564.45407 368.827104 560.824525 369.202202 556.990499 369.6455 C 553.616555 369.6455 552.338547 370.020598 550.319293 368.008708 C 546.331905 366.201418 542.983522 366.065018 538.663852 367.156213 C 536.337876 365.553521 535.41771 364.666925 531.174721 364.666925 C 528.030819 365.076123 525.219199 365.485321 521.180692 365.485321 C 518.701354 362.689135 517.295545 362.177638 512.873634 362.177638 C 510.496538 363.337032 505.691225 362.996034 502.036119 362.996034 C 498.227653 361.938939 497.71645 360.370347 496.208399 357.164963 C 493.601261 355.937369 492.578854 354.130078 488.719267 353.82318 C 485.089722 353.82318 480.258849 354.198278 477.907313 353.004784 C 475.172374 352.663786 472.309634 351.981789 470.392621 350.515496 C 468.85901 348.230808 466.865317 346.253018 464.564901 344.684426 C 460.884235 344.684426 458.71162 345.025424 457.075769 343.013534 C 454.34083 340.865245 452.193775 337.455262 448.768712 335.511572 C 445.70149 333.090484 443.631116 331.590092 442.097506 327.191214 C 442.097506 323.269733 442.864311 322.314938 438.774683 322.212639 C 436.014184 325.008825 434.761735 325.520322 429.598579 325.520322 C 426.224636 325.520322 422.671771 325.520322 420.448036 324.701926 C 416.767371 322.621837 415.412681 321.701141 411.297493 321.360143 C 408.715915 322.996935 405.290851 324.906525 401.303464 325.520322 C 397.90396 327.498112 395.859146 327.90731 394.632258 331.351393 C 391.488356 333.94298 389.648023 335.443372 385.481715 337.182463 C 383.155739 339.398952 380.957563 339.77405 379.653994 343.83193 C 378.861629 347.207813 377.992583 349.219703 377.992583 353.82318 C 378.580467 358.222058 378.350425 360.063448 376.331172 363.81443 C 374.59308 366.303717 371.576979 367.531311 368.84204 369.6455 C 364.701291 370.156998 364.292328 369.850099 361.327348 368.008708 C 358.413488 367.019813 355.065105 366.201418 351.333319 365.485321 C 346.860288 364.632825 345.326677 363.541631 343.026262 361.325142 L 351.333319 365.485321 C 346.860288 364.632825 345.326677 363.541631 343.026262 361.325142 C 337.965347 357.74466 336.9685 355.937369 331.370821 355.494071 C 326.156545 355.562271 323.93281 355.83507 323.038204 360.506746 C 326.003184 361.291042 323.651648 363.064233 322.194718 363.81443 C 320.124343 365.68992 316.801521 367.190313 313.88766 368.008708 C 312.558531 369.304502 312.814133 366.883414 310.539277 366.337817 C 307.114214 364.496426 305.657284 363.098333 302.23222 362.177638 C 300.545248 359.176853 298.628235 356.892164 296.4045 353.82318 C 294.666408 351.026994 293.004996 350.003999 290.576779 347.173713 C 289.401011 345.434622 286.410471 345.332322 284.749059 343.83193 C 283.752212 340.831145 281.579597 335.272873 282.244162 332.203889 C 283.931134 330.601197 284.87686 324.940625 287.228396 323.849431 C 290.60234 321.326043 291.880348 323.644832 296.4045 323.849431 C 300.647489 323.849431 290.525659 317.165864 294.743088 317.199964 C 298.653795 316.552067 299.113878 314.608377 300.570808 312.221389 Z M 310.539277 312.221389 " transform="matrix(0.152826,0,0,0.114553,214.22914,142.526959)"/>
<path style="fill:none;stroke-width:4.05;stroke-linecap:butt;stroke-linejoin:miter;stroke:rgb(0%,40.784314%,0%);stroke-opacity:1;stroke-miterlimit:4;" d="M 382.976817 253.090328 C 383.845863 253.820218 387.65433 255.588797 391.309435 255.588797 C 395.271262 256.318687 396.140308 257.806539 397.137155 261.427915 C 399.30977 262.719259 400.69002 263.084204 404.626287 263.084204 C 408.997077 263.954457 408.945957 265.301946 412.115419 268.081141 " transform="matrix(0.152826,0,0,0.139148,214.22914,134.357276)"/>
<path style="fill:none;stroke-width:4.05;stroke-linecap:butt;stroke-linejoin:miter;stroke:rgb(0%,40.784314%,0%);stroke-opacity:1;stroke-miterlimit:4;" d="M 358.848011 299.719056 C 360.662783 299.999783 367.001707 300.561237 371.321377 300.561237 C 374.66976 298.624221 376.228931 297.304805 378.810509 295.564299 C 382.772336 295.564299 384.152586 295.929244 386.325201 297.220587 C 388.421135 297.922404 393.354249 298.175058 395.475744 298.876876 C 395.475744 299.999783 395.194582 299.719056 396.293669 299.719056 " transform="matrix(0.152826,0,0,0.139148,214.22914,134.357276)"/>
<path style="fill:none;stroke-width:4.05;stroke-linecap:butt;stroke-linejoin:miter;stroke:rgb(0%,40.784314%,0%);stroke-opacity:1;stroke-miterlimit:4;" d="M 391.309435 286.412604 C 391.386115 286.384531 394.555577 284.447516 397.137155 283.914135 C 399.974335 281.920975 403.092676 280.966503 406.287698 279.731305 C 408.409193 279.282142 413.393427 279.282142 414.620316 278.917197 " transform="matrix(0.152826,0,0,0.139148,214.22914,134.357276)"/>
<path style="fill:none;stroke-width:4.05;stroke-linecap:butt;stroke-linejoin:miter;stroke:rgb(0%,40.784314%,0%);stroke-opacity:1;stroke-miterlimit:4;" d="M 432.103477 273.92026 L 432.103477 274.734368 C 432.103477 272.404335 432.001236 273.639533 433.764888 278.075017 C 434.633934 282.145556 435.707461 285.598496 437.087711 288.883 C 439.541488 292.728958 441.151779 294.441392 444.576843 296.378407 C 447.516263 298.708439 449.739998 301.12269 452.90946 302.217525 C 455.107635 304.182613 458.021495 305.810828 461.242078 307.214463 C 465.510627 307.214463 468.80789 307.888207 472.897518 308.056643 L 475.402415 308.056643 " transform="matrix(0.152826,0,0,0.139148,214.22914,134.357276)"/>
<path style="fill:none;stroke-width:4.05;stroke-linecap:butt;stroke-linejoin:miter;stroke:rgb(0%,40.784314%,0%);stroke-opacity:1;stroke-miterlimit:4;" d="M 477.063827 227.291532 L 477.063827 228.133712 C 477.063827 225.887898 477.114947 227.010805 476.220341 231.446289 C 474.967892 234.113194 473.510962 236.58359 472.054032 238.941696 C 468.143325 240.373403 466.686395 243.236816 465.408386 246.437102 C 464.028137 248.682917 461.906642 251.602476 460.398592 253.932509 C 457.817014 257.132795 456.794607 258.171484 452.091535 259.771627 " transform="matrix(0.152826,0,0,0.139148,214.22914,134.357276)"/>
<path style="fill:none;stroke-width:4.05;stroke-linecap:butt;stroke-linejoin:miter;stroke:rgb(0%,40.784314%,0%);stroke-opacity:1;stroke-miterlimit:4;" d="M 510.368737 244.780814 C 510.368737 245.005395 508.835126 247.195065 507.86384 249.777752 C 506.202428 252.192002 505.793465 256.627486 505.358942 259.743554 C 505.358942 263.364931 505.384502 267.323179 506.202428 269.73743 C 508.707325 272.88157 509.34633 274.509786 513.69156 276.418729 L 506.202428 269.73743 C 508.707325 272.88157 509.34633 274.509786 513.69156 276.418729 " transform="matrix(0.152826,0,0,0.139148,214.22914,134.357276)"/>
<path style="fill:none;stroke-width:4.05;stroke-linecap:butt;stroke-linejoin:miter;stroke:rgb(0%,40.784314%,0%);stroke-opacity:1;stroke-miterlimit:4;" d="M 571.150836 273.92026 L 571.150836 274.734368 C 571.150836 272.123608 571.355318 273.723751 566.984528 277.232836 C 563.712825 280.236614 561.412409 282.650864 558.65191 284.728243 C 553.923278 285.991514 553.207593 285.907296 548.657881 285.570423 L 541.168749 285.570423 " transform="matrix(0.152826,0,0,0.139148,214.22914,134.357276)"/>
<path style="fill:none;stroke-width:4.05;stroke-linecap:butt;stroke-linejoin:miter;stroke:rgb(0%,40.784314%,0%);stroke-opacity:1;stroke-miterlimit:4;" d="M 582.806277 337.196089 L 581.962791 337.196089 C 584.288767 337.196089 583.061879 337.083798 578.639968 338.852377 C 574.933743 339.778776 570.767434 339.834921 567.802453 338.852377 C 564.837473 337.168016 561.846932 335.792455 559.495396 333.013259 C 558.242947 332.08686 558.064026 331.721916 556.990499 331.356971 " transform="matrix(0.152826,0,0,0.139148,214.22914,134.357276)"/>
<path style="fill:none;stroke-width:4.05;stroke-linecap:butt;stroke-linejoin:miter;stroke:rgb(0%,40.784314%,0%);stroke-opacity:1;stroke-miterlimit:4;" d="M 553.667676 362.994885 L 553.667676 362.180778 C 553.667676 364.763464 553.872157 363.163321 549.501367 359.682309 C 547.635474 356.903113 545.744021 355.864424 542.012235 353.00101 C 538.766093 349.098907 538.35713 347.526837 537.002441 343.007134 C 536.644598 339.694558 535.545511 336.297763 537.002441 333.85544 " transform="matrix(0.152826,0,0,0.139148,214.22914,134.357276)"/>
<path style="fill:none;stroke-width:4.05;stroke-linecap:butt;stroke-linejoin:miter;stroke:rgb(0%,40.784314%,0%);stroke-opacity:1;stroke-miterlimit:4;" d="M 492.04209 348.846253 C 493.856863 348.846253 500.604749 348.677817 503.697531 348.004072 C 506.125748 346.375857 508.809566 345.252949 512.030148 343.849315 C 513.793801 339.498049 515.301851 338.038269 515.352971 333.013259 " transform="matrix(0.152826,0,0,0.139148,214.22914,134.357276)"/>
<path style="fill:none;stroke-width:4.05;stroke-linecap:butt;stroke-linejoin:miter;stroke:rgb(0%,40.784314%,0%);stroke-opacity:1;stroke-miterlimit:4;" d="M 441.25402 323.861564 C 440.615015 322.373712 437.726715 316.422303 436.269785 313.053581 C 436.193105 309.404132 435.426299 306.7653 435.426299 303.059705 " transform="matrix(0.152826,0,0,0.139148,214.22914,134.357276)"/>
<path style="fill:none;stroke-width:4.05;stroke-linecap:butt;stroke-linejoin:miter;stroke:rgb(0%,40.784314%,0%);stroke-opacity:1;stroke-miterlimit:4;" d="M 328.865924 350.502541 C 329.70941 350.642904 333.236714 350.923631 335.51157 350.502541 C 339.166675 348.649744 342.540618 348.312872 346.349085 348.004072 C 348.266098 346.853092 351.43556 346.993456 352.99473 345.505603 C 356.470914 343.203643 356.930998 340.873611 358.822451 337.196089 C 359.001372 335.511728 359.487015 334.69762 359.665936 333.013259 " transform="matrix(0.152826,0,0,0.139148,214.22914,134.357276)"/>
<path style="fill:none;stroke-width:4.05;stroke-linecap:butt;stroke-linejoin:miter;stroke:rgb(0%,40.784314%,0%);stroke-opacity:1;stroke-miterlimit:4;" d="M 383.820303 338.010197 C 381.979971 338.010197 375.155403 338.15056 371.321377 337.196089 C 369.353243 335.904745 367.947434 333.827367 366.337143 332.199151 C 367.43623 332.199151 367.155068 332.479878 367.155068 331.356971 " transform="matrix(0.152826,0,0,0.139148,214.22914,134.357276)"/>
<path style="fill:none;stroke-width:4.05;stroke-linecap:butt;stroke-linejoin:miter;stroke:rgb(0%,40.784314%,0%);stroke-opacity:1;stroke-miterlimit:4;" d="M 393.788772 313.867689 C 394.146615 313.783471 398.287363 312.2114 401.303464 312.2114 C 403.092676 311.06042 406.057657 309.965586 408.792596 308.898824 C 410.275086 308.084716 411.297493 307.102172 412.958904 306.400355 " transform="matrix(0.152826,0,0,0.139148,214.22914,134.357276)"/>
<path style="fill:none;stroke-width:4.05;stroke-linecap:butt;stroke-linejoin:miter;stroke:rgb(0%,40.784314%,0%);stroke-opacity:1;stroke-miterlimit:4;" d="M 293.056117 347.189964 L 293.899602 347.189964 C 291.650307 347.189964 292.800515 347.24611 297.222425 346.347784 C 302.411141 346.038984 305.887325 344.242333 309.721352 343.007134 C 312.200689 340.705174 315.651313 338.375142 318.028409 337.196089 C 318.028409 335.764382 317.696127 335.904745 318.871895 335.511728 " transform="matrix(0.152826,0,0,0.139148,214.22914,134.357276)"/>
<path style="fill:none;stroke-width:4.05;stroke-linecap:butt;stroke-linejoin:miter;stroke:rgb(0%,40.784314%,0%);stroke-opacity:1;stroke-miterlimit:4;" d="M 504.541017 301.403417 L 505.384502 301.403417 C 503.032966 301.403417 504.285415 301.291126 508.707325 303.059705 C 512.20907 304.407194 515.404092 304.828285 518.701354 305.558174 C 521.691895 306.288064 522.816543 307.214463 527.008412 307.214463 C 531.200281 309.039187 532.120447 309.628713 535.341029 312.2114 C 537.820366 313.390453 539.558458 313.867689 543.673647 313.867689 C 545.846262 312.660563 549.833649 311.256929 552.006264 310.555112 C 553.207593 309.628713 553.284273 309.993658 553.667676 308.870751 " transform="matrix(0.152826,0,0,0.139148,214.22914,134.357276)"/>
<path style="fill:none;stroke-width:1.25;stroke-linecap:butt;stroke-linejoin:miter;stroke:rgb(0%,0%,0%);stroke-opacity:1;stroke-miterlimit:4;" d="M 430.949121 469.548444 L 430.949121 488.385214 C 430.949121 494.392769 430.386797 499.642361 428.597584 504.86388 C 428.597584 510.731071 428.495344 516.429826 426.220488 520.163493 C 425.837085 525.778029 425.04472 530.634604 425.04472 536.642158 C 423.357748 541.779459 423.536669 548.685339 422.693184 554.327949 C 421.951938 559.830195 421.312934 566.37113 420.341647 570.806614 C 418.577995 574.484136 415.587454 581.137362 413.287039 583.748121 C 412.980316 588.829277 411.753428 591.327746 413.287039 595.538648 C 414.92289 600.451368 414.462807 606.374704 414.462807 612.017314 C 415.996417 616.621234 415.638575 622.011189 415.638575 627.316927 " transform="matrix(0.152826,0,0,0.139148,216.26493,133.893872)"/>
<path style="fill:none;stroke-width:1.25;stroke-linecap:butt;stroke-linejoin:miter;stroke:rgb(0%,0%,0%);stroke-opacity:1;stroke-miterlimit:4;" d="M 436.827961 493.073353 C 437.185804 495.431458 438.949456 503.965554 439.179497 509.552018 L 439.179497 535.463105 C 439.179497 541.779459 439.716261 547.309778 440.355265 553.120823 C 440.278585 560.082849 439.000576 562.665536 435.652193 568.448509 C 434.987628 574.0069 433.939661 579.368783 433.300657 584.927174 C 431.639245 589.839894 432.099328 595.76323 432.099328 601.405839 C 433.505138 607.722193 435.805554 608.845101 436.827961 614.347347 C 436.827961 617.716069 437.134683 619.428502 438.003729 621.421663 " transform="matrix(0.152826,0,0,0.139148,216.26493,133.893872)"/>
<path style="fill:none;stroke-width:1.25;stroke-linecap:butt;stroke-linejoin:miter;stroke:rgb(0%,0%,0%);stroke-opacity:1;stroke-miterlimit:4;" d="M 447.409874 535.463105 C 447.409874 537.624702 447.282073 548.011595 448.585642 551.941771 C 448.585642 557.977398 449.71029 562.4971 449.786971 568.448509 C 449.071286 573.726173 448.330041 577.515986 445.058338 580.210963 C 442.911283 584.562229 441.761075 588.43626 441.531034 594.331523 C 444.572695 596.465047 447.869957 602.416456 450.962739 604.942998 C 453.518756 610.30488 455.895853 610.529462 456.841579 616.705452 C 459.295356 619.456575 455.103487 620.860209 456.841579 622.600716 C 458.758593 625.15533 457.531704 624.060495 456.841579 626.137874 " transform="matrix(0.152826,0,0,0.139148,216.26493,133.893872)"/>
<path style="fill-rule:evenodd;fill:rgb(100%,81.960784%,0%);fill-opacity:1;stroke-width:3.125;stroke-linecap:butt;stroke-linejoin:miter;stroke:rgb(0%,0%,0%);stroke-opacity:1;stroke-miterlimit:4;" d="M 47.104034 -26.657952 L 61.277048 -53.284583 L 47.104034 -79.911214 L 77.25801 -80.973447 L 93.238972 -106.573253 L 109.219934 -80.973447 L 139.373911 -79.911214 L 125.233181 -53.284583 L 139.373911 -26.657952 L 109.219934 -25.595719 L 93.238972 0.00408696 L 77.25801 -25.595719 Z M 47.104034 -26.657952 " transform="matrix(0.120994,0,0,0.110322,277.179621,148.89408)"/>
<path style="fill-rule:evenodd;fill:rgb(100%,81.960784%,0%);fill-opacity:1;stroke-width:3.125;stroke-linecap:butt;stroke-linejoin:miter;stroke:rgb(0%,0%,0%);stroke-opacity:1;stroke-miterlimit:4;" d="M 47.087369 -26.657952 L 61.292669 -53.284583 L 47.087369 -79.911214 L 77.273631 -80.973447 L 93.254592 -106.573253 L 109.235554 -80.973447 L 139.389531 -79.911214 L 125.216516 -53.284583 L 139.389531 -26.657952 L 109.235554 -25.595719 L 93.254592 0.00408696 L 77.273631 -25.595719 Z M 47.087369 -26.657952 " transform="matrix(0.120994,0,0,0.110322,262.271481,148.89408)"/>
<path style="fill-rule:evenodd;fill:rgb(100%,81.960784%,0%);fill-opacity:1;stroke-width:3.125;stroke-linecap:butt;stroke-linejoin:miter;stroke:rgb(0%,0%,0%);stroke-opacity:1;stroke-miterlimit:4;" d="M 47.098402 -26.650411 L 61.289859 -53.292006 L 47.089096 -79.9282 L 77.279054 -80.984296 L 93.253812 -106.57169 L 109.2203 -80.990372 L 139.395821 -79.941572 L 125.236377 -53.295796 L 139.400542 -26.628673 L 109.21517 -25.607687 L 93.240412 -0.0202923 L 77.273923 -25.601611 Z M 47.098402 -26.650411 " transform="matrix(0.119974,-0.0142877,0.0156692,0.109394,249.501371,152.748472)"/>
<path style="fill-rule:evenodd;fill:rgb(100%,81.960784%,0%);fill-opacity:1;stroke-width:3.125;stroke-linecap:butt;stroke-linejoin:miter;stroke:rgb(0%,0%,0%);stroke-opacity:1;stroke-miterlimit:4;" d="M 47.1146 -26.64681 L 61.274044 -53.292586 L 47.105294 -79.924599 L 77.263239 -80.984876 L 93.237997 -106.57227 L 109.236498 -80.986771 L 139.380006 -79.942152 L 125.220563 -53.296376 L 139.384727 -26.629253 L 109.231368 -25.604086 L 93.25661 -0.0166914 L 77.258108 -25.602191 Z M 47.1146 -26.64681 " transform="matrix(-0.119974,-0.0142877,-0.0156692,0.109394,313.723285,152.381122)"/>
<path style="fill-rule:evenodd;fill:rgb(100%,81.960784%,0%);fill-opacity:1;stroke-width:3.125;stroke-linecap:butt;stroke-linejoin:miter;stroke:rgb(0%,0%,0%);stroke-opacity:1;stroke-miterlimit:4;" d="M 47.105835 -26.654246 L 61.259705 -53.285402 L 47.094558 -79.933453 L 77.250577 -80.961263 L 93.237379 -106.575073 L 109.239527 -80.971727 L 139.391477 -79.937484 L 125.225899 -53.272912 L 139.402753 -26.658277 L 109.235027 -25.59705 L 93.248224 0.0167586 L 77.246076 -25.586587 Z M 47.105835 -26.654246 " transform="matrix(-0.114188,-0.0364776,-0.0400067,0.104117,325.183678,160.048162)"/>
<path style="fill-rule:evenodd;fill:rgb(100%,81.960784%,0%);fill-opacity:1;stroke-width:3.125;stroke-linecap:butt;stroke-linejoin:miter;stroke:rgb(0%,0%,0%);stroke-opacity:1;stroke-miterlimit:4;" d="M 47.097967 -26.653881 L 61.282306 -53.274362 L 47.08669 -79.933089 L 77.254416 -80.994315 L 93.25998 -106.564033 L 109.231659 -80.971362 L 139.383608 -79.93712 L 125.21803 -53.272548 L 139.394885 -26.657912 L 109.227159 -25.596686 L 93.252064 -0.0162928 L 77.280385 -25.608964 Z M 47.097967 -26.653881 " transform="matrix(0.114188,-0.0364776,0.0400067,0.104117,237.637518,159.313462)"/>
</g>
</svg>
