<?xml version="1.0" encoding="UTF-8"?>
<svg xmlns="http://www.w3.org/2000/svg" xmlns:xlink="http://www.w3.org/1999/xlink" width="384pt" height="384pt" viewBox="0 0 384 384" version="1.1">
<g id="surface1">
<path style=" stroke:none;fill-rule:evenodd;fill:rgb(0%,40%,100%);fill-opacity:1;" d="M 0 0 L 384.003906 0 L 384.003906 383.996094 L 0 383.996094 Z M 0 0 "/>
<path style=" stroke:none;fill-rule:evenodd;fill:rgb(100%,100%,100%);fill-opacity:1;" d="M 128.003906 0 L 256.003906 0 L 256.003906 384.003906 L 128.003906 384.003906 Z M 128.003906 0 "/>
<path style="fill:none;stroke-width:0.5;stroke-linecap:butt;stroke-linejoin:miter;stroke:rgb(0%,0%,0%);stroke-opacity:1;stroke-miterlimit:4;" d="M 401.819502 305.021135 C 400.058328 303.189134 390.69231 300.327579 384.031134 299.757287 C 378.2783 299.303071 374.56419 295.517945 371.15286 295.14448 C 361.297347 285.232497 348.414026 281.447371 339.986629 262.153322 C 338.386938 256.364602 337.246464 249.314174 337.074888 242.566557 C 340.254086 220.037487 342.312995 220.648154 347.061606 205.749898 " transform="matrix(-0.774075,0,0,0.774,501.030619,1.511298)"/>
<path style=" stroke:none;fill-rule:evenodd;fill:rgb(4.705882%,36.078431%,11.372549%);fill-opacity:1;" d="M 203.648438 235.210938 C 203.78125 236.496094 207.710938 241.242188 214.5 240.40625 C 213.890625 239.097656 212.417969 238.160156 210.300781 236.1875 C 209.332031 235.191406 203.597656 234.601562 203.648438 235.210938 Z M 203.648438 235.210938 "/>
<path style=" stroke:none;fill-rule:evenodd;fill:rgb(4.705882%,36.078431%,11.372549%);fill-opacity:1;" d="M 211.726562 233.863281 C 210.9375 233.929688 210.234375 234.402344 211.585938 235.585938 C 213.859375 237.5 222.023438 239.257812 223.253906 236.828125 C 219.640625 236.34375 217.230469 235.578125 216.859375 235.589844 C 215.183594 235.039062 213.019531 233.742188 211.726562 233.863281 Z M 211.726562 233.863281 "/>
<path style=" stroke:none;fill-rule:evenodd;fill:rgb(4.705882%,36.078431%,11.372549%);fill-opacity:1;" d="M 207.65625 233.277344 C 209.300781 232.144531 210.578125 232.238281 211.644531 232.015625 C 214.371094 231.828125 216.238281 232.203125 217.378906 232.671875 C 219.070312 233.402344 221.53125 235.222656 221.84375 236.542969 C 219.332031 236.496094 217.671875 234.605469 214.441406 233.886719 C 212.792969 233.746094 209.746094 233.53125 207.65625 233.277344 Z M 207.65625 233.277344 "/>
<path style=" stroke:none;fill-rule:evenodd;fill:rgb(4.705882%,36.078431%,11.372549%);fill-opacity:1;" d="M 203.296875 232.785156 C 208.054688 229.855469 212.566406 224.488281 213.03125 218.878906 C 207.089844 223.527344 203.058594 230.242188 203.296875 232.785156 Z M 203.296875 232.785156 "/>
<path style=" stroke:none;fill-rule:evenodd;fill:rgb(4.705882%,36.078431%,11.372549%);fill-opacity:1;" d="M 205.984375 232.726562 C 210.007812 230.984375 215.457031 227.074219 216.121094 218.941406 C 210.601562 222.417969 208.835938 227.554688 205.984375 232.726562 Z M 205.984375 232.726562 "/>
<path style=" stroke:none;fill-rule:evenodd;fill:rgb(4.705882%,36.078431%,11.372549%);fill-opacity:1;" d="M 214.476562 228.808594 C 214.164062 226.515625 219.675781 214.523438 222.890625 211.4375 C 223.242188 216.050781 218.753906 229.015625 214.476562 228.808594 Z M 214.476562 228.808594 "/>
<path style=" stroke:none;fill-rule:evenodd;fill:rgb(4.705882%,36.078431%,11.372549%);fill-opacity:1;" d="M 214.304688 229.269531 C 215.140625 232.824219 224.238281 233.75 227.175781 229.578125 C 223.519531 228.96875 219 228.613281 214.304688 229.269531 Z M 214.304688 229.269531 "/>
<path style=" stroke:none;fill-rule:evenodd;fill:rgb(4.705882%,36.078431%,11.372549%);fill-opacity:1;" d="M 218.304688 226.828125 C 222.027344 229.171875 231.09375 227.53125 236.378906 223.339844 C 228.484375 220.960938 218.710938 225.496094 218.304688 226.828125 Z M 218.304688 226.828125 "/>
<path style=" stroke:none;fill-rule:evenodd;fill:rgb(4.705882%,36.078431%,11.372549%);fill-opacity:1;" d="M 225.476562 221.699219 C 226.066406 219.117188 233.71875 214.011719 238.65625 214.296875 C 235.519531 218.550781 234.445312 217.824219 232.8125 219.710938 C 231.695312 221.109375 227.800781 222.140625 225.476562 221.699219 Z M 225.476562 221.699219 "/>
<path style=" stroke:none;fill-rule:evenodd;fill:rgb(4.705882%,36.078431%,11.372549%);fill-opacity:1;" d="M 227.992188 215.828125 C 225.285156 214.800781 225.890625 206.984375 227.699219 203.796875 C 229.535156 208.101562 230.027344 214.8125 227.992188 215.828125 Z M 227.992188 215.828125 "/>
<path style=" stroke:none;fill-rule:evenodd;fill:rgb(4.705882%,36.078431%,11.372549%);fill-opacity:1;" d="M 231.730469 212.941406 C 228.125 210.9375 229.425781 201.128906 231.34375 198.378906 C 232.851562 201.308594 233.640625 211.515625 231.730469 212.941406 Z M 231.730469 212.941406 "/>
<path style=" stroke:none;fill-rule:evenodd;fill:rgb(4.705882%,36.078431%,11.372549%);fill-opacity:1;" d="M 233.109375 212.855469 C 235.199219 209.566406 242.46875 209.425781 245.660156 210.695312 C 242.191406 214.089844 236.851562 214.261719 233.109375 212.855469 Z M 233.109375 212.855469 "/>
<path style=" stroke:none;fill-rule:evenodd;fill:rgb(4.705882%,36.078431%,11.372549%);fill-opacity:1;" d="M 235.257812 210.742188 C 232.253906 206.046875 234.121094 203.554688 235.953125 197.742188 C 236.84375 202.679688 236.125 207.890625 235.257812 210.742188 Z M 235.257812 210.742188 "/>
<path style=" stroke:none;fill-rule:evenodd;fill:rgb(4.705882%,36.078431%,11.372549%);fill-opacity:1;" d="M 239.066406 200.328125 C 239.585938 195.972656 243.527344 193.917969 248.011719 192.417969 C 247.082031 195.625 245.148438 199.09375 239.066406 200.328125 Z M 239.066406 200.328125 "/>
<path style=" stroke:none;fill-rule:evenodd;fill:rgb(4.705882%,36.078431%,11.372549%);fill-opacity:1;" d="M 237.996094 202.703125 C 233.300781 201.898438 233.082031 197.421875 233.183594 193.042969 C 234.519531 195.453125 237.730469 198.558594 237.996094 202.703125 Z M 237.996094 202.703125 "/>
<path style=" stroke:none;fill-rule:evenodd;fill:rgb(4.705882%,36.078431%,11.372549%);fill-opacity:1;" d="M 236.804688 195.113281 C 237.914062 192.390625 235.964844 185.035156 231.171875 182.324219 C 231.246094 186.828125 234.3125 192.429688 236.804688 195.113281 Z M 236.804688 195.113281 "/>
<path style=" stroke:none;fill-rule:evenodd;fill:rgb(4.705882%,36.078431%,11.372549%);fill-opacity:1;" d="M 239.464844 193.527344 C 240.148438 191.90625 240.59375 191.078125 241.632812 189.011719 C 243.429688 185.238281 242.269531 186.503906 244.699219 181.933594 C 246.011719 187.035156 243.382812 193.121094 239.464844 193.527344 Z M 239.464844 193.527344 "/>
<path style=" stroke:none;fill-rule:evenodd;fill:rgb(4.705882%,36.078431%,11.372549%);fill-opacity:1;" d="M 239.78125 179.871094 C 236.53125 181.652344 233.238281 180.496094 228.726562 176.882812 C 232.449219 176.546875 235.789062 178.335938 239.78125 179.871094 Z M 239.78125 179.871094 "/>
<path style=" stroke:none;fill-rule:evenodd;fill:rgb(4.705882%,36.078431%,11.372549%);fill-opacity:1;" d="M 238.886719 178.058594 C 240.828125 171.605469 241.96875 170.507812 243.566406 163.503906 C 239.578125 166.730469 237.527344 173.726562 238.886719 178.058594 Z M 238.886719 178.058594 "/>
<path style=" stroke:none;fill-rule:evenodd;fill:rgb(4.705882%,36.078431%,11.372549%);fill-opacity:1;" d="M 238.152344 177.628906 C 233.777344 174.453125 232.75 170.84375 227.714844 169.53125 C 227.820312 171.332031 235.058594 178.863281 238.152344 177.628906 Z M 238.152344 177.628906 "/>
<path style=" stroke:none;fill-rule:evenodd;fill:rgb(4.705882%,36.078431%,11.372549%);fill-opacity:1;" d="M 237.023438 173.210938 C 234.230469 169.734375 232.6875 166.894531 228.550781 164.382812 C 229.210938 168.625 233.84375 174.785156 237.023438 173.210938 Z M 237.023438 173.210938 "/>
<path style=" stroke:none;fill-rule:evenodd;fill:rgb(4.705882%,36.078431%,11.372549%);fill-opacity:1;" d="M 231.726562 165.457031 C 232.613281 160.605469 226.605469 157.386719 224.523438 154.898438 C 224.289062 159.183594 228.039062 164.226562 231.726562 165.457031 Z M 231.726562 165.457031 "/>
<path style=" stroke:none;fill-rule:evenodd;fill:rgb(4.705882%,36.078431%,11.372549%);fill-opacity:1;" d="M 231.6875 159.875 C 233.082031 155.503906 229.167969 152.542969 227.21875 150.3125 C 227.527344 154.578125 228.175781 158.976562 231.6875 159.875 Z M 231.6875 159.875 "/>
<path style=" stroke:none;fill-rule:evenodd;fill:rgb(4.705882%,36.078431%,11.372549%);fill-opacity:1;" d="M 237.363281 168.554688 C 239.085938 165.738281 238.105469 159.277344 236.988281 156.554688 C 235.597656 158.046875 234.929688 168.042969 237.363281 168.554688 Z M 237.363281 168.554688 "/>
<path style=" stroke:none;fill-rule:evenodd;fill:rgb(4.705882%,36.078431%,11.372549%);fill-opacity:1;" d="M 234.691406 162.824219 C 236.644531 159.371094 235.550781 155.683594 234.402344 152.964844 C 233.136719 157 232.222656 160.878906 234.691406 162.824219 Z M 234.691406 162.824219 "/>
<path style=" stroke:none;fill-rule:evenodd;fill:rgb(4.705882%,36.078431%,11.372549%);fill-opacity:1;" d="M 238.675781 190.1875 C 241.574219 189.816406 243.625 183.769531 241.628906 178.363281 C 239.773438 183.171875 239.777344 185.464844 238.675781 190.1875 Z M 238.675781 190.1875 "/>
<path style=" stroke:none;fill-rule:evenodd;fill:rgb(4.705882%,36.078431%,11.372549%);fill-opacity:1;" d="M 237.933594 179.480469 C 241.542969 179.664062 243.816406 176.546875 245.726562 171.097656 C 242.757812 173.003906 241.296875 178.042969 237.933594 179.480469 Z M 237.933594 179.480469 "/>
<path style=" stroke:none;fill-rule:evenodd;fill:rgb(4.705882%,36.078431%,11.372549%);fill-opacity:1;" d="M 240.371094 191.667969 C 237.070312 192.457031 233.351562 183.816406 235.90625 178.945312 C 238.707031 184.527344 239.339844 186.867188 240.371094 191.667969 Z M 240.371094 191.667969 "/>
<path style=" stroke:none;fill-rule:evenodd;fill:rgb(4.705882%,36.078431%,11.372549%);fill-opacity:1;" d="M 236.855469 204.339844 C 237.308594 201.039062 244.390625 200.199219 247.945312 200.925781 C 245.101562 203.210938 239.316406 204.625 236.855469 204.339844 Z M 236.855469 204.339844 "/>
<path style=" stroke:none;fill-rule:evenodd;fill:rgb(4.705882%,36.078431%,11.372549%);fill-opacity:1;" d="M 235.179688 209.574219 C 237.191406 207.820312 240.371094 209.714844 245.472656 199.765625 C 238.609375 203.679688 235.972656 208.238281 235.179688 209.574219 Z M 235.179688 209.574219 "/>
<path style="fill:none;stroke-width:0.5;stroke-linecap:butt;stroke-linejoin:miter;stroke:rgb(0%,0%,0%);stroke-opacity:1;stroke-miterlimit:4;" d="M 399.558801 306.23845 C 398.145824 304.234857 390.692371 302.069765 384.031195 301.499473 C 378.278361 301.741721 372.999883 300.389169 368.200809 297.931361 C 358.345296 288.019377 347.369494 281.448399 338.947143 262.159397 C 337.342405 256.365631 336.378553 251.056361 336.206977 244.308743 C 339.386175 221.779673 339.704095 219.604487 348.454458 204.711278 " transform="matrix(0.774075,0,0,0.774,-114.382229,0.569096)"/>
<path style=" stroke:none;fill-rule:evenodd;fill:rgb(4.705882%,36.078431%,11.372549%);fill-opacity:1;" d="M 178.527344 235.316406 C 178.394531 236.601562 173.894531 240.585938 167.675781 240.511719 C 168.28125 239.203125 174.398438 237.800781 176.0625 235.433594 C 176.554688 234.722656 178.578125 234.707031 178.527344 235.316406 Z M 178.527344 235.316406 "/>
<path style=" stroke:none;fill-rule:evenodd;fill:rgb(4.705882%,36.078431%,11.372549%);fill-opacity:1;" d="M 173.960938 233.492188 C 174.742188 233.359375 175.167969 233.742188 173.820312 234.929688 C 171.542969 236.839844 167.664062 237.742188 161.960938 238.742188 C 163.859375 236.828125 168.457031 235.207031 168.828125 235.21875 C 170.507812 234.667969 172.480469 233.75 173.960938 233.492188 Z M 173.960938 233.492188 "/>
<path style=" stroke:none;fill-rule:evenodd;fill:rgb(4.705882%,36.078431%,11.372549%);fill-opacity:1;" d="M 177.273438 233.289062 C 176.675781 231.964844 176.066406 231.296875 175 231.074219 C 172.273438 230.882812 170.121094 231.355469 169.265625 231.730469 C 168.335938 232.269531 165.398438 234.183594 165.085938 235.507812 C 167.3125 234.890625 168.78125 233.1875 172.011719 232.753906 C 173.566406 232.230469 175.753906 232.304688 177.273438 233.289062 Z M 177.273438 233.289062 "/>
<path style=" stroke:none;fill-rule:evenodd;fill:rgb(4.705882%,36.078431%,11.372549%);fill-opacity:1;" d="M 183.347656 231.839844 C 178.589844 228.914062 175.601562 225.164062 175.140625 219.554688 C 181.082031 224.203125 183.585938 229.300781 183.347656 231.839844 Z M 183.347656 231.839844 "/>
<path style=" stroke:none;fill-rule:evenodd;fill:rgb(4.705882%,36.078431%,11.372549%);fill-opacity:1;" d="M 180.378906 232.644531 C 175.878906 230.710938 174.234375 227.085938 171.097656 221.144531 C 176.714844 223.953125 179.050781 226.902344 180.378906 232.644531 Z M 180.378906 232.644531 "/>
<path style=" stroke:none;fill-rule:evenodd;fill:rgb(4.705882%,36.078431%,11.372549%);fill-opacity:1;" d="M 170.269531 230.625 C 171.246094 226.617188 169.539062 220.71875 166.609375 217.820312 C 166.355469 222.339844 167.226562 229.878906 170.269531 230.625 Z M 170.269531 230.625 "/>
<path style=" stroke:none;fill-rule:evenodd;fill:rgb(4.705882%,36.078431%,11.372549%);fill-opacity:1;" d="M 168.71875 229.566406 C 167.882812 233.121094 158.597656 233.1875 155.851562 229.875 C 158.648438 230.503906 164.789062 230.625 168.71875 229.566406 Z M 168.71875 229.566406 "/>
<path style=" stroke:none;fill-rule:evenodd;fill:rgb(4.705882%,36.078431%,11.372549%);fill-opacity:1;" d="M 166.25 226.742188 C 163.386719 228.894531 151.839844 225.351562 151.695312 223.347656 C 153.214844 223.160156 165.84375 225.410156 166.25 226.742188 Z M 166.25 226.742188 "/>
<path style=" stroke:none;fill-rule:evenodd;fill:rgb(4.705882%,36.078431%,11.372549%);fill-opacity:1;" d="M 165.414062 225.996094 C 167.089844 222.691406 162.484375 212.230469 160.644531 212.316406 C 161.734375 220.140625 163.699219 223.695312 165.414062 225.996094 Z M 165.414062 225.996094 "/>
<path style=" stroke:none;fill-rule:evenodd;fill:rgb(4.705882%,36.078431%,11.372549%);fill-opacity:1;" d="M 162.402344 223.234375 C 161.335938 220.746094 153.304688 216.496094 149.222656 215.828125 C 152.550781 219.320312 154.691406 218.832031 155.828125 221.050781 C 156.660156 222.546875 160.269531 222.816406 162.402344 223.234375 Z M 162.402344 223.234375 "/>
<path style=" stroke:none;fill-rule:evenodd;fill:rgb(4.705882%,36.078431%,11.372549%);fill-opacity:1;" d="M 160.894531 221.351562 C 161.730469 218.214844 161.3125 216.960938 159.261719 214.699219 C 159.054688 218.003906 159.472656 219.300781 160.894531 221.351562 Z M 160.894531 221.351562 "/>
<path style=" stroke:none;fill-rule:evenodd;fill:rgb(4.705882%,36.078431%,11.372549%);fill-opacity:1;" d="M 157.882812 217.847656 C 160.140625 216.367188 158.761719 208.792969 156.753906 206.675781 C 156.335938 212.136719 155.789062 216.960938 157.882812 217.847656 Z M 157.882812 217.847656 "/>
<path style=" stroke:none;fill-rule:evenodd;fill:rgb(4.705882%,36.078431%,11.372549%);fill-opacity:1;" d="M 153.867188 212.1875 C 157.757812 210.847656 154.742188 203.613281 153.488281 200.765625 C 151.980469 203.695312 154.617188 205.242188 153.867188 212.1875 Z M 153.867188 212.1875 "/>
<path style=" stroke:none;fill-rule:evenodd;fill:rgb(4.705882%,36.078431%,11.372549%);fill-opacity:1;" d="M 153.152344 212.667969 C 149.925781 209.574219 144.175781 209.335938 140.984375 210.605469 C 144.832031 211.90625 150.746094 212.742188 153.152344 212.667969 Z M 153.152344 212.667969 "/>
<path style=" stroke:none;fill-rule:evenodd;fill:rgb(4.705882%,36.078431%,11.372549%);fill-opacity:1;" d="M 149.765625 205.765625 C 148.921875 202.542969 141.789062 202.554688 138.347656 203.699219 C 141.445312 205.628906 147.359375 206.339844 149.765625 205.765625 Z M 149.765625 205.765625 "/>
<path style=" stroke:none;fill-rule:evenodd;fill:rgb(4.705882%,36.078431%,11.372549%);fill-opacity:1;" d="M 152.011719 210.820312 C 150 209.066406 146.820312 210.960938 141.71875 201.011719 C 148.582031 204.925781 151.21875 209.484375 152.011719 210.820312 Z M 152.011719 210.820312 "/>
<path style=" stroke:none;fill-rule:evenodd;fill:rgb(4.705882%,36.078431%,11.372549%);fill-opacity:1;" d="M 151.195312 210.941406 C 154.199219 206.246094 152.332031 203.757812 150.5 197.941406 C 149.613281 202.878906 150.328125 208.089844 151.195312 210.941406 Z M 151.195312 210.941406 "/>
<path style=" stroke:none;fill-rule:evenodd;fill:rgb(4.705882%,36.078431%,11.372549%);fill-opacity:1;" d="M 146.621094 200.242188 C 145.722656 195.984375 141.683594 193.832031 137.582031 193.285156 C 138.703125 195.445312 141.777344 196.25 146.621094 200.242188 Z M 146.621094 200.242188 "/>
<path style=" stroke:none;fill-rule:evenodd;fill:rgb(4.705882%,36.078431%,11.372549%);fill-opacity:1;" d="M 147.324219 202.40625 C 152.066406 201.976562 152.636719 197.53125 152.882812 193.15625 C 151.359375 195.457031 147.914062 198.296875 147.324219 202.40625 Z M 147.324219 202.40625 "/>
<path style=" stroke:none;fill-rule:evenodd;fill:rgb(4.705882%,36.078431%,11.372549%);fill-opacity:1;" d="M 147.28125 196.8125 C 150.046875 197.089844 153.5 191.078125 152.265625 186.242188 C 150.007812 191.597656 149.808594 193.476562 147.28125 196.8125 Z M 147.28125 196.8125 "/>
<path style=" stroke:none;fill-rule:evenodd;fill:rgb(4.705882%,36.078431%,11.372549%);fill-opacity:1;" d="M 146.101562 191.699219 C 149.019531 191.523438 151.476562 185.628906 149.847656 180.101562 C 148.5 185.214844 149.113281 187.457031 146.101562 191.699219 Z M 146.101562 191.699219 "/>
<path style=" stroke:none;fill-rule:evenodd;fill:rgb(4.705882%,36.078431%,11.372549%);fill-opacity:1;" d="M 145.589844 194.339844 C 144.886719 192.632812 143.550781 192.085938 142.929688 189.859375 C 141.796875 185.878906 139.640625 185.25 139.96875 182.136719 C 144.984375 187.972656 146.308594 191.460938 145.589844 194.339844 Z M 145.589844 194.339844 "/>
<path style=" stroke:none;fill-rule:evenodd;fill:rgb(4.705882%,36.078431%,11.372549%);fill-opacity:1;" d="M 145.839844 189.972656 C 144.582031 178.6875 146.816406 183.488281 141.929688 172.851562 C 149.210938 179.371094 147.199219 189.53125 145.839844 189.972656 Z M 145.839844 189.972656 "/>
<path style=" stroke:none;fill-rule:evenodd;fill:rgb(4.705882%,36.078431%,11.372549%);fill-opacity:1;" d="M 146.175781 185.199219 C 145.929688 181.59375 149.011719 179.269531 154.433594 177.269531 C 152.574219 180.269531 147.554688 181.816406 146.175781 185.199219 Z M 146.175781 185.199219 "/>
<path style=" stroke:none;fill-rule:evenodd;fill:rgb(4.705882%,36.078431%,11.372549%);fill-opacity:1;" d="M 147.46875 176.929688 C 145.527344 170.476562 144.382812 169.375 142.789062 162.375 C 146.777344 165.601562 148.828125 172.597656 147.46875 176.929688 Z M 147.46875 176.929688 "/>
<path style=" stroke:none;fill-rule:evenodd;fill:rgb(4.705882%,36.078431%,11.372549%);fill-opacity:1;" d="M 149.253906 176.683594 C 153.628906 173.507812 154.65625 169.902344 159.695312 168.585938 C 159.585938 170.390625 152.347656 177.917969 149.253906 176.683594 Z M 149.253906 176.683594 "/>
<path style=" stroke:none;fill-rule:evenodd;fill:rgb(4.705882%,36.078431%,11.372549%);fill-opacity:1;" d="M 148.957031 173.695312 C 151.75 170.222656 153.292969 167.382812 157.429688 164.871094 C 156.769531 169.113281 152.136719 175.273438 148.957031 173.695312 Z M 148.957031 173.695312 "/>
<path style=" stroke:none;fill-rule:evenodd;fill:rgb(4.705882%,36.078431%,11.372549%);fill-opacity:1;" d="M 155.328125 162.792969 C 155.46875 157.863281 162.015625 155.964844 164.570312 153.964844 C 163.910156 158.207031 159.191406 162.359375 155.328125 162.792969 Z M 155.328125 162.792969 "/>
<path style=" stroke:none;fill-rule:evenodd;fill:rgb(4.705882%,36.078431%,11.372549%);fill-opacity:1;" d="M 154.796875 159.402344 C 153.925781 154.898438 158.160156 152.417969 160.359375 150.433594 C 159.550781 154.632812 158.390625 158.925781 154.796875 159.402344 Z M 154.796875 159.402344 "/>
<path style=" stroke:none;fill-rule:evenodd;fill:rgb(4.705882%,36.078431%,11.372549%);fill-opacity:1;" d="M 149 166.660156 C 147.277344 163.84375 148.257812 157.382812 149.371094 154.660156 C 150.765625 156.152344 151.429688 166.148438 149 166.660156 Z M 149 166.660156 "/>
<path style=" stroke:none;fill-rule:evenodd;fill:rgb(4.705882%,36.078431%,11.372549%);fill-opacity:1;" d="M 152.007812 162.671875 C 150.570312 158.976562 152.1875 155.480469 153.710938 152.957031 C 154.382812 157.128906 154.734375 161.101562 152.007812 162.671875 Z M 152.007812 162.671875 "/>
<path style=" stroke:none;fill-rule:evenodd;fill:rgb(43.529412%,52.156863%,57.647059%);fill-opacity:1;" d="M 175.199219 223.753906 C 188.3125 210.925781 199.714844 199.808594 217.960938 188.347656 C 188.425781 211.351562 189.339844 213.148438 176.910156 224.691406 C 176.398438 224.265625 175.710938 224.179688 175.199219 223.753906 Z M 175.199219 223.753906 "/>
<path style=" stroke:none;fill-rule:evenodd;fill:rgb(41.568627%,5.098039%,2.352941%);fill-opacity:1;" d="M 151.859375 226.777344 L 156.746094 232.148438 L 171.554688 209.667969 L 177.785156 203.046875 L 176.277344 200.851562 L 166.707031 210.207031 L 165.609375 212.398438 Z M 151.859375 226.777344 "/>
<path style=" stroke:none;fill-rule:evenodd;fill:rgb(41.568627%,5.098039%,2.352941%);fill-opacity:1;" d="M 232.691406 227.121094 L 226.433594 232.660156 L 212.484375 210.007812 L 204.367188 201.164062 L 206.5625 199.652344 L 217.328125 210.546875 L 218.429688 212.742188 Z M 232.691406 227.121094 "/>
<path style=" stroke:none;fill-rule:evenodd;fill:rgb(73.333333%,80.392157%,80.392157%);fill-opacity:1;" d="M 212.472656 213.410156 C 212.597656 212.597656 213.667969 211.019531 211.273438 208.878906 C 211.328125 207.738281 212.496094 206.554688 213.410156 205.972656 C 214.179688 205.972656 216.402344 207.523438 217.386719 209.265625 C 217.945312 210.476562 218.230469 212.355469 217.515625 213.796875 C 216.988281 214.59375 216.375 215.519531 215.71875 215.890625 C 215.40625 216.121094 214.707031 216.046875 214.136719 215.804688 C 213.242188 215.351562 212.554688 214.039062 212.472656 213.410156 Z M 212.472656 213.410156 "/>
<path style=" stroke:none;fill-rule:evenodd;fill:rgb(0%,0%,0%);fill-opacity:1;" d="M 182.546875 173.398438 L 171.625 162.378906 L 170.972656 162.40625 L 170.746094 163.132812 L 170.394531 164.144531 L 169.101562 165.363281 L 152.046875 149.367188 L 168.085938 166.863281 L 168.839844 166.871094 L 171.183594 164.433594 L 172.167969 164.664062 L 180.210938 174.082031 Z M 182.546875 173.398438 "/>
<path style=" stroke:none;fill-rule:evenodd;fill:rgb(0%,0%,0%);fill-opacity:1;" d="M 196.796875 239.074219 C 216.777344 206.628906 234.183594 184.265625 202.296875 155.59375 C 201.105469 154.390625 196.988281 150.589844 194.40625 149.769531 C 194.046875 147.449219 195.808594 143.78125 191.308594 143.476562 C 189.398438 143.578125 188.453125 144.261719 188.492188 145.988281 C 188.496094 147.332031 189.203125 147.917969 188.839844 149.117188 C 188.703125 149.71875 187.214844 151.085938 187.304688 152.832031 C 187.882812 156.550781 189.320312 157.460938 189.753906 157.988281 C 190.535156 158.765625 191.003906 159.3125 193.292969 160.257812 C 193.546875 160.5625 194.222656 161.132812 194.570312 161.515625 C 198.78125 162.414062 202.621094 161.953125 205.339844 163.3125 C 206.527344 163.675781 208.429688 165.6875 209.046875 166.695312 C 216.730469 175.121094 220.054688 188.636719 208.304688 202.90625 C 210.660156 203.097656 216.292969 193.457031 217.578125 185.269531 C 215.777344 197.480469 211.796875 201.746094 209.820312 205.394531 C 213.765625 202.765625 216.945312 193.511719 217.683594 191.609375 C 214.554688 208.457031 198.351562 229.261719 188.15625 233.628906 C 197.386719 231.488281 203.574219 222.296875 206.859375 219 C 203.660156 225.59375 197.085938 234.925781 196.796875 239.078125 Z M 196.796875 239.074219 "/>
<path style=" stroke:none;fill-rule:evenodd;fill:rgb(43.529412%,52.156863%,57.647059%);fill-opacity:1;" d="M 210.527344 224.605469 C 197.753906 211.695312 177.371094 192.199219 167.25 190.058594 C 183.015625 200.234375 196.902344 213.917969 208.816406 225.546875 C 209.332031 225.121094 210.015625 225.035156 210.527344 224.605469 Z M 210.527344 224.605469 "/>
<path style=" stroke:none;fill-rule:evenodd;fill:rgb(0%,0%,0%);fill-opacity:1;" d="M 202.53125 174.257812 L 214.542969 162.382812 L 215.195312 162.40625 L 215.421875 163.136719 L 215.773438 164.148438 L 217.066406 165.363281 L 234.121094 149.371094 L 218.082031 166.863281 L 217.324219 166.871094 L 214.984375 164.4375 L 214 164.664062 L 203.773438 175.992188 Z M 202.53125 174.257812 "/>
<path style=" stroke:none;fill-rule:evenodd;fill:rgb(89.019608%,81.176471%,43.137255%);fill-opacity:1;" d="M 170.757812 169.875 C 171.382812 166.453125 172.4375 163.972656 175.972656 163.375 C 185.238281 162.976562 193.820312 162.917969 203.511719 163.117188 C 206.277344 165.3125 203.398438 169.816406 200.519531 170.042969 C 204.9375 177.683594 210.980469 183.527344 211.808594 192.535156 C 212.09375 197.265625 210.425781 200.335938 208.753906 202.039062 C 196.015625 202.347656 189.84375 203.933594 179.199219 204.757812 C 176.222656 205.117188 173.988281 201.65625 174.015625 198.777344 C 174.035156 195.800781 175.257812 193.476562 178.5625 193.0625 C 179.589844 192.953125 181.019531 193.019531 182.300781 193.046875 C 179.820312 185.636719 170.242188 176.859375 170.757812 169.875 Z M 170.757812 169.875 "/>
<path style=" stroke:none;fill-rule:evenodd;fill:rgb(20%,39.215686%,27.45098%);fill-opacity:1;" d="M 187.480469 151.644531 C 186.378906 155.175781 189.144531 158.207031 189.578125 158.734375 C 190.359375 159.511719 190.867188 160.144531 193.160156 161.089844 C 193.414062 161.394531 196.691406 163.261719 197.160156 163.707031 C 200.648438 164.621094 202.5 163.054688 206.472656 164.027344 C 205.449219 161.503906 194.839844 151.15625 187.480469 151.644531 Z M 187.480469 151.644531 "/>
<path style=" stroke:none;fill-rule:evenodd;fill:rgb(25.098039%,18.039216%,3.137255%);fill-opacity:1;" d="M 187.570312 153.25 C 186.5 154.992188 189.320312 159.171875 189.757812 159.703125 C 190.539062 160.476562 191.046875 161.109375 193.339844 162.054688 C 193.59375 162.363281 194.726562 162.9375 194.894531 163.136719 L 197.898438 163.6875 C 196.875 161.164062 191.074219 152.433594 187.570312 153.25 Z M 187.570312 153.25 "/>
<path style=" stroke:none;fill-rule:evenodd;fill:rgb(0%,0%,0%);fill-opacity:1;" d="M 188.703125 147.28125 L 187.988281 147.800781 L 189.027344 148.320312 Z M 188.703125 147.28125 "/>
<path style=" stroke:none;fill-rule:evenodd;fill:rgb(54.901961%,21.176471%,11.372549%);fill-opacity:1;" d="M 187.296875 154.472656 C 187.878906 158.191406 189.261719 159.199219 189.730469 159.703125 C 190.476562 160.507812 191.046875 161.019531 193.339844 162.054688 C 194.257812 162.8125 194.609375 163.027344 195.320312 163.40625 L 197.746094 163.769531 C 196.722656 161.246094 190.671875 155.496094 187.296875 154.472656 Z M 187.296875 154.472656 "/>
<path style=" stroke:none;fill-rule:evenodd;fill:rgb(73.333333%,80.392157%,80.392157%);fill-opacity:1;" d="M 171.609375 213.109375 C 171.480469 212.296875 170.410156 210.714844 172.804688 208.578125 C 172.75 207.4375 171.582031 206.253906 170.667969 205.667969 C 169.898438 205.667969 167.675781 207.222656 166.691406 208.960938 C 166.132812 210.171875 165.847656 212.054688 166.5625 213.496094 C 167.089844 214.292969 167.703125 215.21875 168.359375 215.589844 C 168.671875 215.816406 169.371094 215.746094 169.941406 215.503906 C 170.839844 215.046875 171.523438 213.738281 171.609375 213.109375 Z M 171.609375 213.109375 "/>
<path style=" stroke:none;fill-rule:evenodd;fill:rgb(83.137255%,74.509804%,44.705882%);fill-opacity:1;" d="M 173.316406 224.953125 C 172.234375 226.207031 167.988281 228.65625 167.160156 229.484375 C 166.476562 230.398438 168.101562 231.652344 169.128906 231.792969 C 170.953125 230.425781 172.777344 228.542969 174.429688 227.433594 C 176.734375 225.304688 176.582031 225.128906 180.332031 226.234375 C 179.789062 224.238281 176 222.671875 173.832031 222.214844 C 170.183594 222.613281 168.5 224.125 167.757812 226.234375 C 170.183594 224.410156 171.835938 223.527344 173.316406 224.953125 Z M 173.316406 224.953125 "/>
<path style=" stroke:none;fill-rule:evenodd;fill:rgb(100%,100%,100%);fill-opacity:1;" d="M 213.097656 213.359375 C 213.167969 212.96875 213.386719 212.757812 213.390625 211.992188 C 214.191406 213.140625 214.574219 213.726562 215.613281 215.1875 C 215.238281 215.6875 214.695312 215.453125 214.1875 215.210938 C 213.714844 214.90625 213.03125 213.925781 213.097656 213.359375 Z M 213.097656 213.359375 "/>
<path style=" stroke:none;fill-rule:evenodd;fill:rgb(100%,100%,100%);fill-opacity:1;" d="M 171.089844 213.101562 C 171.019531 212.710938 170.800781 212.5 170.796875 211.734375 C 169.996094 212.886719 169.613281 213.46875 168.574219 214.929688 C 168.949219 215.429688 169.488281 215.195312 170 214.953125 C 170.472656 214.648438 171.15625 213.667969 171.089844 213.101562 Z M 171.089844 213.101562 "/>
<path style=" stroke:none;fill-rule:evenodd;fill:rgb(83.137255%,74.509804%,44.705882%);fill-opacity:1;" d="M 211.644531 225.808594 C 212.726562 227.0625 216.972656 229.511719 217.800781 230.339844 C 218.484375 231.253906 216.859375 232.507812 215.832031 232.648438 C 214.007812 231.28125 212.183594 229.398438 210.53125 228.289062 C 208.640625 226.019531 207.824219 226.121094 204.628906 227.089844 C 205.171875 225.09375 208.960938 223.527344 211.128906 223.070312 C 214.777344 223.46875 216.460938 224.980469 217.203125 227.089844 C 214.777344 225.265625 213.125 224.382812 211.644531 225.808594 Z M 211.644531 225.808594 "/>
<path style=" stroke:none;fill-rule:evenodd;fill:rgb(0%,0%,0%);fill-opacity:1;" d="M 182.242188 193.078125 C 183.152344 194.378906 183.90625 197.25 184.027344 199.09375 C 184.1875 202.660156 180.570312 204.476562 179.339844 204.324219 C 177.003906 204.042969 175.085938 202.28125 174.894531 199.546875 C 175.265625 196.363281 176.609375 194.597656 178.824219 194.46875 C 180.277344 194.722656 181.910156 196.453125 181.910156 198.550781 C 181.871094 200.285156 181.375 202.015625 180.308594 202.058594 C 177.707031 201.855469 177.859375 200.355469 177.433594 199.546875 C 177.324219 198.953125 177.230469 197.34375 177.527344 196.949219 C 177.914062 196.46875 179.703125 195.828125 180.578125 197.070312 C 181.527344 198.035156 179.179688 196.554688 178.25 197.21875 C 177.777344 197.894531 178.089844 198.992188 178.222656 199.425781 C 178.382812 199.859375 178.363281 201.292969 180.15625 201.210938 C 180.8125 201.109375 181.042969 199.769531 181.09375 198.460938 C 181.195312 197.5625 179.933594 195.757812 178.675781 195.375 C 177.796875 195.234375 175.652344 197.027344 175.742188 199.546875 C 175.914062 202.410156 178.261719 203.398438 179.523438 203.207031 C 180.800781 202.863281 183.472656 201.855469 183.363281 199.003906 C 183.078125 195.859375 182.492188 194.558594 181.484375 193.046875 C 181.878906 193.046875 181.851562 193.046875 182.242188 193.078125 Z M 182.242188 193.078125 "/>
<path style=" stroke:none;fill-rule:evenodd;fill:rgb(0%,0%,0%);fill-opacity:1;" d="M 200.992188 170.855469 L 200.445312 169.980469 L 188.714844 169.980469 C 185.386719 170.28125 180.324219 170.785156 178.578125 171.542969 C 174.113281 173.738281 172.898438 169.859375 172.65625 168.890625 C 172.398438 168.003906 172.953125 166.402344 173.816406 165.839844 C 174.160156 165.183594 176.078125 164.464844 177.238281 164.898438 C 178.546875 165.453125 179.117188 167.105469 178.90625 168.226562 C 178.515625 169.890625 175.367188 170.917969 176.488281 169.222656 C 176.628906 168.480469 177.195312 166.410156 176.195312 164.929688 L 175.28125 165.113281 C 176.550781 167.753906 175.386719 169.066406 175.328125 169.820312 C 175.265625 171.089844 176.351562 170.980469 177.191406 170.949219 C 177.769531 170.917969 178.738281 170.191406 179.128906 169.796875 C 179.601562 169.386719 179.675781 168.585938 179.734375 167.652344 C 179.882812 165.191406 177.628906 163.441406 176.105469 163.660156 C 171.480469 164.808594 171.367188 168.667969 172.417969 170.675781 C 173 171.683594 173.675781 172.296875 174.804688 172.882812 C 175.753906 173.164062 177.183594 173.003906 178.3125 172.578125 C 180.542969 171.777344 184.160156 171.066406 188.667969 170.957031 Z M 200.992188 170.855469 "/>
<path style=" stroke:none;fill-rule:nonzero;fill:rgb(54.901961%,21.176471%,11.372549%);fill-opacity:1;" d="M 192.792969 176.785156 L 193.277344 177.492188 L 193.203125 177.5 C 193.046875 177.339844 192.921875 177.230469 192.820312 177.164062 C 192.71875 177.097656 192.605469 177.046875 192.488281 177.015625 C 192.421875 177 192.324219 176.996094 192.195312 177.007812 L 191.992188 177.03125 L 193.371094 179.042969 C 193.464844 179.175781 193.527344 179.261719 193.566406 179.292969 C 193.605469 179.324219 193.65625 179.351562 193.714844 179.371094 C 193.777344 179.390625 193.847656 179.394531 193.925781 179.386719 L 194.019531 179.378906 L 194.066406 179.449219 L 192.632812 179.601562 L 192.585938 179.53125 L 192.675781 179.519531 C 192.757812 179.511719 192.808594 179.492188 192.839844 179.460938 C 192.863281 179.4375 192.871094 179.402344 192.859375 179.359375 C 192.851562 179.328125 192.804688 179.246094 192.714844 179.113281 L 191.335938 177.101562 L 191.136719 177.121094 C 190.953125 177.140625 190.84375 177.195312 190.8125 177.277344 C 190.765625 177.394531 190.792969 177.550781 190.894531 177.746094 L 190.820312 177.753906 L 190.335938 177.046875 Z M 192.792969 176.785156 "/>
<path style=" stroke:none;fill-rule:nonzero;fill:rgb(54.901961%,21.176471%,11.372549%);fill-opacity:1;" d="M 185.675781 177.707031 L 186.40625 178.769531 L 186.460938 178.761719 C 186.632812 178.746094 186.722656 178.679688 186.730469 178.566406 C 186.738281 178.453125 186.679688 178.296875 186.5625 178.089844 L 186.640625 178.082031 L 187.578125 179.449219 L 187.5 179.457031 C 187.382812 179.308594 187.265625 179.191406 187.148438 179.101562 C 187.03125 179.011719 186.925781 178.957031 186.835938 178.929688 C 186.746094 178.90625 186.632812 178.898438 186.503906 178.914062 L 187.007812 179.648438 C 187.105469 179.792969 187.171875 179.878906 187.207031 179.910156 C 187.242188 179.941406 187.285156 179.964844 187.332031 179.980469 C 187.382812 179.996094 187.445312 180.003906 187.523438 179.992188 L 187.6875 179.976562 C 187.941406 179.949219 188.109375 179.871094 188.183594 179.742188 C 188.261719 179.613281 188.253906 179.429688 188.164062 179.191406 L 188.238281 179.183594 L 188.683594 180.023438 L 186.320312 180.277344 L 186.269531 180.207031 L 186.363281 180.195312 C 186.441406 180.1875 186.496094 180.167969 186.527344 180.136719 C 186.546875 180.113281 186.554688 180.078125 186.542969 180.035156 C 186.535156 180.003906 186.488281 179.921875 186.398438 179.789062 L 185.222656 178.074219 C 185.140625 177.957031 185.085938 177.882812 185.0625 177.855469 C 185.019531 177.8125 184.96875 177.78125 184.917969 177.761719 C 184.839844 177.730469 184.757812 177.71875 184.671875 177.730469 L 184.578125 177.738281 L 184.53125 177.667969 L 186.820312 177.425781 L 187.347656 178.195312 L 187.273438 178.203125 C 187.105469 178.019531 186.957031 177.890625 186.828125 177.816406 C 186.703125 177.742188 186.5625 177.691406 186.40625 177.667969 C 186.316406 177.652344 186.164062 177.65625 185.957031 177.675781 Z M 185.675781 177.707031 "/>
<path style=" stroke:none;fill-rule:nonzero;fill:rgb(54.901961%,21.176471%,11.372549%);fill-opacity:1;" d="M 183.335938 180.515625 L 183.386719 180.585938 L 181.953125 180.738281 L 181.90625 180.667969 L 181.996094 180.660156 C 182.078125 180.648438 182.132812 180.628906 182.160156 180.597656 C 182.183594 180.574219 182.1875 180.542969 182.179688 180.496094 C 182.171875 180.464844 182.125 180.382812 182.035156 180.25 L 180.855469 178.535156 C 180.765625 178.402344 180.699219 178.320312 180.664062 178.289062 C 180.625 178.257812 180.574219 178.230469 180.511719 178.210938 C 180.449219 178.191406 180.382812 178.183594 180.304688 178.191406 L 180.214844 178.199219 L 180.164062 178.128906 L 181.59375 177.976562 L 181.644531 178.050781 L 181.554688 178.058594 C 181.472656 178.066406 181.421875 178.085938 181.390625 178.121094 C 181.367188 178.140625 181.359375 178.175781 181.371094 178.21875 C 181.375 178.253906 181.425781 178.335938 181.515625 178.464844 L 182.691406 180.183594 C 182.78125 180.316406 182.847656 180.398438 182.886719 180.429688 C 182.925781 180.460938 182.976562 180.488281 183.035156 180.507812 C 183.097656 180.527344 183.167969 180.535156 183.246094 180.523438 Z M 183.335938 180.515625 "/>
<path style=" stroke:none;fill-rule:nonzero;fill:rgb(54.901961%,21.176471%,11.372549%);fill-opacity:1;" d="M 181.097656 179.847656 L 181.621094 180.773438 L 179.191406 181.035156 L 179.144531 180.960938 L 179.234375 180.953125 C 179.3125 180.945312 179.367188 180.925781 179.398438 180.890625 C 179.421875 180.871094 179.425781 180.835938 179.414062 180.792969 C 179.410156 180.757812 179.363281 180.675781 179.273438 180.546875 L 178.09375 178.828125 C 178.003906 178.695312 177.9375 178.613281 177.902344 178.582031 C 177.863281 178.550781 177.8125 178.523438 177.75 178.503906 C 177.6875 178.484375 177.621094 178.476562 177.542969 178.484375 L 177.453125 178.496094 L 177.402344 178.425781 L 178.863281 178.269531 L 178.910156 178.339844 L 178.792969 178.351562 C 178.710938 178.363281 178.65625 178.382812 178.628906 178.414062 C 178.605469 178.433594 178.597656 178.46875 178.609375 178.515625 C 178.613281 178.546875 178.664062 178.628906 178.753906 178.761719 L 179.890625 180.421875 C 179.984375 180.554688 180.050781 180.640625 180.09375 180.675781 C 180.132812 180.710938 180.183594 180.734375 180.242188 180.746094 C 180.285156 180.753906 180.371094 180.75 180.5 180.738281 L 180.726562 180.714844 C 180.871094 180.699219 180.976562 180.660156 181.039062 180.601562 C 181.101562 180.542969 181.132812 180.457031 181.132812 180.34375 C 181.128906 180.230469 181.089844 180.070312 181.015625 179.855469 Z M 181.097656 179.847656 "/>
<path style=" stroke:none;fill-rule:nonzero;fill:rgb(54.901961%,21.176471%,11.372549%);fill-opacity:1;" d="M 197.769531 179.054688 L 197.71875 178.984375 L 197.808594 178.972656 C 197.890625 178.964844 197.941406 178.949219 197.96875 178.921875 C 197.992188 178.890625 198.003906 178.855469 197.996094 178.8125 C 197.988281 178.785156 197.9375 178.703125 197.847656 178.566406 L 196.667969 176.851562 C 196.578125 176.71875 196.511719 176.636719 196.476562 176.605469 C 196.4375 176.570312 196.386719 176.546875 196.324219 176.527344 C 196.261719 176.503906 196.195312 176.5 196.117188 176.507812 L 196.027344 176.515625 L 195.976562 176.445312 L 197.203125 176.316406 C 197.53125 176.28125 197.820312 176.296875 198.078125 176.359375 C 198.394531 176.4375 198.683594 176.574219 198.953125 176.769531 C 199.226562 176.96875 199.453125 177.199219 199.632812 177.464844 C 199.757812 177.648438 199.84375 177.820312 199.890625 177.984375 C 199.933594 178.144531 199.941406 178.277344 199.910156 178.390625 C 199.882812 178.5 199.824219 178.59375 199.738281 178.667969 C 199.652344 178.742188 199.527344 178.808594 199.363281 178.859375 C 199.292969 178.882812 199.167969 178.90625 198.992188 178.925781 Z M 197.121094 176.484375 L 198.519531 178.519531 C 198.59375 178.625 198.644531 178.691406 198.671875 178.714844 C 198.699219 178.738281 198.730469 178.753906 198.761719 178.765625 C 198.8125 178.78125 198.871094 178.785156 198.941406 178.777344 C 199.164062 178.753906 199.285156 178.664062 199.304688 178.503906 C 199.332031 178.289062 199.199219 177.972656 198.914062 177.558594 C 198.6875 177.222656 198.449219 176.960938 198.199219 176.773438 C 198.003906 176.625 197.820312 176.53125 197.644531 176.488281 C 197.519531 176.460938 197.347656 176.457031 197.121094 176.484375 Z M 197.121094 176.484375 "/>
<path style=" stroke:none;fill-rule:nonzero;fill:rgb(54.901961%,21.176471%,11.372549%);fill-opacity:1;" d="M 195.9375 178.453125 L 194.972656 178.554688 L 195.03125 178.824219 C 195.050781 178.910156 195.082031 178.984375 195.117188 179.039062 C 195.167969 179.113281 195.238281 179.160156 195.324219 179.191406 C 195.375 179.207031 195.472656 179.214844 195.621094 179.207031 L 195.671875 179.277344 L 194.761719 179.375 L 194.710938 179.304688 C 194.800781 179.28125 194.855469 179.234375 194.875 179.164062 C 194.894531 179.09375 194.882812 178.953125 194.839844 178.742188 L 194.390625 176.558594 L 194.429688 176.554688 L 196.882812 178.589844 C 197.113281 178.78125 197.28125 178.898438 197.375 178.945312 C 197.449219 178.980469 197.53125 178.996094 197.617188 178.996094 L 197.667969 179.066406 L 196.34375 179.207031 L 196.292969 179.136719 L 196.347656 179.128906 C 196.457031 179.117188 196.519531 179.097656 196.542969 179.0625 C 196.558594 179.039062 196.554688 179.007812 196.527344 178.972656 C 196.511719 178.949219 196.492188 178.925781 196.464844 178.902344 C 196.457031 178.890625 196.402344 178.84375 196.308594 178.761719 Z M 195.773438 178.320312 L 194.75 177.464844 L 194.945312 178.40625 Z M 195.773438 178.320312 "/>
<path style=" stroke:none;fill-rule:nonzero;fill:rgb(54.901961%,21.176471%,11.372549%);fill-opacity:1;" d="M 189.273438 178.683594 L 189.773438 179.414062 C 189.871094 179.558594 189.941406 179.644531 189.984375 179.679688 C 190.027344 179.714844 190.078125 179.738281 190.140625 179.757812 C 190.199219 179.773438 190.292969 179.777344 190.417969 179.761719 L 190.46875 179.832031 L 189.066406 179.984375 L 189.019531 179.910156 C 189.144531 179.898438 189.222656 179.878906 189.253906 179.851562 C 189.28125 179.824219 189.292969 179.789062 189.285156 179.753906 C 189.28125 179.714844 189.230469 179.625 189.132812 179.484375 L 187.972656 177.792969 C 187.875 177.648438 187.804688 177.5625 187.761719 177.527344 C 187.71875 177.492188 187.664062 177.46875 187.605469 177.449219 C 187.542969 177.433594 187.453125 177.429688 187.328125 177.445312 L 187.277344 177.375 L 188.550781 177.238281 C 188.878906 177.203125 189.136719 177.199219 189.320312 177.226562 C 189.503906 177.253906 189.683594 177.320312 189.863281 177.429688 C 190.039062 177.535156 190.179688 177.667969 190.289062 177.824219 C 190.421875 178.015625 190.457031 178.183594 190.398438 178.324219 C 190.359375 178.414062 190.269531 178.488281 190.132812 178.546875 L 191.394531 179.359375 C 191.558594 179.464844 191.667969 179.527344 191.726562 179.554688 C 191.808594 179.585938 191.886719 179.601562 191.960938 179.597656 L 192.011719 179.667969 L 191.148438 179.761719 L 189.453125 178.664062 Z M 188.394531 177.40625 L 189.179688 178.546875 L 189.292969 178.535156 C 189.480469 178.515625 189.609375 178.484375 189.679688 178.441406 C 189.75 178.398438 189.78125 178.332031 189.777344 178.242188 C 189.773438 178.152344 189.722656 178.035156 189.628906 177.898438 C 189.492188 177.699219 189.339844 177.558594 189.179688 177.472656 C 189.015625 177.390625 188.828125 177.359375 188.609375 177.382812 Z M 188.394531 177.40625 "/>
<path style=" stroke:none;fill-rule:nonzero;fill:rgb(54.901961%,21.176471%,11.372549%);fill-opacity:1;" d="M 184.367188 179 C 184.667969 179.027344 184.898438 179.078125 185.058594 179.148438 C 185.289062 179.25 185.46875 179.394531 185.59375 179.582031 C 185.730469 179.777344 185.757812 179.949219 185.679688 180.09375 C 185.585938 180.269531 185.34375 180.378906 184.953125 180.421875 L 183.566406 180.570312 L 183.515625 180.496094 C 183.644531 180.484375 183.71875 180.464844 183.75 180.4375 C 183.78125 180.410156 183.789062 180.375 183.785156 180.339844 C 183.777344 180.300781 183.726562 180.210938 183.628906 180.070312 L 182.46875 178.378906 C 182.371094 178.234375 182.300781 178.148438 182.257812 178.113281 C 182.214844 178.078125 182.164062 178.054688 182.101562 178.035156 C 182.042969 178.019531 181.949219 178.015625 181.824219 178.03125 L 181.777344 177.960938 L 183.085938 177.820312 C 183.398438 177.785156 183.640625 177.789062 183.808594 177.828125 C 183.972656 177.867188 184.132812 177.9375 184.28125 178.035156 C 184.425781 178.132812 184.542969 178.242188 184.625 178.359375 C 184.710938 178.484375 184.738281 178.601562 184.710938 178.710938 C 184.683594 178.820312 184.566406 178.914062 184.367188 179 Z M 183.597656 179.023438 C 183.789062 179.003906 183.914062 178.96875 183.976562 178.917969 C 184.039062 178.867188 184.070312 178.804688 184.066406 178.722656 C 184.066406 178.644531 184.023438 178.546875 183.945312 178.429688 C 183.867188 178.316406 183.777344 178.222656 183.679688 178.15625 C 183.582031 178.085938 183.472656 178.035156 183.359375 178.007812 C 183.242188 177.980469 183.089844 177.976562 182.890625 177.996094 Z M 183.699219 179.175781 L 184.273438 180.011719 L 184.339844 180.109375 C 184.386719 180.179688 184.441406 180.230469 184.5 180.261719 C 184.5625 180.292969 184.628906 180.300781 184.703125 180.292969 C 184.808594 180.28125 184.894531 180.25 184.953125 180.195312 C 185.011719 180.140625 185.035156 180.066406 185.027344 179.976562 C 185.015625 179.882812 184.972656 179.785156 184.898438 179.675781 C 184.816406 179.554688 184.710938 179.449219 184.585938 179.359375 C 184.460938 179.269531 184.332031 179.207031 184.203125 179.179688 C 184.074219 179.152344 183.90625 179.152344 183.699219 179.175781 Z M 183.699219 179.175781 "/>
<path style=" stroke:none;fill-rule:nonzero;fill:rgb(54.901961%,21.176471%,11.372549%);fill-opacity:1;" d="M 193.992188 180.933594 L 194.679688 181.992188 L 194.734375 181.988281 C 194.910156 181.96875 195 181.902344 195.011719 181.792969 C 195.023438 181.679688 194.972656 181.519531 194.863281 181.316406 L 194.941406 181.308594 L 195.824219 182.675781 L 195.75 182.683594 C 195.636719 182.535156 195.523438 182.417969 195.410156 182.328125 C 195.296875 182.238281 195.195312 182.179688 195.105469 182.15625 C 195.015625 182.128906 194.902344 182.125 194.773438 182.136719 L 195.25 182.875 C 195.339844 183.015625 195.40625 183.105469 195.4375 183.132812 C 195.472656 183.164062 195.511719 183.1875 195.5625 183.207031 C 195.609375 183.222656 195.671875 183.226562 195.75 183.21875 L 195.914062 183.199219 C 196.171875 183.175781 196.339844 183.097656 196.421875 182.96875 C 196.503906 182.835938 196.503906 182.652344 196.421875 182.414062 L 196.496094 182.40625 L 196.910156 183.25 L 194.535156 183.5 L 194.492188 183.429688 L 194.582031 183.421875 C 194.660156 183.414062 194.71875 183.390625 194.746094 183.359375 C 194.773438 183.339844 194.777344 183.304688 194.769531 183.257812 C 194.765625 183.226562 194.71875 183.144531 194.632812 183.015625 L 193.523438 181.296875 C 193.445312 181.179688 193.398438 181.109375 193.371094 181.082031 C 193.328125 181.039062 193.28125 181.007812 193.230469 180.984375 C 193.15625 180.957031 193.074219 180.945312 192.984375 180.953125 L 192.894531 180.964844 L 192.847656 180.894531 L 195.144531 180.648438 L 195.644531 181.421875 L 195.570312 181.429688 C 195.40625 181.242188 195.265625 181.113281 195.140625 181.039062 C 195.015625 180.964844 194.878906 180.914062 194.722656 180.890625 C 194.632812 180.875 194.484375 180.878906 194.273438 180.902344 Z M 193.992188 180.933594 "/>
<path style=" stroke:none;fill-rule:nonzero;fill:rgb(54.901961%,21.176471%,11.372549%);fill-opacity:1;" d="M 187.289062 181.484375 L 188.574219 181.347656 L 188.691406 181.863281 L 187.609375 181.980469 L 187.675781 182.25 C 188.152344 182.21875 188.582031 182.289062 188.964844 182.46875 C 189.28125 182.613281 189.519531 182.8125 189.679688 183.0625 C 189.785156 183.222656 189.839844 183.382812 189.84375 183.546875 C 189.847656 183.710938 189.789062 183.84375 189.667969 183.945312 C 189.546875 184.046875 189.382812 184.109375 189.175781 184.128906 C 188.949219 184.152344 188.75 184.132812 188.582031 184.066406 C 188.460938 184.015625 188.375 183.957031 188.328125 183.886719 C 188.292969 183.832031 188.285156 183.78125 188.300781 183.734375 C 188.316406 183.6875 188.355469 183.660156 188.414062 183.652344 C 188.464844 183.648438 188.527344 183.652344 188.59375 183.667969 C 188.660156 183.679688 188.789062 183.726562 188.976562 183.796875 C 189.09375 183.84375 189.1875 183.875 189.257812 183.886719 C 189.3125 183.898438 189.363281 183.902344 189.417969 183.894531 C 189.527344 183.882812 189.597656 183.835938 189.625 183.75 C 189.652344 183.664062 189.632812 183.570312 189.5625 183.460938 C 189.414062 183.234375 189.175781 183.066406 188.847656 182.949219 C 188.519531 182.832031 188.175781 182.792969 187.8125 182.832031 C 187.777344 182.835938 187.722656 182.84375 187.648438 182.851562 Z M 187.289062 181.484375 "/>
<path style=" stroke:none;fill-rule:nonzero;fill:rgb(54.901961%,21.176471%,11.372549%);fill-opacity:1;" d="M 185.902344 181.574219 L 187.28125 183.707031 C 187.386719 183.867188 187.460938 183.96875 187.503906 184.011719 C 187.546875 184.054688 187.601562 184.085938 187.667969 184.109375 C 187.730469 184.132812 187.816406 184.140625 187.921875 184.128906 L 187.984375 184.121094 L 188.03125 184.191406 L 186.582031 184.347656 L 186.539062 184.273438 L 186.609375 184.265625 C 186.726562 184.253906 186.804688 184.234375 186.835938 184.203125 C 186.871094 184.171875 186.878906 184.132812 186.871094 184.085938 C 186.859375 184.039062 186.800781 183.933594 186.691406 183.769531 L 185.816406 182.417969 C 185.738281 182.296875 185.683594 182.222656 185.652344 182.191406 C 185.621094 182.164062 185.582031 182.140625 185.535156 182.125 C 185.488281 182.105469 185.441406 182.097656 185.398438 182.101562 C 185.332031 182.109375 185.261719 182.140625 185.1875 182.191406 L 185.105469 182.125 L 185.832031 181.578125 Z M 185.902344 181.574219 "/>
<path style=" stroke:none;fill-rule:nonzero;fill:rgb(54.901961%,21.176471%,11.372549%);fill-opacity:1;" d="M 191.511719 183.824219 L 191.46875 183.75 L 191.558594 183.742188 C 191.636719 183.734375 191.691406 183.714844 191.71875 183.6875 C 191.746094 183.660156 191.757812 183.621094 191.75 183.582031 C 191.746094 183.550781 191.699219 183.46875 191.609375 183.335938 L 190.5 181.621094 C 190.414062 181.484375 190.351562 181.402344 190.316406 181.371094 C 190.277344 181.339844 190.230469 181.3125 190.167969 181.292969 C 190.105469 181.273438 190.039062 181.265625 189.960938 181.273438 L 189.871094 181.285156 L 189.824219 181.214844 L 191.054688 181.082031 C 191.382812 181.046875 191.671875 181.0625 191.925781 181.125 C 192.238281 181.203125 192.527344 181.339844 192.789062 181.539062 C 193.050781 181.734375 193.269531 181.96875 193.441406 182.234375 C 193.558594 182.414062 193.636719 182.589844 193.675781 182.75 C 193.714844 182.910156 193.714844 183.046875 193.683594 183.160156 C 193.648438 183.269531 193.585938 183.363281 193.496094 183.4375 C 193.410156 183.511719 193.28125 183.574219 193.117188 183.628906 C 193.042969 183.652344 192.917969 183.675781 192.742188 183.691406 Z M 190.96875 181.25 L 192.285156 183.285156 C 192.355469 183.394531 192.402344 183.460938 192.429688 183.484375 C 192.457031 183.507812 192.488281 183.523438 192.519531 183.53125 C 192.570312 183.546875 192.628906 183.550781 192.699219 183.546875 C 192.921875 183.519531 193.046875 183.429688 193.070312 183.269531 C 193.105469 183.054688 192.988281 182.742188 192.71875 182.324219 C 192.503906 181.992188 192.273438 181.730469 192.035156 181.539062 C 191.84375 181.394531 191.664062 181.300781 191.488281 181.257812 C 191.367188 181.226562 191.191406 181.226562 190.96875 181.25 Z M 190.96875 181.25 "/>
<path style=" stroke:none;fill-rule:nonzero;fill:rgb(54.901961%,21.176471%,11.372549%);fill-opacity:1;" d="M 205.605469 183.996094 L 206.34375 185.058594 L 206.398438 185.050781 C 206.570312 185.035156 206.660156 184.96875 206.664062 184.855469 C 206.671875 184.742188 206.613281 184.585938 206.496094 184.378906 L 206.570312 184.371094 L 207.523438 185.738281 L 207.445312 185.746094 C 207.328125 185.597656 207.207031 185.480469 207.089844 185.390625 C 206.972656 185.300781 206.867188 185.246094 206.777344 185.21875 C 206.683594 185.195312 206.574219 185.1875 206.445312 185.203125 L 206.957031 185.9375 C 207.054688 186.082031 207.125 186.167969 207.15625 186.199219 C 207.195312 186.230469 207.238281 186.253906 207.285156 186.269531 C 207.335938 186.285156 207.398438 186.289062 207.476562 186.28125 L 207.640625 186.265625 C 207.894531 186.238281 208.058594 186.160156 208.132812 186.03125 C 208.210938 185.902344 208.199219 185.71875 208.109375 185.480469 L 208.183594 185.472656 L 208.636719 186.3125 L 206.273438 186.566406 L 206.226562 186.496094 L 206.316406 186.484375 C 206.394531 186.476562 206.449219 186.457031 206.480469 186.425781 C 206.5 186.402344 206.507812 186.367188 206.496094 186.324219 C 206.488281 186.289062 206.441406 186.210938 206.347656 186.078125 L 205.152344 184.363281 C 205.070312 184.242188 205.015625 184.171875 204.992188 184.144531 C 204.945312 184.101562 204.898438 184.070312 204.84375 184.050781 C 204.769531 184.019531 204.6875 184.007812 204.597656 184.019531 L 204.507812 184.027344 L 204.457031 183.957031 L 206.746094 183.710938 L 207.28125 184.484375 L 207.207031 184.492188 C 207.035156 184.308594 206.886719 184.179688 206.757812 184.105469 C 206.628906 184.027344 206.488281 183.980469 206.332031 183.953125 C 206.242188 183.941406 206.09375 183.941406 205.886719 183.964844 Z M 205.605469 183.996094 "/>
<path style=" stroke:none;fill-rule:nonzero;fill:rgb(54.901961%,21.176471%,11.372549%);fill-opacity:1;" d="M 197.910156 186.5 L 197.453125 184.699219 L 198.566406 184.582031 L 198.613281 184.652344 L 198.527344 184.664062 C 198.445312 184.671875 198.390625 184.691406 198.359375 184.722656 C 198.339844 184.746094 198.335938 184.777344 198.34375 184.824219 C 198.351562 184.855469 198.398438 184.9375 198.488281 185.066406 L 199.6875 186.785156 C 199.78125 186.917969 199.847656 187.003906 199.882812 187.035156 C 199.921875 187.066406 199.972656 187.09375 200.035156 187.113281 C 200.097656 187.132812 200.167969 187.136719 200.246094 187.128906 L 200.332031 187.121094 L 200.382812 187.191406 L 198.957031 187.34375 L 198.90625 187.273438 L 198.996094 187.261719 C 199.078125 187.253906 199.132812 187.234375 199.160156 187.203125 C 199.183594 187.179688 199.1875 187.148438 199.175781 187.101562 C 199.171875 187.070312 199.121094 186.988281 199.03125 186.855469 L 197.683594 184.921875 L 198.292969 187.414062 L 198.246094 187.417969 L 195.535156 185.171875 L 196.816406 187.007812 C 196.90625 187.136719 196.964844 187.214844 196.992188 187.242188 C 197.050781 187.304688 197.128906 187.355469 197.214844 187.390625 C 197.300781 187.421875 197.40625 187.433594 197.53125 187.417969 L 197.582031 187.492188 L 196.644531 187.589844 L 196.597656 187.519531 L 196.625 187.515625 C 196.683594 187.511719 196.734375 187.496094 196.773438 187.472656 C 196.8125 187.445312 196.832031 187.414062 196.835938 187.378906 C 196.839844 187.339844 196.828125 187.292969 196.800781 187.230469 C 196.792969 187.214844 196.75 187.152344 196.667969 187.035156 L 195.519531 185.382812 C 195.425781 185.25 195.363281 185.167969 195.324219 185.140625 C 195.285156 185.105469 195.238281 185.082031 195.175781 185.0625 C 195.109375 185.042969 195.039062 185.035156 194.964844 185.042969 L 194.878906 185.050781 L 194.828125 184.980469 L 195.945312 184.863281 Z M 197.910156 186.5 "/>
<path style=" stroke:none;fill-rule:nonzero;fill:rgb(54.901961%,21.176471%,11.372549%);fill-opacity:1;" d="M 193.222656 185.3125 L 193.960938 186.375 L 194.015625 186.371094 C 194.1875 186.351562 194.277344 186.285156 194.285156 186.175781 C 194.289062 186.0625 194.230469 185.902344 194.113281 185.699219 L 194.1875 185.691406 L 195.140625 187.054688 L 195.066406 187.066406 C 194.945312 186.917969 194.824219 186.800781 194.707031 186.710938 C 194.589844 186.621094 194.484375 186.5625 194.394531 186.539062 C 194.304688 186.511719 194.191406 186.507812 194.0625 186.519531 L 194.574219 187.253906 C 194.675781 187.398438 194.742188 187.484375 194.777344 187.515625 C 194.8125 187.546875 194.855469 187.570312 194.902344 187.589844 C 194.953125 187.605469 195.015625 187.609375 195.09375 187.601562 L 195.257812 187.582031 C 195.511719 187.554688 195.675781 187.476562 195.753906 187.347656 C 195.828125 187.21875 195.820312 187.035156 195.726562 186.796875 L 195.800781 186.789062 L 196.253906 187.632812 L 193.894531 187.882812 L 193.84375 187.8125 L 193.933594 187.804688 C 194.011719 187.792969 194.066406 187.773438 194.097656 187.742188 C 194.121094 187.71875 194.125 187.6875 194.113281 187.640625 C 194.105469 187.609375 194.058594 187.527344 193.964844 187.398438 L 192.769531 185.679688 C 192.6875 185.5625 192.636719 185.488281 192.609375 185.464844 C 192.566406 185.421875 192.515625 185.386719 192.460938 185.367188 C 192.386719 185.335938 192.304688 185.328125 192.214844 185.335938 L 192.125 185.347656 L 192.074219 185.273438 L 194.363281 185.03125 L 194.898438 185.800781 L 194.824219 185.8125 C 194.652344 185.625 194.503906 185.496094 194.375 185.421875 C 194.246094 185.347656 194.105469 185.296875 193.949219 185.273438 C 193.859375 185.257812 193.710938 185.261719 193.503906 185.285156 Z M 193.222656 185.3125 "/>
<path style=" stroke:none;fill-rule:nonzero;fill:rgb(54.901961%,21.176471%,11.372549%);fill-opacity:1;" d="M 193.664062 187.832031 L 193.714844 187.902344 L 192.285156 188.054688 L 192.234375 187.984375 L 192.328125 187.972656 C 192.40625 187.964844 192.460938 187.945312 192.488281 187.914062 C 192.511719 187.890625 192.519531 187.859375 192.507812 187.8125 C 192.5 187.78125 192.449219 187.699219 192.359375 187.566406 L 191.164062 185.851562 C 191.070312 185.71875 191.003906 185.636719 190.96875 185.605469 C 190.929688 185.570312 190.878906 185.546875 190.816406 185.527344 C 190.753906 185.507812 190.683594 185.5 190.609375 185.507812 L 190.515625 185.515625 L 190.46875 185.445312 L 191.894531 185.292969 L 191.945312 185.363281 L 191.855469 185.375 C 191.777344 185.382812 191.722656 185.402344 191.691406 185.4375 C 191.667969 185.457031 191.664062 185.492188 191.671875 185.535156 C 191.679688 185.570312 191.730469 185.652344 191.820312 185.78125 L 193.015625 187.5 C 193.109375 187.632812 193.175781 187.714844 193.210938 187.746094 C 193.25 187.777344 193.304688 187.804688 193.363281 187.824219 C 193.425781 187.84375 193.496094 187.851562 193.574219 187.839844 Z M 193.664062 187.832031 "/>
<path style=" stroke:none;fill-rule:nonzero;fill:rgb(54.901961%,21.176471%,11.372549%);fill-opacity:1;" d="M 190.238281 185.472656 L 190.730469 186.179688 L 190.660156 186.1875 C 190.5 186.027344 190.371094 185.914062 190.269531 185.851562 C 190.167969 185.785156 190.058594 185.734375 189.9375 185.703125 C 189.867188 185.683594 189.773438 185.683594 189.644531 185.695312 L 189.441406 185.71875 L 190.84375 187.730469 C 190.9375 187.863281 191 187.949219 191.039062 187.980469 C 191.078125 188.011719 191.128906 188.035156 191.191406 188.058594 C 191.253906 188.078125 191.324219 188.082031 191.402344 188.074219 L 191.492188 188.066406 L 191.542969 188.136719 L 190.113281 188.289062 L 190.0625 188.21875 L 190.152344 188.207031 C 190.234375 188.199219 190.285156 188.179688 190.316406 188.148438 C 190.339844 188.125 190.34375 188.09375 190.335938 188.046875 C 190.328125 188.011719 190.277344 187.933594 190.1875 187.800781 L 188.785156 185.789062 L 188.589844 185.808594 C 188.40625 185.828125 188.296875 185.878906 188.265625 185.964844 C 188.222656 186.082031 188.25 186.234375 188.351562 186.433594 L 188.277344 186.441406 L 187.785156 185.734375 Z M 190.238281 185.472656 "/>
<path style=" stroke:none;fill-rule:nonzero;fill:rgb(54.901961%,21.176471%,11.372549%);fill-opacity:1;" d="M 183.585938 186.339844 L 184.328125 187.402344 L 184.382812 187.398438 C 184.554688 187.378906 184.644531 187.3125 184.652344 187.203125 C 184.65625 187.089844 184.597656 186.929688 184.480469 186.726562 L 184.554688 186.71875 L 185.507812 188.082031 L 185.429688 188.09375 C 185.3125 187.945312 185.191406 187.828125 185.074219 187.738281 C 184.957031 187.648438 184.851562 187.589844 184.761719 187.566406 C 184.667969 187.539062 184.558594 187.535156 184.429688 187.546875 L 184.941406 188.28125 C 185.039062 188.425781 185.109375 188.515625 185.140625 188.542969 C 185.179688 188.574219 185.21875 188.597656 185.269531 188.617188 C 185.320312 188.632812 185.382812 188.636719 185.460938 188.628906 L 185.625 188.609375 C 185.878906 188.582031 186.042969 188.507812 186.117188 188.375 C 186.195312 188.246094 186.183594 188.0625 186.09375 187.824219 L 186.167969 187.816406 L 186.621094 188.660156 L 184.257812 188.910156 L 184.210938 188.839844 L 184.300781 188.832031 C 184.378906 188.824219 184.433594 188.800781 184.464844 188.769531 C 184.488281 188.75 184.492188 188.714844 184.480469 188.667969 C 184.472656 188.636719 184.425781 188.554688 184.332031 188.425781 L 183.136719 186.707031 C 183.054688 186.589844 183 186.519531 182.976562 186.492188 C 182.929688 186.449219 182.882812 186.417969 182.828125 186.394531 C 182.753906 186.363281 182.671875 186.355469 182.582031 186.363281 L 182.492188 186.375 L 182.441406 186.300781 L 184.726562 186.058594 L 185.265625 186.832031 L 185.191406 186.839844 C 185.019531 186.652344 184.871094 186.523438 184.742188 186.449219 C 184.613281 186.375 184.472656 186.324219 184.316406 186.300781 C 184.226562 186.285156 184.078125 186.289062 183.871094 186.3125 Z M 183.585938 186.339844 "/>
<path style=" stroke:none;fill-rule:nonzero;fill:rgb(54.901961%,21.176471%,11.372549%);fill-opacity:1;" d="M 181.960938 186.289062 L 182.589844 187.15625 L 182.503906 187.164062 C 182.316406 186.949219 182.097656 186.785156 181.851562 186.671875 C 181.605469 186.554688 181.394531 186.503906 181.21875 186.523438 C 181.082031 186.539062 180.996094 186.585938 180.964844 186.664062 C 180.933594 186.742188 180.949219 186.824219 181.015625 186.917969 C 181.054688 186.976562 181.105469 187.023438 181.164062 187.066406 C 181.246094 187.121094 181.347656 187.175781 181.476562 187.226562 C 181.570312 187.261719 181.765625 187.320312 182.070312 187.402344 C 182.496094 187.519531 182.808594 187.636719 183.011719 187.761719 C 183.214844 187.882812 183.378906 188.027344 183.496094 188.199219 C 183.648438 188.417969 183.691406 188.617188 183.621094 188.792969 C 183.554688 188.96875 183.382812 189.070312 183.109375 189.097656 C 183.023438 189.109375 182.9375 189.109375 182.847656 189.101562 C 182.757812 189.089844 182.640625 189.070312 182.492188 189.035156 C 182.410156 189.019531 182.351562 189.011719 182.308594 189.015625 C 182.273438 189.019531 182.246094 189.035156 182.222656 189.066406 C 182.203125 189.09375 182.199219 189.136719 182.210938 189.195312 L 182.136719 189.203125 L 181.449219 188.214844 L 181.523438 188.207031 C 181.777344 188.480469 182.039062 188.679688 182.308594 188.804688 C 182.578125 188.933594 182.808594 188.988281 183.003906 188.964844 C 183.15625 188.949219 183.246094 188.898438 183.28125 188.808594 C 183.316406 188.722656 183.296875 188.625 183.226562 188.523438 C 183.183594 188.460938 183.125 188.402344 183.050781 188.347656 C 182.976562 188.296875 182.886719 188.246094 182.78125 188.203125 C 182.675781 188.15625 182.503906 188.101562 182.269531 188.039062 C 181.9375 187.949219 181.691406 187.867188 181.523438 187.796875 C 181.359375 187.726562 181.210938 187.644531 181.082031 187.546875 C 180.953125 187.453125 180.84375 187.34375 180.761719 187.222656 C 180.617188 187.015625 180.570312 186.828125 180.628906 186.667969 C 180.6875 186.503906 180.839844 186.410156 181.082031 186.382812 C 181.171875 186.371094 181.261719 186.375 181.359375 186.386719 C 181.433594 186.394531 181.53125 186.414062 181.652344 186.449219 C 181.769531 186.480469 181.847656 186.492188 181.886719 186.488281 C 181.921875 186.484375 181.941406 186.472656 181.945312 186.449219 C 181.953125 186.425781 181.9375 186.375 181.898438 186.296875 Z M 181.960938 186.289062 "/>
<path style=" stroke:none;fill-rule:nonzero;fill:rgb(54.901961%,21.176471%,11.372549%);fill-opacity:1;" d="M 187.222656 187.328125 L 187.726562 188.054688 C 187.824219 188.195312 187.894531 188.28125 187.9375 188.316406 C 187.984375 188.351562 188.035156 188.378906 188.097656 188.394531 C 188.160156 188.410156 188.25 188.414062 188.375 188.398438 L 188.425781 188.472656 L 187.035156 188.617188 L 186.988281 188.546875 C 187.113281 188.535156 187.191406 188.515625 187.21875 188.488281 C 187.25 188.460938 187.261719 188.425781 187.253906 188.390625 C 187.246094 188.351562 187.195312 188.261719 187.097656 188.121094 L 185.917969 186.425781 C 185.816406 186.285156 185.746094 186.199219 185.703125 186.164062 C 185.660156 186.128906 185.605469 186.101562 185.546875 186.085938 C 185.484375 186.070312 185.394531 186.066406 185.265625 186.082031 L 185.21875 186.011719 L 186.410156 185.882812 C 186.800781 185.839844 187.128906 185.878906 187.390625 185.992188 C 187.65625 186.109375 187.859375 186.265625 187.996094 186.464844 C 188.113281 186.636719 188.160156 186.785156 188.136719 186.917969 C 188.109375 187.050781 188.015625 187.148438 187.851562 187.214844 C 187.742188 187.257812 187.53125 187.296875 187.222656 187.328125 Z M 186.332031 186.050781 L 187.117188 187.179688 C 187.164062 187.175781 187.199219 187.175781 187.222656 187.171875 C 187.386719 187.15625 187.480469 187.09375 187.503906 186.992188 C 187.527344 186.890625 187.46875 186.742188 187.335938 186.546875 C 187.199219 186.351562 187.058594 186.214844 186.90625 186.136719 C 186.753906 186.054688 186.589844 186.023438 186.414062 186.042969 Z M 186.332031 186.050781 "/>
<path style=" stroke:none;fill-rule:nonzero;fill:rgb(54.901961%,21.176471%,11.372549%);fill-opacity:1;" d="M 201.328125 185.605469 C 201.628906 185.636719 201.859375 185.683594 202.023438 185.757812 C 202.253906 185.855469 202.433594 186 202.5625 186.1875 C 202.699219 186.382812 202.730469 186.554688 202.65625 186.699219 C 202.558594 186.875 202.320312 186.984375 201.933594 187.027344 L 200.542969 187.175781 L 200.496094 187.105469 C 200.621094 187.089844 200.699219 187.070312 200.726562 187.042969 C 200.757812 187.015625 200.769531 186.984375 200.761719 186.945312 C 200.753906 186.90625 200.703125 186.816406 200.605469 186.675781 L 199.425781 184.984375 C 199.324219 184.839844 199.253906 184.753906 199.210938 184.722656 C 199.167969 184.683594 199.117188 184.660156 199.054688 184.640625 C 198.992188 184.625 198.902344 184.625 198.777344 184.636719 L 198.726562 184.566406 L 200.035156 184.425781 C 200.347656 184.394531 200.589844 184.394531 200.757812 184.4375 C 200.925781 184.472656 201.082031 184.542969 201.230469 184.640625 C 201.378906 184.738281 201.496094 184.847656 201.578125 184.964844 C 201.667969 185.089844 201.699219 185.210938 201.671875 185.316406 C 201.644531 185.425781 201.53125 185.519531 201.328125 185.605469 Z M 200.558594 185.628906 C 200.75 185.609375 200.875 185.574219 200.9375 185.523438 C 201 185.472656 201.03125 185.410156 201.027344 185.328125 C 201.023438 185.25 200.980469 185.152344 200.902344 185.035156 C 200.820312 184.921875 200.730469 184.828125 200.632812 184.761719 C 200.53125 184.691406 200.425781 184.640625 200.308594 184.613281 C 200.195312 184.585938 200.039062 184.582031 199.84375 184.605469 Z M 200.664062 185.78125 L 201.246094 186.617188 L 201.3125 186.714844 C 201.359375 186.785156 201.414062 186.835938 201.476562 186.867188 C 201.539062 186.898438 201.605469 186.910156 201.679688 186.902344 C 201.785156 186.890625 201.867188 186.855469 201.925781 186.800781 C 201.988281 186.746094 202.011719 186.671875 202 186.582031 C 201.988281 186.488281 201.941406 186.390625 201.867188 186.28125 C 201.785156 186.160156 201.679688 186.054688 201.550781 185.964844 C 201.425781 185.875 201.296875 185.816406 201.167969 185.789062 C 201.035156 185.761719 200.867188 185.757812 200.664062 185.78125 Z M 200.664062 185.78125 "/>
<path style=" stroke:none;fill-rule:nonzero;fill:rgb(54.901961%,21.176471%,11.372549%);fill-opacity:1;" d="M 203.476562 185.585938 L 203.984375 186.316406 C 204.085938 186.457031 204.15625 186.546875 204.199219 186.582031 C 204.242188 186.613281 204.296875 186.640625 204.355469 186.65625 C 204.417969 186.675781 204.507812 186.675781 204.632812 186.664062 L 204.683594 186.734375 L 203.285156 186.882812 L 203.234375 186.8125 C 203.363281 186.796875 203.441406 186.777344 203.46875 186.75 C 203.5 186.722656 203.507812 186.691406 203.503906 186.652344 C 203.496094 186.613281 203.445312 186.527344 203.34375 186.382812 L 202.164062 184.691406 C 202.066406 184.550781 201.996094 184.460938 201.953125 184.429688 C 201.910156 184.394531 201.855469 184.367188 201.796875 184.351562 C 201.734375 184.332031 201.640625 184.332031 201.515625 184.34375 L 201.46875 184.273438 L 202.738281 184.136719 C 203.066406 184.101562 203.324219 184.097656 203.507812 184.125 C 203.691406 184.152344 203.875 184.222656 204.050781 184.328125 C 204.230469 184.433594 204.375 184.566406 204.484375 184.726562 C 204.617188 184.917969 204.65625 185.085938 204.597656 185.226562 C 204.5625 185.316406 204.472656 185.386719 204.335938 185.445312 L 205.605469 186.257812 C 205.773438 186.363281 205.882812 186.429688 205.9375 186.453125 C 206.023438 186.488281 206.101562 186.5 206.175781 186.496094 L 206.226562 186.570312 L 205.367188 186.660156 L 203.65625 185.566406 Z M 202.585938 184.304688 L 203.382812 185.449219 L 203.496094 185.4375 C 203.683594 185.417969 203.8125 185.386719 203.882812 185.34375 C 203.953125 185.300781 203.984375 185.234375 203.976562 185.144531 C 203.96875 185.050781 203.917969 184.9375 203.824219 184.800781 C 203.683594 184.601562 203.535156 184.460938 203.371094 184.375 C 203.207031 184.289062 203.015625 184.257812 202.800781 184.28125 Z M 202.585938 184.304688 "/>
<path style=" stroke:none;fill-rule:nonzero;fill:rgb(54.901961%,21.176471%,11.372549%);fill-opacity:1;" d="M 201.230469 188.433594 L 202.234375 190.570312 C 202.3125 190.730469 202.367188 190.832031 202.402344 190.875 C 202.4375 190.917969 202.488281 190.949219 202.546875 190.972656 C 202.609375 190.996094 202.695312 191 202.800781 190.992188 L 202.863281 190.984375 L 202.898438 191.054688 L 201.425781 191.207031 L 201.390625 191.136719 L 201.464844 191.128906 C 201.585938 191.117188 201.664062 191.09375 201.703125 191.066406 C 201.742188 191.035156 201.757812 190.996094 201.757812 190.949219 C 201.753906 190.902344 201.710938 190.796875 201.636719 190.632812 L 200.996094 189.277344 C 200.941406 189.15625 200.898438 189.085938 200.875 189.054688 C 200.847656 189.027344 200.8125 189.003906 200.765625 188.984375 C 200.722656 188.96875 200.679688 188.960938 200.636719 188.964844 C 200.566406 188.972656 200.488281 189 200.410156 189.054688 L 200.339844 188.988281 L 201.164062 188.441406 Z M 201.230469 188.433594 "/>
<path style=" stroke:none;fill-rule:nonzero;fill:rgb(54.901961%,21.176471%,11.372549%);fill-opacity:1;" d="M 200.742188 191.277344 L 199.097656 191.449219 L 199.078125 191.40625 C 199.316406 190.792969 199.445312 190.382812 199.460938 190.179688 C 199.480469 189.972656 199.445312 189.777344 199.359375 189.59375 C 199.292969 189.460938 199.195312 189.351562 199.066406 189.273438 C 198.933594 189.191406 198.804688 189.160156 198.675781 189.171875 C 198.464844 189.195312 198.34375 189.3125 198.320312 189.519531 L 198.234375 189.503906 C 198.191406 189.25 198.21875 189.054688 198.3125 188.921875 C 198.410156 188.789062 198.558594 188.710938 198.753906 188.691406 C 198.898438 188.675781 199.039062 188.691406 199.1875 188.742188 C 199.332031 188.792969 199.464844 188.867188 199.582031 188.96875 C 199.695312 189.066406 199.777344 189.164062 199.820312 189.257812 C 199.902344 189.429688 199.933594 189.605469 199.914062 189.792969 C 199.886719 190.046875 199.738281 190.40625 199.46875 190.882812 L 200.074219 190.816406 C 200.222656 190.800781 200.316406 190.785156 200.355469 190.769531 C 200.394531 190.753906 200.425781 190.730469 200.441406 190.699219 C 200.457031 190.667969 200.464844 190.609375 200.472656 190.515625 L 200.546875 190.507812 Z M 200.742188 191.277344 "/>
<path style=" stroke:none;fill-rule:nonzero;fill:rgb(54.901961%,21.176471%,11.372549%);fill-opacity:1;" d="M 194.890625 189.097656 L 195.894531 191.230469 C 195.972656 191.390625 196.027344 191.492188 196.0625 191.535156 C 196.097656 191.578125 196.148438 191.609375 196.210938 191.632812 C 196.269531 191.65625 196.355469 191.664062 196.460938 191.652344 L 196.523438 191.644531 L 196.558594 191.714844 L 195.085938 191.871094 L 195.050781 191.796875 L 195.125 191.789062 C 195.246094 191.777344 195.324219 191.757812 195.363281 191.726562 C 195.402344 191.695312 195.421875 191.65625 195.417969 191.609375 C 195.414062 191.5625 195.371094 191.457031 195.296875 191.292969 L 194.660156 189.941406 C 194.601562 189.820312 194.558594 189.746094 194.535156 189.714844 C 194.507812 189.6875 194.472656 189.664062 194.425781 189.648438 C 194.382812 189.628906 194.339844 189.621094 194.296875 189.625 C 194.226562 189.632812 194.152344 189.664062 194.070312 189.714844 L 194 189.648438 L 194.824219 189.101562 Z M 194.890625 189.097656 "/>
<path style=" stroke:none;fill-rule:nonzero;fill:rgb(54.901961%,21.176471%,11.372549%);fill-opacity:1;" d="M 190.882812 189.726562 L 191.382812 190.789062 L 191.441406 190.78125 C 191.617188 190.765625 191.722656 190.699219 191.753906 190.585938 C 191.785156 190.476562 191.761719 190.316406 191.6875 190.113281 L 191.765625 190.101562 L 192.410156 191.46875 L 192.332031 191.476562 C 192.246094 191.332031 192.152344 191.210938 192.054688 191.125 C 191.957031 191.035156 191.867188 190.976562 191.78125 190.953125 C 191.695312 190.925781 191.585938 190.917969 191.453125 190.933594 L 191.796875 191.667969 C 191.867188 191.8125 191.914062 191.898438 191.941406 191.929688 C 191.96875 191.960938 192.007812 191.984375 192.050781 192 C 192.097656 192.019531 192.160156 192.023438 192.242188 192.015625 L 192.40625 191.996094 C 192.667969 191.96875 192.851562 191.890625 192.957031 191.761719 C 193.058594 191.632812 193.09375 191.449219 193.054688 191.210938 L 193.128906 191.203125 L 193.394531 192.046875 L 190.976562 192.296875 L 190.941406 192.226562 L 191.035156 192.214844 C 191.117188 192.207031 191.175781 192.1875 191.210938 192.15625 C 191.238281 192.132812 191.253906 192.101562 191.25 192.054688 C 191.25 192.023438 191.222656 191.941406 191.160156 191.808594 L 190.351562 190.09375 C 190.296875 189.976562 190.257812 189.902344 190.238281 189.878906 C 190.203125 189.832031 190.160156 189.800781 190.113281 189.78125 C 190.042969 189.75 189.964844 189.738281 189.871094 189.75 L 189.78125 189.757812 L 189.746094 189.6875 L 192.089844 189.445312 L 192.453125 190.214844 L 192.375 190.222656 C 192.246094 190.039062 192.125 189.910156 192.011719 189.835938 C 191.902344 189.761719 191.773438 189.710938 191.621094 189.6875 C 191.535156 189.671875 191.382812 189.675781 191.171875 189.695312 Z M 190.882812 189.726562 "/>
<path style=" stroke:none;fill-rule:nonzero;fill:rgb(54.901961%,21.176471%,11.372549%);fill-opacity:1;" d="M 187.894531 192.617188 L 187.863281 192.546875 L 187.953125 192.539062 C 188.035156 192.527344 188.09375 192.511719 188.125 192.484375 C 188.15625 192.453125 188.175781 192.417969 188.175781 192.375 C 188.175781 192.347656 188.144531 192.265625 188.078125 192.132812 L 187.269531 190.414062 C 187.207031 190.28125 187.160156 190.199219 187.128906 190.167969 C 187.097656 190.136719 187.054688 190.109375 186.996094 190.089844 C 186.9375 190.070312 186.871094 190.0625 186.792969 190.070312 L 186.699219 190.082031 L 186.667969 190.007812 L 187.917969 189.878906 C 188.253906 189.84375 188.542969 189.859375 188.785156 189.921875 C 189.082031 190 189.347656 190.136719 189.574219 190.335938 C 189.800781 190.53125 189.976562 190.761719 190.101562 191.027344 C 190.191406 191.210938 190.238281 191.382812 190.246094 191.546875 C 190.257812 191.707031 190.234375 191.84375 190.183594 191.953125 C 190.128906 192.066406 190.050781 192.15625 189.949219 192.234375 C 189.847656 192.308594 189.707031 192.371094 189.535156 192.421875 C 189.457031 192.449219 189.328125 192.46875 189.148438 192.488281 Z M 187.800781 190.046875 L 188.761719 192.082031 C 188.8125 192.191406 188.847656 192.253906 188.871094 192.277344 C 188.894531 192.300781 188.921875 192.316406 188.953125 192.328125 C 189 192.34375 189.058594 192.347656 189.128906 192.339844 C 189.359375 192.316406 189.5 192.226562 189.550781 192.066406 C 189.625 191.851562 189.5625 191.535156 189.367188 191.121094 C 189.207031 190.785156 189.027344 190.523438 188.816406 190.335938 C 188.65625 190.1875 188.488281 190.09375 188.324219 190.050781 C 188.207031 190.023438 188.03125 190.019531 187.800781 190.046875 Z M 187.800781 190.046875 "/>
<path style=" stroke:none;fill-rule:nonzero;fill:rgb(54.901961%,21.176471%,11.372549%);fill-opacity:1;" d="M 197.625 190.058594 C 197.886719 190.171875 198.082031 190.28125 198.210938 190.390625 C 198.34375 190.5 198.445312 190.628906 198.515625 190.777344 C 198.613281 190.988281 198.613281 191.175781 198.511719 191.339844 C 198.410156 191.503906 198.214844 191.597656 197.921875 191.628906 C 197.644531 191.65625 197.402344 191.617188 197.191406 191.503906 C 196.980469 191.394531 196.832031 191.246094 196.746094 191.0625 C 196.679688 190.921875 196.664062 190.796875 196.703125 190.683594 C 196.738281 190.566406 196.839844 190.457031 197.003906 190.347656 C 196.707031 190.214844 196.503906 190.097656 196.394531 190.007812 C 196.285156 189.910156 196.199219 189.800781 196.136719 189.667969 C 196.054688 189.492188 196.0625 189.332031 196.15625 189.183594 C 196.253906 189.03125 196.441406 188.941406 196.714844 188.914062 C 196.984375 188.886719 197.214844 188.925781 197.414062 189.027344 C 197.613281 189.128906 197.753906 189.261719 197.832031 189.425781 C 197.886719 189.550781 197.898438 189.664062 197.867188 189.765625 C 197.832031 189.867188 197.753906 189.964844 197.625 190.058594 Z M 197.421875 189.976562 C 197.441406 189.90625 197.445312 189.832031 197.433594 189.75 C 197.421875 189.664062 197.394531 189.578125 197.347656 189.484375 C 197.269531 189.316406 197.171875 189.191406 197.050781 189.113281 C 196.960938 189.050781 196.867188 189.023438 196.765625 189.035156 C 196.671875 189.042969 196.609375 189.085938 196.574219 189.152344 C 196.539062 189.222656 196.542969 189.300781 196.585938 189.394531 C 196.628906 189.488281 196.710938 189.582031 196.832031 189.675781 C 196.949219 189.769531 197.148438 189.867188 197.421875 189.976562 Z M 197.199219 190.425781 C 197.175781 190.464844 197.160156 190.5 197.15625 190.53125 C 197.148438 190.578125 197.15625 190.648438 197.175781 190.734375 C 197.191406 190.824219 197.222656 190.914062 197.269531 191.007812 C 197.324219 191.128906 197.390625 191.230469 197.460938 191.308594 C 197.53125 191.386719 197.605469 191.4375 197.683594 191.46875 C 197.761719 191.496094 197.835938 191.507812 197.898438 191.503906 C 198 191.492188 198.066406 191.449219 198.105469 191.375 C 198.140625 191.296875 198.128906 191.199219 198.074219 191.082031 C 197.957031 190.832031 197.667969 190.613281 197.199219 190.425781 Z M 197.199219 190.425781 "/>
</g>
</svg>
