<?xml version="1.0" encoding="UTF-8"?>
<svg xmlns="http://www.w3.org/2000/svg" xmlns:xlink="http://www.w3.org/1999/xlink" width="384pt" height="384pt" viewBox="0 0 384 384" version="1.1">
<g id="surface1">
<path style=" stroke:none;fill-rule:evenodd;fill:rgb(22.352941%,58.039216%,3.137255%);fill-opacity:1;" d="M 1.457031 0 L 384 0 L 384 384 L 1.457031 384 Z M 1.457031 0 "/>
<path style=" stroke:none;fill-rule:evenodd;fill:rgb(100%,100%,100%);fill-opacity:1;" d="M 0.105469 0 C -0.398438 0.0585938 371.871094 193.183594 371.871094 193.183594 L 0 383.8125 L 0.101562 0 Z M 0.105469 0 "/>
<path style=" stroke:none;fill-rule:evenodd;fill:rgb(100%,87.058824%,3.137255%);fill-opacity:1;" d="M 0.171875 16.148438 C 2.25 16.148438 335.613281 190.457031 333.714844 192.175781 L 1.121094 370.613281 Z M 0.171875 16.148438 "/>
<path style=" stroke:none;fill-rule:evenodd;fill:rgb(0%,0%,0%);fill-opacity:1;" d="M 1.121094 0.625 C 2.230469 0.625 175.691406 193.363281 175.691406 193.363281 L 1.121094 381.582031 L 1.121094 0.621094 Z M 1.121094 0.625 "/>
<path style=" stroke:none;fill-rule:evenodd;fill:rgb(87.058824%,12.941176%,6.27451%);fill-opacity:1;" d="M 0.171875 27.121094 C 1.167969 15.132812 156.722656 193.839844 156.722656 193.839844 L 0.171875 361.359375 Z M 0.171875 27.121094 "/>
</g>
</svg>
