<?xml version="1.0" encoding="UTF-8"?>
<svg xmlns="http://www.w3.org/2000/svg" xmlns:xlink="http://www.w3.org/1999/xlink" width="384pt" height="384pt" viewBox="0 0 384 384" version="1.1">
<defs>
<clipPath id="clip1">
  <path d="M 0 0 L 383.996094 0 L 383.996094 383.996094 L 0 383.996094 Z M 0 0 "/>
</clipPath>
</defs>
<g id="surface1">
<g clip-path="url(#clip1)" clip-rule="nonzero">
<path style=" stroke:none;fill-rule:evenodd;fill:rgb(72.941176%,0%,0%);fill-opacity:1;" d="M 463.5 383.996094 L -85.074219 383.996094 L -85.074219 0.00390625 L 463.5 0.00390625 Z M 463.5 383.996094 "/>
</g>
<path style=" stroke:none;fill-rule:evenodd;fill:rgb(100%,100%,100%);fill-opacity:1;" d="M 181.40625 185.851562 C 181.40625 185.851562 142.691406 169.183594 148.246094 125.988281 C 153.625 105.195312 163.125 91.039062 180.332031 83.332031 C 188.394531 80.820312 196.640625 79.746094 205.066406 79.027344 C 202.855469 81.121094 201.003906 83.210938 200.046875 85.839844 C 198.195312 90.558594 199.570312 95.101562 202.019531 99.640625 C 205.125 104.898438 206.976562 110.335938 207.574219 117.386719 C 208.707031 127.304688 204.46875 136.863281 196.640625 142.660156 C 191.679688 146.480469 185.828125 147.796875 181.046875 152.15625 C 177.34375 155.800781 175.074219 159.449219 174.234375 165.78125 C 174.117188 177.847656 177.402344 179.523438 181.40625 185.855469 Z M 181.40625 185.851562 "/>
<path style="fill:none;stroke-width:2.931125;stroke-linecap:butt;stroke-linejoin:miter;stroke:rgb(0%,0%,0%);stroke-opacity:1;stroke-miterlimit:4;" d="M 510.211655 236.176577 L 510.211655 235.835955 " transform="matrix(0.51606,0,0,0.51606,-89.241233,1.474184)"/>
<path style="fill:none;stroke-width:2.931125;stroke-linecap:butt;stroke-linejoin:miter;stroke:rgb(72.941176%,0%,0%);stroke-opacity:1;stroke-miterlimit:4;" d="M 514.950081 348.589317 C 485.770153 322.77019 488.321031 257.83255 510.552276 236.176577 " transform="matrix(0.51606,0,0,0.51606,-89.241233,1.474184)"/>
<path style=" stroke:none;fill-rule:evenodd;fill:rgb(72.941176%,0%,0%);fill-opacity:1;" d="M 173.9375 115.113281 L 178.898438 113.996094 L 179.488281 109.164062 L 181.953125 113.304688 L 186.910156 112.179688 L 183.476562 115.859375 L 185.949219 120 L 181.359375 118.128906 L 177.929688 121.8125 L 178.53125 116.976562 Z M 173.9375 115.113281 "/>
<path style=" stroke:none;fill-rule:evenodd;fill:rgb(100%,100%,100%);fill-opacity:1;" d="M 184.695312 182.996094 C 184.695312 182.996094 189.289062 141.09375 232.214844 133.75 C 253.671875 132.796875 269.992188 137.730469 282.402344 151.925781 C 287.164062 158.902344 290.609375 166.46875 293.761719 174.3125 C 291.117188 172.8125 288.574219 171.65625 285.78125 171.511719 C 280.726562 171.121094 276.785156 173.765625 273.164062 177.441406 C 269.046875 181.949219 264.390625 185.3125 257.824219 187.949219 C 248.675781 191.941406 238.292969 190.6875 230.457031 184.902344 C 225.347656 181.28125 222.378906 176.070312 216.808594 172.777344 C 212.238281 170.304688 208.085938 169.203125 201.789062 170.257812 C 190.214844 173.679688 189.578125 177.3125 184.695312 182.996094 Z M 184.695312 182.996094 "/>
<path style="fill-rule:evenodd;fill:rgb(72.941176%,0%,0%);fill-opacity:1;stroke-width:2.931125;stroke-linecap:butt;stroke-linejoin:miter;stroke:rgb(0%,0%,0%);stroke-opacity:1;stroke-miterlimit:4;" d="M 510.211823 236.17707 L 510.205876 235.834823 " transform="matrix(0.151216,0.49341,-0.49341,0.151216,281.676892,-129.801158)"/>
<path style="fill:none;stroke-width:2.931125;stroke-linecap:butt;stroke-linejoin:miter;stroke:rgb(72.941176%,0%,0%);stroke-opacity:1;stroke-miterlimit:4;" d="M 514.948522 348.591188 C 485.771398 322.770538 488.318972 257.833591 510.551851 236.17836 " transform="matrix(0.151216,0.49341,-0.49341,0.151216,281.676892,-129.801158)"/>
<path style=" stroke:none;fill-rule:evenodd;fill:rgb(72.941176%,0%,0%);fill-opacity:1;" d="M 250.140625 155.125 L 252.664062 159.539062 L 257.457031 158.6875 L 254.21875 162.261719 L 256.746094 166.671875 L 252.222656 164.464844 L 248.992188 168.042969 L 249.433594 163.105469 L 244.90625 160.90625 L 249.707031 160.0625 Z M 250.140625 155.125 "/>
<path style=" stroke:none;fill-rule:evenodd;fill:rgb(100%,100%,100%);fill-opacity:1;" d="M 187.589844 186.019531 C 187.589844 186.019531 228.777344 177.070312 249.375 215.4375 C 257.089844 235.480469 257.597656 252.523438 248.082031 268.800781 C 242.976562 275.53125 236.894531 281.199219 230.460938 286.683594 C 231.042969 283.695312 231.332031 280.917969 230.582031 278.222656 C 229.34375 273.304688 225.585938 270.410156 220.953125 268.140625 C 215.367188 265.671875 210.699219 262.324219 206.113281 256.9375 C 199.425781 249.527344 197.316406 239.285156 200.3125 230.019531 C 202.125 224.023438 206.121094 219.550781 207.476562 213.222656 C 208.367188 208.105469 208.097656 203.820312 205.09375 198.179688 C 198.175781 188.292969 194.527344 188.84375 187.589844 186.019531 Z M 187.589844 186.019531 "/>
<path style="fill-rule:evenodd;fill:rgb(72.941176%,0%,0%);fill-opacity:1;stroke-width:2.931125;stroke-linecap:butt;stroke-linejoin:miter;stroke:rgb(0%,0%,0%);stroke-opacity:1;stroke-miterlimit:4;" d="M 510.207925 236.176978 L 510.210676 235.834688 " transform="matrix(-0.419835,0.300089,-0.300089,-0.419835,514.987618,178.637582)"/>
<path style="fill:none;stroke-width:2.931125;stroke-linecap:butt;stroke-linejoin:miter;stroke:rgb(72.941176%,0%,0%);stroke-opacity:1;stroke-miterlimit:4;" d="M 514.951093 348.594377 C 485.772346 322.769604 488.318871 257.831877 510.550215 236.179729 " transform="matrix(-0.419835,0.300089,-0.300089,-0.419835,514.987618,178.637582)"/>
<path style=" stroke:none;fill-rule:evenodd;fill:rgb(72.941176%,0%,0%);fill-opacity:1;" d="M 234.800781 239.226562 L 231.414062 243.019531 L 233.746094 247.292969 L 229.328125 245.359375 L 225.949219 249.15625 L 226.605469 244.167969 L 222.1875 242.238281 L 227.007812 241.089844 L 227.65625 236.097656 L 229.980469 240.378906 Z M 234.800781 239.226562 "/>
<path style=" stroke:none;fill-rule:evenodd;fill:rgb(100%,100%,100%);fill-opacity:1;" d="M 186.660156 190.269531 C 186.660156 190.269531 206.820312 227.285156 175.777344 257.828125 C 158.710938 270.863281 142.496094 276.136719 124.203125 271.570312 C 116.308594 268.566406 109.15625 264.320312 102.089844 259.683594 C 105.121094 259.402344 107.867188 258.902344 110.242188 257.421875 C 114.613281 254.855469 116.335938 250.433594 117.214844 245.351562 C 118.015625 239.296875 119.917969 233.878906 123.800781 227.964844 C 129.03125 219.460938 138.273438 214.5625 148.007812 214.835938 C 154.269531 214.890625 159.683594 217.472656 166.136719 216.992188 C 171.300781 216.414062 175.339844 214.949219 179.90625 210.484375 C 187.453125 201.066406 185.902344 197.71875 186.664062 190.265625 Z M 186.660156 190.269531 "/>
<path style="fill-rule:evenodd;fill:rgb(72.941176%,0%,0%);fill-opacity:1;stroke-width:2.931125;stroke-linecap:butt;stroke-linejoin:miter;stroke:rgb(0%,0%,0%);stroke-opacity:1;stroke-miterlimit:4;" d="M 510.211396 236.181817 L 510.209837 235.836604 " transform="matrix(-0.405917,-0.318667,0.318667,-0.405917,285.691839,502.418787)"/>
<path style="fill:none;stroke-width:2.931125;stroke-linecap:butt;stroke-linejoin:miter;stroke:rgb(72.941176%,0%,0%);stroke-opacity:1;stroke-miterlimit:4;" d="M 514.946181 348.588697 C 485.767982 322.77257 488.320672 257.832415 510.545981 236.178978 " transform="matrix(-0.405917,-0.318667,0.318667,-0.405917,285.691839,502.418787)"/>
<path style=" stroke:none;fill-rule:evenodd;fill:rgb(72.941176%,0%,0%);fill-opacity:1;" d="M 148.855469 250.519531 L 144.265625 248.335938 L 140.816406 251.773438 L 141.433594 246.992188 L 136.839844 244.816406 L 141.8125 244.042969 L 142.421875 239.261719 L 144.878906 243.566406 L 149.851562 242.785156 L 146.394531 246.21875 Z M 148.855469 250.519531 "/>
<path style=" stroke:none;fill-rule:evenodd;fill:rgb(100%,100%,100%);fill-opacity:1;" d="M 182.09375 189.464844 C 182.09375 189.464844 153.878906 220.777344 114.753906 201.648438 C 96.789062 189.878906 86.429688 176.335938 84.65625 157.566406 C 84.871094 149.125 86.5 140.96875 88.523438 132.761719 C 89.796875 135.527344 91.179688 137.953125 93.363281 139.699219 C 97.238281 142.972656 101.980469 143.128906 107.066406 142.265625 C 113.042969 141.011719 118.785156 141.003906 125.65625 142.699219 C 135.410156 144.808594 143.105469 151.898438 146.078125 161.167969 C 148.109375 167.09375 147.472656 173.058594 150.070312 178.988281 C 152.332031 183.664062 155.054688 186.984375 160.78125 189.8125 C 172.175781 193.800781 174.8125 191.222656 182.097656 189.464844 Z M 182.09375 189.464844 "/>
<path style="fill-rule:evenodd;fill:rgb(72.941176%,0%,0%);fill-opacity:1;stroke-width:2.931125;stroke-linecap:butt;stroke-linejoin:miter;stroke:rgb(0%,0%,0%);stroke-opacity:1;stroke-miterlimit:4;" d="M 510.211164 236.181724 L 510.21176 235.829848 " transform="matrix(0.165691,-0.488735,0.488735,0.165691,-79.416998,386.583959)"/>
<path style="fill:none;stroke-width:2.931125;stroke-linecap:butt;stroke-linejoin:miter;stroke:rgb(72.941176%,0%,0%);stroke-opacity:1;stroke-miterlimit:4;" d="M 514.950623 348.589084 C 485.768874 322.771472 488.321395 257.829609 510.546272 236.180011 " transform="matrix(0.165691,-0.488735,0.488735,0.165691,-79.416998,386.583959)"/>
<path style=" stroke:none;fill-rule:evenodd;fill:rgb(72.941176%,0%,0%);fill-opacity:1;" d="M 112.703125 173.828125 L 113.238281 168.773438 L 108.851562 166.660156 L 113.566406 165.65625 L 114.09375 160.597656 L 116.472656 165.03125 L 121.1875 164.019531 L 117.941406 167.765625 L 120.328125 172.195312 L 115.945312 170.074219 Z M 112.703125 173.828125 "/>
</g>
</svg>
