<?xml version="1.0" encoding="UTF-8"?>
<svg xmlns="http://www.w3.org/2000/svg" xmlns:xlink="http://www.w3.org/1999/xlink" width="384pt" height="384pt" viewBox="0 0 384 384" version="1.1">
<g id="surface1">
<rect x="0" y="0" width="384" height="384" style="fill:rgb(0%,0%,40%);fill-opacity:1;stroke:none;"/>
<path style=" stroke:none;fill-rule:nonzero;fill:rgb(100%,100%,100%);fill-opacity:1;" d="M 0 0 L 0 14.410156 L 175.507812 128.890625 L 197.597656 128.890625 L 197.597656 114.480469 L 22.089844 0 Z M 197.597656 0 L 197.597656 14.410156 L 22.089844 128.890625 L 0 128.890625 L 0 114.480469 L 175.507812 0 Z M 197.597656 0 "/>
<path style=" stroke:none;fill-rule:nonzero;fill:rgb(100%,100%,100%);fill-opacity:1;" d="M 82.332031 0 L 82.332031 128.890625 L 115.265625 128.890625 L 115.265625 0 Z M 0 42.964844 L 0 85.925781 L 197.597656 85.925781 L 197.597656 42.964844 Z M 0 42.964844 "/>
<path style=" stroke:none;fill-rule:nonzero;fill:rgb(80%,0%,0%);fill-opacity:1;" d="M 0 51.554688 L 0 77.332031 L 197.597656 77.332031 L 197.597656 51.554688 Z M 88.917969 0 L 88.917969 128.890625 L 108.679688 128.890625 L 108.679688 0 Z M 88.917969 0 "/>
<path style=" stroke:none;fill-rule:nonzero;fill:rgb(80%,0%,0%);fill-opacity:1;" d="M 0 128.890625 L 65.867188 85.925781 L 80.59375 85.925781 L 14.726562 128.890625 Z M 0 0 L 65.867188 42.964844 L 51.140625 42.964844 L 0 9.605469 Z M 117.003906 42.964844 L 182.871094 0 L 197.597656 0 L 131.734375 42.964844 Z M 197.597656 128.890625 L 131.734375 85.925781 L 146.460938 85.925781 L 197.597656 119.28125 Z M 197.597656 128.890625 "/>
<path style=" stroke:none;fill-rule:evenodd;fill:rgb(100%,100%,100%);fill-opacity:1;" d="M 51.835938 332.679688 L 39.578125 345.574219 L 42.023438 327.953125 L 24.300781 326.410156 L 39.59375 317.332031 L 29.753906 302.515625 L 46.386719 308.816406 L 51.835938 291.882812 L 57.28125 308.816406 L 73.914062 302.515625 L 64.074219 317.332031 L 79.371094 326.410156 L 61.648438 327.953125 L 64.089844 345.574219 Z M 51.835938 332.679688 "/>
<path style=" stroke:none;fill-rule:evenodd;fill:rgb(100%,100%,100%);fill-opacity:1;" d="M 285.394531 350.113281 L 276.761719 359.191406 L 278.484375 346.789062 L 266.007812 345.703125 L 276.777344 339.308594 L 269.84375 328.878906 L 281.5625 333.3125 L 285.394531 321.390625 L 289.226562 333.3125 L 300.941406 328.878906 L 294.011719 339.308594 L 304.777344 345.703125 L 292.300781 346.789062 L 294.023438 359.191406 Z M 285.394531 350.113281 "/>
<path style=" stroke:none;fill-rule:evenodd;fill:rgb(100%,100%,100%);fill-opacity:1;" d="M 285.394531 164.519531 L 276.761719 173.597656 L 278.484375 161.195312 L 266.007812 160.109375 L 276.777344 153.714844 L 269.84375 143.28125 L 281.5625 147.71875 L 285.394531 135.796875 L 289.226562 147.71875 L 300.941406 143.28125 L 294.011719 153.714844 L 304.777344 160.109375 L 292.300781 161.195312 L 294.023438 173.597656 Z M 285.394531 164.519531 "/>
<path style=" stroke:none;fill-rule:evenodd;fill:rgb(100%,100%,100%);fill-opacity:1;" d="M 215.796875 239.917969 L 207.164062 248.992188 L 208.886719 236.589844 L 196.410156 235.503906 L 207.179688 229.113281 L 200.246094 218.679688 L 211.964844 223.117188 L 215.796875 211.191406 L 219.628906 223.117188 L 231.34375 218.679688 L 224.410156 229.113281 L 235.179688 235.503906 L 222.703125 236.589844 L 224.425781 248.992188 Z M 215.796875 239.917969 "/>
<path style=" stroke:none;fill-rule:evenodd;fill:rgb(100%,100%,100%);fill-opacity:1;" d="M 347.242188 221.359375 L 338.613281 230.433594 L 340.328125 218.03125 L 327.871094 216.945312 L 338.660156 210.550781 L 331.714844 200.121094 L 343.4375 204.558594 L 347.242188 192.632812 L 351.09375 204.558594 L 362.785156 200.121094 L 355.875 210.550781 L 366.636719 216.945312 L 354.15625 218.03125 L 355.875 230.433594 Z M 347.242188 221.359375 "/>
<path style=" stroke:none;fill-rule:evenodd;fill:rgb(100%,100%,100%);fill-opacity:1;" d="M 308.328125 261.667969 L 302.199219 256.496094 L 310.203125 255.90625 L 313.234375 248.480469 L 316.261719 255.90625 L 324.265625 256.496094 L 318.136719 261.667969 L 320.054688 269.460938 L 313.234375 265.234375 L 306.414062 269.460938 Z M 308.328125 261.667969 "/>
</g>
</svg>
