<?xml version="1.0" encoding="UTF-8"?>
<svg xmlns="http://www.w3.org/2000/svg" xmlns:xlink="http://www.w3.org/1999/xlink" width="384pt" height="384pt" viewBox="0 0 384 384" version="1.1">
<g id="surface1">
<path style=" stroke:none;fill-rule:evenodd;fill:rgb(100%,100%,100%);fill-opacity:1;" d="M -186.464844 108.523438 L 562.605469 108.523438 L 562.605469 244.648438 L -186.464844 244.648438 Z M -186.464844 108.523438 "/>
<path style=" stroke:none;fill-rule:evenodd;fill:rgb(0%,24.313725%,62.352941%);fill-opacity:1;" d="M -185.78125 231.808594 L 564.730469 231.808594 L 564.730469 383.992188 L -185.78125 383.992188 Z M -185.78125 231.808594 "/>
<path style=" stroke:none;fill-rule:evenodd;fill:rgb(83.921569%,8.235294%,9.019608%);fill-opacity:1;" d="M -187.5 0 L 564.222656 0 L 564.222656 127.609375 L -187.5 127.609375 Z M -187.5 0 "/>
<path style="fill-rule:evenodd;fill:rgb(100%,100%,100%);fill-opacity:1;stroke-width:4;stroke-linecap:round;stroke-linejoin:miter;stroke:rgb(89.803922%,7.843137%,11.372549%);stroke-opacity:1;stroke-miterlimit:4;" d="M 99.551727 313.173246 C 190.709912 280.12138 291.811306 262.273003 390.608344 262.032558 C 489.405381 261.773618 590.162029 277.56897 689.721137 313.950066 L 763.841596 161.545269 L 711.748612 69.048134 C 711.748612 69.048134 618.812263 107.963146 618.050192 107.963146 C 617.288121 107.963146 552.512102 35.311927 552.512102 35.311927 L 469.337516 86.526597 L 391.243403 25.638661 L 317.776147 85.583315 L 232.006892 35.052986 L 169.462652 110.848479 L 75.673508 69.972921 L 25.485702 161.619252 L 99.533583 313.173246 Z M 99.551727 313.173246 " transform="matrix(0.215285,0,0,0.211197,105.298464,57.987525)"/>
<path style="fill-rule:evenodd;fill:rgb(0%,65.490196%,74.117647%);fill-opacity:1;stroke-width:1.25;stroke-linecap:butt;stroke-linejoin:miter;stroke:rgb(0%,51.764706%,99.215686%);stroke-opacity:1;stroke-miterlimit:4;" d="M 103.352397 305.552483 L 48.053152 156.797586 L 99.632642 73.059452 L 186.452842 111.35988 L 214.811778 267.767231 C 173.364795 277.907013 152.182073 284.72504 103.352397 305.552483 Z M 103.352397 305.552483 " transform="matrix(0.174384,0.123847,-0.126248,0.171075,249.568038,50.130883)"/>
<path style="fill-rule:evenodd;fill:rgb(0%,65.490196%,74.117647%);fill-opacity:1;stroke-width:1.25;stroke-linecap:butt;stroke-linejoin:miter;stroke:rgb(0%,51.764706%,99.215686%);stroke-opacity:1;stroke-miterlimit:4;" d="M 103.498257 305.853105 L 40.118726 160.004098 L 90.285672 81.754652 L 180.276035 113.471971 L 217.47393 268.280026 C 177.289884 279.224608 149.126473 288.605884 103.498257 305.853105 Z M 103.498257 305.853105 " transform="matrix(0.204376,0.0663707,-0.0676545,0.2005,177.035836,43.514337)"/>
<path style="fill-rule:evenodd;fill:rgb(0%,65.490196%,74.117647%);fill-opacity:1;stroke-width:1.25;stroke-linecap:butt;stroke-linejoin:miter;stroke:rgb(0%,51.764706%,99.215686%);stroke-opacity:0.996078;stroke-miterlimit:4;" d="M 103.126202 305.571502 L 35.791803 160.41703 L 80.79027 80.293537 L 174.053221 121.66848 L 213.463169 271.428388 C 170.877926 280.398816 148.324259 287.723124 103.126202 305.571502 Z M 103.126202 305.571502 " transform="matrix(0.215285,0,0,0.211197,105.298464,57.987525)"/>
<path style="fill-rule:evenodd;fill:rgb(100%,100%,100%);fill-opacity:1;stroke-width:1.25;stroke-linecap:butt;stroke-linejoin:miter;stroke:rgb(100%,100%,100%);stroke-opacity:1;stroke-miterlimit:4;" d="M 82.187399 225.189069 C 103.380226 229.55406 118.49463 229.720522 137.491967 224.393752 C 160.208935 214.92394 168.228823 202.161887 175.631797 191.896758 C 179.061115 213.573752 175.468496 233.197719 149.539944 247.051019 C 126.24235 258.00049 94.852291 251.120079 82.187399 225.189069 Z M 82.187399 225.189069 " transform="matrix(0.215285,0,0,0.211197,105.298464,57.987525)"/>
<path style="fill-rule:evenodd;fill:rgb(98.039216%,96.862745%,1.176471%);fill-opacity:0.996078;stroke-width:1.25;stroke-linecap:butt;stroke-linejoin:miter;stroke:rgb(32.941176%,29.411765%,12.54902%);stroke-opacity:0.996078;stroke-miterlimit:4;" d="M 410.948376 120.558736 L 406.883999 121.576001 L 407.029155 129.066771 L 402.039406 130.176515 L 398.537509 136.77949 L 400.69671 138.832515 C 400.805577 139.054464 398.991123 143.715387 399.063701 143.715387 C 399.154423 143.715387 400.388252 145.490977 400.388252 145.490977 L 401.712804 149.541542 L 405.087689 150.003935 L 405.940483 154.775833 L 411.256834 155.645132 L 416.174005 159.15932 L 416.482462 161.341816 L 422.10727 161.489782 L 425.935769 162.747491 L 439.290153 161.19385 L 441.104607 158.364004 L 441.249763 154.553884 L 448.435003 154.31344 L 449.088206 148.209849 L 452.89856 148.209849 L 452.426802 141.329439 L 455.602097 141.606875 L 454.785593 138.314635 L 452.807837 135.632754 L 452.426802 131.415728 L 446.801994 125.793027 L 445.55002 118.450223 C 445.55002 118.450223 441.957401 116.804103 441.957401 116.730121 C 441.957401 116.656138 441.721522 111.810257 441.721522 111.810257 L 445.785899 106.113573 L 445.386719 103.838598 L 441.648943 103.764615 L 438.836539 106.113573 C 438.836539 106.113573 435.080619 106.501983 435.080619 106.575966 L 435.080619 108.296069 C 435.080619 108.296069 436.024135 111.49583 436.024135 111.569813 C 436.024135 111.662291 431.723878 111.569813 431.723878 111.569813 L 431.560577 106.501983 L 425.464011 103.450188 C 425.464011 103.450188 419.766624 107.352787 419.766624 107.426769 C 419.766624 107.519248 419.458167 111.958223 419.458167 111.958223 L 416.718341 112.753539 L 413.905937 108.536513 L 408.988766 106.649949 L 406.321518 106.501983 L 406.24894 109.775727 L 411.40199 116.582155 Z M 410.948376 120.558736 " transform="matrix(0.215285,0,0,0.211197,105.298464,57.987525)"/>
<path style="fill:none;stroke-width:1.25;stroke-linecap:butt;stroke-linejoin:miter;stroke:rgb(32.941176%,29.411765%,12.54902%);stroke-opacity:1;stroke-miterlimit:4;" d="M 449.233362 148.043388 L 448.126545 143.955832 " transform="matrix(0.215285,0,0,0.211197,105.298464,57.987525)"/>
<path style="fill:none;stroke-width:1.25;stroke-linecap:butt;stroke-linejoin:miter;stroke:rgb(32.941176%,29.411765%,12.54902%);stroke-opacity:1;stroke-miterlimit:4;" d="M 452.336079 141.292447 L 450.449047 138.536584 " transform="matrix(0.215285,0,0,0.211197,105.298464,57.987525)"/>
<path style="fill-rule:evenodd;fill:rgb(32.941176%,29.411765%,12.54902%);fill-opacity:1;stroke-width:1.25;stroke-linecap:butt;stroke-linejoin:miter;stroke:rgb(32.941176%,29.411765%,12.941176%);stroke-opacity:1;stroke-miterlimit:4;" d="M 400.841866 138.203661 L 406.702553 137.870737 L 407.80937 143.179011 L 409.787126 144.954601 L 410.113727 154.664858 L 412.00076 155.441679 L 412.545096 151.576072 L 417.081232 151.243149 L 417.970315 159.085337 L 416.863498 160.084107 L 417.298967 161.304825 L 422.724185 161.19385 C 422.724185 161.19385 423.939869 159.085337 424.048737 159.085337 C 424.157604 159.085337 427.133309 158.752414 427.133309 158.863389 C 427.133309 158.974363 428.348993 161.19385 428.348993 161.19385 L 429.238076 158.216038 C 429.238076 158.216038 432.104914 156.99532 432.104914 157.106294 C 432.104914 157.217269 434.427415 160.860927 434.427415 160.860927 L 438.40107 160.306055 L 435.969701 157.994089 L 434.971752 152.907764 L 440.505837 149.929952 L 442.719471 153.684585 C 442.719471 153.684585 444.806094 153.795559 444.697227 153.684585 C 444.588359 153.57361 442.265858 149.37508 442.265858 149.37508 L 442.265858 140.534122 L 446.475392 134.781951 L 452.317935 134.116105 L 452.317935 131.693164 L 446.475392 126.273916 L 444.914961 118.764651 L 441.612654 117.100035 L 440.723572 118.098804 L 437.076519 118.431728 L 440.723572 123.850976 L 440.723572 127.38366 L 442.374725 128.271455 L 442.048123 137.981712 C 442.048123 137.981712 437.965601 138.536584 437.965601 138.647558 C 437.965601 138.758532 437.638999 144.066806 437.638999 144.066806 L 435.098763 146.600721 C 435.098763 146.600721 433.6472 151.687046 433.538333 151.687046 C 433.429465 151.687046 431.106964 154.775833 431.106964 154.775833 L 426.588973 154.886807 C 426.588973 154.886807 423.939869 152.352892 423.939869 152.241918 C 423.939869 152.130944 423.486256 148.487285 423.486256 148.487285 C 423.486256 148.487285 421.726235 147.932413 421.617368 147.932413 C 421.508501 147.932413 420.619418 143.844858 420.619418 143.844858 L 417.516701 142.069268 L 417.298967 139.646327 L 414.323261 138.314635 C 414.323261 138.314635 413.99666 136.113643 413.869648 136.002669 C 413.760781 135.891695 412.436229 135.0039 412.327362 135.0039 C 412.218494 135.0039 412.218494 128.937301 412.218494 128.937301 L 414.867598 128.493403 L 413.379745 126.551352 L 412.889843 124.849745 L 412.889843 123.074155 L 415.085332 120.854668 C 415.085332 120.854668 411.111677 120.318292 411.111677 120.429266 C 411.111677 120.540241 407.24689 122.18636 407.24689 122.075386 C 407.355757 122.075386 407.138022 129.251728 407.138022 129.251728 L 402.601887 130.694395 L 398.954833 136.557541 Z M 400.841866 138.203661 " transform="matrix(0.215285,0,0,0.211197,105.298464,57.987525)"/>
<path style="fill-rule:evenodd;fill:rgb(32.941176%,29.411765%,12.54902%);fill-opacity:1;stroke-width:1.25;stroke-linecap:butt;stroke-linejoin:miter;stroke:rgb(32.941176%,29.411765%,12.54902%);stroke-opacity:1;stroke-miterlimit:4;" d="M 423.70399 148.043388 L 426.69784 146.267798 L 426.588973 142.846088 L 423.70399 142.180242 L 422.597173 141.070498 L 425.808757 141.62537 L 429.782412 141.292447 L 431.106964 140.645097 C 430.562628 142.069268 430.109014 141.958293 430.000147 141.958293 C 429.891279 141.958293 427.804657 143.068037 427.804657 143.068037 L 427.913524 146.378772 C 427.913524 146.378772 434.754017 147.266567 434.64515 147.266567 C 434.536283 147.266567 434.64515 148.59826 434.427415 148.59826 C 434.209681 148.59826 427.351043 147.044618 427.351043 147.044618 L 423.050787 149.689508 Z M 423.70399 148.043388 " transform="matrix(0.215285,0,0,0.211197,105.298464,57.987525)"/>
<path style="fill-rule:evenodd;fill:rgb(32.941176%,29.411765%,12.54902%);fill-opacity:1;stroke-width:1.25;stroke-linecap:butt;stroke-linejoin:miter;stroke:rgb(32.941176%,29.411765%,12.54902%);stroke-opacity:1;stroke-miterlimit:4;" d="M 440.941306 127.494634 L 436.967651 130.583421 L 434.427415 135.114874 L 433.102864 135.336823 L 429.238076 130.139523 L 424.828952 130.250498 C 424.828952 130.250498 422.397583 136.335592 422.397583 136.446566 C 422.397583 136.557541 420.619418 136.224618 420.619418 136.224618 L 415.974415 131.138293 C 415.974415 131.138293 414.540996 128.585882 414.758731 128.585882 C 414.99461 128.585882 426.371238 128.696856 426.371238 128.696856 L 426.262371 123.18513 C 426.262371 123.18513 424.484206 122.630258 423.595123 122.075386 C 424.266471 121.853437 429.909424 121.853437 429.909424 121.853437 L 427.478055 123.518053 L 427.478055 128.271455 L 437.530132 128.363933 Z M 440.941306 127.494634 " transform="matrix(0.215285,0,0,0.211197,105.298464,57.987525)"/>
<path style=" stroke:none;fill-rule:evenodd;fill:rgb(47.45098%,41.568627%,22.745098%);fill-opacity:0.996078;" d="M 195.898438 85.472656 C 196.054688 85.472656 196.183594 85.597656 196.183594 85.753906 C 196.183594 85.90625 196.054688 86.03125 195.898438 86.03125 C 195.742188 86.03125 195.613281 85.90625 195.613281 85.753906 C 195.613281 85.597656 195.742188 85.472656 195.898438 85.472656 Z M 195.898438 85.472656 "/>
<path style=" stroke:none;fill-rule:evenodd;fill:rgb(47.843137%,41.960784%,22.745098%);fill-opacity:1;" d="M 198.609375 85.355469 C 198.769531 85.355469 198.894531 85.480469 198.894531 85.636719 C 198.894531 85.792969 198.769531 85.917969 198.609375 85.917969 C 198.453125 85.917969 198.324219 85.792969 198.324219 85.636719 C 198.324219 85.480469 198.453125 85.355469 198.609375 85.355469 Z M 198.609375 85.355469 "/>
<path style="fill:none;stroke-width:1.25;stroke-linecap:butt;stroke-linejoin:miter;stroke:rgb(32.941176%,29.411765%,12.54902%);stroke-opacity:1;stroke-miterlimit:4;" d="M 413.543046 121.298565 C 417.75258 119.596958 420.728285 118.24677 425.917625 117.765881 C 430.816651 117.248001 434.608861 117.950839 438.963551 118.764651 " transform="matrix(0.215285,0,0,0.211197,105.298464,57.987525)"/>
<path style="fill-rule:evenodd;fill:rgb(32.941176%,29.411765%,12.54902%);fill-opacity:1;stroke-width:1.25;stroke-linecap:butt;stroke-linejoin:miter;stroke:rgb(32.941176%,29.411765%,12.54902%);stroke-opacity:1;stroke-miterlimit:4;" d="M 415.865548 112.346633 L 412.436229 112.346633 L 407.591636 107.149334 L 410.349607 107.482257 L 413.543046 108.924923 Z M 415.865548 112.346633 " transform="matrix(0.215285,0,0,0.211197,105.298464,57.987525)"/>
<path style="fill-rule:evenodd;fill:rgb(32.941176%,29.411765%,12.54902%);fill-opacity:1;stroke-width:1.25;stroke-linecap:butt;stroke-linejoin:miter;stroke:rgb(32.941176%,29.411765%,12.54902%);stroke-opacity:1;stroke-miterlimit:4;" d="M 436.532182 110.36759 L 444.261758 104.39347 L 441.721522 104.060547 L 438.854684 106.705436 L 435.425365 107.260308 Z M 436.532182 110.36759 " transform="matrix(0.215285,0,0,0.211197,105.298464,57.987525)"/>
<path style="fill-rule:evenodd;fill:rgb(32.941176%,29.411765%,12.54902%);fill-opacity:1;stroke-width:1.25;stroke-linecap:butt;stroke-linejoin:miter;stroke:rgb(32.941176%,29.411765%,12.54902%);stroke-opacity:1;stroke-miterlimit:4;" d="M 431.977902 111.458838 L 419.839203 111.902736 L 419.94807 110.589539 L 424.375338 110.145641 L 424.937819 108.370052 C 424.937819 108.370052 426.262371 108.259077 426.262371 108.370052 C 426.262371 108.481026 427.242176 110.034667 427.242176 110.034667 L 431.560577 110.811488 Z M 431.977902 111.458838 " transform="matrix(0.215285,0,0,0.211197,105.298464,57.987525)"/>
<path style="fill-rule:evenodd;fill:rgb(32.941176%,29.411765%,12.54902%);fill-opacity:1;stroke-width:1.25;stroke-linecap:butt;stroke-linejoin:miter;stroke:rgb(32.941176%,29.411765%,12.54902%);stroke-opacity:1;stroke-miterlimit:4;" d="M 431.342843 106.834906 L 427.133309 106.945881 L 426.806707 104.615419 Z M 431.342843 106.834906 " transform="matrix(0.215285,0,0,0.211197,105.298464,57.987525)"/>
<path style="fill-rule:evenodd;fill:rgb(32.941176%,29.411765%,12.54902%);fill-opacity:1;stroke-width:1.25;stroke-linecap:butt;stroke-linejoin:miter;stroke:rgb(32.941176%,29.411765%,12.54902%);stroke-opacity:1;stroke-miterlimit:4;" d="M 424.266471 104.726393 L 423.921725 107.056855 L 419.839203 107.704205 Z M 424.266471 104.726393 " transform="matrix(0.215285,0,0,0.211197,105.298464,57.987525)"/>
<path style="fill-rule:evenodd;fill:rgb(32.941176%,29.411765%,12.54902%);fill-opacity:1;stroke-width:1.25;stroke-linecap:butt;stroke-linejoin:miter;stroke:rgb(32.941176%,29.411765%,12.54902%);stroke-opacity:1;stroke-miterlimit:4;" d="M 401.0596 147.044618 L 403.164367 141.736345 L 401.277335 138.092686 L 399.408447 143.511934 Z M 401.0596 147.044618 " transform="matrix(0.215285,0,0,0.211197,105.298464,57.987525)"/>
<path style="fill-rule:evenodd;fill:rgb(32.941176%,29.411765%,12.54902%);fill-opacity:1;stroke-width:1.25;stroke-linecap:butt;stroke-linejoin:miter;stroke:rgb(32.941176%,29.411765%,12.54902%);stroke-opacity:1;stroke-miterlimit:4;" d="M 405.36146 149.801016 L 407.91984 143.512469 L 403.057103 148.598794 Z M 405.36146 149.801016 " transform="matrix(0.215285,0,0,0.211197,105.274681,58.010849)"/>
<path style="fill-rule:evenodd;fill:rgb(98.039216%,96.862745%,1.176471%);fill-opacity:0.996078;stroke-width:1.25;stroke-linecap:butt;stroke-linejoin:miter;stroke:rgb(32.941176%,29.411765%,12.54902%);stroke-opacity:0.996078;stroke-miterlimit:4;" d="M 410.944614 120.551587 L 406.880236 121.568852 L 407.025393 129.078117 L 402.035643 130.169365 L 398.533746 136.790836 L 400.692947 138.825366 C 400.801814 139.047314 398.98736 143.726733 399.078083 143.726733 C 399.150661 143.726733 400.38449 145.483828 400.38449 145.483828 L 401.727186 149.552888 L 405.083927 150.015281 L 405.93672 154.787179 L 411.253071 155.637982 L 416.170242 159.152171 L 416.4787 161.334666 L 422.103508 161.501128 L 425.932007 162.740342 L 439.304535 161.186701 L 441.100845 158.37535 L 441.246001 154.546734 L 448.43124 154.30629 L 449.102588 148.2027 L 452.912942 148.2027 L 452.42304 141.322289 L 455.616479 141.618221 L 454.78183 138.325981 L 452.82222 135.6441 L 452.42304 131.427074 L 446.798231 125.785877 L 445.546258 118.443074 C 445.546258 118.443074 441.953638 116.815449 441.953638 116.722971 C 441.953638 116.648988 441.717759 111.803107 441.717759 111.803107 L 445.782137 106.106423 L 445.401101 103.849944 L 441.645181 103.757466 L 438.832777 106.106423 C 438.832777 106.106423 435.076856 106.494833 435.076856 106.568816 L 435.076856 108.288919 C 435.076856 108.288919 436.020373 111.507176 436.020373 111.581159 C 436.020373 111.655141 431.720116 111.581159 431.720116 111.581159 L 431.556815 106.494833 L 425.478393 103.443038 C 425.478393 103.443038 419.762862 107.364133 419.762862 107.438115 C 419.762862 107.512098 419.454405 111.969569 419.454405 111.969569 L 416.714579 112.746389 L 413.902175 108.529363 L 408.985003 106.661295 L 406.3359 106.494833 L 406.245177 109.787073 L 411.416372 116.575005 Z M 410.944614 120.551587 " transform="matrix(0.215285,0,0,0.211197,90.861774,58.453878)"/>
<path style="fill:none;stroke-width:1.25;stroke-linecap:butt;stroke-linejoin:miter;stroke:rgb(32.941176%,29.411765%,12.54902%);stroke-opacity:1;stroke-miterlimit:4;" d="M 449.2296 148.036238 L 448.122783 143.948682 " transform="matrix(0.215285,0,0,0.211197,90.861774,58.453878)"/>
<path style="fill:none;stroke-width:1.25;stroke-linecap:butt;stroke-linejoin:miter;stroke:rgb(32.941176%,29.411765%,12.54902%);stroke-opacity:1;stroke-miterlimit:4;" d="M 452.332317 141.303793 L 450.445284 138.529434 " transform="matrix(0.215285,0,0,0.211197,90.861774,58.453878)"/>
<path style="fill-rule:evenodd;fill:rgb(32.941176%,29.411765%,12.54902%);fill-opacity:1;stroke-width:1.25;stroke-linecap:butt;stroke-linejoin:miter;stroke:rgb(32.941176%,29.411765%,12.941176%);stroke-opacity:1;stroke-miterlimit:4;" d="M 400.838103 138.215007 L 406.698791 137.882084 L 407.805608 143.171862 L 409.783363 144.947452 L 410.12811 154.676204 L 411.996997 155.453025 L 412.559478 151.568922 L 417.07747 151.254495 L 417.966552 159.096683 L 416.859735 160.076957 L 417.295204 161.297675 L 422.720422 161.186701 C 422.720422 161.186701 423.936107 159.096683 424.044974 159.096683 C 424.153841 159.096683 427.129546 158.76376 427.129546 158.874735 C 427.129546 158.985709 428.345231 161.186701 428.345231 161.186701 L 429.234313 158.208888 C 429.234313 158.208888 432.101151 156.98817 432.101151 157.099145 C 432.101151 157.210119 434.423653 160.853777 434.423653 160.853777 L 438.397308 160.298906 L 435.965939 157.98694 L 434.986134 152.900615 L 440.502075 149.922802 L 442.715709 153.677435 C 442.715709 153.677435 444.820476 153.788409 444.711609 153.677435 C 444.584597 153.566461 442.28024 149.36793 442.28024 149.36793 L 442.28024 140.526973 L 446.471629 134.793297 L 452.332317 134.127451 L 452.332317 131.686015 L 446.471629 126.285262 L 444.929343 118.757501 L 441.608892 117.111381 L 440.719809 118.11015 L 437.072756 118.424578 L 440.719809 123.843826 L 440.719809 127.37651 L 442.389107 128.264305 L 442.044361 137.993058 C 442.044361 137.993058 437.961839 138.54793 437.961839 138.658904 C 437.961839 138.769878 437.635237 144.059657 437.635237 144.059657 L 435.095001 146.612067 C 435.095001 146.612067 433.661582 151.679896 433.552715 151.679896 C 433.425703 151.679896 431.121346 154.787179 431.121346 154.787179 L 426.58521 154.898153 C 426.58521 154.898153 423.936107 152.345743 423.936107 152.234768 C 423.936107 152.123794 423.482493 148.480136 423.482493 148.480136 C 423.482493 148.480136 421.722473 147.925264 421.613605 147.925264 C 421.504738 147.925264 420.615655 143.837708 420.615655 143.837708 L 417.531083 142.080614 L 417.295204 139.639178 L 414.319499 138.325981 C 414.319499 138.325981 413.992897 136.106494 413.88403 135.995519 C 413.775163 135.884545 412.432467 135.015246 412.323599 135.015246 C 412.214732 135.015246 412.214732 128.930151 412.214732 128.930151 L 414.863835 128.486254 L 413.394127 126.544202 L 412.88608 124.842595 L 412.88608 123.067006 L 415.099714 120.866014 C 415.099714 120.866014 411.107915 120.311142 411.107915 120.422116 C 411.107915 120.533091 407.243127 122.197706 407.243127 122.086732 C 407.351994 122.086732 407.13426 129.263074 407.13426 129.263074 L 402.616269 130.705741 L 398.969216 136.550391 Z M 400.838103 138.215007 " transform="matrix(0.215285,0,0,0.211197,90.861774,58.453878)"/>
<path style="fill-rule:evenodd;fill:rgb(32.941176%,29.411765%,12.54902%);fill-opacity:1;stroke-width:1.25;stroke-linecap:butt;stroke-linejoin:miter;stroke:rgb(32.941176%,29.411765%,12.54902%);stroke-opacity:1;stroke-miterlimit:4;" d="M 423.718372 148.036238 L 426.694077 146.279144 L 426.58521 142.838939 L 423.718372 142.191588 L 422.611555 141.081844 L 425.804995 141.636716 L 429.77865 141.303793 L 431.103201 140.637947 C 430.558865 142.080614 430.123396 141.969639 430.014529 141.969639 C 429.905662 141.969639 427.800895 143.060887 427.800895 143.060887 L 427.909762 146.390118 C 427.909762 146.390118 434.750255 147.259418 434.641387 147.259418 C 434.53252 147.259418 434.641387 148.59111 434.423653 148.59111 C 434.205918 148.59111 427.347281 147.037469 427.347281 147.037469 L 423.047024 149.700854 Z M 423.718372 148.036238 " transform="matrix(0.215285,0,0,0.211197,90.861774,58.453878)"/>
<path style="fill-rule:evenodd;fill:rgb(32.941176%,29.411765%,12.54902%);fill-opacity:1;stroke-width:1.25;stroke-linecap:butt;stroke-linejoin:miter;stroke:rgb(32.941176%,29.411765%,12.54902%);stroke-opacity:1;stroke-miterlimit:4;" d="M 440.955688 127.487484 L 436.982033 130.576271 L 434.423653 135.107724 L 433.099101 135.329673 L 429.234313 130.132374 L 424.825189 130.243348 C 424.825189 130.243348 422.393821 136.328442 422.393821 136.439417 C 422.393821 136.550391 420.615655 136.217468 420.615655 136.217468 L 415.988797 131.131143 C 415.988797 131.131143 414.537234 128.597228 414.773113 128.597228 C 414.990847 128.597228 426.367476 128.708202 426.367476 128.708202 L 426.258608 123.17798 C 426.258608 123.17798 424.480443 122.623108 423.609505 122.068236 C 424.262709 121.846287 429.905662 121.846287 429.905662 121.846287 L 427.474293 123.510903 L 427.474293 128.264305 L 437.52637 128.375279 Z M 440.955688 127.487484 " transform="matrix(0.215285,0,0,0.211197,90.861774,58.453878)"/>
<path style=" stroke:none;fill-rule:evenodd;fill:rgb(47.45098%,41.568627%,22.745098%);fill-opacity:0.996078;" d="M 181.460938 85.9375 C 181.617188 85.9375 181.746094 86.066406 181.746094 86.21875 C 181.746094 86.375 181.617188 86.5 181.460938 86.5 C 181.304688 86.5 181.175781 86.375 181.175781 86.21875 C 181.175781 86.066406 181.304688 85.9375 181.460938 85.9375 Z M 181.460938 85.9375 "/>
<path style=" stroke:none;fill-rule:evenodd;fill:rgb(47.843137%,41.960784%,22.745098%);fill-opacity:1;" d="M 184.175781 85.824219 C 184.332031 85.824219 184.460938 85.949219 184.460938 86.101562 C 184.460938 86.257812 184.332031 86.382812 184.175781 86.382812 C 184.015625 86.382812 183.886719 86.257812 183.886719 86.101562 C 183.886719 85.949219 184.015625 85.824219 184.175781 85.824219 Z M 184.175781 85.824219 "/>
<path style="fill:none;stroke-width:1.25;stroke-linecap:butt;stroke-linejoin:miter;stroke:rgb(32.941176%,29.411765%,12.54902%);stroke-opacity:1;stroke-miterlimit:4;" d="M 413.557428 121.291416 C 417.748818 119.608304 420.724523 118.239621 425.932007 117.758732 C 430.831033 117.240851 434.623243 117.943689 438.959789 118.757501 " transform="matrix(0.215285,0,0,0.211197,90.861774,58.453878)"/>
<path style="fill-rule:evenodd;fill:rgb(32.941176%,29.411765%,12.54902%);fill-opacity:1;stroke-width:1.25;stroke-linecap:butt;stroke-linejoin:miter;stroke:rgb(32.941176%,29.411765%,12.54902%);stroke-opacity:1;stroke-miterlimit:4;" d="M 415.861785 112.357979 L 412.450611 112.357979 L 407.587874 107.16068 L 410.345844 107.493603 L 413.557428 108.917774 Z M 415.861785 112.357979 " transform="matrix(0.215285,0,0,0.211197,90.861774,58.453878)"/>
<path style="fill-rule:evenodd;fill:rgb(32.941176%,29.411765%,12.54902%);fill-opacity:1;stroke-width:1.25;stroke-linecap:butt;stroke-linejoin:miter;stroke:rgb(32.941176%,29.411765%,12.54902%);stroke-opacity:1;stroke-miterlimit:4;" d="M 436.52842 110.36044 L 444.257995 104.38632 L 441.717759 104.071893 L 438.850921 106.716782 L 435.421603 107.271654 Z M 436.52842 110.36044 " transform="matrix(0.215285,0,0,0.211197,90.861774,58.453878)"/>
<path style="fill-rule:evenodd;fill:rgb(32.941176%,29.411765%,12.54902%);fill-opacity:1;stroke-width:1.25;stroke-linecap:butt;stroke-linejoin:miter;stroke:rgb(32.941176%,29.411765%,12.54902%);stroke-opacity:1;stroke-miterlimit:4;" d="M 431.974139 111.451688 L 419.853585 111.914082 L 419.962452 110.582389 L 424.371576 110.138492 L 424.934057 108.381398 C 424.934057 108.381398 426.258608 108.270423 426.258608 108.381398 C 426.258608 108.492372 427.256558 110.027517 427.256558 110.027517 L 431.556815 110.804338 Z M 431.974139 111.451688 " transform="matrix(0.215285,0,0,0.211197,90.861774,58.453878)"/>
<path style="fill-rule:evenodd;fill:rgb(32.941176%,29.411765%,12.54902%);fill-opacity:1;stroke-width:1.25;stroke-linecap:butt;stroke-linejoin:miter;stroke:rgb(32.941176%,29.411765%,12.54902%);stroke-opacity:1;stroke-miterlimit:4;" d="M 431.33908 106.827756 L 427.147691 106.938731 L 426.802945 104.626765 Z M 431.33908 106.827756 " transform="matrix(0.215285,0,0,0.211197,90.861774,58.453878)"/>
<path style="fill-rule:evenodd;fill:rgb(32.941176%,29.411765%,12.54902%);fill-opacity:1;stroke-width:1.25;stroke-linecap:butt;stroke-linejoin:miter;stroke:rgb(32.941176%,29.411765%,12.54902%);stroke-opacity:1;stroke-miterlimit:4;" d="M 424.262709 104.737739 L 423.936107 107.049705 L 419.83544 107.715551 Z M 424.262709 104.737739 " transform="matrix(0.215285,0,0,0.211197,90.861774,58.453878)"/>
<path style="fill-rule:evenodd;fill:rgb(32.941176%,29.411765%,12.54902%);fill-opacity:1;stroke-width:1.25;stroke-linecap:butt;stroke-linejoin:miter;stroke:rgb(32.941176%,29.411765%,12.54902%);stroke-opacity:1;stroke-miterlimit:4;" d="M 401.055838 147.037469 L 403.160605 141.729195 L 401.273573 138.085537 L 399.404685 143.504785 Z M 401.055838 147.037469 " transform="matrix(0.215285,0,0,0.211197,90.861774,58.453878)"/>
<path style="fill-rule:evenodd;fill:rgb(32.941176%,29.411765%,12.54902%);fill-opacity:1;stroke-width:1.25;stroke-linecap:butt;stroke-linejoin:miter;stroke:rgb(32.941176%,29.411765%,12.54902%);stroke-opacity:1;stroke-miterlimit:4;" d="M 405.375842 149.812362 L 407.916078 143.505319 L 403.05334 148.591644 Z M 405.375842 149.812362 " transform="matrix(0.215285,0,0,0.211197,90.837991,58.477203)"/>
<path style="fill-rule:evenodd;fill:rgb(0%,6.27451%,43.921569%);fill-opacity:1;stroke-width:1.25;stroke-linecap:butt;stroke-linejoin:miter;stroke:rgb(0%,6.27451%,44.313725%);stroke-opacity:0.996078;stroke-miterlimit:4;" d="M 103.357687 305.552031 L 45.275214 157.106867 L 97.955573 77.247962 L 186.305231 112.317132 L 215.709393 268.398424 C 174.947013 278.887503 152.230303 285.981832 103.357687 305.552031 Z M 103.357687 305.552031 " transform="matrix(0.193176,0.0932302,-0.0950307,0.18951,212.640931,44.150201)"/>
<path style="fill-rule:evenodd;fill:rgb(98.039216%,96.862745%,1.176471%);fill-opacity:0.996078;stroke-width:1.25;stroke-linecap:butt;stroke-linejoin:miter;stroke:rgb(32.941176%,29.411765%,12.54902%);stroke-opacity:0.996078;stroke-miterlimit:4;" d="M 410.937105 120.561059 L 406.872728 121.578324 L 407.036029 129.069094 L 402.028135 130.178838 L 398.544382 136.781812 L 400.703583 138.834838 C 400.81245 139.056787 398.997996 143.71771 399.070574 143.71771 C 399.143152 143.71771 400.395126 145.474805 400.395126 145.474805 L 401.719677 149.543865 L 405.076418 150.006258 L 405.947356 154.778156 L 411.245563 155.628959 L 416.180878 159.161643 L 416.489336 161.344139 L 422.114144 161.492105 L 425.942643 162.749814 L 439.297026 161.177678 L 441.093336 158.366327 L 441.256637 154.537711 L 448.441876 154.315762 L 449.09508 148.212172 L 452.905434 148.212172 L 452.433675 141.331762 L 455.608971 141.609197 L 454.792466 138.316958 L 452.814711 135.635077 L 452.415531 131.418051 L 446.790723 125.79535 L 445.556894 118.452546 C 445.556894 118.452546 441.94613 116.806426 441.94613 116.732444 C 441.94613 116.658461 441.728395 111.81258 441.728395 111.81258 L 445.774628 106.115896 L 445.393593 103.840921 L 441.637672 103.766938 L 438.825268 106.115896 C 438.825268 106.115896 435.087492 106.504306 435.087492 106.578289 L 435.087492 108.298392 C 435.087492 108.298392 436.012864 111.498153 436.012864 111.572135 C 436.012864 111.646118 431.712607 111.572135 431.712607 111.572135 L 431.567451 106.504306 L 425.470884 103.452511 C 425.470884 103.452511 419.773498 107.355109 419.773498 107.429092 C 419.773498 107.521571 419.446896 111.960546 419.446896 111.960546 L 416.725215 112.755862 L 413.91281 108.52034 L 408.977495 106.652272 L 406.328391 106.504306 L 406.255813 109.77805 L 411.408863 116.584478 Z M 410.937105 120.561059 " transform="matrix(0.215285,0,0,0.211197,98.347765,70.987034)"/>
<path style="fill:none;stroke-width:1.25;stroke-linecap:butt;stroke-linejoin:miter;stroke:rgb(32.941176%,29.411765%,12.54902%);stroke-opacity:1;stroke-miterlimit:4;" d="M 449.222091 148.045711 L 448.133419 143.958155 " transform="matrix(0.215285,0,0,0.211197,98.347765,70.987034)"/>
<path style="fill:none;stroke-width:1.25;stroke-linecap:butt;stroke-linejoin:miter;stroke:rgb(32.941176%,29.411765%,12.54902%);stroke-opacity:1;stroke-miterlimit:4;" d="M 452.324808 141.29477 L 450.45592 138.538907 " transform="matrix(0.215285,0,0,0.211197,98.347765,70.987034)"/>
<path style="fill-rule:evenodd;fill:rgb(32.941176%,29.411765%,12.54902%);fill-opacity:1;stroke-width:1.25;stroke-linecap:butt;stroke-linejoin:miter;stroke:rgb(32.941176%,29.411765%,12.941176%);stroke-opacity:1;stroke-miterlimit:4;" d="M 400.848739 138.205984 L 406.691282 137.87306 L 407.798099 143.181334 L 409.793999 144.956924 L 410.120601 154.667181 L 412.007633 155.444002 L 412.55197 151.578395 L 417.088105 151.245472 L 417.959044 159.08766 L 416.852226 160.08643 L 417.30584 161.307148 L 422.712914 161.196173 C 422.712914 161.196173 423.928598 159.08766 424.037465 159.08766 C 424.146333 159.08766 427.140182 158.754737 427.140182 158.865712 C 427.140182 158.976686 428.355867 161.196173 428.355867 161.196173 L 429.226805 158.199865 C 429.226805 158.199865 432.111787 156.997643 432.111787 157.108617 C 432.111787 157.219592 434.434289 160.86325 434.434289 160.86325 L 438.407944 160.308378 L 435.976575 157.977917 L 434.978625 152.910087 L 440.512711 149.913779 L 442.7082 153.686908 C 442.7082 153.686908 444.812967 153.779386 444.7041 153.686908 C 444.595233 153.575933 442.272731 149.377403 442.272731 149.377403 L 442.272731 140.536445 L 446.464121 134.784274 L 452.324808 134.118428 L 452.324808 131.695487 L 446.464121 126.276239 L 444.921835 118.766974 L 441.601383 117.102358 L 440.730445 118.101127 L 437.083392 118.43405 L 440.730445 123.853299 L 440.730445 127.385983 L 442.381599 128.273778 L 442.054997 137.984035 C 442.054997 137.984035 437.95433 138.538907 437.95433 138.649881 C 437.95433 138.760855 437.627728 144.069129 437.627728 144.069129 L 435.087492 146.603044 C 435.087492 146.603044 433.654073 151.689369 433.545206 151.689369 C 433.436339 151.689369 431.113837 154.778156 431.113837 154.778156 L 426.577702 154.88913 C 426.577702 154.88913 423.928598 152.355215 423.928598 152.244241 C 423.928598 152.133267 423.493129 148.489608 423.493129 148.489608 C 423.493129 148.489608 421.714964 147.934736 421.606097 147.934736 C 421.497229 147.934736 420.608147 143.847181 420.608147 143.847181 L 417.523575 142.071591 L 417.30584 139.64865 L 414.31199 138.316958 C 414.31199 138.316958 413.985389 136.115966 413.876521 136.004992 C 413.767654 135.894018 412.443102 135.006223 412.334235 135.006223 C 412.225368 135.006223 412.225368 128.921128 412.225368 128.921128 L 414.874471 128.495726 L 413.386619 126.553675 L 412.878571 124.833572 L 412.878571 123.076478 L 415.092206 120.856991 C 415.092206 120.856991 411.118551 120.302119 411.118551 120.413093 C 411.118551 120.524068 407.253763 122.188683 407.253763 122.077709 C 407.36263 122.077709 407.144896 129.254051 407.144896 129.254051 L 402.60876 130.696718 L 398.961707 136.559864 Z M 400.848739 138.205984 " transform="matrix(0.215285,0,0,0.211197,98.347765,70.987034)"/>
<path style="fill-rule:evenodd;fill:rgb(32.941176%,29.411765%,12.54902%);fill-opacity:1;stroke-width:1.25;stroke-linecap:butt;stroke-linejoin:miter;stroke:rgb(32.941176%,29.411765%,12.54902%);stroke-opacity:1;stroke-miterlimit:4;" d="M 423.710864 148.045711 L 426.686569 146.270121 L 426.577702 142.848411 L 423.710864 142.182565 L 422.604047 141.072821 L 425.815631 141.627693 L 429.789286 141.29477 L 431.113837 140.628924 C 430.551356 142.071591 430.115887 141.960616 430.00702 141.960616 C 429.898153 141.960616 427.793386 143.07036 427.793386 143.07036 L 427.902253 146.381095 C 427.902253 146.381095 434.76089 147.26889 434.652023 147.26889 C 434.543156 147.26889 434.652023 148.600583 434.434289 148.600583 C 434.19841 148.600583 427.357917 147.046941 427.357917 147.046941 L 423.039516 149.691831 Z M 423.710864 148.045711 " transform="matrix(0.215285,0,0,0.211197,98.347765,70.987034)"/>
<path style="fill-rule:evenodd;fill:rgb(32.941176%,29.411765%,12.54902%);fill-opacity:1;stroke-width:1.25;stroke-linecap:butt;stroke-linejoin:miter;stroke:rgb(32.941176%,29.411765%,12.54902%);stroke-opacity:1;stroke-miterlimit:4;" d="M 440.94818 127.496957 L 436.974525 130.585744 L 434.434289 135.117197 L 433.109737 135.339146 L 429.244949 130.141846 L 424.817681 130.252821 C 424.817681 130.252821 422.386312 136.319419 422.386312 136.430394 C 422.386312 136.541368 420.626291 136.226941 420.626291 136.226941 L 415.981288 131.140615 C 415.981288 131.140615 414.547869 128.588205 414.765604 128.588205 C 414.983338 128.588205 426.359967 128.699179 426.359967 128.699179 L 426.2511 123.187453 C 426.2511 123.187453 424.491079 122.632581 423.601996 122.077709 C 424.273345 121.85576 429.898153 121.85576 429.898153 121.85576 L 427.466784 123.520376 L 427.466784 128.255282 L 437.518861 128.366256 Z M 440.94818 127.496957 " transform="matrix(0.215285,0,0,0.211197,98.347765,70.987034)"/>
<path style=" stroke:none;fill-rule:evenodd;fill:rgb(47.45098%,41.568627%,22.745098%);fill-opacity:0.996078;" d="M 188.949219 98.472656 C 189.105469 98.472656 189.234375 98.597656 189.234375 98.753906 C 189.234375 98.90625 189.105469 99.03125 188.949219 99.03125 C 188.789062 99.03125 188.660156 98.90625 188.660156 98.753906 C 188.660156 98.597656 188.789062 98.472656 188.949219 98.472656 Z M 188.949219 98.472656 "/>
<path style=" stroke:none;fill-rule:evenodd;fill:rgb(47.843137%,41.960784%,22.745098%);fill-opacity:1;" d="M 191.660156 98.355469 C 191.816406 98.355469 191.945312 98.480469 191.945312 98.636719 C 191.945312 98.789062 191.816406 98.917969 191.660156 98.917969 C 191.503906 98.917969 191.375 98.789062 191.375 98.636719 C 191.375 98.480469 191.503906 98.355469 191.660156 98.355469 Z M 191.660156 98.355469 "/>
<path style="fill:none;stroke-width:1.25;stroke-linecap:butt;stroke-linejoin:miter;stroke:rgb(32.941176%,29.411765%,12.54902%);stroke-opacity:1;stroke-miterlimit:4;" d="M 413.54992 121.300888 C 417.741309 119.599281 420.735159 118.249093 425.924498 117.768204 C 430.823525 117.250324 434.615734 117.953162 438.95228 118.766974 " transform="matrix(0.215285,0,0,0.211197,98.347765,70.987034)"/>
<path style="fill-rule:evenodd;fill:rgb(32.941176%,29.411765%,12.54902%);fill-opacity:1;stroke-width:1.25;stroke-linecap:butt;stroke-linejoin:miter;stroke:rgb(32.941176%,29.411765%,12.54902%);stroke-opacity:1;stroke-miterlimit:4;" d="M 415.872421 112.348956 L 412.443102 112.348956 L 407.580365 107.151656 L 410.338335 107.48458 L 413.54992 108.927246 Z M 415.872421 112.348956 " transform="matrix(0.215285,0,0,0.211197,98.347765,70.987034)"/>
<path style="fill-rule:evenodd;fill:rgb(32.941176%,29.411765%,12.54902%);fill-opacity:1;stroke-width:1.25;stroke-linecap:butt;stroke-linejoin:miter;stroke:rgb(32.941176%,29.411765%,12.54902%);stroke-opacity:1;stroke-miterlimit:4;" d="M 436.539056 110.351417 L 444.268631 104.395793 L 441.728395 104.06287 L 438.843413 106.707759 L 435.432239 107.262631 Z M 436.539056 110.351417 " transform="matrix(0.215285,0,0,0.211197,98.347765,70.987034)"/>
<path style="fill-rule:evenodd;fill:rgb(32.941176%,29.411765%,12.54902%);fill-opacity:1;stroke-width:1.25;stroke-linecap:butt;stroke-linejoin:miter;stroke:rgb(32.941176%,29.411765%,12.54902%);stroke-opacity:1;stroke-miterlimit:4;" d="M 431.966631 111.461161 L 419.846076 111.905059 L 419.954943 110.591862 L 424.382212 110.147964 L 424.926548 108.372375 C 424.926548 108.372375 426.2511 108.2614 426.2511 108.372375 C 426.2511 108.483349 427.24905 110.03699 427.24905 110.03699 L 431.549306 110.813811 Z M 431.966631 111.461161 " transform="matrix(0.215285,0,0,0.211197,98.347765,70.987034)"/>
<path style="fill-rule:evenodd;fill:rgb(32.941176%,29.411765%,12.54902%);fill-opacity:1;stroke-width:1.25;stroke-linecap:butt;stroke-linejoin:miter;stroke:rgb(32.941176%,29.411765%,12.54902%);stroke-opacity:1;stroke-miterlimit:4;" d="M 431.331572 106.837229 L 427.140182 106.948203 L 426.813581 104.617742 Z M 431.331572 106.837229 " transform="matrix(0.215285,0,0,0.211197,98.347765,70.987034)"/>
<path style="fill-rule:evenodd;fill:rgb(32.941176%,29.411765%,12.54902%);fill-opacity:1;stroke-width:1.25;stroke-linecap:butt;stroke-linejoin:miter;stroke:rgb(32.941176%,29.411765%,12.54902%);stroke-opacity:1;stroke-miterlimit:4;" d="M 424.2552 104.728716 L 423.928598 107.040682 L 419.846076 107.706528 Z M 424.2552 104.728716 " transform="matrix(0.215285,0,0,0.211197,98.347765,70.987034)"/>
<path style="fill-rule:evenodd;fill:rgb(32.941176%,29.411765%,12.54902%);fill-opacity:1;stroke-width:1.25;stroke-linecap:butt;stroke-linejoin:miter;stroke:rgb(32.941176%,29.411765%,12.54902%);stroke-opacity:1;stroke-miterlimit:4;" d="M 401.066474 147.046941 L 403.153096 141.738668 L 401.284208 138.095009 L 399.397176 143.495762 Z M 401.066474 147.046941 " transform="matrix(0.215285,0,0,0.211197,98.347765,70.987034)"/>
<path style="fill-rule:evenodd;fill:rgb(32.941176%,29.411765%,12.54902%);fill-opacity:1;stroke-width:1.25;stroke-linecap:butt;stroke-linejoin:miter;stroke:rgb(32.941176%,29.411765%,12.54902%);stroke-opacity:1;stroke-miterlimit:4;" d="M 405.368333 149.803339 L 407.908569 143.514792 L 403.045832 148.601117 Z M 405.368333 149.803339 " transform="matrix(0.215285,0,0,0.211197,98.323983,71.010359)"/>
<path style="fill-rule:evenodd;fill:rgb(62.745098%,12.941176%,4.705882%);fill-opacity:1;stroke-width:1.25;stroke-linecap:butt;stroke-linejoin:miter;stroke:rgb(62.745098%,12.941176%,4.705882%);stroke-opacity:0.996078;stroke-miterlimit:4;" d="M 476.903791 225.817923 L 472.766835 230.756283 L 473.075292 234.88083 L 481.675806 234.732864 C 484.433776 234.067018 485.123269 233.086744 485.649461 231.940009 C 486.502254 230.534334 485.921629 229.776009 486.121219 227.889445 Z M 476.903791 225.817923 " transform="matrix(0.215285,0,0,0.211197,105.298464,57.987525)"/>
<path style="fill-rule:evenodd;fill:rgb(62.745098%,12.941176%,4.705882%);fill-opacity:1;stroke-width:1.25;stroke-linecap:butt;stroke-linejoin:miter;stroke:rgb(62.745098%,12.941176%,4.705882%);stroke-opacity:0.996078;stroke-miterlimit:4;" d="M 476.585015 226.135623 L 473.083118 229.48335 L 473.083118 233.293469 L 480.72197 233.145504 C 483.479941 232.479657 483.842832 231.980273 484.369024 230.833538 C 485.221817 229.427862 484.949649 229.446358 485.167384 227.57829 Z M 476.585015 226.135623 " transform="matrix(0.215285,0,0,0.211197,109.824123,60.541521)"/>
<path style="fill-rule:evenodd;fill:rgb(62.745098%,12.941176%,4.705882%);fill-opacity:1;stroke-width:1.25;stroke-linecap:butt;stroke-linejoin:miter;stroke:rgb(62.745098%,12.941176%,4.705882%);stroke-opacity:0.996078;stroke-miterlimit:4;" d="M 476.906427 225.981315 L 472.914627 230.124359 L 473.077928 233.305624 L 481.188539 233.620051 C 483.94651 232.954205 483.529185 233.083675 484.381979 231.622512 C 485.216628 230.216837 484.962604 229.920906 485.180338 228.052837 Z M 476.906427 225.981315 " transform="matrix(0.215285,0,0,0.211197,116.977584,58.32411)"/>
<path style="fill-rule:evenodd;fill:rgb(62.745098%,12.941176%,4.705882%);fill-opacity:1;stroke-width:1.25;stroke-linecap:butt;stroke-linejoin:miter;stroke:rgb(62.745098%,12.941176%,4.705882%);stroke-opacity:0.996078;stroke-miterlimit:4;" d="M 477.848529 225.518936 L 473.239815 229.477022 L 473.239815 233.472099 L 481.822184 234.267416 C 484.580154 233.601569 484.797889 232.769262 485.487381 231.788988 C 486.340175 230.383313 485.904706 230.253843 486.12244 228.367278 Z M 477.848529 225.518936 " transform="matrix(0.215285,0,0,0.211197,121.876326,60.003795)"/>
<path style="fill-rule:evenodd;fill:rgb(62.745098%,12.941176%,4.705882%);fill-opacity:1;stroke-width:1.25;stroke-linecap:butt;stroke-linejoin:miter;stroke:rgb(0%,0%,0%);stroke-opacity:1;stroke-miterlimit:4;" d="M 497.098667 131.027318 L 513.319889 141.995285 C 516.368172 139.424379 522.718762 140.97802 525.204565 141.699353 C 529.668122 142.88308 532.807128 145.583456 536.708205 146.286294 C 543.83901 148.117371 552.38509 149.37508 558.844548 148.653747 C 565.322149 147.950909 570.747368 144.492208 575.519383 141.995285 L 575.519383 140.404652 L 572.344088 140.404652 C 567.172893 142.291216 559.93322 142.402191 554.399134 141.662362 C 548.865049 140.922533 547.359052 138.388618 539.103285 135.947182 L 538.450081 134.356549 C 548.502158 134.855934 550.534347 134.578498 554.743881 132.710429 C 558.844548 131.600686 560.695291 129.177745 563.017792 127.494634 L 562.963359 125.60807 L 559.93322 125.460104 C 556.032143 128.104993 553.564485 128.567386 547.594931 128.012515 C 542.169712 127.457643 537.270686 124.313369 533.623633 124.239386 C 529.758845 124.276378 529.94029 122.389813 526.220659 122.204856 C 520.269249 121.66848 513.846081 122.482292 508.239417 123.869472 C 501.507791 125.922497 500.491697 127.679591 497.098667 131.027318 Z M 497.098667 131.027318 " transform="matrix(0.215285,0,0,0.211197,105.298464,57.987525)"/>
<path style="fill-rule:evenodd;fill:rgb(0%,0%,0%);fill-opacity:1;stroke-width:1.25;stroke-linecap:butt;stroke-linejoin:miter;stroke:rgb(0%,0%,0%);stroke-opacity:1;stroke-miterlimit:4;" d="M 500.255818 128.585882 C 501.798104 128.937301 503.53998 129.399694 504.810098 130.139523 C 506.080216 130.860857 505.753614 130.860857 507.114455 131.878122 C 506.896721 130.564925 506.969299 130.657404 506.080216 129.621643 C 505.209278 128.585882 503.757715 127.6426 502.596464 126.791797 Z M 500.255818 128.585882 " transform="matrix(0.215285,0,0,0.211197,105.298464,57.987525)"/>
<path style="fill-rule:evenodd;fill:rgb(0%,0%,0%);fill-opacity:1;stroke-width:1.25;stroke-linecap:butt;stroke-linejoin:miter;stroke:rgb(0%,0%,0%);stroke-opacity:1;stroke-miterlimit:4;" d="M 513.809791 140.441644 C 513.846081 139.017473 513.120299 137.778259 512.594107 136.539045 C 512.049771 135.299831 511.614302 134.245575 510.616352 133.006361 C 511.868325 133.35778 512.557818 133.912652 513.628346 135.207353 C 514.68073 136.520549 514.626296 137.81525 514.84403 139.683319 Z M 513.809791 140.441644 " transform="matrix(0.215285,0,0,0.211197,105.298464,57.987525)"/>
<path style="fill-rule:evenodd;fill:rgb(0%,0%,0%);fill-opacity:1;stroke-width:1.25;stroke-linecap:butt;stroke-linejoin:miter;stroke:rgb(0%,0%,0%);stroke-opacity:1;stroke-miterlimit:4;" d="M 516.912508 123.037164 C 517.293544 124.017437 518.019325 124.701779 518.654384 126.810292 C 519.198721 128.733848 519.452744 131.415728 519.452744 131.415728 C 519.253154 129.973062 519.616045 128.363933 519.398311 126.939762 C 519.198721 125.515591 518.43665 124.276378 518.218915 122.833711 Z M 516.912508 123.037164 " transform="matrix(0.215285,0,0,0.211197,105.298464,57.987525)"/>
<path style="fill-rule:evenodd;fill:rgb(0%,0%,0%);fill-opacity:1;stroke-width:1.25;stroke-linecap:butt;stroke-linejoin:miter;stroke:rgb(0%,0%,0%);stroke-opacity:1;stroke-miterlimit:4;" d="M 529.802205 123.887967 L 530.473553 131.785643 L 531.217479 124.35036 Z M 529.802205 123.887967 " transform="matrix(0.215285,0,0,0.211197,105.363348,57.987525)"/>
<path style="fill-rule:evenodd;fill:rgb(0%,0%,0%);fill-opacity:1;stroke-width:1.25;stroke-linecap:butt;stroke-linejoin:miter;stroke:rgb(0%,0%,0%);stroke-opacity:1;stroke-miterlimit:4;" d="M 526.703641 140.348852 C 527.012098 139.072647 526.957664 137.777946 526.794363 136.483245 C 526.631062 135.20704 526.195593 134.097296 525.760124 132.636134 C 527.012098 133.727382 527.520145 135.114561 528.209638 136.59422 C 528.209638 138.055382 527.828602 139.350083 526.703641 140.348852 Z M 526.703641 140.348852 " transform="matrix(0.215285,0,0,0.211197,105.339016,57.968059)"/>
<path style="fill-rule:evenodd;fill:rgb(0%,0%,0%);fill-opacity:1;stroke-width:1.25;stroke-linecap:butt;stroke-linejoin:miter;stroke:rgb(0%,0%,0%);stroke-opacity:1;stroke-miterlimit:4;" d="M 540.441828 137.059827 C 540.496262 137.059827 540.859153 139.741708 540.242238 141.665264 C 539.643468 143.607315 539.226144 143.736785 538.101182 144.772546 C 539.607179 143.644307 540.913586 143.274392 541.385344 142.053674 C 541.857103 140.16711 540.641418 137.337263 540.441828 137.059827 Z M 540.441828 137.059827 " transform="matrix(0.215285,0,0,0.211197,105.322795,57.928318)"/>
<path style="fill-rule:evenodd;fill:rgb(0%,0%,0%);fill-opacity:1;stroke-width:1.25;stroke-linecap:butt;stroke-linejoin:miter;stroke:rgb(0%,0%,0%);stroke-opacity:1;stroke-miterlimit:4;" d="M 542.047153 133.869231 C 541.103637 134.017197 540.922191 130.022119 540.35971 128.117059 C 540.75889 127.895111 541.176215 127.969094 541.575395 128.875384 C 542.010864 129.41176 541.901996 132.204615 542.047153 133.869231 Z M 542.047153 133.869231 " transform="matrix(0.215285,0,0,0.211197,105.485005,58.067008)"/>
<path style="fill-rule:evenodd;fill:rgb(0%,0%,0%);fill-opacity:1;stroke-width:1.25;stroke-linecap:butt;stroke-linejoin:miter;stroke:rgb(0%,0%,0%);stroke-opacity:1;stroke-miterlimit:4;" d="M 552.221789 133.012791 L 552.602825 129.720551 L 553.637064 129.628072 L 553.637064 132.439423 C 553.637064 132.531902 552.312512 133.105269 552.221789 133.012791 Z M 552.221789 133.012791 " transform="matrix(0.215285,0,0,0.211197,105.298464,57.908042)"/>
<path style="fill-rule:evenodd;fill:rgb(0%,0%,0%);fill-opacity:1;stroke-width:1.25;stroke-linecap:butt;stroke-linejoin:miter;stroke:rgb(0%,0%,0%);stroke-opacity:1;stroke-miterlimit:4;" d="M 551.55321 141.853748 C 552.15198 142.871014 553.222508 144.05474 553.349519 145.145988 C 553.476531 146.255732 553.131785 146.792108 552.31528 148.456723 L 553.821277 148.549202 C 554.637782 147.21751 554.891806 146.255732 554.764794 145.201475 C 554.637782 144.147219 554.129735 143.092962 553.059207 142.242159 Z M 551.55321 141.853748 " transform="matrix(0.215285,0,0,0.211197,105.282243,57.908042)"/>
<path style="fill-rule:evenodd;fill:rgb(0%,0%,0%);fill-opacity:1;stroke-width:1.25;stroke-linecap:butt;stroke-linejoin:miter;stroke:rgb(0%,0%,0%);stroke-opacity:1;stroke-miterlimit:4;" d="M 562.578171 142.704552 L 562.941062 147.309988 L 564.174891 146.644142 L 563.884578 142.704552 Z M 562.578171 142.704552 " transform="matrix(0.215285,0,0,0.211197,105.322795,57.908042)"/>
<path style="fill-rule:evenodd;fill:rgb(86.27451%,56.862745%,1.176471%);fill-opacity:1;stroke-width:1.25;stroke-linecap:butt;stroke-linejoin:miter;stroke:rgb(32.941176%,29.411765%,12.54902%);stroke-opacity:1;stroke-miterlimit:4;" d="M 496.082573 131.822634 C 492.417375 132.913882 491.092823 134.985404 489.296514 136.760994 L 478.954124 131.434224 C 477.266682 132.8399 476.631623 134.87443 477.429982 136.945951 C 478.228342 139.017473 481.476216 142.272721 483.798717 143.881849 C 483.218092 146.730191 482.365298 148.894191 481.349204 151.40961 C 480.224242 154.239457 477.811018 157.809132 477.73844 158.955867 C 477.611428 160.269064 477.175959 163.080415 479.117425 163.820244 C 481.040747 164.578568 487.228036 163.302363 489.296514 163.450329 C 488.951767 164.578568 488.153407 166.539116 488.425576 167.389919 C 488.697744 168.240723 489.260225 168.518159 490.929523 168.573646 C 490.457764 169.609406 489.405381 170.941099 489.913428 171.569954 C 491.201691 172.568723 492.689543 172.402261 493.941517 172.309783 C 491.963762 174.640244 487.04659 179.134706 485.449871 181.132245 C 483.744283 183.481202 483.599127 185.996621 486.883289 185.737681 C 485.667605 187.124861 484.48821 188.456553 484.6878 189.64028 C 484.959968 191.064451 485.667605 192.026229 488.008251 191.193921 C 486.629266 194.393682 487.536493 197.26052 488.026396 200.608246 C 486.847 203.123665 487.336903 205.472623 487.04659 208.357956 C 484.633366 209.763632 484.343053 211.576213 482.764478 214.369068 C 481.349204 217.402367 478.718245 218.234675 477.266682 224.726675 L 486.719989 227.13112 C 487.082879 225.799428 488.316708 224.930128 488.661455 223.598436 C 489.006201 222.248248 488.988056 220.583632 488.806611 219.103974 C 490.693644 216.348111 494.485853 210.614435 495.701537 207.56264 C 497.770015 206.434401 499.276012 205.731563 500.836443 205.731563 C 502.378729 205.731563 503.376679 206.674845 505.009688 207.56264 C 504.283906 210.133546 502.251717 212.944897 502.124706 216.551564 L 502.124706 226.48377 C 501.707381 228.962197 498.949411 228.999189 497.78816 236.434471 L 506.297951 238.69095 C 507.749514 236.175531 510.035726 235.842608 510.634496 234.843839 L 511.251411 224.504727 C 512.321939 219.621855 519.03542 215.589786 519.126143 210.281512 C 521.539367 210.263016 522.446594 210.503461 523.408255 210.004076 C 524.678373 209.541683 525.131986 208.820349 526.129936 207.895563 C 526.510972 209.486196 527.744801 209.634161 528.797184 209.634161 C 529.831423 209.634161 531.899901 208.117512 532.752694 207.507153 C 533.369609 208.376452 533.678066 209.190264 534.948184 209.504691 C 536.200158 209.800623 539.756488 209.264247 541.208052 208.912828 L 534.204258 220.565137 C 533.950234 221.67488 534.294981 222.377718 533.750644 223.690915 C 533.242597 224.874641 532.226503 225.429513 531.772889 226.520761 L 539.68391 228.444317 L 540.954028 225.041103 C 542.623326 224.319769 543.984167 223.931359 544.855105 222.840111 C 545.744187 221.748863 545.744187 219.658846 546.252235 218.475119 C 548.955771 216.477581 553.201595 212.131085 556.195444 208.524418 C 558.209488 208.875837 561.094471 210.577444 562.183143 213.129854 C 562.3283 215.885717 562.52789 220.916555 561.33035 224.412248 L 556.195444 232.58736 L 555.614819 233.937548 L 563.689141 236.859873 L 568.824046 232.8463 L 569.023636 227.13112 C 571.600161 222.488692 575.301648 219.954778 578.803545 217.032453 C 578.803545 216.865991 579.18458 210.891871 579.039424 210.651427 C 578.168486 209.967085 577.587861 210.373991 577.279403 209.134777 C 576.970946 207.914059 577.188681 204.510845 577.351981 203.179152 C 577.860029 202.550298 578.930557 201.810469 578.876123 201.255597 C 577.478993 199.68346 577.896318 195.632896 578.331787 192.488622 C 578.22292 188.881955 583.049368 184.627937 583.77515 182.53792 L 584.083607 178.764792 C 583.593704 177.840005 582.867923 177.285134 582.849778 176.489817 C 582.813489 175.712997 583.77515 174.3998 584.37392 173.567492 L 585.390014 171.791902 L 585.226713 162.488551 C 584.936401 161.471286 584.083607 159.917645 583.285247 159.751184 C 582.486887 159.584722 581.307492 160.509508 580.418409 161.526773 L 575.773406 165.022466 C 573.541627 165.706808 571.600161 165.984244 567.68094 164.985474 L 561.711385 165.114945 C 558.572379 166.00274 556.93937 166.150705 553.98181 164.837509 L 550.443624 164.892996 C 549.354951 165.503355 547.83081 166.483628 546.63327 166.724073 C 545.43573 166.964517 543.820866 167.001509 542.623326 166.631594 C 533.496621 167.260449 535.764689 167.926295 533.151874 168.518159 C 531.047107 168.111252 531.718456 167.0385 523.5897 166.964517 L 520.359972 166.00274 C 516.277449 163.246876 513.138443 158.863389 510.434906 153.814055 C 518.926553 151.335627 522.482883 148.764721 525.059408 142.864584 L 513.047721 143.326977 Z M 496.082573 131.822634 " transform="matrix(0.215285,0,0,0.211197,105.298464,57.987525)"/>
<path style="fill-rule:evenodd;fill:rgb(0%,0%,0%);fill-opacity:1;stroke-width:1.25;stroke-linecap:butt;stroke-linejoin:miter;stroke:rgb(0%,0%,0%);stroke-opacity:1;stroke-miterlimit:4;" d="M 491.646999 147.813766 L 495.040029 149.293424 C 495.457353 149.792809 496.273858 150.366176 496.800049 150.403168 C 497.326241 150.440159 497.779855 149.885287 498.233468 149.496877 L 501.35433 147.813766 C 499.503586 147.554826 498.941105 146.371099 496.981495 146.371099 C 495.00374 146.371099 493.624754 147.425356 491.646999 147.813766 Z M 491.646999 147.813766 " transform="matrix(0.215285,0,0,0.211197,105.347127,57.797739)"/>
<path style="fill-rule:evenodd;fill:rgb(0%,0%,0%);fill-opacity:1;stroke-width:1.25;stroke-linecap:butt;stroke-linejoin:miter;stroke:rgb(0%,0%,0%);stroke-opacity:1;stroke-miterlimit:4;" d="M 506.769709 147.784448 C 507.876526 148.450294 509.872426 149.76349 511.523579 149.76349 C 513.338033 149.615525 513.301744 148.320824 515.896414 147.47002 L 519.688623 144.344242 C 517.402411 144.362738 512.448951 144.825131 509.727269 145.675935 C 507.441057 146.286294 506.914865 147.21108 506.769709 147.784448 Z M 506.769709 147.784448 " transform="matrix(0.215285,0,0,0.211197,105.298464,57.987525)"/>
<path style="fill-rule:evenodd;fill:rgb(0%,0%,0%);fill-opacity:1;stroke-width:1.25;stroke-linecap:butt;stroke-linejoin:miter;stroke:rgb(0%,0%,0%);stroke-opacity:1;stroke-miterlimit:4;" d="M 497.927779 187.576359 C 497.927779 187.853795 497.456021 188.057248 497.220142 187.724324 C 496.929829 183.67376 496.058891 180.825418 494.825062 177.662649 C 496.204048 180.067093 497.365299 183.951196 497.927779 187.576359 Z M 497.927779 187.576359 " transform="matrix(0.215285,0,0,0.211197,105.330906,58.028888)"/>
<path style="fill-rule:evenodd;fill:rgb(0%,0%,0%);fill-opacity:1;stroke-width:1.25;stroke-linecap:butt;stroke-linejoin:miter;stroke:rgb(0%,0%,0%);stroke-opacity:1;stroke-miterlimit:4;" d="M 507.276522 204.533574 C 505.734235 204.681539 505.117321 204.459591 503.575035 204.626052 C 503.411734 200.538496 503.393589 195.859077 503.411734 192.955248 C 504.010504 193.029231 505.716091 194.860308 506.75033 197.745641 C 507.004353 199.87265 507.385389 202.277095 507.276522 204.533574 Z M 507.276522 204.533574 " transform="matrix(0.215285,0,0,0.211197,105.412011,57.963193)"/>
<path style="fill-rule:evenodd;fill:rgb(0%,0%,0%);fill-opacity:1;stroke-width:1.25;stroke-linecap:butt;stroke-linejoin:miter;stroke:rgb(0%,0%,0%);stroke-opacity:1;stroke-miterlimit:4;" d="M 518.03747 188.197613 C 518.726963 188.401066 519.688623 188.401066 519.924502 187.920177 C 520.214815 187.050878 519.343877 186.107596 519.017275 185.034843 C 517.874169 182.759869 517.23911 180.281441 516.749207 179.208689 C 516.24116 178.875766 515.696824 178.912758 515.823836 179.449134 C 516.477039 181.483664 517.602001 187.420792 518.03747 188.197613 Z M 518.03747 188.197613 " transform="matrix(0.215285,0,0,0.211197,105.298464,57.987525)"/>
<path style="fill-rule:evenodd;fill:rgb(0%,0%,0%);fill-opacity:1;stroke-width:1.25;stroke-linecap:butt;stroke-linejoin:miter;stroke:rgb(0%,0%,0%);stroke-opacity:1;stroke-miterlimit:4;" d="M 528.97863 186.976895 C 529.051208 187.457784 527.418199 186.754946 527.127886 186.181579 C 527.109742 185.090331 524.896107 177.137168 525.258998 176.82274 C 525.730756 176.582296 527.164175 179.486125 527.635933 180.817818 C 527.744801 181.613134 528.706461 184.498467 528.97863 186.976895 Z M 528.97863 186.976895 " transform="matrix(0.215285,0,0,0.211197,105.298464,57.987525)"/>
<path style="fill-rule:evenodd;fill:rgb(0%,0%,0%);fill-opacity:1;stroke-width:1.25;stroke-linecap:butt;stroke-linejoin:miter;stroke:rgb(0%,0%,0%);stroke-opacity:1;stroke-miterlimit:4;" d="M 527.418199 203.382605 C 527.38191 203.937477 528.670172 203.475084 529.178219 203.068178 C 530.647927 200.719221 532.480526 198.240793 533.006718 197.316007 C 533.33332 196.298742 534.948184 189.917716 534.458282 189.954707 C 534.276836 189.76975 532.879706 193.135972 531.065252 196.446708 C 529.178219 199.81293 527.400054 203.049682 527.418199 203.382605 Z M 527.418199 203.382605 " transform="matrix(0.215285,0,0,0.211197,105.298464,57.987525)"/>
<path style="fill-rule:evenodd;fill:rgb(0%,0%,0%);fill-opacity:1;stroke-width:1.25;stroke-linecap:butt;stroke-linejoin:miter;stroke:rgb(0%,0%,0%);stroke-opacity:1;stroke-miterlimit:4;" d="M 538.395647 199.9424 C 537.869456 200.219836 539.48432 194.412177 539.611332 193.394912 C 539.901644 191.767288 540.318969 188.863459 540.954028 185.090331 C 541.752388 190.361613 540.808872 196.021306 538.395647 199.9424 Z M 538.395647 199.9424 " transform="matrix(0.215285,0,0,0.211197,105.298464,57.987525)"/>
<path style="fill-rule:evenodd;fill:rgb(0%,0%,0%);fill-opacity:1;stroke-width:1.25;stroke-linecap:butt;stroke-linejoin:miter;stroke:rgb(0%,0%,0%);stroke-opacity:1;stroke-miterlimit:4;" d="M 544.982117 182.223493 C 544.619226 182.53792 539.919789 174.584757 540.355258 174.547766 C 540.464125 174.196347 544.292624 179.523117 544.83696 180.466399 C 545.072839 180.910296 545.290574 181.576142 544.982117 182.223493 Z M 544.982117 182.223493 " transform="matrix(0.215285,0,0,0.211197,105.298464,57.987525)"/>
<path style="fill-rule:evenodd;fill:rgb(0%,0%,0%);fill-opacity:1;stroke-width:1.25;stroke-linecap:butt;stroke-linejoin:miter;stroke:rgb(0%,0%,0%);stroke-opacity:1;stroke-miterlimit:4;" d="M 556.013999 188.12363 C 555.651108 187.846194 555.796264 185.312279 555.106772 182.519424 C 554.399134 179.745065 553.219739 177.063185 553.455618 176.30486 C 553.673353 175.897954 554.435424 176.082911 555.052338 176.619287 C 555.342651 178.135937 556.013999 183.943596 556.830503 187.73522 C 556.812359 188.086639 556.413179 188.345579 556.013999 188.12363 Z M 556.013999 188.12363 " transform="matrix(0.215285,0,0,0.211197,105.298464,57.987525)"/>
<path style="fill-rule:evenodd;fill:rgb(0%,0%,0%);fill-opacity:1;stroke-width:1.25;stroke-linecap:butt;stroke-linejoin:miter;stroke:rgb(0%,0%,0%);stroke-opacity:1;stroke-miterlimit:4;" d="M 563.72543 181.058262 C 563.344394 180.651356 564.741524 183.79563 565.757618 187.513271 C 566.791857 191.230912 567.299905 197.815391 567.553928 197.352998 C 568.261565 196.872109 568.134554 196.298742 569.223226 196.058297 C 570.311899 195.817853 574.376276 196.187767 574.140397 195.910331 C 571.63645 193.635357 569.313949 191.748793 567.590217 189.270365 C 565.848341 186.791938 564.705235 183.53669 563.72543 181.058262 Z M 563.72543 181.058262 " transform="matrix(0.215285,0,0,0.211197,105.298464,57.987525)"/>
<path style="fill-rule:evenodd;fill:rgb(0%,0%,0%);fill-opacity:1;stroke-width:1.25;stroke-linecap:butt;stroke-linejoin:miter;stroke:rgb(0%,0%,0%);stroke-opacity:1;stroke-miterlimit:4;" d="M 573.215026 215.034914 C 572.43481 215.626777 570.946958 216.089171 570.511489 215.83023 C 568.116409 210.762401 566.773713 207.451666 563.435117 202.013922 C 562.582323 200.719221 560.441267 200.922674 560.568279 200.423289 C 560.640857 199.831426 561.765819 200.07187 562.491601 199.221067 C 563.217382 198.370263 563.308105 197.297511 563.761719 196.909101 C 562.781913 199.239562 565.340294 202.846229 566.791857 205.694571 C 567.753518 205.953512 568.515589 205.953512 568.969203 206.526879 C 569.07807 206.804315 567.934964 206.989272 568.08012 207.969546 L 570.511489 212.963392 C 571.291704 213.573752 572.525533 213.906675 573.704928 214.073136 C 574.013386 214.369068 573.450905 214.757478 573.215026 215.034914 Z M 573.215026 215.034914 " transform="matrix(0.215285,0,0,0.211197,105.298464,57.987525)"/>
<path style="fill-rule:evenodd;fill:rgb(0%,0%,0%);fill-opacity:1;stroke-width:1.25;stroke-linecap:butt;stroke-linejoin:miter;stroke:rgb(0%,0%,0%);stroke-opacity:1;stroke-miterlimit:4;" d="M 578.204775 170.663663 C 579.710772 170.737646 581.053468 170.885612 581.507082 170.108791 C 582.432454 168.16674 582.958645 166.576107 582.341731 165.318398 C 579.98294 165.521851 578.204775 166.631594 577.243114 168.740107 C 577.279403 169.479936 577.442704 170.016312 578.204775 170.663663 Z M 578.204775 170.663663 " transform="matrix(0.215285,0,0,0.211197,105.298464,57.987525)"/>
<path style="fill-rule:evenodd;fill:rgb(99.215686%,98.823529%,98.823529%);fill-opacity:1;stroke-width:1.25;stroke-linecap:butt;stroke-linejoin:miter;stroke:rgb(99.215686%,98.823529%,98.823529%);stroke-opacity:1;stroke-miterlimit:4;" d="M 602.953932 169.2025 C 626.251525 174.233338 647.807242 179.930023 669.36296 187.032382 C 690.936821 194.116246 711.4583 202.587289 732.324524 211.76117 L 697.396279 283.709551 C 677.890895 276.144799 658.62139 270.041209 639.37003 263.71567 C 620.11867 257.371635 601.357212 251.748934 581.851828 245.663839 Z M 602.953932 169.2025 " transform="matrix(0.215285,0,0,0.211197,105.298464,57.987525)"/>
<path style="fill-rule:evenodd;fill:rgb(90.196078%,8.235294%,11.764706%);fill-opacity:1;stroke-width:1.25;stroke-linecap:butt;stroke-linejoin:miter;stroke:rgb(90.196078%,8.235294%,11.764706%);stroke-opacity:1;stroke-miterlimit:4;" d="M 598.308929 186.21857 C 598.308929 186.21857 630.842095 193.616861 662.359166 203.937477 C 693.894382 214.276589 724.649383 227.538026 724.522371 227.538026 C 724.286492 227.538026 704.70853 268.635533 704.70853 268.635533 C 685.711193 260.941311 665.734051 253.727977 646.010933 247.235976 C 626.26967 240.762471 606.546551 234.510915 586.315386 229.757513 Z M 598.308929 186.21857 " transform="matrix(0.215285,0,0,0.211197,105.298464,57.987525)"/>
<path style="fill-rule:evenodd;fill:rgb(0%,0%,0%);fill-opacity:1;stroke-width:1.25;stroke-linecap:butt;stroke-linejoin:miter;stroke:rgb(0.392157%,0%,0.392157%);stroke-opacity:0.996078;stroke-miterlimit:4;" d="M 601.012466 206.30493 C 604.205905 204.492349 606.383251 203.992964 608.106982 200.996657 L 619.628767 200.996657 L 619.773923 205.26917 C 622.604472 206.656349 624.255625 208.172999 627.086174 209.560179 C 629.916723 210.947358 633.926667 212.168076 636.757216 213.555256 L 661.560806 215.756247 C 664.899402 216.311119 669.689561 217.73529 672.574544 219.455393 C 675.459526 221.175496 677.292125 223.339496 678.852556 226.095359 C 683.951172 227.926436 689.049789 228.999189 694.293562 229.794505 C 699.537335 230.589821 706.10566 230.922744 711.204276 231.126197 C 713.708223 232.013992 713.708223 233.345685 712.528828 234.677377 C 712.528828 234.677377 709.716424 238.542984 702.059426 238.579976 C 694.402429 238.616967 685.711193 234.23348 681.955273 234.825343 C 682.100429 237.1743 686.092228 242.057172 690.664653 243.980728 L 690.519497 255.207635 L 688.451019 257.112695 L 686.237385 255.651532 C 688.01555 252.988148 687.41678 249.880865 686.672854 247.21748 C 684.985411 244.720557 684.767677 243.684796 681.592382 243.536831 C 677.818317 242.797001 675.078491 241.761241 670.288331 238.358027 L 668.510166 238.653958 C 667.475927 240.522027 666.441688 241.816728 664.082898 242.944967 L 659.202016 242.649036 C 659.202016 242.649036 647.988688 240.133617 647.988688 239.985651 C 647.988688 239.837685 647.825387 238.210061 648.133844 238.062095 C 648.424157 237.914129 651.962343 237.914129 652.2708 237.914129 C 654.629591 238.653958 659.655629 238.653958 659.655629 238.653958 L 659.492328 234.381445 L 667.040458 233.937548 C 665.516317 228.610778 665.008269 225.207564 658.02262 224.042333 L 636.158446 224.634197 L 636.466903 227.722983 C 630.987251 226.983154 621.098475 226.853684 616.036147 228.555291 C 613.096731 228.851223 608.832764 230.386368 606.909442 230.386368 L 604.695808 229.794505 C 603.2261 229.350607 603.2261 228.90671 603.82487 227.575017 C 613.260032 226.835188 614.747885 226.095359 617.560289 224.782163 C 617.705445 223.894368 616.52605 221.970812 616.072437 221.822846 C 610.17546 221.526914 605.439734 221.970812 603.82487 221.67488 C 601.302778 220.935051 597.909749 219.603359 597.909749 219.455393 C 597.909749 219.307427 597.456135 217.08794 597.619436 217.08794 C 597.764593 217.08794 601.447935 218.123701 601.593091 218.123701 C 605.584891 218.86353 612.534251 218.567598 614.149115 217.679803 L 614.312416 214.443051 C 614.149115 212.963392 613.114876 211.6317 612.824563 211.483734 C 612.534251 211.335768 606.328817 210.595939 604.115183 210.595939 C 600.522563 209.948589 601.066899 208.136008 601.012466 206.30493 Z M 601.012466 206.30493 " transform="matrix(0.215285,0,0,0.211197,105.298464,57.987525)"/>
<path style="fill-rule:evenodd;fill:rgb(99.215686%,99.215686%,99.215686%);fill-opacity:0.996078;stroke-width:1.25;stroke-linecap:butt;stroke-linejoin:miter;stroke:rgb(0.392157%,0%,0.392157%);stroke-opacity:0.996078;stroke-miterlimit:4;" d="M 648.71447 232.605855 C 652.07121 233.678608 654.538868 234.030027 659.510473 234.36295 L 667.040458 233.937548 C 665.516317 228.610778 665.008269 225.207564 658.02262 224.023838 L 636.158446 224.615701 L 636.466903 227.722983 C 643.107806 230.238402 646.355679 231.607086 648.71447 232.605855 Z M 648.71447 232.605855 " transform="matrix(0.215285,0,0,0.211197,105.298464,57.987525)"/>
<path style="fill-rule:evenodd;fill:rgb(0.392157%,6.666667%,44.313725%);fill-opacity:0.996078;stroke-width:1.25;stroke-linecap:butt;stroke-linejoin:miter;stroke:rgb(0.392157%,6.666667%,44.313725%);stroke-opacity:1;stroke-miterlimit:4;" d="M 101.182362 306.599056 L 37.61754 165.029906 L 84.87635 81.712178 L 176.332544 116.389037 L 216.520635 270.916957 C 174.507912 281.197453 147.637453 289.955685 101.182362 306.599056 Z M 101.182362 306.599056 " transform="matrix(0.212373,0.0346172,-0.0352872,0.208343,140.830564,47.807225)"/>
<path style="fill-rule:evenodd;fill:rgb(98.431373%,99.215686%,6.27451%);fill-opacity:0.996078;stroke-width:1.25;stroke-linecap:butt;stroke-linejoin:miter;stroke:rgb(99.215686%,77.647059%,1.960784%);stroke-opacity:0.996078;stroke-miterlimit:4;" d="M 78.286323 151.261644 L 92.039886 163.616791 L 88.120665 183.462707 L 107.19058 176.730262 L 121.252601 189.085408 L 124.373462 170.793133 L 139.995914 165.651321 L 128.129383 152.519354 L 132.030459 134.393541 C 132.030459 134.393541 113.287146 140.016242 113.287146 139.868276 C 113.287146 139.701815 100.785556 127.679591 100.622255 127.827557 C 100.477099 127.994019 96.557878 145.028584 96.557878 145.028584 Z M 78.286323 151.261644 " transform="matrix(0.215285,0,0,0.211197,105.298464,57.987525)"/>
<path style=" stroke:none;fill-rule:evenodd;fill:rgb(100%,77.254902%,0%);fill-opacity:1;" d="M 122.21875 89.96875 L 135.40625 92.9375 L 132.007812 94.09375 L 128.945312 91.617188 C 128.945312 91.617188 131.433594 97.820312 131.402344 97.789062 C 131.367188 97.753906 128.507812 95.378906 128.40625 95.28125 L 128.914062 91.617188 C 128.914062 91.617188 124.335938 96.699219 124.335938 96.667969 C 124.335938 96.632812 125.210938 92.507812 125.210938 92.507812 Z M 122.21875 89.96875 "/>
<path style=" stroke:none;fill-rule:evenodd;fill:rgb(100%,77.254902%,0%);fill-opacity:1;" d="M 126.054688 88.617188 L 128.980469 91.421875 L 126.960938 84.917969 L 126.054688 88.613281 Z M 126.054688 88.617188 "/>
<path style=" stroke:none;fill-rule:evenodd;fill:rgb(100%,77.254902%,0%);fill-opacity:1;" d="M 129.652344 87.558594 C 129.6875 87.59375 128.945312 91.355469 128.980469 91.355469 C 129.316406 90.957031 133.722656 86.371094 133.691406 86.371094 C 133.65625 86.371094 129.722656 87.59375 129.652344 87.558594 Z M 129.652344 87.558594 "/>
<path style="fill-rule:evenodd;fill:rgb(98.431373%,99.215686%,6.27451%);fill-opacity:0.996078;stroke-width:1.25;stroke-linecap:butt;stroke-linejoin:miter;stroke:rgb(99.215686%,77.647059%,1.960784%);stroke-opacity:0.996078;stroke-miterlimit:4;" d="M 78.290792 151.270089 L 92.030092 163.608194 L 88.130074 183.460781 L 107.18958 176.74736 L 121.25432 189.083537 L 124.36828 170.796803 L 140.000813 165.647346 L 128.119026 152.517641 L 132.023634 134.399463 C 132.023634 134.399463 113.275284 140.027277 113.27832 139.858146 C 113.278908 139.714809 100.786264 127.675581 100.62878 127.827065 C 100.471295 127.978549 96.56405 145.027415 96.56405 145.027415 Z M 78.290792 151.270089 " transform="matrix(0.167239,0.133004,-0.135575,0.164059,256.997256,48.297099)"/>
<path style=" stroke:none;fill-rule:evenodd;fill:rgb(100%,77.254902%,0%);fill-opacity:1;" d="M 249.613281 83.59375 L 257.949219 94.046875 L 254.570312 92.84375 L 253.78125 89.03125 C 253.78125 89.03125 251.730469 95.386719 251.726562 95.339844 C 251.71875 95.292969 251.023438 91.683594 251.011719 91.542969 L 253.753906 89.007812 C 253.753906 89.007812 246.9375 90.132812 246.957031 90.105469 C 246.980469 90.078125 250.308594 87.414062 250.308594 87.414062 Z M 249.613281 83.59375 "/>
<path style=" stroke:none;fill-rule:evenodd;fill:rgb(99.215686%,77.647059%,1.960784%);fill-opacity:1;" d="M 253.457031 84.910156 L 253.933594 88.898438 L 256.539062 82.601562 L 253.460938 84.910156 Z M 253.457031 84.910156 "/>
<path style=" stroke:none;fill-rule:evenodd;fill:rgb(99.215686%,77.647059%,1.960784%);fill-opacity:1;" d="M 256.933594 86.316406 C 256.9375 86.363281 253.949219 88.828125 253.976562 88.847656 C 254.492188 88.746094 260.859375 87.90625 260.832031 87.886719 C 260.804688 87.867188 256.964844 86.382812 256.933594 86.316406 Z M 256.933594 86.316406 "/>
<path style="fill-rule:evenodd;fill:rgb(90.196078%,7.843137%,11.372549%);fill-opacity:1;stroke-width:1.25;stroke-linecap:butt;stroke-linejoin:miter;stroke:rgb(90.196078%,7.843137%,11.372549%);stroke-opacity:1;stroke-miterlimit:4;" d="M 175.377773 121.335557 C 196.824623 110.885471 220.902432 102.728855 246.304792 99.177675 C 270.709203 95.607999 295.149902 95.312068 320.207516 95.367555 C 320.207516 95.367555 323.491679 134.486019 323.491679 134.818942 C 303.786705 134.985404 289.107769 134.615489 254.342825 139.20243 C 219.77747 144.085302 205.552148 148.265337 184.522623 156.47744 Z M 175.377773 121.335557 " transform="matrix(0.215285,0,0,0.211197,105.298464,57.987525)"/>
<path style="fill-rule:evenodd;fill:rgb(90.196078%,7.843137%,11.372549%);fill-opacity:0.996078;stroke-width:1.25;stroke-linecap:butt;stroke-linejoin:miter;stroke:rgb(90.196078%,7.843137%,11.372549%);stroke-opacity:1;stroke-miterlimit:4;" d="M 193.740051 190.620553 C 193.413449 190.620553 204.590487 232.013992 204.590487 232.013992 C 225.238978 226.705718 246.195925 222.710641 267.152872 219.695837 C 288.127964 216.69953 310.409463 214.979427 330.713207 213.610743 L 327.120587 173.234569 C 305.728171 171.921372 281.32376 171.921372 259.27814 174.880689 C 237.214376 177.82151 215.803815 183.074296 193.740051 190.620553 Z M 193.740051 190.620553 " transform="matrix(0.215285,0,0,0.211197,105.298464,57.987525)"/>
<path style="fill-rule:evenodd;fill:rgb(100%,100%,100%);fill-opacity:1;stroke-width:4;stroke-linecap:butt;stroke-linejoin:miter;stroke:rgb(89.803922%,7.843137%,11.372549%);stroke-opacity:1;stroke-miterlimit:4;" d="M 95.251471 318.444528 L 694.112117 318.444528 L 694.112117 709.869617 C 678.888845 862.311405 535.147774 976.245089 403.817571 975.37579 C 262.017966 981.682833 105.249114 863.384158 93.945063 708.55642 L 95.233326 318.444528 Z M 95.251471 318.444528 " transform="matrix(0.215285,0,0,0.211197,105.298464,57.987525)"/>
<path style="fill-rule:evenodd;fill:rgb(83.921569%,8.235294%,9.019608%);fill-opacity:1;stroke-width:4;stroke-linecap:butt;stroke-linejoin:miter;stroke:rgb(89.803922%,7.843137%,11.372549%);stroke-opacity:1;stroke-miterlimit:4;" d="M 95.241464 318.448504 L 694.124988 318.448504 L 694.124988 709.869572 C 678.902505 862.319402 535.159857 976.246652 403.818609 975.378157 C 262.026104 981.689221 105.238318 863.380896 93.935057 708.557179 Z M 95.241464 318.448504 " transform="matrix(0.206315,0,0,0.202398,108.834642,63.683529)"/>
<path style=" stroke:none;fill-rule:evenodd;fill:rgb(100%,100%,100%);fill-opacity:1;" d="M 202.753906 128.535156 L 226.5625 128.535156 L 226.5625 154.375 L 202.753906 154.375 Z M 202.753906 128.535156 "/>
<path style=" stroke:none;fill-rule:evenodd;fill:rgb(100%,100%,100%);fill-opacity:1;" d="M 153.632812 128.535156 L 177.441406 128.535156 L 177.441406 154.375 L 153.632812 154.375 Z M 153.632812 128.535156 "/>
<path style=" stroke:none;fill-rule:evenodd;fill:rgb(100%,100%,100%);fill-opacity:1;" d="M 128.789062 155.230469 L 152.917969 155.230469 L 152.917969 180.449219 L 128.789062 180.449219 Z M 128.789062 155.230469 "/>
<path style=" stroke:none;fill-rule:evenodd;fill:rgb(100%,100%,100%);fill-opacity:1;" d="M 178.390625 155.230469 L 201.960938 155.230469 L 201.960938 180.449219 L 178.390625 180.449219 Z M 178.390625 155.230469 "/>
<path style=" stroke:none;fill-rule:evenodd;fill:rgb(100%,100%,100%);fill-opacity:1;" d="M 227.273438 155.230469 L 251.566406 155.230469 L 251.566406 180.449219 L 227.273438 180.449219 Z M 227.273438 155.230469 "/>
<path style=" stroke:none;fill-rule:evenodd;fill:rgb(100%,100%,100%);fill-opacity:1;" d="M 202.753906 181.226562 L 226.5625 181.226562 L 226.5625 206.832031 L 202.753906 206.832031 Z M 202.753906 181.226562 "/>
<path style=" stroke:none;fill-rule:evenodd;fill:rgb(100%,100%,100%);fill-opacity:1;" d="M 153.628906 181.226562 L 177.441406 181.226562 L 177.441406 206.832031 L 153.628906 206.832031 Z M 153.628906 181.226562 "/>
<path style=" stroke:none;fill-rule:evenodd;fill:rgb(100%,100%,100%);fill-opacity:1;" d="M 178.390625 207.609375 L 201.960938 207.609375 L 201.960938 233.21875 L 178.390625 233.21875 Z M 178.390625 207.609375 "/>
<path style="fill-rule:evenodd;fill:rgb(100%,100%,100%);fill-opacity:1;stroke-width:1.25;stroke-linecap:butt;stroke-linejoin:miter;stroke:rgb(100%,100%,100%);stroke-opacity:1;stroke-miterlimit:4;" d="M 567.28176 709.499702 L 567.299905 828.612189 L 634.652449 828.704668 C 665.37116 782.964733 675.894995 738.390029 678.779978 709.536693 C 678.290075 709.536693 567.717229 709.481206 567.28176 709.499702 Z M 567.28176 709.499702 " transform="matrix(0.215285,0,0,0.211197,105.298464,57.987525)"/>
<path style="fill-rule:evenodd;fill:rgb(100%,100%,100%);fill-opacity:1;stroke-width:1.25;stroke-linecap:butt;stroke-linejoin:miter;stroke:rgb(100%,100%,100%);stroke-opacity:1;stroke-miterlimit:4;" d="M 453.352174 834.438344 L 453.370318 953.976233 C 501.271912 943.840574 540.28268 920.702418 562.618612 903.72334 L 562.636757 834.401352 L 453.370318 834.438344 Z M 453.352174 834.438344 " transform="matrix(0.215285,0,0,0.211197,105.298464,57.987525)"/>
<path style="fill-rule:evenodd;fill:rgb(100%,100%,100%);fill-opacity:1;stroke-width:1.25;stroke-linecap:butt;stroke-linejoin:miter;stroke:rgb(100%,100%,100%);stroke-opacity:1;stroke-miterlimit:4;" d="M 225.347845 834.216395 L 225.184544 901.762793 C 262.798182 929.728333 305.782604 946.097052 334.396549 952.3856 L 334.414694 834.253386 Z M 225.347845 834.216395 " transform="matrix(0.215285,0,0,0.211197,105.298464,57.987525)"/>
<path style="fill-rule:evenodd;fill:rgb(100%,100%,100%);fill-opacity:1;stroke-width:1.25;stroke-linecap:butt;stroke-linejoin:miter;stroke:rgb(100%,100%,100%);stroke-opacity:1;stroke-miterlimit:4;" d="M 109.313491 709.33324 C 112.887966 756.145928 132.447784 799.555401 153.459165 828.908121 L 220.521396 828.797147 L 220.539541 709.296249 L 109.331636 709.351736 Z M 109.313491 709.33324 " transform="matrix(0.215285,0,0,0.211197,105.298464,57.987525)"/>
</g>
</svg>
