<?xml version="1.0" encoding="UTF-8"?>
<svg xmlns="http://www.w3.org/2000/svg" xmlns:xlink="http://www.w3.org/1999/xlink" width="384pt" height="384pt" viewBox="0 0 384 384" version="1.1">
<g id="surface1">
<rect x="0" y="0" width="384" height="384" style="fill:rgb(100%,100%,100%);fill-opacity:1;stroke:none;"/>
<path style=" stroke:none;fill-rule:evenodd;fill:rgb(0%,0%,80%);fill-opacity:1;" d="M 464.574219 86.421875 L -84 86.421875 L -84 36.003906 L 464.574219 36.003906 Z M 464.574219 86.421875 "/>
<path style=" stroke:none;fill-rule:evenodd;fill:rgb(0%,0%,80%);fill-opacity:1;" d="M 464.574219 349.261719 L -84 349.261719 L -84 298.839844 L 464.574219 298.839844 Z M 464.574219 349.261719 "/>
<path style=" stroke:none;fill-rule:evenodd;fill:rgb(0%,0%,80%);fill-opacity:1;" d="M 102.324219 143.085938 L 184.914062 286.738281 L 269.28125 143.675781 Z M 102.324219 143.085938 "/>
<path style=" stroke:none;fill-rule:evenodd;fill:rgb(100%,100%,100%);fill-opacity:1;" d="M 169.3125 238.359375 L 185.023438 264.988281 L 201.074219 238.46875 Z M 169.3125 238.359375 "/>
<path style=" stroke:none;fill-rule:evenodd;fill:rgb(0%,0%,80%);fill-opacity:1;" d="M 102.015625 240.433594 L 184.613281 96.78125 L 268.972656 239.84375 Z M 102.015625 240.433594 "/>
<path style=" stroke:none;fill-rule:evenodd;fill:rgb(100%,100%,100%);fill-opacity:1;" d="M 169.3125 143.707031 L 185.023438 117.078125 L 201.074219 143.597656 Z M 169.3125 143.707031 "/>
<path style=" stroke:none;fill-rule:evenodd;fill:rgb(100%,100%,100%);fill-opacity:1;" d="M 136.476562 203.332031 L 120.246094 230.320312 L 150.921875 230.222656 Z M 136.476562 203.332031 "/>
<path style=" stroke:none;fill-rule:evenodd;fill:rgb(100%,100%,100%);fill-opacity:1;" d="M 120.523438 153.457031 L 151.445312 153.675781 L 136.566406 180.871094 Z M 120.523438 153.457031 "/>
<path style=" stroke:none;fill-rule:evenodd;fill:rgb(100%,100%,100%);fill-opacity:1;" d="M 233.953125 203.640625 L 249.578125 230.320312 L 218.292969 229.921875 Z M 233.953125 203.640625 "/>
<path style=" stroke:none;fill-rule:evenodd;fill:rgb(100%,100%,100%);fill-opacity:1;" d="M 249.292969 153.457031 L 218.375 153.675781 L 233.25 180.871094 Z M 249.292969 153.457031 "/>
<path style=" stroke:none;fill-rule:evenodd;fill:rgb(100%,100%,100%);fill-opacity:1;" d="M 163.589844 153.425781 L 142.292969 192.0625 L 163.894531 229.785156 L 203.441406 230.699219 L 227.476562 192.0625 L 205.265625 153.125 Z M 163.589844 153.425781 "/>
</g>
</svg>
