<?xml version="1.0" encoding="UTF-8"?>
<svg xmlns="http://www.w3.org/2000/svg" xmlns:xlink="http://www.w3.org/1999/xlink" width="384pt" height="384pt" viewBox="0 0 384 384" version="1.1">
<defs>
<clipPath id="clip1">
  <path d="M 0 0 L 383.996094 0 L 383.996094 383.996094 L 0 383.996094 Z M 0 0 "/>
</clipPath>
</defs>
<g id="surface1">
<g clip-path="url(#clip1)" clip-rule="nonzero">
<path style=" stroke:none;fill-rule:evenodd;fill:rgb(72.941176%,0%,0%);fill-opacity:1;" d="M 472.070312 383.996094 L -76.5 383.996094 L -76.5 0 L 472.070312 0 Z M 472.070312 383.996094 "/>
</g>
<path style="fill-rule:evenodd;fill:rgb(100%,93.72549%,0%);fill-opacity:0.988235;stroke-width:1.25;stroke-linecap:butt;stroke-linejoin:miter;stroke:rgb(0%,0%,0%);stroke-opacity:1;stroke-miterlimit:4;" d="M 238.861436 224.499199 C 238.98116 224.133726 239.223758 220.35928 239.104034 220.35928 C 238.98116 220.35928 233.382503 213.78708 233.502227 213.78708 C 233.625101 213.78708 240.685647 215.368693 240.685647 215.126095 C 240.685647 214.883497 243.486551 208.185273 243.486551 208.065549 C 243.486551 207.942675 246.895525 216.222512 246.895525 216.222512 L 253.833197 219.266014 L 248.965484 223.283058 C 248.965484 223.283058 250.05875 231.074549 250.05875 231.197423 C 250.05875 231.317147 245.191038 226.569158 245.191038 226.569158 L 239.831828 227.177228 C 239.831828 227.177228 239.104034 224.741797 238.861436 224.499199 Z M 238.861436 224.499199 " transform="matrix(1.239834,0,0,1.239834,-85.382941,3.666039)"/>
<path style="fill-rule:evenodd;fill:rgb(100%,100%,100%);fill-opacity:1;stroke-width:1.5945;stroke-linecap:butt;stroke-linejoin:miter;stroke:rgb(0%,0%,0%);stroke-opacity:1;stroke-miterlimit:4;" d="M 201.139027 122.19847 C 196.513912 124.583491 178.760152 144.876654 176.32472 148.039879 C 174.286267 152.636638 170.294428 158.449538 166.186015 162.192478 C 161.797197 165.510084 159.358615 170.043831 159.963535 174.33813 C 159.916276 179.678436 162.909367 183.317405 165.29754 187.076099 C 166.709019 188.793188 168.608844 189.902207 170.628394 190.037684 C 174.771463 190.582742 175.140086 191.858744 177.213196 192.649551 C 185.382761 203.7744 197.572522 211.975472 206.350157 218.475207 C 211.945664 221.424191 215.836683 224.373174 217.169397 225.983142 C 219.740305 230.888662 219.264561 235.674458 218.914842 238.024823 C 216.740912 246.222744 214.570133 254.417515 212.396203 262.615436 C 211.299786 269.31051 217.118987 267.804512 217.434049 266.465497 C 220.058518 263.056523 223.977893 265.450996 229.57655 245.728096 C 232.144308 242.271863 234.712066 238.81563 237.279823 235.359396 C 237.279823 235.359396 240.24456 234.174762 240.24456 233.878603 C 244.7468 228.468984 241.318922 225.375072 238.760616 224.401529 C 236.885996 223.708392 235.008224 223.018406 233.133604 222.325269 C 233.133604 222.325269 226.614965 215.80978 226.318806 215.80978 C 223.221744 206.798999 208.023138 187.567596 204.49129 184.889566 C 202.046406 182.340712 200.883827 181.256898 198.564968 179.839117 C 194.998463 178.13463 193.845335 177.580121 191.661953 176.707398 C 189.840893 175.976454 191.135799 173.978959 192.295228 173.068429 C 204.333759 166.511982 213.876996 159.227742 225.43033 151.823778 C 226.022647 151.426799 226.614965 151.032971 227.207282 150.639143 C 225.827309 142.740532 224.444185 134.838769 223.061062 126.940157 C 216.643243 124.668558 210.225424 122.396959 203.804454 120.12536 C 202.796255 120.818497 202.027503 121.508483 201.139027 122.19847 Z M 201.139027 122.19847 " transform="matrix(1.239834,0,0,1.239834,-85.382941,3.666039)"/>
<path style=" stroke:none;fill-rule:evenodd;fill:rgb(100%,92.54902%,0%);fill-opacity:1;" d="M 183.972656 309.867188 C 184.046875 309.566406 198.914062 306.847656 198.914062 306.847656 C 198.914062 306.847656 197.179688 312.359375 197.101562 312.359375 L 182.3125 316.8125 Z M 183.972656 309.867188 "/>
<path style="fill:none;stroke-width:1.25;stroke-linecap:butt;stroke-linejoin:miter;stroke:rgb(0%,0%,0%);stroke-opacity:1;stroke-miterlimit:4;" d="M 186.000283 201.821014 C 188.312841 195.670998 194.73381 190.803286 199.047013 189.46112 " transform="matrix(1.239834,0,0,1.239834,-85.382941,3.666039)"/>
<path style="fill:none;stroke-width:1.38225;stroke-linecap:butt;stroke-linejoin:miter;stroke:rgb(0%,0%,0%);stroke-opacity:1;stroke-miterlimit:4;" d="M 216.819678 247.070262 C 217.594731 246.852869 221.032061 245.84782 222.030808 245.69344 C 223.098869 245.44454 224.16378 245.164135 225.190883 244.83332 C 226.375517 244.590722 227.115914 244.367027 228.347807 244.143333 C 229.311898 243.77471 230.266537 243.52266 231.29679 243.283213 M 214.648898 254.483678 C 214.749718 254.351352 215.56573 253.626708 216.151746 253.28014 C 216.844883 253.059596 219.20785 252.057698 220.099476 251.903318 C 221.054115 251.651268 222.002453 251.370862 222.922434 251.040047 C 223.981044 250.797449 224.642675 250.576905 225.742242 250.353211 C 226.602362 249.984588 227.45303 249.732538 228.373012 249.48994 " transform="matrix(1.239834,0,0,1.239834,-85.382941,3.666039)"/>
<path style="fill:none;stroke-width:1.25;stroke-linecap:butt;stroke-linejoin:miter;stroke:rgb(0%,0%,0%);stroke-opacity:1;stroke-miterlimit:4;" d="M 219.519762 203.560158 L 219.346477 203.560158 C 219.888384 203.560158 219.557569 203.516049 218.829775 204.420278 C 218.574575 205.116566 216.362837 206.660371 214.699308 206.660371 C 213.8959 206.745438 212.660855 206.830505 211.857446 206.830505 C 211.627451 206.830505 211.312389 206.660371 211.082393 206.660371 " transform="matrix(1.239834,0,0,1.239834,-85.382941,3.666039)"/>
<path style="fill:none;stroke-width:1.25;stroke-linecap:butt;stroke-linejoin:miter;stroke:rgb(0%,0%,0%);stroke-opacity:1;stroke-miterlimit:4;" d="M 219.349628 239.02042 L 220.209748 239.02042 C 221.104525 239.02042 221.999302 239.177951 222.793259 239.190554 C 223.653379 239.190554 224.513499 239.436302 225.37677 239.436302 C 226.246342 239.559177 227.292349 239.518218 228.190276 239.647394 C 229.198475 239.682051 230.008186 239.88054 231.057343 239.88054 C 231.90171 239.912046 232.35855 240.053824 233.297436 240.053824 L 231.057343 239.88054 C 231.90171 239.912046 232.35855 240.053824 233.297436 240.053824 " transform="matrix(1.239834,0,0,1.239834,-85.382941,3.666039)"/>
<path style="fill:none;stroke-width:1.25;stroke-linecap:butt;stroke-linejoin:miter;stroke:rgb(0%,0%,0%);stroke-opacity:1;stroke-miterlimit:4;" d="M 213.489469 260.028774 C 213.580837 259.896448 214.330686 259.174955 214.866291 258.825236 C 215.499567 258.607843 217.664045 257.602795 218.483207 257.448414 C 219.355929 257.199515 220.225501 256.919109 221.063567 256.588294 C 222.033959 256.345696 222.642029 256.122002 223.647078 255.898308 C 224.437884 255.529685 225.216088 255.277635 226.057304 255.038187 " transform="matrix(1.239834,0,0,1.239834,-85.382941,3.666039)"/>
<path style="fill:none;stroke-width:1.25;stroke-linecap:butt;stroke-linejoin:miter;stroke:rgb(0%,0%,0%);stroke-opacity:1;stroke-miterlimit:4;" d="M 229.620659 230.101006 C 229.132312 231.512485 229.762437 231.868506 230.023939 232.479727 C 230.477628 233.068893 231.637058 233.969971 233.46757 234.546535 C 234.17646 234.735573 234.718367 234.92146 235.534378 235.233371 C 236.076286 235.283781 236.340938 235.419258 236.741067 235.576789 " transform="matrix(1.239834,0,0,1.239834,-85.382941,3.666039)"/>
<path style="fill:none;stroke-width:1.25;stroke-linecap:butt;stroke-linejoin:miter;stroke:rgb(0%,0%,0%);stroke-opacity:1;stroke-miterlimit:4;" d="M 161.501039 178.251203 L 161.671173 178.251203 C 161.132416 178.251203 161.45693 178.28586 162.361159 177.561217 C 162.918819 176.937394 163.388262 176.653838 163.911265 176.01111 " transform="matrix(1.239834,0,0,1.239834,-85.382941,3.666039)"/>
<path style="fill:none;stroke-width:1.25;stroke-linecap:butt;stroke-linejoin:miter;stroke:rgb(0%,0%,0%);stroke-opacity:1;stroke-miterlimit:4;" d="M 172.638491 190.510278 C 172.755064 190.510278 182.657472 185.519691 183.712931 184.45478 C 184.462779 183.909722 185.029892 183.33946 185.940422 182.721938 C 186.523287 182.416327 186.94232 182.02565 187.490528 181.688533 C 187.944218 181.030053 188.539686 180.629924 188.86735 180.028155 C 189.475421 179.502001 189.213919 178.928587 189.708567 178.295312 C 189.938562 177.646284 190.376499 176.549867 190.518277 175.954399 " transform="matrix(1.239834,0,0,1.239834,-85.382941,3.666039)"/>
<path style="fill:none;stroke-width:1.25;stroke-linecap:butt;stroke-linejoin:miter;stroke:rgb(0%,0%,0%);stroke-opacity:1;stroke-miterlimit:4;" d="M 203.130221 183.361514 C 203.183781 183.717534 202.97269 184.813951 202.988443 185.648866 C 202.953786 186.616108 201.70929 189.606049 200.203292 190.497675 " transform="matrix(1.239834,0,0,1.239834,-85.382941,3.666039)"/>
<path style="fill:none;stroke-width:1.25;stroke-linecap:butt;stroke-linejoin:miter;stroke:rgb(0%,0%,0%);stroke-opacity:1;stroke-miterlimit:4;" d="M 185.338653 183.251242 C 185.398514 183.251242 186.904512 183.739589 189.425011 184.514642 C 192.45591 185.604758 198.763457 189.577693 199.387281 190.125902 C 200.026857 190.630001 201.170533 191.07739 201.60847 191.676008 C 202.292155 192.268325 202.796255 192.94886 203.32871 193.569533 C 203.958835 194.335134 204.49444 194.984162 204.878816 195.636341 C 206.794395 197.186448 211.945664 207.939524 212.109496 208.547594 C 212.399354 209.114706 212.758525 209.905513 212.969616 210.441119 C 213.353992 210.882206 213.612343 211.502879 214.003021 212.16451 C 214.365342 213.021479 214.765471 213.409006 215.209709 214.058034 C 215.779972 214.455012 216.548724 215.204861 217.276518 215.60814 C 218.051571 216.269771 218.779365 216.540725 219.343327 216.984963 C 220.153037 217.331531 229.226831 223.065665 229.649015 223.352372 C 230.477628 224.020304 233.007579 226.641622 231.230627 228.5509 C 230.477628 229.193627 229.800244 230.047446 229.154367 230.412918 C 228.499037 231.071398 227.585357 231.364406 226.832358 231.704673 C 222.742849 232.914513 220.663438 232.479727 219.856878 232.479727 L 218.996758 232.479727 " transform="matrix(1.239834,0,0,1.239834,-85.382941,3.666039)"/>
<path style="fill:none;stroke-width:1.25;stroke-linecap:butt;stroke-linejoin:miter;stroke:rgb(0%,0%,0%);stroke-opacity:1;stroke-miterlimit:4;" d="M 165.30069 162.970682 C 166.46327 163.424372 165.993827 163.090406 167.039834 163.56615 C 167.742423 163.87176 168.205565 163.881212 168.895551 164.133262 C 169.629646 164.369558 171.677551 164.738181 172.660546 165.724326 C 173.382038 166.376505 173.933397 166.927864 174.727354 167.403608 C 175.66624 168.049486 176.340473 168.339343 177.506204 168.824539 C 178.486048 169.190012 179.582464 169.596442 180.574911 169.63425 C 181.605164 169.694111 181.854064 169.640551 182.843359 169.640551 L 185.253586 169.640551 L 182.843359 169.640551 L 185.253586 169.640551 " transform="matrix(1.239834,0,0,1.239834,-85.382941,3.666039)"/>
<path style="fill-rule:evenodd;fill:rgb(100%,90.196078%,2.352941%);fill-opacity:1;stroke-width:1.25;stroke-linecap:butt;stroke-linejoin:miter;stroke:rgb(0%,0%,0%);stroke-opacity:1;stroke-miterlimit:4;" d="M 165.029737 174.461004 C 167.613248 174.28772 171.916999 175.062773 172.002065 175.062773 C 172.002065 175.062773 177.682639 174.977706 177.682639 174.977706 C 180.669429 174.687849 181.327909 173.541022 181.816256 172.737613 C 182.934727 171.017373 183.70978 170.412453 184.569901 169.123849 C 185.946723 168.090444 187.843398 170.500671 187.928465 170.500671 C 192.748918 175.062773 188.873652 180.658279 188.618451 180.831564 C 186.208225 183.04015 185.691522 183.181928 184.226483 181.776751 C 182.761443 180.05651 182.332958 179.281457 181.12942 178.676538 C 178.80426 177.558066 173.983807 178.421337 173.89559 178.421337 C 173.810523 178.421337 171.400296 179.366524 171.400296 179.366524 C 170.221963 179.798159 169.478416 180.831564 167.439963 181.174982 C 165.373155 181.31676 164.686319 181.11827 163.652914 179.451591 C 162.276092 177.299715 162.962928 174.719355 165.029737 174.461004 Z M 165.029737 174.461004 " transform="matrix(1.239834,0,0,1.239834,-85.382941,3.666039)"/>
<path style="fill-rule:evenodd;fill:rgb(100%,93.72549%,0%);fill-opacity:0.988235;stroke-width:1.25;stroke-linecap:butt;stroke-linejoin:miter;stroke:rgb(0%,0%,0%);stroke-opacity:1;stroke-miterlimit:4;" d="M 238.861816 224.499703 C 238.98119 224.133084 239.226498 220.36017 239.103785 220.359853 C 238.981072 220.359536 233.381221 213.784697 233.503934 213.785014 C 233.626647 213.785331 240.684944 215.368109 240.684034 215.125429 C 240.687415 214.881548 243.486929 208.185638 243.487246 208.062925 C 243.486019 207.942958 246.895595 216.221312 246.895595 216.221312 L 253.83355 219.265342 L 248.964854 223.283465 C 248.964854 223.283465 250.060632 231.074207 250.060315 231.19692 C 250.061542 231.316887 245.191148 226.569025 245.191148 226.569025 L 239.832076 227.177724 C 239.832076 227.177724 239.103861 224.744219 238.861816 224.499703 Z M 238.861816 224.499703 " transform="matrix(-0.607609,-1.080733,1.080733,-0.607609,188.858052,485.049955)"/>
<path style="fill-rule:evenodd;fill:rgb(100%,100%,100%);fill-opacity:1;stroke-width:1.5945;stroke-linecap:butt;stroke-linejoin:miter;stroke:rgb(0%,0%,0%);stroke-opacity:1;stroke-miterlimit:4;" d="M 201.139036 122.201137 C 196.514902 124.582064 178.759338 144.874136 176.324464 148.041332 C 174.284463 152.634143 170.296249 158.44849 166.185739 162.191678 C 161.796761 165.510836 159.360462 170.043491 159.964472 174.337281 C 159.913779 179.679846 162.911149 183.316827 165.294638 187.074935 C 166.708003 188.79124 168.606427 189.901944 170.627012 190.036754 C 174.771732 190.585075 175.140142 191.858464 177.214929 192.649047 C 185.38551 203.77401 197.573069 211.977895 206.350736 218.474311 C 211.946039 221.424919 215.835891 224.374518 217.168397 225.983917 C 219.737316 230.890851 219.266535 235.67555 218.914 238.025532 C 216.741242 246.22321 214.570029 254.418142 212.397271 262.61582 C 211.300461 269.311196 217.120674 267.805136 217.432577 266.466041 C 220.058419 263.05561 223.978016 265.450849 229.577067 245.726534 C 232.144375 242.272351 234.713227 238.815421 237.280535 235.361238 C 237.280535 235.361238 240.242724 234.174841 240.243004 233.878614 C 244.747556 228.470224 241.319005 225.37516 238.762252 224.400352 C 236.884341 223.709614 235.007975 223.016128 233.132811 222.326934 C 233.132811 222.326934 226.616144 215.807725 226.319917 215.807445 C 223.222202 206.800814 207.931309 187.382326 204.397811 184.705366 C 200.943348 182.434285 202.355792 181.439238 198.657076 179.840469 C 195.916738 178.31787 197.801331 178.958149 191.661435 176.706176 C 189.841869 175.975951 191.137909 173.979317 192.293789 173.067735 C 204.334723 166.514537 213.877652 159.229198 225.429612 151.822777 C 226.024385 151.427052 226.614867 151.032529 227.208095 150.63955 C 225.827051 142.739028 224.441716 134.839708 223.060671 126.939186 C 216.642394 124.66805 210.224116 122.396914 203.805838 120.125778 C 202.796136 120.815931 202.030316 121.509465 201.139036 122.201137 Z M 201.139036 122.201137 " transform="matrix(-0.607609,-1.080733,1.080733,-0.607609,188.858052,485.049955)"/>
<path style=" stroke:none;fill-rule:evenodd;fill:rgb(100%,92.54902%,0%);fill-opacity:1;" d="M 323.761719 100.199219 C 323.464844 100.28125 313.808594 88.652344 313.808594 88.652344 C 313.808594 88.652344 319.460938 87.46875 319.5 87.53125 L 330.628906 98.242188 Z M 323.761719 100.199219 "/>
<path style="fill:none;stroke-width:1.25;stroke-linecap:butt;stroke-linejoin:miter;stroke:rgb(0%,0%,0%);stroke-opacity:1;stroke-miterlimit:4;" d="M 185.999516 201.820429 C 188.313959 195.672282 194.734834 190.802733 199.046144 189.460383 " transform="matrix(-0.607609,-1.080733,1.080733,-0.607609,188.858052,485.049955)"/>
<path style="fill:none;stroke-width:1.38225;stroke-linecap:butt;stroke-linejoin:miter;stroke:rgb(0%,0%,0%);stroke-opacity:1;stroke-miterlimit:4;" d="M 216.821401 247.070684 C 217.595217 246.851524 221.032335 245.849008 222.031681 245.691586 C 223.100345 245.443015 224.162137 245.161664 225.189594 244.832095 C 226.373592 244.590536 227.116515 244.368465 228.349087 244.143371 C 229.312175 243.773998 230.266707 243.522705 231.295555 243.280665 M 214.648647 254.48403 C 214.749707 254.349282 215.567695 253.627247 216.153039 253.280437 C 216.843616 253.061466 219.207211 252.059008 220.100665 251.903496 C 221.055197 251.652203 222.004059 251.372422 222.92013 251.041674 C 223.978669 250.798254 224.642643 250.57517 225.741175 250.350621 C 226.601117 249.984702 227.45559 249.731371 228.374255 249.492443 " transform="matrix(-0.607609,-1.080733,1.080733,-0.607609,188.858052,485.049955)"/>
<path style="fill:none;stroke-width:1.25;stroke-linecap:butt;stroke-linejoin:miter;stroke:rgb(0%,0%,0%);stroke-opacity:1;stroke-miterlimit:4;" d="M 219.52142 203.559925 L 219.347906 203.559962 C 219.886812 203.559332 219.557452 203.515123 218.830636 204.422151 C 218.574031 205.116434 216.361926 206.659483 214.698695 206.660524 C 213.896189 206.744277 212.661871 206.831039 211.859175 206.831554 C 211.627823 206.831603 211.313195 206.658328 211.081842 206.658377 " transform="matrix(-0.607609,-1.080733,1.080733,-0.607609,188.858052,485.049955)"/>
<path style="fill:none;stroke-width:1.25;stroke-linecap:butt;stroke-linejoin:miter;stroke:rgb(0%,0%,0%);stroke-opacity:1;stroke-miterlimit:4;" d="M 219.349628 239.01864 L 219.521598 239.02135 L 220.208618 239.02086 C 221.10159 239.020498 221.999572 239.178375 222.794548 239.191592 C 223.655082 239.191065 224.514982 239.435964 225.375516 239.435438 C 226.245516 239.55951 227.291398 239.518611 228.190747 239.648341 C 229.19923 239.680392 230.009177 239.879134 231.057299 239.879254 C 231.902051 239.913227 232.35792 240.053864 233.294656 240.052806 L 231.057299 239.879254 C 231.902051 239.913227 232.35792 240.053864 233.294656 240.052806 " transform="matrix(-0.607609,-1.080733,1.080733,-0.607609,188.858052,485.049955)"/>
<path style="fill:none;stroke-width:1.25;stroke-linecap:butt;stroke-linejoin:miter;stroke:rgb(0%,0%,0%);stroke-opacity:1;stroke-miterlimit:4;" d="M 213.489121 260.030895 C 213.583143 259.895805 214.329221 259.1731 214.868053 258.825442 C 215.500792 258.606483 217.665473 257.604239 218.482724 257.449258 C 219.356764 257.199699 220.223931 256.91736 221.0638 256.587144 C 222.03481 256.345116 222.640947 256.122044 223.649203 255.897342 C 224.437233 255.530752 225.215504 255.277952 226.059511 255.036809 " transform="matrix(-0.607609,-1.080733,1.080733,-0.607609,188.858052,485.049955)"/>
<path style="fill:none;stroke-width:1.25;stroke-linecap:butt;stroke-linejoin:miter;stroke:rgb(0%,0%,0%);stroke-opacity:1;stroke-miterlimit:4;" d="M 229.619389 230.099779 C 229.131757 231.513569 229.763417 231.868701 230.024419 232.47809 C 230.479527 233.070104 231.639054 233.971409 233.470429 234.545624 C 234.173623 234.73495 234.718919 234.922249 235.534725 235.232719 C 236.076732 235.284435 236.341065 235.41859 236.739615 235.577603 " transform="matrix(-0.607609,-1.080733,1.080733,-0.607609,188.858052,485.049955)"/>
<path style="fill:none;stroke-width:1.25;stroke-linecap:butt;stroke-linejoin:miter;stroke:rgb(0%,0%,0%);stroke-opacity:1;stroke-miterlimit:4;" d="M 161.498272 178.250205 L 161.671786 178.250168 C 161.132879 178.250798 161.457089 178.284882 162.35986 177.559912 C 162.920602 176.935416 163.387193 176.651961 163.909144 176.012885 " transform="matrix(-0.607609,-1.080733,1.080733,-0.607609,188.858052,485.049955)"/>
<path style="fill:none;stroke-width:1.25;stroke-linecap:butt;stroke-linejoin:miter;stroke:rgb(0%,0%,0%);stroke-opacity:1;stroke-miterlimit:4;" d="M 172.640976 190.511215 C 172.753906 190.509646 182.655164 185.518531 183.71267 184.454051 C 184.462733 183.910694 185.030865 183.337341 185.94104 182.721352 C 186.524333 182.416763 186.944047 182.023821 187.490777 181.687832 C 187.944588 181.028518 188.53936 180.632793 188.867724 180.029456 C 189.476027 179.500375 189.214519 178.930459 189.705234 178.295509 C 189.939881 177.646712 190.375406 176.550613 190.518587 175.955211 " transform="matrix(-0.607609,-1.080733,1.080733,-0.607609,188.858052,485.049955)"/>
<path style="fill:none;stroke-width:1.25;stroke-linecap:butt;stroke-linejoin:miter;stroke:rgb(0%,0%,0%);stroke-opacity:1;stroke-miterlimit:4;" d="M 203.130064 183.360086 C 203.183344 183.715341 202.97059 184.813795 202.986557 185.646865 C 202.952267 186.61433 201.708099 189.605183 200.204671 190.498475 " transform="matrix(-0.607609,-1.080733,1.080733,-0.607609,188.858052,485.049955)"/>
<path style="fill:none;stroke-width:1.25;stroke-linecap:butt;stroke-linejoin:miter;stroke:rgb(0%,0%,0%);stroke-opacity:1;stroke-miterlimit:4;" d="M 185.339774 183.250776 C 185.397612 183.250764 186.904424 183.740092 189.425779 184.514276 C 192.456589 185.6038 198.762471 189.579209 199.387651 190.125877 C 200.026208 190.629464 201.169677 191.077165 201.607623 191.673988 C 202.294083 192.265952 202.795549 192.94909 203.329782 193.567517 C 203.959643 194.337298 204.495255 194.985417 204.878463 195.634597 C 206.794831 197.189123 211.943508 207.941615 212.108742 208.547763 C 212.399941 209.116299 212.757951 209.906734 212.970366 210.441819 C 213.3525 210.880758 213.612818 211.504221 214.003924 212.16507 C 214.36435 213.021923 214.76724 213.411086 215.20983 214.057508 C 215.778856 214.453329 216.547731 215.207291 217.277399 215.606681 C 218.053463 216.270709 218.7795 216.541553 219.343387 216.985086 C 220.154738 217.329196 229.228813 223.06696 229.649359 223.354001 C 230.478971 224.01922 233.009301 226.641817 231.232346 228.548792 C 230.478701 229.194954 229.799586 230.049283 229.154177 230.412925 C 228.498705 231.070908 227.585887 231.363725 226.832864 231.706624 C 222.74258 232.912998 220.66169 232.480429 219.858994 232.480943 L 218.995714 232.479926 " transform="matrix(-0.607609,-1.080733,1.080733,-0.607609,188.858052,485.049955)"/>
<path style="fill:none;stroke-width:1.25;stroke-linecap:butt;stroke-linejoin:miter;stroke:rgb(0%,0%,0%);stroke-opacity:1;stroke-miterlimit:4;" d="M 165.630893 163.101416 L 165.801661 163.099835 C 165.33621 163.098389 165.576485 163.088898 166.490262 163.270113 C 167.194682 163.579405 168.209745 163.882624 168.900079 164.133394 C 169.634862 164.369395 170.554803 164.481786 170.967122 164.822033 C 171.767273 164.961052 172.23591 165.419709 172.862268 165.854991 C 173.583923 166.506502 174.134762 166.928242 174.92709 167.40262 C 175.864822 168.049108 176.608033 168.37298 177.510911 168.952885 C 178.42503 169.127062 179.101303 169.434987 180.092625 169.471847 C 181.025083 169.52983 181.859038 169.640866 182.847778 169.643745 L 185.258613 169.643746 L 182.847778 169.643745 L 185.258613 169.643746 " transform="matrix(-0.607609,-1.080733,1.080733,-0.607609,188.858052,485.049955)"/>
<path style="fill-rule:evenodd;fill:rgb(100%,90.196078%,2.352941%);fill-opacity:1;stroke-width:1.25;stroke-linecap:butt;stroke-linejoin:miter;stroke:rgb(0%,0%,0%);stroke-opacity:1;stroke-miterlimit:4;" d="M 165.031249 174.46063 C 167.611271 174.288282 171.914279 175.062944 172.001808 175.061552 C 172.004554 175.063096 177.683822 174.977789 177.683822 174.977789 C 180.668685 174.689679 181.328172 173.542388 181.815762 172.739416 C 182.936287 171.016393 183.708991 170.413477 184.571482 169.123693 C 185.947704 168.090209 187.842286 170.499953 187.928271 170.501308 C 192.748509 175.061936 188.875238 180.65898 188.61732 180.82843 C 186.206271 183.040349 185.688676 183.183081 184.227837 181.776228 C 182.762468 180.055987 182.33461 179.280499 181.126747 178.677318 C 178.802689 177.558638 173.984292 178.420714 173.894017 178.420562 C 173.810778 178.420751 171.399116 179.36727 171.399116 179.36727 C 170.221508 179.796758 169.477213 180.831308 167.440426 181.175338 C 165.372531 181.317542 164.686841 181.116371 163.651752 179.453704 C 162.273649 177.301804 162.963379 174.71851 165.031249 174.46063 Z M 165.031249 174.46063 " transform="matrix(-0.607609,-1.080733,1.080733,-0.607609,188.858052,485.049955)"/>
<path style="fill-rule:evenodd;fill:rgb(100%,93.72549%,0%);fill-opacity:0.988235;stroke-width:1.25;stroke-linecap:butt;stroke-linejoin:miter;stroke:rgb(0%,0%,0%);stroke-opacity:1;stroke-miterlimit:4;" d="M 238.861781 224.500313 C 238.980204 224.133527 239.225719 220.360181 239.101716 220.36066 C 238.98051 220.359687 233.380283 213.785097 233.501489 213.78607 C 233.625492 213.785591 240.685759 215.370519 240.686252 215.125311 C 240.686746 214.880103 243.487753 208.186027 243.484478 208.063477 C 243.48545 207.942271 246.896376 216.221511 246.896376 216.221511 L 253.833715 219.265424 L 248.964081 223.281112 C 248.964081 223.281112 250.059314 231.072805 250.059794 231.196807 C 250.058821 231.318013 245.189578 226.568478 245.189578 226.568478 L 239.832616 227.177098 C 239.832616 227.177098 239.102247 224.74467 238.861781 224.500313 Z M 238.861781 224.500313 " transform="matrix(-0.571278,1.100343,-1.100343,-0.571278,462.421458,-8.066017)"/>
<path style="fill-rule:evenodd;fill:rgb(100%,100%,100%);fill-opacity:1;stroke-width:1.5945;stroke-linecap:butt;stroke-linejoin:miter;stroke:rgb(0%,0%,0%);stroke-opacity:1;stroke-miterlimit:4;" d="M 201.139622 122.201836 C 196.514238 124.581953 178.760173 144.875635 176.325392 148.042545 C 174.284396 152.638023 170.293249 158.448335 166.183233 162.190345 C 161.797644 165.510972 159.358294 170.043466 159.964805 174.336514 C 159.916526 179.679523 162.908679 183.316193 165.296733 187.074799 C 166.706722 188.792278 168.607742 189.90337 170.629144 190.036053 C 174.772066 190.583145 175.13956 191.85851 177.214658 192.648472 C 185.384126 203.775106 197.573185 211.977034 206.34999 218.475065 C 211.945732 221.423854 215.83776 224.373223 217.169996 225.981968 C 219.739009 230.889134 219.266531 235.674923 218.914814 238.026596 C 216.741235 246.223187 214.570452 254.418326 212.396872 262.614918 C 211.30103 269.311209 217.120587 267.802112 217.434193 266.464234 C 220.059772 263.056264 223.978548 265.448592 229.577148 245.728961 C 232.145621 242.272539 234.714095 238.816116 237.279771 235.361146 C 237.279771 235.361146 240.242157 234.174581 240.2419 233.880062 C 244.749259 228.469147 241.317217 225.373262 238.760206 224.400397 C 236.885304 223.708849 235.010402 223.017301 233.132704 222.327205 C 233.132704 222.327205 226.617354 215.808827 226.320039 215.810536 C 223.222104 206.800792 207.92971 187.383805 204.398331 184.705147 C 200.943618 182.433989 202.356023 181.441541 198.656453 179.840663 C 195.91631 178.316772 197.801753 178.960247 191.661365 176.706032 C 189.842281 175.978404 191.136476 173.97877 192.292216 173.066328 C 204.332673 166.513387 213.877572 159.229027 225.431517 151.821065 C 226.023043 151.428754 226.615913 151.032196 227.207439 150.639886 C 225.824467 142.73843 224.442947 134.83977 223.061427 126.94111 C 216.641738 124.668601 210.223501 122.398889 203.806609 120.124929 C 202.795475 120.816743 202.02955 121.50905 201.139622 122.201836 Z M 201.139622 122.201836 " transform="matrix(-0.571278,1.100343,-1.100343,-0.571278,462.421458,-8.066017)"/>
<path style=" stroke:none;fill-rule:evenodd;fill:rgb(100%,92.54902%,0%);fill-opacity:1;" d="M 66.558594 89.894531 C 66.792969 90.101562 62.355469 104.546875 62.355469 104.546875 C 62.355469 104.546875 58.261719 100.46875 58.296875 100.402344 L 61.164062 85.222656 Z M 66.558594 89.894531 "/>
<path style="fill:none;stroke-width:1.25;stroke-linecap:butt;stroke-linejoin:miter;stroke:rgb(0%,0%,0%);stroke-opacity:1;stroke-miterlimit:4;" d="M 185.998351 201.819648 C 188.313062 195.672702 194.735336 190.804759 199.04675 189.460958 " transform="matrix(-0.571278,1.100343,-1.100343,-0.571278,462.421458,-8.066017)"/>
<path style="fill:none;stroke-width:1.38225;stroke-linecap:butt;stroke-linejoin:miter;stroke:rgb(0%,0%,0%);stroke-opacity:1;stroke-miterlimit:4;" d="M 216.818959 247.070341 C 217.593524 246.852803 221.030779 245.849248 222.031729 245.691676 C 223.098932 245.442905 224.164254 245.163162 225.189355 244.833299 C 226.376419 244.58975 227.117107 244.368499 228.348103 244.141191 C 229.312065 243.775621 230.263655 243.522975 231.295743 243.281785 M 214.650357 254.483342 C 214.748391 254.350793 215.565995 253.628106 216.152572 253.280965 C 216.843949 253.060466 219.205998 252.057784 220.101283 251.901821 C 221.054324 251.651971 222.002688 251.372599 222.920672 251.04155 C 223.980938 250.799931 224.642686 250.577064 225.742636 250.350343 C 226.603729 249.98493 227.455245 249.730989 228.374624 249.491516 " transform="matrix(-0.571278,1.100343,-1.100343,-0.571278,462.421458,-8.066017)"/>
<path style="fill:none;stroke-width:1.25;stroke-linecap:butt;stroke-linejoin:miter;stroke:rgb(0%,0%,0%);stroke-opacity:1;stroke-miterlimit:4;" d="M 219.520123 203.561052 L 219.349606 203.56083 C 219.885085 203.559722 219.556045 203.514001 218.830012 204.419899 C 218.574291 205.11712 216.364186 206.65862 214.699943 206.660008 C 213.895162 206.744133 212.66202 206.830554 211.857403 206.832943 C 211.62908 206.830783 211.312198 206.65805 211.082531 206.660138 " transform="matrix(-0.571278,1.100343,-1.100343,-0.571278,462.421458,-8.066017)"/>
<path style="fill:none;stroke-width:1.25;stroke-linecap:butt;stroke-linejoin:miter;stroke:rgb(0%,0%,0%);stroke-opacity:1;stroke-miterlimit:4;" d="M 219.348461 239.019114 L 219.523226 239.02068 L 220.210884 239.018663 C 221.102936 239.02058 221.9988 239.180268 222.792339 239.190731 C 223.654762 239.19028 224.513895 239.436489 225.376318 239.436038 C 226.246264 239.559482 227.291304 239.52102 228.19088 239.646831 C 229.198975 239.680801 230.008047 239.878451 231.056526 239.880803 C 231.903945 239.912992 232.359834 240.052607 233.296948 240.052427 L 231.056526 239.880803 C 231.903945 239.912992 232.359834 240.052607 233.296948 240.052427 " transform="matrix(-0.571278,1.100343,-1.100343,-0.571278,462.421458,-8.066017)"/>
<path style="fill:none;stroke-width:1.25;stroke-linecap:butt;stroke-linejoin:miter;stroke:rgb(0%,0%,0%);stroke-opacity:1;stroke-miterlimit:4;" d="M 213.490514 260.030702 C 213.580052 259.895465 214.330008 259.172398 214.867275 258.826008 C 215.499501 258.607819 217.665652 257.603893 218.483449 257.44911 C 219.357551 257.197644 220.224179 256.918107 221.064674 256.588238 C 222.034708 256.343766 222.640101 256.121757 223.648475 255.89643 C 224.437672 255.529294 225.215948 255.277878 226.056387 255.036788 " transform="matrix(-0.571278,1.100343,-1.100343,-0.571278,462.421458,-8.066017)"/>
<path style="fill:none;stroke-width:1.25;stroke-linecap:butt;stroke-linejoin:miter;stroke:rgb(0%,0%,0%);stroke-opacity:1;stroke-miterlimit:4;" d="M 229.620982 230.100276 C 229.133792 231.514076 229.764866 231.868039 230.025 232.478488 C 230.477914 233.070501 231.637294 233.970233 233.469558 234.545467 C 234.175653 234.73623 234.718169 234.919619 235.534658 235.234119 C 236.075135 235.283665 236.340719 235.419131 236.739122 235.577941 " transform="matrix(-0.571278,1.100343,-1.100343,-0.571278,462.421458,-8.066017)"/>
<path style="fill:none;stroke-width:1.25;stroke-linecap:butt;stroke-linejoin:miter;stroke:rgb(0%,0%,0%);stroke-opacity:1;stroke-miterlimit:4;" d="M 161.49984 178.250439 L 161.673153 178.249209 C 161.13063 178.250425 161.456659 178.283509 162.360246 177.56233 C 162.918603 176.935189 163.386391 176.653271 163.909312 176.012577 " transform="matrix(-0.571278,1.100343,-1.100343,-0.571278,462.421458,-8.066017)"/>
<path style="fill:none;stroke-width:1.25;stroke-linecap:butt;stroke-linejoin:miter;stroke:rgb(0%,0%,0%);stroke-opacity:1;stroke-miterlimit:4;" d="M 172.640263 190.511329 C 172.755769 190.508161 182.655541 185.521028 183.713096 184.45366 C 184.461593 183.912403 185.029197 183.337261 185.941438 182.72164 C 186.524411 182.415421 186.942624 182.024341 187.488494 181.687685 C 187.944897 181.028275 188.537767 180.631717 188.866778 180.027797 C 189.474603 179.502773 189.213661 178.931794 189.707059 178.295777 C 189.940946 177.645393 190.376609 176.549448 190.518325 175.954017 " transform="matrix(-0.571278,1.100343,-1.100343,-0.571278,462.421458,-8.066017)"/>
<path style="fill:none;stroke-width:1.25;stroke-linecap:butt;stroke-linejoin:miter;stroke:rgb(0%,0%,0%);stroke-opacity:1;stroke-miterlimit:4;" d="M 203.129323 183.361777 C 203.185449 183.71604 202.971065 184.814253 202.987972 185.646832 C 202.952014 186.616908 201.706715 189.606464 200.204028 190.500234 " transform="matrix(-0.571278,1.100343,-1.100343,-0.571278,462.421458,-8.066017)"/>
<path style="fill:none;stroke-width:1.25;stroke-linecap:butt;stroke-linejoin:miter;stroke:rgb(0%,0%,0%);stroke-opacity:1;stroke-miterlimit:4;" d="M 185.339314 183.250804 C 185.398465 183.248494 186.903949 183.741335 189.424078 184.513245 C 192.454992 185.605721 198.763895 189.579411 199.388026 190.125131 C 200.025602 190.628369 201.171072 191.07737 201.608552 191.673845 C 202.292585 192.266565 202.796204 192.949403 203.331282 193.569757 C 203.96019 194.336649 204.495698 194.98518 204.879026 195.63462 C 206.793848 197.189399 211.946141 207.940631 212.108998 208.548334 C 212.399462 209.114636 212.756758 209.905392 212.97065 210.440449 C 213.352211 210.881355 213.611108 211.503096 214.004491 212.165066 C 214.362752 213.019221 214.767492 213.409043 215.211423 214.058969 C 215.778291 214.453367 216.549323 215.20682 217.275522 215.607247 C 218.053656 216.271813 218.779268 216.541193 219.342638 216.983557 C 220.153963 217.329138 229.22779 223.065906 229.649257 223.351191 C 230.478153 224.017802 233.00816 226.64125 231.233447 228.549558 C 230.478062 229.193792 229.800588 230.049628 229.155075 230.413168 C 228.498526 231.069989 227.58705 231.365709 226.832646 231.704132 C 222.743269 232.914905 220.660898 232.480173 219.859078 232.48111 L 218.996655 232.481561 " transform="matrix(-0.571278,1.100343,-1.100343,-0.571278,462.421458,-8.066017)"/>
<path style="fill:none;stroke-width:1.25;stroke-linecap:butt;stroke-linejoin:miter;stroke:rgb(0%,0%,0%);stroke-opacity:1;stroke-miterlimit:4;" d="M 165.629168 163.099261 L 165.802481 163.09803 C 165.337446 163.098066 165.57405 163.088826 166.492821 163.272122 C 167.192244 163.57995 168.21146 163.881498 168.900184 164.13453 C 169.6351 164.36713 170.557046 164.481327 170.968079 164.82173 C 171.767797 164.960336 172.234213 165.421087 172.860875 165.855441 C 173.582439 166.506776 174.134195 166.92677 174.92777 167.402268 C 175.864913 168.051729 176.606817 168.373002 177.509118 168.955352 C 178.424878 169.126011 179.100371 169.435612 180.091581 169.471248 C 181.026757 169.528876 181.858471 169.640219 182.846348 169.642086 L 185.257508 169.643415 L 182.846348 169.642086 L 185.257508 169.643415 " transform="matrix(-0.571278,1.100343,-1.100343,-0.571278,462.421458,-8.066017)"/>
<path style="fill:none;stroke-width:1.25;stroke-linecap:butt;stroke-linejoin:miter;stroke:rgb(0%,0%,0%);stroke-opacity:1;stroke-miterlimit:4;" d="M 221.240733 142.949154 L 220.894108 142.951615 C 221.532456 142.950348 221.353121 142.926305 220.379541 143.122918 C 219.363036 143.647119 218.007815 144.045423 217.107196 144.498808 C 216.079405 144.837167 214.973319 145.216175 214.009837 145.705748 C 212.914764 146.345291 211.906648 146.865136 210.910247 147.599002 C 209.917779 148.128474 208.944127 148.783077 207.981395 149.321961 C 207.02259 149.841056 206.229838 150.344939 205.399169 151.042459 C 204.707463 151.426431 203.763175 151.973489 202.990477 152.591212 C 202.26307 152.851717 201.736874 153.369861 201.26709 153.798365 C 200.357746 154.604184 199.797623 155.022791 198.856389 155.862915 C 198.361868 156.332663 197.702258 156.881022 196.963273 157.584193 C 196.184825 158.10195 195.343228 159.099797 194.72454 159.65176 C 194.327939 160.166521 193.749686 160.782692 193.175475 161.201513 C 192.734347 161.753591 192.222663 162.484303 191.626188 162.921783 C 191.272067 163.449989 190.649825 164.138698 190.075335 164.816817 C 189.610493 165.384757 188.970994 165.958175 188.526048 166.537086 C 187.928758 167.198641 187.469666 167.866547 186.804678 168.431899 C 186.685339 168.83111 186.436198 169.035011 186.289332 169.292312 " transform="matrix(-0.571278,1.100343,-1.100343,-0.571278,462.421458,-8.066017)"/>
<path style="fill-rule:evenodd;fill:rgb(100%,90.196078%,2.352941%);fill-opacity:1;stroke-width:1.25;stroke-linecap:butt;stroke-linejoin:miter;stroke:rgb(0%,0%,0%);stroke-opacity:1;stroke-miterlimit:4;" d="M 165.03136 174.460872 C 167.611806 174.28911 171.914588 175.062057 172.000572 175.063566 C 172.003368 175.062115 177.685372 174.976994 177.685372 174.976994 C 180.669878 174.687752 181.328865 173.543311 181.815441 172.736885 C 182.934915 171.016115 183.709279 170.415277 184.571752 169.12259 C 185.948291 168.088413 187.842324 170.498893 187.928308 170.500402 C 192.749593 175.061835 188.874981 180.658993 188.615463 180.829231 C 186.207014 183.041712 185.690566 183.182041 184.226147 181.776824 C 182.763944 180.054503 182.333622 179.28036 181.126641 178.678693 C 178.802745 177.55995 173.983672 178.418262 173.896343 178.421001 C 173.810359 178.419492 171.398141 179.36657 171.398141 179.36657 C 170.222363 179.795962 169.478579 180.831777 167.440434 181.172839 C 165.375356 181.318433 164.684587 181.116163 163.650259 179.45215 C 162.274541 177.301524 162.96375 174.717831 165.03136 174.460872 Z M 165.03136 174.460872 " transform="matrix(-0.571278,1.100343,-1.100343,-0.571278,462.421458,-8.066017)"/>
<path style="fill-rule:evenodd;fill:rgb(100%,93.72549%,0%);fill-opacity:0.988235;stroke-width:3.003;stroke-linecap:butt;stroke-linejoin:miter;stroke:rgb(0%,0%,0%);stroke-opacity:1;stroke-miterlimit:4;" d="M 469.838476 290.149157 C 467.567664 288.082719 512.650842 306.483862 518.857727 306.695804 C 527.335424 303.592362 562.290783 274.018826 562.290783 274.018826 C 562.631404 276.917896 563.872781 284.426712 567.248721 286.01628 C 553.737392 296.976731 541.467441 307.520866 527.956112 318.481316 C 528.917422 335.860594 525.753425 354.261736 534.571743 373.707453 C 534.571743 373.707453 524.027608 373.911826 524.027608 373.707453 C 514.717281 364.397125 511.409465 319.51832 511.409465 319.51832 C 496.588636 312.902689 481.767806 306.491431 466.946976 299.868231 C 469.081538 298.490605 470.807355 294.221479 469.838476 290.149157 Z M 469.838476 290.149157 " transform="matrix(0.51606,0,0,0.51606,-76.5,0.000000791175)"/>
<path style="fill:none;stroke-width:3.003;stroke-linecap:butt;stroke-linejoin:miter;stroke:rgb(0%,0%,0%);stroke-opacity:1;stroke-miterlimit:4;" d="M 512.741675 336.14823 C 513.460765 335.625943 504.6046 340.265968 502.333789 341.424082 C 461.368349 363.276858 440.295218 395.06065 438.978147 396.26418 C 438.274195 397.619098 436.964694 399.420608 435.776303 401.191841 C 434.814992 402.675438 433.437367 404.212021 432.529042 405.710756 C 431.272526 407.444143 428.638385 410.880637 427.192635 412.402081 C 427.01854 413.386099 427.881448 412.069029 427.593812 412.719995 " transform="matrix(0.51606,0,0,0.51606,-76.5,0.000000791175)"/>
<path style="fill:none;stroke-width:3.003;stroke-linecap:butt;stroke-linejoin:miter;stroke:rgb(0%,0%,0%);stroke-opacity:1;stroke-miterlimit:4;" d="M 540.733212 310.177715 C 539.938428 309.776539 548.10578 315.529261 550.179788 317.020427 C 588.35213 343.452674 626.251974 347.661244 627.924805 348.274363 C 629.453818 348.289502 631.656506 348.622554 633.76836 348.872344 C 635.532024 349.046439 637.522769 349.568726 639.271294 349.689836 C 641.390718 350.015319 645.652274 350.787395 647.665727 351.370236 C 648.619468 351.0826 647.060177 350.923643 647.764129 350.870658 " transform="matrix(0.51606,0,0,0.51606,-76.5,0.000000791175)"/>
</g>
</svg>
