<?xml version="1.0" encoding="UTF-8"?>
<svg xmlns="http://www.w3.org/2000/svg" xmlns:xlink="http://www.w3.org/1999/xlink" width="384pt" height="384pt" viewBox="0 0 384 384" version="1.1">
<defs>
<clipPath id="clip1">
  <path d="M 0.00390625 0 L 384 0 L 384 384 L 0.00390625 384 Z M 0.00390625 0 "/>
</clipPath>
<clipPath id="clip2">
  <path d="M 0.00390625 256 L 384 256 L 384 384 L 0.00390625 384 Z M 0.00390625 256 "/>
</clipPath>
<clipPath id="clip3">
  <path d="M 0.00390625 0 L 384 0 L 384 128 L 0.00390625 128 Z M 0.00390625 0 "/>
</clipPath>
</defs>
<g id="surface1">
<g clip-path="url(#clip1)" clip-rule="nonzero">
<rect x="0" y="0" width="384" height="384" style="fill:rgb(100%,100%,100%);fill-opacity:1;stroke:none;"/>
</g>
<g clip-path="url(#clip2)" clip-rule="nonzero">
<path style=" stroke:none;fill-rule:evenodd;fill:rgb(19.607843%,57.254902%,1.176471%);fill-opacity:1;" d="M -96 256 L 480.003906 256 L 480.003906 384 L -96 384 Z M -96 256 "/>
</g>
<g clip-path="url(#clip3)" clip-rule="nonzero">
<path style=" stroke:none;fill-rule:evenodd;fill:rgb(90.588235%,45.098039%,0%);fill-opacity:1;" d="M -96 0 L 480.003906 0 L 480.003906 128 L -96 128 Z M -96 0 "/>
</g>
<path style=" stroke:none;fill-rule:evenodd;fill:rgb(3.137255%,22.352941%,61.176471%);fill-opacity:1;" d="M 252.59375 192 C 252.59375 158.535156 225.464844 131.40625 192 131.40625 C 158.535156 131.40625 131.40625 158.535156 131.40625 192 C 131.40625 225.464844 158.535156 252.59375 192 252.59375 C 225.464844 252.59375 252.59375 225.464844 252.59375 192 Z M 252.59375 192 "/>
<path style=" stroke:none;fill-rule:evenodd;fill:rgb(100%,100%,100%);fill-opacity:1;" d="M 244.507812 178.402344 C 244.839844 179.613281 244.910156 180.257812 245.152344 181.417969 C 242.773438 182.152344 241.539062 183.734375 241.824219 185.320312 C 242.0625 186.746094 243.117188 188.777344 246.089844 188.347656 C 246.167969 189.527344 246.203125 190.203125 246.207031 191.460938 C 237.226562 191.480469 227.757812 190.964844 218.925781 190.179688 C 212.410156 189.617188 210.859375 191.425781 207.46875 191.710938 C 203.539062 192.035156 200.441406 191.800781 192.324219 192.121094 C 200.28125 190.480469 203.410156 189.484375 207.09375 188.890625 C 210.640625 188.339844 212.007812 189.625 218.609375 187.054688 C 226.945312 183.742188 235.847656 180.777344 244.507812 178.402344 Z M 244.507812 178.402344 "/>
<path style=" stroke:none;fill-rule:evenodd;fill:rgb(100%,100%,100%);fill-opacity:1;" d="M 179 139.847656 C 180.214844 139.527344 180.859375 139.460938 182.019531 139.226562 C 182.738281 141.605469 184.316406 142.855469 185.902344 142.578125 C 187.328125 142.347656 189.367188 141.308594 188.953125 138.332031 C 190.136719 138.261719 190.8125 138.230469 192.070312 138.234375 C 192.03125 147.21875 191.453125 156.679688 190.613281 165.507812 C 190.003906 172.019531 191.804688 173.582031 192.070312 176.972656 C 192.367188 180.90625 192.113281 184 192.378906 192.121094 C 190.789062 184.152344 189.816406 181.019531 189.246094 177.328125 C 188.71875 173.777344 190.011719 172.421875 187.488281 165.804688 C 184.226562 157.445312 181.320312 148.527344 179 139.847656 Z M 179 139.847656 "/>
<path style=" stroke:none;fill-rule:evenodd;fill:rgb(100%,100%,100%);fill-opacity:1;" d="M 192.800781 138.171875 C 194.054688 138.167969 194.699219 138.269531 195.878906 138.34375 C 195.964844 140.828125 197.171875 142.433594 198.773438 142.574219 C 200.214844 142.71875 202.449219 142.230469 202.8125 139.25 C 203.972656 139.484375 204.636719 139.628906 205.847656 139.953125 C 203.515625 148.625 200.535156 157.625 197.464844 165.945312 C 195.214844 172.085938 196.554688 174.058594 195.945312 177.402344 C 195.226562 181.28125 194.1875 184.207031 192.371094 192.128906 C 192.871094 184.015625 192.730469 180.738281 193.121094 177.027344 C 193.519531 173.457031 195.117188 172.476562 194.367188 165.433594 C 193.355469 156.519531 192.824219 147.152344 192.800781 138.171875 Z M 192.800781 138.171875 "/>
<path style=" stroke:none;fill-rule:evenodd;fill:rgb(100%,100%,100%);fill-opacity:1;" d="M 206.714844 140.117188 C 207.929688 140.4375 208.523438 140.703125 209.644531 141.074219 C 209.085938 143.5 209.832031 145.363281 211.347656 145.914062 C 212.703125 146.425781 214.988281 146.53125 216.109375 143.742188 C 217.167969 144.269531 217.769531 144.578125 218.855469 145.207031 C 214.363281 152.984375 209.160156 160.910156 204.046875 168.152344 C 200.285156 173.503906 201.070312 175.753906 199.617188 178.828125 C 197.921875 182.390625 196.164062 184.949219 192.359375 192.128906 C 194.941406 184.425781 195.652344 181.222656 196.988281 177.734375 C 198.292969 174.390625 200.089844 173.855469 201.1875 166.859375 C 202.507812 157.984375 204.417969 148.800781 206.714844 140.117188 Z M 206.714844 140.117188 "/>
<path style=" stroke:none;fill-rule:evenodd;fill:rgb(100%,100%,100%);fill-opacity:1;" d="M 219.652344 145.589844 C 220.742188 146.214844 221.246094 146.625 222.234375 147.273438 C 221.070312 149.472656 221.308594 151.464844 222.632812 152.386719 C 223.804688 153.230469 225.988281 153.925781 227.789062 151.519531 C 228.675781 152.304688 229.179688 152.757812 230.066406 153.644531 C 223.71875 159.996094 216.644531 166.308594 209.832031 171.988281 C 204.816406 176.183594 204.996094 178.5625 202.796875 181.15625 C 200.238281 184.15625 197.878906 186.175781 192.351562 192.132812 C 196.832031 185.351562 198.347656 182.441406 200.539062 179.421875 C 202.664062 176.527344 204.539062 176.472656 207.40625 169.996094 C 210.972656 161.765625 215.1875 153.386719 219.652344 145.589844 Z M 219.652344 145.589844 "/>
<path style=" stroke:none;fill-rule:evenodd;fill:rgb(100%,100%,100%);fill-opacity:1;" d="M 230.679688 154.160156 C 231.570312 155.042969 231.953125 155.570312 232.742188 156.449219 C 231.050781 158.277344 230.773438 160.265625 231.8125 161.492188 C 232.730469 162.613281 234.664062 163.84375 237.019531 161.980469 C 237.679688 162.964844 238.046875 163.535156 238.675781 164.621094 C 230.910156 169.128906 222.453125 173.414062 214.410156 177.152344 C 208.484375 179.921875 208.046875 182.261719 205.257812 184.203125 C 202.011719 186.449219 199.214844 187.792969 192.339844 192.128906 C 198.414062 186.730469 200.625 184.304688 203.519531 181.949219 C 206.316406 179.699219 208.140625 180.128906 212.574219 174.605469 C 218.136719 167.566406 224.363281 160.546875 230.679688 154.160156 Z M 230.679688 154.160156 "/>
<path style=" stroke:none;fill-rule:evenodd;fill:rgb(100%,100%,100%);fill-opacity:1;" d="M 239.300781 165.566406 C 239.929688 166.652344 240.160156 167.261719 240.691406 168.316406 C 238.578125 169.632812 237.789062 171.480469 238.46875 172.941406 C 239.0625 174.257812 240.601562 175.953125 243.363281 174.777344 C 243.738281 175.898438 243.945312 176.546875 244.269531 177.761719 C 235.589844 180.070312 226.304688 181.980469 217.5625 183.472656 C 211.117188 184.585938 210.078125 186.730469 206.875 187.871094 C 203.15625 189.183594 200.101562 189.746094 192.332031 192.125 C 199.609375 188.511719 202.382812 186.753906 205.792969 185.238281 C 209.082031 183.804688 210.730469 184.695312 216.460938 180.53125 C 223.679688 175.203125 231.527344 170.070312 239.300781 165.566406 Z M 239.300781 165.566406 "/>
<path style=" stroke:none;fill-rule:evenodd;fill:rgb(100%,100%,100%);fill-opacity:1;" d="M 140.113281 205.460938 C 139.789062 204.25 139.722656 203.601562 139.488281 202.441406 C 141.871094 201.722656 143.117188 200.148438 142.839844 198.5625 C 142.609375 197.132812 141.566406 195.09375 138.589844 195.507812 C 138.523438 194.328125 138.492188 193.648438 138.496094 192.394531 C 147.476562 192.429688 156.9375 193.003906 165.769531 193.84375 C 172.28125 194.445312 173.84375 192.648438 177.230469 192.378906 C 181.164062 192.082031 184.261719 192.335938 192.382812 192.066406 C 184.414062 193.660156 181.277344 194.632812 177.589844 195.207031 C 174.039062 195.734375 172.683594 194.441406 166.066406 196.96875 C 157.707031 200.230469 148.789062 203.140625 140.113281 205.460938 Z M 140.113281 205.460938 "/>
<path style=" stroke:none;fill-rule:evenodd;fill:rgb(100%,100%,100%);fill-opacity:1;" d="M 246.273438 192.175781 C 246.285156 193.429688 246.1875 194.074219 246.125 195.253906 C 243.640625 195.359375 242.042969 196.574219 241.914062 198.179688 C 241.777344 199.617188 242.28125 201.851562 245.265625 202.191406 C 245.039062 203.355469 244.898438 204.019531 244.582031 205.230469 C 235.894531 202.960938 226.875 200.042969 218.535156 197.027344 C 212.378906 194.820312 210.414062 196.171875 207.066406 195.585938 C 203.183594 194.890625 200.25 193.875 192.316406 192.109375 C 200.433594 192.558594 203.710938 192.394531 207.425781 192.761719 C 210.996094 193.132812 211.988281 194.722656 219.023438 193.929688 C 227.929688 192.851562 237.292969 192.257812 246.273438 192.175781 Z M 246.273438 192.175781 "/>
<path style=" stroke:none;fill-rule:evenodd;fill:rgb(100%,100%,100%);fill-opacity:1;" d="M 244.417969 206.117188 C 244.105469 207.332031 243.847656 207.925781 243.480469 209.050781 C 241.054688 208.511719 239.195312 209.269531 238.65625 210.789062 C 238.152344 212.144531 238.058594 214.429688 240.855469 215.535156 C 240.335938 216.597656 240.027344 217.203125 239.410156 218.292969 C 231.601562 213.851562 223.644531 208.699219 216.367188 203.632812 C 210.992188 199.90625 208.746094 200.707031 205.664062 199.273438 C 202.089844 197.597656 199.519531 195.859375 192.3125 192.101562 C 200.039062 194.632812 203.246094 195.320312 206.738281 196.636719 C 210.089844 197.917969 210.640625 199.710938 217.644531 200.761719 C 226.523438 202.027344 235.722656 203.875 244.417969 206.117188 Z M 244.417969 206.117188 "/>
<path style=" stroke:none;fill-rule:evenodd;fill:rgb(100%,100%,100%);fill-opacity:1;" d="M 239.015625 219.113281 C 238.398438 220.207031 237.992188 220.714844 237.347656 221.707031 C 235.144531 220.554688 233.152344 220.808594 232.238281 222.132812 C 231.402344 223.3125 230.71875 225.5 233.136719 227.289062 C 232.359375 228.179688 231.90625 228.683594 231.023438 229.578125 C 224.632812 223.265625 218.28125 216.230469 212.5625 209.453125 C 208.332031 204.464844 205.957031 204.65625 203.351562 202.472656 C 200.332031 199.933594 198.300781 197.585938 192.3125 192.089844 C 199.117188 196.535156 202.039062 198.03125 205.074219 200.203125 C 207.976562 202.3125 208.042969 204.1875 214.535156 207.011719 C 222.789062 210.535156 231.195312 214.699219 239.015625 219.113281 Z M 239.015625 219.113281 "/>
<path style=" stroke:none;fill-rule:evenodd;fill:rgb(100%,100%,100%);fill-opacity:1;" d="M 230.425781 230.277344 C 229.546875 231.171875 229.023438 231.558594 228.144531 232.347656 C 226.3125 230.664062 224.324219 230.394531 223.097656 231.4375 C 221.984375 232.359375 220.761719 234.296875 222.628906 236.648438 C 221.648438 237.308594 221.082031 237.679688 219.996094 238.3125 C 215.460938 230.5625 211.144531 222.121094 207.375 214.09375 C 204.585938 208.179688 202.242188 207.75 200.289062 204.964844 C 198.03125 201.730469 196.675781 198.9375 192.316406 192.082031 C 197.738281 198.132812 200.171875 200.335938 202.539062 203.222656 C 204.800781 206.007812 204.375 207.835938 209.917969 212.25 C 216.976562 217.785156 224.015625 223.984375 230.425781 230.277344 Z M 230.425781 230.277344 "/>
<path style=" stroke:none;fill-rule:evenodd;fill:rgb(100%,100%,100%);fill-opacity:1;" d="M 219.144531 238.886719 C 218.0625 239.523438 217.457031 239.757812 216.402344 240.292969 C 215.074219 238.191406 213.222656 237.410156 211.765625 238.097656 C 210.449219 238.699219 208.765625 240.246094 209.957031 243.003906 C 208.835938 243.386719 208.191406 243.597656 206.980469 243.925781 C 204.621094 235.261719 202.65625 225.984375 201.113281 217.253906 C 199.964844 210.8125 197.8125 209.789062 196.65625 206.589844 C 195.320312 202.878906 194.742188 199.828125 192.320312 192.070312 C 195.972656 199.328125 197.746094 202.089844 199.28125 205.492188 C 200.738281 208.773438 199.851562 210.429688 204.046875 216.132812 C 209.417969 223.320312 214.597656 231.140625 219.144531 238.890625 Z M 219.144531 238.886719 "/>
<path style=" stroke:none;fill-rule:evenodd;fill:rgb(100%,100%,100%);fill-opacity:1;" d="M 206.082031 244.238281 C 204.871094 244.570312 204.226562 244.640625 203.070312 244.882812 C 202.332031 242.507812 200.746094 241.273438 199.164062 241.5625 C 197.734375 241.796875 195.707031 242.855469 196.140625 245.828125 C 194.960938 245.90625 194.28125 245.941406 193.027344 245.945312 C 193 236.964844 193.507812 227.5 194.285156 218.664062 C 194.84375 212.148438 193.035156 210.597656 192.746094 207.210938 C 192.421875 203.28125 192.652344 200.183594 192.324219 192.0625 C 193.972656 200.023438 194.96875 203.148438 195.566406 206.832031 C 196.121094 210.378906 194.835938 211.746094 197.410156 218.347656 C 200.730469 226.679688 203.703125 235.578125 206.082031 244.238281 Z M 206.082031 244.238281 "/>
<path style=" stroke:none;fill-rule:evenodd;fill:rgb(100%,100%,100%);fill-opacity:1;" d="M 192.019531 246.015625 C 190.761719 246.019531 190.121094 245.921875 188.941406 245.851562 C 188.847656 243.367188 187.640625 241.761719 186.035156 241.625 C 184.597656 241.484375 182.359375 241.976562 182.003906 244.960938 C 180.84375 244.726562 180.183594 244.585938 178.96875 244.261719 C 181.28125 235.582031 184.242188 226.578125 187.292969 218.25 C 189.53125 212.105469 188.1875 210.136719 188.792969 206.792969 C 189.503906 202.910156 190.53125 199.984375 192.335938 192.058594 C 191.851562 200.171875 191.996094 203.449219 191.613281 207.164062 C 191.226562 210.730469 189.628906 211.714844 190.394531 218.757812 C 191.425781 227.667969 191.976562 237.035156 192.019531 246.015625 Z M 192.019531 246.015625 "/>
<path style=" stroke:none;fill-rule:evenodd;fill:rgb(100%,100%,100%);fill-opacity:1;" d="M 178.101562 244.097656 C 176.890625 243.78125 176.296875 243.515625 175.171875 243.144531 C 175.722656 240.722656 174.972656 238.859375 173.457031 238.3125 C 172.101562 237.804688 169.816406 237.703125 168.703125 240.492188 C 167.640625 239.96875 167.039062 239.660156 165.949219 239.035156 C 170.425781 231.246094 175.609375 223.3125 180.710938 216.054688 C 184.457031 210.695312 183.667969 208.449219 185.117188 205.371094 C 186.804688 201.808594 188.554688 199.242188 192.34375 192.054688 C 189.78125 199.765625 189.074219 202.96875 187.746094 206.460938 C 186.449219 209.804688 184.652344 210.34375 183.574219 217.34375 C 182.269531 226.222656 180.382812 235.410156 178.101562 244.097656 Z M 178.101562 244.097656 "/>
<path style=" stroke:none;fill-rule:evenodd;fill:rgb(100%,100%,100%);fill-opacity:1;" d="M 165.109375 238.628906 C 164.019531 238.007812 163.515625 237.597656 162.527344 236.949219 C 163.6875 234.75 163.445312 232.757812 162.121094 231.835938 C 160.945312 230.996094 158.765625 230.304688 156.964844 232.710938 C 156.078125 231.929688 155.574219 231.472656 154.683594 230.585938 C 161.027344 224.226562 168.089844 217.90625 174.894531 212.21875 C 179.90625 208.015625 179.726562 205.640625 181.921875 203.042969 C 184.476562 200.039062 186.832031 198.015625 192.351562 192.054688 C 187.878906 198.835938 186.367188 201.75 184.179688 204.773438 C 182.058594 207.671875 180.183594 207.726562 177.328125 214.207031 C 173.769531 222.441406 169.5625 230.828125 165.109375 238.628906 Z M 165.109375 238.628906 "/>
<path style=" stroke:none;fill-rule:evenodd;fill:rgb(100%,100%,100%);fill-opacity:1;" d="M 153.964844 229.960938 C 153.074219 229.074219 152.691406 228.550781 151.90625 227.667969 C 153.597656 225.84375 153.878906 223.855469 152.839844 222.625 C 151.925781 221.507812 149.996094 220.273438 147.632812 222.128906 C 146.980469 221.144531 146.613281 220.574219 145.984375 219.488281 C 153.757812 214.992188 162.222656 210.722656 170.269531 206.996094 C 176.199219 204.238281 176.640625 201.898438 179.4375 199.957031 C 182.683594 197.71875 185.484375 196.378906 192.363281 192.054688 C 186.28125 197.445312 184.066406 199.863281 181.167969 202.21875 C 178.367188 204.464844 176.542969 204.03125 172.101562 209.546875 C 166.527344 216.574219 160.289062 223.582031 153.964844 229.960938 Z M 153.964844 229.960938 "/>
<path style=" stroke:none;fill-rule:evenodd;fill:rgb(100%,100%,100%);fill-opacity:1;" d="M 145.394531 218.601562 C 144.765625 217.515625 144.535156 216.90625 144.007812 215.847656 C 146.117188 214.53125 146.910156 212.6875 146.230469 211.226562 C 145.636719 209.90625 144.097656 208.210938 141.332031 209.386719 C 140.960938 208.265625 140.753906 207.617188 140.429688 206.40625 C 149.109375 204.097656 158.398438 202.191406 167.140625 200.703125 C 173.585938 199.589844 174.625 197.445312 177.828125 196.304688 C 181.546875 194.996094 184.601562 194.433594 192.371094 192.058594 C 185.09375 195.671875 182.320312 197.425781 178.910156 198.941406 C 175.617188 200.375 173.972656 199.480469 168.238281 203.640625 C 161.019531 208.96875 153.167969 214.101562 145.394531 218.601562 Z M 145.394531 218.601562 "/>
<path style=" stroke:none;fill-rule:evenodd;fill:rgb(100%,100%,100%);fill-opacity:1;" d="M 166.050781 145.019531 C 167.140625 144.394531 167.75 144.167969 168.808594 143.644531 C 170.117188 145.761719 171.957031 146.5625 173.421875 145.886719 C 174.742188 145.300781 176.445312 143.769531 175.28125 141 C 176.40625 140.628906 177.054688 140.425781 178.269531 140.109375 C 180.535156 148.800781 182.402344 158.09375 183.851562 166.84375 C 184.9375 173.292969 187.078125 174.339844 188.203125 177.550781 C 189.496094 181.277344 190.042969 184.332031 192.386719 192.113281 C 188.804688 184.816406 187.0625 182.039062 185.5625 178.621094 C 184.144531 175.324219 185.042969 173.679688 180.90625 167.929688 C 175.613281 160.6875 170.515625 152.8125 166.050781 145.019531 Z M 166.050781 145.019531 "/>
<path style=" stroke:none;fill-rule:evenodd;fill:rgb(100%,100%,100%);fill-opacity:1;" d="M 138.433594 191.390625 C 138.4375 190.136719 138.542969 189.496094 138.617188 188.316406 C 141.105469 188.238281 142.71875 187.042969 142.863281 185.441406 C 143.015625 184 142.539062 181.761719 139.558594 181.386719 C 139.796875 180.230469 139.945312 179.566406 140.277344 178.355469 C 148.9375 180.726562 157.925781 183.75 166.230469 186.855469 C 172.359375 189.136719 174.335938 187.804688 177.679688 188.433594 C 181.554688 189.167969 184.476562 190.21875 192.386719 192.074219 C 184.277344 191.535156 181 191.660156 177.289062 191.253906 C 173.722656 190.839844 172.75 189.238281 165.703125 189.953125 C 156.785156 190.925781 147.417969 191.410156 138.433594 191.390625 Z M 138.433594 191.390625 "/>
<path style=" stroke:none;fill-rule:evenodd;fill:rgb(100%,100%,100%);fill-opacity:1;" d="M 140.414062 177.59375 C 140.738281 176.382812 141.003906 175.789062 141.382812 174.667969 C 143.804688 175.230469 145.671875 174.488281 146.222656 172.976562 C 146.738281 171.625 146.851562 169.335938 144.066406 168.210938 C 144.59375 167.152344 144.90625 166.550781 145.539062 165.464844 C 153.300781 169.976562 161.214844 175.199219 168.445312 180.335938 C 173.785156 184.109375 176.039062 183.332031 179.105469 184.792969 C 182.664062 186.496094 185.21875 188.261719 192.390625 192.082031 C 184.691406 189.484375 181.488281 188.765625 178.007812 187.417969 C 174.667969 186.105469 174.136719 184.304688 167.140625 183.191406 C 158.273438 181.84375 149.089844 179.914062 140.414062 177.59375 Z M 140.414062 177.59375 "/>
<path style=" stroke:none;fill-rule:evenodd;fill:rgb(100%,100%,100%);fill-opacity:1;" d="M 145.949219 164.625 C 146.574219 163.539062 146.984375 163.035156 147.640625 162.050781 C 149.832031 163.222656 151.828125 162.988281 152.753906 161.671875 C 153.601562 160.5 154.304688 158.320312 151.90625 156.511719 C 152.691406 155.625 153.148438 155.125 154.039062 154.238281 C 160.367188 160.609375 166.65625 167.707031 172.308594 174.539062 C 176.488281 179.570312 178.867188 179.402344 181.453125 181.609375 C 184.445312 184.179688 186.453125 186.542969 192.390625 192.09375 C 185.628906 187.585938 182.722656 186.0625 179.707031 183.859375 C 176.824219 181.726562 176.777344 179.851562 170.308594 176.960938 C 162.09375 173.363281 153.726562 169.117188 145.949219 164.625 Z M 145.949219 164.625 "/>
<path style=" stroke:none;fill-rule:evenodd;fill:rgb(100%,100%,100%);fill-opacity:1;" d="M 154.851562 153.347656 C 155.742188 152.464844 156.269531 152.089844 157.164062 151.308594 C 158.96875 153.019531 160.953125 153.320312 162.195312 152.296875 C 163.324219 151.390625 164.574219 149.472656 162.738281 147.09375 C 163.730469 146.449219 164.304688 146.085938 165.398438 145.464844 C 169.820312 153.285156 174.007812 161.789062 177.65625 169.871094 C 180.359375 175.828125 182.699219 176.289062 184.609375 179.101562 C 186.816406 182.371094 188.132812 185.183594 192.390625 192.105469 C 187.058594 185.972656 184.660156 183.734375 182.332031 180.8125 C 180.113281 177.992188 180.5625 176.171875 175.089844 171.679688 C 168.113281 166.035156 161.167969 159.734375 154.851562 153.347656 Z M 154.851562 153.347656 "/>
</g>
</svg>
