<?xml version="1.0" encoding="UTF-8"?>
<svg xmlns="http://www.w3.org/2000/svg" xmlns:xlink="http://www.w3.org/1999/xlink" width="384pt" height="384pt" viewBox="0 0 384 384" version="1.1">
<g id="surface1">
<path style=" stroke:none;fill-rule:evenodd;fill:rgb(100%,100%,100%);fill-opacity:1;" d="M 0 0 L 767.984375 0 L 767.984375 383.988281 L 0 383.988281 Z M 0 0 "/>
<path style=" stroke:none;fill-rule:evenodd;fill:rgb(0%,0%,38.823529%);fill-opacity:1;" d="M 767.984375 333.921875 C 759.378906 339.097656 751.984375 351.195312 729.125 351.195312 C 683.414062 351.195312 671.984375 325.722656 637.699219 325.722656 C 614.84375 325.722656 603.414062 351.195312 580.558594 351.195312 C 534.84375 351.195312 523.417969 325.722656 489.132812 325.722656 C 466.277344 325.722656 454.847656 351.195312 431.992188 351.195312 C 386.277344 351.195312 374.851562 325.722656 340.566406 325.722656 C 317.707031 325.722656 306.28125 351.195312 283.421875 351.195312 C 237.710938 351.195312 226.28125 325.722656 191.996094 325.722656 C 169.140625 325.722656 157.710938 351.195312 134.855469 351.195312 C 89.144531 351.195312 77.714844 325.722656 43.429688 325.722656 C 20.574219 325.722656 13.714844 343.875 0.00390625 343.875 L 0.00390625 376.667969 C 13.714844 376.667969 20.574219 358.515625 43.429688 358.515625 C 77.714844 358.515625 89.144531 383.992188 134.855469 383.992188 C 157.710938 383.992188 169.140625 358.515625 191.996094 358.515625 C 226.28125 358.515625 237.710938 383.992188 283.421875 383.992188 C 306.28125 383.992188 317.707031 358.515625 340.566406 358.515625 C 374.851562 358.515625 386.277344 383.992188 431.992188 383.992188 C 454.847656 383.992188 466.277344 358.515625 489.132812 358.515625 C 523.417969 358.515625 534.84375 383.992188 580.558594 383.992188 C 603.414062 383.992188 614.84375 358.515625 637.699219 358.515625 C 671.984375 358.515625 683.414062 383.992188 729.125 383.992188 C 751.984375 383.992188 759.378906 376.773438 767.984375 371.59375 Z M 767.984375 333.921875 "/>
<path style=" stroke:none;fill-rule:evenodd;fill:rgb(0%,0%,38.823529%);fill-opacity:1;" d="M 767.984375 270.234375 C 759.378906 275.414062 751.984375 287.511719 729.125 287.511719 C 683.414062 287.511719 671.984375 262.039062 637.699219 262.039062 C 614.84375 262.039062 603.414062 287.511719 580.558594 287.511719 C 534.84375 287.511719 523.417969 262.039062 489.132812 262.039062 C 466.277344 262.039062 454.847656 287.511719 431.992188 287.511719 C 386.277344 287.511719 374.851562 262.039062 340.566406 262.039062 C 317.707031 262.039062 306.28125 287.511719 283.421875 287.511719 C 237.710938 287.511719 226.28125 262.039062 191.996094 262.039062 C 169.140625 262.039062 157.710938 287.511719 134.855469 287.511719 C 89.144531 287.511719 77.714844 262.039062 43.429688 262.039062 C 20.574219 262.039062 13.714844 280.191406 0.00390625 280.191406 L 0.00390625 312.984375 C 13.714844 312.984375 20.574219 294.832031 43.429688 294.832031 C 77.714844 294.832031 89.144531 320.304688 134.855469 320.304688 C 157.710938 320.304688 169.140625 294.832031 191.996094 294.832031 C 226.28125 294.832031 237.710938 320.304688 283.421875 320.304688 C 306.28125 320.304688 317.707031 294.832031 340.566406 294.832031 C 374.851562 294.832031 386.277344 320.304688 431.992188 320.304688 C 454.847656 320.304688 466.277344 294.832031 489.132812 294.832031 C 523.417969 294.832031 534.84375 320.304688 580.558594 320.304688 C 603.414062 320.304688 614.84375 294.832031 637.699219 294.832031 C 671.984375 294.832031 683.414062 320.304688 729.125 320.304688 C 751.984375 320.304688 759.378906 313.089844 767.984375 307.910156 Z M 767.984375 270.234375 "/>
<path style=" stroke:none;fill-rule:evenodd;fill:rgb(0%,0%,38.823529%);fill-opacity:1;" d="M 767.984375 206.554688 C 759.378906 211.730469 751.984375 223.828125 729.125 223.828125 C 683.414062 223.828125 671.984375 198.355469 637.699219 198.355469 C 614.84375 198.355469 603.414062 223.828125 580.558594 223.828125 C 534.84375 223.828125 523.417969 198.355469 489.132812 198.355469 C 466.277344 198.355469 454.847656 223.828125 431.992188 223.828125 C 386.277344 223.828125 374.851562 198.355469 340.566406 198.355469 C 317.707031 198.355469 306.28125 223.828125 283.421875 223.828125 C 237.710938 223.828125 226.28125 198.355469 191.996094 198.355469 C 169.140625 198.355469 157.710938 223.828125 134.855469 223.828125 C 89.144531 223.828125 77.714844 198.355469 43.429688 198.355469 C 20.574219 198.355469 13.714844 216.507812 0.00390625 216.507812 L 0.00390625 249.300781 C 13.714844 249.300781 20.574219 231.152344 43.429688 231.152344 C 77.714844 231.152344 89.144531 256.625 134.855469 256.625 C 157.710938 256.625 169.140625 231.152344 191.996094 231.152344 C 226.28125 231.152344 237.710938 256.625 283.421875 256.625 C 306.28125 256.625 317.707031 231.152344 340.566406 231.152344 C 374.851562 231.152344 386.277344 256.625 431.992188 256.625 C 454.847656 256.625 466.277344 231.152344 489.132812 231.152344 C 523.417969 231.152344 534.84375 256.625 580.558594 256.625 C 603.414062 256.625 614.84375 231.152344 637.699219 231.152344 C 671.984375 231.152344 683.414062 256.625 729.125 256.625 C 751.984375 256.625 759.378906 249.40625 767.984375 244.226562 Z M 767.984375 206.554688 "/>
<path style=" stroke:none;fill-rule:evenodd;fill:rgb(0%,0%,38.823529%);fill-opacity:1;" d="M 767.984375 142.871094 C 759.378906 148.046875 751.984375 160.148438 729.125 160.148438 C 683.414062 160.148438 671.984375 134.671875 637.699219 134.671875 C 614.84375 134.671875 603.414062 160.148438 580.558594 160.148438 C 534.84375 160.148438 523.417969 134.671875 489.132812 134.671875 C 466.277344 134.671875 454.847656 160.148438 431.992188 160.148438 C 386.277344 160.148438 374.851562 134.671875 340.566406 134.671875 C 317.707031 134.671875 306.28125 160.148438 283.421875 160.148438 C 237.710938 160.148438 226.28125 134.671875 191.996094 134.671875 C 169.140625 134.671875 157.710938 160.148438 134.855469 160.148438 C 89.144531 160.148438 77.714844 134.671875 43.429688 134.671875 C 20.574219 134.671875 13.714844 152.824219 0.00390625 152.824219 L 0.00390625 185.621094 C 13.714844 185.621094 20.574219 167.46875 43.429688 167.46875 C 77.714844 167.46875 89.144531 192.941406 134.855469 192.941406 C 157.710938 192.941406 169.140625 167.46875 191.996094 167.46875 C 226.28125 167.46875 237.710938 192.941406 283.421875 192.941406 C 306.28125 192.941406 317.707031 167.46875 340.566406 167.46875 C 374.851562 167.46875 386.277344 192.941406 431.992188 192.941406 C 454.847656 192.941406 466.277344 167.46875 489.132812 167.46875 C 523.417969 167.46875 534.84375 192.941406 580.558594 192.941406 C 603.414062 192.941406 614.84375 167.46875 637.699219 167.46875 C 671.984375 167.46875 683.414062 192.941406 729.125 192.941406 C 751.984375 192.941406 759.378906 185.722656 767.984375 180.546875 Z M 767.984375 142.871094 "/>
<path style=" stroke:none;fill-rule:evenodd;fill:rgb(0%,0%,38.823529%);fill-opacity:1;" d="M 767.984375 79.1875 C 759.378906 84.363281 751.984375 96.464844 729.125 96.464844 C 683.414062 96.464844 671.984375 70.992188 637.699219 70.992188 C 614.84375 70.992188 603.414062 96.464844 580.558594 96.464844 C 534.84375 96.464844 523.417969 70.992188 489.132812 70.992188 C 466.277344 70.992188 454.847656 96.464844 431.992188 96.464844 C 386.277344 96.464844 374.851562 70.992188 340.566406 70.992188 C 317.707031 70.992188 306.28125 96.464844 283.421875 96.464844 C 237.710938 96.464844 226.28125 70.992188 191.996094 70.992188 C 169.140625 70.992188 157.710938 96.464844 134.855469 96.464844 C 89.144531 96.464844 77.714844 70.992188 43.429688 70.992188 C 20.574219 70.992188 13.714844 89.140625 0.00390625 89.140625 L 0.00390625 121.9375 C 13.714844 121.9375 20.574219 103.785156 43.429688 103.785156 C 77.714844 103.785156 89.144531 129.257812 134.855469 129.257812 C 157.710938 129.257812 169.140625 103.785156 191.996094 103.785156 C 226.28125 103.785156 237.710938 129.257812 283.421875 129.257812 C 306.28125 129.257812 317.707031 103.785156 340.566406 103.785156 C 374.851562 103.785156 386.277344 129.257812 431.992188 129.257812 C 454.847656 129.257812 466.277344 103.785156 489.132812 103.785156 C 523.417969 103.785156 534.84375 129.257812 580.558594 129.257812 C 603.414062 129.257812 614.84375 103.785156 637.699219 103.785156 C 671.984375 103.785156 683.414062 129.257812 729.125 129.257812 C 751.984375 129.257812 759.378906 122.039062 767.984375 116.863281 Z M 767.984375 79.1875 "/>
<path style=" stroke:none;fill-rule:evenodd;fill:rgb(0%,0%,38.823529%);fill-opacity:1;" d="M 767.984375 15.503906 C 759.378906 20.679688 751.984375 32.78125 729.125 32.78125 C 683.414062 32.78125 671.984375 7.308594 637.699219 7.308594 C 614.84375 7.308594 603.414062 32.78125 580.558594 32.78125 C 534.84375 32.78125 523.417969 7.308594 489.132812 7.308594 C 466.277344 7.308594 454.847656 32.78125 431.992188 32.78125 C 386.277344 32.78125 374.851562 7.308594 340.566406 7.308594 C 317.707031 7.308594 306.28125 32.78125 283.421875 32.78125 C 237.710938 32.78125 226.28125 7.308594 191.996094 7.308594 C 169.140625 7.308594 157.710938 32.78125 134.855469 32.78125 C 89.144531 32.78125 77.714844 7.308594 43.429688 7.308594 C 20.574219 7.308594 13.714844 25.460938 0.00390625 25.460938 L 0.00390625 58.253906 C 13.714844 58.253906 20.574219 40.101562 43.429688 40.101562 C 77.714844 40.101562 89.144531 65.574219 134.855469 65.574219 C 157.710938 65.574219 169.140625 40.101562 191.996094 40.101562 C 226.28125 40.101562 237.710938 65.574219 283.421875 65.574219 C 306.28125 65.574219 317.707031 40.101562 340.566406 40.101562 C 374.851562 40.101562 386.277344 65.574219 431.992188 65.574219 C 454.847656 65.574219 466.277344 40.101562 489.132812 40.101562 C 523.417969 40.101562 534.84375 65.574219 580.558594 65.574219 C 603.414062 65.574219 614.84375 40.101562 637.699219 40.101562 C 671.984375 40.101562 683.414062 65.574219 729.125 65.574219 C 751.984375 65.574219 759.378906 58.355469 767.984375 53.179688 Z M 767.984375 15.503906 "/>
<path style=" stroke:none;fill-rule:evenodd;fill:rgb(0%,0%,38.823529%);fill-opacity:1;" d="M 0 0.046875 L 195.984375 0.046875 L 195.984375 118.476562 L 0 118.476562 Z M 0 0.046875 "/>
<path style=" stroke:none;fill-rule:nonzero;fill:rgb(100%,100%,100%);fill-opacity:1;" d="M 0 0.046875 L 0 13.289062 L 174.074219 118.476562 L 195.988281 118.476562 L 195.988281 105.234375 L 21.910156 0.046875 Z M 195.988281 0.046875 L 195.988281 13.289062 L 21.910156 118.476562 L 0 118.476562 L 0 105.234375 L 174.074219 0.046875 Z M 195.988281 0.046875 "/>
<path style=" stroke:none;fill-rule:nonzero;fill:rgb(100%,100%,100%);fill-opacity:1;" d="M 81.660156 0.046875 L 81.660156 118.476562 L 114.324219 118.476562 L 114.324219 0.046875 Z M 0 39.523438 L 0 79 L 195.988281 79 L 195.988281 39.523438 Z M 0 39.523438 "/>
<path style=" stroke:none;fill-rule:nonzero;fill:rgb(80%,0%,0%);fill-opacity:1;" d="M 0 47.417969 L 0 71.105469 L 195.988281 71.105469 L 195.988281 47.417969 Z M 88.195312 0.046875 L 88.195312 118.476562 L 107.792969 118.476562 L 107.792969 0.046875 Z M 88.195312 0.046875 "/>
<path style=" stroke:none;fill-rule:nonzero;fill:rgb(80%,0%,0%);fill-opacity:1;" d="M 0 118.476562 L 65.328125 79 L 79.9375 79 L 14.609375 118.476562 Z M 0 0.046875 L 65.328125 39.523438 L 50.722656 39.523438 L 0 8.875 Z M 116.050781 39.523438 L 181.378906 0.046875 L 195.988281 0.046875 L 130.65625 39.523438 Z M 195.988281 118.476562 L 130.65625 79 L 145.265625 79 L 195.988281 109.648438 Z M 195.988281 118.476562 "/>
<path style="fill-rule:evenodd;fill:rgb(63.529412%,26.27451%,0%);fill-opacity:1;stroke-width:6.9349;stroke-linecap:butt;stroke-linejoin:miter;stroke:rgb(100%,100%,100%);stroke-opacity:1;stroke-miterlimit:4;" d="M 814.971505 -301.184863 L 797.2336 407.481423 C 797.2336 444.781885 877.344337 444.781885 885.822197 407.481423 L 868.109524 -301.184863 L 814.946273 -301.184863 Z M 814.971505 -301.184863 " transform="matrix(0.154815,0,0,0.367686,158.724718,200.577282)"/>
<path style="fill-rule:evenodd;fill:rgb(0%,42.745098%,0%);fill-opacity:1;stroke-width:8.25;stroke-linecap:butt;stroke-linejoin:miter;stroke:rgb(100%,100%,100%);stroke-opacity:1;stroke-miterlimit:4;" d="M 496.059828 549.20186 L 513.775118 620.066108 L 549.195707 566.933447 L 531.486523 655.514908 L 566.919248 620.066788 L 531.482157 708.661264 L 566.934087 673.219784 L 531.496995 761.81426 L 566.92972 726.36614 L 531.494571 832.668341 L 566.917103 797.243404 L 531.481954 903.545605 L 566.933884 868.104125 L 531.498735 974.406326 L 513.766462 1027.565697 L 496.059702 1045.293077 L 478.350239 1027.552002 L 460.626698 974.418662 L 425.200003 868.105614 L 460.62011 903.534758 L 425.183222 797.244893 L 460.622534 832.680677 L 425.195839 726.36763 L 460.635152 761.803414 L 425.200205 673.221273 L 460.620313 708.650417 L 425.204572 620.074917 L 460.624679 655.504061 L 442.907447 566.932088 L 478.348702 620.075597 Z M 496.059828 549.20186 " transform="matrix(-0.176553,0.0505719,-0.0776304,-0.146261,443.485161,241.91177)"/>
<path style="fill:none;stroke-width:1.25;stroke-linecap:butt;stroke-linejoin:miter;stroke:rgb(0%,0%,0%);stroke-opacity:1;stroke-miterlimit:4;" d="M 496.059828 549.20186 L 496.059702 1045.293077 " transform="matrix(-0.176553,0.0505719,-0.0776304,-0.146261,443.485161,241.91177)"/>
<path style="fill:none;stroke-width:1.25;stroke-linecap:butt;stroke-linejoin:miter;stroke:rgb(0%,0%,0%);stroke-opacity:1;stroke-miterlimit:4;" d="M 425.200003 868.105614 L 496.053114 974.409173 L 566.933884 868.104125 " transform="matrix(-0.176553,0.0505719,-0.0776304,-0.146261,443.485161,241.91177)"/>
<path style="fill:none;stroke-width:1.25;stroke-linecap:butt;stroke-linejoin:miter;stroke:rgb(0%,0%,0%);stroke-opacity:1;stroke-miterlimit:4;" d="M 425.202427 797.251534 L 496.065732 903.53191 L 566.936308 797.250044 " transform="matrix(-0.176553,0.0505719,-0.0776304,-0.146261,443.485161,241.91177)"/>
<path style="fill:none;stroke-width:1.25;stroke-linecap:butt;stroke-linejoin:miter;stroke:rgb(0%,0%,0%);stroke-opacity:1;stroke-miterlimit:4;" d="M 425.195839 726.36763 L 496.068155 832.677829 L 566.92972 726.36614 " transform="matrix(-0.176553,0.0505719,-0.0776304,-0.146261,443.485161,241.91177)"/>
<path style="fill:none;stroke-width:1.25;stroke-linecap:butt;stroke-linejoin:miter;stroke:rgb(0%,0%,0%);stroke-opacity:1;stroke-miterlimit:4;" d="M 425.200205 673.221273 L 496.070579 761.823749 L 566.934087 673.219784 " transform="matrix(-0.176553,0.0505719,-0.0776304,-0.146261,443.485161,241.91177)"/>
<path style="fill:none;stroke-width:1.25;stroke-linecap:butt;stroke-linejoin:miter;stroke:rgb(0%,0%,0%);stroke-opacity:1;stroke-miterlimit:4;" d="M 425.204572 620.074917 L 496.05574 708.670752 L 566.938453 620.073428 " transform="matrix(-0.176553,0.0505719,-0.0776304,-0.146261,443.485161,241.91177)"/>
<path style="fill:none;stroke-width:1.25;stroke-linecap:butt;stroke-linejoin:miter;stroke:rgb(0%,0%,0%);stroke-opacity:1;stroke-miterlimit:4;" d="M 442.907447 566.932088 L 496.062049 673.23212 L 549.214912 566.940087 " transform="matrix(-0.176553,0.0505719,-0.0776304,-0.146261,443.485161,241.91177)"/>
<path style="fill-rule:evenodd;fill:rgb(0%,42.745098%,0%);fill-opacity:1;stroke-width:8.25;stroke-linecap:butt;stroke-linejoin:miter;stroke:rgb(100%,100%,100%);stroke-opacity:1;stroke-miterlimit:4;" d="M 496.049033 549.212773 L 513.767333 620.076025 L 549.20733 566.933782 L 531.487319 655.503449 L 566.926473 620.07912 L 531.484791 708.65719 L 566.923944 673.232861 L 531.482262 761.810931 L 566.921415 726.386602 L 531.496329 832.668601 L 566.935483 797.244272 L 531.492958 903.540255 L 566.920548 868.101607 L 531.489586 974.41191 L 513.782824 1027.560069 L 496.060309 1045.286385 L 478.345357 1027.548571 L 425.187927 868.112556 L 460.629586 903.531578 L 425.191299 797.240902 L 460.615518 832.673908 L 425.194671 726.369248 L 460.630453 761.816573 L 425.1972 673.215507 L 460.632982 708.662832 L 425.182289 620.075751 L 460.635511 655.509091 L 442.918054 566.927926 L 478.341429 620.078846 Z M 496.049033 549.212773 " transform="matrix(0.132773,-0.135948,0.165579,0.109787,55.376193,70.144537)"/>
<path style="fill:none;stroke-width:1.25;stroke-linecap:butt;stroke-linejoin:miter;stroke:rgb(0%,0%,0%);stroke-opacity:1;stroke-miterlimit:4;" d="M 496.049033 549.212773 L 496.060309 1045.286385 " transform="matrix(0.132773,-0.135948,0.165579,0.109787,55.376193,70.144537)"/>
<path style="fill:none;stroke-width:1.25;stroke-linecap:butt;stroke-linejoin:miter;stroke:rgb(0%,0%,0%);stroke-opacity:1;stroke-miterlimit:4;" d="M 425.187927 868.112556 L 496.063681 974.414731 L 566.932111 868.115926 " transform="matrix(0.132773,-0.135948,0.165579,0.109787,55.376193,70.144537)"/>
<path style="fill:none;stroke-width:1.25;stroke-linecap:butt;stroke-linejoin:miter;stroke:rgb(0%,0%,0%);stroke-opacity:1;stroke-miterlimit:4;" d="M 425.191299 797.240902 L 496.067053 903.543076 L 566.935483 797.244272 " transform="matrix(0.132773,-0.135948,0.165579,0.109787,55.376193,70.144537)"/>
<path style="fill:none;stroke-width:1.25;stroke-linecap:butt;stroke-linejoin:miter;stroke:rgb(0%,0%,0%);stroke-opacity:1;stroke-miterlimit:4;" d="M 425.206235 726.383567 L 496.070425 832.671422 L 566.938855 726.372617 " transform="matrix(0.132773,-0.135948,0.165579,0.109787,55.376193,70.144537)"/>
<path style="fill:none;stroke-width:1.25;stroke-linecap:butt;stroke-linejoin:miter;stroke:rgb(0%,0%,0%);stroke-opacity:1;stroke-miterlimit:4;" d="M 425.208764 673.229826 L 496.056357 761.813752 L 566.923944 673.232861 " transform="matrix(0.132773,-0.135948,0.165579,0.109787,55.376193,70.144537)"/>
<path style="fill:none;stroke-width:1.25;stroke-linecap:butt;stroke-linejoin:miter;stroke:rgb(0%,0%,0%);stroke-opacity:1;stroke-miterlimit:4;" d="M 425.193853 620.09007 L 496.058886 708.660011 L 566.926473 620.07912 " transform="matrix(0.132773,-0.135948,0.165579,0.109787,55.376193,70.144537)"/>
<path style="fill:none;stroke-width:1.25;stroke-linecap:butt;stroke-linejoin:miter;stroke:rgb(0%,0%,0%);stroke-opacity:1;stroke-miterlimit:4;" d="M 442.918054 566.927926 L 496.060572 673.224184 L 549.20733 566.933782 " transform="matrix(0.132773,-0.135948,0.165579,0.109787,55.376193,70.144537)"/>
<path style="fill-rule:evenodd;fill:rgb(0%,42.745098%,0%);fill-opacity:1;stroke-width:8.25;stroke-linecap:butt;stroke-linejoin:miter;stroke:rgb(100%,100%,100%);stroke-opacity:1;stroke-miterlimit:4;" d="M 496.061928 549.205396 L 513.772999 620.06515 L 549.204495 566.932599 L 531.502648 655.503045 L 566.919262 620.068425 L 531.500056 708.6578 L 566.916671 673.22318 L 531.497464 761.812554 L 566.914079 726.377934 L 531.499675 832.674206 L 566.916289 797.239586 L 531.501885 903.535858 L 566.9185 868.101238 L 531.495596 974.414541 L 513.764461 1027.562227 L 496.060404 1045.271021 L 478.346741 1027.566021 L 460.62079 974.404198 L 425.199754 868.115514 L 460.618579 903.542546 L 425.197543 797.253862 L 460.624868 832.663863 L 425.203832 726.375179 L 460.622657 761.802211 L 425.206424 673.220424 L 460.625249 708.647456 L 425.200516 620.082701 L 460.619341 655.509733 L 442.911968 566.926049 L 478.346779 620.085976 Z M 496.061928 549.205396 " transform="matrix(0.0851245,0.161695,-0.186876,0.080698,436.316697,-43.335196)"/>
<path style="fill:none;stroke-width:1.25;stroke-linecap:butt;stroke-linejoin:miter;stroke:rgb(0%,0%,0%);stroke-opacity:1;stroke-miterlimit:4;" d="M 496.061928 549.205396 L 496.060404 1045.271021 " transform="matrix(0.0851245,0.161695,-0.186876,0.080698,436.316697,-43.335196)"/>
<path style="fill:none;stroke-width:1.25;stroke-linecap:butt;stroke-linejoin:miter;stroke:rgb(0%,0%,0%);stroke-opacity:1;stroke-miterlimit:4;" d="M 425.199754 868.115514 L 496.058193 974.409369 L 566.938184 868.110204 " transform="matrix(0.0851245,0.161695,-0.186876,0.080698,436.316697,-43.335196)"/>
<path style="fill:none;stroke-width:1.25;stroke-linecap:butt;stroke-linejoin:miter;stroke:rgb(0%,0%,0%);stroke-opacity:1;stroke-miterlimit:4;" d="M 425.206043 797.236831 L 496.064482 903.530686 L 566.935973 797.248552 " transform="matrix(0.0851245,0.161695,-0.186876,0.080698,436.316697,-43.335196)"/>
<path style="fill:none;stroke-width:1.25;stroke-linecap:butt;stroke-linejoin:miter;stroke:rgb(0%,0%,0%);stroke-opacity:1;stroke-miterlimit:4;" d="M 425.203832 726.375179 L 496.062271 832.669034 L 566.933762 726.3869 " transform="matrix(0.0851245,0.161695,-0.186876,0.080698,436.316697,-43.335196)"/>
<path style="fill:none;stroke-width:1.25;stroke-linecap:butt;stroke-linejoin:miter;stroke:rgb(0%,0%,0%);stroke-opacity:1;stroke-miterlimit:4;" d="M 425.197924 673.237455 L 496.060061 761.807382 L 566.936354 673.232146 " transform="matrix(0.0851245,0.161695,-0.186876,0.080698,436.316697,-43.335196)"/>
<path style="fill:none;stroke-width:1.25;stroke-linecap:butt;stroke-linejoin:miter;stroke:rgb(0%,0%,0%);stroke-opacity:1;stroke-miterlimit:4;" d="M 425.200516 620.082701 L 496.062653 708.652628 L 566.938946 620.077391 " transform="matrix(0.0851245,0.161695,-0.186876,0.080698,436.316697,-43.335196)"/>
<path style="fill:none;stroke-width:1.25;stroke-linecap:butt;stroke-linejoin:miter;stroke:rgb(0%,0%,0%);stroke-opacity:1;stroke-miterlimit:4;" d="M 442.911968 566.926049 L 496.061547 673.221802 L 549.204495 566.932599 " transform="matrix(0.0851245,0.161695,-0.186876,0.080698,436.316697,-43.335196)"/>
<path style="fill-rule:evenodd;fill:rgb(0%,42.745098%,0%);fill-opacity:1;stroke-width:8.25;stroke-linecap:butt;stroke-linejoin:miter;stroke:rgb(100%,100%,100%);stroke-opacity:1;stroke-miterlimit:4;" d="M 496.065037 549.207541 L 513.770272 620.0734 L 549.197236 566.92358 L 531.487265 655.508461 L 566.927787 620.083211 L 531.489064 708.663829 L 566.919453 673.223214 L 531.490863 761.819198 L 566.921251 726.378583 L 531.496086 832.683772 L 566.926475 797.243156 L 531.491176 903.532979 L 566.931698 868.10773 L 531.496399 974.397553 L 513.779579 1027.564024 L 496.064385 1045.284332 L 478.350816 1027.558476 L 460.630399 974.41421 L 425.198038 868.097925 L 460.625176 903.549637 L 425.192815 797.233351 L 460.63856 832.672675 L 425.187592 726.368778 L 460.633337 761.808102 L 425.195926 673.228775 L 460.631538 708.652733 L 425.194127 620.073406 L 460.629739 655.497364 L 442.902473 566.934689 L 478.341509 620.067852 Z M 496.065037 549.207541 " transform="matrix(-0.117616,0.145884,-0.17666,-0.0961999,529.387565,148.348417)"/>
<path style="fill:none;stroke-width:1.25;stroke-linecap:butt;stroke-linejoin:miter;stroke:rgb(0%,0%,0%);stroke-opacity:1;stroke-miterlimit:4;" d="M 496.065037 549.207541 L 496.064385 1045.284332 " transform="matrix(-0.117616,0.145884,-0.17666,-0.0961999,529.387565,148.348417)"/>
<path style="fill:none;stroke-width:1.25;stroke-linecap:butt;stroke-linejoin:miter;stroke:rgb(0%,0%,0%);stroke-opacity:1;stroke-miterlimit:4;" d="M 425.208171 868.113291 L 496.059162 974.419759 L 566.931698 868.10773 " transform="matrix(-0.117616,0.145884,-0.17666,-0.0961999,529.387565,148.348417)"/>
<path style="fill:none;stroke-width:1.25;stroke-linecap:butt;stroke-linejoin:miter;stroke:rgb(0%,0%,0%);stroke-opacity:1;stroke-miterlimit:4;" d="M 425.202948 797.248717 L 496.072546 903.542797 L 566.926475 797.243156 " transform="matrix(-0.117616,0.145884,-0.17666,-0.0961999,529.387565,148.348417)"/>
<path style="fill:none;stroke-width:1.25;stroke-linecap:butt;stroke-linejoin:miter;stroke:rgb(0%,0%,0%);stroke-opacity:1;stroke-miterlimit:4;" d="M 425.197725 726.384144 L 496.067323 832.678223 L 566.921251 726.378583 " transform="matrix(-0.117616,0.145884,-0.17666,-0.0961999,529.387565,148.348417)"/>
<path style="fill:none;stroke-width:1.25;stroke-linecap:butt;stroke-linejoin:miter;stroke:rgb(0%,0%,0%);stroke-opacity:1;stroke-miterlimit:4;" d="M 425.195926 673.228775 L 496.0621 761.81365 L 566.929585 673.23858 " transform="matrix(-0.117616,0.145884,-0.17666,-0.0961999,529.387565,148.348417)"/>
<path style="fill:none;stroke-width:1.25;stroke-linecap:butt;stroke-linejoin:miter;stroke:rgb(0%,0%,0%);stroke-opacity:1;stroke-miterlimit:4;" d="M 425.194127 620.073406 L 496.060301 708.658281 L 566.927787 620.083211 " transform="matrix(-0.117616,0.145884,-0.17666,-0.0961999,529.387565,148.348417)"/>
<path style="fill:none;stroke-width:1.25;stroke-linecap:butt;stroke-linejoin:miter;stroke:rgb(0%,0%,0%);stroke-opacity:1;stroke-miterlimit:4;" d="M 442.902473 566.934689 L 496.053452 673.239871 L 549.207369 566.938945 " transform="matrix(-0.117616,0.145884,-0.17666,-0.0961999,529.387565,148.348417)"/>
<path style="fill-rule:evenodd;fill:rgb(0%,42.745098%,0%);fill-opacity:1;stroke-width:8.25;stroke-linecap:butt;stroke-linejoin:miter;stroke:rgb(100%,100%,100%);stroke-opacity:1;stroke-miterlimit:4;" d="M 496.060208 549.223606 L 513.768216 620.07025 L 549.219746 566.926891 L 531.480888 655.506544 L 566.930086 620.06836 L 531.493817 708.669058 L 566.925606 673.215563 L 531.489337 761.816262 L 566.938535 726.378078 L 531.499934 832.683952 L 566.916829 797.246821 L 531.493121 903.536331 L 566.927426 868.114511 L 531.503718 974.404021 L 513.784417 1027.556958 L 496.052372 1045.284232 L 478.337367 1027.553115 L 460.627027 974.411646 L 425.188938 868.113396 L 460.61643 903.543955 L 425.193234 797.229341 L 460.638136 832.675212 L 425.200047 726.376962 L 460.627539 761.807522 L 425.204527 673.229759 L 460.632019 708.660318 L 425.191598 620.067244 L 460.6365 655.513115 L 442.910898 566.914307 L 478.338575 620.081718 Z M 496.060208 549.223606 " transform="matrix(-0.116606,-0.124623,0.132582,-0.113419,206.877865,297.066234)"/>
<path style="fill:none;stroke-width:1.25;stroke-linecap:butt;stroke-linejoin:miter;stroke:rgb(0%,0%,0%);stroke-opacity:1;stroke-miterlimit:4;" d="M 496.060208 549.223606 L 496.052372 1045.284232 " transform="matrix(-0.116606,-0.124623,0.132582,-0.113419,206.877865,297.066234)"/>
<path style="fill:none;stroke-width:1.25;stroke-linecap:butt;stroke-linejoin:miter;stroke:rgb(0%,0%,0%);stroke-opacity:1;stroke-miterlimit:4;" d="M 425.188938 868.113396 L 496.056668 974.400178 L 566.927426 868.114511 " transform="matrix(-0.116606,-0.124623,0.132582,-0.113419,206.877865,297.066234)"/>
<path style="fill:none;stroke-width:1.25;stroke-linecap:butt;stroke-linejoin:miter;stroke:rgb(0%,0%,0%);stroke-opacity:1;stroke-miterlimit:4;" d="M 425.210644 797.244653 L 496.06348 903.547799 L 566.931722 797.230457 " transform="matrix(-0.116606,-0.124623,0.132582,-0.113419,206.877865,297.066234)"/>
<path style="fill:none;stroke-width:1.25;stroke-linecap:butt;stroke-linejoin:miter;stroke:rgb(0%,0%,0%);stroke-opacity:1;stroke-miterlimit:4;" d="M 425.200047 726.376962 L 496.052884 832.680108 L 566.938535 726.378078 " transform="matrix(-0.116606,-0.124623,0.132582,-0.113419,206.877865,297.066234)"/>
<path style="fill:none;stroke-width:1.25;stroke-linecap:butt;stroke-linejoin:miter;stroke:rgb(0%,0%,0%);stroke-opacity:1;stroke-miterlimit:4;" d="M 425.204527 673.229759 L 496.074589 761.811365 L 566.943015 673.230875 " transform="matrix(-0.116606,-0.124623,0.132582,-0.113419,206.877865,297.066234)"/>
<path style="fill:none;stroke-width:1.25;stroke-linecap:butt;stroke-linejoin:miter;stroke:rgb(0%,0%,0%);stroke-opacity:1;stroke-miterlimit:4;" d="M 425.209007 620.082556 L 496.079069 708.664162 L 566.930086 620.06836 " transform="matrix(-0.116606,-0.124623,0.132582,-0.113419,206.877865,297.066234)"/>
<path style="fill:none;stroke-width:1.25;stroke-linecap:butt;stroke-linejoin:miter;stroke:rgb(0%,0%,0%);stroke-opacity:1;stroke-miterlimit:4;" d="M 442.896005 566.930672 L 496.066324 673.238499 L 549.219746 566.926891 " transform="matrix(-0.116606,-0.124623,0.132582,-0.113419,206.877865,297.066234)"/>
<path style="fill-rule:evenodd;fill:rgb(0%,42.745098%,0%);fill-opacity:1;stroke-width:8.25;stroke-linecap:butt;stroke-linejoin:miter;stroke:rgb(100%,100%,100%);stroke-opacity:1;stroke-miterlimit:4;" d="M 460.627305 549.21111 L 489.283109 620.07087 L 531.495102 566.937092 L 521.318202 655.513138 L 549.208099 620.071379 L 531.493517 708.658119 L 556.742853 673.230829 L 531.503087 761.806686 L 566.934432 726.380901 L 531.494163 832.664654 L 566.925508 797.238869 L 531.489004 903.549289 L 566.932847 868.101928 L 531.496343 974.412348 L 513.769959 1027.565013 L 496.0768 1045.272209 L 478.343077 1027.561814 L 460.626315 974.400859 L 425.196556 868.105617 L 460.635239 903.542891 L 425.189216 797.242557 L 460.6279 832.679832 L 425.198141 726.38459 L 460.620561 761.816773 L 415.006562 673.234518 L 460.639753 708.65172 L 407.471808 620.075067 L 450.448175 655.501649 L 425.198192 566.922403 L 460.634645 620.074169 Z M 460.627305 549.21111 " transform="matrix(-0.203313,-0.0479779,-0.117779,0.153249,513.090868,-24.171835)"/>
<path style="fill:none;stroke-width:1.25;stroke-linecap:butt;stroke-linejoin:miter;stroke:rgb(0%,0%,0%);stroke-opacity:1;stroke-miterlimit:4;" d="M 467.213628 584.638829 L 496.054136 708.676496 L 496.064301 1045.293785 " transform="matrix(-0.203313,-0.0479779,-0.117779,0.153249,513.090868,-24.171835)"/>
<path style="fill:none;stroke-width:1.25;stroke-linecap:butt;stroke-linejoin:miter;stroke:rgb(0%,0%,0%);stroke-opacity:1;stroke-miterlimit:4;" d="M 436.233178 885.834971 L 496.069461 974.409149 L 556.736109 885.836492 " transform="matrix(-0.203313,-0.0479779,-0.117779,0.153249,513.090868,-24.171835)"/>
<path style="fill:none;stroke-width:1.25;stroke-linecap:butt;stroke-linejoin:miter;stroke:rgb(0%,0%,0%);stroke-opacity:1;stroke-miterlimit:4;" d="M 434.528411 814.950287 L 496.062121 903.54609 L 556.741269 814.951856 " transform="matrix(-0.203313,-0.0479779,-0.117779,0.153249,513.090868,-24.171835)"/>
<path style="fill:none;stroke-width:1.25;stroke-linecap:butt;stroke-linejoin:miter;stroke:rgb(0%,0%,0%);stroke-opacity:1;stroke-miterlimit:4;" d="M 435.377917 744.100586 L 496.054782 832.683031 L 555.897111 744.107198 " transform="matrix(-0.203313,-0.0479779,-0.117779,0.153249,513.090868,-24.171835)"/>
<path style="fill:none;stroke-width:1.25;stroke-linecap:butt;stroke-linejoin:miter;stroke:rgb(0%,0%,0%);stroke-opacity:1;stroke-miterlimit:4;" d="M 432.834102 690.948794 L 496.076205 761.803487 L 549.215439 690.934438 " transform="matrix(-0.203313,-0.0479779,-0.117779,0.153249,513.090868,-24.171835)"/>
<path style="fill:none;stroke-width:1.25;stroke-linecap:butt;stroke-linejoin:miter;stroke:rgb(0%,0%,0%);stroke-opacity:1;stroke-miterlimit:4;" d="M 425.193032 637.807039 L 496.066635 708.65492 L 541.468054 637.810377 " transform="matrix(-0.203313,-0.0479779,-0.117779,0.153249,513.090868,-24.171835)"/>
<path style="fill:none;stroke-width:1.25;stroke-linecap:butt;stroke-linejoin:miter;stroke:rgb(0%,0%,0%);stroke-opacity:1;stroke-miterlimit:4;" d="M 436.124753 593.232746 L 489.271942 680.120595 L 524.591874 584.657689 " transform="matrix(-0.203313,-0.0479779,-0.117779,0.153249,513.090868,-24.171835)"/>
<path style="fill-rule:evenodd;fill:rgb(0%,42.745098%,0%);fill-opacity:1;stroke-width:8.25;stroke-linecap:butt;stroke-linejoin:miter;stroke:rgb(100%,100%,100%);stroke-opacity:1;stroke-miterlimit:4;" d="M 460.633653 549.217129 L 489.277217 620.065135 L 531.503079 566.924335 L 521.318779 655.504285 L 549.205787 620.078251 L 531.501692 708.651118 L 556.747073 673.224195 L 531.503705 761.795309 L 566.929986 726.371029 L 531.492879 832.672115 L 566.91916 797.247835 L 531.50153 903.543592 L 566.927811 868.119312 L 531.490704 974.420397 L 513.772544 1027.560191 L 496.05901 1045.28308 L 478.350889 1027.567567 L 460.628704 974.418979 L 425.20381 868.116476 L 460.63953 903.542174 L 425.195159 797.244999 L 460.630878 832.670697 L 425.205984 726.368193 L 460.62144 761.820719 L 415.003594 673.226688 L 460.639691 708.6497 L 407.481786 620.075415 L 450.437301 655.508196 L 425.200733 566.914123 L 460.623614 620.072436 Z M 460.633653 549.217129 " transform="matrix(0.202583,0.050215,0.00741612,0.183535,180.575098,-103.813942)"/>
<path style="fill:none;stroke-width:1.25;stroke-linecap:butt;stroke-linejoin:miter;stroke:rgb(0%,0%,0%);stroke-opacity:1;stroke-miterlimit:4;" d="M 467.20388 584.64425 L 496.060559 708.663823 L 496.05901 1045.28308 " transform="matrix(0.202583,0.050215,0.00741612,0.183535,180.575098,-103.813942)"/>
<path style="fill:none;stroke-width:1.25;stroke-linecap:butt;stroke-linejoin:miter;stroke:rgb(0%,0%,0%);stroke-opacity:1;stroke-miterlimit:4;" d="M 436.221001 885.832247 L 496.069836 974.406274 L 556.754337 885.822456 " transform="matrix(0.202583,0.050215,0.00741612,0.183535,180.575098,-103.813942)"/>
<path style="fill:none;stroke-width:1.25;stroke-linecap:butt;stroke-linejoin:miter;stroke:rgb(0%,0%,0%);stroke-opacity:1;stroke-miterlimit:4;" d="M 434.535142 814.951418 L 496.061185 903.534798 L 556.745685 814.950979 " transform="matrix(0.202583,0.050215,0.00741612,0.183535,180.575098,-103.813942)"/>
<path style="fill:none;stroke-width:1.25;stroke-linecap:butt;stroke-linejoin:miter;stroke:rgb(0%,0%,0%);stroke-opacity:1;stroke-miterlimit:4;" d="M 435.374046 744.103451 L 496.071224 832.679491 L 555.887904 744.098989 " transform="matrix(0.202583,0.050215,0.00741612,0.183535,180.575098,-103.813942)"/>
<path style="fill:none;stroke-width:1.25;stroke-linecap:butt;stroke-linejoin:miter;stroke:rgb(0%,0%,0%);stroke-opacity:1;stroke-miterlimit:4;" d="M 432.846482 690.947896 L 496.062572 761.808014 L 549.214439 690.949728 " transform="matrix(0.202583,0.050215,0.00741612,0.183535,180.575098,-103.813942)"/>
<path style="fill:none;stroke-width:1.25;stroke-linecap:butt;stroke-linejoin:miter;stroke:rgb(0%,0%,0%);stroke-opacity:1;stroke-miterlimit:4;" d="M 425.208598 637.807098 L 496.060559 708.663823 L 541.480742 637.792577 " transform="matrix(0.202583,0.050215,0.00741612,0.183535,180.575098,-103.813942)"/>
<path style="fill:none;stroke-width:1.25;stroke-linecap:butt;stroke-linejoin:miter;stroke:rgb(0%,0%,0%);stroke-opacity:1;stroke-miterlimit:4;" d="M 436.115005 593.235278 L 489.276653 680.127148 L 524.587422 584.65133 " transform="matrix(0.202583,0.050215,0.00741612,0.183535,180.575098,-103.813942)"/>
<path style="fill-rule:evenodd;fill:rgb(0%,42.745098%,0%);fill-opacity:1;stroke-width:8.25;stroke-linecap:butt;stroke-linejoin:miter;stroke:rgb(100%,100%,100%);stroke-opacity:1;stroke-miterlimit:4;" d="M 354.327986 531.489961 L 442.918454 620.082036 L 460.631157 566.926467 L 460.62799 655.525684 L 496.052235 620.076651 L 478.349781 708.66174 L 513.777726 673.233527 L 496.053612 761.82168 L 531.503216 726.390403 L 513.769698 832.674028 L 549.219303 797.242751 L 513.772236 903.556953 L 549.22184 868.125676 L 531.488322 974.409301 L 513.775619 1027.56487 L 496.052666 1045.290919 L 478.337425 1027.563562 L 460.637293 974.424442 L 407.471509 892.132054 L 442.917508 903.551274 L 407.470225 797.258343 L 442.918669 832.68917 L 389.7721 726.382109 L 425.198884 761.816001 L 372.04661 673.225234 L 425.19434 708.670189 L 354.324818 620.089178 L 407.468849 655.513313 L 336.615282 584.64553 L 407.48026 620.080729 L 354.331684 531.510781 Z M 354.327986 531.489961 " transform="matrix(0.0258966,-0.175924,0.183014,0.0312528,86.596795,172.153803)"/>
<path style="fill:none;stroke-width:1.25;stroke-linecap:butt;stroke-linejoin:miter;stroke:rgb(0%,0%,0%);stroke-opacity:1;stroke-miterlimit:4;" d="M 378.958396 560.020682 L 442.907043 655.51462 L 460.632534 708.671496 L 469.482474 753.863678 L 478.356863 832.690477 L 487.660466 903.559277 L 496.052666 1045.290919 " transform="matrix(0.0258966,-0.175924,0.183014,0.0312528,86.596795,172.153803)"/>
<path style="fill:none;stroke-width:1.25;stroke-linecap:butt;stroke-linejoin:miter;stroke:rgb(0%,0%,0%);stroke-opacity:1;stroke-miterlimit:4;" d="M 425.196561 903.54021 L 488.854824 974.401623 L 539.618697 885.812653 " transform="matrix(0.0258966,-0.175924,0.183014,0.0312528,86.596795,172.153803)"/>
<path style="fill:none;stroke-width:1.25;stroke-linecap:butt;stroke-linejoin:miter;stroke:rgb(0%,0%,0%);stroke-opacity:1;stroke-miterlimit:4;" d="M 417.07622 814.959244 L 487.656768 903.538457 L 538.398981 814.952552 " transform="matrix(0.0258966,-0.175924,0.183014,0.0312528,86.596795,172.153803)"/>
<path style="fill:none;stroke-width:1.25;stroke-linecap:butt;stroke-linejoin:miter;stroke:rgb(0%,0%,0%);stroke-opacity:1;stroke-miterlimit:4;" d="M 407.478658 752.434838 L 478.353164 832.669656 L 524.302207 744.100325 " transform="matrix(0.0258966,-0.175924,0.183014,0.0312528,86.596795,172.153803)"/>
<path style="fill:none;stroke-width:1.25;stroke-linecap:butt;stroke-linejoin:miter;stroke:rgb(0%,0%,0%);stroke-opacity:1;stroke-miterlimit:4;" d="M 372.05802 637.792649 L 460.632534 708.671496 L 486.45649 637.80527 " transform="matrix(0.0258966,-0.175924,0.183014,0.0312528,86.596795,172.153803)"/>
<path style="fill:none;stroke-width:1.25;stroke-linecap:butt;stroke-linejoin:miter;stroke:rgb(0%,0%,0%);stroke-opacity:1;stroke-miterlimit:4;" d="M 360.611886 602.359172 L 442.907043 655.51462 L 453.424442 602.352681 " transform="matrix(0.0258966,-0.175924,0.183014,0.0312528,86.596795,172.153803)"/>
<path style="fill:none;stroke-width:1.25;stroke-linecap:butt;stroke-linejoin:miter;stroke:rgb(0%,0%,0%);stroke-opacity:1;stroke-miterlimit:4;" d="M 389.758152 690.931769 L 470.848387 761.802448 L 504.79955 690.938791 " transform="matrix(0.0258966,-0.175924,0.183014,0.0312528,86.596795,172.153803)"/>
<path style="fill-rule:evenodd;fill:rgb(80%,0%,0%);fill-opacity:1;stroke-width:1.25;stroke-linecap:butt;stroke-linejoin:miter;stroke:rgb(0%,0%,0%);stroke-opacity:1;stroke-miterlimit:4;" d="M 541.457708 1173.294626 L 539.741806 944.174355 L 478.655709 837.215661 C 463.365119 784.606233 470.915087 759.171439 495.62407 757.473024 C 520.371184 755.77461 544.85138 771.018916 580.504002 772.717331 C 616.156624 774.415745 609.36928 713.314245 661.990263 715.012659 C 714.611245 716.711074 806.240391 747.282537 884.332979 752.37778 C 962.425568 757.473024 1003.149633 725.203147 1093.101008 721.806318 C 1183.090514 718.409489 1206.846219 764.225258 1211.917661 764.225258 C 1217.027235 764.225258 1242.46071 745.584122 1267.932316 742.187293 C 1293.403922 738.790464 1301.869036 752.37778 1301.869036 752.37778 C 1301.869036 752.37778 1300.191266 810.082452 1288.294348 844.009319 C 1276.435561 877.977611 1233.995595 933.983868 1232.279693 933.983868 C 1230.601923 933.983868 1217.027235 1183.485114 1217.027235 1185.183528 C 1217.027235 1186.881943 541.457708 1178.38987 541.457708 1173.294626 Z M 541.457708 1173.294626 " transform="matrix(0.102442,0,0,0.0942975,199.77,156.1425)"/>
<path style="fill-rule:evenodd;fill:rgb(100%,94.509804%,0%);fill-opacity:1;stroke-width:1.25;stroke-linecap:butt;stroke-linejoin:miter;stroke:rgb(0%,0%,0%);stroke-opacity:1;stroke-miterlimit:4;" d="M 531.489028 584.666262 C 531.489028 584.666262 463.501193 532.553931 461.670898 407.492623 C 460.641357 335.537838 496.065193 283.466933 584.643847 283.466933 C 708.684467 283.466933 885.841775 336.614882 885.841775 336.614882 L 885.841775 354.344673 C 885.841775 354.344673 744.108302 301.155299 584.643847 301.155299 C 513.796176 301.155299 478.334209 353.26763 478.334209 406.415579 C 478.334209 494.981686 549.220011 584.666262 549.220011 584.666262 L 549.220011 726.380318 L 531.489028 726.380318 Z M 531.489028 584.666262 " transform="matrix(-0.102442,0,0,0.0942975,381.267377,189.554933)"/>
<path style="fill-rule:evenodd;fill:rgb(100%,100%,100%);fill-opacity:1;stroke-width:1.25;stroke-linecap:butt;stroke-linejoin:miter;stroke:rgb(0%,0%,0%);stroke-opacity:1;stroke-miterlimit:4;" d="M 478.368422 549.205665 C 478.368422 558.981905 470.399013 566.935456 460.637439 566.935456 C 450.837734 566.935456 442.906456 558.981905 442.906456 549.205665 C 442.906456 539.429424 450.837734 531.475873 460.637439 531.475873 C 470.399013 531.475873 478.368422 539.429424 478.368422 549.205665 Z M 478.368422 549.205665 " transform="matrix(-0.102442,0,0,0.0942975,379.626351,189.394873)"/>
<path style="fill-rule:evenodd;fill:rgb(100%,100%,100%);fill-opacity:1;stroke-width:1.25;stroke-linecap:butt;stroke-linejoin:miter;stroke:rgb(0%,0%,0%);stroke-opacity:1;stroke-miterlimit:4;" d="M 478.353839 549.217863 C 478.353839 558.994103 470.42256 566.947654 460.622856 566.947654 C 450.861282 566.947654 442.930004 558.994103 442.930004 549.217863 C 442.930004 539.441623 450.861282 531.488071 460.622856 531.488071 C 470.42256 531.488071 478.353839 539.441623 478.353839 549.217863 Z M 478.353839 549.217863 " transform="matrix(-0.102442,0,0,0.0942975,381.441263,185.57341)"/>
<path style="fill-rule:evenodd;fill:rgb(100%,100%,100%);fill-opacity:1;stroke-width:1.25;stroke-linecap:butt;stroke-linejoin:miter;stroke:rgb(0%,0%,0%);stroke-opacity:1;stroke-miterlimit:4;" d="M 478.355701 549.226816 C 478.355701 559.003056 470.424423 566.915182 460.624718 566.915182 C 450.863145 566.915182 442.931866 559.003056 442.931866 549.226816 C 442.931866 539.409151 450.863145 531.497024 460.624718 531.497024 C 470.424423 531.497024 478.355701 539.409151 478.355701 549.226816 Z M 478.355701 549.226816 " transform="matrix(-0.102442,0,0,0.0942975,382.386766,181.681941)"/>
<path style="fill-rule:evenodd;fill:rgb(100%,100%,100%);fill-opacity:1;stroke-width:1.25;stroke-linecap:butt;stroke-linejoin:miter;stroke:rgb(0%,0%,0%);stroke-opacity:1;stroke-miterlimit:4;" d="M 478.358357 549.197036 C 478.358357 559.014701 470.427079 566.926828 460.627374 566.926828 C 450.865801 566.926828 442.934522 559.014701 442.934522 549.197036 C 442.934522 539.420796 450.865801 531.50867 460.627374 531.50867 C 470.427079 531.50867 478.358357 539.420796 478.358357 549.197036 Z M 478.358357 549.197036 " transform="matrix(-0.102442,0,0,0.0942975,383.082351,177.520686)"/>
<path style="fill-rule:evenodd;fill:rgb(100%,100%,100%);fill-opacity:1;stroke-width:1.25;stroke-linecap:butt;stroke-linejoin:miter;stroke:rgb(0%,0%,0%);stroke-opacity:1;stroke-miterlimit:4;" d="M 478.338128 549.201454 C 478.338128 558.977695 470.406849 566.931246 460.645276 566.931246 C 450.845571 566.931246 442.914292 558.977695 442.914292 549.201454 C 442.914292 539.425214 450.845571 531.513088 460.645276 531.513088 C 470.406849 531.513088 478.338128 539.425214 478.338128 549.201454 Z M 478.338128 549.201454 " transform="matrix(-0.102442,0,0,0.0942975,382.908404,173.008551)"/>
<path style="fill-rule:evenodd;fill:rgb(100%,100%,100%);fill-opacity:1;stroke-width:1.25;stroke-linecap:butt;stroke-linejoin:miter;stroke:rgb(0%,0%,0%);stroke-opacity:1;stroke-miterlimit:4;" d="M 478.340897 549.227971 C 478.340897 559.004211 470.409619 566.916338 460.648045 566.916338 C 450.84834 566.916338 442.917062 559.004211 442.917062 549.227971 C 442.917062 539.410306 450.84834 531.49818 460.648045 531.49818 C 470.409619 531.49818 478.340897 539.410306 478.340897 549.227971 Z M 478.340897 549.227971 " transform="matrix(-0.102442,0,0,0.0942975,377.018062,192.75605)"/>
<path style="fill-rule:evenodd;fill:rgb(100%,100%,100%);fill-opacity:1;stroke-width:1.25;stroke-linecap:butt;stroke-linejoin:miter;stroke:rgb(0%,0%,0%);stroke-opacity:1;stroke-miterlimit:4;" d="M 478.335331 549.197056 C 478.335331 559.014721 470.404052 566.926848 460.642479 566.926848 C 450.842774 566.926848 442.911495 559.014721 442.911495 549.197056 C 442.911495 539.420816 450.842774 531.50869 460.642479 531.50869 C 470.404052 531.50869 478.335331 539.420816 478.335331 549.197056 Z M 478.335331 549.197056 " transform="matrix(-0.102442,0,0,0.0942975,381.365148,168.747247)"/>
<path style="fill-rule:evenodd;fill:rgb(100%,100%,100%);fill-opacity:1;stroke-width:1.25;stroke-linecap:butt;stroke-linejoin:miter;stroke:rgb(0%,0%,0%);stroke-opacity:1;stroke-miterlimit:4;" d="M 478.344881 549.211775 C 478.344881 558.988015 470.413602 566.941566 460.652029 566.941566 C 450.852324 566.941566 442.921046 558.988015 442.921046 549.211775 C 442.921046 539.435535 450.852324 531.481983 460.652029 531.481983 C 470.413602 531.481983 478.344881 539.435535 478.344881 549.211775 Z M 478.344881 549.211775 " transform="matrix(-0.102442,0,0,0.0942975,378.061439,165.386484)"/>
<path style="fill-rule:evenodd;fill:rgb(100%,100%,100%);fill-opacity:1;stroke-width:1.25;stroke-linecap:butt;stroke-linejoin:miter;stroke:rgb(0%,0%,0%);stroke-opacity:1;stroke-miterlimit:4;" d="M 478.368749 549.19397 C 478.368749 559.011635 470.399339 566.923762 460.637766 566.923762 C 450.838061 566.923762 442.906782 559.011635 442.906782 549.19397 C 442.906782 539.41773 450.838061 531.505604 460.637766 531.505604 C 470.399339 531.505604 478.368749 539.41773 478.368749 549.19397 Z M 478.368749 549.19397 " transform="matrix(-0.102442,0,0,0.0942975,373.540447,163.145975)"/>
<path style="fill-rule:evenodd;fill:rgb(100%,100%,100%);fill-opacity:1;stroke-width:1.25;stroke-linecap:butt;stroke-linejoin:miter;stroke:rgb(0%,0%,0%);stroke-opacity:1;stroke-miterlimit:4;" d="M 478.353486 549.197141 C 478.353486 559.014806 470.422207 566.926933 460.622502 566.926933 C 450.860929 566.926933 442.92965 559.014806 442.92965 549.197141 C 442.92965 539.420901 450.860929 531.508775 460.622502 531.508775 C 470.422207 531.508775 478.353486 539.420901 478.353486 549.197141 Z M 478.353486 549.197141 " transform="matrix(-0.102442,0,0,0.0942975,369.019352,162.825364)"/>
<path style="fill-rule:evenodd;fill:rgb(100%,100%,100%);fill-opacity:1;stroke-width:1.25;stroke-linecap:butt;stroke-linejoin:miter;stroke:rgb(0%,0%,0%);stroke-opacity:1;stroke-miterlimit:4;" d="M 478.344894 549.195556 C 478.344894 559.013221 470.413616 566.925347 460.652042 566.925347 C 450.852338 566.925347 442.921059 559.013221 442.921059 549.195556 C 442.921059 539.419316 450.852338 531.507189 460.652042 531.507189 C 470.413616 531.507189 478.344894 539.419316 478.344894 549.195556 Z M 478.344894 549.195556 " transform="matrix(-0.102442,0,0,0.0942975,364.151284,162.98567)"/>
<path style="fill-rule:evenodd;fill:rgb(100%,100%,100%);fill-opacity:1;stroke-width:1.25;stroke-linecap:butt;stroke-linejoin:miter;stroke:rgb(0%,0%,0%);stroke-opacity:1;stroke-miterlimit:4;" d="M 478.364434 549.199214 C 478.364434 558.975454 470.433156 566.929006 460.633451 566.929006 C 450.833746 566.929006 442.902468 558.975454 442.902468 549.199214 C 442.902468 539.422974 450.833746 531.510848 460.633451 531.510848 C 470.433156 531.510848 478.364434 539.422974 478.364434 549.199214 Z M 478.364434 549.199214 " transform="matrix(-0.102442,0,0,0.0942975,359.282192,163.62595)"/>
<path style="fill-rule:evenodd;fill:rgb(100%,100%,100%);fill-opacity:1;stroke-width:1.25;stroke-linecap:butt;stroke-linejoin:miter;stroke:rgb(0%,0%,0%);stroke-opacity:1;stroke-miterlimit:4;" d="M 478.345843 549.202873 C 478.345843 558.979113 470.414565 566.932664 460.61486 566.932664 C 450.853286 566.932664 442.922008 558.979113 442.922008 549.202873 C 442.922008 539.426632 450.853286 531.473081 460.61486 531.473081 C 470.414565 531.473081 478.345843 539.426632 478.345843 549.202873 Z M 478.345843 549.202873 " transform="matrix(-0.102442,0,0,0.0942975,354.4131,164.26623)"/>
<path style="fill-rule:evenodd;fill:rgb(100%,100%,100%);fill-opacity:1;stroke-width:1.25;stroke-linecap:butt;stroke-linejoin:miter;stroke:rgb(0%,0%,0%);stroke-opacity:1;stroke-miterlimit:4;" d="M 478.369055 549.214946 C 478.369055 558.991186 470.399646 566.944737 460.638072 566.944737 C 450.838367 566.944737 442.907089 558.991186 442.907089 549.214946 C 442.907089 539.438705 450.838367 531.485154 460.638072 531.485154 C 470.399646 531.485154 478.369055 539.438705 478.369055 549.214946 Z M 478.369055 549.214946 " transform="matrix(-0.102442,0,0,0.0942975,349.196728,165.065872)"/>
<path style="fill-rule:evenodd;fill:rgb(100%,100%,100%);fill-opacity:1;stroke-width:1.25;stroke-linecap:butt;stroke-linejoin:miter;stroke:rgb(0%,0%,0%);stroke-opacity:1;stroke-miterlimit:4;" d="M 478.356792 549.213848 C 478.356792 558.990088 470.425514 566.943639 460.625809 566.943639 C 450.864235 566.943639 442.932957 558.990088 442.932957 549.213848 C 442.932957 539.437608 450.864235 531.484056 460.625809 531.484056 C 470.425514 531.484056 478.356792 539.437608 478.356792 549.213848 Z M 478.356792 549.213848 " transform="matrix(-0.102442,0,0,0.0942975,344.675941,166.18707)"/>
<path style="fill-rule:evenodd;fill:rgb(100%,100%,100%);fill-opacity:1;stroke-width:1.25;stroke-linecap:butt;stroke-linejoin:miter;stroke:rgb(0%,0%,0%);stroke-opacity:1;stroke-miterlimit:4;" d="M 478.346742 549.208265 C 478.346742 558.984505 470.415463 566.938056 460.615759 566.938056 C 450.854185 566.938056 442.922906 558.984505 442.922906 549.208265 C 442.922906 539.432024 450.854185 531.478473 460.615759 531.478473 C 470.415463 531.478473 478.346742 539.432024 478.346742 549.208265 Z M 478.346742 549.208265 " transform="matrix(0.102442,0,0,0.0942975,201.411026,189.394627)"/>
<path style="fill-rule:evenodd;fill:rgb(100%,100%,100%);fill-opacity:1;stroke-width:1.25;stroke-linecap:butt;stroke-linejoin:miter;stroke:rgb(0%,0%,0%);stroke-opacity:1;stroke-miterlimit:4;" d="M 478.332559 549.214863 C 478.332559 558.991103 470.40128 566.944654 460.639706 566.944654 C 450.840002 566.944654 442.908723 558.991103 442.908723 549.214863 C 442.908723 539.438623 450.840002 531.485071 460.639706 531.485071 C 470.40128 531.485071 478.332559 539.438623 478.332559 549.214863 Z M 478.332559 549.214863 " transform="matrix(0.102442,0,0,0.0942975,199.596073,185.573693)"/>
<path style="fill-rule:evenodd;fill:rgb(100%,100%,100%);fill-opacity:1;stroke-width:1.25;stroke-linecap:butt;stroke-linejoin:miter;stroke:rgb(0%,0%,0%);stroke-opacity:1;stroke-miterlimit:4;" d="M 478.335021 549.225816 C 478.335021 559.002056 470.403742 566.914182 460.642169 566.914182 C 450.842464 566.914182 442.911186 559.002056 442.911186 549.225816 C 442.911186 539.408151 450.842464 531.496024 460.642169 531.496024 C 470.403742 531.496024 478.335021 539.408151 478.335021 549.225816 Z M 478.335021 549.225816 " transform="matrix(0.102442,0,0,0.0942975,198.650508,181.682035)"/>
<path style="fill-rule:evenodd;fill:rgb(100%,100%,100%);fill-opacity:1;stroke-width:1.25;stroke-linecap:butt;stroke-linejoin:miter;stroke:rgb(0%,0%,0%);stroke-opacity:1;stroke-miterlimit:4;" d="M 478.336677 549.197036 C 478.336677 559.014701 470.405398 566.926828 460.643825 566.926828 C 450.84412 566.926828 442.912842 559.014701 442.912842 549.197036 C 442.912842 539.420796 450.84412 531.50867 460.643825 531.50867 C 470.405398 531.50867 478.336677 539.420796 478.336677 549.197036 Z M 478.336677 549.197036 " transform="matrix(0.102442,0,0,0.0942975,197.955026,177.520686)"/>
<path style="fill-rule:evenodd;fill:rgb(100%,100%,100%);fill-opacity:1;stroke-width:1.25;stroke-linecap:butt;stroke-linejoin:miter;stroke:rgb(0%,0%,0%);stroke-opacity:1;stroke-miterlimit:4;" d="M 478.355578 549.201454 C 478.355578 558.977695 470.4243 566.931246 460.624595 566.931246 C 450.863022 566.931246 442.931743 558.977695 442.931743 549.201454 C 442.931743 539.425214 450.863022 531.513088 460.624595 531.513088 C 470.4243 531.513088 478.355578 539.425214 478.355578 549.201454 Z M 478.355578 549.201454 " transform="matrix(0.102442,0,0,0.0942975,198.128871,173.008551)"/>
<path style="fill-rule:evenodd;fill:rgb(100%,100%,100%);fill-opacity:1;stroke-width:1.25;stroke-linecap:butt;stroke-linejoin:miter;stroke:rgb(0%,0%,0%);stroke-opacity:1;stroke-miterlimit:4;" d="M 478.352241 549.197056 C 478.352241 559.014721 470.420963 566.926848 460.621258 566.926848 C 450.859685 566.926848 442.928406 559.014721 442.928406 549.197056 C 442.928406 539.420816 450.859685 531.50869 460.621258 531.50869 C 470.420963 531.50869 478.352241 539.420816 478.352241 549.197056 Z M 478.352241 549.197056 " transform="matrix(0.102442,0,0,0.0942975,199.672182,168.747247)"/>
<path style="fill-rule:evenodd;fill:rgb(100%,100%,100%);fill-opacity:1;stroke-width:1.25;stroke-linecap:butt;stroke-linejoin:miter;stroke:rgb(0%,0%,0%);stroke-opacity:1;stroke-miterlimit:4;" d="M 478.361332 549.212775 C 478.361332 558.989015 470.430053 566.942566 460.630348 566.942566 C 450.830644 566.942566 442.899365 558.989015 442.899365 549.212775 C 442.899365 539.436535 450.830644 531.482983 460.630348 531.482983 C 470.430053 531.482983 478.361332 539.436535 478.361332 549.212775 Z M 478.361332 549.212775 " transform="matrix(0.102442,0,0,0.0942975,202.975938,165.38639)"/>
<path style="fill-rule:evenodd;fill:rgb(100%,100%,100%);fill-opacity:1;stroke-width:1.25;stroke-linecap:butt;stroke-linejoin:miter;stroke:rgb(0%,0%,0%);stroke-opacity:1;stroke-miterlimit:4;" d="M 478.348068 549.19797 C 478.348068 558.974211 470.41679 566.927762 460.617085 566.927762 C 450.855512 566.927762 442.924233 559.015635 442.924233 549.19797 C 442.924233 539.42173 450.855512 531.509604 460.617085 531.509604 C 470.41679 531.509604 478.348068 539.42173 478.348068 549.19797 Z M 478.348068 549.19797 " transform="matrix(0.102442,0,0,0.0942975,207.496828,163.145598)"/>
<path style="fill-rule:evenodd;fill:rgb(100%,100%,100%);fill-opacity:1;stroke-width:1.25;stroke-linecap:butt;stroke-linejoin:miter;stroke:rgb(0%,0%,0%);stroke-opacity:1;stroke-miterlimit:4;" d="M 478.331805 549.196141 C 478.331805 559.013806 470.400527 566.925933 460.638953 566.925933 C 450.839248 566.925933 442.90797 559.013806 442.90797 549.196141 C 442.90797 539.419901 450.839248 531.507775 460.638953 531.507775 C 470.400527 531.507775 478.331805 539.419901 478.331805 549.196141 Z M 478.331805 549.196141 " transform="matrix(0.102442,0,0,0.0942975,212.018025,162.825458)"/>
<path style="fill-rule:evenodd;fill:rgb(100%,100%,100%);fill-opacity:1;stroke-width:1.25;stroke-linecap:butt;stroke-linejoin:miter;stroke:rgb(0%,0%,0%);stroke-opacity:1;stroke-miterlimit:4;" d="M 478.361345 549.197556 C 478.361345 559.015221 470.430067 566.927347 460.630362 566.927347 C 450.830657 566.927347 442.899379 559.015221 442.899379 549.197556 C 442.899379 539.421316 450.830657 531.509189 460.630362 531.509189 C 470.430067 531.509189 478.361345 539.421316 478.361345 549.197556 Z M 478.361345 549.197556 " transform="matrix(0.102442,0,0,0.0942975,216.886093,162.985481)"/>
<path style="fill-rule:evenodd;fill:rgb(100%,100%,100%);fill-opacity:1;stroke-width:1.25;stroke-linecap:butt;stroke-linejoin:miter;stroke:rgb(0%,0%,0%);stroke-opacity:1;stroke-miterlimit:4;" d="M 478.342754 549.201214 C 478.342754 558.977454 470.411475 566.931006 460.649902 566.931006 C 450.850197 566.931006 442.918919 558.977454 442.918919 549.201214 C 442.918919 539.424974 450.850197 531.512848 460.649902 531.512848 C 470.411475 531.512848 478.342754 539.424974 478.342754 549.201214 Z M 478.342754 549.201214 " transform="matrix(0.102442,0,0,0.0942975,221.755185,163.625761)"/>
<path style="fill-rule:evenodd;fill:rgb(100%,100%,100%);fill-opacity:1;stroke-width:1.25;stroke-linecap:butt;stroke-linejoin:miter;stroke:rgb(0%,0%,0%);stroke-opacity:1;stroke-miterlimit:4;" d="M 478.362294 549.205873 C 478.362294 558.982113 470.431015 566.935664 460.631311 566.935664 C 450.831606 566.935664 442.900328 558.982113 442.900328 549.205873 C 442.900328 539.429632 450.831606 531.476081 460.631311 531.476081 C 470.431015 531.476081 478.362294 539.429632 478.362294 549.205873 Z M 478.362294 549.205873 " transform="matrix(0.102442,0,0,0.0942975,226.624277,164.265947)"/>
<path style="fill-rule:evenodd;fill:rgb(100%,100%,100%);fill-opacity:1;stroke-width:1.25;stroke-linecap:butt;stroke-linejoin:miter;stroke:rgb(0%,0%,0%);stroke-opacity:1;stroke-miterlimit:4;" d="M 478.347375 549.210946 C 478.347375 558.987186 470.416096 566.940737 460.616392 566.940737 C 450.854818 566.940737 442.92354 558.987186 442.92354 549.210946 C 442.92354 539.434705 450.854818 531.481154 460.616392 531.481154 C 470.416096 531.481154 478.347375 539.434705 478.347375 549.210946 Z M 478.347375 549.210946 " transform="matrix(0.102442,0,0,0.0942975,231.840649,165.06625)"/>
<path style="fill-rule:evenodd;fill:rgb(100%,100%,100%);fill-opacity:1;stroke-width:1.25;stroke-linecap:butt;stroke-linejoin:miter;stroke:rgb(0%,0%,0%);stroke-opacity:1;stroke-miterlimit:4;" d="M 478.335112 549.213848 C 478.335112 558.990088 470.403833 566.943639 460.64226 566.943639 C 450.842555 566.943639 442.911276 558.990088 442.911276 549.213848 C 442.911276 539.437608 450.842555 531.484056 460.64226 531.484056 C 470.403833 531.484056 478.335112 539.437608 478.335112 549.213848 Z M 478.335112 549.213848 " transform="matrix(0.102442,0,0,0.0942975,236.361437,166.18707)"/>
<path style="fill-rule:evenodd;fill:rgb(100%,100%,100%);fill-opacity:1;stroke-width:1.25;stroke-linecap:butt;stroke-linejoin:miter;stroke:rgb(0%,0%,0%);stroke-opacity:1;stroke-miterlimit:4;" d="M 478.358348 549.224971 C 478.358348 559.001211 470.427069 566.913338 460.627365 566.913338 C 450.865791 566.913338 442.934512 559.001211 442.934512 549.224971 C 442.934512 539.407306 450.865791 531.49518 460.627365 531.49518 C 470.427069 531.49518 478.358348 539.407306 478.358348 549.224971 Z M 478.358348 549.224971 " transform="matrix(0.102442,0,0,0.0942975,204.019212,192.756333)"/>
<path style="fill-rule:evenodd;fill:rgb(100%,94.509804%,0%);fill-opacity:1;stroke-width:1.25;stroke-linecap:butt;stroke-linejoin:miter;stroke:rgb(0%,0%,0%);stroke-opacity:1;stroke-miterlimit:4;" d="M 531.505936 584.666262 C 531.505936 584.666262 463.518102 532.553931 461.687807 407.492623 C 460.620135 335.537838 496.082101 283.466933 584.660755 283.466933 C 708.663244 283.466933 885.820552 336.614882 885.820552 336.614882 L 885.820552 354.344673 C 885.820552 354.344673 744.08708 301.155299 584.660755 301.155299 C 513.774953 301.155299 478.351118 353.26763 478.351118 406.415579 C 478.351118 494.981686 549.198789 584.666262 549.198789 584.666262 L 549.198789 726.380318 L 531.505936 726.380318 Z M 531.505936 584.666262 " transform="matrix(0.102442,0,0,0.0942975,199.769953,189.554933)"/>
<path style="fill-rule:evenodd;fill:rgb(100%,94.509804%,0%);fill-opacity:1;stroke-width:2.9915;stroke-linecap:butt;stroke-linejoin:miter;stroke:rgb(0%,0%,0%);stroke-opacity:1;stroke-miterlimit:4;" d="M 1240.146305 531.483813 C 1240.146305 531.483813 1255.589574 496.034365 1311.070947 496.034365 C 1348.82116 496.034365 1381.881195 531.483813 1381.881195 566.933261 L 1381.881195 637.832158 L 1417.343516 637.832158 L 1417.343516 566.933261 C 1417.343516 531.483813 1452.805837 496.034365 1488.268158 496.034365 C 1541.347245 496.034365 1559.078406 531.483813 1559.078406 531.483813 C 1559.078406 531.483813 1559.078406 425.24421 1488.268158 425.24421 C 1435.074677 425.24421 1417.343516 460.584917 1417.343516 460.584917 C 1417.343516 460.584917 1435.074677 407.519486 1435.074677 354.345314 C 1435.074677 301.171142 1399.612355 265.721693 1399.612355 265.721693 C 1399.612355 272.572354 1364.264429 301.171142 1364.264429 354.345314 C 1364.264429 407.519486 1381.881195 460.584917 1381.881195 460.584917 C 1381.881195 460.584917 1364.264429 425.24421 1311.070947 425.24421 C 1240.146305 425.24421 1240.146305 531.483813 1240.146305 531.483813 Z M 1240.146305 531.483813 " transform="matrix(0.0341472,0,0,0.0359226,224.574403,231.798327)"/>
<path style="fill-rule:evenodd;fill:rgb(100%,94.509804%,0%);fill-opacity:1;stroke-width:2.9915;stroke-linecap:butt;stroke-linejoin:miter;stroke:rgb(0%,0%,0%);stroke-opacity:1;stroke-miterlimit:4;" d="M 1240.214546 531.483813 C 1240.214546 531.483813 1255.54342 496.034365 1311.024793 496.034365 C 1348.889401 496.034365 1381.949436 531.483813 1381.949436 566.933261 L 1381.949436 637.832158 L 1417.411757 637.832158 L 1417.411757 566.933261 C 1417.411757 531.483813 1452.759683 496.034365 1488.222004 496.034365 C 1541.415486 496.034365 1559.146646 531.483813 1559.146646 531.483813 C 1559.146646 531.483813 1559.146646 425.24421 1488.222004 425.24421 C 1435.028523 425.24421 1417.411757 460.584917 1417.411757 460.584917 C 1417.411757 460.584917 1435.028523 407.519486 1435.028523 354.345314 C 1435.028523 301.171142 1399.680596 265.721693 1399.680596 265.721693 C 1399.680596 272.572354 1364.218275 301.171142 1364.218275 354.345314 C 1364.218275 407.519486 1381.949436 460.584917 1381.949436 460.584917 C 1381.949436 460.584917 1364.218275 425.24421 1311.024793 425.24421 C 1240.214546 425.24421 1240.214546 531.483813 1240.214546 531.483813 Z M 1240.214546 531.483813 " transform="matrix(0.0341472,0,0,0.0359226,260.872854,231.798327)"/>
<path style="fill-rule:evenodd;fill:rgb(100%,94.509804%,0%);fill-opacity:1;stroke-width:1.25;stroke-linecap:butt;stroke-linejoin:miter;stroke:rgb(0%,0%,0%);stroke-opacity:1;stroke-miterlimit:4;" d="M 531.505936 832.676217 L 531.505936 673.232369 C 531.505936 673.232369 566.929772 726.380318 620.08459 726.380318 C 663.554098 726.380318 708.663244 655.502578 708.663244 655.502578 C 708.663244 655.502578 750.188063 708.650527 797.241898 708.650527 C 839.262422 708.650527 885.782421 640.092572 885.782421 640.092572 C 885.782421 640.092572 928.98501 708.650527 974.399206 708.650527 C 1019.851533 708.650527 1062.97786 655.502578 1062.97786 655.502578 C 1062.97786 655.502578 1109.269072 726.380318 1169.287497 726.380318 C 1222.442315 726.380318 1240.173299 673.232369 1240.173299 673.232369 L 1240.173299 832.676217 Z M 531.505936 832.676217 " transform="matrix(0.102442,0,0,0.0942975,199.769953,189.554933)"/>
<path style="fill-rule:evenodd;fill:rgb(100%,94.509804%,0%);fill-opacity:1;stroke-width:1.25;stroke-linecap:butt;stroke-linejoin:miter;stroke:rgb(0%,0%,0%);stroke-opacity:1;stroke-miterlimit:4;" d="M 708.675479 832.676217 L 708.675479 708.650527 C 708.675479 708.650527 814.946985 744.11011 814.946985 832.676217 Z M 708.675479 832.676217 " transform="matrix(0.102442,0,0,0.0942975,181.620262,189.554933)"/>
<path style="fill-rule:evenodd;fill:rgb(100%,94.509804%,0%);fill-opacity:1;stroke-width:1.25;stroke-linecap:butt;stroke-linejoin:miter;stroke:rgb(0%,0%,0%);stroke-opacity:1;stroke-miterlimit:4;" d="M 708.66529 832.676217 L 708.66529 708.650527 C 708.66529 708.650527 814.974927 744.11011 814.974927 832.676217 Z M 708.66529 832.676217 " transform="matrix(-0.102442,0,0,0.0942975,399.409944,189.554933)"/>
<path style="fill-rule:evenodd;fill:rgb(100%,94.509804%,0%);fill-opacity:1;stroke-width:1.25;stroke-linecap:butt;stroke-linejoin:miter;stroke:rgb(0%,0%,0%);stroke-opacity:1;stroke-miterlimit:4;" d="M 602.353607 832.676217 C 602.353607 744.11011 708.739506 688.062428 708.739506 688.062428 C 708.739506 688.062428 814.972881 744.11011 814.972881 832.676217 Z M 602.353607 832.676217 " transform="matrix(0.102442,0,0,0.0942975,199.769953,189.554933)"/>
<path style="fill-rule:evenodd;fill:rgb(100%,94.509804%,0%);fill-opacity:1;stroke-width:1.25;stroke-linecap:butt;stroke-linejoin:miter;stroke:rgb(0%,0%,0%);stroke-opacity:1;stroke-miterlimit:4;" d="M 602.375896 832.676217 C 602.375896 744.11011 708.723664 688.062428 708.723664 688.062428 C 708.723664 688.062428 814.957039 744.11011 814.957039 832.676217 Z M 602.375896 832.676217 " transform="matrix(0.102442,0,0,0.0942975,236.068451,189.554933)"/>
<path style="fill-rule:evenodd;fill:rgb(100%,94.509804%,0%);fill-opacity:1;stroke-width:1.25;stroke-linecap:butt;stroke-linejoin:miter;stroke:rgb(0%,0%,0%);stroke-opacity:1;stroke-miterlimit:4;" d="M 584.657605 847.526217 C 584.657605 758.96011 708.736356 688.082369 708.736356 688.082369 C 708.736356 688.082369 832.662583 758.96011 832.662583 847.526217 Z M 584.657605 847.526217 " transform="matrix(0.102442,0,0,0.0942975,217.918713,188.154615)"/>
<path style="fill-rule:evenodd;fill:rgb(100%,100%,100%);fill-opacity:1;stroke-width:1.25;stroke-linecap:butt;stroke-linejoin:miter;stroke:rgb(0%,0%,0%);stroke-opacity:1;stroke-miterlimit:4;" d="M 1275.588508 655.506217 C 1240.186193 637.776426 1109.567849 620.088059 899.313579 620.088059 C 689.059309 620.088059 549.224022 637.776426 513.783143 655.506217 C 478.342263 673.236008 478.342263 708.654166 513.783143 726.383958 C 549.224022 744.072324 689.059309 761.802116 899.313579 761.802116 C 1109.606413 761.802116 1240.186193 744.072324 1275.627072 726.383958 C 1311.029387 708.654166 1311.029387 673.236008 1275.627072 655.506217 Z M 1275.588508 655.506217 " transform="matrix(0.101291,0,0,0.0942975,199.423212,206.261621)"/>
<path style=" stroke:none;fill-rule:evenodd;fill:rgb(50.196078%,50.196078%,50.196078%);fill-opacity:1;" d="M 326.816406 274.757812 C 326.816406 278.097656 296.625 278.097656 290.519531 278.097656 C 283.921875 278.097656 254.21875 279.003906 254.21875 274.757812 C 254.21875 271.414062 284.167969 271.414062 290.519531 271.414062 C 296.871094 271.414062 326.816406 272.09375 326.816406 274.757812 Z M 326.816406 274.757812 "/>
<path style=" stroke:none;fill-rule:evenodd;fill:rgb(80%,0%,0%);fill-opacity:1;" d="M 257.847656 262.757812 C 257.847656 263.847656 257.035156 264.734375 256.03125 264.734375 C 255.03125 264.734375 254.21875 263.847656 254.21875 262.757812 C 254.21875 261.664062 255.03125 260.777344 256.03125 260.777344 C 257.035156 260.777344 257.847656 261.664062 257.847656 262.757812 Z M 257.847656 262.757812 "/>
<path style=" stroke:none;fill-rule:evenodd;fill:rgb(80%,0%,0%);fill-opacity:1;" d="M 326.816406 262.757812 C 326.816406 263.847656 326.003906 264.734375 325 264.734375 C 323.996094 264.734375 323.183594 263.847656 323.183594 262.757812 C 323.183594 261.664062 323.996094 260.777344 325 260.777344 C 326.003906 260.777344 326.816406 261.664062 326.816406 262.757812 Z M 326.816406 262.757812 "/>
<path style=" stroke:none;fill-rule:evenodd;fill:rgb(0%,0%,0%);fill-opacity:1;" d="M 294.144531 261.699219 C 294.144531 262.792969 292.519531 263.675781 290.515625 263.675781 C 288.511719 263.675781 286.886719 262.792969 286.886719 261.699219 C 286.886719 260.605469 288.511719 259.722656 290.515625 259.722656 C 292.519531 259.722656 294.144531 260.605469 294.144531 261.699219 Z M 294.144531 261.699219 "/>
<path style=" stroke:none;fill-rule:evenodd;fill:rgb(0%,38.823529%,0%);fill-opacity:1;" d="M 311.558594 261.699219 C 311.558594 262.792969 310.339844 263.675781 308.835938 263.675781 C 307.332031 263.675781 306.113281 262.792969 306.113281 261.699219 C 306.113281 260.605469 307.332031 259.722656 308.835938 259.722656 C 310.339844 259.722656 311.558594 260.605469 311.558594 261.699219 Z M 311.558594 261.699219 "/>
<path style=" stroke:none;fill-rule:evenodd;fill:rgb(0%,38.823529%,0%);fill-opacity:1;" d="M 274.183594 261.699219 C 274.183594 262.792969 272.960938 263.675781 271.460938 263.675781 C 269.957031 263.675781 268.738281 262.792969 268.738281 261.699219 C 268.738281 260.605469 269.957031 259.722656 271.460938 259.722656 C 272.960938 259.722656 274.183594 260.605469 274.183594 261.699219 Z M 274.183594 261.699219 "/>
<path style="fill-rule:evenodd;fill:rgb(100%,94.509804%,0%);fill-opacity:1;stroke-width:2.1875;stroke-linecap:butt;stroke-linejoin:miter;stroke:rgb(0%,0%,0%);stroke-opacity:1;stroke-miterlimit:4;" d="M 1257.894373 496.085313 C 1257.894373 496.085313 1293.328893 442.875359 1328.763412 442.875359 L 1364.197932 442.875359 L 1364.197932 478.324497 C 1364.197932 531.461957 1311.079518 549.222773 1311.079518 549.222773 L 1452.817597 549.222773 C 1452.817597 549.222773 1399.632452 531.461957 1399.632452 478.324497 L 1399.632452 442.875359 L 1435.066971 442.875359 C 1470.501491 442.875359 1505.936011 496.085313 1505.936011 496.085313 L 1505.936011 354.361254 C 1505.936011 354.361254 1470.501491 407.498714 1435.066971 407.498714 L 1399.632452 407.498714 L 1399.632452 372.049577 C 1399.632452 318.912116 1452.817597 301.151301 1452.817597 301.151301 L 1311.079518 301.151301 C 1311.079518 301.151301 1364.197932 318.912116 1364.197932 372.049577 L 1364.197932 407.498714 L 1328.763412 407.498714 C 1293.328893 407.498714 1257.894373 354.361254 1257.894373 354.361254 Z M 1257.894373 496.085313 " transform="matrix(0.0585367,0,0,0.0538844,209.624866,223.444512)"/>
<path style="fill-rule:evenodd;fill:rgb(100%,94.509804%,0%);fill-opacity:1;stroke-width:3.3072;stroke-linecap:butt;stroke-linejoin:miter;stroke:rgb(0%,0%,0%);stroke-opacity:1;stroke-miterlimit:4;" d="M 1381.909904 549.181054 L 1452.777703 549.181054 C 1452.777703 549.181054 1399.660219 531.534112 1399.660219 478.344738 L 1399.660219 442.885155 L 1435.027388 442.885155 C 1470.528018 442.885155 1505.895187 496.07453 1505.895187 496.07453 L 1505.895187 354.319048 C 1505.895187 354.319048 1470.528018 407.508422 1435.027388 407.508422 L 1399.660219 407.508422 L 1399.660219 372.04884 C 1399.660219 318.859466 1452.777703 301.212524 1452.777703 301.212524 L 1381.909904 301.212524 Z M 1381.909904 549.181054 " transform="matrix(0.0292688,0,0,0.0471488,213.771841,230.485706)"/>
<path style="fill-rule:evenodd;fill:rgb(100%,94.509804%,0%);fill-opacity:1;stroke-width:3.3072;stroke-linecap:butt;stroke-linejoin:miter;stroke:rgb(0%,0%,0%);stroke-opacity:1;stroke-miterlimit:4;" d="M 1381.915786 549.181054 L 1452.783585 549.181054 C 1452.783585 549.181054 1399.666101 531.534112 1399.666101 478.344738 L 1399.666101 442.885155 L 1435.03327 442.885155 C 1470.5339 442.885155 1505.901069 496.07453 1505.901069 496.07453 L 1505.901069 354.319048 C 1505.901069 354.319048 1470.5339 407.508422 1435.03327 407.508422 L 1399.666101 407.508422 L 1399.666101 372.04884 C 1399.666101 318.859466 1452.783585 301.212524 1452.783585 301.212524 L 1381.915786 301.212524 Z M 1381.915786 549.181054 " transform="matrix(-0.0292688,0,0,0.0471488,367.263487,230.485706)"/>
<path style="fill-rule:evenodd;fill:rgb(100%,100%,100%);fill-opacity:1;stroke-width:1.25;stroke-linecap:butt;stroke-linejoin:miter;stroke:rgb(0%,0%,0%);stroke-opacity:1;stroke-miterlimit:4;" d="M 903.551535 602.354628 C 903.551535 612.130869 895.620257 620.08442 885.820552 620.08442 C 876.020847 620.08442 868.089569 612.130869 868.089569 602.354628 C 868.089569 592.578388 876.020847 584.624837 885.820552 584.624837 C 895.620257 584.624837 903.551535 592.578388 903.551535 602.354628 Z M 903.551535 602.354628 " transform="matrix(0.102442,0,0,0.0942975,199.769953,189.554933)"/>
<path style="fill-rule:evenodd;fill:rgb(100%,94.509804%,0%);fill-opacity:1;stroke-width:2.1875;stroke-linecap:butt;stroke-linejoin:miter;stroke:rgb(0%,0%,0%);stroke-opacity:1;stroke-miterlimit:4;" d="M 1257.889123 496.092934 C 1257.889123 496.092934 1293.323642 442.88298 1328.758162 442.88298 L 1364.192682 442.88298 L 1364.192682 478.332118 C 1364.192682 531.469578 1311.074268 549.230394 1311.074268 549.230394 L 1452.812347 549.230394 C 1452.812347 549.230394 1399.627202 531.469578 1399.627202 478.332118 L 1399.627202 442.88298 L 1435.061721 442.88298 C 1470.496241 442.88298 1505.930761 496.092934 1505.930761 496.092934 L 1505.930761 354.296382 C 1505.930761 354.296382 1470.496241 407.506335 1435.061721 407.506335 L 1399.627202 407.506335 L 1399.627202 372.057197 C 1399.627202 318.919737 1452.812347 301.158922 1452.812347 301.158922 L 1311.074268 301.158922 C 1311.074268 301.158922 1364.192682 318.919737 1364.192682 372.057197 L 1364.192682 407.506335 L 1328.758162 407.506335 C 1293.323642 407.506335 1257.889123 354.296382 1257.889123 354.296382 Z M 1257.889123 496.092934 " transform="matrix(0.0585367,0,0,0.0538844,209.625173,188.36207)"/>
<path style="fill-rule:evenodd;fill:rgb(100%,100%,100%);fill-opacity:1;stroke-width:1.25;stroke-linecap:butt;stroke-linejoin:miter;stroke:rgb(0%,0%,0%);stroke-opacity:1;stroke-miterlimit:4;" d="M 903.531948 602.376565 C 903.531948 612.152805 895.600669 620.064932 885.839096 620.064932 C 876.039391 620.064932 868.108113 612.152805 868.108113 602.376565 C 868.108113 592.5589 876.039391 584.646774 885.839096 584.646774 C 895.600669 584.646774 903.531948 592.5589 903.531948 602.376565 Z M 903.531948 602.376565 " transform="matrix(0.102442,0,0,0.0942975,199.943835,154.752083)"/>
<path style="fill-rule:evenodd;fill:rgb(100%,94.509804%,0%);fill-opacity:1;stroke-width:1.25;stroke-linecap:butt;stroke-linejoin:miter;stroke:rgb(0%,0%,0%);stroke-opacity:1;stroke-miterlimit:4;" d="M 850.396259 655.526724 L 921.24393 655.526724 L 921.24393 708.674673 L 850.396259 708.674673 Z M 850.396259 655.526724 " transform="matrix(0.102442,0,0,0.0942975,199.77,156.1425)"/>
<path style="fill-rule:evenodd;fill:rgb(100%,94.509804%,0%);fill-opacity:1;stroke-width:1.25;stroke-linecap:butt;stroke-linejoin:miter;stroke:rgb(0%,0%,0%);stroke-opacity:1;stroke-miterlimit:4;" d="M 850.396259 683.281304 L 921.24393 683.281304 L 921.24393 885.848313 L 850.396259 885.848313 Z M 850.396259 683.281304 " transform="matrix(0.102442,0,0,0.0942975,199.77,156.1425)"/>
<path style="fill-rule:evenodd;fill:rgb(100%,100%,100%);fill-opacity:1;stroke-width:1.25;stroke-linecap:butt;stroke-linejoin:miter;stroke:rgb(0%,0%,0%);stroke-opacity:1;stroke-miterlimit:4;" d="M 478.351077 549.20873 C 478.351077 558.98497 470.419799 566.938521 460.620094 566.938521 C 450.858521 566.938521 442.927242 558.98497 442.927242 549.20873 C 442.927242 539.43249 450.858521 531.478938 460.620094 531.478938 C 470.419799 531.478938 478.351077 539.43249 478.351077 549.20873 Z M 478.351077 549.20873 " transform="matrix(0.102442,0,0,0.0942975,243.328551,184.543021)"/>
<path style="fill-rule:evenodd;fill:rgb(100%,100%,100%);fill-opacity:1;stroke-width:1.25;stroke-linecap:butt;stroke-linejoin:miter;stroke:rgb(0%,0%,0%);stroke-opacity:1;stroke-miterlimit:4;" d="M 478.351077 549.222961 C 478.351077 558.999201 470.419799 566.911327 460.620094 566.911327 C 450.858521 566.911327 442.927242 558.999201 442.927242 549.222961 C 442.927242 539.405296 450.858521 531.493169 460.620094 531.493169 C 470.419799 531.493169 478.351077 539.405296 478.351077 549.222961 Z M 478.351077 549.222961 " transform="matrix(0.102442,0,0,0.0942975,243.328551,180.221367)"/>
<path style="fill-rule:evenodd;fill:rgb(100%,100%,100%);fill-opacity:1;stroke-width:1.25;stroke-linecap:butt;stroke-linejoin:miter;stroke:rgb(0%,0%,0%);stroke-opacity:1;stroke-miterlimit:4;" d="M 478.351077 549.222623 C 478.351077 558.998863 470.419799 566.910989 460.620094 566.910989 C 450.858521 566.910989 442.927242 558.998863 442.927242 549.222623 C 442.927242 539.404958 450.858521 531.492831 460.620094 531.492831 C 470.419799 531.492831 478.351077 539.404958 478.351077 549.222623 Z M 478.351077 549.222623 " transform="matrix(0.102442,0,0,0.0942975,243.328551,176.190148)"/>
<path style="fill-rule:evenodd;fill:rgb(100%,100%,100%);fill-opacity:1;stroke-width:1.25;stroke-linecap:butt;stroke-linejoin:miter;stroke:rgb(0%,0%,0%);stroke-opacity:1;stroke-miterlimit:4;" d="M 478.351077 549.193843 C 478.351077 559.011508 470.419799 566.923635 460.620094 566.923635 C 450.858521 566.923635 442.927242 559.011508 442.927242 549.193843 C 442.927242 539.417603 450.858521 531.505477 460.620094 531.505477 C 470.419799 531.505477 478.351077 539.417603 478.351077 549.193843 Z M 478.351077 549.193843 " transform="matrix(0.102442,0,0,0.0942975,243.328551,172.0288)"/>
<path style=" stroke:none;fill-rule:evenodd;fill:rgb(0%,0%,0%);fill-opacity:1;" d="M 294.371094 268.109375 C 294.371094 268.859375 292.71875 269.46875 290.683594 269.46875 C 288.644531 269.46875 286.996094 268.859375 286.996094 268.109375 C 286.996094 267.359375 288.644531 266.753906 290.683594 266.753906 C 292.71875 266.753906 294.371094 267.359375 294.371094 268.109375 Z M 294.371094 268.109375 "/>
<path style=" stroke:none;fill-rule:evenodd;fill:rgb(0%,0%,0%);fill-opacity:1;" d="M 327.796875 271.425781 C 327.59375 271.941406 325.796875 271.984375 323.785156 271.523438 C 321.773438 271.0625 320.308594 270.269531 320.511719 269.757812 C 320.714844 269.242188 322.511719 269.199219 324.523438 269.660156 C 326.535156 270.121094 328.003906 270.914062 327.796875 271.425781 Z M 327.796875 271.425781 "/>
<path style=" stroke:none;fill-rule:evenodd;fill:rgb(0%,0%,0%);fill-opacity:1;" d="M 313.828125 269.175781 C 313.746094 269.835938 312 270.253906 309.921875 270.109375 C 307.847656 269.964844 306.230469 269.308594 306.308594 268.648438 C 306.390625 267.988281 308.140625 267.570312 310.214844 267.714844 C 312.292969 267.859375 313.910156 268.511719 313.828125 269.175781 Z M 313.828125 269.175781 "/>
<path style=" stroke:none;fill-rule:evenodd;fill:rgb(0%,0%,0%);fill-opacity:1;" d="M 252.425781 271.425781 C 252.628906 271.941406 254.425781 271.984375 256.4375 271.523438 C 258.449219 271.0625 259.914062 270.269531 259.710938 269.757812 C 259.507812 269.242188 257.710938 269.199219 255.699219 269.660156 C 253.6875 270.121094 252.222656 270.914062 252.425781 271.425781 Z M 252.425781 271.425781 "/>
<path style=" stroke:none;fill-rule:evenodd;fill:rgb(0%,0%,0%);fill-opacity:1;" d="M 267.097656 268.855469 C 267.175781 269.515625 268.925781 269.933594 271 269.789062 C 273.078125 269.644531 274.695312 268.992188 274.613281 268.328125 C 274.53125 267.667969 272.785156 267.25 270.707031 267.394531 C 268.632812 267.539062 267.015625 268.191406 267.097656 268.855469 Z M 267.097656 268.855469 "/>
</g>
</svg>
