<?xml version="1.0" encoding="UTF-8"?>
<svg xmlns="http://www.w3.org/2000/svg" xmlns:xlink="http://www.w3.org/1999/xlink" width="384pt" height="384pt" viewBox="0 0 384 384" version="1.1">
<g id="surface1">
<rect x="0" y="0" width="384" height="384" style="fill:rgb(100%,100%,100%);fill-opacity:1;stroke:none;"/>
<path style=" stroke:none;fill-rule:evenodd;fill:rgb(0%,0%,0%);fill-opacity:1;" d="M 0 256 L 384.003906 256 L 384.003906 384.003906 L 0 384.003906 Z M 0 256 "/>
<path style=" stroke:none;fill-rule:evenodd;fill:rgb(95.294118%,0%,0%);fill-opacity:1;" d="M 0 0 L 384.003906 0 L 384.003906 128.003906 L 0 128.003906 Z M 0 0 "/>
<path style=" stroke:none;fill-rule:evenodd;fill:rgb(0%,33.72549%,13.72549%);fill-opacity:1;" d="M 365.699219 213.023438 L 349.863281 201.566406 L 334.101562 213.179688 L 340.101562 194.574219 L 324.191406 183.175781 L 343.738281 183.128906 L 349.664062 164.480469 L 355.746094 183.054688 L 375.316406 182.925781 L 359.527344 194.445312 Z M 365.699219 213.023438 "/>
<path style=" stroke:none;fill-rule:evenodd;fill:rgb(0%,33.72549%,13.72549%);fill-opacity:1;" d="M 144.929688 174.875 C 145.09375 193.132812 144.929688 204.867188 144.929688 208.617188 C 142.972656 210.898438 141.019531 213.34375 139.550781 215.296875 C 138.898438 214.808594 138.734375 214.808594 138.734375 213.832031 C 138.734375 212.851562 138.574219 188.894531 138.734375 180.089844 C 141.667969 178.625 143.625 174.550781 144.929688 174.875 Z M 138.246094 174.550781 C 139.714844 172.105469 141.34375 169.660156 142.484375 168.519531 C 143.625 169.171875 143.460938 170.964844 143.625 171.453125 C 142.484375 173.082031 139.714844 175.691406 138.898438 176.503906 C 138.574219 176.015625 138.898438 176.179688 138.246094 174.550781 Z M 146.398438 153.6875 C 136.453125 160.207031 125.207031 168.03125 121.132812 171.453125 C 117.058594 174.875 115.589844 176.996094 115.589844 182.863281 C 115.589844 188.730469 115.753906 195.414062 115.265625 198.511719 C 114.773438 201.605469 113.308594 204.867188 109.722656 201.933594 C 106.136719 199 103.527344 196.066406 101.898438 194.761719 C 100.269531 193.457031 97.335938 191.664062 93.421875 195.085938 C 89.511719 198.511719 71.257812 217.742188 67.832031 219.863281 C 64.410156 221.980469 63.757812 222.46875 61.3125 223.773438 C 66.367188 224.101562 72.070312 224.425781 76.632812 223.449219 C 82.664062 219.046875 89.675781 209.105469 91.957031 206.660156 C 94.238281 204.214844 96.519531 199 101.574219 204.703125 C 106.625 210.410156 106.460938 210.570312 108.90625 212.363281 C 111.351562 214.15625 114.449219 213.832031 116.570312 210.246094 C 118.6875 206.660156 118.851562 205.027344 119.664062 199.160156 C 120.480469 193.292969 120.96875 185.957031 122.273438 182.699219 C 123.578125 179.4375 126.183594 176.179688 130.585938 173.570312 C 134.988281 170.964844 135.800781 170.800781 136.78125 170.3125 C 138.734375 166.5625 143.460938 157.761719 145.417969 155.640625 C 146.234375 154.664062 146.394531 154.175781 146.394531 153.6875 Z M 102.226562 213.015625 C 99.78125 211.386719 98.964844 210.082031 97.660156 210.246094 C 96.355469 210.410156 93.585938 214.15625 91.957031 215.136719 C 94.074219 216.929688 96.03125 218.558594 97.660156 218.234375 C 99.292969 217.90625 100.433594 214.320312 102.226562 213.015625 Z M 102.226562 213.015625 "/>
<path style=" stroke:none;fill-rule:evenodd;fill:rgb(0%,33.72549%,13.72549%);fill-opacity:1;" d="M 308.738281 167.21875 C 305.316406 168.035156 303.523438 172.597656 300.589844 175.695312 C 300.265625 184.820312 300.265625 213.183594 300.265625 216.929688 C 303.199219 213.507812 304.992188 211.550781 307.109375 210.25 C 307.597656 195.089844 309.390625 173.902344 308.738281 167.21875 Z M 292.601562 167.054688 C 288.527344 169.664062 287.550781 172.269531 284.128906 175.207031 C 283.964844 186.125 284.453125 201.609375 283.640625 203.730469 C 282.824219 205.847656 281.03125 210.25 276.628906 209.757812 C 272.230469 209.269531 270.925781 208.457031 270.925781 203.890625 C 270.925781 199.328125 271.902344 170.152344 271.902344 165.425781 C 268.480469 167.054688 265.546875 172.109375 263.101562 174.226562 C 263.101562 185.636719 263.589844 200.144531 263.265625 203.238281 C 262.9375 206.335938 261.636719 211.390625 256.09375 211.226562 C 250.550781 211.0625 247.617188 208.292969 247.617188 205.03125 C 247.617188 201.773438 247.453125 180.421875 247.78125 176.671875 C 242.890625 180.09375 231.480469 186.941406 229.199219 195.742188 C 226.917969 204.542969 230.503906 207.152344 233.761719 205.519531 C 237.023438 203.890625 238.488281 202.425781 240.28125 201.121094 C 240.769531 206.664062 240.933594 212.691406 246.476562 216.28125 C 252.019531 219.867188 259.027344 218.5625 261.632812 216.605469 C 264.242188 214.648438 265.21875 213.34375 265.871094 212.367188 C 270.761719 216.117188 277.933594 218.074219 282.660156 213.996094 C 287.386719 209.921875 289.996094 205.847656 290.484375 201.285156 C 290.972656 196.71875 293.253906 173.25 292.601562 167.054688 Z M 241.421875 189.222656 C 236.535156 191.503906 234.414062 194.925781 235.71875 197.046875 C 237.023438 199.164062 239.628906 196.71875 241.421875 195.90625 C 241.097656 192.644531 241.421875 190.851562 241.421875 189.222656 Z M 272.882812 154.667969 C 271.742188 158.417969 270.925781 157.765625 269.457031 157.929688 C 267.992188 158.089844 267.015625 156.625 265.871094 155.320312 C 264.730469 155.484375 264.570312 155.808594 263.753906 156.136719 C 266.363281 159.882812 268.316406 161.515625 271.414062 160.699219 C 274.511719 159.882812 274.675781 157.113281 274.675781 155.644531 C 274.183594 155.320312 274.023438 155.15625 272.882812 154.667969 Z M 270.109375 149.941406 C 268.644531 150.429688 268.316406 150.757812 267.828125 152.058594 C 268.644531 153.851562 269.785156 154.832031 270.925781 154.34375 C 272.066406 153.851562 272.230469 151.898438 271.578125 151.410156 C 270.925781 150.917969 271.25 150.59375 270.109375 149.941406 Z M 270.109375 149.941406 "/>
<path style=" stroke:none;fill-rule:evenodd;fill:rgb(0%,33.72549%,13.72549%);fill-opacity:1;" d="M 46.882812 213.023438 L 31.046875 201.566406 L 15.289062 213.179688 L 21.285156 194.574219 L 5.375 183.175781 L 24.921875 183.128906 L 30.847656 164.480469 L 36.929688 183.054688 L 56.5 182.925781 L 40.714844 194.445312 Z M 46.882812 213.023438 "/>
<path style=" stroke:none;fill-rule:evenodd;fill:rgb(0%,33.72549%,13.72549%);fill-opacity:1;" d="M 205.964844 213.023438 L 190.128906 201.566406 L 174.367188 213.179688 L 180.367188 194.574219 L 164.457031 183.175781 L 184.003906 183.132812 L 189.929688 164.480469 L 196.011719 183.054688 L 215.582031 182.925781 L 199.796875 194.449219 Z M 205.964844 213.023438 "/>
</g>
</svg>
