<?xml version="1.0" encoding="UTF-8"?>
<svg xmlns="http://www.w3.org/2000/svg" xmlns:xlink="http://www.w3.org/1999/xlink" width="384pt" height="384pt" viewBox="0 0 384 384" version="1.1">
<defs>
<clipPath id="clip1">
  <path d="M 0 0 L 383.980469 0 L 383.980469 383.988281 L 0 383.988281 Z M 0 0 "/>
</clipPath>
<clipPath id="clip2">
  <path d="M 0 257 L 383.980469 257 L 383.980469 383.988281 L 0 383.988281 Z M 0 257 "/>
</clipPath>
<clipPath id="clip3">
  <path d="M 0 0 L 383.980469 0 L 383.980469 127 L 0 127 Z M 0 0 "/>
</clipPath>
<clipPath id="clip4">
  <path d="M 346 263 L 383.980469 263 L 383.980469 266 L 346 266 Z M 346 263 "/>
</clipPath>
<clipPath id="clip5">
  <path d="M 376 275 L 383.980469 275 L 383.980469 279 L 376 279 Z M 376 275 "/>
</clipPath>
<clipPath id="clip6">
  <path d="M 376 269 L 383.980469 269 L 383.980469 272 L 376 272 Z M 376 269 "/>
</clipPath>
<clipPath id="clip7">
  <path d="M 346 107 L 383.980469 107 L 383.980469 111 L 346 111 Z M 346 107 "/>
</clipPath>
<clipPath id="clip8">
  <path d="M 376 120 L 383.980469 120 L 383.980469 123 L 376 123 Z M 376 120 "/>
</clipPath>
<clipPath id="clip9">
  <path d="M 376 113 L 383.980469 113 L 383.980469 117 L 376 117 Z M 376 113 "/>
</clipPath>
</defs>
<g id="surface1">
<g clip-path="url(#clip1)" clip-rule="nonzero">
<path style=" stroke:none;fill-rule:evenodd;fill:rgb(100%,100%,100%);fill-opacity:1;" d="M -143.96875 0 L 528.011719 0 L 528.011719 383.988281 L -143.96875 383.988281 Z M -143.96875 0 "/>
</g>
<g clip-path="url(#clip2)" clip-rule="nonzero">
<path style=" stroke:none;fill-rule:evenodd;fill:rgb(85.490196%,0%,0%);fill-opacity:1;" d="M -143.96875 257.867188 L 528.011719 257.867188 L 528.011719 383.988281 L -143.96875 383.988281 Z M -143.96875 257.867188 "/>
</g>
<path style=" stroke:none;fill-rule:evenodd;fill:rgb(100%,100%,100%);fill-opacity:1;" d="M -16.226562 263.210938 L 20.574219 263.210938 L 20.574219 265.746094 L -16.226562 265.746094 Z M -16.226562 263.210938 "/>
<path style=" stroke:none;fill-rule:evenodd;fill:rgb(100%,100%,100%);fill-opacity:1;" d="M 20.667969 275.796875 L 20.667969 278.328125 L 13.3125 278.328125 L 13.3125 275.796875 Z M 20.667969 275.796875 "/>
<path style=" stroke:none;fill-rule:evenodd;fill:rgb(100%,100%,100%);fill-opacity:1;" d="M 24.625 263.210938 L 27.15625 263.210938 L 27.15625 278.332031 L 24.625 278.332031 Z M 24.625 263.210938 "/>
<path style=" stroke:none;fill-rule:evenodd;fill:rgb(100%,100%,100%);fill-opacity:1;" d="M 39.277344 275.796875 L 39.277344 278.328125 L 25.335938 278.328125 L 25.335938 275.796875 Z M 39.277344 275.796875 "/>
<path style=" stroke:none;fill-rule:evenodd;fill:rgb(100%,100%,100%);fill-opacity:1;" d="M 13.3125 269.878906 L 15.847656 269.878906 L 15.847656 278.332031 L 13.3125 278.332031 Z M 13.3125 269.878906 "/>
<path style=" stroke:none;fill-rule:evenodd;fill:rgb(100%,100%,100%);fill-opacity:1;" d="M 37.203125 263.210938 L 39.734375 263.210938 L 39.734375 278.332031 L 37.203125 278.332031 Z M 37.203125 263.210938 "/>
<path style=" stroke:none;fill-rule:evenodd;fill:rgb(100%,100%,100%);fill-opacity:1;" d="M 30.871094 263.210938 L 33.402344 263.210938 L 33.402344 278.332031 L 30.871094 278.332031 Z M 30.871094 263.210938 "/>
<path style=" stroke:none;fill-rule:evenodd;fill:rgb(100%,100%,100%);fill-opacity:1;" d="M 26.746094 269.230469 L 26.746094 271.761719 L 13.3125 271.761719 L 13.3125 269.230469 Z M 26.746094 269.230469 "/>
<path style=" stroke:none;fill-rule:evenodd;fill:rgb(100%,100%,100%);fill-opacity:1;" d="M 13.3125 269.878906 L 15.847656 269.878906 L 15.847656 278.332031 L 13.3125 278.332031 Z M 13.3125 269.878906 "/>
<path style=" stroke:none;fill-rule:evenodd;fill:rgb(100%,100%,100%);fill-opacity:1;" d="M 13.3125 269.878906 L 15.847656 269.878906 L 15.847656 278.332031 L 13.3125 278.332031 Z M 13.3125 269.878906 "/>
<path style=" stroke:none;fill-rule:evenodd;fill:rgb(100%,100%,100%);fill-opacity:1;" d="M 13.3125 269.878906 L 15.847656 269.878906 L 15.847656 278.332031 L 13.3125 278.332031 Z M 13.3125 269.878906 "/>
<path style=" stroke:none;fill-rule:evenodd;fill:rgb(100%,100%,100%);fill-opacity:1;" d="M 5.445312 269.878906 L 7.976562 269.878906 L 7.976562 278.332031 L 5.445312 278.332031 Z M 5.445312 269.878906 "/>
<path style=" stroke:none;fill-rule:evenodd;fill:rgb(100%,100%,100%);fill-opacity:1;" d="M 7.222656 275.796875 L 7.222656 278.328125 L -4.132812 278.328125 L -4.132812 275.796875 Z M 7.222656 275.796875 "/>
<path style=" stroke:none;fill-rule:evenodd;fill:rgb(100%,100%,100%);fill-opacity:1;" d="M 7.976562 269.230469 L 7.976562 271.761719 L 0.777344 271.761719 L 0.777344 269.230469 Z M 7.976562 269.230469 "/>
<path style=" stroke:none;fill-rule:evenodd;fill:rgb(100%,100%,100%);fill-opacity:1;" d="M 43.714844 263.210938 L 80.519531 263.210938 L 80.519531 265.746094 L 43.714844 265.746094 Z M 43.714844 263.210938 "/>
<path style=" stroke:none;fill-rule:evenodd;fill:rgb(100%,100%,100%);fill-opacity:1;" d="M 49.203125 275.875 L 51.734375 275.875 L 51.734375 278.332031 L 49.203125 278.332031 Z M 49.203125 275.875 "/>
<path style=" stroke:none;fill-rule:evenodd;fill:rgb(100%,100%,100%);fill-opacity:1;" d="M 80.613281 275.796875 L 80.613281 278.328125 L 73.257812 278.328125 L 73.257812 275.796875 Z M 80.613281 275.796875 "/>
<path style=" stroke:none;fill-rule:evenodd;fill:rgb(100%,100%,100%);fill-opacity:1;" d="M 84.570312 263.210938 L 87.101562 263.210938 L 87.101562 278.332031 L 84.570312 278.332031 Z M 84.570312 263.210938 "/>
<path style=" stroke:none;fill-rule:evenodd;fill:rgb(100%,100%,100%);fill-opacity:1;" d="M 99.21875 275.796875 L 99.21875 278.328125 L 85.28125 278.328125 L 85.28125 275.796875 Z M 99.21875 275.796875 "/>
<path style=" stroke:none;fill-rule:evenodd;fill:rgb(100%,100%,100%);fill-opacity:1;" d="M 73.257812 269.878906 L 75.789062 269.878906 L 75.789062 278.332031 L 73.257812 278.332031 Z M 73.257812 269.878906 "/>
<path style=" stroke:none;fill-rule:evenodd;fill:rgb(100%,100%,100%);fill-opacity:1;" d="M 97.148438 263.210938 L 99.679688 263.210938 L 99.679688 278.332031 L 97.148438 278.332031 Z M 97.148438 263.210938 "/>
<path style=" stroke:none;fill-rule:evenodd;fill:rgb(100%,100%,100%);fill-opacity:1;" d="M 90.816406 263.210938 L 93.347656 263.210938 L 93.347656 278.332031 L 90.816406 278.332031 Z M 90.816406 263.210938 "/>
<path style=" stroke:none;fill-rule:evenodd;fill:rgb(100%,100%,100%);fill-opacity:1;" d="M 57.21875 269.230469 L 57.21875 271.761719 L 43.785156 271.761719 L 43.785156 269.230469 Z M 57.21875 269.230469 "/>
<path style=" stroke:none;fill-rule:evenodd;fill:rgb(100%,100%,100%);fill-opacity:1;" d="M 86.691406 269.230469 L 86.691406 271.761719 L 73.257812 271.761719 L 73.257812 269.230469 Z M 86.691406 269.230469 "/>
<path style=" stroke:none;fill-rule:evenodd;fill:rgb(100%,100%,100%);fill-opacity:1;" d="M 73.257812 269.878906 L 75.789062 269.878906 L 75.789062 278.332031 L 73.257812 278.332031 Z M 73.257812 269.878906 "/>
<path style=" stroke:none;fill-rule:evenodd;fill:rgb(100%,100%,100%);fill-opacity:1;" d="M 73.257812 269.878906 L 75.789062 269.878906 L 75.789062 278.332031 L 73.257812 278.332031 Z M 73.257812 269.878906 "/>
<path style=" stroke:none;fill-rule:evenodd;fill:rgb(100%,100%,100%);fill-opacity:1;" d="M 73.257812 269.878906 L 75.789062 269.878906 L 75.789062 278.332031 L 73.257812 278.332031 Z M 73.257812 269.878906 "/>
<path style=" stroke:none;fill-rule:evenodd;fill:rgb(100%,100%,100%);fill-opacity:1;" d="M 43.785156 269.878906 L 46.316406 269.878906 L 46.316406 278.332031 L 43.785156 278.332031 Z M 43.785156 269.878906 "/>
<path style=" stroke:none;fill-rule:evenodd;fill:rgb(100%,100%,100%);fill-opacity:1;" d="M 65.390625 269.878906 L 67.921875 269.878906 L 67.921875 278.332031 L 65.390625 278.332031 Z M 65.390625 269.878906 "/>
<path style=" stroke:none;fill-rule:evenodd;fill:rgb(100%,100%,100%);fill-opacity:1;" d="M 54.683594 269.878906 L 57.21875 269.878906 L 57.21875 278.332031 L 54.683594 278.332031 Z M 54.683594 269.878906 "/>
<path style=" stroke:none;fill-rule:evenodd;fill:rgb(100%,100%,100%);fill-opacity:1;" d="M 67.164062 275.796875 L 67.164062 278.328125 L 55.8125 278.328125 L 55.8125 275.796875 Z M 67.164062 275.796875 "/>
<path style=" stroke:none;fill-rule:evenodd;fill:rgb(100%,100%,100%);fill-opacity:1;" d="M 67.921875 269.230469 L 67.921875 271.761719 L 60.722656 271.761719 L 60.722656 269.230469 Z M 67.921875 269.230469 "/>
<path style=" stroke:none;fill-rule:evenodd;fill:rgb(100%,100%,100%);fill-opacity:1;" d="M 104.046875 263.210938 L 140.847656 263.210938 L 140.847656 265.746094 L 104.046875 265.746094 Z M 104.046875 263.210938 "/>
<path style=" stroke:none;fill-rule:evenodd;fill:rgb(100%,100%,100%);fill-opacity:1;" d="M 109.535156 275.875 L 112.066406 275.875 L 112.066406 278.332031 L 109.535156 278.332031 Z M 109.535156 275.875 "/>
<path style=" stroke:none;fill-rule:evenodd;fill:rgb(100%,100%,100%);fill-opacity:1;" d="M 140.945312 275.796875 L 140.945312 278.328125 L 133.589844 278.328125 L 133.589844 275.796875 Z M 140.945312 275.796875 "/>
<path style=" stroke:none;fill-rule:evenodd;fill:rgb(100%,100%,100%);fill-opacity:1;" d="M 144.902344 263.210938 L 147.433594 263.210938 L 147.433594 278.332031 L 144.902344 278.332031 Z M 144.902344 263.210938 "/>
<path style=" stroke:none;fill-rule:evenodd;fill:rgb(100%,100%,100%);fill-opacity:1;" d="M 159.550781 275.796875 L 159.550781 278.328125 L 145.613281 278.328125 L 145.613281 275.796875 Z M 159.550781 275.796875 "/>
<path style=" stroke:none;fill-rule:evenodd;fill:rgb(100%,100%,100%);fill-opacity:1;" d="M 133.589844 269.878906 L 136.121094 269.878906 L 136.121094 278.332031 L 133.589844 278.332031 Z M 133.589844 269.878906 "/>
<path style=" stroke:none;fill-rule:evenodd;fill:rgb(100%,100%,100%);fill-opacity:1;" d="M 157.476562 263.210938 L 160.011719 263.210938 L 160.011719 278.332031 L 157.476562 278.332031 Z M 157.476562 263.210938 "/>
<path style=" stroke:none;fill-rule:evenodd;fill:rgb(100%,100%,100%);fill-opacity:1;" d="M 151.148438 263.210938 L 153.679688 263.210938 L 153.679688 278.332031 L 151.148438 278.332031 Z M 151.148438 263.210938 "/>
<path style=" stroke:none;fill-rule:evenodd;fill:rgb(100%,100%,100%);fill-opacity:1;" d="M 117.546875 269.230469 L 117.546875 271.761719 L 104.117188 271.761719 L 104.117188 269.230469 Z M 117.546875 269.230469 "/>
<path style=" stroke:none;fill-rule:evenodd;fill:rgb(100%,100%,100%);fill-opacity:1;" d="M 147.023438 269.230469 L 147.023438 271.761719 L 133.589844 271.761719 L 133.589844 269.230469 Z M 147.023438 269.230469 "/>
<path style=" stroke:none;fill-rule:evenodd;fill:rgb(100%,100%,100%);fill-opacity:1;" d="M 133.589844 269.878906 L 136.121094 269.878906 L 136.121094 278.332031 L 133.589844 278.332031 Z M 133.589844 269.878906 "/>
<path style=" stroke:none;fill-rule:evenodd;fill:rgb(100%,100%,100%);fill-opacity:1;" d="M 133.589844 269.878906 L 136.121094 269.878906 L 136.121094 278.332031 L 133.589844 278.332031 Z M 133.589844 269.878906 "/>
<path style=" stroke:none;fill-rule:evenodd;fill:rgb(100%,100%,100%);fill-opacity:1;" d="M 133.589844 269.878906 L 136.121094 269.878906 L 136.121094 278.332031 L 133.589844 278.332031 Z M 133.589844 269.878906 "/>
<path style=" stroke:none;fill-rule:evenodd;fill:rgb(100%,100%,100%);fill-opacity:1;" d="M 104.117188 269.878906 L 106.648438 269.878906 L 106.648438 278.332031 L 104.117188 278.332031 Z M 104.117188 269.878906 "/>
<path style=" stroke:none;fill-rule:evenodd;fill:rgb(100%,100%,100%);fill-opacity:1;" d="M 125.71875 269.878906 L 128.253906 269.878906 L 128.253906 278.332031 L 125.71875 278.332031 Z M 125.71875 269.878906 "/>
<path style=" stroke:none;fill-rule:evenodd;fill:rgb(100%,100%,100%);fill-opacity:1;" d="M 115.015625 269.878906 L 117.550781 269.878906 L 117.550781 278.332031 L 115.015625 278.332031 Z M 115.015625 269.878906 "/>
<path style=" stroke:none;fill-rule:evenodd;fill:rgb(100%,100%,100%);fill-opacity:1;" d="M 127.496094 275.796875 L 127.496094 278.328125 L 116.144531 278.328125 L 116.144531 275.796875 Z M 127.496094 275.796875 "/>
<path style=" stroke:none;fill-rule:evenodd;fill:rgb(100%,100%,100%);fill-opacity:1;" d="M 128.253906 269.230469 L 128.253906 271.761719 L 121.054688 271.761719 L 121.054688 269.230469 Z M 128.253906 269.230469 "/>
<path style=" stroke:none;fill-rule:evenodd;fill:rgb(100%,100%,100%);fill-opacity:1;" d="M 164.597656 263.210938 L 201.398438 263.210938 L 201.398438 265.746094 L 164.597656 265.746094 Z M 164.597656 263.210938 "/>
<path style=" stroke:none;fill-rule:evenodd;fill:rgb(100%,100%,100%);fill-opacity:1;" d="M 170.082031 275.875 L 172.613281 275.875 L 172.613281 278.332031 L 170.082031 278.332031 Z M 170.082031 275.875 "/>
<path style=" stroke:none;fill-rule:evenodd;fill:rgb(100%,100%,100%);fill-opacity:1;" d="M 201.492188 275.796875 L 201.492188 278.328125 L 194.136719 278.328125 L 194.136719 275.796875 Z M 201.492188 275.796875 "/>
<path style=" stroke:none;fill-rule:evenodd;fill:rgb(100%,100%,100%);fill-opacity:1;" d="M 205.449219 263.210938 L 207.980469 263.210938 L 207.980469 278.332031 L 205.449219 278.332031 Z M 205.449219 263.210938 "/>
<path style=" stroke:none;fill-rule:evenodd;fill:rgb(100%,100%,100%);fill-opacity:1;" d="M 220.097656 275.796875 L 220.097656 278.328125 L 206.160156 278.328125 L 206.160156 275.796875 Z M 220.097656 275.796875 "/>
<path style=" stroke:none;fill-rule:evenodd;fill:rgb(100%,100%,100%);fill-opacity:1;" d="M 194.136719 269.878906 L 196.671875 269.878906 L 196.671875 278.332031 L 194.136719 278.332031 Z M 194.136719 269.878906 "/>
<path style=" stroke:none;fill-rule:evenodd;fill:rgb(100%,100%,100%);fill-opacity:1;" d="M 218.027344 263.210938 L 220.558594 263.210938 L 220.558594 278.332031 L 218.027344 278.332031 Z M 218.027344 263.210938 "/>
<path style=" stroke:none;fill-rule:evenodd;fill:rgb(100%,100%,100%);fill-opacity:1;" d="M 211.695312 263.210938 L 214.226562 263.210938 L 214.226562 278.332031 L 211.695312 278.332031 Z M 211.695312 263.210938 "/>
<path style=" stroke:none;fill-rule:evenodd;fill:rgb(100%,100%,100%);fill-opacity:1;" d="M 178.097656 269.230469 L 178.097656 271.761719 L 164.664062 271.761719 L 164.664062 269.230469 Z M 178.097656 269.230469 "/>
<path style=" stroke:none;fill-rule:evenodd;fill:rgb(100%,100%,100%);fill-opacity:1;" d="M 207.570312 269.230469 L 207.570312 271.761719 L 194.136719 271.761719 L 194.136719 269.230469 Z M 207.570312 269.230469 "/>
<path style=" stroke:none;fill-rule:evenodd;fill:rgb(100%,100%,100%);fill-opacity:1;" d="M 194.136719 269.878906 L 196.671875 269.878906 L 196.671875 278.332031 L 194.136719 278.332031 Z M 194.136719 269.878906 "/>
<path style=" stroke:none;fill-rule:evenodd;fill:rgb(100%,100%,100%);fill-opacity:1;" d="M 194.136719 269.878906 L 196.671875 269.878906 L 196.671875 278.332031 L 194.136719 278.332031 Z M 194.136719 269.878906 "/>
<path style=" stroke:none;fill-rule:evenodd;fill:rgb(100%,100%,100%);fill-opacity:1;" d="M 194.136719 269.878906 L 196.671875 269.878906 L 196.671875 278.332031 L 194.136719 278.332031 Z M 194.136719 269.878906 "/>
<path style=" stroke:none;fill-rule:evenodd;fill:rgb(100%,100%,100%);fill-opacity:1;" d="M 164.664062 269.878906 L 167.195312 269.878906 L 167.195312 278.332031 L 164.664062 278.332031 Z M 164.664062 269.878906 "/>
<path style=" stroke:none;fill-rule:evenodd;fill:rgb(100%,100%,100%);fill-opacity:1;" d="M 186.269531 269.878906 L 188.800781 269.878906 L 188.800781 278.332031 L 186.269531 278.332031 Z M 186.269531 269.878906 "/>
<path style=" stroke:none;fill-rule:evenodd;fill:rgb(100%,100%,100%);fill-opacity:1;" d="M 175.566406 269.878906 L 178.097656 269.878906 L 178.097656 278.332031 L 175.566406 278.332031 Z M 175.566406 269.878906 "/>
<path style=" stroke:none;fill-rule:evenodd;fill:rgb(100%,100%,100%);fill-opacity:1;" d="M 188.046875 275.796875 L 188.046875 278.328125 L 176.691406 278.328125 L 176.691406 275.796875 Z M 188.046875 275.796875 "/>
<path style=" stroke:none;fill-rule:evenodd;fill:rgb(100%,100%,100%);fill-opacity:1;" d="M 188.800781 269.230469 L 188.800781 271.761719 L 181.601562 271.761719 L 181.601562 269.230469 Z M 188.800781 269.230469 "/>
<g clip-path="url(#clip3)" clip-rule="nonzero">
<path style=" stroke:none;fill-rule:evenodd;fill:rgb(13.72549%,62.352941%,25.098039%);fill-opacity:1;" d="M -143.96875 0 L 528.011719 0 L 528.011719 126.121094 L -143.96875 126.121094 Z M -143.96875 0 "/>
</g>
<path style=" stroke:none;fill-rule:evenodd;fill:rgb(100%,100%,100%);fill-opacity:1;" d="M 225.5 263.210938 L 262.300781 263.210938 L 262.300781 265.746094 L 225.5 265.746094 Z M 225.5 263.210938 "/>
<path style=" stroke:none;fill-rule:evenodd;fill:rgb(100%,100%,100%);fill-opacity:1;" d="M 230.988281 275.875 L 233.519531 275.875 L 233.519531 278.332031 L 230.988281 278.332031 Z M 230.988281 275.875 "/>
<path style=" stroke:none;fill-rule:evenodd;fill:rgb(100%,100%,100%);fill-opacity:1;" d="M 262.398438 275.796875 L 262.398438 278.328125 L 255.042969 278.328125 L 255.042969 275.796875 Z M 262.398438 275.796875 "/>
<path style=" stroke:none;fill-rule:evenodd;fill:rgb(100%,100%,100%);fill-opacity:1;" d="M 266.351562 263.210938 L 268.886719 263.210938 L 268.886719 278.332031 L 266.351562 278.332031 Z M 266.351562 263.210938 "/>
<path style=" stroke:none;fill-rule:evenodd;fill:rgb(100%,100%,100%);fill-opacity:1;" d="M 281.003906 275.796875 L 281.003906 278.328125 L 267.066406 278.328125 L 267.066406 275.796875 Z M 281.003906 275.796875 "/>
<path style=" stroke:none;fill-rule:evenodd;fill:rgb(100%,100%,100%);fill-opacity:1;" d="M 255.042969 269.878906 L 257.574219 269.878906 L 257.574219 278.332031 L 255.042969 278.332031 Z M 255.042969 269.878906 "/>
<path style=" stroke:none;fill-rule:evenodd;fill:rgb(100%,100%,100%);fill-opacity:1;" d="M 278.929688 263.210938 L 281.460938 263.210938 L 281.460938 278.332031 L 278.929688 278.332031 Z M 278.929688 263.210938 "/>
<path style=" stroke:none;fill-rule:evenodd;fill:rgb(100%,100%,100%);fill-opacity:1;" d="M 272.597656 263.210938 L 275.132812 263.210938 L 275.132812 278.332031 L 272.597656 278.332031 Z M 272.597656 263.210938 "/>
<path style=" stroke:none;fill-rule:evenodd;fill:rgb(100%,100%,100%);fill-opacity:1;" d="M 239 269.230469 L 239 271.761719 L 225.570312 271.761719 L 225.570312 269.230469 Z M 239 269.230469 "/>
<path style=" stroke:none;fill-rule:evenodd;fill:rgb(100%,100%,100%);fill-opacity:1;" d="M 268.472656 269.230469 L 268.472656 271.761719 L 255.042969 271.761719 L 255.042969 269.230469 Z M 268.472656 269.230469 "/>
<path style=" stroke:none;fill-rule:evenodd;fill:rgb(100%,100%,100%);fill-opacity:1;" d="M 255.042969 269.878906 L 257.574219 269.878906 L 257.574219 278.332031 L 255.042969 278.332031 Z M 255.042969 269.878906 "/>
<path style=" stroke:none;fill-rule:evenodd;fill:rgb(100%,100%,100%);fill-opacity:1;" d="M 255.042969 269.878906 L 257.574219 269.878906 L 257.574219 278.332031 L 255.042969 278.332031 Z M 255.042969 269.878906 "/>
<path style=" stroke:none;fill-rule:evenodd;fill:rgb(100%,100%,100%);fill-opacity:1;" d="M 255.042969 269.878906 L 257.574219 269.878906 L 257.574219 278.332031 L 255.042969 278.332031 Z M 255.042969 269.878906 "/>
<path style=" stroke:none;fill-rule:evenodd;fill:rgb(100%,100%,100%);fill-opacity:1;" d="M 225.570312 269.878906 L 228.101562 269.878906 L 228.101562 278.332031 L 225.570312 278.332031 Z M 225.570312 269.878906 "/>
<path style=" stroke:none;fill-rule:evenodd;fill:rgb(100%,100%,100%);fill-opacity:1;" d="M 247.171875 269.878906 L 249.703125 269.878906 L 249.703125 278.332031 L 247.171875 278.332031 Z M 247.171875 269.878906 "/>
<path style=" stroke:none;fill-rule:evenodd;fill:rgb(100%,100%,100%);fill-opacity:1;" d="M 236.46875 269.878906 L 239 269.878906 L 239 278.332031 L 236.46875 278.332031 Z M 236.46875 269.878906 "/>
<path style=" stroke:none;fill-rule:evenodd;fill:rgb(100%,100%,100%);fill-opacity:1;" d="M 248.949219 275.796875 L 248.949219 278.328125 L 237.59375 278.328125 L 237.59375 275.796875 Z M 248.949219 275.796875 "/>
<path style=" stroke:none;fill-rule:evenodd;fill:rgb(100%,100%,100%);fill-opacity:1;" d="M 249.703125 269.230469 L 249.703125 271.761719 L 242.507812 271.761719 L 242.507812 269.230469 Z M 249.703125 269.230469 "/>
<path style=" stroke:none;fill-rule:evenodd;fill:rgb(100%,100%,100%);fill-opacity:1;" d="M 286.054688 263.210938 L 322.859375 263.210938 L 322.859375 265.746094 L 286.054688 265.746094 Z M 286.054688 263.210938 "/>
<path style=" stroke:none;fill-rule:evenodd;fill:rgb(100%,100%,100%);fill-opacity:1;" d="M 291.542969 275.875 L 294.074219 275.875 L 294.074219 278.332031 L 291.542969 278.332031 Z M 291.542969 275.875 "/>
<path style=" stroke:none;fill-rule:evenodd;fill:rgb(100%,100%,100%);fill-opacity:1;" d="M 322.953125 275.796875 L 322.953125 278.328125 L 315.597656 278.328125 L 315.597656 275.796875 Z M 322.953125 275.796875 "/>
<path style=" stroke:none;fill-rule:evenodd;fill:rgb(100%,100%,100%);fill-opacity:1;" d="M 326.910156 263.210938 L 329.441406 263.210938 L 329.441406 278.332031 L 326.910156 278.332031 Z M 326.910156 263.210938 "/>
<path style=" stroke:none;fill-rule:evenodd;fill:rgb(100%,100%,100%);fill-opacity:1;" d="M 341.558594 275.796875 L 341.558594 278.328125 L 327.621094 278.328125 L 327.621094 275.796875 Z M 341.558594 275.796875 "/>
<path style=" stroke:none;fill-rule:evenodd;fill:rgb(100%,100%,100%);fill-opacity:1;" d="M 315.597656 269.878906 L 318.128906 269.878906 L 318.128906 278.332031 L 315.597656 278.332031 Z M 315.597656 269.878906 "/>
<path style=" stroke:none;fill-rule:evenodd;fill:rgb(100%,100%,100%);fill-opacity:1;" d="M 339.488281 263.210938 L 342.019531 263.210938 L 342.019531 278.332031 L 339.488281 278.332031 Z M 339.488281 263.210938 "/>
<path style=" stroke:none;fill-rule:evenodd;fill:rgb(100%,100%,100%);fill-opacity:1;" d="M 333.15625 263.210938 L 335.6875 263.210938 L 335.6875 278.332031 L 333.15625 278.332031 Z M 333.15625 263.210938 "/>
<path style=" stroke:none;fill-rule:evenodd;fill:rgb(100%,100%,100%);fill-opacity:1;" d="M 299.558594 269.230469 L 299.558594 271.761719 L 286.125 271.761719 L 286.125 269.230469 Z M 299.558594 269.230469 "/>
<path style=" stroke:none;fill-rule:evenodd;fill:rgb(100%,100%,100%);fill-opacity:1;" d="M 329.03125 269.230469 L 329.03125 271.761719 L 315.597656 271.761719 L 315.597656 269.230469 Z M 329.03125 269.230469 "/>
<path style=" stroke:none;fill-rule:evenodd;fill:rgb(100%,100%,100%);fill-opacity:1;" d="M 315.597656 269.878906 L 318.128906 269.878906 L 318.128906 278.332031 L 315.597656 278.332031 Z M 315.597656 269.878906 "/>
<path style=" stroke:none;fill-rule:evenodd;fill:rgb(100%,100%,100%);fill-opacity:1;" d="M 315.597656 269.878906 L 318.128906 269.878906 L 318.128906 278.332031 L 315.597656 278.332031 Z M 315.597656 269.878906 "/>
<path style=" stroke:none;fill-rule:evenodd;fill:rgb(100%,100%,100%);fill-opacity:1;" d="M 315.597656 269.878906 L 318.128906 269.878906 L 318.128906 278.332031 L 315.597656 278.332031 Z M 315.597656 269.878906 "/>
<path style=" stroke:none;fill-rule:evenodd;fill:rgb(100%,100%,100%);fill-opacity:1;" d="M 286.125 269.878906 L 288.65625 269.878906 L 288.65625 278.332031 L 286.125 278.332031 Z M 286.125 269.878906 "/>
<path style=" stroke:none;fill-rule:evenodd;fill:rgb(100%,100%,100%);fill-opacity:1;" d="M 307.726562 269.878906 L 310.261719 269.878906 L 310.261719 278.332031 L 307.726562 278.332031 Z M 307.726562 269.878906 "/>
<path style=" stroke:none;fill-rule:evenodd;fill:rgb(100%,100%,100%);fill-opacity:1;" d="M 297.023438 269.878906 L 299.558594 269.878906 L 299.558594 278.332031 L 297.023438 278.332031 Z M 297.023438 269.878906 "/>
<path style=" stroke:none;fill-rule:evenodd;fill:rgb(100%,100%,100%);fill-opacity:1;" d="M 309.503906 275.796875 L 309.503906 278.328125 L 298.152344 278.328125 L 298.152344 275.796875 Z M 309.503906 275.796875 "/>
<path style=" stroke:none;fill-rule:evenodd;fill:rgb(100%,100%,100%);fill-opacity:1;" d="M 310.261719 269.230469 L 310.261719 271.761719 L 303.0625 271.761719 L 303.0625 269.230469 Z M 310.261719 269.230469 "/>
<g clip-path="url(#clip4)" clip-rule="nonzero">
<path style=" stroke:none;fill-rule:evenodd;fill:rgb(100%,100%,100%);fill-opacity:1;" d="M 346.605469 263.210938 L 383.40625 263.210938 L 383.40625 265.746094 L 346.605469 265.746094 Z M 346.605469 263.210938 "/>
</g>
<path style=" stroke:none;fill-rule:evenodd;fill:rgb(100%,100%,100%);fill-opacity:1;" d="M 352.089844 275.875 L 354.625 275.875 L 354.625 278.332031 L 352.089844 278.332031 Z M 352.089844 275.875 "/>
<g clip-path="url(#clip5)" clip-rule="nonzero">
<path style=" stroke:none;fill-rule:evenodd;fill:rgb(100%,100%,100%);fill-opacity:1;" d="M 383.5 275.796875 L 383.5 278.328125 L 376.148438 278.328125 L 376.148438 275.796875 Z M 383.5 275.796875 "/>
</g>
<path style=" stroke:none;fill-rule:evenodd;fill:rgb(100%,100%,100%);fill-opacity:1;" d="M 376.148438 269.878906 L 378.679688 269.878906 L 378.679688 278.332031 L 376.148438 278.332031 Z M 376.148438 269.878906 "/>
<path style=" stroke:none;fill-rule:evenodd;fill:rgb(100%,100%,100%);fill-opacity:1;" d="M 360.105469 269.230469 L 360.105469 271.761719 L 346.671875 271.761719 L 346.671875 269.230469 Z M 360.105469 269.230469 "/>
<g clip-path="url(#clip6)" clip-rule="nonzero">
<path style=" stroke:none;fill-rule:evenodd;fill:rgb(100%,100%,100%);fill-opacity:1;" d="M 389.578125 269.230469 L 389.578125 271.761719 L 376.148438 271.761719 L 376.148438 269.230469 Z M 389.578125 269.230469 "/>
</g>
<path style=" stroke:none;fill-rule:evenodd;fill:rgb(100%,100%,100%);fill-opacity:1;" d="M 376.148438 269.878906 L 378.679688 269.878906 L 378.679688 278.332031 L 376.148438 278.332031 Z M 376.148438 269.878906 "/>
<path style=" stroke:none;fill-rule:evenodd;fill:rgb(100%,100%,100%);fill-opacity:1;" d="M 376.148438 269.878906 L 378.679688 269.878906 L 378.679688 278.332031 L 376.148438 278.332031 Z M 376.148438 269.878906 "/>
<path style=" stroke:none;fill-rule:evenodd;fill:rgb(100%,100%,100%);fill-opacity:1;" d="M 376.148438 269.878906 L 378.679688 269.878906 L 378.679688 278.332031 L 376.148438 278.332031 Z M 376.148438 269.878906 "/>
<path style=" stroke:none;fill-rule:evenodd;fill:rgb(100%,100%,100%);fill-opacity:1;" d="M 346.671875 269.878906 L 349.203125 269.878906 L 349.203125 278.332031 L 346.671875 278.332031 Z M 346.671875 269.878906 "/>
<path style=" stroke:none;fill-rule:evenodd;fill:rgb(100%,100%,100%);fill-opacity:1;" d="M 368.277344 269.878906 L 370.808594 269.878906 L 370.808594 278.332031 L 368.277344 278.332031 Z M 368.277344 269.878906 "/>
<path style=" stroke:none;fill-rule:evenodd;fill:rgb(100%,100%,100%);fill-opacity:1;" d="M 357.574219 269.878906 L 360.105469 269.878906 L 360.105469 278.332031 L 357.574219 278.332031 Z M 357.574219 269.878906 "/>
<path style=" stroke:none;fill-rule:evenodd;fill:rgb(100%,100%,100%);fill-opacity:1;" d="M 370.054688 275.796875 L 370.054688 278.328125 L 358.699219 278.328125 L 358.699219 275.796875 Z M 370.054688 275.796875 "/>
<path style=" stroke:none;fill-rule:evenodd;fill:rgb(100%,100%,100%);fill-opacity:1;" d="M 370.808594 269.230469 L 370.808594 271.761719 L 363.609375 271.761719 L 363.609375 269.230469 Z M 370.808594 269.230469 "/>
<path style=" stroke:none;fill-rule:evenodd;fill:rgb(100%,100%,100%);fill-opacity:1;" d="M -16.226562 107.578125 L 20.574219 107.578125 L 20.574219 110.109375 L -16.226562 110.109375 Z M -16.226562 107.578125 "/>
<path style=" stroke:none;fill-rule:evenodd;fill:rgb(100%,100%,100%);fill-opacity:1;" d="M 20.667969 120.160156 L 20.667969 122.691406 L 13.3125 122.691406 L 13.3125 120.160156 Z M 20.667969 120.160156 "/>
<path style=" stroke:none;fill-rule:evenodd;fill:rgb(100%,100%,100%);fill-opacity:1;" d="M 24.625 107.578125 L 27.15625 107.578125 L 27.15625 122.695312 L 24.625 122.695312 Z M 24.625 107.578125 "/>
<path style=" stroke:none;fill-rule:evenodd;fill:rgb(100%,100%,100%);fill-opacity:1;" d="M 39.277344 120.160156 L 39.277344 122.691406 L 25.335938 122.691406 L 25.335938 120.160156 Z M 39.277344 120.160156 "/>
<path style=" stroke:none;fill-rule:evenodd;fill:rgb(100%,100%,100%);fill-opacity:1;" d="M 13.3125 114.246094 L 15.847656 114.246094 L 15.847656 122.695312 L 13.3125 122.695312 Z M 13.3125 114.246094 "/>
<path style=" stroke:none;fill-rule:evenodd;fill:rgb(100%,100%,100%);fill-opacity:1;" d="M 37.203125 107.578125 L 39.734375 107.578125 L 39.734375 122.695312 L 37.203125 122.695312 Z M 37.203125 107.578125 "/>
<path style=" stroke:none;fill-rule:evenodd;fill:rgb(100%,100%,100%);fill-opacity:1;" d="M 30.871094 107.578125 L 33.402344 107.578125 L 33.402344 122.695312 L 30.871094 122.695312 Z M 30.871094 107.578125 "/>
<path style=" stroke:none;fill-rule:evenodd;fill:rgb(100%,100%,100%);fill-opacity:1;" d="M 26.746094 113.59375 L 26.746094 116.125 L 13.3125 116.125 L 13.3125 113.59375 Z M 26.746094 113.59375 "/>
<path style=" stroke:none;fill-rule:evenodd;fill:rgb(100%,100%,100%);fill-opacity:1;" d="M 13.3125 114.246094 L 15.847656 114.246094 L 15.847656 122.695312 L 13.3125 122.695312 Z M 13.3125 114.246094 "/>
<path style=" stroke:none;fill-rule:evenodd;fill:rgb(100%,100%,100%);fill-opacity:1;" d="M 13.3125 114.246094 L 15.847656 114.246094 L 15.847656 122.695312 L 13.3125 122.695312 Z M 13.3125 114.246094 "/>
<path style=" stroke:none;fill-rule:evenodd;fill:rgb(100%,100%,100%);fill-opacity:1;" d="M 13.3125 114.246094 L 15.847656 114.246094 L 15.847656 122.695312 L 13.3125 122.695312 Z M 13.3125 114.246094 "/>
<path style=" stroke:none;fill-rule:evenodd;fill:rgb(100%,100%,100%);fill-opacity:1;" d="M 5.445312 114.246094 L 7.976562 114.246094 L 7.976562 122.695312 L 5.445312 122.695312 Z M 5.445312 114.246094 "/>
<path style=" stroke:none;fill-rule:evenodd;fill:rgb(100%,100%,100%);fill-opacity:1;" d="M 7.222656 120.160156 L 7.222656 122.691406 L -4.132812 122.691406 L -4.132812 120.160156 Z M 7.222656 120.160156 "/>
<path style=" stroke:none;fill-rule:evenodd;fill:rgb(100%,100%,100%);fill-opacity:1;" d="M 7.976562 113.59375 L 7.976562 116.125 L 0.777344 116.125 L 0.777344 113.59375 Z M 7.976562 113.59375 "/>
<path style=" stroke:none;fill-rule:evenodd;fill:rgb(100%,100%,100%);fill-opacity:1;" d="M 43.714844 107.578125 L 80.519531 107.578125 L 80.519531 110.109375 L 43.714844 110.109375 Z M 43.714844 107.578125 "/>
<path style=" stroke:none;fill-rule:evenodd;fill:rgb(100%,100%,100%);fill-opacity:1;" d="M 49.203125 120.238281 L 51.734375 120.238281 L 51.734375 122.699219 L 49.203125 122.699219 Z M 49.203125 120.238281 "/>
<path style=" stroke:none;fill-rule:evenodd;fill:rgb(100%,100%,100%);fill-opacity:1;" d="M 80.613281 120.160156 L 80.613281 122.691406 L 73.257812 122.691406 L 73.257812 120.160156 Z M 80.613281 120.160156 "/>
<path style=" stroke:none;fill-rule:evenodd;fill:rgb(100%,100%,100%);fill-opacity:1;" d="M 84.570312 107.578125 L 87.101562 107.578125 L 87.101562 122.695312 L 84.570312 122.695312 Z M 84.570312 107.578125 "/>
<path style=" stroke:none;fill-rule:evenodd;fill:rgb(100%,100%,100%);fill-opacity:1;" d="M 99.21875 120.160156 L 99.21875 122.691406 L 85.28125 122.691406 L 85.28125 120.160156 Z M 99.21875 120.160156 "/>
<path style=" stroke:none;fill-rule:evenodd;fill:rgb(100%,100%,100%);fill-opacity:1;" d="M 73.257812 114.246094 L 75.789062 114.246094 L 75.789062 122.695312 L 73.257812 122.695312 Z M 73.257812 114.246094 "/>
<path style=" stroke:none;fill-rule:evenodd;fill:rgb(100%,100%,100%);fill-opacity:1;" d="M 97.148438 107.578125 L 99.679688 107.578125 L 99.679688 122.695312 L 97.148438 122.695312 Z M 97.148438 107.578125 "/>
<path style=" stroke:none;fill-rule:evenodd;fill:rgb(100%,100%,100%);fill-opacity:1;" d="M 90.816406 107.578125 L 93.347656 107.578125 L 93.347656 122.695312 L 90.816406 122.695312 Z M 90.816406 107.578125 "/>
<path style=" stroke:none;fill-rule:evenodd;fill:rgb(100%,100%,100%);fill-opacity:1;" d="M 57.21875 113.59375 L 57.21875 116.125 L 43.785156 116.125 L 43.785156 113.59375 Z M 57.21875 113.59375 "/>
<path style=" stroke:none;fill-rule:evenodd;fill:rgb(100%,100%,100%);fill-opacity:1;" d="M 86.691406 113.59375 L 86.691406 116.125 L 73.257812 116.125 L 73.257812 113.59375 Z M 86.691406 113.59375 "/>
<path style=" stroke:none;fill-rule:evenodd;fill:rgb(100%,100%,100%);fill-opacity:1;" d="M 73.257812 114.246094 L 75.789062 114.246094 L 75.789062 122.695312 L 73.257812 122.695312 Z M 73.257812 114.246094 "/>
<path style=" stroke:none;fill-rule:evenodd;fill:rgb(100%,100%,100%);fill-opacity:1;" d="M 73.257812 114.246094 L 75.789062 114.246094 L 75.789062 122.695312 L 73.257812 122.695312 Z M 73.257812 114.246094 "/>
<path style=" stroke:none;fill-rule:evenodd;fill:rgb(100%,100%,100%);fill-opacity:1;" d="M 73.257812 114.246094 L 75.789062 114.246094 L 75.789062 122.695312 L 73.257812 122.695312 Z M 73.257812 114.246094 "/>
<path style=" stroke:none;fill-rule:evenodd;fill:rgb(100%,100%,100%);fill-opacity:1;" d="M 43.785156 114.246094 L 46.316406 114.246094 L 46.316406 122.695312 L 43.785156 122.695312 Z M 43.785156 114.246094 "/>
<path style=" stroke:none;fill-rule:evenodd;fill:rgb(100%,100%,100%);fill-opacity:1;" d="M 65.390625 114.246094 L 67.921875 114.246094 L 67.921875 122.695312 L 65.390625 122.695312 Z M 65.390625 114.246094 "/>
<path style=" stroke:none;fill-rule:evenodd;fill:rgb(100%,100%,100%);fill-opacity:1;" d="M 54.683594 114.246094 L 57.21875 114.246094 L 57.21875 122.695312 L 54.683594 122.695312 Z M 54.683594 114.246094 "/>
<path style=" stroke:none;fill-rule:evenodd;fill:rgb(100%,100%,100%);fill-opacity:1;" d="M 67.164062 120.160156 L 67.164062 122.691406 L 55.8125 122.691406 L 55.8125 120.160156 Z M 67.164062 120.160156 "/>
<path style=" stroke:none;fill-rule:evenodd;fill:rgb(100%,100%,100%);fill-opacity:1;" d="M 67.921875 113.59375 L 67.921875 116.125 L 60.722656 116.125 L 60.722656 113.59375 Z M 67.921875 113.59375 "/>
<path style=" stroke:none;fill-rule:evenodd;fill:rgb(100%,100%,100%);fill-opacity:1;" d="M 104.046875 107.578125 L 140.847656 107.578125 L 140.847656 110.109375 L 104.046875 110.109375 Z M 104.046875 107.578125 "/>
<path style=" stroke:none;fill-rule:evenodd;fill:rgb(100%,100%,100%);fill-opacity:1;" d="M 109.535156 120.238281 L 112.066406 120.238281 L 112.066406 122.699219 L 109.535156 122.699219 Z M 109.535156 120.238281 "/>
<path style=" stroke:none;fill-rule:evenodd;fill:rgb(100%,100%,100%);fill-opacity:1;" d="M 140.945312 120.160156 L 140.945312 122.691406 L 133.589844 122.691406 L 133.589844 120.160156 Z M 140.945312 120.160156 "/>
<path style=" stroke:none;fill-rule:evenodd;fill:rgb(100%,100%,100%);fill-opacity:1;" d="M 144.902344 107.578125 L 147.433594 107.578125 L 147.433594 122.695312 L 144.902344 122.695312 Z M 144.902344 107.578125 "/>
<path style=" stroke:none;fill-rule:evenodd;fill:rgb(100%,100%,100%);fill-opacity:1;" d="M 159.550781 120.160156 L 159.550781 122.691406 L 145.613281 122.691406 L 145.613281 120.160156 Z M 159.550781 120.160156 "/>
<path style=" stroke:none;fill-rule:evenodd;fill:rgb(100%,100%,100%);fill-opacity:1;" d="M 133.589844 114.246094 L 136.121094 114.246094 L 136.121094 122.695312 L 133.589844 122.695312 Z M 133.589844 114.246094 "/>
<path style=" stroke:none;fill-rule:evenodd;fill:rgb(100%,100%,100%);fill-opacity:1;" d="M 157.476562 107.578125 L 160.011719 107.578125 L 160.011719 122.695312 L 157.476562 122.695312 Z M 157.476562 107.578125 "/>
<path style=" stroke:none;fill-rule:evenodd;fill:rgb(100%,100%,100%);fill-opacity:1;" d="M 151.148438 107.578125 L 153.679688 107.578125 L 153.679688 122.695312 L 151.148438 122.695312 Z M 151.148438 107.578125 "/>
<path style=" stroke:none;fill-rule:evenodd;fill:rgb(100%,100%,100%);fill-opacity:1;" d="M 117.546875 113.59375 L 117.546875 116.125 L 104.117188 116.125 L 104.117188 113.59375 Z M 117.546875 113.59375 "/>
<path style=" stroke:none;fill-rule:evenodd;fill:rgb(100%,100%,100%);fill-opacity:1;" d="M 147.023438 113.59375 L 147.023438 116.125 L 133.589844 116.125 L 133.589844 113.59375 Z M 147.023438 113.59375 "/>
<path style=" stroke:none;fill-rule:evenodd;fill:rgb(100%,100%,100%);fill-opacity:1;" d="M 133.589844 114.246094 L 136.121094 114.246094 L 136.121094 122.695312 L 133.589844 122.695312 Z M 133.589844 114.246094 "/>
<path style=" stroke:none;fill-rule:evenodd;fill:rgb(100%,100%,100%);fill-opacity:1;" d="M 133.589844 114.246094 L 136.121094 114.246094 L 136.121094 122.695312 L 133.589844 122.695312 Z M 133.589844 114.246094 "/>
<path style=" stroke:none;fill-rule:evenodd;fill:rgb(100%,100%,100%);fill-opacity:1;" d="M 133.589844 114.246094 L 136.121094 114.246094 L 136.121094 122.695312 L 133.589844 122.695312 Z M 133.589844 114.246094 "/>
<path style=" stroke:none;fill-rule:evenodd;fill:rgb(100%,100%,100%);fill-opacity:1;" d="M 104.117188 114.246094 L 106.648438 114.246094 L 106.648438 122.695312 L 104.117188 122.695312 Z M 104.117188 114.246094 "/>
<path style=" stroke:none;fill-rule:evenodd;fill:rgb(100%,100%,100%);fill-opacity:1;" d="M 125.71875 114.246094 L 128.253906 114.246094 L 128.253906 122.695312 L 125.71875 122.695312 Z M 125.71875 114.246094 "/>
<path style=" stroke:none;fill-rule:evenodd;fill:rgb(100%,100%,100%);fill-opacity:1;" d="M 115.015625 114.246094 L 117.550781 114.246094 L 117.550781 122.695312 L 115.015625 122.695312 Z M 115.015625 114.246094 "/>
<path style=" stroke:none;fill-rule:evenodd;fill:rgb(100%,100%,100%);fill-opacity:1;" d="M 127.496094 120.160156 L 127.496094 122.691406 L 116.144531 122.691406 L 116.144531 120.160156 Z M 127.496094 120.160156 "/>
<path style=" stroke:none;fill-rule:evenodd;fill:rgb(100%,100%,100%);fill-opacity:1;" d="M 128.253906 113.59375 L 128.253906 116.125 L 121.054688 116.125 L 121.054688 113.59375 Z M 128.253906 113.59375 "/>
<path style=" stroke:none;fill-rule:evenodd;fill:rgb(100%,100%,100%);fill-opacity:1;" d="M 164.597656 107.578125 L 201.398438 107.578125 L 201.398438 110.109375 L 164.597656 110.109375 Z M 164.597656 107.578125 "/>
<path style=" stroke:none;fill-rule:evenodd;fill:rgb(100%,100%,100%);fill-opacity:1;" d="M 170.082031 120.238281 L 172.613281 120.238281 L 172.613281 122.699219 L 170.082031 122.699219 Z M 170.082031 120.238281 "/>
<path style=" stroke:none;fill-rule:evenodd;fill:rgb(100%,100%,100%);fill-opacity:1;" d="M 201.492188 120.160156 L 201.492188 122.691406 L 194.136719 122.691406 L 194.136719 120.160156 Z M 201.492188 120.160156 "/>
<path style=" stroke:none;fill-rule:evenodd;fill:rgb(100%,100%,100%);fill-opacity:1;" d="M 205.449219 107.578125 L 207.980469 107.578125 L 207.980469 122.695312 L 205.449219 122.695312 Z M 205.449219 107.578125 "/>
<path style=" stroke:none;fill-rule:evenodd;fill:rgb(100%,100%,100%);fill-opacity:1;" d="M 220.097656 120.160156 L 220.097656 122.691406 L 206.160156 122.691406 L 206.160156 120.160156 Z M 220.097656 120.160156 "/>
<path style=" stroke:none;fill-rule:evenodd;fill:rgb(100%,100%,100%);fill-opacity:1;" d="M 194.136719 114.246094 L 196.671875 114.246094 L 196.671875 122.695312 L 194.136719 122.695312 Z M 194.136719 114.246094 "/>
<path style=" stroke:none;fill-rule:evenodd;fill:rgb(100%,100%,100%);fill-opacity:1;" d="M 218.027344 107.578125 L 220.558594 107.578125 L 220.558594 122.695312 L 218.027344 122.695312 Z M 218.027344 107.578125 "/>
<path style=" stroke:none;fill-rule:evenodd;fill:rgb(100%,100%,100%);fill-opacity:1;" d="M 211.695312 107.578125 L 214.226562 107.578125 L 214.226562 122.695312 L 211.695312 122.695312 Z M 211.695312 107.578125 "/>
<path style=" stroke:none;fill-rule:evenodd;fill:rgb(100%,100%,100%);fill-opacity:1;" d="M 178.097656 113.59375 L 178.097656 116.125 L 164.664062 116.125 L 164.664062 113.59375 Z M 178.097656 113.59375 "/>
<path style=" stroke:none;fill-rule:evenodd;fill:rgb(100%,100%,100%);fill-opacity:1;" d="M 207.570312 113.59375 L 207.570312 116.125 L 194.136719 116.125 L 194.136719 113.59375 Z M 207.570312 113.59375 "/>
<path style=" stroke:none;fill-rule:evenodd;fill:rgb(100%,100%,100%);fill-opacity:1;" d="M 194.136719 114.246094 L 196.671875 114.246094 L 196.671875 122.695312 L 194.136719 122.695312 Z M 194.136719 114.246094 "/>
<path style=" stroke:none;fill-rule:evenodd;fill:rgb(100%,100%,100%);fill-opacity:1;" d="M 194.136719 114.246094 L 196.671875 114.246094 L 196.671875 122.695312 L 194.136719 122.695312 Z M 194.136719 114.246094 "/>
<path style=" stroke:none;fill-rule:evenodd;fill:rgb(100%,100%,100%);fill-opacity:1;" d="M 194.136719 114.246094 L 196.671875 114.246094 L 196.671875 122.695312 L 194.136719 122.695312 Z M 194.136719 114.246094 "/>
<path style=" stroke:none;fill-rule:evenodd;fill:rgb(100%,100%,100%);fill-opacity:1;" d="M 164.664062 114.246094 L 167.195312 114.246094 L 167.195312 122.695312 L 164.664062 122.695312 Z M 164.664062 114.246094 "/>
<path style=" stroke:none;fill-rule:evenodd;fill:rgb(100%,100%,100%);fill-opacity:1;" d="M 186.269531 114.246094 L 188.800781 114.246094 L 188.800781 122.695312 L 186.269531 122.695312 Z M 186.269531 114.246094 "/>
<path style=" stroke:none;fill-rule:evenodd;fill:rgb(100%,100%,100%);fill-opacity:1;" d="M 175.566406 114.246094 L 178.097656 114.246094 L 178.097656 122.695312 L 175.566406 122.695312 Z M 175.566406 114.246094 "/>
<path style=" stroke:none;fill-rule:evenodd;fill:rgb(100%,100%,100%);fill-opacity:1;" d="M 188.046875 120.160156 L 188.046875 122.691406 L 176.691406 122.691406 L 176.691406 120.160156 Z M 188.046875 120.160156 "/>
<path style=" stroke:none;fill-rule:evenodd;fill:rgb(100%,100%,100%);fill-opacity:1;" d="M 188.800781 113.59375 L 188.800781 116.125 L 181.601562 116.125 L 181.601562 113.59375 Z M 188.800781 113.59375 "/>
<path style=" stroke:none;fill-rule:evenodd;fill:rgb(100%,100%,100%);fill-opacity:1;" d="M 225.5 107.578125 L 262.300781 107.578125 L 262.300781 110.109375 L 225.5 110.109375 Z M 225.5 107.578125 "/>
<path style=" stroke:none;fill-rule:evenodd;fill:rgb(100%,100%,100%);fill-opacity:1;" d="M 230.988281 120.238281 L 233.519531 120.238281 L 233.519531 122.699219 L 230.988281 122.699219 Z M 230.988281 120.238281 "/>
<path style=" stroke:none;fill-rule:evenodd;fill:rgb(100%,100%,100%);fill-opacity:1;" d="M 262.398438 120.160156 L 262.398438 122.691406 L 255.042969 122.691406 L 255.042969 120.160156 Z M 262.398438 120.160156 "/>
<path style=" stroke:none;fill-rule:evenodd;fill:rgb(100%,100%,100%);fill-opacity:1;" d="M 266.351562 107.578125 L 268.886719 107.578125 L 268.886719 122.695312 L 266.351562 122.695312 Z M 266.351562 107.578125 "/>
<path style=" stroke:none;fill-rule:evenodd;fill:rgb(100%,100%,100%);fill-opacity:1;" d="M 281.003906 120.160156 L 281.003906 122.691406 L 267.066406 122.691406 L 267.066406 120.160156 Z M 281.003906 120.160156 "/>
<path style=" stroke:none;fill-rule:evenodd;fill:rgb(100%,100%,100%);fill-opacity:1;" d="M 255.042969 114.246094 L 257.574219 114.246094 L 257.574219 122.695312 L 255.042969 122.695312 Z M 255.042969 114.246094 "/>
<path style=" stroke:none;fill-rule:evenodd;fill:rgb(100%,100%,100%);fill-opacity:1;" d="M 278.929688 107.578125 L 281.460938 107.578125 L 281.460938 122.695312 L 278.929688 122.695312 Z M 278.929688 107.578125 "/>
<path style=" stroke:none;fill-rule:evenodd;fill:rgb(100%,100%,100%);fill-opacity:1;" d="M 272.597656 107.578125 L 275.132812 107.578125 L 275.132812 122.695312 L 272.597656 122.695312 Z M 272.597656 107.578125 "/>
<path style=" stroke:none;fill-rule:evenodd;fill:rgb(100%,100%,100%);fill-opacity:1;" d="M 239 113.59375 L 239 116.125 L 225.570312 116.125 L 225.570312 113.59375 Z M 239 113.59375 "/>
<path style=" stroke:none;fill-rule:evenodd;fill:rgb(100%,100%,100%);fill-opacity:1;" d="M 268.472656 113.59375 L 268.472656 116.125 L 255.042969 116.125 L 255.042969 113.59375 Z M 268.472656 113.59375 "/>
<path style=" stroke:none;fill-rule:evenodd;fill:rgb(100%,100%,100%);fill-opacity:1;" d="M 255.042969 114.246094 L 257.574219 114.246094 L 257.574219 122.695312 L 255.042969 122.695312 Z M 255.042969 114.246094 "/>
<path style=" stroke:none;fill-rule:evenodd;fill:rgb(100%,100%,100%);fill-opacity:1;" d="M 255.042969 114.246094 L 257.574219 114.246094 L 257.574219 122.695312 L 255.042969 122.695312 Z M 255.042969 114.246094 "/>
<path style=" stroke:none;fill-rule:evenodd;fill:rgb(100%,100%,100%);fill-opacity:1;" d="M 255.042969 114.246094 L 257.574219 114.246094 L 257.574219 122.695312 L 255.042969 122.695312 Z M 255.042969 114.246094 "/>
<path style=" stroke:none;fill-rule:evenodd;fill:rgb(100%,100%,100%);fill-opacity:1;" d="M 225.570312 114.246094 L 228.101562 114.246094 L 228.101562 122.695312 L 225.570312 122.695312 Z M 225.570312 114.246094 "/>
<path style=" stroke:none;fill-rule:evenodd;fill:rgb(100%,100%,100%);fill-opacity:1;" d="M 247.171875 114.246094 L 249.703125 114.246094 L 249.703125 122.695312 L 247.171875 122.695312 Z M 247.171875 114.246094 "/>
<path style=" stroke:none;fill-rule:evenodd;fill:rgb(100%,100%,100%);fill-opacity:1;" d="M 236.46875 114.246094 L 239 114.246094 L 239 122.695312 L 236.46875 122.695312 Z M 236.46875 114.246094 "/>
<path style=" stroke:none;fill-rule:evenodd;fill:rgb(100%,100%,100%);fill-opacity:1;" d="M 248.949219 120.160156 L 248.949219 122.691406 L 237.59375 122.691406 L 237.59375 120.160156 Z M 248.949219 120.160156 "/>
<path style=" stroke:none;fill-rule:evenodd;fill:rgb(100%,100%,100%);fill-opacity:1;" d="M 249.703125 113.59375 L 249.703125 116.125 L 242.507812 116.125 L 242.507812 113.59375 Z M 249.703125 113.59375 "/>
<path style=" stroke:none;fill-rule:evenodd;fill:rgb(100%,100%,100%);fill-opacity:1;" d="M 286.054688 107.578125 L 322.859375 107.578125 L 322.859375 110.109375 L 286.054688 110.109375 Z M 286.054688 107.578125 "/>
<path style=" stroke:none;fill-rule:evenodd;fill:rgb(100%,100%,100%);fill-opacity:1;" d="M 291.542969 120.238281 L 294.074219 120.238281 L 294.074219 122.699219 L 291.542969 122.699219 Z M 291.542969 120.238281 "/>
<path style=" stroke:none;fill-rule:evenodd;fill:rgb(100%,100%,100%);fill-opacity:1;" d="M 322.953125 120.160156 L 322.953125 122.691406 L 315.597656 122.691406 L 315.597656 120.160156 Z M 322.953125 120.160156 "/>
<path style=" stroke:none;fill-rule:evenodd;fill:rgb(100%,100%,100%);fill-opacity:1;" d="M 326.910156 107.578125 L 329.441406 107.578125 L 329.441406 122.695312 L 326.910156 122.695312 Z M 326.910156 107.578125 "/>
<path style=" stroke:none;fill-rule:evenodd;fill:rgb(100%,100%,100%);fill-opacity:1;" d="M 341.558594 120.160156 L 341.558594 122.691406 L 327.621094 122.691406 L 327.621094 120.160156 Z M 341.558594 120.160156 "/>
<path style=" stroke:none;fill-rule:evenodd;fill:rgb(100%,100%,100%);fill-opacity:1;" d="M 315.597656 114.246094 L 318.128906 114.246094 L 318.128906 122.695312 L 315.597656 122.695312 Z M 315.597656 114.246094 "/>
<path style=" stroke:none;fill-rule:evenodd;fill:rgb(100%,100%,100%);fill-opacity:1;" d="M 339.488281 107.578125 L 342.019531 107.578125 L 342.019531 122.695312 L 339.488281 122.695312 Z M 339.488281 107.578125 "/>
<path style=" stroke:none;fill-rule:evenodd;fill:rgb(100%,100%,100%);fill-opacity:1;" d="M 333.15625 107.578125 L 335.6875 107.578125 L 335.6875 122.695312 L 333.15625 122.695312 Z M 333.15625 107.578125 "/>
<path style=" stroke:none;fill-rule:evenodd;fill:rgb(100%,100%,100%);fill-opacity:1;" d="M 299.558594 113.59375 L 299.558594 116.125 L 286.125 116.125 L 286.125 113.59375 Z M 299.558594 113.59375 "/>
<path style=" stroke:none;fill-rule:evenodd;fill:rgb(100%,100%,100%);fill-opacity:1;" d="M 329.03125 113.59375 L 329.03125 116.125 L 315.597656 116.125 L 315.597656 113.59375 Z M 329.03125 113.59375 "/>
<path style=" stroke:none;fill-rule:evenodd;fill:rgb(100%,100%,100%);fill-opacity:1;" d="M 315.597656 114.246094 L 318.128906 114.246094 L 318.128906 122.695312 L 315.597656 122.695312 Z M 315.597656 114.246094 "/>
<path style=" stroke:none;fill-rule:evenodd;fill:rgb(100%,100%,100%);fill-opacity:1;" d="M 315.597656 114.246094 L 318.128906 114.246094 L 318.128906 122.695312 L 315.597656 122.695312 Z M 315.597656 114.246094 "/>
<path style=" stroke:none;fill-rule:evenodd;fill:rgb(100%,100%,100%);fill-opacity:1;" d="M 315.597656 114.246094 L 318.128906 114.246094 L 318.128906 122.695312 L 315.597656 122.695312 Z M 315.597656 114.246094 "/>
<path style=" stroke:none;fill-rule:evenodd;fill:rgb(100%,100%,100%);fill-opacity:1;" d="M 286.125 114.246094 L 288.65625 114.246094 L 288.65625 122.695312 L 286.125 122.695312 Z M 286.125 114.246094 "/>
<path style=" stroke:none;fill-rule:evenodd;fill:rgb(100%,100%,100%);fill-opacity:1;" d="M 307.726562 114.246094 L 310.261719 114.246094 L 310.261719 122.695312 L 307.726562 122.695312 Z M 307.726562 114.246094 "/>
<path style=" stroke:none;fill-rule:evenodd;fill:rgb(100%,100%,100%);fill-opacity:1;" d="M 297.023438 114.246094 L 299.558594 114.246094 L 299.558594 122.695312 L 297.023438 122.695312 Z M 297.023438 114.246094 "/>
<path style=" stroke:none;fill-rule:evenodd;fill:rgb(100%,100%,100%);fill-opacity:1;" d="M 309.503906 120.160156 L 309.503906 122.691406 L 298.152344 122.691406 L 298.152344 120.160156 Z M 309.503906 120.160156 "/>
<path style=" stroke:none;fill-rule:evenodd;fill:rgb(100%,100%,100%);fill-opacity:1;" d="M 310.261719 113.59375 L 310.261719 116.125 L 303.0625 116.125 L 303.0625 113.59375 Z M 310.261719 113.59375 "/>
<g clip-path="url(#clip7)" clip-rule="nonzero">
<path style=" stroke:none;fill-rule:evenodd;fill:rgb(100%,100%,100%);fill-opacity:1;" d="M 346.605469 107.578125 L 383.40625 107.578125 L 383.40625 110.109375 L 346.605469 110.109375 Z M 346.605469 107.578125 "/>
</g>
<path style=" stroke:none;fill-rule:evenodd;fill:rgb(100%,100%,100%);fill-opacity:1;" d="M 352.089844 120.238281 L 354.625 120.238281 L 354.625 122.699219 L 352.089844 122.699219 Z M 352.089844 120.238281 "/>
<g clip-path="url(#clip8)" clip-rule="nonzero">
<path style=" stroke:none;fill-rule:evenodd;fill:rgb(100%,100%,100%);fill-opacity:1;" d="M 383.5 120.160156 L 383.5 122.691406 L 376.148438 122.691406 L 376.148438 120.160156 Z M 383.5 120.160156 "/>
</g>
<path style=" stroke:none;fill-rule:evenodd;fill:rgb(100%,100%,100%);fill-opacity:1;" d="M 376.148438 114.246094 L 378.679688 114.246094 L 378.679688 122.695312 L 376.148438 122.695312 Z M 376.148438 114.246094 "/>
<path style=" stroke:none;fill-rule:evenodd;fill:rgb(100%,100%,100%);fill-opacity:1;" d="M 360.105469 113.59375 L 360.105469 116.125 L 346.671875 116.125 L 346.671875 113.59375 Z M 360.105469 113.59375 "/>
<g clip-path="url(#clip9)" clip-rule="nonzero">
<path style=" stroke:none;fill-rule:evenodd;fill:rgb(100%,100%,100%);fill-opacity:1;" d="M 389.578125 113.59375 L 389.578125 116.125 L 376.148438 116.125 L 376.148438 113.59375 Z M 389.578125 113.59375 "/>
</g>
<path style=" stroke:none;fill-rule:evenodd;fill:rgb(100%,100%,100%);fill-opacity:1;" d="M 376.148438 114.246094 L 378.679688 114.246094 L 378.679688 122.695312 L 376.148438 122.695312 Z M 376.148438 114.246094 "/>
<path style=" stroke:none;fill-rule:evenodd;fill:rgb(100%,100%,100%);fill-opacity:1;" d="M 376.148438 114.246094 L 378.679688 114.246094 L 378.679688 122.695312 L 376.148438 122.695312 Z M 376.148438 114.246094 "/>
<path style=" stroke:none;fill-rule:evenodd;fill:rgb(100%,100%,100%);fill-opacity:1;" d="M 376.148438 114.246094 L 378.679688 114.246094 L 378.679688 122.695312 L 376.148438 122.695312 Z M 376.148438 114.246094 "/>
<path style=" stroke:none;fill-rule:evenodd;fill:rgb(100%,100%,100%);fill-opacity:1;" d="M 346.671875 114.246094 L 349.203125 114.246094 L 349.203125 122.695312 L 346.671875 122.695312 Z M 346.671875 114.246094 "/>
<path style=" stroke:none;fill-rule:evenodd;fill:rgb(100%,100%,100%);fill-opacity:1;" d="M 368.277344 114.246094 L 370.808594 114.246094 L 370.808594 122.695312 L 368.277344 122.695312 Z M 368.277344 114.246094 "/>
<path style=" stroke:none;fill-rule:evenodd;fill:rgb(100%,100%,100%);fill-opacity:1;" d="M 357.574219 114.246094 L 360.105469 114.246094 L 360.105469 122.695312 L 357.574219 122.695312 Z M 357.574219 114.246094 "/>
<path style=" stroke:none;fill-rule:evenodd;fill:rgb(100%,100%,100%);fill-opacity:1;" d="M 370.054688 120.160156 L 370.054688 122.691406 L 358.699219 122.691406 L 358.699219 120.160156 Z M 370.054688 120.160156 "/>
<path style=" stroke:none;fill-rule:evenodd;fill:rgb(100%,100%,100%);fill-opacity:1;" d="M 370.808594 113.59375 L 370.808594 116.125 L 363.609375 116.125 L 363.609375 113.59375 Z M 370.808594 113.59375 "/>
<path style=" stroke:none;fill-rule:evenodd;fill:rgb(85.098039%,0%,0%);fill-opacity:1;" d="M 68.777344 254.625 L 73.3125 254.625 L 73.3125 262.503906 L 68.777344 262.503906 Z M 68.777344 254.625 "/>
<path style=" stroke:none;fill-rule:evenodd;fill:rgb(85.098039%,0%,0%);fill-opacity:1;" d="M 7.792969 254.625 L 12.328125 254.625 L 12.328125 262.503906 L 7.792969 262.503906 Z M 7.792969 254.625 "/>
<path style=" stroke:none;fill-rule:evenodd;fill:rgb(85.098039%,0%,0%);fill-opacity:1;" d="M 38.4375 254.625 L 42.976562 254.625 L 42.976562 262.503906 L 38.4375 262.503906 Z M 38.4375 254.625 "/>
<path style=" stroke:none;fill-rule:evenodd;fill:rgb(85.098039%,0%,0%);fill-opacity:1;" d="M 98.796875 254.625 L 103.332031 254.625 L 103.332031 262.503906 L 98.796875 262.503906 Z M 98.796875 254.625 "/>
<path style=" stroke:none;fill-rule:evenodd;fill:rgb(85.098039%,0%,0%);fill-opacity:1;" d="M 251.085938 254.625 L 255.625 254.625 L 255.625 262.503906 L 251.085938 262.503906 Z M 251.085938 254.625 "/>
<path style=" stroke:none;fill-rule:evenodd;fill:rgb(85.098039%,0%,0%);fill-opacity:1;" d="M 129.441406 254.625 L 133.976562 254.625 L 133.976562 262.503906 L 129.441406 262.503906 Z M 129.441406 254.625 "/>
<path style=" stroke:none;fill-rule:evenodd;fill:rgb(85.098039%,0%,0%);fill-opacity:1;" d="M 159.464844 254.625 L 164.003906 254.625 L 164.003906 262.503906 L 159.464844 262.503906 Z M 159.464844 254.625 "/>
<path style=" stroke:none;fill-rule:evenodd;fill:rgb(85.098039%,0%,0%);fill-opacity:1;" d="M 189.792969 254.625 L 194.332031 254.625 L 194.332031 262.503906 L 189.792969 262.503906 Z M 189.792969 254.625 "/>
<path style=" stroke:none;fill-rule:evenodd;fill:rgb(85.098039%,0%,0%);fill-opacity:1;" d="M 220.128906 254.625 L 224.667969 254.625 L 224.667969 262.503906 L 220.128906 262.503906 Z M 220.128906 254.625 "/>
<path style=" stroke:none;fill-rule:evenodd;fill:rgb(85.098039%,0%,0%);fill-opacity:1;" d="M 280.484375 254.625 L 285.019531 254.625 L 285.019531 262.503906 L 280.484375 262.503906 Z M 280.484375 254.625 "/>
<path style=" stroke:none;fill-rule:evenodd;fill:rgb(85.098039%,0%,0%);fill-opacity:1;" d="M 311.128906 254.625 L 315.667969 254.625 L 315.667969 262.503906 L 311.128906 262.503906 Z M 311.128906 254.625 "/>
<path style=" stroke:none;fill-rule:evenodd;fill:rgb(85.098039%,0%,0%);fill-opacity:1;" d="M 342.09375 254.625 L 346.628906 254.625 L 346.628906 262.503906 L 342.09375 262.503906 Z M 342.09375 254.625 "/>
<path style=" stroke:none;fill-rule:evenodd;fill:rgb(85.098039%,0%,0%);fill-opacity:1;" d="M 371.175781 254.625 L 375.710938 254.625 L 375.710938 262.503906 L 371.175781 262.503906 Z M 371.175781 254.625 "/>
<path style=" stroke:none;fill-rule:evenodd;fill:rgb(13.72549%,61.960784%,24.705882%);fill-opacity:1;" d="M 68.777344 121.957031 L 73.3125 121.957031 L 73.3125 129.835938 L 68.777344 129.835938 Z M 68.777344 121.957031 "/>
<path style=" stroke:none;fill-rule:evenodd;fill:rgb(13.72549%,61.960784%,24.705882%);fill-opacity:1;" d="M 7.792969 121.957031 L 12.328125 121.957031 L 12.328125 129.835938 L 7.792969 129.835938 Z M 7.792969 121.957031 "/>
<path style=" stroke:none;fill-rule:evenodd;fill:rgb(13.72549%,61.960784%,24.705882%);fill-opacity:1;" d="M 38.4375 121.957031 L 42.976562 121.957031 L 42.976562 129.835938 L 38.4375 129.835938 Z M 38.4375 121.957031 "/>
<path style=" stroke:none;fill-rule:evenodd;fill:rgb(13.72549%,61.960784%,24.705882%);fill-opacity:1;" d="M 98.796875 121.957031 L 103.332031 121.957031 L 103.332031 129.835938 L 98.796875 129.835938 Z M 98.796875 121.957031 "/>
<path style=" stroke:none;fill-rule:evenodd;fill:rgb(13.72549%,61.960784%,24.705882%);fill-opacity:1;" d="M 251.085938 121.957031 L 255.625 121.957031 L 255.625 129.835938 L 251.085938 129.835938 Z M 251.085938 121.957031 "/>
<path style=" stroke:none;fill-rule:evenodd;fill:rgb(13.72549%,61.960784%,24.705882%);fill-opacity:1;" d="M 129.441406 121.957031 L 133.976562 121.957031 L 133.976562 129.835938 L 129.441406 129.835938 Z M 129.441406 121.957031 "/>
<path style=" stroke:none;fill-rule:evenodd;fill:rgb(13.72549%,61.960784%,24.705882%);fill-opacity:1;" d="M 159.464844 121.957031 L 164.003906 121.957031 L 164.003906 129.835938 L 159.464844 129.835938 Z M 159.464844 121.957031 "/>
<path style=" stroke:none;fill-rule:evenodd;fill:rgb(13.72549%,61.960784%,24.705882%);fill-opacity:1;" d="M 189.792969 121.957031 L 194.332031 121.957031 L 194.332031 129.835938 L 189.792969 129.835938 Z M 189.792969 121.957031 "/>
<path style=" stroke:none;fill-rule:evenodd;fill:rgb(13.72549%,61.960784%,24.705882%);fill-opacity:1;" d="M 220.128906 121.957031 L 224.667969 121.957031 L 224.667969 129.835938 L 220.128906 129.835938 Z M 220.128906 121.957031 "/>
<path style=" stroke:none;fill-rule:evenodd;fill:rgb(13.72549%,61.960784%,24.705882%);fill-opacity:1;" d="M 280.484375 121.957031 L 285.019531 121.957031 L 285.019531 129.835938 L 280.484375 129.835938 Z M 280.484375 121.957031 "/>
<path style=" stroke:none;fill-rule:evenodd;fill:rgb(13.72549%,61.960784%,24.705882%);fill-opacity:1;" d="M 311.128906 121.957031 L 315.667969 121.957031 L 315.667969 129.835938 L 311.128906 129.835938 Z M 311.128906 121.957031 "/>
<path style=" stroke:none;fill-rule:evenodd;fill:rgb(13.72549%,61.960784%,24.705882%);fill-opacity:1;" d="M 342.09375 121.957031 L 346.628906 121.957031 L 346.628906 129.835938 L 342.09375 129.835938 Z M 342.09375 121.957031 "/>
<path style=" stroke:none;fill-rule:evenodd;fill:rgb(13.72549%,61.960784%,24.705882%);fill-opacity:1;" d="M 371.175781 121.957031 L 375.710938 121.957031 L 375.710938 129.835938 L 371.175781 129.835938 Z M 371.175781 121.957031 "/>
<path style=" stroke:none;fill-rule:evenodd;fill:rgb(85.490196%,0%,0%);fill-opacity:1;" d="M 209.84375 148.128906 C 216.183594 155.898438 235.726562 198.867188 198.046875 227.011719 C 180.332031 240.34375 191.300781 241.019531 191.824219 243.257812 C 220.300781 228.132812 229.597656 207.640625 229.382812 189.285156 C 229.164062 170.929688 219.433594 154.707031 209.84375 148.128906 Z M 209.84375 148.128906 "/>
<path style=" stroke:none;fill-rule:evenodd;fill:rgb(85.490196%,0%,0%);fill-opacity:1;" d="M 213.613281 146.128906 C 227.675781 153.328125 258.277344 189.539062 225.339844 230.386719 C 245.804688 225.84375 271.824219 165.574219 213.613281 146.128906 Z M 213.613281 146.128906 "/>
<path style=" stroke:none;fill-rule:evenodd;fill:rgb(85.490196%,0%,0%);fill-opacity:1;" d="M 170.425781 146.128906 C 156.367188 153.328125 125.761719 189.539062 158.699219 230.386719 C 138.234375 225.84375 112.214844 165.574219 170.425781 146.128906 Z M 170.425781 146.128906 "/>
<path style=" stroke:none;fill-rule:evenodd;fill:rgb(85.490196%,0%,0%);fill-opacity:1;" d="M 174.144531 148.128906 C 167.804688 155.898438 148.257812 198.867188 185.941406 227.011719 C 203.65625 240.34375 192.6875 241.019531 192.160156 243.257812 C 163.6875 228.132812 154.386719 207.640625 154.605469 189.285156 C 154.820312 170.929688 164.554688 154.707031 174.144531 148.128906 Z M 174.144531 148.128906 "/>
<path style=" stroke:none;fill-rule:evenodd;fill:rgb(85.490196%,0%,0%);fill-opacity:1;" d="M 228.140625 239.34375 C 216.996094 239.519531 202.945312 237.808594 192.527344 232.394531 C 194.242188 235.730469 195.667969 237.832031 197.386719 241.167969 C 207.324219 242.085938 221.035156 243.21875 228.140625 239.34375 Z M 228.140625 239.34375 "/>
<path style=" stroke:none;fill-rule:evenodd;fill:rgb(85.490196%,0%,0%);fill-opacity:1;" d="M 156.914062 239.34375 C 168.058594 239.519531 182.109375 237.808594 192.527344 232.394531 C 190.8125 235.730469 189.386719 237.832031 187.667969 241.167969 C 177.730469 242.085938 164.019531 243.21875 156.914062 239.34375 Z M 156.914062 239.34375 "/>
<path style=" stroke:none;fill-rule:evenodd;fill:rgb(85.490196%,0%,0%);fill-opacity:1;" d="M 177.355469 135.308594 C 179.613281 141.308594 185.539062 142.183594 191.878906 138.648438 C 196.5 141.421875 203.644531 141.597656 206.109375 135.597656 C 207.984375 150.4375 192.382812 146.925781 191.800781 144.023438 C 185.992188 149.636719 175.175781 146.394531 177.355469 135.308594 Z M 177.355469 135.308594 "/>
<path style=" stroke:none;fill-rule:evenodd;fill:rgb(85.490196%,0%,0%);fill-opacity:1;" d="M 192.296875 248.6875 L 198.15625 241.988281 L 198.992188 151.855469 L 192.015625 145.71875 L 185.039062 151.578125 L 186.433594 242.269531 L 192.296875 248.683594 Z M 192.296875 248.6875 "/>
</g>
</svg>
