<?xml version="1.0" encoding="UTF-8"?>
<svg xmlns="http://www.w3.org/2000/svg" xmlns:xlink="http://www.w3.org/1999/xlink" width="384pt" height="384pt" viewBox="0 0 384 384" version="1.1">
<g id="surface1">
<rect x="0" y="0" width="384" height="384" style="fill:rgb(100%,100%,100%);fill-opacity:1;stroke:none;"/>
<path style=" stroke:none;fill-rule:evenodd;fill:rgb(87.45098%,6.666667%,17.647059%);fill-opacity:1;" d="M -131.25 0 L -131.25 24.667969 L 147.410156 192.003906 L -131.25 359.347656 L -131.25 384.007812 L -89.25 384.007812 L 188.75 216.664062 L 466.75 384.007812 L 508.757812 384.007812 L 508.757812 359.347656 L 230.097656 192.003906 L 508.757812 24.667969 L 508.757812 0 L 466.75 0 L 188.75 167.335938 L -89.25 0 L -131.253906 0 Z M -131.25 0 "/>
<path style="fill-rule:nonzero;fill:rgb(90.980392%,6.666667%,17.647059%);fill-opacity:1;stroke-width:0.125;stroke-linecap:butt;stroke-linejoin:miter;stroke:rgb(0%,0%,0%);stroke-opacity:1;stroke-miterlimit:4;" d="M 132.659715 22.232703 C 135.816074 35.011012 134.085022 50.792808 119.830448 59.548483 C 105.575875 50.792808 103.844823 35.011012 107.002681 22.232703 C 110.361371 19.178259 125.633593 17.294335 132.659715 22.232703 Z M 132.659715 22.232703 " transform="matrix(2.606345,0,0,2.606345,-123.507045,-0.492981)"/>
<path style="fill-rule:nonzero;fill:rgb(97.647059%,86.666667%,8.627451%);fill-opacity:1;stroke-width:0.125;stroke-linecap:butt;stroke-linejoin:miter;stroke:rgb(0%,0%,0%);stroke-opacity:1;stroke-miterlimit:4;" d="M 119.809466 19.66685 C 125.035594 19.66685 129.903521 21.050193 132.772121 22.842693 C 133.335649 18.437878 135.333478 14.031565 137.689507 10.701351 C 135.231563 10.650394 134.128486 11.955802 134.104506 13.313666 C 133.488521 11.572123 131.081535 11.674037 130.338157 12.622744 C 133.028406 14.440723 130.952643 17.669022 128.520178 17.00208 C 127.376635 16.69034 126.77264 15.893008 126.55832 14.735976 C 126.822099 14.717991 127.082881 14.622071 127.303196 14.44372 C 127.869722 13.983605 127.95665 13.150302 127.496535 12.583776 C 127.03642 12.01725 126.204615 11.930323 125.636591 12.390438 C 125.070065 12.849054 124.983137 13.682357 125.443252 14.248883 C 125.594626 14.436226 125.786465 14.568116 125.994791 14.649048 C 125.225934 15.903499 123.847088 16.279684 122.859414 16.003915 C 121.577986 15.645714 121.039936 14.49168 121.039936 13.468036 C 121.039936 10.803266 123.601294 10.394108 124.37015 10.855722 C 124.319193 9.061723 121.50155 7.627423 120.62928 9.11268 C 121.603465 7.371137 121.552508 4.911695 119.809466 3.273566 C 118.069422 4.911695 118.016966 7.371137 118.991151 9.11268 C 118.120379 7.627423 115.302737 9.061723 115.25028 10.855722 C 116.019137 10.394108 118.580494 10.803266 118.580494 13.468036 C 118.580494 14.49168 118.042444 15.645714 116.762515 16.003915 C 115.773343 16.279684 114.394496 15.903499 113.62564 14.649048 C 113.833965 14.568116 114.025805 14.436226 114.177178 14.248883 C 114.637293 13.682357 114.550366 12.849054 113.982341 12.390438 C 113.415815 11.930323 112.582512 12.01725 112.122397 12.583776 C 111.662282 13.150302 111.750708 13.983605 112.317234 14.44372 C 112.53755 14.622071 112.798332 14.717991 113.062111 14.735976 C 112.847791 15.893008 112.242297 16.69034 111.100253 17.00208 C 108.667788 17.669022 106.593523 14.440723 109.282274 12.622744 C 108.540394 11.674037 106.131909 11.572123 105.517424 13.313666 C 105.490446 11.955802 104.390366 10.650394 101.930924 10.701351 C 104.286953 14.031565 106.284781 18.437878 106.84831 22.842693 C 109.718409 21.050193 114.584837 19.66685 119.809466 19.66685 Z M 119.809466 19.66685 " transform="matrix(2.606345,0,0,2.606345,-123.507045,-0.492981)"/>
<path style="fill-rule:nonzero;fill:rgb(97.647059%,86.666667%,8.627451%);fill-opacity:1;stroke-width:0.125;stroke-linecap:butt;stroke-linejoin:miter;stroke:rgb(0%,0%,0%);stroke-opacity:1;stroke-miterlimit:4;" d="M 130.649896 32.199365 C 130.33516 32.275801 130.33516 32.680462 130.170298 32.680462 C 130.988613 32.657981 131.387279 32.433169 131.634572 32.019515 C 131.454723 32.184377 131.612091 32.500613 131.552141 32.57555 C 132.153139 32.365726 132.439399 31.854653 132.229575 31.508443 C 132.364462 31.70328 132.755634 31.809691 132.875534 31.824678 C 132.454387 31.493455 132.755634 30.742584 132.078201 30.351411 C 132.304512 30.336423 132.740647 30.59121 132.860547 30.892458 C 132.755634 30.216524 132.649224 29.780389 132.093189 29.404203 C 132.153139 29.471647 132.469374 29.531597 132.604261 29.404203 C 132.244562 29.179391 132.138151 28.803206 132.169625 28.563407 C 132.21159 28.226189 131.988276 28.157247 131.567129 28.262159 C 131.187946 28.35658 130.320172 28.412033 129.8091 28.412033 C 128.75698 28.412033 127.839747 28.412033 126.967477 27.811036 C 128.275882 28.352084 129.943987 27.210039 129.943987 26.262832 C 129.943987 25.210712 128.650569 24.354928 126.035257 24.92595 C 123.421444 25.496972 120.23511 25.255674 120.23511 24.384903 C 120.23511 23.512633 122.519199 23.392733 123.692717 23.572582 C 124.864736 23.752432 125.705533 23.87383 127.899697 23.091485 C 127.35865 23.302808 125.615608 23.362758 124.232266 22.971585 C 122.850422 22.580412 119.452764 22.580412 119.422789 24.414878 C 119.392815 26.247844 123.039264 26.081483 126.18663 25.616872 C 128.019597 25.345599 128.981792 25.526947 128.981792 26.127944 C 128.981792 26.698967 127.2987 26.938766 126.005282 26.788891 C 124.713363 26.639017 123.391469 26.668992 121.858252 27.120114 C 120.578323 27.4963 119.694063 27.120114 118.280745 27.359914 C 117.595818 27.476816 115.936706 27.359914 115.116892 26.008045 C 114.613313 26.367744 113.095084 27.123112 112.840297 27.860495 C 112.479099 28.536429 112.720397 29.209366 113.199996 29.870313 C 113.805489 30.702117 112.900247 30.576223 112.254287 30.606198 C 111.368528 30.648163 110.181521 30.513275 109.562539 29.810363 C 109.015497 29.188384 108.285607 28.689301 107.702595 29.150915 C 107.401347 29.387717 107.690605 29.700955 107.927407 29.612529 C 108.16271 29.525602 108.439978 29.700955 108.690269 29.810363 C 108.290104 29.638008 107.849472 29.771396 107.677117 29.925767 C 107.440315 30.13709 107.728074 30.54325 108.014334 30.400869 C 108.240645 30.288463 108.702259 30.213526 109.002008 30.487797 C 108.67678 30.424849 108.339562 30.438338 108.177698 30.612193 C 108.014334 30.787546 108.140229 31.040834 108.489437 31.025847 C 109.051467 31.000368 109.195346 31.394538 109.758875 31.313606 C 109.412665 31.358568 109.216329 31.538418 109.126404 31.673305 C 109.652464 31.433505 110.233977 32.080964 110.915907 31.92959 C 110.650629 32.038999 110.220489 32.299781 110.224985 32.500613 C 110.629646 32.034503 113.351369 32.86181 113.411319 31.839666 C 113.486256 32.04949 113.471269 32.365726 113.261444 32.6355 C 113.609154 32.425675 114.734712 32.350738 115.079423 31.538418 C 115.109398 31.779716 115.064436 32.094452 114.854611 32.16939 C 115.214311 32.287791 115.689413 32.019515 116.176506 31.298618 C 116.368345 31.012358 116.414806 30.822017 116.381834 30.607696 C 116.86443 30.625681 117.213638 30.504283 117.588324 30.186549 C 117.979497 29.855326 118.400645 30.456323 119.061592 30.035175 C 119.724037 29.615527 120.29506 29.975226 120.654759 29.765401 C 121.015957 29.554078 121.512042 29.840338 121.903214 29.600539 C 122.294387 29.359241 122.89988 29.717441 123.547339 29.206369 C 124.564987 29.579557 125.753493 30.270479 128.667055 29.735426 C 130.336658 29.428183 130.861219 29.990213 130.861219 30.757571 C 130.861219 31.283631 130.552478 31.328593 130.320172 31.343581 C 129.39095 31.400533 128.992283 30.995872 128.62509 31.124764 C 128.379296 31.21319 128.229421 31.613355 128.584624 31.749741 C 128.29087 31.901114 128.328339 32.18138 128.479712 32.284793 C 128.629587 32.388207 129.016263 32.293786 129.278544 32.172387 C 128.941326 32.325259 128.590619 32.601029 128.791451 32.887289 C 128.911351 33.062642 129.218594 33.211018 129.503356 32.837831 C 129.791115 32.463144 130.315676 32.149906 130.649896 32.199365 Z M 130.649896 32.199365 " transform="matrix(2.606345,0,0,2.606345,-123.507045,-0.492981)"/>
<path style="fill-rule:nonzero;fill:rgb(97.647059%,86.666667%,8.627451%);fill-opacity:1;stroke-width:0.125;stroke-linecap:butt;stroke-linejoin:miter;stroke:rgb(0%,0%,0%);stroke-opacity:1;stroke-miterlimit:4;" d="M 112.140382 24.263504 C 111.298087 23.918793 111.013325 23.908301 111.208162 24.594727 C 111.290593 24.888481 111.492924 25.300637 111.695255 25.489479 C 111.704247 25.203218 111.809159 24.414878 112.140382 24.263504 Z M 112.140382 24.263504 " transform="matrix(2.606345,0,0,2.606345,-123.507045,-0.492981)"/>
<path style="fill-rule:nonzero;fill:rgb(97.647059%,86.666667%,8.627451%);fill-opacity:1;stroke-width:0.125;stroke-linecap:butt;stroke-linejoin:miter;stroke:rgb(0%,0%,0%);stroke-opacity:1;stroke-miterlimit:4;" d="M 114.770682 24.263504 C 115.611478 23.918793 115.89624 23.908301 115.701403 24.594727 C 115.618972 24.888481 115.416641 25.300637 115.212812 25.489479 C 115.205318 25.203218 115.100406 24.414878 114.770682 24.263504 Z M 114.770682 24.263504 " transform="matrix(2.606345,0,0,2.606345,-123.507045,-0.492981)"/>
<path style="fill-rule:nonzero;fill:rgb(97.647059%,86.666667%,8.627451%);fill-opacity:1;stroke-width:0.125;stroke-linecap:butt;stroke-linejoin:miter;stroke:rgb(0%,0%,0%);stroke-opacity:1;stroke-miterlimit:4;" d="M 113.459279 23.801891 C 115.052446 23.801891 115.251779 24.549765 115.244285 25.481985 C 115.236792 26.489142 114.695744 26.142932 114.388501 27.434851 C 114.268602 27.941427 113.865439 27.968405 113.459279 27.968405 C 113.054617 27.968405 112.651455 27.941427 112.531555 27.434851 C 112.224312 26.142932 111.681766 26.489142 111.674272 25.481985 C 111.666779 24.549765 111.866112 23.801891 113.459279 23.801891 Z M 113.459279 23.801891 " transform="matrix(2.606345,0,0,2.606345,-123.507045,-0.492981)"/>
<path style="fill-rule:nonzero;fill:rgb(97.647059%,86.666667%,8.627451%);fill-opacity:1;stroke-width:0.125;stroke-linecap:butt;stroke-linejoin:miter;stroke:rgb(0%,0%,0%);stroke-opacity:1;stroke-miterlimit:4;" d="M 109.360208 27.494801 C 108.954048 27.255001 108.691768 27.421362 108.526906 27.466325 C 109.052965 27.601212 109.073948 28.277146 110.277441 28.591883 C 110.006168 28.516946 109.856293 28.66682 109.600008 28.531933 C 110.096093 28.923106 110.652128 29.375727 111.825646 29.389216 C 112.479099 29.39671 112.026478 29.733927 111.599335 29.53909 C 112.042964 29.997707 112.922728 29.621521 113.477264 30.456323 C 113.583675 29.810363 112.44163 28.788219 112.96769 28.050836 C 111.344548 27.981893 111.212659 27.082646 110.277441 26.367744 C 109.516078 25.78623 109.448634 25.195724 109.111417 24.088151 C 108.958544 23.58757 108.372535 23.274332 108.047307 23.392733 C 107.762545 23.497645 107.659132 23.743439 107.903427 23.927785 C 108.147723 24.112131 108.459462 24.13761 108.525407 24.60372 C 108.209171 24.224537 107.734069 24.086652 107.50626 24.324953 C 107.366876 24.468833 107.42233 24.80605 107.722079 24.837524 C 108.209171 24.886983 107.858465 25.362085 108.413001 25.826696 C 107.921412 25.275158 107.497267 25.224201 107.233488 25.52395 C 107.077618 25.703799 107.233488 26.024531 107.572204 25.99006 C 108.060796 25.940601 108.627322 27.181563 109.360208 27.494801 Z M 109.360208 27.494801 " transform="matrix(2.606345,0,0,2.606345,-123.507045,-0.492981)"/>
<path style="fill-rule:nonzero;fill:rgb(97.647059%,86.666667%,8.627451%);fill-opacity:1;stroke-width:0.125;stroke-linecap:butt;stroke-linejoin:miter;stroke:rgb(0%,0%,0%);stroke-opacity:1;stroke-miterlimit:4;" d="M 122.429274 32.139415 C 122.174487 32.184377 122.249425 32.605525 121.904713 32.6355 C 122.730522 32.6355 123.15167 32.439164 123.541344 32.124427 C 123.361494 32.22934 123.286557 32.499114 123.271569 32.650487 C 123.707704 32.274302 124.744837 32.244327 125.285884 32.349239 C 125.826931 32.454152 125.916856 32.199365 126.111693 31.853154 C 126.308029 31.508443 126.036756 31.312107 125.766982 31.042333 C 125.495709 30.77106 125.435759 30.394874 125.495709 29.763902 C 124.052416 27.841011 121.468578 28.771732 121.438603 29.614028 C 122.369324 30.696122 122.490723 30.576223 123.271569 30.726097 C 124.052416 30.875972 124.532015 30.875972 124.007454 31.312107 C 123.827604 31.461982 123.076732 31.391541 122.490723 31.417019 C 121.17932 31.473972 120.578323 30.511777 120.191646 31.012358 C 119.872413 31.423014 120.202137 31.604363 120.852593 31.58338 C 120.401471 31.586378 119.80497 31.562398 119.906884 31.980548 C 120.07924 32.686457 120.753676 31.850157 121.017455 32.140914 C 120.792643 32.086959 120.441937 32.224843 120.428448 32.437665 C 120.416458 32.648989 120.929029 32.924758 121.492558 32.478131 C 121.799801 32.232337 122.192472 32.140914 122.429274 32.139415 Z M 122.429274 32.139415 " transform="matrix(2.606345,0,0,2.606345,-123.507045,-0.492981)"/>
<path style="fill:none;stroke-width:0.125;stroke-linecap:butt;stroke-linejoin:miter;stroke:rgb(0%,0%,0%);stroke-opacity:1;stroke-miterlimit:4;" d="M 123.550336 29.206369 C 123.081229 29.034013 122.651089 28.929101 122.101049 29.043006 " transform="matrix(2.606345,0,0,2.606345,-123.507045,-0.492981)"/>
<path style="fill:none;stroke-width:0.125;stroke-linecap:butt;stroke-linejoin:miter;stroke:rgb(0%,0%,0%);stroke-opacity:1;stroke-miterlimit:4;" d="M 116.479252 28.983056 C 116.094074 29.811862 116.327879 30.222519 116.384831 30.606198 " transform="matrix(2.606345,0,0,2.606345,-123.507045,-0.492981)"/>
<path style="fill:none;stroke-width:0.125;stroke-linecap:butt;stroke-linejoin:miter;stroke:rgb(0%,0%,0%);stroke-opacity:1;stroke-miterlimit:4;" d="M 112.369691 25.051845 C 112.634969 25.185233 112.783344 24.810547 113.173018 25.207714 C 113.066607 25.092311 112.933219 25.516456 112.634969 25.234692 " transform="matrix(2.606345,0,0,2.606345,-123.507045,-0.492981)"/>
<path style="fill:none;stroke-width:0.125;stroke-linecap:butt;stroke-linejoin:miter;stroke:rgb(0%,0%,0%);stroke-opacity:1;stroke-miterlimit:4;" d="M 114.529384 25.051845 C 114.265604 25.185233 114.11573 24.810547 113.727554 25.207714 C 113.833965 25.092311 113.967354 25.516456 114.265604 25.234692 " transform="matrix(2.606345,0,0,2.606345,-123.507045,-0.492981)"/>
<path style="fill:none;stroke-width:0.125;stroke-linecap:butt;stroke-linejoin:miter;stroke:rgb(0%,0%,0%);stroke-opacity:1;stroke-miterlimit:4;" d="M 113.730552 25.207714 C 113.639128 25.282652 113.630136 25.147764 113.699078 25.501469 C 113.826472 26.153423 113.977845 26.457669 113.450286 26.457669 C 112.913735 26.457669 113.0756 26.153423 113.202993 25.501469 C 113.273434 25.147764 113.264442 25.282652 113.173018 25.207714 " transform="matrix(2.606345,0,0,2.606345,-123.507045,-0.492981)"/>
<path style="fill-rule:nonzero;fill:rgb(100%,0%,8.627451%);fill-opacity:1;stroke-width:0.0625;stroke-linecap:butt;stroke-linejoin:miter;stroke:rgb(0%,0%,0%);stroke-opacity:1;stroke-miterlimit:4;" d="M 113.459279 27.706124 C 113.88792 27.706124 114.136712 27.69863 114.069269 27.097633 C 114.040792 26.856335 114.361524 26.760415 114.249118 26.367744 C 114.369018 26.848841 113.459279 26.803879 113.459279 26.585062 C 113.459279 26.803879 112.551039 26.848841 112.670938 26.367744 C 112.558533 26.760415 112.877765 26.856335 112.850788 27.097633 C 112.783344 27.69863 113.032136 27.706124 113.459279 27.706124 Z M 113.459279 27.706124 " transform="matrix(2.606345,0,0,2.606345,-123.507045,-0.492981)"/>
<path style="fill-rule:nonzero;fill:rgb(0%,0%,0%);fill-opacity:1;stroke-width:0.0625;stroke-linecap:butt;stroke-linejoin:miter;stroke:rgb(0%,0%,0%);stroke-opacity:1;stroke-miterlimit:4;" d="M 113.069605 26.489142 L 112.041465 26.202882 " transform="matrix(2.606345,0,0,2.606345,-123.507045,-0.492981)"/>
<path style="fill-rule:nonzero;fill:rgb(0%,0%,0%);fill-opacity:1;stroke-width:0.0625;stroke-linecap:butt;stroke-linejoin:miter;stroke:rgb(0%,0%,0%);stroke-opacity:1;stroke-miterlimit:4;" d="M 113.069605 26.543097 L 111.921565 26.534105 " transform="matrix(2.606345,0,0,2.606345,-123.507045,-0.492981)"/>
<path style="fill-rule:nonzero;fill:rgb(0%,0%,0%);fill-opacity:1;stroke-width:0.0625;stroke-linecap:butt;stroke-linejoin:miter;stroke:rgb(0%,0%,0%);stroke-opacity:1;stroke-miterlimit:4;" d="M 113.080096 26.601548 L 112.101415 26.863829 " transform="matrix(2.606345,0,0,2.606345,-123.507045,-0.492981)"/>
<path style="fill-rule:nonzero;fill:rgb(0%,0%,0%);fill-opacity:1;stroke-width:0.0625;stroke-linecap:butt;stroke-linejoin:miter;stroke:rgb(0%,0%,0%);stroke-opacity:1;stroke-miterlimit:4;" d="M 113.83996 26.489142 L 114.8681 26.202882 " transform="matrix(2.606345,0,0,2.606345,-123.507045,-0.492981)"/>
<path style="fill-rule:nonzero;fill:rgb(0%,0%,0%);fill-opacity:1;stroke-width:0.0625;stroke-linecap:butt;stroke-linejoin:miter;stroke:rgb(0%,0%,0%);stroke-opacity:1;stroke-miterlimit:4;" d="M 113.83996 26.543097 L 114.988 26.534105 " transform="matrix(2.606345,0,0,2.606345,-123.507045,-0.492981)"/>
<path style="fill-rule:nonzero;fill:rgb(0%,0%,0%);fill-opacity:1;stroke-width:0.0625;stroke-linecap:butt;stroke-linejoin:miter;stroke:rgb(0%,0%,0%);stroke-opacity:1;stroke-miterlimit:4;" d="M 113.829469 26.601548 L 114.809649 26.863829 " transform="matrix(2.606345,0,0,2.606345,-123.507045,-0.492981)"/>
<path style="fill-rule:nonzero;fill:rgb(0%,31.764706%,72.941176%);fill-opacity:1;stroke-width:0.013;stroke-linecap:butt;stroke-linejoin:miter;stroke:rgb(0%,0%,0%);stroke-opacity:1;stroke-miterlimit:4;" d="M 108.129738 23.413715 C 107.831487 23.042026 107.082114 23.356763 107.067127 23.818377 C 107.320415 23.518628 107.73257 23.950266 107.957382 23.858843 C 108.113252 23.795896 108.251136 23.565089 108.129738 23.413715 Z M 108.129738 23.413715 " transform="matrix(2.606345,0,0,2.606345,-123.507045,-0.492981)"/>
<path style="fill-rule:nonzero;fill:rgb(0%,31.764706%,72.941176%);fill-opacity:1;stroke-width:0.013;stroke-linecap:butt;stroke-linejoin:miter;stroke:rgb(0%,0%,0%);stroke-opacity:1;stroke-miterlimit:4;" d="M 107.750555 24.294978 C 107.450806 23.923289 106.702932 24.236527 106.687944 24.699639 C 106.939734 24.39989 107.353387 24.831529 107.579698 24.740106 C 107.735568 24.677158 107.871954 24.446351 107.750555 24.294978 Z M 107.750555 24.294978 " transform="matrix(2.606345,0,0,2.606345,-123.507045,-0.492981)"/>
<path style="fill-rule:nonzero;fill:rgb(0%,31.764706%,72.941176%);fill-opacity:1;stroke-width:0.013;stroke-linecap:butt;stroke-linejoin:miter;stroke:rgb(0%,0%,0%);stroke-opacity:1;stroke-miterlimit:4;" d="M 107.549723 25.478987 C 107.211007 25.143268 106.503598 25.538937 106.539568 26.000551 C 106.758385 25.673824 107.215503 26.056005 107.429823 25.940601 C 107.578199 25.861168 107.687608 25.615373 107.549723 25.478987 Z M 107.549723 25.478987 " transform="matrix(2.606345,0,0,2.606345,-123.507045,-0.492981)"/>
<path style="fill-rule:nonzero;fill:rgb(0%,31.764706%,72.941176%);fill-opacity:1;stroke-width:0.013;stroke-linecap:butt;stroke-linejoin:miter;stroke:rgb(0%,0%,0%);stroke-opacity:1;stroke-miterlimit:4;" d="M 107.909422 29.147918 C 107.534736 28.852665 106.876786 29.327767 106.966711 29.781887 C 107.145062 29.432679 107.644144 29.759406 107.843477 29.620023 C 107.981362 29.524103 108.062294 29.267817 107.909422 29.147918 Z M 107.909422 29.147918 " transform="matrix(2.606345,0,0,2.606345,-123.507045,-0.492981)"/>
<path style="fill-rule:nonzero;fill:rgb(0%,31.764706%,72.941176%);fill-opacity:1;stroke-width:0.013;stroke-linecap:butt;stroke-linejoin:miter;stroke:rgb(0%,0%,0%);stroke-opacity:1;stroke-miterlimit:4;" d="M 107.889939 29.951246 C 107.441813 29.786384 106.962215 30.439837 107.187027 30.844498 C 107.248475 30.457822 107.825492 30.61519 107.97237 30.420353 C 108.074284 30.286965 108.071287 30.018689 107.889939 29.951246 Z M 107.889939 29.951246 " transform="matrix(2.606345,0,0,2.606345,-123.507045,-0.492981)"/>
<path style="fill-rule:nonzero;fill:rgb(0%,31.764706%,72.941176%);fill-opacity:1;stroke-width:0.013;stroke-linecap:butt;stroke-linejoin:miter;stroke:rgb(0%,0%,0%);stroke-opacity:1;stroke-miterlimit:4;" d="M 108.459462 30.550744 C 108.011337 30.385882 107.531738 31.040834 107.75655 31.443997 C 107.819497 31.05732 108.395016 31.214689 108.541893 31.02135 C 108.643808 30.886463 108.642309 30.618188 108.459462 30.550744 Z M 108.459462 30.550744 " transform="matrix(2.606345,0,0,2.606345,-123.507045,-0.492981)"/>
<path style="fill-rule:nonzero;fill:rgb(0%,31.764706%,72.941176%);fill-opacity:1;stroke-width:0.013;stroke-linecap:butt;stroke-linejoin:miter;stroke:rgb(0%,0%,0%);stroke-opacity:1;stroke-miterlimit:4;" d="M 120.200639 31.713771 C 119.752514 31.548909 119.271416 32.203861 119.497727 32.607024 C 119.560674 32.220347 120.134694 32.377716 120.281571 32.184377 C 120.383486 32.04949 120.381987 31.781215 120.200639 31.713771 Z M 120.200639 31.713771 " transform="matrix(2.606345,0,0,2.606345,-123.507045,-0.492981)"/>
<path style="fill-rule:nonzero;fill:rgb(0%,31.764706%,72.941176%);fill-opacity:1;stroke-width:0.013;stroke-linecap:butt;stroke-linejoin:miter;stroke:rgb(0%,0%,0%);stroke-opacity:1;stroke-miterlimit:4;" d="M 120.810628 32.257816 C 120.346017 32.14541 119.944353 32.849821 120.212629 33.226006 C 120.230614 32.833334 120.82112 32.924758 120.945515 32.714933 C 121.030944 32.571054 120.99947 32.304277 120.810628 32.257816 Z M 120.810628 32.257816 " transform="matrix(2.606345,0,0,2.606345,-123.507045,-0.492981)"/>
<path style="fill-rule:nonzero;fill:rgb(0%,31.764706%,72.941176%);fill-opacity:1;stroke-width:0.013;stroke-linecap:butt;stroke-linejoin:miter;stroke:rgb(0%,0%,0%);stroke-opacity:1;stroke-miterlimit:4;" d="M 120.380488 30.941917 C 119.965336 30.703616 119.382323 31.267145 119.535195 31.70328 C 119.662589 31.331591 120.203636 31.584879 120.380488 31.418518 C 120.503385 31.304613 120.548348 31.039335 120.380488 30.941917 Z M 120.380488 30.941917 " transform="matrix(2.606345,0,0,2.606345,-123.507045,-0.492981)"/>
<path style="fill-rule:nonzero;fill:rgb(0%,31.764706%,72.941176%);fill-opacity:1;stroke-width:0.013;stroke-linecap:butt;stroke-linejoin:miter;stroke:rgb(0%,0%,0%);stroke-opacity:1;stroke-miterlimit:4;" d="M 128.730003 31.883129 C 128.265391 31.769225 127.863727 32.475134 128.133502 32.851319 C 128.151487 32.458648 128.741993 32.550071 128.86489 32.340247 C 128.950318 32.194868 128.918845 31.92959 128.730003 31.883129 Z M 128.730003 31.883129 " transform="matrix(2.606345,0,0,2.606345,-123.507045,-0.492981)"/>
<path style="fill-rule:nonzero;fill:rgb(0%,31.764706%,72.941176%);fill-opacity:1;stroke-width:0.013;stroke-linecap:butt;stroke-linejoin:miter;stroke:rgb(0%,0%,0%);stroke-opacity:1;stroke-miterlimit:4;" d="M 128.749486 31.145746 C 128.328339 30.920934 127.76481 31.505445 127.93267 31.935585 C 128.046574 31.560899 128.596614 31.794703 128.767471 31.622347 C 128.887371 31.503947 128.921842 31.23717 128.749486 31.145746 Z M 128.749486 31.145746 " transform="matrix(2.606345,0,0,2.606345,-123.507045,-0.492981)"/>
<path style="fill-rule:nonzero;fill:rgb(0%,31.764706%,72.941176%);fill-opacity:1;stroke-width:0.013;stroke-linecap:butt;stroke-linejoin:miter;stroke:rgb(0%,0%,0%);stroke-opacity:1;stroke-miterlimit:4;" d="M 129.070218 32.542578 C 128.602609 32.449655 128.23092 33.170552 128.515682 33.534747 C 128.518679 33.142076 129.110684 33.208021 129.224589 32.9937 C 129.305521 32.843826 129.260559 32.580046 129.070218 32.542578 Z M 129.070218 32.542578 " transform="matrix(2.606345,0,0,2.606345,-123.507045,-0.492981)"/>
<path style="fill-rule:nonzero;fill:rgb(0%,31.764706%,72.941176%);fill-opacity:1;stroke-width:0.013;stroke-linecap:butt;stroke-linejoin:miter;stroke:rgb(0%,0%,0%);stroke-opacity:1;stroke-miterlimit:4;" d="M 113.489254 27.344926 C 113.784507 27.344926 113.902908 27.430355 113.902908 27.96241 C 113.902908 29.086469 113.889419 29.570564 113.528221 29.570564 C 113.165525 29.570564 113.189505 29.111948 113.189505 28.28464 C 113.189505 27.8545 113.189505 27.63868 113.102577 27.67465 C 113.102577 27.392886 113.228472 27.344926 113.489254 27.344926 Z M 113.489254 27.344926 " transform="matrix(2.606345,0,0,2.606345,-123.507045,-0.492981)"/>
<path style="fill-rule:nonzero;fill:rgb(97.647059%,86.666667%,8.627451%);fill-opacity:1;stroke-width:0.125;stroke-linecap:butt;stroke-linejoin:miter;stroke:rgb(0%,0%,0%);stroke-opacity:1;stroke-miterlimit:4;" d="M 130.65069 32.200107 C 130.334288 32.275044 130.334288 32.681371 130.169426 32.681371 C 130.988741 32.658057 131.386741 32.433245 131.634867 32.020257 C 131.455017 32.185119 131.611553 32.499856 131.551603 32.576458 C 132.152767 32.364969 132.439194 31.85373 132.22937 31.509018 C 132.364257 31.703855 132.755596 31.808767 132.875496 31.823755 C 132.454181 31.494031 132.755596 30.741327 132.07783 30.351653 C 132.304307 30.336666 132.740609 30.591453 132.860508 30.892867 C 132.755596 30.216766 132.649018 29.780464 132.092817 29.404113 C 132.152767 29.472389 132.469169 29.532339 132.604056 29.404113 C 132.244357 29.179301 132.13778 28.802949 132.16942 28.563149 C 132.211052 28.226764 131.987905 28.156823 131.566591 28.261735 C 131.188574 28.356656 130.319301 28.41161 129.809727 28.41161 C 128.757275 28.41161 127.839709 28.41161 126.968771 27.810446 C 128.276011 28.35166 129.944614 27.209282 129.944614 26.263407 C 129.944614 25.210954 128.650697 24.355004 126.036218 24.926192 C 123.421739 25.495716 120.234405 25.255917 120.234405 24.384979 C 120.234405 23.512375 122.51916 23.392476 123.691513 23.572325 C 124.863865 23.752175 125.704828 23.87374 127.899659 23.091061 C 127.358445 23.302551 125.614904 23.362501 124.232727 22.971161 C 122.85055 22.581487 119.453392 22.581487 119.423417 24.414953 C 119.393442 26.248419 123.040391 26.080227 126.187758 25.617281 C 128.019558 25.345841 128.982086 25.527356 128.982086 26.12852 C 128.982086 26.699709 127.298495 26.939508 126.006243 26.789633 C 124.713991 26.638093 123.391764 26.668068 121.858047 27.119357 C 120.577452 27.495709 119.693191 27.119357 118.28104 27.360822 C 117.596612 27.477391 115.936335 27.360822 115.11702 26.006955 C 114.612442 26.368319 113.095378 27.122688 112.840591 27.860404 C 112.479227 28.536505 112.720692 29.209276 113.20029 29.870389 C 113.80645 30.703026 112.900541 30.576465 112.254415 30.60644 C 111.36849 30.648072 110.182815 30.513185 109.563333 29.810439 C 109.015458 29.187627 108.284403 28.688045 107.701558 29.150991 C 107.401808 29.38746 107.689901 29.700531 107.92637 29.612272 C 108.161173 29.525678 108.439274 29.700531 108.69073 29.810439 C 108.289399 29.637251 107.849767 29.772138 107.676579 29.925343 C 107.44011 30.138498 107.728202 30.54316 108.014629 30.399946 C 108.239441 30.288373 108.702387 30.213435 109.002136 30.488206 C 108.677408 30.424925 108.339357 30.438247 108.177826 30.613101 C 108.014629 30.786289 108.139525 31.041076 108.489232 31.026089 C 109.052094 31.00111 109.195308 31.394114 109.75817 31.312516 C 109.413459 31.357478 109.216956 31.538993 109.127032 31.67388 C 109.653258 31.434081 110.234438 32.081872 110.915535 31.928667 C 110.650757 32.038575 110.221116 32.300023 110.224447 32.499856 C 110.630774 32.035245 113.35183 32.86122 113.41178 31.838742 C 113.486717 32.050232 113.47173 32.364969 113.26024 32.636408 C 113.608282 32.424919 114.734007 32.349981 115.078719 31.538993 C 115.108694 31.778792 115.063731 32.095194 114.853907 32.170132 C 115.215271 32.288366 115.689874 32.018592 116.176134 31.297528 C 116.369306 31.012767 116.414268 30.822926 116.382628 30.60644 C 116.863892 30.624758 117.213599 30.504858 117.588286 30.185126 C 117.979625 29.855402 118.400939 30.456565 119.062053 30.035251 C 119.724832 29.615602 120.294355 29.975301 120.655719 29.765477 C 121.015418 29.553987 121.51167 29.840414 121.903009 29.600615 C 122.294348 29.35915 122.900508 29.717184 123.546634 29.205945 C 124.565781 29.578966 125.753121 30.270055 128.66735 29.735502 C 130.337619 29.427426 130.860515 29.990289 130.860515 30.756315 C 130.860515 31.282541 130.552439 31.329169 130.319301 31.342491 C 129.391744 31.400775 128.992078 30.996114 128.625718 31.126005 C 128.379257 31.212599 128.229383 31.612265 128.585751 31.750483 C 128.290998 31.900357 128.329299 32.181789 128.479174 32.285036 C 128.629048 32.388283 129.015392 32.295027 129.278505 32.171797 C 128.940455 32.325002 128.590747 32.599772 128.79058 32.887865 C 128.912145 33.062718 129.218555 33.210928 129.503317 32.837906 C 129.791409 32.46322 130.31597 32.150148 130.65069 32.200107 Z M 130.65069 32.200107 " transform="matrix(2.345711,0,0,2.345711,-93.273438,35.213952)"/>
<path style="fill-rule:nonzero;fill:rgb(97.647059%,86.666667%,8.627451%);fill-opacity:1;stroke-width:0.125;stroke-linecap:butt;stroke-linejoin:miter;stroke:rgb(0%,0%,0%);stroke-opacity:1;stroke-miterlimit:4;" d="M 112.139511 24.263414 C 111.298548 23.918702 111.013786 23.90871 111.208623 24.594803 C 111.290222 24.887891 111.493385 25.300879 111.696549 25.489055 C 111.70321 25.204293 111.809787 24.414953 112.139511 24.263414 Z M 112.139511 24.263414 " transform="matrix(2.345711,0,0,2.345711,-93.273438,35.213952)"/>
<path style="fill-rule:nonzero;fill:rgb(97.647059%,86.666667%,8.627451%);fill-opacity:1;stroke-width:0.125;stroke-linecap:butt;stroke-linejoin:miter;stroke:rgb(0%,0%,0%);stroke-opacity:1;stroke-miterlimit:4;" d="M 114.770643 24.263414 C 115.611606 23.918702 115.896368 23.90871 115.701531 24.594803 C 115.618267 24.887891 115.416769 25.300879 115.213606 25.489055 C 115.20528 25.204293 115.100367 24.414953 114.770643 24.263414 Z M 114.770643 24.263414 " transform="matrix(2.345711,0,0,2.345711,-93.273438,35.213952)"/>
<path style="fill-rule:nonzero;fill:rgb(97.647059%,86.666667%,8.627451%);fill-opacity:1;stroke-width:0.125;stroke-linecap:butt;stroke-linejoin:miter;stroke:rgb(0%,0%,0%);stroke-opacity:1;stroke-miterlimit:4;" d="M 113.460073 23.802133 C 115.05374 23.802133 115.251907 24.549841 115.243581 25.480728 C 115.23692 26.488219 114.695706 26.143507 114.38763 27.435759 C 114.267731 27.940337 113.864734 27.968647 113.460073 27.968647 C 113.053746 27.968647 112.652415 27.940337 112.53085 27.435759 C 112.22444 26.143507 111.681561 26.488219 111.6749 25.480728 C 111.666574 24.549841 111.866406 23.802133 113.460073 23.802133 Z M 113.460073 23.802133 " transform="matrix(2.345711,0,0,2.345711,-93.273438,35.213952)"/>
<path style="fill-rule:nonzero;fill:rgb(97.647059%,86.666667%,8.627451%);fill-opacity:1;stroke-width:0.125;stroke-linecap:butt;stroke-linejoin:miter;stroke:rgb(0%,0%,0%);stroke-opacity:1;stroke-miterlimit:4;" d="M 109.36017 27.495709 C 108.953843 27.254245 108.692395 27.420772 108.527533 27.465734 C 109.05376 27.600621 109.073743 28.276722 110.277736 28.591459 C 110.006296 28.516522 109.856421 28.668062 109.599969 28.531509 C 110.096221 28.922849 110.652422 29.375803 111.824775 29.389125 C 112.479227 29.395786 112.026273 29.733837 111.598297 29.539 C 112.042925 29.99695 112.92219 29.622263 113.478391 30.456565 C 113.583303 29.810439 112.440926 28.787961 112.967152 28.051911 C 111.345176 27.981969 111.211954 27.082721 110.277736 26.368319 C 109.516706 25.785473 109.448429 25.194301 109.112044 24.08856 C 108.958839 23.587313 108.372663 23.274241 108.046269 23.392476 C 107.763173 23.497388 107.65826 23.743848 107.903056 23.927028 C 108.146186 24.111874 108.459257 24.136853 108.525868 24.604795 C 108.209466 24.225112 107.733198 24.086895 107.506721 24.325029 C 107.366838 24.468242 107.423457 24.806293 107.721541 24.836268 C 108.209466 24.886226 107.859759 25.362494 108.412629 25.827105 C 107.921374 25.274235 107.496729 25.224276 107.233616 25.524026 C 107.07708 25.703875 107.233616 26.025273 107.571666 25.990302 C 108.061257 25.940344 108.62745 27.180973 109.36017 27.495709 Z M 109.36017 27.495709 " transform="matrix(2.345711,0,0,2.345711,-93.273438,35.213952)"/>
<path style="fill-rule:nonzero;fill:rgb(97.647059%,86.666667%,8.627451%);fill-opacity:1;stroke-width:0.125;stroke-linecap:butt;stroke-linejoin:miter;stroke:rgb(0%,0%,0%);stroke-opacity:1;stroke-miterlimit:4;" d="M 122.429236 32.138491 C 122.174449 32.183454 122.249386 32.604768 121.904674 32.634743 C 122.73065 32.634743 123.150299 32.439906 123.541638 32.123504 C 123.361789 32.228416 123.286851 32.499856 123.271864 32.64973 C 123.708166 32.275044 124.745631 32.245069 125.285179 32.349981 C 125.826393 32.454893 125.916318 32.198441 126.11282 31.85373 C 126.307657 31.507353 126.036218 31.312516 125.766444 31.041076 C 125.496669 30.771302 125.436719 30.39495 125.496669 29.763812 C 124.052877 27.840421 121.468373 28.772974 121.438398 29.613937 C 122.369286 30.696365 122.489185 30.576465 123.271864 30.72634 C 124.052877 30.876214 124.532476 30.876214 124.007915 31.312516 C 123.828065 31.46239 123.075362 31.392449 122.489185 31.417428 C 121.178615 31.474047 120.579117 30.511519 120.192773 31.012767 C 119.873041 31.422424 120.202765 31.605604 120.852222 31.58229 C 120.402598 31.585621 119.804765 31.562307 119.906346 31.980291 C 120.079535 32.686366 120.753971 31.850399 121.017084 32.140157 C 120.792272 32.086868 120.442564 32.225086 120.429242 32.436575 C 120.417585 32.64973 120.928824 32.924501 121.491687 32.478207 C 121.799762 32.233412 122.192767 32.141822 122.429236 32.138491 Z M 122.429236 32.138491 " transform="matrix(2.345711,0,0,2.345711,-93.273438,35.213952)"/>
<path style="fill:none;stroke-width:0.125;stroke-linecap:butt;stroke-linejoin:miter;stroke:rgb(0%,0%,0%);stroke-opacity:1;stroke-miterlimit:4;" d="M 123.549965 29.205945 C 123.080357 29.034422 122.650717 28.92951 122.101177 29.042748 " transform="matrix(2.345711,0,0,2.345711,-93.273438,35.213952)"/>
<path style="fill:none;stroke-width:0.125;stroke-linecap:butt;stroke-linejoin:miter;stroke:rgb(0%,0%,0%);stroke-opacity:1;stroke-miterlimit:4;" d="M 116.479214 28.982798 C 116.094536 29.812105 116.327674 30.221762 116.384293 30.60644 " transform="matrix(2.345711,0,0,2.345711,-93.273438,35.213952)"/>
<path style="fill:none;stroke-width:0.125;stroke-linecap:butt;stroke-linejoin:miter;stroke:rgb(0%,0%,0%);stroke-opacity:1;stroke-miterlimit:4;" d="M 112.369319 25.052753 C 112.635763 25.18431 112.783972 24.809623 113.173646 25.207624 C 113.065403 25.091054 112.932181 25.515699 112.635763 25.234268 " transform="matrix(2.345711,0,0,2.345711,-93.273438,35.213952)"/>
<path style="fill:none;stroke-width:0.125;stroke-linecap:butt;stroke-linejoin:miter;stroke:rgb(0%,0%,0%);stroke-opacity:1;stroke-miterlimit:4;" d="M 114.529179 25.052753 C 114.2644 25.18431 114.116191 24.809623 113.726517 25.207624 C 113.83476 25.091054 113.966316 25.515699 114.2644 25.234268 " transform="matrix(2.345711,0,0,2.345711,-93.273438,35.213952)"/>
<path style="fill:none;stroke-width:0.125;stroke-linecap:butt;stroke-linejoin:miter;stroke:rgb(0%,0%,0%);stroke-opacity:1;stroke-miterlimit:4;" d="M 113.729847 25.207624 C 113.638257 25.282561 113.629931 25.147674 113.698207 25.502377 C 113.826433 26.153499 113.977973 26.458244 113.451747 26.458244 C 112.912198 26.458244 113.075395 26.153499 113.203621 25.502377 C 113.273562 25.147674 113.263571 25.282561 113.173646 25.207624 " transform="matrix(2.345711,0,0,2.345711,-93.273438,35.213952)"/>
<path style="fill-rule:nonzero;fill:rgb(100%,0%,8.627451%);fill-opacity:1;stroke-width:0.0625;stroke-linecap:butt;stroke-linejoin:miter;stroke:rgb(0%,0%,0%);stroke-opacity:1;stroke-miterlimit:4;" d="M 113.460073 27.705534 C 113.888048 27.705534 114.136174 27.698873 114.069563 27.097709 C 114.041253 26.856244 114.362651 26.759658 114.249413 26.368319 C 114.369312 26.849583 113.460073 26.802956 113.460073 26.584805 C 113.460073 26.802956 112.550834 26.849583 112.670733 26.368319 C 112.557495 26.759658 112.877227 26.856244 112.850583 27.097709 C 112.783972 27.698873 113.032098 27.705534 113.460073 27.705534 Z M 113.460073 27.705534 " transform="matrix(2.345711,0,0,2.345711,-93.273438,35.213952)"/>
<path style="fill-rule:nonzero;fill:rgb(0%,0%,0%);fill-opacity:1;stroke-width:0.0625;stroke-linecap:butt;stroke-linejoin:miter;stroke:rgb(0%,0%,0%);stroke-opacity:1;stroke-miterlimit:4;" d="M 113.070399 26.488219 L 112.04126 26.201792 " transform="matrix(2.345711,0,0,2.345711,-93.273438,35.213952)"/>
<path style="fill-rule:nonzero;fill:rgb(0%,0%,0%);fill-opacity:1;stroke-width:0.0625;stroke-linecap:butt;stroke-linejoin:miter;stroke:rgb(0%,0%,0%);stroke-opacity:1;stroke-miterlimit:4;" d="M 113.070399 26.543173 L 111.92136 26.533181 " transform="matrix(2.345711,0,0,2.345711,-93.273438,35.213952)"/>
<path style="fill-rule:nonzero;fill:rgb(0%,0%,0%);fill-opacity:1;stroke-width:0.0625;stroke-linecap:butt;stroke-linejoin:miter;stroke:rgb(0%,0%,0%);stroke-opacity:1;stroke-miterlimit:4;" d="M 113.080391 26.601457 L 112.10121 26.864571 " transform="matrix(2.345711,0,0,2.345711,-93.273438,35.213952)"/>
<path style="fill-rule:nonzero;fill:rgb(0%,0%,0%);fill-opacity:1;stroke-width:0.0625;stroke-linecap:butt;stroke-linejoin:miter;stroke:rgb(0%,0%,0%);stroke-opacity:1;stroke-miterlimit:4;" d="M 113.839755 26.488219 L 114.867229 26.201792 " transform="matrix(2.345711,0,0,2.345711,-93.273438,35.213952)"/>
<path style="fill-rule:nonzero;fill:rgb(0%,0%,0%);fill-opacity:1;stroke-width:0.0625;stroke-linecap:butt;stroke-linejoin:miter;stroke:rgb(0%,0%,0%);stroke-opacity:1;stroke-miterlimit:4;" d="M 113.839755 26.543173 L 114.988794 26.533181 " transform="matrix(2.345711,0,0,2.345711,-93.273438,35.213952)"/>
<path style="fill-rule:nonzero;fill:rgb(0%,0%,0%);fill-opacity:1;stroke-width:0.0625;stroke-linecap:butt;stroke-linejoin:miter;stroke:rgb(0%,0%,0%);stroke-opacity:1;stroke-miterlimit:4;" d="M 113.829764 26.601457 L 114.808944 26.864571 " transform="matrix(2.345711,0,0,2.345711,-93.273438,35.213952)"/>
<path style="fill-rule:nonzero;fill:rgb(0%,31.764706%,72.941176%);fill-opacity:1;stroke-width:0.013;stroke-linecap:butt;stroke-linejoin:miter;stroke:rgb(0%,0%,0%);stroke-opacity:1;stroke-miterlimit:4;" d="M 108.129533 23.414124 C 107.831449 23.041103 107.082076 23.35584 107.067088 23.818786 C 107.32021 23.519036 107.733198 23.950342 107.95801 23.858752 C 108.114545 23.797137 108.251098 23.565664 108.129533 23.414124 Z M 108.129533 23.414124 " transform="matrix(2.345711,0,0,2.345711,-93.273438,35.213952)"/>
<path style="fill-rule:nonzero;fill:rgb(0%,31.764706%,72.941176%);fill-opacity:1;stroke-width:0.013;stroke-linecap:butt;stroke-linejoin:miter;stroke:rgb(0%,0%,0%);stroke-opacity:1;stroke-miterlimit:4;" d="M 107.749851 24.295054 C 107.451767 23.922033 106.702394 24.236769 106.687406 24.699715 C 106.940528 24.399966 107.353515 24.831272 107.578327 24.739682 C 107.734863 24.678067 107.871415 24.446594 107.749851 24.295054 Z M 107.749851 24.295054 " transform="matrix(2.345711,0,0,2.345711,-93.273438,35.213952)"/>
<path style="fill-rule:nonzero;fill:rgb(0%,31.764706%,72.941176%);fill-opacity:1;stroke-width:0.013;stroke-linecap:butt;stroke-linejoin:miter;stroke:rgb(0%,0%,0%);stroke-opacity:1;stroke-miterlimit:4;" d="M 107.550018 25.479063 C 107.210302 25.142678 106.502561 25.539013 106.539197 26.000294 C 106.757348 25.6739 107.215298 26.056913 107.430118 25.940344 C 107.578327 25.860411 107.688235 25.615616 107.550018 25.479063 Z M 107.550018 25.479063 " transform="matrix(2.345711,0,0,2.345711,-93.273438,35.213952)"/>
<path style="fill-rule:nonzero;fill:rgb(0%,31.764706%,72.941176%);fill-opacity:1;stroke-width:0.013;stroke-linecap:butt;stroke-linejoin:miter;stroke:rgb(0%,0%,0%);stroke-opacity:1;stroke-miterlimit:4;" d="M 107.909717 29.14766 C 107.533365 28.852907 106.877247 29.32751 106.965507 29.78213 C 107.145356 29.432422 107.643273 29.760481 107.843106 29.620598 C 107.981324 29.524012 108.062922 29.26756 107.909717 29.14766 Z M 107.909717 29.14766 " transform="matrix(2.345711,0,0,2.345711,-93.273438,35.213952)"/>
<path style="fill-rule:nonzero;fill:rgb(0%,31.764706%,72.941176%);fill-opacity:1;stroke-width:0.013;stroke-linecap:butt;stroke-linejoin:miter;stroke:rgb(0%,0%,0%);stroke-opacity:1;stroke-miterlimit:4;" d="M 107.889733 29.950322 C 107.441775 29.78546 106.962176 30.439913 107.186988 30.844574 C 107.248603 30.458231 107.824788 30.614766 107.971332 30.421595 C 108.074579 30.286707 108.071248 30.018598 107.889733 29.950322 Z M 107.889733 29.950322 " transform="matrix(2.345711,0,0,2.345711,-93.273438,35.213952)"/>
<path style="fill-rule:nonzero;fill:rgb(0%,31.764706%,72.941176%);fill-opacity:1;stroke-width:0.013;stroke-linecap:butt;stroke-linejoin:miter;stroke:rgb(0%,0%,0%);stroke-opacity:1;stroke-miterlimit:4;" d="M 108.459257 30.551486 C 108.011298 30.384959 107.5317 31.041076 107.756512 31.444072 C 107.819792 31.057729 108.394311 31.214265 108.542521 31.021093 C 108.644102 30.886206 108.642437 30.618097 108.459257 30.551486 Z M 108.459257 30.551486 " transform="matrix(2.345711,0,0,2.345711,-93.273438,35.213952)"/>
<path style="fill-rule:nonzero;fill:rgb(0%,31.764706%,72.941176%);fill-opacity:1;stroke-width:0.013;stroke-linecap:butt;stroke-linejoin:miter;stroke:rgb(0%,0%,0%);stroke-opacity:1;stroke-miterlimit:4;" d="M 120.199435 31.713847 C 119.751476 31.548985 119.271877 32.203437 119.496689 32.608099 C 119.55997 32.22009 120.134489 32.378291 120.282698 32.183454 C 120.38428 32.050232 120.382615 31.782123 120.199435 31.713847 Z M 120.199435 31.713847 " transform="matrix(2.345711,0,0,2.345711,-93.273438,35.213952)"/>
<path style="fill-rule:nonzero;fill:rgb(0%,31.764706%,72.941176%);fill-opacity:1;stroke-width:0.013;stroke-linecap:butt;stroke-linejoin:miter;stroke:rgb(0%,0%,0%);stroke-opacity:1;stroke-miterlimit:4;" d="M 120.81059 32.258391 C 120.345979 32.145153 119.944648 32.849563 120.212757 33.225915 C 120.231075 32.834576 120.820581 32.924501 120.945477 32.714676 C 121.030406 32.569797 120.998766 32.303354 120.81059 32.258391 Z M 120.81059 32.258391 " transform="matrix(2.345711,0,0,2.345711,-93.273438,35.213952)"/>
<path style="fill-rule:nonzero;fill:rgb(0%,31.764706%,72.941176%);fill-opacity:1;stroke-width:0.013;stroke-linecap:butt;stroke-linejoin:miter;stroke:rgb(0%,0%,0%);stroke-opacity:1;stroke-miterlimit:4;" d="M 120.379284 30.942825 C 119.966296 30.703026 119.381785 31.265888 119.53499 31.70219 C 119.663216 31.332499 120.202765 31.585621 120.380949 31.419093 C 120.50418 31.30419 120.547477 31.039411 120.379284 30.942825 Z M 120.379284 30.942825 " transform="matrix(2.345711,0,0,2.345711,-93.273438,35.213952)"/>
<path style="fill-rule:nonzero;fill:rgb(0%,31.764706%,72.941176%);fill-opacity:1;stroke-width:0.013;stroke-linecap:butt;stroke-linejoin:miter;stroke:rgb(0%,0%,0%);stroke-opacity:1;stroke-miterlimit:4;" d="M 128.73063 31.883705 C 128.266019 31.770466 127.864688 32.474877 128.132797 32.851229 C 128.15278 32.459889 128.742287 32.549814 128.865517 32.33999 C 128.950446 32.195111 128.918806 31.928667 128.73063 31.883705 Z M 128.73063 31.883705 " transform="matrix(2.345711,0,0,2.345711,-93.273438,35.213952)"/>
<path style="fill-rule:nonzero;fill:rgb(0%,31.764706%,72.941176%);fill-opacity:1;stroke-width:0.013;stroke-linecap:butt;stroke-linejoin:miter;stroke:rgb(0%,0%,0%);stroke-opacity:1;stroke-miterlimit:4;" d="M 128.750613 31.145989 C 128.329299 30.921177 127.764772 31.504022 127.931299 31.935328 C 128.046203 31.560642 128.595743 31.795445 128.767266 31.622257 C 128.887166 31.504022 128.922137 31.237579 128.750613 31.145989 Z M 128.750613 31.145989 " transform="matrix(2.345711,0,0,2.345711,-93.273438,35.213952)"/>
<path style="fill-rule:nonzero;fill:rgb(0%,31.764706%,72.941176%);fill-opacity:1;stroke-width:0.013;stroke-linecap:butt;stroke-linejoin:miter;stroke:rgb(0%,0%,0%);stroke-opacity:1;stroke-miterlimit:4;" d="M 129.070346 32.541488 C 128.602404 32.449898 128.231048 33.170961 128.51581 33.533991 C 128.517475 33.142651 129.110312 33.207597 129.225216 32.992777 C 129.305149 32.844567 129.260187 32.579789 129.070346 32.541488 Z M 129.070346 32.541488 " transform="matrix(2.345711,0,0,2.345711,-93.273438,35.213952)"/>
<path style="fill-rule:nonzero;fill:rgb(0%,31.764706%,72.941176%);fill-opacity:1;stroke-width:0.013;stroke-linecap:butt;stroke-linejoin:miter;stroke:rgb(0%,0%,0%);stroke-opacity:1;stroke-miterlimit:4;" d="M 113.490048 27.344169 C 113.784801 27.344169 113.903036 27.430764 113.903036 27.961986 C 113.903036 29.087711 113.889714 29.57064 113.528349 29.57064 C 113.16532 29.57064 113.190299 29.111024 113.190299 28.285049 C 113.190299 27.853743 113.190299 27.638923 113.103705 27.673893 C 113.103705 27.394128 113.2286 27.344169 113.490048 27.344169 Z M 113.490048 27.344169 " transform="matrix(2.345711,0,0,2.345711,-93.273438,35.213952)"/>
<path style="fill-rule:nonzero;fill:rgb(97.647059%,86.666667%,8.627451%);fill-opacity:1;stroke-width:0.125;stroke-linecap:butt;stroke-linejoin:miter;stroke:rgb(0%,0%,0%);stroke-opacity:1;stroke-miterlimit:4;" d="M 130.64951 32.200122 C 130.334102 32.276058 130.334102 32.681719 130.170806 32.681719 C 130.989524 32.657739 131.387698 32.433926 131.635998 32.020272 C 131.454806 32.184135 131.611392 32.499871 131.550994 32.575807 C 132.15273 32.365983 132.439057 31.854411 132.228785 31.5087 C 132.363002 31.704536 132.754465 31.808449 132.87526 31.824436 C 132.454716 31.492713 132.754465 30.741342 132.078911 30.351668 C 132.304841 30.335681 132.741043 30.591467 132.859601 30.893215 C 132.754465 30.215782 132.649329 29.780146 132.092332 29.404461 C 132.15273 29.472404 132.468137 29.532354 132.60459 29.404461 C 132.244444 29.178649 132.137071 28.802964 132.168388 28.563164 C 132.21089 28.225447 131.987197 28.157504 131.566653 28.261417 C 131.188611 28.357337 130.32068 28.41329 129.808422 28.41329 C 128.757063 28.41329 127.83992 28.41329 126.967516 27.811793 C 128.276122 28.351342 129.944875 27.210296 129.944875 26.263089 C 129.944875 25.20997 128.651927 24.354685 126.036951 24.926207 C 123.421975 25.495731 120.234343 25.255931 120.234343 24.38466 C 120.234343 23.513389 122.518253 23.391491 123.692644 23.573339 C 124.864797 23.753189 125.705885 23.873088 127.900317 23.091742 C 127.358979 23.301567 125.61417 23.361516 124.233982 22.971842 C 122.849319 22.58017 119.453653 22.58017 119.422336 24.414635 C 119.393256 26.247102 123.039459 26.081241 126.186826 25.617629 C 128.021112 25.345856 128.982994 25.525706 128.982994 26.127202 C 128.982994 26.698724 127.298582 26.938524 126.005634 26.788649 C 124.714923 26.638774 123.390658 26.668749 121.858357 27.120372 C 120.578831 27.496057 119.693005 27.120372 118.281499 27.360171 C 117.596997 27.476074 115.934955 27.360171 115.116237 26.007303 C 114.612927 26.369 113.094048 27.124368 112.839038 27.859753 C 112.478891 28.537186 112.72048 29.208624 113.199184 29.870071 C 113.805394 30.703374 112.899435 30.577479 112.252961 30.607454 C 111.367135 30.647421 110.18156 30.513533 109.561929 29.810121 C 109.016117 29.188641 108.284639 28.689059 107.703036 29.150673 C 107.40105 29.388474 107.689615 29.700213 107.92673 29.612287 C 108.161608 29.526359 108.438988 29.700213 108.691761 29.810121 C 108.289113 29.638265 107.848437 29.772153 107.676193 29.926024 C 107.439078 30.137847 107.727643 30.543508 108.01397 30.399628 C 108.239901 30.287722 108.702946 30.213783 109.002695 30.487554 C 108.676103 30.425606 108.338326 30.437596 108.177267 30.613449 C 108.01397 30.787304 108.139239 31.041091 108.490437 31.025105 C 109.051908 31.001125 109.195072 31.394795 109.758779 31.312864 C 109.412054 31.358825 109.217441 31.538675 109.127964 31.674561 C 109.653643 31.432764 110.233009 32.08222 110.915274 31.930347 C 110.649079 32.038257 110.221825 32.300038 110.224062 32.499871 C 110.628947 32.03426 113.351296 32.861568 113.411693 31.838424 C 113.485512 32.050247 113.47209 32.365983 113.261818 32.635757 C 113.608543 32.425933 114.733721 32.349996 115.078209 31.538675 C 115.109526 31.778474 115.064788 32.09421 114.854516 32.170147 C 115.214662 32.288048 115.688892 32.018274 116.176544 31.298876 C 116.36892 31.013115 116.415896 30.821275 116.382342 30.607454 C 116.863283 30.625439 117.212245 30.503541 117.58805 30.185807 C 117.979513 29.856083 118.400057 30.455581 119.062189 30.035932 C 119.724322 29.614285 120.29474 29.975982 120.654887 29.76416 C 121.015033 29.554335 121.511633 29.840096 121.903096 29.600297 C 122.29456 29.358499 122.900769 29.718198 123.547243 29.206626 C 124.565048 29.580313 125.75286 30.269737 128.667586 29.734185 C 130.336339 29.42844 130.862019 29.989971 130.862019 30.757329 C 130.862019 31.282889 130.553322 31.32885 130.32068 31.342839 C 129.390116 31.40079 128.991941 30.99513 128.625084 31.125021 C 128.379021 31.212947 128.229147 31.612613 128.584819 31.750498 C 128.291781 31.900372 128.329809 32.182137 128.479683 32.284051 C 128.629558 32.387964 129.016548 32.294043 129.278269 32.172145 C 128.940492 32.326016 128.59153 32.599787 128.790617 32.887546 C 128.911412 33.061401 129.217872 33.211276 129.504199 32.837588 C 129.790527 32.461903 130.316207 32.150163 130.64951 32.200122 Z M 130.64951 32.200122 " transform="matrix(1.746251,0,0,1.954759,-21.338303,71.18152)"/>
<path style="fill-rule:nonzero;fill:rgb(97.647059%,86.666667%,8.627451%);fill-opacity:1;stroke-width:0.125;stroke-linecap:butt;stroke-linejoin:miter;stroke:rgb(0%,0%,0%);stroke-opacity:1;stroke-miterlimit:4;" d="M 112.141114 24.264761 C 111.29779 23.91905 111.013699 23.909058 111.208313 24.594485 C 111.291079 24.888239 111.492403 25.301893 111.695964 25.489736 C 111.704912 25.203975 111.810048 24.414635 112.141114 24.264761 Z M 112.141114 24.264761 " transform="matrix(1.746251,0,0,1.954759,-21.338303,71.18152)"/>
<path style="fill-rule:nonzero;fill:rgb(97.647059%,86.666667%,8.627451%);fill-opacity:1;stroke-width:0.125;stroke-linecap:butt;stroke-linejoin:miter;stroke:rgb(0%,0%,0%);stroke-opacity:1;stroke-miterlimit:4;" d="M 114.769512 24.264761 C 115.612837 23.91905 115.896927 23.909058 115.702314 24.594485 C 115.619547 24.888239 115.415986 25.301893 115.212425 25.489736 C 115.205714 25.203975 115.100579 24.414635 114.769512 24.264761 Z M 114.769512 24.264761 " transform="matrix(1.746251,0,0,1.954759,-21.338303,71.18152)"/>
<path style="fill-rule:nonzero;fill:rgb(97.647059%,86.666667%,8.627451%);fill-opacity:1;stroke-width:0.125;stroke-linecap:butt;stroke-linejoin:miter;stroke:rgb(0%,0%,0%);stroke-opacity:1;stroke-miterlimit:4;" d="M 113.460906 23.801149 C 115.053603 23.801149 115.25269 24.550522 115.243742 25.481743 C 115.237032 26.4889 114.695693 26.143189 114.386996 27.436107 C 114.268439 27.941684 113.865791 27.969661 113.460906 27.969661 C 113.053784 27.969661 112.651135 27.941684 112.530341 27.436107 C 112.223881 26.143189 111.682543 26.4889 111.675832 25.481743 C 111.666884 24.550522 111.865971 23.801149 113.460906 23.801149 Z M 113.460906 23.801149 " transform="matrix(1.746251,0,0,1.954759,-21.338303,71.18152)"/>
<path style="fill-rule:nonzero;fill:rgb(97.647059%,86.666667%,8.627451%);fill-opacity:1;stroke-width:0.125;stroke-linecap:butt;stroke-linejoin:miter;stroke:rgb(0%,0%,0%);stroke-opacity:1;stroke-miterlimit:4;" d="M 109.360605 27.494059 C 108.953483 27.25426 108.691761 27.420121 108.526228 27.466082 C 109.051908 27.601969 109.074277 28.277403 110.277748 28.593139 C 110.007079 28.517203 109.854967 28.667077 109.599957 28.531191 C 110.096556 28.922863 110.651316 29.374486 111.825707 29.388474 C 112.478891 29.396467 112.027031 29.734185 111.599776 29.538349 C 112.042689 29.997964 112.921804 29.622278 113.478801 30.455581 C 113.583937 29.810121 112.440864 28.786977 112.966543 28.051592 C 111.344766 27.981651 111.212787 27.082403 110.277748 26.367002 C 109.514953 25.785488 109.447845 25.195982 109.112305 24.088908 C 108.957957 23.587327 108.37188 23.27359 108.047524 23.39349 C 107.763434 23.497403 107.658298 23.743197 107.902124 23.927043 C 108.145949 24.112888 108.45912 24.136868 108.526228 24.604476 C 108.208584 24.224794 107.734354 24.086909 107.506186 24.324711 C 107.367496 24.46859 107.42342 24.806308 107.720932 24.836283 C 108.208584 24.886241 107.859622 25.361843 108.412145 25.827453 C 107.922256 25.273916 107.497238 25.223958 107.23328 25.523707 C 107.076695 25.703557 107.23328 26.025288 107.571057 25.989318 C 108.060946 25.941358 108.62689 27.180321 109.360605 27.494059 Z M 109.360605 27.494059 " transform="matrix(1.746251,0,0,1.954759,-21.338303,71.18152)"/>
<path style="fill-rule:nonzero;fill:rgb(97.647059%,86.666667%,8.627451%);fill-opacity:1;stroke-width:0.125;stroke-linecap:butt;stroke-linejoin:miter;stroke:rgb(0%,0%,0%);stroke-opacity:1;stroke-miterlimit:4;" d="M 122.431013 32.138173 C 122.173765 32.184135 122.249821 32.605782 121.903096 32.635757 C 122.730762 32.635757 123.151306 32.439921 123.542769 32.124185 C 123.361577 32.230096 123.287759 32.499871 123.2721 32.649745 C 123.708302 32.27406 124.744003 32.244085 125.285341 32.349996 C 125.826679 32.453909 125.916157 32.200122 126.113007 31.854411 C 126.30762 31.5087 126.036951 31.312864 125.766282 31.041091 C 125.495613 30.771317 125.435216 30.395631 125.495613 29.76416 C 124.05279 27.83977 121.466894 28.772989 121.437814 29.614285 C 122.370615 30.69538 122.489173 30.575481 123.2721 30.725355 C 124.05279 30.877228 124.531494 30.87523 124.008051 31.312864 C 123.829097 31.462738 123.07525 31.392797 122.489173 31.416777 C 121.178329 31.474728 120.578831 30.511534 120.191841 31.011116 C 119.87196 31.422772 120.203026 31.60462 120.851737 31.582638 C 120.402113 31.586635 119.804852 31.562655 119.907751 31.980305 C 120.079995 32.687714 120.753312 31.850414 121.01727 32.140172 C 120.79134 32.086217 120.442378 32.224101 120.428956 32.437923 C 120.417772 32.649745 120.93003 32.925515 121.4915 32.477889 C 121.800197 32.232095 122.193898 32.140172 122.431013 32.138173 Z M 122.431013 32.138173 " transform="matrix(1.746251,0,0,1.954759,-21.338303,71.18152)"/>
<path style="fill:none;stroke-width:0.125;stroke-linecap:butt;stroke-linejoin:miter;stroke:rgb(0%,0%,0%);stroke-opacity:1;stroke-miterlimit:4;" d="M 123.54948 29.206626 C 123.081961 29.03477 122.650232 28.928858 122.099946 29.042763 " transform="matrix(1.746251,0,0,1.954759,-21.338303,71.18152)"/>
<path style="fill:none;stroke-width:0.125;stroke-linecap:butt;stroke-linejoin:miter;stroke:rgb(0%,0%,0%);stroke-opacity:1;stroke-miterlimit:4;" d="M 116.480767 28.982813 C 116.093777 29.812119 116.328656 30.221777 116.384579 30.607454 " transform="matrix(1.746251,0,0,1.954759,-21.338303,71.18152)"/>
<path style="fill:none;stroke-width:0.125;stroke-linecap:butt;stroke-linejoin:miter;stroke:rgb(0%,0%,0%);stroke-opacity:1;stroke-miterlimit:4;" d="M 112.369282 25.052102 C 112.635477 25.183992 112.783115 24.810304 113.172341 25.207972 C 113.064968 25.092069 112.932989 25.515714 112.635477 25.23395 " transform="matrix(1.746251,0,0,1.954759,-21.338303,71.18152)"/>
<path style="fill:none;stroke-width:0.125;stroke-linecap:butt;stroke-linejoin:miter;stroke:rgb(0%,0%,0%);stroke-opacity:1;stroke-miterlimit:4;" d="M 114.53016 25.052102 C 114.263965 25.183992 114.116327 24.810304 113.727101 25.207972 C 113.834474 25.092069 113.966453 25.515714 114.263965 25.23395 " transform="matrix(1.746251,0,0,1.954759,-21.338303,71.18152)"/>
<path style="fill:none;stroke-width:0.125;stroke-linecap:butt;stroke-linejoin:miter;stroke:rgb(0%,0%,0%);stroke-opacity:1;stroke-miterlimit:4;" d="M 113.729338 25.207972 C 113.63986 25.28191 113.630913 25.148022 113.698021 25.501726 C 113.827763 26.153181 113.977637 26.456927 113.451958 26.456927 C 112.912857 26.456927 113.076153 26.153181 113.203658 25.501726 C 113.273003 25.148022 113.264055 25.28191 113.172341 25.207972 " transform="matrix(1.746251,0,0,1.954759,-21.338303,71.18152)"/>
<path style="fill-rule:nonzero;fill:rgb(100%,0%,8.627451%);fill-opacity:1;stroke-width:0.0625;stroke-linecap:butt;stroke-linejoin:miter;stroke:rgb(0%,0%,0%);stroke-opacity:1;stroke-miterlimit:4;" d="M 113.460906 27.705882 C 113.88816 27.705882 114.13646 27.697888 114.069352 27.096392 C 114.040272 26.856592 114.36239 26.760672 114.248307 26.369 C 114.369101 26.848599 113.460906 26.802637 113.460906 26.58482 C 113.460906 26.802637 112.550473 26.848599 112.671268 26.369 C 112.557184 26.760672 112.877066 26.856592 112.850223 27.096392 C 112.783115 27.697888 113.031414 27.705882 113.460906 27.705882 Z M 113.460906 27.705882 " transform="matrix(1.746251,0,0,1.954759,-21.338303,71.18152)"/>
<path style="fill-rule:nonzero;fill:rgb(0%,0%,0%);fill-opacity:1;stroke-width:0.0625;stroke-linecap:butt;stroke-linejoin:miter;stroke:rgb(0%,0%,0%);stroke-opacity:1;stroke-miterlimit:4;" d="M 113.069442 26.4889 L 112.042689 26.203139 " transform="matrix(1.746251,0,0,1.954759,-21.338303,71.18152)"/>
<path style="fill-rule:nonzero;fill:rgb(0%,0%,0%);fill-opacity:1;stroke-width:0.0625;stroke-linecap:butt;stroke-linejoin:miter;stroke:rgb(0%,0%,0%);stroke-opacity:1;stroke-miterlimit:4;" d="M 113.069442 26.542855 L 111.921895 26.532863 " transform="matrix(1.746251,0,0,1.954759,-21.338303,71.18152)"/>
<path style="fill-rule:nonzero;fill:rgb(0%,0%,0%);fill-opacity:1;stroke-width:0.0625;stroke-linecap:butt;stroke-linejoin:miter;stroke:rgb(0%,0%,0%);stroke-opacity:1;stroke-miterlimit:4;" d="M 113.080627 26.602805 L 112.10085 26.864586 " transform="matrix(1.746251,0,0,1.954759,-21.338303,71.18152)"/>
<path style="fill-rule:nonzero;fill:rgb(0%,0%,0%);fill-opacity:1;stroke-width:0.0625;stroke-linecap:butt;stroke-linejoin:miter;stroke:rgb(0%,0%,0%);stroke-opacity:1;stroke-miterlimit:4;" d="M 113.838948 26.4889 L 114.867937 26.203139 " transform="matrix(1.746251,0,0,1.954759,-21.338303,71.18152)"/>
<path style="fill-rule:nonzero;fill:rgb(0%,0%,0%);fill-opacity:1;stroke-width:0.0625;stroke-linecap:butt;stroke-linejoin:miter;stroke:rgb(0%,0%,0%);stroke-opacity:1;stroke-miterlimit:4;" d="M 113.838948 26.542855 L 114.988732 26.532863 " transform="matrix(1.746251,0,0,1.954759,-21.338303,71.18152)"/>
<path style="fill-rule:nonzero;fill:rgb(0%,0%,0%);fill-opacity:1;stroke-width:0.0625;stroke-linecap:butt;stroke-linejoin:miter;stroke:rgb(0%,0%,0%);stroke-opacity:1;stroke-miterlimit:4;" d="M 113.83 26.602805 L 114.809777 26.864586 " transform="matrix(1.746251,0,0,1.954759,-21.338303,71.18152)"/>
<path style="fill-rule:nonzero;fill:rgb(0%,31.764706%,72.941176%);fill-opacity:1;stroke-width:0.013;stroke-linecap:butt;stroke-linejoin:miter;stroke:rgb(0%,0%,0%);stroke-opacity:1;stroke-miterlimit:4;" d="M 108.130291 23.413473 C 107.830542 23.041784 107.081169 23.355521 107.067747 23.817135 C 107.320521 23.519384 107.732117 23.949025 107.958047 23.8591 C 108.114632 23.797152 108.251085 23.565346 108.130291 23.413473 Z M 108.130291 23.413473 " transform="matrix(1.746251,0,0,1.954759,-21.338303,71.18152)"/>
<path style="fill-rule:nonzero;fill:rgb(0%,31.764706%,72.941176%);fill-opacity:1;stroke-width:0.013;stroke-linecap:butt;stroke-linejoin:miter;stroke:rgb(0%,0%,0%);stroke-opacity:1;stroke-miterlimit:4;" d="M 107.750012 24.294736 C 107.450263 23.923047 106.703127 24.236784 106.687468 24.698398 C 106.940242 24.398649 107.354075 24.830288 107.580005 24.740363 C 107.734354 24.678415 107.873043 24.446609 107.750012 24.294736 Z M 107.750012 24.294736 " transform="matrix(1.746251,0,0,1.954759,-21.338303,71.18152)"/>
<path style="fill-rule:nonzero;fill:rgb(0%,31.764706%,72.941176%);fill-opacity:1;stroke-width:0.013;stroke-linecap:butt;stroke-linejoin:miter;stroke:rgb(0%,0%,0%);stroke-opacity:1;stroke-miterlimit:4;" d="M 107.550925 25.479744 C 107.210911 25.142027 106.50404 25.539694 106.539831 25.999309 C 106.75905 25.673582 107.215385 26.055263 107.43013 25.941358 C 107.577768 25.861425 107.687378 25.61563 107.550925 25.479744 Z M 107.550925 25.479744 " transform="matrix(1.746251,0,0,1.954759,-21.338303,71.18152)"/>
<path style="fill-rule:nonzero;fill:rgb(0%,31.764706%,72.941176%);fill-opacity:1;stroke-width:0.013;stroke-linecap:butt;stroke-linejoin:miter;stroke:rgb(0%,0%,0%);stroke-opacity:1;stroke-miterlimit:4;" d="M 107.911071 29.148675 C 107.533029 28.852922 106.877608 29.328524 106.967085 29.782145 C 107.14604 29.432437 107.644876 29.760163 107.843963 29.62028 C 107.980416 29.52436 108.063183 29.268574 107.911071 29.148675 Z M 107.911071 29.148675 " transform="matrix(1.746251,0,0,1.954759,-21.338303,71.18152)"/>
<path style="fill-rule:nonzero;fill:rgb(0%,31.764706%,72.941176%);fill-opacity:1;stroke-width:0.013;stroke-linecap:butt;stroke-linejoin:miter;stroke:rgb(0%,0%,0%);stroke-opacity:1;stroke-miterlimit:4;" d="M 107.890939 29.950004 C 107.441315 29.786141 106.962611 30.439594 107.186305 30.845255 C 107.248939 30.457579 107.826068 30.615447 107.971469 30.42161 C 108.074368 30.285723 108.072131 30.017947 107.890939 29.950004 Z M 107.890939 29.950004 " transform="matrix(1.746251,0,0,1.954759,-21.338303,71.18152)"/>
<path style="fill-rule:nonzero;fill:rgb(0%,31.764706%,72.941176%);fill-opacity:1;stroke-width:0.013;stroke-linecap:butt;stroke-linejoin:miter;stroke:rgb(0%,0%,0%);stroke-opacity:1;stroke-miterlimit:4;" d="M 108.45912 30.551501 C 108.011733 30.38564 107.533029 31.041091 107.756723 31.444754 C 107.819357 31.057078 108.394249 31.214946 108.541887 31.021108 C 108.644786 30.88722 108.642549 30.617446 108.45912 30.551501 Z M 108.45912 30.551501 " transform="matrix(1.746251,0,0,1.954759,-21.338303,71.18152)"/>
<path style="fill-rule:nonzero;fill:rgb(0%,31.764706%,72.941176%);fill-opacity:1;stroke-width:0.013;stroke-linecap:butt;stroke-linejoin:miter;stroke:rgb(0%,0%,0%);stroke-opacity:1;stroke-miterlimit:4;" d="M 120.200789 31.714528 C 119.751165 31.548667 119.272461 32.204118 119.496155 32.60778 C 119.561026 32.220105 120.135918 32.377973 120.281319 32.184135 C 120.384218 32.050247 120.381981 31.780473 120.200789 31.714528 Z M 120.200789 31.714528 " transform="matrix(1.746251,0,0,1.954759,-21.338303,71.18152)"/>
<path style="fill-rule:nonzero;fill:rgb(0%,31.764706%,72.941176%);fill-opacity:1;stroke-width:0.013;stroke-linecap:butt;stroke-linejoin:miter;stroke:rgb(0%,0%,0%);stroke-opacity:1;stroke-miterlimit:4;" d="M 120.809235 32.258073 C 120.34619 32.144168 119.943542 32.849578 120.211974 33.225264 C 120.232106 32.833592 120.82042 32.925515 120.945688 32.71569 C 121.030692 32.569812 120.999375 32.304035 120.809235 32.258073 Z M 120.809235 32.258073 " transform="matrix(1.746251,0,0,1.954759,-21.338303,71.18152)"/>
<path style="fill-rule:nonzero;fill:rgb(0%,31.764706%,72.941176%);fill-opacity:1;stroke-width:0.013;stroke-linecap:butt;stroke-linejoin:miter;stroke:rgb(0%,0%,0%);stroke-opacity:1;stroke-miterlimit:4;" d="M 120.379744 30.941175 C 119.965911 30.703374 119.382071 31.266902 119.534183 31.702538 C 119.663925 31.332847 120.203026 31.584636 120.381981 31.418775 C 120.505012 31.304871 120.547514 31.039093 120.379744 30.941175 Z M 120.379744 30.941175 " transform="matrix(1.746251,0,0,1.954759,-21.338303,71.18152)"/>
<path style="fill-rule:nonzero;fill:rgb(0%,31.764706%,72.941176%);fill-opacity:1;stroke-width:0.013;stroke-linecap:butt;stroke-linejoin:miter;stroke:rgb(0%,0%,0%);stroke-opacity:1;stroke-miterlimit:4;" d="M 128.73022 31.882387 C 128.264938 31.770481 127.864526 32.473892 128.132959 32.851576 C 128.153091 32.459904 128.741405 32.549829 128.864436 32.340004 C 128.951677 32.196125 128.918123 31.928349 128.73022 31.882387 Z M 128.73022 31.882387 " transform="matrix(1.746251,0,0,1.954759,-21.338303,71.18152)"/>
<path style="fill-rule:nonzero;fill:rgb(0%,31.764706%,72.941176%);fill-opacity:1;stroke-width:0.013;stroke-linecap:butt;stroke-linejoin:miter;stroke:rgb(0%,0%,0%);stroke-opacity:1;stroke-miterlimit:4;" d="M 128.750352 31.145004 C 128.329809 30.921192 127.766101 31.504703 127.931634 31.936342 C 128.047955 31.560657 128.596004 31.794461 128.768248 31.622605 C 128.886805 31.502705 128.922596 31.236927 128.750352 31.145004 Z M 128.750352 31.145004 " transform="matrix(1.746251,0,0,1.954759,-21.338303,71.18152)"/>
<path style="fill-rule:nonzero;fill:rgb(0%,31.764706%,72.941176%);fill-opacity:1;stroke-width:0.013;stroke-linecap:butt;stroke-linejoin:miter;stroke:rgb(0%,0%,0%);stroke-opacity:1;stroke-miterlimit:4;" d="M 129.070234 32.541836 C 128.602715 32.449913 128.231384 33.171309 128.515474 33.535005 C 128.517711 33.143332 129.110499 33.207279 129.224583 32.993458 C 129.305112 32.843583 129.260373 32.579804 129.070234 32.541836 Z M 129.070234 32.541836 " transform="matrix(1.746251,0,0,1.954759,-21.338303,71.18152)"/>
<path style="fill-rule:nonzero;fill:rgb(0%,31.764706%,72.941176%);fill-opacity:1;stroke-width:0.013;stroke-linecap:butt;stroke-linejoin:miter;stroke:rgb(0%,0%,0%);stroke-opacity:1;stroke-miterlimit:4;" d="M 113.489986 27.344184 C 113.783024 27.344184 113.903819 27.430112 113.903819 27.961668 C 113.903819 29.086726 113.890397 29.570322 113.528014 29.570322 C 113.16563 29.570322 113.190237 29.110706 113.190237 28.285397 C 113.190237 27.853758 113.190237 27.637939 113.102996 27.673908 C 113.102996 27.394142 113.228264 27.344184 113.489986 27.344184 Z M 113.489986 27.344184 " transform="matrix(1.746251,0,0,1.954759,-21.338303,71.18152)"/>
</g>
</svg>
