<?xml version="1.0" encoding="UTF-8"?>
<svg xmlns="http://www.w3.org/2000/svg" xmlns:xlink="http://www.w3.org/1999/xlink" width="384pt" height="384pt" viewBox="0 0 384 384" version="1.1">
<defs>
<clipPath id="clip1">
  <path d="M 0 0 L 383.984375 0 L 383.984375 383.992188 L 0 383.992188 Z M 0 0 "/>
</clipPath>
</defs>
<g id="surface1">
<g clip-path="url(#clip1)" clip-rule="nonzero">
<path style=" stroke:none;fill-rule:evenodd;fill:rgb(74.509804%,0%,15.294118%);fill-opacity:1;" d="M -96 0 L 480.5625 0 L 480.5625 383.992188 L -96 383.992188 Z M -96 0 "/>
</g>
<path style=" stroke:none;fill-rule:evenodd;fill:rgb(100%,100%,0%);fill-opacity:1;" d="M 79.085938 195.847656 C 89.328125 183.390625 110.546875 195.550781 127.867188 186.578125 C 107.351562 187.707031 96.167969 176.734375 79.957031 178.273438 C 96.753906 167.953125 111.050781 181.648438 129.832031 176.144531 C 104.957031 174.050781 106.035156 162.933594 83.417969 161.351562 C 103.511719 152.785156 113.445312 170.164062 133.125 166.210938 C 109.929688 160.859375 106.84375 147.195312 89.597656 144.304688 C 114.804688 140.5 113.160156 155.398438 137.871094 157.21875 C 112.789062 146.460938 119.363281 137.121094 98.386719 128.925781 C 121.859375 128.375 120.300781 144.640625 144.082031 148.90625 C 123.726562 135.992188 126.238281 124.207031 109.472656 114.984375 C 129.363281 115.34375 131.304688 135.707031 151.609375 142.015625 C 133.496094 127.644531 138.261719 115.527344 122.609375 102.695312 C 142.398438 107.339844 139.515625 124.90625 160.125 136.109375 C 144.851562 119.148438 150.710938 107.007812 137.390625 93.125 C 156.417969 99.253906 149.191406 115.945312 168.9375 131.820312 C 157.617188 113.175781 164.605469 101.289062 153.464844 85.5625 C 171.132812 94.6875 162.578125 111.714844 178.980469 128.730469 C 171.261719 109.597656 178.992188 97.714844 171.101562 80.777344 C 186.214844 92.066406 177.226562 110.265625 189.417969 127.628906 C 184.972656 103.691406 195.300781 99.75 192.085938 78.785156 C 203.566406 92.878906 190.734375 106.972656 199.546875 127.730469 C 198.476562 104.125 211.019531 98.636719 208.84375 79.683594 C 220.21875 96.664062 202.460938 111.445312 209.890625 129.636719 C 211.808594 107.238281 226.527344 101.4375 226.757812 84.007812 C 235.703125 100.007812 216.171875 111.511719 219.34375 132.722656 C 225.769531 109.328125 241.449219 106.4375 243.300781 90.707031 C 248.726562 109.214844 227.351562 117.820312 228.601562 138.332031 C 234.96875 117.53125 254.566406 115.089844 258.574219 99.726562 C 261.046875 119.304688 241.773438 122.78125 236.347656 144.414062 C 246.480469 126.757812 264.203125 125.308594 272.183594 111.347656 C 271.558594 130.707031 249.800781 133.246094 243.121094 151.375 C 255.667969 135.992188 271.390625 138.664062 283.933594 125.023438 C 282.609375 142.5 260.464844 141.511719 248.675781 159.601562 C 262.277344 147.054688 282.753906 150.8125 293.175781 140.007812 C 292.667969 155.464844 265.492188 154.304688 252.679688 168.117188 C 268.484375 159.460938 288.496094 164.546875 300.09375 156.503906 C 297.976562 170.054688 269.289062 166.886719 255.578125 177.460938 C 274.488281 172.222656 289.085938 180.320312 304.40625 174.464844 C 296.949219 187.65625 270.929688 179.308594 257.117188 187.882812 C 273.523438 185.101562 290.960938 195.042969 305.933594 191.855469 C 301.011719 203.253906 272.5 191.164062 257.117188 198.257812 C 275.496094 198.097656 287.417969 209.832031 304.464844 209.058594 C 295.191406 219.378906 270.125 205.183594 255.519531 207.609375 C 273.339844 211.296875 286.953125 226.058594 300.460938 226.773438 C 289.375 235.285156 268.648438 215.898438 251.816406 218.359375 C 269.144531 223 283.703125 242.714844 293.644531 243.144531 C 282.933594 250.46875 261.757812 226.296875 247.25 227.15625 C 264.871094 235.121094 272.953125 255.292969 284.523438 258.128906 C 270.199219 262.722656 256.125 236.214844 240.730469 235.296875 C 258.558594 246.542969 259.566406 263.734375 273.292969 271.390625 C 258.851562 274.917969 248.570312 245.015625 233.351562 242.492188 C 247.96875 253.234375 250.171875 276.1875 259.863281 283.445312 C 245.160156 284.222656 239.84375 252.910156 224.773438 248.4375 C 237.6875 259.222656 234.59375 282.621094 244.632812 292.585938 C 229.316406 289.441406 231.289062 262.183594 215.296875 253 C 226.785156 267.492188 220.941406 288.136719 228.429688 299.753906 C 213.527344 293.726562 220 269.328125 205.773438 255.511719 C 213.535156 270.949219 205.191406 288.949219 211.3125 303.875 C 197.699219 297.234375 206.855469 268.335938 196.421875 256.875 C 201.214844 274.714844 192.371094 289.476562 195.9375 305.472656 C 182.015625 289.328125 198.046875 273.082031 185.976562 256.628906 C 189.179688 275.511719 175.972656 288.648438 178.050781 304.457031 C 167.015625 291.5625 183.980469 270.875 175.40625 254.597656 C 177.25 273.164062 160.199219 289.425781 161.367188 301.117188 C 152.386719 286.144531 171.34375 268.433594 166.265625 251.40625 C 165.199219 269.085938 147.988281 278.691406 144.75 294.796875 C 138.964844 277.03125 159.421875 264.1875 157.65625 246.730469 C 151.796875 263.339844 135.167969 269.996094 129.3125 286.09375 C 124.515625 268.375 148.746094 258.96875 149.386719 240.328125 C 141.898438 257.808594 121.996094 261.648438 115.429688 275.027344 C 112.976562 257.402344 140.785156 249.523438 141.820312 232.820312 C 132.867188 248.855469 111.09375 249.507812 103.578125 262.261719 C 102.4375 244.699219 131.761719 242.523438 136.367188 224.144531 C 127.453125 237.851562 103.566406 236.074219 93.628906 247.21875 C 95.195312 230.925781 126.917969 229.917969 131.972656 215.269531 C 120.179688 226.644531 98.25 221.929688 85.902344 230.953125 C 92.777344 214.953125 122.53125 218.34375 129.257812 206.753906 C 116.085938 213.625 92.75 206.964844 81.261719 213.835938 C 91.703125 198.683594 114.863281 207.734375 127.972656 197.300781 C 106.648438 200.40625 93.84375 191.921875 79.085938 195.847656 Z M 79.085938 195.847656 "/>
<path style=" stroke:none;fill-rule:evenodd;fill:rgb(100%,100%,0%);fill-opacity:1;" d="M 266.9375 192.074219 C 266.9375 233.171875 233.621094 266.488281 192.523438 266.488281 C 151.425781 266.488281 118.109375 233.171875 118.109375 192.074219 C 118.109375 150.976562 151.425781 117.660156 192.523438 117.660156 C 233.621094 117.660156 266.9375 150.976562 266.9375 192.074219 Z M 266.9375 192.074219 "/>
<path style=" stroke:none;fill-rule:evenodd;fill:rgb(74.509804%,0%,15.294118%);fill-opacity:1;" d="M 257.363281 192.222656 C 257.363281 227.953125 228.398438 256.914062 192.667969 256.914062 C 156.9375 256.914062 127.972656 227.949219 127.972656 192.222656 C 127.972656 156.488281 156.9375 127.527344 192.667969 127.527344 C 228.398438 127.527344 257.363281 156.492188 257.363281 192.222656 Z M 257.363281 192.222656 "/>
<path style=" stroke:none;fill-rule:evenodd;fill:rgb(100%,100%,0%);fill-opacity:1;" d="M 248.367188 192.367188 C 248.367188 223.050781 223.496094 247.921875 192.8125 247.921875 C 162.128906 247.921875 137.253906 223.050781 137.253906 192.367188 C 137.253906 161.683594 162.128906 136.808594 192.8125 136.808594 C 223.496094 136.808594 248.367188 161.683594 248.367188 192.367188 Z M 248.367188 192.367188 "/>
<path style=" stroke:none;fill-rule:evenodd;fill:rgb(74.509804%,0%,15.294118%);fill-opacity:1;" d="M 145.523438 155.960938 C 160.898438 155.621094 180.046875 157.023438 192.667969 167.128906 C 206.0625 158.765625 221.921875 154.898438 238.070312 156.394531 C 240.828125 161.425781 243.582031 166.453125 246.339844 171.480469 C 234.347656 170.273438 222.648438 171.964844 208.769531 177.574219 C 226.464844 191.597656 235.316406 209.679688 234.734375 231.679688 C 232.703125 234.195312 229.511719 237 227.480469 239.511719 C 230.429688 218.140625 219.164062 194.304688 202.820312 181.78125 C 216.117188 200.976562 224.050781 218.289062 221.824219 242.125 C 219.457031 243.527344 216.652344 245.507812 214.28125 246.910156 C 217.761719 225.878906 212.832031 201.21875 197.3125 186.859375 C 206.253906 200.011719 215.199219 223.605469 209.640625 247.636719 C 207.222656 248.363281 203.5 250.394531 201.082031 251.117188 C 207.320312 231.4375 203.402344 206.828125 192.957031 192.078125 C 182.613281 206.925781 179.226562 229.601562 185.125 250.539062 C 182.222656 249.8125 180.046875 248.941406 177.148438 248.21875 C 172.890625 225.683594 178.792969 200.25 189.042969 187.003906 C 178.597656 193.046875 168.734375 218.964844 171.488281 245.460938 C 168.976562 244.300781 167.039062 243.429688 164.527344 242.269531 C 161.140625 222.492188 170.085938 196.769531 182.949219 181.925781 C 168.347656 191.113281 156.5 213.644531 158.578125 237.917969 C 156.355469 235.9375 154.277344 234.96875 152.050781 232.988281 C 149.488281 211.808594 161.722656 190.484375 176.132812 177.71875 C 163.996094 172.304688 153.597656 171.238281 138.5625 171.480469 C 140.929688 166.597656 143.15625 160.84375 145.523438 155.960938 Z M 145.523438 155.960938 "/>
</g>
</svg>
