<?xml version="1.0" encoding="UTF-8"?>
<svg xmlns="http://www.w3.org/2000/svg" xmlns:xlink="http://www.w3.org/1999/xlink" width="384pt" height="384pt" viewBox="0 0 384 384" version="1.1">
<defs>
<clipPath id="clip1">
  <path d="M 0 0 L 383.988281 0 L 383.988281 383.988281 L 0 383.988281 Z M 0 0 "/>
</clipPath>
<clipPath id="clip2">
  <path d="M 0 96 L 383.988281 96 L 383.988281 288 L 0 288 Z M 0 96 "/>
</clipPath>
</defs>
<g id="surface1">
<g clip-path="url(#clip1)" clip-rule="nonzero">
<path style=" stroke:none;fill-rule:evenodd;fill:rgb(10.588235%,0%,45.098039%);fill-opacity:1;" d="M -96 0 L 479.980469 0 L 479.980469 383.988281 L -96 383.988281 Z M -96 0 "/>
</g>
<g clip-path="url(#clip2)" clip-rule="nonzero">
<path style=" stroke:none;fill-rule:evenodd;fill:rgb(90.196078%,0%,2.352941%);fill-opacity:1;" d="M -96 96 L 479.980469 96 L 479.980469 287.996094 L -96 287.996094 Z M -96 96 "/>
</g>
<path style="fill-rule:evenodd;fill:rgb(100%,100%,100%);fill-opacity:1;stroke-width:1.1702;stroke-linecap:butt;stroke-linejoin:miter;stroke:rgb(90.196078%,0%,0%);stroke-opacity:1;stroke-miterlimit:4;" d="M 214.368763 -113.977823 L 529.719948 -113.977823 L 529.719948 -62.989547 L 214.368763 -62.989547 Z M 214.368763 -113.977823 " transform="matrix(0.774075,0,0,0.774075,-96,274.278165)"/>
<path style="fill-rule:evenodd;fill:rgb(100%,100%,100%);fill-opacity:1;stroke-width:1.25;stroke-linecap:butt;stroke-linejoin:miter;stroke:rgb(90.196078%,0%,0%);stroke-opacity:1;stroke-miterlimit:4;" d="M 219.998158 280.001374 L 214.999863 294.997578 L 534.999702 294.997578 L 530.001407 280.001374 Z M 219.998158 280.001374 " transform="matrix(0.78855,0,0,0.619167,-103.713967,52.155795)"/>
<path style="fill-rule:evenodd;fill:rgb(100%,100%,100%);fill-opacity:1;stroke-width:1.1225;stroke-linecap:butt;stroke-linejoin:miter;stroke:rgb(90.196078%,0%,0%);stroke-opacity:1;stroke-miterlimit:4;" d="M 244.99929 280.000124 L 240.001533 295.002637 L 299.999108 295.002637 L 295.001352 280.000124 Z M 244.99929 280.000124 " transform="matrix(0.956679,0,0,0.619167,28.215815,52.156569)"/>
<path style="fill-rule:evenodd;fill:rgb(100%,100%,100%);fill-opacity:1;stroke-width:1.5196;stroke-linecap:butt;stroke-linejoin:miter;stroke:rgb(90.196078%,0%,0%);stroke-opacity:1;stroke-miterlimit:4;" d="M 244.997636 280.000124 L 240.003582 295.002637 L 299.997088 295.002637 L 295.003034 280.000124 Z M 244.997636 280.000124 " transform="matrix(0.481823,0,0,0.619167,158.392008,52.156569)"/>
<path style="fill-rule:evenodd;fill:rgb(100%,100%,100%);fill-opacity:1;stroke-width:2.0241;stroke-linecap:butt;stroke-linejoin:miter;stroke:rgb(90.196078%,0%,0%);stroke-opacity:1;stroke-miterlimit:4;" d="M 244.996099 280.000124 L 240.003567 295.002637 L 300.001756 295.002637 L 294.99668 280.000124 Z M 244.996099 280.000124 " transform="matrix(0.311403,0,0,0.619167,204.418508,52.156569)"/>
<path style="fill-rule:evenodd;fill:rgb(100%,100%,100%);fill-opacity:1;stroke-width:1.0977;stroke-linecap:butt;stroke-linejoin:miter;stroke:rgb(90.196078%,0%,0%);stroke-opacity:1;stroke-miterlimit:4;" d="M 244.999655 280.001374 L 240.000696 294.997578 L 299.999851 294.997578 L 295.000892 280.001374 Z M 244.999655 280.001374 " transform="matrix(1.005678,0,0,0.619167,-79.543166,52.155795)"/>
<path style="fill-rule:evenodd;fill:rgb(100%,100%,100%);fill-opacity:1;stroke-width:1.186063;stroke-linecap:butt;stroke-linejoin:miter;stroke:rgb(90.196078%,0%,0%);stroke-opacity:1;stroke-miterlimit:4;" d="M 212.597495 239.580086 L 531.501308 239.580086 L 531.501308 251.580296 L 212.597495 251.580296 Z M 212.597495 239.580086 " transform="matrix(0.774075,0,0,0.774075,-96,0.000170062)"/>
<path style="fill-rule:evenodd;fill:rgb(100%,100%,100%);fill-opacity:1;stroke-width:1.11675;stroke-linecap:butt;stroke-linejoin:miter;stroke:rgb(90.196078%,0%,0%);stroke-opacity:1;stroke-miterlimit:4;" d="M 462.790266 -113.87185 L 525.289257 -113.87185 L 525.289257 -63.080381 L 462.790266 -63.080381 Z M 462.790266 -113.87185 " transform="matrix(0.774075,0,0,0.774075,-96,274.278165)"/>
<path style="fill-rule:evenodd;fill:rgb(100%,100%,100%);fill-opacity:1;stroke-width:0.80466;stroke-linecap:butt;stroke-linejoin:miter;stroke:rgb(90.196078%,0%,0%);stroke-opacity:1;stroke-miterlimit:4;" d="M 507.500888 -90.068238 L 513.748264 -90.068238 L 513.748264 -63.080381 L 507.500888 -63.080381 Z M 507.500888 -90.068238 " transform="matrix(0.774075,0,0,0.774075,-96,274.278165)"/>
<path style="fill-rule:evenodd;fill:rgb(100%,100%,100%);fill-opacity:1;stroke-width:0.80467;stroke-linecap:butt;stroke-linejoin:miter;stroke:rgb(90.196078%,0%,0%);stroke-opacity:1;stroke-miterlimit:4;" d="M 479.998304 -90.068238 L 486.250727 -90.068238 L 486.250727 -63.080381 L 479.998304 -63.080381 Z M 479.998304 -90.068238 " transform="matrix(0.774075,0,0,0.774075,-96,274.278165)"/>
<path style="fill-rule:evenodd;fill:rgb(100%,100%,100%);fill-opacity:1;stroke-width:1.5543;stroke-linecap:butt;stroke-linejoin:miter;stroke:rgb(90.196078%,0%,0%);stroke-opacity:1;stroke-miterlimit:4;" d="M 245.000991 280.001374 L 239.998025 294.997578 L 300.002686 294.997578 L 294.99972 280.001374 Z M 245.000991 280.001374 " transform="matrix(0.505169,0,0,0.619167,55.432292,52.155795)"/>
<path style="fill-rule:evenodd;fill:rgb(100%,100%,100%);fill-opacity:1;stroke-width:1.9557;stroke-linecap:butt;stroke-linejoin:miter;stroke:rgb(90.196078%,0%,0%);stroke-opacity:1;stroke-miterlimit:4;" d="M 245.004739 280.001374 L 239.999202 294.997578 L 300.004001 294.997578 L 294.998464 280.001374 Z M 245.004739 280.001374 " transform="matrix(0.316837,0,0,0.619167,106.443835,52.155795)"/>
<path style="fill-rule:evenodd;fill:rgb(100%,100%,100%);fill-opacity:1;stroke-width:1.148575;stroke-linecap:butt;stroke-linejoin:miter;stroke:rgb(90.196078%,0%,0%);stroke-opacity:1;stroke-miterlimit:4;" d="M 338.801553 -113.977823 L 404.656364 -113.977823 L 404.656364 -62.989547 L 338.801553 -62.989547 Z M 338.801553 -113.977823 " transform="matrix(0.774075,0,0,0.774075,-96,274.278165)"/>
<path style="fill-rule:evenodd;fill:rgb(100%,100%,100%);fill-opacity:1;stroke-width:1.0398;stroke-linecap:butt;stroke-linejoin:miter;stroke:rgb(90.196078%,0%,0%);stroke-opacity:1;stroke-miterlimit:4;" d="M 391.268409 -90.073284 L 397.520831 -90.073284 L 397.520831 -63.085428 L 391.268409 -63.085428 Z M 391.268409 -90.073284 " transform="matrix(0.774075,0,0,0.774075,-96,274.278165)"/>
<path style="fill-rule:evenodd;fill:rgb(100%,100%,100%);fill-opacity:1;stroke-width:1.0402;stroke-linecap:butt;stroke-linejoin:miter;stroke:rgb(90.196078%,0%,0%);stroke-opacity:1;stroke-miterlimit:4;" d="M 347.779002 -90.073284 L 354.036471 -90.073284 L 354.036471 -63.090474 L 347.779002 -63.090474 Z M 347.779002 -90.073284 " transform="matrix(0.774075,0,0,0.774075,-96,274.278165)"/>
<path style="fill-rule:evenodd;fill:rgb(100%,100%,100%);fill-opacity:1;stroke-width:0.89065;stroke-linecap:butt;stroke-linejoin:miter;stroke:rgb(90.196078%,0%,0%);stroke-opacity:1;stroke-miterlimit:4;" d="M 356.100426 -126.321185 L 387.988284 -126.321185 L 387.988284 -62.99964 L 356.100426 -62.99964 Z M 356.100426 -126.321185 " transform="matrix(0.774075,0,0,0.774075,-96,274.278165)"/>
<path style="fill-rule:evenodd;fill:rgb(100%,100%,100%);fill-opacity:1;stroke-width:1.0398;stroke-linecap:butt;stroke-linejoin:miter;stroke:rgb(90.196078%,0%,0%);stroke-opacity:1;stroke-miterlimit:4;" d="M 380.020105 -90.073284 L 386.267481 -90.073284 L 386.267481 -63.090474 L 380.020105 -63.090474 Z M 380.020105 -90.073284 " transform="matrix(0.774075,0,0,0.774075,-96,274.278165)"/>
<path style="fill-rule:evenodd;fill:rgb(100%,100%,100%);fill-opacity:1;stroke-width:1.0402;stroke-linecap:butt;stroke-linejoin:miter;stroke:rgb(90.196078%,0%,0%);stroke-opacity:1;stroke-miterlimit:4;" d="M 359.032353 -90.073284 L 365.284775 -90.073284 L 365.284775 -63.085428 L 359.032353 -63.085428 Z M 359.032353 -90.073284 " transform="matrix(0.774075,0,0,0.774075,-96,274.278165)"/>
<path style="fill-rule:evenodd;fill:rgb(100%,100%,100%);fill-opacity:1;stroke-width:1.25;stroke-linecap:butt;stroke-linejoin:miter;stroke:rgb(90.196078%,0%,0%);stroke-opacity:1;stroke-miterlimit:4;" d="M 358.179521 217.131257 L 371.653264 240.111462 L 385.914236 217.131257 Z M 358.179521 217.131257 " transform="matrix(0.774075,0,0,0.655285,-96,42.092046)"/>
<path style="fill-rule:evenodd;fill:rgb(100%,100%,100%);fill-opacity:1;stroke-width:1.1785;stroke-linecap:butt;stroke-linejoin:miter;stroke:rgb(90.196078%,0%,0%);stroke-opacity:1;stroke-miterlimit:4;" d="M 487.588008 -113.977823 L 505.305728 -113.977823 L 505.305728 -50.989337 L 487.588008 -50.989337 Z M 487.588008 -113.977823 " transform="matrix(0.774075,0,0,0.774075,-96,274.278165)"/>
<path style="fill-rule:evenodd;fill:rgb(100%,100%,100%);fill-opacity:1;stroke-width:1.1779;stroke-linecap:butt;stroke-linejoin:miter;stroke:rgb(90.196078%,0%,0%);stroke-opacity:1;stroke-miterlimit:4;" d="M 490.54012 -113.977823 L 502.338477 -113.977823 L 502.338477 -50.989337 L 490.54012 -50.989337 Z M 490.54012 -113.977823 " transform="matrix(0.774075,0,0,0.774075,-96,274.278165)"/>
<path style="fill-rule:evenodd;fill:rgb(100%,100%,100%);fill-opacity:1;stroke-width:1.1225;stroke-linecap:butt;stroke-linejoin:miter;stroke:rgb(90.196078%,0%,0%);stroke-opacity:1;stroke-miterlimit:4;" d="M 244.998798 280.000124 L 240.001446 295.002637 L 299.99825 295.002637 L 295.000898 280.000124 Z M 244.998798 280.000124 " transform="matrix(0.956757,0,0,0.619167,-161.369086,52.156569)"/>
<path style="fill-rule:evenodd;fill:rgb(100%,100%,100%);fill-opacity:1;stroke-width:1.6368;stroke-linecap:butt;stroke-linejoin:miter;stroke:rgb(90.196078%,0%,0%);stroke-opacity:1;stroke-miterlimit:4;" d="M 245.002506 280.000124 L 240.00045 295.002637 L 299.999076 295.002637 L 294.99702 280.000124 Z M 245.002506 280.000124 " transform="matrix(0.449815,0,0,0.619167,-25.670642,52.156569)"/>
<path style="fill-rule:evenodd;fill:rgb(100%,100%,100%);fill-opacity:1;stroke-width:2.0493;stroke-linecap:butt;stroke-linejoin:miter;stroke:rgb(90.196078%,0%,0%);stroke-opacity:1;stroke-miterlimit:4;" d="M 245.002186 280.000124 L 239.993542 295.002637 L 300.002005 295.002637 L 294.99336 280.000124 Z M 245.002186 280.000124 " transform="matrix(0.287004,0,0,0.619167,18.222507,52.156569)"/>
<path style="fill-rule:evenodd;fill:rgb(100%,100%,100%);fill-opacity:1;stroke-width:1.114525;stroke-linecap:butt;stroke-linejoin:miter;stroke:rgb(90.196078%,0%,0%);stroke-opacity:1;stroke-miterlimit:4;" d="M 217.911297 -113.977823 L 279.915746 -113.977823 L 279.915746 -62.989547 L 217.911297 -62.989547 Z M 217.911297 -113.977823 " transform="matrix(0.774075,0,0,0.774075,-96,274.278165)"/>
<path style="fill-rule:evenodd;fill:rgb(100%,100%,100%);fill-opacity:1;stroke-width:0.80467;stroke-linecap:butt;stroke-linejoin:miter;stroke:rgb(90.196078%,0%,0%);stroke-opacity:1;stroke-miterlimit:4;" d="M 230.002342 -90.068238 L 236.249717 -90.068238 L 236.249717 -63.080381 L 230.002342 -63.080381 Z M 230.002342 -90.068238 " transform="matrix(0.774075,0,0,0.774075,-96,274.278165)"/>
<path style="fill-rule:evenodd;fill:rgb(100%,100%,100%);fill-opacity:1;stroke-width:0.80467;stroke-linecap:butt;stroke-linejoin:miter;stroke:rgb(90.196078%,0%,0%);stroke-opacity:1;stroke-miterlimit:4;" d="M 258.751373 -90.063191 L 264.998749 -90.063191 L 264.998749 -63.080381 L 258.751373 -63.080381 Z M 258.751373 -90.063191 " transform="matrix(0.774075,0,0,0.774075,-96,274.278165)"/>
<path style="fill-rule:evenodd;fill:rgb(100%,100%,100%);fill-opacity:1;stroke-width:1.1785;stroke-linecap:butt;stroke-linejoin:miter;stroke:rgb(90.196078%,0%,0%);stroke-opacity:1;stroke-miterlimit:4;" d="M 239.171552 -113.977823 L 256.889271 -113.977823 L 256.889271 -50.989337 L 239.171552 -50.989337 Z M 239.171552 -113.977823 " transform="matrix(0.774075,0,0,0.774075,-96,274.278165)"/>
<path style="fill-rule:evenodd;fill:rgb(100%,100%,100%);fill-opacity:1;stroke-width:1.1779;stroke-linecap:butt;stroke-linejoin:miter;stroke:rgb(90.196078%,0%,0%);stroke-opacity:1;stroke-miterlimit:4;" d="M 242.108525 -113.977823 L 253.906881 -113.977823 L 253.906881 -50.989337 L 242.108525 -50.989337 Z M 242.108525 -113.977823 " transform="matrix(0.774075,0,0,0.774075,-96,274.278165)"/>
<path style="fill-rule:evenodd;fill:rgb(100%,100%,100%);fill-opacity:1;stroke-width:1.199163;stroke-linecap:butt;stroke-linejoin:miter;stroke:rgb(90.196078%,0%,0%);stroke-opacity:1;stroke-miterlimit:4;" d="M 209.060007 228.351967 L 535.038796 228.351967 L 535.038796 240.34713 L 209.060007 240.34713 Z M 209.060007 228.351967 " transform="matrix(0.774075,0,0,0.774075,-96,0.000170062)"/>
<path style="fill-rule:evenodd;fill:rgb(100%,100%,100%);fill-opacity:1;stroke-width:1.25;stroke-linecap:butt;stroke-linejoin:miter;stroke:rgb(90.196078%,0%,0%);stroke-opacity:1;stroke-miterlimit:4;" d="M 187.497889 328.558284 L 593.751374 328.558284 L 593.751374 346.058728 L 187.497889 346.058728 Z M 187.497889 328.558284 " transform="matrix(0.810147,0,0,0.682349,-124.482864,38.144607)"/>
<path style="fill-rule:evenodd;fill:rgb(100%,100%,100%);fill-opacity:1;stroke-width:1.122325;stroke-linecap:butt;stroke-linejoin:miter;stroke:rgb(90.196078%,0%,0%);stroke-opacity:1;stroke-miterlimit:4;" d="M 226.249542 284.810035 L 553.750913 284.810035 L 553.750913 302.310479 L 226.249542 302.310479 Z M 226.249542 284.810035 " transform="matrix(0.810147,0,0,0.682349,-124.482864,38.144607)"/>
<path style="fill-rule:evenodd;fill:rgb(100%,100%,100%);fill-opacity:1;stroke-width:1.139325;stroke-linecap:butt;stroke-linejoin:miter;stroke:rgb(90.196078%,0%,0%);stroke-opacity:1;stroke-miterlimit:4;" d="M 221.249484 288.559721 L 558.75097 288.559721 L 558.75097 306.060166 L 221.249484 306.060166 Z M 221.249484 288.559721 " transform="matrix(0.810147,0,0,0.682349,-124.482864,38.144607)"/>
<path style="fill-rule:evenodd;fill:rgb(100%,100%,100%);fill-opacity:1;stroke-width:1.25;stroke-linecap:butt;stroke-linejoin:miter;stroke:rgb(90.196078%,0%,0%);stroke-opacity:1;stroke-miterlimit:4;" d="M 187.497889 328.558284 L 593.751374 328.558284 L 593.751374 346.058728 L 187.497889 346.058728 Z M 187.497889 328.558284 " transform="matrix(0.810147,0,0,0.682349,-124.482864,38.144607)"/>
<path style="fill-rule:evenodd;fill:rgb(100%,100%,100%);fill-opacity:1;stroke-width:1.17055;stroke-linecap:butt;stroke-linejoin:miter;stroke:rgb(90.196078%,0%,0%);stroke-opacity:1;stroke-miterlimit:4;" d="M 212.498178 298.560793 L 568.751086 298.560793 L 568.751086 316.061237 L 212.498178 316.061237 Z M 212.498178 298.560793 " transform="matrix(0.810147,0,0,0.682349,-124.482864,38.144607)"/>
<path style="fill-rule:evenodd;fill:rgb(100%,100%,100%);fill-opacity:1;stroke-width:1.210925;stroke-linecap:butt;stroke-linejoin:miter;stroke:rgb(90.196078%,0%,0%);stroke-opacity:1;stroke-miterlimit:4;" d="M 200.000444 311.057839 L 581.248819 311.057839 L 581.248819 328.558284 L 200.000444 328.558284 Z M 200.000444 311.057839 " transform="matrix(0.810147,0,0,0.682349,-124.482864,38.144607)"/>
<path style="fill-rule:evenodd;fill:rgb(100%,100%,100%);fill-opacity:1;stroke-width:1.287125;stroke-linecap:butt;stroke-linejoin:miter;stroke:rgb(90.196078%,0%,0%);stroke-opacity:1;stroke-miterlimit:4;" d="M 287.498467 283.558893 L 306.249758 283.558893 L 306.249758 346.061809 L 287.498467 346.061809 Z M 287.498467 283.558893 " transform="matrix(0.731408,0,0,0.668719,-121.141956,42.867118)"/>
<path style="fill-rule:evenodd;fill:rgb(100%,100%,100%);fill-opacity:1;stroke-width:1.050963;stroke-linecap:butt;stroke-linejoin:miter;stroke:rgb(90.196078%,0%,0%);stroke-opacity:1;stroke-miterlimit:4;" d="M 290.617451 283.558893 L 303.120092 283.558893 L 303.120092 346.061809 L 290.617451 346.061809 Z M 290.617451 283.558893 " transform="matrix(0.731408,0,0,0.668719,-121.141956,42.867118)"/>
<path style="fill-rule:evenodd;fill:rgb(100%,100%,100%);fill-opacity:1;stroke-width:1.287125;stroke-linecap:butt;stroke-linejoin:miter;stroke:rgb(90.196078%,0%,0%);stroke-opacity:1;stroke-miterlimit:4;" d="M 287.501573 283.558599 L 306.247523 283.558599 L 306.247523 346.061515 L 287.501573 346.061515 Z M 287.501573 283.558599 " transform="matrix(0.731408,0,0,0.668719,70.851866,42.867315)"/>
<path style="fill-rule:evenodd;fill:rgb(100%,100%,100%);fill-opacity:1;stroke-width:1.050963;stroke-linecap:butt;stroke-linejoin:miter;stroke:rgb(90.196078%,0%,0%);stroke-opacity:1;stroke-miterlimit:4;" d="M 290.620557 283.558599 L 303.117857 283.558599 L 303.117857 346.061515 L 290.620557 346.061515 Z M 290.620557 283.558599 " transform="matrix(0.731408,0,0,0.668719,70.851866,42.867315)"/>
<path style="fill-rule:evenodd;fill:rgb(100%,100%,100%);fill-opacity:1;stroke-width:1.2011;stroke-linecap:butt;stroke-linejoin:miter;stroke:rgb(90.196078%,0%,0%);stroke-opacity:1;stroke-miterlimit:4;" d="M 365.501768 240.352177 L 379.737509 240.352177 L 379.737509 354.328939 L 365.501768 354.328939 Z M 365.501768 240.352177 " transform="matrix(0.774075,0,0,0.774075,-96,0.000170062)"/>
<path style="fill-rule:evenodd;fill:rgb(100%,100%,100%);fill-opacity:1;stroke-width:1.25;stroke-linecap:butt;stroke-linejoin:miter;stroke:rgb(90.196078%,0%,0%);stroke-opacity:1;stroke-miterlimit:4;" d="M 217.922311 220.302585 L 218.104132 183.385229 C 218.104132 183.385229 221.467828 190.622056 247.618021 192.20772 C 272.367121 191.271821 276.46345 186.842692 277.586464 182.92026 L 276.559708 220.439691 Z M 217.922311 220.302585 " transform="matrix(0.730456,0,0,0.655285,106.180649,42.092046)"/>
<path style="fill-rule:evenodd;fill:rgb(100%,100%,100%);fill-opacity:1;stroke-width:3.5278;stroke-linecap:butt;stroke-linejoin:miter;stroke:rgb(90.196078%,0%,0%);stroke-opacity:1;stroke-miterlimit:4;" d="M 330.917656 208.559802 L 312.505577 188.102553 C 318.63888 182.803183 330.04147 191.90464 330.04147 191.90464 C 330.04147 191.90464 336.186942 168.419181 362.496866 158.560671 C 388.818959 168.419181 394.952263 191.90464 394.952263 191.90464 C 394.952263 191.90464 406.354852 182.803183 412.500325 188.102553 L 394.076077 208.559802 Z M 330.917656 208.559802 " transform="matrix(0.320993,0,0,0.232192,171.492453,109.703085)"/>
<path style="fill-rule:evenodd;fill:rgb(100%,100%,100%);fill-opacity:1;stroke-width:2.615;stroke-linecap:butt;stroke-linejoin:miter;stroke:rgb(90.196078%,0%,0%);stroke-opacity:1;stroke-miterlimit:4;" d="M 330.922825 208.55489 L 312.500312 188.11427 C 318.64115 182.802833 330.042888 191.89957 330.042888 191.89957 C 330.042888 191.89957 336.183726 168.418693 362.497589 158.564897 C 388.811453 168.418693 394.952291 191.89957 394.952291 191.89957 C 394.952291 191.89957 406.36339 182.802833 412.504227 188.11427 L 394.081715 208.566907 L 330.922825 208.566907 Z M 330.922825 208.55489 " transform="matrix(0.417288,0,0,0.325065,136.585541,102.635781)"/>
<path style="fill-rule:evenodd;fill:rgb(100%,100%,100%);fill-opacity:1;stroke-width:3.3833;stroke-linecap:butt;stroke-linejoin:miter;stroke:rgb(90.196078%,0%,0%);stroke-opacity:1;stroke-miterlimit:4;" d="M -0.00563408 280.515682 C 0.787404 280.515682 30.117007 332.818256 -0.00563408 333.609559 C -30.115484 334.400862 -0.00563408 282.111051 -0.00563408 280.515682 Z M -0.00563408 280.515682 " transform="matrix(0.305392,0,0,0.306062,287.974377,35.176156)"/>
<path style="fill-rule:evenodd;fill:rgb(100%,100%,100%);fill-opacity:1;stroke-width:5.9629;stroke-linecap:butt;stroke-linejoin:miter;stroke:rgb(90.196078%,0%,0%);stroke-opacity:1;stroke-miterlimit:4;" d="M 330.919261 208.550954 L 312.500224 188.104871 C 318.639903 182.817091 330.048946 191.886435 330.048946 191.886435 C 330.048946 191.886435 336.188625 168.42792 362.503797 158.557397 C 388.818969 168.42792 394.958649 191.886435 394.958649 191.886435 C 394.958649 191.886435 406.351868 182.817091 412.507371 188.104871 L 394.072509 208.550954 Z M 330.919261 208.550954 " transform="matrix(0.246857,0,0,0.121891,198.513271,115.927233)"/>
<path style="fill-rule:evenodd;fill:rgb(100%,100%,100%);fill-opacity:1;stroke-width:8.3211;stroke-linecap:butt;stroke-linejoin:miter;stroke:rgb(90.196078%,0%,0%);stroke-opacity:1;stroke-miterlimit:4;" d="M 330.926894 208.553547 L 330.033242 191.889028 C 330.033242 191.889028 336.196355 168.398466 362.512848 158.55999 C 388.82934 168.398466 394.961637 191.889028 394.961637 191.889028 L 394.067986 208.553547 Z M 330.926894 208.553547 " transform="matrix(0.126762,0,0,0.121891,242.04706,117.958167)"/>
<path style="fill-rule:evenodd;fill:rgb(100%,100%,100%);fill-opacity:1;stroke-width:5.0956;stroke-linecap:butt;stroke-linejoin:miter;stroke:rgb(90.196078%,0%,0%);stroke-opacity:1;stroke-miterlimit:4;" d="M 330.919302 208.567468 L 330.041058 191.887518 C 330.041058 191.887518 336.188763 168.405803 362.505255 158.551654 C 388.821748 168.405803 394.954045 191.887518 394.954045 191.887518 L 394.075802 208.567468 Z M 330.919302 208.567468 " transform="matrix(0.253524,0,0,0.162527,196.096044,115.578776)"/>
<path style="fill-rule:evenodd;fill:rgb(100%,100%,100%);fill-opacity:1;stroke-width:5.0956;stroke-linecap:butt;stroke-linejoin:miter;stroke:rgb(90.196078%,0%,0%);stroke-opacity:1;stroke-miterlimit:4;" d="M 330.919302 208.56069 L 330.041058 191.904776 C 330.041058 191.904776 336.188763 168.399026 362.505255 158.568911 C 388.821748 168.399026 394.954045 191.904776 394.954045 191.904776 L 394.075802 208.56069 Z M 330.919302 208.56069 " transform="matrix(0.253524,0,0,0.162527,196.096044,119.642377)"/>
<path style="fill-rule:evenodd;fill:rgb(100%,100%,100%);fill-opacity:1;stroke-width:3.6515;stroke-linecap:butt;stroke-linejoin:miter;stroke:rgb(90.196078%,0%,0%);stroke-opacity:1;stroke-miterlimit:4;" d="M 330.919261 208.555513 L 312.500224 188.114163 C 318.639903 182.802536 330.048946 191.899598 330.048946 191.899598 C 330.048946 191.899598 336.188625 168.417883 362.503797 158.563734 C 388.818969 168.417883 394.958649 191.899598 394.958649 191.899598 C 394.958649 191.899598 406.351868 182.802536 412.507371 188.114163 L 394.072509 208.56753 L 330.919261 208.56753 Z M 330.919261 208.555513 " transform="matrix(0.246857,0,0,0.325053,198.513271,97.934875)"/>
<path style="fill-rule:evenodd;fill:rgb(100%,100%,100%);fill-opacity:1;stroke-width:3.6515;stroke-linecap:butt;stroke-linejoin:miter;stroke:rgb(90.196078%,0%,0%);stroke-opacity:1;stroke-miterlimit:4;" d="M 330.919261 208.56342 L 312.500224 188.110052 C 318.639903 182.810443 330.048946 191.895488 330.048946 191.895488 C 330.048946 191.895488 336.188625 168.413772 362.503797 158.559623 C 388.818969 168.413772 394.958649 191.895488 394.958649 191.895488 C 394.958649 191.895488 406.351868 182.810443 412.507371 188.110052 L 394.072509 208.56342 Z M 330.919261 208.56342 " transform="matrix(0.246857,0,0,0.325053,198.513271,106.061211)"/>
<path style="fill-rule:evenodd;fill:rgb(100%,100%,100%);fill-opacity:1;stroke-width:3.2227;stroke-linecap:butt;stroke-linejoin:miter;stroke:rgb(90.196078%,0%,0%);stroke-opacity:1;stroke-miterlimit:4;" d="M 330.919302 208.559937 L 330.041058 191.889601 C 330.041058 191.889601 336.188763 168.412692 362.505255 158.558544 C 388.821748 168.412692 394.954045 191.889601 394.954045 191.889601 L 394.075802 208.559937 Z M 330.919302 208.559937 " transform="matrix(0.253524,0,0,0.406317,196.096044,101.301562)"/>
<path style="fill-rule:evenodd;fill:rgb(100%,100%,100%);fill-opacity:1;stroke-width:4.2164;stroke-linecap:butt;stroke-linejoin:miter;stroke:rgb(90.196078%,0%,0%);stroke-opacity:1;stroke-miterlimit:4;" d="M 330.919261 208.556339 L 312.500224 188.110983 C 318.639903 182.807368 330.048946 191.892412 330.048946 191.892412 C 330.048946 191.892412 336.188625 168.418708 362.503797 158.56456 C 388.818969 168.418708 394.958649 191.892412 394.958649 191.892412 C 394.958649 191.892412 406.351868 182.807368 412.507371 188.110983 L 394.072509 208.572362 L 330.919261 208.572362 Z M 330.919261 208.556339 " transform="matrix(0.246857,0,0,0.24379,198.513271,135.199002)"/>
<path style="fill-rule:evenodd;fill:rgb(100%,100%,100%);fill-opacity:1;stroke-width:3.5278;stroke-linecap:butt;stroke-linejoin:miter;stroke:rgb(90.196078%,0%,0%);stroke-opacity:1;stroke-miterlimit:4;" d="M 330.920314 208.562261 L 312.496066 188.105013 C 318.641539 182.805643 330.044128 191.9071 330.044128 191.9071 C 330.044128 191.9071 336.177432 168.42164 362.499525 158.563131 C 388.821618 168.42164 394.954921 191.9071 394.954921 191.9071 C 394.954921 191.9071 406.357511 182.805643 412.502983 188.105013 L 394.078735 208.562261 Z M 330.920314 208.562261 " transform="matrix(0.320993,0,0,0.232192,-20.223244,107.968139)"/>
<path style="fill-rule:evenodd;fill:rgb(100%,100%,100%);fill-opacity:1;stroke-width:2.615;stroke-linecap:butt;stroke-linejoin:miter;stroke:rgb(90.196078%,0%,0%);stroke-opacity:1;stroke-miterlimit:4;" d="M 330.915509 208.556647 L 312.502357 188.10401 C 318.643195 182.80459 330.044933 191.901327 330.044933 191.901327 C 330.044933 191.901327 336.185771 168.408433 362.499634 158.566653 C 388.813498 168.408433 394.954336 191.901327 394.954336 191.901327 C 394.954336 191.901327 406.356074 182.80459 412.496911 188.10401 L 394.074399 208.568664 L 330.92487 208.568664 Z M 330.915509 208.556647 " transform="matrix(0.417288,0,0,0.325065,-55.130156,100.900835)"/>
<path style="fill-rule:evenodd;fill:rgb(100%,100%,100%);fill-opacity:1;stroke-width:1.25;stroke-linecap:butt;stroke-linejoin:miter;stroke:rgb(90.196078%,0%,0%);stroke-opacity:1;stroke-miterlimit:4;" d="M 217.921111 220.302585 L 218.102932 183.385229 C 218.102932 183.385229 221.466628 190.622056 247.616821 192.20772 C 272.365921 191.271821 276.46225 186.842692 277.585264 182.92026 L 276.558508 220.439691 Z M 217.921111 220.302585 " transform="matrix(0.730456,0,0,0.655285,-83.892693,42.092046)"/>
<path style="fill-rule:evenodd;fill:rgb(100%,100%,100%);fill-opacity:1;stroke-width:3.3833;stroke-linecap:butt;stroke-linejoin:miter;stroke:rgb(90.196078%,0%,0%);stroke-opacity:1;stroke-miterlimit:4;" d="M -0.00293329 280.515682 C 0.790104 280.515682 30.106917 332.818256 -0.00293329 333.609559 C -30.112783 334.400862 -0.00293329 282.111051 -0.00293329 280.515682 Z M -0.00293329 280.515682 " transform="matrix(0.305392,0,0,0.306062,95.977458,35.176156)"/>
<path style="fill-rule:evenodd;fill:rgb(100%,100%,100%);fill-opacity:1;stroke-width:5.9629;stroke-linecap:butt;stroke-linejoin:miter;stroke:rgb(90.196078%,0%,0%);stroke-opacity:1;stroke-miterlimit:4;" d="M 330.922603 208.550954 L 312.503565 188.104871 C 318.643244 182.817091 330.036463 191.886435 330.036463 191.886435 C 330.036463 191.886435 336.176143 168.42792 362.507139 158.557397 C 388.822311 168.42792 394.96199 191.886435 394.96199 191.886435 C 394.96199 191.886435 406.355209 182.817091 412.494888 188.104871 L 394.075851 208.550954 Z M 330.922603 208.550954 " transform="matrix(0.246857,0,0,0.121891,6.516353,115.927233)"/>
<path style="fill-rule:evenodd;fill:rgb(100%,100%,100%);fill-opacity:1;stroke-width:8.3211;stroke-linecap:butt;stroke-linejoin:miter;stroke:rgb(90.196078%,0%,0%);stroke-opacity:1;stroke-miterlimit:4;" d="M 330.933401 208.553547 L 330.039749 191.889028 C 330.039749 191.889028 336.172047 168.398466 362.488539 158.55999 C 388.805031 168.398466 394.968144 191.889028 394.968144 191.889028 L 394.074493 208.553547 Z M 330.933401 208.553547 " transform="matrix(0.126762,0,0,0.121891,50.050141,117.958167)"/>
<path style="fill-rule:evenodd;fill:rgb(100%,100%,100%);fill-opacity:1;stroke-width:5.0956;stroke-linecap:butt;stroke-linejoin:miter;stroke:rgb(90.196078%,0%,0%);stroke-opacity:1;stroke-miterlimit:4;" d="M 330.922555 208.567468 L 330.044311 191.887518 C 330.044311 191.887518 336.176609 168.405803 362.493101 158.551654 C 388.809593 168.405803 394.957298 191.887518 394.957298 191.887518 L 394.079055 208.567468 Z M 330.922555 208.567468 " transform="matrix(0.253524,0,0,0.162527,4.099125,115.578776)"/>
<path style="fill-rule:evenodd;fill:rgb(100%,100%,100%);fill-opacity:1;stroke-width:5.0956;stroke-linecap:butt;stroke-linejoin:miter;stroke:rgb(90.196078%,0%,0%);stroke-opacity:1;stroke-miterlimit:4;" d="M 330.922555 208.56069 L 330.044311 191.904776 C 330.044311 191.904776 336.176609 168.399026 362.493101 158.568911 C 388.809593 168.399026 394.957298 191.904776 394.957298 191.904776 L 394.079055 208.56069 Z M 330.922555 208.56069 " transform="matrix(0.253524,0,0,0.162527,4.099125,119.642377)"/>
<path style="fill-rule:evenodd;fill:rgb(100%,100%,100%);fill-opacity:1;stroke-width:3.6515;stroke-linecap:butt;stroke-linejoin:miter;stroke:rgb(90.196078%,0%,0%);stroke-opacity:1;stroke-miterlimit:4;" d="M 330.922603 208.555513 L 312.503565 188.114163 C 318.643244 182.802536 330.036463 191.899598 330.036463 191.899598 C 330.036463 191.899598 336.176143 168.417883 362.507139 158.563734 C 388.822311 168.417883 394.96199 191.899598 394.96199 191.899598 C 394.96199 191.899598 406.355209 182.802536 412.494888 188.114163 L 394.075851 208.56753 L 330.922603 208.56753 Z M 330.922603 208.555513 " transform="matrix(0.246857,0,0,0.325053,6.516353,97.934875)"/>
<path style="fill-rule:evenodd;fill:rgb(100%,100%,100%);fill-opacity:1;stroke-width:3.6515;stroke-linecap:butt;stroke-linejoin:miter;stroke:rgb(90.196078%,0%,0%);stroke-opacity:1;stroke-miterlimit:4;" d="M 330.922603 208.56342 L 312.503565 188.110052 C 318.643244 182.810443 330.036463 191.895488 330.036463 191.895488 C 330.036463 191.895488 336.176143 168.413772 362.507139 158.559623 C 388.822311 168.413772 394.96199 191.895488 394.96199 191.895488 C 394.96199 191.895488 406.355209 182.810443 412.494888 188.110052 L 394.075851 208.56342 Z M 330.922603 208.56342 " transform="matrix(0.246857,0,0,0.325053,6.516353,106.061211)"/>
<path style="fill-rule:evenodd;fill:rgb(100%,100%,100%);fill-opacity:1;stroke-width:3.2227;stroke-linecap:butt;stroke-linejoin:miter;stroke:rgb(90.196078%,0%,0%);stroke-opacity:1;stroke-miterlimit:4;" d="M 330.922555 208.559937 L 330.044311 191.889601 C 330.044311 191.889601 336.176609 168.412692 362.493101 158.558544 C 388.809593 168.412692 394.957298 191.889601 394.957298 191.889601 L 394.079055 208.559937 Z M 330.922555 208.559937 " transform="matrix(0.253524,0,0,0.406317,4.099125,101.301562)"/>
<path style="fill-rule:evenodd;fill:rgb(100%,100%,100%);fill-opacity:1;stroke-width:4.2164;stroke-linecap:butt;stroke-linejoin:miter;stroke:rgb(90.196078%,0%,0%);stroke-opacity:1;stroke-miterlimit:4;" d="M 330.922603 208.556339 L 312.503565 188.110983 C 318.643244 182.807368 330.036463 191.892412 330.036463 191.892412 C 330.036463 191.892412 336.176143 168.418708 362.507139 158.56456 C 388.822311 168.418708 394.96199 191.892412 394.96199 191.892412 C 394.96199 191.892412 406.355209 182.807368 412.494888 188.110983 L 394.075851 208.572362 L 330.922603 208.572362 Z M 330.922603 208.556339 " transform="matrix(0.246857,0,0,0.24379,6.516353,135.199002)"/>
<path style="fill-rule:evenodd;fill:rgb(100%,100%,100%);fill-opacity:1;stroke-width:1.2256;stroke-linecap:butt;stroke-linejoin:miter;stroke:rgb(90.196078%,0%,0%);stroke-opacity:1;stroke-miterlimit:4;" d="M 335.980646 226.277919 L 408.118157 226.277919 C 411.680877 226.277919 414.567387 229.169475 414.567387 232.727148 C 414.567387 236.289868 411.680877 239.176378 408.118157 239.176378 L 335.980646 239.176378 C 332.417926 239.176378 329.531417 236.289868 329.531417 232.727148 C 329.531417 229.169475 332.417926 226.277919 335.980646 226.277919 Z M 335.980646 226.277919 " transform="matrix(0.774075,0,0,0.774075,-96,0.000170062)"/>
<path style="fill-rule:evenodd;fill:rgb(100%,100%,100%);fill-opacity:1;stroke-width:1.5789;stroke-linecap:butt;stroke-linejoin:miter;stroke:rgb(90.196078%,0%,0%);stroke-opacity:1;stroke-miterlimit:4;" d="M 353.237205 -212.603293 L 354.337308 -269.290576 C 354.337308 -269.290576 351.057184 -255.389576 341.206717 -255.389576 L 190.290704 -255.389576 C 180.45033 -255.389576 177.170206 -269.290576 177.170206 -269.290576 L 178.260216 -212.603293 Z M 353.237205 -212.603293 " transform="matrix(0.387038,0,0,0.580556,89.135518,304.451608)"/>
<path style="fill-rule:evenodd;fill:rgb(100%,100%,100%);fill-opacity:1;stroke-width:2.3995;stroke-linecap:butt;stroke-linejoin:miter;stroke:rgb(90.196078%,0%,0%);stroke-opacity:1;stroke-miterlimit:4;" d="M 510.487873 70.220608 L 510.904197 44.608432 C 510.904197 44.608432 534.458015 41.61229 531.190506 35.27734 C 527.922998 28.94239 499.587767 43.264122 499.587767 43.264122 L 386.246844 43.264122 C 386.246844 43.264122 357.911613 28.94239 354.644104 35.27734 C 351.376595 41.61229 374.930414 44.608432 374.930414 44.608432 L 375.334121 70.220608 Z M 510.487873 70.220608 " transform="matrix(0.30963,0,0,0.444582,54.851702,134.867102)"/>
<path style="fill-rule:evenodd;fill:rgb(100%,100%,100%);fill-opacity:1;stroke-width:2.1904;stroke-linecap:butt;stroke-linejoin:miter;stroke:rgb(90.196078%,0%,0%);stroke-opacity:1;stroke-miterlimit:4;" d="M 510.489233 70.220974 L 510.899249 44.608797 C 510.899249 44.608797 534.459375 41.612656 531.189763 35.277706 C 527.920152 28.942756 499.587024 43.264487 499.587024 43.264487 L 386.243998 43.264487 C 386.243998 43.264487 357.91087 28.942756 354.641259 35.277706 C 351.371647 41.612656 374.931773 44.608797 374.931773 44.608797 L 375.331276 70.220974 Z M 510.489233 70.220974 " transform="matrix(0.371556,0,0,0.444582,27.426225,144.156002)"/>
<path style="fill-rule:evenodd;fill:rgb(100%,100%,100%);fill-opacity:1;stroke-width:6.2465;stroke-linecap:butt;stroke-linejoin:miter;stroke:rgb(90.196078%,0%,0%);stroke-opacity:1;stroke-miterlimit:4;" d="M 510.505817 70.212638 L 510.894446 44.619435 C 510.894446 44.619435 534.445354 41.603921 531.180872 35.282941 C 527.916389 28.942631 503.899126 16.919238 469.388884 4.199958 C 445.099581 -1.715088 500.634644 -22.147124 448.3252 -23.519569 C 400.290674 -22.746361 442.884397 -0.188001 427.222654 5.108478 C 388.398632 16.919238 357.891267 28.942631 354.626784 35.282941 C 351.362302 41.603921 374.91321 44.619435 374.91321 44.619435 L 375.340702 70.212638 Z M 510.505817 70.212638 " transform="matrix(0.100514,0,0,0.20208,147.191109,103.787991)"/>
<path style="fill-rule:evenodd;fill:rgb(100%,100%,100%);fill-opacity:1;stroke-width:3.152;stroke-linecap:butt;stroke-linejoin:miter;stroke:rgb(90.196078%,0%,0%);stroke-opacity:1;stroke-miterlimit:4;" d="M 510.492252 70.21966 L 510.901916 44.607781 C 510.901916 44.607781 534.448679 41.611674 531.18918 35.275821 C 527.911869 28.939969 499.591632 43.265439 499.591632 43.265439 L 386.239438 43.265439 C 386.239438 43.265439 357.90139 28.939969 354.641891 35.275821 C 351.36458 41.611674 374.929155 44.607781 374.929155 44.607781 L 375.338819 70.21966 Z M 510.492252 70.21966 " transform="matrix(0.219311,0,0,0.363753,94.848158,121.336271)"/>
<path style="fill-rule:evenodd;fill:rgb(100%,100%,100%);fill-opacity:1;stroke-width:2.8773;stroke-linecap:butt;stroke-linejoin:miter;stroke:rgb(90.196078%,0%,0%);stroke-opacity:1;stroke-miterlimit:4;" d="M 510.494059 70.220061 L 510.894799 44.608182 C 510.894799 44.608182 534.464201 41.612075 531.184076 35.276223 C 527.918794 28.94037 499.585047 43.26584 499.585047 43.26584 L 386.250061 43.26584 C 386.250061 43.26584 357.916315 28.94037 354.63619 35.276223 C 351.370908 41.612075 374.925468 44.608182 374.925468 44.608182 L 375.341049 70.220061 Z M 510.494059 70.220061 " transform="matrix(0.263186,0,0,0.363753,75.426616,128.937688)"/>
<path style="fill-rule:evenodd;fill:rgb(100%,100%,100%);fill-opacity:1;stroke-width:4.7552;stroke-linecap:butt;stroke-linejoin:miter;stroke:rgb(90.196078%,0%,0%);stroke-opacity:1;stroke-miterlimit:4;" d="M 510.47674 70.213275 L 510.88963 44.608306 C 510.88963 44.608306 534.451905 41.619214 531.176308 35.277279 C 527.928238 28.95116 499.576435 43.264005 499.576435 43.264005 L 386.251802 43.264005 C 386.251802 43.264005 357.899999 28.95116 354.651928 35.277279 C 351.376332 41.619214 374.938607 44.608306 374.938607 44.608306 L 375.323971 70.213275 Z M 510.47674 70.213275 " transform="matrix(0.141911,0,0,0.246992,129.13968,115.716487)"/>
<path style="fill-rule:evenodd;fill:rgb(100%,100%,100%);fill-opacity:1;stroke-width:4.3408;stroke-linecap:butt;stroke-linejoin:miter;stroke:rgb(90.196078%,0%,0%);stroke-opacity:1;stroke-miterlimit:4;" d="M 510.493194 70.217252 L 510.906077 44.612283 C 510.906077 44.612283 534.463336 41.607376 531.183211 35.281256 C 527.926025 28.939321 499.574737 43.267982 499.574737 43.267982 L 386.238402 43.267982 C 386.238402 43.267982 357.910052 28.939321 354.629928 35.281256 C 351.372741 41.607376 374.93 44.612283 374.93 44.612283 L 375.342883 70.217252 Z M 510.493194 70.217252 " transform="matrix(0.170297,0,0,0.246992,116.568702,120.879567)"/>
<path style="fill-rule:evenodd;fill:rgb(100%,100%,100%);fill-opacity:1;stroke-width:6.2465;stroke-linecap:butt;stroke-linejoin:miter;stroke:rgb(90.196078%,0%,0%);stroke-opacity:1;stroke-miterlimit:4;" d="M 510.492652 70.221719 L 510.881281 44.609185 C 510.881281 44.609185 534.471052 41.613002 531.20657 35.272692 C 527.903224 28.951712 499.572181 43.25607 499.572181 43.25607 L 386.248008 43.25607 C 386.248008 43.25607 357.916965 28.951712 354.652482 35.272692 C 351.388 41.613002 374.938908 44.609185 374.938908 44.609185 L 375.327537 70.221719 Z M 510.492652 70.221719 " transform="matrix(0.100514,0,0,0.20208,147.469776,108.200219)"/>
<path style="fill-rule:evenodd;fill:rgb(100%,100%,100%);fill-opacity:1;stroke-width:5.7021;stroke-linecap:butt;stroke-linejoin:miter;stroke:rgb(90.196078%,0%,0%);stroke-opacity:1;stroke-miterlimit:4;" d="M 510.483511 70.222278 L 510.904498 44.609744 C 510.904498 44.609744 534.447419 41.613561 531.176669 35.273251 C 527.905919 28.952271 499.570217 43.256629 499.570217 43.256629 L 386.259793 43.256629 C 386.259793 43.256629 357.924091 28.952271 354.653342 35.273251 C 351.382592 41.613561 374.925513 44.609744 374.925513 44.609744 L 375.3465 70.222278 Z M 510.483511 70.222278 " transform="matrix(0.120624,0,0,0.20208,138.567914,112.426668)"/>
<path style="fill-rule:evenodd;fill:rgb(100%,100%,100%);fill-opacity:1;stroke-width:5.4435;stroke-linecap:butt;stroke-linejoin:miter;stroke:rgb(90.196078%,0%,0%);stroke-opacity:1;stroke-miterlimit:4;" d="M 330.928034 208.548967 L 312.499487 188.108361 C 318.65183 182.808944 330.045058 191.893658 330.045058 191.893658 C 330.045058 191.893658 336.168919 168.424814 362.487276 158.555001 C 388.805633 168.424814 394.957977 191.893658 394.957977 191.893658 C 394.957977 191.893658 406.351205 182.808944 412.503548 188.108361 L 394.075001 208.577006 L 330.928034 208.577006 Z M 330.928034 208.548967 " transform="matrix(0.137143,0,0,0.139314,142.275737,97.793931)"/>
<path style="fill-rule:evenodd;fill:rgb(100%,100%,100%);fill-opacity:1;stroke-width:5.4435;stroke-linecap:butt;stroke-linejoin:miter;stroke:rgb(90.196078%,0%,0%);stroke-opacity:1;stroke-miterlimit:4;" d="M 330.927851 208.557427 L 312.494641 188.11682 C 318.639044 182.817404 330.052986 191.902118 330.052986 191.902118 C 330.052986 191.902118 336.177044 168.405234 362.504388 158.563461 C 388.811387 168.405234 394.95579 191.902118 394.95579 191.902118 C 394.95579 191.902118 406.349386 182.817404 412.493789 188.11682 L 394.080925 208.557427 Z M 330.927851 208.557427 " transform="matrix(0.191994,0,0,0.139314,122.397491,102.437283)"/>
<path style="fill-rule:evenodd;fill:rgb(100%,100%,100%);fill-opacity:1;stroke-width:4.4097;stroke-linecap:butt;stroke-linejoin:miter;stroke:rgb(90.196078%,0%,0%);stroke-opacity:1;stroke-miterlimit:4;" d="M 330.927467 208.556849 L 312.501701 188.115762 C 318.643623 182.81622 330.037334 191.901148 330.037334 191.901148 C 330.037334 191.901148 336.179256 168.410722 362.491606 158.568717 C 388.821759 168.410722 394.963681 191.901148 394.963681 191.901148 C 394.963681 191.901148 406.357392 182.81622 412.499314 188.115762 L 394.073548 208.556849 Z M 330.927467 208.556849 " transform="matrix(0.219419,0,0,0.185747,112.450627,100.874428)"/>
<path style="fill-rule:evenodd;fill:rgb(100%,100%,100%);fill-opacity:1;stroke-width:3.5278;stroke-linecap:butt;stroke-linejoin:miter;stroke:rgb(90.196078%,0%,0%);stroke-opacity:1;stroke-miterlimit:4;" d="M 330.917852 208.557682 L 312.503027 188.116884 C 318.641302 182.800594 330.049094 191.902217 330.049094 191.902217 C 330.049094 191.902217 336.187369 168.416328 362.506469 158.557638 C 388.811327 168.416328 394.949602 191.902217 394.949602 191.902217 C 394.949602 191.902217 406.357394 182.800594 412.495668 188.116884 L 394.080844 208.557682 Z M 330.917852 208.557682 " transform="matrix(0.274278,0,0,0.232187,92.56464,101.169306)"/>
<path style="fill-rule:evenodd;fill:rgb(100%,100%,100%);fill-opacity:1;stroke-width:1.4582;stroke-linecap:butt;stroke-linejoin:miter;stroke:rgb(90.196078%,0%,0%);stroke-opacity:1;stroke-miterlimit:4;" d="M 358.181723 217.126613 L 371.652056 240.109386 L 385.915084 217.126613 Z M 358.181723 217.126613 " transform="matrix(0.714533,0,0,0.52162,-73.846777,44.550939)"/>
<path style="fill-rule:evenodd;fill:rgb(100%,100%,100%);fill-opacity:1;stroke-width:3.0506;stroke-linecap:butt;stroke-linejoin:miter;stroke:rgb(90.196078%,0%,0%);stroke-opacity:1;stroke-miterlimit:4;" d="M 330.92331 208.560577 L 312.503911 188.104862 C 318.639754 182.806001 330.045065 191.894075 330.045065 191.894075 C 330.045065 191.894075 336.180909 168.419067 362.504509 158.561073 C 388.81624 168.419067 394.952084 191.894075 394.952084 191.894075 C 394.952084 191.894075 406.357395 182.806001 412.505106 188.104862 L 394.073839 208.560577 Z M 330.92331 208.560577 " transform="matrix(0.329137,0,0,0.258753,72.678653,105.171134)"/>
<path style="fill-rule:evenodd;fill:rgb(100%,100%,100%);fill-opacity:1;stroke-width:1.25;stroke-linecap:butt;stroke-linejoin:miter;stroke:rgb(90.196078%,0%,0%);stroke-opacity:1;stroke-miterlimit:4;" d="M 358.179679 217.130383 L 371.653422 240.110587 L 385.914395 217.130383 Z M 358.179679 217.130383 " transform="matrix(0.774075,0,0,0.655285,-96.000123,28.709807)"/>
<path style="fill-rule:evenodd;fill:rgb(100%,100%,100%);fill-opacity:1;stroke-width:2.615;stroke-linecap:butt;stroke-linejoin:miter;stroke:rgb(90.196078%,0%,0%);stroke-opacity:1;stroke-miterlimit:4;" d="M 330.923624 208.556775 L 312.496788 188.115894 C 318.642719 182.804389 330.047199 191.901243 330.047199 191.901243 C 330.047199 191.901243 336.182174 168.408049 362.496835 158.566143 C 388.811496 168.408049 394.957426 191.901243 394.957426 191.901243 C 394.957426 191.901243 406.361906 182.804389 412.496881 188.115894 L 394.081001 208.568792 L 330.923624 208.568792 Z M 330.923624 208.556775 " transform="matrix(0.356562,0,0,0.325061,62.73953,104.878222)"/>
<path style="fill-rule:evenodd;fill:rgb(100%,100%,100%);fill-opacity:1;stroke-width:2.615;stroke-linecap:butt;stroke-linejoin:miter;stroke:rgb(90.196078%,0%,0%);stroke-opacity:1;stroke-miterlimit:4;" d="M 330.923624 208.556757 L 312.496788 188.115876 C 318.642719 182.804371 330.047199 191.901224 330.047199 191.901224 C 330.047199 191.901224 336.182174 168.408031 362.496835 158.566125 C 388.811496 168.408031 394.957426 191.901224 394.957426 191.901224 C 394.957426 191.901224 406.361906 182.804371 412.496881 188.115876 L 394.081001 208.568774 L 330.923624 208.568774 Z M 330.923624 208.556757 " transform="matrix(0.356562,0,0,0.325061,62.73953,118.249321)"/>
<path style="fill-rule:evenodd;fill:rgb(100%,100%,100%);fill-opacity:1;stroke-width:1.0398;stroke-linecap:butt;stroke-linejoin:miter;stroke:rgb(90.196078%,0%,0%);stroke-opacity:1;stroke-miterlimit:4;" d="M 285.340568 -90.068238 L 291.587944 -90.068238 L 291.587944 -63.085428 L 285.340568 -63.085428 Z M 285.340568 -90.068238 " transform="matrix(0.774075,0,0,0.774075,-96,274.278165)"/>
<path style="fill-rule:evenodd;fill:rgb(100%,100%,100%);fill-opacity:1;stroke-width:1.0398;stroke-linecap:butt;stroke-linejoin:miter;stroke:rgb(90.196078%,0%,0%);stroke-opacity:1;stroke-miterlimit:4;" d="M 306.590729 -90.073284 L 312.838105 -90.073284 L 312.838105 -63.085428 L 306.590729 -63.085428 Z M 306.590729 -90.073284 " transform="matrix(0.774075,0,0,0.774075,-96,274.278165)"/>
<path style="fill-rule:evenodd;fill:rgb(100%,100%,100%);fill-opacity:1;stroke-width:1.0398;stroke-linecap:butt;stroke-linejoin:miter;stroke:rgb(90.196078%,0%,0%);stroke-opacity:1;stroke-miterlimit:4;" d="M 296.588872 -90.073284 L 302.841294 -90.073284 L 302.841294 -63.085428 L 296.588872 -63.085428 Z M 296.588872 -90.073284 " transform="matrix(0.774075,0,0,0.774075,-96,274.278165)"/>
<path style="fill-rule:evenodd;fill:rgb(100%,100%,100%);fill-opacity:1;stroke-width:1.0398;stroke-linecap:butt;stroke-linejoin:miter;stroke:rgb(90.196078%,0%,0%);stroke-opacity:1;stroke-miterlimit:4;" d="M 410.141742 -90.073284 L 416.389118 -90.073284 L 416.389118 -63.085428 L 410.141742 -63.085428 Z M 410.141742 -90.073284 " transform="matrix(0.774075,0,0,0.774075,-96,274.278165)"/>
<path style="fill-rule:evenodd;fill:rgb(100%,100%,100%);fill-opacity:1;stroke-width:1.0398;stroke-linecap:butt;stroke-linejoin:miter;stroke:rgb(90.196078%,0%,0%);stroke-opacity:1;stroke-miterlimit:4;" d="M 452.642065 -90.073284 L 458.889441 -90.073284 L 458.889441 -63.085428 L 452.642065 -63.085428 Z M 452.642065 -90.073284 " transform="matrix(0.774075,0,0,0.774075,-96,274.278165)"/>
<path style="fill-rule:evenodd;fill:rgb(100%,100%,100%);fill-opacity:1;stroke-width:1.0398;stroke-linecap:butt;stroke-linejoin:miter;stroke:rgb(90.196078%,0%,0%);stroke-opacity:1;stroke-miterlimit:4;" d="M 431.391903 -90.073284 L 437.639279 -90.073284 L 437.639279 -63.090474 L 431.391903 -63.090474 Z M 431.391903 -90.073284 " transform="matrix(0.774075,0,0,0.774075,-96,274.278165)"/>
<path style="fill-rule:evenodd;fill:rgb(100%,100%,100%);fill-opacity:1;stroke-width:1.0398;stroke-linecap:butt;stroke-linejoin:miter;stroke:rgb(90.196078%,0%,0%);stroke-opacity:1;stroke-miterlimit:4;" d="M 421.390046 -90.073284 L 427.637422 -90.073284 L 427.637422 -63.090474 L 421.390046 -63.090474 Z M 421.390046 -90.073284 " transform="matrix(0.774075,0,0,0.774075,-96,274.278165)"/>
<path style="fill-rule:evenodd;fill:rgb(100%,100%,100%);fill-opacity:1;stroke-width:1.0398;stroke-linecap:butt;stroke-linejoin:miter;stroke:rgb(90.196078%,0%,0%);stroke-opacity:1;stroke-miterlimit:4;" d="M 441.388714 -90.073284 L 447.641136 -90.073284 L 447.641136 -63.090474 L 441.388714 -63.090474 Z M 441.388714 -90.073284 " transform="matrix(0.774075,0,0,0.774075,-96,274.278165)"/>
<path style="fill-rule:evenodd;fill:rgb(100%,100%,100%);fill-opacity:1;stroke-width:1.0398;stroke-linecap:butt;stroke-linejoin:miter;stroke:rgb(90.196078%,0%,0%);stroke-opacity:1;stroke-miterlimit:4;" d="M 327.840891 -90.073284 L 334.088267 -90.073284 L 334.088267 -63.085428 L 327.840891 -63.085428 Z M 327.840891 -90.073284 " transform="matrix(0.774075,0,0,0.774075,-96,274.278165)"/>
<path style="fill-rule:evenodd;fill:rgb(100%,100%,100%);fill-opacity:1;stroke-width:1.0398;stroke-linecap:butt;stroke-linejoin:miter;stroke:rgb(90.196078%,0%,0%);stroke-opacity:1;stroke-miterlimit:4;" d="M 316.58754 -90.073284 L 322.839962 -90.073284 L 322.839962 -63.085428 L 316.58754 -63.085428 Z M 316.58754 -90.073284 " transform="matrix(0.774075,0,0,0.774075,-96,274.278165)"/>
</g>
</svg>
