<?xml version="1.0" encoding="UTF-8"?>
<svg xmlns="http://www.w3.org/2000/svg" xmlns:xlink="http://www.w3.org/1999/xlink" width="384pt" height="384pt" viewBox="0 0 384 384" version="1.1">
<defs>
<clipPath id="clip1">
  <path d="M 0 0 L 383.984375 0 L 383.984375 230 L 0 230 Z M 0 0 "/>
</clipPath>
<clipPath id="clip2">
  <path d="M 0 227 L 383.984375 227 L 383.984375 383.988281 L 0 383.988281 Z M 0 227 "/>
</clipPath>
<clipPath id="clip3">
  <path d="M 0 308 L 383.984375 308 L 383.984375 364 L 0 364 Z M 0 308 "/>
</clipPath>
<clipPath id="clip4">
  <path d="M 0 253 L 383.984375 253 L 383.984375 310 L 0 310 Z M 0 253 "/>
</clipPath>
<clipPath id="clip5">
  <path d="M 0 199 L 383.984375 199 L 383.984375 256 L 0 256 Z M 0 199 "/>
</clipPath>
</defs>
<g id="surface1">
<g clip-path="url(#clip1)" clip-rule="nonzero">
<path style=" stroke:none;fill-rule:evenodd;fill:rgb(90.588235%,24.313725%,17.647059%);fill-opacity:1;" d="M -123.210938 0 L 503.617188 0 L 503.617188 229.863281 L -123.210938 229.863281 Z M -123.210938 0 "/>
</g>
<path style="fill-rule:evenodd;fill:rgb(99.607843%,78.039216%,29.019608%);fill-opacity:1;stroke-width:1.25;stroke-linecap:butt;stroke-linejoin:miter;stroke:rgb(84.705882%,66.666667%,24.705882%);stroke-opacity:1;stroke-miterlimit:4;" d="M 330.308947 587.190227 C 315.720478 575.800195 288.545497 579.651614 284.068467 548.691685 C 304.877856 564.805081 301.100729 547.768909 332.17405 563.123751 Z M 330.308947 587.190227 " transform="matrix(0.999023,0,0,0.999023,-176.77537,-375.058078)"/>
<path style="fill-rule:evenodd;fill:rgb(99.607843%,78.039216%,29.019608%);fill-opacity:1;stroke-width:1.25;stroke-linecap:butt;stroke-linejoin:miter;stroke:rgb(84.705882%,66.666667%,24.705882%);stroke-opacity:1;stroke-miterlimit:4;" d="M 330.310661 587.189251 C 315.719115 575.800303 288.54728 579.653319 284.06959 548.689996 C 304.877563 564.806384 301.098696 547.76865 332.177711 563.12604 Z M 330.310661 587.189251 " transform="matrix(0.950993,0.306072,-0.306072,0.950993,22.688769,-462.011834)"/>
<path style="fill-rule:evenodd;fill:rgb(99.607843%,78.039216%,29.019608%);fill-opacity:1;stroke-width:1.25;stroke-linecap:butt;stroke-linejoin:miter;stroke:rgb(84.705882%,66.666667%,24.705882%);stroke-opacity:1;stroke-miterlimit:4;" d="M 330.308161 587.189305 C 315.720266 575.800027 288.543896 579.652192 284.069629 548.691035 C 304.878197 564.806299 301.100167 547.766738 332.173608 563.124848 Z M 330.308161 587.189305 " transform="matrix(0.76174,0.646413,-0.646413,0.76174,289.774409,-473.296923)"/>
<path style="fill-rule:evenodd;fill:rgb(99.607843%,78.039216%,29.019608%);fill-opacity:1;stroke-width:1.25;stroke-linecap:butt;stroke-linejoin:miter;stroke:rgb(84.705882%,66.666667%,24.705882%);stroke-opacity:1;stroke-miterlimit:4;" d="M 330.309517 587.18918 C 315.721003 575.801045 288.545164 579.651777 284.070597 548.689257 C 304.876755 564.807107 301.100741 547.771294 332.175046 563.125577 Z M 330.309517 587.18918 " transform="matrix(0.526518,0.849076,-0.849076,0.526518,497.365374,-411.412464)"/>
<path style="fill-rule:evenodd;fill:rgb(99.607843%,78.039216%,29.019608%);fill-opacity:1;stroke-width:1.25;stroke-linecap:butt;stroke-linejoin:miter;stroke:rgb(84.705882%,66.666667%,24.705882%);stroke-opacity:1;stroke-miterlimit:4;" d="M 330.310055 587.188059 C 315.721799 575.799999 288.545634 579.651991 284.068764 548.691719 C 304.875577 564.807099 301.100537 547.767853 332.174979 563.125553 Z M 330.310055 587.188059 " transform="matrix(0.13275,0.990198,-0.990198,0.13275,719.990108,-234.271715)"/>
<path style="fill-rule:evenodd;fill:rgb(99.607843%,78.039216%,29.019608%);fill-opacity:1;stroke-width:1.25;stroke-linecap:butt;stroke-linejoin:miter;stroke:rgb(84.705882%,66.666667%,24.705882%);stroke-opacity:1;stroke-miterlimit:4;" d="M 330.311784 587.189855 C 315.721474 575.799846 288.544182 579.651385 284.071716 548.69161 C 304.87773 564.80697 301.100631 547.767036 332.1761 563.125787 Z M 330.311784 587.189855 " transform="matrix(-0.187926,0.981217,-0.981217,-0.187926,834.793432,-41.044442)"/>
<path style="fill-rule:evenodd;fill:rgb(99.607843%,78.039216%,29.019608%);fill-opacity:1;stroke-width:1.25;stroke-linecap:butt;stroke-linejoin:miter;stroke:rgb(84.705882%,66.666667%,24.705882%);stroke-opacity:1;stroke-miterlimit:4;" d="M 330.309794 587.19017 C 315.718701 575.79973 288.547343 579.652766 284.069988 548.688228 C 304.878335 564.807458 301.100606 547.768757 332.177646 563.125578 Z M 330.309794 587.19017 " transform="matrix(-0.467632,0.882814,-0.882814,-0.467632,881.808128,162.869693)"/>
<path style="fill-rule:evenodd;fill:rgb(99.607843%,78.039216%,29.019608%);fill-opacity:1;stroke-width:1.25;stroke-linecap:butt;stroke-linejoin:miter;stroke:rgb(84.705882%,66.666667%,24.705882%);stroke-opacity:1;stroke-miterlimit:4;" d="M 330.30888 587.190577 C 315.718967 575.797938 288.547263 579.651708 284.06791 548.689396 C 304.878703 564.807762 301.098368 547.767941 332.17436 563.126116 Z M 330.30888 587.190577 " transform="matrix(-0.697231,0.715521,-0.715521,-0.697231,869.781112,364.259716)"/>
<path style="fill-rule:evenodd;fill:rgb(99.607843%,78.039216%,29.019608%);fill-opacity:1;stroke-width:1.25;stroke-linecap:butt;stroke-linejoin:miter;stroke:rgb(84.705882%,66.666667%,24.705882%);stroke-opacity:1;stroke-miterlimit:4;" d="M 368.350865 490.640289 L 353.004287 573.373223 L 375.913323 574.538372 Z M 368.350865 490.640289 " transform="matrix(0.203717,0.978093,-0.978093,0.203717,689.453985,-265.526334)"/>
<path style="fill-rule:evenodd;fill:rgb(99.607843%,78.039216%,29.019608%);fill-opacity:1;stroke-width:1.25;stroke-linecap:butt;stroke-linejoin:miter;stroke:rgb(84.705882%,66.666667%,24.705882%);stroke-opacity:1;stroke-miterlimit:4;" d="M 368.528331 489.850094 L 353.494234 571.985229 L 381.681166 573.885515 Z M 368.528331 489.850094 " transform="matrix(0.520098,0.852981,-0.852981,0.520098,498.404071,-405.320859)"/>
<path style="fill-rule:evenodd;fill:rgb(99.607843%,78.039216%,29.019608%);fill-opacity:1;stroke-width:1.25;stroke-linecap:butt;stroke-linejoin:miter;stroke:rgb(84.705882%,66.666667%,24.705882%);stroke-opacity:1;stroke-miterlimit:4;" d="M 380.099187 573.401743 L 368.348956 490.634712 L 353.486857 573.832341 Z M 380.099187 573.401743 " transform="matrix(0.798625,0.600203,-0.600203,0.798625,251.01462,-475.592989)"/>
<path style="fill-rule:evenodd;fill:rgb(99.607843%,78.039216%,29.019608%);fill-opacity:1;stroke-width:1.2539;stroke-linecap:butt;stroke-linejoin:miter;stroke:rgb(84.705882%,66.666667%,24.705882%);stroke-opacity:1;stroke-miterlimit:4;" d="M 381.858816 573.241652 L 368.348438 490.638461 L 352.941948 573.173597 Z M 381.858816 573.241652 " transform="matrix(0.948494,0.313882,-0.311945,0.942637,26.226586,-455.732795)"/>
<path style="fill-rule:evenodd;fill:rgb(99.607843%,78.039216%,29.019608%);fill-opacity:1;stroke-width:1.25;stroke-linecap:butt;stroke-linejoin:miter;stroke:rgb(84.705882%,66.666667%,24.705882%);stroke-opacity:1;stroke-miterlimit:4;" d="M 381.89058 573.399413 L 368.350011 490.634976 L 353.343165 573.763049 Z M 381.89058 573.399413 " transform="matrix(0.999023,0,0,0.999023,-176.77537,-375.058078)"/>
<path style="fill-rule:evenodd;fill:rgb(99.607843%,78.039216%,29.019608%);fill-opacity:1;stroke-width:1.2526;stroke-linecap:butt;stroke-linejoin:miter;stroke:rgb(84.705882%,66.666667%,24.705882%);stroke-opacity:1;stroke-miterlimit:4;" d="M 378.50766 569.670949 L 368.353118 490.636052 L 350.433444 574.189945 Z M 378.50766 569.670949 " transform="matrix(0.920848,-0.381584,0.377859,0.9228,-366.057157,-190.529305)"/>
<path style="fill-rule:evenodd;fill:rgb(99.607843%,78.039216%,29.019608%);fill-opacity:1;stroke-width:1.25;stroke-linecap:butt;stroke-linejoin:miter;stroke:rgb(84.705882%,66.666667%,24.705882%);stroke-opacity:1;stroke-miterlimit:4;" d="M 378.509308 569.670817 L 368.351607 490.637729 L 350.567841 574.126434 Z M 378.509308 569.670817 " transform="matrix(0.736592,-0.674934,0.674934,0.736592,-471.629357,26.04912)"/>
<path style="fill-rule:evenodd;fill:rgb(99.607843%,78.039216%,29.019608%);fill-opacity:1;stroke-width:1.25;stroke-linecap:butt;stroke-linejoin:miter;stroke:rgb(84.705882%,66.666667%,24.705882%);stroke-opacity:1;stroke-miterlimit:4;" d="M 368.350126 490.6414 L 348.737763 573.102978 L 378.511088 569.673233 Z M 368.350126 490.6414 " transform="matrix(0.440603,-0.896637,0.896637,0.440603,-492.77035,278.266559)"/>
<path style="fill-rule:evenodd;fill:rgb(99.607843%,78.039216%,29.019608%);fill-opacity:1;stroke-width:1.25;stroke-linecap:butt;stroke-linejoin:miter;stroke:rgb(84.705882%,66.666667%,24.705882%);stroke-opacity:1;stroke-miterlimit:4;" d="M 373.859062 567.249357 L 368.345759 490.639273 L 349.472329 569.027353 Z M 373.859062 567.249357 " transform="matrix(0.0857042,-0.995353,0.995353,0.0857042,-422.599747,519.158297)"/>
<path style="fill-rule:evenodd;fill:rgb(99.607843%,78.039216%,29.019608%);fill-opacity:1;stroke-width:1.187;stroke-linecap:butt;stroke-linejoin:miter;stroke:rgb(84.705882%,66.666667%,24.705882%);stroke-opacity:1;stroke-miterlimit:4;" d="M 429.768911 602.069319 C 429.768911 626.231624 410.180662 645.819873 386.018357 645.819873 C 361.856051 645.819873 342.267802 626.231624 342.267802 602.069319 C 342.267802 577.907013 361.856051 558.318764 386.018357 558.318764 C 410.180662 558.318764 429.768911 577.907013 429.768911 602.069319 Z M 429.768911 602.069319 " transform="matrix(1.05213,0,0,1.05213,-215.820996,-424.009591)"/>
<g clip-path="url(#clip2)" clip-rule="nonzero">
<path style=" stroke:none;fill-rule:evenodd;fill:rgb(0%,34.901961%,53.72549%);fill-opacity:1;" d="M -123.839844 227.542969 L 506.078125 227.542969 L 506.078125 383.996094 L -123.839844 383.996094 Z M -123.839844 227.542969 "/>
</g>
<g clip-path="url(#clip3)" clip-rule="nonzero">
<path style=" stroke:none;fill-rule:evenodd;fill:rgb(100%,100%,100%);fill-opacity:1;" d="M -124.203125 340.472656 C -112.488281 345.894531 -95.707031 359.460938 -77.761719 359.449219 C -47.730469 359.253906 -46.929688 338.882812 -16.511719 339.851562 C 13.988281 340.625 8.472656 362.074219 49.65625 361.96875 C 83.679688 361.878906 94.671875 335.96875 124.003906 339.074219 C 145.726562 337.957031 154.617188 363.609375 188.003906 363.933594 C 222.628906 364.671875 235.347656 335.976562 257.070312 338.351562 C 280.210938 338.351562 287.789062 361.464844 320.257812 361.632812 C 361.605469 361.839844 368.875 337.574219 394.746094 339.125 C 413.160156 338.738281 427.679688 356.910156 454.660156 357.363281 C 476.191406 357.730469 494.214844 341.453125 506.390625 335.632812 L 506.992188 308.015625 C 494.230469 312.761719 475.203125 328.320312 456.175781 328.488281 C 428.796875 329.492188 411.855469 310.53125 392.828125 310.703125 C 370.03125 310.90625 360.949219 334.164062 322.273438 334.164062 C 286.945312 334.164062 278.839844 310.703125 256.039062 310.703125 C 233.757812 310.875 226.929688 336.21875 188.351562 335.75 C 156.882812 335.371094 144.621094 311.554688 122.335938 311.726562 C 98.710938 311.726562 74.285156 334.886719 48.125 333.769531 C 12.019531 332.242188 4.21875 311.726562 -19.402344 311.726562 C -37.058594 311.726562 -56.113281 330.953125 -77.382812 331.273438 C -98.539062 331.597656 -122.300781 312.140625 -124.503906 311.726562 L -124.199219 340.472656 Z M -124.203125 340.472656 "/>
</g>
<g clip-path="url(#clip4)" clip-rule="nonzero">
<path style=" stroke:none;fill-rule:evenodd;fill:rgb(100%,100%,100%);fill-opacity:1;" d="M -124.203125 285.773438 C -112.488281 291.195312 -95.707031 304.761719 -77.761719 304.75 C -47.730469 304.554688 -46.929688 284.179688 -16.511719 285.152344 C 13.988281 285.925781 8.472656 307.375 49.65625 307.269531 C 83.679688 307.179688 94.671875 281.269531 124.003906 284.375 C 145.726562 283.257812 154.617188 308.910156 188.003906 309.234375 C 222.628906 309.972656 235.347656 281.273438 257.070312 283.652344 C 280.210938 283.652344 287.789062 306.765625 320.257812 306.933594 C 361.605469 307.140625 368.875 282.875 394.746094 284.425781 C 413.160156 284.039062 427.679688 302.210938 454.660156 302.664062 C 476.191406 303.03125 494.214844 286.753906 506.390625 280.933594 L 506.992188 253.316406 C 494.230469 258.0625 475.203125 273.621094 456.175781 273.789062 C 428.796875 274.792969 411.855469 255.832031 392.828125 256.003906 C 370.03125 256.207031 360.949219 279.464844 322.273438 279.464844 C 286.945312 279.464844 278.839844 256.003906 256.039062 256.003906 C 233.757812 256.171875 226.929688 281.519531 188.351562 281.050781 C 156.882812 280.671875 144.621094 256.855469 122.335938 257.027344 C 98.710938 257.027344 74.285156 280.1875 48.125 279.070312 C 12.019531 277.542969 4.21875 257.027344 -19.402344 257.027344 C -37.058594 257.027344 -56.113281 276.253906 -77.382812 276.574219 C -98.539062 276.898438 -122.300781 257.441406 -124.503906 257.027344 L -124.199219 285.773438 Z M -124.203125 285.773438 "/>
</g>
<g clip-path="url(#clip5)" clip-rule="nonzero">
<path style=" stroke:none;fill-rule:evenodd;fill:rgb(100%,100%,100%);fill-opacity:1;" d="M -124.203125 231.667969 C -112.5 237.085938 -95.734375 250.65625 -77.804688 250.644531 C -47.800781 250.449219 -47.003906 230.074219 -16.613281 231.042969 C 13.859375 231.820312 8.347656 253.269531 49.492188 253.160156 C 83.488281 253.074219 94.46875 227.164062 123.773438 230.269531 C 145.472656 229.148438 154.355469 254.800781 187.710938 255.128906 C 222.308594 255.867188 235.011719 227.167969 256.710938 229.546875 C 279.832031 229.546875 287.40625 252.660156 319.839844 252.828125 C 361.152344 253.035156 368.417969 228.769531 394.261719 230.320312 C 412.65625 229.933594 427.164062 248.105469 454.121094 248.558594 C 475.628906 248.925781 493.636719 232.648438 505.800781 226.828125 L 506.402344 199.210938 C 493.652344 203.953125 474.644531 219.515625 455.632812 219.683594 C 428.277344 220.6875 411.355469 201.726562 392.347656 201.898438 C 369.570312 202.101562 360.496094 225.359375 321.859375 225.359375 C 286.558594 225.359375 278.460938 201.898438 255.683594 201.898438 C 233.421875 202.066406 226.601562 227.414062 188.058594 226.945312 C 156.621094 226.566406 144.371094 202.75 122.105469 202.921875 C 98.503906 202.921875 74.097656 226.082031 47.964844 224.960938 C 11.894531 223.4375 4.101562 202.921875 -19.5 202.921875 C -37.140625 202.921875 -56.175781 222.144531 -77.429688 222.46875 C -98.5625 222.792969 -122.304688 203.335938 -124.503906 202.921875 Z M -124.203125 231.667969 "/>
</g>
<path style="fill-rule:evenodd;fill:rgb(100%,78.431373%,29.411765%);fill-opacity:1;stroke-width:1.25;stroke-linecap:butt;stroke-linejoin:miter;stroke:rgb(84.705882%,66.666667%,24.705882%);stroke-opacity:1;stroke-miterlimit:4;" d="M 279.650089 432.429685 C 325.480011 429.29381 317.124193 425.37983 335.5719 422.435548 C 358.817262 425.630075 361.476109 439.702414 374.426258 448.335847 C 374.426258 448.335847 369.558222 464.797239 353.6286 462.466837 C 351.485882 455.86273 361.339256 453.821674 332.987344 436.539168 C 316.502492 435.557741 287.004929 439.432619 279.650089 432.429685 Z M 279.650089 432.429685 " transform="matrix(0.999023,0,0,0.999023,-176.77537,-375.058078)"/>
<path style="fill-rule:evenodd;fill:rgb(100%,78.431373%,29.411765%);fill-opacity:1;stroke-width:1.25;stroke-linecap:butt;stroke-linejoin:miter;stroke:rgb(84.705882%,66.666667%,24.705882%);stroke-opacity:1;stroke-miterlimit:4;" d="M 385.691547 467.999112 L 418.704262 466.642318 L 418.704262 458.485913 C 396.436417 457.770371 392.420776 460.749843 385.691547 467.999112 Z M 385.691547 467.999112 " transform="matrix(-0.999023,0,0,-0.999023,629.865592,549.967761)"/>
<path style="fill-rule:evenodd;fill:rgb(100%,78.431373%,29.411765%);fill-opacity:1;stroke-width:1.25;stroke-linecap:butt;stroke-linejoin:round;stroke:rgb(84.705882%,66.666667%,24.705882%);stroke-opacity:1;stroke-miterlimit:4;" d="M 308.201415 456.539172 C 313.953127 453.5988 316.815297 454.799192 321.800636 454.603688 C 325.233677 460.816788 328.467304 461.399388 335.978547 462.177492 C 347.43505 478.298708 363.556266 478.490301 365.886667 478.490301 C 388.346105 477.907701 395.470251 462.177492 410.551388 460.429691 L 426.4771 460.429691 C 423.822163 455.897921 421.749827 453.309455 415.990295 453.051391 C 404.142785 452.402319 388.803583 452.726855 375.403776 455.768889 L 356.565062 460.429691 C 351.059684 457.774754 337.597316 443.663314 328.987343 443.921379 C 323.939444 445.282083 323.939444 447.029884 321.413539 448.973188 C 316.557233 451.045525 311.700927 450.052367 308.201415 456.539172 Z M 308.201415 456.539172 " transform="matrix(0.999023,0,0,0.999023,-176.77537,-375.058078)"/>
<path style="fill-rule:evenodd;fill:rgb(100%,78.431373%,29.411765%);fill-opacity:1;stroke-width:1.6303;stroke-linecap:butt;stroke-linejoin:miter;stroke:rgb(84.705882%,66.666667%,24.705882%);stroke-opacity:1;stroke-miterlimit:4;" d="M 330.537574 451.110089 C 330.537574 452.828609 329.150519 454.215664 327.431999 454.215664 C 325.718578 454.215664 324.326424 452.828609 324.326424 451.110089 C 324.326424 449.391568 325.718578 448.004514 327.431999 448.004514 C 329.150519 448.004514 330.537574 449.391568 330.537574 451.110089 Z M 330.537574 451.110089 " transform="matrix(0.766012,0,0,0.766012,-99.386995,-271.375837)"/>
<path style="fill-rule:evenodd;fill:rgb(100%,78.431373%,29.411765%);fill-opacity:1;stroke-width:1.25;stroke-linecap:butt;stroke-linejoin:miter;stroke:rgb(84.705882%,66.666667%,24.705882%);stroke-opacity:1;stroke-miterlimit:4;" d="M 346.269849 456.351489 C 379.998107 415.698499 409.452659 420.679927 447.841719 417.899868 C 449.135952 422.623231 448.682384 429.680906 430.363709 435.960478 C 405.311895 439.647673 360.447761 466.060191 360.252257 466.060191 C 351.900349 465.673094 346.074346 456.934089 346.269849 456.351489 Z M 346.269849 456.351489 " transform="matrix(0.999023,0,0,0.999023,-176.77537,-375.058078)"/>
<path style="fill:none;stroke-width:1.25;stroke-linecap:round;stroke-linejoin:miter;stroke:rgb(85.098039%,64.313725%,24.313725%);stroke-opacity:1;stroke-miterlimit:4;" d="M 415.560187 429.86077 L 440.432138 430.939949 " transform="matrix(0.999023,0,0,0.999023,-176.77537,-375.058078)"/>
<path style="fill:none;stroke-width:1.25;stroke-linecap:round;stroke-linejoin:miter;stroke:rgb(85.098039%,64.313725%,24.313725%);stroke-opacity:1;stroke-miterlimit:4;" d="M 412.858329 433.919422 L 430.98932 435.397428 " transform="matrix(0.999023,0,0,0.999023,-176.77537,-375.058078)"/>
</g>
</svg>
