<?xml version="1.0" encoding="UTF-8"?>
<svg xmlns="http://www.w3.org/2000/svg" xmlns:xlink="http://www.w3.org/1999/xlink" width="384pt" height="384pt" viewBox="0 0 384 384" version="1.1">
<g id="surface1">
<path style=" stroke:none;fill-rule:evenodd;fill:rgb(100%,91.372549%,0%);fill-opacity:1;" d="M -80.902344 0.179688 L 472.328125 0.179688 L 472.328125 383.648438 L -80.902344 383.648438 Z M -80.902344 0.179688 "/>
<path style=" stroke:none;fill-rule:evenodd;fill:rgb(20.784314%,63.137255%,0%);fill-opacity:1;" d="M -81.179688 0.179688 L -80.539062 276.621094 L 349.953125 0 Z M -81.179688 0.179688 "/>
<path style=" stroke:none;fill-rule:evenodd;fill:rgb(78.039216%,0%,0%);fill-opacity:1;" d="M 473 383.648438 L 472.019531 96.210938 L 37.773438 383.867188 Z M 473 383.648438 "/>
<path style=" stroke:none;fill-rule:evenodd;fill:rgb(0%,0%,0%);fill-opacity:1;" d="M -80.902344 297.460938 L -80.539062 384 L 13.398438 383.875 L 472.21875 76.269531 L 471.707031 1.03125 L 378.867188 0.179688 L -80.921875 297.460938 Z M -80.902344 297.460938 "/>
<path style=" stroke:none;fill-rule:evenodd;fill:rgb(100%,100%,100%);fill-opacity:1;" d="M 343.414062 138.855469 L 310.3125 137.699219 L 297.285156 168.699219 L 289.910156 137 L 256.804688 135.890625 L 285.34375 117.460938 L 277.910156 85.777344 L 302.925781 106.082031 L 331.4375 87.605469 L 318.359375 118.589844 Z M 343.414062 138.855469 "/>
<path style=" stroke:none;fill-rule:evenodd;fill:rgb(100%,100%,100%);fill-opacity:1;" d="M 136.972656 273.042969 L 103.871094 271.886719 L 90.84375 302.886719 L 83.46875 271.1875 L 50.363281 270.078125 L 78.90625 251.648438 L 71.472656 219.964844 L 96.488281 240.269531 L 124.996094 221.792969 L 111.917969 252.777344 Z M 136.972656 273.042969 "/>
</g>
</svg>
