<?xml version="1.0" encoding="UTF-8"?>
<svg xmlns="http://www.w3.org/2000/svg" xmlns:xlink="http://www.w3.org/1999/xlink" width="384pt" height="384pt" viewBox="0 0 384 384" version="1.1">
<g id="surface1">
<path style="fill-rule:evenodd;fill:rgb(100%,100%,100%);fill-opacity:1;stroke-width:0.996263;stroke-linecap:butt;stroke-linejoin:miter;stroke:rgb(0%,0%,0%);stroke-opacity:1;stroke-miterlimit:4;" d="M -991.808496 -492.880579 L -4.179178 -492.880579 L -4.179178 -8.381124 L -991.808496 -8.381124 Z M -991.808496 -492.880579 " transform="matrix(-0.646905,0,0,-0.79095,-59.65275,-6.19155)"/>
<path style=" stroke:none;fill-rule:evenodd;fill:rgb(24.313725%,33.72549%,59.607843%);fill-opacity:1;" d="M 581.953125 314.308594 L -56.949219 314.308594 L -56.949219 383.652344 L 581.953125 383.652344 Z M 581.953125 314.308594 "/>
<path style=" stroke:none;fill-rule:evenodd;fill:rgb(77.647059%,0%,0%);fill-opacity:1;" d="M 581.953125 298.246094 L -56.949219 298.246094 L -56.949219 85.835938 L 581.953125 85.835938 Z M 581.953125 298.246094 "/>
<path style=" stroke:none;fill-rule:evenodd;fill:rgb(24.313725%,33.72549%,59.607843%);fill-opacity:1;" d="M 581.953125 0.433594 L -56.949219 0.433594 L -56.949219 69.777344 L 581.953125 69.777344 Z M 581.953125 0.433594 "/>
<path style=" stroke:none;fill-rule:evenodd;fill:rgb(100%,100%,100%);fill-opacity:1;" d="M 246.390625 192.058594 C 246.390625 239.648438 206.558594 278.222656 157.425781 278.222656 C 108.292969 278.222656 68.460938 239.644531 68.460938 192.058594 C 68.460938 144.46875 108.292969 105.890625 157.425781 105.890625 C 206.558594 105.890625 246.390625 144.46875 246.390625 192.058594 Z M 246.390625 192.058594 "/>
<path style=" stroke:none;fill-rule:evenodd;fill:rgb(76.862745%,0%,0%);fill-opacity:1;" d="M 200.957031 252.25 L 158.210938 221.726562 L 114.78125 252.675781 L 131.847656 202.929688 L 89.054688 172.464844 L 142.34375 172.25 L 159.320312 122.472656 L 175.191406 172.085938 L 228.480469 171.777344 L 185 202.664062 Z M 200.957031 252.25 "/>
</g>
</svg>
