<?xml version="1.0" encoding="UTF-8"?>
<svg xmlns="http://www.w3.org/2000/svg" xmlns:xlink="http://www.w3.org/1999/xlink" width="384pt" height="384pt" viewBox="0 0 384 384" version="1.1">
<g id="surface1">
<path style=" stroke:none;fill-rule:evenodd;fill:rgb(100%,100%,100%);fill-opacity:1;" d="M 457.957031 383.671875 L -89.671875 383.671875 L -89.671875 -0.328125 L 457.957031 -0.328125 Z M 457.957031 383.671875 "/>
<path style=" stroke:none;fill-rule:evenodd;fill:rgb(100%,100%,100%);fill-opacity:1;" d="M 188.902344 192.015625 C 188.902344 238.617188 151.125 276.394531 104.523438 276.394531 C 57.921875 276.394531 20.140625 238.617188 20.140625 192.015625 C 20.140625 145.414062 57.921875 107.636719 104.523438 107.636719 C 151.125 107.636719 188.902344 145.414062 188.902344 192.015625 Z M 188.902344 192.015625 "/>
<path style=" stroke:none;fill-rule:evenodd;fill:rgb(78.039216%,0%,0%);fill-opacity:1;" d="M 294.757812 196.914062 C 294.757812 257.71875 245.980469 307.015625 185.8125 307.015625 C 125.644531 307.015625 76.867188 257.71875 76.867188 196.914062 C 76.867188 136.105469 125.644531 86.808594 185.8125 86.808594 C 245.980469 86.808594 294.757812 136.105469 294.757812 196.914062 Z M 294.757812 196.914062 "/>
<path style=" stroke:none;fill-rule:evenodd;fill:rgb(0%,0%,0%);fill-opacity:1;" d="M -37.0625 94.832031 L 25.683594 22.253906 L 40.546875 35.105469 L -22.195312 107.683594 Z M -37.0625 94.832031 "/>
<path style=" stroke:none;fill-rule:evenodd;fill:rgb(0%,0%,0%);fill-opacity:1;" d="M -16.511719 112.59375 L 46.230469 40.015625 L 61.097656 52.867188 L -1.648438 125.445312 Z M -16.511719 112.59375 "/>
<path style=" stroke:none;fill-rule:evenodd;fill:rgb(0%,0%,0%);fill-opacity:1;" d="M -37.0625 94.832031 L 25.683594 22.253906 L 40.546875 35.105469 L -22.195312 107.683594 Z M -37.0625 94.832031 "/>
<path style=" stroke:none;fill-rule:evenodd;fill:rgb(0%,0%,0%);fill-opacity:1;" d="M -37.0625 94.832031 L 25.683594 22.253906 L 40.546875 35.105469 L -22.195312 107.683594 Z M -37.0625 94.832031 "/>
<path style=" stroke:none;fill-rule:evenodd;fill:rgb(0%,0%,0%);fill-opacity:1;" d="M 4.476562 130.742188 L 67.21875 58.164062 L 82.085938 71.015625 L 19.339844 143.59375 Z M 4.476562 130.742188 "/>
<path style=" stroke:none;fill-rule:evenodd;fill:rgb(0%,0%,0%);fill-opacity:1;" d="M -37.0625 94.832031 L 25.683594 22.253906 L 40.546875 35.105469 L -22.195312 107.683594 Z M -37.0625 94.832031 "/>
<path style=" stroke:none;fill-rule:evenodd;fill:rgb(0%,0%,0%);fill-opacity:1;" d="M -37.0625 94.832031 L 25.683594 22.253906 L 40.546875 35.105469 L -22.195312 107.683594 Z M -37.0625 94.832031 "/>
<path style=" stroke:none;fill-rule:evenodd;fill:rgb(0%,0%,0%);fill-opacity:1;" d="M 344.558594 22.230469 L 406.8125 95.230469 L 391.859375 107.980469 L 329.605469 34.980469 Z M 344.558594 22.230469 "/>
<path style=" stroke:none;fill-rule:evenodd;fill:rgb(0%,0%,0%);fill-opacity:1;" d="M 302.78125 57.855469 L 365.03125 130.855469 L 350.078125 143.605469 L 287.828125 70.605469 Z M 302.78125 57.855469 "/>
<path style=" stroke:none;fill-rule:evenodd;fill:rgb(100%,100%,100%);fill-opacity:1;" d="M 313.164062 99.890625 L 372.113281 49.03125 L 383.09375 61.746094 L 320.097656 118.386719 Z M 313.164062 99.890625 "/>
<path style=" stroke:none;fill-rule:evenodd;fill:rgb(0%,0%,0%);fill-opacity:1;" d="M 385.671875 279.007812 L 325.359375 350.882812 L 310.570312 338.582031 L 370.886719 266.710938 Z M 385.671875 279.007812 "/>
<path style=" stroke:none;fill-rule:evenodd;fill:rgb(0%,0%,0%);fill-opacity:1;" d="M 323.890625 39.855469 L 386.140625 112.855469 L 371.1875 125.605469 L 308.9375 52.605469 Z M 323.890625 39.855469 "/>
<path style=" stroke:none;fill-rule:evenodd;fill:rgb(0%,0%,0%);fill-opacity:1;" d="M 406.105469 296.007812 L 345.792969 367.878906 L 331.007812 355.578125 L 391.320312 283.707031 Z M 406.105469 296.007812 "/>
<path style=" stroke:none;fill-rule:evenodd;fill:rgb(0%,0%,0%);fill-opacity:1;" d="M 364.792969 261.644531 L 304.480469 333.515625 L 289.691406 321.214844 L 350.003906 249.34375 Z M 364.792969 261.644531 "/>
<path style=" stroke:none;fill-rule:evenodd;fill:rgb(23.921569%,34.509804%,59.215686%);fill-opacity:1;" d="M 78.449219 177.511719 C 81.894531 205.242188 86.921875 236.140625 129.597656 239.351562 C 145.59375 240.308594 176.710938 235.546875 187.394531 191.957031 C 201.410156 150.085938 243.625 138.046875 272.355469 160.75 C 288.644531 171.375 293.148438 188.25 294.316406 200.917969 C 293.011719 241.597656 269.660156 276.816406 239.699219 292.523438 C 205.253906 312.996094 157.53125 313.425781 115.726562 282.402344 C 96.886719 264.726562 70.5625 232.140625 78.449219 177.507812 Z M 78.449219 177.511719 "/>
<path style=" stroke:none;fill-rule:evenodd;fill:rgb(100%,100%,100%);fill-opacity:1;" d="M 326.933594 277.941406 L 385.984375 328.6875 L 375.039062 341.4375 L 309.671875 287.546875 Z M 326.933594 277.941406 "/>
<path style=" stroke:none;fill-rule:evenodd;fill:rgb(0%,0%,0%);fill-opacity:1;" d="M -1.414062 267.898438 L 60.835938 340.898438 L 45.882812 353.648438 L -16.367188 280.648438 Z M -1.414062 267.898438 "/>
<path style=" stroke:none;fill-rule:evenodd;fill:rgb(100%,100%,100%);fill-opacity:1;" d="M -12.140625 327.9375 L 46.808594 277.078125 L 57.792969 289.792969 L -5.207031 346.429688 Z M -12.140625 327.9375 "/>
<path style=" stroke:none;fill-rule:evenodd;fill:rgb(0%,0%,0%);fill-opacity:1;" d="M 19.253906 250.273438 L 81.507812 323.273438 L 66.554688 336.023438 L 4.300781 263.023438 Z M 19.253906 250.273438 "/>
<path style=" stroke:none;fill-rule:evenodd;fill:rgb(0%,0%,0%);fill-opacity:1;" d="M -22.523438 285.898438 L 39.726562 358.898438 L 24.773438 371.648438 L -37.476562 298.648438 Z M -22.523438 285.898438 "/>
</g>
</svg>
