<?xml version="1.0" encoding="UTF-8"?>
<svg xmlns="http://www.w3.org/2000/svg" xmlns:xlink="http://www.w3.org/1999/xlink" width="384pt" height="384pt" viewBox="0 0 384 384" version="1.1">
<g id="surface1">
<rect x="0" y="0" width="384" height="384" style="fill:rgb(0%,0%,40%);fill-opacity:1;stroke:none;"/>
<path style=" stroke:none;fill-rule:evenodd;fill:rgb(0%,0%,40%);fill-opacity:1;" d="M 0 0 L 384 0 L 384 192 L 0 192 Z M 0 0 "/>
<path style=" stroke:none;fill-rule:nonzero;fill:rgb(100%,100%,100%);fill-opacity:1;" d="M 0 0 L 0 21.464844 L 341.066406 192 L 384 192 L 384 170.535156 L 42.929688 0 Z M 384 0 L 384 21.464844 L 42.929688 192 L 0 192 L 0 170.535156 L 341.066406 0 Z M 384 0 "/>
<path style=" stroke:none;fill-rule:nonzero;fill:rgb(100%,100%,100%);fill-opacity:1;" d="M 160 0 L 160 192 L 224 192 L 224 0 Z M 0 64 L 0 128 L 384 128 L 384 64 Z M 0 64 "/>
<path style=" stroke:none;fill-rule:nonzero;fill:rgb(80%,0%,0%);fill-opacity:1;" d="M 0 76.800781 L 0 115.199219 L 384 115.199219 L 384 76.800781 Z M 172.800781 0 L 172.800781 192 L 211.199219 192 L 211.199219 0 Z M 172.800781 0 "/>
<path style=" stroke:none;fill-rule:nonzero;fill:rgb(80%,0%,0%);fill-opacity:1;" d="M 0 192 L 128 128 L 156.621094 128 L 28.621094 192 Z M 0 0 L 128 64 L 99.378906 64 L 0 14.3125 Z M 227.378906 64 L 355.378906 0 L 384 0 L 256 64 Z M 384 192 L 256 128 L 284.621094 128 L 384 177.6875 Z M 384 192 "/>
<path style=" stroke:none;fill-rule:evenodd;fill:rgb(100%,100%,100%);fill-opacity:1;" d="M 230.933594 139.429688 C 230.082031 139.945312 228.382812 141.484375 226.683594 140.972656 C 224.984375 140.457031 221.160156 133.78125 216.910156 134.808594 C 212.660156 135.835938 210.109375 137.375 208.410156 137.375 C 206.710938 137.375 202.035156 138.917969 202.035156 143.023438 C 202.035156 147.132812 202.460938 150.214844 203.3125 150.214844 C 204.160156 150.214844 205.433594 147.648438 205.433594 147.648438 C 205.433594 147.648438 205.859375 152.785156 208.835938 152.785156 C 211.808594 152.785156 218.183594 153.296875 218.609375 154.839844 C 219.035156 156.378906 215.632812 159.976562 216.484375 163.058594 C 217.335938 166.140625 221.160156 171.277344 221.160156 171.277344 C 221.160156 171.277344 215.632812 175.386719 215.632812 177.953125 C 215.632812 180.519531 216.484375 183.089844 216.484375 183.089844 L 191.835938 184.117188 C 191.835938 184.117188 190.136719 257.054688 190.988281 262.707031 C 191.835938 268.351562 193.960938 282.222656 193.960938 282.222656 C 193.960938 282.222656 188.4375 280.425781 183.761719 285.050781 C 179.089844 289.671875 162.726562 297.632812 162.304688 301.226562 C 161.878906 304.820312 160.390625 307.90625 162.089844 310.472656 C 163.789062 313.039062 169.769531 320.019531 168.039062 319.71875 C 162.335938 318.734375 160.210938 310.628906 156.355469 307.648438 C 152.5625 304.722656 145.09375 305.339844 144.242188 308.417969 C 143.394531 311.5 143.816406 316.636719 144.242188 317.664062 C 144.667969 318.691406 149.34375 335.128906 150.617188 338.722656 C 151.890625 342.320312 165.277344 347.710938 171.226562 347.199219 C 182.488281 347.453125 187.585938 342.320312 188.011719 342.835938 C 188.4375 343.347656 212.238281 367.890625 261.105469 368 C 299.140625 368.085938 327.820312 343.347656 327.820312 343.863281 C 327.820312 344.375 343.542969 348.996094 349.066406 347.457031 C 354.59375 345.914062 362.667969 342.320312 364.367188 338.722656 C 366.066406 335.128906 370.742188 316.636719 371.164062 313.558594 C 371.589844 310.472656 371.164062 306.878906 367.339844 305.851562 C 363.515625 304.824219 361.390625 305.078125 359.265625 306.105469 C 357.144531 307.136719 356.503906 309.960938 353.316406 315.097656 C 351.617188 316.640625 347.15625 320.746094 348.429688 319.71875 C 349.707031 318.691406 352.46875 310.988281 352.894531 308.417969 C 353.316406 305.851562 354.59375 301.226562 351.617188 298.660156 C 348.644531 296.09375 344.085938 295.042969 338.871094 291.214844 C 333.914062 287.816406 329.945312 282.222656 326.972656 282.222656 C 323.996094 282.222656 320.597656 280.683594 321.023438 280.683594 C 321.445312 280.683594 324.851562 273.222656 324.003906 265.519531 C 323.152344 257.8125 324.421875 184.117188 323.996094 184.117188 C 323.570312 184.117188 302.75 185.660156 302.75 184.632812 C 302.75 183.605469 304.449219 176.414062 302.75 171.792969 C 301.050781 167.167969 293.824219 164.085938 295.949219 163.058594 C 298.074219 162.03125 307.421875 159.464844 307 155.355469 C 306.574219 151.246094 300.625 151.757812 298.074219 150.21875 C 295.523438 148.675781 287.875 141.488281 287.027344 141.488281 C 286.175781 141.488281 309.121094 127.617188 307.421875 127.617188 C 305.722656 127.617188 296.800781 125.050781 293.824219 126.589844 C 293.824219 124.023438 306.148438 116.316406 304.023438 115.289062 C 301.898438 114.261719 292.125 113.234375 294.675781 112.722656 C 297.222656 112.207031 298.074219 106.046875 297.648438 106.046875 C 297.222656 106.046875 286.601562 107.585938 286.601562 107.585938 C 286.601562 107.585938 284.050781 103.992188 283.199219 103.992188 C 282.351562 103.992188 278.527344 106.046875 278.527344 106.046875 L 276.402344 100.394531 L 271.726562 103.476562 L 269.601562 100.910156 C 269.601562 100.910156 265.777344 101.9375 265.777344 100.910156 C 265.9375 100.871094 265.335938 98.328125 264.738281 98.328125 C 264.136719 98.328125 259.929688 101.597656 259.777344 101.417969 C 259.628906 101.234375 254.972656 94.699219 254.972656 94.878906 C 254.972656 95.0625 251.664062 107.226562 251.515625 107.226562 C 251.367188 107.226562 248.210938 107.589844 248.058594 107.773438 C 247.910156 107.953125 231.234375 98.148438 231.382812 98.328125 C 231.535156 98.511719 235.742188 107.773438 235.742188 107.773438 C 235.742188 107.773438 232.132812 109.769531 232.132812 109.953125 C 232.132812 110.132812 232.734375 114.128906 232.734375 114.128906 L 221.617188 110.3125 C 221.617188 110.3125 225.824219 118.847656 225.523438 118.847656 C 225.222656 118.847656 217.257812 119.210938 217.410156 119.210938 C 217.558594 119.210938 221.164062 126.296875 221.164062 126.296875 L 219.8125 130.472656 C 219.8125 130.472656 231.78125 138.917969 230.929688 139.429688 Z M 301.898438 318.179688 C 302.960938 319.71875 308.699219 326.910156 307.847656 326.910156 C 307 326.910156 292.761719 336.410156 287.027344 338.210938 C 281.289062 340.007812 262.589844 343.34375 263.652344 343.089844 C 264.714844 342.832031 280.445312 334.222656 286.816406 330.113281 C 293.191406 326.007812 301.898438 318.691406 301.898438 318.179688 Z M 213.082031 317.917969 C 212.230469 318.945312 208.195312 326.90625 208.195312 326.90625 C 208.195312 326.90625 219.878906 335.125 228.59375 338.210938 C 237.304688 341.289062 252.175781 342.316406 251.328125 342.0625 C 250.476562 341.804688 232.628906 333.84375 227.527344 329.734375 C 222.429688 325.625 213.292969 317.917969 213.082031 317.917969 Z M 213.082031 317.917969 "/>
<path style="fill-rule:evenodd;fill:rgb(99.607843%,77.254902%,0%);fill-opacity:1;stroke-width:1.25;stroke-linecap:butt;stroke-linejoin:miter;stroke:rgb(42.745098%,40%,40%);stroke-opacity:1;stroke-miterlimit:4;" d="M 394.656665 -212.971572 C 394.656665 -212.971572 423.421245 -195.701473 430.011554 -191.599668 C 436.586747 -187.485358 457.959903 -169.389896 459.60748 -170.215259 C 461.239942 -171.040622 472.757866 -180.082101 472.757866 -180.082101 C 472.757866 -180.082101 448.920902 -198.99042 434.107824 -203.104731 C 419.30986 -207.219041 394.656665 -211.320846 394.656665 -212.971572 Z M 394.656665 -212.971572 " transform="matrix(0.258429,0,0,0.312363,120.42735,194.243083)"/>
<path style="fill-rule:evenodd;fill:rgb(99.607843%,77.254902%,0%);fill-opacity:1;stroke-width:1.25;stroke-linecap:butt;stroke-linejoin:miter;stroke:rgb(42.745098%,40%,40%);stroke-opacity:1;stroke-miterlimit:4;" d="M 390.54528 -231.879892 C 393.009088 -231.879892 438.234324 -208.857262 452.200941 -197.352199 C 466.182673 -185.834632 471.941635 -171.040622 473.574097 -171.040622 C 475.221674 -171.040622 496.59483 -174.32957 495.7786 -174.32957 C 494.962369 -174.32957 485.908252 -203.930094 465.366442 -212.971572 C 444.809517 -222.01305 391.361511 -231.879892 390.54528 -231.879892 Z M 390.54528 -231.879892 " transform="matrix(0.258429,0,0,0.312363,120.42735,194.243083)"/>
<path style="fill-rule:evenodd;fill:rgb(99.607843%,77.254902%,0%);fill-opacity:1;stroke-width:1.25;stroke-linecap:butt;stroke-linejoin:miter;stroke:rgb(42.745098%,40%,40%);stroke-opacity:1;stroke-miterlimit:4;" d="M 603.475727 -296.006961 C 602.659496 -296.006961 594.436726 -271.34611 591.972918 -263.942853 C 589.50911 -256.539595 585.397725 -240.920223 585.397725 -240.920223 C 585.397725 -240.920223 549.21149 -237.631276 550.859067 -241.745586 C 552.506644 -245.859896 605.939535 -296.006961 603.475727 -296.006961 Z M 603.475727 -296.006961 " transform="matrix(0.258429,0,0,0.312363,120.42735,195.69585)"/>
<path style="fill-rule:evenodd;fill:rgb(99.607843%,77.254902%,0%);fill-opacity:1;stroke-width:1.25;stroke-linecap:butt;stroke-linejoin:miter;stroke:rgb(42.745098%,40%,40%);stroke-opacity:1;stroke-miterlimit:4;" d="M 398.752935 -261.480416 C 398.752935 -261.480416 441.514363 -232.705255 456.312326 -216.260519 C 471.110289 -199.815783 485.908252 -171.040622 486.739599 -171.040622 C 487.555829 -171.040622 527.022103 -179.256737 527.022103 -178.44388 C 527.022103 -177.618517 480.980636 -224.476634 458.776134 -238.457786 C 436.586747 -252.438938 399.584281 -259.842195 398.752935 -261.480416 Z M 398.752935 -261.480416 " transform="matrix(0.258429,0,0,0.312363,120.42735,194.243083)"/>
<path style="fill-rule:evenodd;fill:rgb(99.607843%,77.254902%,0%);fill-opacity:1;stroke-width:1.25;stroke-linecap:butt;stroke-linejoin:miter;stroke:rgb(42.745098%,40%,40%);stroke-opacity:1;stroke-miterlimit:4;" d="M 443.16194 -273.809694 C 443.16194 -273.809694 464.535096 -240.920223 468.646481 -229.415161 C 472.757866 -217.897593 485.092021 -188.297069 485.092021 -188.297069 L 518.799333 -188.297069 C 518.799333 -188.297069 502.353793 -225.30085 484.275791 -243.383807 C 466.182673 -261.479269 443.978171 -272.158968 443.16194 -273.809694 Z M 443.16194 -273.809694 " transform="matrix(0.258429,0,0,0.312363,120.42735,195.69585)"/>
<path style="fill-rule:evenodd;fill:rgb(99.607843%,77.254902%,0%);fill-opacity:1;stroke-width:1.25;stroke-linecap:butt;stroke-linejoin:miter;stroke:rgb(42.745098%,40%,40%);stroke-opacity:1;stroke-miterlimit:4;" d="M 454.664749 -291.905156 C 455.48098 -289.429067 485.908252 -260.653906 493.299676 -241.745586 C 500.706216 -222.837266 506.465178 -198.989273 506.465178 -198.989273 L 536.061104 -206.392531 C 536.061104 -206.392531 509.745217 -254.901375 493.299676 -268.057163 C 476.854136 -281.212952 456.312326 -290.25443 454.664749 -291.905156 Z M 454.664749 -291.905156 " transform="matrix(0.258429,0,0,0.312363,120.42735,195.69585)"/>
<path style="fill-rule:evenodd;fill:rgb(99.607843%,77.254902%,0%);fill-opacity:1;stroke-width:1.25;stroke-linecap:butt;stroke-linejoin:miter;stroke:rgb(42.745098%,40%,40%);stroke-opacity:1;stroke-miterlimit:4;" d="M 700.501391 -209.682625 C 700.501391 -209.682625 638.830615 -203.104731 616.641228 -197.352199 C 594.436726 -191.587163 582.102571 -170.215259 582.102571 -170.215259 C 582.102571 -170.215259 610.882266 -159.523055 612.529843 -161.173781 C 614.17742 -162.812002 631.439191 -180.082101 650.34854 -186.659995 C 669.257888 -193.237889 702.148968 -208.857262 700.501391 -209.682625 Z M 700.501391 -209.682625 " transform="matrix(0.258429,0,0,0.312363,120.42735,194.243083)"/>
<path style="fill-rule:evenodd;fill:rgb(99.607843%,77.254902%,0%);fill-opacity:1;stroke-width:1.25;stroke-linecap:butt;stroke-linejoin:miter;stroke:rgb(42.745098%,40%,40%);stroke-opacity:1;stroke-miterlimit:4;" d="M 698.022468 -249.975354 C 696.390006 -249.14999 647.053385 -208.857262 631.439191 -195.701473 C 615.809882 -182.545685 601.011919 -168.577038 599.364342 -167.751675 C 597.716765 -166.926312 567.304607 -171.865986 568.952185 -173.504206 C 570.584646 -175.154933 614.162305 -210.507988 642.942 -226.12736 C 671.721696 -241.746733 695.55866 -248.324627 698.022468 -249.975354 Z M 698.022468 -249.975354 " transform="matrix(0.258429,0,0,0.312363,120.42735,194.243083)"/>
<path style="fill-rule:evenodd;fill:rgb(99.607843%,77.254902%,0%);fill-opacity:1;stroke-width:1.25;stroke-linecap:butt;stroke-linejoin:miter;stroke:rgb(42.745098%,40%,40%);stroke-opacity:1;stroke-miterlimit:4;" d="M 685.703428 -278.750515 C 680.760697 -272.997983 632.255422 -233.530618 619.105036 -219.549466 C 605.95465 -205.58082 584.566379 -180.907464 584.566379 -180.907464 C 584.566379 -180.907464 559.081837 -192.425032 560.729414 -197.352199 C 562.376992 -202.291873 596.900534 -231.067034 621.568844 -247.51177 C 646.237155 -263.956505 688.167236 -277.099788 685.703428 -278.750515 Z M 685.703428 -278.750515 " transform="matrix(0.258429,0,0,0.312363,120.42735,194.243083)"/>
<path style="fill-rule:evenodd;fill:rgb(99.607843%,77.254902%,0%);fill-opacity:1;stroke-width:1.25;stroke-linecap:butt;stroke-linejoin:miter;stroke:rgb(42.745098%,40%,40%);stroke-opacity:1;stroke-miterlimit:4;" d="M 636.366807 -282.039462 C 635.550577 -281.214099 606.770881 -250.800717 601.011919 -242.572096 C 595.268072 -234.355981 577.991186 -198.177563 577.991186 -198.177563 C 577.991186 -198.177563 552.506644 -220.374829 552.506644 -221.200193 C 552.506644 -222.025556 584.566379 -255.727885 603.475727 -268.883673 C 622.40019 -282.039462 637.198154 -279.575878 636.366807 -282.039462 Z M 636.366807 -282.039462 " transform="matrix(0.258429,0,0,0.312363,120.42735,194.243083)"/>
<path style="fill-rule:evenodd;fill:rgb(99.607843%,77.254902%,0%);fill-opacity:1;stroke-width:1.25;stroke-linecap:butt;stroke-linejoin:miter;stroke:rgb(42.745098%,40%,40%);stroke-opacity:1;stroke-miterlimit:4;" d="M 565.082646 -241.770597 C 565.082646 -235.993055 560.411991 -231.303492 554.622798 -231.303492 C 548.848721 -231.303492 544.162951 -235.993055 544.162951 -241.770597 C 544.162951 -247.548139 548.848721 -252.237703 554.622798 -252.237703 C 560.411991 -252.237703 565.082646 -247.548139 565.082646 -241.770597 Z M 565.082646 -241.770597 " transform="matrix(0.258429,0,0,0.312363,120.42735,195.69585)"/>
<path style="fill-rule:evenodd;fill:rgb(99.607843%,77.254902%,0%);fill-opacity:1;stroke-width:1.25;stroke-linecap:butt;stroke-linejoin:miter;stroke:rgb(42.745098%,40%,40%);stroke-opacity:1;stroke-miterlimit:4;" d="M 586.017456 -227.814456 C 586.017456 -222.674695 581.331686 -218.510363 575.557608 -218.510363 C 569.768415 -218.510363 565.082646 -222.674695 565.082646 -227.814456 C 565.082646 -232.941712 569.768415 -237.106045 575.557608 -237.106045 C 581.331686 -237.106045 586.017456 -232.941712 586.017456 -227.814456 Z M 586.017456 -227.814456 " transform="matrix(0.258429,0,0,0.312363,120.42735,195.69585)"/>
<path style="fill-rule:evenodd;fill:rgb(99.607843%,77.254902%,0%);fill-opacity:1;stroke-width:1.25;stroke-linecap:butt;stroke-linejoin:miter;stroke:rgb(42.745098%,40%,40%);stroke-opacity:1;stroke-miterlimit:4;" d="M 539.507412 -238.281562 C 539.507412 -233.1418 533.778681 -228.977468 526.719795 -228.977468 C 519.66091 -228.977468 513.932179 -233.1418 513.932179 -238.281562 C 513.932179 -243.421323 519.66091 -247.585656 526.719795 -247.585656 C 533.778681 -247.585656 539.507412 -243.421323 539.507412 -238.281562 Z M 539.507412 -238.281562 " transform="matrix(0.258429,0,0,0.312363,120.42735,195.69585)"/>
<path style="fill-rule:evenodd;fill:rgb(99.607843%,77.254902%,0%);fill-opacity:1;stroke-width:1.25;stroke-linecap:butt;stroke-linejoin:miter;stroke:rgb(42.745098%,40%,40%);stroke-opacity:1;stroke-miterlimit:4;" d="M 573.229839 -219.085616 C 573.229839 -209.131236 566.730223 -201.065187 558.688837 -201.065187 C 550.662567 -201.065187 544.162951 -209.131236 544.162951 -219.085616 C 544.162951 -229.039996 550.662567 -237.106045 558.688837 -237.106045 C 566.730223 -237.106045 573.229839 -229.039996 573.229839 -219.085616 Z M 573.229839 -219.085616 " transform="matrix(0.258429,0,0,0.312363,120.42735,195.69585)"/>
<path style="fill-rule:evenodd;fill:rgb(99.607843%,77.254902%,0%);fill-opacity:1;stroke-width:1.25;stroke-linecap:butt;stroke-linejoin:miter;stroke:rgb(42.745098%,40%,40%);stroke-opacity:1;stroke-miterlimit:4;" d="M 533.703104 -218.510363 C 533.703104 -210.806973 527.188372 -204.554222 519.162102 -204.554222 C 511.135832 -204.554222 504.636216 -210.806973 504.636216 -218.510363 C 504.636216 -226.213752 511.135832 -232.466503 519.162102 -232.466503 C 527.188372 -232.466503 533.703104 -226.213752 533.703104 -218.510363 Z M 533.703104 -218.510363 " transform="matrix(0.258429,0,0,0.312363,120.42735,195.69585)"/>
<path style="fill-rule:evenodd;fill:rgb(99.607843%,77.254902%,0%);fill-opacity:1;stroke-width:1.25;stroke-linecap:butt;stroke-linejoin:miter;stroke:rgb(42.745098%,40%,40%);stroke-opacity:1;stroke-miterlimit:4;" d="M 513.932179 -207.455498 C 513.932179 -200.715033 508.989447 -195.250128 502.882831 -195.250128 C 496.776215 -195.250128 491.833484 -200.715033 491.833484 -207.455498 C 491.833484 -214.20847 496.776215 -219.673374 502.882831 -219.673374 C 508.989447 -219.673374 513.932179 -214.20847 513.932179 -207.455498 Z M 513.932179 -207.455498 " transform="matrix(0.258429,0,0,0.312363,120.42735,195.69585)"/>
<path style="fill-rule:evenodd;fill:rgb(99.607843%,77.254902%,0%);fill-opacity:1;stroke-width:1.25;stroke-linecap:butt;stroke-linejoin:miter;stroke:rgb(42.745098%,40%,40%);stroke-opacity:1;stroke-miterlimit:4;" d="M 595.313418 -208.631016 C 595.313418 -200.602483 587.77084 -194.099622 578.459763 -194.099622 C 569.148685 -194.099622 561.606107 -200.602483 561.606107 -208.631016 C 561.606107 -216.659548 569.148685 -223.16241 578.459763 -223.16241 C 587.77084 -223.16241 595.313418 -216.659548 595.313418 -208.631016 Z M 595.313418 -208.631016 " transform="matrix(0.258429,0,0,0.312363,120.42735,195.69585)"/>
<path style="fill-rule:evenodd;fill:rgb(99.607843%,77.254902%,0%);fill-opacity:1;stroke-width:1.25;stroke-linecap:butt;stroke-linejoin:miter;stroke:rgb(42.745098%,40%,40%);stroke-opacity:1;stroke-miterlimit:4;" d="M 554.622798 -229.565227 C 554.622798 -224.738103 548.637105 -220.836386 541.260797 -220.836386 C 533.869373 -220.836386 527.88368 -224.738103 527.88368 -229.565227 C 527.88368 -234.379845 533.869373 -238.281562 541.260797 -238.281562 C 548.637105 -238.281562 554.622798 -234.379845 554.622798 -229.565227 Z M 554.622798 -229.565227 " transform="matrix(0.258429,0,0,0.312363,120.42735,195.69585)"/>
<path style="fill-rule:evenodd;fill:rgb(99.607843%,77.254902%,0%);fill-opacity:1;stroke-width:1.25;stroke-linecap:butt;stroke-linejoin:miter;stroke:rgb(42.745098%,40%,40%);stroke-opacity:1;stroke-miterlimit:4;" d="M 556.950568 -210.369281 C 556.950568 -203.303672 548.62199 -197.576152 538.343527 -197.576152 C 528.065065 -197.576152 519.736487 -203.303672 519.736487 -210.369281 C 519.736487 -217.434889 528.065065 -223.16241 538.343527 -223.16241 C 548.62199 -223.16241 556.950568 -217.434889 556.950568 -210.369281 Z M 556.950568 -210.369281 " transform="matrix(0.258429,0,0,0.312363,120.42735,195.69585)"/>
<path style="fill-rule:evenodd;fill:rgb(99.607843%,77.254902%,0%);fill-opacity:1;stroke-width:1.25;stroke-linecap:butt;stroke-linejoin:miter;stroke:rgb(42.745098%,40%,40%);stroke-opacity:1;stroke-miterlimit:4;" d="M 604.624496 -187.696805 C 604.624496 -179.030492 596.809841 -172.002399 587.18134 -172.002399 C 577.552839 -172.002399 569.738185 -179.030492 569.738185 -187.696805 C 569.738185 -196.363118 577.552839 -203.39121 587.18134 -203.39121 C 596.809841 -203.39121 604.624496 -196.363118 604.624496 -187.696805 Z M 604.624496 -187.696805 " transform="matrix(0.258429,0,0,0.312363,120.42735,195.69585)"/>
<path style="fill-rule:evenodd;fill:rgb(99.607843%,77.254902%,0%);fill-opacity:1;stroke-width:1.25;stroke-linecap:butt;stroke-linejoin:miter;stroke:rgb(42.745098%,40%,40%);stroke-opacity:1;stroke-miterlimit:4;" d="M 509.27664 -191.773598 C 509.27664 -185.996056 504.847831 -181.306493 499.391177 -181.306493 C 493.934522 -181.306493 489.52083 -185.996056 489.52083 -191.773598 C 489.52083 -197.551141 493.934522 -202.240704 499.391177 -202.240704 C 504.847831 -202.240704 509.27664 -197.551141 509.27664 -191.773598 Z M 509.27664 -191.773598 " transform="matrix(0.258429,0,0,0.312363,120.42735,195.69585)"/>
<path style="fill-rule:evenodd;fill:rgb(99.607843%,77.254902%,0%);fill-opacity:1;stroke-width:1.25;stroke-linecap:butt;stroke-linejoin:miter;stroke:rgb(42.745098%,40%,40%);stroke-opacity:1;stroke-miterlimit:4;" d="M 579.034147 -193.511863 C 579.034147 -186.121111 572.27757 -180.143481 563.918761 -180.143481 C 555.575068 -180.143481 548.803375 -186.121111 548.803375 -193.511863 C 548.803375 -200.89011 555.575068 -206.880245 563.918761 -206.880245 C 572.27757 -206.880245 579.034147 -200.89011 579.034147 -193.511863 Z M 579.034147 -193.511863 " transform="matrix(0.258429,0,0,0.312363,120.42735,195.69585)"/>
<path style="fill-rule:evenodd;fill:rgb(99.607843%,77.254902%,0%);fill-opacity:1;stroke-width:1.25;stroke-linecap:butt;stroke-linejoin:miter;stroke:rgb(42.745098%,40%,40%);stroke-opacity:1;stroke-miterlimit:4;" d="M 531.375334 -194.087116 C 531.375334 -187.671794 525.389641 -182.456999 517.998217 -182.456999 C 510.606794 -182.456999 504.621101 -187.671794 504.621101 -194.087116 C 504.621101 -200.514945 510.621909 -205.717234 517.998217 -205.717234 C 525.389641 -205.717234 531.375334 -200.514945 531.375334 -194.087116 Z M 531.375334 -194.087116 " transform="matrix(0.258429,0,0,0.312363,120.42735,195.69585)"/>
<path style="fill-rule:evenodd;fill:rgb(99.607843%,77.254902%,0%);fill-opacity:1;stroke-width:1.25;stroke-linecap:butt;stroke-linejoin:miter;stroke:rgb(42.745098%,40%,40%);stroke-opacity:1;stroke-miterlimit:4;" d="M 554.622798 -190.610587 C 554.622798 -183.544978 548.380144 -177.817458 540.671297 -177.817458 C 532.977565 -177.817458 526.719795 -183.544978 526.719795 -190.610587 C 526.719795 -197.676196 532.977565 -203.403716 540.671297 -203.403716 C 548.380144 -203.403716 554.622798 -197.676196 554.622798 -190.610587 Z M 554.622798 -190.610587 " transform="matrix(0.258429,0,0,0.312363,120.42735,195.69585)"/>
<path style="fill-rule:evenodd;fill:rgb(99.607843%,77.254902%,0%);fill-opacity:1;stroke-width:1.25;stroke-linecap:butt;stroke-linejoin:miter;stroke:rgb(42.745098%,40%,40%);stroke-opacity:1;stroke-miterlimit:4;" d="M 494.161253 -267.344349 C 497.652907 -267.344349 522.064256 -259.215773 522.064256 -259.215773 C 522.064256 -259.215773 491.833484 -247.585656 496.489023 -248.748667 C 501.129446 -249.911679 530.21145 -253.400714 527.88368 -253.400714 C 525.555911 -253.400714 502.293331 -231.303492 509.27664 -232.466503 C 516.244833 -233.629515 530.21145 -247.585656 531.360219 -247.585656 C 532.524104 -247.585656 546.475605 -225.488433 547.63949 -226.651445 C 548.803375 -227.814456 547.63949 -248.748667 548.803375 -248.748667 C 549.967259 -248.748667 577.870262 -234.792527 575.557608 -235.955538 C 573.229839 -237.11855 556.950568 -253.400714 558.114453 -253.400714 C 559.278337 -253.400714 596.477303 -249.911679 594.149533 -251.074691 C 591.836879 -252.237703 569.738185 -262.704808 569.738185 -262.704808 C 569.738185 -262.704808 586.017456 -277.811455 582.525801 -277.811455 C 579.034147 -277.811455 552.295029 -262.704808 554.622798 -263.86782 C 556.950568 -265.018326 583.689686 -295.256631 583.689686 -295.256631 L 556.950568 -282.463502 C 556.950568 -282.463502 561.606107 -301.071689 559.278337 -299.908678 C 556.950568 -298.745666 538.343527 -275.485432 537.179643 -275.485432 C 536.015758 -275.485432 531.360219 -298.745666 531.360219 -298.745666 C 531.360219 -298.745666 532.524104 -273.159408 525.555911 -271.996396 C 518.572602 -270.833385 494.161253 -266.181338 494.161253 -267.344349 Z M 494.161253 -267.344349 " transform="matrix(0.258429,0,0,0.312363,120.42735,195.69585)"/>
<path style=" stroke:none;fill-rule:evenodd;fill:rgb(0%,21.960784%,60.784314%);fill-opacity:1;" d="M 228.558594 170.90625 C 228.707031 171.632812 233.515625 184.710938 240.878906 184.347656 C 248.238281 183.984375 251.242188 181.804688 250.945312 181.621094 C 250.644531 181.441406 247.488281 179.261719 245.683594 174.539062 C 243.882812 169.816406 243.582031 167.820312 243.582031 167.820312 Z M 228.558594 170.90625 "/>
<path style=" stroke:none;fill-rule:evenodd;fill:rgb(0%,21.960784%,60.784314%);fill-opacity:1;" d="M 254.851562 165.824219 C 254.851562 165.824219 260.257812 178.714844 262.664062 180.53125 C 265.066406 182.347656 270.625 183.800781 273.027344 183.621094 C 275.433594 183.4375 278.289062 183.621094 278.289062 183.621094 C 278.289062 183.621094 275.882812 182.347656 273.929688 175.265625 C 271.976562 168.183594 271.375 165.824219 271.375 165.824219 Z M 254.851562 165.824219 "/>
<path style=" stroke:none;fill-rule:evenodd;fill:rgb(0%,21.960784%,60.784314%);fill-opacity:1;" d="M 287.902344 170.542969 C 287.902344 170.542969 286.851562 179.988281 287.902344 182.347656 C 288.953125 184.710938 294.214844 189.066406 294.214844 189.066406 C 294.214844 189.066406 300.523438 188.160156 300.671875 182.347656 C 300.824219 176.539062 298.570312 171.089844 298.570312 171.089844 Z M 287.902344 170.542969 "/>
<path style="fill-rule:evenodd;fill:rgb(0%,31.764706%,12.54902%);fill-opacity:1;stroke-width:1.25;stroke-linecap:butt;stroke-linejoin:miter;stroke:rgb(0%,0%,0%);stroke-opacity:1;stroke-miterlimit:4;" d="M 288.944316 21.015492 C 288.944316 21.015492 290.1082 25.667538 288.944316 29.156574 C 287.780431 32.645609 277.894968 41.949703 277.894968 49.503026 C 277.894968 57.05635 289.5187 80.316584 324.979396 80.891837 C 360.455208 81.479596 405.211867 61.708396 404.637482 61.133143 C 404.047982 60.545385 319.749473 4.158074 318.585588 4.733327 C 317.436819 5.321086 288.944316 22.178503 288.944316 21.015492 Z M 288.944316 21.015492 " transform="matrix(0.258429,0,0,0.312363,148.777708,147.45508)"/>
<path style="fill-rule:evenodd;fill:rgb(0%,31.764706%,12.54902%);fill-opacity:1;stroke-width:1.25;stroke-linecap:butt;stroke-linejoin:miter;stroke:rgb(0%,0%,0%);stroke-opacity:1;stroke-miterlimit:4;" d="M 523.232803 61.133143 C 523.232803 61.133143 530.790496 81.479596 533.69265 83.805619 C 536.594804 86.131643 537.758689 90.783689 538.348189 90.783689 C 538.922574 90.783689 587.186002 101.238289 587.186002 101.238289 C 587.186002 101.238289 591.826426 87.869907 584.858233 77.402802 C 577.874924 66.948202 551.710191 39.623679 551.710191 39.623679 Z M 523.232803 61.133143 " transform="matrix(0.258429,0,0,0.312363,148.777708,147.45508)"/>
<path style="fill-rule:evenodd;fill:rgb(0%,31.764706%,12.54902%);fill-opacity:1;stroke-width:1.25;stroke-linecap:butt;stroke-linejoin:miter;stroke:rgb(0%,0%,0%);stroke-opacity:1;stroke-miterlimit:4;" d="M 556.36573 36.134644 C 557.529614 36.134644 569.153346 46.013991 578.464424 40.786691 C 587.760387 35.546885 602.875773 21.590745 602.875773 21.590745 C 602.875773 21.590745 590.088156 25.667538 580.792194 25.07978 C 571.481116 24.504527 556.95523 36.709897 556.36573 36.134644 Z M 556.36573 36.134644 " transform="matrix(0.258429,0,0,0.312363,148.777708,147.45508)"/>
<path style="fill-rule:evenodd;fill:rgb(0%,31.764706%,12.54902%);fill-opacity:1;stroke-width:1.25;stroke-linecap:butt;stroke-linejoin:miter;stroke:rgb(0%,0%,0%);stroke-opacity:1;stroke-miterlimit:4;" d="M 287.206046 23.341515 C 287.206046 23.341515 283.714392 13.462168 274.403314 12.87441 C 265.107351 12.299156 248.253696 14.037421 242.434272 9.385374 C 236.614848 4.733327 234.876579 -6.309031 231.974425 -5.733778 C 229.057155 -5.146019 221.499462 -5.733778 220.925077 -5.733778 C 220.335577 -5.733778 217.433423 -15.025366 225.580616 -19.677413 C 233.712694 -24.32946 240.696003 -20.265172 245.336426 -23.754207 C 249.991965 -27.243242 256.975274 -29.569266 266.271236 -30.144519 C 275.567199 -30.732277 290.682585 -18.514402 297.665893 -15.613125 C 304.634087 -12.711848 319.749473 -9.222813 325.568897 -12.12409 C 331.38832 -15.025366 363.946862 -27.818495 375.570594 -28.406254 C 387.194326 -28.981507 411.605675 -29.569266 420.916753 -28.981507 C 430.212716 -28.406254 466.837297 -23.754207 477.886644 -18.514402 C 488.935991 -13.287102 547.659267 7.059351 555.791345 11.711398 C 563.938538 16.363445 581.956079 23.341515 581.956079 23.341515 C 581.956079 23.341515 549.971921 54.730326 534.28215 59.970132 C 518.592379 65.197432 468.590682 73.338514 438.934294 71.587743 C 409.293021 69.849478 386.030442 66.935696 363.357362 55.318085 C 340.684283 43.687967 316.257819 32.645609 315.093934 26.83055 C 313.945164 21.015492 314.519549 13.462168 314.519549 13.462168 L 287.190931 23.341515 Z M 287.206046 23.341515 " transform="matrix(0.258429,0,0,0.312363,148.777708,147.45508)"/>
<path style="fill-rule:evenodd;fill:rgb(0%,31.764706%,12.54902%);fill-opacity:1;stroke-width:1.25;stroke-linecap:butt;stroke-linejoin:miter;stroke:rgb(0%,0%,0%);stroke-opacity:1;stroke-miterlimit:4;" d="M 251.15585 -14.450113 C 249.991965 -13.862355 244.172541 -11.536331 245.336426 -10.373319 C 246.500311 -9.222813 248.82808 -5.733778 255.796273 -6.309031 C 262.779582 -6.89679 270.337275 -10.961078 270.337275 -10.961078 C 270.337275 -10.961078 261.615697 -15.025366 251.15585 -14.450113 Z M 251.15585 -14.450113 " transform="matrix(0.258429,0,0,0.312363,148.777708,147.45508)"/>
<path style="fill-rule:evenodd;fill:rgb(0%,0%,0%);fill-opacity:1;stroke-width:1.25;stroke-linecap:butt;stroke-linejoin:miter;stroke:rgb(0%,0%,0%);stroke-opacity:1;stroke-miterlimit:4;" d="M 250.56635 -13.287102 L 250.56635 -6.89679 C 250.56635 -6.89679 258.713543 -4.570766 258.713543 -6.309031 C 258.713543 -8.059801 259.287928 -12.12409 257.549658 -12.12409 C 255.796273 -12.12409 251.15585 -12.699343 250.56635 -13.287102 Z M 250.56635 -13.287102 " transform="matrix(0.258429,0,0,0.312363,148.777708,147.45508)"/>
<path style="fill-rule:evenodd;fill:rgb(0%,9.019608%,2.745098%);fill-opacity:1;stroke-width:1.25;stroke-linecap:butt;stroke-linejoin:miter;stroke:rgb(0%,0%,2.745098%);stroke-opacity:1;stroke-miterlimit:4;" d="M 331.94759 -8.447472 C 334.003282 -12.149101 331.94759 -17.088774 343.873629 -22.841305 C 355.799669 -28.593836 376.553094 -26.955616 376.553094 -26.955616 C 376.553094 -26.955616 370.597632 -22.428624 370.386017 -17.701544 C 370.189517 -12.974464 370.794132 -10.923562 370.794132 -10.923562 C 370.794132 -10.923562 359.487823 -14.612685 350.856938 -12.361694 C 342.226052 -10.098198 332.159205 -7.834702 331.94759 -8.447472 Z M 331.94759 -8.447472 " transform="matrix(0.258429,0,0,0.312363,148.777708,147.45508)"/>
<path style="fill-rule:evenodd;fill:rgb(0%,9.019608%,2.745098%);fill-opacity:1;stroke-width:1.25;stroke-linecap:butt;stroke-linejoin:miter;stroke:rgb(0%,0%,2.745098%);stroke-opacity:1;stroke-miterlimit:4;" d="M 385.395595 -28.593836 C 384.171249 -27.981067 375.117133 -17.914137 376.144979 -14.825278 C 377.172825 -11.736419 389.31048 -4.345667 393.21025 -4.958437 C 397.11002 -5.571207 414.991522 -14.212509 416.019368 -18.526907 C 417.047214 -22.841305 417.878561 -28.593836 416.442599 -29.831881 C 414.991522 -31.05742 385.607211 -28.181155 385.395595 -28.593836 Z M 385.395595 -28.593836 " transform="matrix(0.258429,0,0,0.312363,148.777708,147.45508)"/>
<path style="fill-rule:evenodd;fill:rgb(0%,9.019608%,2.745098%);fill-opacity:1;stroke-width:1.25;stroke-linecap:butt;stroke-linejoin:miter;stroke:rgb(0%,0%,2.745098%);stroke-opacity:1;stroke-miterlimit:4;" d="M 424.665369 -30.244563 C 422.398061 -27.981067 423.214292 -17.088774 424.045638 -15.850729 C 424.861869 -14.612685 439.055217 -0.431445 442.12364 0.381413 C 445.207179 1.206776 468.031412 -1.05672 469.875489 -3.520304 C 471.734682 -5.983888 477.282029 -16.463499 475.634452 -18.939589 C 473.986874 -21.403173 469.059258 -24.69212 453.85318 -27.981067 C 438.631986 -31.270014 429.592985 -30.857332 424.665369 -30.244563 Z M 424.665369 -30.244563 " transform="matrix(0.258429,0,0,0.312363,148.777708,147.45508)"/>
<path style="fill-rule:evenodd;fill:rgb(0%,9.019608%,2.745098%);fill-opacity:1;stroke-width:1.25;stroke-linecap:butt;stroke-linejoin:miter;stroke:rgb(0%,0%,2.745098%);stroke-opacity:1;stroke-miterlimit:4;" d="M 482.81426 -16.463499 C 486.51753 -14.62519 508.102301 -4.133074 520.844572 4.295635 C 533.586842 12.724343 538.726074 22.378591 542.429343 23.203955 C 546.132613 24.029318 561.127076 14.975334 561.746807 12.51175 C 562.366538 10.048166 543.45719 -3.107623 530.714919 -9.072747 C 517.972648 -15.025366 482.81426 -15.850729 482.81426 -16.463499 Z M 482.81426 -16.463499 " transform="matrix(0.258429,0,0,0.312363,148.777708,147.45508)"/>
<path style="fill-rule:evenodd;fill:rgb(0%,9.019608%,2.745098%);fill-opacity:1;stroke-width:1.25;stroke-linecap:butt;stroke-linejoin:miter;stroke:rgb(0%,0%,2.745098%);stroke-opacity:1;stroke-miterlimit:4;" d="M 478.294759 -7.634614 C 476.450682 -5.983888 501.315493 37.385194 506.046609 38.823327 C 510.777725 40.26146 539.134189 30.394618 538.726074 27.105671 C 538.317958 23.816724 530.926535 17.23883 513.453148 7.584582 C 495.979761 -2.082171 481.801529 -8.447472 478.294759 -7.634614 Z M 478.294759 -7.634614 " transform="matrix(0.258429,0,0,0.312363,148.777708,147.45508)"/>
<path style="fill-rule:evenodd;fill:rgb(0%,9.019608%,2.745098%);fill-opacity:1;stroke-width:1.25;stroke-linecap:butt;stroke-linejoin:miter;stroke:rgb(0%,0%,2.745098%);stroke-opacity:1;stroke-miterlimit:4;" d="M 447.474487 8.197352 C 443.559602 10.460848 437.392524 49.302938 441.307409 51.153752 C 445.207179 53.004567 493.304338 46.426672 495.163531 42.112274 C 497.007608 37.797876 475.422836 3.470272 469.059258 3.470272 C 462.680565 3.470272 451.162641 5.108493 447.474487 8.197352 Z M 447.474487 8.197352 " transform="matrix(0.258429,0,0,0.312363,148.777708,147.45508)"/>
<path style="fill-rule:evenodd;fill:rgb(0%,9.019608%,2.745098%);fill-opacity:1;stroke-width:1.25;stroke-linecap:butt;stroke-linejoin:miter;stroke:rgb(0%,0%,2.745098%);stroke-opacity:1;stroke-miterlimit:4;" d="M 397.729751 -0.031269 C 392.590519 4.708316 393.618366 40.874229 395.885674 43.137725 C 398.137866 45.401221 426.705946 52.804479 429.789485 50.128301 C 432.873024 47.452124 436.984409 6.759219 434.112485 3.67036 C 431.225447 0.594006 423.214292 -6.809251 417.047214 -7.422021 C 410.880137 -8.047296 400.601674 -1.469402 397.729751 -0.031269 Z M 397.729751 -0.031269 " transform="matrix(0.258429,0,0,0.312363,148.777708,147.45508)"/>
<path style="fill-rule:evenodd;fill:rgb(0%,9.019608%,2.745098%);fill-opacity:1;stroke-width:1.25;stroke-linecap:butt;stroke-linejoin:miter;stroke:rgb(0%,0%,2.745098%);stroke-opacity:1;stroke-miterlimit:4;" d="M 333.187051 -0.644039 C 328.455935 3.05759 328.259435 12.711838 333.398667 14.362564 C 338.537898 16.013291 351.280169 21.553228 363.206208 26.69299 C 375.117133 31.832751 381.903941 37.997964 385.395595 37.797876 C 388.88725 37.585282 392.182404 1.419369 388.479134 -0.644039 C 384.775865 -2.694941 373.892786 -4.345667 363.614324 -3.932986 C 353.335861 -3.520304 338.326283 -2.494853 333.187051 -0.644039 Z M 333.187051 -0.644039 " transform="matrix(0.258429,0,0,0.312363,148.777708,147.45508)"/>
<path style=" stroke:none;fill-rule:evenodd;fill:rgb(83.137255%,5.882353%,5.882353%);fill-opacity:0.996078;" d="M 180.128906 291 C 182.308594 288.878906 185.695312 283.691406 190.296875 283.457031 C 194.898438 283.21875 199.742188 287.464844 199.742188 287.464844 C 199.742188 287.464844 204.582031 307.269531 204.339844 307.269531 C 204.101562 307.269531 196.351562 312.925781 196.109375 312.925781 C 195.867188 312.925781 192.71875 305.144531 189.8125 305.851562 C 186.90625 306.5625 187.148438 317.167969 186.664062 316.464844 C 186.179688 315.753906 173.832031 301.136719 174.316406 300.667969 C 174.800781 300.195312 180.371094 291.707031 180.128906 291 Z M 180.128906 291 "/>
<path style=" stroke:none;fill-rule:evenodd;fill:rgb(83.137255%,5.882353%,5.882353%);fill-opacity:0.996078;" d="M 307.984375 288.40625 C 309.4375 288.171875 315.976562 283.21875 320.574219 283.453125 C 325.175781 283.691406 327.839844 285.8125 330.261719 287.933594 C 332.683594 290.054688 335.589844 295.476562 335.589844 295.476562 C 335.589844 295.476562 329.777344 311.507812 329.292969 311.507812 C 328.808594 311.507812 326.386719 312.925781 325.902344 311.746094 C 325.417969 310.566406 323.964844 306.792969 321.058594 306.324219 C 318.15625 305.851562 317.429688 311.507812 317.429688 311.507812 Z M 307.984375 288.40625 "/>
<path style=" stroke:none;fill-rule:evenodd;fill:rgb(99.215686%,86.27451%,34.901961%);fill-opacity:0.996078;" d="M 311.128906 293.363281 C 311.128906 294.777344 320.089844 316.9375 334.617188 321.183594 C 349.144531 325.425781 353.746094 317.175781 355.441406 314.34375 C 357.136719 311.515625 363.191406 311.753906 363.191406 311.753906 C 363.191406 311.753906 361.738281 332.5 359.316406 335.09375 C 356.894531 337.6875 354.957031 343.34375 341.398438 343.578125 C 327.839844 343.816406 315.488281 330.847656 311.375 327.074219 C 307.257812 323.304688 301.929688 313.402344 299.75 308.921875 C 297.570312 304.441406 311.371094 293.835938 311.128906 293.363281 Z M 311.128906 293.363281 "/>
<path style=" stroke:none;fill-rule:evenodd;fill:rgb(99.215686%,86.27451%,34.901961%);fill-opacity:0.996078;" d="M 153.25 337.441406 C 153.492188 337.441406 159.789062 344.28125 168.988281 343.574219 C 178.191406 342.867188 193.929688 337.441406 201.195312 328.011719 C 208.457031 318.582031 212.089844 308.445312 212.089844 308.445312 C 212.089844 308.445312 201.4375 289.582031 201.195312 289.582031 C 200.953125 289.582031 199.984375 295.710938 198.046875 299.71875 C 196.109375 303.726562 190.78125 315.042969 181.824219 318.582031 C 172.863281 322.117188 172.863281 323.53125 169.234375 323.0625 C 165.601562 322.589844 156.15625 316.933594 156.15625 316.695312 C 156.15625 316.460938 151.554688 327.777344 151.554688 327.777344 C 151.554688 327.777344 150.589844 335.085938 153.25 337.441406 Z M 153.25 337.441406 "/>
<path style=" stroke:none;fill-rule:evenodd;fill:rgb(99.215686%,86.27451%,34.901961%);fill-opacity:0.996078;" d="M 179.964844 290.34375 C 179.277344 290.34375 162.15625 299.679688 162.84375 303.683594 C 163.527344 307.683594 192.292969 364.363281 253.925781 365.03125 C 315.566406 365.699219 353.234375 313.683594 350.496094 305.015625 C 347.753906 296.347656 328.578125 286.34375 328.578125 286.34375 C 328.578125 286.34375 333.375 290.34375 332.6875 295.679688 C 332.003906 301.015625 310.773438 347.027344 257.351562 345.695312 C 203.933594 344.359375 178.59375 303.683594 178.59375 299.015625 C 178.59375 294.347656 181.332031 291.679688 179.960938 290.34375 Z M 179.964844 290.34375 "/>
<path style=" stroke:none;fill-rule:evenodd;fill:rgb(83.137255%,5.882353%,5.882353%);fill-opacity:0.996078;" d="M 346.964844 331.554688 C 348.417969 330.375 357.375 305.855469 362.460938 306.566406 C 367.546875 307.273438 365.851562 314.578125 365.367188 316.46875 C 364.882812 318.351562 359.796875 335.328125 359.796875 335.328125 C 359.796875 335.328125 360.039062 331.320312 356.648438 330.378906 C 353.261719 329.433594 347.691406 332.027344 346.964844 331.554688 Z M 346.964844 331.554688 "/>
<path style=" stroke:none;fill-rule:evenodd;fill:rgb(83.137255%,5.882353%,5.882353%);fill-opacity:0.996078;" d="M 153.25 337.691406 C 153.25 336.359375 149.140625 331.691406 153.9375 330.359375 C 158.730469 329.023438 164.894531 331.691406 164.894531 331.691406 C 164.894531 331.691406 161.46875 321.6875 157.359375 313.6875 C 153.25 305.683594 151.882812 307.019531 148.457031 308.351562 C 145.035156 309.6875 145.117188 313.214844 147.171875 318.550781 C 149.226562 323.886719 153.25 339.027344 153.25 337.691406 Z M 153.25 337.691406 "/>
<path style=" stroke:none;fill-rule:evenodd;fill:rgb(99.215686%,76.862745%,0%);fill-opacity:1;" d="M 209.757812 291.964844 L 215.703125 271.828125 L 199.191406 259.167969 L 219.871094 258.691406 L 226.617188 238.816406 L 233.453125 258.65625 L 254.132812 259.039062 L 237.679688 271.777344 L 243.710938 291.882812 L 226.707031 279.917969 Z M 209.757812 291.964844 "/>
<path style=" stroke:none;fill-rule:evenodd;fill:rgb(100%,100%,100%);fill-opacity:1;" d="M 321.261719 187.152344 L 321.257812 264.628906 C 321.410156 302.496094 282.800781 335.652344 257.160156 342.105469 C 231.519531 335.652344 192.910156 302.496094 193.0625 264.632812 L 193.0625 187.15625 L 321.257812 187.15625 Z M 321.261719 187.152344 "/>
<path style="fill-rule:evenodd;fill:rgb(83.137255%,5.882353%,5.882353%);fill-opacity:0.996078;stroke-width:1.25;stroke-linecap:butt;stroke-linejoin:miter;stroke:rgb(0%,0%,0%);stroke-opacity:1;stroke-miterlimit:4;" d="M 177.165401 325.982012 L 177.573517 486.715221 C 177.573517 486.715221 179.961748 483.425436 212.595867 485.42003 C 245.21487 487.427576 248.026332 520.856457 283.456798 520.856457 C 318.887263 520.856457 318.887263 485.42003 354.332844 485.42003 C 389.763309 485.42003 389.763309 520.856457 425.193775 520.856457 C 460.62424 520.856457 460.62424 485.42003 496.054706 485.42003 C 531.485171 485.42003 531.485171 520.856457 568.925983 522.889907 C 602.361217 520.856457 602.361217 485.42003 637.988183 483.425436 L 673.222148 485.42003 L 673.222148 325.982012 Z M 177.165401 325.982012 " transform="matrix(0.258429,0,0,0.301596,147.277871,88.837332)"/>
<path style=" stroke:none;fill-rule:evenodd;fill:rgb(0%,38.431373%,73.333333%);fill-opacity:0.996078;" d="M 193.0625 251.273438 L 193.0625 267.300781 L 202.21875 267.300781 C 210.648438 267.90625 211.375 277.988281 220.53125 277.988281 C 229.6875 277.988281 229.6875 267.300781 238.84375 267.300781 C 248.003906 267.300781 248.003906 277.988281 257.160156 277.988281 C 266.316406 277.988281 266.316406 267.300781 275.472656 267.300781 C 284.628906 267.300781 284.113281 277.378906 293.789062 277.988281 C 302.425781 277.378906 302.890625 267.90625 312.101562 267.300781 L 321.257812 267.300781 L 321.257812 251.273438 L 312.101562 251.273438 C 302.945312 251.273438 302.945312 261.957031 293.789062 261.957031 C 284.628906 261.957031 284.628906 251.273438 275.472656 251.273438 C 266.316406 251.273438 266.316406 261.957031 257.160156 261.957031 C 248.003906 261.957031 248.003906 251.273438 238.84375 251.273438 C 229.6875 251.273438 229.6875 261.957031 220.53125 261.957031 C 211.375 261.957031 211.375 251.273438 202.21875 251.273438 Z M 193.0625 251.273438 "/>
<path style=" stroke:none;fill-rule:evenodd;fill:rgb(0%,38.431373%,73.333333%);fill-opacity:0.996078;" d="M 195.824219 283.328125 L 202.21875 299.359375 C 210.648438 299.960938 211.375 310.042969 220.53125 310.042969 C 229.6875 310.042969 229.6875 299.359375 238.847656 299.359375 C 248.003906 299.359375 248.003906 310.042969 257.160156 310.042969 C 266.316406 310.042969 266.316406 299.359375 275.472656 299.359375 C 284.632812 299.359375 284.113281 309.433594 293.789062 310.042969 C 302.425781 309.433594 302.679688 299.960938 311.890625 299.359375 L 318.496094 283.082031 L 312.101562 283.328125 C 302.945312 283.328125 302.945312 294.015625 293.789062 294.015625 C 284.632812 294.015625 284.632812 283.328125 275.472656 283.328125 C 266.316406 283.328125 266.316406 294.015625 257.160156 294.015625 C 248.003906 294.015625 248.003906 283.328125 238.847656 283.328125 C 229.6875 283.328125 229.6875 294.015625 220.53125 294.015625 C 211.375 294.015625 211.375 283.328125 202.21875 283.328125 Z M 195.824219 283.328125 "/>
<path style=" stroke:none;fill-rule:evenodd;fill:rgb(0%,38.431373%,73.333333%);fill-opacity:0.996078;" d="M 257.160156 342.105469 C 266.320312 342.105469 287.300781 326.074219 287.085938 326.074219 C 287.296875 326.074219 284.632812 315.386719 275.476562 315.386719 C 266.316406 315.386719 266.316406 326.074219 257.160156 326.074219 C 248.003906 326.074219 248.003906 315.386719 238.847656 315.386719 C 229.691406 315.386719 227.351562 326.074219 227.332031 326.074219 C 226.90625 326.074219 248.003906 342.105469 257.160156 342.105469 Z M 257.160156 342.105469 "/>
<path style="fill-rule:evenodd;fill:rgb(99.215686%,76.862745%,0%);fill-opacity:0.996078;stroke-width:0.625;stroke-linecap:butt;stroke-linejoin:miter;stroke:rgb(0%,0%,0%);stroke-opacity:1;stroke-miterlimit:4;" d="M 90.848838 117.568323 C 91.671498 117.568323 99.069254 118.801862 104.413452 118.393052 C 109.75765 117.980688 111.814301 115.925975 111.814301 115.51361 L 111.814301 114.280072 L 118.800726 114.280072 C 118.800726 114.280072 120.034717 120.035401 119.212057 120.447765 C 118.392489 120.856575 116.335839 122.502478 115.924509 122.502478 C 115.513179 122.502478 115.924509 119.626591 115.101849 120.447765 C 114.279188 121.268939 113.867858 122.502478 113.867858 122.502478 C 113.867858 122.502478 113.048291 121.268939 112.636961 121.268939 C 112.225631 121.268939 111.402971 122.502478 111.402971 122.502478 C 111.402971 122.502478 111.402971 121.268939 110.991641 121.268939 C 110.580311 121.268939 108.52366 123.323652 108.52366 123.323652 L 106.470103 121.681304 C 106.470103 121.681304 105.236112 123.736017 104.824782 123.736017 C 104.413452 123.736017 101.948565 122.093668 101.948565 122.093668 L 97.838357 124.557191 C 97.838357 124.557191 97.838357 120.856575 97.015697 121.268939 C 96.193036 121.681304 91.671498 121.681304 91.671498 121.681304 C 91.671498 121.681304 90.437508 124.148381 90.026178 124.148381 C 89.614848 124.148381 87.969528 122.093668 88.380858 122.093668 C 88.792188 122.093668 89.614848 120.856575 89.203518 120.447765 C 88.792188 120.035401 86.73863 120.447765 86.73863 120.035401 C 86.73863 119.626591 85.91597 117.159514 86.3273 117.159514 C 86.73863 117.159514 88.380858 117.568323 88.380858 117.568323 L 88.380858 115.101246 L 90.437508 115.101246 Z M 90.848838 117.568323 " transform="matrix(1.263052,0,0,1.098846,95.073509,94.951175)"/>
<path style="fill-rule:evenodd;fill:rgb(99.215686%,76.862745%,0%);fill-opacity:0.996078;stroke-width:0.625;stroke-linecap:butt;stroke-linejoin:miter;stroke:rgb(0%,0%,0%);stroke-opacity:1;stroke-miterlimit:4;" d="M 98.246594 94.134643 C 97.838357 94.134643 94.959046 97.426449 95.370376 101.12351 C 95.781706 104.824126 102.771225 110.167091 102.771225 110.167091 C 102.771225 110.167091 106.470103 108.524743 107.704093 110.167091 C 108.93499 111.812994 108.93499 116.743594 108.52366 116.743594 C 108.115423 116.743594 103.179462 117.977133 103.179462 117.155959 C 103.179462 116.334785 103.179462 115.51361 102.771225 115.51361 C 102.359895 115.51361 97.838357 115.92242 97.838357 115.92242 L 98.246594 114.280072 L 94.136386 113.455343 L 95.781706 111.812994 C 95.781706 111.812994 89.203518 108.933552 89.614848 108.933552 C 90.026178 108.933552 92.494158 107.291204 92.494158 107.291204 L 87.56129 104.002952 L 90.437508 104.002952 C 90.437508 104.002952 86.3273 100.711146 86.73863 100.711146 C 87.14996 100.711146 89.203518 101.12351 89.203518 101.12351 L 87.969528 97.835259 L 89.203518 97.835259 L 87.969528 95.368181 L 90.026178 94.547007 L 91.260168 96.60172 L 90.848838 91.67112 L 93.725056 92.07993 L 93.725056 96.19291 C 93.725056 96.19291 94.959046 93.725833 94.959046 93.313468 C 94.959046 92.901104 98.657924 94.959372 98.246594 94.134643 Z M 98.246594 94.134643 " transform="matrix(1.263052,0,0,1.098846,95.073509,94.951175)"/>
<path style=" stroke:none;fill-rule:evenodd;fill:rgb(0%,0%,0%);fill-opacity:0.996078;" d="M 299.648438 226.394531 C 299 226.960938 297.054688 228.203125 297.054688 228.203125 C 297.054688 228.203125 301.46875 227.863281 301.335938 227.863281 C 301.207031 227.863281 299.78125 226.734375 299.648438 226.394531 Z M 299.648438 226.394531 "/>
<path style=" stroke:none;fill-rule:evenodd;fill:rgb(0%,0%,0%);fill-opacity:0.996078;" d="M 303.414062 228.539062 C 303.15625 228.875 302.375 232.378906 302.894531 232.152344 C 303.414062 231.925781 305.492188 229.328125 305.492188 229.328125 Z M 303.414062 228.539062 "/>
<path style=" stroke:none;fill-rule:evenodd;fill:rgb(0%,0%,0%);fill-opacity:0.996078;" d="M 309.375 228.988281 C 310.023438 229.554688 313.007812 232.148438 312.621094 231.585938 C 312.230469 231.019531 311.839844 228.648438 311.582031 228.535156 C 311.320312 228.421875 309.632812 229.214844 309.375 228.988281 Z M 309.375 228.988281 "/>
<path style=" stroke:none;fill-rule:evenodd;fill:rgb(0%,0%,0%);fill-opacity:0.996078;" d="M 257.074219 225.261719 C 256.683594 225.375 253.4375 227.523438 253.4375 227.523438 C 253.4375 227.523438 258.890625 226.617188 258.628906 226.617188 C 258.371094 226.617188 256.941406 225.601562 257.074219 225.261719 Z M 257.074219 225.261719 "/>
<path style=" stroke:none;fill-rule:evenodd;fill:rgb(0%,0%,0%);fill-opacity:0.996078;" d="M 260.445312 227.976562 C 259.925781 228.429688 258.238281 231.589844 258.886719 231.476562 C 259.535156 231.363281 262.390625 229.332031 262.390625 229.332031 Z M 260.445312 227.976562 "/>
<path style=" stroke:none;fill-rule:evenodd;fill:rgb(0%,0%,0%);fill-opacity:0.996078;" d="M 258.359375 223.570312 C 257.972656 223.457031 255.246094 222.328125 255.375 222.328125 C 255.503906 222.328125 259.011719 221.539062 259.011719 221.539062 Z M 258.359375 223.570312 "/>
<path style=" stroke:none;fill-rule:evenodd;fill:rgb(0%,0%,0%);fill-opacity:0.996078;" d="M 206.964844 222.109375 L 203.070312 219.398438 L 208.003906 220.753906 Z M 206.964844 222.109375 "/>
<path style=" stroke:none;fill-rule:evenodd;fill:rgb(0%,0%,0%);fill-opacity:0.996078;" d="M 203.589844 223.910156 C 203.070312 223.910156 198.136719 226.621094 198.269531 226.621094 C 198.398438 226.621094 205.148438 226.734375 205.019531 226.621094 C 204.886719 226.507812 203.847656 224.136719 203.589844 223.910156 Z M 203.589844 223.910156 "/>
<path style=" stroke:none;fill-rule:evenodd;fill:rgb(0%,0%,0%);fill-opacity:0.996078;" d="M 206.703125 227.867188 C 206.183594 228.09375 202.292969 230.691406 202.550781 230.691406 C 202.808594 230.691406 208.390625 230.804688 208.390625 230.691406 C 208.390625 230.578125 206.835938 227.980469 206.703125 227.867188 Z M 206.703125 227.867188 "/>
<path style=" stroke:none;fill-rule:evenodd;fill:rgb(0%,0%,0%);fill-opacity:0.996078;" d="M 206.183594 199.742188 C 206.183594 199.742188 204.757812 196.582031 204.886719 196.582031 C 205.015625 196.582031 208.523438 199.066406 208.523438 199.066406 Z M 206.183594 199.742188 "/>
<path style=" stroke:none;fill-rule:evenodd;fill:rgb(0%,0%,0%);fill-opacity:0.996078;" d="M 210.078125 195.792969 C 210.078125 195.679688 210.46875 193.757812 210.46875 193.757812 C 210.46875 193.757812 213.972656 196.128906 213.84375 196.128906 C 213.714844 196.128906 210.339844 196.128906 210.078125 195.792969 Z M 210.078125 195.792969 "/>
<path style=" stroke:none;fill-rule:evenodd;fill:rgb(0%,0%,0%);fill-opacity:0.996078;" d="M 215.53125 197.257812 C 215.53125 197.144531 215.921875 194.324219 215.921875 194.324219 C 215.921875 194.324219 219.167969 198.164062 218.90625 198.277344 C 218.648438 198.386719 215.792969 197.710938 215.53125 197.257812 Z M 215.53125 197.257812 "/>
<path style="fill-rule:evenodd;fill:rgb(99.215686%,76.862745%,0%);fill-opacity:0.996078;stroke-width:0.625;stroke-linecap:butt;stroke-linejoin:miter;stroke:rgb(0%,0%,0%);stroke-opacity:1;stroke-miterlimit:4;" d="M 137.260788 110.858247 C 137.260788 111.064429 141.575115 114.558863 141.680267 115.383592 C 141.782326 116.204766 133.868088 116.410948 133.868088 116.410948 C 133.868088 116.410948 131.607319 114.661954 130.886718 114.765045 C 130.16921 114.868136 129.859939 116.613576 129.859939 116.613576 L 131.709378 117.644487 L 128.214619 117.847114 L 129.244491 119.802291 L 131.91659 119.596109 L 131.298048 121.444639 C 131.298048 121.444639 132.943369 122.678178 133.252639 122.471996 C 133.558817 122.269368 134.588689 120.417283 135.411349 120.108009 C 136.230916 119.802291 137.978296 119.802291 137.978296 119.802291 C 137.978296 119.802291 136.642246 122.063186 137.260788 122.063186 C 137.876237 122.063186 140.650395 119.6992 140.650395 119.6992 C 140.650395 119.6992 141.268936 121.857004 141.370996 121.857004 C 141.473055 121.857004 143.424553 119.389926 143.424553 119.389926 C 143.424553 119.389926 143.424553 121.341548 143.733824 121.341548 C 144.043095 121.341548 146.919313 118.874471 146.919313 118.874471 C 146.919313 118.874471 149.180082 121.753913 149.489352 121.54773 C 149.798623 121.341548 150.104801 118.465661 150.414072 118.465661 C 150.723343 118.465661 152.674841 118.156388 152.674841 118.053297 C 152.674841 117.950205 151.440851 116.922849 151.236732 115.486683 C 151.029521 114.046962 151.440851 110.655619 151.338791 110.655619 C 151.236732 110.655619 137.464907 111.16752 137.260788 110.858247 Z M 137.260788 110.858247 " transform="matrix(1.263052,0,0,1.098846,94.210617,95.199514)"/>
<path style="fill-rule:evenodd;fill:rgb(99.215686%,76.862745%,0%);fill-opacity:0.996078;stroke-width:0.625;stroke-linecap:butt;stroke-linejoin:miter;stroke:rgb(0%,0%,0%);stroke-opacity:1;stroke-miterlimit:4;" d="M 115.370606 104.601681 L 155.656211 104.601681 C 159.766419 104.601681 163.465297 102.955778 163.465297 100.488701 C 163.465297 98.021623 156.890201 97.612814 154.422221 98.433988 C 151.957333 99.255162 141.268936 104.189317 136.747398 103.776952 C 132.222768 103.368143 128.11256 100.488701 127.704322 97.612814 C 127.2899 94.733372 129.75788 92.266294 134.279418 92.266294 C 138.800956 92.266294 144.556484 93.912197 145.790475 93.499833 C 147.024465 93.091023 149.900682 89.802772 151.134673 89.390407 C 152.36557 88.978043 156.067541 88.569233 156.067541 88.569233 L 154.422221 89.802772 L 159.766419 88.569233 C 159.766419 88.569233 155.656211 93.091023 151.546003 94.324562 C 147.432702 95.558101 138.800956 95.145736 135.513408 95.145736 C 132.222768 95.145736 130.58054 94.733372 130.99187 97.200449 C 131.4032 99.667526 133.868088 101.31343 135.924738 100.901065 C 137.981389 100.488701 144.145154 98.433988 144.145154 98.433988 L 142.499834 97.200449 L 149.900682 96.791639 C 149.900682 96.791639 149.489352 95.558101 149.900682 95.558101 C 150.312013 95.558101 154.01089 95.96691 154.01089 95.96691 C 154.01089 95.96691 151.546003 94.733372 151.957333 94.733372 C 152.36557 94.733372 154.01089 94.733372 157.301531 95.145736 C 160.589079 95.558101 167.575505 96.788084 167.167267 100.076336 C 166.755937 103.368143 164.287957 106.24403 161.411739 106.24403 C 158.532428 106.24403 156.067541 105.422855 156.067541 106.656394 C 156.067541 107.889933 159.355089 108.711107 161.411739 108.711107 C 163.465297 108.711107 165.933277 107.068759 166.344607 107.068759 C 166.755937 107.068759 167.575505 109.532281 167.986835 109.532281 C 168.398165 109.532281 170.866145 108.711107 170.866145 108.711107 L 169.220825 113.232897 L 172.100135 114.054072 C 172.100135 114.054072 170.454815 115.699975 170.866145 115.699975 C 171.277475 115.699975 173.742363 115.699975 173.742363 116.108785 C 173.742363 116.521149 170.454815 118.988226 170.454815 119.400591 C 170.454815 119.809401 172.919703 121.042939 172.919703 121.042939 C 172.919703 121.042939 171.277475 123.510017 170.866145 123.097652 C 170.454815 122.688843 168.809495 120.630575 168.809495 120.630575 C 168.809495 120.630575 168.398165 122.276478 167.575505 122.276478 C 166.755937 122.276478 165.110617 121.867668 165.110617 121.867668 C 165.110617 121.867668 166.344607 119.400591 165.933277 119.400591 C 165.521947 119.400591 163.465297 121.042939 163.465297 120.630575 L 162.234399 119.397036 C 162.234399 119.397036 165.521947 118.060406 165.521947 116.10523 C 165.521947 114.153608 164.185897 112.201986 158.22625 111.892713 C 152.263511 111.583439 152.161451 113.332434 147.741973 113.126251 C 143.322494 112.920069 143.322494 111.17463 140.034946 111.17463 C 136.747398 111.17463 126.572392 115.284055 121.843642 115.180964 C 117.117985 115.081428 111.158339 114.772155 111.362457 114.565972 C 111.566576 114.35979 115.268546 104.903845 115.370606 104.601681 Z M 115.370606 104.601681 " transform="matrix(1.263052,0,0,1.098846,94.210617,95.199514)"/>
<path style="fill-rule:evenodd;fill:rgb(99.215686%,76.862745%,0%);fill-opacity:0.996078;stroke-width:0.625;stroke-linecap:butt;stroke-linejoin:miter;stroke:rgb(0%,0%,0%);stroke-opacity:1;stroke-miterlimit:4;" d="M 106.881433 102.46014 C 106.470103 102.666322 102.873284 103.178223 102.666073 106.98193 C 102.461954 110.785638 102.975343 110.785638 103.386673 110.579455 C 103.798004 110.373273 104.617571 107.085022 104.617571 107.085022 C 104.617571 107.085022 103.386673 111.606812 104.722723 112.634168 C 106.058773 113.661525 107.496881 114.073889 107.496881 114.073889 L 108.010271 110.476364 C 108.010271 110.476364 106.983492 113.970798 109.44838 115.204337 C 111.91636 116.437876 112.84108 115.51361 112.633868 114.58579 C 112.42975 113.661525 111.709149 111.297539 111.709149 111.297539 C 111.709149 111.297539 113.66374 113.455343 113.765799 113.661525 C 113.867858 113.867707 114.792578 115.51361 117.260558 114.791972 C 119.725446 114.073889 117.978066 112.427986 117.978066 112.427986 L 114.999789 109.968018 C 114.999789 109.968018 118.083218 113.153179 119.419268 112.022731 C 120.755317 110.892284 118.389396 108.428761 118.491456 108.528297 C 118.596608 108.631389 120.446047 112.022731 121.163555 109.864927 C 121.884156 107.707123 120.034717 107.092131 119.419268 105.037418 C 118.800726 102.979151 118.287337 102.776523 118.902786 101.53943 C 119.521327 100.309446 119.623387 97.94546 119.623387 97.94546 C 119.623387 97.94546 122.193426 98.560451 121.986215 96.402647 C 121.782096 94.244843 119.212057 93.729388 118.698667 93.629851 C 118.185278 93.52676 118.287337 91.368956 118.083218 91.468493 C 117.876007 91.571584 116.230687 92.805122 116.230687 92.805122 C 116.230687 92.805122 114.792578 89.41378 114.4864 89.619962 C 114.177129 89.826144 112.531809 91.571584 111.297819 91.674675 C 110.066921 91.777766 109.34632 93.52676 109.34632 93.52676 C 109.34632 93.52676 105.028901 91.468493 105.134053 94.859835 C 105.236112 98.251178 107.701 97.430004 107.701 97.533095 C 107.701 97.636186 107.28967 102.261068 106.881433 102.46725 Z M 106.881433 102.46014 " transform="matrix(1.263052,0,0,1.098846,95.073509,94.951175)"/>
<path style=" stroke:none;fill-rule:evenodd;fill:rgb(0%,0%,0%);fill-opacity:0.996078;" d="M 233.074219 201.820312 C 233.699219 201.628906 234.617188 200.832031 235.679688 200.925781 C 236.746094 201.023438 238.453125 201.839844 237.605469 202.285156 C 236.761719 202.734375 236.136719 202.921875 235.183594 202.699219 C 234.230469 202.476562 233.496094 201.996094 233.074219 201.820312 Z M 233.074219 201.820312 "/>
<path style=" stroke:none;fill-rule:evenodd;fill:rgb(0%,0%,0%);fill-opacity:0.996078;" d="M 243.660156 201.707031 C 243.035156 201.515625 242.117188 200.71875 241.054688 200.8125 C 239.988281 200.910156 238.285156 201.726562 239.128906 202.171875 C 239.972656 202.621094 240.597656 202.808594 241.550781 202.585938 C 242.503906 202.363281 243.238281 201.882812 243.660156 201.707031 Z M 243.660156 201.707031 "/>
<path style="fill-rule:evenodd;fill:rgb(0%,0%,22.352941%);fill-opacity:0.996078;stroke-width:0.375;stroke-linecap:butt;stroke-linejoin:miter;stroke:rgb(0%,0%,0%);stroke-opacity:1;stroke-miterlimit:4;" d="M 110.98873 103.168327 C 111.093882 103.683782 111.40006 107.99939 111.607272 107.693672 C 111.81139 107.384399 113.354651 103.271418 113.249499 103.271418 C 113.14744 103.271418 111.093882 103.374509 110.98873 103.168327 Z M 110.98873 103.168327 " transform="matrix(1.263052,0,0,1.098846,95.249059,95.005018)"/>
<path style="fill:none;stroke-width:0.75;stroke-linecap:butt;stroke-linejoin:miter;stroke:rgb(0%,0%,0%);stroke-opacity:1;stroke-miterlimit:4;" d="M 109.958859 103.171631 C 110.008342 101.955867 110.781519 102.041184 112.426839 102.243811 C 114.07216 102.449993 114.891727 103.274722 114.789668 103.47735 C 114.687608 103.683532 113.351559 104.198988 112.219628 104.095896 C 110.883578 103.683532 109.921746 104.184768 109.958859 103.171631 Z M 109.958859 103.171631 " transform="matrix(1.263052,0,0,1.098846,95.249059,95.16545)"/>
<path style="fill:none;stroke-width:1.25;stroke-linecap:butt;stroke-linejoin:miter;stroke:rgb(0%,0%,0%);stroke-opacity:1;stroke-miterlimit:4;" d="M 112.429932 100.078897 L 112.222721 102.034074 " transform="matrix(1.263052,0,0,1.098846,95.249059,95.16545)"/>
<path style="fill:none;stroke-width:1.25;stroke-linecap:butt;stroke-linejoin:miter;stroke:rgb(0%,0%,0%);stroke-opacity:1;stroke-miterlimit:4;" d="M 119.320484 94.842579 C 119.320484 94.842579 120.656533 95.461125 120.452415 96.076117 C 120.245203 96.694664 119.320484 97.003938 119.320484 97.003938 " transform="matrix(1.263052,0,0,1.098846,95.249059,95.16545)"/>
<path style="fill:none;stroke-width:1.25;stroke-linecap:butt;stroke-linejoin:miter;stroke:rgb(0%,0%,0%);stroke-opacity:1;stroke-miterlimit:4;" d="M 108.118698 94.330678 C 107.81252 94.433769 107.40119 94.639951 107.193979 95.461125 C 106.98986 96.2823 108.118698 96.797755 108.118698 96.797755 " transform="matrix(1.263052,0,0,1.098846,95.249059,95.16545)"/>
<path style="fill:none;stroke-width:1.25;stroke-linecap:butt;stroke-linejoin:miter;stroke:rgb(0%,0%,0%);stroke-opacity:1;stroke-miterlimit:4;" d="M 111.189773 136.130416 C 111.189773 136.130416 109.736201 137.584357 112.207274 137.584357 C 114.678347 137.584357 112.93406 136.276166 112.93406 136.276166 " transform="matrix(1.263052,0,0,1.098846,95.432632,53.960548)"/>
<path style=" stroke:none;fill-rule:evenodd;fill:rgb(99.215686%,76.862745%,0%);fill-opacity:1;" d="M 242.730469 328.507812 L 248.128906 310.777344 L 233.144531 299.632812 L 251.910156 299.214844 L 258.03125 281.71875 L 264.234375 299.183594 L 283 299.523438 L 268.066406 310.734375 L 273.542969 328.4375 L 258.113281 317.902344 Z M 242.730469 328.507812 "/>
<path style=" stroke:none;fill-rule:evenodd;fill:rgb(0%,18.823529%,9.019608%);fill-opacity:0.996078;" d="M 245.285156 323.757812 L 249.78125 309.671875 L 237.296875 300.820312 L 252.933594 300.488281 L 258.035156 286.589844 L 263.203125 300.460938 L 278.84375 300.730469 L 266.398438 309.636719 L 270.960938 323.699219 L 258.105469 315.332031 Z M 245.285156 323.757812 "/>
<path style=" stroke:none;fill-rule:evenodd;fill:rgb(99.215686%,76.862745%,0%);fill-opacity:1;" d="M 211.851562 292.601562 L 217.1875 275.835938 L 202.363281 265.296875 L 220.929688 264.902344 L 226.984375 248.355469 L 233.121094 264.871094 L 251.683594 265.191406 L 236.914062 275.792969 L 242.328125 292.535156 L 227.066406 282.570312 Z M 211.851562 292.601562 "/>
<path style=" stroke:none;fill-rule:evenodd;fill:rgb(0%,18.823529%,9.019608%);fill-opacity:0.996078;" d="M 214.386719 288.105469 L 218.832031 274.789062 L 206.480469 266.414062 L 221.949219 266.101562 L 226.996094 252.957031 L 232.109375 266.078125 L 247.578125 266.332031 L 235.269531 274.753906 L 239.785156 288.054688 L 227.066406 280.136719 Z M 214.386719 288.105469 "/>
<path style=" stroke:none;fill-rule:evenodd;fill:rgb(99.215686%,76.862745%,0%);fill-opacity:1;" d="M 274.066406 292.601562 L 279.46875 275.835938 L 264.457031 265.296875 L 283.261719 264.902344 L 289.394531 248.355469 L 295.609375 264.871094 L 314.410156 265.191406 L 299.449219 275.792969 L 304.9375 292.535156 L 289.476562 282.570312 Z M 274.066406 292.601562 "/>
<path style=" stroke:none;fill-rule:evenodd;fill:rgb(0%,18.823529%,9.019608%);fill-opacity:0.996078;" d="M 276.628906 288.105469 L 281.136719 274.789062 L 268.625 266.414062 L 284.292969 266.101562 L 289.402344 252.957031 L 294.582031 266.078125 L 310.253906 266.332031 L 297.785156 274.753906 L 302.355469 288.054688 L 289.472656 280.136719 Z M 276.628906 288.105469 "/>
<path style=" stroke:none;fill-rule:nonzero;fill:rgb(0%,0%,0%);fill-opacity:1;" d="M 167.628906 306.738281 L 176.894531 301.503906 L 177.765625 303.410156 L 174.132812 305.460938 L 175.335938 308.089844 L 178.96875 306.035156 L 179.839844 307.941406 L 170.574219 313.175781 L 169.703125 311.269531 L 173.902344 308.898438 L 172.699219 306.273438 L 168.5 308.644531 L 167.628906 306.738281 M 171.507812 314.84375 L 180.15625 308.441406 L 183.117188 313.378906 L 181.679688 314.441406 L 179.785156 311.285156 L 177.785156 312.765625 L 179.546875 315.703125 L 178.179688 316.71875 L 176.414062 313.78125 L 174.035156 315.542969 L 175.972656 318.773438 L 174.511719 319.855469 L 171.507812 314.84375 M 177.535156 324.144531 L 185.164062 316.300781 L 186.472656 317.871094 L 183.476562 320.945312 L 185.277344 323.109375 L 188.273438 320.035156 L 189.578125 321.601562 L 181.949219 329.445312 L 180.640625 327.875 L 184.101562 324.320312 L 182.300781 322.15625 L 178.839844 325.710938 L 177.535156 324.144531 M 187.5 328.785156 L 188.738281 329.992188 L 190.988281 325.742188 L 187.5 328.785156 M 182.660156 330.234375 L 191.273438 323.265625 L 193.226562 325.171875 L 188.148438 335.582031 L 186.582031 334.054688 L 187.917969 331.5 L 186.242188 329.867188 L 184.144531 331.683594 L 182.660156 330.234375 M 190.175781 337.214844 L 195.308594 329.441406 L 193.511719 327.976562 L 194.523438 326.441406 L 199.679688 330.640625 L 198.664062 332.175781 L 196.867188 330.710938 L 191.734375 338.488281 L 190.175781 337.214844 M 194.390625 340.585938 L 199.804688 330.726562 L 201.445312 331.84375 L 199.320312 335.707031 L 201.585938 337.242188 L 203.710938 333.378906 L 205.351562 334.492188 L 199.9375 344.347656 L 198.296875 343.234375 L 200.75 338.765625 L 198.484375 337.230469 L 196.03125 341.699219 L 194.390625 340.585938 M 204.566406 347.027344 L 208.9375 336.546875 L 213.867188 339.085938 L 213.152344 340.800781 L 209.980469 339.167969 L 208.945312 341.644531 L 211.941406 343.1875 L 211.242188 344.859375 L 208.25 343.320312 L 206.324219 347.933594 L 204.566406 347.027344 M 214.207031 345.4375 C 213.601562 347.210938 213.3125 348.371094 213.339844 348.910156 C 213.371094 349.449219 213.640625 349.824219 214.144531 350.039062 C 214.640625 350.246094 215.054688 350.164062 215.390625 349.792969 C 215.730469 349.417969 216.207031 348.332031 216.820312 346.539062 C 217.433594 344.742188 217.726562 343.578125 217.695312 343.042969 C 217.667969 342.503906 217.402344 342.132812 216.902344 341.921875 C 216.402344 341.710938 215.980469 341.792969 215.640625 342.171875 C 215.296875 342.554688 214.820312 343.640625 214.207031 345.4375 M 212.359375 344.65625 C 212.75 343.511719 213.109375 342.617188 213.441406 341.976562 C 213.773438 341.328125 214.101562 340.878906 214.425781 340.617188 C 214.875 340.246094 215.328125 340.039062 215.792969 339.992188 C 216.257812 339.945312 216.808594 340.058594 217.445312 340.328125 C 218.085938 340.597656 218.566406 340.921875 218.886719 341.296875 C 219.203125 341.671875 219.421875 342.164062 219.542969 342.777344 C 219.625 343.21875 219.597656 343.800781 219.457031 344.523438 C 219.320312 345.246094 219.058594 346.175781 218.667969 347.316406 C 218.28125 348.453125 217.921875 349.34375 217.589844 349.988281 C 217.261719 350.632812 216.933594 351.085938 216.609375 351.359375 C 216.15625 351.726562 215.699219 351.9375 215.234375 351.980469 C 214.773438 352.027344 214.222656 351.914062 213.582031 351.644531 C 212.941406 351.375 212.460938 351.050781 212.144531 350.675781 C 211.824219 350.300781 211.605469 349.808594 211.492188 349.199219 C 211.40625 348.765625 211.429688 348.1875 211.566406 347.464844 C 211.703125 346.738281 211.96875 345.800781 212.359375 344.65625 M 221.296875 342.203125 L 223.15625 342.816406 L 221.15625 350.277344 C 220.925781 351.128906 220.863281 351.742188 220.96875 352.109375 C 221.078125 352.472656 221.371094 352.734375 221.847656 352.894531 C 222.324219 353.050781 222.691406 353.003906 222.957031 352.757812 C 223.222656 352.511719 223.472656 351.957031 223.707031 351.089844 L 225.695312 343.660156 L 227.527344 344.265625 L 225.480469 351.902344 C 225.28125 352.648438 225.097656 353.175781 224.925781 353.496094 C 224.761719 353.8125 224.558594 354.070312 224.3125 354.269531 C 223.9375 354.570312 223.507812 354.746094 223.015625 354.796875 C 222.523438 354.84375 221.976562 354.765625 221.371094 354.566406 C 220.234375 354.191406 219.503906 353.652344 219.179688 352.949219 C 218.863281 352.242188 218.886719 351.207031 219.25 349.84375 L 221.296875 342.203125 M 226.269531 355.820312 L 228.539062 344.550781 L 230.484375 345.035156 L 231.535156 353.574219 L 233.070312 345.679688 L 234.855469 346.121094 L 232.585938 357.390625 L 230.65625 356.910156 L 229.585938 348.355469 L 228.046875 356.261719 L 226.269531 355.820312 M 236.429688 356.394531 L 237.277344 356.542969 C 237.707031 356.617188 238.015625 356.636719 238.199219 356.597656 C 238.382812 356.558594 238.535156 356.464844 238.660156 356.3125 C 238.882812 356.046875 239.066406 355.664062 239.214844 355.164062 C 239.363281 354.660156 239.515625 353.835938 239.675781 352.703125 C 239.832031 351.59375 239.902344 350.78125 239.882812 350.261719 C 239.867188 349.742188 239.769531 349.335938 239.589844 349.042969 C 239.496094 348.894531 239.367188 348.78125 239.195312 348.703125 C 239.027344 348.617188 238.757812 348.542969 238.386719 348.476562 L 237.566406 348.335938 L 236.429688 356.394531 M 234.320312 357.75 L 235.925781 346.339844 L 239 346.875 C 239.628906 346.984375 240.117188 347.132812 240.46875 347.3125 C 240.828125 347.496094 241.105469 347.742188 241.308594 348.050781 C 241.613281 348.503906 241.796875 349.042969 241.859375 349.664062 C 241.925781 350.285156 241.871094 351.222656 241.695312 352.476562 C 241.46875 354.097656 241.253906 355.234375 241.058594 355.886719 C 240.863281 356.535156 240.609375 357.074219 240.296875 357.5 C 239.996094 357.929688 239.621094 358.199219 239.171875 358.3125 C 238.730469 358.425781 237.988281 358.390625 236.953125 358.207031 L 234.320312 357.75 M 242.359375 359.074219 L 243.359375 347.578125 L 248.671875 348.148438 L 248.503906 350.058594 L 245.105469 349.695312 L 244.875 352.351562 L 248.039062 352.691406 L 247.882812 354.511719 L 244.71875 354.171875 L 244.441406 357.335938 L 247.921875 357.710938 L 247.753906 359.652344 L 242.359375 359.074219 M 251.140625 358.140625 L 251.996094 358.175781 C 252.429688 358.195312 252.738281 358.171875 252.914062 358.109375 C 253.09375 358.046875 253.238281 357.929688 253.347656 357.765625 C 253.535156 357.472656 253.675781 357.066406 253.769531 356.550781 C 253.863281 356.03125 253.929688 355.195312 253.964844 354.046875 C 254.003906 352.925781 253.984375 352.109375 253.910156 351.597656 C 253.835938 351.082031 253.695312 350.691406 253.488281 350.425781 C 253.382812 350.289062 253.238281 350.195312 253.058594 350.136719 C 252.886719 350.074219 252.609375 350.035156 252.234375 350.019531 L 251.402344 349.988281 L 251.140625 358.140625 M 249.1875 359.765625 L 249.5625 348.226562 L 252.671875 348.351562 C 253.304688 348.375 253.808594 348.457031 254.175781 348.589844 C 254.550781 348.726562 254.855469 348.933594 255.089844 349.214844 C 255.441406 349.621094 255.679688 350.132812 255.808594 350.742188 C 255.941406 351.347656 255.988281 352.285156 255.949219 353.554688 C 255.894531 355.195312 255.804688 356.351562 255.679688 357.027344 C 255.554688 357.695312 255.359375 358.261719 255.097656 358.726562 C 254.84375 359.195312 254.5 359.511719 254.066406 359.683594 C 253.636719 359.851562 252.898438 359.917969 251.851562 359.875 L 249.1875 359.765625 M 260.765625 359.917969 L 260.351562 348.378906 L 262.289062 348.292969 L 262.703125 359.832031 L 260.765625 359.917969 M 265.933594 359.613281 L 265.226562 350.003906 L 263.003906 350.207031 L 262.863281 348.308594 L 269.234375 347.726562 L 269.375 349.625 L 267.15625 349.828125 L 267.867188 359.4375 L 265.933594 359.613281 M 272.753906 347.230469 L 274.664062 346.863281 L 275.863281 354.53125 C 276 355.410156 276.1875 355.988281 276.429688 356.265625 C 276.671875 356.539062 277.039062 356.625 277.53125 356.53125 C 278.019531 356.4375 278.332031 356.214844 278.46875 355.863281 C 278.609375 355.511719 278.609375 354.890625 278.472656 354 L 277.277344 346.359375 L 279.15625 345.996094 L 280.386719 353.847656 C 280.503906 354.613281 280.554688 355.179688 280.527344 355.550781 C 280.507812 355.914062 280.429688 356.246094 280.289062 356.546875 C 280.074219 357 279.757812 357.371094 279.339844 357.660156 C 278.917969 357.945312 278.394531 358.144531 277.773438 358.265625 C 276.605469 358.492188 275.734375 358.371094 275.164062 357.902344 C 274.597656 357.429688 274.203125 356.488281 273.984375 355.085938 L 272.753906 347.230469 M 283.09375 350.160156 L 283.882812 349.949219 C 284.46875 349.789062 284.851562 349.550781 285.03125 349.234375 C 285.210938 348.914062 285.234375 348.445312 285.097656 347.828125 C 284.960938 347.207031 284.757812 346.804688 284.488281 346.628906 C 284.21875 346.441406 283.78125 346.433594 283.175781 346.597656 L 282.363281 346.816406 L 283.09375 350.160156 M 282.660156 356.960938 L 280.203125 345.742188 L 283.46875 344.859375 C 284.464844 344.585938 285.234375 344.640625 285.78125 345.019531 C 286.328125 345.394531 286.722656 346.148438 286.972656 347.273438 C 287.214844 348.382812 287.160156 349.269531 286.8125 349.941406 C 286.46875 350.605469 285.816406 351.066406 284.859375 351.328125 L 283.488281 351.699219 L 284.53125 356.457031 L 282.660156 356.960938 M 290.085938 348.832031 C 290.601562 350.640625 291.019531 351.75 291.34375 352.15625 C 291.671875 352.554688 292.089844 352.664062 292.605469 352.480469 C 293.113281 352.304688 293.390625 351.953125 293.445312 351.429688 C 293.503906 350.902344 293.269531 349.722656 292.746094 347.890625 C 292.226562 346.0625 291.804688 344.949219 291.480469 344.546875 C 291.160156 344.144531 290.742188 344.035156 290.234375 344.214844 C 289.722656 344.394531 289.4375 344.753906 289.382812 345.285156 C 289.328125 345.820312 289.5625 347 290.085938 348.832031 M 288.199219 349.496094 C 287.867188 348.328125 287.648438 347.378906 287.550781 346.648438 C 287.449219 345.914062 287.453125 345.332031 287.5625 344.90625 C 287.707031 344.304688 287.949219 343.824219 288.285156 343.46875 C 288.621094 343.117188 289.117188 342.824219 289.769531 342.59375 C 290.421875 342.363281 290.976562 342.285156 291.4375 342.359375 C 291.898438 342.433594 292.34375 342.667969 292.777344 343.066406 C 293.09375 343.355469 293.394531 343.832031 293.6875 344.492188 C 293.984375 345.152344 294.300781 346.066406 294.632812 347.226562 C 294.964844 348.386719 295.179688 349.332031 295.28125 350.066406 C 295.378906 350.796875 295.378906 351.382812 295.277344 351.816406 C 295.128906 352.417969 294.886719 352.898438 294.546875 353.253906 C 294.210938 353.609375 293.714844 353.902344 293.0625 354.128906 C 292.410156 354.359375 291.855469 354.4375 291.394531 354.363281 C 290.933594 354.289062 290.488281 354.054688 290.058594 353.65625 C 289.75 353.375 289.445312 352.90625 289.148438 352.246094 C 288.847656 351.578125 288.53125 350.664062 288.199219 349.496094 M 297.699219 352.136719 L 293.832031 341.414062 L 295.679688 340.59375 L 300.898438 346.96875 L 298.144531 339.496094 L 299.839844 338.738281 L 303.707031 349.460938 L 301.871094 350.277344 L 296.632812 343.894531 L 299.390625 351.382812 L 297.699219 352.136719 M 309.738281 346.222656 L 305.683594 337.695312 L 303.714844 338.851562 L 302.914062 337.167969 L 308.5625 333.851562 L 309.363281 335.535156 L 307.394531 336.691406 L 311.449219 345.214844 L 309.738281 346.222656 M 314.3125 343.496094 L 308.761719 333.730469 L 310.390625 332.589844 L 312.566406 336.417969 L 314.808594 334.84375 L 312.632812 331.015625 L 314.257812 329.875 L 319.808594 339.636719 L 318.183594 340.78125 L 315.667969 336.355469 L 313.421875 337.925781 L 315.9375 342.351562 L 314.3125 343.496094 M 321.246094 338.5 L 314.980469 329.285156 L 319.242188 325.710938 L 320.285156 327.242188 L 317.558594 329.527344 L 319.007812 331.660156 L 321.542969 329.53125 L 322.535156 330.992188 L 320 333.121094 L 321.722656 335.65625 L 324.511719 333.316406 L 325.570312 334.871094 L 321.246094 338.5 M 326.59375 328.589844 L 327.972656 327.082031 L 328.441406 327.613281 C 328.890625 328.117188 329.253906 328.402344 329.527344 328.464844 C 329.804688 328.523438 330.082031 328.398438 330.363281 328.09375 C 330.652344 327.773438 330.804688 327.449219 330.808594 327.121094 C 330.816406 326.789062 330.679688 326.460938 330.394531 326.140625 C 330.179688 325.894531 329.941406 325.742188 329.679688 325.683594 C 329.414062 325.621094 328.984375 325.644531 328.386719 325.75 L 327.1875 325.96875 C 326.160156 326.164062 325.429688 326.199219 324.988281 326.074219 C 324.554688 325.945312 324.132812 325.648438 323.722656 325.1875 C 323.109375 324.492188 322.816406 323.75 322.839844 322.957031 C 322.859375 322.160156 323.195312 321.410156 323.84375 320.699219 C 324.53125 319.949219 325.242188 319.585938 325.976562 319.601562 C 326.710938 319.621094 327.421875 320.019531 328.113281 320.800781 C 328.183594 320.878906 328.234375 320.941406 328.269531 320.988281 C 328.308594 321.03125 328.339844 321.070312 328.363281 321.105469 L 327.054688 322.535156 L 326.863281 322.316406 C 326.46875 321.871094 326.121094 321.621094 325.816406 321.574219 C 325.515625 321.523438 325.214844 321.664062 324.910156 321.996094 C 324.691406 322.238281 324.582031 322.5 324.582031 322.785156 C 324.582031 323.066406 324.695312 323.335938 324.921875 323.589844 C 325.230469 323.9375 325.851562 324.011719 326.792969 323.808594 C 326.800781 323.808594 326.808594 323.804688 326.816406 323.804688 L 328.082031 323.546875 C 328.980469 323.355469 329.679688 323.332031 330.1875 323.476562 C 330.691406 323.621094 331.1875 323.964844 331.671875 324.515625 C 332.335938 325.265625 332.65625 326.050781 332.628906 326.878906 C 332.601562 327.707031 332.234375 328.511719 331.515625 329.292969 C 330.773438 330.105469 330.027344 330.496094 329.285156 330.46875 C 328.542969 330.4375 327.785156 329.980469 327.007812 329.105469 C 326.925781 329.011719 326.796875 328.851562 326.621094 328.625 L 326.59375 328.59375 M 334.636719 325.347656 L 326.667969 317.929688 L 330.097656 313.382812 L 331.421875 314.617188 L 329.230469 317.527344 L 331.070312 319.242188 L 333.113281 316.535156 L 334.375 317.707031 L 332.332031 320.414062 L 334.527344 322.457031 L 336.769531 319.480469 L 338.117188 320.734375 L 334.636719 325.347656 M 336.65625 315.007812 L 337.578125 313.492188 L 333.5 311.550781 L 336.65625 315.007812 M 338.5625 320.160156 L 331.253906 311.550781 L 332.703125 309.15625 L 342.644531 313.429688 L 341.480469 315.351562 L 339.027344 314.203125 L 337.78125 316.257812 L 339.667969 318.339844 L 338.5625 320.160156 M 339.796875 310.769531 L 340.683594 308.855469 L 341.277344 309.195312 C 341.84375 309.519531 342.269531 309.664062 342.550781 309.625 C 342.828125 309.582031 343.054688 309.367188 343.234375 308.980469 C 343.421875 308.574219 343.472656 308.214844 343.382812 307.902344 C 343.296875 307.582031 343.074219 307.320312 342.714844 307.117188 C 342.441406 306.957031 342.167969 306.898438 341.90625 306.929688 C 341.636719 306.964844 341.234375 307.136719 340.695312 307.445312 L 339.617188 308.070312 C 338.699219 308.613281 338.015625 308.902344 337.5625 308.9375 C 337.113281 308.96875 336.628906 308.835938 336.109375 308.539062 C 335.332031 308.097656 334.84375 307.492188 334.640625 306.730469 C 334.433594 305.96875 334.539062 305.136719 334.957031 304.238281 C 335.394531 303.289062 335.96875 302.691406 336.667969 302.453125 C 337.371094 302.210938 338.160156 302.34375 339.039062 302.84375 C 339.125 302.894531 339.191406 302.933594 339.238281 302.964844 C 339.289062 302.992188 339.328125 303.019531 339.363281 303.042969 L 338.523438 304.859375 L 338.277344 304.71875 C 337.777344 304.433594 337.375 304.320312 337.078125 304.378906 C 336.777344 304.4375 336.527344 304.675781 336.335938 305.09375 C 336.195312 305.402344 336.164062 305.691406 336.246094 305.960938 C 336.324219 306.226562 336.511719 306.441406 336.796875 306.605469 C 337.1875 306.828125 337.796875 306.679688 338.636719 306.160156 C 338.644531 306.15625 338.648438 306.152344 338.65625 306.148438 L 339.785156 305.460938 C 340.582031 304.964844 341.242188 304.699219 341.765625 304.660156 C 342.285156 304.617188 342.851562 304.773438 343.46875 305.125 C 344.308594 305.605469 344.835938 306.242188 345.042969 307.035156 C 345.253906 307.828125 345.128906 308.722656 344.671875 309.714844 C 344.195312 310.746094 343.597656 311.378906 342.882812 311.613281 C 342.171875 311.839844 341.324219 311.671875 340.339844 311.113281 C 340.234375 311.050781 340.066406 310.945312 339.835938 310.789062 L 339.796875 310.769531 "/>
</g>
</svg>
