<?xml version="1.0" encoding="UTF-8"?>
<svg xmlns="http://www.w3.org/2000/svg" xmlns:xlink="http://www.w3.org/1999/xlink" width="384pt" height="384pt" viewBox="0 0 384 384" version="1.1">
<g id="surface1">
<rect x="0" y="0" width="384" height="384" style="fill:rgb(43.529412%,86.27451%,100%);fill-opacity:1;stroke:none;"/>
<path style=" stroke:none;fill-rule:evenodd;fill:rgb(100%,89.411765%,0%);fill-opacity:1;" d="M 32.242188 373.445312 C 34.84375 375.992188 33.988281 380.277344 41.222656 379.726562 C 52.265625 379.726562 52.585938 372.972656 52.585938 368.253906 C 52.585938 363.542969 36.128906 356.953125 35.371094 350.023438 C 34.601562 343.085938 39.167969 341.148438 42.988281 341.148438 C 46.789062 341.148438 49.457031 343.367188 49.457031 345.304688 C 49.457031 347.242188 47.554688 347.800781 44.890625 347.800781 C 42.222656 347.800781 46.03125 346.417969 43.746094 345.304688 C 41.464844 344.195312 39.9375 346.96875 39.9375 348.636719 C 39.9375 350.300781 45.644531 350.851562 49.457031 349.605469 C 50.222656 353.347656 50.597656 353.632812 45.261719 360.003906 C 49.082031 357.503906 49.445312 356.953125 53.648438 358.339844 C 49.457031 354.734375 52.597656 347.386719 52.738281 345.515625 C 52.882812 343.644531 51.9375 341.421875 50.222656 340.3125 C 47.171875 337.539062 40.507812 337.414062 36.511719 339.203125 C 30.695312 341.796875 30.40625 349.457031 31.933594 351.960938 L 48.0625 368.496094 C 49.203125 370.441406 49.597656 375.84375 42.746094 376.117188 C 35.511719 376.671875 33.03125 366.808594 31.746094 363.527344 C 30.023438 367.109375 28.101562 376.996094 20.867188 376.445312 C 14.007812 376.167969 12.6875 370.765625 13.832031 368.820312 L 30.398438 351.960938 C 31.914062 349.457031 31.625 341.796875 25.808594 339.203125 C 21.8125 337.414062 15.160156 337.539062 12.105469 340.3125 C 10.394531 341.421875 9.4375 343.644531 9.582031 345.515625 C 9.726562 347.386719 12.863281 354.734375 8.671875 358.339844 C 12.875 356.953125 13.25 357.503906 17.058594 360.003906 C 11.722656 353.632812 12.105469 353.347656 12.863281 349.605469 C 16.675781 350.851562 22.394531 350.300781 22.394531 348.636719 C 22.394531 346.96875 20.855469 344.195312 18.574219 345.304688 C 16.300781 346.417969 20.097656 347.800781 17.441406 347.800781 C 14.765625 347.800781 12.863281 347.242188 12.863281 345.304688 C 12.863281 343.367188 15.53125 341.148438 19.34375 341.148438 C 23.152344 341.148438 27.71875 343.085938 26.949219 350.023438 C 26.191406 356.953125 9.308594 364.519531 9.308594 369.230469 C 9.308594 373.949219 10.480469 379.726562 21.527344 379.726562 C 28.761719 380.277344 29.617188 375.992188 32.242188 373.445312 Z M 32.242188 373.445312 "/>
<path style=" stroke:none;fill-rule:evenodd;fill:rgb(100%,89.411765%,0%);fill-opacity:1;" d="M 31.363281 274.492188 C 33.964844 271.945312 36.105469 264.398438 43.339844 264.949219 C 54.386719 264.949219 58.566406 271.054688 58.566406 275.769531 C 58.566406 280.480469 36.105469 319.035156 35.347656 325.964844 C 34.582031 332.90625 39.148438 334.84375 42.96875 334.84375 C 46.765625 334.84375 49.433594 332.621094 49.433594 330.683594 C 49.433594 328.746094 47.535156 328.1875 44.867188 328.1875 C 42.199219 328.1875 46.007812 329.574219 43.726562 330.683594 C 41.441406 331.792969 39.914062 329.023438 39.914062 327.351562 C 39.914062 325.691406 45.625 325.140625 49.433594 326.382812 C 50.203125 322.640625 50.574219 322.359375 45.242188 315.988281 C 49.0625 318.484375 49.421875 319.035156 53.628906 317.648438 C 49.433594 321.257812 52.574219 328.605469 52.714844 330.476562 C 52.859375 332.34375 51.914062 334.566406 50.203125 335.675781 C 47.152344 338.449219 40.488281 338.574219 36.492188 336.789062 C 30.671875 334.191406 30.386719 326.535156 31.914062 324.027344 L 53.617188 277.15625 C 54.757812 275.210938 51.71875 268.832031 44.867188 268.554688 C 37.632812 268.003906 35.152344 275.585938 33.867188 278.867188 L 43.726562 278.152344 C 43.726562 278.152344 44.109375 279.671875 43.726562 280.65625 C 38.632812 280.988281 33.867188 281.917969 33.867188 281.917969 L 33.492188 286.910156 L 38.355469 286.910156 L 37.972656 289.125 C 37.972656 289.125 33.867188 288.847656 33.492188 289.125 C 33.109375 289.398438 32.726562 294.125 32.726562 294.125 C 32.726562 294.125 31.96875 294.402344 31.144531 294.402344 C 30.308594 294.402344 29.550781 294.125 29.550781 294.125 C 29.550781 294.125 29.167969 289.398438 28.792969 289.125 C 28.410156 288.847656 24.304688 289.125 24.304688 289.125 L 23.929688 286.910156 L 28.792969 286.910156 L 28.410156 281.917969 C 28.410156 281.917969 23.644531 280.988281 18.550781 280.65625 C 18.179688 279.671875 18.550781 278.152344 18.550781 278.152344 L 28.410156 278.867188 C 27.125 275.585938 24.644531 268.003906 17.421875 268.554688 C 10.558594 268.832031 7.519531 275.210938 8.660156 277.15625 L 30.375 324.027344 C 31.890625 326.535156 31.605469 334.191406 25.785156 336.789062 C 21.789062 338.574219 15.136719 338.449219 12.085938 335.675781 C 10.371094 334.566406 9.417969 332.34375 9.558594 330.476562 C 9.703125 328.605469 12.84375 321.257812 8.648438 317.648438 C 12.855469 319.035156 13.226562 318.484375 17.035156 315.988281 C 11.699219 322.359375 12.085938 322.640625 12.84375 326.382812 C 16.652344 325.140625 22.371094 325.691406 22.371094 327.351562 C 22.371094 329.023438 20.835938 331.792969 18.550781 330.683594 C 16.277344 329.574219 20.078125 328.1875 17.421875 328.1875 C 14.742188 328.1875 12.84375 328.746094 12.84375 330.683594 C 12.84375 332.621094 15.511719 334.84375 19.320312 334.84375 C 23.128906 334.84375 27.695312 332.90625 26.929688 325.964844 C 26.171875 319.035156 3.707031 280.480469 3.707031 275.769531 C 3.707031 271.054688 7.890625 264.949219 18.9375 264.949219 C 26.171875 264.398438 28.738281 271.945312 31.363281 274.492188 Z M 31.363281 274.492188 "/>
<path style=" stroke:none;fill-rule:evenodd;fill:rgb(100%,89.411765%,0%);fill-opacity:1;" d="M 31.363281 255.386719 C 33.964844 257.933594 36.105469 265.484375 43.339844 264.933594 C 54.386719 264.933594 58.566406 258.828125 58.566406 254.109375 C 58.566406 249.398438 36.105469 210.847656 35.347656 203.914062 C 34.578125 196.976562 39.148438 195.039062 42.96875 195.039062 C 46.765625 195.039062 49.433594 197.257812 49.433594 199.195312 C 49.433594 201.132812 47.535156 201.695312 44.867188 201.695312 C 42.199219 201.695312 46.007812 200.308594 43.726562 199.195312 C 41.441406 198.085938 39.914062 200.859375 39.914062 202.527344 C 39.914062 204.191406 45.625 204.742188 49.433594 203.496094 C 50.203125 207.238281 50.574219 207.523438 45.238281 213.894531 C 49.0625 211.398438 49.421875 210.847656 53.628906 212.230469 C 49.433594 208.625 52.574219 201.277344 52.714844 199.40625 C 52.859375 197.535156 51.914062 195.3125 50.203125 194.203125 C 47.152344 191.429688 40.488281 191.304688 36.492188 193.09375 C 30.671875 195.691406 30.386719 203.347656 31.914062 205.851562 L 53.617188 252.722656 C 54.757812 254.667969 51.71875 261.050781 44.867188 261.324219 C 37.632812 261.875 35.152344 254.292969 33.867188 251.011719 L 43.726562 251.730469 C 43.726562 251.730469 44.109375 250.210938 43.726562 249.226562 C 38.632812 248.890625 33.867188 247.964844 33.867188 247.964844 L 33.492188 242.96875 L 38.355469 242.96875 L 37.972656 240.757812 C 37.972656 240.757812 33.867188 241.03125 33.492188 240.757812 C 33.109375 240.480469 32.726562 235.753906 32.726562 235.753906 C 32.726562 235.753906 31.96875 235.480469 31.144531 235.480469 C 30.308594 235.480469 29.550781 235.753906 29.550781 235.753906 C 29.550781 235.753906 29.167969 240.480469 28.792969 240.757812 C 28.410156 241.03125 24.304688 240.757812 24.304688 240.757812 L 23.929688 242.96875 L 28.792969 242.96875 L 28.410156 247.964844 C 28.410156 247.964844 23.644531 248.890625 18.550781 249.226562 C 18.179688 250.210938 18.550781 251.730469 18.550781 251.730469 L 28.410156 251.011719 C 27.125 254.292969 24.644531 261.875 17.421875 261.324219 C 10.558594 261.050781 7.519531 254.667969 8.660156 252.722656 L 30.375 205.851562 C 31.890625 203.347656 31.605469 195.691406 25.785156 193.09375 C 21.789062 191.304688 15.136719 191.429688 12.085938 194.203125 C 10.371094 195.3125 9.417969 197.535156 9.558594 199.40625 C 9.703125 201.277344 12.84375 208.625 8.648438 212.230469 C 12.855469 210.847656 13.226562 211.398438 17.035156 213.894531 C 11.699219 207.523438 12.085938 207.238281 12.84375 203.496094 C 16.652344 204.742188 22.371094 204.191406 22.371094 202.527344 C 22.371094 200.859375 20.835938 198.085938 18.550781 199.195312 C 16.277344 200.308594 20.078125 201.695312 17.421875 201.695312 C 14.742188 201.695312 12.84375 201.132812 12.84375 199.195312 C 12.84375 197.257812 15.511719 195.039062 19.320312 195.039062 C 23.128906 195.039062 27.695312 196.976562 26.929688 203.914062 C 26.171875 210.847656 3.707031 249.398438 3.707031 254.109375 C 3.707031 258.828125 7.890625 264.933594 18.9375 264.933594 C 26.171875 265.484375 28.738281 257.933594 31.363281 255.386719 Z M 31.363281 255.386719 "/>
<path style=" stroke:none;fill-rule:evenodd;fill:rgb(100%,89.411765%,0%);fill-opacity:1;" d="M 31.363281 128.359375 C 33.964844 125.8125 36.105469 118.265625 43.339844 118.816406 C 54.386719 118.816406 58.566406 124.917969 58.566406 129.636719 C 58.566406 134.347656 36.105469 172.902344 35.347656 179.832031 C 34.582031 186.769531 39.148438 188.707031 42.96875 188.707031 C 46.765625 188.707031 49.433594 186.488281 49.433594 184.550781 C 49.433594 182.613281 47.535156 182.054688 44.867188 182.054688 C 42.199219 182.054688 46.007812 183.441406 43.726562 184.550781 C 41.441406 185.660156 39.914062 182.886719 39.914062 181.21875 C 39.914062 179.554688 45.625 179.003906 49.433594 180.25 C 50.203125 176.507812 50.574219 176.226562 45.242188 169.851562 C 49.0625 172.351562 49.421875 172.902344 53.628906 171.515625 C 49.433594 175.121094 52.574219 182.472656 52.714844 184.339844 C 52.859375 186.210938 51.914062 188.433594 50.203125 189.542969 C 47.152344 192.316406 40.488281 192.441406 36.492188 190.65625 C 30.671875 188.058594 30.386719 180.398438 31.914062 177.894531 L 53.617188 131.023438 C 54.757812 129.078125 51.71875 122.699219 44.867188 122.421875 C 37.632812 121.871094 35.152344 129.453125 33.867188 132.734375 L 43.726562 132.015625 C 43.726562 132.015625 44.109375 133.535156 43.726562 134.523438 C 38.632812 134.855469 33.867188 135.78125 33.867188 135.78125 L 33.492188 140.777344 L 38.355469 140.777344 L 37.972656 142.988281 C 37.972656 142.988281 33.867188 142.714844 33.492188 142.988281 C 33.109375 143.265625 32.726562 147.992188 32.726562 147.992188 C 32.726562 147.992188 31.96875 148.265625 31.144531 148.265625 C 30.308594 148.265625 29.550781 147.992188 29.550781 147.992188 C 29.550781 147.992188 29.167969 143.265625 28.792969 142.988281 C 28.410156 142.714844 24.304688 142.988281 24.304688 142.988281 L 23.929688 140.777344 L 28.792969 140.777344 L 28.410156 135.78125 C 28.410156 135.78125 23.644531 134.855469 18.550781 134.523438 C 18.179688 133.535156 18.550781 132.015625 18.550781 132.015625 L 28.410156 132.734375 C 27.125 129.453125 24.644531 121.871094 17.421875 122.421875 C 10.558594 122.699219 7.519531 129.078125 8.660156 131.023438 L 30.375 177.894531 C 31.890625 180.398438 31.605469 188.058594 25.785156 190.65625 C 21.789062 192.441406 15.136719 192.316406 12.085938 189.542969 C 10.371094 188.433594 9.417969 186.210938 9.558594 184.339844 C 9.703125 182.472656 12.84375 175.121094 8.648438 171.515625 C 12.855469 172.902344 13.226562 172.351562 17.035156 169.851562 C 11.699219 176.226562 12.085938 176.507812 12.84375 180.25 C 16.652344 179.003906 22.371094 179.554688 22.371094 181.21875 C 22.371094 182.886719 20.835938 185.660156 18.550781 184.550781 C 16.277344 183.441406 20.078125 182.054688 17.421875 182.054688 C 14.742188 182.054688 12.84375 182.613281 12.84375 184.550781 C 12.84375 186.488281 15.511719 188.707031 19.320312 188.707031 C 23.128906 188.707031 27.695312 186.769531 26.929688 179.832031 C 26.171875 172.902344 3.707031 134.347656 3.707031 129.636719 C 3.707031 124.917969 7.890625 118.816406 18.9375 118.816406 C 26.171875 118.265625 28.738281 125.8125 31.363281 128.359375 Z M 31.363281 128.359375 "/>
<path style=" stroke:none;fill-rule:evenodd;fill:rgb(100%,89.411765%,0%);fill-opacity:1;" d="M 31.363281 109.253906 C 33.964844 111.800781 36.105469 119.347656 43.339844 118.796875 C 54.386719 118.796875 58.566406 112.695312 58.566406 107.976562 C 58.566406 103.265625 36.105469 64.710938 35.347656 57.78125 C 34.578125 50.84375 39.148438 48.90625 42.96875 48.90625 C 46.765625 48.90625 49.433594 51.125 49.433594 53.0625 C 49.433594 55 47.535156 55.558594 44.867188 55.558594 C 42.199219 55.558594 46.007812 54.171875 43.726562 53.0625 C 41.441406 51.953125 39.914062 54.726562 39.914062 56.394531 C 39.914062 58.058594 45.625 58.609375 49.433594 57.363281 C 50.203125 61.105469 50.574219 61.386719 45.238281 67.761719 C 49.0625 65.261719 49.421875 64.710938 53.628906 66.097656 C 49.433594 62.492188 52.574219 55.140625 52.714844 53.273438 C 52.859375 51.402344 51.914062 49.179688 50.203125 48.070312 C 47.152344 45.296875 40.488281 45.171875 36.492188 46.957031 C 30.671875 49.554688 30.386719 57.214844 31.914062 59.71875 L 53.617188 106.589844 C 54.757812 108.535156 51.71875 114.914062 44.867188 115.191406 C 37.632812 115.742188 35.152344 108.160156 33.867188 104.878906 L 43.726562 105.597656 C 43.726562 105.597656 44.109375 104.078125 43.726562 103.089844 C 38.632812 102.757812 33.867188 101.828125 33.867188 101.828125 L 33.492188 96.835938 L 38.355469 96.835938 L 37.972656 94.625 C 37.972656 94.625 33.867188 94.898438 33.492188 94.625 C 33.109375 94.347656 32.726562 89.621094 32.726562 89.621094 C 32.726562 89.621094 31.96875 89.347656 31.144531 89.347656 C 30.308594 89.347656 29.550781 89.621094 29.550781 89.621094 C 29.550781 89.621094 29.167969 94.347656 28.792969 94.625 C 28.410156 94.898438 24.304688 94.625 24.304688 94.625 L 23.929688 96.835938 L 28.792969 96.835938 L 28.410156 101.828125 C 28.410156 101.828125 23.644531 102.757812 18.550781 103.089844 C 18.179688 104.078125 18.550781 105.597656 18.550781 105.597656 L 28.410156 104.878906 C 27.125 108.160156 24.644531 115.742188 17.421875 115.191406 C 10.558594 114.914062 7.519531 108.535156 8.660156 106.589844 L 30.375 59.71875 C 31.890625 57.214844 31.605469 49.554688 25.785156 46.957031 C 21.789062 45.171875 15.136719 45.296875 12.085938 48.070312 C 10.371094 49.179688 9.417969 51.402344 9.558594 53.273438 C 9.703125 55.140625 12.84375 62.492188 8.648438 66.097656 C 12.855469 64.710938 13.226562 65.261719 17.035156 67.761719 C 11.699219 61.386719 12.085938 61.105469 12.84375 57.363281 C 16.652344 58.609375 22.371094 58.058594 22.371094 56.394531 C 22.371094 54.726562 20.835938 51.953125 18.550781 53.0625 C 16.277344 54.171875 20.078125 55.558594 17.421875 55.558594 C 14.742188 55.558594 12.84375 55 12.84375 53.0625 C 12.84375 51.125 15.511719 48.90625 19.320312 48.90625 C 23.128906 48.90625 27.695312 50.84375 26.929688 57.78125 C 26.171875 64.710938 3.707031 103.265625 3.707031 107.976562 C 3.707031 112.695312 7.890625 118.796875 18.9375 118.796875 C 26.171875 119.347656 28.738281 111.800781 31.363281 109.253906 Z M 31.363281 109.253906 "/>
<path style=" stroke:none;fill-rule:evenodd;fill:rgb(100%,89.411765%,0%);fill-opacity:1;" d="M 32.242188 10.285156 C 34.84375 7.738281 33.988281 3.453125 41.222656 4.003906 C 52.265625 4.003906 52.585938 10.757812 52.585938 15.476562 C 52.585938 20.1875 36.128906 26.777344 35.371094 33.707031 C 34.601562 40.644531 39.167969 42.582031 42.988281 42.582031 C 46.789062 42.582031 49.457031 40.363281 49.457031 38.425781 C 49.457031 36.488281 47.554688 35.929688 44.886719 35.929688 C 42.222656 35.929688 46.03125 37.3125 43.746094 38.425781 C 41.464844 39.535156 39.9375 36.761719 39.9375 35.09375 C 39.9375 33.429688 45.644531 32.878906 49.457031 34.125 C 50.222656 30.382812 50.597656 30.097656 45.261719 23.726562 C 49.082031 26.226562 49.445312 26.777344 53.648438 25.390625 C 49.457031 28.996094 52.59375 36.34375 52.738281 38.214844 C 52.882812 40.085938 51.9375 42.308594 50.222656 43.417969 C 47.171875 46.191406 40.507812 46.316406 36.511719 44.527344 C 30.691406 41.933594 30.40625 34.273438 31.933594 31.769531 L 48.0625 15.234375 C 49.203125 13.289062 49.597656 7.886719 42.746094 7.613281 C 35.511719 7.058594 33.03125 16.921875 31.746094 20.203125 C 30.023438 16.621094 28.101562 6.734375 20.867188 7.285156 C 14.007812 7.5625 12.6875 12.964844 13.832031 14.910156 L 30.398438 31.769531 C 31.910156 34.273438 31.625 41.933594 25.808594 44.527344 C 21.8125 46.316406 15.160156 46.191406 12.105469 43.417969 C 10.394531 42.308594 9.4375 40.085938 9.582031 38.214844 C 9.722656 36.34375 12.863281 28.996094 8.671875 25.390625 C 12.875 26.777344 13.25 26.226562 17.058594 23.726562 C 11.722656 30.097656 12.105469 30.382812 12.863281 34.125 C 16.671875 32.878906 22.394531 33.429688 22.394531 35.09375 C 22.394531 36.761719 20.855469 39.535156 18.574219 38.425781 C 16.300781 37.3125 20.097656 35.929688 17.441406 35.929688 C 14.761719 35.929688 12.863281 36.488281 12.863281 38.425781 C 12.863281 40.363281 15.53125 42.582031 19.339844 42.582031 C 23.152344 42.582031 27.71875 40.644531 26.949219 33.707031 C 26.191406 26.777344 9.308594 19.210938 9.308594 14.5 C 9.308594 9.78125 10.480469 4.003906 21.527344 4.003906 C 28.761719 3.453125 29.617188 7.738281 32.242188 10.285156 Z M 32.242188 10.285156 "/>
<path style=" stroke:none;fill-rule:evenodd;fill:rgb(100%,89.411765%,0%);fill-opacity:1;" d="M 218.265625 108.335938 C 253.523438 108.335938 282.105469 135.417969 282.105469 168.824219 L 282.105469 168.828125 C 282.105469 202.230469 253.523438 229.3125 218.265625 229.3125 C 183.007812 229.3125 154.425781 202.230469 154.425781 168.828125 L 154.425781 168.824219 C 154.425781 135.417969 183.007812 108.335938 218.265625 108.335938 Z M 218.265625 108.335938 "/>
<path style=" stroke:none;fill-rule:evenodd;fill:rgb(100%,89.411765%,0%);fill-opacity:1;" d="M 215.203125 72.265625 C 214.675781 72.261719 211.804688 92.398438 210.695312 96.921875 C 209.703125 106.996094 224.246094 106.628906 221.867188 96.523438 L 215.207031 72.265625 Z M 215.203125 72.265625 "/>
<path style=" stroke:none;fill-rule:evenodd;fill:rgb(100%,89.411765%,0%);fill-opacity:1;" d="M 220.328125 267.15625 C 220.855469 267.199219 225.195312 247.296875 226.632812 242.855469 C 228.363281 232.875 213.824219 232.285156 215.457031 242.519531 Z M 220.328125 267.15625 "/>
<path style=" stroke:none;fill-rule:evenodd;fill:rgb(100%,89.411765%,0%);fill-opacity:1;" d="M 118.628906 168.457031 C 118.582031 168.957031 139.5625 173.164062 144.246094 174.550781 C 154.773438 176.234375 155.464844 162.464844 144.65625 163.964844 Z M 118.628906 168.457031 "/>
<path style=" stroke:none;fill-rule:evenodd;fill:rgb(100%,89.411765%,0%);fill-opacity:1;" d="M 322.417969 170.851562 C 322.441406 170.347656 301.292969 166.894531 296.554688 165.679688 C 285.964844 164.367188 285.878906 178.15625 296.613281 176.273438 Z M 322.417969 170.851562 "/>
<path style=" stroke:none;fill-rule:evenodd;fill:rgb(100%,89.411765%,0%);fill-opacity:1;" d="M 140.09375 104.730469 C 139.730469 105.097656 153.511719 120.667969 156.296875 124.492188 C 163.488281 131.96875 172.996094 121.53125 163.507812 116.398438 L 140.09375 104.726562 Z M 140.09375 104.730469 "/>
<path style=" stroke:none;fill-rule:evenodd;fill:rgb(100%,89.411765%,0%);fill-opacity:1;" d="M 298.460938 232.980469 C 298.789062 232.582031 283.632812 218.207031 280.507812 214.625 C 272.660156 207.765625 264.144531 218.945312 274.066406 223.285156 L 298.464844 232.980469 Z M 298.460938 232.980469 "/>
<path style=" stroke:none;fill-rule:evenodd;fill:rgb(100%,89.411765%,0%);fill-opacity:1;" d="M 171.726562 82.964844 C 171.246094 83.175781 177.703125 102.550781 178.734375 107.09375 C 182.363281 116.605469 195.359375 110.402344 188.660156 102.222656 Z M 171.726562 82.964844 "/>
<path style=" stroke:none;fill-rule:evenodd;fill:rgb(100%,89.411765%,0%);fill-opacity:1;" d="M 263.984375 257.21875 C 264.480469 257.042969 259.460938 237.289062 258.765625 232.6875 C 255.84375 222.960938 242.421875 228.292969 248.503906 236.894531 Z M 263.984375 257.21875 "/>
<path style=" stroke:none;fill-rule:evenodd;fill:rgb(100%,89.411765%,0%);fill-opacity:1;" d="M 286.621094 96.453125 C 286.238281 96.101562 269.585938 108.910156 265.507812 111.484375 C 257.5 118.175781 268.359375 127.351562 273.933594 118.445312 Z M 286.621094 96.453125 "/>
<path style=" stroke:none;fill-rule:evenodd;fill:rgb(100%,89.411765%,0%);fill-opacity:1;" d="M 149.429688 241.746094 C 149.785156 242.121094 167.335938 230.441406 171.59375 228.140625 C 180.074219 221.988281 169.910156 212.121094 163.699219 220.640625 Z M 149.429688 241.746094 "/>
<path style=" stroke:none;fill-rule:evenodd;fill:rgb(100%,89.411765%,0%);fill-opacity:1;" d="M 123.113281 133.621094 C 122.894531 134.078125 141.207031 144.65625 145.132812 147.4375 C 154.472656 152.34375 159.957031 139.574219 149.234375 137.582031 Z M 123.113281 133.621094 "/>
<path style=" stroke:none;fill-rule:evenodd;fill:rgb(100%,89.411765%,0%);fill-opacity:1;" d="M 313.550781 207.449219 C 313.804688 207.007812 296.3125 195.25 292.597656 192.21875 C 283.640625 186.707031 277.230469 199.085938 287.78125 201.777344 Z M 313.550781 207.449219 "/>
<path style=" stroke:none;fill-rule:evenodd;fill:rgb(100%,89.411765%,0%);fill-opacity:1;" d="M 253.027344 77.789062 C 252.535156 77.601562 242.097656 95.351562 239.320312 99.179688 C 234.511719 108.210938 248.195312 112.90625 249.875 102.675781 Z M 253.027344 77.789062 "/>
<path style=" stroke:none;fill-rule:evenodd;fill:rgb(100%,89.411765%,0%);fill-opacity:1;" d="M 182.640625 260.976562 C 183.117188 261.199219 194.828125 244.175781 197.882812 240.539062 C 203.339844 231.847656 190.035156 226.265625 187.609375 236.359375 Z M 182.640625 260.976562 "/>
<path style=" stroke:none;fill-rule:evenodd;fill:rgb(100%,89.411765%,0%);fill-opacity:1;" d="M 124.53125 209.011719 C 124.722656 209.480469 145.519531 204.519531 150.367188 203.816406 C 160.605469 200.945312 154.839844 188.289062 145.824219 194.136719 L 124.53125 209.007812 Z M 124.53125 209.011719 "/>
<path style=" stroke:none;fill-rule:evenodd;fill:rgb(100%,89.411765%,0%);fill-opacity:1;" d="M 313.597656 132.082031 C 313.441406 131.601562 292.328125 135.179688 287.441406 135.566406 C 277.019531 137.753906 281.839844 150.761719 291.265625 145.519531 Z M 313.597656 132.082031 "/>
<path style=" stroke:none;fill-rule:evenodd;fill:rgb(100%,89.411765%,0%);fill-opacity:1;" d="M 235.964844 73.589844 C 235.445312 73.484375 228.359375 92.660156 226.3125 96.882812 C 223.199219 106.558594 237.527344 108.972656 237.339844 98.621094 Z M 235.964844 73.589844 "/>
<path style=" stroke:none;fill-rule:evenodd;fill:rgb(100%,89.411765%,0%);fill-opacity:1;" d="M 199.613281 265.476562 C 200.121094 265.617188 208.597656 246.953125 210.949219 242.875 C 214.761719 233.425781 200.648438 230.078125 200.074219 240.414062 Z M 199.613281 265.476562 "/>
<path style=" stroke:none;fill-rule:evenodd;fill:rgb(100%,89.411765%,0%);fill-opacity:1;" d="M 192.285156 75.480469 C 191.765625 75.585938 193.722656 95.820312 193.710938 100.46875 C 195.121094 110.496094 209.210938 107.054688 204.507812 97.710938 L 192.289062 75.480469 Z M 192.285156 75.480469 "/>
<path style=" stroke:none;fill-rule:evenodd;fill:rgb(100%,89.411765%,0%);fill-opacity:1;" d="M 243.292969 264.34375 C 243.816406 264.273438 243.347656 243.957031 243.703125 239.324219 C 243.03125 229.226562 228.722656 231.734375 232.730469 241.363281 Z M 243.292969 264.34375 "/>
<path style=" stroke:none;fill-rule:evenodd;fill:rgb(100%,89.411765%,0%);fill-opacity:1;" d="M 156.121094 92.320312 C 155.683594 92.605469 165.695312 110.578125 167.566406 114.871094 C 172.929688 123.617188 184.546875 115.3125 176.414062 108.398438 Z M 156.121094 92.320312 "/>
<path style=" stroke:none;fill-rule:evenodd;fill:rgb(100%,89.411765%,0%);fill-opacity:1;" d="M 279.765625 248.144531 C 280.21875 247.886719 271.550781 229.300781 270 224.894531 C 265.289062 215.816406 253.09375 223.335938 260.699219 230.769531 Z M 279.765625 248.144531 "/>
<path style=" stroke:none;fill-rule:evenodd;fill:rgb(100%,89.411765%,0%);fill-opacity:1;" d="M 129.75 117.480469 C 129.453125 117.898438 145.597656 131.273438 148.96875 134.644531 C 157.285156 140.988281 164.988281 129.289062 154.78125 125.597656 Z M 129.75 117.480469 "/>
<path style=" stroke:none;fill-rule:evenodd;fill:rgb(100%,89.411765%,0%);fill-opacity:1;" d="M 305.390625 222.195312 C 305.71875 221.796875 290.597656 207.394531 287.480469 203.804688 C 279.644531 196.933594 271.105469 208.09375 281.015625 212.449219 Z M 305.390625 222.195312 "/>
<path style=" stroke:none;fill-rule:evenodd;fill:rgb(100%,89.411765%,0%);fill-opacity:1;" d="M 118.175781 148.898438 C 118.042969 149.382812 137.929688 156.984375 142.285156 159.121094 C 152.339844 162.515625 155.554688 149.070312 144.632812 148.761719 Z M 118.175781 148.898438 "/>
<path style=" stroke:none;fill-rule:evenodd;fill:rgb(100%,89.411765%,0%);fill-opacity:1;" d="M 318.78125 192.261719 C 318.953125 191.785156 299.667969 182.894531 295.480469 180.476562 C 285.695312 176.429688 281.503906 189.632812 292.378906 190.65625 Z M 318.78125 192.261719 "/>
<path style=" stroke:none;fill-rule:evenodd;fill:rgb(100%,89.411765%,0%);fill-opacity:1;" d="M 117.523438 187.46875 C 117.597656 187.96875 139.042969 187.667969 143.929688 188.035156 C 154.589844 187.46875 152.046875 173.894531 141.855469 177.625 Z M 117.523438 187.46875 "/>
<path style=" stroke:none;fill-rule:evenodd;fill:rgb(100%,89.411765%,0%);fill-opacity:1;" d="M 320.183594 153.726562 C 320.144531 153.226562 298.730469 152.117188 293.882812 151.425781 C 283.207031 151.289062 284.75 165 295.191406 161.949219 Z M 320.183594 153.726562 "/>
<path style=" stroke:none;fill-rule:evenodd;fill:rgb(100%,89.411765%,0%);fill-opacity:1;" d="M 135.886719 227.574219 C 136.179688 227.992188 155.328125 218.839844 159.894531 217.148438 C 169.226562 212.226562 160.675781 201.070312 153.230469 208.644531 Z M 135.886719 227.574219 "/>
<path style=" stroke:none;fill-rule:evenodd;fill:rgb(100%,89.411765%,0%);fill-opacity:1;" d="M 302.609375 113.324219 C 302.34375 112.890625 282.570312 120.753906 277.894531 122.144531 C 268.226562 126.441406 275.9375 138.132812 283.921875 131.066406 Z M 302.609375 113.324219 "/>
<path style=" stroke:none;fill-rule:evenodd;fill:rgb(100%,89.411765%,0%);fill-opacity:1;" d="M 167.121094 254.078125 C 167.570312 254.347656 181.277344 238.722656 184.75 235.441406 C 191.234375 227.40625 178.695312 220.402344 175.058594 230.164062 Z M 167.121094 254.078125 "/>
<path style=" stroke:none;fill-rule:evenodd;fill:rgb(100%,89.411765%,0%);fill-opacity:1;" d="M 271.90625 86.296875 C 271.476562 85.996094 256.660156 100.683594 252.953125 103.726562 C 245.898438 111.320312 257.890625 119.128906 262.238281 109.628906 Z M 271.90625 86.296875 "/>
<path style=" stroke:none;fill-rule:evenodd;fill:rgb(100%,89.411765%,0%);fill-opacity:1;" d="M 120.714844 209.109375 C 121.738281 212.976562 121.992188 234.730469 145.011719 255.523438 C 168.027344 276.3125 207.160156 280.90625 207.160156 280.90625 C 207.160156 280.90625 207.414062 283.808594 204.601562 284.046875 C 201.785156 284.292969 188.488281 281.632812 181.839844 279.699219 C 175.1875 277.761719 169.308594 274.378906 168.539062 274.621094 C 167.773438 274.863281 166.496094 277.039062 164.449219 276.796875 C 162.402344 276.554688 152.941406 267.125 148.847656 264.707031 C 144.757812 262.292969 130.945312 248.027344 126.34375 241.019531 C 121.738281 234.007812 120.714844 229.414062 119.179688 229.414062 C 117.644531 229.414062 112.277344 232.796875 112.277344 232.796875 C 112.277344 232.796875 107.414062 225.789062 103.070312 214.667969 C 98.722656 203.546875 99.230469 197.019531 100.253906 196.535156 C 101.277344 196.050781 101.277344 204.753906 104.601562 212.734375 C 107.929688 220.710938 112.53125 223.128906 112.53125 223.128906 C 112.53125 223.128906 109.460938 219.019531 107.160156 208.625 C 104.859375 198.226562 104.089844 188.316406 105.625 185.175781 C 107.160156 182.03125 108.695312 181.066406 108.949219 181.304688 C 109.207031 181.546875 106.136719 186.140625 108.183594 197.988281 C 110.230469 209.832031 116.113281 219.984375 117.390625 219.5 C 118.667969 219.019531 116.621094 216.601562 115.601562 209.589844 C 114.578125 202.582031 116.621094 198.226562 118.414062 197.746094 C 119.179688 197.019531 120.460938 205.480469 120.714844 209.109375 Z M 120.714844 209.109375 "/>
<path style=" stroke:none;fill-rule:evenodd;fill:rgb(100%,89.411765%,0%);fill-opacity:1;" d="M 104.601562 228.925781 C 100.253906 225.058594 93.347656 211.519531 91.8125 212.246094 C 90.277344 212.972656 103.066406 232.3125 103.320312 234.003906 C 103.578125 235.695312 106.390625 241.015625 104.34375 240.289062 C 102.300781 239.5625 86.953125 224.335938 88.746094 227.234375 C 90.535156 230.136719 102.042969 243.433594 101.277344 244.15625 C 100.507812 244.882812 91.8125 236.902344 91.558594 237.871094 C 91.300781 238.839844 100.253906 246.816406 99.996094 247.785156 C 99.742188 248.75 94.371094 242.707031 94.371094 243.914062 C 94.371094 245.125 99.996094 251.167969 99.996094 252.132812 C 99.996094 253.101562 95.136719 247.785156 96.671875 250.683594 C 98.207031 253.585938 102.554688 256.246094 102.300781 257.210938 C 102.042969 258.179688 98.71875 256.003906 98.71875 256.488281 C 98.71875 256.96875 105.113281 259.144531 106.644531 260.835938 C 108.183594 262.53125 118.667969 273.890625 126.597656 279.695312 C 134.523438 285.496094 157.03125 295.40625 158.5625 295.40625 C 160.097656 295.40625 162.402344 292.265625 161.886719 291.058594 C 161.378906 289.847656 139.382812 282.835938 133.246094 277.519531 C 127.105469 272.199219 112.019531 259.628906 110.738281 258.902344 C 109.460938 258.179688 106.136719 258.421875 106.136719 257.695312 C 106.136719 256.96875 110.484375 258.179688 110.226562 257.695312 C 109.972656 257.210938 104.089844 254.792969 104.34375 254.3125 C 104.601562 253.828125 108.4375 255.277344 108.4375 254.792969 C 108.4375 254.3125 101.53125 250.683594 101.789062 249.960938 C 102.042969 249.234375 106.902344 252.132812 106.902344 251.652344 C 106.902344 251.167969 100.253906 246.816406 100.507812 246.089844 C 100.765625 245.367188 105.625 249.476562 105.367188 248.507812 C 105.113281 247.542969 101.53125 242.464844 101.53125 241.742188 C 101.53125 241.015625 107.414062 247.058594 107.925781 245.851562 C 108.4375 244.640625 105.878906 234.730469 106.136719 234.488281 C 106.390625 234.246094 110.464844 236.6875 111.234375 235.238281 C 112 233.785156 108.226562 231.769531 104.601562 228.925781 Z M 104.601562 228.925781 "/>
<path style=" stroke:none;fill-rule:evenodd;fill:rgb(100%,89.411765%,0%);fill-opacity:1;" d="M 180.070312 305.050781 C 176.972656 305.433594 175.574219 304.441406 177.332031 302.058594 C 179.769531 301.886719 186.253906 299.925781 188.542969 299.023438 C 190.832031 298.125 193.28125 296.832031 195.316406 295.105469 C 197.34375 293.214844 198.429688 296.316406 197.414062 297.917969 C 196.570312 299.046875 192.769531 301.082031 189.972656 302.15625 C 185.917969 303.433594 182.429688 305.199219 180.070312 305.050781 Z M 180.070312 305.050781 "/>
<path style=" stroke:none;fill-rule:evenodd;fill:rgb(100%,89.411765%,0%);fill-opacity:1;" d="M 200.507812 297.109375 C 198.460938 294.933594 200.253906 293.484375 203.324219 291.792969 C 207.925781 289.375 206.648438 286.234375 212.53125 283.574219 C 215.085938 282.121094 251.660156 268.101562 263.679688 260.605469 C 275.699219 253.113281 309.203125 229.179688 318.152344 212.742188 C 327.105469 196.300781 322.757812 195.09375 324.035156 194.367188 C 325.316406 193.644531 326.59375 196.785156 326.335938 200.414062 C 326.082031 204.039062 323.269531 214.917969 324.035156 215.882812 C 324.804688 216.851562 337.589844 207.421875 342.707031 195.820312 C 347.820312 184.214844 351.914062 172.128906 354.472656 172.128906 C 357.027344 172.128906 350.125 191.949219 345.773438 199.6875 C 341.425781 207.421875 336.3125 211.289062 337.589844 212.984375 C 338.871094 214.675781 351.65625 204.523438 356.003906 197.027344 C 360.355469 189.53125 364.445312 182.765625 365.210938 184.214844 C 365.980469 185.664062 361.121094 201.621094 354.214844 209.117188 C 347.308594 216.609375 339.125 221.925781 340.40625 223.136719 C 341.683594 224.347656 350.890625 225.554688 360.609375 219.269531 C 370.328125 212.984375 371.351562 203.796875 372.628906 204.28125 C 373.90625 204.761719 371.351562 217.335938 362.144531 225.070312 C 352.9375 232.804688 340.40625 233.53125 340.917969 235.222656 C 341.425781 236.917969 367.515625 228.214844 367.003906 230.148438 C 366.492188 232.082031 333.242188 244.410156 332.988281 245.621094 C 332.988281 246.585938 338.617188 246.828125 347.566406 244.894531 C 356.515625 242.960938 364.957031 236.433594 366.238281 237.882812 C 366.488281 240.058594 359.839844 245.378906 349.613281 247.792969 C 339.382812 250.214844 334.265625 253.597656 334.011719 254.324219 C 333.753906 255.046875 352.167969 252.144531 352.167969 253.113281 C 352.167969 254.078125 328.128906 258.429688 327.875 259.640625 C 327.617188 260.851562 350.890625 255.289062 350.378906 256.496094 C 349.867188 257.707031 318.921875 266.410156 319.175781 266.894531 C 319.433594 267.375 345.007812 261.574219 344.496094 262.539062 C 343.984375 263.507812 301.273438 274.871094 301.019531 275.597656 C 300.761719 276.320312 338.613281 267.617188 338.359375 268.34375 C 338.101562 269.070312 318.667969 273.660156 318.667969 274.144531 C 318.667969 274.628906 334.265625 271.726562 334.011719 272.453125 C 333.753906 273.175781 294.625 282.605469 293.855469 284.054688 C 293.089844 285.507812 314.0625 280.1875 313.804688 282.847656 C 313.550781 285.507812 268.539062 300.011719 268.28125 297.351562 C 268.027344 294.691406 295.648438 287.925781 295.390625 287.199219 C 295.136719 286.472656 279.535156 288.890625 279.28125 287.441406 C 279.023438 285.988281 289.507812 282.847656 288.742188 282.121094 C 287.976562 281.398438 280.046875 284.296875 280.816406 282.605469 C 281.582031 280.914062 296.414062 274.386719 296.160156 273.902344 C 295.90625 273.417969 290.789062 275.59375 291.300781 273.902344 C 291.8125 272.210938 323.523438 263.507812 323.011719 262.539062 C 322.5 261.574219 308.4375 264.714844 307.15625 264.957031 C 306.644531 263.992188 326.851562 256.980469 326.335938 255.773438 C 325.828125 254.5625 315.597656 259.882812 315.085938 258.429688 C 314.574219 256.980469 332.734375 250.210938 331.710938 249.246094 C 330.6875 248.277344 322.246094 251.902344 321.222656 250.9375 C 320.203125 249.96875 338.359375 237.882812 335.542969 237.640625 C 332.734375 237.398438 329.40625 241.269531 328.894531 238.851562 C 329.410156 235.707031 343.21875 230.628906 340.148438 228.214844 C 335.289062 226.761719 318.667969 229.179688 311.761719 233.046875 C 304.855469 236.917969 282.09375 258.429688 276.464844 261.816406 C 270.839844 265.199219 251.914062 272.695312 248.335938 274.144531 C 242.707031 276.078125 241.683594 278.980469 236.058594 281.640625 C 225.828125 284.296875 225.828125 287.199219 220.96875 288.890625 C 219.179688 289.375 200.765625 297.835938 200.507812 297.109375 Z M 200.507812 297.109375 "/>
<path style=" stroke:none;fill-rule:evenodd;fill:rgb(100%,89.411765%,0%);fill-opacity:1;" d="M 174.679688 307.984375 C 171.609375 309.4375 168.800781 313.304688 170.585938 314.753906 C 171.609375 316.6875 174.679688 310.644531 177.238281 310.886719 C 179.796875 311.125 183.375 311.128906 190.28125 311.613281 C 197.1875 312.09375 200.765625 310.160156 204.601562 310.402344 C 208.4375 310.644531 217.136719 308.46875 221.226562 308.46875 C 225.320312 308.46875 226.085938 308.953125 226.597656 307.257812 C 227.109375 305.566406 213.808594 306.777344 207.925781 306.535156 C 202.046875 306.292969 194.628906 307.742188 190.28125 307.742188 C 186.1875 307.5 179.027344 306.292969 174.679688 307.984375 Z M 174.679688 307.984375 "/>
<path style=" stroke:none;fill-rule:evenodd;fill:rgb(100%,89.411765%,0%);fill-opacity:1;" d="M 191.558594 303.875 C 193.113281 303.875 194.371094 304.902344 194.371094 306.171875 C 194.371094 307.4375 193.113281 308.46875 191.558594 308.46875 C 190.003906 308.46875 188.746094 307.4375 188.746094 306.171875 C 188.746094 304.902344 190.003906 303.875 191.558594 303.875 Z M 191.558594 303.875 "/>
<path style=" stroke:none;fill-rule:evenodd;fill:rgb(100%,89.411765%,0%);fill-opacity:1;" d="M 259.652344 301.695312 C 262.460938 301.210938 269.972656 303.628906 275.164062 304.835938 C 284.703125 308.222656 302.339844 306.527344 302.339844 308.222656 C 302.339844 309.914062 301.242188 312.089844 297.035156 312.332031 C 292.824219 312.570312 282.699219 310.878906 282.980469 310.878906 C 283.257812 310.878906 291.117188 314.265625 288.871094 315.230469 C 286.628906 316.199219 279.890625 313.296875 278.769531 314.023438 C 277.648438 314.75 284.945312 316.199219 283.820312 316.683594 C 282.699219 317.164062 277.632812 315.957031 275.945312 316.199219 C 274.265625 316.441406 277.367188 318.132812 275.402344 318.859375 C 273.441406 319.582031 270.136719 317.894531 268.734375 318.375 C 267.332031 318.859375 271.753906 321.519531 269.792969 321.757812 C 267.828125 322 263.097656 320.550781 260.570312 320.308594 C 258.046875 320.066406 263.058594 322.726562 261.375 322.96875 C 259.691406 323.207031 255.109375 321.035156 253.988281 321.035156 C 252.867188 321.035156 254.078125 323.933594 252.394531 323.933594 C 250.710938 323.933594 248.730469 321.519531 247.890625 321.519531 C 247.046875 321.519531 247.90625 324.417969 246.222656 324.417969 C 244.539062 324.417969 243.9375 321.277344 242.535156 321.519531 C 240.875 321.761719 242.574219 325.628906 240.332031 325.386719 C 238.085938 325.144531 237.789062 321.277344 236.105469 321.519531 C 234.421875 321.757812 236.402344 325.386719 234.71875 325.386719 C 233.035156 325.386719 232.761719 321.757812 231.078125 321.519531 C 229.394531 321.277344 230.230469 324.902344 229.105469 324.902344 C 227.984375 324.902344 227.152344 321.519531 226.589844 321.519531 C 226.027344 321.519531 226.582031 324.902344 224.617188 324.660156 C 222.652344 324.417969 222.664062 320.792969 222.101562 321.035156 C 221.539062 321.277344 221.53125 323.691406 220.128906 323.691406 C 218.726562 323.691406 218.734375 321.277344 218.171875 321.519531 C 217.609375 321.757812 215.640625 324.902344 214.238281 324.417969 C 212.835938 323.933594 214.574219 321.519531 214.015625 321.519531 C 213.453125 321.519531 211.710938 323.207031 210.589844 322.96875 C 209.46875 322.726562 210.648438 320.792969 210.363281 320.792969 C 210.085938 320.792969 207.503906 322 206.378906 322 C 205.257812 322 202.171875 323.691406 201.328125 322.242188 C 200.488281 320.792969 203.523438 320.792969 204.085938 319.339844 C 204.648438 317.890625 202.453125 313.78125 204.695312 312.332031 C 206.941406 310.878906 213.957031 314.265625 224.335938 311.847656 C 243.414062 307.011719 258.140625 301.453125 259.652344 301.695312 Z M 259.652344 301.695312 "/>
</g>
</svg>
