<?xml version="1.0" encoding="UTF-8"?>
<svg xmlns="http://www.w3.org/2000/svg" xmlns:xlink="http://www.w3.org/1999/xlink" width="384pt" height="384pt" viewBox="0 0 384 384" version="1.1">
<defs>
<clipPath id="clip1">
  <path d="M 0 287 L 383.988281 287 L 383.988281 383.988281 L 0 383.988281 Z M 0 287 "/>
</clipPath>
<clipPath id="clip2">
  <path d="M 0 0 L 383.988281 0 L 383.988281 96 L 0 96 Z M 0 0 "/>
</clipPath>
<clipPath id="clip3">
  <path d="M 0 96 L 383.988281 96 L 383.988281 288 L 0 288 Z M 0 96 "/>
</clipPath>
</defs>
<g id="surface1">
<g clip-path="url(#clip1)" clip-rule="nonzero">
<path style=" stroke:none;fill-rule:evenodd;fill:rgb(100%,0%,0%);fill-opacity:1;" d="M -96 287.996094 L 479.980469 287.996094 L 479.980469 383.996094 L -96 383.996094 Z M -96 287.996094 "/>
</g>
<g clip-path="url(#clip2)" clip-rule="nonzero">
<path style=" stroke:none;fill-rule:evenodd;fill:rgb(100%,0%,0%);fill-opacity:1;" d="M -96 0 L 479.980469 0 L 479.980469 96 L -96 96 Z M -96 0 "/>
</g>
<g clip-path="url(#clip3)" clip-rule="nonzero">
<path style=" stroke:none;fill-rule:evenodd;fill:rgb(100%,100%,100%);fill-opacity:1;" d="M -96 96 L 479.980469 96 L 479.980469 287.996094 L -96 287.996094 Z M -96 96 "/>
</g>
<path style=" stroke:none;fill-rule:nonzero;fill:rgb(0%,47.45098%,0%);fill-opacity:1;" d="M 189.0625 97.457031 C 183.203125 109.152344 179.296875 109.152344 169.535156 116.949219 C 165.632812 120.847656 159.773438 122.796875 167.582031 126.695312 C 159.773438 130.59375 155.867188 132.542969 151.964844 140.339844 L 153.914062 142.289062 C 153.914062 142.289062 161.335938 138.648438 161.726562 140.339844 C 163.023438 141.894531 151.957031 147.875 150.53125 148.785156 C 149.101562 149.695312 142.199219 153.984375 142.199219 153.984375 C 132.4375 161.78125 126.582031 159.828125 120.722656 171.523438 L 140.25 169.578125 C 144.152344 183.21875 130.484375 185.167969 120.722656 191.015625 L 105.101562 200.761719 C 109.007812 214.40625 120.722656 206.609375 130.484375 202.710938 L 132.4375 204.660156 L 132.4375 208.558594 L 112.914062 218.304688 C 112.914062 218.304688 89.863281 231.492188 89.484375 231.949219 C 89.328125 232.65625 89.484375 235.847656 89.484375 235.847656 C 97.292969 237.796875 109.007812 239.746094 116.820312 235.847656 C 126.582031 231.949219 128.53125 228.050781 140.25 228.050781 C 126.582031 237.796875 116.820312 241.695312 101.199219 243.644531 L 101.199219 251.441406 C 112.914062 251.441406 120.722656 251.441406 130.484375 249.492188 L 155.867188 241.695312 C 161.726562 241.695312 167.582031 247.542969 165.632812 253.390625 C 159.773438 274.832031 136.34375 270.933594 128.53125 288.476562 L 159.773438 276.78125 C 167.582031 272.882812 175.394531 268.984375 185.15625 270.933594 C 196.871094 274.832031 196.871094 282.628906 212.492188 286.527344 L 208.585938 276.78125 C 212.492188 278.730469 216.394531 278.730469 220.300781 280.679688 C 230.0625 284.578125 232.015625 288.476562 243.730469 286.527344 C 233.96875 274.832031 232.015625 276.78125 224.207031 268.984375 C 216.394531 257.289062 212.492188 239.746094 224.207031 237.796875 L 237.875 241.695312 C 251.539062 243.644531 251.539062 239.746094 271.066406 247.542969 C 282.78125 251.441406 286.6875 257.289062 300.351562 253.390625 C 294.496094 239.746094 273.019531 230 259.351562 226.101562 C 274.96875 216.355469 271.066406 230 292.542969 224.152344 L 292.542969 220.253906 C 276.921875 208.558594 271.066406 198.8125 249.585938 198.8125 C 249.585938 198.8125 282.78125 194.914062 282.78125 194.914062 L 282.78125 191.015625 C 282.78125 191.015625 250.042969 182.429688 249.28125 182.125 C 249.511719 181.132812 250.3125 179.597656 252.484375 178.75 C 258.703125 182.773438 277.503906 182.304688 278.570312 182.230469 C 278.019531 177.433594 269.113281 173.472656 261.304688 169.578125 C 261.304688 169.578125 227.863281 148.964844 227.695312 147.140625 C 228.359375 141.914062 241.429688 147.96875 255.445312 152.03125 C 251.539062 144.238281 243.730469 140.339844 235.921875 138.390625 L 247.636719 136.441406 C 239.824219 118.898438 220.300781 120.847656 208.585938 113.050781 C 200.773438 107.203125 200.773438 103.304688 189.0625 97.457031 Z M 189.0625 97.457031 "/>
<path style="fill-rule:evenodd;fill:rgb(100%,100%,100%);fill-opacity:1;stroke-width:3.1188;stroke-linecap:round;stroke-linejoin:round;stroke:rgb(100%,100%,100%);stroke-opacity:1;stroke-miterlimit:4;" d="M 341.011853 293.631702 C 342.884047 287.626551 345.346664 282.317795 334.113498 277.205847 C 322.880333 272.088853 339.730081 297.658686 341.011853 293.631702 Z M 341.011853 293.631702 " transform="matrix(0.774075,0,0,0.774075,-96,0.00000888225)"/>
<path style="fill-rule:evenodd;fill:rgb(100%,100%,100%);fill-opacity:1;stroke-width:3.1188;stroke-linecap:round;stroke-linejoin:round;stroke:rgb(100%,100%,100%);stroke-opacity:1;stroke-miterlimit:4;" d="M 354.308974 281.631492 C 352.048211 281.92418 350.86232 290.190094 355.393938 292.450857 C 360.420098 293.238087 356.282095 281.727373 354.308974 281.631492 Z M 354.308974 281.631492 " transform="matrix(0.774075,0,0,0.774075,-96,0.00000888225)"/>
<path style="fill-rule:evenodd;fill:rgb(100%,100%,100%);fill-opacity:1;stroke-width:3.1188;stroke-linecap:round;stroke-linejoin:round;stroke:rgb(100%,100%,100%);stroke-opacity:1;stroke-miterlimit:4;" d="M 367.41938 280.748382 C 365.052643 281.439731 364.956763 293.046326 373.23277 290.982371 C 381.508777 288.918415 373.131843 279.769391 367.41938 280.748382 Z M 367.41938 280.748382 " transform="matrix(0.774075,0,0,0.774075,-96,0.00000888225)"/>
<path style="fill-rule:evenodd;fill:rgb(100%,100%,100%);fill-opacity:1;stroke-width:3.1188;stroke-linecap:round;stroke-linejoin:round;stroke:rgb(100%,100%,100%);stroke-opacity:1;stroke-miterlimit:4;" d="M 382.689621 250.939618 C 384.460889 248.088433 382.593741 236.380911 375.493533 241.301098 C 368.403417 246.221285 380.423812 251.726848 382.689621 250.939618 Z M 382.689621 250.939618 " transform="matrix(0.774075,0,0,0.774075,-96,0.00000888225)"/>
<path style="fill-rule:evenodd;fill:rgb(100%,100%,100%);fill-opacity:1;stroke-width:3.1188;stroke-linecap:round;stroke-linejoin:round;stroke:rgb(100%,100%,100%);stroke-opacity:1;stroke-miterlimit:4;" d="M 367.217526 241.210264 C 369.387454 240.423034 369.584262 233.242084 363.377257 235.114278 C 357.175298 236.981426 365.547185 242.683797 367.217526 241.210264 Z M 367.217526 241.210264 " transform="matrix(0.774075,0,0,0.774075,-96,0.00000888225)"/>
<path style="fill-rule:evenodd;fill:rgb(100%,100%,100%);fill-opacity:1;stroke-width:3.1188;stroke-linecap:round;stroke-linejoin:round;stroke:rgb(100%,100%,100%);stroke-opacity:1;stroke-miterlimit:4;" d="M 353.229056 244.061449 C 353.229056 244.061449 348.894245 238.061344 345.543471 239.338069 C 341.304541 243.3701 353.52679 244.15733 353.229056 244.061449 Z M 353.229056 244.061449 " transform="matrix(0.774075,0,0,0.774075,-96,0.00000888225)"/>
<path style="fill-rule:evenodd;fill:rgb(100%,100%,100%);fill-opacity:1;stroke-width:3.1188;stroke-linecap:round;stroke-linejoin:round;stroke:rgb(100%,100%,100%);stroke-opacity:1;stroke-miterlimit:4;" d="M 305.177752 263.232516 C 307.024715 263.399045 320.710404 260.971753 325.43883 255.662998 C 330.167256 250.349196 301.090213 257.933853 301.090213 258.03478 C 301.090213 258.130661 303.840471 262.727881 305.177752 263.232516 Z M 305.177752 263.232516 " transform="matrix(0.774075,0,0,0.774075,-96,0.00000888225)"/>
<path style="fill-rule:evenodd;fill:rgb(100%,100%,100%);fill-opacity:1;stroke-width:3.1188;stroke-linecap:round;stroke-linejoin:round;stroke:rgb(100%,100%,100%);stroke-opacity:1;stroke-miterlimit:4;" d="M 441.908488 229.361444 C 442.614976 228.104904 434.626611 222.412626 429.878 224.653204 C 428.656784 228.85681 441.868117 230.224369 441.908488 229.361444 Z M 441.908488 229.361444 " transform="matrix(0.774075,0,0,0.774075,-96,0.00000888225)"/>
<path style="fill-rule:evenodd;fill:rgb(100%,100%,100%);fill-opacity:1;stroke-width:3.1188;stroke-linecap:round;stroke-linejoin:round;stroke:rgb(100%,100%,100%);stroke-opacity:1;stroke-miterlimit:4;" d="M 415.001373 215.832191 C 416.479952 213.667309 411.554719 204.816019 401.699206 209.73116 C 391.848739 214.651347 412.044214 219.273799 415.001373 215.832191 Z M 415.001373 215.832191 " transform="matrix(0.774075,0,0,0.774075,-96,0.00000888225)"/>
<path style="fill-rule:evenodd;fill:rgb(100%,100%,100%);fill-opacity:1;stroke-width:3.1188;stroke-linecap:round;stroke-linejoin:round;stroke:rgb(100%,100%,100%);stroke-opacity:1;stroke-miterlimit:4;" d="M 383.870466 210.619316 C 383.870466 210.619316 386.333083 202.651137 392.2474 204.225597 C 398.943901 209.342591 384.163154 210.917051 383.870466 210.619316 Z M 383.870466 210.619316 " transform="matrix(0.774075,0,0,0.774075,-96,0.00000888225)"/>
<path style="fill-rule:evenodd;fill:rgb(100%,100%,100%);fill-opacity:1;stroke-width:3.1188;stroke-linecap:round;stroke-linejoin:round;stroke:rgb(100%,100%,100%);stroke-opacity:1;stroke-miterlimit:4;" d="M 378.062123 204.619211 C 377.173966 202.358449 370.966961 203.736101 363.871799 208.358554 C 356.776637 212.981006 380.227005 209.736206 378.062123 204.619211 Z M 378.062123 204.619211 " transform="matrix(0.774075,0,0,0.774075,-96,0.00000888225)"/>
<path style="fill-rule:evenodd;fill:rgb(100%,100%,100%);fill-opacity:1;stroke-width:3.1188;stroke-linecap:round;stroke-linejoin:round;stroke:rgb(100%,100%,100%);stroke-opacity:1;stroke-miterlimit:4;" d="M 396.188596 183.172243 C 396.188596 183.172243 402.511667 180.341243 404.368722 183.172243 C 407.028146 187.40108 396.092715 183.268123 396.188596 183.172243 Z M 396.188596 183.172243 " transform="matrix(0.774075,0,0,0.774075,-96,0.00000888225)"/>
<path style="fill-rule:evenodd;fill:rgb(100%,100%,100%);fill-opacity:1;stroke-width:3.1188;stroke-linecap:round;stroke-linejoin:round;stroke:rgb(100%,100%,100%);stroke-opacity:1;stroke-miterlimit:4;" d="M 390.87984 180.411891 C 389.598069 177.853394 382.603834 177.61117 382.785502 181.305095 C 381.61475 184.201697 391.873971 183.661738 390.87984 180.411891 Z M 390.87984 180.411891 " transform="matrix(0.774075,0,0,0.774075,-96,0.00000888225)"/>
<path style="fill-rule:evenodd;fill:rgb(100%,100%,100%);fill-opacity:1;stroke-width:3.1188;stroke-linecap:round;stroke-linejoin:round;stroke:rgb(100%,100%,100%);stroke-opacity:1;stroke-miterlimit:4;" d="M 374.211761 180.421984 C 373.520411 178.943405 363.574064 180.447216 360.616906 186.422089 C 365.360471 188.728269 376.381689 184.15628 374.211761 180.421984 Z M 374.211761 180.421984 " transform="matrix(0.774075,0,0,0.774075,-96,0.00000888225)"/>
<path style="fill-rule:evenodd;fill:rgb(100%,100%,100%);fill-opacity:1;stroke-width:3.1188;stroke-linecap:round;stroke-linejoin:round;stroke:rgb(100%,100%,100%);stroke-opacity:1;stroke-miterlimit:4;" d="M 352.931321 186.51797 C 352.931321 186.51797 339.841101 194.521474 339.038732 200.390374 C 339.432347 205.456905 355.293011 191.241349 355.293011 191.241349 C 355.293011 191.241349 356.670663 185.634859 352.931321 186.51797 Z M 352.931321 186.51797 " transform="matrix(0.774075,0,0,0.774075,-96,0.00000888225)"/>
<path style="fill-rule:evenodd;fill:rgb(100%,100%,100%);fill-opacity:1;stroke-width:3.1188;stroke-linecap:round;stroke-linejoin:round;stroke:rgb(100%,100%,100%);stroke-opacity:1;stroke-miterlimit:4;" d="M 338.448309 179.241139 C 338.816693 177.61117 344.917724 173.841549 345.442544 174.124145 C 345.937086 175.764207 340.461801 180.210038 338.448309 179.241139 Z M 338.448309 179.241139 " transform="matrix(0.774075,0,0,0.774075,-96,0.00000888225)"/>
<path style="fill-rule:evenodd;fill:rgb(100%,100%,100%);fill-opacity:1;stroke-width:3.1188;stroke-linecap:round;stroke-linejoin:round;stroke:rgb(100%,100%,100%);stroke-opacity:1;stroke-miterlimit:4;" d="M 342.591359 209.832087 C 342.884047 207.470397 327.023383 207.667204 333.03358 214.944035 C 338.039555 221.050113 343.676323 210.912004 342.591359 209.832087 Z M 342.591359 209.832087 " transform="matrix(0.774075,0,0,0.774075,-96,0.00000888225)"/>
<path style="fill-rule:evenodd;fill:rgb(100%,100%,100%);fill-opacity:1;stroke-width:3.1188;stroke-linecap:round;stroke-linejoin:round;stroke:rgb(100%,100%,100%);stroke-opacity:1;stroke-miterlimit:4;" d="M 328.138625 220.278022 C 327.311024 218.683377 326.125133 214.429307 323.950158 214.035692 C 322.178891 213.939812 312.641298 215.907887 311.914624 217.522717 C 311.521009 218.799443 315.860866 226.661649 317.339445 226.858457 C 319.014832 227.54476 327.845937 221.065252 328.138625 220.278022 Z M 328.138625 220.278022 " transform="matrix(0.774075,0,0,0.774075,-96,0.00000888225)"/>
<path style="fill-rule:evenodd;fill:rgb(100%,100%,100%);fill-opacity:1;stroke-width:3.1188;stroke-linecap:round;stroke-linejoin:round;stroke:rgb(100%,100%,100%);stroke-opacity:1;stroke-miterlimit:4;" d="M 413.719601 273.658266 C 414.214143 271.987926 430.423005 266.386482 436.019402 271.745701 C 442.620022 280.793799 413.325986 276.514498 413.719601 273.658266 Z M 413.719601 273.658266 " transform="matrix(0.774075,0,0,0.774075,-96,0.00000888225)"/>
<path style="fill-rule:evenodd;fill:rgb(100%,100%,100%);fill-opacity:1;stroke-width:3.1188;stroke-linecap:round;stroke-linejoin:round;stroke:rgb(100%,100%,100%);stroke-opacity:1;stroke-miterlimit:4;" d="M 458.278833 284.260638 C 461.83146 278.250441 447.37368 271.125001 441.237324 277.993077 C 443.331557 286.243852 455.407462 289.231289 458.278833 284.260638 Z M 458.278833 284.260638 " transform="matrix(0.774075,0,0,0.774075,-96,0.00000888225)"/>
</g>
</svg>
