<?xml version="1.0" encoding="UTF-8"?>
<svg xmlns="http://www.w3.org/2000/svg" xmlns:xlink="http://www.w3.org/1999/xlink" width="384pt" height="384pt" viewBox="0 0 384 384" version="1.1">
<g id="surface1">
<path style=" stroke:none;fill-rule:evenodd;fill:rgb(89.411765%,6.27451%,30.196078%);fill-opacity:1;" d="M 0 191.867188 L 576.429688 191.867188 L 576.429688 384.011719 L 0 384.011719 Z M 0 191.867188 "/>
<path style=" stroke:none;fill-rule:evenodd;fill:rgb(54.117647%,52.156863%,100%);fill-opacity:1;" d="M 0 0 L 576.429688 0 L 576.429688 191.871094 L 0 191.871094 Z M 0 0 "/>
<path style=" stroke:none;fill-rule:evenodd;fill:rgb(95.294118%,93.72549%,49.019608%);fill-opacity:1;" d="M 112.484375 116.320312 L 150.117188 116.179688 C 150.117188 116.179688 164.015625 99.480469 156.65625 88.539062 C 149.300781 77.597656 120.453125 88.195312 120.335938 88.195312 C 120.222656 88.195312 120.105469 82.320312 112.980469 82.207031 C 105.855469 82.320312 105.738281 88.195312 105.621094 88.195312 C 105.503906 88.195312 76.660156 77.597656 69.304688 88.539062 C 61.945312 99.480469 75.84375 116.179688 75.84375 116.179688 Z M 112.484375 116.320312 "/>
<path style=" stroke:none;fill-rule:evenodd;fill:rgb(0%,0%,0%);fill-opacity:1;" d="M 112.503906 116.320312 L 148.632812 116.179688 C 148.632812 116.179688 161.972656 99.957031 154.910156 89.332031 C 147.847656 78.703125 120.15625 88.996094 120.042969 88.996094 C 119.929688 88.996094 119.820312 83.289062 112.980469 83.179688 C 106.140625 83.289062 106.027344 88.996094 105.917969 88.996094 C 105.804688 88.996094 78.113281 78.703125 71.050781 89.332031 C 63.988281 99.957031 77.328125 116.179688 77.328125 116.179688 L 112.507812 116.320312 Z M 112.503906 116.320312 "/>
<path style=" stroke:none;fill-rule:evenodd;fill:rgb(95.294118%,93.72549%,49.019608%);fill-opacity:1;" d="M 154.503906 93.625 L 154.078125 93.625 L 154.078125 98.761719 L 154.503906 98.761719 Z M 154.503906 93.625 "/>
<path style=" stroke:none;fill-rule:evenodd;fill:rgb(95.294118%,93.72549%,49.019608%);fill-opacity:1;" d="M 152.949219 90.835938 L 152.519531 90.835938 L 152.519531 101.398438 L 152.949219 101.398438 Z M 152.949219 90.835938 "/>
<path style=" stroke:none;fill-rule:evenodd;fill:rgb(95.294118%,93.72549%,49.019608%);fill-opacity:1;" d="M 151.460938 89.390625 L 150.957031 89.390625 L 150.957031 103.285156 L 151.460938 103.285156 Z M 151.460938 89.390625 "/>
<path style=" stroke:none;fill-rule:evenodd;fill:rgb(95.294118%,93.72549%,49.019608%);fill-opacity:1;" d="M 149.554688 88.375 L 149.011719 88.375 L 149.011719 104.992188 L 149.554688 104.992188 Z M 149.554688 88.375 "/>
<path style=" stroke:none;fill-rule:evenodd;fill:rgb(95.294118%,93.72549%,49.019608%);fill-opacity:1;" d="M 147.394531 87.78125 L 146.847656 87.78125 L 146.847656 106.40625 L 147.394531 106.40625 Z M 147.394531 87.78125 "/>
<path style=" stroke:none;fill-rule:evenodd;fill:rgb(95.294118%,93.72549%,49.019608%);fill-opacity:1;" d="M 145.1875 87.058594 L 144.644531 87.058594 L 144.644531 107.351562 L 145.1875 107.351562 Z M 145.1875 87.058594 "/>
<path style=" stroke:none;fill-rule:evenodd;fill:rgb(95.294118%,93.72549%,49.019608%);fill-opacity:1;" d="M 143.3125 86.902344 L 142.765625 86.902344 L 142.765625 108.050781 L 143.3125 108.050781 Z M 143.3125 86.902344 "/>
<path style=" stroke:none;fill-rule:evenodd;fill:rgb(95.294118%,93.72549%,49.019608%);fill-opacity:1;" d="M 141.429688 86.902344 L 140.882812 86.902344 L 140.882812 108.648438 L 141.429688 108.648438 Z M 141.429688 86.902344 "/>
<path style=" stroke:none;fill-rule:evenodd;fill:rgb(95.294118%,93.72549%,49.019608%);fill-opacity:1;" d="M 139.074219 86.949219 L 138.570312 86.949219 L 138.570312 109.628906 L 139.074219 109.628906 Z M 139.074219 86.949219 "/>
<path style=" stroke:none;fill-rule:evenodd;fill:rgb(95.294118%,93.72549%,49.019608%);fill-opacity:1;" d="M 136.867188 87.167969 L 136.246094 87.167969 L 136.246094 109.859375 L 136.867188 109.859375 Z M 136.867188 87.167969 "/>
<path style=" stroke:none;fill-rule:evenodd;fill:rgb(95.294118%,93.72549%,49.019608%);fill-opacity:1;" d="M 134.449219 87.726562 L 133.828125 87.726562 L 133.828125 110.082031 L 134.449219 110.082031 Z M 134.449219 87.726562 "/>
<path style=" stroke:none;fill-rule:evenodd;fill:rgb(95.294118%,93.72549%,49.019608%);fill-opacity:1;" d="M 132.085938 88.59375 L 131.503906 88.59375 L 131.503906 110.242188 L 132.085938 110.242188 Z M 132.085938 88.59375 "/>
<path style=" stroke:none;fill-rule:evenodd;fill:rgb(95.294118%,93.72549%,49.019608%);fill-opacity:1;" d="M 129.613281 89.585938 L 129.070312 89.585938 L 129.070312 110.082031 L 129.613281 110.082031 Z M 129.613281 89.585938 "/>
<path style=" stroke:none;fill-rule:evenodd;fill:rgb(95.294118%,93.72549%,49.019608%);fill-opacity:1;" d="M 127.570312 90.253906 L 127.023438 90.253906 L 127.023438 109.375 L 127.570312 109.375 Z M 127.570312 90.253906 "/>
<path style=" stroke:none;fill-rule:evenodd;fill:rgb(95.294118%,93.72549%,49.019608%);fill-opacity:1;" d="M 125.394531 91.546875 L 124.925781 91.546875 L 124.925781 108.792969 L 125.394531 108.792969 Z M 125.394531 91.546875 "/>
<path style=" stroke:none;fill-rule:evenodd;fill:rgb(95.294118%,93.72549%,49.019608%);fill-opacity:1;" d="M 123.488281 93.21875 L 123.097656 93.21875 L 123.097656 107.957031 L 123.488281 107.957031 Z M 123.488281 93.21875 "/>
<path style=" stroke:none;fill-rule:evenodd;fill:rgb(95.294118%,93.72549%,49.019608%);fill-opacity:1;" d="M 121.773438 94.855469 L 121.308594 94.855469 L 121.308594 106.84375 L 121.773438 106.84375 Z M 121.773438 94.855469 "/>
<path style=" stroke:none;fill-rule:evenodd;fill:rgb(95.294118%,93.72549%,49.019608%);fill-opacity:1;" d="M 120.101562 97.359375 L 119.683594 97.359375 L 119.683594 105.011719 L 120.101562 105.011719 Z M 120.101562 97.359375 "/>
<path style=" stroke:none;fill-rule:evenodd;fill:rgb(95.294118%,93.72549%,49.019608%);fill-opacity:1;" d="M 71.234375 93.109375 L 71.664062 93.109375 L 71.664062 98.246094 L 71.234375 98.246094 Z M 71.234375 93.109375 "/>
<path style=" stroke:none;fill-rule:evenodd;fill:rgb(95.294118%,93.72549%,49.019608%);fill-opacity:1;" d="M 72.792969 90.324219 L 73.21875 90.324219 L 73.21875 100.886719 L 72.792969 100.886719 Z M 72.792969 90.324219 "/>
<path style=" stroke:none;fill-rule:evenodd;fill:rgb(95.294118%,93.72549%,49.019608%);fill-opacity:1;" d="M 74.28125 88.878906 L 74.78125 88.878906 L 74.78125 102.773438 L 74.28125 102.773438 Z M 74.28125 88.878906 "/>
<path style=" stroke:none;fill-rule:evenodd;fill:rgb(95.294118%,93.72549%,49.019608%);fill-opacity:1;" d="M 76.183594 87.863281 L 76.730469 87.863281 L 76.730469 104.480469 L 76.183594 104.480469 Z M 76.183594 87.863281 "/>
<path style=" stroke:none;fill-rule:evenodd;fill:rgb(95.294118%,93.72549%,49.019608%);fill-opacity:1;" d="M 78.347656 87.269531 L 78.890625 87.269531 L 78.890625 105.890625 L 78.347656 105.890625 Z M 78.347656 87.269531 "/>
<path style=" stroke:none;fill-rule:evenodd;fill:rgb(95.294118%,93.72549%,49.019608%);fill-opacity:1;" d="M 80.554688 86.546875 L 81.09375 86.546875 L 81.09375 106.839844 L 80.554688 106.839844 Z M 80.554688 86.546875 "/>
<path style=" stroke:none;fill-rule:evenodd;fill:rgb(95.294118%,93.72549%,49.019608%);fill-opacity:1;" d="M 82.429688 86.390625 L 82.972656 86.390625 L 82.972656 107.539062 L 82.429688 107.539062 Z M 82.429688 86.390625 "/>
<path style=" stroke:none;fill-rule:evenodd;fill:rgb(95.294118%,93.72549%,49.019608%);fill-opacity:1;" d="M 84.3125 86.390625 L 84.855469 86.390625 L 84.855469 108.132812 L 84.3125 108.132812 Z M 84.3125 86.390625 "/>
<path style=" stroke:none;fill-rule:evenodd;fill:rgb(95.294118%,93.72549%,49.019608%);fill-opacity:1;" d="M 86.667969 86.4375 L 87.167969 86.4375 L 87.167969 109.117188 L 86.667969 109.117188 Z M 86.667969 86.4375 "/>
<path style=" stroke:none;fill-rule:evenodd;fill:rgb(95.294118%,93.72549%,49.019608%);fill-opacity:1;" d="M 88.875 86.652344 L 89.492188 86.652344 L 89.492188 109.347656 L 88.875 109.347656 Z M 88.875 86.652344 "/>
<path style=" stroke:none;fill-rule:evenodd;fill:rgb(95.294118%,93.72549%,49.019608%);fill-opacity:1;" d="M 91.292969 87.210938 L 91.910156 87.210938 L 91.910156 109.570312 L 91.292969 109.570312 Z M 91.292969 87.210938 "/>
<path style=" stroke:none;fill-rule:evenodd;fill:rgb(95.294118%,93.72549%,49.019608%);fill-opacity:1;" d="M 93.65625 88.078125 L 94.234375 88.078125 L 94.234375 109.726562 L 93.65625 109.726562 Z M 93.65625 88.078125 "/>
<path style=" stroke:none;fill-rule:evenodd;fill:rgb(95.294118%,93.72549%,49.019608%);fill-opacity:1;" d="M 96.125 89.070312 L 96.671875 89.070312 L 96.671875 109.570312 L 96.125 109.570312 Z M 96.125 89.070312 "/>
<path style=" stroke:none;fill-rule:evenodd;fill:rgb(95.294118%,93.72549%,49.019608%);fill-opacity:1;" d="M 98.171875 89.738281 L 98.714844 89.738281 L 98.714844 108.863281 L 98.171875 108.863281 Z M 98.171875 89.738281 "/>
<path style=" stroke:none;fill-rule:evenodd;fill:rgb(95.294118%,93.72549%,49.019608%);fill-opacity:1;" d="M 100.347656 91.03125 L 100.8125 91.03125 L 100.8125 108.277344 L 100.347656 108.277344 Z M 100.347656 91.03125 "/>
<path style=" stroke:none;fill-rule:evenodd;fill:rgb(95.294118%,93.72549%,49.019608%);fill-opacity:1;" d="M 102.253906 92.707031 L 102.644531 92.707031 L 102.644531 107.445312 L 102.253906 107.445312 Z M 102.253906 92.707031 "/>
<path style=" stroke:none;fill-rule:evenodd;fill:rgb(95.294118%,93.72549%,49.019608%);fill-opacity:1;" d="M 103.964844 94.339844 L 104.429688 94.339844 L 104.429688 106.328125 L 103.964844 106.328125 Z M 103.964844 94.339844 "/>
<path style=" stroke:none;fill-rule:evenodd;fill:rgb(95.294118%,93.72549%,49.019608%);fill-opacity:1;" d="M 105.636719 96.847656 L 106.058594 96.847656 L 106.058594 104.5 L 105.636719 104.5 Z M 105.636719 96.847656 "/>
<path style=" stroke:none;fill-rule:evenodd;fill:rgb(95.294118%,93.72549%,49.019608%);fill-opacity:1;" d="M 112.335938 69.796875 L 112.289062 69.019531 C 112.289062 68.863281 111.195312 67.984375 111.195312 65.757812 C 111.195312 63.53125 112.140625 62.648438 112.636719 62.648438 C 113.132812 62.648438 114.222656 63.375 114.273438 65.707031 C 114.320312 68.035156 113.179688 68.917969 113.179688 68.917969 L 113.082031 69.847656 C 113.082031 69.847656 113.875 69.902344 113.925781 69.902344 C 113.972656 69.902344 115.015625 68.96875 117.695312 69.070312 C 120.375 69.175781 120.523438 70.316406 120.570312 70.675781 C 120.621094 71.039062 120.175781 72.128906 117.496094 72.128906 C 114.816406 72.128906 114.023438 70.832031 113.972656 70.832031 C 113.925781 70.832031 113.132812 70.78125 113.132812 70.78125 L 113.132812 71.453125 C 113.132812 71.453125 114.171875 72.28125 114.125 75.027344 C 114.074219 77.773438 113.03125 77.929688 112.734375 77.929688 C 112.335938 77.929688 111.492188 77.773438 111.445312 75.078125 C 111.542969 72.335938 112.238281 71.558594 112.238281 71.507812 L 112.238281 70.832031 L 111.492188 70.832031 C 111.492188 70.832031 110.699219 71.507812 107.972656 71.558594 C 105.242188 71.609375 105.09375 70.78125 105.042969 70.316406 C 104.996094 69.847656 105.539062 69.019531 107.921875 68.96875 C 110.304688 68.917969 111.445312 69.796875 111.445312 69.796875 Z M 112.335938 69.796875 "/>
<path style=" stroke:none;fill-rule:evenodd;fill:rgb(95.294118%,93.72549%,49.019608%);fill-opacity:1;" d="M 104.410156 84.175781 C 105.242188 84.175781 105.917969 84.894531 105.917969 85.78125 C 105.917969 86.664062 105.242188 87.382812 104.410156 87.382812 C 103.578125 87.382812 102.902344 86.664062 102.902344 85.78125 C 102.902344 84.894531 103.578125 84.175781 104.410156 84.175781 Z M 104.410156 84.175781 "/>
<path style=" stroke:none;fill-rule:evenodd;fill:rgb(95.294118%,93.72549%,49.019608%);fill-opacity:1;" d="M 101.367188 83.527344 C 102.199219 83.527344 102.875 84.246094 102.875 85.128906 C 102.875 86.015625 102.199219 86.734375 101.367188 86.734375 C 100.535156 86.734375 99.859375 86.015625 99.859375 85.128906 C 99.859375 84.246094 100.535156 83.527344 101.367188 83.527344 Z M 101.367188 83.527344 "/>
<path style=" stroke:none;fill-rule:evenodd;fill:rgb(95.294118%,93.72549%,49.019608%);fill-opacity:1;" d="M 98.167969 82.558594 C 99.003906 82.558594 99.675781 83.273438 99.675781 84.160156 C 99.675781 85.046875 99.003906 85.765625 98.167969 85.765625 C 97.335938 85.765625 96.664062 85.046875 96.664062 84.160156 C 96.664062 83.273438 97.335938 82.558594 98.167969 82.558594 Z M 98.167969 82.558594 "/>
<path style=" stroke:none;fill-rule:evenodd;fill:rgb(95.294118%,93.72549%,49.019608%);fill-opacity:1;" d="M 94.96875 81.746094 C 95.800781 81.746094 96.476562 82.464844 96.476562 83.351562 C 96.476562 84.234375 95.800781 84.953125 94.96875 84.953125 C 94.136719 84.953125 93.460938 84.234375 93.460938 83.351562 C 93.460938 82.464844 94.136719 81.746094 94.96875 81.746094 Z M 94.96875 81.746094 "/>
<path style=" stroke:none;fill-rule:evenodd;fill:rgb(95.294118%,93.72549%,49.019608%);fill-opacity:1;" d="M 91.621094 81.101562 C 92.453125 81.101562 93.128906 81.816406 93.128906 82.703125 C 93.128906 83.589844 92.453125 84.304688 91.621094 84.304688 C 90.789062 84.304688 90.113281 83.589844 90.113281 82.703125 C 90.113281 81.816406 90.789062 81.101562 91.621094 81.101562 Z M 91.621094 81.101562 "/>
<path style=" stroke:none;fill-rule:evenodd;fill:rgb(95.294118%,93.72549%,49.019608%);fill-opacity:1;" d="M 88.269531 80.613281 C 89.101562 80.613281 89.777344 81.332031 89.777344 82.21875 C 89.777344 83.101562 89.101562 83.820312 88.269531 83.820312 C 87.4375 83.820312 86.761719 83.101562 86.761719 82.21875 C 86.761719 81.332031 87.4375 80.613281 88.269531 80.613281 Z M 88.269531 80.613281 "/>
<path style=" stroke:none;fill-rule:evenodd;fill:rgb(95.294118%,93.72549%,49.019608%);fill-opacity:1;" d="M 85.074219 80.289062 C 85.90625 80.289062 86.582031 81.007812 86.582031 81.894531 C 86.582031 82.777344 85.90625 83.496094 85.074219 83.496094 C 84.242188 83.496094 83.566406 82.777344 83.566406 81.894531 C 83.566406 81.007812 84.242188 80.289062 85.074219 80.289062 Z M 85.074219 80.289062 "/>
<path style=" stroke:none;fill-rule:evenodd;fill:rgb(95.294118%,93.72549%,49.019608%);fill-opacity:1;" d="M 81.722656 80.128906 C 82.554688 80.128906 83.230469 80.847656 83.230469 81.730469 C 83.230469 82.617188 82.554688 83.335938 81.722656 83.335938 C 80.890625 83.335938 80.214844 82.617188 80.214844 81.730469 C 80.214844 80.847656 80.890625 80.128906 81.722656 80.128906 Z M 81.722656 80.128906 "/>
<path style=" stroke:none;fill-rule:evenodd;fill:rgb(95.294118%,93.72549%,49.019608%);fill-opacity:1;" d="M 78.523438 80.613281 C 79.355469 80.613281 80.03125 81.332031 80.03125 82.21875 C 80.03125 83.101562 79.355469 83.820312 78.523438 83.820312 C 77.691406 83.820312 77.015625 83.101562 77.015625 82.21875 C 77.015625 81.332031 77.691406 80.613281 78.523438 80.613281 Z M 78.523438 80.613281 "/>
<path style=" stroke:none;fill-rule:evenodd;fill:rgb(95.294118%,93.72549%,49.019608%);fill-opacity:1;" d="M 75.175781 81.101562 C 76.007812 81.101562 76.683594 81.816406 76.683594 82.703125 C 76.683594 83.589844 76.007812 84.304688 75.175781 84.304688 C 74.34375 84.304688 73.667969 83.589844 73.667969 82.703125 C 73.667969 81.816406 74.34375 81.101562 75.175781 81.101562 Z M 75.175781 81.101562 "/>
<path style=" stroke:none;fill-rule:evenodd;fill:rgb(95.294118%,93.72549%,49.019608%);fill-opacity:1;" d="M 72.128906 82.234375 C 72.960938 82.234375 73.636719 82.949219 73.636719 83.835938 C 73.636719 84.722656 72.960938 85.441406 72.128906 85.441406 C 71.296875 85.441406 70.621094 84.722656 70.621094 83.835938 C 70.621094 82.949219 71.296875 82.234375 72.128906 82.234375 Z M 72.128906 82.234375 "/>
<path style=" stroke:none;fill-rule:evenodd;fill:rgb(95.294118%,93.72549%,49.019608%);fill-opacity:1;" d="M 69.234375 84.339844 C 70.066406 84.339844 70.742188 85.058594 70.742188 85.941406 C 70.742188 86.828125 70.066406 87.546875 69.234375 87.546875 C 68.402344 87.546875 67.726562 86.828125 67.726562 85.941406 C 67.726562 85.058594 68.402344 84.339844 69.234375 84.339844 Z M 69.234375 84.339844 "/>
<path style=" stroke:none;fill-rule:evenodd;fill:rgb(95.294118%,93.72549%,49.019608%);fill-opacity:1;" d="M 67.253906 87.253906 C 68.089844 87.253906 68.761719 87.972656 68.761719 88.859375 C 68.761719 89.742188 68.089844 90.460938 67.253906 90.460938 C 66.421875 90.460938 65.75 89.742188 65.75 88.859375 C 65.75 87.972656 66.421875 87.253906 67.253906 87.253906 Z M 67.253906 87.253906 "/>
<path style=" stroke:none;fill-rule:evenodd;fill:rgb(95.294118%,93.72549%,49.019608%);fill-opacity:1;" d="M 66.039062 90.332031 C 66.871094 90.332031 67.546875 91.046875 67.546875 91.933594 C 67.546875 92.820312 66.871094 93.535156 66.039062 93.535156 C 65.207031 93.535156 64.53125 92.820312 64.53125 91.933594 C 64.53125 91.046875 65.207031 90.332031 66.039062 90.332031 Z M 66.039062 90.332031 "/>
<path style=" stroke:none;fill-rule:evenodd;fill:rgb(95.294118%,93.72549%,49.019608%);fill-opacity:1;" d="M 65.582031 93.730469 C 66.414062 93.730469 67.089844 94.449219 67.089844 95.332031 C 67.089844 96.21875 66.414062 96.9375 65.582031 96.9375 C 64.75 96.9375 64.074219 96.21875 64.074219 95.332031 C 64.074219 94.449219 64.75 93.730469 65.582031 93.730469 Z M 65.582031 93.730469 "/>
<path style=" stroke:none;fill-rule:evenodd;fill:rgb(95.294118%,93.72549%,49.019608%);fill-opacity:1;" d="M 65.734375 97.296875 C 66.566406 97.296875 67.242188 98.011719 67.242188 98.898438 C 67.242188 99.785156 66.566406 100.503906 65.734375 100.503906 C 64.902344 100.503906 64.226562 99.785156 64.226562 98.898438 C 64.226562 98.011719 64.902344 97.296875 65.734375 97.296875 Z M 65.734375 97.296875 "/>
<path style=" stroke:none;fill-rule:evenodd;fill:rgb(95.294118%,93.72549%,49.019608%);fill-opacity:1;" d="M 66.496094 100.695312 C 67.328125 100.695312 68.003906 101.414062 68.003906 102.300781 C 68.003906 103.183594 67.328125 103.902344 66.496094 103.902344 C 65.660156 103.902344 64.988281 103.183594 64.988281 102.300781 C 64.988281 101.414062 65.660156 100.695312 66.496094 100.695312 Z M 66.496094 100.695312 "/>
<path style=" stroke:none;fill-rule:evenodd;fill:rgb(95.294118%,93.72549%,49.019608%);fill-opacity:1;" d="M 67.710938 104.097656 C 68.546875 104.097656 69.21875 104.8125 69.21875 105.699219 C 69.21875 106.585938 68.546875 107.300781 67.710938 107.300781 C 66.878906 107.300781 66.207031 106.585938 66.207031 105.699219 C 66.207031 104.8125 66.878906 104.097656 67.710938 104.097656 Z M 67.710938 104.097656 "/>
<path style=" stroke:none;fill-rule:evenodd;fill:rgb(95.294118%,93.72549%,49.019608%);fill-opacity:1;" d="M 69.082031 107.011719 C 69.914062 107.011719 70.589844 107.730469 70.589844 108.613281 C 70.589844 109.5 69.914062 110.21875 69.082031 110.21875 C 68.25 110.21875 67.574219 109.5 67.574219 108.613281 C 67.574219 107.730469 68.25 107.011719 69.082031 107.011719 Z M 69.082031 107.011719 "/>
<path style=" stroke:none;fill-rule:evenodd;fill:rgb(95.294118%,93.72549%,49.019608%);fill-opacity:1;" d="M 121.621094 84.175781 C 120.789062 84.175781 120.113281 84.894531 120.113281 85.78125 C 120.113281 86.664062 120.789062 87.382812 121.621094 87.382812 C 122.453125 87.382812 123.128906 86.664062 123.128906 85.78125 C 123.128906 84.894531 122.453125 84.175781 121.621094 84.175781 Z M 121.621094 84.175781 "/>
<path style=" stroke:none;fill-rule:evenodd;fill:rgb(95.294118%,93.72549%,49.019608%);fill-opacity:1;" d="M 124.664062 83.527344 C 123.832031 83.527344 123.15625 84.246094 123.15625 85.128906 C 123.15625 86.015625 123.832031 86.734375 124.664062 86.734375 C 125.496094 86.734375 126.171875 86.015625 126.171875 85.128906 C 126.171875 84.246094 125.496094 83.527344 124.664062 83.527344 Z M 124.664062 83.527344 "/>
<path style=" stroke:none;fill-rule:evenodd;fill:rgb(95.294118%,93.72549%,49.019608%);fill-opacity:1;" d="M 127.863281 82.558594 C 127.03125 82.558594 126.355469 83.273438 126.355469 84.160156 C 126.355469 85.046875 127.03125 85.765625 127.863281 85.765625 C 128.695312 85.765625 129.371094 85.046875 129.371094 84.160156 C 129.371094 83.273438 128.695312 82.558594 127.863281 82.558594 Z M 127.863281 82.558594 "/>
<path style=" stroke:none;fill-rule:evenodd;fill:rgb(95.294118%,93.72549%,49.019608%);fill-opacity:1;" d="M 131.0625 81.746094 C 130.230469 81.746094 129.554688 82.464844 129.554688 83.351562 C 129.554688 84.234375 130.230469 84.953125 131.0625 84.953125 C 131.894531 84.953125 132.570312 84.234375 132.570312 83.351562 C 132.570312 82.464844 131.894531 81.746094 131.0625 81.746094 Z M 131.0625 81.746094 "/>
<path style=" stroke:none;fill-rule:evenodd;fill:rgb(95.294118%,93.72549%,49.019608%);fill-opacity:1;" d="M 134.410156 81.101562 C 133.578125 81.101562 132.902344 81.816406 132.902344 82.703125 C 132.902344 83.589844 133.578125 84.304688 134.410156 84.304688 C 135.242188 84.304688 135.917969 83.589844 135.917969 82.703125 C 135.917969 81.816406 135.242188 81.101562 134.410156 81.101562 Z M 134.410156 81.101562 "/>
<path style=" stroke:none;fill-rule:evenodd;fill:rgb(95.294118%,93.72549%,49.019608%);fill-opacity:1;" d="M 137.761719 80.613281 C 136.929688 80.613281 136.253906 81.332031 136.253906 82.21875 C 136.253906 83.101562 136.929688 83.820312 137.761719 83.820312 C 138.59375 83.820312 139.269531 83.101562 139.269531 82.21875 C 139.269531 81.332031 138.59375 80.613281 137.761719 80.613281 Z M 137.761719 80.613281 "/>
<path style=" stroke:none;fill-rule:evenodd;fill:rgb(95.294118%,93.72549%,49.019608%);fill-opacity:1;" d="M 140.957031 80.289062 C 140.125 80.289062 139.449219 81.007812 139.449219 81.894531 C 139.449219 82.777344 140.125 83.496094 140.957031 83.496094 C 141.789062 83.496094 142.464844 82.777344 142.464844 81.894531 C 142.464844 81.007812 141.789062 80.289062 140.957031 80.289062 Z M 140.957031 80.289062 "/>
<path style=" stroke:none;fill-rule:evenodd;fill:rgb(95.294118%,93.72549%,49.019608%);fill-opacity:1;" d="M 144.308594 80.128906 C 143.476562 80.128906 142.804688 80.847656 142.804688 81.730469 C 142.804688 82.617188 143.476562 83.335938 144.308594 83.335938 C 145.144531 83.335938 145.816406 82.617188 145.816406 81.730469 C 145.816406 80.847656 145.144531 80.128906 144.308594 80.128906 Z M 144.308594 80.128906 "/>
<path style=" stroke:none;fill-rule:evenodd;fill:rgb(95.294118%,93.72549%,49.019608%);fill-opacity:1;" d="M 147.507812 80.613281 C 146.675781 80.613281 146 81.332031 146 82.21875 C 146 83.101562 146.675781 83.820312 147.507812 83.820312 C 148.339844 83.820312 149.015625 83.101562 149.015625 82.21875 C 149.015625 81.332031 148.339844 80.613281 147.507812 80.613281 Z M 147.507812 80.613281 "/>
<path style=" stroke:none;fill-rule:evenodd;fill:rgb(95.294118%,93.72549%,49.019608%);fill-opacity:1;" d="M 150.855469 81.101562 C 150.023438 81.101562 149.347656 81.816406 149.347656 82.703125 C 149.347656 83.589844 150.023438 84.304688 150.855469 84.304688 C 151.691406 84.304688 152.363281 83.589844 152.363281 82.703125 C 152.363281 81.816406 151.691406 81.101562 150.855469 81.101562 Z M 150.855469 81.101562 "/>
<path style=" stroke:none;fill-rule:evenodd;fill:rgb(95.294118%,93.72549%,49.019608%);fill-opacity:1;" d="M 153.902344 82.234375 C 153.070312 82.234375 152.394531 82.949219 152.394531 83.835938 C 152.394531 84.722656 153.070312 85.441406 153.902344 85.441406 C 154.734375 85.441406 155.410156 84.722656 155.410156 83.835938 C 155.410156 82.949219 154.734375 82.234375 153.902344 82.234375 Z M 153.902344 82.234375 "/>
<path style=" stroke:none;fill-rule:evenodd;fill:rgb(95.294118%,93.72549%,49.019608%);fill-opacity:1;" d="M 156.796875 84.339844 C 155.964844 84.339844 155.289062 85.058594 155.289062 85.941406 C 155.289062 86.828125 155.964844 87.546875 156.796875 87.546875 C 157.628906 87.546875 158.304688 86.828125 158.304688 85.941406 C 158.304688 85.058594 157.628906 84.339844 156.796875 84.339844 Z M 156.796875 84.339844 "/>
<path style=" stroke:none;fill-rule:evenodd;fill:rgb(95.294118%,93.72549%,49.019608%);fill-opacity:1;" d="M 158.777344 87.253906 C 157.941406 87.253906 157.269531 87.972656 157.269531 88.859375 C 157.269531 89.742188 157.941406 90.460938 158.777344 90.460938 C 159.609375 90.460938 160.285156 89.742188 160.285156 88.859375 C 160.285156 87.972656 159.609375 87.253906 158.777344 87.253906 Z M 158.777344 87.253906 "/>
<path style=" stroke:none;fill-rule:evenodd;fill:rgb(95.294118%,93.72549%,49.019608%);fill-opacity:1;" d="M 159.992188 90.332031 C 159.160156 90.332031 158.488281 91.046875 158.488281 91.933594 C 158.488281 92.820312 159.160156 93.535156 159.992188 93.535156 C 160.828125 93.535156 161.5 92.820312 161.5 91.933594 C 161.5 91.046875 160.828125 90.332031 159.992188 90.332031 Z M 159.992188 90.332031 "/>
<path style=" stroke:none;fill-rule:evenodd;fill:rgb(95.294118%,93.72549%,49.019608%);fill-opacity:1;" d="M 160.449219 93.730469 C 159.617188 93.730469 158.941406 94.449219 158.941406 95.332031 C 158.941406 96.21875 159.617188 96.9375 160.449219 96.9375 C 161.285156 96.9375 161.957031 96.21875 161.957031 95.332031 C 161.957031 94.449219 161.285156 93.730469 160.449219 93.730469 Z M 160.449219 93.730469 "/>
<path style=" stroke:none;fill-rule:evenodd;fill:rgb(95.294118%,93.72549%,49.019608%);fill-opacity:1;" d="M 160.296875 97.296875 C 159.464844 97.296875 158.792969 98.011719 158.792969 98.898438 C 158.792969 99.785156 159.464844 100.503906 160.296875 100.503906 C 161.132812 100.503906 161.804688 99.785156 161.804688 98.898438 C 161.804688 98.011719 161.132812 97.296875 160.296875 97.296875 Z M 160.296875 97.296875 "/>
<path style=" stroke:none;fill-rule:evenodd;fill:rgb(95.294118%,93.72549%,49.019608%);fill-opacity:1;" d="M 159.535156 100.695312 C 158.703125 100.695312 158.03125 101.414062 158.03125 102.300781 C 158.03125 103.183594 158.703125 103.902344 159.535156 103.902344 C 160.371094 103.902344 161.042969 103.183594 161.042969 102.300781 C 161.042969 101.414062 160.371094 100.695312 159.535156 100.695312 Z M 159.535156 100.695312 "/>
<path style=" stroke:none;fill-rule:evenodd;fill:rgb(95.294118%,93.72549%,49.019608%);fill-opacity:1;" d="M 158.320312 104.097656 C 157.484375 104.097656 156.8125 104.8125 156.8125 105.699219 C 156.8125 106.585938 157.484375 107.300781 158.320312 107.300781 C 159.152344 107.300781 159.828125 106.585938 159.828125 105.699219 C 159.828125 104.8125 159.152344 104.097656 158.320312 104.097656 Z M 158.320312 104.097656 "/>
<path style=" stroke:none;fill-rule:evenodd;fill:rgb(95.294118%,93.72549%,49.019608%);fill-opacity:1;" d="M 156.949219 107.011719 C 156.117188 107.011719 155.441406 107.730469 155.441406 108.613281 C 155.441406 109.5 156.117188 110.21875 156.949219 110.21875 C 157.78125 110.21875 158.457031 109.5 158.457031 108.613281 C 158.457031 107.730469 157.78125 107.011719 156.949219 107.011719 Z M 156.949219 107.011719 "/>
<path style=" stroke:none;fill-rule:evenodd;fill:rgb(95.294118%,93.72549%,49.019608%);fill-opacity:1;" d="M 163.1875 110.074219 L 154.585938 135.488281 C 154.585938 135.488281 140.363281 129.539062 113.699219 129.539062 C 87.03125 129.539062 74.882812 134.742188 74.882812 134.742188 L 62.371094 109.773438 C 73.5 107.703125 76.890625 117.1875 76.890625 117.1875 C 76.890625 117.1875 77.648438 106.113281 86.390625 104.144531 C 93.773438 102.867188 100.296875 112.445312 100.296875 112.445312 C 100.296875 112.445312 101.835938 101.664062 112.746094 101.371094 C 123.65625 101.664062 125.195312 112.445312 125.195312 112.445312 C 125.195312 112.445312 131.71875 102.867188 139.105469 104.148438 C 147.84375 106.113281 148.601562 117.1875 148.601562 117.1875 C 148.601562 117.1875 151.996094 107.703125 163.1875 110.074219 Z M 163.1875 110.074219 "/>
<path style=" stroke:none;fill-rule:evenodd;fill:rgb(0%,0%,0%);fill-opacity:1;" d="M 114.964844 128.152344 C 136.96875 128.152344 154.804688 130.972656 154.804688 134.449219 C 154.804688 137.929688 136.96875 140.75 114.964844 140.75 C 92.960938 140.75 75.121094 137.929688 75.121094 134.449219 C 75.121094 130.972656 92.960938 128.152344 114.964844 128.152344 Z M 114.964844 128.152344 "/>
<path style=" stroke:none;fill-rule:evenodd;fill:rgb(0%,0%,0%);fill-opacity:1;" d="M 114 103.285156 C 114.492188 103.285156 114.890625 103.859375 114.890625 104.566406 C 114.890625 105.273438 114.492188 105.84375 114 105.84375 C 113.511719 105.84375 113.113281 105.273438 113.113281 104.566406 C 113.113281 103.859375 113.511719 103.285156 114 103.285156 Z M 114 103.285156 "/>
<path style=" stroke:none;fill-rule:evenodd;fill:rgb(0%,0%,0%);fill-opacity:1;" d="M 116.421875 103.933594 C 116.914062 103.933594 117.3125 104.507812 117.3125 105.210938 C 117.3125 105.917969 116.914062 106.492188 116.421875 106.492188 C 115.933594 106.492188 115.535156 105.917969 115.535156 105.210938 C 115.535156 104.507812 115.933594 103.933594 116.421875 103.933594 Z M 116.421875 103.933594 "/>
<path style=" stroke:none;fill-rule:evenodd;fill:rgb(0%,0%,0%);fill-opacity:1;" d="M 111.78125 103.285156 C 112.269531 103.285156 112.667969 103.859375 112.667969 104.566406 C 112.667969 105.273438 112.269531 105.84375 111.78125 105.84375 C 111.289062 105.84375 110.890625 105.273438 110.890625 104.566406 C 110.890625 103.859375 111.289062 103.285156 111.78125 103.285156 Z M 111.78125 103.285156 "/>
<path style=" stroke:none;fill-rule:evenodd;fill:rgb(0%,0%,0%);fill-opacity:1;" d="M 107.539062 105.230469 C 108.03125 105.230469 108.429688 105.800781 108.429688 106.507812 C 108.429688 107.214844 108.03125 107.789062 107.539062 107.789062 C 107.050781 107.789062 106.652344 107.214844 106.652344 106.507812 C 106.652344 105.800781 107.050781 105.230469 107.539062 105.230469 Z M 107.539062 105.230469 "/>
<path style=" stroke:none;fill-rule:evenodd;fill:rgb(0%,0%,0%);fill-opacity:1;" d="M 109.558594 103.933594 C 110.046875 103.933594 110.445312 104.507812 110.445312 105.210938 C 110.445312 105.917969 110.046875 106.492188 109.558594 106.492188 C 109.066406 106.492188 108.667969 105.917969 108.667969 105.210938 C 108.667969 104.507812 109.066406 103.933594 109.558594 103.933594 Z M 109.558594 103.933594 "/>
<path style=" stroke:none;fill-rule:evenodd;fill:rgb(0%,0%,0%);fill-opacity:1;" d="M 105.921875 107.175781 C 106.414062 107.175781 106.8125 107.746094 106.8125 108.453125 C 106.8125 109.160156 106.414062 109.734375 105.921875 109.734375 C 105.433594 109.734375 105.035156 109.160156 105.035156 108.453125 C 105.035156 107.746094 105.433594 107.175781 105.921875 107.175781 Z M 105.921875 107.175781 "/>
<path style=" stroke:none;fill-rule:evenodd;fill:rgb(0%,0%,0%);fill-opacity:1;" d="M 118.441406 105.390625 C 118.933594 105.390625 119.332031 105.964844 119.332031 106.671875 C 119.332031 107.378906 118.933594 107.949219 118.441406 107.949219 C 117.953125 107.949219 117.554688 107.378906 117.554688 106.671875 C 117.554688 105.964844 117.953125 105.390625 118.441406 105.390625 Z M 118.441406 105.390625 "/>
<path style=" stroke:none;fill-rule:evenodd;fill:rgb(0%,0%,0%);fill-opacity:1;" d="M 120.257812 107.175781 C 120.75 107.175781 121.148438 107.746094 121.148438 108.453125 C 121.148438 109.160156 120.75 109.734375 120.257812 109.734375 C 119.769531 109.734375 119.371094 109.160156 119.371094 108.453125 C 119.371094 107.746094 119.769531 107.175781 120.257812 107.175781 Z M 120.257812 107.175781 "/>
<path style=" stroke:none;fill-rule:evenodd;fill:rgb(0%,0%,0%);fill-opacity:1;" d="M 139.753906 106.894531 C 140.238281 106.976562 140.550781 107.605469 140.445312 108.304688 C 140.34375 109.003906 139.867188 109.503906 139.382812 109.421875 C 138.898438 109.339844 138.585938 108.707031 138.691406 108.011719 C 138.792969 107.3125 139.269531 106.8125 139.753906 106.894531 Z M 139.753906 106.894531 "/>
<path style=" stroke:none;fill-rule:evenodd;fill:rgb(0%,0%,0%);fill-opacity:1;" d="M 142.050781 107.933594 C 142.539062 108.015625 142.847656 108.644531 142.742188 109.34375 C 142.640625 110.042969 142.164062 110.542969 141.679688 110.460938 C 141.195312 110.378906 140.886719 109.746094 140.988281 109.050781 C 141.089844 108.351562 141.566406 107.851562 142.050781 107.933594 Z M 142.050781 107.933594 "/>
<path style=" stroke:none;fill-rule:evenodd;fill:rgb(0%,0%,0%);fill-opacity:1;" d="M 137.558594 106.527344 C 138.046875 106.609375 138.355469 107.238281 138.25 107.9375 C 138.148438 108.636719 137.671875 109.136719 137.1875 109.054688 C 136.703125 108.972656 136.394531 108.339844 136.496094 107.644531 C 136.597656 106.945312 137.074219 106.445312 137.558594 106.527344 Z M 137.558594 106.527344 "/>
<path style=" stroke:none;fill-rule:evenodd;fill:rgb(0%,0%,0%);fill-opacity:1;" d="M 133.089844 107.746094 C 133.574219 107.824219 133.882812 108.457031 133.777344 109.15625 C 133.675781 109.851562 133.199219 110.351562 132.714844 110.273438 C 132.230469 110.191406 131.921875 109.558594 132.023438 108.859375 C 132.128906 108.164062 132.605469 107.664062 133.089844 107.746094 Z M 133.089844 107.746094 "/>
<path style=" stroke:none;fill-rule:evenodd;fill:rgb(0%,0%,0%);fill-opacity:1;" d="M 135.269531 106.796875 C 135.753906 106.878906 136.066406 107.511719 135.960938 108.207031 C 135.859375 108.90625 135.382812 109.40625 134.898438 109.324219 C 134.414062 109.246094 134.101562 108.613281 134.207031 107.914062 C 134.308594 107.21875 134.785156 106.714844 135.269531 106.796875 Z M 135.269531 106.796875 "/>
<path style=" stroke:none;fill-rule:evenodd;fill:rgb(0%,0%,0%);fill-opacity:1;" d="M 131.207031 109.398438 C 131.691406 109.480469 132 110.109375 131.898438 110.808594 C 131.792969 111.507812 131.316406 112.007812 130.832031 111.925781 C 130.347656 111.84375 130.039062 111.214844 130.144531 110.515625 C 130.246094 109.816406 130.722656 109.316406 131.207031 109.398438 Z M 131.207031 109.398438 "/>
<path style=" stroke:none;fill-rule:evenodd;fill:rgb(0%,0%,0%);fill-opacity:1;" d="M 143.835938 109.707031 C 144.320312 109.789062 144.628906 110.417969 144.527344 111.117188 L 144.523438 111.117188 C 144.421875 111.816406 143.945312 112.316406 143.460938 112.234375 C 142.976562 112.152344 142.667969 111.523438 142.769531 110.824219 C 142.875 110.125 143.351562 109.625 143.835938 109.707031 Z M 143.835938 109.707031 "/>
<path style=" stroke:none;fill-rule:evenodd;fill:rgb(0%,0%,0%);fill-opacity:1;" d="M 145.367188 111.769531 C 145.851562 111.847656 146.160156 112.480469 146.058594 113.179688 C 145.957031 113.875 145.480469 114.375 144.992188 114.296875 C 144.507812 114.214844 144.199219 113.582031 144.304688 112.886719 C 144.40625 112.1875 144.882812 111.6875 145.367188 111.769531 Z M 145.367188 111.769531 "/>
<path style=" stroke:none;fill-rule:evenodd;fill:rgb(0%,0%,0%);fill-opacity:1;" d="M 87.703125 105.917969 C 88.1875 105.824219 88.675781 106.308594 88.796875 107.003906 C 88.914062 107.699219 88.621094 108.339844 88.136719 108.433594 C 87.65625 108.527344 87.167969 108.042969 87.046875 107.347656 C 86.929688 106.652344 87.222656 106.011719 87.703125 105.917969 Z M 87.703125 105.917969 "/>
<path style=" stroke:none;fill-rule:evenodd;fill:rgb(0%,0%,0%);fill-opacity:1;" d="M 90.195312 106.089844 C 90.679688 105.996094 91.167969 106.480469 91.285156 107.175781 C 91.40625 107.871094 91.113281 108.511719 90.628906 108.605469 C 90.148438 108.699219 89.660156 108.210938 89.539062 107.519531 C 89.417969 106.824219 89.714844 106.183594 90.195312 106.089844 Z M 90.195312 106.089844 "/>
<path style=" stroke:none;fill-rule:evenodd;fill:rgb(0%,0%,0%);fill-opacity:1;" d="M 85.519531 106.34375 C 86 106.25 86.488281 106.738281 86.609375 107.433594 C 86.730469 108.125 86.4375 108.765625 85.953125 108.859375 C 85.46875 108.953125 84.980469 108.46875 84.863281 107.773438 C 84.742188 107.078125 85.035156 106.4375 85.519531 106.34375 Z M 85.519531 106.34375 "/>
<path style=" stroke:none;fill-rule:evenodd;fill:rgb(0%,0%,0%);fill-opacity:1;" d="M 81.679688 109.066406 C 82.160156 108.972656 82.648438 109.460938 82.769531 110.15625 C 82.890625 110.851562 82.59375 111.488281 82.113281 111.585938 C 81.628906 111.679688 81.140625 111.191406 81.023438 110.496094 C 80.902344 109.800781 81.195312 109.160156 81.679688 109.066406 Z M 81.679688 109.066406 "/>
<path style=" stroke:none;fill-rule:evenodd;fill:rgb(0%,0%,0%);fill-opacity:1;" d="M 83.441406 107.40625 C 83.925781 107.3125 84.414062 107.800781 84.535156 108.492188 C 84.652344 109.1875 84.359375 109.828125 83.878906 109.921875 C 83.394531 110.015625 82.90625 109.53125 82.785156 108.835938 C 82.667969 108.140625 82.960938 107.5 83.441406 107.40625 Z M 83.441406 107.40625 "/>
<path style=" stroke:none;fill-rule:evenodd;fill:rgb(0%,0%,0%);fill-opacity:1;" d="M 80.417969 111.289062 C 80.902344 111.195312 81.390625 111.683594 81.507812 112.378906 C 81.628906 113.074219 81.335938 113.714844 80.851562 113.808594 C 80.371094 113.902344 79.882812 113.414062 79.761719 112.71875 C 79.640625 112.023438 79.9375 111.382812 80.417969 111.289062 Z M 80.417969 111.289062 "/>
<path style=" stroke:none;fill-rule:evenodd;fill:rgb(0%,0%,0%);fill-opacity:1;" d="M 92.429688 107.136719 C 92.914062 107.042969 93.402344 107.527344 93.519531 108.222656 C 93.640625 108.917969 93.347656 109.558594 92.863281 109.652344 C 92.382812 109.746094 91.894531 109.257812 91.773438 108.5625 C 91.652344 107.867188 91.949219 107.230469 92.429688 107.136719 Z M 92.429688 107.136719 "/>
<path style=" stroke:none;fill-rule:evenodd;fill:rgb(0%,0%,0%);fill-opacity:1;" d="M 94.519531 108.539062 C 95 108.445312 95.488281 108.933594 95.609375 109.628906 C 95.730469 110.324219 95.433594 110.960938 94.953125 111.058594 C 94.46875 111.152344 93.980469 110.664062 93.863281 109.96875 C 93.742188 109.273438 94.035156 108.632812 94.519531 108.539062 Z M 94.519531 108.539062 "/>
<path style=" stroke:none;fill-rule:evenodd;fill:rgb(0%,0%,0%);fill-opacity:1;" d="M 64.636719 110.769531 C 65.117188 110.664062 65.613281 111.136719 65.75 111.828125 C 65.882812 112.519531 65.605469 113.167969 65.125 113.273438 C 64.644531 113.378906 64.144531 112.90625 64.011719 112.214844 C 63.875 111.519531 64.15625 110.875 64.636719 110.769531 Z M 64.636719 110.769531 "/>
<path style=" stroke:none;fill-rule:evenodd;fill:rgb(0%,0%,0%);fill-opacity:1;" d="M 67.132812 110.882812 C 67.613281 110.777344 68.113281 111.253906 68.246094 111.945312 C 68.382812 112.636719 68.101562 113.28125 67.621094 113.390625 C 67.140625 113.496094 66.640625 113.019531 66.507812 112.328125 C 66.371094 111.636719 66.652344 110.988281 67.132812 110.882812 Z M 67.132812 110.882812 "/>
<path style=" stroke:none;fill-rule:evenodd;fill:rgb(0%,0%,0%);fill-opacity:1;" d="M 69.386719 111.867188 C 69.867188 111.761719 70.367188 112.238281 70.5 112.929688 C 70.636719 113.621094 70.355469 114.269531 69.875 114.375 C 69.394531 114.480469 68.894531 114.003906 68.761719 113.3125 C 68.625 112.621094 68.90625 111.976562 69.386719 111.867188 Z M 69.386719 111.867188 "/>
<path style=" stroke:none;fill-rule:evenodd;fill:rgb(0%,0%,0%);fill-opacity:1;" d="M 71.507812 113.226562 C 71.988281 113.117188 72.484375 113.59375 72.621094 114.285156 C 72.757812 114.976562 72.476562 115.625 71.996094 115.730469 C 71.515625 115.835938 71.015625 115.363281 70.882812 114.667969 C 70.746094 113.976562 71.027344 113.332031 71.507812 113.226562 Z M 71.507812 113.226562 "/>
<path style=" stroke:none;fill-rule:evenodd;fill:rgb(0%,0%,0%);fill-opacity:1;" d="M 161.519531 111.289062 C 161.972656 111.488281 162.136719 112.175781 161.886719 112.832031 C 161.636719 113.484375 161.0625 113.855469 160.609375 113.65625 C 160.15625 113.460938 159.992188 112.769531 160.242188 112.117188 C 160.492188 111.460938 161.066406 111.09375 161.519531 111.289062 Z M 161.519531 111.289062 "/>
<path style=" stroke:none;fill-rule:evenodd;fill:rgb(0%,0%,0%);fill-opacity:1;" d="M 156.90625 111.382812 C 157.359375 111.578125 157.523438 112.269531 157.273438 112.921875 C 157.019531 113.578125 156.449219 113.949219 155.996094 113.75 C 155.539062 113.554688 155.375 112.863281 155.628906 112.210938 C 155.878906 111.554688 156.449219 111.183594 156.90625 111.382812 Z M 156.90625 111.382812 "/>
<path style=" stroke:none;fill-rule:evenodd;fill:rgb(0%,0%,0%);fill-opacity:1;" d="M 159.234375 110.996094 C 159.6875 111.191406 159.851562 111.882812 159.601562 112.535156 C 159.347656 113.191406 158.777344 113.558594 158.324219 113.363281 C 157.871094 113.164062 157.703125 112.476562 157.957031 111.820312 C 158.207031 111.167969 158.777344 110.796875 159.234375 110.996094 Z M 159.234375 110.996094 "/>
<path style=" stroke:none;fill-rule:evenodd;fill:rgb(0%,0%,0%);fill-opacity:1;" d="M 154.714844 112.53125 C 155.171875 112.730469 155.335938 113.417969 155.082031 114.074219 C 154.832031 114.726562 154.261719 115.097656 153.808594 114.902344 C 153.351562 114.703125 153.1875 114.011719 153.4375 113.359375 C 153.691406 112.707031 154.261719 112.335938 154.714844 112.53125 Z M 154.714844 112.53125 "/>
<path style=" stroke:none;fill-rule:evenodd;fill:rgb(0%,0%,0%);fill-opacity:1;" d="M 106.707031 112.390625 C 112.945312 117.347656 113.054688 126.652344 113.054688 126.652344 C 113.054688 126.652344 112.054688 116.863281 118.738281 112.875 C 115.285156 113.960938 115.394531 113.71875 113.503906 113.597656 L 113.054688 110.457031 C 113.054688 110.457031 112.722656 112.027344 112.054688 113.476562 C 110.605469 113.960938 110.273438 113.960938 106.707031 112.390625 Z M 106.707031 112.390625 "/>
<path style=" stroke:none;fill-rule:evenodd;fill:rgb(0%,0%,0%);fill-opacity:1;" d="M 82.0625 116.011719 C 89.222656 119.265625 91.390625 128.285156 91.390625 128.285156 C 91.390625 128.285156 88.246094 119.019531 93.859375 113.472656 C 90.746094 115.390625 90.800781 115.128906 88.933594 115.484375 L 87.804688 112.542969 C 87.804688 112.542969 87.828125 114.152344 87.5 115.730469 C 86.199219 116.5625 85.875 116.648438 82.0625 116.011719 Z M 82.0625 116.011719 "/>
<path style=" stroke:none;fill-rule:evenodd;fill:rgb(0%,0%,0%);fill-opacity:1;" d="M 132.703125 113.097656 C 137.585938 119.546875 135.519531 128.589844 135.519531 128.589844 C 135.519531 128.589844 136.835938 118.84375 144.242188 116.75 C 140.644531 116.890625 140.808594 116.683594 139.003906 116.066406 L 139.304688 112.90625 C 139.304688 112.90625 138.613281 114.339844 137.628906 115.566406 C 136.113281 115.652344 135.789062 115.5625 132.703125 113.097656 Z M 132.703125 113.097656 "/>
<path style=" stroke:none;fill-rule:evenodd;fill:rgb(0%,0%,0%);fill-opacity:1;" d="M 68.585938 120.628906 C 73.96875 123.28125 76.761719 131.148438 76.761719 131.148438 C 76.761719 131.148438 73.265625 123.09375 76.308594 118.046875 C 74.449219 119.828125 74.449219 119.597656 73.222656 119.964844 L 72.019531 117.410156 C 72.019531 117.410156 72.269531 118.824219 72.273438 120.222656 C 71.503906 120.992188 71.292969 121.074219 68.585938 120.628906 Z M 68.585938 120.628906 "/>
<path style=" stroke:none;fill-rule:evenodd;fill:rgb(0%,0%,0%);fill-opacity:1;" d="M 151.269531 117.167969 C 152.300781 123.378906 147.828125 130.3125 147.828125 130.3125 C 147.828125 130.3125 152.042969 122.65625 157.675781 122.433594 C 155.238281 121.828125 155.417969 121.695312 154.433594 120.832031 L 155.71875 118.324219 C 155.71875 118.324219 154.769531 119.351562 153.691406 120.152344 C 152.65625 119.917969 152.472656 119.785156 151.269531 117.167969 Z M 151.269531 117.167969 "/>
<path style=" stroke:none;fill-rule:evenodd;fill:rgb(95.294118%,93.72549%,49.019608%);fill-opacity:1;" d="M 112.710938 77.824219 C 114.148438 77.824219 115.316406 79.039062 115.316406 80.542969 C 115.316406 82.042969 114.148438 83.261719 112.710938 83.261719 C 111.273438 83.261719 110.105469 82.042969 110.105469 80.542969 C 110.105469 79.039062 111.273438 77.824219 112.710938 77.824219 Z M 112.710938 77.824219 "/>
<path style=" stroke:none;fill-rule:evenodd;fill:rgb(0%,0%,0%);fill-opacity:1;" d="M 112.539062 77.824219 L 113.085938 77.824219 L 113.085938 83.261719 L 112.539062 83.261719 Z M 112.539062 77.824219 "/>
<path style=" stroke:none;fill-rule:evenodd;fill:rgb(95.294118%,93.72549%,49.019608%);fill-opacity:1;" d="M 112.9375 95.027344 C 113.601562 95.027344 114.140625 95.636719 114.140625 96.386719 C 114.140625 97.136719 113.601562 97.746094 112.9375 97.746094 C 112.273438 97.746094 111.734375 97.136719 111.734375 96.386719 C 111.734375 95.636719 112.273438 95.027344 112.9375 95.027344 Z M 112.9375 95.027344 "/>
<path style=" stroke:none;fill-rule:evenodd;fill:rgb(95.294118%,93.72549%,49.019608%);fill-opacity:1;" d="M 112.859375 92.277344 C 113.484375 92.277344 113.988281 92.847656 113.988281 93.554688 C 113.988281 94.261719 113.484375 94.835938 112.859375 94.835938 C 112.238281 94.835938 111.734375 94.261719 111.734375 93.554688 C 111.734375 92.847656 112.238281 92.277344 112.859375 92.277344 Z M 112.859375 92.277344 "/>
<path style=" stroke:none;fill-rule:evenodd;fill:rgb(95.294118%,93.72549%,49.019608%);fill-opacity:1;" d="M 112.859375 89.679688 C 113.484375 89.679688 113.988281 90.21875 113.988281 90.878906 C 113.988281 91.539062 113.484375 92.078125 112.859375 92.078125 C 112.238281 92.078125 111.734375 91.539062 111.734375 90.878906 C 111.734375 90.21875 112.238281 89.679688 112.859375 89.679688 Z M 112.859375 89.679688 "/>
<path style=" stroke:none;fill-rule:evenodd;fill:rgb(95.294118%,93.72549%,49.019608%);fill-opacity:1;" d="M 112.863281 87.582031 C 113.402344 87.582031 113.835938 88.007812 113.835938 88.535156 C 113.835938 89.066406 113.402344 89.492188 112.863281 89.492188 C 112.324219 89.492188 111.886719 89.066406 111.886719 88.535156 C 111.886719 88.007812 112.324219 87.582031 112.863281 87.582031 Z M 112.863281 87.582031 "/>
<path style=" stroke:none;fill-rule:evenodd;fill:rgb(95.294118%,93.72549%,49.019608%);fill-opacity:1;" d="M 112.863281 85.148438 C 113.402344 85.148438 113.835938 85.648438 113.835938 86.265625 C 113.835938 86.882812 113.402344 87.382812 112.863281 87.382812 C 112.324219 87.382812 111.886719 86.882812 111.886719 86.265625 C 111.886719 85.648438 112.324219 85.148438 112.863281 85.148438 Z M 112.863281 85.148438 "/>
<path style=" stroke:none;fill-rule:evenodd;fill:rgb(95.294118%,93.72549%,49.019608%);fill-opacity:1;" d="M 112.867188 83.367188 C 113.320312 83.367188 113.6875 83.722656 113.6875 84.160156 C 113.6875 84.597656 113.320312 84.953125 112.867188 84.953125 C 112.410156 84.953125 112.042969 84.597656 112.042969 84.160156 C 112.042969 83.722656 112.410156 83.367188 112.867188 83.367188 Z M 112.867188 83.367188 "/>
<path style=" stroke:none;fill-rule:evenodd;fill:rgb(0%,0%,0%);fill-opacity:1;" d="M 115.414062 80.238281 L 115.417969 80.808594 L 110.207031 80.839844 L 110.203125 80.269531 Z M 115.414062 80.238281 "/>
<path style=" stroke:none;fill-rule:evenodd;fill:rgb(95.294118%,93.72549%,49.019608%);fill-opacity:1;" d="M 112.9375 97.785156 C 113.773438 97.785156 114.445312 98.5 114.445312 99.386719 C 114.445312 100.273438 113.773438 100.992188 112.9375 100.992188 C 112.105469 100.992188 111.429688 100.273438 111.429688 99.386719 C 111.429688 98.5 112.105469 97.785156 112.9375 97.785156 Z M 112.9375 97.785156 "/>
</g>
</svg>
