<?xml version="1.0" encoding="UTF-8"?>
<svg xmlns="http://www.w3.org/2000/svg" xmlns:xlink="http://www.w3.org/1999/xlink" width="384pt" height="384pt" viewBox="0 0 384 384" version="1.1">
<g id="surface1">
<rect x="0" y="0" width="384" height="384" style="fill:rgb(100%,80%,0%);fill-opacity:1;stroke:none;"/>
<path style=" stroke:none;fill-rule:evenodd;fill:rgb(100%,40%,0%);fill-opacity:1;" d="M 152.820312 32.015625 L 275.542969 32.015625 L 275.542969 351.984375 L 152.820312 351.984375 Z M 152.820312 32.015625 "/>
<path style=" stroke:none;fill-rule:evenodd;fill:rgb(0%,40%,0%);fill-opacity:1;" d="M 31.996094 32.015625 L 152.917969 32.015625 L 152.917969 352.039062 L 31.996094 352.039062 Z M 31.996094 32.015625 "/>
<path style=" stroke:none;fill-rule:evenodd;fill:rgb(60%,10.588235%,20%);fill-opacity:1;" d="M 103.511719 165.152344 L 352.71875 165.152344 L 352.71875 351.308594 L 103.511719 351.308594 Z M 103.511719 165.152344 "/>
<path style="fill-rule:evenodd;fill:rgb(100%,80%,0%);fill-opacity:1;stroke-width:1.25;stroke-linecap:round;stroke-linejoin:round;stroke:rgb(60%,10.588235%,20%);stroke-opacity:1;stroke-miterlimit:4;" d="M 267.941337 101.34177 L 271.496321 101.432439 C 271.496321 101.432439 267.484214 104.802307 268.394683 109.358428 C 272.588128 103.162707 274.137058 104.345183 274.137058 104.345183 C 272.860135 105.712775 270.400736 107.62816 272.316121 111.821605 C 273.95572 107.537491 277.329365 104.254514 277.329365 104.254514 C 277.329365 104.254514 276.415119 108.995752 278.421172 113.370535 C 279.879433 108.995752 282.338832 105.25943 282.338832 105.25943 C 282.338832 105.25943 281.976156 109.996889 284.072878 111.727158 C 285.712477 110.272675 286.804284 106.532575 286.804284 106.532575 C 286.804284 106.532575 289.905922 112.002943 291.817529 112.822742 C 293.366459 109.086421 293.366459 106.169899 293.366459 106.169899 C 293.366459 106.169899 299.747295 110.72602 304.851209 108.085283 C 300.295088 106.445684 298.746158 102.614915 298.746158 102.614915 C 298.746158 102.614915 307.038601 106.260568 310.593584 104.620969 C 307.12927 101.976454 299.018165 98.058794 299.018165 98.058794 C 299.018165 98.058794 305.032547 100.246185 306.766593 99.698393 C 305.946794 98.515917 303.302279 97.057656 303.302279 97.057656 " transform="matrix(1.03398,0,0,1.03398,-75.3975,146.534967)"/>
<path style=" stroke:none;fill-rule:nonzero;fill:rgb(100%,80%,0%);fill-opacity:1;" d="M 253.117188 205.347656 C 264.480469 204.3125 282.039062 213.597656 291.34375 219.792969 C 291.34375 217.722656 291.34375 215.667969 293.402344 214.632812 C 295.46875 213.597656 298.574219 215.667969 297.539062 218.757812 C 294.4375 225.976562 282.039062 217.722656 277.914062 215.667969 L 279.980469 219.792969 C 273.777344 218.757812 272.742188 217.722656 268.617188 212.566406 C 267.582031 216.691406 267.582031 217.722656 262.414062 217.722656 C 264.359375 214.664062 265.007812 213.640625 262.414062 210.507812 L 261.378906 216.691406 L 256.21875 209.472656 L 256.21875 216.691406 C 255.1875 215.667969 251.050781 212.566406 248.984375 212.566406 C 245.890625 211.53125 243.824219 217.722656 242.789062 220.828125 C 245.890625 217.722656 246.914062 215.667969 252.085938 217.722656 C 249.28125 220.371094 250.097656 223.546875 253.117188 225.976562 C 253.117188 225.976562 253.65625 221.683594 253.988281 220.703125 C 255.632812 221.933594 259.117188 226.554688 263.449219 227.007812 C 266.550781 227.007812 269.652344 225.976562 272.742188 224.953125 C 283.074219 223.917969 305.800781 225.976562 300.640625 241.453125 C 299.605469 244.554688 298.574219 246.613281 296.503906 248.683594 C 310.96875 253.839844 298.574219 272.410156 295.46875 281.695312 C 293.402344 289.949219 294.839844 296.523438 305.023438 295.460938 C 302.964844 299.585938 299.605469 300.265625 295.46875 300.265625 C 295.46875 300.265625 295.988281 302.75 298.644531 303.917969 C 294.230469 307.878906 300.175781 313.8125 297.539062 316.78125 C 293.09375 318.910156 287.207031 315.746094 287.207031 315.746094 L 286.917969 318.671875 C 286.917969 318.671875 279.113281 318.132812 278.949219 317.804688 C 278.949219 317.804688 281.171875 313.648438 281.003906 313.5625 C 278.9375 316.65625 276.960938 318.464844 272.742188 317.804688 C 272.742188 317.804688 273.074219 315.859375 275.378906 313.398438 C 272.246094 316.519531 271.90625 317.886719 268.617188 317.804688 C 268.617188 312.644531 271.710938 306.460938 277.914062 308.519531 C 278.949219 308.519531 282.203125 311.082031 283.734375 309.429688 C 284.976562 307.648438 284.242188 301.632812 284.242188 299.5625 C 284.894531 290.445312 283.074219 290.980469 277.914062 285.824219 C 273.777344 282.730469 270.757812 277.992188 265.597656 276.957031 C 260.425781 275.921875 252.085938 281.695312 247.949219 283.753906 C 237.621094 289.949219 228.324219 294.074219 216.960938 296.140625 C 216.960938 296.140625 217.183594 295.613281 217.183594 294.582031 C 217.183594 293.886719 228.339844 285.207031 230.289062 269.964844 C 227.234375 285.007812 216.390625 292.953125 215.984375 295.75 C 215.574219 298.542969 213.359375 303.3125 213.09375 303.625 C 214.433594 302.820312 218.734375 300.714844 224.1875 300.265625 C 223.011719 306.726562 216.960938 305.425781 215.925781 308.519531 C 215.925781 311.621094 220.0625 315.746094 215.925781 317.804688 L 199.402344 317.804688 C 199.402344 319.859375 201.945312 314.285156 202.066406 313.3125 C 199.84375 314.664062 198.429688 318.203125 193.558594 317.839844 C 193.738281 316.511719 196.070312 314.425781 195.679688 313.605469 C 192.890625 316.191406 191.585938 318.367188 188.03125 317.804688 C 189.0625 314.710938 189.0625 310.585938 193.199219 310.585938 C 196.300781 309.550781 199.402344 311.621094 201.460938 308.519531 C 205.597656 303.359375 200.707031 292.070312 199.683594 285.878906 C 199.683594 280.71875 199.699219 279.742188 198.371094 273.445312 L 199.402344 292.015625 C 195.265625 288.914062 191.132812 286.855469 188.03125 282.730469 C 180.800781 273.445312 182.871094 263.125 192.164062 256.933594 C 196.300781 253.839844 198.535156 252.226562 203.703125 250.171875 C 202.671875 247.070312 205.171875 244.785156 201.511719 243.820312 C 200.417969 245.734375 199.339844 247.824219 197.253906 247.648438 L 198.371094 242.488281 C 198.371094 242.488281 194.648438 242.714844 195.382812 249.375 C 191.101562 247.316406 193.199219 242.488281 193.199219 242.488281 L 191.132812 242.488281 C 191.132812 242.488281 191.121094 248.628906 187.75 249.871094 C 188.660156 246.984375 189.0625 242.488281 189.0625 242.488281 C 189.0625 242.488281 183.53125 249.085938 180.316406 246.945312 C 182.207031 244.804688 183.675781 244.453125 183.417969 241.867188 C 183.167969 239.292969 181.835938 235.972656 181.59375 235.445312 C 182.765625 236.011719 190.558594 238.339844 195.445312 235.914062 C 195.121094 237.53125 195.265625 239.398438 195.265625 239.398438 C 200.425781 238.363281 201.460938 238.363281 206.628906 240.421875 C 205.597656 233.203125 201.460938 232.167969 197.335938 227.007812 L 197.335938 231.136719 C 193.199219 230.113281 192.164062 229.078125 190.097656 224.953125 L 187.007812 227.007812 C 181.558594 223.792969 177.535156 216.164062 185.269531 216.609375 C 189.878906 217.1875 185.972656 220.828125 185.972656 220.828125 C 185.972656 220.828125 197.800781 217.105469 202.496094 216.691406 C 202.496094 216.691406 201.128906 213.804688 196.765625 213.308594 C 200.386719 210.589844 204.023438 209.710938 206.628906 215.4375 C 209.226562 215.585938 211.644531 212.460938 210.105469 208.410156 C 213.941406 208.347656 215.832031 210.777344 217.582031 213.328125 C 219.007812 213.589844 220.445312 212.089844 220.105469 206.960938 C 223.722656 210.050781 225.5 211.003906 225.738281 213.609375 C 228.820312 214.292969 230.910156 213.597656 235.550781 211.53125 C 234.527344 215.667969 234.527344 216.691406 230.390625 218.757812 C 233.308594 222.363281 233.613281 226.710938 233.003906 228.292969 C 231.992188 227.996094 231.738281 227.929688 231.019531 227.734375 C 231.246094 229.328125 231.570312 233.714844 231.425781 236.292969 L 229.359375 236.292969 C 229.359375 238.875 232.460938 245.578125 232.460938 245.578125 L 230.390625 248.683594 C 237.621094 245.578125 244.855469 246.613281 252.085938 244.554688 C 260.347656 243.523438 268.617188 240.421875 277.914062 240.421875 C 284.105469 240.421875 284.105469 243.523438 292.378906 243.523438 L 292.378906 238.363281 C 292.378906 234.238281 289.277344 230.113281 284.105469 229.078125 C 281.015625 229.078125 275.84375 231.136719 272.742188 232.167969 C 268.617188 233.203125 262.414062 233.203125 258.277344 233.203125 C 244.855469 231.136719 246.996094 229.832031 242.3125 227.320312 C 239.511719 228.0625 237.941406 230.441406 236.542969 234.640625 C 233.949219 230.835938 234.527344 225.976562 237.621094 223.917969 C 234.527344 212.566406 242.789062 207.40625 253.117188 205.347656 Z M 253.117188 205.347656 "/>
<path style="fill-rule:nonzero;fill:rgb(100%,80%,0%);fill-opacity:1;stroke-width:1;stroke-linecap:butt;stroke-linejoin:round;stroke:rgb(60%,10.588235%,20%);stroke-opacity:1;stroke-miterlimit:4;" d="M 320.718298 146.691422 C 318.7198 143.691786 311.719392 138.701209 313.721667 133.710632 C 316.721303 128.720055 333.710422 120.741175 336.698723 131.71969 C 337.699861 134.71177 334.617112 142.645314 333.619753 145.648727 C 335.130904 145.259606 336.81206 142.932433 341.738413 143.7749 C 340.820389 147.696337 334.828674 150.71864 334.828674 150.71864 C 335.436912 153.370711 330.710786 165.64126 330.710786 165.64126 L 317.718663 165.64126 L 319.720938 161.65182 L 316.721303 165.64126 L 311.719392 165.64126 L 315.720165 160.650682 C 315.720165 160.650682 310.990261 166.19283 306.955487 165.969935 C 307.956625 157.991056 312.72053 156.661243 319.720938 159.660878 C 320.718298 155.671439 322.70924 150.680861 320.718298 146.691422 Z M 320.718298 146.691422 " transform="matrix(1.03398,0,0,1.03398,-75.3975,146.534967)"/>
<path style="fill-rule:evenodd;fill:rgb(100%,80%,0%);fill-opacity:1;stroke-width:1.25;stroke-linecap:butt;stroke-linejoin:miter;stroke:rgb(60%,10.588235%,20%);stroke-opacity:1;stroke-miterlimit:4;" d="M 267.219763 71.541866 C 265.874838 72.369221 266.974201 77.850923 269.0407 76.917787 C 271.620991 75.757978 268.243568 70.91096 267.219763 71.541866 Z M 267.219763 71.541866 " transform="matrix(1.03398,0,0,1.03398,-75.3975,146.534967)"/>
<path style="fill-rule:evenodd;fill:rgb(100%,80%,0%);fill-opacity:1;stroke-width:1.25;stroke-linecap:round;stroke-linejoin:round;stroke:rgb(60%,10.588235%,20%);stroke-opacity:1;stroke-miterlimit:4;" d="M 268.48913 69.811597 C 270.952307 71.541866 274.869966 76.192434 279.701873 75.916649 C 276.052442 72.909458 276.785351 70.722066 276.785351 70.722066 C 278.696957 73.000127 285.077794 75.096849 287.174516 74.186381 C 284.711339 72.361665 284.257994 72.180327 283.710202 70.450059 C 286.626724 70.812735 290.272376 71.451197 293.188898 70.174274 " transform="matrix(1.03398,0,0,1.03398,-75.3975,146.534967)"/>
<path style="fill-rule:evenodd;fill:rgb(100%,80%,0%);fill-opacity:1;stroke-width:1.25;stroke-linecap:round;stroke-linejoin:round;stroke:rgb(60%,10.588235%,20%);stroke-opacity:1;stroke-miterlimit:4;" d="M 273.230367 100.249963 L 273.502374 96.056518 C 273.502374 96.056518 276.237558 102.437355 278.243612 102.528024 C 276.966689 97.881234 277.514481 94.144912 277.514481 94.144912 " transform="matrix(1.03398,0,0,1.03398,-75.3975,146.534967)"/>
<path style="fill-rule:evenodd;fill:rgb(100%,80%,0%);fill-opacity:1;stroke-width:1.25;stroke-linecap:round;stroke-linejoin:round;stroke:rgb(60%,10.588235%,20%);stroke-opacity:1;stroke-miterlimit:4;" d="M 279.611204 95.14605 C 279.611204 95.14605 285.077794 105.172539 287.722309 103.53294 C 283.710202 99.977956 284.167325 95.327388 284.167325 95.327388 C 284.167325 95.327388 285.988262 101.526886 291.367961 103.44227 C 291.730637 99.977956 289.271239 94.32625 289.271239 94.32625 C 289.271239 94.32625 293.736691 102.165348 296.014752 102.346686 C 297.473013 100.525748 296.92522 98.610364 296.92522 98.610364 " transform="matrix(1.03398,0,0,1.03398,-75.3975,146.534967)"/>
<path style="fill-rule:evenodd;fill:rgb(100%,80%,0%);fill-opacity:1;stroke-width:1.25;stroke-linecap:round;stroke-linejoin:round;stroke:rgb(60%,10.588235%,20%);stroke-opacity:1;stroke-miterlimit:4;" d="M 275.330868 88.221199 L 279.339196 93.325112 L 279.977658 86.49093 C 279.977658 86.49093 283.895318 89.588791 284.624448 89.498121 C 285.353579 89.407452 283.532641 82.206816 283.532641 82.206816 C 283.532641 82.206816 288.817893 90.227252 289.184347 90.042136 C 289.547024 89.860798 289.728362 82.116147 289.728362 82.116147 C 289.728362 82.116147 293.740469 93.143774 295.108061 93.053105 C 296.475653 92.962436 296.109198 91.504175 296.109198 91.504175 " transform="matrix(1.03398,0,0,1.03398,-75.3975,146.534967)"/>
<path style="fill-rule:evenodd;fill:rgb(100%,80%,0%);fill-opacity:1;stroke-width:1.25;stroke-linecap:round;stroke-linejoin:round;stroke:rgb(60%,10.588235%,20%);stroke-opacity:1;stroke-miterlimit:4;" d="M 272.319898 79.290294 C 272.319898 79.290294 278.515619 84.938222 279.15408 84.575546 C 279.792542 84.209092 276.604013 78.013371 276.604013 78.013371 C 276.604013 78.013371 280.158996 81.383239 281.526588 81.659024 C 282.890402 81.931031 281.979933 77.284241 281.979933 77.284241 C 281.979933 77.284241 286.173378 80.839224 286.902509 80.657886 C 287.631639 80.47277 287.265185 77.284241 287.265185 77.284241 C 287.265185 77.284241 290.000369 80.019425 290.181707 80.019425 C 290.366823 80.019425 289.637693 72.180327 289.637693 72.180327 C 289.637693 72.180327 295.742744 78.651833 296.199868 78.561164 " transform="matrix(1.03398,0,0,1.03398,-75.3975,146.534967)"/>
<path style="fill-rule:evenodd;fill:rgb(100%,80%,0%);fill-opacity:1;stroke-width:1.25;stroke-linecap:round;stroke-linejoin:round;stroke:rgb(60%,10.588235%,20%);stroke-opacity:1;stroke-miterlimit:4;" d="M 247.529461 81.29257 C 247.801468 81.749693 248.817717 89.807908 261.303605 86.528709 C 262.489859 85.890248 261.968512 88.780325 261.915622 89.626569 C 262.463414 89.5359 268.413572 87.412733 272.516348 90.419924 C 272.03278 87.087835 271.133645 84.847553 267.578661 82.935947 C 265.848393 82.569493 264.586581 83.453516 264.586581 83.453516 C 264.586581 83.453516 249.535514 83.57063 247.529461 81.29257 Z M 247.529461 81.29257 " transform="matrix(1.03398,0,0,1.03398,-75.3975,146.534967)"/>
<path style="fill-rule:nonzero;fill:rgb(100%,80%,0%);fill-opacity:1;stroke-width:1;stroke-linecap:round;stroke-linejoin:round;stroke:rgb(60%,10.588235%,20%);stroke-opacity:1;stroke-miterlimit:4;" d="M 240.721724 132.611269 C 240.513941 133.544405 239.860368 133.812635 237.994096 136.506262 C 238.825229 137.647181 242.637108 139.43034 243.672247 138.497204 C 244.605383 137.979634 244.673385 135.505124 244.673385 135.505124 C 246.67566 138.497204 250.192865 143.211996 254.193638 144.213134 C 257.18194 145.210494 260.181575 143.211996 260.181575 140.223694 C 260.181575 137.231614 255.663233 132.403486 253.672291 130.412544 C 248.674158 124.424607 249.11617 113.109861 239.663918 114.685236 C 239.614806 114.76835 239.237018 116.056606 238.330327 116.287057 C 239.089681 117.74154 239.516581 118.969351 237.699421 119.426474 C 239.112348 120.812955 239.331465 121.821649 237.518083 122.516778 C 238.617446 123.990151 239.901924 124.534165 237.374524 125.792199 C 240.019039 128.37249 240.589498 132.169257 240.721724 132.611269 " transform="matrix(1.03398,0,0,1.03398,-75.3975,146.534967)"/>
<path style="fill-rule:evenodd;fill:rgb(100%,80%,0%);fill-opacity:1;stroke-width:1.25;stroke-linecap:butt;stroke-linejoin:miter;stroke:rgb(60%,10.588235%,20%);stroke-opacity:1;stroke-miterlimit:4;" d="M 238.258547 48.039684 C 235.255134 52.395578 234.94157 100.272631 235.874706 109.913776 C 232.871293 111.882051 227.276255 111.050917 225.719769 110.431345 C 226.445122 107.008588 229.036746 51.462442 238.258547 48.039684 Z M 238.258547 48.039684 " transform="matrix(1.03398,0,0,1.03398,-75.3975,146.534967)"/>
<path style=" stroke:none;fill-rule:evenodd;fill:rgb(100%,80%,0%);fill-opacity:1;" d="M 162.167969 297.683594 C 162.167969 297.683594 148.453125 299.609375 154.238281 291.46875 C 159.167969 289.324219 159.0625 294.359375 157.238281 296.074219 C 159.492188 296.324219 160.992188 294.859375 161.3125 292.644531 C 158.527344 288.894531 162.492188 286.429688 162.277344 286.429688 C 152.738281 288.574219 151.453125 282.035156 154.988281 280.964844 C 159.457031 281.214844 158.027344 282.644531 159.8125 283.964844 C 163.027344 281.003906 164.957031 280.714844 166.882812 283.753906 C 168.8125 280.75 171.597656 281.074219 171.707031 281.394531 C 174.8125 286.644531 167.957031 286.964844 165.171875 286.324219 C 167.527344 288.894531 166.5625 291.359375 165.8125 293.183594 C 165.882812 294.96875 167.242188 295.253906 169.457031 295.96875 C 164.742188 282.964844 186.066406 299.429688 164.632812 297.789062 C 164.667969 298.359375 164.707031 298.933594 164.742188 299.503906 C 166.492188 299.824219 167.707031 300.253906 168.277344 302.074219 C 167.527344 303.074219 166.347656 303.21875 164.527344 302.503906 C 164.527344 302.503906 165.597656 305.503906 163.671875 306.363281 C 162.0625 305.398438 161.847656 303.039062 161.847656 303.039062 C 160.953125 304.148438 159.632812 303.433594 158.527344 302.503906 C 159.527344 300.039062 162.347656 301.21875 162.167969 297.683594 Z M 162.167969 297.683594 "/>
<path style=" stroke:none;fill-rule:evenodd;fill:rgb(100%,80%,0%);fill-opacity:1;" d="M 150.382812 258.039062 C 151.203125 254.324219 159.847656 254.789062 155.742188 258.789062 C 158.488281 263.183594 166.917969 262.539062 170.097656 260.074219 C 167.417969 254.964844 174.707031 256.074219 174.386719 259.96875 C 173.492188 266.859375 149.453125 265.933594 150.382812 258.039062 Z M 150.382812 258.039062 "/>
<path style="fill-rule:nonzero;fill:rgb(100%,80%,0%);fill-opacity:1;stroke-width:1;stroke-linecap:butt;stroke-linejoin:miter;stroke:rgb(60%,10.588235%,20%);stroke-opacity:1;stroke-miterlimit:4;" d="M 384.269768 171.440303 C 386.759389 176.098427 391.179507 187.141165 393.63135 189.778124 C 395.924522 191.83329 401.640452 191.591506 403.400944 189.271889 C 403.400944 189.271889 407.061708 193.038433 408.538858 194.179353 C 409.419104 193.8809 409.95934 193.038433 409.95934 193.038433 C 408.470856 191.421502 406.438358 190.511033 405.440998 187.511397 C 406.929482 185.520456 407.749282 181.64813 406.748144 178.648495 C 402.380916 171.330744 387.839863 174.220821 384.269768 171.440303 Z M 384.269768 171.440303 " transform="matrix(1.03398,0,0,1.03398,-75.3975,146.534967)"/>
<path style="fill-rule:nonzero;fill:rgb(100%,80%,0%);fill-opacity:1;stroke-width:1;stroke-linecap:butt;stroke-linejoin:miter;stroke:rgb(60%,10.588235%,20%);stroke-opacity:1;stroke-miterlimit:4;" d="M 202.799381 44.288251 C 200.309759 39.626349 195.889642 28.583611 193.441576 25.946652 C 191.144626 23.895264 185.428696 24.137048 183.668205 26.456665 C 183.668205 26.456665 180.011219 22.686343 178.530291 21.545424 C 177.650045 21.847654 177.109808 22.686343 177.109808 22.686343 C 178.598292 24.307053 180.630791 25.217521 181.628151 28.217157 C 180.139667 30.208099 179.319867 34.076646 180.321005 37.076281 C 184.688232 44.39781 199.229286 41.507733 202.799381 44.288251 Z M 202.799381 44.288251 " transform="matrix(1.03398,0,0,1.03398,-75.3975,146.534967)"/>
<path style="fill-rule:nonzero;fill:rgb(100%,80%,0%);fill-opacity:1;stroke-width:1;stroke-linecap:butt;stroke-linejoin:miter;stroke:rgb(60%,10.588235%,20%);stroke-opacity:1;stroke-miterlimit:4;" d="M 201.318453 170.730062 C 196.660329 173.219684 185.61759 177.639801 182.980631 180.091644 C 180.929243 182.384817 181.171028 188.100746 183.490645 189.861238 C 183.490645 189.861238 179.720322 193.518224 178.579403 194.999152 C 178.881633 195.879398 179.720322 196.419635 179.720322 196.419635 C 181.341032 194.931151 182.251501 192.898652 185.251136 191.901292 C 187.2383 193.389776 191.110625 194.209576 194.110261 193.208438 C 201.431789 188.841211 198.541712 174.300157 201.318453 170.730062 Z M 201.318453 170.730062 " transform="matrix(1.03398,0,0,1.03398,-75.3975,146.534967)"/>
<path style="fill-rule:nonzero;fill:rgb(100%,80%,0%);fill-opacity:1;stroke-width:1;stroke-linecap:butt;stroke-linejoin:miter;stroke:rgb(60%,10.588235%,20%);stroke-opacity:1;stroke-miterlimit:4;" d="M 384.651333 44.284473 C 387.140955 39.626349 391.561073 28.583611 394.009138 25.946652 C 396.306088 23.895264 402.01824 24.137048 403.778731 26.456665 C 403.778731 26.456665 407.439496 22.686343 408.920424 21.545424 C 409.80067 21.847654 410.340906 22.686343 410.340906 22.686343 C 408.848644 24.307053 406.819924 25.217521 405.818786 28.217157 C 407.311048 30.204321 408.130847 34.076646 407.12971 37.076281 C 402.758704 44.39781 388.221428 41.507733 384.651333 44.284473 Z M 384.651333 44.284473 " transform="matrix(1.03398,0,0,1.03398,-75.3975,146.534967)"/>
<path style="fill-rule:evenodd;fill:rgb(100%,80%,0%);fill-opacity:1;stroke-width:1.25;stroke-linecap:butt;stroke-linejoin:round;stroke:rgb(100%,80%,0%);stroke-opacity:1;stroke-miterlimit:4;" d="M 222.100562 116.030161 C 221.904112 117.548868 225.527097 118.209997 229.240752 118.228886 C 232.954406 118.247776 236.762507 117.620648 236.932512 116.570398 C 236.981624 114.685236 233.691092 116.287057 229.943437 116.256834 C 226.19956 116.226611 223.079032 114.757016 222.100562 116.030161 Z M 222.100562 116.030161 " transform="matrix(1.03398,0,0,1.03398,-75.3975,146.534967)"/>
<path style="fill-rule:evenodd;fill:rgb(100%,80%,0%);fill-opacity:1;stroke-width:1.25;stroke-linecap:butt;stroke-linejoin:round;stroke:rgb(100%,80%,0%);stroke-opacity:1;stroke-miterlimit:4;" d="M 222.399014 120.238718 C 222.448126 121.6592 226.048444 122.002987 229.229418 122.101212 C 232.410392 122.199437 235.61781 121.560975 236.203381 120.533392 C 235.640478 118.91646 232.104383 120.265163 229.229418 120.336942 C 226.350675 120.4125 223.158368 118.91646 222.399014 120.238718 Z M 222.399014 120.238718 " transform="matrix(1.03398,0,0,1.03398,-75.3975,146.534967)"/>
<path style="fill-rule:evenodd;fill:rgb(100%,80%,0%);fill-opacity:1;stroke-width:1.25;stroke-linecap:butt;stroke-linejoin:round;stroke:rgb(100%,80%,0%);stroke-opacity:1;stroke-miterlimit:4;" d="M 223.430375 124.00904 C 223.184813 125.085736 226.354453 125.856423 229.274753 125.875312 C 232.191275 125.894202 236.331829 124.768394 236.354497 123.616141 C 236.184492 122.713228 232.096828 123.937261 229.346532 124.02793 C 226.600015 124.118599 223.430375 123.03057 223.430375 124.00904 Z M 223.430375 124.00904 " transform="matrix(1.03398,0,0,1.03398,-75.3975,146.534967)"/>
<path style="fill-rule:evenodd;fill:rgb(100%,80%,0%);fill-opacity:1;stroke-width:1.25;stroke-linecap:butt;stroke-linejoin:round;stroke:rgb(100%,80%,0%);stroke-opacity:1;stroke-miterlimit:4;" d="M 223.079032 127.881366 C 223.324594 128.931616 226.924912 129.286736 230.086996 129.04873 C 233.252858 128.810724 236.467833 127.832253 236.73984 126.706445 C 236.592503 125.996204 232.958184 127.254238 229.947215 127.409131 C 226.936246 127.560246 223.02992 127.046454 223.079032 127.881366 Z M 223.079032 127.881366 " transform="matrix(1.03398,0,0,1.03398,-75.3975,146.534967)"/>
</g>
</svg>
