<?xml version="1.0" encoding="UTF-8"?>
<svg xmlns="http://www.w3.org/2000/svg" xmlns:xlink="http://www.w3.org/1999/xlink" width="384pt" height="384pt" viewBox="0 0 384 384" version="1.1">
<g id="surface1">
<rect x="0" y="0" width="384" height="384" style="fill:rgb(100%,100%,100%);fill-opacity:1;stroke:none;"/>
<path style=" stroke:none;fill-rule:nonzero;fill:rgb(0%,58.431373%,26.27451%);fill-opacity:1;" d="M -94.5 268.800781 L 481.5 268.800781 L 481.5 384 L -94.5 384 Z M -94.5 268.800781 "/>
<path style=" stroke:none;fill-rule:nonzero;fill:rgb(0%,12.54902%,62.352941%);fill-opacity:1;" d="M -94.5 0 L 481.5 0 L 481.5 115.199219 L -94.5 115.199219 Z M -94.5 0 "/>
<path style="fill-rule:nonzero;fill:rgb(0%,0%,0%);fill-opacity:1;stroke-width:0.879545;stroke-linecap:butt;stroke-linejoin:miter;stroke:rgb(0%,0%,0%);stroke-opacity:1;stroke-miterlimit:4;" d="M 224.573447 108.912739 C 223.067634 108.944949 221.602083 110.611812 221.602083 110.611812 L 221.730922 128.407789 L 216.112977 134.294151 L 220.659943 134.294151 L 220.622365 144.496641 L 193.71635 180.727426 L 189.738425 179.353137 L 182.786452 194.183118 C 182.786452 194.183118 199.981178 204.951966 224.938493 204.656708 C 252.330341 204.331925 267.214005 193.686548 267.214005 193.686548 L 260.02851 179.047142 L 256.512261 180.577113 L 229.25999 144.53422 L 229.222412 134.025735 L 233.769378 134.025735 L 227.579706 128.211846 L 227.617284 110.480288 C 227.617284 110.480288 226.076577 108.880529 224.573447 108.912739 Z M 224.573447 108.912739 " transform="matrix(1.455297,0,0,1.455297,-133.621907,-36.172287)"/>
<path style="fill:none;stroke-width:4.397728;stroke-linecap:butt;stroke-linejoin:miter;stroke:rgb(0%,0%,0%);stroke-opacity:1;stroke-miterlimit:4;" d="M 233.951901 151.518403 L 215.347991 151.518403 C 215.347991 151.518403 208.594646 137.289673 209.689783 127.342178 C 210.803709 117.214844 216.593441 112.42362 224.288926 112.340411 C 233.388227 112.238413 238.157979 116.7988 239.596688 126.93687 C 241.024661 136.986363 233.951901 151.518403 233.951901 151.518403 Z M 233.951901 151.518403 " transform="matrix(1.455297,0,0,1.455297,-133.621907,-36.172287)"/>
<path style=" stroke:none;fill-rule:nonzero;fill:rgb(100%,100%,100%);fill-opacity:1;" d="M 145.867188 233.6875 C 145.425781 234.28125 142.179688 240.769531 142.179688 240.769531 L 147.785156 239.589844 Z M 145.867188 233.6875 "/>
<path style=" stroke:none;fill-rule:nonzero;fill:rgb(100%,100%,100%);fill-opacity:1;" d="M 149.113281 242.097656 L 143.210938 244.015625 L 150.292969 246.820312 Z M 149.113281 242.097656 "/>
<path style=" stroke:none;fill-rule:nonzero;fill:rgb(100%,100%,100%);fill-opacity:1;" d="M 151.769531 233.835938 L 154.71875 242.542969 L 161.949219 240.476562 L 160.03125 236.34375 Z M 151.769531 233.835938 "/>
<path style=" stroke:none;fill-rule:nonzero;fill:rgb(100%,100%,100%);fill-opacity:1;" d="M 156.34375 245.640625 L 157.375 249.179688 L 166.964844 251.542969 L 163.128906 243.425781 Z M 156.34375 245.640625 "/>
<path style=" stroke:none;fill-rule:nonzero;fill:rgb(100%,100%,100%);fill-opacity:1;" d="M 166.964844 238.261719 L 170.359375 246.378906 L 177.589844 243.574219 L 175.226562 240.035156 Z M 166.964844 238.261719 "/>
<path style=" stroke:none;fill-rule:nonzero;fill:rgb(100%,100%,100%);fill-opacity:1;" d="M 171.6875 249.328125 L 172.867188 252.425781 L 184.082031 254.050781 L 179.359375 246.671875 Z M 171.6875 249.328125 "/>
<path style=" stroke:none;fill-rule:nonzero;fill:rgb(100%,100%,100%);fill-opacity:1;" d="M 182.457031 240.625 L 186.589844 247.851562 L 197.0625 244.015625 L 195.882812 241.214844 Z M 182.457031 240.625 "/>
<path style=" stroke:none;fill-rule:nonzero;fill:rgb(100%,100%,100%);fill-opacity:1;" d="M 188.507812 250.507812 L 190.71875 254.34375 L 203.703125 253.902344 L 198.835938 246.671875 Z M 188.507812 250.507812 "/>
<path style=" stroke:none;fill-rule:nonzero;fill:rgb(100%,100%,100%);fill-opacity:1;" d="M 202.226562 240.917969 L 205.769531 246.96875 L 214.03125 242.984375 L 211.816406 239.738281 Z M 202.226562 240.917969 "/>
<path style=" stroke:none;fill-rule:nonzero;fill:rgb(100%,100%,100%);fill-opacity:1;" d="M 215.800781 245.492188 L 207.539062 249.625 L 209.753906 253.164062 L 220.816406 251.394531 Z M 215.800781 245.492188 "/>
<path style=" stroke:none;fill-rule:nonzero;fill:rgb(100%,100%,100%);fill-opacity:1;" d="M 218.457031 239.148438 L 222.734375 244.460938 L 229.667969 239 L 227.308594 236.492188 Z M 218.457031 239.148438 "/>
<path style=" stroke:none;fill-rule:nonzero;fill:rgb(100%,100%,100%);fill-opacity:1;" d="M 231.144531 241.953125 L 224.507812 246.96875 L 226.277344 250.066406 L 235.421875 247.707031 Z M 231.144531 241.953125 "/>
<path style=" stroke:none;fill-rule:nonzero;fill:rgb(100%,100%,100%);fill-opacity:1;" d="M 240.292969 231.476562 L 241.914062 233.835938 L 237.339844 240.625 L 232.621094 234.574219 Z M 240.292969 231.476562 "/>
<path style=" stroke:none;fill-rule:nonzero;fill:rgb(100%,100%,100%);fill-opacity:1;" d="M 243.390625 237.378906 L 246.195312 242.984375 L 240.585938 244.902344 L 240.144531 242.246094 Z M 243.390625 237.378906 "/>
</g>
</svg>
