<?xml version="1.0" encoding="UTF-8"?>
<svg xmlns="http://www.w3.org/2000/svg" xmlns:xlink="http://www.w3.org/1999/xlink" width="384pt" height="384pt" viewBox="0 0 384 384" version="1.1">
<g id="surface1">
<rect x="0" y="0" width="384" height="384" style="fill:rgb(92.156863%,0%,7.45098%);fill-opacity:1;stroke:none;"/>
<path style=" stroke:none;fill-rule:evenodd;fill:rgb(4.313725%,31.372549%,20.784314%);fill-opacity:1;" d="M 222.609375 235.027344 L 122.558594 304.996094 L 148.335938 226.050781 L 161.726562 235.75 L 152.121094 264.585938 L 217.371094 217.566406 L 222.605469 235.027344 Z M 232.871094 189.332031 L 267.796875 306.707031 L 202.210938 257.769531 L 215.703125 248.207031 L 239.039062 265.71875 L 214.648438 188.679688 L 232.871094 189.335938 Z M 191.472656 166.027344 L 314.402344 166.171875 L 247.410156 214.488281 L 242.050781 198.847656 L 266.960938 182.171875 L 185.699219 183.320312 L 191.476562 166.027344 Z M 156.714844 197.40625 L 195.640625 79.859375 L 222.429688 160.671875 L 205.898438 160.882812 L 196.03125 129.925781 L 171.339844 208.296875 Z M 176.664062 239.652344 L 77.492188 166.859375 L 161.207031 166.210938 L 156.324219 182.007812 L 125.25 181.882812 L 191.519531 229.082031 Z M 176.664062 239.652344 "/>
</g>
</svg>
