<?xml version="1.0" encoding="UTF-8"?>
<svg xmlns="http://www.w3.org/2000/svg" xmlns:xlink="http://www.w3.org/1999/xlink" width="384pt" height="384pt" viewBox="0 0 384 384" version="1.1">
<g id="surface1">
<path style=" stroke:none;fill-rule:evenodd;fill:rgb(0%,19.215686%,61.176471%);fill-opacity:1;" d="M 0 0 L 128 0 L 128 384 L 0 384 Z M 0 0 "/>
<path style=" stroke:none;fill-rule:evenodd;fill:rgb(100%,87.058824%,0%);fill-opacity:1;" d="M 128 0 L 256 0 L 256 384 L 128 384 Z M 128 0 "/>
<path style=" stroke:none;fill-rule:evenodd;fill:rgb(87.058824%,12.941176%,6.27451%);fill-opacity:1;" d="M 256 0 L 384 0 L 384 384 L 256 384 Z M 256 0 "/>
<path style="fill-rule:evenodd;fill:rgb(100%,9.803922%,0%);fill-opacity:1;stroke-width:1.25;stroke-linecap:butt;stroke-linejoin:miter;stroke:rgb(0%,0%,0%);stroke-opacity:1;stroke-miterlimit:4;" d="M 173.621923 690.940444 L 173.62104 754.719807 C 173.615587 758.264714 173.623262 761.806642 170.07764 761.804599 C 166.532018 761.802555 162.988619 768.887347 162.990919 772.437389 C 162.993141 779.524224 166.53331 783.071175 170.076553 783.05997 L 201.963889 783.062958 C 205.50951 783.065001 209.047458 779.525117 209.058363 772.435302 C 208.826462 768.709851 205.510598 761.80963 201.964976 761.807586 C 198.419354 761.805543 198.424807 758.260636 198.424886 754.723842 L 198.418016 690.939345 " transform="matrix(0.35021,-0.221637,0.231945,0.334647,-3.857065,48.373333)"/>
<path style="fill-rule:evenodd;fill:rgb(65.490196%,48.235294%,23.137255%);fill-opacity:1;stroke-width:3.125;stroke-linecap:butt;stroke-linejoin:miter;stroke:rgb(0%,0%,0%);stroke-opacity:1;stroke-miterlimit:4;" d="M 177.172502 696.258095 C 177.166514 720.721819 167.65106 740.555878 155.915116 740.551909 C 144.16579 740.5494 134.649551 720.716444 134.649274 696.260168 C 134.648997 671.803892 144.16445 651.969832 155.90666 651.966355 C 167.655985 651.968864 177.172225 671.801819 177.172502 696.258095 Z M 177.172502 696.258095 " transform="matrix(0.321437,-0.258392,0.270409,0.307152,-22.243603,57.946365)"/>
<path style="fill-rule:evenodd;fill:rgb(100%,9.803922%,0%);fill-opacity:1;stroke-width:1.25;stroke-linecap:butt;stroke-linejoin:miter;stroke:rgb(0%,0%,0%);stroke-opacity:1;stroke-miterlimit:4;" d="M 173.620859 690.939666 L 173.622847 754.716107 C 173.621229 758.261446 173.619611 761.806785 170.0713 761.803861 C 166.535853 761.804902 162.992427 768.888123 162.990809 772.433462 C 162.987573 779.52414 166.529522 783.063905 170.077832 783.066829 L 201.964547 783.064256 C 205.512858 783.06718 209.049922 779.5208 209.057902 772.43862 C 208.821128 768.714289 205.506326 761.804212 201.970879 761.805252 C 198.422569 761.802329 198.424186 758.25699 198.422429 754.724681 L 198.423816 690.935209 " transform="matrix(0.36676,0.195667,-0.204767,0.350461,235.015451,-43.689816)"/>
<path style="fill-rule:evenodd;fill:rgb(65.490196%,48.235294%,23.137255%);fill-opacity:1;stroke-width:3.125;stroke-linecap:butt;stroke-linejoin:miter;stroke:rgb(0%,0%,0%);stroke-opacity:1;stroke-miterlimit:4;" d="M 421.649486 701.575485 L 393.304815 701.575485 C 392.365572 702.519482 384.302964 755.646078 375.589395 775.985808 C 364.960143 800.792493 333.118885 822.6796 333.118885 822.6796 C 333.118885 822.6796 352.192022 828.723127 357.873976 832.684022 C 359.27819 832.265549 389.705934 825.599178 393.249018 786.622806 C 396.792102 825.599178 372.046311 843.311287 372.046311 843.311287 C 372.046311 843.311287 407.47715 853.938553 407.47715 878.745238 C 407.47715 853.938553 442.907989 843.311287 442.907989 843.311287 C 442.907989 843.311287 425.136773 825.599178 421.593689 786.622806 C 428.679857 825.599178 455.67611 832.265549 457.080325 832.684022 C 462.762278 828.723127 481.835415 822.6796 481.835415 822.6796 C 481.835415 822.6796 449.994157 800.792493 439.364905 775.985808 C 430.651337 755.646078 422.588729 702.519482 421.649486 701.575485 Z M 421.649486 701.575485 " transform="matrix(0.420052,0,0,0.401385,22.287423,-64.75422)"/>
<path style="fill-rule:evenodd;fill:rgb(65.490196%,48.235294%,23.137255%);fill-opacity:1;stroke-width:3.125;stroke-linecap:butt;stroke-linejoin:miter;stroke:rgb(0%,0%,0%);stroke-opacity:1;stroke-miterlimit:4;" d="M 336.607346 467.703183 L 389.762904 485.415293 C 407.478324 485.415293 425.193743 467.722647 425.193743 450.000806 C 425.779608 410.586497 411.021408 396.835282 407.478324 396.835282 L 414.564492 389.750438 L 403.93524 379.113441 C 403.93524 379.113441 407.487623 360.739561 442.909163 361.420795 C 478.330702 362.10203 478.340002 379.132905 478.340002 396.854746 C 478.340002 414.566855 460.624582 414.566855 460.624582 450.000806 C 460.624582 467.722647 478.340002 485.434757 496.055421 485.434757 L 549.210979 467.722647 L 549.210979 644.882668 L 336.607346 644.882668 Z M 336.607346 467.703183 " transform="matrix(0.420052,0,0,0.401385,7.38068,-41.998573)"/>
<path style="fill:none;stroke-width:0.60302;stroke-linecap:butt;stroke-linejoin:miter;stroke:rgb(0%,0%,0%);stroke-opacity:1;stroke-miterlimit:4;" d="M 302.160795 292.238916 L 316.804664 307.1991 L 331.448532 292.238916 L 346.0924 307.1991 L 375.380136 292.238916 L 389.639651 308.048488 L 404.667872 292.238916 L 426.268539 308.048488 L 448.599477 292.238916 L 463.243345 307.1991 L 477.887213 292.238916 " transform="matrix(0.101632,0,0,0.285132,152.298696,65.251499)"/>
<path style="fill:none;stroke-width:0.25;stroke-linecap:butt;stroke-linejoin:miter;stroke:rgb(0%,0%,0%);stroke-opacity:1;stroke-miterlimit:4;" d="M 432.280293 435.830996 L 425.194125 474.807369 " transform="matrix(0.420052,0,0,0.401385,7.38052,-41.998525)"/>
<path style="fill:none;stroke-width:0.25;stroke-linecap:butt;stroke-linejoin:miter;stroke:rgb(0%,0%,0%);stroke-opacity:1;stroke-miterlimit:4;" d="M 435.832752 435.830996 L 435.832752 474.807369 " transform="matrix(0.420052,0,0,0.401385,7.380488,-41.998525)"/>
<path style="fill:none;stroke-width:0.25;stroke-linecap:butt;stroke-linejoin:miter;stroke:rgb(0%,0%,0%);stroke-opacity:1;stroke-miterlimit:4;" d="M 442.909392 435.831118 L 442.909392 474.807491 " transform="matrix(0.420052,0,0,0.401385,7.380584,-41.998573)"/>
<path style="fill:none;stroke-width:0.25;stroke-linecap:butt;stroke-linejoin:miter;stroke:rgb(0%,0%,0%);stroke-opacity:1;stroke-miterlimit:4;" d="M 449.99556 435.830996 L 453.538643 474.807369 " transform="matrix(0.420052,0,0,0.401385,7.380584,-41.998525)"/>
<path style="fill:none;stroke-width:0.25;stroke-linecap:butt;stroke-linejoin:miter;stroke:rgb(0%,0%,0%);stroke-opacity:1;stroke-miterlimit:4;" d="M 457.091027 435.831118 L 460.634111 474.807491 " transform="matrix(0.420052,0,0,0.401385,7.380584,-41.998573)"/>
<path style="fill-rule:evenodd;fill:rgb(65.490196%,48.235294%,23.137255%);fill-opacity:1;stroke-width:3.125;stroke-linecap:butt;stroke-linejoin:miter;stroke:rgb(0%,0%,0%);stroke-opacity:1;stroke-miterlimit:4;" d="M 318.903302 361.420338 C 354.334141 379.132447 354.334141 414.566398 354.334141 432.288239 C 353.078717 448.404312 354.334141 786.618013 354.334141 786.618013 C 354.334141 786.618013 352.027882 766.589704 336.618721 751.184062 L 318.903302 733.462221 L 301.178583 715.750112 C 288.233772 703.974478 283.463163 680.316161 283.463163 662.604052 L 283.463163 414.566398 C 283.463163 414.566398 283.463163 396.854288 318.903302 361.420338 Z M 318.903302 361.420338 " transform="matrix(-0.420052,0,0,0.401385,267.846754,-41.99839)"/>
<path style="fill:none;stroke-width:3.125;stroke-linecap:butt;stroke-linejoin:miter;stroke:rgb(0%,0%,0%);stroke-opacity:1;stroke-miterlimit:4;" d="M 283.463163 574.018514 C 283.881638 574.018514 301.178583 556.306404 301.178583 556.306404 L 318.894002 574.018514 C 318.894002 574.018514 336.609422 556.306404 336.609422 556.306404 L 354.324841 574.018514 " transform="matrix(-0.420052,0,0,0.401385,267.846754,-98.886796)"/>
<path style="fill:none;stroke-width:3.125;stroke-linecap:butt;stroke-linejoin:miter;stroke:rgb(0%,0%,0%);stroke-opacity:1;stroke-miterlimit:4;" d="M 283.463163 574.018841 C 283.881638 574.018841 301.178583 556.306732 301.178583 556.306732 L 318.894002 574.018841 C 318.894002 574.018841 336.609422 556.306732 336.609422 556.306732 L 354.324841 574.018841 " transform="matrix(-0.420052,0,0,-0.401385,267.846754,369.01974)"/>
<path style="fill:none;stroke-width:3.125;stroke-linecap:butt;stroke-linejoin:miter;stroke:rgb(0%,0%,0%);stroke-opacity:1;stroke-miterlimit:4;" d="M 283.463163 574.022415 C 283.881638 574.022415 301.178583 556.300573 301.178583 556.300573 L 318.894002 574.022415 C 318.894002 574.022415 336.609422 556.300573 336.609422 556.300573 L 354.324841 574.022415 " transform="matrix(-0.420052,0,0,0.401385,267.846754,-70.443049)"/>
<path style="fill:none;stroke-width:3.125;stroke-linecap:butt;stroke-linejoin:miter;stroke:rgb(0%,0%,0%);stroke-opacity:1;stroke-miterlimit:4;" d="M 301.39247 556.990073 L 301.178583 715.750135 " transform="matrix(-0.420052,0,0,0.761467,267.846754,-299.715767)"/>
<path style="fill:none;stroke-width:3.125;stroke-linecap:butt;stroke-linejoin:miter;stroke:rgb(0%,0%,0%);stroke-opacity:1;stroke-miterlimit:4;" d="M 301.393302 539.272204 L 301.179415 715.752351 " transform="matrix(-0.420052,0,0,0.683438,260.491635,-237.047527)"/>
<path style="fill:none;stroke-width:3.125;stroke-linecap:butt;stroke-linejoin:miter;stroke:rgb(0%,0%,0%);stroke-opacity:1;stroke-miterlimit:4;" d="M 301.388721 539.271471 L 301.184134 715.75132 " transform="matrix(-0.420052,0,0,0.765602,253.048305,-288.460932)"/>
<path style="fill-rule:evenodd;fill:rgb(65.490196%,48.235294%,23.137255%);fill-opacity:1;stroke-width:3.125;stroke-linecap:butt;stroke-linejoin:miter;stroke:rgb(0%,0%,0%);stroke-opacity:1;stroke-miterlimit:4;" d="M 318.901308 361.420338 C 354.332147 379.132447 354.332147 414.566398 354.332147 432.288239 C 353.086023 448.404312 354.332147 786.618013 354.332147 786.618013 C 354.332147 786.618013 352.025888 766.589704 336.616728 751.184062 L 318.901308 733.462221 L 301.185889 715.750112 C 288.231779 703.974478 283.470469 680.316161 283.470469 662.604052 L 283.470469 414.566398 C 283.470469 414.566398 283.470469 396.854288 318.901308 361.420338 Z M 318.901308 361.420338 " transform="matrix(0.420052,0,0,0.401385,119.009552,-41.99839)"/>
<path style="fill:none;stroke-width:3.125;stroke-linecap:butt;stroke-linejoin:miter;stroke:rgb(0%,0%,0%);stroke-opacity:1;stroke-miterlimit:4;" d="M 283.46117 574.018514 C 283.879645 574.018514 301.17659 556.306404 301.17659 556.306404 L 318.892009 574.018514 C 318.892009 574.018514 336.607429 556.306404 336.607429 556.306404 L 354.322848 574.018514 " transform="matrix(0.420052,0,0,0.401385,119.009552,-98.886796)"/>
<path style="fill:none;stroke-width:3.125;stroke-linecap:butt;stroke-linejoin:miter;stroke:rgb(0%,0%,0%);stroke-opacity:1;stroke-miterlimit:4;" d="M 283.46117 574.018841 C 283.879645 574.018841 301.17659 556.306732 301.17659 556.306732 L 318.892009 574.018841 C 318.892009 574.018841 336.607429 556.306732 336.607429 556.306732 L 354.322848 574.018841 " transform="matrix(0.420052,0,0,-0.401385,119.009552,369.01974)"/>
<path style="fill:none;stroke-width:3.125;stroke-linecap:butt;stroke-linejoin:miter;stroke:rgb(0%,0%,0%);stroke-opacity:1;stroke-miterlimit:4;" d="M 283.46117 574.022415 C 283.879645 574.022415 301.17659 556.300573 301.17659 556.300573 L 318.892009 574.022415 C 318.892009 574.022415 336.607429 556.300573 336.607429 556.300573 L 354.322848 574.022415 " transform="matrix(0.420052,0,0,0.401385,119.009552,-70.443049)"/>
<path style="fill:none;stroke-width:3.125;stroke-linecap:butt;stroke-linejoin:miter;stroke:rgb(0%,0%,0%);stroke-opacity:1;stroke-miterlimit:4;" d="M 301.390476 556.990073 L 301.185889 715.750135 " transform="matrix(0.420052,0,0,0.761467,119.009552,-299.715767)"/>
<path style="fill:none;stroke-width:3.125;stroke-linecap:butt;stroke-linejoin:miter;stroke:rgb(0%,0%,0%);stroke-opacity:1;stroke-miterlimit:4;" d="M 301.391308 539.272204 L 301.177422 715.752351 " transform="matrix(0.420052,0,0,0.683438,126.364671,-237.047527)"/>
<path style="fill:none;stroke-width:3.125;stroke-linecap:butt;stroke-linejoin:miter;stroke:rgb(0%,0%,0%);stroke-opacity:1;stroke-miterlimit:4;" d="M 301.387429 539.271471 L 301.182841 715.75132 " transform="matrix(0.420052,0,0,0.765602,133.803801,-288.460932)"/>
<path style="fill-rule:evenodd;fill:rgb(65.490196%,48.235294%,23.137255%);fill-opacity:1;stroke-width:3.125;stroke-linecap:butt;stroke-linejoin:miter;stroke:rgb(0%,0%,0%);stroke-opacity:1;stroke-miterlimit:4;" d="M 177.169844 696.259455 C 177.166467 720.72036 167.64872 740.553065 155.911487 740.551594 C 144.16567 740.5537 134.653309 720.721819 134.648102 696.26449 C 134.651479 671.803585 144.169227 651.970881 155.90646 651.972351 C 167.652277 651.970245 177.173221 671.79855 177.169844 696.259455 Z M 177.169844 696.259455 " transform="matrix(0.387742,0.154377,-0.161556,0.37051,217.675684,-54.908246)"/>
<path style=" stroke:none;fill-rule:evenodd;fill:rgb(100%,0%,0%);fill-opacity:1;" d="M 148.773438 152.847656 L 238.078125 152.847656 L 238.078125 195.511719 L 148.773438 195.511719 Z M 148.773438 152.847656 "/>
<path style=" stroke:none;fill-rule:evenodd;fill:rgb(33.72549%,30.196078%,100%);fill-opacity:1;" d="M 148.773438 195.511719 L 238.078125 195.511719 L 238.078125 216.847656 C 238.078125 231.070312 215.753906 231.070312 193.425781 245.292969 C 171.101562 231.070312 148.773438 231.070312 148.773438 216.847656 Z M 148.773438 195.511719 "/>
<path style="fill:none;stroke-width:2.5;stroke-linecap:butt;stroke-linejoin:miter;stroke:rgb(100%,100%,0%);stroke-opacity:1;stroke-miterlimit:4;" d="M 336.605956 485.434253 L 549.209589 485.434253 L 549.209589 644.882165 C 549.209589 680.316115 496.06333 680.316115 442.907772 715.750066 C 389.761514 680.316115 336.605956 680.316115 336.605956 644.882165 Z M 336.605956 485.434253 " transform="matrix(0.420052,0,0,0.401385,7.381264,-41.998371)"/>
<path style="fill-rule:evenodd;fill:rgb(100%,100%,0%);fill-opacity:1;stroke-width:3.0112;stroke-linecap:butt;stroke-linejoin:miter;stroke:rgb(0%,0%,0%);stroke-opacity:1;stroke-miterlimit:4;" d="M 385.593472 129.90761 C 385.593472 129.90761 334.977988 185.348678 334.977988 238.509926 C 334.977988 291.650449 388.117604 309.370865 388.117604 309.370865 C 388.117604 309.370865 370.408827 309.370865 370.408827 380.231804 C 370.408827 415.672636 423.548443 397.95222 423.548443 415.672636 C 423.548443 433.372327 422.804489 476.232936 423.548443 504.253992 C 423.548443 521.953682 388.117604 504.253992 388.117604 521.953682 C 388.117604 530.824253 414.700697 575.114931 441.270505 575.114931 C 467.840313 575.114931 494.423406 530.824253 494.423406 521.953682 C 494.423406 504.253992 458.992567 521.953682 458.992567 504.253992 L 458.992567 415.672636 C 458.992567 397.95222 512.132183 415.672636 512.132183 380.231804 C 512.132183 309.370865 494.423406 309.370865 494.423406 309.370865 C 494.423406 309.370865 547.576307 291.650449 547.576307 238.509926 C 547.576307 185.348678 496.947538 129.90761 496.947538 129.90761 C 496.947538 129.90761 525.430372 203.069094 525.430372 238.509926 C 525.430372 256.209617 512.132183 291.650449 476.701344 291.650449 C 476.701344 291.650449 467.747319 273.930033 458.992567 291.650449 C 458.992567 291.650449 448.803046 273.930033 441.270505 291.650449 C 438.666664 297.764511 434.070087 273.930033 423.548443 291.650449 C 419.084715 296.355168 415.564216 273.930033 405.839666 291.650449 C 388.117604 291.650449 352.686765 273.930033 352.686765 238.509926 C 352.686765 203.069094 385.593472 129.90761 385.593472 129.90761 Z M 385.593472 129.90761 " transform="matrix(0.294037,0,0,0.188474,63.676036,131.207155)"/>
<path style="fill-rule:evenodd;fill:rgb(100%,100%,0%);fill-opacity:1;stroke-width:3.0112;stroke-linecap:butt;stroke-linejoin:miter;stroke:rgb(0%,0%,0%);stroke-opacity:1;stroke-miterlimit:4;" d="M 382.68256 248.037999 C 379.135491 251.582082 387.265852 309.30297 389.763414 311.810771 C 393.310483 315.354855 414.56633 315.354855 418.113399 311.810771 C 420.637531 309.282244 418.113399 255.126165 414.56633 251.582082 C 411.032545 248.037999 385.180122 245.530197 382.68256 248.037999 Z M 382.68256 248.037999 " transform="matrix(0.294037,0,0,0.188474,64.797576,168.696514)"/>
<path style="fill-rule:evenodd;fill:rgb(100%,100%,0%);fill-opacity:1;stroke-width:3.0112;stroke-linecap:butt;stroke-linejoin:miter;stroke:rgb(0%,0%,0%);stroke-opacity:1;stroke-miterlimit:4;" d="M 382.685408 248.037999 C 379.138338 251.582082 387.255415 309.30297 389.766262 311.810771 C 393.313331 315.354855 414.569177 315.354855 418.116247 311.810771 C 420.640379 309.282244 418.116247 255.126165 414.569177 251.582082 C 411.022108 248.037999 385.18297 245.530197 382.685408 248.037999 Z M 382.685408 248.037999 " transform="matrix(-0.294037,0,0,0.188474,322.05873,168.696514)"/>
<path style="fill-rule:evenodd;fill:rgb(100%,100%,0%);fill-opacity:1;stroke-width:3.0112;stroke-linecap:butt;stroke-linejoin:miter;stroke:rgb(0%,0%,0%);stroke-opacity:1;stroke-miterlimit:4;" d="M 414.56821 228.541764 C 414.56821 237.353303 407.436938 244.485661 398.629759 244.485661 C 389.822581 244.485661 382.679751 237.353303 382.679751 228.541764 C 382.679751 219.730226 389.822581 212.597868 398.629759 212.597868 C 407.42538 212.597868 414.56821 219.730226 414.56821 228.541764 Z M 414.56821 228.541764 " transform="matrix(0.33797,0,0,0.234955,47.927428,157.806939)"/>
<path style="fill-rule:evenodd;fill:rgb(100%,100%,0%);fill-opacity:1;stroke-width:3.0112;stroke-linecap:butt;stroke-linejoin:miter;stroke:rgb(0%,0%,0%);stroke-opacity:1;stroke-miterlimit:4;" d="M 414.565879 228.53786 C 414.565879 237.349248 407.434695 244.481484 398.627626 244.481484 C 389.820557 244.481484 382.677816 237.349248 382.677816 228.53786 C 382.677816 219.726473 389.820557 212.594236 398.627626 212.594236 C 407.434695 212.594236 414.565879 219.726473 414.565879 228.53786 Z M 414.565879 228.53786 " transform="matrix(0.337974,0,0,0.234959,69.481162,157.806939)"/>
<path style=" stroke:none;fill-rule:evenodd;fill:rgb(0%,0%,0%);fill-opacity:1;" d="M 202.808594 233.257812 C 202.808594 234.179688 201.640625 234.929688 200.203125 234.929688 C 198.761719 234.929688 197.597656 234.179688 197.597656 233.257812 C 197.597656 232.335938 198.761719 231.589844 200.203125 231.589844 C 201.640625 231.589844 202.808594 232.335938 202.808594 233.257812 Z M 202.808594 233.257812 "/>
<path style=" stroke:none;fill-rule:evenodd;fill:rgb(0%,0%,0%);fill-opacity:1;" d="M 189.261719 233.257812 C 189.261719 234.179688 188.09375 234.929688 186.65625 234.929688 C 185.21875 234.929688 184.050781 234.179688 184.050781 233.257812 C 184.050781 232.335938 185.21875 231.589844 186.65625 231.589844 C 188.09375 231.589844 189.261719 232.335938 189.261719 233.257812 Z M 189.261719 233.257812 "/>
<path style="fill-rule:evenodd;fill:rgb(100%,100%,0%);fill-opacity:1;stroke-width:1.25;stroke-linecap:butt;stroke-linejoin:miter;stroke:rgb(0%,0%,0%);stroke-opacity:1;stroke-miterlimit:4;" d="M 439.365478 549.924717 L 431.587434 539.660211 L 418.824198 541.405875 L 420.578071 528.647564 L 410.321729 520.866889 L 420.578071 513.076239 L 418.824198 500.317928 L 431.587434 502.083543 L 439.365478 491.809062 L 447.153053 502.083543 L 459.916289 500.317928 L 458.162416 513.076239 L 468.418758 520.866889 L 458.162416 528.647564 L 459.916289 541.405875 L 447.153053 539.660211 Z M 439.365478 549.924717 " transform="matrix(0.409807,0,0,0.391595,13.370549,-35.476797)"/>
<path style="fill-rule:evenodd;fill:rgb(100%,100%,0%);fill-opacity:1;stroke-width:1.25;stroke-linecap:butt;stroke-linejoin:miter;stroke:rgb(0%,0%,0%);stroke-opacity:1;stroke-miterlimit:4;" d="M 496.05546 591.726876 L 517.323262 602.363874 L 538.581766 591.726876 L 517.323262 581.099611 Z M 496.05546 591.726876 " transform="matrix(0.420052,0,0,0.401385,7.380664,-41.998573)"/>
<path style="fill-rule:evenodd;fill:rgb(100%,100%,0%);fill-opacity:1;stroke-width:1.25;stroke-linecap:butt;stroke-linejoin:miter;stroke:rgb(0%,0%,0%);stroke-opacity:1;stroke-miterlimit:4;" d="M 496.063004 591.726525 L 517.321508 602.363523 L 538.580011 591.726525 L 517.321508 581.09926 Z M 496.063004 591.726525 " transform="matrix(0.420052,0,0,0.401385,-56.618599,-41.998433)"/>
<path style="fill-rule:evenodd;fill:rgb(100%,100%,0%);fill-opacity:1;stroke-width:1.25;stroke-linecap:butt;stroke-linejoin:miter;stroke:rgb(0%,0%,0%);stroke-opacity:1;stroke-miterlimit:4;" d="M 535.042704 659.058489 C 531.498091 651.972658 520.869236 648.427336 513.779476 648.429549 C 506.689716 648.431761 499.604803 648.425535 492.521903 659.059518 C 492.522436 644.885642 503.026646 637.798885 513.78068 637.80241 C 524.539561 637.797495 535.040772 648.3061 535.042704 659.058489 Z M 535.042704 659.058489 " transform="matrix(0.364257,-0.199894,0.20919,0.348069,-103.156215,98.530402)"/>
<path style="fill-rule:evenodd;fill:rgb(100%,100%,0%);fill-opacity:1;stroke-width:1.25;stroke-linecap:butt;stroke-linejoin:miter;stroke:rgb(0%,0%,0%);stroke-opacity:1;stroke-miterlimit:4;" d="M 386.220127 651.972219 C 386.220127 655.884455 383.049021 659.057063 379.133959 659.057063 C 375.218898 659.057063 372.047792 655.884455 372.047792 651.972219 C 372.047792 648.059984 375.218898 644.887376 379.133959 644.887376 C 383.049021 644.887376 386.220127 648.059984 386.220127 651.972219 Z M 386.220127 651.972219 " transform="matrix(0.420052,0,0,0.401385,5.89227,-49.109838)"/>
<path style="fill-rule:evenodd;fill:rgb(100%,100%,0%);fill-opacity:1;stroke-width:1.25;stroke-linecap:butt;stroke-linejoin:miter;stroke:rgb(0%,0%,0%);stroke-opacity:1;stroke-miterlimit:4;" d="M 386.220759 651.965772 C 386.220759 655.88774 383.049653 659.060348 379.134592 659.060348 C 375.21953 659.060348 372.048424 655.88774 372.048424 651.965772 C 372.048424 648.053537 375.21953 644.880929 379.134592 644.880929 C 383.049653 644.880929 386.220759 648.053537 386.220759 651.965772 Z M 386.220759 651.965772 " transform="matrix(0.420052,0,0,0.401385,2.915442,-39.154125)"/>
<path style="fill-rule:evenodd;fill:rgb(100%,100%,0%);fill-opacity:1;stroke-width:1.25;stroke-linecap:butt;stroke-linejoin:miter;stroke:rgb(0%,0%,0%);stroke-opacity:1;stroke-miterlimit:4;" d="M 386.220676 651.969385 C 386.220676 655.88162 383.049569 659.054229 379.134508 659.054229 C 375.219447 659.054229 372.04834 655.88162 372.04834 651.969385 C 372.04834 648.05715 375.219447 644.884541 379.134508 644.884541 C 383.049569 644.884541 386.220676 648.05715 386.220676 651.969385 Z M 386.220676 651.969385 " transform="matrix(0.420052,0,0,0.401385,1.427196,-44.843075)"/>
<path style="fill-rule:evenodd;fill:rgb(100%,100%,0%);fill-opacity:1;stroke-width:1.25;stroke-linecap:butt;stroke-linejoin:miter;stroke:rgb(0%,0%,0%);stroke-opacity:1;stroke-miterlimit:4;" d="M 386.219595 651.965772 C 386.219595 655.88774 383.048489 659.060348 379.133427 659.060348 C 375.218366 659.060348 372.047259 655.88774 372.047259 651.965772 C 372.047259 648.053537 375.218366 644.880929 379.133427 644.880929 C 383.048489 644.880929 386.219595 648.053537 386.219595 651.965772 Z M 386.219595 651.965772 " transform="matrix(0.420052,0,0,0.401385,8.869056,-39.154125)"/>
<path style="fill-rule:evenodd;fill:rgb(100%,100%,0%);fill-opacity:1;stroke-width:1.25;stroke-linecap:butt;stroke-linejoin:miter;stroke:rgb(0%,0%,0%);stroke-opacity:1;stroke-miterlimit:4;" d="M 386.219379 651.969385 C 386.219379 655.88162 383.048272 659.054229 379.133211 659.054229 C 375.21815 659.054229 372.047043 655.88162 372.047043 651.969385 C 372.047043 648.05715 375.21815 644.884541 379.133211 644.884541 C 383.048272 644.884541 386.219379 648.05715 386.219379 651.969385 Z M 386.219379 651.969385 " transform="matrix(0.420052,0,0,0.401385,10.357428,-44.843075)"/>
<path style="fill-rule:evenodd;fill:rgb(100%,100%,0%);fill-opacity:1;stroke-width:1.25;stroke-linecap:butt;stroke-linejoin:miter;stroke:rgb(0%,0%,0%);stroke-opacity:1;stroke-miterlimit:4;" d="M 386.220027 651.968407 C 386.220027 655.880642 383.048921 659.053251 379.133859 659.053251 C 375.218798 659.053251 372.047692 655.880642 372.047692 651.968407 C 372.047692 648.056172 375.218798 644.883563 379.133859 644.883563 C 383.048921 644.883563 386.220027 648.056172 386.220027 651.968407 Z M 386.220027 651.968407 " transform="matrix(0.420052,0,0,0.401385,5.892312,-43.420808)"/>
<path style=" stroke:none;fill-rule:evenodd;fill:rgb(85.490196%,27.058824%,0%);fill-opacity:1;" d="M 179.042969 119.191406 C 171.53125 119.191406 170.539062 120.375 167.136719 121.5625 C 167.136719 118.289062 175.503906 114.449219 183.015625 114.449219 C 183.015625 116.820312 181.027344 119.191406 179.042969 119.191406 Z M 179.042969 119.191406 "/>
<path style=" stroke:none;fill-rule:evenodd;fill:rgb(79.215686%,78.823529%,78.039216%);fill-opacity:1;" d="M 190.449219 111.601562 C 190.449219 113.171875 189.117188 114.445312 187.472656 114.445312 C 185.828125 114.445312 184.496094 113.171875 184.496094 111.601562 C 184.496094 110.03125 185.828125 108.757812 187.472656 108.757812 C 189.117188 108.757812 190.449219 110.03125 190.449219 111.601562 Z M 190.449219 111.601562 "/>
<path style="fill-rule:evenodd;fill:rgb(100%,100%,0%);fill-opacity:1;stroke-width:1.25;stroke-linecap:butt;stroke-linejoin:miter;stroke:rgb(0%,0%,0%);stroke-opacity:1;stroke-miterlimit:4;" d="M 361.418424 357.868459 L 361.418424 368.495724 L 379.133843 368.495724 L 379.133843 421.651516 L 389.763095 421.651516 L 389.763095 368.495724 L 407.478515 368.495724 L 407.478515 357.868459 L 389.763095 357.868459 L 389.763095 343.698771 L 379.133843 343.698771 L 379.133843 357.868459 Z M 361.418424 357.868459 " transform="matrix(0.420052,0,0,0.401385,7.3806,-41.9985)"/>
<path style=" stroke:none;fill-rule:evenodd;fill:rgb(85.490196%,27.058824%,0%);fill-opacity:1;" d="M 183 114.453125 C 174.238281 114.453125 169.109375 115.242188 165.140625 116.820312 C 165.140625 112.460938 170.269531 107.339844 179.03125 107.339844 C 181.015625 107.339844 183 112.082031 183 114.453125 Z M 183 114.453125 "/>
<path style="fill-rule:evenodd;fill:rgb(0%,52.156863%,0%);fill-opacity:1;stroke-width:0.875;stroke-linecap:butt;stroke-linejoin:miter;stroke:rgb(0%,0%,0%);stroke-opacity:1;stroke-miterlimit:4;" d="M 67.318571 613.000288 C 53.149259 598.819909 50.688514 591.62211 70.863988 602.882954 L 354.614551 850.387041 L 351.249056 857.358141 Z M 67.318571 613.000288 " transform="matrix(0.236658,0.180768,-0.0857915,0.144426,142.272059,89.262423)"/>
<path style=" stroke:none;fill-rule:evenodd;fill:rgb(0%,56.078431%,0%);fill-opacity:1;" d="M 136.753906 247.222656 C 137.222656 240.769531 125.40625 233.789062 124.941406 234.242188 C 124.472656 234.695312 125.660156 238.453125 127.898438 240.410156 C 123.609375 238.203125 119.113281 236.839844 119.019531 237.800781 C 118.671875 239.09375 125.6875 242.183594 126.269531 243.375 C 126.367188 244.230469 121.117188 244.117188 121.214844 244.972656 C 121.308594 245.824219 135.996094 253.246094 136.753906 247.222656 Z M 136.753906 247.222656 "/>
<path style=" stroke:none;fill-rule:evenodd;fill:rgb(0%,56.078431%,0%);fill-opacity:1;" d="M 124.949219 228.425781 C 125.417969 221.972656 113.601562 214.992188 113.136719 215.445312 C 112.667969 215.898438 113.855469 219.65625 116.09375 221.613281 C 111.804688 219.40625 107.3125 218.042969 107.214844 219.003906 C 106.867188 220.296875 113.882812 223.386719 114.46875 224.578125 C 114.5625 225.433594 109.3125 225.320312 109.410156 226.175781 C 109.503906 227.027344 124.191406 234.449219 124.949219 228.425781 Z M 124.949219 228.425781 "/>
<path style=" stroke:none;fill-rule:evenodd;fill:rgb(0%,56.078431%,0%);fill-opacity:1;" d="M 115.914062 211.359375 C 116.382812 204.90625 104.570312 197.925781 104.101562 198.378906 C 103.636719 198.832031 104.820312 202.589844 107.0625 204.546875 C 102.773438 202.339844 98.277344 200.976562 98.183594 201.9375 C 97.832031 203.230469 104.851562 206.320312 105.433594 207.511719 C 105.527344 208.367188 100.28125 208.253906 100.375 209.105469 C 100.472656 209.960938 115.160156 217.382812 115.914062 211.359375 Z M 115.914062 211.359375 "/>
<path style=" stroke:none;fill-rule:evenodd;fill:rgb(0%,56.078431%,0%);fill-opacity:1;" d="M 106.984375 192.867188 C 107.453125 186.414062 95.640625 179.433594 95.171875 179.886719 C 94.707031 180.339844 95.890625 184.097656 98.132812 186.054688 C 93.839844 183.847656 89.347656 182.484375 89.253906 183.445312 C 88.902344 184.738281 95.921875 187.828125 96.503906 189.019531 C 96.597656 189.875 91.351562 189.761719 91.445312 190.613281 C 91.539062 191.46875 106.230469 198.890625 106.984375 192.867188 Z M 106.984375 192.867188 "/>
<path style=" stroke:none;fill-rule:evenodd;fill:rgb(0%,56.078431%,0%);fill-opacity:1;" d="M 110.054688 192.03125 C 115.769531 188.566406 114.652344 175.335938 113.992188 175.246094 C 113.332031 175.15625 110.871094 178.292969 110.546875 181.179688 C 109.867188 176.566406 108.351562 172.300781 107.484375 172.796875 C 106.1875 173.296875 107.742188 180.527344 107.082031 181.683594 C 106.421875 182.261719 103.402344 178.15625 102.742188 178.734375 C 102.078125 179.316406 104.53125 195.015625 110.054688 192.03125 Z M 110.054688 192.03125 "/>
<path style=" stroke:none;fill-rule:evenodd;fill:rgb(0%,56.078431%,0%);fill-opacity:1;" d="M 118.335938 208.265625 C 124.933594 206.824219 128.5 193.996094 127.910156 193.699219 C 127.320312 193.402344 123.902344 195.578125 122.589844 198.191406 C 123.5625 193.628906 123.621094 189.125 122.632812 189.316406 C 121.234375 189.371094 120.175781 196.683594 119.148438 197.5625 C 118.324219 197.898438 116.914062 193.066406 116.085938 193.398438 C 115.261719 193.734375 112.085938 209.316406 118.335938 208.265625 Z M 118.335938 208.265625 "/>
<path style=" stroke:none;fill-rule:evenodd;fill:rgb(0%,56.078431%,0%);fill-opacity:1;" d="M 128.226562 224.871094 C 134.242188 221.910156 134.371094 208.636719 133.722656 208.492188 C 133.074219 208.34375 130.324219 211.261719 129.734375 214.105469 C 129.488281 209.453125 128.378906 205.078125 127.472656 205.496094 C 126.132812 205.882812 127.003906 213.21875 126.238281 214.3125 C 125.523438 214.832031 122.902344 210.484375 122.1875 211.003906 C 121.476562 211.523438 122.445312 227.375 128.226562 224.871094 Z M 128.226562 224.871094 "/>
<path style=" stroke:none;fill-rule:evenodd;fill:rgb(0%,56.078431%,0%);fill-opacity:1;" d="M 138.929688 246.554688 C 145.230469 244.191406 146.761719 230.996094 146.132812 230.789062 C 145.503906 230.578125 142.460938 233.214844 141.570312 235.988281 C 141.820312 231.335938 141.179688 226.875 140.230469 227.207031 C 138.859375 227.457031 138.949219 234.839844 138.070312 235.855469 C 137.304688 236.304688 135.160156 231.726562 134.394531 232.175781 C 133.628906 232.621094 132.914062 248.484375 138.929688 246.554688 Z M 138.929688 246.554688 "/>
<path style="fill-rule:evenodd;fill:rgb(100%,9.803922%,0%);fill-opacity:1;stroke-width:1.25;stroke-linecap:butt;stroke-linejoin:miter;stroke:rgb(0%,0%,0%);stroke-opacity:1;stroke-miterlimit:4;" d="M 209.064404 775.979425 C 209.057615 783.807725 198.745361 790.155931 186.028446 790.155936 C 173.31153 790.15594 162.995266 783.811064 163.002055 775.982765 C 162.99598 768.150501 173.312978 761.810792 186.029894 761.810787 C 198.746809 761.810783 209.063073 768.155659 209.064404 775.979425 Z M 209.064404 775.979425 " transform="matrix(0.36676,0.195667,-0.204767,0.350461,235.015451,-43.689816)"/>
<path style="fill-rule:evenodd;fill:rgb(100%,100%,0%);fill-opacity:1;stroke-width:0.625;stroke-linecap:butt;stroke-linejoin:miter;stroke:rgb(0%,0%,0%);stroke-opacity:1;stroke-miterlimit:4;" d="M 155.916707 414.570903 L 155.906915 407.490616 L 162.993489 407.480511 L 162.995144 400.396409 L 170.086154 400.398422 L 170.084499 407.482524 L 177.175509 407.484536 L 177.173854 414.568639 L 170.082844 414.566626 L 170.080923 432.28294 L 162.994349 432.293045 L 162.991834 414.564614 Z M 155.916707 414.570903 " transform="matrix(0.304114,0.0957705,-0.111314,0.287307,272.719367,43.536635)"/>
<path style="fill-rule:evenodd;fill:rgb(100%,100%,0%);fill-opacity:1;stroke-width:0.63046;stroke-linecap:butt;stroke-linejoin:miter;stroke:rgb(0%,0%,0%);stroke-opacity:1;stroke-miterlimit:4;" d="M 162.984418 474.797628 L 170.075428 474.799641 L 170.076935 680.303678 L 162.990361 680.313783 Z M 162.984418 474.797628 " transform="matrix(0.304114,0.0957705,-0.111314,0.287307,272.719363,43.536643)"/>
<path style="fill-rule:evenodd;fill:rgb(100%,100%,0%);fill-opacity:1;stroke-width:0.625;stroke-linecap:butt;stroke-linejoin:miter;stroke:rgb(0%,0%,0%);stroke-opacity:1;stroke-miterlimit:4;" d="M 159.447901 676.776785 L 173.625485 676.768692 L 173.621115 733.465745 L 159.450543 733.457904 Z M 159.447901 676.776785 " transform="matrix(0.304114,0.0957705,-0.111314,0.287307,272.719363,43.536643)"/>
<path style="fill-rule:evenodd;fill:rgb(100%,100%,0%);fill-opacity:1;stroke-width:0.625;stroke-linecap:butt;stroke-linejoin:miter;stroke:rgb(0%,0%,0%);stroke-opacity:1;stroke-miterlimit:4;" d="M 155.913132 439.371289 L 177.170278 439.369025 C 191.34085 439.376866 173.622323 478.348757 173.622323 478.348757 L 159.451751 478.340916 C 159.451751 478.340916 141.731112 439.367263 155.913132 439.371289 Z M 155.913132 439.371289 " transform="matrix(0.304114,0.0957705,-0.111314,0.287307,272.719363,43.536643)"/>
<path style="fill-rule:evenodd;fill:rgb(100%,100%,0%);fill-opacity:1;stroke-width:0.625;stroke-linecap:butt;stroke-linejoin:miter;stroke:rgb(0%,0%,0%);stroke-opacity:1;stroke-miterlimit:4;" d="M 173.619182 434.05382 C 173.615595 436.991766 170.444164 439.381339 166.538199 439.378123 C 162.620786 439.378724 159.449459 436.996043 159.441597 434.061913 C 159.445184 431.123967 162.621051 428.746512 166.538464 428.745911 C 170.444429 428.749127 173.627204 431.127992 173.619182 434.05382 Z M 173.619182 434.05382 " transform="matrix(0.304114,0.0957705,-0.111314,0.287307,272.719363,43.536643)"/>
<path style="fill-rule:evenodd;fill:rgb(100%,9.803922%,0%);fill-opacity:1;stroke-width:1.25;stroke-linecap:butt;stroke-linejoin:miter;stroke:rgb(0%,0%,0%);stroke-opacity:1;stroke-miterlimit:4;" d="M 209.060663 775.985344 C 209.057726 783.804146 198.74981 790.15575 186.023632 790.154924 C 173.310581 790.151118 162.998035 783.811368 162.998594 775.979317 C 162.999152 768.147266 173.309446 761.808912 186.027872 761.804603 C 198.75405 761.805429 209.061221 768.153294 209.060663 775.985344 Z M 209.060663 775.985344 " transform="matrix(0.35021,-0.221637,0.231945,0.334647,-3.857065,48.373333)"/>
</g>
</svg>
