<?xml version="1.0" encoding="UTF-8"?>
<svg xmlns="http://www.w3.org/2000/svg" xmlns:xlink="http://www.w3.org/1999/xlink" width="384pt" height="384pt" viewBox="0 0 384 384" version="1.1">
<g id="surface1">
<path style=" stroke:none;fill-rule:evenodd;fill:rgb(23.137255%,35.294118%,63.921569%);fill-opacity:1;" d="M 0 0 L 383.925781 0 L 383.925781 384 L 0 384 Z M 0 0 "/>
<path style=" stroke:none;fill-rule:evenodd;fill:rgb(100%,100%,100%);fill-opacity:1;" d="M 104.296875 0.929688 L 100.246094 66.902344 L 82.90625 24.832031 L 89.558594 69.613281 L 62.710938 33.425781 L 80.308594 74.714844 L 45.050781 47.367188 L 72.496094 81.734375 L 32.640625 64.070312 L 67.550781 90.503906 L 24.128906 84.761719 L 65.160156 101.027344 L 0.757812 106.917969 L 65.316406 111.234375 L 24.40625 128.054688 L 67.390625 122.238281 L 32.609375 147.921875 L 72.972656 130.210938 L 45.441406 164.863281 L 80.464844 138.34375 L 63.113281 178.707031 L 91.152344 143.605469 L 83.5625 187.359375 L 101.199219 146.476562 L 105.183594 211.058594 L 111.402344 146.636719 L 126.609375 187.765625 L 120.8125 143.445312 L 148.710938 178.578125 L 130.378906 137.546875 L 165.390625 165.78125 L 137.554688 130.527344 L 179.167969 147.855469 L 142.339844 120.960938 L 187.1875 128.519531 L 144.253906 112.03125 L 211.03125 107.882812 L 144.253906 101.664062 L 188.207031 87.015625 L 142.65625 92.734375 L 180.292969 66.421875 L 137.875 83.484375 L 167.167969 47.972656 L 131.496094 75.832031 L 148.660156 33.207031 L 120.972656 69.453125 L 126.917969 24.25 L 110.445312 66.902344 L 104.292969 0.929688 Z M 104.296875 0.929688 "/>
<path style=" stroke:none;fill-rule:evenodd;fill:rgb(88.627451%,68.235294%,34.117647%);fill-opacity:1;" d="M 0 373.664062 L 383.953125 0 L 383.933594 69.53125 L 0 384 Z M 0 373.664062 "/>
<path style=" stroke:none;fill-rule:evenodd;fill:rgb(100%,100%,100%);fill-opacity:1;" d="M 13.4375 383.984375 L 384 143.378906 L 383.914062 66.988281 L 0 384 Z M 13.4375 383.984375 "/>
</g>
</svg>
