<?xml version="1.0" encoding="UTF-8"?>
<svg xmlns="http://www.w3.org/2000/svg" xmlns:xlink="http://www.w3.org/1999/xlink" width="384pt" height="384pt" viewBox="0 0 384 384" version="1.1">
<g id="surface1">
<path style=" stroke:none;fill-rule:evenodd;fill:rgb(92.941176%,23.921569%,0%);fill-opacity:1;" d="M -94.964844 -0.273438 L 480.335938 -0.273438 L 480.335938 383.726562 L -94.964844 383.726562 Z M -94.964844 -0.273438 "/>
<path style=" stroke:none;fill-rule:evenodd;fill:rgb(100%,81.960784%,0%);fill-opacity:1;" d="M -94.941406 150.652344 L -94.824219 233.078125 L 194.578125 191.855469 L -94.945312 150.652344 Z M -94.941406 150.652344 "/>
<path style=" stroke:none;fill-rule:evenodd;fill:rgb(100%,81.960784%,0%);fill-opacity:1;" d="M -96 384 L 23.476562 383.773438 L 194.984375 190.71875 Z M -96 384 "/>
<path style=" stroke:none;fill-rule:evenodd;fill:rgb(100%,81.960784%,0%);fill-opacity:1;" d="M 233.789062 383.730469 L 151.363281 383.652344 L 192.589844 193.25 L 233.789062 383.726562 Z M 233.789062 383.730469 "/>
<path style=" stroke:none;fill-rule:evenodd;fill:rgb(100%,81.960784%,0%);fill-opacity:1;" d="M 480.929688 -1.09375 L 361.453125 -0.867188 L 189.9375 193.722656 L 480.929688 -1.089844 Z M 480.929688 -1.09375 "/>
<path style=" stroke:none;fill-rule:evenodd;fill:rgb(100%,81.960784%,0%);fill-opacity:1;" d="M 151.140625 0 L 233.566406 0.078125 L 192.335938 190.480469 L 151.140625 0.00390625 Z M 151.140625 0 "/>
<path style=" stroke:none;fill-rule:evenodd;fill:rgb(100%,81.960784%,0%);fill-opacity:1;" d="M 480.375 383.730469 L 360.898438 383.496094 L 189.382812 190.441406 Z M 480.375 383.730469 "/>
<path style=" stroke:none;fill-rule:evenodd;fill:rgb(100%,81.960784%,0%);fill-opacity:1;" d="M 480.375 150.652344 L 480.253906 233.078125 L 190.851562 191.851562 Z M 480.375 150.652344 "/>
<path style=" stroke:none;fill-rule:evenodd;fill:rgb(100%,81.960784%,0%);fill-opacity:1;" d="M -95.21875 0 L 24.253906 0.226562 L 195.773438 193.285156 Z M -95.21875 0 "/>
<path style=" stroke:none;fill-rule:evenodd;fill:rgb(92.941176%,23.921569%,0%);fill-opacity:1;" d="M 259.824219 191.859375 C 259.824219 228.113281 229.71875 257.5 192.582031 257.5 C 155.445312 257.5 125.339844 228.113281 125.339844 191.859375 C 125.339844 155.609375 155.445312 126.21875 192.582031 126.21875 C 229.71875 126.21875 259.824219 155.609375 259.824219 191.859375 Z M 259.824219 191.859375 "/>
<path style=" stroke:none;fill-rule:evenodd;fill:rgb(100%,81.960784%,0%);fill-opacity:1;" d="M 254.628906 191.859375 C 254.628906 225.917969 226.847656 253.523438 192.578125 253.523438 C 158.308594 253.523438 130.527344 225.917969 130.527344 191.859375 C 130.527344 157.804688 158.308594 130.199219 192.578125 130.199219 C 226.847656 130.199219 254.628906 157.804688 254.628906 191.859375 Z M 254.628906 191.859375 "/>
</g>
</svg>
