<?xml version="1.0" encoding="UTF-8"?>
<svg xmlns="http://www.w3.org/2000/svg" xmlns:xlink="http://www.w3.org/1999/xlink" width="384pt" height="384pt" viewBox="0 0 384 384" version="1.1">
<g id="surface1">
<path style=" stroke:none;fill-rule:nonzero;fill:rgb(99.607843%,79.607843%,0%);fill-opacity:1;" d="M -95.75 0 L 480.25 0 L 480.25 192 L -95.75 192 Z M -95.75 0 "/>
<path style=" stroke:none;fill-rule:nonzero;fill:rgb(91.764706%,15.686275%,22.352941%);fill-opacity:1;" d="M -95.75 192 L 480.25 192 L 480.25 384 L -95.75 384 Z M -95.75 192 "/>
<path style=" stroke:none;fill-rule:nonzero;fill:rgb(20.392157%,69.803922%,20%);fill-opacity:1;" d="M -95.75 128 L 480.25 128 L 480.25 256 L -95.75 256 Z M -95.75 128 "/>
<path style=" stroke:none;fill-rule:nonzero;fill:rgb(100%,100%,100%);fill-opacity:1;" d="M 155.054688 178.480469 L 229.445312 232.527344 L 109.074219 319.984375 Z M 155.054688 178.480469 "/>
<path style=" stroke:none;fill-rule:nonzero;fill:rgb(100%,100%,100%);fill-opacity:1;" d="M 206.457031 161.777344 L 178.042969 249.230469 L 57.671875 161.777344 Z M 206.457031 161.777344 "/>
<path style=" stroke:none;fill-rule:nonzero;fill:rgb(100%,100%,100%);fill-opacity:1;" d="M 238.226562 205.503906 L 146.273438 205.503906 L 192.25 64 Z M 238.226562 205.503906 "/>
<path style=" stroke:none;fill-rule:nonzero;fill:rgb(100%,100%,100%);fill-opacity:1;" d="M 206.457031 249.230469 L 178.042969 161.777344 L 326.828125 161.777344 Z M 206.457031 249.230469 "/>
<path style=" stroke:none;fill-rule:nonzero;fill:rgb(100%,100%,100%);fill-opacity:1;" d="M 155.054688 232.527344 L 229.445312 178.480469 L 275.425781 319.984375 Z M 155.054688 232.527344 "/>
</g>
</svg>
