<?xml version="1.0" encoding="UTF-8"?>
<svg xmlns="http://www.w3.org/2000/svg" xmlns:xlink="http://www.w3.org/1999/xlink" width="384pt" height="384pt" viewBox="0 0 384 384" version="1.1">
<g id="surface1">
<path style=" stroke:none;fill-rule:evenodd;fill:rgb(83.921569%,8.235294%,9.019608%);fill-opacity:1;" d="M 0 0 L 383.988281 0 L 383.988281 384 L 0 384 Z M 0 0 "/>
<path style=" stroke:none;fill-rule:evenodd;fill:rgb(0.392157%,55.686275%,87.45098%);fill-opacity:1;" d="M 128 0 L 256 0 L 256 384 L 128 384 Z M 128 0 "/>
<path style=" stroke:none;fill-rule:evenodd;fill:rgb(100%,84.313725%,0%);fill-opacity:0.866667;" d="M 62.351562 142.09375 C 67.90625 142.253906 68.761719 140.328125 68.761719 138.398438 L 68.761719 131.8125 C 68.761719 131.007812 70.898438 130.207031 70.898438 128.757812 C 70.898438 127.3125 69.832031 125.707031 69.402344 124.742188 C 68.761719 127.152344 67.695312 129.5625 65.769531 130.367188 C 64.914062 128.4375 64.699219 127.796875 65.128906 126.832031 C 65.554688 125.867188 65.128906 124.421875 64.273438 122.976562 C 63.632812 126.027344 61.707031 126.832031 61.496094 127.796875 C 61.28125 128.757812 60.640625 131.492188 59.355469 130.042969 C 58.074219 128.597656 57.21875 126.832031 56.578125 124.902344 C 55.296875 128.757812 55.9375 129.5625 56.363281 130.207031 C 56.792969 130.847656 57.21875 132.777344 57.21875 133.578125 C 57.21875 134.382812 56.363281 137.59375 56.792969 138.558594 C 57.21875 139.523438 57.433594 142.414062 62.351562 142.09375 Z M 62.351562 142.09375 "/>
<path style=" stroke:none;fill-rule:evenodd;fill:rgb(100%,84.313725%,0%);fill-opacity:0.866667;" d="M 77.816406 156 C 77.816406 161.816406 71.542969 166.535156 63.800781 166.535156 C 56.0625 166.535156 49.785156 161.816406 49.785156 156 C 49.785156 150.183594 56.0625 145.464844 63.800781 145.464844 C 71.542969 145.464844 77.816406 150.183594 77.816406 156 Z M 77.816406 156 "/>
<path style=" stroke:none;fill-rule:evenodd;fill:rgb(100%,84.313725%,0%);fill-opacity:0.866667;" d="M 83.351562 160.164062 C 75.953125 170.5 61.703125 173.371094 51.136719 166.441406 C 48.351562 164.617188 46.3125 162.570312 44.375 159.953125 C 46.125 167.382812 51.421875 172.644531 58.75 174.523438 C 69.542969 177.285156 80.5625 170.851562 83.351562 160.160156 Z M 83.351562 160.164062 "/>
<path style=" stroke:none;fill-rule:evenodd;fill:rgb(100%,84.313725%,0%);fill-opacity:0.866667;" d="M 42.355469 241.609375 L 84.058594 241.609375 L 84.058594 250.285156 L 42.355469 250.285156 Z M 42.355469 241.609375 "/>
<path style=" stroke:none;fill-rule:evenodd;fill:rgb(100%,84.313725%,0%);fill-opacity:0.866667;" d="M 44.394531 180.300781 L 62.992188 191.585938 L 81.800781 180.300781 Z M 44.394531 180.300781 "/>
<path style=" stroke:none;fill-rule:evenodd;fill:rgb(100%,84.313725%,0%);fill-opacity:0.866667;" d="M 44.394531 192.519531 L 82.015625 192.519531 L 82.015625 201.195312 L 44.394531 201.195312 Z M 44.394531 192.519531 "/>
<path style=" stroke:none;fill-rule:evenodd;fill:rgb(100%,84.313725%,0%);fill-opacity:0.866667;" d="M 44.394531 255.84375 L 62.992188 264.679688 L 81.800781 255.84375 Z M 44.394531 255.84375 "/>
<path style=" stroke:none;fill-rule:evenodd;fill:rgb(100%,84.313725%,0%);fill-opacity:0.866667;" d="M 16.253906 180.425781 L 34.40625 180.425781 L 34.40625 264.308594 L 16.253906 264.308594 Z M 16.253906 180.425781 "/>
<path style=" stroke:none;fill-rule:evenodd;fill:rgb(100%,84.313725%,0%);fill-opacity:0.866667;" d="M 90.929688 180.425781 L 109.082031 180.425781 L 109.082031 264.308594 L 90.929688 264.308594 Z M 90.929688 180.425781 "/>
<path style=" stroke:none;fill-rule:evenodd;fill:rgb(100%,84.313725%,0%);fill-opacity:0.866667;" d="M 50.359375 209.890625 C 55.910156 205.785156 64.203125 202.707031 67.183594 206.039062 C 70.179688 209.480469 70.894531 212.558594 70.238281 215.328125 C 69.347656 217.730469 65.363281 220.597656 62.421875 219.074219 C 59.035156 217.480469 53.636719 223.011719 53.019531 226.070312 C 52.210938 229.328125 52.128906 233.203125 53.0625 236.800781 C 44.195312 226.464844 43.59375 214.507812 50.359375 209.890625 Z M 65.433594 215 C 63.902344 215.898438 61.679688 214.984375 60.46875 212.960938 C 59.253906 210.9375 60.1875 210.183594 61.714844 209.28125 C 63.242188 208.382812 64.796875 207.679688 66.007812 209.703125 C 67.21875 211.726562 66.960938 214.101562 65.433594 215 Z M 73.996094 233.359375 C 68.515625 237.566406 59.484375 239.191406 56.472656 235.898438 C 53.445312 232.492188 55.953125 228.1875 56.574219 225.398438 C 57.429688 222.976562 61.375 220.851562 64.328125 222.335938 C 67.71875 223.882812 73.164062 217.808594 72.519531 213.917969 C 73.285156 210.632812 72.234375 210.074219 70.636719 205.257812 C 79.59375 215.488281 80.683594 228.621094 73.996094 233.359375 Z M 61.78125 226.878906 C 63.296875 225.953125 65.113281 226.425781 66.347656 228.4375 C 67.578125 230.453125 67.496094 232.035156 65.980469 232.960938 C 64.46875 233.886719 62.097656 233.808594 60.867188 231.792969 C 59.632812 229.78125 60.269531 227.804688 61.78125 226.878906 Z M 61.78125 226.878906 "/>
</g>
</svg>
