<?xml version="1.0" encoding="UTF-8"?>
<svg xmlns="http://www.w3.org/2000/svg" xmlns:xlink="http://www.w3.org/1999/xlink" width="384pt" height="384pt" viewBox="0 0 384 384" version="1.1">
<defs>
<clipPath id="clip1">
  <path d="M 0 0 L 383.988281 0 L 383.988281 383.988281 L 0 383.988281 Z M 0 0 "/>
</clipPath>
</defs>
<g id="surface1">
<g clip-path="url(#clip1)" clip-rule="nonzero">
<path style=" stroke:none;fill-rule:evenodd;fill:rgb(9.803922%,61.568627%,0%);fill-opacity:1;" d="M -96 0 L 479.980469 0 L 479.980469 383.988281 L -96 383.988281 Z M -96 0 "/>
</g>
<path style=" stroke:none;fill-rule:evenodd;fill:rgb(99.607843%,100%,100%);fill-opacity:1;" d="M 191.027344 215.015625 C 182 221.300781 172.554688 226.855469 163.527344 233.144531 C 152.214844 233.941406 141.242188 234.058594 129.585938 233.484375 C 129.585938 233.484375 105.246094 229.371094 99.074219 218.746094 C 98.730469 217.714844 106.960938 213.945312 106.960938 213.945312 C 119.414062 222.742188 133.242188 230.515625 159.070312 229.371094 C 127.1875 226.515625 105.589844 208.917969 99.074219 192.6875 C 116.332031 180.574219 144.898438 180.804688 168.328125 197.488281 C 161.011719 188.347656 136.558594 178.175781 118.273438 181.03125 C 115.644531 178.289062 113.359375 174.859375 110.730469 172.117188 C 131.757812 167.433594 161.011719 180.917969 171.753906 192.003906 C 160.441406 173.832031 152.214844 153.261719 165.582031 128.238281 C 168.210938 130.75 171.183594 133.265625 173.8125 135.777344 C 163.753906 154.175781 167.414062 175.660156 175.527344 190.632812 C 161.46875 161.605469 172.78125 132.921875 191.296875 118.980469 C 212.894531 132.007812 219.066406 166.632812 206.378906 191.316406 C 213.578125 187.203125 219.410156 156.347656 209.464844 135.777344 C 211.753906 133.035156 214.039062 130.292969 216.324219 127.550781 C 231.292969 147.777344 222.265625 180.347656 209.808594 192.6875 C 219.292969 184.460938 243.863281 168.347656 272.546875 172.121094 C 270.261719 174.863281 266.605469 177.261719 264.320312 180.003906 C 240.777344 179.089844 221.695312 189.144531 213.238281 197.832031 C 233.921875 184.117188 262.492188 177.261719 283.515625 192.6875 C 273.804688 218.628906 246.261719 226.402344 223.523438 228.6875 C 242.835938 230.171875 260.777344 224.457031 275.289062 214.289062 C 278.03125 215.773438 280.773438 217.257812 283.515625 218.746094 C 277.347656 224.574219 268.433594 230.398438 255.75 232.113281 C 243.519531 233.714844 231.980469 233.257812 219.75 233.484375 C 210.265625 227.316406 200.511719 221.183594 191.027344 215.015625 Z M 191.027344 215.015625 "/>
<path style=" stroke:none;fill-rule:evenodd;fill:rgb(100%,100%,100%);fill-opacity:1;" d="M 191.027344 221.082031 L 167.511719 238.78125 L 104.484375 238.539062 C 105.257812 241.078125 107.667969 244.324219 109.089844 245.808594 L 171.632812 246.054688 L 191.027344 231.023438 L 209.691406 245.808594 L 272.964844 245.808594 C 274.78125 243.871094 276.722656 241.203125 278.417969 238.902344 L 214.296875 239.023438 Z M 191.027344 221.082031 "/>
<path style=" stroke:none;fill-rule:evenodd;fill:rgb(100%,100%,100%);fill-opacity:1;" d="M 154.902344 281.863281 C 173 290.796875 211.464844 290.066406 228.839844 281.644531 Z M 154.902344 281.863281 "/>
<path style=" stroke:none;fill-rule:evenodd;fill:rgb(100%,100%,100%);fill-opacity:1;" d="M 113.277344 251.867188 C 114.007812 251.867188 268.722656 251.746094 268.722656 251.746094 C 266.015625 254.816406 262.820312 258.128906 259.507812 260.957031 L 121.234375 260.351562 C 118.640625 258.554688 115.1875 254.355469 113.277344 251.867188 Z M 113.277344 251.867188 "/>
<path style=" stroke:none;fill-rule:evenodd;fill:rgb(100%,100%,100%);fill-opacity:1;" d="M 123.953125 263.023438 L 257.441406 263.386719 C 254.9375 265.328125 252.917969 267.628906 250.050781 269.082031 L 131.382812 268.984375 C 128.644531 267.511719 125.835938 265.011719 123.953125 263.023438 Z M 123.953125 263.023438 "/>
<path style=" stroke:none;fill-rule:evenodd;fill:rgb(100%,100%,100%);fill-opacity:1;" d="M 136.113281 272.953125 L 245.203125 272.6875 C 242.296875 274.554688 239.023438 276.546875 235.386719 278.292969 L 145.933594 278.292969 C 142.90625 277.242188 139.390625 274.976562 136.117188 272.953125 Z M 136.113281 272.953125 "/>
<path style=" stroke:none;fill-rule:evenodd;fill:rgb(99.607843%,71.764706%,0%);fill-opacity:1;" d="M 248.882812 118.644531 L 244.953125 112.871094 L 238.167969 114.546875 L 242.445312 109.023438 L 238.757812 103.097656 L 245.328125 105.453125 L 249.828125 100.105469 L 249.617188 107.089844 L 256.089844 109.714844 L 249.386719 111.675781 Z M 248.882812 118.644531 "/>
<path style=" stroke:none;fill-rule:evenodd;fill:rgb(99.607843%,71.764706%,0%);fill-opacity:1;" d="M 199.558594 110.417969 L 191.765625 105.085938 L 184.054688 110.542969 L 186.71875 101.484375 L 179.152344 95.839844 L 188.585938 95.570312 L 191.613281 86.625 L 194.785156 95.515625 L 204.226562 95.632812 L 196.753906 101.398438 Z M 199.558594 110.417969 "/>
<path style=" stroke:none;fill-rule:evenodd;fill:rgb(99.607843%,71.764706%,0%);fill-opacity:1;" d="M 281.578125 156.921875 L 275.148438 154.199219 L 270.355469 159.289062 L 270.953125 152.328125 L 264.640625 149.347656 L 271.441406 147.765625 L 272.320312 140.832031 L 275.929688 146.816406 L 282.792969 145.511719 L 278.222656 150.792969 Z M 281.578125 156.921875 "/>
<path style=" stroke:none;fill-rule:evenodd;fill:rgb(99.607843%,71.764706%,0%);fill-opacity:1;" d="M 133.371094 118.539062 L 137.300781 112.761719 L 144.085938 114.441406 L 139.808594 108.917969 L 143.5 102.988281 L 136.925781 105.347656 L 132.425781 100 L 132.636719 106.980469 L 126.164062 109.609375 L 132.867188 111.566406 Z M 133.371094 118.539062 "/>
<path style=" stroke:none;fill-rule:evenodd;fill:rgb(99.607843%,71.764706%,0%);fill-opacity:1;" d="M 99.136719 156.667969 L 105.566406 153.945312 L 110.359375 159.035156 L 109.761719 152.074219 L 116.074219 149.09375 L 109.273438 147.511719 L 108.394531 140.578125 L 104.785156 146.558594 L 97.921875 145.257812 L 102.492188 150.539062 Z M 99.136719 156.667969 "/>
</g>
</svg>
