<?xml version="1.0" encoding="UTF-8"?>
<svg xmlns="http://www.w3.org/2000/svg" xmlns:xlink="http://www.w3.org/1999/xlink" width="384pt" height="384pt" viewBox="0 0 384 384" version="1.1">
<g id="surface1">
<rect x="0" y="0" width="384" height="384" style="fill:rgb(0%,0%,40%);fill-opacity:1;stroke:none;"/>
<path style=" stroke:none;fill-rule:evenodd;fill:rgb(100%,100%,100%);fill-opacity:1;" d="M 211.136719 173.207031 L 361.945312 173.207031 L 361.765625 281.183594 C 363.019531 324.59375 336.132812 351.527344 286.664062 363.671875 C 251.527344 354.890625 211.019531 336.734375 210.957031 282.417969 L 211.136719 173.203125 Z M 211.136719 173.207031 "/>
<path style="fill-rule:evenodd;fill:rgb(0%,63.529412%,74.117647%);fill-opacity:1;stroke-width:1.25;stroke-linecap:butt;stroke-linejoin:miter;stroke:rgb(0%,0%,0%);stroke-opacity:1;stroke-miterlimit:4;" d="M 44.069383 22.713642 L 213.370044 22.713642 L 213.168135 143.502649 C 214.576909 192.06086 184.39152 222.190847 128.85279 235.78058 C 89.411711 225.957666 43.936307 205.650592 43.867474 144.879863 L 44.069383 22.709081 Z M 44.069383 22.713642 " transform="matrix(0.85125,0,0,0.856575,176.9625,157.005)"/>
<path style=" stroke:none;fill-rule:evenodd;fill:rgb(64.705882%,23.921569%,3.137255%);fill-opacity:1;" d="M 357.480469 292.191406 C 352.234375 331.894531 321.847656 349.238281 286.648438 358.449219 C 255.488281 350.035156 221.964844 336.609375 215.46875 292.390625 Z M 357.480469 292.191406 "/>
<path style="fill-rule:evenodd;fill:rgb(100%,77.647059%,70.980392%);fill-opacity:1;stroke-width:1.25;stroke-linecap:butt;stroke-linejoin:round;stroke:rgb(0%,0%,0%);stroke-opacity:1;stroke-miterlimit:4;" d="M 155.770925 197.168411 C 155.862702 197.264177 156.427129 206.466888 151.452827 212.098875 C 155.862702 213.508012 158.868392 211.816135 160.277166 210.033053 C 161.68594 208.249971 162.154001 205.997176 162.154001 205.997176 C 162.154001 205.997176 163.374633 205.244725 163.562775 203.552849 C 163.659141 201.208848 162.626652 201.208848 161.777717 200.739136 L 161.965859 195.481095 C 161.965859 195.481095 156.895191 192.380082 155.770925 197.168411 Z M 155.770925 197.168411 " transform="matrix(0.85125,0,0,0.856575,176.9625,157.005)"/>
<path style="fill-rule:evenodd;fill:rgb(100%,60.392157%,3.137255%);fill-opacity:1;stroke-width:1.25;stroke-linecap:round;stroke-linejoin:miter;stroke:rgb(0%,0%,0%);stroke-opacity:1;stroke-miterlimit:4;" d="M 155.491006 210.320353 L 153.985866 209.098189 " transform="matrix(0.85125,0,0,0.856575,176.9625,157.005)"/>
<path style="fill-rule:evenodd;fill:rgb(100%,77.647059%,70.980392%);fill-opacity:1;stroke-width:1.25;stroke-linecap:butt;stroke-linejoin:miter;stroke:rgb(0%,0%,0%);stroke-opacity:1;stroke-miterlimit:4;" d="M 141.641887 69.393004 C 141.641887 69.393004 141.756608 75.01587 141.403267 75.60415 C 141.054515 76.18787 137.851505 77.674532 137.851505 77.674532 L 140.586454 83.493492 C 140.586454 83.493492 148.281938 82.399016 148.318649 82.399016 C 148.359949 82.399016 151.640969 73.688819 151.640969 73.688819 C 151.640969 73.688819 149.920154 70.79758 150.351505 67.792334 C 147.772577 59.629374 141.756608 69.434047 141.641887 69.393004 Z M 141.641887 69.393004 " transform="matrix(0.85125,0,0,0.856575,176.9625,157.005)"/>
<path style="fill-rule:evenodd;fill:rgb(0%,31.764706%,12.941176%);fill-opacity:1;stroke-width:1.25;stroke-linecap:butt;stroke-linejoin:round;stroke:rgb(0%,0%,0%);stroke-opacity:1;stroke-miterlimit:4;" d="M 131.450073 203.092257 C 131.450073 203.092257 135.768172 207.410873 140.747063 206.845394 C 152.012665 205.627791 155.298275 195.576861 158.772026 195.485655 C 162.245778 195.389889 164.407122 201.587354 167.692731 200.834902 C 164.875184 195.672628 161.874082 184.217122 162.342144 176.140808 C 162.810206 168.069054 162.810206 134.076482 162.810206 134.076482 C 162.810206 134.076482 157.17511 116.519277 154.550294 113.609798 C 157.17511 110.791524 158.960169 105.816223 158.868392 100.371209 C 158.772026 94.926196 158.868392 88.915704 158.868392 88.915704 C 158.868392 88.915704 160.1808 87.4108 160.089023 83.187951 C 159.992658 78.960541 152.953377 72.858842 152.012665 73.141581 C 151.071953 73.424321 142.247614 81.026362 141.495044 82.809445 C 140.747063 84.597087 139.714574 76.3338 141.403267 75.581349 C 143.09196 74.828897 137.456865 74.359185 133.891336 78.586595 C 130.321219 82.809445 131.353708 203.274669 131.450073 203.087697 Z M 131.450073 203.092257 " transform="matrix(0.85125,0,0,0.856575,176.9625,157.005)"/>
<path style=" stroke:none;fill-rule:evenodd;fill:rgb(0%,0%,0%);fill-opacity:1;" d="M 252.8125 195.632812 L 280.9375 195.734375 L 280.738281 182.695312 L 290.984375 182.796875 L 291.085938 195.734375 L 319.113281 195.734375 L 319.214844 205.84375 L 291.085938 205.945312 L 290.863281 325.164062 L 280.867188 325.226562 L 280.738281 205.847656 L 252.804688 205.945312 L 252.8125 195.636719 Z M 252.8125 195.632812 "/>
<path style="fill-rule:evenodd;fill:rgb(100%,77.647059%,70.980392%);fill-opacity:1;stroke-width:1.25;stroke-linecap:butt;stroke-linejoin:miter;stroke:rgb(0%,0%,0%);stroke-opacity:1;stroke-miterlimit:4;" d="M 122.029185 81.961226 C 122.029185 81.961226 119.771476 81.559919 118.046072 82.093475 C 116.320668 82.622472 120.70301 62.506932 120.70301 60.846978 C 122.231094 60.117328 129.862335 58.721872 129.665015 53.345263 C 129.132709 50.0892 117.848752 53.541357 118.046072 57.659319 C 117.316446 59.71602 109.946769 80.69802 111.406021 87.602333 C 113.994126 89.659035 118.775698 89.262287 122.029185 88.728731 L 122.029185 81.956666 Z M 122.029185 81.961226 " transform="matrix(0.85125,0,0,0.856575,176.9625,157.005)"/>
<path style="fill:none;stroke-width:0.625;stroke-linecap:round;stroke-linejoin:miter;stroke:rgb(0%,0%,0%);stroke-opacity:1;stroke-miterlimit:4;" d="M 124.218062 53.213014 C 124.218062 53.213014 123.557269 56.929669 126.943833 57.458665 " transform="matrix(0.85125,0,0,0.856575,176.9625,157.005)"/>
<path style="fill:none;stroke-width:0.375;stroke-linecap:butt;stroke-linejoin:miter;stroke:rgb(0%,0%,0%);stroke-opacity:1;stroke-miterlimit:4;" d="M 129.201542 53.144609 C 129.068465 53.208454 124.8192 55.867116 124.8192 55.867116 " transform="matrix(0.85125,0,0,0.856575,176.9625,157.005)"/>
<path style="fill:none;stroke-width:0.375;stroke-linecap:butt;stroke-linejoin:miter;stroke:rgb(0%,0%,0%);stroke-opacity:1;stroke-miterlimit:4;" d="M 128.939978 54.804563 L 125.952643 56.993513 " transform="matrix(0.85125,0,0,0.856575,176.9625,157.005)"/>
<path style="fill:none;stroke-width:0.375;stroke-linecap:butt;stroke-linejoin:miter;stroke:rgb(0%,0%,0%);stroke-opacity:1;stroke-miterlimit:4;" d="M 127.811123 52.346555 L 124.488803 54.339411 " transform="matrix(0.85125,0,0,0.856575,176.9625,157.005)"/>
<path style="fill-rule:evenodd;fill:rgb(100%,60.392157%,3.137255%);fill-opacity:1;stroke-width:1.25;stroke-linecap:butt;stroke-linejoin:miter;stroke:rgb(0%,0%,0%);stroke-opacity:1;stroke-miterlimit:4;" d="M 95.491924 163.558905 L 125.631424 194.82897 C 136.05268 183.373464 128.825257 140.556687 115.113803 132.667345 C 113.470999 137.738413 110.676395 143.81731 107.707416 145.778245 C 101.172907 150.22911 85.162445 155.436987 90.513032 158.770576 C 91.733664 157.08326 94.927496 155.487151 96.428047 159.240288 C 98.213106 165.155014 89.765051 165.53352 89.765051 165.53352 C 89.765051 165.53352 84.409875 164.872275 83.473752 159.427261 C 82.53304 153.982248 91.444567 149.011507 92.206314 148.633001 C 92.954295 148.350261 104.596182 145.249248 106.569383 134.92014 C 109.010646 124.782564 111.548275 126.282907 112.016336 126.095934 C 127.228341 127.596277 137.176946 154.825905 137.741373 173.98378 C 138.3058 193.137094 129.949523 205.810203 128.448972 206.658422 C 126.943833 207.50208 92.206314 165.437754 92.206314 165.437754 Z M 95.491924 163.558905 " transform="matrix(0.85125,0,0,0.856575,176.9625,157.005)"/>
<path style="fill:none;stroke-width:1.25;stroke-linecap:butt;stroke-linejoin:miter;stroke:rgb(0%,0%,0%);stroke-opacity:1;stroke-miterlimit:4;" d="M 117.4587 134.450428 L 117.646843 190.879739 " transform="matrix(0.85125,0,0,0.856575,176.9625,157.005)"/>
<path style="fill:none;stroke-width:1.25;stroke-linecap:butt;stroke-linejoin:miter;stroke:rgb(0%,0%,0%);stroke-opacity:1;stroke-miterlimit:4;" d="M 114.081314 135.481058 C 114.081314 135.572265 114.264868 186.748096 114.264868 186.748096 " transform="matrix(0.85125,0,0,0.856575,176.9625,157.005)"/>
<path style="fill:none;stroke-width:1.25;stroke-linecap:butt;stroke-linejoin:miter;stroke:rgb(0%,0%,0%);stroke-opacity:1;stroke-miterlimit:4;" d="M 110.41942 142.900687 L 110.607562 183.651643 " transform="matrix(0.85125,0,0,0.856575,176.9625,157.005)"/>
<path style="fill:none;stroke-width:1.25;stroke-linecap:butt;stroke-linejoin:miter;stroke:rgb(0%,0%,0%);stroke-opacity:1;stroke-miterlimit:4;" d="M 107.418319 145.810167 L 107.606461 179.52 " transform="matrix(0.85125,0,0,0.856575,176.9625,157.005)"/>
<path style="fill:none;stroke-width:1.25;stroke-linecap:butt;stroke-linejoin:miter;stroke:rgb(0%,0%,0%);stroke-opacity:1;stroke-miterlimit:4;" d="M 104.219897 147.319631 L 104.219897 175.771423 " transform="matrix(0.85125,0,0,0.856575,176.9625,157.005)"/>
<path style="fill:none;stroke-width:1.25;stroke-linecap:butt;stroke-linejoin:miter;stroke:rgb(0%,0%,0%);stroke-opacity:1;stroke-miterlimit:4;" d="M 100.750734 149.567865 L 100.750734 172.104931 " transform="matrix(0.85125,0,0,0.856575,176.9625,157.005)"/>
<path style="fill:none;stroke-width:1.25;stroke-linecap:butt;stroke-linejoin:miter;stroke:rgb(0%,0%,0%);stroke-opacity:1;stroke-miterlimit:4;" d="M 97.745044 151.350947 L 97.745044 168.625412 " transform="matrix(0.85125,0,0,0.856575,176.9625,157.005)"/>
<path style="fill:none;stroke-width:1.25;stroke-linecap:round;stroke-linejoin:miter;stroke:rgb(100%,87.45098%,0%);stroke-opacity:1;stroke-miterlimit:4;" d="M 95.019273 167.12963 L 126.099486 202.709191 " transform="matrix(0.85125,0,0,0.856575,176.9625,157.005)"/>
<path style="fill:none;stroke-width:1.25;stroke-linecap:round;stroke-linejoin:miter;stroke:rgb(100%,87.45098%,0%);stroke-opacity:1;stroke-miterlimit:4;" d="M 127.600037 144.68833 C 127.600037 144.68833 141.683186 175.488683 128.632526 200.839462 " transform="matrix(0.85125,0,0,0.856575,176.9625,157.005)"/>
<path style="fill:none;stroke-width:1.25;stroke-linecap:round;stroke-linejoin:miter;stroke:rgb(100%,87.45098%,0%);stroke-opacity:1;stroke-miterlimit:4;" d="M 91.357379 160.649425 C 91.357379 160.649425 92.389868 157.926918 93.706865 159.053316 " transform="matrix(0.85125,0,0,0.856575,176.9625,157.005)"/>
<path style="fill:none;stroke-width:1.25;stroke-linecap:round;stroke-linejoin:miter;stroke:rgb(100%,87.45098%,0%);stroke-opacity:1;stroke-miterlimit:4;" d="M 88.916116 152.760084 C 88.916116 152.760084 83.285609 157.735385 86.383076 160.927604 " transform="matrix(0.85125,0,0,0.856575,176.9625,157.005)"/>
<path style="fill:none;stroke-width:1.25;stroke-linecap:butt;stroke-linejoin:miter;stroke:rgb(0%,0%,0%);stroke-opacity:1;stroke-miterlimit:4;" d="M 141.031571 83.000978 C 141.031571 83.000978 141.499633 87.319594 140.558921 90.603019 C 139.622797 93.891005 144.129038 102.99795 142.435756 104.876799 " transform="matrix(0.85125,0,0,0.856575,176.9625,157.005)"/>
<path style="fill:none;stroke-width:1.25;stroke-linecap:butt;stroke-linejoin:miter;stroke:rgb(0%,0%,0%);stroke-opacity:1;stroke-miterlimit:4;" d="M 142.908407 113.701004 L 154.743025 113.605237 " transform="matrix(0.85125,0,0,0.856575,176.9625,157.005)"/>
<path style="fill:none;stroke-width:1.25;stroke-linecap:round;stroke-linejoin:miter;stroke:rgb(0%,0%,0%);stroke-opacity:1;stroke-miterlimit:4;" d="M 138.590308 118.489333 C 138.682085 118.676305 139.999082 124.686798 139.622797 128.818441 " transform="matrix(0.85125,0,0,0.856575,176.9625,157.005)"/>
<path style="fill:none;stroke-width:1.25;stroke-linecap:round;stroke-linejoin:miter;stroke:rgb(0%,0%,0%);stroke-opacity:1;stroke-miterlimit:4;" d="M 142.440345 120.650921 C 142.06406 121.873085 137.181535 135.768358 137.369677 136.329276 " transform="matrix(0.85125,0,0,0.856575,176.9625,157.005)"/>
<path style="fill:none;stroke-width:1.25;stroke-linecap:round;stroke-linejoin:miter;stroke:rgb(0%,0%,0%);stroke-opacity:1;stroke-miterlimit:4;" d="M 145.34967 114.362249 C 145.446035 114.640428 144.973385 123.186455 143.660977 124.408619 " transform="matrix(0.85125,0,0,0.856575,176.9625,157.005)"/>
<path style="fill:none;stroke-width:1.25;stroke-linecap:round;stroke-linejoin:miter;stroke:rgb(0%,0%,0%);stroke-opacity:1;stroke-miterlimit:4;" d="M 151.36105 113.701004 C 151.36105 113.701004 159.061123 131.540948 158.964758 138.582071 C 158.872981 145.623194 161.594163 159.896973 159.809104 166.185645 " transform="matrix(0.85125,0,0,0.856575,176.9625,157.005)"/>
<path style="fill:none;stroke-width:1.25;stroke-linecap:round;stroke-linejoin:miter;stroke:rgb(0%,0%,0%);stroke-opacity:1;stroke-miterlimit:4;" d="M 153.797724 138.399659 C 153.797724 138.399659 153.237885 151.638247 147.699156 156.805081 C 142.155837 161.967355 160.937959 176.710847 160.937959 176.710847 " transform="matrix(0.85125,0,0,0.856575,176.9625,157.005)"/>
<path style="fill:none;stroke-width:1.25;stroke-linecap:round;stroke-linejoin:miter;stroke:rgb(0%,0%,0%);stroke-opacity:1;stroke-miterlimit:4;" d="M 153.609581 175.858068 C 153.609581 175.858068 155.674559 194.076518 159.148311 195.389889 " transform="matrix(0.85125,0,0,0.856575,176.9625,157.005)"/>
<path style="fill:none;stroke-width:1.25;stroke-linecap:round;stroke-linejoin:miter;stroke:rgb(0%,0%,0%);stroke-opacity:1;stroke-miterlimit:4;" d="M 136.621696 145.340455 C 136.713473 145.527428 134.740272 157.639619 136.337188 159.614234 C 137.934104 161.584289 151.172907 180.080918 150.60848 199.234232 " transform="matrix(0.85125,0,0,0.856575,176.9625,157.005)"/>
<path style="fill:none;stroke-width:1.25;stroke-linecap:round;stroke-linejoin:miter;stroke:rgb(0%,0%,0%);stroke-opacity:1;stroke-miterlimit:4;" d="M 146.85022 193.51104 C 146.85022 193.51104 146.473935 205.057752 135.768172 205.997176 " transform="matrix(0.85125,0,0,0.856575,176.9625,157.005)"/>
<path style="fill:none;stroke-width:1.25;stroke-linecap:round;stroke-linejoin:miter;stroke:rgb(0%,0%,0%);stroke-opacity:1;stroke-miterlimit:4;" d="M 143.660977 185.908998 C 143.660977 185.908998 146.854809 197.929983 135.960903 205.532024 " transform="matrix(0.85125,0,0,0.856575,176.9625,157.005)"/>
<path style="fill:none;stroke-width:1.25;stroke-linecap:round;stroke-linejoin:miter;stroke:rgb(0%,0%,0%);stroke-opacity:1;stroke-miterlimit:4;" d="M 147.87812 156.891727 C 147.87812 156.891727 160.1808 169.660603 160.745228 175.29259 " transform="matrix(0.85125,0,0,0.856575,176.9625,157.005)"/>
<path style="fill:none;stroke-width:1.25;stroke-linecap:round;stroke-linejoin:miter;stroke:rgb(0%,0%,0%);stroke-opacity:1;stroke-miterlimit:4;" d="M 151.448238 113.979183 C 151.448238 113.979183 153.609581 123.086128 152.765235 124.682237 " transform="matrix(0.85125,0,0,0.856575,176.9625,157.005)"/>
<path style="fill-rule:evenodd;fill:rgb(100%,77.647059%,70.980392%);fill-opacity:1;stroke-width:1.25;stroke-linecap:butt;stroke-linejoin:miter;stroke:rgb(0%,0%,0%);stroke-opacity:1;stroke-miterlimit:4;" d="M 113.507709 132.690147 C 113.507709 132.690147 112.190712 130.387189 112.35591 127.833414 C 112.521109 125.279638 111.947504 121.330407 120.179883 118.119947 C 125.200073 113.016957 130.793869 109.970668 133.840859 108.406481 C 138.287445 105.528923 141.169236 106.185608 143.803231 105.19602 C 145.528634 103.221405 145.446035 98.857186 147.258627 94.99004 C 149.071219 91.122895 152.278818 83.137787 155.734214 84.373632 C 159.1942 85.609477 156.477606 95.979628 155.160609 99.600517 C 153.843612 103.221405 152.691814 107.011025 150.388216 109.231897 C 148.080029 111.45277 137.626652 115.488647 135.570852 116.227417 C 133.510463 116.970748 124.130874 119.109535 121.740088 122.402081 C 119.353891 125.694627 119.51909 130.55136 113.507709 132.690147 Z M 113.507709 132.690147 " transform="matrix(0.85125,0,0,0.856575,176.9625,157.005)"/>
<path style="fill:none;stroke-width:1.25;stroke-linecap:butt;stroke-linejoin:miter;stroke:rgb(0%,0%,0%);stroke-opacity:1;stroke-miterlimit:4;" d="M 112.851505 125.781273 C 113.094714 125.699187 116.963106 124.463342 118.775698 127.92006 " transform="matrix(0.85125,0,0,0.856575,176.9625,157.005)"/>
<path style="fill-rule:evenodd;fill:rgb(100%,77.647059%,70.980392%);fill-opacity:1;stroke-width:1.25;stroke-linecap:butt;stroke-linejoin:round;stroke:rgb(0%,0%,0%);stroke-opacity:1;stroke-miterlimit:4;" d="M 141.90804 55.20131 C 141.90804 55.20131 140.168869 58.037825 139.687041 59.761623 C 139.315345 61.052192 138.10848 59.674977 137.470631 62.470449 L 138.50312 62.648301 C 138.094714 63.473718 137.957048 64.864613 137.879038 65.192956 C 137.79185 65.521298 137.213656 67.026202 137.300844 68.157159 C 137.346733 68.740879 138.452643 71.285534 147.423825 67.413828 C 156.395007 63.546683 144.542034 52.56545 141.90804 55.20131 Z M 141.90804 55.20131 " transform="matrix(0.85125,0,0,0.856575,176.9625,157.005)"/>
<path style="fill-rule:evenodd;fill:rgb(77.254902%,57.254902%,0%);fill-opacity:1;stroke-width:1.2611;stroke-linecap:round;stroke-linejoin:round;stroke:rgb(0%,0%,0%);stroke-opacity:1;stroke-miterlimit:4;" d="M 140.898495 55.561575 C 141.820852 55.069061 148.35536 54.494462 147.267805 67.249657 C 148.525147 67.085486 149.277717 66.921315 150.030286 68.157159 C 150.787445 69.393004 150.704846 70.870545 152.044787 70.870545 C 153.384728 70.870545 153.549927 70.624289 153.884912 69.639261 C 154.219897 68.649673 159.419053 70.78846 160.754405 66.182544 C 160.524963 65.284162 157.574339 63.875026 157.234765 62.228753 C 157.991924 59.925795 156.89978 52.433201 147.350404 52.022772 C 142.408223 51.940687 141.403267 53.997388 140.898495 55.561575 Z M 140.898495 55.561575 " transform="matrix(0.85125,0,0,0.856575,176.9625,157.005)"/>
<path style="fill:none;stroke-width:1.25;stroke-linecap:round;stroke-linejoin:miter;stroke:rgb(0%,0%,0%);stroke-opacity:1;stroke-miterlimit:4;" d="M 140.421256 58.11535 C 140.503855 58.197436 143.385646 59.018292 143.711454 60.418308 " transform="matrix(0.85125,0,0,0.856575,176.9625,157.005)"/>
<path style=" stroke:none;fill-rule:evenodd;fill:rgb(0%,0%,0%);fill-opacity:1;" d="M 298 209.6875 C 298 210.054688 297.71875 210.355469 297.371094 210.355469 C 297.019531 210.355469 296.738281 210.054688 296.738281 209.6875 C 296.738281 209.316406 297.019531 209.019531 297.371094 209.019531 C 297.71875 209.019531 298 209.316406 298 209.6875 Z M 298 209.6875 "/>
<path style="fill:none;stroke-width:1.25;stroke-linecap:round;stroke-linejoin:round;stroke:rgb(0%,0%,0%);stroke-opacity:1;stroke-miterlimit:4;" d="M 154.380507 61.540145 C 154.380507 61.540145 153.325073 66.620334 157.973568 68.613191 " transform="matrix(0.85125,0,0,0.856575,176.9625,157.005)"/>
<path style="fill:none;stroke-width:1.25;stroke-linecap:round;stroke-linejoin:round;stroke:rgb(0%,0%,0%);stroke-opacity:1;stroke-miterlimit:4;" d="M 150.938877 62.164908 C 150.938877 62.164908 152.66428 62.246994 152.66428 63.847664 C 152.66428 65.448333 151.246329 65.644427 151.365639 66.930435 C 151.484949 68.221004 153.793135 68.649673 153.871145 69.744148 " transform="matrix(0.85125,0,0,0.856575,176.9625,157.005)"/>
<path style="fill:none;stroke-width:1.25;stroke-linecap:round;stroke-linejoin:round;stroke:rgb(0%,0%,0%);stroke-opacity:1;stroke-miterlimit:4;" d="M 143.399413 52.793465 C 143.477423 52.793465 151.640969 53.728329 151.172907 55.762229 C 150.704846 57.791568 149.415382 56.970712 149.456681 58.730993 C 149.493392 60.486713 152.737702 59.433281 152.737702 59.433281 C 152.737702 59.433281 152.930433 57.946619 154.297907 58.065187 C 155.665382 58.183755 155.0413 59.743382 156.918135 59.7069 " transform="matrix(0.85125,0,0,0.856575,176.9625,157.005)"/>
<path style="fill:none;stroke-width:1.25;stroke-linecap:round;stroke-linejoin:miter;stroke:rgb(0%,0%,0%);stroke-opacity:1;stroke-miterlimit:4;" d="M 138.411344 65.457454 L 140.347834 65.39361 " transform="matrix(0.85125,0,0,0.856575,176.9625,157.005)"/>
<path style="fill:none;stroke-width:1.25;stroke-linecap:round;stroke-linejoin:miter;stroke:rgb(0%,0%,0%);stroke-opacity:1;stroke-miterlimit:4;" d="M 143.44989 73.697939 C 143.44989 73.697939 144.170338 77.05433 141.449156 76.735108 " transform="matrix(0.85125,0,0,0.856575,176.9625,157.005)"/>
<path style=" stroke:none;fill-rule:nonzero;fill:rgb(100%,100%,100%);fill-opacity:1;" d="M 0 0.046875 L 0 15.933594 L 191.964844 142.140625 L 216.125 142.140625 L 216.125 126.253906 L 24.164062 0.046875 Z M 216.125 0.046875 L 216.125 15.933594 L 24.164062 142.140625 L 0 142.140625 L 0 126.253906 L 191.964844 0.046875 Z M 216.125 0.046875 "/>
<path style=" stroke:none;fill-rule:nonzero;fill:rgb(100%,100%,100%);fill-opacity:1;" d="M 90.050781 0.046875 L 90.050781 142.140625 L 126.074219 142.140625 L 126.074219 0.046875 Z M 0 47.410156 L 0 94.773438 L 216.125 94.773438 L 216.125 47.410156 Z M 0 47.410156 "/>
<path style=" stroke:none;fill-rule:nonzero;fill:rgb(80%,0%,0%);fill-opacity:1;" d="M 0 56.882812 L 0 85.300781 L 216.125 85.300781 L 216.125 56.882812 Z M 97.257812 0.046875 L 97.257812 142.140625 L 118.871094 142.140625 L 118.871094 0.046875 Z M 97.257812 0.046875 "/>
<path style=" stroke:none;fill-rule:nonzero;fill:rgb(80%,0%,0%);fill-opacity:1;" d="M 0 142.140625 L 72.042969 94.773438 L 88.152344 94.773438 L 16.109375 142.140625 Z M 0 0.046875 L 72.042969 47.410156 L 55.933594 47.410156 L 0 10.636719 Z M 127.976562 47.410156 L 200.015625 0.046875 L 216.125 0.046875 L 144.085938 47.410156 Z M 216.125 142.140625 L 144.085938 94.773438 L 160.191406 94.773438 L 216.125 131.546875 Z M 216.125 142.140625 "/>
</g>
</svg>
