<?xml version="1.0" encoding="UTF-8"?>
<svg xmlns="http://www.w3.org/2000/svg" xmlns:xlink="http://www.w3.org/1999/xlink" width="384pt" height="384pt" viewBox="0 0 384 384" version="1.1">
<g id="surface1">
<path style=" stroke:none;fill-rule:evenodd;fill:rgb(80.784314%,0%,0%);fill-opacity:1;" d="M 192 0 L 384 0 L 384 383.988281 L 192 383.988281 Z M 192 0 "/>
<path style=" stroke:none;fill-rule:evenodd;fill:rgb(100%,100%,100%);fill-opacity:1;" d="M 0 0 L 192 0 L 192 383.988281 L 0 383.988281 Z M 0 0 "/>
<path style=" stroke:none;fill-rule:evenodd;fill:rgb(94.509804%,93.333333%,93.333333%);fill-opacity:1;" d="M 78.617188 81.050781 C 78.617188 81.65625 77.929688 82.148438 77.082031 82.148438 C 76.234375 82.148438 75.546875 81.65625 75.546875 81.050781 C 75.546875 80.441406 76.234375 79.949219 77.082031 79.949219 C 77.929688 79.949219 78.617188 80.441406 78.617188 81.050781 Z M 78.617188 81.050781 "/>
<path style=" stroke:none;fill-rule:evenodd;fill:rgb(80%,0%,0%);fill-opacity:1;" d="M 30.5625 75.738281 L 30.5625 103.644531 L 58.46875 103.644531 C 58.46875 108.292969 63.121094 112.945312 67.773438 112.945312 L 67.773438 140.851562 L 95.679688 140.851562 L 95.679688 112.945312 C 100.332031 112.945312 104.984375 108.292969 104.984375 103.644531 L 132.890625 103.644531 L 132.890625 75.738281 L 104.984375 75.738281 C 104.984375 71.089844 100.332031 66.4375 95.679688 66.4375 L 95.679688 38.53125 L 67.773438 38.53125 L 67.773438 66.4375 C 63.121094 66.4375 58.46875 71.089844 58.46875 75.738281 Z M 30.5625 75.738281 "/>
<path style=" stroke:none;fill-rule:evenodd;fill:rgb(100%,90.196078%,0%);fill-opacity:1;" d="M 31.492188 76.667969 L 31.492188 102.710938 L 59.398438 102.710938 C 59.398438 107.363281 64.050781 112.015625 68.699219 112.015625 L 68.699219 139.921875 L 94.75 139.921875 L 94.75 112.015625 C 99.402344 112.015625 104.050781 107.363281 104.050781 102.710938 L 131.960938 102.710938 L 131.960938 76.667969 L 104.050781 76.667969 C 104.050781 72.015625 99.402344 67.363281 94.75 67.363281 L 94.75 39.457031 L 68.699219 39.457031 L 68.699219 67.363281 C 64.050781 67.363281 59.398438 72.015625 59.398438 76.667969 Z M 31.492188 76.667969 "/>
<path style=" stroke:none;fill-rule:evenodd;fill:rgb(43.921569%,43.921569%,43.921569%);fill-opacity:1;" d="M 32.394531 77.597656 L 32.394531 101.78125 L 60.300781 101.78125 C 60.300781 106.433594 64.953125 111.085938 69.605469 111.085938 L 69.605469 138.988281 L 93.789062 138.988281 L 93.789062 111.085938 C 98.441406 111.085938 103.09375 106.433594 103.09375 101.78125 L 131 101.78125 L 131 77.597656 L 103.09375 77.597656 C 103.09375 72.945312 98.441406 68.296875 93.789062 68.296875 L 93.789062 40.390625 L 69.605469 40.390625 L 69.605469 68.296875 C 64.953125 68.296875 60.300781 72.945312 60.300781 77.597656 Z M 32.394531 77.597656 "/>
<path style=" stroke:none;fill-rule:evenodd;fill:rgb(62.745098%,62.745098%,62.745098%);fill-opacity:1;" d="M 33.324219 78.527344 L 33.324219 100.851562 L 61.230469 100.851562 C 61.230469 105.5 65.882812 110.152344 70.535156 110.152344 L 70.535156 138.058594 L 92.859375 138.058594 L 92.859375 110.152344 C 97.511719 110.152344 102.164062 105.5 102.164062 100.851562 L 130.070312 100.851562 L 130.070312 78.527344 L 102.164062 78.527344 C 102.164062 73.875 97.511719 69.222656 92.859375 69.222656 L 92.859375 41.320312 L 70.535156 41.320312 L 70.535156 69.222656 C 65.882812 69.222656 61.230469 73.875 61.230469 78.527344 Z M 33.324219 78.527344 "/>
<path style=" stroke:none;fill-rule:evenodd;fill:rgb(81.568627%,81.568627%,81.568627%);fill-opacity:1;" d="M 70.777344 66.917969 C 72.414062 68.554688 71.085938 72.527344 67.816406 75.796875 C 64.546875 79.066406 60.574219 80.390625 58.9375 78.757812 C 57.304688 77.121094 58.628906 73.148438 61.898438 69.878906 C 65.167969 66.609375 69.144531 65.285156 70.777344 66.917969 Z M 70.777344 66.917969 "/>
<path style=" stroke:none;fill-rule:evenodd;fill:rgb(50.196078%,50.196078%,50.196078%);fill-opacity:1;" d="M 68.804688 68.890625 C 70.441406 70.523438 70 73.617188 67.820312 75.796875 C 65.640625 77.976562 62.546875 78.417969 60.914062 76.785156 C 59.277344 75.148438 59.71875 72.054688 61.898438 69.875 C 64.078125 67.695312 67.171875 67.253906 68.804688 68.890625 Z M 68.804688 68.890625 "/>
<path style=" stroke:none;fill-rule:evenodd;fill:rgb(81.568627%,81.568627%,81.568627%);fill-opacity:1;" d="M 60.582031 73.824219 L 61.238281 73.164062 L 63.871094 74.480469 L 62.554688 71.847656 L 63.210938 71.191406 L 65.84375 76.453125 Z M 60.582031 73.824219 "/>
<path style=" stroke:none;fill-rule:evenodd;fill:rgb(81.568627%,81.568627%,81.568627%);fill-opacity:1;" d="M 64.527344 69.875 L 65.1875 69.21875 L 69.132812 73.164062 L 68.476562 73.824219 Z M 64.527344 69.875 "/>
<path style=" stroke:none;fill-rule:evenodd;fill:rgb(81.568627%,81.568627%,81.568627%);fill-opacity:1;" d="M 104.480469 78.757812 C 102.847656 80.390625 98.871094 79.066406 95.601562 75.796875 C 92.332031 72.527344 91.007812 68.550781 92.640625 66.917969 C 94.277344 65.28125 98.25 66.609375 101.519531 69.875 C 104.789062 73.144531 106.117188 77.121094 104.480469 78.757812 Z M 104.480469 78.757812 "/>
<path style=" stroke:none;fill-rule:evenodd;fill:rgb(50.196078%,50.196078%,50.196078%);fill-opacity:1;" d="M 102.507812 76.785156 C 100.875 78.417969 97.78125 77.976562 95.601562 75.796875 C 93.421875 73.617188 92.980469 70.527344 94.617188 68.890625 C 96.25 67.257812 99.34375 67.699219 101.523438 69.878906 C 103.703125 72.058594 104.144531 75.148438 102.507812 76.785156 Z M 102.507812 76.785156 "/>
<path style=" stroke:none;fill-rule:evenodd;fill:rgb(81.568627%,81.568627%,81.568627%);fill-opacity:1;" d="M 97.578125 68.558594 L 98.234375 69.21875 L 96.917969 71.847656 L 99.550781 70.535156 L 100.207031 71.191406 L 94.945312 73.824219 Z M 97.578125 68.558594 "/>
<path style=" stroke:none;fill-rule:evenodd;fill:rgb(81.568627%,81.568627%,81.568627%);fill-opacity:1;" d="M 101.523438 72.507812 L 102.179688 73.164062 L 98.234375 77.113281 L 97.578125 76.453125 Z M 101.523438 72.507812 "/>
<path style=" stroke:none;fill-rule:evenodd;fill:rgb(81.568627%,81.568627%,81.568627%);fill-opacity:1;" d="M 92.644531 112.457031 C 91.007812 110.820312 92.332031 106.847656 95.601562 103.578125 C 98.871094 100.308594 102.847656 98.984375 104.484375 100.617188 C 106.117188 102.253906 104.792969 106.226562 101.523438 109.496094 C 98.253906 112.765625 94.277344 114.089844 92.644531 112.457031 Z M 92.644531 112.457031 "/>
<path style=" stroke:none;fill-rule:evenodd;fill:rgb(50.196078%,50.196078%,50.196078%);fill-opacity:1;" d="M 94.613281 110.484375 C 92.980469 108.851562 93.421875 105.757812 95.601562 103.578125 C 97.78125 101.398438 100.875 100.957031 102.507812 102.589844 C 104.144531 104.226562 103.703125 107.320312 101.523438 109.496094 C 99.34375 111.675781 96.25 112.121094 94.613281 110.484375 Z M 94.613281 110.484375 "/>
<path style=" stroke:none;fill-rule:evenodd;fill:rgb(81.568627%,81.568627%,81.568627%);fill-opacity:1;" d="M 102.839844 105.550781 L 102.183594 106.210938 L 99.550781 104.894531 L 100.867188 107.523438 L 100.207031 108.183594 L 97.578125 102.921875 Z M 102.839844 105.550781 "/>
<path style=" stroke:none;fill-rule:evenodd;fill:rgb(81.568627%,81.568627%,81.568627%);fill-opacity:1;" d="M 98.890625 109.5 L 98.234375 110.15625 L 94.289062 106.210938 L 94.945312 105.550781 Z M 98.890625 109.5 "/>
<path style=" stroke:none;fill-rule:evenodd;fill:rgb(81.568627%,81.568627%,81.568627%);fill-opacity:1;" d="M 58.941406 100.621094 C 60.574219 98.984375 64.550781 100.308594 67.820312 103.578125 C 71.089844 106.847656 72.414062 110.824219 70.78125 112.457031 C 69.144531 114.09375 65.167969 112.769531 61.898438 109.5 C 58.628906 106.230469 57.304688 102.253906 58.941406 100.621094 Z M 58.941406 100.621094 "/>
<path style=" stroke:none;fill-rule:evenodd;fill:rgb(50.196078%,50.196078%,50.196078%);fill-opacity:1;" d="M 60.914062 102.589844 C 62.546875 100.957031 65.640625 101.398438 67.820312 103.578125 C 70 105.757812 70.441406 108.847656 68.804688 110.484375 C 67.171875 112.117188 64.078125 111.675781 61.898438 109.496094 C 59.71875 107.316406 59.277344 104.226562 60.914062 102.589844 Z M 60.914062 102.589844 "/>
<path style=" stroke:none;fill-rule:evenodd;fill:rgb(81.568627%,81.568627%,81.568627%);fill-opacity:1;" d="M 65.84375 110.816406 L 65.1875 110.15625 L 66.503906 107.527344 L 63.871094 108.84375 L 63.214844 108.183594 L 68.476562 105.554688 Z M 65.84375 110.816406 "/>
<path style=" stroke:none;fill-rule:evenodd;fill:rgb(81.568627%,81.568627%,81.568627%);fill-opacity:1;" d="M 61.898438 106.867188 L 61.242188 106.210938 L 65.1875 102.261719 L 65.84375 102.921875 Z M 61.898438 106.867188 "/>
<path style="fill:none;stroke-width:1.25;stroke-linecap:butt;stroke-linejoin:miter;stroke:rgb(43.921569%,43.921569%,43.921569%);stroke-opacity:1;stroke-miterlimit:4;" d="M 269.296455 414.56522 C 269.296455 455.662888 235.189433 488.978484 193.115473 488.978484 C 151.041513 488.978484 116.93449 455.662888 116.93449 414.56522 C 116.93449 373.482432 151.041513 340.166835 193.115473 340.166835 C 235.189433 340.166835 269.296455 373.482432 269.296455 414.56522 Z M 269.296455 414.56522 " transform="matrix(0.256431,0,0,0.262522,32.190167,-19.145198)"/>
<path style="fill:none;stroke-width:1.25;stroke-linecap:butt;stroke-linejoin:miter;stroke:rgb(43.921569%,43.921569%,43.921569%);stroke-opacity:1;stroke-miterlimit:4;" d="M 269.289478 414.566765 C 269.289478 455.65725 235.180879 488.974915 193.114939 488.974915 C 151.029006 488.974915 116.920407 455.65725 116.920407 414.566765 C 116.920407 373.47628 151.029006 340.158615 193.114939 340.158615 C 235.180879 340.158615 269.289478 373.47628 269.289478 414.566765 Z M 269.289478 414.566765 " transform="matrix(0.195378,0,0,0.200016,43.980569,6.767558)"/>
<path style=" stroke:none;fill-rule:evenodd;fill:rgb(81.568627%,81.568627%,81.568627%);fill-opacity:1;" d="M 75.199219 105.5 C 75.199219 106.015625 74.78125 106.429688 74.269531 106.429688 C 73.753906 106.429688 73.335938 106.015625 73.335938 105.5 C 73.335938 104.988281 73.753906 104.570312 74.269531 104.570312 C 74.78125 104.570312 75.199219 104.988281 75.199219 105.5 Z M 75.199219 105.5 "/>
<path style=" stroke:none;fill-rule:evenodd;fill:rgb(81.568627%,81.568627%,81.568627%);fill-opacity:1;" d="M 90.082031 105.5 C 90.082031 106.015625 89.664062 106.429688 89.152344 106.429688 C 88.636719 106.429688 88.222656 106.015625 88.222656 105.5 C 88.222656 104.988281 88.636719 104.570312 89.152344 104.570312 C 89.664062 104.570312 90.082031 104.988281 90.082031 105.5 Z M 90.082031 105.5 "/>
<path style=" stroke:none;fill-rule:evenodd;fill:rgb(81.568627%,81.568627%,81.568627%);fill-opacity:1;" d="M 81.089844 105.5 L 81.089844 106.472656 L 79.851562 106.472656 C 78.609375 106.472656 78.609375 107.441406 79.851562 107.441406 L 81.089844 107.441406 L 81.089844 108.410156 C 81.09375 109.414062 82.171875 109.535156 82.25 108.488281 L 82.332031 107.441406 L 83.570312 107.441406 C 84.8125 107.441406 84.8125 106.472656 83.570312 106.472656 L 82.332031 106.472656 L 82.332031 105.5 C 82.332031 104.53125 81.089844 104.53125 81.089844 105.5 Z M 81.089844 105.5 "/>
<path style="fill-rule:evenodd;fill:rgb(81.568627%,81.568627%,81.568627%);fill-opacity:1;stroke-width:1.25;stroke-linecap:butt;stroke-linejoin:miter;stroke:rgb(43.921569%,43.921569%,43.921569%);stroke-opacity:1;stroke-miterlimit:4;" d="M 180.718082 162.984325 L 180.718082 170.082831 C 180.718082 170.082831 177.339807 175.519984 155.899017 177.181337 C 134.458228 178.842689 131.124996 177.181337 131.124996 177.181337 C 131.66552 183.323307 135.854582 195.053462 134.638402 209.049098 C 135.494232 225.360559 130.539428 240.111355 130.539428 240.111355 C 131.124996 240.967203 128.512463 241.369956 124.008095 240.967203 C 127.566545 237.392778 127.161152 227.172943 127.566545 212.573179 C 127.971938 198.023759 114.053443 176.124113 116.936238 170.082831 C 119.819033 163.991205 180.718082 162.984325 180.718082 162.984325 Z M 180.718082 162.984325 " transform="matrix(0.0867214,0,0,0.0775912,61.409909,79.111671)"/>
<path style="fill-rule:evenodd;fill:rgb(81.568627%,81.568627%,81.568627%);fill-opacity:1;stroke-width:1.25;stroke-linecap:butt;stroke-linejoin:miter;stroke:rgb(43.921569%,43.921569%,43.921569%);stroke-opacity:1;stroke-miterlimit:4;" d="M 272.844581 162.278427 C 293.699803 161.170858 328.698738 161.422578 328.698738 161.422578 C 328.698738 161.422578 336.941731 179.898832 336.626425 190.118667 C 336.266076 200.338502 333.428324 209.048016 329.509525 204.718431 C 325.635768 200.338502 331.356315 201.19435 332.03197 190.118667 C 332.707626 179.093327 325.365506 167.665236 325.365506 167.665236 C 325.365506 167.665236 310.411006 174.965118 287.889169 173.505142 C 265.412375 171.994821 275.367027 162.681179 272.844581 162.278427 Z M 272.844581 162.278427 " transform="matrix(0.0867214,0,0,0.0775912,60.795571,77.174255)"/>
<path style="fill-rule:evenodd;fill:rgb(81.568627%,81.568627%,81.568627%);fill-opacity:1;stroke-width:1.25;stroke-linecap:butt;stroke-linejoin:miter;stroke:rgb(43.921569%,43.921569%,43.921569%);stroke-opacity:1;stroke-miterlimit:4;" d="M 312.188175 273.885014 C 333.08844 272.82779 346.781717 276.402215 346.781717 276.402215 C 346.781717 276.402215 355.02471 294.928812 354.66436 305.148647 C 354.349055 315.368482 351.511303 324.027653 347.592503 319.698068 C 343.718747 315.368482 349.39425 316.173987 350.069905 305.148647 C 350.790604 294.072964 343.448485 282.644873 343.448485 282.644873 C 343.448485 282.644873 328.448941 289.944755 305.972147 288.484778 C 283.45031 287.024802 289.891555 285.514482 287.369109 285.061385 C 284.846664 284.608289 284.216052 292.00886 250.163034 293.066084 C 216.155059 294.072964 198.7682 285.061385 198.7682 285.061385 C 198.7682 285.061385 195.434968 290.498539 173.994179 292.159892 C 152.553389 293.821244 149.175114 292.159892 149.175114 292.159892 C 149.715638 298.352205 153.904699 310.032017 152.733564 324.027653 C 153.54435 340.339114 148.589546 355.08991 148.589546 355.08991 C 149.175114 355.945758 146.607624 356.34851 142.103256 355.945758 C 145.616663 352.371333 145.21127 342.151498 145.616663 327.602078 C 146.022056 313.052658 132.103561 291.153011 134.986356 285.061385 C 137.914195 279.020104 153.319132 284.658633 156.246971 281.537304 C 159.174809 278.365632 142.50865 256.214265 145.616663 235.472531 C 148.724677 214.730797 166.426841 220.570703 188.137893 221.275519 C 209.893988 221.980335 258.000633 228.273337 269.621901 221.275519 C 281.288213 214.277701 276.243322 188.350533 287.369109 171.686664 C 294.440966 161.064077 305.071274 157.489652 315.701581 157.489652 C 322.773438 157.489652 333.403746 185.833333 333.403746 192.931839 L 329.890339 196.506264 L 326.331889 196.506264 L 326.331889 200.030345 C 318.269071 200.936537 317.097935 192.277366 312.143131 185.833333 C 310.026078 195.851791 319.260032 228.374025 319.260032 249.619199 C 319.260032 267.340292 312.638611 275.143615 312.188175 273.885014 Z M 312.188175 273.885014 " transform="matrix(0.0867214,0,0,0.0775912,57.996921,69.928634)"/>
<path style="fill-rule:evenodd;fill:rgb(81.568627%,81.568627%,81.568627%);fill-opacity:1;stroke-width:1.25;stroke-linecap:butt;stroke-linejoin:miter;stroke:rgb(43.921569%,43.921569%,43.921569%);stroke-opacity:1;stroke-miterlimit:4;" d="M 209.05623 131.082866 C 209.371536 138.181372 181.669676 153.989393 179.417492 160.282394 C 177.165308 166.525052 186.444305 169.998789 183.606554 173.573214 C 180.723758 177.147639 178.336444 175.838695 177.750876 176.493167 C 177.165308 177.147639 167.345787 151.925288 167.345787 151.925288 C 167.345787 151.925288 193.290944 138.835844 192.345027 133.197315 C 191.354066 127.558785 173.156421 124.135392 169.868233 109.888036 C 166.535001 95.691024 168.381791 68.203192 165.679171 62.41363 C 162.97655 56.674412 131.130672 51.186915 131.085628 42.527744 C 131.085628 33.81823 163.877424 9.955167 167.390831 6.431086 C 170.949281 2.907005 174.507731 9.955167 170.949281 13.529592 C 167.390831 17.053673 141.715936 38.953319 141.715936 42.527744 C 141.715936 46.051825 162.97655 49.62625 170.093451 49.62625 C 177.165308 49.62625 180.723758 46.051825 180.723758 42.527744 C 180.768802 39.456759 173.606858 38.953319 173.606858 31.905157 C 173.606858 24.806651 177.165308 21.28257 184.237165 21.28257 C 187.795616 21.28257 194.59721 25.813531 194.867473 31.905157 C 195.182778 37.996783 188.561358 38.500223 187.795616 42.527744 C 187.029873 46.555265 194.867473 49.62625 201.984373 49.62625 C 209.05623 49.62625 233.244684 70.216952 236.803134 73.741033 C 240.361585 77.315458 243.874991 77.315458 240.361585 80.839539 C 236.803134 84.36362 238.875143 88.592518 235.316693 85.018092 C 232.298767 81.594699 231.803286 77.96993 231.803286 77.96993 C 231.487981 74.747913 205.49778 60.248837 201.984373 63.772918 C 198.425923 67.296999 201.984373 109.837692 201.984373 113.361773 C 201.984373 120.460279 209.371536 120.460279 209.05623 131.082866 Z M 209.05623 131.082866 " transform="matrix(0.0867214,0,0,0.0775912,61.026604,78.626005)"/>
<path style=" stroke:none;fill-rule:evenodd;fill:rgb(65.490196%,65.490196%,65.490196%);fill-opacity:1;" d="M 75.238281 82.425781 L 78.925781 82.425781 L 78.925781 86.273438 L 75.238281 86.273438 Z M 75.238281 82.425781 "/>
<path style=" stroke:none;fill-rule:evenodd;fill:rgb(50.196078%,50.196078%,50.196078%);fill-opacity:1;" d="M 74.808594 77.730469 L 87.179688 96.304688 C 87.28125 96.457031 87.304688 96.613281 87.234375 96.652344 C 87.160156 96.691406 87.019531 96.597656 86.917969 96.445312 L 74.542969 77.871094 C 74.441406 77.71875 74.417969 77.5625 74.492188 77.523438 C 74.5625 77.484375 74.703125 77.578125 74.808594 77.730469 Z M 74.808594 77.730469 "/>
<path style="fill-rule:evenodd;fill:rgb(81.568627%,81.568627%,81.568627%);fill-opacity:1;stroke-width:1.25;stroke-linecap:butt;stroke-linejoin:miter;stroke:rgb(43.921569%,43.921569%,43.921569%);stroke-opacity:1;stroke-miterlimit:4;" d="M 180.713834 42.503549 C 180.713834 46.430382 177.515734 49.602055 173.641977 49.602055 C 169.723178 49.602055 166.525077 46.430382 166.525077 42.503549 C 166.525077 38.62706 169.723178 35.455387 173.641977 35.455387 C 177.515734 35.455387 180.713834 38.62706 180.713834 42.503549 Z M 180.713834 42.503549 " transform="matrix(0.0867214,0,0,0.0775912,60.488402,76.100538)"/>
<path style=" stroke:none;fill-rule:evenodd;fill:rgb(50.196078%,50.196078%,50.196078%);fill-opacity:1;" d="M 86.914062 84.40625 C 86.914062 84.632812 85.484375 84.898438 83.839844 84.898438 C 82.195312 84.898438 80.765625 84.632812 80.765625 84.40625 C 80.765625 84.175781 82.195312 84.734375 83.839844 84.734375 C 85.484375 84.734375 86.914062 84.175781 86.914062 84.40625 Z M 86.914062 84.40625 "/>
<path style=" stroke:none;fill-rule:evenodd;fill:rgb(65.490196%,65.490196%,65.490196%);fill-opacity:1;" d="M 75.546875 86.273438 L 78.617188 86.273438 L 78.617188 87.371094 L 75.546875 87.371094 Z M 75.546875 86.273438 "/>
<path style=" stroke:none;fill-rule:evenodd;fill:rgb(50.196078%,50.196078%,50.196078%);fill-opacity:1;" d="M 85.535156 83.566406 C 85.238281 84.121094 84.953125 84.519531 84.902344 84.453125 C 84.851562 84.386719 85.054688 83.882812 85.351562 83.324219 C 85.648438 82.765625 85.933594 82.367188 85.984375 82.433594 C 86.035156 82.5 85.832031 83.007812 85.535156 83.566406 Z M 85.535156 83.566406 "/>
<path style=" stroke:none;fill-rule:evenodd;fill:rgb(50.196078%,50.196078%,50.196078%);fill-opacity:1;" d="M 86.316406 85.007812 C 85.976562 85.304688 85.695312 85.5 85.6875 85.4375 C 85.675781 85.378906 85.945312 85.089844 86.28125 84.789062 C 86.621094 84.492188 86.90625 84.300781 86.914062 84.359375 C 86.925781 84.421875 86.65625 84.710938 86.316406 85.007812 Z M 86.316406 85.007812 "/>
<path style=" stroke:none;fill-rule:evenodd;fill:rgb(50.196078%,50.196078%,50.196078%);fill-opacity:1;" d="M 85.921875 84.3125 C 86.171875 84.765625 86.335938 85.152344 86.289062 85.171875 C 86.242188 85.191406 86.003906 84.839844 85.753906 84.382812 C 85.503906 83.929688 85.335938 83.542969 85.382812 83.523438 C 85.429688 83.503906 85.671875 83.855469 85.921875 84.3125 Z M 85.921875 84.3125 "/>
<path style=" stroke:none;fill-rule:evenodd;fill:rgb(50.196078%,50.196078%,50.196078%);fill-opacity:1;" d="M 85.683594 86.683594 C 85.683594 86.761719 84.71875 86.824219 83.53125 86.824219 C 82.34375 86.824219 81.382812 86.761719 81.382812 86.683594 C 81.382812 86.609375 82.34375 86.546875 83.53125 86.546875 C 84.71875 86.546875 85.683594 86.609375 85.683594 86.683594 Z M 85.683594 86.683594 "/>
<path style=" stroke:none;fill-rule:evenodd;fill:rgb(50.196078%,50.196078%,50.196078%);fill-opacity:1;" d="M 78.617188 86.410156 C 78.617188 86.484375 77.929688 86.546875 77.082031 86.546875 C 76.234375 86.546875 75.546875 86.484375 75.546875 86.410156 C 75.546875 86.335938 76.234375 86.273438 77.082031 86.273438 C 77.929688 86.273438 78.617188 86.335938 78.617188 86.410156 Z M 78.617188 86.410156 "/>
<path style="fill-rule:evenodd;fill:rgb(81.568627%,81.568627%,81.568627%);fill-opacity:1;stroke-width:1.25;stroke-linecap:butt;stroke-linejoin:miter;stroke:rgb(50.196078%,50.196078%,50.196078%);stroke-opacity:1;stroke-miterlimit:4;" d="M 375.48294 171.967191 C 375.48294 171.967191 384.438619 208.052327 422.534699 208.510551 C 460.630778 209.083331 473.719847 197.742288 458.357413 178.611438 C 442.92609 159.480589 414.267918 165.4375 417.919079 181.933562 C 421.639131 198.429624 407.172265 203.928311 403.796663 192.358157 C 400.421061 180.673446 386.780873 146.30665 411.305655 144.015531 C 435.830437 141.724411 487.773373 129.237809 500.793552 153.18001 C 513.813732 177.122211 486.120017 198.887848 507.062528 203.928311 C 527.936148 209.083331 530.898411 198.200512 566.927795 194.878388 C 602.95718 191.556265 616.666257 205.990319 628.997538 203.928311 C 641.328818 201.980859 639.606573 166.697616 629.824216 157.762249 C 620.110749 148.826882 601.372713 147.223098 596.550425 137.371284 C 591.728136 127.519469 578.639067 135.538388 579.879085 124.426457 C 581.119102 113.429083 598.41045 132.101708 598.61712 126.373909 C 598.61712 126.259353 601.441603 122.479005 602.061612 121.562557 C 599.857137 120.760666 598.61712 122.020781 596.963764 123.510009 C 598.7549 121.104334 598.68601 120.07333 599.237129 118.125878 C 598.961569 117.438542 596.825984 120.875222 596.412645 120.187886 C 596.068196 119.385994 598.961569 114.460086 597.652662 116.292982 C 597.170433 116.751206 593.794831 119.615106 593.725942 117.667654 C 593.794831 116.865762 595.517077 114.803754 594.897069 113.77275 C 594.41484 112.856303 591.797026 114.803754 591.452577 115.032866 C 592.968153 111.710743 592.830374 111.825299 591.452577 109.305067 C 590.21256 106.899391 589.248102 106.899391 587.250297 109.648735 C 588.076975 105.753831 588.283645 104.837384 586.285839 103.348156 C 584.563593 101.858928 584.494704 100.3697 582.428008 107.586727 C 583.185797 99.911476 581.050212 99.567808 581.94578 96.016573 C 582.496898 92.694449 585.252492 91.319777 589.868111 92.007113 C 598.823789 92.121669 603.577188 109.992403 606.539451 109.877847 C 609.432824 109.877847 612.739536 90.976109 625.277487 98.65136 C 637.815437 106.326611 639.331013 107.815839 645.668878 112.398079 C 651.937853 116.980318 641.191039 123.853677 644.8422 132.789044 C 648.424472 141.724411 673.087033 171.623523 666.06027 202.668195 C 659.033506 233.827423 641.053259 238.753331 639.399903 252.270937 C 637.815437 265.788543 696.509577 260.1753 711.458672 264.75754 C 726.407766 269.339779 735.776784 287.897849 736.396792 290.99086 C 737.016801 294.083872 710.149765 293.85476 710.149765 293.85476 C 710.149765 293.85476 696.371798 282.055493 663.580236 281.02449 C 630.719784 279.87893 618.181833 257.88418 605.919443 255.134837 C 593.588162 252.385493 567.410024 259.717076 552.736489 258.686072 C 538.131844 257.540512 523.251639 253.760165 513.813732 251.583601 C 504.306934 249.407038 457.117396 286.981401 457.255176 295.802212 C 447.403929 295.114876 424.256944 293.052868 425.221402 294.083872 C 426.18586 295.114876 429.354792 277.01503 447.403929 273.922018 C 465.453066 270.714451 483.088865 256.280397 482.468856 246.886806 C 481.917737 237.378659 485.982238 204.959315 487.497814 191.098041 C 488.944501 177.122211 495.764594 170.477963 494.111238 163.14638 C 492.526772 155.929353 471.859821 148.368658 452.088438 148.59777 C 432.317055 148.826882 410.341197 150.659778 407.103375 158.564141 C 403.934443 166.58306 406.345587 189.608813 410.478977 186.859469 C 414.543478 184.224682 409.44563 169.217848 413.785689 166.124836 C 418.125749 163.031824 429.217013 160.282481 439.619378 159.824257 C 450.021743 159.480589 468.07088 174.601979 467.933101 179.41333 C 467.726431 184.224682 473.719847 200.377076 465.384177 206.448543 C 457.117396 212.634566 440.101607 215.38391 423.774716 214.009238 C 407.447824 212.634566 390.983154 203.240975 385.058628 197.284064 C 379.134102 191.327153 375.48294 173.112751 375.48294 171.967191 Z M 375.48294 171.967191 " transform="matrix(0.0567028,0,0,0.034099,50.568422,90.108739)"/>
<path style=" stroke:none;fill-rule:evenodd;fill:rgb(0%,0%,0%);fill-opacity:1;" d="M 85.539062 94.148438 C 85.539062 94.28125 85.429688 94.394531 85.292969 94.394531 C 85.15625 94.394531 85.046875 94.28125 85.046875 94.148438 C 85.046875 94.011719 85.15625 93.898438 85.292969 93.898438 C 85.429688 93.898438 85.539062 94.011719 85.539062 94.148438 Z M 85.539062 94.148438 "/>
<path style=" stroke:none;fill-rule:nonzero;fill:rgb(81.568627%,81.568627%,81.568627%);fill-opacity:1;" d="M 97.128906 90.582031 L 98.328125 90.839844 L 100.324219 89.46875 L 100.171875 90.1875 L 99.128906 90.882812 C 98.933594 91.011719 98.742188 91.128906 98.554688 91.234375 C 98.671875 91.398438 98.804688 91.597656 98.945312 91.828125 L 99.589844 92.871094 L 99.441406 93.558594 L 98.199219 91.429688 L 97.003906 91.171875 Z M 97.128906 90.582031 "/>
<path style=" stroke:none;fill-rule:nonzero;fill:rgb(81.568627%,81.568627%,81.568627%);fill-opacity:1;" d="M 95.09375 81.78125 L 97.40625 80.714844 L 96.777344 79.351562 L 97.089844 79.207031 L 98.601562 82.492188 L 98.292969 82.636719 L 97.660156 81.265625 L 95.347656 82.332031 Z M 95.09375 81.78125 "/>
<path style=" stroke:none;fill-rule:nonzero;fill:rgb(81.568627%,81.568627%,81.568627%);fill-opacity:1;" d="M 91.507812 77.421875 L 93.636719 75.46875 L 94.054688 75.925781 L 94 79.226562 L 95.671875 77.691406 L 96.066406 78.121094 L 93.933594 80.070312 L 93.515625 79.613281 L 93.570312 76.3125 L 91.898438 77.847656 Z M 91.507812 77.421875 "/>
<path style=" stroke:none;fill-rule:nonzero;fill:rgb(81.568627%,81.568627%,81.568627%);fill-opacity:1;" d="M 82.195312 73.660156 L 82.542969 70.792969 L 83.144531 70.863281 L 82.835938 73.394531 L 85.066406 73.664062 L 85.023438 74.003906 Z M 82.195312 73.660156 "/>
<path style=" stroke:none;fill-rule:nonzero;fill:rgb(81.568627%,81.568627%,81.568627%);fill-opacity:1;" d="M 77.613281 74.074219 L 77.097656 71.230469 L 77.691406 71.125 L 78.148438 73.628906 L 80.359375 73.226562 L 80.417969 73.5625 Z M 77.613281 74.074219 "/>
<path style=" stroke:none;fill-rule:nonzero;fill:rgb(81.568627%,81.568627%,81.568627%);fill-opacity:1;" d="M 69.144531 78.25 L 68.933594 77.984375 L 70.441406 76.773438 L 71.113281 77.613281 C 70.972656 77.914062 70.804688 78.195312 70.605469 78.449219 C 70.40625 78.707031 70.175781 78.9375 69.917969 79.144531 C 69.570312 79.425781 69.210938 79.632812 68.851562 79.769531 C 68.488281 79.902344 68.164062 79.9375 67.875 79.871094 C 67.585938 79.808594 67.351562 79.667969 67.171875 79.445312 C 66.996094 79.226562 66.90625 78.964844 66.898438 78.660156 C 66.890625 78.351562 66.988281 78.042969 67.183594 77.734375 C 67.382812 77.421875 67.660156 77.125 68.015625 76.839844 C 68.273438 76.636719 68.527344 76.476562 68.777344 76.363281 C 69.027344 76.25 69.25 76.191406 69.441406 76.191406 C 69.636719 76.191406 69.824219 76.242188 70.007812 76.34375 L 69.640625 76.757812 C 69.496094 76.6875 69.359375 76.648438 69.226562 76.648438 C 69.09375 76.644531 68.9375 76.683594 68.761719 76.761719 C 68.582031 76.839844 68.402344 76.949219 68.222656 77.09375 C 68.007812 77.265625 67.835938 77.4375 67.714844 77.605469 C 67.589844 77.773438 67.503906 77.929688 67.460938 78.074219 C 67.421875 78.21875 67.40625 78.351562 67.417969 78.476562 C 67.4375 78.6875 67.515625 78.875 67.644531 79.039062 C 67.804688 79.238281 67.996094 79.363281 68.210938 79.414062 C 68.429688 79.460938 68.671875 79.433594 68.929688 79.332031 C 69.191406 79.230469 69.441406 79.085938 69.675781 78.898438 C 69.878906 78.734375 70.058594 78.550781 70.214844 78.34375 C 70.367188 78.140625 70.472656 77.96875 70.527344 77.832031 L 70.191406 77.410156 Z M 69.144531 78.25 "/>
<path style=" stroke:none;fill-rule:nonzero;fill:rgb(81.568627%,81.568627%,81.568627%);fill-opacity:1;" d="M 69.054688 99.023438 L 66.699219 100.695312 L 64.914062 98.183594 L 65.195312 97.988281 L 66.625 100.003906 L 67.355469 99.488281 L 66.117188 97.742188 L 66.394531 97.542969 L 67.632812 99.289062 L 68.703125 98.53125 Z M 69.054688 99.023438 "/>
<path style=" stroke:none;fill-rule:nonzero;fill:rgb(81.568627%,81.568627%,81.568627%);fill-opacity:1;" d="M 65.582031 95.261719 C 65.914062 95.167969 66.140625 94.953125 66.253906 94.613281 C 66.363281 94.273438 66.359375 93.890625 66.238281 93.460938 C 66.117188 93.023438 65.917969 92.691406 65.640625 92.464844 C 65.367188 92.234375 65.050781 92.171875 64.691406 92.273438 C 64.46875 92.335938 64.285156 92.453125 64.152344 92.621094 C 64.015625 92.789062 63.9375 93.003906 63.910156 93.261719 C 63.882812 93.523438 63.910156 93.796875 63.992188 94.085938 C 64.105469 94.496094 64.296875 94.824219 64.558594 95.074219 C 64.820312 95.316406 65.160156 95.382812 65.582031 95.261719 Z M 65.742188 95.863281 C 65.28125 95.992188 64.867188 95.902344 64.496094 95.582031 C 64.121094 95.265625 63.847656 94.796875 63.675781 94.179688 C 63.558594 93.773438 63.519531 93.390625 63.550781 93.03125 C 63.578125 92.667969 63.679688 92.375 63.851562 92.140625 C 64.023438 91.90625 64.25 91.75 64.527344 91.671875 C 64.808594 91.59375 65.085938 91.613281 65.359375 91.730469 C 65.632812 91.847656 65.875 92.054688 66.082031 92.351562 C 66.289062 92.648438 66.445312 92.988281 66.554688 93.367188 C 66.667969 93.78125 66.710938 94.167969 66.675781 94.53125 C 66.640625 94.890625 66.539062 95.1875 66.367188 95.417969 C 66.195312 95.644531 65.988281 95.792969 65.742188 95.863281 Z M 65.742188 95.863281 "/>
<path style=" stroke:none;fill-rule:nonzero;fill:rgb(81.568627%,81.568627%,81.568627%);fill-opacity:1;" d="M 65.984375 90 L 63.097656 89.933594 L 63.144531 87.910156 C 63.152344 87.503906 63.183594 87.195312 63.242188 86.984375 C 63.296875 86.773438 63.394531 86.609375 63.527344 86.484375 C 63.664062 86.363281 63.808594 86.300781 63.96875 86.304688 C 64.171875 86.308594 64.34375 86.417969 64.480469 86.628906 C 64.613281 86.84375 64.695312 87.167969 64.726562 87.605469 C 64.777344 87.449219 64.828125 87.328125 64.878906 87.246094 C 64.984375 87.074219 65.113281 86.910156 65.273438 86.753906 L 66.078125 85.980469 L 66.058594 86.738281 L 65.445312 87.328125 C 65.265625 87.5 65.132812 87.644531 65.035156 87.753906 C 64.941406 87.867188 64.875 87.96875 64.835938 88.058594 C 64.796875 88.148438 64.769531 88.238281 64.753906 88.332031 C 64.742188 88.398438 64.734375 88.511719 64.734375 88.664062 L 64.71875 89.367188 L 66 89.394531 Z M 64.386719 89.359375 L 64.414062 88.0625 C 64.421875 87.785156 64.410156 87.570312 64.375 87.414062 C 64.34375 87.257812 64.289062 87.136719 64.210938 87.054688 C 64.132812 86.972656 64.046875 86.929688 63.953125 86.925781 C 63.816406 86.925781 63.703125 87 63.609375 87.15625 C 63.519531 87.308594 63.46875 87.554688 63.460938 87.894531 L 63.429688 89.335938 Z M 64.386719 89.359375 "/>
<path style=" stroke:none;fill-rule:nonzero;fill:rgb(81.568627%,81.568627%,81.568627%);fill-opacity:1;" d="M 72.414062 76.648438 L 72.433594 73.269531 L 72.992188 72.933594 L 76.078125 74.457031 L 75.488281 74.808594 L 74.582031 74.332031 L 72.945312 75.3125 L 72.960938 76.320312 Z M 72.933594 74.953125 L 74.261719 74.160156 L 73.441406 73.71875 C 73.191406 73.585938 72.996094 73.46875 72.855469 73.371094 C 72.902344 73.558594 72.925781 73.757812 72.925781 73.96875 Z M 72.933594 74.953125 "/>
<path style=" stroke:none;fill-rule:nonzero;fill:rgb(81.568627%,81.568627%,81.568627%);fill-opacity:1;" d="M 86.886719 74.050781 L 90.007812 72.746094 L 90.53125 73.128906 L 90.339844 76.566406 L 89.785156 76.160156 L 89.867188 75.140625 L 88.328125 74.015625 L 87.40625 74.429688 Z M 88.652344 73.867188 L 89.902344 74.777344 L 89.988281 73.851562 C 90.011719 73.570312 90.042969 73.34375 90.078125 73.175781 C 89.921875 73.292969 89.746094 73.390625 89.554688 73.476562 Z M 88.652344 73.867188 "/>
<path style=" stroke:none;fill-rule:nonzero;fill:rgb(81.568627%,81.568627%,81.568627%);fill-opacity:1;" d="M 96.375 84.625 L 99.1875 83.949219 L 99.65625 85.917969 C 99.753906 86.3125 99.796875 86.621094 99.796875 86.839844 C 99.796875 87.058594 99.746094 87.242188 99.648438 87.394531 C 99.550781 87.550781 99.421875 87.644531 99.269531 87.683594 C 99.070312 87.730469 98.878906 87.667969 98.691406 87.496094 C 98.507812 87.324219 98.34375 87.03125 98.203125 86.613281 C 98.195312 86.78125 98.175781 86.910156 98.148438 87.003906 C 98.089844 87.199219 98.003906 87.390625 97.894531 87.578125 L 97.3125 88.535156 L 97.136719 87.796875 L 97.578125 87.070312 C 97.707031 86.855469 97.800781 86.683594 97.867188 86.550781 C 97.929688 86.421875 97.96875 86.304688 97.980469 86.207031 C 97.996094 86.113281 98 86.019531 97.992188 85.921875 C 97.984375 85.855469 97.964844 85.746094 97.929688 85.59375 L 97.765625 84.914062 L 96.515625 85.210938 Z M 98.085938 84.835938 L 98.390625 86.097656 C 98.453125 86.367188 98.519531 86.570312 98.589844 86.714844 C 98.664062 86.855469 98.746094 86.957031 98.84375 87.019531 C 98.941406 87.078125 99.035156 87.097656 99.125 87.078125 C 99.257812 87.042969 99.347656 86.941406 99.398438 86.769531 C 99.445312 86.597656 99.429688 86.347656 99.351562 86.015625 L 99.015625 84.613281 Z M 98.085938 84.835938 "/>
</g>
</svg>
