<?xml version="1.0" encoding="UTF-8"?>
<svg xmlns="http://www.w3.org/2000/svg" xmlns:xlink="http://www.w3.org/1999/xlink" width="384pt" height="384pt" viewBox="0 0 384 384" version="1.1">
<g id="surface1">
<rect x="0" y="0" width="384" height="384" style="fill:rgb(17.647059%,61.176471%,29.411765%);fill-opacity:1;stroke:none;"/>
<path style=" stroke:none;fill-rule:evenodd;fill:rgb(100%,100%,100%);fill-opacity:1;" d="M 244.328125 107.84375 C 144.710938 136.410156 158.902344 266.691406 252.277344 276.636719 C 104.386719 304.964844 83.339844 93.105469 244.328125 107.84375 Z M 244.328125 107.84375 "/>
<path style=" stroke:none;fill-rule:evenodd;fill:rgb(71.764706%,7.843137%,0.392157%);fill-opacity:1;" d="M 0 -0.0976562 L 384 -0.0976562 L 384 53.152344 L 0 53.152344 Z M 0 -0.0976562 "/>
<path style=" stroke:none;fill-rule:evenodd;fill:rgb(71.764706%,7.843137%,0.392157%);fill-opacity:1;" d="M 0 327.808594 L 384 327.808594 L 384 383.996094 L 0 383.996094 Z M 0 327.808594 "/>
<path style=" stroke:none;fill-rule:evenodd;fill:rgb(71.764706%,7.843137%,0.392157%);fill-opacity:1;" d="M 0 9.140625 L 53.761719 9.140625 L 53.761719 374.859375 L 0 374.859375 Z M 0 9.140625 "/>
<path style=" stroke:none;fill-rule:evenodd;fill:rgb(71.764706%,7.843137%,0.392157%);fill-opacity:1;" d="M 330.238281 9.140625 L 384 9.140625 L 384 374.859375 L 330.238281 374.859375 Z M 330.238281 9.140625 "/>
</g>
</svg>
