<?xml version="1.0" encoding="UTF-8"?>
<svg xmlns="http://www.w3.org/2000/svg" xmlns:xlink="http://www.w3.org/1999/xlink" width="384pt" height="384pt" viewBox="0 0 384 384" version="1.1">
<g id="surface1">
<rect x="0" y="0" width="384" height="384" style="fill:rgb(95.686275%,7.843137%,3.137255%);fill-opacity:1;stroke:none;"/>
<path style=" stroke:none;fill-rule:evenodd;fill:rgb(12.941176%,52.941176%,23.137255%);fill-opacity:1;" d="M -97.378906 256 L 478.625 256 L 478.625 384 L -97.378906 384 Z M -97.378906 256 "/>
<path style=" stroke:none;fill-rule:evenodd;fill:rgb(0%,0%,0%);fill-opacity:1;" d="M -97.378906 0 L 478.625 0 L 478.625 128 L -97.378906 128 Z M -97.378906 0 "/>
<path style=" stroke:none;fill-rule:evenodd;fill:rgb(95.294118%,8.235294%,3.529412%);fill-opacity:1;" d="M 120.132812 115.980469 C 136.863281 75.234375 183.511719 55.746094 224.257812 72.476562 C 244.777344 80.902344 259.3125 95.429688 267.746094 115.949219 Z M 120.132812 115.980469 "/>
<path style=" stroke:none;fill-rule:evenodd;fill:rgb(95.294118%,8.235294%,3.529412%);fill-opacity:1;" d="M 100.65625 121.246094 C 83.066406 119.9375 64.375 115.90625 61.328125 114.792969 C 58.277344 113.683594 58.160156 111.828125 58.535156 110.410156 C 58.910156 108.988281 60.859375 107.375 63.128906 107.976562 C 67.390625 109.105469 84.722656 113.6875 100.65625 121.246094 Z M 100.65625 121.246094 "/>
<path style=" stroke:none;fill-rule:evenodd;fill:rgb(95.294118%,8.235294%,3.529412%);fill-opacity:1;" d="M 194.132812 50.1875 C 190.976562 32.835938 190.179688 13.730469 190.488281 10.5 C 190.796875 7.269531 192.5625 6.691406 194.03125 6.695312 C 195.5 6.703125 197.550781 8.183594 197.542969 10.53125 C 197.523438 14.941406 197.441406 32.867188 194.132812 50.191406 Z M 194.132812 50.1875 "/>
<path style=" stroke:none;fill-rule:evenodd;fill:rgb(95.294118%,8.235294%,3.529412%);fill-opacity:1;" d="M 202.789062 50.589844 C 201.128906 33.03125 201.972656 13.929688 202.558594 10.738281 C 203.140625 7.542969 204.949219 7.117188 206.414062 7.25 C 207.875 7.382812 209.792969 9.03125 209.582031 11.371094 C 209.183594 15.761719 207.570312 33.617188 202.789062 50.59375 Z M 202.789062 50.589844 "/>
<path style=" stroke:none;fill-rule:evenodd;fill:rgb(95.294118%,8.235294%,3.529412%);fill-opacity:1;" d="M 210.628906 51.65625 C 210.421875 34.019531 212.835938 15.050781 213.679688 11.917969 C 214.523438 8.785156 216.363281 8.507812 217.808594 8.757812 C 219.257812 9.011719 221.03125 10.8125 220.625 13.128906 C 219.871094 17.472656 216.792969 35.128906 210.628906 51.65625 Z M 210.628906 51.65625 "/>
<path style=" stroke:none;fill-rule:evenodd;fill:rgb(95.294118%,8.235294%,3.529412%);fill-opacity:1;" d="M 218.890625 53.503906 C 220.234375 35.917969 224.308594 17.234375 225.421875 14.1875 C 226.539062 11.140625 228.394531 11.027344 229.816406 11.402344 C 231.234375 11.78125 232.84375 13.734375 232.238281 16.003906 C 231.101562 20.261719 226.484375 37.582031 218.890625 53.503906 Z M 218.890625 53.503906 "/>
<path style=" stroke:none;fill-rule:evenodd;fill:rgb(95.294118%,8.235294%,3.529412%);fill-opacity:1;" d="M 227.019531 56.09375 C 229.921875 38.695312 235.636719 20.449219 237.019531 17.511719 C 238.402344 14.578125 240.257812 14.628906 241.640625 15.132812 C 243.019531 15.632812 244.449219 17.71875 243.644531 19.929688 C 242.136719 24.070312 235.996094 40.910156 227.019531 56.09375 Z M 227.019531 56.09375 "/>
<path style=" stroke:none;fill-rule:evenodd;fill:rgb(95.294118%,8.235294%,3.529412%);fill-opacity:1;" d="M 234.609375 59.261719 C 238.988281 42.175781 246.242188 24.484375 247.871094 21.679688 C 249.5 18.871094 251.34375 19.082031 252.675781 19.699219 C 254.011719 20.320312 255.257812 22.519531 254.265625 24.652344 C 252.40625 28.648438 244.851562 44.902344 234.609375 59.261719 Z M 234.609375 59.261719 "/>
<path style=" stroke:none;fill-rule:evenodd;fill:rgb(95.294118%,8.235294%,3.529412%);fill-opacity:1;" d="M 242.070312 63.171875 C 247.929688 46.535156 256.703125 29.546875 258.570312 26.890625 C 260.4375 24.238281 262.261719 24.609375 263.535156 25.34375 C 264.804688 26.078125 265.855469 28.378906 264.679688 30.414062 C 262.480469 34.234375 253.53125 49.765625 242.070312 63.171875 Z M 242.070312 63.171875 "/>
<path style=" stroke:none;fill-rule:evenodd;fill:rgb(95.294118%,8.235294%,3.529412%);fill-opacity:1;" d="M 249.132812 67.695312 C 256.417969 51.632812 266.640625 35.472656 268.730469 32.992188 C 270.824219 30.511719 272.605469 31.039062 273.808594 31.878906 C 275.015625 32.722656 275.859375 35.105469 274.511719 37.03125 C 271.984375 40.644531 261.714844 55.335938 249.132812 67.695312 Z M 249.132812 67.695312 "/>
<path style=" stroke:none;fill-rule:evenodd;fill:rgb(95.294118%,8.235294%,3.529412%);fill-opacity:1;" d="M 255.777344 72.820312 C 264.433594 57.453125 276.027344 42.25 278.328125 39.960938 C 280.628906 37.671875 282.359375 38.351562 283.484375 39.296875 C 284.613281 40.238281 285.246094 42.6875 283.734375 44.488281 C 280.902344 47.867188 269.390625 61.609375 255.777344 72.820312 Z M 255.777344 72.820312 "/>
<path style=" stroke:none;fill-rule:evenodd;fill:rgb(95.294118%,8.235294%,3.529412%);fill-opacity:1;" d="M 261.96875 78.519531 C 271.9375 63.96875 284.816406 49.835938 287.308594 47.757812 C 289.800781 45.679688 291.464844 46.511719 292.503906 47.546875 C 293.542969 48.585938 293.957031 51.082031 292.296875 52.742188 C 289.179688 55.859375 276.507812 68.539062 261.96875 78.519531 Z M 261.96875 78.519531 "/>
<path style=" stroke:none;fill-rule:evenodd;fill:rgb(95.294118%,8.235294%,3.529412%);fill-opacity:1;" d="M 267.644531 84.765625 C 278.851562 71.144531 292.921875 58.195312 295.585938 56.34375 C 298.25 54.492188 299.835938 55.464844 300.777344 56.589844 C 301.722656 57.71875 301.917969 60.238281 300.117188 61.746094 C 296.742188 64.582031 283.007812 76.101562 267.644531 84.765625 Z M 267.644531 84.765625 "/>
<path style=" stroke:none;fill-rule:evenodd;fill:rgb(95.294118%,8.235294%,3.529412%);fill-opacity:1;" d="M 272.535156 91.164062 C 284.84375 78.53125 299.949219 66.804688 302.757812 65.179688 C 305.570312 63.558594 307.066406 64.660156 307.914062 65.863281 C 308.757812 67.0625 308.742188 69.589844 306.820312 70.945312 C 303.21875 73.484375 288.570312 83.816406 272.535156 91.164062 Z M 272.535156 91.164062 "/>
<path style=" stroke:none;fill-rule:evenodd;fill:rgb(95.294118%,8.235294%,3.529412%);fill-opacity:1;" d="M 276.960938 98.097656 C 290.304688 86.5625 306.355469 76.171875 309.296875 74.796875 C 312.234375 73.421875 313.632812 74.648438 314.371094 75.917969 C 315.113281 77.1875 314.882812 79.703125 312.851562 80.886719 C 309.042969 83.109375 293.5625 92.148438 276.960938 98.097656 Z M 276.960938 98.097656 "/>
<path style=" stroke:none;fill-rule:evenodd;fill:rgb(95.294118%,8.235294%,3.529412%);fill-opacity:1;" d="M 281.066406 106.003906 C 295.417969 95.757812 312.363281 86.898438 315.417969 85.800781 C 318.472656 84.699219 319.75 86.050781 320.367188 87.382812 C 320.988281 88.714844 320.523438 91.199219 318.394531 92.191406 C 314.398438 94.054688 298.148438 101.617188 281.0625 106.003906 Z M 281.066406 106.003906 "/>
<path style=" stroke:none;fill-rule:evenodd;fill:rgb(95.294118%,8.235294%,3.529412%);fill-opacity:1;" d="M 284.195312 113.636719 C 299.375 104.65625 317.015625 97.285156 320.152344 96.453125 C 323.289062 95.621094 324.445312 97.074219 324.949219 98.453125 C 325.453125 99.835938 324.777344 102.269531 322.570312 103.078125 C 318.429688 104.585938 301.589844 110.730469 284.191406 113.636719 Z M 284.195312 113.636719 "/>
<path style=" stroke:none;fill-rule:evenodd;fill:rgb(95.294118%,8.235294%,3.529412%);fill-opacity:1;" d="M 286.71875 121.726562 C 302.632812 114.121094 320.855469 108.328125 324.054688 107.777344 C 327.253906 107.226562 328.277344 108.777344 328.65625 110.195312 C 329.035156 111.613281 328.148438 113.980469 325.878906 114.589844 C 321.621094 115.730469 304.304688 120.367188 286.71875 121.726562 Z M 286.71875 121.726562 "/>
<path style=" stroke:none;fill-rule:evenodd;fill:rgb(95.294118%,8.235294%,3.529412%);fill-opacity:1;" d="M 185.667969 50.515625 C 180.917969 33.53125 178.359375 14.582031 178.367188 11.335938 C 178.375 8.089844 180.078125 7.351562 181.542969 7.21875 C 183.007812 7.089844 185.183594 8.375 185.390625 10.714844 C 185.78125 15.105469 187.359375 32.960938 185.667969 50.515625 Z M 185.667969 50.515625 "/>
<path style=" stroke:none;fill-rule:evenodd;fill:rgb(95.294118%,8.235294%,3.529412%);fill-opacity:1;" d="M 177.339844 51.59375 C 171.128906 35.085938 166.921875 16.433594 166.648438 13.199219 C 166.371094 9.964844 168.007812 9.078125 169.453125 8.820312 C 170.898438 8.566406 173.179688 9.652344 173.59375 11.964844 C 174.363281 16.308594 177.496094 33.957031 177.339844 51.59375 Z M 177.339844 51.59375 "/>
<path style=" stroke:none;fill-rule:evenodd;fill:rgb(95.294118%,8.235294%,3.529412%);fill-opacity:1;" d="M 169.0625 53.414062 C 161.421875 37.519531 155.589844 19.308594 155.03125 16.109375 C 154.472656 12.914062 156.019531 11.886719 157.4375 11.503906 C 158.855469 11.121094 161.226562 12.003906 161.839844 14.273438 C 162.988281 18.527344 167.664062 35.832031 169.0625 53.414062 Z M 169.0625 53.414062 "/>
<path style=" stroke:none;fill-rule:evenodd;fill:rgb(95.294118%,8.235294%,3.529412%);fill-opacity:1;" d="M 161.269531 55.847656 C 152.304688 40.660156 144.949219 23.011719 144.117188 19.871094 C 143.289062 16.734375 144.746094 15.578125 146.125 15.078125 C 147.507812 14.574219 149.941406 15.253906 150.746094 17.460938 C 152.253906 21.605469 158.382812 38.449219 161.269531 55.847656 Z M 161.269531 55.847656 "/>
<path style=" stroke:none;fill-rule:evenodd;fill:rgb(95.294118%,8.235294%,3.529412%);fill-opacity:1;" d="M 153.644531 58.96875 C 143.410156 44.605469 134.570312 27.652344 133.476562 24.59375 C 132.382812 21.539062 133.734375 20.265625 135.066406 19.644531 C 136.398438 19.027344 138.882812 19.492188 139.871094 21.625 C 141.730469 25.625 149.277344 41.882812 153.644531 58.96875 Z M 153.644531 58.96875 "/>
<path style=" stroke:none;fill-rule:evenodd;fill:rgb(95.294118%,8.235294%,3.529412%);fill-opacity:1;" d="M 145.945312 62.945312 C 134.460938 49.558594 124.128906 33.46875 122.761719 30.527344 C 121.398438 27.582031 122.628906 26.1875 123.898438 25.453125 C 125.171875 24.714844 127.6875 24.957031 128.867188 26.992188 C 131.074219 30.808594 140.054688 46.320312 145.945312 62.945312 Z M 145.945312 62.945312 "/>
<path style=" stroke:none;fill-rule:evenodd;fill:rgb(95.294118%,8.235294%,3.529412%);fill-opacity:1;" d="M 138.929688 67.386719 C 126.335938 55.042969 114.652344 39.902344 113.035156 37.089844 C 111.421875 34.273438 112.527344 32.78125 113.730469 31.9375 C 114.9375 31.09375 117.464844 31.117188 118.8125 33.042969 C 121.34375 36.652344 131.628906 51.332031 138.933594 67.386719 Z M 138.929688 67.386719 "/>
<path style=" stroke:none;fill-rule:evenodd;fill:rgb(95.294118%,8.235294%,3.529412%);fill-opacity:1;" d="M 132.363281 72.328125 C 118.757812 61.101562 105.828125 47.019531 103.980469 44.351562 C 102.128906 41.683594 103.105469 40.101562 104.230469 39.15625 C 105.359375 38.214844 107.878906 38.023438 109.386719 39.824219 C 112.214844 43.207031 123.71875 56.953125 132.363281 72.328125 Z M 132.363281 72.328125 "/>
<path style=" stroke:none;fill-rule:evenodd;fill:rgb(95.294118%,8.235294%,3.529412%);fill-opacity:1;" d="M 125.976562 78.074219 C 111.425781 68.105469 97.289062 55.230469 95.210938 52.738281 C 93.132812 50.246094 93.960938 48.582031 95 47.542969 C 96.039062 46.503906 98.53125 46.085938 100.195312 47.75 C 103.3125 50.863281 115.996094 63.53125 125.976562 78.074219 Z M 125.976562 78.074219 "/>
<path style=" stroke:none;fill-rule:evenodd;fill:rgb(95.294118%,8.235294%,3.529412%);fill-opacity:1;" d="M 120.464844 83.964844 C 105.132812 75.253906 89.964844 63.609375 87.683594 61.300781 C 85.402344 58.988281 86.09375 57.261719 87.039062 56.140625 C 87.988281 55.019531 90.4375 54.394531 92.234375 55.910156 C 95.601562 58.753906 109.300781 70.3125 120.46875 83.964844 Z M 120.464844 83.964844 "/>
<path style=" stroke:none;fill-rule:evenodd;fill:rgb(95.294118%,8.235294%,3.529412%);fill-opacity:1;" d="M 115.183594 90.703125 C 99.132812 83.390625 82.992188 73.136719 80.515625 71.042969 C 78.039062 68.945312 78.570312 67.164062 79.414062 65.960938 C 80.257812 64.757812 82.644531 63.917969 84.566406 65.269531 C 88.175781 67.800781 102.847656 78.097656 115.183594 90.703125 Z M 115.183594 90.703125 "/>
<path style=" stroke:none;fill-rule:evenodd;fill:rgb(95.294118%,8.235294%,3.529412%);fill-opacity:1;" d="M 110.453125 98 C 93.808594 92.164062 76.808594 83.410156 74.152344 81.546875 C 71.496094 79.683594 71.863281 77.859375 72.597656 76.585938 C 73.328125 75.3125 75.628906 74.261719 77.667969 75.433594 C 81.488281 77.628906 97.03125 86.558594 110.453125 98 Z M 110.453125 98 "/>
<path style=" stroke:none;fill-rule:evenodd;fill:rgb(95.294118%,8.235294%,3.529412%);fill-opacity:1;" d="M 106.527344 105.414062 C 89.4375 101.050781 71.738281 93.816406 68.929688 92.1875 C 66.121094 90.5625 66.328125 88.714844 66.949219 87.382812 C 67.566406 86.050781 69.765625 84.800781 71.898438 85.789062 C 75.894531 87.644531 92.15625 95.1875 106.527344 105.414062 Z M 106.527344 105.414062 "/>
<path style=" stroke:none;fill-rule:evenodd;fill:rgb(95.294118%,8.235294%,3.529412%);fill-opacity:1;" d="M 103.375 112.847656 C 85.980469 109.933594 67.738281 104.207031 64.804688 102.820312 C 61.867188 101.433594 61.921875 99.578125 62.425781 98.195312 C 62.929688 96.816406 65.015625 95.390625 67.226562 96.195312 C 71.363281 97.710938 88.203125 103.863281 103.375 112.851562 Z M 103.375 112.847656 "/>
<path style=" stroke:none;fill-rule:evenodd;fill:rgb(95.294118%,8.235294%,3.529412%);fill-opacity:1;" d="M 100.65625 121.246094 C 83.066406 119.9375 64.375 115.90625 61.328125 114.792969 C 58.277344 113.683594 58.160156 111.828125 58.535156 110.410156 C 58.910156 108.988281 60.859375 107.375 63.128906 107.976562 C 67.390625 109.105469 84.722656 113.6875 100.65625 121.246094 Z M 100.65625 121.246094 "/>
<path style=" stroke:none;fill-rule:evenodd;fill:rgb(0%,0%,0%);fill-opacity:1;" d="M 51.8125 116.359375 L 337.734375 116.359375 L 337.734375 126.75 L 51.8125 126.75 Z M 51.8125 116.359375 "/>
</g>
</svg>
