<?xml version="1.0" encoding="UTF-8"?>
<svg xmlns="http://www.w3.org/2000/svg" xmlns:xlink="http://www.w3.org/1999/xlink" width="384pt" height="384pt" viewBox="0 0 384 384" version="1.1">
<g id="surface1">
<rect x="0" y="0" width="384" height="384" style="fill:rgb(90.980392%,0%,3.137255%);fill-opacity:1;stroke:none;"/>
<path style=" stroke:none;fill-rule:evenodd;fill:rgb(100%,100%,100%);fill-opacity:1;" d="M 0 27.429688 L 384 27.429688 L 384 54.859375 L 0 54.859375 Z M 0 27.429688 "/>
<path style=" stroke:none;fill-rule:evenodd;fill:rgb(100%,100%,100%);fill-opacity:1;" d="M 0 82.289062 L 384 82.289062 L 384 109.71875 L 0 109.71875 Z M 0 82.289062 "/>
<path style=" stroke:none;fill-rule:evenodd;fill:rgb(100%,100%,100%);fill-opacity:1;" d="M 0 137.144531 L 384 137.144531 L 384 164.574219 L 0 164.574219 Z M 0 137.144531 "/>
<path style=" stroke:none;fill-rule:evenodd;fill:rgb(100%,100%,100%);fill-opacity:1;" d="M 0 192.003906 L 384 192.003906 L 384 219.433594 L 0 219.433594 Z M 0 192.003906 "/>
<path style=" stroke:none;fill-rule:evenodd;fill:rgb(100%,100%,100%);fill-opacity:1;" d="M 0 246.863281 L 384 246.863281 L 384 274.289062 L 0 274.289062 Z M 0 246.863281 "/>
<path style=" stroke:none;fill-rule:evenodd;fill:rgb(100%,100%,100%);fill-opacity:1;" d="M 0 301.71875 L 384 301.71875 L 384 329.148438 L 0 329.148438 Z M 0 301.71875 "/>
<path style=" stroke:none;fill-rule:evenodd;fill:rgb(100%,100%,100%);fill-opacity:1;" d="M 0 356.578125 L 384 356.578125 L 384 384.007812 L 0 384.007812 Z M 0 356.578125 "/>
<path style=" stroke:none;fill-rule:evenodd;fill:rgb(0%,2.352941%,53.72549%);fill-opacity:1;" d="M -0.722656 -0.5 L 195.667969 -0.5 L 195.667969 112.761719 L -0.722656 112.761719 Z M -0.722656 -0.5 "/>
<path style=" stroke:none;fill-rule:evenodd;fill:rgb(100%,93.333333%,0%);fill-opacity:1;" d="M 98.980469 95.765625 C 77.851562 107.523438 51.433594 99.582031 40.015625 78.285156 C 28.597656 56.988281 36.480469 30.363281 57.613281 18.855469 C 70.679688 11.738281 85.027344 11.597656 98.066406 18.597656 C 90.707031 16.828125 84.136719 16.921875 77 19.042969 C 56.207031 25.21875 44.253906 47.417969 50.316406 68.597656 C 56.382812 89.773438 78.183594 101.945312 98.976562 95.765625 Z M 98.980469 95.765625 "/>
<path style=" stroke:none;fill-rule:evenodd;fill:rgb(100%,93.333333%,0%);fill-opacity:1;" d="M 91.703125 29.59375 L 113.738281 42.742188 L 106.347656 18.171875 L 120.488281 39.578125 L 124.492188 14.234375 L 127.945312 39.660156 L 142.550781 18.5625 L 134.628906 42.96875 L 156.941406 30.292969 L 139.214844 48.847656 L 164.820312 47.109375 L 140.796875 56.136719 L 164.617188 65.675781 L 139.0625 63.386719 L 156.382812 82.316406 L 134.351562 69.167969 L 141.742188 93.738281 L 127.597656 72.332031 L 123.59375 97.671875 L 120.140625 72.246094 L 105.539062 93.351562 L 113.457031 68.941406 L 91.144531 81.617188 L 108.871094 63.0625 L 83.269531 64.800781 L 107.289062 55.773438 L 83.46875 46.234375 L 109.027344 48.523438 Z M 91.703125 29.59375 "/>
</g>
</svg>
