<?xml version="1.0" encoding="UTF-8"?>
<svg xmlns="http://www.w3.org/2000/svg" xmlns:xlink="http://www.w3.org/1999/xlink" width="384pt" height="384pt" viewBox="0 0 384 384" version="1.1">
<g id="surface1">
<rect x="0" y="0" width="384" height="384" style="fill:rgb(100%,100%,100%);fill-opacity:1;stroke:none;"/>
<path style=" stroke:none;fill-rule:evenodd;fill:rgb(21.176471%,38.431373%,63.529412%);fill-opacity:1;" d="M -81.179688 0.179688 L -80.535156 276.613281 L 349.949219 0 Z M -81.179688 0.179688 "/>
<path style=" stroke:none;fill-rule:evenodd;fill:rgb(21.960784%,63.137255%,0%);fill-opacity:1;" d="M 473.015625 383.648438 L 472.007812 96.210938 L 37.773438 383.863281 L 473.019531 383.652344 Z M 473.015625 383.648438 "/>
<path style=" stroke:none;fill-rule:evenodd;fill:rgb(78.039216%,0%,0%);fill-opacity:1;" d="M -80.902344 297.457031 L -80.535156 384 L 13.402344 383.878906 L 472.222656 76.273438 L 471.703125 1.035156 L 378.882812 0.179688 Z M -80.902344 297.457031 "/>
<path style=" stroke:none;fill-rule:evenodd;fill:rgb(100%,90.588235%,0%);fill-opacity:1;" d="M 115.5625 137.542969 L 98.175781 127.042969 L 88.117188 144.726562 L 78.328125 126.929688 L 60.785156 137.234375 L 61.214844 116.910156 L 40.882812 117.070312 L 51.417969 99.664062 L 33.75 89.636719 L 51.566406 79.816406 L 41.296875 62.289062 L 61.621094 62.679688 L 61.5 42.351562 L 78.890625 52.851562 L 88.949219 35.167969 L 98.738281 52.964844 L 116.28125 42.660156 L 115.851562 62.984375 L 136.179688 62.824219 L 125.648438 80.230469 L 143.3125 90.257812 L 125.496094 100.078125 L 135.769531 117.605469 L 115.445312 117.214844 Z M 115.5625 137.542969 "/>
<path style=" stroke:none;fill-rule:evenodd;fill:rgb(21.176471%,38.431373%,63.529412%);fill-opacity:1;" d="M 125.824219 89.949219 C 125.824219 110.386719 109.128906 126.953125 88.535156 126.953125 C 67.941406 126.953125 51.242188 110.386719 51.242188 89.949219 C 51.242188 69.515625 67.941406 52.949219 88.535156 52.949219 C 109.128906 52.949219 125.824219 69.515625 125.824219 89.949219 Z M 125.824219 89.949219 "/>
<path style=" stroke:none;fill-rule:evenodd;fill:rgb(100%,90.588235%,0%);fill-opacity:1;" d="M 117.730469 89.949219 C 117.730469 106.074219 104.660156 119.144531 88.535156 119.144531 C 72.410156 119.144531 59.339844 106.074219 59.339844 89.949219 C 59.339844 73.824219 72.410156 60.753906 88.535156 60.753906 C 104.660156 60.753906 117.730469 73.824219 117.730469 89.949219 Z M 117.730469 89.949219 "/>
</g>
</svg>
