<?xml version="1.0" encoding="UTF-8"?>
<svg xmlns="http://www.w3.org/2000/svg" xmlns:xlink="http://www.w3.org/1999/xlink" width="384pt" height="384pt" viewBox="0 0 384 384" version="1.1">
<g id="surface1">
<path style=" stroke:none;fill-rule:evenodd;fill:rgb(100%,100%,100%);fill-opacity:1;" d="M 116.875 0 L 267.140625 0 L 267.140625 384 L 116.875 384 Z M 116.875 0 "/>
<path style=" stroke:none;fill-rule:evenodd;fill:rgb(9.803922%,50.980392%,0%);fill-opacity:1;" d="M 0 0 L 116.871094 0 L 116.871094 384 L 0 384 Z M 0 0 "/>
<path style=" stroke:none;fill-rule:evenodd;fill:rgb(9.803922%,50.980392%,0%);fill-opacity:1;" d="M 267.140625 0 L 384 0 L 384 384 L 267.140625 384 Z M 267.140625 0 "/>
<path style="fill-rule:evenodd;fill:rgb(9.803922%,50.980392%,0%);fill-opacity:1;stroke-width:1.2902;stroke-linecap:round;stroke-linejoin:round;stroke:rgb(0%,0%,0%);stroke-opacity:1;stroke-miterlimit:4;" d="M 239.223888 396.408808 L 239.223888 467.727437 C 248.830219 467.827032 258.436549 467.926626 268.04288 468.02622 C 268.04288 468.02622 258.834927 405.915544 263.887078 397.594886 C 268.939229 389.283283 273.692597 390.469361 273.692597 390.469361 C 273.692597 390.469361 292.407287 396.110025 294.489715 395.222729 C 296.572143 394.32638 294.190931 388.08815 304.295234 388.984499 C 307.56374 387.789367 305.780096 382.148703 308.749819 381.84992 C 311.728596 381.551137 369.076851 397.893669 381.55331 382.447487 C 378.284804 373.828046 366.994423 381.84992 364.024699 382.148703 C 361.353759 382.148703 350.054324 376.797769 343.517311 382.148703 C 337.577865 377.694118 310.533464 374.715341 310.533464 374.715341 C 306.966174 371.148052 375.016297 376.498986 378.88237 373.828046 C 386.904245 365.806171 364.024699 366.693467 360.45741 369.373461 C 354.119586 365.507388 346.170143 365.806171 341.317181 368.477111 C 338.990294 362.90888 316.871288 365.308199 304.594017 363.723743 C 300.664566 361.414965 301.334565 360.111184 303.996451 358.671592 C 329.655585 359.758076 355.178908 363.089961 380.964798 361.940099 C 387.92735 352.858902 372.182384 349.454585 362.539838 357.18673 C 356.872012 347.870129 345.300956 356.887947 337.577865 356.000652 C 329.854773 355.104302 333.422063 345.597566 343.218528 347.082428 C 353.033102 348.56729 370.561712 346.484862 373.830219 342.030277 C 377.098725 337.575692 371.883601 333.048674 355.704042 337.276909 C 350.226351 331.925974 338.175431 337.276909 332.525713 339.060553 C 325.010865 334.868535 307.56374 338.462987 301.624294 339.947849 C 295.80255 336.335289 332.22693 330.441113 332.22693 330.441113 C 346.287846 330.196654 354.21918 327.770172 358.673765 326.584094 C 379.932638 315.185064 358.374982 313.971824 347.220411 322.256265 C 340.294075 316.851007 333.711792 322.718021 327.473562 324.800449 C 321.235332 326.873823 309.347385 328.367739 309.347385 327.471389 C 309.347385 326.584094 326.287484 316.181008 326.287484 316.181008 C 326.287484 316.181008 347.084601 314.696147 351.249457 314.09858 C 355.405259 313.501014 376.700348 302.581848 347.682167 309.942779 C 337.577865 310.830074 331.638418 310.232508 327.772345 310.531291 C 305.372664 308.213458 329.854773 306.076706 329.854773 306.076706 C 329.854773 306.076706 361.571056 303.161307 361.942271 301.622121 C 362.567 289.25431 336.093003 295.085108 335.79422 295.085108 C 335.875706 286.24837 311.13103 295.374837 311.13103 295.085108 C 306.404824 292.296465 313.80197 289.43539 313.80197 289.43539 C 320.338983 287.850934 330.11734 287.389179 332.670578 285.306751 C 332.670578 285.306751 351.131754 285.12567 353.322831 280.227437 C 348.795813 267.73287 314.263726 282.445676 309.646168 284.682022 C 303.407939 284.682022 313.80197 274.57772 314.100753 274.278937 C 314.399536 273.980154 342.630016 272.794075 356.002825 254.667898 C 356.926336 243.640084 340.248805 260.906128 340.248805 260.906128 C 339.008402 246.600753 322.122628 261.802477 312.317109 262.988556 C 302.511589 264.174634 302.22186 258.533971 309.048602 257.637621 C 315.884398 256.750326 323.607489 257.347892 327.473562 246.944807 C 331.339635 236.541721 342.928799 247.542373 345.011227 243.6763 C 347.084601 239.810227 340.846371 236.541721 340.846371 236.541721 C 340.846371 236.541721 349.465812 227.632551 335.495437 227.92228 C 321.534116 228.221063 303.407939 226.147689 303.407939 226.147689 C 303.407939 226.147689 317.966826 220.497972 331.638418 220.796755 C 345.300956 221.086484 337.876648 210.991236 324.802622 210.991236 C 311.728596 210.991236 304.8928 206.527597 304.8928 206.527597 C 312.317109 203.757062 319.750471 200.986528 327.174779 198.206939 C 326.685861 196.133565 326.187889 194.051137 325.689917 191.968709 C 325.689917 191.968709 338.763943 181.565624 320.338983 183.946835 C 301.923077 186.328046 299.840649 186.617775 299.840649 186.617775 C 299.840649 186.617775 262.990729 192.267492 262.701 192.267492 C 262.402216 192.267492 252.596697 189.297769 262.103433 186.916558 C 271.610169 184.544401 305.191583 177.708605 310.243735 179.49225 C 315.295886 181.275895 309.646168 167.006736 291.818774 165.223091 C 273.991381 163.439447 262.990729 169.68673 262.990729 169.68673 C 262.990729 169.68673 251.401565 165.521875 262.103433 161.954585 C 272.796248 158.396349 289.736347 163.149718 289.736347 163.149718 C 289.736347 163.149718 308.758873 157.5 293.004853 155.127843 C 277.259887 152.746632 272.289222 157.255541 265.073157 157.5 C 262.193974 153.905548 289.799725 153.045415 291.519991 150.075692 C 288.604592 144.724757 271.510575 150.075692 261.505867 150.075692 C 257.250471 148.264885 256.97885 145.340432 261.80465 143.529625 C 272.008547 143.140301 281.587715 143.737868 291.791612 143.33949 C 291.492829 137.888961 291.818774 131.451543 291.519991 126.001014 C 278.581776 123.637911 263.39816 127.712227 256.127771 127.359119 C 258.074388 121.419673 286.033246 119.889541 289.13878 118.277923 C 295.612415 110.19267 261.80465 118.277923 261.505867 118.277923 C 255.611691 117.408735 255.99196 113.678473 259.722222 111.442127 C 268.341663 110.455237 287.662973 112.691583 286.196219 106.851731 C 285.082573 101.37404 272.796248 104.307547 267.744097 105.50268 C 262.701 106.688759 255.267637 105.792409 255.267637 105.792409 C 252.035347 101.437419 284.385412 103.212009 284.095683 99.852962 C 283.670143 95.995944 263.588295 98.666884 256.752499 98.965667 C 251.410619 95.280675 282.402579 92.84514 282.90055 92.4196 C 284.023251 82.541649 262.103433 92.4196 257.938577 92.4196 C 253.782776 92.4196 255.865204 86.18137 255.865204 86.18137 C 255.865204 86.18137 264.47559 82.324352 264.185861 81.726785 C 263.887078 81.129219 257.648848 79.055845 257.051282 79.055845 C 256.453716 79.055845 257.051282 72.220049 257.051282 72.220049 C 257.051282 72.220049 264.185861 66.869115 263.588295 65.384253 C 262.990729 63.899392 255.267637 66.570332 255.267637 66.570332 L 255.267637 60.630885 C 255.267637 60.630885 260.917355 60.033319 261.505867 57.362379 C 262.103433 54.682384 254.670071 54.392655 254.670071 54.392655 C 253.683181 43.98957 252.696291 33.586484 251.700348 23.183399 C 250.813052 32.898378 249.916703 42.604302 249.029408 52.310227 C 245.760901 52.808199 242.492395 53.297117 239.223888 53.795089 C 239.223888 53.795089 246.059684 57.661162 247.245763 61.518181 C 248.431841 65.384253 238.925105 64.198175 238.925105 64.198175 C 238.925105 64.198175 246.648196 70.735188 247.245763 73.107345 C 247.843329 75.488556 236.543894 76.077068 236.543894 76.077068 C 236.543894 76.077068 246.059684 82.912864 246.648196 86.778937 C 247.245763 90.645009 246.648196 92.718383 246.648196 92.718383 C 246.648196 92.718383 230.90323 79.055845 220.798928 82.912864 C 215.547588 85.656236 232.822686 86.923801 244.276039 96.883239 C 244.248877 99.101478 216.4711 90.119875 215.447994 95.688107 C 216.09083 97.245401 245.109011 101.410256 247.245763 105.203897 C 236.643488 105.59322 214.723671 102.886064 215.447994 106.389975 C 213.238809 110.437129 236.15457 108.137404 245.760901 111.442127 C 248.576706 114.638201 248.277923 117.345357 243.37969 117.680356 C 234.126467 113.252934 213.41989 109.948211 213.365566 115.597928 C 213.492322 117.109952 234.769303 116.132116 242.492395 121.247646 C 232.188903 123.592641 197.249384 116.47617 197.032087 119.943865 C 198.028031 121.555483 203.560046 128.671954 213.075837 128.382225 C 222.582573 128.083442 244.565769 132.239244 246.059684 135.208967 C 247.544546 138.187744 217.530422 128.970737 206.240041 134.321672 C 194.94966 139.672606 238.626322 136.4041 245.760901 142.941113 C 252.886426 149.478125 231.491743 142.343546 231.491743 142.343546 C 231.491743 142.343546 201.776402 138.187744 197.321817 140.261118 C 192.867232 142.343546 187.81508 147.096914 187.81508 147.096914 C 187.81508 147.096914 190.784804 153.045415 193.754527 151.850282 C 196.72425 150.664204 192.867232 155.417572 192.867232 155.417572 C 192.867232 155.417572 234.47052 165.521875 243.678473 174.440099 C 252.886426 183.349268 190.784804 160.469723 190.784804 160.469723 C 190.784804 160.469723 165.822831 169.68673 192.269665 170.275243 C 189.22751 174.729828 193.754527 177.409822 193.754527 177.409822 C 193.754527 177.409822 237.739027 186.617775 242.193611 193.752354 C 246.648196 200.886933 212.179487 186.916558 204.456396 183.059539 C 196.72425 179.193467 174.741055 185.431696 175.039838 186.916558 C 175.329567 188.40142 185.732652 190.483848 186.031436 193.154788 C 186.330219 195.834782 173.256193 196.722077 173.256193 199.103288 C 173.256193 201.475445 228.820803 213.06461 243.678473 225.550123 C 258.536144 238.026583 199.992757 210.692453 199.992757 210.692453 C 199.992757 210.692453 203.261263 215.147038 199.992757 216.333116 C 196.72425 217.528249 185.135086 199.691801 166.121614 210.692453 C 162.653919 215.210416 182.708605 218.813921 187.81508 219.311893 C 186.067652 223.784586 184.546574 225.25134 191.672099 229.705925 C 198.806678 234.169564 177.710778 223.168912 177.710778 223.766478 C 177.710778 224.364045 179.19564 231.48957 179.19564 231.48957 C 172.613357 226.138635 164.663914 224.527017 157.20339 230.004708 C 157.20339 230.004708 156.913661 235.355642 164.636752 238.624149 C 160.417572 247.24359 169.39012 244.563596 183.650225 252.58547 C 162.45473 247.053455 160.770679 257.347892 175.927133 259.720049 C 191.083587 262.10126 232.686875 263.586122 242.492395 276.361365 C 252.297914 289.136607 228.558236 271.463132 225.851079 271.01043 C 225.253513 271.309213 224.655947 277.547443 224.655947 277.547443 C 218.318123 273.880559 212.47827 270.584891 204.900043 269.027597 C 204.302477 270.222729 204.456396 271.90678 203.858829 273.092858 C 196.977763 268.131247 190.974938 264.663552 180.979284 264.174634 C 180.580907 265.768144 180.182529 267.343546 179.793206 268.937056 C 179.793206 268.937056 171.472548 258.533971 155.130016 268.937056 C 146.003549 275.474069 189.598725 271.309213 196.72425 279.032305 C 203.858829 286.76445 198.209112 287.950529 198.209112 287.950529 C 192.269665 285.768506 186.330219 283.595538 180.381718 281.413516 C 180.381718 281.413516 159.285818 277.547443 153.346371 282.300811 C 147.39787 287.063233 240.111184 298.652398 242.782124 311.42764 C 244.592931 318.353977 220.998117 304.148196 200.590323 298.054831 C 199.802622 300.327394 199.005867 302.609011 198.209112 304.890627 C 198.209112 304.890627 190.105751 296.75105 180.979284 295.374837 C 180.680501 295.374837 182.762929 303.405766 182.762929 303.405766 C 182.762929 303.405766 159.883384 292.703897 148.29422 298.353614 C 136.705056 303.994278 188.702376 306.964001 193.455744 312.314936 C 198.218166 317.66587 177.710778 308.747646 175.927133 312.314936 C 174.143488 315.882225 148.882732 305.777923 149.181515 310.531291 C 149.480298 315.284659 152.748805 317.964653 152.748805 317.964653 C 152.748805 317.964653 205.343691 323.016804 207.127336 329.255034 C 208.910981 335.493264 178.009561 325.687744 178.009561 325.687744 C 178.009561 325.687744 175.039838 330.142329 177.411995 332.224757 C 179.793206 334.307185 159.584601 320.33681 161.368246 329.553817 C 154.813125 326.946255 137.891134 318.851948 140.272345 325.090178 C 142.644502 331.337462 188.113864 340.246632 188.113864 340.246632 C 188.113864 340.246632 168.204042 341.731494 169.091337 346.783645 C 143.486528 331.183543 144.129364 341.142981 144.72693 341.441764 C 145.324497 341.731494 111.743083 333.121107 137.003839 346.783645 C 162.255541 360.455237 150.675431 358.074026 150.96516 358.372809 C 151.263943 358.671592 153.645154 365.208605 153.047588 365.208605 C 152.450022 365.208605 135.81776 356.299435 130.168043 355.701869 C 124.518325 355.104302 97.781762 363.126177 126.30197 375.611691 C 154.831233 388.08815 172.368898 372.641967 188.113864 374.425612 C 203.858829 376.209257 211.292192 378.880197 209.80733 383.932348 C 208.322468 388.984499 193.718311 367.381573 178.34456 386.0691 C 160.86122 382.610459 149.000435 380.600464 158.027307 393.448138 C 129.470882 382.782486 112.041866 396.707591 147.995437 402.357308 C 183.333333 403.398522 205.053962 393.737868 205.053962 393.737868 C 205.053962 393.737868 210.993409 404.729465 219.612849 397.006374 C 228.23229 389.283283 228.522019 399.976097 228.820803 399.976097 C 229.119586 399.976097 237.14146 396.408808 237.14146 396.408808 Z M 239.223888 396.408808 " transform="matrix(0.431438,0,0,0.431438,79.0125,78.24)"/>
<path style="fill-rule:evenodd;fill:rgb(100%,100%,100%);fill-opacity:1;stroke-width:1.290125;stroke-linecap:round;stroke-linejoin:round;stroke:rgb(0%,0%,0%);stroke-opacity:1;stroke-miterlimit:4;" d="M 242.700637 354.217007 L 242.700637 349.246342 C 242.700637 349.246342 231.473635 347.254455 226.004998 348.368101 C 222.763653 346.512024 219.694336 344.067434 215.819209 346.131754 C 215.076778 347.752426 222.917572 351.980661 225.525134 351.980661 C 228.585398 353.918224 242.700637 354.47052 242.700637 354.217007 Z M 242.700637 354.217007 " transform="matrix(0.431438,0,0,0.431438,79.0125,78.24)"/>
<path style="fill-rule:evenodd;fill:rgb(100%,100%,100%);fill-opacity:1;stroke-width:1.290125;stroke-linecap:round;stroke-linejoin:round;stroke:rgb(0%,0%,0%);stroke-opacity:1;stroke-miterlimit:4;" d="M 242.573881 362.311314 C 242.573881 362.311314 231.346878 358.209836 226.865131 362.936042 C 227.598508 367.961031 240.084021 370.396567 242.691583 369.029408 C 245.308199 367.662248 242.691583 362.555773 242.573881 362.311314 Z M 242.573881 362.311314 " transform="matrix(0.431438,0,0,0.431438,79.0125,78.24)"/>
<path style="fill-rule:evenodd;fill:rgb(100%,100%,100%);fill-opacity:1;stroke-width:1.290125;stroke-linecap:round;stroke-linejoin:round;stroke:rgb(0%,0%,0%);stroke-opacity:1;stroke-miterlimit:4;" d="M 261.487759 364.303202 L 261.487759 367.789005 C 261.487759 367.789005 274.923946 370.396567 277.296103 367.535492 C 279.659206 364.674417 266.594234 362.809286 261.487759 364.303202 Z M 261.487759 364.303202 " transform="matrix(0.431438,0,0,0.431438,79.0125,78.24)"/>
<path style="fill-rule:evenodd;fill:rgb(100%,100%,100%);fill-opacity:1;stroke-width:1.290125;stroke-linecap:round;stroke-linejoin:round;stroke:rgb(0%,0%,0%);stroke-opacity:1;stroke-miterlimit:4;" d="M 260.872085 350.423367 L 261.361002 354.352818 C 261.361002 354.352818 272.932059 356.96038 277.413806 350.622555 C 281.895553 344.275677 267.246125 350.667826 260.872085 350.423367 Z M 260.872085 350.423367 " transform="matrix(0.431438,0,0,0.431438,79.0125,78.24)"/>
<path style="fill-rule:evenodd;fill:rgb(100%,100%,100%);fill-opacity:1;stroke-width:1.290125;stroke-linecap:round;stroke-linejoin:round;stroke:rgb(0%,0%,0%);stroke-opacity:1;stroke-miterlimit:4;" d="M 261.487759 336.932855 L 261.487759 339.540417 C 261.487759 339.540417 270.19774 340.907576 272.189628 337.177314 C 274.181515 333.447052 261.741272 337.177314 261.487759 336.932855 Z M 261.487759 336.932855 " transform="matrix(0.431438,0,0,0.431438,79.0125,78.24)"/>
<path style="fill-rule:evenodd;fill:rgb(100%,100%,100%);fill-opacity:1;stroke-width:1.290125;stroke-linecap:round;stroke-linejoin:round;stroke:rgb(0%,0%,0%);stroke-opacity:1;stroke-miterlimit:4;" d="M 243.28915 328.892873 C 241.949153 326.982471 237.222947 322.247211 224.52919 320.870998 C 215.710561 320.843836 240.464291 333.854484 243.28915 328.892873 Z M 243.28915 328.892873 " transform="matrix(0.431438,0,0,0.431438,79.0125,78.24)"/>
<path style="fill-rule:evenodd;fill:rgb(100%,100%,100%);fill-opacity:1;stroke-width:1.290125;stroke-linecap:round;stroke-linejoin:round;stroke:rgb(0%,0%,0%);stroke-opacity:1;stroke-miterlimit:4;" d="M 261.2433 315.64682 C 261.2433 315.64682 260.745328 319.25938 260.863031 319.25938 C 260.989787 319.25938 290.73229 310.422642 297.694843 311.047371 C 303.924019 309.281834 305.164421 304.944951 304.910908 304.944951 C 299.605244 301.078879 273.928002 308.059539 261.2433 315.64682 Z M 261.2433 315.64682 " transform="matrix(0.431438,0,0,0.431438,79.0125,78.24)"/>
<path style="fill-rule:evenodd;fill:rgb(100%,100%,100%);fill-opacity:1;stroke-width:1.290125;stroke-linecap:round;stroke-linejoin:round;stroke:rgb(0%,0%,0%);stroke-opacity:1;stroke-miterlimit:4;" d="M 261.858974 305.071708 C 261.732218 305.696436 261.487759 308.557511 261.487759 308.557511 C 261.487759 308.557511 282.511227 304.44698 288.115674 300.463204 C 293.711068 296.488483 262.112487 305.198464 261.858974 305.071708 Z M 261.858974 305.071708 " transform="matrix(0.431438,0,0,0.431438,79.0125,78.24)"/>
<path style="fill-rule:evenodd;fill:rgb(100%,100%,100%);fill-opacity:1;stroke-width:1.290125;stroke-linecap:round;stroke-linejoin:round;stroke:rgb(0%,0%,0%);stroke-opacity:1;stroke-miterlimit:4;" d="M 260.989787 294.750109 L 260.989787 298.25402 C 260.989787 298.25402 275.02354 297.82848 277.911777 294.994568 C 279.758801 292.169709 265.543966 294.59619 260.989787 294.750109 Z M 260.989787 294.750109 " transform="matrix(0.431438,0,0,0.431438,79.0125,78.24)"/>
<path style="fill-rule:evenodd;fill:rgb(100%,100%,100%);fill-opacity:1;stroke-width:1.290125;stroke-linecap:round;stroke-linejoin:round;stroke:rgb(0%,0%,0%);stroke-opacity:1;stroke-miterlimit:4;" d="M 290.279589 324.211937 C 290.279589 324.211937 297.568086 325.225989 298.935246 323.116399 C 298.672679 319.358974 290.279589 324.329639 290.279589 324.211937 Z M 290.279589 324.211937 " transform="matrix(0.431438,0,0,0.431438,79.0125,78.24)"/>
<path style="fill-rule:evenodd;fill:rgb(100%,100%,100%);fill-opacity:1;stroke-width:1.290125;stroke-linecap:round;stroke-linejoin:round;stroke:rgb(0%,0%,0%);stroke-opacity:1;stroke-miterlimit:4;" d="M 261.614515 281.676083 C 261.487759 282.300811 261.732218 289.39012 261.732218 289.39012 C 261.732218 289.39012 295.458496 278.697306 297.568086 276.705418 C 299.68673 274.71353 304.37672 268.71976 261.605461 281.676083 Z M 261.614515 281.676083 " transform="matrix(0.431438,0,0,0.431438,79.0125,78.24)"/>
<path style="fill-rule:evenodd;fill:rgb(100%,100%,100%);fill-opacity:1;stroke-width:1.290125;stroke-linecap:round;stroke-linejoin:round;stroke:rgb(0%,0%,0%);stroke-opacity:1;stroke-miterlimit:4;" d="M 260.609518 270.983268 L 260.609518 276.578661 C 260.609518 276.578661 274.172461 275.582718 280.392583 270.485296 C 286.612705 265.378821 260.609518 271.100971 260.609518 270.983268 Z M 260.609518 270.983268 " transform="matrix(0.431438,0,0,0.431438,79.0125,78.24)"/>
<path style="fill-rule:evenodd;fill:rgb(100%,100%,100%);fill-opacity:1;stroke-width:1.290125;stroke-linecap:round;stroke-linejoin:round;stroke:rgb(0%,0%,0%);stroke-opacity:1;stroke-miterlimit:4;" d="M 244.312256 258.289512 L 245.181443 263.395987 C 245.181443 263.395987 200.508837 248.954802 200.635593 248.954802 C 200.76235 248.954802 198.381139 241.602926 244.312256 258.289512 Z M 244.312256 258.289512 " transform="matrix(0.431438,0,0,0.431438,79.0125,78.24)"/>
<path style="fill-rule:evenodd;fill:rgb(100%,100%,100%);fill-opacity:1;stroke-width:1.290125;stroke-linecap:round;stroke-linejoin:round;stroke:rgb(0%,0%,0%);stroke-opacity:1;stroke-miterlimit:4;" d="M 245.06374 240.371578 C 244.936984 240.869549 244.936984 245.22454 244.810227 245.097784 C 244.683471 244.971027 213.827321 232.159568 212.704621 233.273215 C 208.612198 223.675938 245.06374 240.616037 245.06374 240.371578 Z M 245.06374 240.371578 " transform="matrix(0.431438,0,0,0.431438,79.0125,78.24)"/>
<path style="fill-rule:evenodd;fill:rgb(100%,100%,100%);fill-opacity:1;stroke-width:1.290125;stroke-linecap:round;stroke-linejoin:round;stroke:rgb(0%,0%,0%);stroke-opacity:1;stroke-miterlimit:4;" d="M 260.1206 248.330074 C 260.1206 248.45683 260.618572 252.685064 260.618572 252.685064 C 260.618572 252.685064 279.53245 248.701289 280.65515 246.836158 C 281.768796 244.971027 260.1206 248.45683 260.1206 248.330074 Z M 260.1206 248.330074 " transform="matrix(0.431438,0,0,0.431438,79.0125,78.24)"/>
<path style="fill-rule:evenodd;fill:rgb(100%,100%,100%);fill-opacity:1;stroke-width:1.290125;stroke-linecap:round;stroke-linejoin:round;stroke:rgb(0%,0%,0%);stroke-opacity:1;stroke-miterlimit:4;" d="M 260.564247 258.407214 C 260.736274 259.47559 261.107489 262.888961 261.107489 262.888961 C 261.107489 262.888961 268.69477 262.264233 269.817471 260.525858 C 270.940171 258.787484 260.564247 258.533971 260.564247 258.407214 Z M 260.564247 258.407214 " transform="matrix(0.431438,0,0,0.431438,79.0125,78.24)"/>
<path style="fill-rule:evenodd;fill:rgb(100%,100%,100%);fill-opacity:1;stroke-width:1.290125;stroke-linecap:round;stroke-linejoin:round;stroke:rgb(0%,0%,0%);stroke-opacity:1;stroke-miterlimit:4;" d="M 259.369115 235.391859 C 259.369115 235.763074 259.495871 239.620093 259.495871 239.620093 C 259.495871 239.620093 280.27488 235.518615 282.511227 233.526728 C 284.756628 231.53484 258.997899 235.391859 259.369115 235.391859 Z M 259.369115 235.391859 " transform="matrix(0.431438,0,0,0.431438,79.0125,78.24)"/>
<path style="fill-rule:evenodd;fill:rgb(100%,100%,100%);fill-opacity:1;stroke-width:1.290125;stroke-linecap:round;stroke-linejoin:round;stroke:rgb(0%,0%,0%);stroke-opacity:1;stroke-miterlimit:4;" d="M 259.486817 223.938505 C 259.486817 224.192018 258.744386 228.166739 259.242358 228.166739 C 259.74033 228.166739 284.503115 223.938505 288.360133 220.452702 C 292.217152 216.975952 259.867087 224.30972 259.486817 223.938505 Z M 259.486817 223.938505 " transform="matrix(0.431438,0,0,0.431438,79.0125,78.24)"/>
<path style="fill-rule:evenodd;fill:rgb(100%,100%,100%);fill-opacity:1;stroke-width:1.290125;stroke-linecap:round;stroke-linejoin:round;stroke:rgb(0%,0%,0%);stroke-opacity:1;stroke-miterlimit:4;" d="M 259.115602 203.793278 L 259.115602 208.148269 C 259.115602 208.148269 275.168405 204.789222 278.156236 201.421121 C 281.144068 198.062074 259.115602 204.037737 259.115602 203.793278 Z M 259.115602 203.793278 " transform="matrix(0.431438,0,0,0.431438,79.0125,78.24)"/>
<path style="fill-rule:evenodd;fill:rgb(100%,100%,100%);fill-opacity:1;stroke-width:1.290125;stroke-linecap:round;stroke-linejoin:round;stroke:rgb(0%,0%,0%);stroke-opacity:1;stroke-miterlimit:4;" d="M 256.381283 174.42199 L 256.752499 181.013328 C 256.752499 181.013328 278.282993 178.025496 281.388527 174.42199 C 284.503115 170.809431 256.254527 174.42199 256.381283 174.42199 Z M 256.381283 174.42199 " transform="matrix(0.431438,0,0,0.431438,79.0125,78.24)"/>
<path style="fill-rule:evenodd;fill:rgb(100%,100%,100%);fill-opacity:1;stroke-width:1.290125;stroke-linecap:round;stroke-linejoin:round;stroke:rgb(0%,0%,0%);stroke-opacity:1;stroke-miterlimit:4;" d="M 246.4309 125.023178 L 246.4309 129.124656 C 246.4309 129.124656 236.227003 128.626684 238.716862 126.888309 C 241.206722 125.140881 246.4309 125.394394 246.4309 125.023178 Z M 246.4309 125.023178 " transform="matrix(0.431438,0,0,0.431438,79.0125,78.24)"/>
<path style="fill-rule:evenodd;fill:rgb(100%,100%,100%);fill-opacity:1;stroke-width:1.290125;stroke-linecap:round;stroke-linejoin:round;stroke:rgb(0%,0%,0%);stroke-opacity:1;stroke-miterlimit:4;" d="M 255.892366 130.500869 L 256.136825 136.096262 C 256.136825 136.096262 269.328553 134.85586 270.324497 132.737216 C 271.32044 130.627626 256.136825 130.500869 255.892366 130.500869 Z M 255.892366 130.500869 " transform="matrix(0.431438,0,0,0.431438,79.0125,78.24)"/>
<path style="fill-rule:evenodd;fill:rgb(100%,100%,100%);fill-opacity:1;stroke-width:1.290125;stroke-linecap:round;stroke-linejoin:round;stroke:rgb(0%,0%,0%);stroke-opacity:1;stroke-miterlimit:4;" d="M 255.140881 138.586122 C 255.140881 138.586122 255.38534 142.071925 255.638853 142.071925 C 255.883312 142.071925 260.863031 141.70071 261.985731 140.333551 C 263.099377 138.966391 255.638853 138.839635 255.140881 138.586122 Z M 255.140881 138.586122 " transform="matrix(0.431438,0,0,0.431438,79.0125,78.24)"/>
<path style="fill-rule:evenodd;fill:rgb(100%,100%,100%);fill-opacity:1;stroke-width:1.290125;stroke-linecap:round;stroke-linejoin:round;stroke:rgb(0%,0%,0%);stroke-opacity:1;stroke-miterlimit:4;" d="M 243.94104 154.512169 C 243.94104 154.883384 244.312256 159.863103 244.067797 159.736347 C 243.814284 159.60959 215.194481 151.397581 212.586919 151.524337 C 209.970303 151.651094 209.218818 144.933 243.94104 154.512169 Z M 243.94104 154.512169 " transform="matrix(0.431438,0,0,0.431438,79.0125,78.24)"/>
<path style="fill-rule:evenodd;fill:rgb(100%,100%,100%);fill-opacity:1;stroke-width:1.290125;stroke-linecap:round;stroke-linejoin:round;stroke:rgb(0%,0%,0%);stroke-opacity:1;stroke-miterlimit:4;" d="M 246.304143 163.846878 C 246.304143 164.842822 246.919817 170.076054 245.923874 169.822541 C 244.92793 169.578082 226.512024 163.729176 228.386209 161.981747 C 230.25134 160.243372 246.304143 164.227148 246.304143 163.846878 Z M 246.304143 163.846878 " transform="matrix(0.431438,0,0,0.431438,79.0125,78.24)"/>
<path style="fill-rule:evenodd;fill:rgb(100%,100%,100%);fill-opacity:1;stroke-width:1.290125;stroke-linecap:round;stroke-linejoin:round;stroke:rgb(0%,0%,0%);stroke-opacity:1;stroke-miterlimit:4;" d="M 244.692525 203.159496 L 244.810227 207.885702 C 244.810227 207.885702 212.713675 198.179777 211.590975 196.568159 C 210.468275 194.947487 207.362741 187.360206 244.692525 203.159496 Z M 244.692525 203.159496 " transform="matrix(0.431438,0,0,0.431438,79.0125,78.24)"/>
<path style="fill-rule:evenodd;fill:rgb(100%,100%,100%);fill-opacity:1;stroke-width:1.290125;stroke-linecap:round;stroke-linejoin:round;stroke:rgb(0%,0%,0%);stroke-opacity:1;stroke-miterlimit:4;" d="M 245.932928 214.739606 C 245.932928 214.866362 246.177387 219.221353 246.05063 219.221353 C 245.932928 219.221353 202.383022 203.910981 202.383022 203.910981 C 202.383022 203.910981 198.897219 192.466681 245.932928 214.739606 Z M 245.932928 214.739606 " transform="matrix(0.431438,0,0,0.431438,79.0125,78.24)"/>
<path style="fill-rule:evenodd;fill:rgb(100%,100%,100%);fill-opacity:1;stroke-width:1.290125;stroke-linecap:butt;stroke-linejoin:round;stroke:rgb(0%,0%,0%);stroke-opacity:1;stroke-miterlimit:4;" d="M 194.171013 365.769955 C 194.171013 365.91482 194.017094 370.532377 194.017094 370.532377 C 194.017094 370.532377 185.533464 368.151166 182.85347 363.388744 C 187.76981 362.048747 194.315877 365.91482 194.171013 365.769955 Z M 194.171013 365.769955 " transform="matrix(0.431438,0,0,0.431438,79.0125,78.24)"/>
</g>
</svg>
