<?xml version="1.0" encoding="UTF-8"?>
<svg xmlns="http://www.w3.org/2000/svg" xmlns:xlink="http://www.w3.org/1999/xlink" width="384pt" height="384pt" viewBox="0 0 384 384" version="1.1">
<defs>
<clipPath id="clip1">
  <path d="M 0 255 L 383.984375 255 L 383.984375 383.988281 L 0 383.988281 Z M 0 255 "/>
</clipPath>
<clipPath id="clip2">
  <path d="M 0 0 L 383.984375 0 L 383.984375 129 L 0 129 Z M 0 0 "/>
</clipPath>
<clipPath id="clip3">
  <path d="M 0 128 L 383.984375 128 L 383.984375 256 L 0 256 Z M 0 128 "/>
</clipPath>
</defs>
<g id="surface1">
<g clip-path="url(#clip1)" clip-rule="nonzero">
<path style=" stroke:none;fill-rule:evenodd;fill:rgb(32.54902%,52.941176%,95.686275%);fill-opacity:1;" d="M -127.5 255.082031 L 511.570312 255.082031 L 511.570312 383.996094 L -127.5 383.996094 Z M -127.5 255.082031 "/>
</g>
<g clip-path="url(#clip2)" clip-rule="nonzero">
<path style=" stroke:none;fill-rule:evenodd;fill:rgb(32.54902%,52.941176%,95.686275%);fill-opacity:1;" d="M -127.5 0 L 511.570312 0 L 511.570312 128.914062 L -127.5 128.914062 Z M -127.5 0 "/>
</g>
<g clip-path="url(#clip3)" clip-rule="nonzero">
<path style=" stroke:none;fill-rule:evenodd;fill:rgb(100%,100%,100%);fill-opacity:1;" d="M -127.5 128.914062 L 511.570312 128.914062 L 511.570312 255.082031 L -127.5 255.082031 Z M -127.5 128.914062 "/>
</g>
<path style=" stroke:none;fill-rule:evenodd;fill:rgb(100%,82.352941%,0%);fill-opacity:1;" d="M 154.875 214.503906 L 191.726562 150.992188 L 228.574219 214.503906 Z M 154.875 214.503906 "/>
<path style=" stroke:none;fill-rule:evenodd;fill:rgb(0%,100%,100%);fill-opacity:1;" d="M 158.589844 212.792969 L 191.796875 155.242188 L 225.003906 212.792969 Z M 158.589844 212.792969 "/>
<path style="fill:none;stroke-width:1.25;stroke-linecap:butt;stroke-linejoin:miter;stroke:rgb(100%,82.352941%,0%);stroke-opacity:1;stroke-miterlimit:4;" d="M 462.729278 556.66766 L 461.541363 448.342744 " transform="matrix(0.187435,0,0,0.187551,105.471685,78.498973)"/>
<path style="fill:none;stroke-width:1.25;stroke-linecap:butt;stroke-linejoin:miter;stroke:rgb(100%,82.352941%,0%);stroke-opacity:1;stroke-miterlimit:4;" d="M 468.627171 563.728253 L 507.47407 509.576209 " transform="matrix(0.187435,0,0,0.187551,105.471685,78.498973)"/>
<path style="fill:none;stroke-width:1.25;stroke-linecap:butt;stroke-linejoin:miter;stroke:rgb(100%,82.352941%,0%);stroke-opacity:1;stroke-miterlimit:4;" d="M 474.504223 569.601667 L 536.901014 543.712824 " transform="matrix(0.187435,0,0,0.187551,105.471685,78.498973)"/>
<path style="fill:none;stroke-width:1.25;stroke-linecap:butt;stroke-linejoin:miter;stroke:rgb(100%,82.352941%,0%);stroke-opacity:1;stroke-miterlimit:4;" d="M 479.214201 577.870267 L 552.218863 580.223799 " transform="matrix(0.187435,0,0,0.187551,105.471685,78.498973)"/>
<path style="fill:none;stroke-width:1.25;stroke-linecap:butt;stroke-linejoin:miter;stroke:rgb(100%,82.352941%,0%);stroke-opacity:1;stroke-miterlimit:4;" d="M 474.504223 587.284422 L 516.894027 624.961748 " transform="matrix(0.187435,0,0,0.187551,105.471685,78.498967)"/>
<path style="fill:none;stroke-width:1.25;stroke-linecap:butt;stroke-linejoin:miter;stroke:rgb(100%,82.352941%,0%);stroke-opacity:1;stroke-miterlimit:4;" d="M 462.729278 583.743681 L 462.729278 617.880297 " transform="matrix(0.187435,0,0,0.187551,105.471685,78.498973)"/>
<path style="fill:none;stroke-width:1.25;stroke-linecap:butt;stroke-linejoin:miter;stroke:rgb(100%,82.352941%,0%);stroke-opacity:1;stroke-miterlimit:4;" d="M 449.787258 575.495909 L 394.434594 623.774538 " transform="matrix(0.187435,0,0,0.187551,105.471685,78.498973)"/>
<path style="fill:none;stroke-width:1.25;stroke-linecap:butt;stroke-linejoin:miter;stroke:rgb(100%,82.352941%,0%);stroke-opacity:1;stroke-miterlimit:4;" d="M 455.66431 579.036619 L 430.947345 624.94089 " transform="matrix(0.187435,0,0,0.187551,105.471685,78.498973)"/>
<path style="fill:none;stroke-width:1.25;stroke-linecap:butt;stroke-linejoin:miter;stroke:rgb(100%,82.352941%,0%);stroke-opacity:1;stroke-miterlimit:4;" d="M 446.244354 569.601667 L 354.39978 601.405579 " transform="matrix(0.187435,0,0,0.187551,105.471685,78.498973)"/>
<path style="fill:none;stroke-width:1.25;stroke-linecap:butt;stroke-linejoin:miter;stroke:rgb(100%,82.352941%,0%);stroke-opacity:1;stroke-miterlimit:4;" d="M 445.07728 564.894605 L 380.30466 562.541073 " transform="matrix(0.187435,0,0,0.187551,105.471685,78.498973)"/>
<path style="fill:none;stroke-width:1.25;stroke-linecap:butt;stroke-linejoin:miter;stroke:rgb(100%,82.352941%,0%);stroke-opacity:1;stroke-miterlimit:4;" d="M 393.26752 537.818583 L 449.787258 556.66766 " transform="matrix(0.187435,0,0,0.187551,105.471685,78.498973)"/>
<path style="fill:none;stroke-width:1.25;stroke-linecap:butt;stroke-linejoin:miter;stroke:rgb(100%,82.352941%,0%);stroke-opacity:1;stroke-miterlimit:4;" d="M 420.339474 489.539953 L 454.476396 555.48048 " transform="matrix(0.187435,0,0,0.187551,105.471685,78.498973)"/>
<path style=" stroke:none;fill-rule:evenodd;fill:rgb(76.862745%,32.54902%,84.313725%);fill-opacity:1;" d="M 191.808594 179.445312 C 185.167969 179.445312 180.328125 180.664062 176.246094 182.097656 L 177.28125 180.300781 L 179.359375 176.699219 L 180.394531 174.90625 L 181.433594 173.105469 L 182.472656 171.308594 L 183.621094 169.476562 C 185.167969 168.113281 188.488281 167.476562 191.808594 167.476562 C 195.128906 167.476562 198.453125 168.152344 200.113281 169.507812 L 201.152344 171.308594 L 202.1875 173.105469 L 203.226562 174.90625 L 204.265625 176.699219 L 205.300781 178.5 L 206.339844 180.300781 L 207.375 182.097656 C 203.070312 180.664062 198.449219 179.445312 191.808594 179.445312 Z M 191.808594 179.445312 "/>
<path style=" stroke:none;fill-rule:evenodd;fill:rgb(31.372549%,0%,75.686275%);fill-opacity:1;" d="M 191.8125 178.175781 C 185.148438 178.167969 177.703125 180.164062 177.285156 180.300781 L 178.320312 178.5 L 180.398438 174.90625 L 181.433594 173.105469 L 182.472656 171.308594 L 183.621094 169.476562 C 185.171875 168.117188 188.492188 167.480469 191.8125 167.480469 C 195.132812 167.480469 198.453125 168.152344 200.113281 169.511719 L 202.191406 173.105469 L 203.226562 174.90625 L 205.304688 178.5 L 206.339844 180.300781 C 206.339844 180.300781 198.453125 178.175781 191.8125 178.175781 Z M 191.8125 178.175781 "/>
<path style=" stroke:none;fill-rule:evenodd;fill:rgb(0%,32.54902%,84.313725%);fill-opacity:1;" d="M 191.808594 176.738281 C 186.890625 176.71875 178.933594 178.078125 178.375 178.332031 L 179.359375 176.699219 L 180.394531 174.902344 L 182.472656 171.308594 L 183.621094 169.476562 C 185.167969 168.113281 188.488281 167.476562 191.808594 167.476562 C 195.128906 167.476562 198.453125 168.148438 200.113281 169.507812 L 201.152344 171.308594 L 202.1875 173.105469 L 204.265625 176.699219 L 205.300781 178.5 C 205.300781 178.5 198.449219 176.738281 191.808594 176.738281 Z M 191.808594 176.738281 "/>
<path style=" stroke:none;fill-rule:evenodd;fill:rgb(0%,62.352941%,62.352941%);fill-opacity:1;" d="M 191.808594 175.246094 C 185.285156 175.234375 179.863281 176.492188 179.355469 176.699219 L 180.394531 174.902344 L 181.429688 173.101562 L 182.46875 171.304688 L 183.617188 169.472656 C 185.164062 168.113281 188.488281 167.476562 191.804688 167.476562 C 195.128906 167.476562 198.449219 168.148438 200.109375 169.507812 L 201.148438 171.304688 L 202.183594 173.101562 L 203.222656 174.902344 L 204.261719 176.699219 C 204.261719 176.699219 198.449219 175.246094 191.808594 175.246094 Z M 191.808594 175.246094 "/>
<path style=" stroke:none;fill-rule:evenodd;fill:rgb(100%,100%,0%);fill-opacity:1;" d="M 191.808594 173.980469 C 185.136719 173.957031 180.945312 174.816406 180.394531 174.902344 L 182.472656 171.308594 L 183.621094 169.476562 C 185.167969 168.113281 188.488281 167.476562 191.808594 167.476562 C 195.128906 167.476562 198.453125 168.148438 200.113281 169.507812 L 201.152344 171.308594 L 202.1875 173.105469 L 203.226562 174.902344 C 203.226562 174.902344 198.449219 173.980469 191.808594 173.980469 Z M 191.808594 173.980469 "/>
<path style=" stroke:none;fill-rule:evenodd;fill:rgb(100%,33.333333%,0%);fill-opacity:1;" d="M 191.753906 172.320312 C 185.941406 172.195312 181.671875 173.117188 181.429688 173.101562 L 182.46875 171.304688 L 183.617188 169.472656 C 185.167969 168.113281 188.488281 167.476562 191.808594 167.476562 C 195.128906 167.476562 198.449219 168.148438 200.109375 169.507812 L 201.148438 171.304688 L 202.183594 173.101562 C 202.183594 173.101562 198.394531 172.320312 191.753906 172.320312 Z M 191.753906 172.320312 "/>
<path style=" stroke:none;fill-rule:evenodd;fill:rgb(100%,4.313725%,0%);fill-opacity:1;" d="M 191.96875 170.390625 C 186.132812 170.441406 183.113281 171.207031 182.464844 171.308594 L 183.613281 169.476562 C 185.160156 168.117188 188.484375 167.480469 191.804688 167.480469 C 195.125 167.480469 198.445312 168.152344 200.105469 169.507812 L 201.144531 171.308594 C 201.144531 171.308594 198.609375 170.390625 191.96875 170.390625 Z M 191.96875 170.390625 "/>
<path style=" stroke:none;fill-rule:evenodd;fill:rgb(26.27451%,38.823529%,100%);fill-opacity:1;" d="M 158.589844 212.792969 L 167.929688 196.605469 L 215.664062 196.605469 L 225.003906 212.792969 Z M 158.589844 212.792969 "/>
<path style="fill-rule:evenodd;fill:rgb(42.745098%,65.490196%,0%);fill-opacity:1;stroke-width:1.25;stroke-linecap:butt;stroke-linejoin:miter;stroke:rgb(0%,0%,0%);stroke-opacity:1;stroke-miterlimit:4;" d="M 334.682295 674.382153 C 334.682295 674.382153 362.997874 669.383503 381.314649 654.40838 C 399.631425 639.412429 399.631425 614.440006 407.949396 614.440006 C 416.288916 614.440006 417.9482 642.744863 437.92426 652.742163 C 457.900319 662.718636 489.556017 676.04837 489.556017 676.04837 Z M 334.682295 674.382153 " transform="matrix(0.181272,0,0,0.187551,130.491737,77.40592)"/>
<path style=" stroke:none;fill-rule:evenodd;fill:rgb(100%,74.117647%,0%);fill-opacity:1;" d="M 211.6875 201.699219 C 203.539062 197.953125 208.367188 199.824219 205.953125 198.265625 C 204.746094 195.140625 202.933594 192.644531 204.441406 192.644531 C 205.953125 192.644531 206.253906 197.953125 209.875 199.824219 C 213.496094 201.699219 215.007812 202.167969 215.007812 202.167969 Z M 211.6875 201.699219 "/>
<path style="fill-rule:evenodd;fill:rgb(42.745098%,65.490196%,0%);fill-opacity:1;stroke-width:1.25;stroke-linecap:butt;stroke-linejoin:miter;stroke:rgb(0%,0%,0%);stroke-opacity:1;stroke-miterlimit:4;" d="M 334.699877 674.382153 C 334.699877 674.382153 362.993907 669.383503 381.310682 654.40838 C 399.627457 639.412429 399.627457 614.440006 407.945428 614.440006 C 416.284948 614.440006 417.944233 642.744863 437.920292 652.742163 C 457.917901 662.718636 489.552049 676.04837 489.552049 676.04837 L 334.678327 674.382153 Z M 334.699877 674.382153 " transform="matrix(0.181272,0,0,0.187551,123.699487,77.40592)"/>
<path style=" stroke:none;fill-rule:evenodd;fill:rgb(100%,74.117647%,0%);fill-opacity:1;" d="M 204.894531 201.699219 C 196.746094 197.953125 201.574219 199.824219 199.160156 198.265625 C 197.953125 195.140625 196.140625 192.644531 197.648438 192.644531 C 199.160156 192.644531 199.460938 197.953125 203.082031 199.824219 C 206.707031 201.699219 208.214844 202.167969 208.214844 202.167969 Z M 204.894531 201.699219 "/>
<path style="fill-rule:evenodd;fill:rgb(42.745098%,65.490196%,0%);fill-opacity:1;stroke-width:1.25;stroke-linecap:butt;stroke-linejoin:miter;stroke:rgb(0%,0%,0%);stroke-opacity:1;stroke-miterlimit:4;" d="M 334.686909 674.382223 C 334.686909 674.382223 363.002489 669.383573 381.319264 654.387622 C 399.636039 639.412499 399.636039 614.440076 407.95401 614.440076 C 416.271981 614.440076 417.952815 642.744933 437.928874 652.742233 C 457.904934 662.718706 489.539082 676.04844 489.539082 676.04844 Z M 334.686909 674.382223 " transform="matrix(0.181272,0,0,0.187551,116.908869,77.405907)"/>
<path style=" stroke:none;fill-rule:evenodd;fill:rgb(100%,74.117647%,0%);fill-opacity:1;" d="M 198.105469 201.699219 C 189.953125 197.953125 194.785156 199.824219 192.367188 198.265625 C 191.160156 195.140625 189.351562 192.644531 190.859375 192.644531 C 192.367188 192.644531 192.671875 197.953125 196.292969 199.824219 C 199.914062 201.699219 201.425781 202.167969 201.425781 202.167969 Z M 198.105469 201.699219 "/>
<path style="fill-rule:evenodd;fill:rgb(42.745098%,65.490196%,0%);fill-opacity:1;stroke-width:1.25;stroke-linecap:butt;stroke-linejoin:miter;stroke:rgb(0%,0%,0%);stroke-opacity:1;stroke-miterlimit:4;" d="M 334.696089 674.381635 C 334.696089 674.381635 362.99012 669.382985 381.306895 654.407862 C 399.62367 639.411911 399.62367 614.439488 407.96319 614.439488 C 416.281161 614.439488 417.940445 642.744345 437.938054 652.741645 C 457.914114 662.718118 489.548262 676.047852 489.548262 676.047852 Z M 334.696089 674.381635 " transform="matrix(0.181272,0,0,0.187551,109.211892,77.249767)"/>
<path style=" stroke:none;fill-rule:evenodd;fill:rgb(100%,74.117647%,0%);fill-opacity:1;" d="M 190.40625 201.542969 C 182.257812 197.796875 187.085938 199.667969 184.671875 198.109375 C 183.464844 194.984375 181.652344 192.488281 183.164062 192.488281 C 184.671875 192.488281 184.972656 197.796875 188.597656 199.667969 C 192.21875 201.542969 193.726562 202.011719 193.726562 202.011719 Z M 190.40625 201.542969 "/>
<path style="fill-rule:evenodd;fill:rgb(42.745098%,65.490196%,0%);fill-opacity:1;stroke-width:1.25;stroke-linecap:butt;stroke-linejoin:miter;stroke:rgb(0%,0%,0%);stroke-opacity:1;stroke-miterlimit:4;" d="M 334.699941 674.381604 C 334.699941 674.381604 362.993971 669.382954 381.310746 654.407831 C 399.627522 639.411881 399.627522 614.439458 407.945493 614.439458 C 416.285013 614.439458 417.944297 642.744314 437.920357 652.741615 C 457.917965 662.718087 489.552114 676.047821 489.552114 676.047821 L 334.678392 674.381604 Z M 334.699941 674.381604 " transform="matrix(0.181272,0,0,0.187551,103.476819,77.249773)"/>
<path style=" stroke:none;fill-rule:evenodd;fill:rgb(100%,74.117647%,0%);fill-opacity:1;" d="M 184.671875 201.542969 C 176.523438 197.796875 181.351562 199.667969 178.9375 198.109375 C 177.730469 194.984375 175.917969 192.488281 177.425781 192.488281 C 178.9375 192.488281 179.238281 197.796875 182.859375 199.667969 C 186.484375 201.542969 187.992188 202.011719 187.992188 202.011719 Z M 184.671875 201.542969 "/>
<path style="fill-rule:evenodd;fill:rgb(100%,0%,0%);fill-opacity:1;stroke-width:1.25;stroke-linecap:butt;stroke-linejoin:miter;stroke:rgb(0%,0%,0%);stroke-opacity:1;stroke-miterlimit:4;" d="M 438.007756 565.478659 C 438.410677 565.478659 438.75161 563.605054 439.774408 561.970633 C 442.005969 560.336211 444.330512 559.100429 447.429903 558.422743 C 449.103574 557.5856 452.512903 557.824784 455.085397 557.824784 C 458.68069 558.143695 458.928641 559.698388 460.974239 561.970633 C 461.873062 563.804373 464.011642 566.355665 465.096428 569.026549 C 466.274197 570.46165 467.204014 572.654167 468.040849 574.328452 C 468.877685 576.122329 469.807502 578.833076 470.98527 581.384368 C 471.574154 584.214707 472.163039 586.407224 472.163039 589.636202 C 472.163039 592.984772 471.605148 594.419874 470.98527 596.692118 C 469.187624 597.290077 465.685313 597.569125 463.91866 596.692118 C 462.028032 594.977969 458.742678 596.094159 457.440934 594.340146 C 454.062598 593.861779 453.225763 589.875386 451.552092 587.842325 C 450.374324 586.128176 450.405318 584.812666 449.196555 583.138381 C 447.336921 581.822871 447.08897 580.18845 446.252134 577.836478 C 446.995988 575.32505 448.266738 574.766955 450.374324 573.730493 C 451.490104 572.096072 452.140976 571.418385 452.140976 568.42859 C 451.707062 565.119883 450.529293 565.438795 447.429903 564.920564 C 443.617653 564.920564 441.665037 565.279339 438.007756 565.478659 Z M 438.007756 565.478659 " transform="matrix(0.126033,0,0,0.0979896,134.683355,128.897578)"/>
<path style="fill:none;stroke-width:1.25;stroke-linecap:butt;stroke-linejoin:miter;stroke:rgb(0%,100%,100%);stroke-opacity:1;stroke-miterlimit:4;" d="M 314.383531 690.889877 L 315.562837 690.889877 C 312.376642 690.889877 313.990429 690.817073 320.259371 692.069299 C 325.70073 692.709972 330.811055 693.24872 336.748964 693.24872 " transform="matrix(0.188803,0,0,0.268272,103.284136,21.016579)"/>
<path style="fill:none;stroke-width:1.25;stroke-linecap:butt;stroke-linejoin:miter;stroke:rgb(0%,100%,100%);stroke-opacity:1;stroke-miterlimit:4;" d="M 308.487001 708.552077 L 308.487001 707.372656 C 308.487001 711.056528 308.176658 708.79961 314.383531 703.834392 C 319.638684 702.931625 322.121433 704.780841 328.514512 705.013813 C 331.886913 706.717422 338.031718 706.164113 341.466188 705.013813 C 343.204112 704.271214 343.245492 703.41213 344.983416 702.669531 " transform="matrix(0.188803,0,0,0.268272,103.284136,21.016579)"/>
<path style="fill:none;stroke-width:1.25;stroke-linecap:butt;stroke-linejoin:miter;stroke:rgb(0%,100%,100%);stroke-opacity:1;stroke-miterlimit:4;" d="M 321.438677 710.91092 L 321.438677 709.731499 C 322.224881 710.051836 326.69383 709.731499 329.673129 709.731499 C 335.838623 709.731499 340.597226 709.440284 343.80411 712.090342 L 346.162722 712.090342 " transform="matrix(0.188803,0,0,0.268272,103.284136,21.016579)"/>
<path style="fill:none;stroke-width:1.25;stroke-linecap:butt;stroke-linejoin:miter;stroke:rgb(0%,100%,100%);stroke-opacity:1;stroke-miterlimit:4;" d="M 366.190233 686.186752 L 372.066073 686.186752 C 375.810886 684.934527 381.272935 684.934527 385.017748 686.186752 C 386.507398 691.050046 388.410839 691.952813 394.431506 692.069299 C 396.417706 690.584101 400.493552 689.535727 402.686648 688.531034 " transform="matrix(0.188803,0,0,0.268272,103.284136,21.016579)"/>
<path style="fill:none;stroke-width:1.25;stroke-linecap:butt;stroke-linejoin:miter;stroke:rgb(0%,100%,100%);stroke-opacity:1;stroke-miterlimit:4;" d="M 369.707461 694.413581 L 386.197054 694.413581 " transform="matrix(0.188803,0,0,0.268272,103.284136,21.016579)"/>
<path style="fill:none;stroke-width:1.25;stroke-linecap:butt;stroke-linejoin:miter;stroke:rgb(0%,100%,100%);stroke-opacity:1;stroke-miterlimit:4;" d="M 380.300525 705.013813 L 380.300525 703.848952 C 380.300525 707.532824 380.010871 705.261346 386.197054 700.310688 C 390.893588 698.010088 393.355648 696.714181 400.328036 697.951845 C 405.334913 700.631025 407.114217 702.189026 413.279711 702.669531 C 418.886587 702.669531 421.348646 701.766764 426.231387 701.490109 " transform="matrix(0.188803,0,0,0.268272,103.284136,21.016579)"/>
<path style="fill:none;stroke-width:1.25;stroke-linecap:butt;stroke-linejoin:miter;stroke:rgb(0%,100%,100%);stroke-opacity:1;stroke-miterlimit:4;" d="M 395.610812 710.91092 L 396.790118 710.91092 C 393.500475 710.91092 395.259089 711.056528 401.507342 708.552077 C 407.362492 710.022714 411.314201 712.002977 417.996935 712.090342 C 421.824507 711.901052 424.576221 710.91092 428.589999 710.91092 " transform="matrix(0.188803,0,0,0.268272,103.284136,21.016579)"/>
<path style="fill:none;stroke-width:1.25;stroke-linecap:butt;stroke-linejoin:miter;stroke:rgb(0%,100%,100%);stroke-opacity:1;stroke-miterlimit:4;" d="M 438.003756 686.186752 L 443.900286 686.186752 C 449.651988 686.186752 455.279553 686.084827 460.389879 687.351613 L 476.858783 687.351613 C 478.431191 687.351613 478.038089 687.744753 478.038089 686.186752 " transform="matrix(0.188803,0,0,0.268272,103.284136,21.016579)"/>
<path style="fill:none;stroke-width:1.25;stroke-linecap:butt;stroke-linejoin:miter;stroke:rgb(0%,100%,100%);stroke-opacity:1;stroke-miterlimit:4;" d="M 433.307222 695.593002 L 434.486528 695.593002 C 431.176196 695.593002 432.93481 695.753171 439.183062 693.24872 C 444.127871 693.6273 449.714057 694.326216 453.314044 696.772424 C 458.486438 699.043902 460.534706 700.995044 467.445025 701.490109 C 471.396734 701.286259 471.665699 699.742818 475.679477 699.131267 " transform="matrix(0.188803,0,0,0.268272,103.284136,21.016579)"/>
<path style="fill:none;stroke-width:1.25;stroke-linecap:butt;stroke-linejoin:miter;stroke:rgb(0%,100%,100%);stroke-opacity:1;stroke-miterlimit:4;" d="M 450.955432 707.372656 C 452.796804 706.440767 459.003677 704.081925 463.907107 706.193235 C 469.017433 707.474581 474.644998 707.372656 480.3967 707.372656 C 484.058756 705.800094 490.265629 704.460504 493.348376 702.65497 L 496.886294 702.65497 " transform="matrix(0.188803,0,0,0.268272,103.284136,21.016579)"/>
<path style="fill:none;stroke-width:1.25;stroke-linecap:butt;stroke-linejoin:miter;stroke:rgb(0%,100%,100%);stroke-opacity:1;stroke-miterlimit:4;" d="M 500.403522 692.069299 C 502.782823 692.069299 512.858648 691.51599 518.072421 693.24872 C 524.444811 692.477 526.679285 689.375558 531.024097 686.186752 C 535.368908 686.186752 539.030963 686.288678 542.796466 687.366174 " transform="matrix(0.188803,0,0,0.268272,103.284136,21.016579)"/>
<path style="fill:none;stroke-width:1.25;stroke-linecap:butt;stroke-linejoin:miter;stroke:rgb(0%,100%,100%);stroke-opacity:1;stroke-miterlimit:4;" d="M 522.789645 706.193235 C 522.872403 706.193235 527.486179 705.275907 531.024097 705.028374 C 536.320628 701.038726 537.251659 705.101178 542.796466 706.193235 C 548.941271 704.809962 552.044707 701.781325 554.568836 697.951845 " transform="matrix(0.188803,0,0,0.268272,103.284136,21.016579)"/>
<path style="fill:none;stroke-width:1.25;stroke-linecap:butt;stroke-linejoin:miter;stroke:rgb(0%,100%,100%);stroke-opacity:1;stroke-miterlimit:4;" d="M 535.720631 697.951845 L 536.899937 697.951845 C 533.444777 697.951845 535.389597 698.155696 541.61716 694.413581 C 545.755076 692.345953 546.251626 690.249204 552.210224 689.710456 C 555.499867 687.235127 557.941237 689.40468 560.465365 690.889877 " transform="matrix(0.188803,0,0,0.268272,103.284136,21.016579)"/>
<path style="fill:none;stroke-width:1.25;stroke-linecap:butt;stroke-linejoin:miter;stroke:rgb(0%,100%,100%);stroke-opacity:1;stroke-miterlimit:4;" d="M 560.465365 707.372656 C 560.651571 706.440767 562.803288 701.344502 563.982593 699.131267 C 569.237746 697.034517 571.741185 696.073507 575.775653 701.490109 C 580.037706 702.640409 584.051484 704.970131 588.727328 706.193235 C 590.444563 706.193235 589.61698 706.469889 591.06525 705.013813 " transform="matrix(0.188803,0,0,0.268272,103.284136,21.016579)"/>
<path style="fill:none;stroke-width:1.25;stroke-linecap:butt;stroke-linejoin:miter;stroke:rgb(0%,100%,100%);stroke-opacity:1;stroke-miterlimit:4;" d="M 576.934269 690.889877 L 576.934269 689.710456 C 576.934269 693.408888 576.685994 691.195653 581.651493 685.007331 C 587.113541 685.997462 588.541122 689.302755 591.06525 693.24872 C 596.920401 693.24872 600.768662 693.103113 604.016926 690.889877 " transform="matrix(0.188803,0,0,0.268272,103.284136,21.016579)"/>
<path style="fill:none;stroke-width:1.25;stroke-linecap:butt;stroke-linejoin:miter;stroke:rgb(0%,100%,100%);stroke-opacity:1;stroke-miterlimit:4;" d="M 605.196232 703.834392 C 605.920367 702.800578 610.616901 695.127058 614.609989 699.131267 C 619.844453 700.558221 620.672036 702.931625 626.403049 705.013813 C 627.396148 703.266522 628.492696 702.917064 631.099583 702.65497 " transform="matrix(0.188803,0,0,0.268272,103.284136,21.016579)"/>
<path style="fill:none;stroke-width:1.25;stroke-linecap:butt;stroke-linejoin:miter;stroke:rgb(0%,100%,100%);stroke-opacity:1;stroke-miterlimit:4;" d="M 501.582828 708.552077 L 502.762134 708.552077 C 499.472491 708.552077 501.231105 708.697685 507.479357 706.193235 C 512.362098 703.368447 514.803468 702.218147 518.072421 697.951845 C 523.53447 698.155696 527.734454 699.131267 533.382708 699.131267 C 533.382708 697.558705 532.989606 697.951845 534.562014 697.951845 " transform="matrix(0.188803,0,0,0.268272,103.284136,21.016579)"/>
<path style="fill:none;stroke-width:1.25;stroke-linecap:butt;stroke-linejoin:miter;stroke:rgb(0%,100%,100%);stroke-opacity:1;stroke-miterlimit:4;" d="M 350.879946 694.413581 C 350.879946 693.598178 354.08683 692.331392 357.935092 690.889877 C 360.748874 688.778567 363.086796 690.75883 367.369539 690.889877 " transform="matrix(0.188803,0,0,0.268272,103.284136,21.016579)"/>
<path style="fill:none;stroke-width:1.25;stroke-linecap:butt;stroke-linejoin:miter;stroke:rgb(0%,100%,100%);stroke-opacity:1;stroke-miterlimit:4;" d="M 356.755786 705.013813 L 357.935092 705.013813 C 354.645449 705.013813 356.404063 705.159421 362.652315 702.669531 C 367.162643 703.295644 369.190222 705.538 374.424685 706.193235 " transform="matrix(0.188803,0,0,0.268272,103.284136,21.016579)"/>
<path style="fill-rule:nonzero;fill:rgb(100%,82.352941%,0%);fill-opacity:1;stroke-width:1.25;stroke-linecap:butt;stroke-linejoin:miter;stroke:rgb(0%,0%,0%);stroke-opacity:1;stroke-miterlimit:4;" d="M 749.426718 355.126669 C 749.422555 366.840563 754.151991 372.227448 765.795835 372.21198 C 768.482926 372.211616 771.950611 371.511215 773.997949 370.562079 C 781.234236 367.093098 781.875396 361.476267 781.866368 354.243849 L 781.863088 334.067767 C 781.875716 332.212532 782.822865 330.175929 787.884671 330.18009 L 787.886257 328.950321 L 773.034367 328.953462 L 773.032455 330.162393 C 778.094261 330.166554 779.042849 332.215177 779.051046 334.070086 L 779.054 354.22533 C 779.045093 360.311658 778.97804 369.337775 767.021492 369.337294 C 759.022694 369.337407 755.943378 365.571305 755.953781 355.587292 L 755.950457 334.077251 C 755.94226 332.222343 756.909908 330.164575 761.576037 330.174928 L 761.577623 328.945159 L 743.78874 328.952575 L 743.786829 330.161505 C 748.452957 330.171858 749.42237 332.220156 749.409742 334.075391 Z M 749.426718 355.126669 " transform="matrix(-0.00293279,0.187528,-0.187412,-0.0029346,310.721669,48.042631)"/>
<path style="fill-rule:nonzero;fill:rgb(100%,82.352941%,0%);fill-opacity:1;stroke-width:1.25;stroke-linecap:butt;stroke-linejoin:miter;stroke:rgb(0%,0%,0%);stroke-opacity:1;stroke-miterlimit:4;" d="M 735.98086 328.050276 L 734.631693 328.04585 C 733.030033 332.791897 728.050396 328.049996 720.246622 328.048844 C 707.505232 328.061092 698.275082 337.519258 698.284865 350.268146 C 698.289314 365.295506 710.114728 372.207091 720.996905 372.214481 C 726.249603 372.209193 733.427702 369.788886 737.142447 367.659641 L 737.122902 355.50013 C 737.136206 351.851116 737.4616 349.813705 741.607803 349.737224 L 741.610047 348.534606 L 725.286781 348.523521 L 725.301818 349.750003 C 730.59565 349.751285 730.934979 351.852649 730.921674 355.501662 L 730.916873 365.040285 C 730.915574 366.897303 730.918113 367.277596 729.064824 368.184584 C 726.897301 369.210225 724.201506 369.581665 721.838821 369.584209 C 711.083333 369.575947 705.637284 360.623005 705.650253 350.769114 C 705.647339 339.561977 710.261626 330.611799 720.869857 330.617648 C 728.423538 330.599962 732.660218 334.843319 735.078465 341.624304 L 736.554321 341.627859 Z M 735.98086 328.050276 " transform="matrix(0.0295603,0.185202,-0.185088,0.0295786,285.200585,38.241235)"/>
<path style="fill-rule:nonzero;fill:rgb(100%,82.352941%,0%);fill-opacity:1;stroke-width:1.25;stroke-linecap:butt;stroke-linejoin:miter;stroke:rgb(0%,0%,0%);stroke-opacity:1;stroke-miterlimit:4;" d="M 558.189116 328.117295 L 556.841939 328.129596 C 554.732245 333.309566 551.538521 328.05333 542.767148 328.050615 C 529.8982 328.050196 520.868392 337.461034 520.886729 350.197826 C 520.879154 364.20433 530.420977 372.218969 542.905774 372.214518 C 549.044135 372.217754 555.634079 369.022235 559.528689 364.224209 L 558.447495 362.929164 C 554.029757 367.295706 549.733333 369.336132 543.461589 369.335725 C 532.974886 369.327086 528.300608 359.663437 528.295221 350.714331 C 528.314964 339.193825 532.855588 330.682001 543.416981 330.682548 C 550.694446 330.684404 555.379134 335.48271 557.229408 342.511725 L 558.76601 342.531203 Z M 558.189116 328.117295 " transform="matrix(0.143882,0.120197,-0.120123,0.143971,187.104854,36.339472)"/>
<path style="fill-rule:nonzero;fill:rgb(100%,82.352941%,0%);fill-opacity:1;stroke-width:1.25;stroke-linecap:butt;stroke-linejoin:miter;stroke:rgb(0%,0%,0%);stroke-opacity:1;stroke-miterlimit:4;" d="M 511.418953 334.065779 C 511.407477 332.207292 512.364316 330.158501 517.670758 330.167244 L 517.685927 328.954848 L 498.602519 328.950233 L 498.615188 330.16971 C 503.92163 330.178453 504.884457 332.200961 504.878251 334.070543 L 504.892343 366.195726 C 504.875982 368.047132 503.919142 370.095924 498.622855 370.105356 L 498.607687 371.317752 L 517.691094 371.322368 L 517.678426 370.102891 C 512.371984 370.094147 511.399001 368.053464 511.415362 366.202057 Z M 511.418953 334.065779 " transform="matrix(0.163572,0.099852,-0.0913893,0.159124,166.524544,41.694042)"/>
<path style="fill-rule:nonzero;fill:rgb(100%,82.352941%,0%);fill-opacity:1;stroke-width:1.25;stroke-linecap:butt;stroke-linejoin:miter;stroke:rgb(0%,0%,0%);stroke-opacity:1;stroke-miterlimit:4;" d="M 490.421999 334.061132 C 490.412398 332.212134 491.378295 330.155844 496.626468 330.161022 L 496.631857 328.938459 L 481.398805 328.956182 L 481.385334 330.159549 C 486.633506 330.164727 487.610406 332.216648 487.600799 334.073732 L 487.599819 359.745517 L 462.964496 328.943123 L 452.019344 328.940927 L 452.013955 330.16349 C 455.157588 330.218531 455.725505 330.815571 457.727326 333.046157 L 458.226492 333.694738 L 458.226673 366.190643 C 458.217066 368.047727 457.270377 370.095931 452.022204 370.090753 L 452.016815 371.313316 L 467.257948 371.314788 L 467.24413 370.100312 C 461.995957 370.095134 461.046347 368.054323 461.036746 366.205325 L 461.047804 336.958807 L 489.454286 372.207256 L 490.425684 372.205071 Z M 490.421999 334.061132 " transform="matrix(0.172751,0.0727715,-0.0727265,0.172858,155.304713,50.023166)"/>
<path style="fill-rule:nonzero;fill:rgb(100%,82.352941%,0%);fill-opacity:1;stroke-width:1.25;stroke-linecap:butt;stroke-linejoin:miter;stroke:rgb(0%,0%,0%);stroke-opacity:1;stroke-miterlimit:4;" d="M 431.474082 371.318188 L 434.350792 360.496408 L 432.555568 360.514299 C 429.160778 368.636619 424.297748 368.696449 419.179547 368.690156 L 410.741201 368.701236 C 409.44641 368.705919 409.061908 367.354296 409.067237 366.205757 L 409.060528 350.46576 L 418.083893 350.456587 C 422.386944 350.455772 426.020723 351.669593 426.026297 356.658562 L 427.38488 356.670409 L 427.366744 341.682725 L 426.030369 341.690241 C 426.035942 346.679209 422.374958 347.826221 418.0927 347.82562 L 409.069335 347.834793 L 409.072323 334.07735 C 409.067309 332.470245 410.28045 331.573457 411.888542 331.568311 L 422.18732 331.57665 C 426.678918 331.583869 428.788981 334.655048 429.482765 338.094075 L 430.903726 338.101674 L 430.886813 328.959168 L 396.900464 328.956727 L 396.920173 330.166188 C 401.57811 330.162078 402.533372 332.226361 402.533163 334.063457 L 402.548869 366.190448 C 402.550074 368.048324 401.582528 370.097436 396.903799 370.102962 L 396.902715 371.31384 Z M 431.474082 371.318188 " transform="matrix(0.187002,0.0127444,-0.0127366,0.187117,122.929711,70.528827)"/>
<path style="fill-rule:nonzero;fill:rgb(100%,82.352941%,0%);fill-opacity:1;stroke-width:1.25;stroke-linecap:butt;stroke-linejoin:miter;stroke:rgb(0%,0%,0%);stroke-opacity:1;stroke-miterlimit:4;" d="M 284.463909 328.120172 L 283.116625 328.131731 C 281.004704 333.305602 277.803049 328.053281 269.033529 328.047973 C 256.168686 328.044939 247.149398 337.459246 247.153927 350.198938 C 247.138877 364.217507 256.690116 372.221812 269.172637 372.21234 C 275.31562 372.20893 281.904179 369.017329 285.808462 364.223388 L 284.716727 362.928594 C 280.296073 367.287841 276.006455 369.339842 269.741974 369.342683 C 259.242849 369.336428 254.576423 359.665169 254.574156 350.70166 C 254.58243 339.187409 259.106004 330.677353 269.680187 330.680387 C 276.963101 330.685884 281.642576 335.469972 283.511007 342.520187 L 285.044054 342.523788 Z M 284.463909 328.120172 " transform="matrix(0.160298,-0.0972019,0.0971417,0.160397,88.585521,118.083415)"/>
<path style="fill-rule:nonzero;fill:rgb(100%,82.352941%,0%);fill-opacity:1;stroke-width:1.25;stroke-linecap:butt;stroke-linejoin:miter;stroke:rgb(0%,0%,0%);stroke-opacity:1;stroke-miterlimit:4;" d="M 237.687479 334.069203 C 237.682145 332.204697 238.635896 330.157863 243.950053 330.157763 L 243.949374 328.944082 L 224.869701 328.954244 L 224.87038 330.167925 C 230.184536 330.167825 231.154162 332.204739 231.159496 334.069245 L 231.159943 366.203899 C 231.149176 368.055174 230.195425 370.102007 224.881268 370.102108 L 224.881947 371.315789 L 243.948396 371.321718 L 243.947717 370.108037 C 238.633561 370.108137 237.677159 368.055132 237.687926 366.203858 Z M 237.687479 334.069203 " transform="matrix(0.14481,-0.119078,0.119004,0.1449,84.610035,129.295191)"/>
<path style="fill-rule:nonzero;fill:rgb(100%,82.352941%,0%);fill-opacity:1;stroke-width:1.25;stroke-linecap:butt;stroke-linejoin:miter;stroke:rgb(0%,0%,0%);stroke-opacity:1;stroke-miterlimit:4;" d="M 219.82776 371.315397 L 222.888608 360.185716 L 221.282241 360.184922 C 217.770129 368.958655 212.073911 368.695895 203.953718 368.68945 C 199.974414 368.695861 197.547616 367.979405 197.552258 366.196266 L 197.548267 334.067825 C 197.540201 332.210641 198.509712 330.174517 203.181552 330.172772 L 203.170862 328.949238 L 185.397336 328.952345 L 185.393704 330.16074 C 190.065543 330.158996 191.011245 332.219304 191.019312 334.076488 L 191.023303 366.204929 C 191.017047 368.046974 190.061858 370.098237 185.390018 370.099982 L 185.386386 371.308377 Z M 219.82776 371.315397 " transform="matrix(0.128814,-0.136241,0.136156,0.128894,81.903481,138.99531)"/>
<path style="fill-rule:nonzero;fill:rgb(100%,82.352941%,0%);fill-opacity:1;stroke-width:1.25;stroke-linecap:butt;stroke-linejoin:miter;stroke:rgb(0%,0%,0%);stroke-opacity:1;stroke-miterlimit:4;" d="M 102.374533 355.140954 C 102.37906 366.850584 107.105702 372.212513 118.764774 372.215399 C 121.458044 372.210965 124.913478 371.512909 126.95397 370.558029 C 134.194505 367.09185 134.837588 361.469824 134.826784 354.235446 L 134.821883 334.079136 C 134.831204 332.204927 135.795727 330.172171 140.856362 330.172865 L 140.838579 328.952066 L 125.992445 328.958779 L 126.000361 330.161222 C 131.042651 330.171777 132.008127 332.231816 132.007284 334.077806 L 132.012186 354.234117 C 132.016463 360.312626 131.950264 369.33929 119.983633 369.336105 C 111.968724 369.33818 108.901898 365.568411 108.902226 355.583405 L 108.903585 334.075067 C 108.904428 332.229077 109.877429 330.168103 114.537389 330.171229 L 114.547818 328.958925 L 96.737545 328.95005 L 96.755328 330.170849 C 101.415287 330.173975 102.370895 332.215658 102.37992 334.080005 Z M 102.374533 355.140954 " transform="matrix(0.0887446,-0.165196,0.165094,0.0887996,78.076068,158.359913)"/>
<path style="fill-rule:nonzero;fill:rgb(100%,82.352941%,0%);fill-opacity:1;stroke-width:1.25;stroke-linecap:butt;stroke-linejoin:miter;stroke:rgb(0%,0%,0%);stroke-opacity:1;stroke-miterlimit:4;" d="M 56.358019 371.313511 L 59.242938 360.49918 L 57.461961 360.51291 C 54.061606 368.624905 49.192469 368.699487 44.074256 368.696049 L 35.622867 368.695883 C 34.348421 368.69401 33.974285 367.344714 33.959356 366.200302 L 33.974675 350.452701 L 42.997941 350.445533 C 47.291011 350.464107 50.929049 351.675153 50.922895 356.669589 L 52.279056 356.655234 L 52.281149 341.696425 L 50.920929 341.690338 C 50.935203 346.680717 47.277915 347.831991 42.988905 347.833858 L 33.965639 347.841026 L 33.970351 334.071569 C 33.972315 332.477601 35.194772 331.576147 36.787829 331.57849 L 47.085541 331.573196 C 51.566531 331.575697 53.682751 334.640052 54.393309 338.111051 L 55.794387 338.109024 L 55.801588 328.949828 L 21.804053 328.944797 L 21.814792 330.175032 C 26.483701 330.161461 27.445166 332.222777 27.45106 334.070158 L 27.440064 366.198891 C 27.445958 368.046272 26.475326 370.108833 21.802357 370.101962 L 21.809036 371.311756 Z M 56.358019 371.313511 " transform="matrix(0.0365104,-0.183957,0.183843,0.036533,75.909325,179.243676)"/>
<path style="fill-rule:nonzero;fill:rgb(100%,82.352941%,0%);fill-opacity:1;stroke-width:1.25;stroke-linecap:butt;stroke-linejoin:miter;stroke:rgb(0%,0%,0%);stroke-opacity:1;stroke-miterlimit:4;" d="M -15.44394 366.201281 C -15.44507 368.056219 -16.402233 370.108886 -20.880618 370.09392 L -20.888387 371.323672 L -3.28791 371.324338 L -3.280141 370.094586 C -7.945744 370.102449 -8.904851 368.04929 -8.903721 366.194352 L -8.911522 351.730183 L -5.330231 351.608783 L 9.896883 371.330213 L 20.207162 371.324931 L 20.214931 370.095179 C 17.338646 369.917305 15.867062 368.640738 14.136485 366.512404 L 1.452384 350.890657 C 7.463307 350.076516 13.032912 346.932773 13.044072 340.138208 C 13.047928 332.655938 6.634929 328.951665 -3.98797 328.939425 L -20.880121 328.952079 L -20.888112 330.160992 C -16.389122 330.154898 -15.430015 332.208057 -15.431145 334.062994 Z M -8.908211 334.389719 C -8.919253 331.388608 -8.336108 331.382415 -4.170343 331.37986 C 1.578465 331.381335 6.062359 333.876425 6.067157 340.2123 C 6.057325 347.131903 0.37053 349.04722 -8.915703 349.375097 Z M -8.908211 334.389719 " transform="matrix(0.00199037,-0.187539,0.187423,0.0019916,75.759377,192.65167)"/>
<path style="fill-rule:nonzero;fill:rgb(100%,82.352941%,0%);fill-opacity:1;stroke-width:1.25;stroke-linecap:butt;stroke-linejoin:miter;stroke:rgb(0%,0%,0%);stroke-opacity:1;stroke-miterlimit:4;" d="M 66.47874 366.209864 C 66.473967 368.059787 65.530149 370.104208 60.847283 370.106228 L 60.850749 371.309166 L 78.642674 371.323737 L 78.634098 370.100595 C 73.971424 370.097508 73.005749 368.063087 73.005412 366.19296 L 73.00132 352.500603 C 74.855841 352.697976 76.715225 352.829629 78.584333 352.829842 C 86.767976 352.823809 94.836141 349.557988 94.823988 340.081021 C 94.827502 332.534794 87.153834 328.950883 77.29303 328.951151 L 61.158074 328.947451 L 61.16665 330.170594 C 65.526199 330.164357 66.476792 332.224089 66.472019 334.074012 Z M 73.009407 334.269364 C 73.011951 331.646125 73.142332 331.312197 75.829829 331.320399 C 81.972609 331.314598 87.863699 333.371643 87.864305 340.594378 C 87.855433 348.034477 83.062963 350.321369 76.147287 350.329172 C 75.11676 350.331841 74.030272 350.198186 73.004607 350.135136 Z M 73.009407 334.269364 " transform="matrix(0.0459571,-0.181827,0.181714,0.0459855,76.239209,175.098807)"/>
<path style="fill-rule:nonzero;fill:rgb(100%,82.352941%,0%);fill-opacity:1;stroke-width:1.25;stroke-linecap:butt;stroke-linejoin:miter;stroke:rgb(0%,0%,0%);stroke-opacity:1;stroke-miterlimit:4;" d="M 149.366924 366.194113 C 149.357147 368.061583 148.404141 370.108851 143.214305 370.117932 L 143.216176 371.314527 L 163.369798 371.322336 C 173.432094 371.323715 180.086321 367.3526 180.073577 359.66435 C 180.077392 353.519178 174.892771 350.134752 169.385621 349.041881 C 174.309234 347.894879 177.896868 345.139696 177.902964 339.757543 C 177.900697 331.577655 170.221554 328.95543 160.367485 328.960378 L 143.219239 328.952161 L 143.216076 330.177787 C 148.405912 330.168706 149.36605 332.219903 149.361307 334.058342 Z M 155.892127 350.462151 L 159.093733 350.451028 C 165.104483 350.450213 172.723699 351.86574 172.717482 359.490877 C 172.707402 366.965808 167.788001 368.950932 161.135537 368.944758 C 156.454273 368.952614 155.892739 367.793213 155.892861 365.550229 Z M 155.889557 347.889724 L 155.880279 333.368386 C 155.8804 331.125402 157.935581 331.25872 163.834842 331.642245 C 168.31209 332.466184 171.385056 335.094377 171.377439 339.967851 C 171.377546 345.141736 167.610712 347.895644 161.137449 347.890745 Z M 155.889557 347.889724 " transform="matrix(0.1079,-0.153356,0.153261,0.107967,79.466832,149.494394)"/>
<path style="fill-rule:nonzero;fill:rgb(100%,82.352941%,0%);fill-opacity:1;stroke-width:1.25;stroke-linecap:butt;stroke-linejoin:miter;stroke:rgb(0%,0%,0%);stroke-opacity:1;stroke-miterlimit:4;" d="M 368.236141 371.317837 C 385.398126 371.32207 394.034149 363.264476 394.025452 350.269459 C 394.02322 335.854344 384.110078 328.958469 367.72172 328.952024 L 351.207076 328.956601 L 351.216839 330.169055 C 355.879377 330.157407 356.847182 332.21771 356.848192 334.077108 L 356.845578 366.207597 C 356.848212 368.04623 355.893149 370.102493 351.209834 370.112517 L 351.219597 371.324971 Z M 363.37225 334.586986 C 363.382253 331.516759 363.962713 331.311429 367.014043 331.320098 C 378.866149 331.327169 387.058344 337.775177 387.059565 350.330895 C 387.048762 362.238045 379.496056 369.273069 366.455417 368.692612 C 365.039318 368.623721 363.379399 367.92993 363.375781 365.568939 Z M 363.37225 334.586986 " transform="matrix(0.186865,-0.0146132,0.0146041,0.18698,114.048126,81.061295)"/>
<path style="fill-rule:nonzero;fill:rgb(100%,82.352941%,0%);fill-opacity:1;stroke-width:1.25;stroke-linecap:butt;stroke-linejoin:miter;stroke:rgb(0%,0%,0%);stroke-opacity:1;stroke-miterlimit:4;" d="M 613.875236 366.19443 C 613.864967 368.052778 612.916289 370.10668 608.4434 370.100266 L 608.422164 371.322582 L 626.034943 371.328627 L 626.027643 370.113645 C 621.358292 370.112091 620.392108 368.063595 620.402376 366.205246 L 620.390497 351.742892 L 623.976566 351.612176 L 639.203369 371.320923 L 649.513771 371.317659 L 649.524396 370.11328 C 646.643692 369.9106 645.174819 368.630153 643.4473 366.518748 L 630.760177 350.903014 C 636.785747 350.084465 642.350743 346.935363 642.345712 340.152669 C 642.343617 332.669527 635.947867 328.959155 625.330151 328.950138 L 608.435537 328.957254 L 608.424911 330.161632 C 612.915727 330.178651 613.863984 332.216544 613.882252 334.067558 Z M 620.396949 334.385787 C 620.40394 331.387476 620.964789 331.380226 625.130364 331.374361 C 630.882267 331.386685 635.384391 333.880147 635.365282 340.212723 C 635.371043 347.116915 629.677284 349.051831 620.390529 349.37001 Z M 620.396949 334.385787 " transform="matrix(0.0954229,0.161427,-0.161327,0.095482,231.022637,29.966501)"/>
<path style="fill-rule:nonzero;fill:rgb(100%,82.352941%,0%);fill-opacity:1;stroke-width:1.25;stroke-linecap:butt;stroke-linejoin:miter;stroke:rgb(0%,0%,0%);stroke-opacity:1;stroke-miterlimit:4;" d="M 584.95335 328.049285 L 583.655635 328.052684 L 570.680647 358.89727 C 568.040796 365.115541 566.38919 369.781896 562.407709 370.106068 L 562.406117 371.315565 L 575.074941 371.311152 L 575.076533 370.101656 C 572.908539 370.102651 570.728022 369.529036 570.731157 367.419775 C 570.721721 365.045637 573.354393 359.919139 574.183014 357.489957 L 590.952387 357.494875 L 593.261067 362.944253 C 595.69864 368.623419 595.755908 369.830085 590.311356 370.091861 L 590.325177 371.315365 L 606.637687 371.3275 L 606.637883 370.088573 C 603.048818 370.290635 601.701259 366.446936 600.559515 363.832258 Z M 582.632551 337.261016 L 590.0601 354.853454 L 575.268124 354.871455 Z M 582.632551 337.261016 " transform="matrix(0.126061,0.138795,-0.138709,0.126139,204.052683,32.03706)"/>
<path style="fill-rule:nonzero;fill:rgb(100%,82.352941%,0%);fill-opacity:1;stroke-width:1.25;stroke-linecap:butt;stroke-linejoin:miter;stroke:rgb(0%,0%,0%);stroke-opacity:1;stroke-miterlimit:4;" d="M 673.836599 328.050056 L 672.559193 328.058537 L 659.56897 358.908985 C 656.940595 365.106732 655.280292 369.772006 651.314096 370.1028 L 651.308967 371.306748 L 663.97557 371.31134 L 663.980699 370.107392 C 661.806411 370.086488 659.642362 369.523874 659.639127 367.405917 C 659.632639 365.03619 662.259607 359.930232 663.079758 357.490794 L 679.860019 357.502395 L 682.164505 362.928665 C 684.595054 368.637831 684.655516 369.8478 679.221188 370.103391 L 679.216059 371.307339 L 695.539505 371.323332 L 695.533935 370.091931 C 691.943612 370.291785 690.604375 366.449714 689.456783 363.829654 Z M 671.545454 337.263335 L 678.964094 354.878965 L 664.18042 354.878574 Z M 671.545454 337.263335 " transform="matrix(0.0753093,0.171746,-0.171639,0.075356,248.439052,31.230593)"/>
<path style="fill-rule:nonzero;fill:rgb(100%,82.352941%,0%);fill-opacity:1;stroke-width:1.25;stroke-linecap:butt;stroke-linejoin:miter;stroke:rgb(0%,0%,0%);stroke-opacity:1;stroke-miterlimit:4;" d="M 812.462962 328.042627 L 811.184137 328.047216 L 798.18681 358.904707 C 795.566447 365.112258 793.896254 369.780185 789.928637 370.103294 L 789.926053 371.320803 L 802.613344 371.307864 L 802.595245 370.092805 C 800.435475 370.096821 798.248424 369.516453 798.251453 367.417469 C 798.243293 365.046988 800.867044 359.930321 801.70934 357.48008 L 818.467976 357.488511 L 820.789472 362.921763 C 823.204888 368.61671 823.266805 369.847565 817.84264 370.091384 L 817.840055 371.308893 L 834.156993 371.306689 L 834.159578 370.08918 C 830.575131 370.282953 829.219944 366.456102 828.069003 363.82226 Z M 810.156726 337.255974 L 817.570134 354.866657 L 802.805804 354.873812 Z M 810.156726 337.255974 " transform="matrix(-0.0220498,0.186249,-0.186134,-0.0220635,325.154127,55.554034)"/>
<path style="fill-rule:nonzero;fill:rgb(100%,82.352941%,0%);fill-opacity:1;stroke-width:1.25;stroke-linecap:butt;stroke-linejoin:miter;stroke:rgb(0%,0%,0%);stroke-opacity:1;stroke-miterlimit:4;" d="M 311.220813 328.049335 L 309.939968 328.056117 L 296.955371 358.88993 C 294.32918 365.107816 292.654614 369.776361 288.689085 370.106421 L 288.700106 371.320929 L 301.37328 371.31144 L 301.362259 370.096932 C 299.183653 370.105755 297.018906 369.515017 297.005461 367.403152 C 296.999096 365.047591 299.636005 359.932044 300.472985 357.485602 L 317.244187 357.489997 L 319.545868 362.930821 C 321.972057 368.622778 322.029503 369.833313 316.589437 370.093236 L 316.600457 371.307744 L 332.922779 371.313161 L 332.911758 370.098653 C 329.336698 370.292447 327.995128 366.44303 326.834906 363.830942 Z M 308.908414 337.260293 L 316.335461 354.865733 L 301.557163 354.868408 Z M 308.908414 337.260293 " transform="matrix(0.174202,-0.0692212,0.0691783,0.17431,95.325292,104.864846)"/>
<path style="fill-rule:nonzero;fill:rgb(100%,82.352941%,0%);fill-opacity:1;stroke-width:1.25;stroke-linecap:butt;stroke-linejoin:miter;stroke:rgb(0%,0%,0%);stroke-opacity:1;stroke-miterlimit:4;" d="M 728.921092 940.018478 L 733.299034 929.323946 L 731.721029 929.13008 C 727.181747 937.422705 721.555334 936.493537 713.487793 935.536781 C 709.533315 935.056454 707.208014 934.081735 707.417596 932.289286 L 711.242989 900.390679 C 711.454141 898.551661 712.656247 896.625337 717.288477 897.184803 L 717.42241 895.977207 L 699.774807 893.862745 L 699.62194 895.079018 C 704.25417 895.638484 704.983538 897.780095 704.753452 899.627789 L 700.946993 931.51772 C 700.716906 933.365413 699.533735 935.283062 694.882571 934.732272 L 694.748638 935.939868 Z M 728.921092 940.018478 " transform="matrix(0.0780833,-0.170502,0.170397,0.0781317,23.91124,267.306199)"/>
<path style="fill-rule:nonzero;fill:rgb(100%,82.352941%,0%);fill-opacity:1;stroke-width:1.25;stroke-linecap:butt;stroke-linejoin:miter;stroke:rgb(0%,0%,0%);stroke-opacity:1;stroke-miterlimit:4;" d="M 594.213451 883.961622 L 598.790336 884.509185 C 603.234157 885.047087 606.425388 885.22004 606.84402 893.725376 L 608.354736 893.903553 L 609.275494 883.061921 L 573.430498 878.769948 L 571.754954 889.537212 L 573.27982 889.700105 C 573.972181 887.786581 574.538771 885.671463 576.072668 884.168076 C 578.234165 881.741406 583.148634 882.6299 587.725518 883.177462 L 583.632724 917.507573 C 583.409159 919.344218 582.200981 921.262703 577.579361 920.702107 L 577.420123 921.917098 L 595.090644 924.028481 L 595.235733 922.828774 C 590.59882 922.254019 589.8818 920.114219 590.105365 918.277574 Z M 594.213451 883.961622 " transform="matrix(0.137538,-0.127416,0.127337,0.137623,24.098675,184.692021)"/>
<path style="fill-rule:nonzero;fill:rgb(100%,82.352941%,0%);fill-opacity:1;stroke-width:1.25;stroke-linecap:butt;stroke-linejoin:miter;stroke:rgb(0%,0%,0%);stroke-opacity:1;stroke-miterlimit:4;" d="M 564.298195 882.839714 C 564.525883 881.004757 565.71994 879.072124 570.950206 879.696486 L 571.078809 878.49993 L 555.954188 876.685054 L 555.815295 877.899718 C 561.027442 878.513784 561.725864 880.659385 561.516296 882.504638 L 558.470255 907.987031 L 537.657316 874.504935 L 526.798602 873.19764 L 526.64159 874.402009 C 529.744273 874.847497 530.242234 875.489782 531.959825 877.950995 L 532.380388 878.645121 L 528.535879 910.932263 C 528.308191 912.76722 527.124424 914.681745 521.912277 914.067679 L 521.755265 915.272047 L 536.890176 917.068815 L 537.018779 915.872259 C 531.816922 915.240085 531.1185 913.094484 531.328068 911.249231 L 534.803987 882.226167 L 558.829752 920.60016 L 559.794111 920.71694 Z M 564.298195 882.839714 " transform="matrix(0.162963,-0.0926575,0.0926002,0.163064,40.1993,142.635668)"/>
<path style="fill-rule:nonzero;fill:rgb(100%,82.352941%,0%);fill-opacity:1;stroke-width:1.25;stroke-linecap:butt;stroke-linejoin:miter;stroke:rgb(0%,0%,0%);stroke-opacity:1;stroke-miterlimit:4;" d="M 517.2423 914.731971 L 521.386077 904.33937 L 519.619028 904.13166 C 515.28419 911.789925 510.454386 911.274029 505.37039 910.664386 L 496.96224 909.672353 C 495.707708 909.520465 495.487652 908.129571 495.615419 907.000148 L 497.478238 891.348739 L 506.430804 892.430559 C 510.706918 892.942045 514.169842 894.574357 513.585644 899.531257 L 514.925596 899.692448 L 516.697744 884.82896 L 515.357792 884.667769 C 514.773594 889.624669 511.006755 890.322156 506.750194 889.817881 L 497.790421 888.755602 L 499.432734 875.087372 C 499.621285 873.491989 500.936656 872.756158 502.513313 872.938049 L 512.747172 874.159427 C 517.194125 874.68952 518.929886 877.993543 519.208321 881.514866 L 520.614139 881.67815 L 521.697003 872.598565 L 487.954293 868.567623 L 487.824458 869.76288 C 492.461804 870.318792 493.159292 872.462936 492.94292 874.314446 L 489.132811 906.207681 C 488.91644 908.05919 487.722353 909.971897 483.085007 909.415985 L 482.928413 910.623572 Z M 517.2423 914.731971 " transform="matrix(0.175857,-0.0648963,0.0648561,0.175966,58.029946,116.742428)"/>
<path style="fill-rule:nonzero;fill:rgb(100%,82.352941%,0%);fill-opacity:1;stroke-width:1.25;stroke-linecap:butt;stroke-linejoin:miter;stroke:rgb(0%,0%,0%);stroke-opacity:1;stroke-miterlimit:4;" d="M 484.069108 867.267515 L 482.722652 867.106198 C 480.005321 871.995074 477.453323 866.395905 468.751037 865.366192 C 455.968271 863.845668 445.905033 872.112065 444.386199 884.760348 C 442.740492 898.675521 451.239962 907.758717 463.649283 909.238045 C 469.740884 909.958844 476.66872 907.567353 481.105919 903.261067 L 480.177555 901.860336 C 475.274444 905.666567 470.775808 907.175326 464.560869 906.433947 C 454.138682 905.201721 450.6346 895.051619 451.697446 886.149198 C 453.079134 874.702744 458.582161 866.794582 469.086574 868.040528 C 476.315637 868.908889 480.392287 874.234562 481.405817 881.456328 L 482.920153 881.624541 Z M 484.069108 867.267515 " transform="matrix(0.184878,-0.0308671,0.030848,0.184992,83.209899,92.902304)"/>
<path style="fill-rule:nonzero;fill:rgb(100%,82.352941%,0%);fill-opacity:1;stroke-width:1.25;stroke-linecap:butt;stroke-linejoin:miter;stroke:rgb(0%,0%,0%);stroke-opacity:1;stroke-miterlimit:4;" d="M 379.892667 854.825365 L 378.572214 854.654638 C 375.852996 859.549458 373.290403 853.97173 364.603526 852.933048 C 351.811589 851.407326 341.749402 859.680036 340.236034 872.31405 C 338.568502 886.243675 347.092978 895.30321 359.476922 896.794589 C 365.591659 897.522075 372.514157 895.126938 376.944313 890.820843 L 376.021788 889.417578 C 371.121615 893.213869 366.628257 894.74001 360.403697 893.98945 C 349.967845 892.749289 346.478091 882.597504 347.544899 873.699531 C 348.910274 862.275474 354.421807 854.354863 364.922836 855.604765 C 372.162498 856.473752 376.223693 861.789304 377.23358 869.013036 L 378.766499 869.18888 Z M 379.892667 854.825365 " transform="matrix(0.184631,0.0323206,-0.0323006,0.184745,140.088779,67.601724)"/>
<path style="fill-rule:nonzero;fill:rgb(100%,82.352941%,0%);fill-opacity:1;stroke-width:1.25;stroke-linecap:butt;stroke-linejoin:miter;stroke:rgb(0%,0%,0%);stroke-opacity:1;stroke-miterlimit:4;" d="M 332.745056 855.185426 C 332.968421 853.341789 334.164657 851.410375 339.429016 852.048141 L 339.575134 850.834323 L 320.643081 848.576035 L 320.496963 849.789853 C 325.761322 850.427619 326.469646 852.564206 326.266292 854.402022 L 322.440237 886.316209 C 322.236883 888.154025 321.03483 890.06544 315.750459 889.433495 L 315.604341 890.647314 L 334.556406 892.899781 L 334.68833 891.711782 C 329.423971 891.074016 328.70983 888.91743 328.933195 887.073793 Z M 332.745056 855.185426 " transform="matrix(0.179975,0.0523848,-0.0523523,0.180086,159.475131,64.870799)"/>
<path style="fill-rule:nonzero;fill:rgb(100%,82.352941%,0%);fill-opacity:1;stroke-width:1.25;stroke-linecap:butt;stroke-linejoin:miter;stroke:rgb(0%,0%,0%);stroke-opacity:1;stroke-miterlimit:4;" d="M 268.334734 884.995029 L 272.471846 874.605214 L 270.695767 874.382184 C 266.355291 882.058111 261.521261 881.542485 256.434512 880.941357 L 248.043413 879.933352 C 246.780502 879.777451 246.569307 878.404067 246.700677 877.256507 L 248.566495 861.618779 L 257.517094 862.688977 C 261.778983 863.199966 265.262245 864.852509 264.672152 869.805626 L 266.010179 869.962894 L 267.769229 855.086004 L 266.431202 854.928736 C 265.852339 859.899393 262.093697 860.599525 257.831808 860.088536 L 248.881209 859.018338 L 250.507479 845.364105 C 250.693643 843.761029 252.002258 843.022072 253.605645 843.207286 L 263.819155 844.433385 C 268.271288 844.970951 270.007103 848.261711 270.305174 851.780556 L 271.700765 851.950429 L 272.790326 842.868893 L 239.04692 838.827839 L 238.885358 840.044192 C 243.545286 840.597099 244.250636 842.742262 244.025139 844.593103 L 240.218337 876.485506 C 239.99284 878.336347 238.789432 880.244507 234.158286 879.697902 L 234.014276 880.903018 Z M 268.334734 884.995029 " transform="matrix(0.15785,0.101131,-0.101068,0.157948,207.615814,69.64265)"/>
<path style="fill-rule:nonzero;fill:rgb(100%,82.352941%,0%);fill-opacity:1;stroke-width:1.25;stroke-linecap:butt;stroke-linejoin:miter;stroke:rgb(0%,0%,0%);stroke-opacity:1;stroke-miterlimit:4;" d="M 230.870474 843.007301 C 231.093151 841.176336 232.281964 839.245349 236.926037 839.796108 L 237.063411 838.594433 L 224.421086 837.084473 L 206.553809 867.493762 L 195.694048 833.650417 L 183.110528 832.144252 L 182.973155 833.345927 C 188.056356 833.95456 188.757325 836.110879 188.54839 837.957494 L 184.742444 869.850245 C 184.51785 871.710612 183.315294 873.625949 178.100738 872.994074 L 177.963365 874.195749 L 193.095357 876.014055 L 193.23273 874.81238 C 188.018174 874.180505 187.317205 872.024186 187.539883 870.193221 L 191.065004 840.570563 L 202.881437 877.177243 L 203.759692 877.292989 L 224.355512 843.073904 L 220.632625 874.145304 C 220.42369 875.991919 219.221135 877.907256 214.577061 877.356497 L 214.439687 878.558172 L 232.106408 880.672969 L 232.259441 879.457542 C 227.615367 878.906782 226.898739 876.764215 227.137077 874.919498 Z M 230.870474 843.007301 " transform="matrix(0.140836,0.123755,-0.123679,0.140924,230.469705,78.382783)"/>
<path style="fill-rule:nonzero;fill:rgb(100%,82.352941%,0%);fill-opacity:1;stroke-width:1.25;stroke-linecap:butt;stroke-linejoin:miter;stroke:rgb(0%,0%,0%);stroke-opacity:1;stroke-miterlimit:4;" d="M 278.850075 881.110655 C 278.619476 882.941553 277.443459 884.87 272.99159 884.335804 L 272.830347 885.536976 L 290.3056 887.623558 L 290.466843 886.422386 C 285.829424 885.870606 285.107974 883.715548 285.331062 881.865224 L 287.044643 867.514398 L 290.620893 867.806535 L 303.40232 889.192252 L 313.639365 890.415074 L 313.773659 889.20199 C 310.951092 888.663131 309.636772 887.228545 308.16252 884.917927 L 297.43454 867.918902 C 303.51173 867.8024 309.419258 865.339843 310.218398 858.622154 C 311.115168 851.174489 305.20008 846.739975 294.638323 845.48638 L 277.858882 843.465741 L 277.724588 844.678824 C 282.176457 845.21302 282.870958 847.356166 282.667309 849.198975 Z M 289.097935 850.285635 C 289.465921 847.307448 290.03008 847.379629 294.169165 847.85611 C 299.888515 848.547855 304.04794 851.5621 303.281047 857.84305 C 302.476164 864.719269 296.583206 865.948039 287.323834 865.173451 Z M 289.097935 850.285635 " transform="matrix(0.174824,0.0676308,-0.0675889,0.174932,174.522375,64.611979)"/>
<path style="fill-rule:nonzero;fill:rgb(100%,82.352941%,0%);fill-opacity:1;stroke-width:1.25;stroke-linecap:butt;stroke-linejoin:miter;stroke:rgb(0%,0%,0%);stroke-opacity:1;stroke-miterlimit:4;" d="M 406.460518 857.936683 L 405.18924 857.770061 L 388.641795 886.866371 C 385.307297 892.718957 383.098192 897.155259 379.117636 897.009465 L 378.971751 898.217472 L 391.559481 899.717067 L 391.705365 898.50906 C 389.537941 898.259127 387.45388 897.426019 387.703968 895.32242 C 387.974895 892.968889 391.18435 888.199344 392.309743 885.887468 L 408.961391 887.866101 L 410.586959 893.552065 C 412.33757 899.487962 412.254208 900.716797 406.814808 900.321071 L 406.668924 901.529078 L 422.88292 903.466055 L 423.028804 902.258048 C 419.444219 902.028943 418.568913 898.05085 417.735289 895.301593 L 406.481358 857.936683 Z M 403.084339 866.809287 L 408.377854 885.158498 L 393.685223 883.408971 Z M 403.084339 866.809287 " transform="matrix(0.187435,0,0,0.187551,109.88558,77.405933)"/>
<path style="fill-rule:nonzero;fill:rgb(100%,82.352941%,0%);fill-opacity:1;stroke-width:1.25;stroke-linecap:butt;stroke-linejoin:miter;stroke:rgb(0%,0%,0%);stroke-opacity:1;stroke-miterlimit:4;" d="M 159.325441 828.398811 L 158.055713 828.264672 L 141.498732 857.358797 C 138.148996 863.196886 135.94649 867.647921 131.972958 867.486582 L 131.827178 868.698773 L 144.418811 870.19514 L 144.552853 869.00017 C 142.388924 868.73567 140.311961 867.899892 140.55964 865.798712 C 140.838664 863.466675 144.044217 858.69053 145.166612 856.378535 L 161.809158 858.366441 L 163.44774 864.023538 C 165.18718 869.976396 165.116505 871.189342 159.689414 870.793767 L 159.543633 872.005957 L 175.741814 873.943158 L 175.887595 872.730967 C 172.307599 872.510015 171.419713 868.524913 170.587885 865.788707 L 159.330911 828.427762 Z M 155.93749 837.287995 L 161.237065 855.655965 L 146.556609 853.895853 Z M 155.93749 837.287995 " transform="matrix(0.105578,0.154967,-0.154872,0.105644,263.497542,103.443212)"/>
<path style="fill-rule:nonzero;fill:rgb(100%,82.352941%,0%);fill-opacity:1;stroke-width:1.25;stroke-linecap:butt;stroke-linejoin:miter;stroke:rgb(0%,0%,0%);stroke-opacity:1;stroke-miterlimit:4;" d="M 612.488404 920.944668 C 612.25773 922.790204 611.063215 924.709176 606.623126 924.184601 L 606.461334 925.384945 L 623.941418 927.480732 L 624.089402 926.264777 C 619.459057 925.713716 618.733614 923.573092 618.964288 921.727555 L 620.682528 907.353945 L 624.251138 907.647689 L 637.026422 929.039958 L 647.267802 930.276323 L 647.415786 929.060368 C 644.570916 928.516031 643.271269 927.078015 641.788391 924.772628 L 631.077975 907.758489 C 637.135363 907.659506 643.042214 905.189653 643.851017 898.464685 C 644.732292 891.035707 638.819787 886.582795 628.270518 885.312694 L 611.492642 883.319226 L 611.344658 884.535181 C 615.800349 885.045958 616.510189 887.20038 616.279516 889.045916 Z M 622.735663 890.152306 C 623.095131 887.163431 623.667694 887.21348 627.784293 887.718118 C 633.51296 888.410672 637.669095 891.412178 636.916614 897.697818 C 636.098839 904.569832 630.208533 905.800869 620.957512 905.024061 Z M 622.735663 890.152306 " transform="matrix(0.124175,-0.140487,0.1404,0.124252,20.983513,204.769317)"/>
<path style="fill-rule:nonzero;fill:rgb(100%,82.352941%,0%);fill-opacity:1;stroke-width:1.25;stroke-linecap:butt;stroke-linejoin:miter;stroke:rgb(0%,0%,0%);stroke-opacity:1;stroke-miterlimit:4;" d="M 676.54612 890.194632 L 675.271379 890.044944 L 658.724136 919.131754 C 655.373024 924.977049 653.172319 929.419693 649.202597 929.266131 L 649.04145 930.476445 L 661.631052 931.989526 L 661.782072 930.760998 C 659.617038 930.510171 657.520463 929.69669 657.772119 927.577631 C 658.060056 925.223794 661.272199 920.457257 662.391717 918.141821 L 679.040261 920.140382 L 680.670309 925.815347 C 682.423933 931.755437 682.337651 932.971818 676.902951 932.583576 L 676.760009 933.783769 L 692.967443 935.717592 L 693.110386 934.517399 C 689.51896 934.272736 688.644591 930.299839 687.815465 927.565577 L 676.556247 890.212846 Z M 673.160375 899.063664 L 678.45393 917.4142 L 663.784286 915.674574 Z M 673.160375 899.063664 " transform="matrix(0.0910801,-0.163919,0.163818,0.0911365,20.831691,250.867386)"/>
<path style="fill-rule:evenodd;fill:rgb(100%,82.352941%,0%);fill-opacity:1;stroke-width:1.25;stroke-linecap:butt;stroke-linejoin:miter;stroke:rgb(0%,0%,0%);stroke-opacity:1;stroke-miterlimit:4;" d="M 186.491038 676.036514 C 186.491038 670.97538 182.197872 666.872322 176.925197 666.872322 C 171.631682 666.872322 167.338516 670.97538 167.338516 676.036514 C 167.338516 681.097647 171.631682 685.200706 176.925197 685.200706 C 182.197872 685.200706 186.491038 681.097647 186.491038 676.036514 Z M 186.491038 676.036514 " transform="matrix(0.187435,0,0,0.187551,110.353735,80.060487)"/>
<path style="fill-rule:evenodd;fill:rgb(100%,82.352941%,0%);fill-opacity:1;stroke-width:1.25;stroke-linecap:butt;stroke-linejoin:miter;stroke:rgb(0%,0%,0%);stroke-opacity:1;stroke-miterlimit:4;" d="M 186.491719 676.043831 C 186.491719 670.982697 182.198553 666.879639 176.925878 666.879639 C 171.632363 666.879639 167.339197 670.982697 167.339197 676.043831 C 167.339197 681.104964 171.632363 685.208023 176.925878 685.208023 C 182.198553 685.208023 186.491719 681.104964 186.491719 676.043831 Z M 186.491719 676.043831 " transform="matrix(0.187435,0,0,0.187551,206.326264,82.246615)"/>
</g>
</svg>
