<?xml version="1.0" encoding="UTF-8"?>
<svg xmlns="http://www.w3.org/2000/svg" xmlns:xlink="http://www.w3.org/1999/xlink" width="384pt" height="384pt" viewBox="0 0 384 384" version="1.1">
<g id="surface1">
<rect x="0" y="0" width="384" height="384" style="fill:rgb(100%,100%,100%);fill-opacity:1;stroke:none;"/>
<path style=" stroke:none;fill-rule:evenodd;fill:rgb(100%,100%,100%);fill-opacity:1;" d="M -52.5 0.117188 L 472.304688 0.117188 L 472.304688 384 L -52.5 384 Z M -52.5 0.117188 "/>
<path style=" stroke:none;fill-rule:evenodd;fill:rgb(84.313725%,15.686275%,15.686275%);fill-opacity:1;" d="M -74.410156 -17.277344 L 92.796875 -17.277344 L 92.796875 148.824219 L -74.410156 148.824219 Z M -74.410156 -17.277344 "/>
<path style=" stroke:none;fill-rule:evenodd;fill:rgb(84.313725%,15.686275%,15.686275%);fill-opacity:1;" d="M 185.566406 -17.277344 L 471.246094 -17.277344 L 471.246094 148.824219 L 185.566406 148.824219 Z M 185.566406 -17.277344 "/>
<path style=" stroke:none;fill-rule:evenodd;fill:rgb(84.313725%,15.686275%,15.686275%);fill-opacity:1;" d="M -74.410156 241.253906 L 90.589844 241.253906 L 90.589844 410.574219 L -74.410156 410.574219 Z M -74.410156 241.253906 "/>
<path style=" stroke:none;fill-rule:evenodd;fill:rgb(84.313725%,15.686275%,15.686275%);fill-opacity:1;" d="M 187.5 242.84375 L 502.261719 242.84375 L 502.261719 410.578125 L 187.5 410.578125 Z M 187.5 242.84375 "/>
<path style=" stroke:none;fill-rule:evenodd;fill:rgb(0%,21.960784%,59.215686%);fill-opacity:1;" d="M 115.988281 -17.277344 L 164.304688 -17.277344 L 164.304688 391.972656 L 115.988281 391.972656 Z M 115.988281 -17.277344 "/>
<path style=" stroke:none;fill-rule:evenodd;fill:rgb(0%,21.960784%,59.215686%);fill-opacity:1;" d="M -74.410156 168.628906 L 483.65625 168.628906 L 483.65625 216.214844 L -74.410156 216.214844 Z M -74.410156 168.628906 "/>
</g>
</svg>
