<?xml version="1.0" encoding="UTF-8"?>
<svg xmlns="http://www.w3.org/2000/svg" xmlns:xlink="http://www.w3.org/1999/xlink" width="384pt" height="384pt" viewBox="0 0 384 384" version="1.1">
<g id="surface1">
<rect x="0" y="0" width="384" height="384" style="fill:rgb(100%,100%,100%);fill-opacity:1;stroke:none;"/>
<path style="fill-rule:evenodd;fill:rgb(80.784314%,0%,0%);fill-opacity:1;stroke-width:12.431;stroke-linecap:butt;stroke-linejoin:miter;stroke:rgb(0%,0%,38.823529%);stroke-opacity:1;stroke-miterlimit:4;" d="M 6.273075 489.832247 L 369.373591 489.822262 L 131.713427 248.812029 L 378.320421 249.101602 L 6.293046 11.481379 Z M 6.273075 489.832247 " transform="matrix(0.7824,0,0,0.7824,-0.00180382,-4.11975)"/>
<path style=" stroke:none;fill-rule:evenodd;fill:rgb(100%,100%,100%);fill-opacity:1;" d="M 135.554688 278.820312 L 115.3125 285.523438 L 131.144531 300.417969 L 109.816406 299.046875 L 118.605469 318.722656 L 99.441406 309.503906 L 99.835938 330.953125 L 85.746094 315.277344 L 77.691406 335.25 L 70.828125 315.511719 L 55.554688 330.953125 L 56.953125 310.152344 L 36.789062 318.722656 L 46.238281 300.035156 L 24.238281 300.417969 L 40.3125 286.675781 L 19.839844 278.820312 L 40.078125 272.128906 L 24.238281 257.230469 L 45.566406 258.59375 L 36.789062 238.929688 L 55.949219 248.144531 L 55.554688 226.6875 L 69.644531 242.363281 L 77.691406 222.398438 L 84.5625 242.136719 L 99.835938 226.6875 L 98.433594 247.488281 L 118.605469 238.929688 L 109.152344 257.617188 L 131.144531 257.230469 L 115.074219 270.972656 Z M 135.554688 278.820312 "/>
<path style=" stroke:none;fill-rule:evenodd;fill:rgb(100%,100%,100%);fill-opacity:1;" d="M 111.238281 140.3125 L 102.742188 146.601562 L 106.929688 150.0625 C 117.101562 142.199219 124.339844 135.015625 129.996094 123.09375 C 131.320312 139.007812 116.734375 174.734375 78.449219 175.128906 C 37.472656 175.09375 23.253906 137.1875 24.835938 122.421875 C 32.363281 136.078125 36.957031 142.738281 48.773438 149.847656 L 52.386719 146.527344 L 44.386719 139.859375 L 54.6875 137.183594 L 49.144531 127.851562 L 59.9375 128.636719 L 58.582031 117.773438 L 68.042969 123.3125 L 71.003906 113.199219 L 77.804688 121.34375 L 84.171875 113.621094 L 87.640625 124.113281 L 96.480469 117.960938 L 95.347656 128.632812 L 105.949219 127.390625 L 100.980469 137.253906 L 111.242188 140.3125 Z M 111.238281 140.3125 "/>
</g>
</svg>
