<?xml version="1.0" encoding="UTF-8"?>
<svg xmlns="http://www.w3.org/2000/svg" xmlns:xlink="http://www.w3.org/1999/xlink" width="384pt" height="384pt" viewBox="0 0 384 384" version="1.1">
<g id="surface1">
<rect x="0" y="0" width="384" height="384" style="fill:rgb(100%,100%,100%);fill-opacity:1;stroke:none;"/>
<path style="fill-rule:evenodd;fill:rgb(3.137255%,23.921569%,61.176471%);fill-opacity:1;stroke-width:2.5;stroke-linecap:butt;stroke-linejoin:miter;stroke:rgb(3.137255%,23.921569%,61.176471%);stroke-opacity:1;stroke-miterlimit:4;" d="M 210.432292 363.46875 C 210.432292 363.46875 221.989583 354.09375 233.239583 354.09375 C 244.489583 354.09375 247.614583 361.90625 255.432292 362.53125 C 263.244792 363.15625 269.802083 354.71875 279.489583 354.40625 C 289.177083 354.09375 301.364583 361.28125 301.364583 361.28125 L 258.869792 374.09375 Z M 210.432292 363.46875 " transform="matrix(0.75,0,0,0.75,0,0)"/>
<path style="fill-rule:evenodd;fill:rgb(3.137255%,23.921569%,61.176471%);fill-opacity:1;stroke-width:2.5;stroke-linecap:butt;stroke-linejoin:miter;stroke:rgb(3.137255%,23.921569%,61.176471%);stroke-opacity:1;stroke-miterlimit:4;" d="M 186.0625 349.71875 L 330.432292 350.34375 C 330.432292 350.34375 317.932292 336.90625 303.244792 336.598958 C 288.557292 336.28125 292.619792 342.84375 281.369792 343.78125 C 270.119792 344.71875 267.307292 336.90625 256.994792 337.21875 C 246.682292 337.53125 240.744792 343.78125 232.932292 344.09375 C 225.119792 344.40625 215.119792 336.28125 209.182292 336.598958 C 203.244792 336.90625 181.994792 345.96875 181.994792 345.96875 L 186.057292 349.71875 Z M 186.0625 349.71875 " transform="matrix(0.75,0,0,0.75,0,0)"/>
<path style="fill-rule:evenodd;fill:rgb(3.137255%,23.921569%,61.176471%);fill-opacity:1;stroke-width:2.5;stroke-linecap:butt;stroke-linejoin:miter;stroke:rgb(3.137255%,23.921569%,61.176471%);stroke-opacity:1;stroke-miterlimit:4;" d="M 167.619792 332.53125 L 345.739583 333.15625 C 348.552083 329.09375 336.989583 319.40625 326.364583 318.46875 C 317.614583 318.78125 311.364583 327.53125 304.177083 327.84375 C 296.989583 328.15625 288.864583 318.78125 280.739583 319.09375 C 272.614583 319.40625 264.177083 327.84375 256.052083 327.84375 C 247.927083 327.84375 241.989583 318.78125 231.677083 318.78125 C 221.364583 318.78125 216.677083 328.78125 208.864583 328.15625 C 201.052083 327.53125 194.177083 318.15625 186.677083 318.15625 C 179.177083 318.15625 166.677083 329.40625 164.182292 328.78125 C 161.682292 328.15625 167.302083 333.46875 167.619792 332.53125 Z M 167.619792 332.53125 " transform="matrix(0.75,0,0,0.75,0,0)"/>
<path style="fill-rule:evenodd;fill:rgb(100%,0%,0%);fill-opacity:1;stroke-width:2.5;stroke-linecap:butt;stroke-linejoin:round;stroke:rgb(0%,0%,0%);stroke-opacity:1;stroke-miterlimit:4;" d="M 236.0625 233.46875 L 277 244.40625 L 277 185.96875 C 258.244792 186.90625 242.625 150.34375 275.75 147.84375 C 243.25 143.15625 239.5 151.59375 235.75 160.65625 L 236.057292 233.46875 Z M 236.0625 233.46875 " transform="matrix(0.75,0,0,0.75,0,0)"/>
<path style="fill-rule:evenodd;fill:rgb(3.137255%,23.921569%,61.176471%);fill-opacity:1;stroke-width:4.9999;stroke-linecap:round;stroke-linejoin:miter;stroke:rgb(3.137255%,23.921569%,61.176471%);stroke-opacity:1;stroke-miterlimit:4;" d="M 210.119792 275.96875 L 302.619792 276.28125 " transform="matrix(0.75,0,0,0.75,0,0)"/>
<path style="fill:none;stroke-width:2;stroke-linecap:round;stroke-linejoin:miter;stroke:rgb(0%,0%,0%);stroke-opacity:1;stroke-miterlimit:4;" d="M 171.25 126.890647 L 176.71875 134.234397 " transform="matrix(1.5,0,0,1.5,-96,-0.000033033)"/>
<path style="fill:none;stroke-width:2;stroke-linecap:round;stroke-linejoin:miter;stroke:rgb(0%,0%,0%);stroke-opacity:1;stroke-miterlimit:4;" d="M 171.25 134.239605 L 177.1875 127.052105 " transform="matrix(1.5,0,0,1.5,-96,-0.000033033)"/>
<path style="fill:none;stroke-width:2;stroke-linecap:round;stroke-linejoin:miter;stroke:rgb(0%,0%,0%);stroke-opacity:1;stroke-miterlimit:4;" d="M 174.380208 126.419293 L 174.223958 130.950543 " transform="matrix(1.5,0,0,1.5,-96,-0.000033033)"/>
<path style="fill:none;stroke-width:2;stroke-linecap:round;stroke-linejoin:miter;stroke:rgb(0%,0%,0%);stroke-opacity:1;stroke-miterlimit:4;" d="M 171.25 126.890647 L 176.71875 134.234397 " transform="matrix(1.5,0,0,1.5,-82.875,-0.000033033)"/>
<path style="fill:none;stroke-width:2;stroke-linecap:round;stroke-linejoin:miter;stroke:rgb(0%,0%,0%);stroke-opacity:1;stroke-miterlimit:4;" d="M 171.25 134.239605 L 177.1875 127.052105 " transform="matrix(1.5,0,0,1.5,-82.875,-0.000033033)"/>
<path style="fill:none;stroke-width:2;stroke-linecap:round;stroke-linejoin:miter;stroke:rgb(0%,0%,0%);stroke-opacity:1;stroke-miterlimit:4;" d="M 174.380208 126.419293 L 174.223958 130.950543 " transform="matrix(1.5,0,0,1.5,-82.875,-0.000033033)"/>
<path style="fill:none;stroke-width:2;stroke-linecap:round;stroke-linejoin:miter;stroke:rgb(0%,0%,0%);stroke-opacity:1;stroke-miterlimit:4;" d="M 171.25025 126.890647 L 176.719 134.234397 " transform="matrix(1.5,0,0,1.5,-69.516,-0.000033033)"/>
<path style="fill:none;stroke-width:2;stroke-linecap:round;stroke-linejoin:miter;stroke:rgb(0%,0%,0%);stroke-opacity:1;stroke-miterlimit:4;" d="M 171.25025 134.239605 L 177.18775 127.052105 " transform="matrix(1.5,0,0,1.5,-69.516,-0.000033033)"/>
<path style="fill:none;stroke-width:2;stroke-linecap:round;stroke-linejoin:miter;stroke:rgb(0%,0%,0%);stroke-opacity:1;stroke-miterlimit:4;" d="M 174.380458 126.419293 L 174.224208 130.950543 " transform="matrix(1.5,0,0,1.5,-69.516,-0.000033033)"/>
<path style="fill:none;stroke-width:2;stroke-linecap:round;stroke-linejoin:miter;stroke:rgb(0%,0%,0%);stroke-opacity:1;stroke-miterlimit:4;" d="M 171.2505 126.890647 L 176.71925 134.234397 " transform="matrix(1.5,0,0,1.5,-55.68825,-0.000033033)"/>
<path style="fill:none;stroke-width:2;stroke-linecap:round;stroke-linejoin:miter;stroke:rgb(0%,0%,0%);stroke-opacity:1;stroke-miterlimit:4;" d="M 171.2505 134.239605 L 177.188 127.052105 " transform="matrix(1.5,0,0,1.5,-55.68825,-0.000033033)"/>
<path style="fill:none;stroke-width:2;stroke-linecap:round;stroke-linejoin:miter;stroke:rgb(0%,0%,0%);stroke-opacity:1;stroke-miterlimit:4;" d="M 174.380708 126.419293 L 174.224458 130.950543 " transform="matrix(1.5,0,0,1.5,-55.68825,-0.000033033)"/>
<path style="fill:none;stroke-width:2;stroke-linecap:round;stroke-linejoin:miter;stroke:rgb(0%,0%,0%);stroke-opacity:1;stroke-miterlimit:4;" d="M 171.25075 126.890647 L 176.7195 134.234397 " transform="matrix(1.5,0,0,1.5,-42.32925,-0.000033033)"/>
<path style="fill:none;stroke-width:2;stroke-linecap:round;stroke-linejoin:miter;stroke:rgb(0%,0%,0%);stroke-opacity:1;stroke-miterlimit:4;" d="M 171.25075 134.239605 L 177.18825 127.052105 " transform="matrix(1.5,0,0,1.5,-42.32925,-0.000033033)"/>
<path style="fill:none;stroke-width:2;stroke-linecap:round;stroke-linejoin:miter;stroke:rgb(0%,0%,0%);stroke-opacity:1;stroke-miterlimit:4;" d="M 174.380958 126.419293 L 174.224708 130.950543 " transform="matrix(1.5,0,0,1.5,-42.32925,-0.000033033)"/>
<path style=" stroke:none;fill-rule:evenodd;fill:rgb(93.72549%,49.019608%,3.137255%);fill-opacity:1;" d="M 110.949219 207.683594 L 140.476562 207.917969 L 140.476562 189.402344 L 106.726562 187.761719 Z M 110.949219 207.683594 "/>
<path style=" stroke:none;fill-rule:evenodd;fill:rgb(93.72549%,49.019608%,3.137255%);fill-opacity:1;" d="M 109.546875 182.136719 L 140.953125 185.183594 L 140.71875 172.058594 L 110.015625 159.871094 L 109.542969 182.136719 Z M 109.546875 182.136719 "/>
<path style=" stroke:none;fill-rule:evenodd;fill:rgb(93.72549%,49.019608%,3.137255%);fill-opacity:1;" d="M 115.875 155.886719 L 140.015625 167.605469 L 143.464844 164.007812 C 143.464844 164.007812 141.242188 162.476562 141.351562 161.070312 C 141.394531 159.644531 143.585938 159.429688 143.628906 157.886719 C 143.667969 156.460938 141.144531 156.289062 141.117188 154.867188 C 140.953125 153.324219 143.0625 151.667969 143.0625 151.667969 L 121.265625 132.683594 Z M 115.875 155.886719 "/>
<path style=" stroke:none;fill-rule:evenodd;fill:rgb(93.72549%,49.019608%,3.137255%);fill-opacity:1;" d="M 274.304688 207.914062 L 243.132812 207.914062 L 242.898438 189.867188 L 277.117188 187.289062 Z M 274.304688 207.914062 "/>
<path style=" stroke:none;fill-rule:evenodd;fill:rgb(93.72549%,49.019608%,3.137255%);fill-opacity:1;" d="M 243.367188 185.648438 L 280.398438 181.195312 L 272.429688 159.867188 L 243.132812 172.289062 Z M 243.367188 185.648438 "/>
<path style=" stroke:none;fill-rule:evenodd;fill:rgb(93.72549%,49.019608%,3.137255%);fill-opacity:1;" d="M 270.324219 154.011719 L 243.605469 168.074219 C 243.214844 166.550781 242.882812 165.085938 241.027344 163.855469 C 241.027344 163.855469 242.667969 162.917969 242.667969 161.277344 C 242.667969 159.636719 240.558594 159.402344 240.558594 158.464844 C 240.558594 157.527344 242.492188 156.707031 242.605469 154.597656 C 242.375 153.132812 240.558594 151.082031 240.910156 150.671875 L 261.652344 134.792969 Z M 270.324219 154.011719 "/>
<path style=" stroke:none;fill-rule:evenodd;fill:rgb(93.72549%,49.019608%,3.137255%);fill-opacity:1;" d="M 212.4375 185.296875 L 225.796875 184.710938 L 226.03125 179.316406 Z M 212.4375 185.296875 "/>
<path style=" stroke:none;fill-rule:evenodd;fill:rgb(93.72549%,49.019608%,3.137255%);fill-opacity:1;" d="M 171.652344 184.890625 L 157.589844 184.480469 L 157.589844 178.855469 Z M 171.652344 184.890625 "/>
<path style=" stroke:none;fill-rule:evenodd;fill:rgb(93.72549%,49.019608%,3.137255%);fill-opacity:1;" d="M 171.59375 183.246094 L 157.589844 176.039062 L 157.589844 166.664062 C 157.589844 166.664062 155.949219 166.898438 156.183594 165.023438 C 156.257812 161.117188 166.472656 172.152344 171.710938 175.746094 Z M 171.59375 183.246094 "/>
<path style=" stroke:none;fill-rule:evenodd;fill:rgb(93.72549%,49.019608%,3.137255%);fill-opacity:1;" d="M 212.429688 182.371094 L 212.371094 176.277344 C 212.371094 176.277344 225.027344 164.851562 227.722656 162.742188 C 227.722656 165.085938 226.257812 166.902344 226.257812 166.902344 L 226.257812 175.808594 Z M 212.429688 182.371094 "/>
<path style=" stroke:none;fill-rule:evenodd;fill:rgb(93.72549%,49.019608%,3.137255%);fill-opacity:1;" d="M 130.402344 131.039062 C 130.636719 131.273438 144.601562 146.796875 144.601562 146.796875 C 144.992188 145.324219 148.214844 145.101562 151.496094 145.335938 C 154.777344 145.570312 157.394531 145.117188 157.394531 147.460938 C 157.394531 149.804688 155.726562 149.472656 155.726562 151.113281 C 155.726562 152.753906 158.222656 152.617188 158.222656 154.722656 C 158.222656 156.832031 156.414062 156.402344 156.402344 158.035156 C 156.398438 159.386719 158.292969 159.457031 158.292969 159.457031 L 171.59375 172.347656 L 171.648438 158.578125 L 144.230469 115.570312 Z M 130.402344 131.039062 "/>
<path style=" stroke:none;fill-rule:evenodd;fill:rgb(93.72549%,49.019608%,3.137255%);fill-opacity:1;" d="M 152.347656 114.757812 C 152.554688 115.382812 170.921875 152.738281 170.921875 152.738281 C 170.921875 152.738281 171.128906 117.679688 174.257812 115.800781 L 169.042969 106.199219 Z M 152.347656 114.757812 "/>
<path style=" stroke:none;fill-rule:evenodd;fill:rgb(93.72549%,49.019608%,3.137255%);fill-opacity:1;" d="M 233.109375 116.21875 L 212.371094 153.214844 L 212.394531 137.625 C 212.394531 137.625 214.117188 135 211.402344 135.210938 C 208.691406 135.417969 205.351562 135 205.351562 135 L 213.699219 105.785156 L 233.105469 116.21875 Z M 233.109375 116.21875 "/>
<path style=" stroke:none;fill-rule:evenodd;fill:rgb(93.72549%,49.019608%,3.137255%);fill-opacity:1;" d="M 254.390625 132.074219 C 254.183594 132.492188 240.402344 146.507812 240.402344 146.507812 C 239.777344 144.839844 235.609375 145.640625 231.644531 145.640625 C 227.679688 145.640625 227.128906 146.910156 227.335938 147.953125 C 227.753906 150.667969 229.09375 148.667969 229.09375 151.171875 C 229.09375 153.675781 227.164062 152.761719 226.992188 154.597656 C 227.183594 156.703125 230.019531 156.179688 228.359375 157.777344 L 212.402344 173.097656 L 212.445312 158.578125 L 242.078125 112.457031 L 254.394531 132.074219 Z M 254.390625 132.074219 "/>
<path style="fill-rule:evenodd;fill:rgb(100%,0%,0%);fill-opacity:1;stroke-width:2.5;stroke-linecap:butt;stroke-linejoin:round;stroke:rgb(0%,0%,0%);stroke-opacity:1;stroke-miterlimit:4;" d="M 245.140625 286.291667 C 236.234375 301.036458 212.432292 296.661458 206.864583 286.369792 C 205.197917 285.895833 206.182292 222.848958 206.182292 222.848958 C 206.182292 222.848958 203.526042 221.635417 203.401042 219.697917 C 203.28125 217.739583 207.020833 217.5625 207.020833 215.057292 C 207.020833 212.552083 203.203125 213.53125 203.125 211.015625 C 203.140625 208.604167 207.197917 208.9375 207.020833 206.708333 C 206.802083 204.197917 202.473958 204.567708 202.286458 202.255208 C 202.145833 200.416667 205.385417 198.8125 206.286458 197.989583 C 205.703125 198.015625 203.276042 197.953125 203.260417 197.942708 C 200.989583 197.989583 198.71875 198.036458 196.442708 198.083333 C 191.598958 198.088542 196.526042 199.140625 196.458333 201.932292 C 196.411458 203.760417 194 204.973958 193.786458 206.5625 C 193.708333 208.192708 197.234375 209.338542 197.28125 211.291667 C 197.322917 213.036458 193.8125 213.15625 193.942708 214.776042 C 194.15625 217.520833 197.046875 218.125 197.005208 219.786458 C 196.958333 221.447917 193.114583 222.078125 193.109375 223.40625 C 193.239583 225.963542 193.661458 288.234375 193.661458 288.234375 C 199.786458 319.958333 235.125 328.026042 245.140625 286.291667 Z M 245.140625 286.291667 " transform="matrix(0.75,0,0,0.75,0,0)"/>
<path style="fill-rule:evenodd;fill:rgb(100%,0%,0%);fill-opacity:1;stroke-width:2.5;stroke-linecap:butt;stroke-linejoin:round;stroke:rgb(0%,0%,0%);stroke-opacity:1;stroke-miterlimit:4;" d="M 268.4375 286.291667 C 277.34375 301.036458 301.145833 296.661458 306.713542 286.369792 C 308.380208 285.895833 307.395833 222.848958 307.395833 222.848958 C 307.395833 222.848958 310.057292 221.635417 310.177083 219.697917 C 310.296875 217.739583 306.796875 217.5625 306.796875 215.057292 C 306.796875 212.552083 310.380208 213.53125 310.453125 211.015625 C 310.4375 208.604167 306.692708 208.78125 306.875 206.552083 C 307.088542 204.041667 310.03125 204.333333 310.197917 202.020833 C 310.338542 200.026042 308.348958 198.8125 307.447917 197.989583 C 308.03125 198.015625 310.302083 197.953125 310.317708 197.942708 C 312.588542 197.989583 314.864583 198.036458 317.135417 198.083333 C 321.979167 198.088542 317.052083 199.140625 317.125 201.932292 C 317.166667 203.760417 319.578125 204.973958 319.796875 206.5625 C 319.869792 208.192708 316.34375 209.338542 316.296875 211.291667 C 316.260417 213.036458 319.765625 213.15625 319.640625 214.776042 C 319.421875 217.520833 316.53125 218.125 316.578125 219.786458 C 316.619792 221.447917 320.463542 222.078125 320.473958 223.40625 C 320.338542 225.963542 319.916667 288.234375 319.916667 288.234375 C 313.796875 319.958333 278.458333 328.026042 268.4375 286.291667 Z M 268.4375 286.291667 " transform="matrix(0.75,0,0,0.75,0,0)"/>
<path style="fill-rule:evenodd;fill:rgb(3.137255%,23.921569%,61.176471%);fill-opacity:1;stroke-width:2.5;stroke-linecap:butt;stroke-linejoin:miter;stroke:rgb(3.137255%,23.921569%,61.176471%);stroke-opacity:1;stroke-miterlimit:4;" d="M 236.489583 315.302083 L 276.25 315.276042 C 276.5625 314.963542 267.348958 301.546875 256.375 302.489583 C 244.15625 302.8125 235.848958 315.302083 236.489583 315.302083 Z M 236.489583 315.302083 " transform="matrix(0.75,0,0,0.75,0,0)"/>
<path style="fill-rule:evenodd;fill:rgb(3.137255%,23.921569%,61.176471%);fill-opacity:1;stroke-width:2.5;stroke-linecap:butt;stroke-linejoin:miter;stroke:rgb(3.137255%,23.921569%,61.176471%);stroke-opacity:1;stroke-miterlimit:4;" d="M 363.28125 314.328125 L 308.869792 314.328125 C 308.869792 314.328125 315.911458 310.166667 317.833333 306.328125 C 321.354167 308.25 320.390625 310.166667 327.4375 310.489583 C 334.473958 310.807292 341.197917 302.489583 347.916667 302.807292 C 354.640625 303.130208 363.28125 314.651042 363.28125 314.328125 Z M 363.28125 314.328125 " transform="matrix(0.75,0,0,0.75,0,0)"/>
<path style="fill-rule:evenodd;fill:rgb(3.137255%,23.921569%,61.176471%);fill-opacity:1;stroke-width:2.5;stroke-linecap:butt;stroke-linejoin:miter;stroke:rgb(3.137255%,23.921569%,61.176471%);stroke-opacity:1;stroke-miterlimit:4;" d="M 148.869792 314.328125 L 203.28125 314.328125 C 203.28125 314.328125 196.234375 310.166667 194.317708 306.328125 C 190.796875 308.25 191.755208 310.166667 184.713542 310.489583 C 177.677083 310.807292 170.953125 302.489583 164.229167 302.807292 C 157.510417 303.130208 148.869792 314.651042 148.869792 314.328125 Z M 148.869792 314.328125 " transform="matrix(0.75,0,0,0.75,0,0)"/>
<path style="fill-rule:evenodd;fill:rgb(3.137255%,23.921569%,61.176471%);fill-opacity:1;stroke-width:2.5;stroke-linecap:butt;stroke-linejoin:miter;stroke:rgb(3.137255%,23.921569%,61.176471%);stroke-opacity:1;stroke-miterlimit:4;" d="M 152.932292 297.21875 L 191.677083 297.53125 C 191.677083 297.53125 189.177083 292.21875 188.869792 285.65625 C 178.864583 282.223958 170.739583 293.15625 163.552083 293.46875 C 156.369792 293.78125 148.869792 285.65625 148.869792 285.65625 Z M 152.932292 297.21875 " transform="matrix(0.75,0,0,0.75,0,0)"/>
<path style="fill-rule:evenodd;fill:rgb(3.137255%,23.921569%,61.176471%);fill-opacity:1;stroke-width:2.5;stroke-linecap:butt;stroke-linejoin:miter;stroke:rgb(3.137255%,23.921569%,61.176471%);stroke-opacity:1;stroke-miterlimit:4;" d="M 359.8125 297.21875 L 321.0625 297.53125 C 321.0625 297.53125 323.5625 292.21875 323.875 285.65625 C 333.875 282.223958 342 293.15625 349.1875 293.46875 C 356.369792 293.78125 363.869792 285.65625 363.869792 285.65625 Z M 359.8125 297.21875 " transform="matrix(0.75,0,0,0.75,0,0)"/>
<path style="fill-rule:evenodd;fill:rgb(3.137255%,23.921569%,61.176471%);fill-opacity:1;stroke-width:2.5;stroke-linecap:butt;stroke-linejoin:miter;stroke:rgb(3.137255%,23.921569%,61.176471%);stroke-opacity:1;stroke-miterlimit:4;" d="M 246.369792 297.53125 L 266.057292 296.90625 C 266.057292 296.90625 266.369792 290.96875 256.057292 290.96875 C 245.744792 290.96875 246.682292 297.84375 246.369792 297.53125 Z M 246.369792 297.53125 " transform="matrix(0.75,0,0,0.75,0,0)"/>
<path style="fill-rule:evenodd;fill:rgb(3.137255%,23.921569%,61.176471%);fill-opacity:1;stroke-width:2.5;stroke-linecap:butt;stroke-linejoin:miter;stroke:rgb(3.137255%,23.921569%,61.176471%);stroke-opacity:1;stroke-miterlimit:4;" d="M 234.489583 289.098958 C 237.927083 287.223958 241.052083 285.348958 243.239583 280.973958 L 229.802083 281.286458 C 229.802083 281.286458 223.557292 285.036458 220.427083 289.098958 Z M 234.489583 289.098958 " transform="matrix(0.75,0,0,0.75,0,0)"/>
<path style="fill-rule:evenodd;fill:rgb(3.137255%,23.921569%,61.176471%);fill-opacity:1;stroke-width:2.5;stroke-linecap:butt;stroke-linejoin:miter;stroke:rgb(3.137255%,23.921569%,61.176471%);stroke-opacity:1;stroke-miterlimit:4;" d="M 277.932292 289.098958 C 274.489583 287.223958 271.369792 285.348958 269.182292 280.973958 L 282.619792 281.286458 C 282.619792 281.286458 288.864583 285.036458 291.989583 289.098958 L 277.927083 289.098958 Z M 277.932292 289.098958 " transform="matrix(0.75,0,0,0.75,0,0)"/>
<path style=" stroke:none;fill-rule:evenodd;fill:rgb(87.058824%,12.54902%,6.27451%);fill-opacity:1;" d="M -96 288 L 480 288 L 480 384 L -96 384 Z M -96 288 "/>
<path style=" stroke:none;fill-rule:evenodd;fill:rgb(87.058824%,12.54902%,6.27451%);fill-opacity:1;" d="M -96 0 L 480 0 L 480 96 L -96 96 Z M -96 0 "/>
</g>
</svg>
