<?xml version="1.0" encoding="UTF-8"?>
<svg xmlns="http://www.w3.org/2000/svg" xmlns:xlink="http://www.w3.org/1999/xlink" width="384pt" height="384pt" viewBox="0 0 384 384" version="1.1">
<defs>
<clipPath id="clip1">
  <path d="M 0 0 L 383.984375 0 L 383.984375 383.988281 L 0 383.988281 Z M 0 0 "/>
</clipPath>
</defs>
<g id="surface1">
<g clip-path="url(#clip1)" clip-rule="nonzero">
<path style=" stroke:none;fill-rule:evenodd;fill:rgb(0%,0%,0%);fill-opacity:1;" d="M -62.601562 0 L -63 383.988281 L 447.152344 383.988281 L -62.605469 0 Z M -62.601562 0 "/>
<path style=" stroke:none;fill-rule:evenodd;fill:rgb(100%,0%,0%);fill-opacity:1;" d="M 446.757812 383.988281 L 447.152344 0 L -63 0 Z M 446.757812 383.988281 "/>
</g>
<path style="fill-rule:nonzero;fill:rgb(100%,80%,0%);fill-opacity:1;stroke-width:1;stroke-linecap:butt;stroke-linejoin:miter;stroke:rgb(100%,80%,0%);stroke-opacity:1;stroke-miterlimit:4;" d="M 177.999578 54.000053 L 174.160735 53.799171 C 172.979722 51.019928 169.646396 49.97578 167.597836 51.145756 C 165.736913 51.306903 155.997422 51.000061 155.997422 51.000061 L 163.116611 54.119259 C 164.875988 58.878629 170.997387 60.000039 170.997387 60.000039 C 170.454342 68.774853 162.116613 58.867592 155.11663 63.86758 C 150.116641 66.867573 150.057039 70.450346 147.355059 76.238411 C 146.514001 77.847679 142.995246 81.999987 142.995246 81.999987 L 148.876026 81.498884 L 146.995236 83.999982 L 153.995219 82.999985 C 153.995219 82.999985 153.054824 83.783647 152.494119 84.379672 C 153.531644 84.582762 160.4941 82.74833 160.4941 82.74833 L 159.995205 84.99998 C 163.564733 83.56952 167.995186 82.119192 167.995186 82.119192 C 167.995186 82.119192 169.564719 83.42824 170.995179 83.999982 L 171.995177 79.999992 L 175.995167 80.999989 L 176.995165 76.999999 C 182.995151 84.99998 184.995146 92.999961 195.99512 94.999956 L 194.995122 90.999966 C 198.054718 92.309013 203.734616 95.088256 203.734616 95.088256 L 204.595541 93.258238 C 209.365949 96.679864 213.323997 96.620261 215.995072 96.999951 C 215.995072 96.999951 214.003907 92.019831 213.995077 91.999963 C 214.12532 92.048528 215.984035 93.008791 215.995072 92.999961 C 215.995072 92.999961 212.995079 84.99998 212.995079 84.99998 C 212.995079 84.99998 215.995072 85.999978 215.995072 85.999978 L 211.995082 79.999992 L 213.493975 78.999994 L 212.995079 76.000001 C 218.995065 77.999997 226.995046 80.999989 227.995044 87.999973 C 228.995041 98.999947 216.99507 101.99994 208.995089 100.999942 C 214.995075 105.99993 225.995049 103.999935 230.995037 98.999947 C 232.995032 96.999951 233.99503 93.999959 234.995027 90.999966 C 235.995025 93.999959 237.99502 97.999949 237.99502 101.99994 C 236.995022 110.999918 224.995051 113.999911 216.99507 114.999909 C 225.995049 119.999897 241.995011 113.999911 242.995008 100.999942 C 242.995008 89.999968 235.995025 84.99998 232.995032 79.999992 C 232.544702 78.178804 231.995034 74.620314 231.995034 74.620314 C 232.383554 74.732896 234.995027 76.008831 234.995027 76.008831 C 234.995027 76.008831 233.224612 72.699788 232.995032 72.000011 C 232.995032 72.000011 229.875834 63.498927 228.745594 61.620344 C 228.931024 61.514384 230.995037 61.969129 230.995037 61.969129 L 222.805211 51.699838 C 222.805211 51.699838 224.780923 51.518823 225.125293 51.459221 C 225.125293 51.459221 215.604345 43.949305 212.995079 43.00008 C 212.995079 43.00008 215.995072 42.000082 215.995072 42.000082 C 209.995087 39.000089 202.995103 41.000084 196.995117 45.000075 L 197.995115 42.000082 L 196.165097 42.170059 L 196.165097 38.739604 C 196.165097 38.739604 197.995115 36.000096 197.995115 36.000096 C 197.995115 36.000096 194.995122 35.000099 194.995122 35.000099 L 196.995117 30.00011 C 196.995117 30.00011 193.995125 31.000108 193.995125 31.000108 L 194.995122 26.00012 C 194.995122 26.00012 192.754509 27.039853 191.394689 26.889743 C 191.445462 27.000118 192.984089 23.470325 192.984089 23.470325 C 192.034864 21.980262 192.995127 19.000137 192.995127 19.000137 C 185.995144 20.000134 184.995146 21.000132 180.995155 27.000118 C 174.99517 38.000091 176.995165 43.00008 177.995163 54.000053 Z M 177.999578 54.000053 " transform="matrix(1.769535,0,0,1.769535,-63,-0.000321449)"/>
<path style="fill-rule:evenodd;fill:rgb(100%,0%,0%);fill-opacity:1;stroke-width:1.25;stroke-linecap:butt;stroke-linejoin:miter;stroke:rgb(100%,0%,0%);stroke-opacity:1;stroke-miterlimit:4;" d="M 215.780945 70.437101 C 216.301915 71.298026 221.977398 74.030911 226.248911 76.452539 C 225.101011 71.843278 216.769905 70.827828 215.780945 70.437101 Z M 215.780945 70.437101 " transform="matrix(1.769535,0,0,1.769535,-63,-0.000321449)"/>
<path style=" stroke:none;fill-rule:evenodd;fill:rgb(100%,100%,100%);fill-opacity:1;" d="M 75.542969 319.222656 L 64.289062 312.039062 L 49.183594 319.277344 L 52.53125 306.359375 L 40.984375 294.21875 L 54.3125 293.40625 L 62.28125 278.683594 L 67.164062 291.105469 L 83.636719 294.132812 L 73.332031 302.625 Z M 75.542969 319.222656 "/>
<path style=" stroke:none;fill-rule:evenodd;fill:rgb(100%,100%,100%);fill-opacity:1;" d="M 104.429688 256.070312 L 99.207031 253.574219 L 94.1875 256.457031 L 94.953125 250.707031 L 90.65625 246.832031 L 96.351562 245.789062 L 98.714844 240.496094 L 101.46875 245.59375 L 107.226562 246.210938 L 103.234375 250.40625 Z M 104.429688 256.070312 "/>
<path style=" stroke:none;fill-rule:evenodd;fill:rgb(100%,100%,100%);fill-opacity:1;" d="M 129.878906 219.847656 L 118.429688 214.253906 L 107.332031 220.519531 L 109.101562 207.902344 L 99.707031 199.285156 L 112.261719 197.074219 L 117.546875 185.480469 L 123.542969 196.738281 L 136.195312 198.1875 L 127.347656 207.355469 Z M 129.878906 219.847656 "/>
<path style=" stroke:none;fill-rule:evenodd;fill:rgb(100%,100%,100%);fill-opacity:1;" d="M 77.503906 169.414062 L 64.015625 162.65625 L 50.804688 169.933594 L 53.0625 155.023438 L 42.058594 144.707031 L 56.941406 142.246094 L 63.351562 128.589844 L 70.289062 141.984375 L 85.257812 143.863281 L 74.664062 154.601562 Z M 77.503906 169.414062 "/>
<path style=" stroke:none;fill-rule:evenodd;fill:rgb(100%,100%,100%);fill-opacity:1;" d="M 29.035156 221.792969 L 15.4375 213.722656 L 1.871094 221.96875 L 5.347656 206.539062 L -6.695312 196.207031 L 9.054688 194.738281 L 15.175781 180.085938 L 21.429688 194.613281 L 37.257812 195.90625 L 25.375 206.34375 Z M 29.035156 221.792969 "/>
</g>
</svg>
