<?xml version="1.0" encoding="UTF-8"?>
<svg xmlns="http://www.w3.org/2000/svg" xmlns:xlink="http://www.w3.org/1999/xlink" width="384pt" height="384pt" viewBox="0 0 384 384" version="1.1">
<g id="surface1">
<rect x="0" y="0" width="384" height="384" style="fill:rgb(96.078431%,0%,7.45098%);fill-opacity:1;stroke:none;"/>
<path style=" stroke:none;fill-rule:evenodd;fill:rgb(0%,9.411765%,60.392157%);fill-opacity:1;" d="M -104.25 0 L 471.753906 0 L 471.753906 192 L -104.25 192 Z M -104.25 0 "/>
<path style=" stroke:none;fill-rule:evenodd;fill:rgb(99.607843%,100%,100%);fill-opacity:1;" d="M -104.25 0 L 226.265625 191.757812 L -104.25 383.261719 Z M -104.25 0 "/>
<path style=" stroke:none;fill-rule:evenodd;fill:rgb(92.54902%,63.921569%,0%);fill-opacity:1;" d="M 11.0625 154.617188 L 17.253906 131.875 L 13.019531 126.472656 L 7.980469 154.226562 Z M -2.046875 154.601562 L -5.871094 123.367188 L 1.464844 114.894531 L 8.78125 121.839844 L 5.28125 154.222656 Z M -7.828125 154.980469 L -13.972656 132.230469 L -9.726562 126.835938 L -4.742188 154.597656 Z M -7.828125 154.980469 "/>
<path style=" stroke:none;fill-rule:evenodd;fill:rgb(92.54902%,63.921569%,0%);fill-opacity:1;" d="M 34.84375 172.949219 L 55.515625 161.628906 L 56.464844 154.828125 L 32.984375 170.460938 Z M 25.757812 163.503906 L 45.59375 139.074219 L 56.785156 138.476562 L 56.859375 148.566406 L 31.113281 168.515625 Z M 21.46875 159.601562 L 33.589844 139.386719 L 40.417969 138.703125 L 23.886719 161.558594 Z M 21.46875 159.601562 "/>
<path style=" stroke:none;fill-rule:evenodd;fill:rgb(92.54902%,63.921569%,0%);fill-opacity:1;" d="M 38.519531 201.449219 L 61.257812 207.652344 L 66.664062 203.417969 L 38.910156 198.363281 Z M 38.539062 188.339844 L 69.773438 184.53125 L 78.246094 191.871094 L 71.292969 199.183594 L 38.914062 195.664062 Z M 38.164062 182.554688 L 60.917969 176.421875 L 66.3125 180.671875 L 38.542969 185.640625 Z M 38.164062 182.554688 "/>
<path style=" stroke:none;fill-rule:evenodd;fill:rgb(92.54902%,63.921569%,0%);fill-opacity:1;" d="M 21.207031 224.621094 L 33.160156 244.933594 L 39.984375 245.675781 L 23.640625 222.6875 Z M 30.375 215.25 L 55.394531 234.328125 L 56.339844 245.496094 L 46.253906 245.878906 L 25.527344 220.757812 Z M 34.140625 210.84375 L 54.71875 222.339844 L 55.613281 229.144531 L 32.261719 213.320312 Z M 34.140625 210.84375 "/>
<path style=" stroke:none;fill-rule:evenodd;fill:rgb(92.54902%,63.921569%,0%);fill-opacity:1;" d="M -8.03125 228.960938 L -14.066406 251.742188 L -9.792969 257.117188 L -4.945312 229.328125 Z M 5.074219 228.882812 L 9.113281 260.089844 L 1.839844 268.613281 L -5.527344 261.714844 L -2.246094 229.3125 Z M 10.855469 228.460938 L 17.160156 251.171875 L 12.949219 256.597656 L 7.773438 228.867188 Z M 10.855469 228.460938 "/>
<path style=" stroke:none;fill-rule:evenodd;fill:rgb(92.54902%,63.921569%,0%);fill-opacity:1;" d="M 169.128906 211.808594 L 160.335938 199.445312 L 146.011719 204.46875 L 154.855469 191.664062 L 146.179688 179.210938 L 160.4375 183.664062 L 169.394531 170.945312 L 169.363281 186.496094 L 183.578125 191.089844 L 169.300781 196.25 Z M 169.128906 211.808594 "/>
<path style=" stroke:none;fill-rule:evenodd;fill:rgb(92.54902%,63.921569%,0%);fill-opacity:1;" d="M 40.957031 191.757812 C 40.957031 169.902344 23.242188 152.183594 1.386719 152.183594 C -20.46875 152.183594 -38.183594 169.902344 -38.183594 191.757812 C -38.183594 213.609375 -20.46875 231.328125 1.386719 231.328125 C 23.242188 231.328125 40.957031 213.609375 40.957031 191.757812 Z M 40.957031 191.757812 "/>
</g>
</svg>
