<?xml version="1.0" encoding="UTF-8"?>
<svg xmlns="http://www.w3.org/2000/svg" xmlns:xlink="http://www.w3.org/1999/xlink" width="384pt" height="384pt" viewBox="0 0 384 384" version="1.1">
<g id="surface1">
<rect x="0" y="0" width="384" height="384" style="fill:rgb(4.705882%,34.901961%,4.313725%);fill-opacity:1;stroke:none;"/>
<path style=" stroke:none;fill-rule:evenodd;fill:rgb(100%,100%,100%);fill-opacity:1;" d="M -71.25 0 L 73.140625 0 L 73.140625 384 L -71.25 384 Z M -71.25 0 "/>
<path style=" stroke:none;fill-rule:evenodd;fill:rgb(100%,100%,100%);fill-opacity:1;" d="M 302.777344 169.050781 L 279.402344 164.132812 L 267.109375 184.613281 L 264.5625 160.863281 L 241.289062 155.5 L 263.089844 145.738281 L 260.996094 121.945312 L 277.015625 139.664062 L 298.996094 130.320312 L 287.097656 151.03125 Z M 302.777344 169.050781 "/>
<path style=" stroke:none;fill-rule:evenodd;fill:rgb(100%,100%,100%);fill-opacity:1;" d="M 311.589844 229.5625 C 290.84375 275.285156 236.382812 295.253906 190.535156 274.015625 C 144.675781 252.773438 124.699219 198.320312 145.945312 152.464844 C 156.78125 129.074219 174.511719 113.003906 199.542969 104.230469 C 196.664062 106.664062 193.8125 109.191406 190.691406 112.414062 C 158.359375 145.78125 159.199219 199.105469 192.566406 231.4375 C 225.933594 263.769531 279.261719 262.929688 311.589844 229.5625 Z M 311.589844 229.5625 "/>
</g>
</svg>
