<?xml version="1.0" encoding="UTF-8"?>
<svg xmlns="http://www.w3.org/2000/svg" xmlns:xlink="http://www.w3.org/1999/xlink" width="384pt" height="384pt" viewBox="0 0 384 384" version="1.1">
<defs>
<clipPath id="clip1">
  <path d="M 0 0 L 384 0 L 384 192 L 0 192 Z M 0 0 "/>
</clipPath>
</defs>
<g id="surface1">
<rect x="0" y="0" width="384" height="384" style="fill:rgb(0%,14.117647%,49.019608%);fill-opacity:1;stroke:none;"/>
<g clip-path="url(#clip1)" clip-rule="nonzero">
<path style=" stroke:none;fill-rule:nonzero;fill:rgb(0%,14.117647%,49.019608%);fill-opacity:1;" d="M 448 96 C 448 237.386719 333.386719 352 192 352 C 50.613281 352 -64 237.386719 -64 96 C -64 -45.386719 50.613281 -160 192 -160 C 333.386719 -160 448 -45.386719 448 96 Z M 448 96 "/>
<path style="fill-rule:nonzero;fill:rgb(0%,0%,0%);fill-opacity:1;stroke-width:3;stroke-linecap:butt;stroke-linejoin:miter;stroke:rgb(100%,100%,100%);stroke-opacity:1;stroke-miterlimit:4;" d="M -20 -10 L 20 10 M -20 10 L 20 -10 " transform="matrix(12.8,0,0,12.8,192,96)"/>
<path style="fill-rule:nonzero;fill:rgb(0%,0%,0%);fill-opacity:1;stroke-width:2;stroke-linecap:butt;stroke-linejoin:miter;stroke:rgb(81.176471%,7.843137%,16.862745%);stroke-opacity:1;stroke-miterlimit:4;" d="M -20 -10 L 20 10 M -20 10 L 20 -10 " transform="matrix(12.8,0,0,12.8,192,96)"/>
<path style=" stroke:none;fill-rule:nonzero;fill:rgb(100%,100%,100%);fill-opacity:1;" d="M 192 96 L 448 224 L 409.601562 224 L 153.601562 96 M 192 96 L 448 -32 L 486.398438 -32 L 230.398438 96 M 192 96 L -64 224 L -102.398438 224 L 153.601562 96 M 192 96 L -64 -32 L -25.601562 -32 L 230.398438 96 "/>
<path style="fill-rule:nonzero;fill:rgb(0%,0%,0%);fill-opacity:1;stroke-width:5;stroke-linecap:butt;stroke-linejoin:miter;stroke:rgb(100%,100%,100%);stroke-opacity:1;stroke-miterlimit:4;" d="M -20 0 L 20 0 M 0 -10 L 0 10 " transform="matrix(12.8,0,0,12.8,192,96)"/>
<path style="fill-rule:nonzero;fill:rgb(0%,0%,0%);fill-opacity:1;stroke-width:3;stroke-linecap:butt;stroke-linejoin:miter;stroke:rgb(81.176471%,7.843137%,16.862745%);stroke-opacity:1;stroke-miterlimit:4;" d="M -20 0 L 20 0 M 0 -10 L 0 10 " transform="matrix(12.8,0,0,12.8,192,96)"/>
</g>
<path style="fill-rule:nonzero;fill:rgb(96.862745%,87.843137%,9.019608%);fill-opacity:1;stroke-width:0.125;stroke-linecap:butt;stroke-linejoin:miter;stroke:rgb(0%,0%,0%);stroke-opacity:1;stroke-miterlimit:4;" d="M 197.839567 77.265153 C 195.13409 79.560358 192.556339 82.904467 191.922867 85.928615 C 190.141149 94.441128 187.773695 96.333801 184.117365 94.506927 C 184.117365 99.076693 188.12591 99.428909 189.884406 96.756976 C 189.884406 101.045486 191.439055 104.762453 194.945726 107.934971 C 196.422965 109.271582 196.704221 108.358145 196.001081 106.882196 C 195.297941 105.404956 195.297941 100.623602 193.89166 97.88071 C 196.141709 99.498578 199.445823 98.58385 199.164567 94.154712 C 196.282337 95.842248 193.416879 95.77645 193.117561 91.764035 C 192.766636 87.05364 194.605122 80.218342 197.839567 77.265153 Z M 197.839567 77.265153 " transform="matrix(3.027712,0,0,3.027712,-410.4192,7.2704)"/>
<path style="fill-rule:nonzero;fill:rgb(96.862745%,87.843137%,9.019608%);fill-opacity:1;stroke-width:0.125;stroke-linecap:butt;stroke-linejoin:miter;stroke:rgb(0%,0%,0%);stroke-opacity:1;stroke-miterlimit:4;" d="M 194.420628 43.400885 C 194.611573 41.712058 194.250326 39.976786 193.015638 38.889176 C 190.631412 36.790077 188.296212 37.485476 186.558359 39.175593 C 183.956095 37.769312 182.574327 42.757093 179.621138 41.913324 C 180.112691 43.529902 180.886791 44.233042 182.36274 43.67053 C 180.815831 45.07681 182.36274 46.764347 180.534575 48.451884 C 183.83998 49.507239 185.598475 47.679075 185.456557 44.514298 C 186.7235 45.639323 188.691002 45.569654 189.746358 44.304001 C 187.987862 43.741489 187.980121 42.211353 188.691002 40.7883 C 189.746358 38.678879 194.700594 38.760159 194.420628 43.400885 Z M 194.420628 43.400885 " transform="matrix(3.027712,0,0,3.027712,-410.4192,7.2704)"/>
<path style="fill-rule:nonzero;fill:rgb(20%,45.098039%,12.941176%);fill-opacity:1;stroke-width:0.125;stroke-linecap:butt;stroke-linejoin:miter;stroke:rgb(0%,0%,0%);stroke-opacity:1;stroke-miterlimit:4;" d="M 202.049378 67.858555 C 198.323379 69.826058 191.503564 68.98358 190.870092 64.131267 C 190.236621 59.280244 194.948306 57.099864 196.213958 56.467683 C 198.186622 55.480706 199.72837 57.240492 199.097479 59.280244 C 201.276568 58.506145 201.769412 55.97484 200.714056 54.49889 C 203.597576 54.709187 206.269509 52.530097 207.394534 49.43628 C 206.383044 50.398744 203.62596 49.7485 201.356559 49.601421 C 202.058409 48.828612 202.049378 47.326859 201.839081 46.55276 C 199.448404 49.014396 196.002371 47.889372 191.432604 54.990443 C 192.135745 52.530097 193.472356 47.608115 194.245166 44.37367 C 194.322576 44.049839 194.381923 43.732458 194.419338 43.400885 C 194.700594 38.760159 189.751519 38.677589 188.696163 40.78701 C 189.852152 42.091367 189.244484 43.613763 188.831631 45.920579 C 188.338787 48.663471 187.283432 54.990443 186.369994 57.101154 C 186.088738 53.79575 183.908358 53.585453 183.486474 51.967585 C 182.854293 52.389469 182.503368 53.514494 182.643996 54.288593 C 181.869897 53.444825 179.197964 54.49889 178.213567 53.233238 C 177.159502 55.342658 178.847039 57.452079 180.604244 58.366807 C 179.585013 58.436476 179.338592 59.667294 178.213567 59.667294 C 179.725641 61.424499 181.27255 62.12764 183.06459 62.268268 C 184.85792 62.408896 186.194532 63.077202 187.283432 65.257581 C 189.041928 68.771993 195.739177 71.058166 202.049378 67.858555 Z M 202.049378 67.858555 " transform="matrix(3.027712,0,0,3.027712,-410.4192,7.2704)"/>
<path style="fill-rule:nonzero;fill:rgb(96.862745%,87.843137%,9.019608%);fill-opacity:1;stroke-width:0.125;stroke-linecap:butt;stroke-linejoin:miter;stroke:rgb(0%,0%,0%);stroke-opacity:1;stroke-miterlimit:4;" d="M 211.329539 63.568755 C 209.221408 69.405464 203.454368 73.553347 200.853394 74.185528 C 196.425546 75.262816 187.395676 79.645509 184.971455 81.902008 C 184.589566 81.818148 184.23348 81.67881 183.978027 81.498187 C 182.783334 80.654418 181.798938 77.912816 183.908358 75.591808 C 190.517877 69.404174 197.618949 72.076107 202.049378 67.857265 C 198.322089 69.826058 191.502273 68.98229 190.868802 64.131267 C 194.877347 65.186622 202.119046 65.256291 207.884797 59.068657 C 208.657606 59.912425 210.907655 62.584358 211.329539 63.568755 Z M 211.329539 63.568755 " transform="matrix(3.027712,0,0,3.027712,-410.4192,7.2704)"/>
<path style="fill-rule:nonzero;fill:rgb(20%,45.098039%,12.941176%);fill-opacity:1;stroke-width:0.125;stroke-linecap:butt;stroke-linejoin:miter;stroke:rgb(0%,0%,0%);stroke-opacity:1;stroke-miterlimit:4;" d="M 197.839567 77.265153 C 194.500618 80.098357 192.766636 87.05364 193.117561 91.764035 C 193.215613 93.074843 193.584601 93.962477 194.140662 94.508217 C 194.387084 91.836284 196.244922 84.931317 200.992732 81.849112 C 205.001277 79.248138 211.25858 73.412718 213.579588 66.732241 C 213.156414 65.537547 212.454563 64.693779 211.117952 63.850011 C 208.821457 70.15376 202.655755 73.177908 197.839567 77.265153 Z M 197.839567 77.265153 " transform="matrix(3.027712,0,0,3.027712,-410.4192,7.2704)"/>
<path style="fill-rule:nonzero;fill:rgb(19.215686%,42.745098%,22.745098%);fill-opacity:1;stroke-width:0.125;stroke-linecap:butt;stroke-linejoin:miter;stroke:rgb(0%,0%,0%);stroke-opacity:1;stroke-miterlimit:4;" d="M 209.190444 60.861987 C 207.994461 62.655317 205.286403 65.115663 202.685429 66.10006 C 203.247941 65.467878 203.423404 64.658945 203.459529 63.990639 C 200.154124 65.256291 193.544606 65.115663 190.872673 64.131267 C 194.881217 65.186622 202.122917 65.256291 207.888667 59.068657 C 208.451179 59.702128 208.942733 60.26464 209.190444 60.861987 Z M 209.190444 60.861987 " transform="matrix(3.027712,0,0,3.027712,-410.4192,7.2704)"/>
<path style="fill-rule:nonzero;fill:rgb(20%,45.098039%,12.941176%);fill-opacity:1;stroke-width:0.125;stroke-linecap:butt;stroke-linejoin:miter;stroke:rgb(0%,0%,0%);stroke-opacity:1;stroke-miterlimit:4;" d="M 183.909649 75.591808 C 178.536109 80.622164 182.081484 85.013888 184.190905 85.998284 C 183.628392 89.513986 186.933797 89.092102 186.862838 92.045291 C 188.199449 91.271191 188.550374 89.23273 188.340077 87.614862 C 190.027614 89.443027 194.316125 87.404565 195.229562 90.779638 C 195.793364 87.05235 192.909844 83.326351 189.324474 83.677276 C 190.800423 82.341955 189.956655 80.161575 188.550374 79.599063 C 188.270408 82.341955 185.176591 82.341955 183.980608 81.498187 C 182.784624 80.654418 181.801518 77.911526 183.909649 75.591808 Z M 183.909649 75.591808 " transform="matrix(3.027712,0,0,3.027712,-410.4192,7.2704)"/>
<path style="fill-rule:nonzero;fill:rgb(96.862745%,87.843137%,9.019608%);fill-opacity:1;stroke-width:0.125;stroke-linecap:butt;stroke-linejoin:miter;stroke:rgb(0%,0%,0%);stroke-opacity:1;stroke-miterlimit:4;" d="M 195.549523 107.580175 C 194.962498 107.915618 195.006363 108.670365 195.374061 109.161918 C 196.112035 110.146315 194.854124 112.377011 197.23706 112.853082 C 197.94149 112.99371 198.48207 112.564085 198.749134 111.762892 C 199.487109 109.547678 197.132556 109.302546 196.920969 108.248481 C 196.709382 107.193126 196.042366 107.297629 195.549523 107.580175 Z M 195.549523 107.580175 " transform="matrix(3.027712,0,0,3.027712,-410.4192,7.2704)"/>
<path style="fill-rule:nonzero;fill:rgb(96.862745%,87.843137%,9.019608%);fill-opacity:1;stroke-width:0.125;stroke-linecap:butt;stroke-linejoin:miter;stroke:rgb(0%,0%,0%);stroke-opacity:1;stroke-miterlimit:4;" d="M 197.55057 111.730638 C 196.760989 112.094465 196.07333 112.609241 196.389421 115.140546 C 196.519728 116.18687 196.46038 118.725916 195.545653 118.760751 C 196.108165 119.043297 197.304148 119.341325 197.795701 118.691082 C 198.270482 119.481953 199.34261 119.253594 199.764494 118.269198 C 200.327006 118.725916 201.101106 117.953107 201.101106 117.284801 C 201.592659 117.600892 202.577055 117.144173 202.330634 115.633389 C 202.929271 115.842396 203.70208 115.421802 203.983336 115.034752 C 203.103443 114.85929 200.889519 113.664596 200.361841 112.715034 C 199.835453 111.765473 198.464007 111.307464 197.55057 111.730638 Z M 197.55057 111.730638 " transform="matrix(3.027712,0,0,3.027712,-410.4192,7.2704)"/>
<path style="fill:none;stroke-width:0.125;stroke-linecap:butt;stroke-linejoin:miter;stroke:rgb(0%,0%,0%);stroke-opacity:1;stroke-miterlimit:4;" d="M 185.370116 40.620578 C 185.723622 40.096771 186.119702 39.603928 186.558359 39.175593 " transform="matrix(3.027712,0,0,3.027712,-410.4192,7.2704)"/>
<path style="fill:none;stroke-width:0.125;stroke-linecap:butt;stroke-linejoin:miter;stroke:rgb(0%,0%,0%);stroke-opacity:1;stroke-miterlimit:4;" d="M 198.750424 49.927833 C 199.370994 49.573038 200.314105 49.534333 201.360429 49.601421 " transform="matrix(3.027712,0,0,3.027712,-410.4192,7.2704)"/>
<path style="fill:none;stroke-width:0.125;stroke-linecap:butt;stroke-linejoin:miter;stroke:rgb(0%,0%,0%);stroke-opacity:1;stroke-miterlimit:4;" d="M 197.799572 118.689792 C 197.55444 118.338867 197.465419 116.861627 197.642172 115.964962 " transform="matrix(3.027712,0,0,3.027712,-410.4192,7.2704)"/>
<path style="fill:none;stroke-width:0.125;stroke-linecap:butt;stroke-linejoin:miter;stroke:rgb(0%,0%,0%);stroke-opacity:1;stroke-miterlimit:4;" d="M 199.769655 118.270488 C 199.382605 117.971169 198.64463 116.951938 198.522065 116.055273 " transform="matrix(3.027712,0,0,3.027712,-410.4192,7.2704)"/>
<path style="fill:none;stroke-width:0.125;stroke-linecap:butt;stroke-linejoin:miter;stroke:rgb(0%,0%,0%);stroke-opacity:1;stroke-miterlimit:4;" d="M 201.099816 117.289962 C 200.606972 117.061603 199.412279 115.513404 199.147795 114.513525 " transform="matrix(3.027712,0,0,3.027712,-410.4192,7.2704)"/>
<path style="fill:none;stroke-width:0.125;stroke-linecap:butt;stroke-linejoin:miter;stroke:rgb(0%,0%,0%);stroke-opacity:1;stroke-miterlimit:4;" d="M 202.330634 115.63984 C 201.750059 115.515984 199.974791 114.356125 199.235526 113.126597 " transform="matrix(3.027712,0,0,3.027712,-410.4192,7.2704)"/>
<path style="fill-rule:nonzero;fill:rgb(96.862745%,87.843137%,9.019608%);fill-opacity:1;stroke-width:0.125;stroke-linecap:butt;stroke-linejoin:miter;stroke:rgb(0%,0%,0%);stroke-opacity:1;stroke-miterlimit:4;" d="M 234.749916 75.662767 C 243.399186 82.905757 243.960408 88.671508 242.625087 92.046581 C 241.921947 88.881805 238.336576 83.959823 234.609288 82.69417 Z M 234.749916 75.662767 " transform="matrix(3.027712,0,0,3.027712,-410.4192,7.2704)"/>
<path style="fill-rule:nonzero;fill:rgb(20%,45.098039%,12.941176%);fill-opacity:1;stroke-width:0.125;stroke-linecap:butt;stroke-linejoin:miter;stroke:rgb(0%,0%,0%);stroke-opacity:1;stroke-miterlimit:4;" d="M 219.27954 71.584554 L 235.312428 71.584554 L 235.312428 90.569341 C 235.312428 106.741568 226.312233 116.302985 217.171409 121.365595 C 208.030585 116.302985 199.03039 106.741568 199.03039 90.569341 L 199.03039 71.584554 L 210.280634 71.584554 C 210.297407 72.56895 210.386428 74.04619 211.546287 75.522139 C 214.200158 75.258946 217.206244 73.27209 219.27954 71.584554 Z M 219.27954 71.584554 " transform="matrix(3.027712,0,0,3.027712,-410.4192,7.2704)"/>
<path style="fill-rule:nonzero;fill:rgb(0%,43.137255%,78.039216%);fill-opacity:1;stroke-width:0.125;stroke-linecap:butt;stroke-linejoin:miter;stroke:rgb(0%,0%,0%);stroke-opacity:1;stroke-miterlimit:4;" d="M 235.309848 71.584554 L 235.309848 90.569341 C 235.309848 95.451328 234.489302 99.730807 233.093343 103.465837 L 217.172699 74.252616 L 201.253345 103.465837 C 199.856096 99.730807 199.035551 95.451328 199.035551 90.569341 L 199.035551 71.584554 L 235.317589 71.584554 Z M 235.309848 71.584554 " transform="matrix(3.027712,0,0,3.027712,-410.4192,7.2704)"/>
<path style=" stroke:none;fill-rule:nonzero;fill:rgb(96.862745%,87.843137%,9.019608%);fill-opacity:1;" d="M 296.792969 316.277344 C 295.941406 318.886719 294.398438 323.117188 293.203125 325.726562 L 247.121094 240.085938 L 201.039062 325.726562 C 199.84375 323.117188 198.300781 318.886719 197.449219 316.277344 L 247.132812 224.171875 L 296.816406 316.277344 Z M 296.792969 316.277344 "/>
<path style="fill-rule:nonzero;fill:rgb(96.862745%,87.843137%,9.019608%);fill-opacity:1;stroke-width:0.125;stroke-linecap:butt;stroke-linejoin:miter;stroke:rgb(0%,0%,0%);stroke-opacity:1;stroke-miterlimit:4;" d="M 224.410528 112.469903 C 224.832413 112.68149 225.609092 113.07112 225.961308 113.211748 C 226.805076 111.524212 226.944414 109.133535 226.664448 107.024114 C 225.74972 109.345122 222.655903 109.274163 221.813425 110.680443 C 222.332072 110.939767 222.813303 111.28037 223.227447 111.579689 C 222.173381 112.633754 219.702714 114.406442 218.296433 114.829616 L 218.296433 99.74758 C 218.296433 98.692224 217.945508 97.813621 217.945508 96.935019 L 217.945508 93.816688 C 217.945508 93.113548 217.80488 92.094317 217.171409 92.094317 C 216.539228 92.094317 216.3986 93.113548 216.3986 93.816688 L 216.3986 96.935019 C 216.3986 97.813621 216.046385 98.832852 216.046385 99.74758 L 216.046385 114.829616 C 215.273575 112.579567 212.245557 113.348506 210.839276 111.098457 C 211.388887 110.96557 211.968171 110.924285 212.530683 111.031368 C 211.476618 107.445998 208.594388 107.164742 208.030585 106.109386 C 208.030585 107.586626 207.398404 111.031368 208.382801 112.508608 C 208.603419 112.244124 208.936282 111.971899 209.334943 111.728058 C 210.529636 114.330322 215.905757 114.336773 217.171409 118.626573 C 218.18806 117.051281 221.84826 115.220536 224.410528 112.469903 Z M 224.410528 112.469903 " transform="matrix(3.027712,0,0,3.027712,-410.4192,7.2704)"/>
<path style="fill-rule:nonzero;fill:rgb(96.862745%,87.843137%,9.019608%);fill-opacity:1;stroke-width:0.125;stroke-linecap:butt;stroke-linejoin:miter;stroke:rgb(0%,0%,0%);stroke-opacity:1;stroke-miterlimit:4;" d="M 217.170119 99.920462 C 218.364812 99.920462 222.16177 99.532122 223.533216 99.532122 C 223.890592 99.532122 224.179589 98.997993 224.179589 98.338719 C 224.179589 97.679444 223.890592 97.145316 223.533216 97.145316 C 222.16177 97.145316 218.364812 96.756976 217.170119 96.756976 C 215.975426 96.756976 212.178468 97.145316 210.807022 97.145316 C 210.449646 97.145316 210.159359 97.679444 210.159359 98.338719 C 210.159359 98.997993 210.449646 99.532122 210.807022 99.532122 C 212.178468 99.532122 215.975426 99.920462 217.170119 99.920462 Z M 217.170119 99.920462 " transform="matrix(3.027712,0,0,3.027712,-410.4192,7.2704)"/>
<path style="fill-rule:nonzero;fill:rgb(96.862745%,87.843137%,9.019608%);fill-opacity:1;stroke-width:0.125;stroke-linecap:butt;stroke-linejoin:miter;stroke:rgb(0%,0%,0%);stroke-opacity:1;stroke-miterlimit:4;" d="M 216.39989 93.740568 C 216.145727 93.535432 215.812865 93.411576 215.447748 93.411576 C 214.650425 93.411576 214.006633 94.001182 214.006633 94.728835 C 214.006633 95.455199 214.650425 96.044804 215.447748 96.044804 C 216.24378 96.044804 216.888863 95.455199 216.888863 94.728835 C 216.888863 94.166323 217.706828 94.166323 217.706828 94.728835 C 217.706828 95.868052 216.696628 96.79181 215.447748 96.79181 C 214.200158 96.79181 213.187378 95.868052 213.187378 94.728835 C 213.187378 93.589619 214.200158 92.66586 215.447748 92.66586 C 215.821896 92.66586 216.175401 92.748431 216.486331 92.89551 C 216.457947 93.085164 216.39989 93.437379 216.39989 93.740568 Z M 216.39989 93.740568 " transform="matrix(3.027712,0,0,3.027712,-410.4192,7.2704)"/>
<path style="fill-rule:nonzero;fill:rgb(96.862745%,87.843137%,9.019608%);fill-opacity:1;stroke-width:0.125;stroke-linecap:butt;stroke-linejoin:miter;stroke:rgb(0%,0%,0%);stroke-opacity:1;stroke-miterlimit:4;" d="M 210.809602 99.532122 C 211.166978 99.532122 211.455975 98.997993 211.455975 98.338719 C 211.455975 97.679444 211.166978 97.145316 210.809602 97.145316 " transform="matrix(3.027712,0,0,3.027712,-410.4192,7.2704)"/>
<path style="fill-rule:nonzero;fill:rgb(96.862745%,87.843137%,9.019608%);fill-opacity:1;stroke-width:0.125;stroke-linecap:butt;stroke-linejoin:miter;stroke:rgb(0%,0%,0%);stroke-opacity:1;stroke-miterlimit:4;" d="M 211.33986 99.532122 C 211.697236 99.532122 211.986233 98.997993 211.986233 98.338719 C 211.986233 97.679444 211.697236 97.145316 211.33986 97.145316 " transform="matrix(3.027712,0,0,3.027712,-410.4192,7.2704)"/>
<path style="fill-rule:nonzero;fill:rgb(96.862745%,87.843137%,9.019608%);fill-opacity:1;stroke-width:0.125;stroke-linecap:butt;stroke-linejoin:miter;stroke:rgb(0%,0%,0%);stroke-opacity:1;stroke-miterlimit:4;" d="M 214.810406 99.777253 C 215.240031 99.777253 215.588376 99.133461 215.588376 98.338719 C 215.588376 97.543977 215.240031 96.900184 214.810406 96.900184 " transform="matrix(3.027712,0,0,3.027712,-410.4192,7.2704)"/>
<path style="fill-rule:nonzero;fill:rgb(96.862745%,87.843137%,9.019608%);fill-opacity:1;stroke-width:0.125;stroke-linecap:butt;stroke-linejoin:miter;stroke:rgb(0%,0%,0%);stroke-opacity:1;stroke-miterlimit:4;" d="M 215.62063 99.841762 C 216.069608 99.841762 216.434724 99.168295 216.434724 98.338719 C 216.434724 97.507852 216.069608 96.834386 215.62063 96.834386 " transform="matrix(3.027712,0,0,3.027712,-410.4192,7.2704)"/>
<path style="fill-rule:nonzero;fill:rgb(96.862745%,87.843137%,9.019608%);fill-opacity:1;stroke-width:0.125;stroke-linecap:butt;stroke-linejoin:miter;stroke:rgb(0%,0%,0%);stroke-opacity:1;stroke-miterlimit:4;" d="M 218.319656 99.858534 C 218.775085 99.858534 219.144072 99.178617 219.144072 98.338719 C 219.144072 97.498821 218.775085 96.817613 218.319656 96.817613 " transform="matrix(3.027712,0,0,3.027712,-410.4192,7.2704)"/>
<path style="fill-rule:nonzero;fill:rgb(96.862745%,87.843137%,9.019608%);fill-opacity:1;stroke-width:0.125;stroke-linecap:butt;stroke-linejoin:miter;stroke:rgb(0%,0%,0%);stroke-opacity:1;stroke-miterlimit:4;" d="M 219.169876 99.810798 C 219.620143 99.810798 219.98397 99.151523 219.98397 98.338719 C 219.98397 97.525914 219.620143 96.86664 219.169876 96.86664 " transform="matrix(3.027712,0,0,3.027712,-410.4192,7.2704)"/>
<path style="fill-rule:nonzero;fill:rgb(96.862745%,87.843137%,9.019608%);fill-opacity:1;stroke-width:0.125;stroke-linecap:butt;stroke-linejoin:miter;stroke:rgb(0%,0%,0%);stroke-opacity:1;stroke-miterlimit:4;" d="M 222.93974 99.555345 C 223.303566 99.555345 223.600304 99.009605 223.600304 98.338719 C 223.600304 97.666542 223.303566 97.120802 222.93974 97.120802 " transform="matrix(3.027712,0,0,3.027712,-410.4192,7.2704)"/>
<path style="fill-rule:nonzero;fill:rgb(96.862745%,87.843137%,9.019608%);fill-opacity:1;stroke-width:0.125;stroke-linecap:butt;stroke-linejoin:miter;stroke:rgb(0%,0%,0%);stroke-opacity:1;stroke-miterlimit:4;" d="M 209.329782 111.730638 C 209.764568 111.463574 210.283215 111.235214 210.834115 111.101037 " transform="matrix(3.027712,0,0,3.027712,-410.4192,7.2704)"/>
<path style="fill-rule:nonzero;fill:rgb(96.862745%,87.843137%,9.019608%);fill-opacity:1;stroke-width:0.125;stroke-linecap:butt;stroke-linejoin:miter;stroke:rgb(0%,0%,0%);stroke-opacity:1;stroke-miterlimit:4;" d="M 223.6403 111.869976 C 223.511283 111.778374 223.373235 111.680322 223.227447 111.574528 " transform="matrix(3.027712,0,0,3.027712,-410.4192,7.2704)"/>
<path style="fill-rule:nonzero;fill:rgb(96.862745%,87.843137%,9.019608%);fill-opacity:1;stroke-width:0.125;stroke-linecap:butt;stroke-linejoin:miter;stroke:rgb(0%,0%,0%);stroke-opacity:1;stroke-miterlimit:4;" d="M 224.410528 112.469903 C 225.394925 111.413257 226.21547 110.218564 226.664448 108.852279 " transform="matrix(3.027712,0,0,3.027712,-410.4192,7.2704)"/>
<path style="fill-rule:nonzero;fill:rgb(100%,100%,100%);fill-opacity:1;stroke-width:0.125;stroke-linecap:butt;stroke-linejoin:miter;stroke:rgb(0%,0%,0%);stroke-opacity:1;stroke-miterlimit:4;" d="M 213.949865 85.006147 C 213.949865 84.662963 214.232412 84.515884 214.560114 84.268172 C 214.956195 83.968854 215.113595 83.828226 215.473551 83.828226 L 220.088474 83.828226 C 220.430367 83.828226 220.510358 83.915957 220.510358 84.232048 L 220.510358 90.507413 C 220.510358 90.824794 220.430367 90.912525 220.088474 90.912525 L 213.949865 90.912525 L 213.949865 84.944219 " transform="matrix(3.027712,0,0,3.027712,-410.4192,7.2704)"/>
<path style="fill-rule:nonzero;fill:rgb(89.803922%,89.803922%,89.803922%);fill-opacity:1;stroke-width:0.125;stroke-linecap:butt;stroke-linejoin:miter;stroke:rgb(0%,0%,0%);stroke-opacity:1;stroke-miterlimit:4;" d="M 218.950547 91.456975 C 219.555635 91.456975 219.447261 91.444074 219.873016 91.017029 C 220.316833 90.573212 220.275548 90.613207 220.275548 90.204224 L 220.275548 84.466858 C 220.275548 84.17141 220.202008 84.088839 219.884627 84.088839 L 215.614179 84.088839 C 215.280026 84.088839 215.134238 84.220436 214.76783 84.500402 C 214.464642 84.732632 214.206608 84.869389 214.206608 85.190641 L 214.206608 91.456975 Z M 218.950547 91.456975 " transform="matrix(3.027712,0,0,3.027712,-410.4192,7.2704)"/>
<path style="fill-rule:nonzero;fill:rgb(100%,100%,100%);fill-opacity:1;stroke-width:0.125;stroke-linecap:butt;stroke-linejoin:miter;stroke:rgb(0%,0%,0%);stroke-opacity:1;stroke-miterlimit:4;" d="M 219.399525 91.325378 C 219.399525 91.641469 219.320825 91.7292 218.977641 91.7292 L 214.364009 91.7292 C 214.020825 91.7292 213.947285 91.641469 213.947285 91.325378 L 213.947285 85.050013 C 213.947285 84.732632 214.020825 84.644901 214.364009 84.644901 L 218.977641 84.644901 C 219.320825 84.644901 219.399525 84.732632 219.399525 85.050013 Z M 219.399525 91.325378 " transform="matrix(3.027712,0,0,3.027712,-410.4192,7.2704)"/>
<path style="fill-rule:nonzero;fill:rgb(58.823529%,52.941176%,49.019608%);fill-opacity:1;stroke-width:0.125;stroke-linecap:butt;stroke-linejoin:miter;stroke:rgb(0%,0%,0%);stroke-opacity:1;stroke-miterlimit:4;" d="M 228.349404 67.907582 C 229.24865 68.91004 229.545388 70.260844 229.055125 71.579393 L 227.718513 71.579393 C 228.281025 69.891856 227.9301 68.28044 225.539423 68.070143 C 221.964374 67.754052 217.80488 74.678371 211.547577 75.522139 C 209.719412 73.34305 209.817465 69.191297 212.137183 67.222504 C 210.938619 63.76357 208.403443 59.961452 206.651398 58.3152 C 205.503151 58.128126 204.176861 58.035234 203.320191 58.085551 C 204.233628 56.116758 206.838472 54.044752 208.949183 53.200984 C 209.289787 52.701689 209.657484 52.221748 209.999378 51.792123 C 210.210965 49.085355 223.077787 50.351008 225.819389 52.038544 C 225.819389 55.061402 227.014083 65.16598 228.349404 67.908872 Z M 228.349404 67.907582 " transform="matrix(3.027712,0,0,3.027712,-410.4192,7.2704)"/>
<path style=" stroke:none;fill-rule:nonzero;fill:rgb(0%,0%,0%);fill-opacity:1;" d="M 233.726562 218.460938 C 232.800781 204.273438 227.066406 192.585938 219.003906 184.625 C 222.832031 185.6875 230.710938 185.6875 236.035156 181.855469 C 243.058594 177.171875 261.367188 168.976562 268.074219 172.492188 C 268.605469 173.660156 268.921875 176.324219 268.496094 178.027344 C 266.902344 173.769531 249.230469 180.367188 244.230469 182.390625 C 239.441406 184.625 237.3125 187.605469 239.011719 194.3125 C 236.246094 191.96875 237.203125 189.734375 234.328125 188.03125 C 235.5 190.796875 236.457031 195.800781 236.777344 199.847656 C 235.710938 196.972656 233.796875 190.796875 229.644531 187.179688 C 233.265625 194.203125 236.40625 211.074219 234.917969 220.019531 C 237.789062 220.019531 244.125 217.199219 246.675781 215.175781 C 244.441406 218.367188 238 220.605469 233.851562 221.453125 C 231.988281 223.691406 230.710938 229.4375 230.816406 232.632812 C 230.5 228.691406 231.742188 219.09375 233.726562 218.464844 Z M 233.726562 218.460938 "/>
<path style=" stroke:none;fill-rule:nonzero;fill:rgb(0%,0%,0%);fill-opacity:1;" d="M 280.957031 212.875 C 277.433594 208.953125 270.859375 206.828125 262.441406 209.109375 C 263.71875 208.46875 266.488281 207.40625 268.9375 206.980469 C 268.617188 204.742188 266.59375 195.164062 266.273438 192.820312 L 268.617188 191.863281 C 269.785156 197.613281 271.277344 204.210938 272.234375 206.871094 C 272.980469 207.085938 274.683594 207.40625 276.175781 208.148438 C 275.535156 205.914062 271.914062 189.839844 272.023438 188.136719 L 275.214844 186.433594 C 276.492188 195.164062 278.515625 207.832031 280.957031 212.875 Z M 280.957031 212.875 "/>
<path style="fill-rule:nonzero;fill:rgb(58.823529%,52.941176%,49.019608%);fill-opacity:1;stroke-width:0.125;stroke-linecap:butt;stroke-linejoin:miter;stroke:rgb(0%,0%,0%);stroke-opacity:1;stroke-miterlimit:4;" d="M 227.719803 71.578103 C 228.282316 69.890566 227.931391 68.279149 225.539423 68.068852 C 223.686746 67.905001 221.676667 69.706073 219.297602 71.578103 Z M 227.719803 71.578103 " transform="matrix(3.027712,0,0,3.027712,-410.4192,7.2704)"/>
<path style="fill-rule:nonzero;fill:rgb(58.823529%,52.941176%,49.019608%);fill-opacity:1;stroke-width:0.125;stroke-linecap:butt;stroke-linejoin:miter;stroke:rgb(0%,0%,0%);stroke-opacity:1;stroke-miterlimit:4;" d="M 212.179758 56.431558 C 211.124403 56.572186 208.76985 56.361889 207.573867 55.97484 C 207.643536 55.657459 207.766102 55.328467 207.923502 54.981412 C 207.185527 55.472965 205.780537 56.431558 205.254149 57.099864 C 206.941686 57.452079 210.425133 57.626252 212.179758 56.431558 Z M 212.179758 56.431558 " transform="matrix(3.027712,0,0,3.027712,-410.4192,7.2704)"/>
<path style="fill:none;stroke-width:0.125;stroke-linecap:butt;stroke-linejoin:miter;stroke:rgb(0%,0%,0%);stroke-opacity:1;stroke-miterlimit:4;" d="M 212.139763 67.222504 C 212.528103 68.342368 212.780975 69.426107 212.81581 70.38986 " transform="matrix(3.027712,0,0,3.027712,-410.4192,7.2704)"/>
<path style="fill:none;stroke-width:0.125;stroke-linecap:butt;stroke-linejoin:miter;stroke:rgb(0%,0%,0%);stroke-opacity:1;stroke-miterlimit:4;" d="M 208.950474 53.199693 C 208.311842 54.131193 207.758361 55.128491 207.575157 55.97484 C 208.771141 56.361889 211.125693 56.573477 212.181048 56.431558 " transform="matrix(3.027712,0,0,3.027712,-410.4192,7.2704)"/>
<path style="fill:none;stroke-width:0.125;stroke-linecap:butt;stroke-linejoin:miter;stroke:rgb(0%,0%,0%);stroke-opacity:1;stroke-miterlimit:4;" d="M 206.650108 58.31391 C 207.105537 58.387449 207.531291 58.476471 207.889957 58.575814 C 209.15561 58.928029 211.756584 58.928029 213.51508 57.662376 C 215.273575 56.396724 220.053639 52.459138 225.468464 52.037254 " transform="matrix(3.027712,0,0,3.027712,-410.4192,7.2704)"/>
<path style="fill:none;stroke-width:0.125;stroke-linecap:butt;stroke-linejoin:miter;stroke:rgb(0%,0%,0%);stroke-opacity:1;stroke-miterlimit:4;" d="M 205.250279 57.099864 C 206.937815 57.452079 210.421262 57.626252 212.175888 56.431558 C 216.254101 53.655122 220.190397 52.037254 224.129272 51.826957 " transform="matrix(3.027712,0,0,3.027712,-410.4192,7.2704)"/>
<path style="fill-rule:nonzero;fill:rgb(20%,45.098039%,12.941176%);fill-opacity:1;stroke-width:0.125;stroke-linecap:butt;stroke-linejoin:miter;stroke:rgb(0%,0%,0%);stroke-opacity:1;stroke-miterlimit:4;" d="M 234.749916 75.662767 C 240.656294 79.740981 245.015764 83.678567 246.281416 90.006829 C 247.547069 96.335091 249.937746 98.022628 252.890935 96.335091 C 252.187795 99.991421 248.531465 100.413305 245.437648 97.600744 C 245.718904 101.819586 244.031368 106.882196 239.671898 108.71036 C 239.390642 106.179055 241.063987 104.174138 240.586625 102.100842 C 240.375038 101.186114 240.305369 99.077984 241.500063 98.093587 C 239.180345 98.866396 235.524015 97.390447 235.1718 93.944415 C 237.843733 95.210067 241.288475 95.421654 242.625087 92.046581 C 243.960408 88.671508 243.399186 82.905757 234.749916 75.662767 Z M 234.749916 75.662767 " transform="matrix(3.027712,0,0,3.027712,-410.4192,7.2704)"/>
<path style="fill-rule:nonzero;fill:rgb(20%,45.098039%,12.941176%);fill-opacity:1;stroke-width:0.125;stroke-linecap:butt;stroke-linejoin:miter;stroke:rgb(0%,0%,0%);stroke-opacity:1;stroke-miterlimit:4;" d="M 242.200623 42.757093 C 244.027497 37.975739 248.810141 38.467292 250.426719 40.507044 C 255.138404 37.835111 255.770585 43.882117 259.777839 42.686134 C 259.70817 43.811158 258.371559 44.866513 256.895609 44.795554 C 258.442518 46.201835 256.263428 48.311256 259.567542 49.576908 C 256.754981 50.983189 252.817396 49.507239 251.76333 45.639323 C 250.848603 47.467487 247.544489 47.467487 246.207877 45.991538 C 249.091397 45.217439 248.87981 42.545505 247.263233 41.49144 C 245.633753 40.429634 242.763135 40.857969 242.200623 42.757093 Z M 242.200623 42.757093 " transform="matrix(3.027712,0,0,3.027712,-410.4192,7.2704)"/>
<path style="fill-rule:nonzero;fill:rgb(20%,45.098039%,12.941176%);fill-opacity:1;stroke-width:0.125;stroke-linecap:butt;stroke-linejoin:miter;stroke:rgb(0%,0%,0%);stroke-opacity:1;stroke-miterlimit:4;" d="M 227.940422 53.286134 C 229.25252 57.517878 231.965738 61.450303 234.890544 64.132557 C 238.265617 67.225084 243.363062 66.452275 246.210457 63.499086 C 246.281416 69.387402 240.181513 69.84541 236.788378 67.999183 C 235.294366 67.185089 234.08419 67.613424 235.524015 68.912621 C 237.703105 70.881414 242.471557 72.345752 248.109581 73.553347 C 257.953545 75.662767 254.437844 83.46827 251.555614 83.39731 C 252.38132 83.380538 253.058657 82.514837 251.870414 81.44658 C 243.328227 73.764934 225.961308 76.787792 226.242564 59.632459 C 224.414399 64.132557 216.891443 62.374061 220.405854 57.030195 C 221.530879 57.944923 223.499672 58.014592 224.063474 56.608311 C 224.49955 55.514251 224.214423 53.611256 222.24434 51.976616 C 222.568172 51.950813 223.263571 51.976616 223.192612 51.168973 C 223.280343 51.642463 223.711259 52.345604 224.818221 52.109503 C 225.135602 52.610088 225.467174 52.93908 225.917442 52.759747 C 226.005173 52.723622 226.268367 52.592025 226.162573 52.091441 C 226.251595 53.022941 227.358557 53.357094 227.940422 53.286134 Z M 227.940422 53.286134 " transform="matrix(3.027712,0,0,3.027712,-410.4192,7.2704)"/>
<path style="fill-rule:nonzero;fill:rgb(96.862745%,87.843137%,9.019608%);fill-opacity:1;stroke-width:0.125;stroke-linecap:butt;stroke-linejoin:miter;stroke:rgb(0%,0%,0%);stroke-opacity:1;stroke-miterlimit:4;" d="M 236.789668 67.999183 C 240.867881 70.671117 245.478933 70.668536 249.727449 65.749135 C 251.064061 64.202226 253.173481 62.865614 254.649431 62.724986 C 256.12538 62.584358 256.055711 61.178078 257.180736 60.898112 C 256.477596 60.686525 256.196339 59.842756 255.142274 59.94855 C 257.778083 59.033822 257.005273 56.924402 258.30576 55.905171 C 257.250405 56.29222 255.598993 54.710477 254.086919 56.714105 C 254.473968 55.799377 253.946291 54.710477 253.560531 54.288593 C 253.699869 55.342658 251.484655 55.554246 251.064061 58.226179 C 250.82667 59.725351 250.008705 59.632459 249.868077 57.311451 C 249.764864 55.613593 248.95464 50.91352 247.970243 48.522843 C 246.984557 46.132166 246.760068 42.849985 248.095389 42.357141 C 247.895414 42.017828 247.612867 41.717219 247.267103 41.49144 C 245.637624 40.428344 242.767005 40.857969 242.204493 42.757093 C 240.376328 47.538447 245.508607 50.280049 245.086723 55.483287 C 244.313914 51.61537 238.05661 50.630974 238.126279 46.834016 C 236.086528 47.748744 236.367784 49.43628 237.141883 50.771602 C 235.876231 48.802809 232.99271 52.037254 230.532364 49.365321 C 230.251108 52.881022 233.344926 54.217634 235.876231 54.358262 C 234.610578 56.608311 236.298115 58.506145 237.984361 59.139616 C 238.05661 55.20203 246.130467 56.817318 246.211748 63.568755 C 246.281416 69.334505 240.095072 69.826058 236.789668 67.997893 Z M 236.789668 67.999183 " transform="matrix(3.027712,0,0,3.027712,-410.4192,7.2704)"/>
<path style="fill-rule:nonzero;fill:rgb(96.862745%,87.843137%,9.019608%);fill-opacity:1;stroke-width:0.125;stroke-linecap:butt;stroke-linejoin:miter;stroke:rgb(0%,0%,0%);stroke-opacity:1;stroke-miterlimit:4;" d="M 248.109581 73.553347 C 257.953545 75.662767 254.439134 83.466979 251.555614 83.39731 C 249.719708 83.352155 247.970243 81.814277 247.86445 80.478956 C 245.755029 81.60398 246.317541 83.819195 247.935409 84.697797 C 243.50498 84.17012 241.641981 87.088474 241.536187 90.286795 C 242.345121 88.810845 244.805467 88.705052 245.720194 89.022433 C 246.633632 89.338523 248.989474 89.513986 249.939036 88.45992 C 249.164937 89.126936 250.430589 90.673845 249.340399 91.869828 C 253.031563 91.7292 254.649431 88.283168 254.01725 86.772384 C 258.798604 82.412914 257.883876 75.310552 248.109581 73.553347 Z M 248.109581 73.553347 " transform="matrix(3.027712,0,0,3.027712,-410.4192,7.2704)"/>
<path style="fill-rule:nonzero;fill:rgb(96.862745%,87.843137%,9.019608%);fill-opacity:1;stroke-width:0.125;stroke-linecap:butt;stroke-linejoin:miter;stroke:rgb(0%,0%,0%);stroke-opacity:1;stroke-miterlimit:4;" d="M 240.609848 106.959606 C 241.251061 107.359557 241.16978 108.200745 240.737575 108.733583 C 239.870583 109.80055 241.177521 112.344757 238.496557 112.773092 C 237.704395 112.899528 237.11866 112.395073 236.855466 111.489377 C 236.129103 108.986456 238.768782 108.813574 239.050038 107.645974 C 239.332584 106.478374 240.073139 106.624162 240.609848 106.959606 Z M 240.609848 106.959606 " transform="matrix(3.027712,0,0,3.027712,-410.4192,7.2704)"/>
<path style="fill-rule:nonzero;fill:rgb(96.862745%,87.843137%,9.019608%);fill-opacity:1;stroke-width:0.125;stroke-linecap:butt;stroke-linejoin:miter;stroke:rgb(0%,0%,0%);stroke-opacity:1;stroke-miterlimit:4;" d="M 238.199819 111.499698 C 239.06552 111.940935 239.809946 112.544733 239.346776 115.357294 C 239.154541 116.519733 239.111966 119.355517 240.131197 119.435507 C 239.489985 119.724504 238.143052 120.005761 237.621825 119.258755 C 237.058022 120.120585 235.87107 119.819977 235.442735 118.701403 C 234.795072 119.187796 233.965495 118.29113 233.995169 117.545415 C 233.431367 117.876987 232.352788 117.323506 232.693392 115.647581 C 232.017345 115.856588 231.172287 115.352133 230.875549 114.908316 C 231.863815 114.749626 234.387379 113.512357 235.01827 112.476354 C 235.647871 111.440351 237.19736 110.988793 238.199819 111.499698 Z M 238.199819 111.499698 " transform="matrix(3.027712,0,0,3.027712,-410.4192,7.2704)"/>
<path style="fill:none;stroke-width:0.125;stroke-linecap:butt;stroke-linejoin:miter;stroke:rgb(0%,0%,0%);stroke-opacity:1;stroke-miterlimit:4;" d="M 237.620534 119.260045 C 237.909532 118.878156 238.073383 117.234485 237.915982 116.225575 " transform="matrix(3.027712,0,0,3.027712,-410.4192,7.2704)"/>
<path style="fill:none;stroke-width:0.125;stroke-linecap:butt;stroke-linejoin:miter;stroke:rgb(0%,0%,0%);stroke-opacity:1;stroke-miterlimit:4;" d="M 235.440155 118.710434 C 235.885262 118.394344 236.753543 117.287382 236.930296 116.292664 " transform="matrix(3.027712,0,0,3.027712,-410.4192,7.2704)"/>
<path style="fill:none;stroke-width:0.125;stroke-linecap:butt;stroke-linejoin:miter;stroke:rgb(0%,0%,0%);stroke-opacity:1;stroke-miterlimit:4;" d="M 233.990008 117.550575 C 234.54865 117.317055 235.95106 115.64242 236.289084 114.535458 " transform="matrix(3.027712,0,0,3.027712,-410.4192,7.2704)"/>
<path style="fill:none;stroke-width:0.125;stroke-linecap:butt;stroke-linejoin:miter;stroke:rgb(0%,0%,0%);stroke-opacity:1;stroke-miterlimit:4;" d="M 232.689521 115.650161 C 233.343635 115.537917 235.374356 114.321291 236.252959 112.979518 " transform="matrix(3.027712,0,0,3.027712,-410.4192,7.2704)"/>
<path style="fill-rule:nonzero;fill:rgb(96.862745%,87.843137%,9.019608%);fill-opacity:1;stroke-width:0.125;stroke-linecap:butt;stroke-linejoin:miter;stroke:rgb(0%,0%,0%);stroke-opacity:1;stroke-miterlimit:4;" d="M 226.239983 59.632459 C 226.122578 66.839325 229.118343 70.485333 233.267516 72.859237 C 231.724478 71.936769 232.392783 68.771993 230.318197 67.752762 C 230.81104 67.717927 231.583849 68.421068 232.814667 68.139812 C 232.217321 66.8032 231.231634 64.764738 228.946751 64.483482 C 229.545388 64.412523 230.845875 64.62411 231.689643 64.30802 C 230.493659 62.479855 227.330173 63.358458 226.239983 59.631169 Z M 226.239983 59.632459 " transform="matrix(3.027712,0,0,3.027712,-410.4192,7.2704)"/>
<path style="fill-rule:nonzero;fill:rgb(96.862745%,87.843137%,9.019608%);fill-opacity:1;stroke-width:0.125;stroke-linecap:butt;stroke-linejoin:miter;stroke:rgb(0%,0%,0%);stroke-opacity:1;stroke-miterlimit:4;" d="M 225.490397 52.777809 C 225.237525 52.695239 225.022067 52.439786 224.81177 52.108213 C 223.704808 52.345604 223.273893 51.642463 223.186161 51.167682 C 223.25712 51.976616 222.557851 51.945652 222.232729 51.971456 C 224.211843 53.608676 224.494389 55.51167 224.057023 56.608311 C 223.494511 58.014592 221.524428 57.943632 220.399403 57.030195 C 220.260066 60.018219 224.126692 61.002615 225.532973 57.240492 C 225.532973 57.873963 226.341906 57.803004 226.553494 58.646773 C 227.557242 57.030195 226.798625 54.709187 225.490397 52.777809 Z M 225.490397 52.777809 " transform="matrix(3.027712,0,0,3.027712,-410.4192,7.2704)"/>
<path style="fill-rule:nonzero;fill:rgb(20%,45.098039%,12.941176%);fill-opacity:1;stroke-width:0.125;stroke-linecap:butt;stroke-linejoin:miter;stroke:rgb(0%,0%,0%);stroke-opacity:1;stroke-miterlimit:4;" d="M 219.319535 38.503417 C 217.562329 36.885549 216.753395 34.178781 216.823064 32.631873 C 216.894023 31.084964 217.527495 29.397427 219.777544 30.100568 C 219.073113 30.100568 219.565956 31.506848 218.826692 31.647476 C 219.425328 31.859063 220.234262 31.36622 220.338766 31.05013 C 220.479394 31.541683 221.394121 31.401055 221.46379 31.963567 C 221.816005 31.682311 221.428956 30.312155 220.902568 30.030899 C 221.288328 29.819312 221.498625 28.729122 221.323162 28.202734 C 220.972237 28.272403 220.444559 28.765246 220.338766 29.468387 C 220.515518 28.905874 220.303931 27.499594 219.319535 27.288007 C 219.038279 27.675056 218.96861 28.624618 219.354369 29.151006 C 218.440932 28.940709 217.105611 29.538055 216.78823 30.312155 C 216.859189 29.379365 216.986915 28.053075 217.562329 27.218338 C 217.754564 26.937082 217.279783 26.444238 216.910796 27.112544 C 216.225718 25.775932 214.397553 25.072792 213.588619 25.741098 C 212.779685 26.409404 211.690785 25.425007 211.02248 26.479073 C 210.355464 27.534428 208.092513 27.645382 208.209918 28.765246 C 208.279587 29.432262 208.119607 30.464394 207.788034 30.838542 C 206.980391 31.75327 208.175084 32.421576 208.385381 33.229219 C 208.244753 30.557286 212.498429 25.354048 216.753395 27.3938 C 216.366346 28.062106 216.028322 29.396137 215.909627 31.015295 C 215.734165 33.405972 216.08509 36.779755 218.404807 38.748548 Z M 219.319535 38.503417 " transform="matrix(3.027712,0,0,3.027712,-410.4192,7.2704)"/>
<path style="fill-rule:nonzero;fill:rgb(81.176471%,7.843137%,16.862745%);fill-opacity:1;stroke-width:0.125;stroke-linecap:butt;stroke-linejoin:miter;stroke:rgb(0%,0%,0%);stroke-opacity:1;stroke-miterlimit:4;" d="M 220.580027 30.135402 C 220.556804 29.503221 221.652154 28.680095 223.129394 28.694287 C 224.903372 28.712349 226.274818 30.328927 227.699161 30.171527 C 229.123504 30.012836 228.420363 30.803708 228.121045 31.015295 C 227.821726 31.225592 227.647554 31.541683 227.752057 31.928732 C 227.856561 32.315782 227.674648 32.568655 227.101814 32.209989 C 225.836162 31.419117 224.570509 32.526079 222.899745 31.91067 C 221.452179 31.377832 220.614861 31.084964 220.580027 30.135402 Z M 220.580027 30.135402 " transform="matrix(3.027712,0,0,3.027712,-410.4192,7.2704)"/>
<path style="fill-rule:nonzero;fill:rgb(58.823529%,52.941176%,49.019608%);fill-opacity:1;stroke-width:0.125;stroke-linecap:butt;stroke-linejoin:miter;stroke:rgb(0%,0%,0%);stroke-opacity:1;stroke-miterlimit:4;" d="M 213.339617 46.729513 C 212.636477 44.514298 209.964544 42.088787 208.664057 41.526275 L 208.594388 40.330291 C 209.297528 40.049035 210.983775 38.713714 211.757874 37.975739 C 217.030781 40.507044 224.202812 36.920383 227.508216 33.194385 L 228.773869 33.967194 L 228.140397 34.810962 L 227.473382 34.460037 C 226.664448 35.444434 223.64546 38.284088 222.730733 38.882725 C 223.960261 39.192365 225.640056 39.406532 226.101936 39.382019 C 229.055125 37.272599 231.374843 35.373475 232.499867 35.232847 L 233.449429 36.498499 L 232.605661 37.095846 L 231.938645 36.710086 C 228.773869 39.31106 225.188498 45.005851 223.780928 48.804099 C 221.813425 48.382215 214.780732 48.663471 213.339617 46.729513 Z M 213.339617 46.729513 " transform="matrix(3.027712,0,0,3.027712,-410.4192,7.2704)"/>
<path style="fill:none;stroke-width:0.125;stroke-linecap:butt;stroke-linejoin:miter;stroke:rgb(0%,0%,0%);stroke-opacity:1;stroke-miterlimit:4;" d="M 222.729443 38.881435 C 222.275304 38.76661 221.883094 38.635013 221.635382 38.502126 C 221.07287 39.029804 219.666589 39.486523 217.874549 39.557482 " transform="matrix(3.027712,0,0,3.027712,-410.4192,7.2704)"/>
<path style="fill:none;stroke-width:0.125;stroke-linecap:butt;stroke-linejoin:miter;stroke:rgb(0%,0%,0%);stroke-opacity:1;stroke-miterlimit:4;" d="M 213.619583 45.955413 C 213.146092 43.336377 213.900839 40.436085 215.237451 39.557482 C 218.154515 41.49144 223.147456 41.49144 226.100645 39.382019 " transform="matrix(3.027712,0,0,3.027712,-410.4192,7.2704)"/>
<path style="fill:none;stroke-width:0.125;stroke-linecap:butt;stroke-linejoin:miter;stroke:rgb(0%,0%,0%);stroke-opacity:1;stroke-miterlimit:4;" d="M 213.619583 44.585257 C 215.869632 44.514298 220.756779 44.901348 221.951473 45.07681 C 223.147456 45.252273 225.151084 45.745116 224.869827 46.342463 " transform="matrix(3.027712,0,0,3.027712,-410.4192,7.2704)"/>
<path style="fill:none;stroke-width:0.125;stroke-linecap:butt;stroke-linejoin:miter;stroke:rgb(0%,0%,0%);stroke-opacity:1;stroke-miterlimit:4;" d="M 214.659457 44.212399 L 215.30712 43.566027 L 214.659457 42.919654 L 214.014374 43.566027 Z M 214.659457 44.212399 " transform="matrix(3.027712,0,0,3.027712,-410.4192,7.2704)"/>
<path style="fill-rule:nonzero;fill:rgb(20%,45.098039%,12.941176%);fill-opacity:1;stroke-width:0.125;stroke-linecap:butt;stroke-linejoin:miter;stroke:rgb(0%,0%,0%);stroke-opacity:1;stroke-miterlimit:4;" d="M 216.189593 31.119799 C 215.380659 29.994774 213.152543 29.638688 212.673892 31.154633 C 212.463595 31.822939 212.147504 32.526079 211.618536 32.84217 C 211.092149 33.15955 211.216004 34.116853 211.444364 34.529706 C 212.005586 35.550227 211.514033 36.534624 212.604223 37.201639 C 212.604223 36.393996 213.798916 35.550227 214.819437 35.33864 C 215.837378 35.128343 217.385577 34.213616 217.595874 33.194385 C 217.807461 32.175154 218.158386 31.331386 216.189593 31.119799 Z M 216.189593 31.119799 " transform="matrix(3.027712,0,0,3.027712,-410.4192,7.2704)"/>
<path style="fill-rule:nonzero;fill:rgb(58.823529%,52.941176%,49.019608%);fill-opacity:1;stroke-width:0.125;stroke-linecap:butt;stroke-linejoin:miter;stroke:rgb(0%,0%,0%);stroke-opacity:1;stroke-miterlimit:4;" d="M 211.120532 41.245019 L 211.400498 41.245019 L 211.405659 43.167365 C 211.462426 43.188008 211.526934 43.215101 211.57338 43.256387 L 213.229953 42.300374 L 213.370581 42.544215 L 211.707558 43.509259 C 211.719169 43.569897 211.7282 43.638276 211.715299 43.698914 L 213.370581 44.656216 L 213.229953 44.900058 L 211.563059 43.942755 C 211.516613 43.98275 211.462426 44.024035 211.401788 44.043388 L 211.400498 45.956703 L 211.120532 45.956703 L 211.115372 44.033066 C 211.058604 44.013714 210.994096 43.986621 210.94765 43.944045 L 209.291077 44.900058 L 209.150449 44.656216 L 210.813473 43.691173 C 210.801861 43.631825 210.79283 43.563446 210.805732 43.501518 L 209.150449 42.544215 L 209.291077 42.300374 L 210.959261 43.258967 C 211.004417 43.218972 211.059894 43.177687 211.119242 43.158334 Z M 211.120532 41.245019 " transform="matrix(3.027712,0,0,3.027712,-410.4192,7.2704)"/>
<path style="fill-rule:nonzero;fill:rgb(58.823529%,52.941176%,49.019608%);fill-opacity:1;stroke-width:0.125;stroke-linecap:butt;stroke-linejoin:miter;stroke:rgb(0%,0%,0%);stroke-opacity:1;stroke-miterlimit:4;" d="M 213.629904 45.946382 C 213.026107 46.55534 212.19008 46.932069 211.266321 46.932069 C 209.426545 46.932069 207.933823 45.440637 207.933823 43.600861 C 207.933823 41.761085 209.426545 40.269653 211.266321 40.269653 C 212.34748 40.269653 213.307363 40.784429 213.916321 41.581752 C 213.743439 42.001056 213.544753 42.941586 213.530562 43.367341 C 213.414447 42.219094 212.444242 41.323719 211.266321 41.323719 C 210.008409 41.323719 208.989179 42.342949 208.989179 43.600861 C 208.989179 44.857482 210.008409 45.876713 211.266321 45.876713 C 212.317806 45.876713 213.227373 45.141319 213.489276 44.171114 C 213.487986 44.589128 213.498307 45.595457 213.629904 45.946382 Z M 213.629904 45.946382 " transform="matrix(3.027712,0,0,3.027712,-410.4192,7.2704)"/>
<path style="fill-rule:nonzero;fill:rgb(20%,45.098039%,12.941176%);fill-opacity:1;stroke-width:0.125;stroke-linecap:butt;stroke-linejoin:miter;stroke:rgb(0%,0%,0%);stroke-opacity:1;stroke-miterlimit:4;" d="M 209.86004 49.12019 C 209.649743 48.873768 209.262694 48.205462 209.297528 47.713909 C 209.613619 47.679075 210.212256 47.889372 210.493512 48.170628 C 210.457387 47.819703 210.318049 47.045603 210.387718 46.694678 C 210.774768 46.835306 211.582411 47.292025 211.863668 47.819703 C 211.793999 47.467487 211.653371 46.55405 211.793999 45.991538 C 212.215883 46.236669 212.919023 46.904975 213.059651 47.361694 C 213.094486 46.658554 213.340907 45.498695 213.552494 45.217439 C 213.868585 45.533529 214.360138 45.814785 214.677519 46.236669 C 214.747188 45.674157 215.028444 45.007142 215.450328 44.830389 C 215.766419 45.182604 216.259262 45.991538 216.363765 46.904975 C 216.681146 46.799182 217.10303 46.272794 217.278493 45.991538 C 217.453955 46.272794 217.629418 46.764347 217.524914 47.361694 C 217.910674 47.010769 218.367393 46.517925 218.474476 46.096041 C 218.754442 46.307628 219.28212 46.835306 219.422748 47.397818 C 219.353079 46.93981 219.387914 46.132166 219.247286 45.674157 C 219.774963 45.955413 220.195557 46.448257 220.302641 46.975934 C 220.443269 46.483091 220.75936 45.604488 221.040616 45.392901 C 221.320582 45.955413 221.603128 46.623719 221.568294 47.186231 C 221.742466 46.835306 222.025012 46.201835 222.306268 46.061207 C 222.5514 46.448257 222.516565 47.292025 222.445606 47.748744 C 222.693318 47.397818 223.150037 46.975934 223.431293 46.835306 C 223.466127 47.045603 223.500962 47.467487 223.431293 47.783578 C 223.747383 47.608115 224.275061 46.658554 224.450524 46.167 C 224.943367 46.413422 225.43492 47.25719 225.469754 47.679075 C 225.82068 47.538447 226.52511 46.904975 226.735407 46.55405 C 226.735407 46.799182 226.841201 47.467487 226.700572 47.995165 C 226.910869 47.783578 227.122457 47.361694 227.22825 47.186231 C 227.367588 47.538447 227.263085 48.382215 227.122457 48.838933 C 227.438547 48.557677 227.896556 48.382215 228.176522 48.382215 C 228.211356 48.979562 227.789472 50.033627 227.402423 50.807726 C 224.028639 49.858164 216.962402 49.507239 209.86004 49.12019 Z M 209.86004 49.12019 " transform="matrix(3.027712,0,0,3.027712,-410.4192,7.2704)"/>
<path style=" stroke:none;fill-rule:nonzero;fill:rgb(96.862745%,87.843137%,9.019608%);fill-opacity:1;" d="M 260.613281 99.601562 C 260.5625 98.816406 262.3125 97.039062 265.449219 97.058594 C 269.207031 97.082031 272.679688 99.839844 275.699219 99.644531 C 278.71875 99.449219 277.230469 100.429688 276.597656 100.6875 C 275.960938 100.949219 275.585938 101.34375 275.8125 101.820312 C 276.035156 102.300781 275.648438 102.613281 274.433594 102.167969 C 271.75 101.191406 269.070312 102.5625 265.53125 101.800781 C 262.460938 101.136719 260.683594 100.777344 260.613281 99.601562 Z M 260.613281 99.601562 "/>
<path style="fill-rule:nonzero;fill:rgb(96.862745%,87.843137%,9.019608%);fill-opacity:1;stroke-width:0.125;stroke-linecap:butt;stroke-linejoin:miter;stroke:rgb(0%,0%,0%);stroke-opacity:1;stroke-miterlimit:4;" d="M 210.95023 51.22961 C 209.896165 52.493973 208.840809 52.283676 208.630512 51.474742 C 208.418925 50.667098 209.193025 50.280049 208.910478 49.576908 C 208.630512 48.873768 209.368487 48.557677 209.719412 48.873768 C 210.071628 49.189859 211.195362 48.170628 211.689495 49.224693 C 212.181048 50.280049 212.568098 51.018023 212.285552 51.439907 C 212.005586 51.861792 211.160527 51.651495 210.95023 51.22961 Z M 210.95023 51.22961 " transform="matrix(3.027712,0,0,3.027712,-410.4192,7.2704)"/>
<path style="fill-rule:nonzero;fill:rgb(96.862745%,87.843137%,9.019608%);fill-opacity:1;stroke-width:0.125;stroke-linecap:butt;stroke-linejoin:miter;stroke:rgb(0%,0%,0%);stroke-opacity:1;stroke-miterlimit:4;" d="M 215.480002 49.330487 C 215.282607 48.868607 216.376667 47.977103 216.939179 48.610574 C 217.501691 49.242755 218.381584 47.924206 218.873138 48.926665 C 219.364691 49.929123 219.523381 50.455511 219.769803 51.018023 C 220.016224 51.580535 218.434481 51.879854 217.941638 51.388301 C 218.012597 51.721164 216.575353 51.983067 216.184432 51.036086 C 215.972845 50.52647 215.744486 49.945896 215.480002 49.330487 Z M 215.480002 49.330487 " transform="matrix(3.027712,0,0,3.027712,-410.4192,7.2704)"/>
<path style="fill-rule:nonzero;fill:rgb(96.862745%,87.843137%,9.019608%);fill-opacity:1;stroke-width:0.125;stroke-linecap:butt;stroke-linejoin:miter;stroke:rgb(0%,0%,0%);stroke-opacity:1;stroke-miterlimit:4;" d="M 222.800402 49.911061 C 222.535918 49.419508 223.819633 48.715078 224.486648 49.611743 C 224.663401 49.242755 225.929053 49.173086 226.016785 50.245214 C 226.104516 51.317342 226.140641 51.949523 226.175475 52.371407 C 226.21031 52.793291 225.401376 53.180341 224.820801 52.108213 C 223.783508 52.3198 223.310017 51.739226 223.187451 51.123817 C 223.063596 50.508408 222.94103 50.21038 222.800402 49.911061 Z M 222.800402 49.911061 " transform="matrix(3.027712,0,0,3.027712,-410.4192,7.2704)"/>
<path style="fill-rule:nonzero;fill:rgb(20%,45.098039%,12.941176%);fill-opacity:1;stroke-width:0.125;stroke-linecap:butt;stroke-linejoin:miter;stroke:rgb(0%,0%,0%);stroke-opacity:1;stroke-miterlimit:4;" d="M 211.630148 49.207921 C 211.471457 48.856996 212.525523 48.153856 213.246725 48.680243 C 213.967928 49.207921 214.966516 48.226105 215.392271 49.173086 C 216.252811 51.088982 216.305708 51.22961 216.042514 51.598598 C 215.77803 51.967585 214.653006 51.826957 214.37175 51.317342 C 214.318853 51.669557 213.348648 51.611499 212.842903 51.335404 C 212.263619 51.018023 211.858507 49.841392 211.630148 49.207921 Z M 211.630148 49.207921 " transform="matrix(3.027712,0,0,3.027712,-410.4192,7.2704)"/>
<path style="fill-rule:nonzero;fill:rgb(20%,45.098039%,12.941176%);fill-opacity:1;stroke-width:0.125;stroke-linecap:butt;stroke-linejoin:miter;stroke:rgb(0%,0%,0%);stroke-opacity:1;stroke-miterlimit:4;" d="M 219.030538 49.295652 C 218.784116 48.751202 220.436818 48.276421 221.156731 49.225983 C 221.525718 48.89183 222.334652 48.873768 222.791371 49.911061 C 223.249379 50.948354 223.319048 51.528929 222.984895 51.792123 C 222.750085 51.977907 221.894705 52.126276 221.613449 51.651495 C 221.2264 51.897916 220.031706 51.686329 219.768512 51.018023 C 219.505319 50.351008 219.275669 49.770433 219.030538 49.295652 Z M 219.030538 49.295652 " transform="matrix(3.027712,0,0,3.027712,-410.4192,7.2704)"/>
<path style="fill-rule:nonzero;fill:rgb(20%,45.098039%,12.941176%);fill-opacity:1;stroke-width:0.125;stroke-linecap:butt;stroke-linejoin:miter;stroke:rgb(0%,0%,0%);stroke-opacity:1;stroke-miterlimit:4;" d="M 226.029686 50.332945 C 225.994852 49.841392 226.891517 49.611743 227.22567 50.332945 C 227.559823 51.054148 228.62808 50.405195 228.719682 51.598598 C 228.736454 51.826957 228.597116 52.70556 228.262963 53.127444 C 227.92881 53.549328 226.29417 53.127444 226.188377 52.232069 C 226.082583 51.335404 226.047749 50.825789 226.029686 50.332945 Z M 226.029686 50.332945 " transform="matrix(3.027712,0,0,3.027712,-410.4192,7.2704)"/>
<path style="fill:none;stroke-width:0.125;stroke-linecap:butt;stroke-linejoin:miter;stroke:rgb(0%,0%,0%);stroke-opacity:1;stroke-miterlimit:4;" d="M 210.95023 51.22961 C 210.564471 50.701933 210.035503 49.858164 209.368487 50.771602 " transform="matrix(3.027712,0,0,3.027712,-410.4192,7.2704)"/>
<path style="fill:none;stroke-width:0.125;stroke-linecap:butt;stroke-linejoin:miter;stroke:rgb(0%,0%,0%);stroke-opacity:1;stroke-miterlimit:4;" d="M 214.379491 51.317342 C 214.152421 51.018023 213.853103 50.52647 213.747309 50.13942 " transform="matrix(3.027712,0,0,3.027712,-410.4192,7.2704)"/>
<path style="fill:none;stroke-width:0.125;stroke-linecap:butt;stroke-linejoin:miter;stroke:rgb(0%,0%,0%);stroke-opacity:1;stroke-miterlimit:4;" d="M 217.940348 51.387011 C 217.693926 51.211548 217.324939 50.859333 217.131414 50.490346 " transform="matrix(3.027712,0,0,3.027712,-410.4192,7.2704)"/>
<path style="fill:none;stroke-width:0.125;stroke-linecap:butt;stroke-linejoin:miter;stroke:rgb(0%,0%,0%);stroke-opacity:1;stroke-miterlimit:4;" d="M 217.629418 49.542074 C 218.244827 49.611743 218.666711 50.192317 218.860236 50.455511 C 219.053761 50.719995 219.457583 51.194776 219.774963 51.247673 " transform="matrix(3.027712,0,0,3.027712,-410.4192,7.2704)"/>
<path style="fill:none;stroke-width:0.125;stroke-linecap:butt;stroke-linejoin:miter;stroke:rgb(0%,0%,0%);stroke-opacity:1;stroke-miterlimit:4;" d="M 221.6199 51.651495 C 221.409603 51.317342 221.198016 51.018023 221.146409 50.771602 " transform="matrix(3.027712,0,0,3.027712,-410.4192,7.2704)"/>
<path style="fill:none;stroke-width:0.125;stroke-linecap:butt;stroke-linejoin:miter;stroke:rgb(0%,0%,0%);stroke-opacity:1;stroke-miterlimit:4;" d="M 221.160601 49.224693 C 221.370898 49.524011 221.529589 49.770433 221.652154 50.051689 " transform="matrix(3.027712,0,0,3.027712,-410.4192,7.2704)"/>
<path style="fill:none;stroke-width:0.125;stroke-linecap:butt;stroke-linejoin:miter;stroke:rgb(0%,0%,0%);stroke-opacity:1;stroke-miterlimit:4;" d="M 224.819511 52.108213 C 224.539545 51.580535 224.099599 51.07092 223.730611 50.895458 " transform="matrix(3.027712,0,0,3.027712,-410.4192,7.2704)"/>
<path style="fill:none;stroke-width:0.125;stroke-linecap:butt;stroke-linejoin:miter;stroke:rgb(0%,0%,0%);stroke-opacity:1;stroke-miterlimit:4;" d="M 224.680173 50.174255 C 224.715008 51.211548 226.104516 51.281217 226.156123 52.019192 " transform="matrix(3.027712,0,0,3.027712,-410.4192,7.2704)"/>
<path style="fill:none;stroke-width:0.125;stroke-linecap:butt;stroke-linejoin:miter;stroke:rgb(0%,0%,0%);stroke-opacity:1;stroke-miterlimit:4;" d="M 227.220509 50.332945 C 227.359847 50.596139 227.412744 50.860623 227.430806 51.299279 " transform="matrix(3.027712,0,0,3.027712,-410.4192,7.2704)"/>
</g>
</svg>
