<?xml version="1.0" encoding="UTF-8"?>
<svg xmlns="http://www.w3.org/2000/svg" xmlns:xlink="http://www.w3.org/1999/xlink" width="384pt" height="384pt" viewBox="0 0 384 384" version="1.1">
<defs>
<clipPath id="clip1">
  <path d="M 0 0 L 383.980469 0 L 383.980469 192 L 0 192 Z M 0 0 "/>
</clipPath>
<clipPath id="clip2">
  <path d="M 0 287 L 383.980469 287 L 383.980469 383.988281 L 0 383.988281 Z M 0 287 "/>
</clipPath>
<clipPath id="clip3">
  <path d="M 0 191 L 383.980469 191 L 383.980469 288 L 0 288 Z M 0 191 "/>
</clipPath>
</defs>
<g id="surface1">
<g clip-path="url(#clip1)" clip-rule="nonzero">
<path style=" stroke:none;fill-rule:evenodd;fill:rgb(0%,60.392157%,95.686275%);fill-opacity:1;" d="M -192 0 L 383.980469 0 L 383.980469 191.992188 L -192 191.992188 Z M -192 0 "/>
</g>
<g clip-path="url(#clip2)" clip-rule="nonzero">
<path style=" stroke:none;fill-rule:evenodd;fill:rgb(10.980392%,56.078431%,19.215686%);fill-opacity:1;" d="M -192 287.996094 L 383.980469 287.996094 L 383.980469 383.996094 L -192 383.996094 Z M -192 287.996094 "/>
</g>
<g clip-path="url(#clip3)" clip-rule="nonzero">
<path style=" stroke:none;fill-rule:evenodd;fill:rgb(93.72549%,93.72549%,0%);fill-opacity:1;" d="M -192 191.992188 L 383.980469 191.992188 L 383.980469 287.996094 L -192 287.996094 Z M -192 191.992188 "/>
</g>
<path style=" stroke:none;fill-rule:evenodd;fill:rgb(100%,85.490196%,0%);fill-opacity:1;" d="M 330.992188 133.644531 L 303.109375 118.269531 L 319.683594 145.449219 L 296.738281 123.378906 L 305.710938 153.933594 L 289.253906 126.679688 L 290.019531 158.5 L 281.179688 127.917969 L 273.679688 158.855469 L 273.058594 127.027344 L 257.804688 154.96875 L 265.441406 124.0625 L 243.476562 147.113281 L 258.847656 119.230469 L 231.671875 135.804688 L 253.730469 112.859375 L 223.1875 121.832031 L 250.441406 105.375 L 218.617188 106.140625 L 249.203125 97.300781 L 218.261719 89.800781 L 250.09375 89.175781 L 222.148438 73.925781 L 253.050781 81.566406 L 230.003906 59.59375 L 257.886719 74.96875 L 241.316406 47.789062 L 264.257812 69.855469 L 255.285156 39.308594 L 271.742188 66.566406 L 270.976562 34.738281 L 279.816406 65.320312 L 287.316406 34.382812 L 287.9375 66.210938 L 303.195312 38.269531 L 295.554688 69.175781 L 317.523438 46.128906 L 302.148438 74.007812 L 329.328125 57.433594 L 307.265625 80.378906 L 337.8125 71.40625 L 310.554688 87.867188 L 342.378906 87.097656 L 311.792969 95.9375 L 342.734375 103.441406 L 310.90625 104.058594 L 338.847656 119.316406 L 307.949219 111.675781 Z M 330.992188 133.644531 "/>
<path style=" stroke:none;fill-rule:evenodd;fill:rgb(0%,59.607843%,96.470588%);fill-opacity:1;" d="M 304.777344 96.621094 C 304.777344 110.03125 293.910156 120.898438 280.5 120.898438 C 267.089844 120.898438 256.21875 110.03125 256.21875 96.621094 C 256.21875 83.210938 267.089844 72.339844 280.5 72.339844 C 293.910156 72.339844 304.777344 83.210938 304.777344 96.621094 Z M 304.777344 96.621094 "/>
<path style=" stroke:none;fill-rule:evenodd;fill:rgb(100%,85.098039%,0%);fill-opacity:1;" d="M 300.019531 96.621094 C 300.019531 107.558594 291.28125 116.425781 280.5 116.425781 C 269.71875 116.425781 260.980469 107.558594 260.980469 96.621094 C 260.980469 85.683594 269.71875 76.816406 280.5 76.816406 C 291.28125 76.816406 300.019531 85.683594 300.019531 96.621094 Z M 300.019531 96.621094 "/>
</g>
</svg>
