<?xml version="1.0" encoding="UTF-8"?>
<svg xmlns="http://www.w3.org/2000/svg" xmlns:xlink="http://www.w3.org/1999/xlink" width="384pt" height="384pt" viewBox="0 0 384 384" version="1.1">
<defs>
<clipPath id="clip1">
  <path d="M 0 0 L 383.988281 0 L 383.988281 383.988281 L 0 383.988281 Z M 0 0 "/>
</clipPath>
</defs>
<g id="surface1">
<g clip-path="url(#clip1)" clip-rule="nonzero">
<path style=" stroke:none;fill-rule:evenodd;fill:rgb(9.803922%,61.568627%,0%);fill-opacity:1;" d="M -96 0 L 479.980469 0 L 479.980469 383.988281 L -96 383.988281 Z M -96 0 "/>
</g>
<path style=" stroke:none;fill-rule:evenodd;fill:rgb(100%,100%,100%);fill-opacity:1;" d="M 49.15625 108.851562 C 48.488281 117.820312 47.691406 133.609375 55.3125 135.226562 C 64.53125 136.113281 59.449219 119.625 62.785156 116.632812 C 63.417969 115.15625 64.582031 115.148438 64.675781 117.011719 L 64.675781 131 C 64.59375 135.546875 67.582031 136.886719 69.90625 137.828125 C 72.324219 137.640625 73.9375 137.722656 74.886719 140.074219 C 75.261719 148.136719 75.640625 156.203125 76.019531 164.269531 C 76.019531 164.269531 81.625 165.875 81.890625 150.660156 C 82.160156 141.726562 80.109375 134.25 81.3125 132.511719 C 81.355469 130.804688 83.535156 130.703125 85.046875 131.535156 C 87.457031 133.234375 88.53125 135.332031 92.273438 134.492188 C 97.972656 132.921875 101.398438 130.152344 101.484375 125.777344 C 101.152344 121.617188 100.683594 117.457031 98.882812 113.300781 C 99.132812 112.542969 97.78125 110.585938 98.035156 109.828125 C 99.058594 111.433594 100.617188 111.300781 100.96875 109.828125 C 100 106.632812 98.496094 103.570312 96.054688 102.246094 C 94.039062 100.46875 91.089844 100.832031 90.007812 104.535156 C 89.507812 108.804688 91.546875 113.875 94.65625 118.011719 C 95.316406 119.628906 96.242188 122.3125 95.835938 124.730469 C 94.179688 125.671875 92.527344 125.28125 91.140625 123.816406 C 91.140625 123.816406 86.605469 120.414062 86.605469 119.65625 C 87.808594 111.953125 86.871094 111.078125 86.203125 108.9375 C 85.738281 105.988281 84.335938 105.039062 83.203125 103.023438 C 82.066406 101.820312 80.535156 101.820312 79.800781 103.023438 C 77.792969 106.5 78.730469 113.960938 80.179688 117.300781 C 81.222656 120.375 82.824219 122.304688 82.066406 122.304688 C 81.445312 124.042969 80.160156 123.640625 79.222656 121.636719 C 77.886719 117.492188 77.621094 111.308594 77.621094 108.523438 C 77.21875 105.074219 76.777344 97.710938 74.507812 95.839844 C 73.121094 93.953125 71.066406 94.875 70.347656 96.597656 C 70.199219 100.023438 70.183594 103.449219 70.570312 106.605469 C 72.128906 112.140625 72.617188 117.011719 73.371094 122.683594 C 73.582031 130.277344 68.980469 125.976562 69.191406 122.210938 C 70.253906 117.320312 69.976562 109.621094 69.035156 107.671875 C 68.285156 105.71875 67.402344 105.238281 65.585938 105.558594 C 64.140625 105.472656 60.425781 109.527344 59.382812 116.253906 C 59.382812 116.253906 58.496094 119.71875 58.117188 122.792969 C 57.605469 126.269531 55.320312 128.71875 53.714844 122.304688 C 52.328125 117.640625 51.476562 106.160156 49.15625 108.851562 Z M 49.15625 108.851562 "/>
<path style=" stroke:none;fill-rule:evenodd;fill:rgb(100%,100%,100%);fill-opacity:1;" d="M 74.203125 145.648438 C 66.066406 149.628906 58.199219 153.335938 50.195312 157.179688 C 50.488281 151.738281 61.609375 141.914062 69.195312 141.777344 C 74.128906 141.914062 72.890625 143.691406 74.203125 145.648438 Z M 74.203125 145.648438 "/>
<path style=" stroke:none;fill-rule:evenodd;fill:rgb(100%,100%,100%);fill-opacity:1;" d="M 70.007812 153.175781 C 57.355469 185.789062 99.636719 190.332031 104.359375 154.511719 C 104.804688 153.039062 106.589844 151.570312 106.902344 153.976562 C 105.917969 186.410156 74.195312 188.640625 68.804688 178.433594 C 67.46875 176.03125 67.066406 170.683594 66.933594 167.476562 C 66.132812 161.105469 62.792969 163.554688 62.257812 169.878906 C 61.722656 173.402344 61.855469 174.382812 61.855469 177.769531 C 63.546875 203.386719 104.40625 192.382812 111.042969 171.21875 C 114.5625 159.5 110.464844 150.855469 112.378906 150.902344 C 116.433594 155.269531 122.09375 151.480469 123.339844 149.964844 C 123.875 149.207031 125.210938 148.71875 126.148438 149.699219 C 129.3125 151.972656 134.882812 150.902344 136.039062 146.890625 C 136.707031 142.96875 137.242188 138.914062 137.375 134.730469 C 134.792969 135.53125 132.875 136.066406 132.699219 137.132812 C 132.519531 138.292969 132.34375 139.449219 132.164062 140.609375 C 131.941406 141.722656 129.710938 141.765625 129.625 140.339844 C 128.644531 135.886719 124.589844 135.308594 122.136719 142.214844 C 120.488281 143.550781 117.503906 143.816406 117.191406 141.8125 C 117.59375 137.179688 115.722656 136.554688 111.980469 138.738281 C 110.777344 129.558594 109.574219 120.78125 108.371094 111.605469 C 109.929688 111.558594 111.355469 112.71875 112.78125 110.9375 C 111.222656 106.078125 107.925781 96.144531 106.097656 95.429688 C 105.207031 94.363281 104.449219 95.03125 103.292969 95.296875 C 101.332031 95.921875 99.503906 97.613281 100.082031 100.910156 C 102.398438 114.992188 103.914062 125.726562 106.230469 139.808594 C 106.585938 141.457031 105.207031 143.636719 103.425781 143.414062 C 100.394531 141.367188 99.640625 137.222656 94.46875 137.402344 C 90.726562 137.445312 86.449219 141.5 85.914062 145.421875 C 85.292969 148.539062 85.066406 151.925781 85.914062 154.644531 C 88.542969 157.808594 91.707031 157.496094 94.46875 156.78125 C 96.742188 155.847656 98.613281 153.574219 99.414062 154.109375 C 99.949219 154.777344 99.546875 162.261719 88.722656 168.011719 C 82.171875 170.949219 76.957031 171.621094 74.152344 166.273438 C 72.414062 162.929688 74.285156 150.234375 70.007812 153.175781 Z M 70.007812 153.175781 "/>
<path style=" stroke:none;fill-rule:evenodd;fill:rgb(100%,100%,100%);fill-opacity:1;" d="M 123.675781 120.019531 C 126.214844 119.085938 138.246094 105.316406 138.246094 105.316406 C 137.621094 104.78125 137.0625 104.382812 136.441406 103.847656 C 135.769531 103.269531 135.839844 102.6875 136.441406 102.109375 C 139.425781 100.371094 138.46875 96.5625 136.910156 94.824219 C 134.324219 93.667969 132.074219 94.042969 130.425781 94.890625 C 128.332031 96.894531 127.839844 100.105469 129.492188 102.109375 C 131.09375 102.867188 132.699219 104.492188 131.628906 105.382812 C 126.707031 110.640625 113.226562 119.707031 114.789062 120.019531 C 115.121094 120.464844 123.410156 120.445312 123.675781 120.019531 Z M 123.675781 120.019531 "/>
<path style=" stroke:none;fill-rule:evenodd;fill:rgb(100%,100%,100%);fill-opacity:1;" d="M 51.019531 168.742188 C 46.507812 175.929688 46.117188 186.667969 48.605469 189.867188 C 49.929688 191.382812 52.101562 192.042969 53.710938 191.570312 C 56.542969 190.339844 57.785156 184.597656 57.113281 182.496094 C 56.167969 181.015625 55.421875 180.78125 54.476562 182.039062 C 52.480469 186.089844 51.652344 183.3125 51.476562 181.050781 C 51.171875 176.757812 51.578125 172.804688 52.042969 169.671875 C 52.539062 166.464844 52.035156 167.445312 51.019531 168.742188 Z M 51.019531 168.742188 "/>
<path style=" stroke:none;fill-rule:evenodd;fill:rgb(100%,100%,100%);fill-opacity:1;" d="M 243.835938 157.230469 C 239.472656 147.839844 233.433594 138.558594 231.511719 134.996094 C 229.589844 131.429688 215.082031 110.375 212.945312 108.007812 C 208.234375 102.40625 220.597656 110.339844 211.382812 99.222656 C 207.867188 96.207031 207.664062 96.023438 204.746094 93.5625 C 203.273438 92.519531 199.683594 90.613281 199.046875 93.773438 C 198.726562 96.558594 198.898438 98.070312 199.367188 100.394531 C 199.726562 101.941406 201.980469 104.53125 203.089844 106.035156 C 217.808594 125.816406 230.859375 145.796875 243.445312 170.917969 C 245.429688 169.972656 244.996094 158.800781 243.835938 157.230469 Z M 243.835938 157.230469 "/>
<path style=" stroke:none;fill-rule:evenodd;fill:rgb(100%,100%,100%);fill-opacity:1;" d="M 224.683594 188.648438 C 223.824219 189.613281 226.800781 193.730469 230.667969 193.726562 C 237.136719 192.976562 242.828125 189.34375 248.101562 179.78125 C 249.511719 177.550781 251.988281 172.78125 252.0625 169.082031 C 252.554688 147.386719 250.976562 130.507812 247.726562 114.828125 C 247.515625 113.300781 247.644531 111.507812 247.902344 111.046875 C 248.320312 110.546875 249.742188 111.050781 250.496094 109.816406 C 251.601562 108.6875 247.558594 99.335938 245.253906 95.738281 C 244.4375 94.128906 244.152344 93.054688 242.796875 95.925781 C 241.375 98.257812 240.417969 102.328125 240.53125 106.132812 C 243.617188 127.492188 244.5625 146.179688 246.578125 167.542969 C 246.742188 169.609375 246.441406 172.609375 245.066406 173.808594 C 239.988281 179.109375 232.65625 185.640625 224.683594 188.648438 Z M 224.683594 188.648438 "/>
<path style=" stroke:none;fill-rule:evenodd;fill:rgb(100%,100%,100%);fill-opacity:1;" d="M 312.046875 188.535156 C 307.40625 191.214844 307.398438 194.304688 311.152344 194.414062 C 317.621094 193.664062 325.261719 193.125 330.53125 185.167969 C 331.941406 182.9375 333.617188 176.90625 333.691406 173.207031 C 334.183594 151.511719 333.40625 135.320312 330.15625 119.644531 C 329.949219 118.117188 329.273438 114.601562 329.53125 114.140625 C 329.949219 113.070312 332.058594 114.257812 332.8125 113.023438 C 333.917969 111.894531 327.355469 103.464844 325.050781 99.863281 C 324.230469 98.253906 323.949219 97.179688 322.59375 100.050781 C 321.167969 102.382812 320.671875 106.570312 321.242188 110.257812 C 324.671875 133.453125 327.222656 150.878906 327.75 171.4375 C 327.457031 173.390625 327.382812 174.441406 326.46875 176.902344 C 324.441406 179.496094 322.199219 182.738281 320.097656 184.308594 C 317.996094 185.875 313.507812 187.371094 312.046875 188.535156 Z M 312.046875 188.535156 "/>
<path style=" stroke:none;fill-rule:evenodd;fill:rgb(100%,100%,100%);fill-opacity:1;" d="M 315.527344 167.742188 C 315.476562 162.316406 315.605469 157.632812 315.425781 153.585938 C 315.25 149.542969 314.535156 146.246094 313.132812 143.375 C 311.808594 140.296875 312.632812 137.820312 312.007812 134.542969 C 311.386719 131.261719 311.539062 126.351562 310.601562 122.460938 C 310.34375 120.941406 309.554688 116.074219 309.796875 115.605469 C 310.179688 114.519531 311.640625 115.640625 312.351562 114.382812 C 313.417969 113.21875 308.648438 100.878906 306.230469 97.351562 C 305.359375 95.773438 303.78125 96.3125 301.832031 98.882812 C 300.023438 100.574219 300.695312 104.429688 301.386719 108.097656 C 306.027344 132.316406 309.488281 154.234375 308.730469 177.289062 C 308.5 179.25 315.578125 171.441406 315.527344 167.742188 Z M 315.527344 167.742188 "/>
<path style=" stroke:none;fill-rule:evenodd;fill:rgb(100%,100%,100%);fill-opacity:1;" d="M 281.238281 137.699219 C 278.320312 137.648438 272.203125 132.019531 270.421875 128.722656 C 269.746094 126.832031 270.179688 124.988281 270.773438 123.90625 C 271.855469 123.203125 273.515625 122.414062 274.761719 123.171875 C 274.761719 123.171875 276.050781 124.976562 275.800781 125.203125 C 277.394531 125.96875 278.070312 125.527344 278.230469 124.878906 C 278.339844 123.746094 277.761719 123.070312 277.753906 121.820312 C 278.429688 118.429688 282.304688 117.902344 283.765625 120.0625 C 284.832031 121.382812 285.222656 124.183594 285.386719 126.074219 C 285.367188 127.039062 283.804688 125.90625 282.914062 126.136719 C 282.027344 126.371094 281.8125 127.398438 281.742188 128.324219 C 281.582031 130.78125 281.292969 134.726562 281.238281 137.699219 Z M 281.238281 137.699219 "/>
<path style=" stroke:none;fill-rule:evenodd;fill:rgb(100%,100%,100%);fill-opacity:1;" d="M 227.371094 173.757812 C 228.175781 166.386719 227.074219 153.257812 227 148.910156 C 226.703125 138.632812 225.027344 118.789062 224.226562 115.472656 C 223.328125 109.222656 226.796875 116.160156 226.316406 112.527344 C 225.191406 106.285156 221.730469 102.054688 217.660156 96.339844 C 216.347656 94.480469 216.394531 94.101562 214.367188 96.792969 C 212.125 101.878906 214.058594 105.378906 214.640625 109.339844 C 217.574219 122.242188 219.285156 134.117188 220.082031 145.851562 C 220.878906 157.589844 221.125 170.28125 220.398438 182.644531 C 222.597656 182.730469 226.132812 179.085938 227.371094 173.757812 Z M 227.371094 173.757812 "/>
<path style=" stroke:none;fill-rule:evenodd;fill:rgb(100%,100%,100%);fill-opacity:1;" d="M 325.460938 161.953125 C 320.3125 153.316406 312.546875 143.960938 310.472656 140.484375 C 308.398438 137.007812 290.847656 114.363281 288.609375 112.089844 C 282.191406 105.34375 291.554688 110.992188 287.382812 105.78125 C 283.851562 101.90625 282.820312 100.691406 279.800781 98.359375 C 278.285156 97.378906 277.367188 95.511719 276.871094 98.695312 C 276.671875 101.496094 276.464844 104.734375 276.652344 107.09375 C 276.644531 108.40625 278.007812 110.867188 279.179688 112.320312 C 294.746094 131.445312 311.726562 150.972656 325.390625 175.519531 C 327.335938 174.492188 326.691406 163.472656 325.460938 161.953125 Z M 325.460938 161.953125 "/>
<path style=" stroke:none;fill-rule:evenodd;fill:rgb(10.588235%,64.313725%,0%);fill-opacity:1;" d="M 91.9375 146.015625 C 91.566406 146.664062 90.742188 147.503906 91.019531 148.375 C 91.597656 149.160156 92.058594 149.316406 93.019531 149.359375 C 93.855469 149.359375 95.023438 149.558594 95.273438 149.0625 C 95.722656 148.570312 96.066406 147.558594 95.691406 146.605469 C 94.820312 144.429688 92.390625 145.238281 91.9375 146.015625 Z M 91.9375 146.015625 "/>
<path style=" stroke:none;fill-rule:evenodd;fill:rgb(100%,100%,100%);fill-opacity:1;" d="M 265.617188 271.902344 C 272.5 272.15625 277.003906 272.214844 283.128906 272.945312 C 283.128906 272.945312 288.40625 272.421875 290.292969 272.136719 C 298.261719 271.378906 298.613281 283.519531 298.613281 283.519531 C 298.527344 290.640625 295.777344 291.011719 292.269531 291.765625 C 290.265625 292.019531 289.210938 290.566406 288.15625 289.015625 C 286.835938 289.566406 285.035156 289.648438 282.859375 289.347656 C 279.992188 289.167969 277.121094 289.179688 274.253906 289 C 271.207031 288.730469 269.585938 289.316406 266.539062 289.046875 C 265.910156 290.035156 265.09375 291.398438 263.230469 290.960938 C 261.679688 290.789062 259.84375 286.433594 260.382812 283.125 C 261.503906 280.753906 261.195312 281.515625 261.078125 280.472656 C 232.933594 279.757812 204.523438 278.5 176.921875 278.859375 C 155.320312 278.949219 133.988281 279.847656 112.65625 280.742188 C 101.273438 280.5625 92.582031 278.769531 86.574219 269.988281 C 87.113281 269.988281 115.613281 271.601562 123.949219 271.0625 C 139.367188 270.882812 153.4375 269.628906 169.121094 269.179688 C 200.046875 269.71875 230.699219 269.71875 261.617188 271.867188 C 258.660156 269.84375 258.554688 265.066406 263.105469 263.898438 C 263.492188 263.628906 263.691406 266.273438 264.375 266.222656 C 268.015625 265.949219 266.417969 270.882812 265.617188 271.902344 Z M 265.617188 271.902344 "/>
<path style=" stroke:none;fill-rule:evenodd;fill:rgb(100%,100%,100%);fill-opacity:1;" d="M 141.472656 101.457031 C 136.785156 114.851562 144.15625 129.503906 149.265625 128.074219 C 152.953125 129.601562 155.300781 122.589844 156.808594 114.90625 C 157.84375 112.746094 158.621094 112.519531 159.152344 113.625 C 159.015625 123.84375 159.886719 126.109375 162.515625 129.210938 C 168.375 133.730469 173.222656 129.789062 173.601562 129.40625 L 178.164062 124.84375 C 179.179688 123.773438 180.535156 123.710938 181.96875 124.652344 C 183.363281 125.921875 183.167969 128.109375 186.152344 129.628906 C 188.664062 130.632812 194.035156 129.859375 195.277344 127.695312 C 196.953125 124.828125 197.355469 123.839844 198.128906 122.753906 C 199.324219 121.160156 201.363281 121.871094 201.363281 122.371094 C 201.171875 123.257812 199.976562 124.148438 200.792969 125.746094 C 202.210938 126.808594 202.539062 126.125 203.382812 125.886719 C 206.355469 124.464844 208.585938 118 208.585938 118 C 208.71875 115.59375 207.371094 115.792969 206.496094 116.289062 C 205.355469 116.984375 205.28125 117.207031 204.140625 117.90625 C 202.683594 118.121094 199.867188 119.085938 198.472656 116.925781 C 197.046875 114.332031 197.027344 110.710938 195.941406 108.09375 C 195.941406 107.902344 194.050781 103.96875 195.808594 103.714844 C 196.695312 103.882812 198.589844 104.382812 198.890625 102.789062 C 199.820312 101.234375 196.898438 96.835938 194.898438 94.613281 C 193.160156 92.707031 190.753906 92.476562 188.433594 94.421875 C 186.808594 95.917969 187.039062 97.589844 186.722656 99.175781 C 186.308594 100.996094 186.394531 103.234375 188.242188 105.640625 C 189.867188 108.839844 192.828125 112.964844 191.855469 118.757812 C 191.855469 118.757812 190.125 121.5 187.109375 121.140625 C 185.855469 120.867188 183.816406 120.332031 182.730469 112.296875 C 181.90625 106.210938 182.921875 97.699219 180.339844 93.707031 C 179.40625 91.296875 178.726562 88.96875 176.453125 93.09375 C 175.84375 94.710938 173.222656 97.167969 175.125 102.21875 C 176.679688 105.421875 177.3125 110.632812 176.605469 116.433594 C 175.527344 118.082031 175.289062 118.640625 173.875 120.289062 C 171.890625 122.421875 169.738281 121.875 168.089844 121.078125 C 166.546875 120.042969 165.339844 119.503906 164.636719 116.203125 C 164.765625 110.945312 165.058594 102.335938 164.097656 100.507812 C 162.679688 97.679688 160.339844 98.703125 159.34375 99.554688 C 154.542969 103.941406 152.175781 111.34375 150.726562 117.238281 C 149.394531 121.535156 147.980469 120.304688 146.984375 118.570312 C 144.5625 116.296875 144.398438 98.539062 141.472656 101.457031 Z M 141.472656 101.457031 "/>
<path style=" stroke:none;fill-rule:evenodd;fill:rgb(100%,100%,100%);fill-opacity:1;" d="M 155.582031 130.570312 C 157.710938 129.0625 156.714844 128.011719 159.898438 131.191406 C 163.882812 138.003906 166.441406 146.824219 166.828125 154.640625 C 166.660156 156.566406 168.015625 157.785156 168.636719 157.367188 C 169.007812 152.847656 180 146.546875 190.082031 145.625 C 191.625 145.289062 190.875 142.335938 191.125 140.828125 C 190.523438 135.230469 194.273438 130.132812 199.527344 129.726562 C 206.679688 130.785156 209.0625 134.605469 209.183594 140.433594 C 208.410156 151.625 196.753906 153.523438 190.203125 154.414062 C 189.195312 154.796875 188.777344 155.257812 190.203125 155.808594 L 217.648438 155.933594 L 219.046875 156.742188 C 219.214844 157.394531 218.648438 156.847656 217.5625 158.632812 C 216.480469 160.417969 214.882812 164.53125 214.800781 167.277344 C 206.625 169.910156 198.164062 171.058594 189.570312 172.101562 C 186.582031 173.609375 185.101562 175.621094 185.714844 177.886719 C 186.722656 180.398438 193.335938 182.910156 193.335938 183.027344 C 194.59375 183.816406 196.078125 185.65625 192.980469 189.421875 C 179.59375 188.832031 169.21875 183.136719 165.628906 175.09375 C 164.546875 174.257812 163.378906 175.089844 162.632812 176.175781 C 157.40625 182.914062 152.261719 188.984375 143.351562 192.203125 C 138.039062 193.53125 132.597656 191.386719 130.027344 187.910156 C 128.308594 185.925781 128.375 183.742188 127.742188 183.265625 C 124.871094 184.539062 100.15625 195.039062 103.289062 190.148438 C 109.300781 183.707031 119.714844 178.980469 128.914062 172.625 C 129.578125 170.496094 130.78125 163.292969 134.414062 160.949219 C 134.625 160.964844 133.839844 165.175781 133.917969 166.953125 C 133.960938 168.414062 133.8125 168.984375 134.132812 168.609375 C 134.75 168.210938 145.910156 159.445312 146.773438 156.753906 C 147.863281 155.210938 147.101562 151.308594 147.101562 151.1875 C 145.007812 145.796875 142.070312 145.335938 140.984375 142.65625 C 140.003906 139.097656 140.445312 135.035156 142.480469 133.902344 C 144.289062 132.261719 146.429688 132.464844 148.402344 134.257812 C 150.65625 136.273438 152.660156 140.21875 153.238281 143.160156 C 152.851562 144.324219 150.289062 142.386719 149.398438 142.964844 C 150.972656 144.59375 151.707031 146.472656 152.273438 148.773438 C 153.730469 154.929688 153.285156 157.320312 151.824219 161.304688 C 146.867188 171.722656 140.535156 174.828125 134.996094 178.6875 C 134.847656 178.742188 134.75 181.332031 136.832031 182.734375 C 137.550781 183.488281 140.441406 183.875 143.839844 182.785156 C 150.40625 179.203125 157.222656 172.609375 160.605469 165.261719 C 161.585938 159.703125 160.226562 153.808594 158.78125 148.667969 C 156.601562 143.644531 154.039062 136.472656 154.039062 136.351562 C 153.953125 133.21875 154.207031 132.132812 155.582031 130.570312 Z M 155.582031 130.570312 "/>
<path style=" stroke:none;fill-rule:evenodd;fill:rgb(100%,100%,100%);fill-opacity:1;" d="M 83.726562 101.597656 C 86.882812 103.105469 92.824219 102.460938 92.570312 97.371094 C 92.570312 96.917969 92.457031 95.394531 92.414062 94.980469 C 91.765625 93.480469 90.007812 93.851562 89.609375 95.402344 C 89.484375 95.910156 89.832031 96.734375 89.375 96.992188 C 89.109375 97.257812 88.101562 97.101562 88.140625 95.695312 C 88.140625 95.246094 87.8125 94.765625 87.613281 94.480469 C 87.414062 94.347656 87.285156 94.3125 86.925781 94.3125 C 86.484375 94.332031 86.492188 94.445312 86.25 94.816406 C 86.148438 95.191406 86.003906 95.558594 86.003906 95.988281 C 85.949219 96.488281 85.761719 96.667969 85.394531 96.742188 C 84.980469 96.742188 85.074219 96.785156 84.742188 96.574219 C 84.542969 96.355469 84.292969 96.273438 84.292969 95.902344 C 84.292969 95.519531 84.207031 94.902344 84.09375 94.648438 C 83.917969 94.417969 83.636719 94.308594 83.320312 94.230469 C 81.59375 94.234375 81.476562 96.203125 81.574219 96.949219 C 81.445312 97.089844 81.371094 100.621094 83.726562 101.597656 Z M 83.726562 101.597656 "/>
<path style=" stroke:none;fill-rule:evenodd;fill:rgb(100%,100%,100%);fill-opacity:1;" d="M 176.328125 140.796875 C 179.484375 142.304688 187.003906 141.4375 185.175781 136.570312 C 185.175781 136.117188 185.058594 134.59375 185.015625 134.179688 C 184.371094 132.679688 182.609375 133.050781 182.210938 134.601562 C 182.085938 135.109375 182.4375 135.933594 181.976562 136.191406 C 181.710938 136.457031 180.703125 136.300781 180.746094 134.894531 C 180.746094 134.445312 180.414062 133.964844 180.214844 133.679688 C 180.015625 133.546875 179.886719 133.511719 179.527344 133.511719 C 179.085938 133.53125 179.09375 133.644531 178.851562 134.015625 C 178.75 134.390625 178.609375 134.757812 178.609375 135.1875 C 178.554688 135.6875 178.363281 135.867188 177.996094 135.941406 C 177.582031 135.941406 177.675781 135.984375 177.34375 135.773438 C 177.144531 135.554688 176.898438 135.472656 176.898438 135.101562 C 176.898438 134.71875 176.808594 134.101562 176.695312 133.847656 C 176.519531 133.617188 176.238281 133.507812 175.921875 133.429688 C 174.195312 133.433594 174.078125 135.402344 174.175781 136.148438 C 174.046875 136.289062 173.972656 139.820312 176.328125 140.796875 Z M 176.328125 140.796875 "/>
<path style=" stroke:none;fill-rule:evenodd;fill:rgb(100%,100%,100%);fill-opacity:1;" d="M 230.320312 124.570312 C 233.476562 126.078125 239.417969 125.4375 239.164062 120.34375 C 239.164062 119.894531 239.050781 118.371094 239.007812 117.957031 C 238.363281 116.453125 236.601562 116.824219 236.203125 118.375 C 236.078125 118.882812 236.425781 119.710938 235.96875 119.964844 C 235.703125 120.234375 234.695312 120.074219 234.734375 118.667969 C 234.734375 118.21875 234.40625 117.738281 234.207031 117.453125 C 234.007812 117.324219 233.878906 117.285156 233.519531 117.285156 C 233.078125 117.304688 233.085938 117.417969 232.84375 117.789062 C 232.742188 118.167969 232.597656 118.535156 232.597656 118.960938 C 232.542969 119.464844 232.355469 119.640625 231.988281 119.714844 C 231.574219 119.714844 231.667969 119.761719 231.335938 119.546875 C 231.136719 119.332031 230.890625 119.25 230.890625 118.878906 C 230.890625 118.496094 230.800781 117.875 230.6875 117.621094 C 230.511719 117.390625 230.230469 117.285156 229.914062 117.203125 C 228.1875 117.210938 228.070312 119.175781 228.167969 119.925781 C 228.039062 120.066406 227.964844 123.59375 230.320312 124.570312 Z M 230.320312 124.570312 "/>
<path style=" stroke:none;fill-rule:evenodd;fill:rgb(100%,100%,100%);fill-opacity:1;" d="M 258.285156 165.3125 C 252.78125 171.515625 255.207031 181.777344 256.453125 183.988281 C 258.265625 187.621094 259.726562 189.949219 263.261719 191.746094 C 266.476562 194.113281 268.984375 192.632812 270.367188 190.972656 C 273.601562 187.621094 273.640625 179.054688 275.160156 177.355469 C 276.226562 174.238281 278.910156 174.769531 280.214844 176.152344 C 281.476562 177.96875 282.964844 179.140625 284.816406 180.125 C 287.835938 182.789062 291.441406 183.277344 294.996094 180.847656 C 297.421875 179.488281 299 177.726562 300.421875 174.234375 C 302 170.011719 301.121094 150.5 300.804688 138.9375 C 300.683594 138.027344 297.667969 123.03125 297.667969 122.863281 C 297.667969 122.695312 297.269531 115.210938 296.9375 113.429688 C 296.878906 112.703125 296.699219 112.496094 297.457031 112.589844 C 298.261719 113.265625 298.371094 113.308594 298.875 113.53125 C 299.6875 113.679688 300.414062 112.296875 299.921875 111.027344 C 297.410156 106.394531 294.898438 101.757812 292.386719 97.125 C 291.78125 96.53125 291 95.875 290.042969 97.292969 C 289.125 98.097656 288.148438 99.550781 288.179688 101.421875 C 288.402344 104.714844 288.980469 108.066406 289.207031 111.359375 C 290.210938 117 291.214844 122.636719 292.21875 128.273438 C 293.167969 140.332031 293.40625 150.199219 294.355469 162.253906 C 294.222656 167.359375 292.636719 171.8125 291.148438 172.453125 C 291.148438 172.453125 288.882812 173.765625 287.363281 172.316406 C 286.257812 171.875 281.835938 164.949219 281.835938 164.949219 C 279.578125 162.875 278.085938 163.46875 276.480469 164.949219 C 272.042969 169.230469 270.035156 177.242188 267.023438 182.769531 C 266.246094 184.003906 264.046875 185.058594 261.613281 182.679688 C 255.433594 174.234375 259.054688 162.222656 258.285156 165.3125 Z M 258.285156 165.3125 "/>
<path style=" stroke:none;fill-rule:evenodd;fill:rgb(100%,100%,100%);fill-opacity:1;" d="M 231.742188 94.996094 C 234.574219 96.179688 236.570312 101.910156 235.917969 104.710938 C 235.355469 108.171875 233.855469 111.914062 232.773438 111.425781 C 231.601562 110.992188 233.574219 107.984375 232.449219 104.828125 C 231.820312 102.777344 227.960938 99.023438 228.367188 97.917969 C 227.570312 95.601562 230.007812 94.585938 231.742188 94.996094 Z M 231.742188 94.996094 "/>
<path style=" stroke:none;fill-rule:evenodd;fill:rgb(100%,100%,100%);fill-opacity:1;" d="M 267.398438 168.71875 C 267.992188 161.832031 266.988281 157.636719 266.808594 153.589844 C 266.632812 149.542969 262.234375 118.671875 261.339844 115.609375 C 260.265625 109.820312 265.617188 114.832031 265.03125 111.464844 C 263.179688 107.222656 258.574219 101.042969 257.125 97.355469 C 256.257812 95.777344 256.621094 94.371094 254.671875 96.941406 C 252.867188 102.847656 252.238281 107.675781 252.929688 111.34375 C 257.570312 135.5625 262.328125 155.695312 261.574219 178.75 C 263.773438 178.765625 266.308594 173.714844 267.398438 168.71875 Z M 267.398438 168.71875 "/>
<path style=" stroke:none;fill-rule:evenodd;fill:rgb(100%,100%,100%);fill-opacity:1;" d="M 315.753906 104.753906 C 318.332031 106.039062 319.84375 113.222656 319.558594 115.273438 C 319.046875 119.023438 317.679688 123.070312 316.695312 122.542969 C 315.625 122.074219 316.910156 116.984375 316.394531 115.402344 C 315.824219 113.179688 312.304688 109.117188 312.675781 107.921875 C 311.949219 105.410156 314.171875 104.3125 315.753906 104.753906 Z M 315.753906 104.753906 "/>
<path style=" stroke:none;fill-rule:evenodd;fill:rgb(100%,100%,100%);fill-opacity:1;" d="M 124.007812 155.699219 C 126.476562 156.640625 127.921875 161.917969 127.648438 163.425781 C 127.15625 166.179688 125.847656 169.15625 124.90625 168.769531 C 123.882812 168.421875 125.113281 164.683594 124.621094 163.519531 C 124.414062 160.699219 120.988281 159.242188 121.058594 158.023438 C 120.421875 155.785156 122.492188 155.371094 124.007812 155.699219 Z M 124.007812 155.699219 "/>
<path style=" stroke:none;fill-rule:evenodd;fill:rgb(10.588235%,61.568627%,0%);fill-opacity:1;" d="M 183.632812 163.625 C 186.820312 163.824219 188.410156 166.324219 185.429688 167.375 C 182.484375 168.382812 179.65625 169.167969 179.644531 173.421875 C 180.730469 179.347656 178.148438 177.3125 176.609375 176.507812 C 174.796875 175.207031 169.703125 172.070312 168.980469 165.296875 C 168.871094 163.679688 170.128906 162.320312 172.160156 162.328125 C 175.214844 163.160156 179.722656 163.21875 183.632812 163.625 Z M 183.632812 163.625 "/>
<path style=" stroke:none;fill-rule:evenodd;fill:rgb(100%,100%,100%);fill-opacity:1;" d="M 58.046875 93.292969 C 61.691406 94.390625 61.90625 99.742188 61.636719 101.304688 C 61.152344 104.160156 59.863281 107.246094 58.933594 106.84375 C 57.925781 106.484375 58.894531 102.609375 58.410156 101.402344 C 57.871094 99.707031 54.796875 96.613281 55.144531 95.703125 C 54.460938 93.789062 56.554688 92.953125 58.046875 93.292969 Z M 58.046875 93.292969 "/>
<path style=" stroke:none;fill-rule:evenodd;fill:rgb(100%,100%,100%);fill-opacity:1;" d="M 129.953125 118.527344 C 127.160156 120.039062 126.074219 124.542969 127.816406 127.164062 C 129.4375 129.472656 132.003906 128.617188 132.347656 128.617188 C 135.085938 128.960938 136.707031 123.488281 136.707031 123.488281 C 136.707031 123.488281 136.792969 121.949219 133.542969 124.855469 C 132.175781 125.113281 132.003906 124.597656 131.664062 123.828125 C 131.378906 122.402344 131.433594 120.980469 132.089844 119.554688 C 132.574219 118.183594 131.519531 117.585938 129.953125 118.527344 Z M 129.953125 118.527344 "/>
<path style=" stroke:none;fill-rule:evenodd;fill:rgb(100%,100%,100%);fill-opacity:1;" d="M 150.90625 91.21875 C 149.503906 92.160156 146.707031 95.054688 146.621094 98.390625 C 146.539062 100.269531 146.1875 100.265625 147.417969 101.460938 C 148.308594 102.746094 149.207031 102.628906 151.003906 101.691406 C 152.035156 100.929688 152.386719 100.425781 152.734375 99.148438 C 153.160156 97.011719 150.472656 100.164062 150.128906 97.785156 C 149.53125 95.574219 151.257812 94.671875 152.882812 92.53125 C 152.9375 91.070312 152.90625 90.03125 150.90625 91.21875 Z M 150.90625 91.21875 "/>
<path style=" stroke:none;fill-rule:evenodd;fill:rgb(100%,100%,100%);fill-opacity:1;" d="M 167.789062 94.21875 C 167.183594 95.558594 166.457031 102.539062 166.578125 102.539062 C 166.097656 104.621094 168.757812 105.511719 169.964844 102.835938 C 171.78125 97.933594 171.78125 95.855469 171.902344 93.773438 C 171.335938 90.605469 169.199219 90.703125 167.789062 94.21875 Z M 167.789062 94.21875 "/>
<path style=" stroke:none;fill-rule:evenodd;fill:rgb(100%,100%,100%);fill-opacity:1;" d="M 274.222656 148.382812 C 274.585938 148.019531 289.222656 137.617188 289.222656 137.617188 C 290.714844 137.09375 290.390625 142.980469 289.707031 142.941406 C 289.988281 144.109375 275.273438 154.109375 274.222656 153.703125 C 273.5 154.226562 272.773438 149.671875 274.222656 148.382812 Z M 274.222656 148.382812 "/>
<path style=" stroke:none;fill-rule:evenodd;fill:rgb(100%,100%,100%);fill-opacity:1;" d="M 287.570312 148.296875 C 290.148438 149.578125 291.175781 157.128906 290.890625 159.179688 C 290.984375 163.171875 288.40625 166.371094 287.421875 165.84375 C 286.351562 165.375 287.515625 160.890625 287.003906 159.308594 C 286.433594 157.085938 284.242188 152.902344 284.609375 151.703125 C 283.882812 149.195312 285.988281 147.855469 287.570312 148.296875 Z M 287.570312 148.296875 "/>
<path style=" stroke:none;fill-rule:evenodd;fill:rgb(100%,100%,100%);fill-opacity:1;" d="M 200.515625 180.792969 C 201.535156 179.304688 204.679688 177.164062 204.75 177.164062 C 206.203125 176.4375 207.617188 177.734375 207.53125 177.648438 C 207.773438 179.097656 206.613281 180.449219 206.976562 182.386719 C 207.296875 183.167969 207.527344 184.03125 208.957031 183.703125 C 211.28125 181.875 213.433594 181.757812 215.757812 181.640625 C 217.539062 181.746094 217.609375 184.761719 216.484375 184.785156 C 212.191406 185.71875 210.269531 186.867188 207.207031 188.035156 C 205.753906 188.882812 204.507812 187.808594 204.507812 187.6875 C 204.507812 187.566406 203.660156 186.863281 204.253906 184.941406 C 204.355469 183.398438 203.738281 182.554688 202.453125 182.726562 C 201.484375 183.25 200.632812 183.597656 200.148438 182.484375 C 199.957031 181.664062 199.894531 181.265625 200.515625 180.792969 Z M 200.515625 180.792969 "/>
<path style=" stroke:none;fill-rule:evenodd;fill:rgb(100%,100%,100%);fill-opacity:1;" d="M 302.972656 184.855469 C 303.601562 185.65625 304.007812 186.394531 302.921875 187.703125 C 301.898438 188.644531 301.175781 189.164062 300.148438 190.105469 C 299.664062 190.929688 299.351562 192.183594 300.835938 192.582031 C 303.574219 193.351562 309.902344 189.25 309.902344 189.164062 C 310.929688 188.394531 310.585938 186.9375 310.5 186.9375 C 309.902344 186.253906 308.554688 186.660156 307.644531 186.550781 C 307.214844 186.550781 305.796875 186.335938 306.472656 185.082031 C 307.035156 184.300781 307.234375 183.824219 307.617188 182.863281 C 308.042969 181.921875 307.679688 181.292969 306.136719 180.78125 C 304.570312 180.496094 303.945312 180.640625 302.203125 180.78125 C 301.265625 180.980469 300.941406 181.402344 300.773438 182.542969 C 300.839844 184.269531 301.890625 184.171875 302.972656 184.855469 Z M 302.972656 184.855469 "/>
<path style=" stroke:none;fill-rule:evenodd;fill:rgb(14.509804%,62.352941%,0%);fill-opacity:1;" d="M 201.078125 142.296875 C 200.675781 142.988281 199.320312 142.957031 198.046875 142.21875 C 196.773438 141.484375 196.070312 140.324219 196.472656 139.632812 C 196.871094 138.9375 198.230469 138.972656 199.5 139.707031 C 200.773438 140.441406 201.480469 141.601562 201.078125 142.296875 Z M 201.078125 142.296875 "/>
<path style=" stroke:none;fill-rule:evenodd;fill:rgb(14.509804%,62.352941%,0%);fill-opacity:1;" d="M 134.273438 102.105469 C 133.515625 102.292969 132.519531 101.617188 132.054688 100.59375 C 131.589844 99.570312 131.828125 98.589844 132.589844 98.40625 C 133.351562 98.21875 134.34375 98.898438 134.808594 99.917969 C 135.273438 100.941406 135.035156 101.921875 134.273438 102.105469 Z M 134.273438 102.105469 "/>
<path style=" stroke:none;fill-rule:evenodd;fill:rgb(12.54902%,56.470588%,0%);fill-opacity:1;" d="M 266.421875 281.222656 C 273.433594 281.5625 280.023438 281.300781 287.035156 281.644531 C 288.308594 282.722656 287.398438 285.375 286.554688 285.183594 C 284.273438 285.128906 282.960938 285.070312 280.679688 285.011719 C 280.601562 282.78125 274.898438 283.148438 275.0625 285.085938 C 271.984375 285.453125 269.207031 284.976562 266.128906 284.863281 C 265.21875 283.730469 265.335938 281.691406 266.421875 281.222656 Z M 266.421875 281.222656 "/>
</g>
</svg>
