<?xml version="1.0" encoding="UTF-8"?>
<svg xmlns="http://www.w3.org/2000/svg" xmlns:xlink="http://www.w3.org/1999/xlink" width="384pt" height="384pt" viewBox="0 0 384 384" version="1.1">
<defs>
<clipPath id="clip1">
  <path d="M 0 255 L 383.988281 255 L 383.988281 383.988281 L 0 383.988281 Z M 0 255 "/>
</clipPath>
<clipPath id="clip2">
  <path d="M 0 127 L 383.988281 127 L 383.988281 256 L 0 256 Z M 0 127 "/>
</clipPath>
<clipPath id="clip3">
  <path d="M 0 0 L 383.988281 0 L 383.988281 129 L 0 129 Z M 0 0 "/>
</clipPath>
<clipPath id="clip4">
  <path d="M 0 0 L 256 0 L 256 383.988281 L 0 383.988281 Z M 0 0 "/>
</clipPath>
</defs>
<g id="surface1">
<g clip-path="url(#clip1)" clip-rule="nonzero">
<path style=" stroke:none;fill-rule:evenodd;fill:rgb(0%,0%,0%);fill-opacity:1;" d="M 0 255.988281 L 767.984375 255.988281 L 767.984375 383.996094 L 0 383.996094 Z M 0 255.988281 "/>
</g>
<g clip-path="url(#clip2)" clip-rule="nonzero">
<path style=" stroke:none;fill-rule:evenodd;fill:rgb(100%,100%,100%);fill-opacity:1;" d="M 0 127.976562 L 767.984375 127.976562 L 767.984375 255.988281 L 0 255.988281 Z M 0 127.976562 "/>
</g>
<g clip-path="url(#clip3)" clip-rule="nonzero">
<path style=" stroke:none;fill-rule:evenodd;fill:rgb(100%,0%,0%);fill-opacity:1;" d="M 0 0 L 768.546875 0 L 768.546875 128.007812 L 0 128.007812 Z M 0 0 "/>
</g>
<g clip-path="url(#clip4)" clip-rule="nonzero">
<path style=" stroke:none;fill-rule:evenodd;fill:rgb(0%,60.392157%,0%);fill-opacity:1;" d="M 0 0 L 0 383.988281 L 255.988281 191.992188 Z M 0 0 "/>
</g>
</g>
</svg>
