<?xml version="1.0" encoding="UTF-8"?>
<svg xmlns="http://www.w3.org/2000/svg" xmlns:xlink="http://www.w3.org/1999/xlink" width="384pt" height="384pt" viewBox="0 0 384 384" version="1.1">
<g id="surface1">
<rect x="0" y="0" width="384" height="384" style="fill:rgb(100%,100%,100%);fill-opacity:1;stroke:none;"/>
<path style=" stroke:none;fill-rule:evenodd;fill:rgb(87.058824%,16.078431%,9.411765%);fill-opacity:1;" d="M -46.5 255.996094 L 721.5 255.996094 L 721.5 384 L -46.5 384 Z M -46.5 255.996094 "/>
<path style=" stroke:none;fill-rule:evenodd;fill:rgb(3.137255%,22.352941%,61.176471%);fill-opacity:1;" d="M -46.5 128.003906 L 721.5 128.003906 L 721.5 256.003906 L -46.5 256.003906 Z M -46.5 128.003906 "/>
<path style=" stroke:none;fill-rule:evenodd;fill:rgb(87.058824%,16.078431%,9.411765%);fill-opacity:1;" d="M 171.269531 69.734375 C 168.253906 115.972656 166.527344 141.3125 159.488281 153.03125 C 151.875 165.621094 144.46875 174.839844 114.765625 185.941406 C 85.0625 174.839844 77.65625 165.621094 70.042969 153.03125 C 63.003906 141.308594 61.273438 115.96875 58.261719 69.734375 L 62.652344 68.253906 C 71.488281 65.558594 78.082031 63.390625 82.957031 62.429688 C 89.941406 60.953125 95.878906 59.28125 114.652344 58.886719 C 133.421875 59.210938 139.386719 60.988281 146.371094 62.464844 C 151.207031 63.496094 158.085938 65.527344 166.855469 68.273438 Z M 171.269531 69.734375 "/>
<path style=" stroke:none;fill-rule:evenodd;fill:rgb(3.137255%,22.352941%,61.176471%);fill-opacity:1;" d="M 166.941406 68.21875 C 164.089844 114.359375 161.707031 135.488281 157.984375 145.648438 C 150.765625 163.042969 139.335938 172.582031 114.738281 181.675781 C 90.136719 172.582031 78.710938 163.042969 71.488281 145.648438 C 67.769531 135.488281 65.417969 114.421875 62.648438 68.171875 C 71.300781 65.472656 78.082031 63.359375 82.957031 62.398438 C 89.941406 60.917969 95.878906 59.179688 114.652344 58.855469 C 133.421875 59.179688 139.429688 60.917969 146.414062 62.398438 C 151.289062 63.359375 158.210938 65.472656 166.941406 68.21875 Z M 166.941406 68.21875 "/>
<path style=" stroke:none;fill-rule:evenodd;fill:rgb(100%,80%,0%);fill-opacity:1;" d="M 114.710938 82.339844 L 115.890625 85.132812 L 121.074219 85.84375 L 117.714844 87.867188 L 120.964844 90.039062 L 116.242188 90.832031 L 114.804688 93.359375 L 113.1875 90.753906 L 108.691406 90.117188 L 111.75 87.898438 L 108.601562 85.878906 L 113.578125 85.117188 Z M 114.710938 82.339844 "/>
<path style=" stroke:none;fill-rule:evenodd;fill:rgb(100%,100%,100%);fill-opacity:1;" d="M 156.210938 134.714844 L 153.339844 132.445312 L 151.261719 129.027344 L 147.195312 125.5 L 145.074219 121.9375 L 141.007812 118.296875 L 139.019531 114.734375 L 136.855469 112.988281 L 135.429688 111.613281 L 131.753906 114.835938 L 129.753906 118.332031 L 127.257812 120.597656 L 124.515625 118.453125 L 122.445312 114.804688 L 114.75 101.140625 L 107.058594 114.804688 L 104.984375 118.453125 L 102.242188 120.597656 L 99.746094 118.332031 L 97.746094 114.835938 L 94.070312 111.613281 L 92.644531 112.988281 L 90.480469 114.734375 L 88.492188 118.296875 L 84.425781 121.9375 L 82.304688 125.5 L 78.238281 129.027344 L 76.164062 132.445312 L 73.296875 134.769531 C 74.785156 147.433594 82.859375 157.355469 87.257812 161.894531 C 92.164062 166.660156 102.285156 173.039062 114.664062 177.261719 C 127.074219 173.128906 137.332031 166.660156 142.242188 161.894531 C 146.640625 157.355469 154.714844 147.433594 156.210938 134.714844 Z M 156.210938 134.714844 "/>
<path style=" stroke:none;fill-rule:evenodd;fill:rgb(100%,80%,0%);fill-opacity:1;" d="M 127.085938 62.917969 L 128.265625 65.710938 L 133.445312 66.417969 L 130.089844 68.445312 L 133.335938 70.613281 L 128.613281 71.40625 L 127.175781 73.9375 L 125.558594 71.332031 L 121.0625 70.691406 L 124.121094 68.476562 L 120.972656 66.457031 L 125.949219 65.695312 Z M 127.085938 62.917969 "/>
<path style=" stroke:none;fill-rule:evenodd;fill:rgb(100%,80%,0%);fill-opacity:1;" d="M 102.351562 62.875 L 103.53125 65.667969 L 108.714844 66.378906 L 105.355469 68.402344 L 108.601562 70.574219 L 103.878906 71.363281 L 102.441406 73.894531 L 100.824219 71.289062 L 96.328125 70.652344 L 99.390625 68.433594 L 96.238281 66.414062 L 101.214844 65.652344 Z M 102.351562 62.875 "/>
<path style=" stroke:none;fill-rule:evenodd;fill:rgb(3.137255%,22.352941%,61.176471%);fill-opacity:1;" d="M 149.789062 152.273438 L 144.1875 152.289062 L 139.019531 151.90625 L 132.757812 148.835938 L 125.699219 148.878906 L 119.589844 151.863281 L 114.769531 152.289062 L 109.949219 151.863281 L 103.835938 148.878906 L 96.78125 148.835938 L 90.519531 151.90625 L 85.351562 152.289062 L 79.679688 152.210938 L 76.941406 147.574219 L 77.042969 147.464844 L 85.421875 148.851562 L 90.589844 148.46875 L 96.851562 145.398438 L 103.90625 145.441406 L 110.019531 148.425781 L 114.839844 148.851562 L 119.660156 148.425781 L 125.769531 145.441406 L 132.828125 145.398438 L 139.089844 148.46875 L 144.257812 148.851562 L 152.414062 147.421875 L 152.519531 147.636719 Z M 149.789062 152.273438 "/>
<path style=" stroke:none;fill-rule:evenodd;fill:rgb(3.137255%,22.352941%,61.176471%);fill-opacity:1;" d="M 84.933594 159.40625 L 90.480469 159.023438 L 96.738281 155.953125 L 103.796875 155.996094 L 109.90625 158.980469 L 114.726562 159.40625 L 119.546875 158.980469 L 125.660156 155.996094 L 132.71875 155.953125 L 138.976562 159.023438 L 144.597656 159.40625 L 148.222656 154.9375 L 148.101562 154.835938 L 144.214844 155.96875 L 139.046875 155.585938 L 132.785156 152.511719 L 125.730469 152.554688 L 119.617188 155.542969 L 114.796875 155.96875 L 109.976562 155.542969 L 103.867188 152.554688 L 96.808594 152.511719 L 90.550781 155.585938 L 85.378906 155.96875 L 81.574219 155.007812 L 81.527344 155.195312 Z M 84.933594 159.40625 "/>
</g>
</svg>
