<?xml version="1.0" encoding="UTF-8"?>
<svg xmlns="http://www.w3.org/2000/svg" xmlns:xlink="http://www.w3.org/1999/xlink" width="384pt" height="384pt" viewBox="0 0 384 384" version="1.1">
<g id="surface1">
<rect x="0" y="0" width="384" height="384" style="fill:rgb(100%,100%,100%);fill-opacity:1;stroke:none;"/>
<path style=" stroke:none;fill-rule:evenodd;fill:rgb(100%,100%,100%);fill-opacity:1;" d="M -60 0.117188 L 464.804688 0.117188 L 464.804688 384 L -60 384 Z M -60 0.117188 "/>
<path style=" stroke:none;fill-rule:evenodd;fill:rgb(84.313725%,15.686275%,15.686275%);fill-opacity:1;" d="M -74.410156 -17.277344 L 85.296875 -17.277344 L 85.296875 148.824219 L -74.410156 148.824219 Z M -74.410156 -17.277344 "/>
<path style=" stroke:none;fill-rule:evenodd;fill:rgb(84.313725%,15.686275%,15.686275%);fill-opacity:1;" d="M 178.066406 -17.277344 L 483.660156 -17.277344 L 483.660156 148.824219 L 178.066406 148.824219 Z M 178.066406 -17.277344 "/>
<path style=" stroke:none;fill-rule:evenodd;fill:rgb(84.313725%,15.686275%,15.686275%);fill-opacity:1;" d="M -74.410156 241.253906 L 83.089844 241.253906 L 83.089844 410.574219 L -74.410156 410.574219 Z M -74.410156 241.253906 "/>
<path style=" stroke:none;fill-rule:evenodd;fill:rgb(84.313725%,15.686275%,15.686275%);fill-opacity:1;" d="M 180 242.84375 L 483.660156 242.84375 L 483.660156 410.578125 L 180 410.578125 Z M 180 242.84375 "/>
<path style=" stroke:none;fill-rule:evenodd;fill:rgb(0%,21.960784%,59.215686%);fill-opacity:1;" d="M 108.488281 -17.277344 L 156.804688 -17.277344 L 156.804688 410.574219 L 108.488281 410.574219 Z M 108.488281 -17.277344 "/>
<path style=" stroke:none;fill-rule:evenodd;fill:rgb(0%,21.960784%,59.215686%);fill-opacity:1;" d="M -93.015625 168.628906 L 483.660156 168.628906 L 483.660156 216.214844 L -93.015625 216.214844 Z M -93.015625 168.628906 "/>
</g>
</svg>
