<?xml version="1.0" encoding="UTF-8"?>
<svg xmlns="http://www.w3.org/2000/svg" xmlns:xlink="http://www.w3.org/1999/xlink" width="384pt" height="384pt" viewBox="0 0 384 384" version="1.1">
<g id="surface1">
<rect x="0" y="0" width="384" height="384" style="fill:rgb(100%,100%,100%);fill-opacity:1;stroke:none;"/>
<path style=" stroke:none;fill-rule:evenodd;fill:rgb(0.392157%,0.392157%,49.411765%);fill-opacity:1;" d="M -51.75 128 L 524.253906 128 L 524.253906 384 L -51.75 384 Z M -51.75 128 "/>
<path style=" stroke:none;fill-rule:evenodd;fill:rgb(99.607843%,0.392157%,0.392157%);fill-opacity:1;" d="M -51.75 256 L 524.253906 256 L 524.253906 384 L -51.75 384 Z M -51.75 256 "/>
<path style=" stroke:none;fill-rule:evenodd;fill:rgb(100%,100%,100%);fill-opacity:1;" d="M 48.550781 87.148438 L 48.550781 194.828125 C 55.925781 236.867188 75.46875 279.640625 141.472656 301.398438 C 207.117188 279.640625 228.128906 238.707031 235.878906 194.085938 L 235.878906 87.148438 Z M 48.550781 87.148438 "/>
<path style=" stroke:none;fill-rule:evenodd;fill:rgb(99.607843%,0.392157%,0.392157%);fill-opacity:1;" d="M 55.929688 95.628906 L 55.929688 189.664062 C 62.5625 223.960938 75.46875 270.792969 141.480469 292.550781 C 207.117188 270.792969 222.238281 223.960938 228.136719 189.664062 L 228.136719 95.628906 L 55.925781 95.628906 Z M 55.929688 95.628906 "/>
<path style=" stroke:none;fill-rule:evenodd;fill:rgb(100%,100%,100%);fill-opacity:1;" d="M 151.800781 152.421875 L 151.800781 167.542969 L 182.039062 167.542969 C 186.09375 167.542969 189.90625 165.574219 193.839844 164.589844 L 193.839844 192.984375 C 189.785156 192.125 185.820312 190.402344 181.671875 190.402344 L 152.171875 190.402344 L 152.171875 225.066406 L 131.890625 224.328125 L 131.890625 190.402344 L 103.125 190.402344 C 98.804688 190.402344 94.769531 192.617188 90.589844 193.722656 L 90.589844 163.484375 C 94.523438 164.714844 98.269531 167.171875 102.390625 167.171875 L 131.890625 167.171875 L 131.890625 152.054688 L 110.132812 152.054688 C 106.320312 152.054688 103.003906 154.757812 99.4375 156.109375 L 99.4375 127.347656 C 103.496094 129.066406 107.203125 132.507812 111.609375 132.507812 L 132.257812 132.507812 L 132.257812 119.601562 C 132.257812 113.574219 128.816406 108.046875 127.09375 102.269531 L 156.226562 102.269531 C 154.753906 108.171875 151.800781 113.890625 151.800781 119.972656 L 151.800781 132.507812 L 171.347656 132.507812 C 176.445312 132.507812 181.179688 129.804688 186.097656 128.453125 L 186.097656 156.847656 C 181.671875 155.371094 177.484375 152.421875 172.820312 152.421875 Z M 151.800781 152.421875 "/>
<path style=" stroke:none;fill-rule:evenodd;fill:rgb(0.392157%,0.392157%,49.411765%);fill-opacity:1;" d="M 114.558594 229.125 C 97.226562 220.457031 80.671875 225.296875 72.75 239.171875 C 85.058594 262.679688 108.476562 281.671875 141.480469 292.550781 C 174.300781 281.671875 198.175781 262.679688 211.269531 240.277344 C 201.070312 220.824219 181.675781 223.40625 169.136719 229.492188 C 160.289062 207.734375 124.148438 208.839844 114.5625 229.125 Z M 114.558594 229.125 "/>
</g>
</svg>
