<?xml version="1.0" encoding="UTF-8"?>
<svg xmlns="http://www.w3.org/2000/svg" xmlns:xlink="http://www.w3.org/1999/xlink" width="384pt" height="384pt" viewBox="0 0 384 384" version="1.1">
<g id="surface1">
<path style=" stroke:none;fill-rule:nonzero;fill:rgb(2.745098%,53.72549%,18.823529%);fill-opacity:1;" d="M 0 268.800781 L 384 268.800781 L 384 384 L 0 384 Z M 0 268.800781 "/>
<path style=" stroke:none;fill-rule:nonzero;fill:rgb(100%,100%,100%);fill-opacity:1;" d="M 0 115.199219 L 384 115.199219 L 384 268.800781 L 0 268.800781 Z M 0 115.199219 "/>
<path style=" stroke:none;fill-rule:nonzero;fill:rgb(0%,0%,0%);fill-opacity:1;" d="M 0 0 L 384 0 L 384 115.199219 L 0 115.199219 Z M 0 0 "/>
<path style=" stroke:none;fill-rule:nonzero;fill:rgb(85.490196%,7.058824%,10.196078%);fill-opacity:1;" d="M 0 134.398438 L 384 134.398438 L 384 249.601562 L 0 249.601562 Z M 0 134.398438 "/>
<path style=" stroke:none;fill-rule:nonzero;fill:rgb(5.882353%,27.843137%,68.627451%);fill-opacity:1;" d="M 0 0 L 324.761719 192 L 0 384 Z M 0 0 "/>
<path style=" stroke:none;fill-rule:nonzero;fill:rgb(98.823529%,86.666667%,3.529412%);fill-opacity:1;" d="M 156.796875 155.886719 L 48.253906 192 L 156.796875 228.113281 L 89.714844 133.566406 L 89.714844 250.433594 Z M 156.796875 155.886719 "/>
</g>
</svg>
