<?xml version="1.0" encoding="UTF-8"?>
<svg xmlns="http://www.w3.org/2000/svg" xmlns:xlink="http://www.w3.org/1999/xlink" width="384pt" height="384pt" viewBox="0 0 384 384" version="1.1">
<g id="surface1">
<path style=" stroke:none;fill-rule:evenodd;fill:rgb(92.941176%,16.078431%,22.352941%);fill-opacity:1;" d="M 0 0 L 576.011719 0 L 576.011719 192.003906 L 256.003906 192.003906 Z M 0 0 "/>
<path style=" stroke:none;fill-rule:evenodd;fill:rgb(0%,13.72549%,58.431373%);fill-opacity:1;" d="M 0 384.007812 L 576.011719 384.007812 L 576.011719 192.003906 L 256.003906 192.003906 Z M 0 384.007812 "/>
<path style=" stroke:none;fill-rule:evenodd;fill:rgb(100%,100%,100%);fill-opacity:1;" d="M 0 0 L 256.003906 192.003906 L 0 384.007812 Z M 0 0 "/>
<path style=" stroke:none;fill-rule:nonzero;fill:rgb(100%,100%,0%);fill-opacity:1;" d="M 129.214844 144.941406 L 129.292969 141.96875 C 129.292969 141.96875 127.695312 139.425781 129.546875 136.691406 C 129.546875 136.691406 125.613281 134.609375 126.527344 131.351562 C 126.527344 131.351562 122.96875 130.441406 123.230469 126.523438 C 123.230469 126.523438 119.390625 126.257812 118.992188 122.988281 C 118.992188 122.988281 115.152344 123.621094 113.460938 120.433594 C 113.460938 120.433594 109.710938 121.167969 108.65625 118.539062 C 108.65625 118.539062 105.011719 119.800781 102.851562 116.714844 C 102.851562 116.714844 99.003906 118.265625 97.394531 115.351562 C 95.800781 118.257812 91.957031 116.714844 91.957031 116.714844 C 89.820312 119.789062 86.152344 118.511719 86.152344 118.511719 C 85.128906 121.152344 81.394531 120.402344 81.394531 120.402344 C 79.707031 123.589844 75.871094 122.957031 75.871094 122.957031 C 75.496094 126.214844 71.660156 126.484375 71.660156 126.484375 C 71.960938 130.40625 68.410156 131.296875 68.410156 131.296875 C 69.347656 134.558594 65.414062 136.636719 65.414062 136.636719 C 67.316406 139.382812 65.734375 141.90625 65.734375 141.90625 L 65.644531 144.648438 L 129.222656 144.941406 "/>
<path style="fill:none;stroke-width:0.27124;stroke-linecap:butt;stroke-linejoin:miter;stroke:rgb(0%,0%,0%);stroke-opacity:1;stroke-miterlimit:4;" d="M 377.171898 843.110881 L 377.262768 839.652956 C 377.262768 839.652956 375.404488 836.694863 377.558093 833.514117 C 377.558093 833.514117 372.982818 831.092207 374.04599 827.302576 C 374.04599 827.302576 369.906888 826.243842 370.2113 821.686288 C 370.2113 821.686288 365.745068 821.377301 365.281634 817.574038 C 365.281634 817.574038 360.815402 818.310153 358.848079 814.602313 C 358.848079 814.602313 354.486346 815.45657 353.259609 812.398511 C 353.259609 812.398511 349.02055 813.866197 346.508011 810.276499 C 346.508011 810.276499 342.032691 812.080436 340.160781 808.69067 C 338.307045 812.071348 333.836269 810.276499 333.836269 810.276499 C 331.35099 813.852566 327.084671 812.366703 327.084671 812.366703 C 325.894281 815.438395 321.550723 814.565962 321.550723 814.565962 C 319.587943 818.273802 315.126255 817.537687 315.126255 817.537687 C 314.690081 821.327318 310.228393 821.640849 310.228393 821.640849 C 310.57824 826.202946 306.448224 827.238961 306.448224 827.238961 C 307.538658 831.033136 302.963382 833.450503 302.963382 833.450503 C 305.176052 836.64488 303.335947 839.580254 303.335947 839.580254 L 303.231447 842.770087 L 377.180985 843.110881 Z M 377.171898 843.110881 " transform="matrix(0.85975,0,0,0.859665,-195.058743,-579.851333)"/>
<path style=" stroke:none;fill-rule:nonzero;fill:rgb(100%,0%,0%);fill-opacity:1;" d="M 127.734375 141.226562 C 117.75 140.226562 106.25 137.855469 97.375 142.855469 C 91.421875 139.347656 83.136719 139.5625 76.085938 140.25 C 72.253906 140.933594 67.746094 140.933594 63.742188 141.589844 L 63.113281 141.675781 C 55.851562 142.160156 49.261719 140.011719 42.949219 137.191406 C 44.953125 148.570312 47.179688 160.230469 48.273438 172.140625 C 50.652344 189.78125 39.925781 204.589844 44.324219 222.015625 C 46.953125 230.378906 56.148438 235.238281 64.566406 236.203125 C 72.714844 236.683594 81.144531 238.019531 88.6875 239.65625 C 90.121094 239.953125 91.820312 240.621094 92.8125 241.046875 C 94.886719 241.917969 96.410156 243.195312 97.746094 244.558594 C 102.300781 239.820312 108.972656 238.5 115.554688 237.804688 C 127.421875 236.417969 142.046875 237.171875 149.3125 226.421875 L 149.3125 225.816406 C 153.257812 219.871094 152.734375 210.800781 151.023438 204.066406 C 150.910156 201.71875 150.28125 199.644531 149.941406 197.40625 C 142.691406 178.261719 148.898438 156.734375 152.019531 137.4375 C 148.207031 139.523438 143.957031 140.503906 139.71875 141.546875 C 136.339844 141.996094 132.570312 141.792969 129.148438 141.609375 L 127.730469 141.226562 "/>
<path style=" stroke:none;fill-rule:nonzero;fill:rgb(50.196078%,81.176471%,88.235294%);fill-opacity:1;" d="M 142.640625 196.167969 C 142.59375 197.429688 143.277344 198.417969 143.523438 199.585938 C 144.910156 207.953125 146.25 219.035156 137.632812 224.226562 C 128.105469 230.289062 115.605469 227.691406 104.578125 230.898438 C 102.375 231.511719 99.339844 233.539062 97.789062 234.972656 C 96.796875 234.316406 95.796875 233.3125 94.515625 232.722656 C 85.4375 227.894531 73.644531 229.511719 63.402344 226.90625 C 58.257812 225.28125 52.890625 221.269531 51.589844 216.007812 C 48.238281 202.191406 56.261719 190.417969 55.316406 176.710938 C 54.703125 166.246094 52.945312 156.199219 50.527344 146.386719 C 58.535156 150.117188 67.800781 150.738281 76.804688 148.949219 C 83.472656 148.019531 91.234375 147.996094 97.480469 150.820312 C 100.925781 149.335938 104.957031 148.671875 108.667969 148.265625 C 115.722656 148.949219 123.304688 150.226562 130.570312 150.175781 C 135.421875 149.921875 139.828125 148.519531 144.046875 146.652344 C 141.542969 162.871094 136.738281 179.855469 142.636719 196.167969 "/>
<path style=" stroke:none;fill-rule:nonzero;fill:rgb(100%,100%,100%);fill-opacity:1;" d="M 128.242188 199.402344 L 128.164062 184.152344 L 130.042969 184.152344 L 106.730469 169.09375 L 106.691406 161.273438 L 108.941406 161.273438 L 97.285156 152.925781 L 85.6875 161.265625 L 87.933594 161.265625 L 87.972656 169.085938 L 64.789062 184.121094 L 66.640625 184.128906 L 66.71875 199.371094 L 128.234375 199.410156 "/>
<path style="fill:none;stroke-width:1.1642;stroke-linecap:butt;stroke-linejoin:miter;stroke:rgb(0%,0%,0%);stroke-opacity:1;stroke-miterlimit:4;" d="M 376.040574 906.462246 L 375.949705 888.722773 L 378.135114 888.722773 L 351.019678 871.205953 L 350.974243 862.10902 L 353.591282 862.10902 L 340.033564 852.398658 L 326.543998 862.099933 L 329.156494 862.099933 L 329.201929 871.196865 L 302.236427 888.686422 L 304.390032 888.69551 L 304.480901 906.425895 L 376.031487 906.471334 Z M 376.040574 906.462246 " transform="matrix(0.85975,0,0,0.859665,-195.058743,-579.851333)"/>
<path style=" stroke:none;fill-rule:nonzero;fill:rgb(100%,100%,100%);fill-opacity:1;" d="M 135.410156 219.429688 L 135.417969 224.203125 L 60.320312 224.117188 L 60.289062 219.367188 L 135.417969 219.429688 "/>
<path style="fill:none;stroke-width:1.1642;stroke-linecap:butt;stroke-linejoin:miter;stroke:rgb(0%,0%,0%);stroke-opacity:1;stroke-miterlimit:4;" d="M 384.377844 929.758935 L 384.386931 935.311608 L 297.038695 935.211642 L 297.002348 929.686233 L 384.386931 929.758935 Z M 384.377844 929.758935 " transform="matrix(0.85975,0,0,0.859665,-195.058743,-579.851333)"/>
<path style="fill-rule:nonzero;fill:rgb(100%,100%,100%);fill-opacity:1;stroke-width:1.1642;stroke-linecap:butt;stroke-linejoin:miter;stroke:rgb(0%,0%,0%);stroke-opacity:1;stroke-miterlimit:4;" d="M 302.840708 929.431773 L 302.768013 910.642654 L 306.302833 910.63811 L 306.107464 929.640793 L 306.321007 910.78806 L 301.227776 910.642654 L 301.227776 906.612195 L 379.289156 906.69853 L 379.325504 910.692638 L 374.513968 910.692638 L 374.604837 929.713496 L 374.432185 910.692638 L 378.016984 910.692638 L 378.098766 929.499932 " transform="matrix(0.85975,0,0,0.859665,-195.058743,-579.851333)"/>
<path style="fill:none;stroke-width:1.1642;stroke-linecap:butt;stroke-linejoin:miter;stroke:rgb(0%,0%,0%);stroke-opacity:1;stroke-miterlimit:4;" d="M 319.619748 924.801516 L 319.565226 911.701388 L 309.083438 911.701388 L 309.142503 924.787884 L 319.619748 924.801516 " transform="matrix(0.85975,0,0,0.859665,-195.058743,-579.851333)"/>
<path style="fill:none;stroke-width:1.1642;stroke-linecap:butt;stroke-linejoin:miter;stroke:rgb(0%,0%,0%);stroke-opacity:1;stroke-miterlimit:4;" d="M 311.941281 914.427742 L 311.968542 922.038811 L 316.766448 922.038811 L 316.74373 914.427742 L 311.941281 914.427742 " transform="matrix(0.85975,0,0,0.859665,-195.058743,-579.851333)"/>
<path style="fill:none;stroke-width:1.1642;stroke-linecap:butt;stroke-linejoin:miter;stroke:rgb(0%,0%,0%);stroke-opacity:1;stroke-miterlimit:4;" d="M 370.861017 924.837868 L 370.797408 911.751371 L 360.351968 911.742284 L 360.401946 924.837868 L 370.861017 924.837868 " transform="matrix(0.85975,0,0,0.859665,-195.058743,-579.851333)"/>
<path style="fill:none;stroke-width:1.1642;stroke-linecap:butt;stroke-linejoin:miter;stroke:rgb(0%,0%,0%);stroke-opacity:1;stroke-miterlimit:4;" d="M 363.178007 914.482269 L 363.232528 922.066075 L 368.025891 922.066075 L 367.984999 914.482269 L 363.178007 914.482269 " transform="matrix(0.85975,0,0,0.859665,-195.058743,-579.851333)"/>
<path style="fill:none;stroke-width:1.1642;stroke-linecap:butt;stroke-linejoin:miter;stroke:rgb(0%,0%,0%);stroke-opacity:1;stroke-miterlimit:4;" d="M 370.779234 903.508696 L 370.720169 890.408568 L 360.261098 890.408568 L 360.297446 903.508696 L 370.783778 903.508696 Z M 370.779234 903.508696 " transform="matrix(0.85975,0,0,0.859665,-195.058743,-579.851333)"/>
<path style="fill:none;stroke-width:1.1642;stroke-linecap:butt;stroke-linejoin:miter;stroke:rgb(0%,0%,0%);stroke-opacity:1;stroke-miterlimit:4;" d="M 363.100768 893.162185 L 363.132572 900.755079 L 367.921391 900.755079 L 367.916847 893.162185 L 363.100768 893.162185 " transform="matrix(0.85975,0,0,0.859665,-195.058743,-579.851333)"/>
<path style="fill:none;stroke-width:1.1642;stroke-linecap:butt;stroke-linejoin:miter;stroke:rgb(0%,0%,0%);stroke-opacity:1;stroke-miterlimit:4;" d="M 319.528878 903.458713 L 319.456183 890.385849 L 308.992568 890.372217 L 309.042547 903.454169 L 319.528878 903.454169 Z M 319.528878 903.458713 " transform="matrix(0.85975,0,0,0.859665,-195.058743,-579.851333)"/>
<path style="fill:none;stroke-width:1.1642;stroke-linecap:butt;stroke-linejoin:miter;stroke:rgb(0%,0%,0%);stroke-opacity:1;stroke-miterlimit:4;" d="M 311.850412 893.112202 L 311.873129 900.696008 L 316.675578 900.705096 L 316.63923 893.112202 L 311.850412 893.112202 " transform="matrix(0.85975,0,0,0.859665,-195.058743,-579.851333)"/>
<path style="fill:none;stroke-width:1.1642;stroke-linecap:butt;stroke-linejoin:miter;stroke:rgb(0%,0%,0%);stroke-opacity:1;stroke-miterlimit:4;" d="M 338.497871 903.481433 L 338.452436 890.404025 L 327.979735 890.390393 L 328.02517 903.481433 L 338.497871 903.481433 " transform="matrix(0.85975,0,0,0.859665,-195.058743,-579.851333)"/>
<path style="fill:none;stroke-width:1.1642;stroke-linecap:butt;stroke-linejoin:miter;stroke:rgb(0%,0%,0%);stroke-opacity:1;stroke-miterlimit:4;" d="M 330.828491 893.130378 L 330.855752 900.714184 L 335.649114 900.741448 L 335.621854 893.130378 L 330.828491 893.130378 " transform="matrix(0.85975,0,0,0.859665,-195.058743,-579.851333)"/>
<path style="fill:none;stroke-width:1.1642;stroke-linecap:butt;stroke-linejoin:miter;stroke:rgb(0%,0%,0%);stroke-opacity:1;stroke-miterlimit:4;" d="M 353.118761 903.508696 L 353.046066 890.408568 L 342.582452 890.399481 L 342.63243 903.485977 L 353.118761 903.508696 " transform="matrix(0.85975,0,0,0.859665,-195.058743,-579.851333)"/>
<path style="fill:none;stroke-width:1.1642;stroke-linecap:butt;stroke-linejoin:miter;stroke:rgb(0%,0%,0%);stroke-opacity:1;stroke-miterlimit:4;" d="M 345.440295 893.139466 L 345.476643 900.750536 L 350.274548 900.750536 L 350.247288 893.139466 L 345.440295 893.139466 " transform="matrix(0.85975,0,0,0.859665,-195.058743,-579.851333)"/>
<path style=" stroke:none;fill-rule:nonzero;fill:rgb(100%,100%,100%);fill-opacity:1;" d="M 110.773438 193.410156 L 110.871094 219.371094 L 84.792969 219.328125 L 84.699219 193.386719 L 110.765625 193.410156 "/>
<path style="fill:none;stroke-width:1.1642;stroke-linecap:butt;stroke-linejoin:miter;stroke:rgb(0%,0%,0%);stroke-opacity:1;stroke-miterlimit:4;" d="M 355.72217 899.491869 L 355.835757 929.690777 L 325.503543 929.640793 L 325.3945 899.464606 L 355.713083 899.491869 Z M 355.72217 899.491869 " transform="matrix(0.85975,0,0,0.859665,-195.058743,-579.851333)"/>
<path style="fill:none;stroke-width:1.1642;stroke-linecap:butt;stroke-linejoin:miter;stroke:rgb(0%,0%,0%);stroke-opacity:1;stroke-miterlimit:4;" d="M 325.208217 908.11169 L 355.749431 908.134409 " transform="matrix(0.85975,0,0,0.859665,-195.058743,-579.851333)"/>
<path style="fill:none;stroke-width:1.1642;stroke-linecap:butt;stroke-linejoin:miter;stroke:rgb(0%,0%,0%);stroke-opacity:1;stroke-miterlimit:4;" d="M 329.02019 929.681689 L 328.91569 908.338886 " transform="matrix(0.85975,0,0,0.859665,-195.058743,-579.851333)"/>
<path style="fill:none;stroke-width:1.1642;stroke-linecap:butt;stroke-linejoin:miter;stroke:rgb(0%,0%,0%);stroke-opacity:1;stroke-miterlimit:4;" d="M 352.141915 929.690777 L 352.037415 908.361605 " transform="matrix(0.85975,0,0,0.859665,-195.058743,-579.851333)"/>
<path style="fill:none;stroke-width:1.1642;stroke-linecap:butt;stroke-linejoin:miter;stroke:rgb(0%,0%,0%);stroke-opacity:1;stroke-miterlimit:4;" d="M 366.790066 886.628025 L 349.711158 874.154958 L 330.514992 874.132239 L 313.567844 886.582586 L 366.790066 886.628025 " transform="matrix(0.85975,0,0,0.859665,-195.058743,-579.851333)"/>
<path style="fill:none;stroke-width:1.1642;stroke-linecap:butt;stroke-linejoin:miter;stroke:rgb(0%,0%,0%);stroke-opacity:1;stroke-miterlimit:4;" d="M 331.99162 863.79936 L 332.018881 871.410429 L 348.166378 871.419517 L 348.134573 863.812991 L 331.99162 863.79936 " transform="matrix(0.85975,0,0,0.859665,-195.058743,-579.851333)"/>
<path style="fill:none;stroke-width:1.1642;stroke-linecap:butt;stroke-linejoin:miter;stroke:rgb(0%,0%,0%);stroke-opacity:1;stroke-miterlimit:4;" d="M 336.371526 865.689631 L 336.394244 869.483806 L 343.809189 869.483806 L 343.786471 865.689631 L 336.371526 865.689631 " transform="matrix(0.85975,0,0,0.859665,-195.058743,-579.851333)"/>
<path style="fill:none;stroke-width:1.1642;stroke-linecap:butt;stroke-linejoin:miter;stroke:rgb(0%,0%,0%);stroke-opacity:1;stroke-miterlimit:4;" d="M 340.038108 855.138644 L 349.02055 861.486503 L 331.12836 861.463783 L 340.038108 855.138644 " transform="matrix(0.85975,0,0,0.859665,-195.058743,-579.851333)"/>
<path style="fill-rule:nonzero;fill:rgb(100%,100%,100%);fill-opacity:1;stroke-width:1.1642;stroke-linecap:butt;stroke-linejoin:miter;stroke:rgb(0%,0%,0%);stroke-opacity:1;stroke-miterlimit:4;" d="M 376.340443 850.840093 C 378.88933 850.781022 379.548134 861.345641 379.552677 866.58024 C 381.747174 867.198213 386.604145 870.251729 388.753207 873.014434 L 364.109418 872.978083 C 366.226676 870.251729 371.051843 867.184582 373.223622 866.571152 C 373.223622 861.327466 373.759751 850.76739 376.340443 850.826461 " transform="matrix(0.85975,0,0,0.859665,-195.058743,-579.851333)"/>
<path style="fill:none;stroke-width:1.1642;stroke-linecap:butt;stroke-linejoin:miter;stroke:rgb(0%,0%,0%);stroke-opacity:1;stroke-miterlimit:4;" d="M 326.812063 900.327951 L 329.02019 900.327951 L 328.375017 901.518458 C 328.375017 901.518458 329.438189 902.886179 328.393191 904.458376 L 328.970212 905.548918 L 326.839324 905.548918 L 327.420888 904.512903 C 327.420888 904.512903 326.330455 902.69079 327.466323 901.518458 L 326.812063 900.327951 " transform="matrix(0.85975,0,0,0.859665,-195.058743,-579.851333)"/>
<path style="fill:none;stroke-width:1.1642;stroke-linecap:butt;stroke-linejoin:miter;stroke:rgb(0%,0%,0%);stroke-opacity:1;stroke-miterlimit:4;" d="M 331.310099 900.327951 L 333.518226 900.327951 L 332.88214 901.518458 C 332.88214 901.518458 333.945313 902.849828 332.886684 904.458376 L 333.459161 905.548918 L 331.332817 905.548918 L 331.905294 904.512903 C 331.905294 904.512903 330.842122 902.69079 331.959816 901.518458 L 331.310099 900.327951 " transform="matrix(0.85975,0,0,0.859665,-195.058743,-579.851333)"/>
<path style="fill:none;stroke-width:1.1642;stroke-linecap:butt;stroke-linejoin:miter;stroke:rgb(0%,0%,0%);stroke-opacity:1;stroke-miterlimit:4;" d="M 336.230679 900.327951 L 338.434262 900.327951 L 337.775459 901.518458 C 337.775459 901.518458 338.852262 902.886179 337.793633 904.458376 L 338.370654 905.571637 L 336.262483 905.548918 L 336.825873 904.512903 C 336.825873 904.512903 335.749071 902.704422 336.871308 901.518458 L 336.226135 900.327951 Z M 336.230679 900.327951 " transform="matrix(0.85975,0,0,0.859665,-195.058743,-579.851333)"/>
<path style="fill:none;stroke-width:1.1642;stroke-linecap:butt;stroke-linejoin:miter;stroke:rgb(0%,0%,0%);stroke-opacity:1;stroke-miterlimit:4;" d="M 341.76917 900.35067 L 343.990928 900.35067 L 343.341211 901.550266 C 343.341211 901.550266 344.404383 902.895267 343.345755 904.472008 L 343.940949 905.580725 L 341.800974 905.580725 L 342.373452 904.544711 C 342.373452 904.544711 341.305736 902.71351 342.446147 901.550266 L 341.778257 900.35067 Z M 341.76917 900.35067 " transform="matrix(0.85975,0,0,0.859665,-195.058743,-579.851333)"/>
<path style="fill:none;stroke-width:1.1642;stroke-linecap:butt;stroke-linejoin:miter;stroke:rgb(0%,0%,0%);stroke-opacity:1;stroke-miterlimit:4;" d="M 346.698836 900.35067 L 348.90242 900.35067 L 348.252704 901.550266 C 348.252704 901.550266 349.324963 902.895267 348.266334 904.46292 L 348.847898 905.580725 L 346.726097 905.580725 L 347.280401 904.544711 C 347.280401 904.544711 346.208142 902.722598 347.362183 901.550266 L 346.698836 900.35067 " transform="matrix(0.85975,0,0,0.859665,-195.058743,-579.851333)"/>
<path style="fill:none;stroke-width:1.1642;stroke-linecap:butt;stroke-linejoin:miter;stroke:rgb(0%,0%,0%);stroke-opacity:1;stroke-miterlimit:4;" d="M 351.601242 900.359758 L 353.804826 900.346126 L 353.150566 901.545722 C 353.150566 901.545722 354.240999 902.890723 353.18237 904.467464 L 353.736673 905.576181 L 351.605785 905.576181 L 352.178263 904.540167 C 352.178263 904.540167 351.115091 902.722598 352.250958 901.545722 L 351.601242 900.359758 " transform="matrix(0.85975,0,0,0.859665,-195.058743,-579.851333)"/>
<path style="fill-rule:nonzero;fill:rgb(100%,100%,0%);fill-opacity:1;stroke-width:0.27124;stroke-linecap:butt;stroke-linejoin:miter;stroke:rgb(0%,0%,0%);stroke-opacity:1;stroke-miterlimit:4;" d="M 340.701454 968.400451 C 352.060133 968.436802 366.026763 966.119402 372.573905 962.73418 L 386.944905 961.461881 L 387.231144 978.996877 C 375.054641 985.712795 346.944184 987.153218 340.76052 987.107779 C 334.567768 987.153218 306.112008 985.690075 293.880983 978.951438 L 294.040004 961.398266 L 308.442808 962.697828 C 314.985407 966.064875 329.383667 968.400451 340.728715 968.400451 L 340.696911 968.400451 " transform="matrix(0.85975,0,0,0.859665,-195.058743,-579.851333)"/>
<path style=" stroke:none;fill-rule:nonzero;fill:rgb(100%,100%,0%);fill-opacity:1;" d="M 25.792969 188.335938 L 36.679688 191.800781 L 33.386719 209.425781 L 23.082031 211.027344 C 23.082031 211.027344 21.34375 201.757812 25.792969 188.324219 "/>
<path style="fill:none;stroke-width:0.27124;stroke-linecap:butt;stroke-linejoin:miter;stroke:rgb(0%,0%,0%);stroke-opacity:1;stroke-miterlimit:4;" d="M 256.878953 893.589314 L 269.541607 897.619773 L 265.711461 918.12195 L 253.725784 919.984959 C 253.725784 919.984959 251.703939 909.202231 256.878953 893.575682 Z M 256.878953 893.589314 " transform="matrix(0.85975,0,0,0.859665,-195.058743,-579.851333)"/>
<path style="fill-rule:nonzero;fill:rgb(49.411765%,49.411765%,49.411765%);fill-opacity:1;stroke-width:0.27124;stroke-linecap:butt;stroke-linejoin:miter;stroke:rgb(0%,0%,0%);stroke-opacity:1;stroke-miterlimit:4;" d="M 265.711461 917.899298 L 253.730327 919.989503 L 261.308837 909.206775 L 265.711461 917.899298 " transform="matrix(0.85975,0,0,0.859665,-195.058743,-579.851333)"/>
<path style=" stroke:none;fill-rule:nonzero;fill:rgb(100%,100%,0%);fill-opacity:1;" d="M 19.285156 201.035156 L 29.777344 201.792969 C 30.015625 210.683594 31.09375 244.613281 71.609375 246.457031 L 70.347656 258.800781 C 21.027344 259.3125 17.28125 217.183594 19.285156 201.035156 "/>
<path style="fill:none;stroke-width:0.27124;stroke-linecap:butt;stroke-linejoin:miter;stroke:rgb(0%,0%,0%);stroke-opacity:1;stroke-miterlimit:4;" d="M 249.30953 908.361605 L 261.513293 909.243126 C 261.790445 919.585093 263.044443 959.053602 310.169327 961.198334 L 308.701786 975.557128 C 251.335918 976.152382 246.978729 927.14618 249.30953 908.361605 Z M 249.30953 908.361605 " transform="matrix(0.85975,0,0,0.859665,-195.058743,-579.851333)"/>
<path style="fill:none;stroke-width:0.27124;stroke-linecap:butt;stroke-linejoin:miter;stroke:rgb(0%,0%,0%);stroke-opacity:1;stroke-miterlimit:4;" d="M 294.108156 978.50159 L 308.492786 975.357196 " transform="matrix(0.85975,0,0,0.859665,-195.058743,-579.851333)"/>
<path style=" stroke:none;fill-rule:nonzero;fill:rgb(100%,100%,0%);fill-opacity:1;" d="M 169.0625 188.464844 L 158.21875 191.898438 L 161.65625 209.496094 L 171.984375 211.15625 C 171.984375 211.15625 173.640625 201.894531 169.0625 188.457031 "/>
<path style="fill:none;stroke-width:0.27124;stroke-linecap:butt;stroke-linejoin:miter;stroke:rgb(0%,0%,0%);stroke-opacity:1;stroke-miterlimit:4;" d="M 423.519849 893.739263 L 410.907173 897.733371 L 414.905427 918.203741 L 426.918365 920.134908 C 426.918365 920.134908 428.844797 909.361268 423.519849 893.730176 Z M 423.519849 893.739263 " transform="matrix(0.85975,0,0,0.859665,-195.058743,-579.851333)"/>
<path style="fill-rule:nonzero;fill:rgb(49.411765%,49.411765%,49.411765%);fill-opacity:1;stroke-width:0.27124;stroke-linecap:butt;stroke-linejoin:miter;stroke:rgb(0%,0%,0%);stroke-opacity:1;stroke-miterlimit:4;" d="M 414.900884 917.990177 L 426.909278 920.143996 L 419.226269 909.356724 L 414.900884 917.990177 " transform="matrix(0.85975,0,0,0.859665,-195.058743,-579.851333)"/>
<path style=" stroke:none;fill-rule:nonzero;fill:rgb(100%,100%,0%);fill-opacity:1;" d="M 175.691406 201.171875 L 165.183594 201.890625 C 165.03125 210.769531 164.257812 244.714844 123.738281 246.515625 L 125.113281 258.851562 C 174.425781 259.421875 177.816406 217.308594 175.691406 201.164062 "/>
<path style="fill:none;stroke-width:0.27124;stroke-linecap:butt;stroke-linejoin:miter;stroke:rgb(0%,0%,0%);stroke-opacity:1;stroke-miterlimit:4;" d="M 431.23012 908.520643 L 419.008182 909.356724 C 418.830987 919.68506 417.931379 959.171744 370.801952 961.266493 L 372.401254 975.616199 C 429.758035 976.279612 433.701768 927.291586 431.23012 908.511555 Z M 431.23012 908.520643 " transform="matrix(0.85975,0,0,0.859665,-195.058743,-579.851333)"/>
<path style="fill:none;stroke-width:0.27124;stroke-linecap:butt;stroke-linejoin:miter;stroke:rgb(0%,0%,0%);stroke-opacity:1;stroke-miterlimit:4;" d="M 387.040318 978.569749 L 372.61934 975.420811 " transform="matrix(0.85975,0,0,0.859665,-195.058743,-579.851333)"/>
<path style=" stroke:none;fill-rule:nonzero;fill:rgb(0%,62.352941%,77.254902%);fill-opacity:1;" d="M 91.296875 260.074219 C 91.019531 260.253906 90.644531 260.300781 90.210938 260.28125 L 88.253906 260.179688 L 88.417969 257.738281 L 90.363281 257.839844 C 90.742188 257.867188 91.046875 257.941406 91.234375 258.054688 C 91.628906 258.257812 91.800781 258.636719 91.765625 259.160156 C 91.738281 259.609375 91.582031 259.902344 91.292969 260.074219 M 88.007812 263.921875 L 88.199219 260.945312 L 90.480469 261.101562 C 91.21875 261.160156 91.769531 260.964844 92.140625 260.589844 C 92.527344 260.222656 92.726562 259.742188 92.753906 259.195312 C 92.800781 258.5625 92.636719 258.046875 92.261719 257.664062 C 91.898438 257.296875 91.386719 257.101562 90.742188 257.039062 L 87.484375 256.835938 L 87.03125 263.847656 L 88 263.910156 "/>
<path style=" stroke:none;fill-rule:nonzero;fill:rgb(0%,62.352941%,77.254902%);fill-opacity:1;" d="M 95.105469 258.054688 L 97.492188 258.082031 C 97.839844 258.113281 98.109375 258.15625 98.308594 258.25 C 98.675781 258.421875 98.847656 258.765625 98.847656 259.269531 C 98.847656 259.742188 98.710938 260.054688 98.445312 260.242188 C 98.191406 260.414062 97.816406 260.492188 97.375 260.492188 L 95.082031 260.46875 L 95.101562 258.054688 M 95.066406 264.265625 L 95.085938 261.273438 L 97.324219 261.304688 C 97.722656 261.304688 98.015625 261.335938 98.222656 261.4375 C 98.550781 261.585938 98.710938 261.90625 98.726562 262.347656 L 98.785156 263.523438 C 98.800781 263.804688 98.808594 263.980469 98.824219 264.09375 C 98.855469 264.179688 98.871094 264.265625 98.910156 264.332031 L 100.117188 264.332031 L 100.09375 264.179688 C 99.957031 264.105469 99.847656 263.964844 99.800781 263.75 C 99.757812 263.613281 99.738281 263.410156 99.726562 263.152344 L 99.707031 262.214844 C 99.691406 261.792969 99.617188 261.5 99.457031 261.335938 C 99.316406 261.148438 99.121094 260.984375 98.824219 260.886719 C 99.15625 260.707031 99.410156 260.503906 99.59375 260.253906 C 99.765625 259.976562 99.855469 259.625 99.855469 259.195312 C 99.855469 258.390625 99.523438 257.839844 98.855469 257.542969 C 98.492188 257.378906 98.03125 257.296875 97.488281 257.285156 L 94.121094 257.253906 L 94.097656 264.289062 L 95.066406 264.289062 "/>
<path style=" stroke:none;fill-rule:nonzero;fill:rgb(0%,62.352941%,77.254902%);fill-opacity:1;" d="M 102.535156 262.800781 C 102.105469 262.277344 101.875 261.625 101.824219 260.847656 C 101.777344 259.875 101.964844 259.132812 102.410156 258.628906 C 102.859375 258.085938 103.441406 257.824219 104.199219 257.78125 C 104.964844 257.742188 105.589844 257.988281 106.058594 258.46875 C 106.535156 258.9375 106.804688 259.59375 106.851562 260.410156 C 106.878906 261.195312 106.742188 261.890625 106.382812 262.503906 C 106.027344 263.125 105.433594 263.476562 104.5625 263.496094 C 103.648438 263.542969 102.96875 263.328125 102.535156 262.800781 M 101.382812 258.375 C 100.933594 259.070312 100.75 259.875 100.796875 260.847656 C 100.867188 261.902344 101.191406 262.769531 101.800781 263.425781 C 102.484375 264.078125 103.382812 264.40625 104.492188 264.34375 C 105.679688 264.292969 106.574219 263.84375 107.183594 263.015625 C 107.675781 262.265625 107.910156 261.398438 107.859375 260.324219 C 107.789062 259.367188 107.511719 258.589844 106.996094 258.007812 C 106.339844 257.226562 105.382812 256.882812 104.085938 256.933594 C 102.859375 257.011719 101.960938 257.464844 101.378906 258.375 "/>
<path style=" stroke:none;fill-rule:nonzero;fill:rgb(0%,62.352941%,77.254902%);fill-opacity:1;" d="M 134.433594 248.253906 C 135.105469 248.140625 135.691406 248.171875 136.226562 248.355469 C 137.011719 248.601562 137.539062 249.183594 137.871094 250.070312 L 136.902344 250.207031 C 136.691406 249.726562 136.394531 249.394531 135.992188 249.210938 C 135.597656 249.039062 135.105469 249 134.542969 249.082031 C 133.882812 249.183594 133.355469 249.511719 132.980469 250.039062 C 132.617188 250.605469 132.507812 251.359375 132.667969 252.320312 C 132.804688 253.117188 133.097656 253.792969 133.578125 254.242188 C 134.023438 254.703125 134.679688 254.863281 135.53125 254.746094 C 136.167969 254.640625 136.683594 254.382812 137.042969 253.945312 C 137.421875 253.527344 137.53125 252.890625 137.40625 252.074219 L 135.148438 252.421875 L 135.035156 251.648438 L 138.175781 251.164062 L 138.785156 254.886719 L 138.164062 254.980469 L 137.777344 254.121094 C 137.515625 254.507812 137.253906 254.808594 137.023438 254.980469 C 136.636719 255.285156 136.113281 255.476562 135.457031 255.570312 C 134.609375 255.703125 133.835938 255.550781 133.132812 255.101562 C 132.363281 254.53125 131.867188 253.683594 131.679688 252.503906 C 131.476562 251.347656 131.65625 250.359375 132.191406 249.578125 C 132.699219 248.824219 133.4375 248.386719 134.433594 248.246094 "/>
<path style=" stroke:none;fill-rule:nonzero;fill:rgb(0%,62.352941%,77.254902%);fill-opacity:1;" d="M 141.535156 247.714844 L 143.785156 246.898438 C 144.09375 246.78125 144.359375 246.746094 144.589844 246.773438 C 145.003906 246.804688 145.308594 247.050781 145.480469 247.539062 C 145.640625 247.960938 145.640625 248.324219 145.457031 248.582031 C 145.265625 248.847656 144.960938 249.042969 144.523438 249.203125 L 142.40625 249.964844 L 141.535156 247.714844 M 143.785156 253.527344 L 142.683594 250.707031 L 144.777344 249.953125 C 145.171875 249.828125 145.441406 249.757812 145.648438 249.78125 C 146.019531 249.828125 146.300781 250.054688 146.488281 250.480469 L 146.964844 251.554688 C 147.070312 251.820312 147.15625 251.984375 147.222656 252.058594 C 147.253906 252.152344 147.320312 252.210938 147.375 252.273438 L 148.511719 251.851562 L 148.445312 251.703125 C 148.28125 251.703125 148.117188 251.605469 147.996094 251.421875 C 147.90625 251.292969 147.824219 251.105469 147.703125 250.886719 L 147.332031 250.003906 C 147.164062 249.625 146.992188 249.386719 146.792969 249.246094 C 146.59375 249.136719 146.34375 249.0625 146.042969 249.042969 C 146.273438 248.777344 146.441406 248.507812 146.503906 248.195312 C 146.574219 247.875 146.542969 247.519531 146.390625 247.121094 C 146.101562 246.375 145.574219 245.964844 144.832031 245.914062 C 144.4375 245.882812 143.988281 245.964844 143.46875 246.148438 L 140.308594 247.273438 L 142.863281 253.886719 L 143.789062 253.546875 "/>
<path style=" stroke:none;fill-rule:nonzero;fill:rgb(0%,62.352941%,77.254902%);fill-opacity:1;" d="M 152.015625 250.042969 L 148 244.1875 L 152.40625 241.375 L 152.894531 242.082031 L 149.28125 244.390625 L 150.515625 246.179688 L 153.851562 244.035156 L 154.304688 244.71875 L 150.972656 246.867188 L 152.332031 248.839844 L 156.007812 246.488281 L 156.492188 247.179688 L 152.007812 250.042969 "/>
<path style=" stroke:none;fill-rule:nonzero;fill:rgb(0%,62.352941%,77.254902%);fill-opacity:1;" d="M 155.53125 239.683594 L 156.679688 238.417969 C 157.214844 237.851562 157.78125 237.597656 158.398438 237.667969 C 159.015625 237.722656 159.644531 238.046875 160.3125 238.632812 C 160.496094 238.773438 160.660156 238.957031 160.828125 239.160156 C 161.121094 239.542969 161.292969 239.878906 161.402344 240.214844 C 161.496094 240.632812 161.476562 241.015625 161.328125 241.378906 C 161.238281 241.5625 161.082031 241.777344 160.847656 242.035156 L 159.691406 243.289062 L 155.53125 239.675781 M 161.613281 242.433594 C 162.429688 241.53125 162.605469 240.5625 162.128906 239.46875 C 161.851562 238.878906 161.429688 238.304688 160.84375 237.800781 C 160.105469 237.144531 159.335938 236.8125 158.523438 236.75 C 157.625 236.679688 156.859375 237.003906 156.195312 237.730469 L 154.230469 239.835938 L 159.644531 244.558594 L 161.605469 242.441406 "/>
<path style=" stroke:none;fill-rule:nonzero;fill:rgb(0%,62.352941%,77.254902%);fill-opacity:1;" d="M 165.804688 236.976562 L 159.578125 233.320312 L 160.082031 232.511719 L 166.324219 236.148438 L 165.808594 236.988281 "/>
<path style=" stroke:none;fill-rule:nonzero;fill:rgb(0%,62.352941%,77.254902%);fill-opacity:1;" d="M 168.246094 232.730469 L 161.519531 230.039062 L 163.503906 225.308594 L 164.320312 225.621094 L 162.703125 229.519531 L 164.730469 230.316406 L 166.242188 226.726562 L 167.015625 227.046875 L 165.519531 230.632812 L 167.785156 231.550781 L 169.445312 227.605469 L 170.261719 227.914062 L 168.242188 232.730469 "/>
<path style=" stroke:none;fill-rule:nonzero;fill:rgb(0%,62.352941%,77.254902%);fill-opacity:1;" d="M 171.332031 224.46875 L 164.257812 222.902344 L 164.492188 221.808594 L 171.027344 219.601562 L 165.289062 218.335938 L 165.496094 217.476562 L 172.574219 219 L 172.347656 220.0625 L 165.800781 222.316406 L 171.542969 223.558594 L 171.335938 224.46875 "/>
<path style=" stroke:none;fill-rule:nonzero;fill:rgb(0%,62.352941%,77.254902%);fill-opacity:1;" d="M 170.773438 215.484375 L 170.863281 214.59375 C 171.269531 214.605469 171.617188 214.542969 171.878906 214.402344 C 172.390625 214.125 172.6875 213.597656 172.765625 212.816406 C 172.800781 212.449219 172.785156 212.128906 172.699219 211.828125 C 172.546875 211.242188 172.21875 210.917969 171.6875 210.863281 C 171.296875 210.820312 171.015625 210.917969 170.808594 211.132812 C 170.628906 211.378906 170.433594 211.734375 170.285156 212.234375 L 169.960938 213.160156 C 169.753906 213.769531 169.558594 214.1875 169.351562 214.421875 C 169.015625 214.863281 168.542969 215.015625 167.941406 214.972656 C 167.296875 214.90625 166.773438 214.648438 166.402344 214.15625 C 166.019531 213.707031 165.863281 213.0625 165.957031 212.265625 C 166.019531 211.539062 166.261719 210.925781 166.691406 210.433594 C 167.089844 209.984375 167.707031 209.769531 168.496094 209.855469 L 168.421875 210.742188 C 168.035156 210.742188 167.726562 210.8125 167.503906 210.96875 C 167.09375 211.195312 166.871094 211.667969 166.800781 212.367188 C 166.742188 212.941406 166.820312 213.328125 167.042969 213.621094 C 167.261719 213.867188 167.539062 214.023438 167.863281 214.050781 C 168.207031 214.082031 168.480469 213.972656 168.667969 213.707031 C 168.804688 213.523438 168.96875 213.125 169.1875 212.480469 L 169.507812 211.507812 C 169.664062 211.058594 169.851562 210.710938 170.070312 210.464844 C 170.464844 210.058594 170.976562 209.886719 171.621094 209.933594 C 172.40625 210.015625 172.964844 210.339844 173.253906 210.9375 C 173.535156 211.539062 173.648438 212.203125 173.578125 212.957031 C 173.488281 213.808594 173.210938 214.480469 172.699219 214.929688 C 172.1875 215.390625 171.546875 215.546875 170.773438 215.484375 "/>
<path style=" stroke:none;fill-rule:nonzero;fill:rgb(0%,62.352941%,77.254902%);fill-opacity:1;" d="M 24.089844 215.054688 L 24.253906 215.933594 C 23.859375 216.011719 23.546875 216.167969 23.316406 216.375 C 22.902344 216.761719 22.761719 217.34375 22.902344 218.132812 C 22.964844 218.464844 23.085938 218.796875 23.238281 219.058594 C 23.550781 219.59375 23.960938 219.804688 24.480469 219.722656 C 24.859375 219.65625 25.113281 219.507812 25.234375 219.234375 C 25.347656 218.96875 25.429688 218.5625 25.457031 218.039062 L 25.503906 217.046875 C 25.535156 216.4375 25.605469 215.957031 25.738281 215.6875 C 25.953125 215.207031 26.359375 214.90625 26.960938 214.808594 C 27.601562 214.695312 28.167969 214.839844 28.65625 215.207031 C 29.148438 215.546875 29.472656 216.136719 29.59375 216.921875 C 29.742188 217.640625 29.675781 218.285156 29.394531 218.863281 C 29.121094 219.429688 28.597656 219.773438 27.796875 219.921875 L 27.640625 219.03125 C 28.011719 218.894531 28.289062 218.765625 28.472656 218.582031 C 28.785156 218.230469 28.878906 217.722656 28.761719 217.027344 C 28.664062 216.460938 28.472656 216.097656 28.179688 215.914062 C 27.890625 215.699219 27.601562 215.613281 27.289062 215.667969 C 26.9375 215.71875 26.707031 215.914062 26.597656 216.226562 C 26.53125 216.4375 26.476562 216.871094 26.429688 217.535156 L 26.382812 218.5625 C 26.359375 219.042969 26.285156 219.441406 26.121094 219.710938 C 25.867188 220.214844 25.429688 220.523438 24.796875 220.621094 C 23.996094 220.757812 23.378906 220.574219 22.941406 220.0625 C 22.488281 219.558594 22.210938 218.957031 22.070312 218.210938 C 21.914062 217.320312 22.03125 216.628906 22.386719 216.074219 C 22.746094 215.503906 23.316406 215.175781 24.089844 215.066406 "/>
<path style=" stroke:none;fill-rule:nonzero;fill:rgb(0%,62.352941%,77.254902%);fill-opacity:1;" d="M 23.644531 224.332031 L 30.5625 222.246094 L 32.175781 227.121094 L 31.332031 227.386719 L 30.015625 223.382812 L 27.910156 224.015625 L 29.128906 227.714844 L 28.324219 227.972656 L 27.113281 224.261719 L 24.769531 224.964844 L 26.109375 229.054688 L 25.28125 229.292969 L 23.644531 224.332031 "/>
<path style=" stroke:none;fill-rule:nonzero;fill:rgb(0%,62.352941%,77.254902%);fill-opacity:1;" d="M 26.714844 232.78125 L 33.078125 229.40625 L 33.757812 230.59375 L 29.382812 235.21875 L 35.773438 234.125 L 36.433594 235.304688 L 30.085938 238.660156 L 29.632812 237.878906 L 33.382812 235.90625 C 33.515625 235.828125 33.726562 235.710938 34.03125 235.550781 C 34.328125 235.414062 34.664062 235.230469 35 235.058594 L 28.632812 236.140625 L 28.167969 235.3125 L 32.511719 230.703125 L 32.304688 230.808594 C 32.167969 230.886719 31.929688 231.003906 31.613281 231.183594 C 31.296875 231.378906 31.0625 231.5 30.910156 231.5625 L 27.175781 233.566406 L 26.714844 232.769531 "/>
<path style=" stroke:none;fill-rule:nonzero;fill:rgb(0%,62.352941%,77.254902%);fill-opacity:1;" d="M 38.570312 242.152344 C 38.25 242.078125 37.9375 241.894531 37.628906 241.574219 L 36.28125 240.1875 L 38.09375 238.53125 L 39.449219 239.914062 C 39.710938 240.167969 39.878906 240.417969 39.96875 240.632812 C 40.09375 241.046875 39.96875 241.425781 39.585938 241.78125 C 39.238281 242.097656 38.894531 242.230469 38.570312 242.152344 M 33.457031 242.796875 L 35.675781 240.757812 L 37.25 242.355469 C 37.757812 242.875 38.277344 243.109375 38.820312 243.097656 C 39.375 243.066406 39.851562 242.863281 40.269531 242.464844 C 40.742188 242.046875 40.96875 241.554688 40.96875 241.027344 C 40.960938 240.511719 40.726562 240.03125 40.292969 239.582031 L 38.03125 237.273438 L 32.765625 242.109375 L 33.445312 242.796875 "/>
<path style=" stroke:none;fill-rule:nonzero;fill:rgb(0%,62.352941%,77.254902%);fill-opacity:1;" d="M 39.808594 248.445312 L 43.625 242.464844 L 48.132812 245.203125 L 47.664062 245.917969 L 43.957031 243.699219 L 42.8125 245.507812 L 46.21875 247.574219 L 45.78125 248.261719 L 42.367188 246.207031 L 41.070312 248.230469 L 44.820312 250.484375 L 44.371094 251.191406 L 39.808594 248.445312 "/>
<path style=" stroke:none;fill-rule:nonzero;fill:rgb(0%,62.352941%,77.254902%);fill-opacity:1;" d="M 51.097656 247.292969 L 53.386719 248.019531 C 53.714844 248.121094 53.949219 248.246094 54.105469 248.386719 C 54.398438 248.664062 54.476562 249.0625 54.304688 249.542969 C 54.164062 249.960938 53.949219 250.234375 53.613281 250.347656 C 53.316406 250.402344 52.9375 250.402344 52.5 250.265625 L 50.335938 249.574219 L 51.097656 247.292969 M 49.117188 253.167969 L 50.070312 250.316406 L 52.207031 251.011719 C 52.585938 251.113281 52.867188 251.25 53 251.390625 C 53.261719 251.625 53.339844 251.976562 53.210938 252.410156 L 52.890625 253.546875 C 52.816406 253.824219 52.78125 254.007812 52.75 254.089844 C 52.75 254.179688 52.75 254.273438 52.765625 254.335938 L 53.890625 254.703125 L 53.960938 254.539062 C 53.839844 254.445312 53.769531 254.273438 53.777344 254.058594 C 53.800781 253.929688 53.839844 253.71875 53.910156 253.476562 L 54.183594 252.566406 C 54.292969 252.167969 54.335938 251.871094 54.238281 251.65625 C 54.152344 251.429688 54.011719 251.226562 53.777344 251.035156 C 54.132812 250.972656 54.441406 250.859375 54.703125 250.667969 C 54.949219 250.453125 55.15625 250.15625 55.285156 249.738281 C 55.539062 248.976562 55.398438 248.34375 54.832031 247.863281 C 54.550781 247.613281 54.148438 247.398438 53.617188 247.199219 L 50.414062 246.210938 L 48.175781 252.882812 L 49.113281 253.167969 "/>
<path style=" stroke:none;fill-rule:nonzero;fill:rgb(73.72549%,44.313725%,37.254902%);fill-opacity:1;" d="M 58.84375 131.746094 C 59.667969 129.75 67.332031 124.3125 92.472656 126.695312 C 92.472656 126.695312 96.722656 129.289062 99.21875 128.957031 C 100.644531 128.773438 98.382812 129.042969 96.523438 127.5 C 94.628906 125.957031 94.226562 122.789062 98.554688 122.875 C 102.863281 122.984375 118.988281 123.894531 119.289062 125.34375 C 119.574219 126.808594 110.765625 127.421875 107.488281 127.339844 C 104.195312 127.25 104.578125 128.914062 107.855469 128.789062 C 118.09375 128.421875 129.265625 124.816406 141.066406 133.164062 C 142.476562 134.175781 137.507812 134.339844 133.667969 132.707031 C 133.667969 132.707031 123.257812 133.246094 118.757812 132.507812 C 118.757812 132.507812 115.296875 135.324219 110.789062 135.046875 C 111.375 136.507812 109.125 141.953125 94.960938 137.855469 C 92.621094 138.574219 84.09375 140.003906 85.027344 137.46875 C 82.78125 137.46875 78.84375 138.191406 78.257812 136.914062 C 77.695312 135.660156 85.1875 133.757812 86.5 132.398438 C 86.5 132.398438 70.648438 132.550781 67.644531 131.457031 C 67.644531 131.457031 58.292969 133.554688 58.839844 131.734375 "/>
<path style=" stroke:none;fill-rule:nonzero;fill:rgb(0%,52.941176%,21.568627%);fill-opacity:1;" d="M 63.921875 153.941406 C 64.265625 153.480469 64.398438 152.652344 65.121094 152.675781 C 66.691406 153.09375 67.761719 155.964844 69.691406 154.105469 C 70.375 153.953125 70.636719 154.882812 71.203125 154.992188 C 71.566406 156.589844 72.847656 154.667969 73.804688 154.777344 C 75.851562 153.867188 78.382812 153.652344 80.808594 154.101562 C 80.878906 155.667969 79.65625 157.394531 78.117188 158.285156 C 78.148438 159.859375 79.578125 160.871094 79.550781 162.457031 C 79.304688 163.046875 79.507812 163.976562 78.613281 164.171875 C 77.480469 163.96875 76.359375 163.847656 75.417969 163.214844 C 75.300781 163.097656 75.207031 162.875 74.964844 162.949219 C 74.851562 163.476562 75.679688 164 76.003906 164.539062 C 75.433594 165.511719 74.484375 164.621094 73.691406 164.632812 C 73.453125 165.191406 73.679688 165.898438 73.101562 166.261719 C 72.097656 166.230469 71.894531 165.136719 71.277344 164.589844 C 70.644531 165.277344 71.722656 165.683594 71.875 166.226562 C 71.484375 168.289062 71.539062 170.304688 69.476562 171.65625 L 68.09375 172.339844 C 67.71875 171.304688 67.953125 169.734375 67.703125 168.652344 C 66.886719 169.980469 66.246094 171.144531 65.050781 172.265625 C 63.644531 171.808594 62.828125 170.152344 62.519531 168.78125 C 61.933594 167.1875 62.269531 165.277344 63.53125 164.121094 C 63.101562 163.28125 61.632812 163.476562 61.421875 162.285156 C 59.21875 160.847656 58 164.796875 56.574219 162.742188 C 56.113281 160.828125 56.664062 158.445312 58.050781 157.019531 C 57.742188 156.234375 56.71875 156.4375 56.109375 155.988281 C 54.722656 154.808594 52.722656 153.566406 52.824219 151.441406 C 56.617188 150.007812 61.15625 151.058594 63.914062 153.941406 "/>
<path style=" stroke:none;fill-rule:nonzero;fill:rgb(100%,100%,0%);fill-opacity:1;" d="M 65.894531 153.726562 C 65.804688 155.464844 67.066406 154.195312 68 155.25 C 67.269531 154.960938 66.734375 156.515625 66.019531 155.625 L 65.566406 156.054688 C 65.828125 156.652344 66.335938 156.730469 65.808594 157.382812 C 65.023438 157.683594 64.867188 156.699219 64.5 156.3125 C 64.4375 156.140625 64.621094 155.8125 64.332031 155.699219 C 63.886719 156.074219 63.421875 156.210938 62.808594 156.148438 C 62.644531 155.8125 62.316406 155.375 62.648438 155.117188 C 63.25 154.308594 64.179688 155.410156 64.636719 154.839844 C 64.710938 154.339844 64.269531 153.726562 64.839844 153.378906 C 65.234375 153.449219 65.734375 153.234375 65.898438 153.726562 "/>
<path style=" stroke:none;fill-rule:nonzero;fill:rgb(100%,100%,0%);fill-opacity:1;" d="M 70.585938 155.152344 C 70.632812 155.488281 70.414062 155.960938 70.855469 156.195312 C 71.425781 155.886719 72.03125 156.121094 72.359375 156.6875 C 72.355469 156.992188 72.449219 157.386719 72.050781 157.535156 L 71.164062 157.367188 C 71.226562 157.195312 70.941406 157.085938 70.832031 156.917969 C 70.441406 156.796875 70.210938 157.117188 69.917969 157.308594 C 70.136719 157.644531 70.644531 157.828125 70.523438 158.257812 C 70 158.78125 69.746094 157.808594 69.167969 158.050781 C 68.777344 157.902344 69.308594 157.085938 68.691406 156.839844 C 67.960938 156.839844 68.445312 158.042969 67.507812 157.570312 C 67.175781 157.195312 66.84375 156.6875 67.207031 156.261719 C 67.597656 156 68.261719 156.070312 68.597656 156.410156 C 69.167969 155.777344 69.226562 153.332031 70.59375 155.152344 "/>
<path style=" stroke:none;fill-rule:nonzero;fill:rgb(100%,100%,0%);fill-opacity:1;" d="M 64.742188 157.671875 C 65.121094 158.222656 64.65625 158.96875 65.144531 159.582031 C 65.90625 158.15625 66.644531 159.890625 67.554688 159.753906 C 67.832031 160.09375 67.652344 160.566406 67.703125 160.953125 C 66.578125 161.25 65.222656 161.609375 64.226562 160.707031 L 63.949219 161.027344 C 64.542969 161.578125 65.101562 162.199219 64.628906 163.121094 C 63.789062 163.304688 62.484375 163.324219 62.0625 162.457031 C 61.839844 161.738281 62.574219 161.222656 61.800781 160.644531 C 61.238281 161.339844 61.265625 162.273438 60.097656 161.640625 C 59.375 161.242188 59.160156 160.421875 59.523438 159.730469 C 60.277344 158.539062 61.59375 159.765625 62.410156 159.183594 C 62.527344 158.164062 62.148438 157.273438 63.085938 156.710938 C 63.886719 156.566406 64.257812 157.167969 64.746094 157.671875 "/>
<path style=" stroke:none;fill-rule:nonzero;fill:rgb(100%,100%,100%);fill-opacity:1;" d="M 67.929688 158.300781 C 67.554688 160.039062 66.246094 158.210938 65.632812 158.136719 C 66.449219 156.6875 66.960938 158.609375 67.929688 158.300781 "/>
<path style=" stroke:none;fill-rule:nonzero;fill:rgb(100%,100%,100%);fill-opacity:1;" d="M 72.003906 160.191406 C 71.09375 160.445312 71.234375 159.3125 70.785156 158.867188 L 71.136719 158.546875 C 71.464844 158.945312 71.71875 159.664062 72.003906 160.191406 "/>
<path style=" stroke:none;fill-rule:nonzero;fill:rgb(100%,100%,0%);fill-opacity:1;" d="M 70.777344 159.839844 C 71.039062 160.441406 70.183594 160.921875 70.910156 161.363281 C 71.140625 161.167969 71.425781 160.902344 71.546875 160.792969 C 72.167969 160.976562 72.890625 161.085938 73.324219 161.703125 C 73.789062 162.980469 72.496094 162.945312 71.765625 163.304688 L 71.039062 163.273438 C 71.210938 162.914062 70.722656 162.765625 70.601562 162.519531 C 70.269531 162.433594 69.992188 162.539062 69.800781 162.820312 C 69.964844 163.632812 70.953125 164.265625 69.933594 164.988281 C 69.070312 164.929688 67.730469 165.265625 67.808594 164.070312 C 67.484375 163.398438 68.6875 162.355469 67.398438 162.3125 C 66.976562 163.226562 66.511719 164.105469 65.40625 163.242188 L 65.542969 161.941406 C 66.597656 161.972656 67.851562 162.15625 68.328125 160.976562 C 68.628906 160.117188 67.796875 159.328125 68.542969 158.644531 C 69.621094 158.398438 70.226562 159.121094 70.777344 159.839844 "/>
<path style=" stroke:none;fill-rule:nonzero;fill:rgb(0%,0%,0%);fill-opacity:1;" d="M 70.003906 161.789062 C 70.273438 162.433594 69.542969 162.476562 69.195312 162.792969 C 68.730469 162.832031 68.40625 162.648438 68.125 162.335938 C 67.914062 161.554688 68.496094 161.476562 68.941406 161.167969 C 69.457031 160.953125 69.671875 161.554688 70.003906 161.789062 "/>
<path style=" stroke:none;fill-rule:nonzero;fill:rgb(100%,100%,100%);fill-opacity:1;" d="M 69.367188 162.210938 C 69.25 162.363281 69.089844 162.316406 68.914062 162.359375 L 68.753906 161.578125 C 69.097656 161.609375 69.550781 161.71875 69.367188 162.210938 "/>
</g>
</svg>
