<?xml version="1.0" encoding="UTF-8"?>
<svg xmlns="http://www.w3.org/2000/svg" xmlns:xlink="http://www.w3.org/1999/xlink" width="384pt" height="384pt" viewBox="0 0 384 384" version="1.1">
<defs>
<clipPath id="clip1">
  <path d="M 0 0 L 383.988281 0 L 383.988281 383.988281 L 0 383.988281 Z M 0 0 "/>
</clipPath>
<clipPath id="clip2">
  <path d="M 0 68 L 383.988281 68 L 383.988281 316 L 0 316 Z M 0 68 "/>
</clipPath>
<clipPath id="clip3">
  <path d="M 0 96 L 383.988281 96 L 383.988281 288 L 0 288 Z M 0 96 "/>
</clipPath>
<clipPath id="clip4">
  <path d="M 0 187 L 383.988281 187 L 383.988281 197 L 0 197 Z M 0 187 "/>
</clipPath>
<clipPath id="clip5">
  <path d="M 0 182 L 383.988281 182 L 383.988281 202 L 0 202 Z M 0 182 "/>
</clipPath>
<clipPath id="clip6">
  <path d="M 353 148 L 383.988281 148 L 383.988281 165 L 353 165 Z M 353 148 "/>
</clipPath>
<clipPath id="clip7">
  <path d="M 347 142 L 383.988281 142 L 383.988281 170 L 347 170 Z M 347 142 "/>
</clipPath>
<clipPath id="clip8">
  <path d="M 326 159 L 383.988281 159 L 383.988281 187 L 326 187 Z M 326 159 "/>
</clipPath>
<clipPath id="clip9">
  <path d="M 372 188 L 383.988281 188 L 383.988281 243 L 372 243 Z M 372 188 "/>
</clipPath>
<clipPath id="clip10">
  <path d="M 367 184 L 383.988281 184 L 383.988281 247 L 367 247 Z M 367 184 "/>
</clipPath>
<clipPath id="clip11">
  <path d="M 379 211 L 383.988281 211 L 383.988281 225 L 379 225 Z M 379 211 "/>
</clipPath>
</defs>
<g id="surface1">
<g clip-path="url(#clip1)" clip-rule="nonzero">
<path style=" stroke:none;fill-rule:evenodd;fill:rgb(24.313725%,36.862745%,72.54902%);fill-opacity:1;" d="M -96 0 L 479.980469 0 L 479.980469 383.988281 L -96 383.988281 Z M -96 0 "/>
</g>
<g clip-path="url(#clip2)" clip-rule="nonzero">
<path style=" stroke:none;fill-rule:evenodd;fill:rgb(100%,85.098039%,0%);fill-opacity:1;" d="M -96 68.570312 L 479.980469 68.570312 L 479.980469 315.421875 L -96 315.421875 Z M -96 68.570312 "/>
</g>
<g clip-path="url(#clip3)" clip-rule="nonzero">
<path style=" stroke:none;fill-rule:evenodd;fill:rgb(69.411765%,4.705882%,4.705882%);fill-opacity:1;" d="M -96 96 L 479.980469 96 L 479.980469 287.996094 L -96 287.996094 Z M -96 96 "/>
</g>
<g clip-path="url(#clip4)" clip-rule="nonzero">
<path style=" stroke:none;fill-rule:evenodd;fill:rgb(100%,85.098039%,0%);fill-opacity:1;" d="M -34.527344 187.882812 L 423.636719 187.882812 C 425.875 187.882812 427.691406 189.726562 427.691406 191.996094 C 427.691406 194.269531 425.875 196.113281 423.636719 196.113281 L -34.527344 196.113281 C -36.765625 196.113281 -38.582031 194.269531 -38.582031 191.996094 C -38.582031 189.726562 -36.765625 187.882812 -34.527344 187.882812 Z M -34.527344 187.882812 "/>
</g>
<g clip-path="url(#clip5)" clip-rule="nonzero">
<path style="fill:none;stroke-width:1.339;stroke-linecap:butt;stroke-linejoin:miter;stroke:rgb(0%,0%,0%);stroke-opacity:1;stroke-miterlimit:4;" d="M 79.414341 242.719013 L 671.300221 242.719013 C 674.191777 242.719013 676.538328 245.100888 676.538328 248.032815 C 676.538328 250.969788 674.191777 253.351664 671.300221 253.351664 L 79.414341 253.351664 C 76.522785 253.351664 74.176235 250.969788 74.176235 248.032815 C 74.176235 245.100888 76.522785 242.719013 79.414341 242.719013 Z M 79.414341 242.719013 " transform="matrix(0.774075,0,0,0.774075,-96,0.0000922875)"/>
</g>
<g clip-path="url(#clip6)" clip-rule="nonzero">
<path style=" stroke:none;fill-rule:evenodd;fill:rgb(100%,100%,100%);fill-opacity:1;" d="M 377.121094 148.113281 L 353.808594 156.339844 L 377.121094 164.570312 L 400.433594 156.339844 Z M 377.121094 148.113281 "/>
</g>
<g clip-path="url(#clip7)" clip-rule="nonzero">
<path style="fill:none;stroke-width:3.9139;stroke-linecap:butt;stroke-linejoin:miter;stroke:rgb(0%,0%,0%);stroke-opacity:1;stroke-miterlimit:4;" d="M -106.299008 265.750561 L -194.877216 301.175908 L -106.299008 336.618075 L -17.7208 301.175908 Z M -106.299008 265.750561 " transform="matrix(0.263186,0,0,0.232222,405.097451,86.400022)"/>
</g>
<path style="fill-rule:evenodd;fill:rgb(100%,85.098039%,0%);fill-opacity:1;stroke-width:1.25;stroke-linecap:butt;stroke-linejoin:miter;stroke:rgb(0%,0%,0%);stroke-opacity:1;stroke-miterlimit:4;" d="M 765.659629 223.230238 L 1200.86657 223.230238 C 1202.996128 223.230238 1204.721978 224.81479 1204.721978 226.772772 C 1204.721978 228.730754 1202.996128 230.315307 1200.86657 230.315307 L 765.659629 230.315307 C 763.535118 230.315307 761.809268 228.730754 761.809268 226.772772 C 761.809268 224.81479 763.535118 223.230238 765.659629 223.230238 Z M 765.659629 223.230238 " transform="matrix(0.774075,0,0,0.774075,-567.760009,-19.19929)"/>
<path style="fill:none;stroke-width:2.5;stroke-linecap:butt;stroke-linejoin:miter;stroke:rgb(0%,0%,0%);stroke-opacity:1;stroke-miterlimit:4;" d="M 1224.396857 279.922614 C 1220.864486 279.922614 1217.311929 276.380079 1217.311929 272.837545 C 1217.311929 269.29501 1220.864486 265.742383 1224.396857 265.742383 " transform="matrix(-0.387045,0,0,0.387038,830.451664,50.741483)"/>
<path style="fill:none;stroke-width:2.5;stroke-linecap:butt;stroke-linejoin:miter;stroke:rgb(0%,0%,0%);stroke-opacity:1;stroke-miterlimit:4;" d="M 1224.401185 279.922614 C 1220.858721 279.922614 1217.306164 276.380079 1217.306164 272.837545 C 1217.306164 269.29501 1220.858721 265.742383 1224.401185 265.742383 " transform="matrix(-0.387045,0,0,0.387038,827.742401,50.741483)"/>
<path style="fill:none;stroke-width:2.5;stroke-linecap:butt;stroke-linejoin:miter;stroke:rgb(0%,0%,0%);stroke-opacity:1;stroke-miterlimit:4;" d="M 1224.397274 279.920614 C 1220.864902 279.920614 1217.312346 276.378079 1217.312346 272.835545 C 1217.312346 269.29301 1220.864902 265.750475 1224.397274 265.750475 " transform="matrix(-0.387045,0,0,0.387038,824.955731,50.742257)"/>
<path style=" stroke:none;fill-rule:evenodd;fill:rgb(100%,100%,100%);fill-opacity:1;" d="M 355.175781 164.570312 L 331.863281 172.796875 L 355.175781 181.027344 L 378.488281 172.796875 Z M 355.175781 164.570312 "/>
<g clip-path="url(#clip8)" clip-rule="nonzero">
<path style="fill:none;stroke-width:3.9139;stroke-linecap:butt;stroke-linejoin:miter;stroke:rgb(0%,0%,0%);stroke-opacity:1;stroke-miterlimit:4;" d="M -106.300095 265.752742 L -194.878304 301.178088 L -106.300095 336.620256 L -17.721887 301.178088 Z M -106.300095 265.752742 " transform="matrix(0.263186,0,0,0.232222,383.152425,102.856546)"/>
</g>
<path style="fill-rule:evenodd;fill:rgb(100%,85.098039%,0%);fill-opacity:1;stroke-width:1.25;stroke-linecap:butt;stroke-linejoin:miter;stroke:rgb(0%,0%,0%);stroke-opacity:1;stroke-miterlimit:4;" d="M 765.659259 223.230892 L 1200.8662 223.230892 C 1202.995758 223.230892 1204.721608 224.815444 1204.721608 226.773426 C 1204.721608 228.731409 1202.995758 230.315961 1200.8662 230.315961 L 765.659259 230.315961 C 763.534748 230.315961 761.808898 228.731409 761.808898 226.773426 C 761.808898 224.815444 763.534748 223.230892 765.659259 223.230892 Z M 765.659259 223.230892 " transform="matrix(0.774075,0,0,0.774075,-589.705035,-2.742765)"/>
<path style="fill:none;stroke-width:2.5;stroke-linecap:butt;stroke-linejoin:miter;stroke:rgb(0%,0%,0%);stroke-opacity:1;stroke-miterlimit:4;" d="M 1224.397596 279.923922 C 1220.855133 279.923922 1217.312669 276.371295 1217.312669 272.82876 C 1217.312669 269.286226 1220.855133 265.743691 1224.397596 265.743691 " transform="matrix(-0.387045,0,0,0.387038,808.506638,67.198007)"/>
<path style="fill:none;stroke-width:2.5;stroke-linecap:butt;stroke-linejoin:miter;stroke:rgb(0%,0%,0%);stroke-opacity:1;stroke-miterlimit:4;" d="M 1224.401924 279.923922 C 1220.85946 279.923922 1217.306904 276.371295 1217.306904 272.82876 C 1217.306904 269.286226 1220.85946 265.743691 1224.401924 265.743691 " transform="matrix(-0.387045,0,0,0.387038,805.797375,67.198007)"/>
<path style="fill:none;stroke-width:2.5;stroke-linecap:butt;stroke-linejoin:miter;stroke:rgb(0%,0%,0%);stroke-opacity:1;stroke-miterlimit:4;" d="M 1224.398013 279.921922 C 1220.855549 279.921922 1217.313086 276.379388 1217.313086 272.836853 C 1217.313086 269.294318 1220.855549 265.741691 1224.398013 265.741691 " transform="matrix(-0.387045,0,0,0.387038,803.010705,67.198782)"/>
<g clip-path="url(#clip9)" clip-rule="nonzero">
<path style=" stroke:none;fill-rule:evenodd;fill:rgb(23.921569%,36.470588%,65.490196%);fill-opacity:1;" d="M 394.890625 188.726562 C 390.738281 195.921875 398.082031 186.335938 415.996094 198.382812 C 419.316406 200.617188 422.21875 206.53125 422.21875 210.628906 C 421.375 210.066406 420.75 208.808594 419.820312 207.996094 C 418.519531 209.296875 421.0625 215.269531 421.433594 218.09375 C 418.632812 216.523438 418.902344 215.78125 417.972656 213.855469 C 418.15625 216.183594 417.492188 222.597656 418.605469 225.070312 C 416.398438 224.4375 416.542969 222.660156 415.390625 222.304688 C 416.175781 225.097656 414.707031 228.140625 415.097656 231.285156 C 413.804688 230.007812 412.433594 229.007812 411.832031 228.492188 C 411.734375 229.988281 409.351562 233.921875 409.296875 235.335938 C 408.203125 234.675781 407.90625 233.644531 407.722656 232.949219 C 406.363281 234.660156 401.527344 240.972656 401.21875 242.898438 C 397.492188 239.609375 387.949219 231.59375 386.703125 227.339844 C 385.605469 229.757812 384.015625 230.570312 380.875 232.332031 C 379.632812 225.59375 374.988281 218.015625 377.472656 212.238281 C 375.714844 213.28125 374.265625 214.324219 372.507812 215.609375 C 374.171875 205.84375 382.671875 194.398438 394.890625 188.726562 Z M 394.890625 188.726562 "/>
</g>
<g clip-path="url(#clip10)" clip-rule="nonzero">
<path style="fill:none;stroke-width:1.25;stroke-linecap:butt;stroke-linejoin:miter;stroke:rgb(0%,0%,0%);stroke-opacity:1;stroke-miterlimit:4;" d="M 338.068096 -0.417888 C 332.500302 12.023029 342.347388 -4.551352 366.367993 16.278066 C 370.820133 20.141369 374.711827 30.366966 374.711827 37.45194 C 373.58046 36.47936 372.74241 34.304563 371.495811 32.899726 C 369.75162 35.148817 373.161435 45.475723 373.659027 50.358885 C 369.903516 47.643766 370.264925 46.360501 369.018326 43.030766 C 369.264503 47.056166 368.374075 58.146277 369.866851 62.421576 C 366.907488 61.327424 367.101287 58.254342 365.556132 57.639725 C 366.608932 62.468855 364.639515 67.730241 365.163296 73.167233 C 363.429581 70.958666 361.591109 69.229635 360.784486 68.338104 C 360.65354 70.924896 357.458475 77.726201 357.385146 80.171158 C 355.918559 79.029728 355.520485 77.246665 355.274308 76.044448 C 353.451549 79.002712 346.967138 89.917219 346.553351 93.246954 C 341.556479 87.560064 328.760504 73.700801 327.089642 66.345666 C 325.617817 70.526408 323.486028 71.931246 319.274827 74.977312 C 317.609203 63.326616 311.381445 50.223804 314.712693 40.234599 C 312.355678 42.037924 310.412449 43.841249 308.055434 46.063324 C 310.286742 29.178257 321.68422 9.388959 338.068096 -0.417888 Z M 338.068096 -0.417888 " transform="matrix(0.745779,0,0,0.578359,142.766543,188.968252)"/>
</g>
<g clip-path="url(#clip11)" clip-rule="nonzero">
<path style=" stroke:none;fill-rule:evenodd;fill:rgb(65.490196%,0%,0%);fill-opacity:1;" d="M 379.390625 224.367188 C 381.117188 220.917969 382.703125 219.824219 383.820312 217.605469 C 385.789062 213.703125 386.070312 210.597656 387.785156 211.054688 C 389.5 211.507812 389.5 213.105469 387.277344 216.945312 C 385.054688 220.78125 383.996094 221.601562 379.390625 224.367188 Z M 379.390625 224.367188 "/>
</g>
<path style="fill-rule:evenodd;fill:rgb(23.921569%,36.470588%,65.490196%);fill-opacity:1;stroke-width:1.25;stroke-linecap:butt;stroke-linejoin:miter;stroke:rgb(0%,0%,0%);stroke-opacity:1;stroke-miterlimit:4;" d="M 329.599524 20.703971 C 329.329299 18.038961 329.851429 17.721343 328.340001 15.716382 C 330.543022 16.7139 330.625463 19.364022 333.300233 17.48313 C 334.284951 16.932262 334.710899 16.912411 333.520077 13.954597 C 336.309349 14.093555 345.446619 17.488093 346.907666 17.567497 C 350.750357 17.761046 357.762467 13.195293 362.631098 18.808191 C 367.302784 23.924812 365.740975 29.234981 365.740975 36.321824 C 363.867721 35.34912 364.769997 34.867731 362.77766 32.336716 C 364.270768 38.530259 362.699799 49.701466 362.699799 56.267217 C 361.930345 54.684092 362.044847 55.373917 361.293713 53.731239 C 359.301376 59.731234 356.915152 60.962002 356.915152 68.048845 C 356.196078 65.269691 356.887671 65.860261 356.090736 64.396242 C 354.15336 68.947107 341.164239 72.837923 346.170272 77.42849 C 341.649728 74.560006 339.671131 74.862735 337.619253 72.277129 C 336.739877 72.897476 336.039124 74.063728 335.219289 75.666704 C 327.272841 71.70641 330.112494 63.165474 323.892738 57.458283 C 322.811838 59.850341 323.306488 59.502946 322.143146 63.398725 C 320.879043 57.9893 320.535536 54.55506 319.12029 50.579877 C 317.897407 52.783349 318.007329 51.939677 315.785988 55.269699 C 314.869971 48.684097 313.372283 47.125785 313.963114 42.768469 C 311.60437 44.569956 313.147859 43.840428 310.793695 46.063752 C 313.024197 29.180391 322.674436 16.708937 329.599524 20.703971 Z M 329.599524 20.703971 " transform="matrix(0.852877,0,0,0.78711,-299.561038,179.367759)"/>
<path style=" stroke:none;fill-rule:evenodd;fill:rgb(65.490196%,0%,0%);fill-opacity:1;" d="M 4.707031 211.175781 C 1.460938 207.945312 -0.503906 207.339844 -2.597656 205.261719 C -6.285156 201.609375 -8.066406 198.179688 -9.378906 199.394531 C -10.691406 200.609375 -9.902344 202.433594 -6.019531 205.90625 C -2.136719 209.382812 -0.785156 209.890625 4.707031 211.175781 Z M 4.707031 211.175781 "/>
<path style=" stroke:none;fill-rule:evenodd;fill:rgb(65.490196%,0%,0%);fill-opacity:1;" d="M 2.730469 223.675781 C 0.617188 220.429688 -0.933594 219.589844 -2.300781 217.5 C -4.707031 213.828125 -5.53125 210.671875 -6.898438 211.453125 C -8.261719 212.234375 -7.957031 213.882812 -5.347656 217.441406 C -2.742188 221 -1.691406 221.65625 2.730469 223.675781 Z M 2.730469 223.675781 "/>
<path style="fill-rule:evenodd;fill:rgb(100%,100%,100%);fill-opacity:1;stroke-width:1.9764;stroke-linecap:butt;stroke-linejoin:miter;stroke:rgb(0%,0%,0%);stroke-opacity:1;stroke-miterlimit:4;" d="M 637.802922 230.321359 C 584.650029 289.372013 513.776982 407.481733 372.053597 407.481733 C 248.027657 407.481733 159.449595 289.372013 106.296702 230.321359 C 159.449595 171.262294 248.027657 53.152574 372.053597 53.152574 C 513.776982 53.152574 584.650029 171.262294 637.802922 230.321359 Z M 637.802922 230.321359 " transform="matrix(0.516053,0,0,0.464445,0.0007815,85.02449)"/>
<path style=" stroke:none;fill-rule:evenodd;fill:rgb(0%,0%,0%);fill-opacity:1;" d="M 182.425781 138.332031 C 189.722656 146.539062 183.628906 149.847656 191.351562 150.386719 C 199.5 150.988281 194.882812 159.058594 201.734375 159.339844 C 206.523438 159.550781 201.253906 178.6875 205.867188 185 C 210.5625 191.582031 214.496094 186.929688 214.578125 191.683594 C 214.660156 196.601562 201.796875 196.105469 201.570312 211.257812 C 201.191406 219.992188 190.710938 220.550781 190.210938 226.167969 C 189.589844 231.453125 210.859375 234.417969 210.574219 239.152344 C 210.285156 243.867188 187.609375 243.128906 186.625 248.507812 C 186.117188 253.339844 217.773438 257.296875 220.316406 271.269531 C 215.59375 272.816406 202.15625 274.269531 191.996094 274.277344 C 128 274.328125 82.285156 219.421875 54.855469 191.996094 C 82.285156 164.566406 127.996094 109.710938 191.996094 109.710938 C 191.996094 109.710938 173 127.070312 182.425781 138.332031 Z M 182.425781 138.332031 "/>
<path style=" stroke:none;fill-rule:evenodd;fill:rgb(100%,100%,100%);fill-opacity:1;" d="M 106.054688 162.742188 L 112.707031 162.742188 L 112.707031 184.683594 L 106.054688 184.683594 Z M 106.054688 162.742188 "/>
<path style=" stroke:none;fill-rule:evenodd;fill:rgb(100%,100%,100%);fill-opacity:1;" d="M 106.054688 199.3125 L 112.707031 199.3125 L 112.707031 221.253906 L 106.054688 221.253906 Z M 106.054688 199.3125 "/>
<path style=" stroke:none;fill-rule:evenodd;fill:rgb(100%,100%,100%);fill-opacity:1;" d="M 119.355469 162.742188 L 126.003906 162.742188 L 126.003906 184.683594 L 119.355469 184.683594 Z M 119.355469 162.742188 "/>
<path style=" stroke:none;fill-rule:evenodd;fill:rgb(100%,100%,100%);fill-opacity:1;" d="M 119.355469 199.3125 L 126.003906 199.3125 L 126.003906 221.253906 L 119.355469 221.253906 Z M 119.355469 199.3125 "/>
<path style=" stroke:none;fill-rule:evenodd;fill:rgb(100%,100%,100%);fill-opacity:1;" d="M 132.652344 162.742188 L 139.300781 162.742188 L 139.300781 184.683594 L 132.652344 184.683594 Z M 132.652344 162.742188 "/>
<path style=" stroke:none;fill-rule:evenodd;fill:rgb(100%,100%,100%);fill-opacity:1;" d="M 132.652344 199.3125 L 139.300781 199.3125 L 139.300781 221.253906 L 132.652344 221.253906 Z M 132.652344 199.3125 "/>
<path style=" stroke:none;fill-rule:evenodd;fill:rgb(100%,100%,100%);fill-opacity:1;" d="M 145.953125 162.742188 L 152.601562 162.742188 L 152.601562 184.683594 L 145.953125 184.683594 Z M 145.953125 162.742188 "/>
<path style=" stroke:none;fill-rule:evenodd;fill:rgb(100%,100%,100%);fill-opacity:1;" d="M 145.953125 199.3125 L 152.601562 199.3125 L 152.601562 221.253906 L 145.953125 221.253906 Z M 145.953125 199.3125 "/>
<path style=" stroke:none;fill-rule:evenodd;fill:rgb(100%,100%,100%);fill-opacity:1;" d="M 159.25 162.742188 L 165.898438 162.742188 L 165.898438 184.683594 L 159.25 184.683594 Z M 159.25 162.742188 "/>
<path style=" stroke:none;fill-rule:evenodd;fill:rgb(100%,100%,100%);fill-opacity:1;" d="M 159.25 199.3125 L 165.898438 199.3125 L 165.898438 221.253906 L 159.25 221.253906 Z M 159.25 199.3125 "/>
<path style=" stroke:none;fill-rule:evenodd;fill:rgb(100%,100%,100%);fill-opacity:1;" d="M 172.546875 162.742188 L 179.195312 162.742188 L 179.195312 184.683594 L 172.546875 184.683594 Z M 172.546875 162.742188 "/>
<path style=" stroke:none;fill-rule:evenodd;fill:rgb(100%,100%,100%);fill-opacity:1;" d="M 172.546875 199.3125 L 179.195312 199.3125 L 179.195312 221.253906 L 172.546875 221.253906 Z M 172.546875 199.3125 "/>
<path style=" stroke:none;fill-rule:evenodd;fill:rgb(0%,0%,0%);fill-opacity:1;" d="M 206.625 162.742188 L 213.273438 162.742188 L 213.273438 184.683594 L 206.625 184.683594 Z M 206.625 162.742188 "/>
<path style=" stroke:none;fill-rule:evenodd;fill:rgb(0%,0%,0%);fill-opacity:1;" d="M 206.625 199.3125 L 213.273438 199.3125 L 213.273438 221.253906 L 206.625 221.253906 Z M 206.625 199.3125 "/>
<path style=" stroke:none;fill-rule:evenodd;fill:rgb(0%,0%,0%);fill-opacity:1;" d="M 219.921875 162.742188 L 226.570312 162.742188 L 226.570312 184.683594 L 219.921875 184.683594 Z M 219.921875 162.742188 "/>
<path style=" stroke:none;fill-rule:evenodd;fill:rgb(0%,0%,0%);fill-opacity:1;" d="M 219.921875 199.3125 L 226.570312 199.3125 L 226.570312 221.253906 L 219.921875 221.253906 Z M 219.921875 199.3125 "/>
<path style=" stroke:none;fill-rule:evenodd;fill:rgb(0%,0%,0%);fill-opacity:1;" d="M 233.21875 162.742188 L 239.867188 162.742188 L 239.867188 184.683594 L 233.21875 184.683594 Z M 233.21875 162.742188 "/>
<path style=" stroke:none;fill-rule:evenodd;fill:rgb(0%,0%,0%);fill-opacity:1;" d="M 233.21875 199.3125 L 239.867188 199.3125 L 239.867188 221.253906 L 233.21875 221.253906 Z M 233.21875 199.3125 "/>
<path style=" stroke:none;fill-rule:evenodd;fill:rgb(0%,0%,0%);fill-opacity:1;" d="M 246.519531 162.742188 L 253.167969 162.742188 L 253.167969 184.683594 L 246.519531 184.683594 Z M 246.519531 162.742188 "/>
<path style=" stroke:none;fill-rule:evenodd;fill:rgb(0%,0%,0%);fill-opacity:1;" d="M 246.519531 199.3125 L 253.167969 199.3125 L 253.167969 221.253906 L 246.519531 221.253906 Z M 246.519531 199.3125 "/>
<path style=" stroke:none;fill-rule:evenodd;fill:rgb(0%,0%,0%);fill-opacity:1;" d="M 259.816406 162.742188 L 266.464844 162.742188 L 266.464844 184.683594 L 259.816406 184.683594 Z M 259.816406 162.742188 "/>
<path style=" stroke:none;fill-rule:evenodd;fill:rgb(0%,0%,0%);fill-opacity:1;" d="M 259.816406 199.3125 L 266.464844 199.3125 L 266.464844 221.253906 L 259.816406 221.253906 Z M 259.816406 199.3125 "/>
<path style=" stroke:none;fill-rule:evenodd;fill:rgb(0%,0%,0%);fill-opacity:1;" d="M 273.113281 162.742188 L 279.761719 162.742188 L 279.761719 184.683594 L 273.113281 184.683594 Z M 273.113281 162.742188 "/>
<path style=" stroke:none;fill-rule:evenodd;fill:rgb(0%,0%,0%);fill-opacity:1;" d="M 273.113281 199.3125 L 279.761719 199.3125 L 279.761719 221.253906 L 273.113281 221.253906 Z M 273.113281 199.3125 "/>
<path style="fill-rule:evenodd;fill:rgb(23.921569%,36.470588%,65.490196%);fill-opacity:1;stroke-width:1.25;stroke-linecap:butt;stroke-linejoin:miter;stroke:rgb(0%,0%,0%);stroke-opacity:1;stroke-miterlimit:4;" d="M 338.069946 -0.416639 C 332.497229 12.024281 347.823632 -4.556999 371.849889 16.277079 C 376.300044 20.146265 382.680318 35.431202 382.680318 42.521403 C 377.56579 41.264744 368.510841 35.431202 368.510841 35.431202 C 368.510841 35.431202 379.140813 47.726615 379.140813 61.900402 C 375.383667 59.188665 373.505095 59.598733 372.256531 56.26528 C 372.256531 60.855391 375.595579 63.778776 375.595579 70.862363 C 372.88654 68.368887 370.589871 66.702161 368.293201 65.240469 C 371.838434 72.330669 361.838471 86.074546 366.84418 90.664658 C 358.092781 89.202965 349.135197 82.747708 345.595691 75.657508 C 343.717118 77.1192 343.510934 79.414256 343.436478 81.861433 C 343.711391 82.125993 330.114649 70.207577 331.363212 65.62408 C 329.541913 68.580535 329.284182 70.207577 328.866085 73.534416 C 323.871831 67.846382 319.295674 62.158348 317.629014 54.803588 C 315.4068 58.130426 315.269343 58.130426 313.047129 61.463879 C 311.386196 49.803409 311.386196 50.220091 314.71379 40.232961 C 312.354119 42.038581 310.412546 43.837587 308.052875 46.059889 C 310.286544 29.180979 321.683982 9.385298 338.069946 -0.416639 Z M 338.069946 -0.416639 " transform="matrix(0.682034,0,0,0.590604,-82.938406,124.566381)"/>
<path style=" stroke:none;fill-rule:evenodd;fill:rgb(65.490196%,0%,0%);fill-opacity:1;" d="M 138.273438 160.226562 C 138.882812 155.164062 140.207031 153.253906 140.601562 149.996094 C 141.304688 144.257812 140.46875 140.066406 142.5 140.171875 C 144.535156 140.277344 145.121094 142.394531 144.113281 148.117188 C 143.109375 153.839844 142.261719 155.230469 138.273438 160.226562 Z M 138.273438 160.226562 "/>
<path style=" stroke:none;fill-rule:evenodd;fill:rgb(65.490196%,0%,0%);fill-opacity:1;" d="M 148.882812 169.5 C 148.46875 165.226562 149.257812 163.40625 148.996094 160.65625 C 148.546875 155.8125 147.050781 152.53125 148.824219 152.230469 C 150.59375 151.929688 151.488281 153.554688 151.679688 158.441406 C 151.871094 163.332031 151.398438 164.636719 148.882812 169.5 Z M 148.882812 169.5 "/>
<path style=" stroke:none;fill-rule:evenodd;fill:rgb(65.490196%,0%,0%);fill-opacity:1;" d="M 165.445312 177.0625 C 163.644531 173.367188 162.09375 172.261719 160.933594 169.882812 C 158.878906 165.703125 158.449219 162.285156 156.867188 162.90625 C 155.28125 163.523438 155.367188 165.289062 157.65625 169.382812 C 159.945312 173.476562 160.976562 174.3125 165.445312 177.0625 Z M 165.445312 177.0625 "/>
<path style=" stroke:none;fill-rule:evenodd;fill:rgb(65.490196%,0%,0%);fill-opacity:1;" d="M 171.167969 143.953125 C 166.582031 141.539062 164.226562 141.507812 161.269531 139.957031 C 156.0625 137.238281 153.035156 134.164062 151.960938 135.855469 C 150.882812 137.546875 152.320312 139.226562 157.683594 141.703125 C 163.050781 144.175781 164.699219 144.292969 171.167969 143.953125 Z M 171.167969 143.953125 "/>
<path style=" stroke:none;fill-rule:evenodd;fill:rgb(65.490196%,0%,0%);fill-opacity:1;" d="M 172.851562 157.78125 C 169.511719 155 167.535156 154.59375 165.382812 152.804688 C 161.589844 149.667969 159.699219 146.589844 158.429688 147.835938 C 157.164062 149.085938 158.011719 150.734375 161.992188 153.691406 C 165.976562 156.644531 167.339844 157.011719 172.851562 157.78125 Z M 172.851562 157.78125 "/>
</g>
</svg>
