<?xml version="1.0" encoding="UTF-8"?>
<svg xmlns="http://www.w3.org/2000/svg" xmlns:xlink="http://www.w3.org/1999/xlink" width="384pt" height="384pt" viewBox="0 0 384 384" version="1.1">
<g id="surface1">
<rect x="0" y="0" width="384" height="384" style="fill:rgb(0%,0%,40%);fill-opacity:1;stroke:none;"/>
<path style=" stroke:none;fill-rule:evenodd;fill:rgb(0%,0%,40%);fill-opacity:1;" d="M 0 0 L 384 0 L 384 192 L 0 192 Z M 0 0 "/>
<path style=" stroke:none;fill-rule:nonzero;fill:rgb(100%,100%,100%);fill-opacity:1;" d="M 0 0 L 0 21.464844 L 341.066406 192 L 384 192 L 384 170.535156 L 42.929688 0 Z M 384 0 L 384 21.464844 L 42.929688 192 L 0 192 L 0 170.535156 L 341.066406 0 Z M 384 0 "/>
<path style=" stroke:none;fill-rule:nonzero;fill:rgb(100%,100%,100%);fill-opacity:1;" d="M 160 0 L 160 192 L 224 192 L 224 0 Z M 0 64 L 0 128 L 384 128 L 384 64 Z M 0 64 "/>
<path style=" stroke:none;fill-rule:nonzero;fill:rgb(80%,0%,0%);fill-opacity:1;" d="M 0 76.800781 L 0 115.199219 L 384 115.199219 L 384 76.800781 Z M 172.800781 0 L 172.800781 192 L 211.199219 192 L 211.199219 0 Z M 172.800781 0 "/>
<path style=" stroke:none;fill-rule:nonzero;fill:rgb(80%,0%,0%);fill-opacity:1;" d="M 0 192 L 128 128 L 156.621094 128 L 28.621094 192 Z M 0 0 L 128 64 L 99.378906 64 L 0 14.3125 Z M 227.378906 64 L 355.378906 0 L 384 0 L 256 64 Z M 384 192 L 256 128 L 284.621094 128 L 384 177.6875 Z M 384 192 "/>
<path style=" stroke:none;fill-rule:nonzero;fill:rgb(100%,100%,100%);fill-opacity:0.996078;" d="M 370.171875 105.65625 L 370.171875 193.019531 C 370.171875 264.746094 342 330.402344 258.421875 370.3125 C 174.878906 330.402344 146.703125 264.746094 146.703125 193.019531 L 146.703125 105.65625 L 370.210938 105.65625 Z M 370.171875 105.65625 "/>
<path style=" stroke:none;fill-rule:nonzero;fill:rgb(99.215686%,76.470588%,0%);fill-opacity:0.996078;" d="M 362.683594 114.558594 L 362.683594 196.046875 C 362.683594 262.945312 336.40625 324.1875 258.453125 361.410156 C 180.496094 324.183594 154.21875 262.945312 154.21875 196.046875 L 154.21875 114.558594 L 362.695312 114.558594 Z M 362.683594 114.558594 "/>
<path style="fill-rule:nonzero;fill:rgb(100%,61.960784%,23.921569%);fill-opacity:1;stroke-width:0.0625;stroke-linecap:butt;stroke-linejoin:miter;stroke:rgb(0%,0%,0%);stroke-opacity:1;stroke-miterlimit:4;" d="M 205.960382 52.847102 C 205.606638 52.582054 205.223643 52.420284 204.695312 52.40566 C 204.812312 51.111495 203.870822 50.552152 203.194411 50.316351 C 202.518001 50.081463 202.282171 49.816415 202.16517 49.287233 C 202.047255 48.757137 201.694425 48.433596 201.075601 48.257201 C 200.45769 48.080807 199.928445 47.462971 199.692615 47.168677 C 199.457699 46.874382 199.369035 46.932875 199.19262 47.433725 C 199.016204 47.93366 198.30963 48.875038 198.95679 48.904284 C 198.486959 49.287233 198.221879 49.728675 198.516209 50.316351 C 198.191715 50.581399 197.956799 50.964347 198.398294 51.111495 C 198.839789 51.258642 198.95679 51.375629 198.986954 51.493529 C 198.590249 51.493529 198.486959 52.28776 199.428449 52.464154 C 199.22187 52.494314 199.134119 53.141397 199.517114 53.141397 C 198.986954 53.141397 198.544545 53.935627 197.869049 53.935627 C 197.191724 53.935627 196.838893 54.082775 196.809643 54.377069 C 196.780393 54.671364 196.426649 55.024152 196.251147 55.1713 C 196.751143 55.229793 197.073809 55.1713 197.338889 54.965659 C 197.603969 54.759104 198.04455 54.700611 198.339794 54.936412 C 198.634124 55.1713 199.252034 55.2892 199.546364 55.229793 C 198.899204 55.671235 198.427544 56.259824 198.369044 56.819167 C 198.30963 57.37851 197.927549 58.025593 197.486054 58.201987 C 197.044559 58.378381 196.456813 58.84907 196.251147 59.408412 C 196.809643 60.791232 197.603055 61.133053 198.398294 61.496808 C 199.811444 62.144805 200.692606 62.615494 201.28218 63.262576 C 201.869926 63.909659 202.105756 63.438971 202.987832 64.556742 C 203.870822 65.675428 204.695312 67.79307 205.577388 68.146772 C 206.460378 68.49956 207.578284 68.264673 208.225444 67.145987 C 208.872604 66.028216 209.284849 54.729857 205.960382 52.847102 Z M 205.960382 52.847102 " transform="matrix(4.273476,0,0,4.273989,-670.256694,-75.594514)"/>
<path style="fill-rule:nonzero;fill:rgb(100%,57.254902%,49.803922%);fill-opacity:1;stroke-width:0.0625;stroke-linecap:butt;stroke-linejoin:miter;stroke:rgb(0%,0%,0%);stroke-opacity:1;stroke-miterlimit:4;" d="M 207.460369 48.139301 C 206.635879 49.021271 205.57556 49.904155 205.752889 51.493529 C 205.930218 53.08199 206.105719 55.671235 204.634983 56.554119 C 203.164247 57.436089 202.457672 59.672546 204.222738 60.966712 C 205.987804 62.261792 206.047219 63.850252 206.340635 65.321726 C 206.635879 66.793199 207.400954 67.969464 208.578274 66.969593 C 209.753766 67.145987 210.401841 66.675298 210.401841 65.733921 C 210.401841 64.792543 210.461255 64.262447 211.343331 63.968153 C 212.226322 63.673858 212.461237 63.379563 212.872568 62.585333 C 213.284813 61.791103 213.519728 61.438315 213.284813 60.966712 C 213.049897 60.496023 212.961233 59.525399 213.137648 58.818909 C 213.314977 58.113333 212.902732 57.730384 212.666903 57.289856 C 212.431987 56.848414 212.344236 56.465465 212.461237 55.876876 C 212.579152 55.288286 212.284822 54.906251 211.872577 54.611957 C 211.461246 54.317662 211.283917 54.023367 211.372582 53.552679 C 211.461246 53.08199 211.078252 52.787695 210.636757 52.434907 C 210.196176 52.081205 209.871681 51.610516 209.871681 50.90494 C 209.871681 50.19845 208.51886 48.550582 207.460369 48.139301 Z M 207.460369 48.139301 " transform="matrix(4.273476,0,0,4.273989,-670.256694,-75.594514)"/>
<path style="fill-rule:nonzero;fill:rgb(100%,61.960784%,88.235294%);fill-opacity:1;stroke-width:0.0625;stroke-linecap:butt;stroke-linejoin:miter;stroke:rgb(0%,0%,0%);stroke-opacity:1;stroke-miterlimit:4;" d="M 207.790347 67.351628 C 209.761079 66.851693 209.584664 63.615365 209.291248 62.261792 C 208.996004 60.908219 208.240069 58.969712 208.819588 57.437003 C 209.644078 55.259954 207.818684 53.19989 208.290343 52.376414 C 208.761088 51.552023 208.701674 51.110581 208.643173 50.846447 C 208.584673 50.581399 208.143178 50.375758 208.113928 50.934187 C 208.083763 51.493529 207.936598 51.69917 207.583768 52.051958 C 207.230938 52.40566 207.318688 53.170644 207.583768 54.023367 C 207.848848 54.877005 208.408258 56.17117 207.525268 57.878445 C 206.643192 59.584806 207.006077 60.34522 207.348852 61.14402 C 207.878098 62.379692 209.144083 66.675298 207.790347 67.351628 Z M 207.790347 67.351628 " transform="matrix(4.273476,0,0,4.273989,-670.256694,-75.594514)"/>
<path style="fill:none;stroke-width:0.0625;stroke-linecap:butt;stroke-linejoin:miter;stroke:rgb(0%,0%,0%);stroke-opacity:1;stroke-miterlimit:4;" d="M 198.960446 48.904284 C 199.180737 48.904284 199.607607 48.81563 199.607607 49.109925 " transform="matrix(4.273476,0,0,4.273989,-670.256694,-75.594514)"/>
<path style="fill:none;stroke-width:0.0625;stroke-linecap:butt;stroke-linejoin:miter;stroke:rgb(0%,0%,0%);stroke-opacity:1;stroke-miterlimit:4;" d="M 198.519865 50.316351 C 198.784945 50.124419 199.25569 50.345597 199.726436 50.065926 " transform="matrix(4.273476,0,0,4.273989,-670.256694,-75.594514)"/>
<path style="fill:none;stroke-width:0.0625;stroke-linecap:butt;stroke-linejoin:miter;stroke:rgb(0%,0%,0%);stroke-opacity:1;stroke-miterlimit:4;" d="M 198.989696 51.492616 C 199.343441 51.492616 199.814186 51.477992 200.254767 51.125204 " transform="matrix(4.273476,0,0,4.273989,-670.256694,-75.594514)"/>
<path style="fill:none;stroke-width:0.0625;stroke-linecap:butt;stroke-linejoin:miter;stroke:rgb(0%,0%,0%);stroke-opacity:1;stroke-miterlimit:4;" d="M 199.430277 52.464154 C 199.753858 52.464154 200.357143 52.258513 200.504308 51.831694 " transform="matrix(4.273476,0,0,4.273989,-670.256694,-75.594514)"/>
<path style="fill:none;stroke-width:0.0625;stroke-linecap:butt;stroke-linejoin:miter;stroke:rgb(0%,0%,0%);stroke-opacity:1;stroke-miterlimit:4;" d="M 199.519856 53.141397 C 200.152391 53.111236 200.990592 53.347038 201.107593 53.12586 " transform="matrix(4.273476,0,0,4.273989,-670.256694,-75.594514)"/>
<path style="fill:none;stroke-width:0.0625;stroke-linecap:butt;stroke-linejoin:miter;stroke:rgb(0%,0%,0%);stroke-opacity:1;stroke-miterlimit:4;" d="M 199.55002 55.229793 C 199.990601 54.818511 201.036296 54.53884 201.271211 54.112021 " transform="matrix(4.273476,0,0,4.273989,-670.256694,-75.594514)"/>
<path style="fill:none;stroke-width:0.0625;stroke-linecap:butt;stroke-linejoin:miter;stroke:rgb(0%,0%,0%);stroke-opacity:1;stroke-miterlimit:4;" d="M 200.669754 48.669397 C 201.404665 48.904284 201.101195 49.359436 201.46408 49.640021 C 202.112154 50.139957 201.52258 50.699299 202.05274 50.846447 C 202.581985 50.993594 202.572845 51.083162 202.43482 51.669924 C 202.27303 52.36179 202.934816 52.391037 202.6999 52.847102 " transform="matrix(4.273476,0,0,4.273989,-670.256694,-75.594514)"/>
<path style="fill:none;stroke-width:0.0625;stroke-linecap:butt;stroke-linejoin:miter;stroke:rgb(0%,0%,0%);stroke-opacity:1;stroke-miterlimit:4;" d="M 204.699882 52.40566 C 204.405552 52.40566 203.538101 52.435821 203.169731 53.215428 " transform="matrix(4.273476,0,0,4.273989,-670.256694,-75.594514)"/>
<path style="fill:none;stroke-width:0.0625;stroke-linecap:butt;stroke-linejoin:miter;stroke:rgb(0%,0%,0%);stroke-opacity:1;stroke-miterlimit:4;" d="M 198.420232 60.893595 C 198.759351 60.953003 198.928454 60.760157 199.022603 60.570054 C 199.125893 60.364413 199.169768 60.217266 199.478723 60.202643 C 199.787678 60.188019 200.259338 60.099365 200.361713 59.864478 C 200.465003 59.628676 200.833372 59.849854 201.142328 59.232018 C 201.451283 58.614182 201.656948 57.878445 202.47961 57.613397 " transform="matrix(4.273476,0,0,4.273989,-670.256694,-75.594514)"/>
<path style="fill-rule:nonzero;fill:rgb(0%,65.490196%,15.686275%);fill-opacity:1;stroke-width:0.0625;stroke-linecap:butt;stroke-linejoin:miter;stroke:rgb(0%,0%,0%);stroke-opacity:1;stroke-miterlimit:4;" d="M 221.760055 73.750253 C 222.092776 74.233737 221.748173 74.756522 222.313067 74.965818 C 222.974852 75.210759 222.397161 76.081762 223.177776 76.388852 C 223.869725 76.660298 223.18326 77.492914 223.930968 77.866724 C 224.600066 78.201232 223.819452 78.982667 224.711582 79.428679 C 225.603713 79.874691 224.544308 80.879132 225.21432 81.269392 C 225.883418 81.659652 224.991287 82.664093 225.771902 83.054353 C 226.55343 83.444614 225.437353 84.226049 226.162209 84.783563 C 226.887065 85.341992 225.994935 86.178265 226.719791 86.680942 C 227.444647 87.182705 226.27464 87.852637 226.998582 88.577406 C 227.557078 89.134921 226.798401 89.681468 227.221614 90.529622 C 227.501319 91.087137 226.942824 93.319024 225.380681 93.096018 C 224.823099 94.043794 222.647616 94.88098 221.867001 94.602222 C 221.086387 95.159737 218.576355 95.940258 217.292089 94.713725 C 216.009651 95.940258 213.498705 95.159737 212.71809 94.602222 C 211.936562 94.88098 209.761993 94.043794 209.204411 93.096018 C 207.642268 93.319024 207.083773 91.087137 207.362563 90.529622 C 207.786691 89.681468 207.028014 89.134921 207.585596 88.577406 C 208.310452 87.852637 207.140445 87.182705 207.865301 86.680942 C 208.590157 86.178265 207.698027 85.341992 208.422883 84.783563 C 209.147739 84.226049 208.031661 83.444614 208.81319 83.054353 C 209.593804 82.664093 208.701674 81.659652 209.370772 81.269392 C 210.040784 80.879132 208.981379 79.874691 209.872595 79.428679 C 210.76564 78.982667 209.985026 78.201232 210.654124 77.866724 C 211.401832 77.492914 210.715366 76.660298 211.407316 76.388852 C 212.187931 76.081762 211.610239 75.210759 212.272025 74.965818 C 212.84606 74.75378 212.480433 74.217286 212.842404 73.72649 C 214.503266 74.379971 219.644901 74.848832 221.760055 73.750253 Z M 221.760055 73.750253 " transform="matrix(4.273476,0,0,4.273989,-670.256694,-75.594514)"/>
<path style="fill-rule:nonzero;fill:rgb(99.215686%,76.470588%,0%);fill-opacity:0.996078;stroke-width:0.0625;stroke-linecap:butt;stroke-linejoin:miter;stroke:rgb(0%,0%,0%);stroke-opacity:1;stroke-miterlimit:4;" d="M 213.509674 76.66761 C 213.510588 76.918948 213.505103 77.167545 213.27293 77.476463 C 212.771106 78.146395 213.495963 78.480904 212.938381 79.206587 C 212.380799 79.931356 213.049897 80.377368 212.435643 80.991549 C 211.823217 81.604815 212.548074 82.163244 211.93382 82.832261 C 211.321394 83.501279 212.04625 83.948205 211.431996 84.561471 C 210.818656 85.174738 211.544427 85.84467 210.930173 86.457936 C 210.316833 87.072116 211.041689 87.852637 210.371677 88.57832 C 209.702579 89.30309 210.484107 89.860604 209.925611 90.419033 C 209.36803 90.976548 209.869853 91.534063 209.479546 91.925237 C 210.148644 91.42256 210.148644 90.642039 210.651382 90.251779 C 211.153205 89.860604 210.484107 89.30309 210.762898 89.024332 C 211.041689 88.745575 210.818656 87.57388 211.321394 87.015451 C 211.823217 86.457936 211.377152 85.341992 211.823217 84.951732 C 212.269283 84.561471 211.93382 83.389776 212.492316 82.999516 C 213.049897 82.609256 212.492316 81.660566 212.938381 81.158803 C 213.38536 80.65704 212.938381 79.875605 213.38536 79.262339 C 213.831426 78.648158 213.404556 78.091557 213.718995 77.58888 C 213.858848 77.36496 213.858848 75.747253 213.509674 76.66761 Z M 213.509674 76.66761 " transform="matrix(4.273476,0,0,4.273989,-670.256694,-75.594514)"/>
<path style="fill-rule:nonzero;fill:rgb(99.215686%,76.470588%,0%);fill-opacity:0.996078;stroke-width:0.0625;stroke-linecap:butt;stroke-linejoin:miter;stroke:rgb(0%,0%,0%);stroke-opacity:1;stroke-miterlimit:4;" d="M 215.120262 77.36496 C 214.729955 78.090643 215.399053 78.257898 214.89723 78.982667 C 214.395406 79.70835 215.17602 80.265865 214.618439 80.990635 C 214.059943 81.716318 214.89723 82.106578 214.395406 82.831348 C 213.892668 83.557031 214.618439 83.947291 214.172373 84.50572 C 213.725394 85.063235 214.506008 85.62075 213.949341 86.290681 C 213.390845 86.959699 214.172373 87.461463 213.725394 88.075643 C 213.279328 88.688909 213.892668 89.358841 213.502361 89.860604 C 213.112054 90.362368 213.781152 91.088051 213.222656 91.757069 C 212.665074 92.426087 213.335087 92.873012 212.999623 93.319024 C 213.669636 93.096018 213.419181 92.175662 213.669636 91.980075 C 213.921004 91.785402 213.586455 90.502203 213.975849 90.167695 C 214.36707 89.832272 213.725394 88.800412 214.088279 88.3544 C 214.701619 87.601298 214.172373 87.099535 214.534344 86.513687 C 214.89723 85.92784 214.39632 85.175652 214.674197 84.784477 C 215.147684 84.114546 214.463961 83.511333 214.813135 83.026935 C 215.314959 82.329584 214.716244 81.755618 215.06359 81.297725 C 215.59375 80.600374 215.007832 79.903024 215.231779 79.540182 C 215.454811 79.178254 215.816782 77.616299 215.120262 77.36496 Z M 215.120262 77.36496 " transform="matrix(4.273476,0,0,4.273989,-670.256694,-75.594514)"/>
<path style="fill-rule:nonzero;fill:rgb(99.215686%,76.470588%,0%);fill-opacity:0.996078;stroke-width:0.0625;stroke-linecap:butt;stroke-linejoin:miter;stroke:rgb(0%,0%,0%);stroke-opacity:1;stroke-miterlimit:4;" d="M 217.290261 77.973657 C 216.899954 78.946109 217.569052 79.334541 217.346019 80.11232 C 217.122986 80.890099 217.62481 81.473205 217.290261 82.314961 C 216.955712 83.157631 217.73724 83.805628 217.290261 84.906948 C 216.844195 86.009182 217.578192 86.28337 217.290261 87.369153 C 216.955712 88.633158 217.847843 89.30309 217.290261 90.195113 C 216.732679 91.088051 217.929195 91.38326 217.346019 92.314584 C 217.067228 92.761509 217.374355 93.904872 217.82042 92.538504 C 218.2674 91.171221 217.485871 91.003967 217.876179 90.446452 C 218.2674 89.888023 217.73724 88.410152 217.903601 87.629631 C 218.071789 86.848196 217.514208 85.788004 217.876179 84.951732 C 218.239064 84.114546 217.317683 83.222522 217.680568 82.496839 C 218.044367 81.772069 217.514208 80.879132 217.847843 80.293284 C 218.183306 79.70835 217.597388 78.926916 217.73724 78.592407 C 217.876179 78.257898 217.597388 77.021312 217.290261 77.973657 Z M 217.290261 77.973657 " transform="matrix(4.273476,0,0,4.273989,-670.256694,-75.594514)"/>
<path style="fill-rule:nonzero;fill:rgb(93.72549%,2.745098%,17.647059%);fill-opacity:1;stroke-width:0.0625;stroke-linecap:butt;stroke-linejoin:miter;stroke:rgb(0%,0%,0%);stroke-opacity:1;stroke-miterlimit:4;" d="M 221.470296 74.408304 C 221.470296 68.10473 220.578165 65.928594 217.28569 65.928594 C 213.995044 65.928594 213.102913 68.10473 213.102913 74.408304 Z M 221.470296 74.408304 " transform="matrix(4.273476,0,0,4.273989,-670.256694,-75.594514)"/>
<path style="fill:none;stroke-width:0.0625;stroke-linecap:butt;stroke-linejoin:miter;stroke:rgb(0%,0%,0%);stroke-opacity:1;stroke-miterlimit:4;" d="M 214.329593 73.905626 C 213.716253 74.519807 214.442023 74.965818 213.82777 75.690588 C 213.21443 76.416271 213.772011 76.806531 213.270188 77.476463 C 212.768364 78.145481 213.49322 78.47999 212.934725 79.205673 C 212.378057 79.930442 213.047155 80.376454 212.432901 80.990635 C 211.819561 81.603901 212.545331 82.16233 211.931077 82.831348 C 211.317738 83.500365 212.042594 83.947291 211.429254 84.560558 C 210.815914 85.174738 211.54077 85.843756 210.92743 86.457022 C 210.31409 87.071202 211.038947 87.851723 210.368935 88.577406 C 209.699836 89.302176 210.481365 89.85969 209.922869 90.418119 C 209.365287 90.975634 209.867111 91.533149 209.476804 91.924323 C 209.085582 92.314584 209.030738 92.858389 209.198013 93.095104 " transform="matrix(4.273476,0,0,4.273989,-670.256694,-75.594514)"/>
<path style="fill:none;stroke-width:0.0625;stroke-linecap:butt;stroke-linejoin:miter;stroke:rgb(0%,0%,0%);stroke-opacity:1;stroke-miterlimit:4;" d="M 215.499601 74.128632 C 214.942933 74.854315 215.779306 75.188824 215.276568 75.802091 C 214.774744 76.416271 215.499601 76.639277 215.110208 77.364046 C 214.7199 78.089729 215.388998 78.256984 214.887175 78.981753 C 214.385351 79.707436 215.165966 80.264951 214.608384 80.990635 C 214.049888 81.715404 214.887175 82.105664 214.385351 82.831348 C 213.882614 83.556117 214.608384 83.947291 214.162319 84.504806 C 213.715339 85.062321 214.495954 85.62075 213.939286 86.289767 C 213.38079 86.959699 214.162319 87.461463 213.715339 88.074729 C 213.269274 88.688909 213.882614 89.357927 213.492306 89.85969 C 213.101999 90.362368 213.771097 91.087137 213.212601 91.756155 C 212.65502 92.426087 213.325032 92.872098 212.989569 93.319024 C 212.65502 93.765036 212.390854 94.420345 212.710778 94.601308 " transform="matrix(4.273476,0,0,4.273989,-670.256694,-75.594514)"/>
<path style="fill:none;stroke-width:0.0625;stroke-linecap:butt;stroke-linejoin:miter;stroke:rgb(0%,0%,0%);stroke-opacity:1;stroke-miterlimit:4;" d="M 217.290261 74.798564 C 217.012384 75.965689 217.680568 77.002119 217.290261 77.973657 C 216.899954 78.946109 217.569052 79.334541 217.346019 80.11232 C 217.122986 80.890099 217.62481 81.473205 217.290261 82.314961 C 216.955712 83.157631 217.73724 83.805628 217.290261 84.906948 C 216.844195 86.009182 217.578192 86.28337 217.290261 87.369153 C 216.955712 88.633158 217.847843 89.30309 217.290261 90.195113 C 216.732679 91.088051 217.792998 91.311057 217.346019 92.314584 C 216.899954 93.319024 217.62481 93.709285 217.290261 94.713725 " transform="matrix(4.273476,0,0,4.273989,-670.256694,-75.594514)"/>
<path style="fill:none;stroke-width:0.0625;stroke-linecap:butt;stroke-linejoin:miter;stroke:rgb(0%,0%,0%);stroke-opacity:1;stroke-miterlimit:4;" d="M 220.250014 73.905626 C 220.864268 74.519807 220.137584 74.965818 220.751838 75.690588 C 221.366092 76.416271 220.807596 76.806531 221.310334 77.476463 C 221.812157 78.145481 221.087301 78.47999 221.644883 79.205673 C 222.201551 79.930442 221.533366 80.376454 222.146706 80.990635 C 222.760046 81.603901 222.03519 82.16233 222.649444 82.831348 C 223.26187 83.500365 222.537014 83.947291 223.151268 84.560558 C 223.763693 85.174738 223.038837 85.843756 223.653091 86.457022 C 224.266431 87.071202 223.540661 87.851723 224.210673 88.577406 C 224.879771 89.302176 224.099157 89.85969 224.656738 90.418119 C 225.215234 90.975634 224.713411 91.533149 225.102804 91.924323 C 225.494025 92.314584 225.549783 92.858389 225.381595 93.095104 " transform="matrix(4.273476,0,0,4.273989,-670.256694,-75.594514)"/>
<path style="fill:none;stroke-width:0.0625;stroke-linecap:butt;stroke-linejoin:miter;stroke:rgb(0%,0%,0%);stroke-opacity:1;stroke-miterlimit:4;" d="M 219.080007 74.128632 C 219.636674 74.854315 218.801216 75.188824 219.303039 75.802091 C 219.804863 76.416271 219.080007 76.639277 219.470314 77.364046 C 219.860621 78.089729 219.190609 78.256984 219.693347 78.981753 C 220.19517 79.707436 219.413642 80.264951 219.972138 80.990635 C 220.529719 81.715404 219.693347 82.105664 220.19517 82.831348 C 220.696994 83.556117 219.972138 83.947291 220.418203 84.504806 C 220.865182 85.062321 220.083654 85.62075 220.64215 86.289767 C 221.198817 86.959699 220.418203 87.461463 220.865182 88.074729 C 221.311248 88.688909 220.696994 89.357927 221.088215 89.85969 C 221.477608 90.362368 220.809424 91.087137 221.367006 91.756155 C 221.924588 92.426087 221.254576 92.872098 221.590039 93.319024 C 221.924588 93.765036 222.189668 94.420345 221.86883 94.601308 " transform="matrix(4.273476,0,0,4.273989,-670.256694,-75.594514)"/>
<path style="fill-rule:nonzero;fill:rgb(0%,0%,0%);fill-opacity:1;stroke-width:0.0625;stroke-linecap:butt;stroke-linejoin:miter;stroke:rgb(0%,0%,0%);stroke-opacity:1;stroke-miterlimit:4;" d="M 213.110226 74.408304 C 213.110226 68.10473 214.002357 65.928594 217.293003 65.928594 C 215.786618 65.928594 214.867065 67.100289 214.615696 67.881724 C 214.365242 68.662245 214.50418 68.606493 214.838729 68.299403 C 215.174192 67.993227 215.006004 68.662245 214.728127 69.025086 C 214.449336 69.387928 214.169631 70.419788 214.559938 70.084365 C 214.95116 69.749856 215.257373 70.14103 214.838729 70.725964 C 214.421 71.311811 214.058115 72.679094 214.475844 72.204749 C 214.895401 71.730404 214.977668 72.511839 214.728127 72.9021 C 214.475844 73.29236 214.50418 73.626869 214.728127 73.459614 C 214.95116 73.29236 214.922823 74.101213 214.699791 74.408304 Z M 213.110226 74.408304 " transform="matrix(4.273476,0,0,4.273989,-670.256694,-75.594514)"/>
<path style="fill-rule:nonzero;fill:rgb(0%,0%,0%);fill-opacity:1;stroke-width:0.0625;stroke-linecap:butt;stroke-linejoin:miter;stroke:rgb(0%,0%,0%);stroke-opacity:1;stroke-miterlimit:4;" d="M 220.830448 74.046376 C 220.830448 69.109171 220.217108 67.631299 218.990428 67.128622 C 218.294822 66.844381 218.274712 66.905616 218.607433 67.351628 C 218.93924 67.798554 218.888052 68.440153 218.580925 67.993227 C 218.274712 67.547215 218.173251 67.464045 218.045281 67.658718 C 217.917312 67.854305 218.401768 68.774662 218.760083 69.610934 C 219.048014 70.284522 218.861544 70.615375 218.428276 69.946357 C 217.994093 69.276425 217.994093 69.883294 218.37526 70.44812 C 218.864287 71.17289 218.848747 73.376444 218.848747 74.296801 Z M 220.830448 74.046376 " transform="matrix(4.273476,0,0,4.273989,-670.256694,-75.594514)"/>
<path style="fill-rule:nonzero;fill:rgb(93.72549%,2.745098%,17.647059%);fill-opacity:1;stroke-width:0.0625;stroke-linecap:butt;stroke-linejoin:miter;stroke:rgb(0%,0%,0%);stroke-opacity:1;stroke-miterlimit:4;" d="M 217.290261 75.32866 C 218.601035 75.32866 220.036122 75.095601 220.999551 74.720877 C 222.143964 74.276694 222.205207 73.886433 221.809415 73.388326 C 221.52971 73.038279 220.91637 73.24849 220.331366 73.505312 C 219.745449 73.763049 218.126633 73.926647 217.290261 73.926647 C 216.453888 73.926647 214.835987 73.763049 214.250069 73.505312 C 213.665065 73.24849 213.050811 73.038279 212.77202 73.388326 C 212.376229 73.886433 212.436557 74.276694 213.580971 74.720877 C 214.544399 75.095601 215.980401 75.32866 217.290261 75.32866 Z M 217.290261 75.32866 " transform="matrix(4.273476,0,0,4.273989,-670.256694,-75.594514)"/>
<path style="fill-rule:evenodd;fill:rgb(72.54902%,35.294118%,11.764706%);fill-opacity:1;stroke-width:4.375;stroke-linecap:butt;stroke-linejoin:miter;stroke:rgb(0%,0%,0%);stroke-opacity:1;stroke-miterlimit:4;" d="M 779.387063 912.584819 C 779.387063 912.584819 779.290245 1016.205601 779.415474 1091.83707 C 779.540704 1167.468539 799.23646 1196.725298 833.662355 1195.435832 C 868.11672 1194.099881 874.747426 1136.604574 868.226746 1103.335335 C 861.628576 1070.08256 814.945802 904.382509 814.945802 904.382509 Z M 779.387063 912.584819 " transform="matrix(0.05795,-0.037425,0.0354898,0.0611105,235.134502,184.091452)"/>
<path style="fill-rule:evenodd;fill:rgb(72.54902%,35.294118%,11.764706%);fill-opacity:1;stroke-width:4.375;stroke-linecap:butt;stroke-linejoin:miter;stroke:rgb(0%,0%,0%);stroke-opacity:1;stroke-miterlimit:4;" d="M 779.436209 912.605151 C 779.436209 912.605151 779.297096 1016.226068 779.409354 1091.814425 C 779.510292 1167.456105 799.202284 1196.76935 833.683285 1195.452455 C 868.108056 1194.123622 874.799914 1136.586206 868.218646 1103.369366 C 861.648699 1070.099204 814.972674 904.379407 814.972674 904.379407 Z M 779.436209 912.605151 " transform="matrix(0.066472,-0.0148823,0.0141127,0.0700974,247.122453,158.808291)"/>
<path style="fill-rule:evenodd;fill:rgb(72.54902%,35.294118%,11.764706%);fill-opacity:1;stroke-width:4.375;stroke-linecap:butt;stroke-linejoin:miter;stroke:rgb(0%,0%,0%);stroke-opacity:1;stroke-miterlimit:4;" d="M 779.425461 912.593496 C 779.425461 912.593496 779.310493 1016.219842 779.425461 1091.827282 C 779.540429 1167.489233 799.257419 1196.761904 833.690296 1195.453628 C 868.123173 1194.090841 874.79131 1136.581217 868.180657 1103.329207 C 861.627488 1070.077196 814.950533 904.36226 814.950533 904.36226 Z M 779.425461 912.593496 " transform="matrix(0.0679538,0,0,0.0716592,257.300728,146.010529)"/>
<path style="fill-rule:evenodd;fill:rgb(72.54902%,35.294118%,11.764706%);fill-opacity:1;stroke-width:5.5537;stroke-linecap:butt;stroke-linejoin:miter;stroke:rgb(0%,0%,0%);stroke-opacity:1;stroke-miterlimit:4;" d="M 779.543495 255.109857 C 939.054 253.74707 956.653881 219.677387 956.653881 219.677387 C 956.653881 219.677387 992.131537 148.812448 974.439025 131.096213 C 956.653881 113.379978 779.543495 113.379978 779.543495 113.379978 Z M 779.543495 255.109857 " transform="matrix(0.04217,0,0,0.0716592,277.400066,192.984656)"/>
<path style="fill-rule:evenodd;fill:rgb(72.54902%,35.294118%,11.764706%);fill-opacity:1;stroke-width:4.375;stroke-linecap:butt;stroke-linejoin:miter;stroke:rgb(0%,0%,0%);stroke-opacity:1;stroke-miterlimit:4;" d="M 779.540429 255.143262 C 885.828225 255.143262 903.533277 219.710792 903.533277 219.710792 C 903.533277 219.710792 939.000865 148.845853 921.238329 131.129618 C 903.533277 113.413383 779.540429 113.413383 779.540429 113.413383 Z M 779.540429 255.143262 " transform="matrix(0.0679538,0,0,0.0716592,257.300728,187.904138)"/>
<path style="fill-rule:evenodd;fill:rgb(72.54902%,35.294118%,11.764706%);fill-opacity:1;stroke-width:4.375;stroke-linecap:butt;stroke-linejoin:miter;stroke:rgb(0%,0%,0%);stroke-opacity:1;stroke-miterlimit:4;" d="M 779.540429 255.122156 C 868.123173 255.122156 921.238329 219.689686 921.238329 219.689686 C 921.238329 219.689686 956.705917 148.824746 939.000865 131.108511 C 921.238329 113.392276 779.540429 113.392276 779.540429 113.392276 Z M 779.540429 255.122156 " transform="matrix(0.0679538,0,0,0.0716592,257.300728,182.823619)"/>
<path style="fill-rule:evenodd;fill:rgb(72.54902%,35.294118%,11.764706%);fill-opacity:1;stroke-width:3.9272;stroke-linecap:butt;stroke-linejoin:miter;stroke:rgb(0%,0%,0%);stroke-opacity:1;stroke-miterlimit:4;" d="M 832.685729 113.366126 C 832.685729 113.366126 903.554585 24.784951 1027.551923 -63.796223 C 1151.54926 -152.377398 1241.270158 -220.516763 1257.852544 -205.526103 C 1257.852544 -187.809868 1151.54926 -99.228693 1062.98635 -28.363753 C 974.377121 42.501186 868.120157 148.798596 868.120157 148.798596 Z M 832.685729 113.366126 " transform="matrix(0.0843327,0,0,0.0716592,244.109389,146.157524)"/>
<path style="fill-rule:evenodd;fill:rgb(72.54902%,35.294118%,11.764706%);fill-opacity:1;stroke-width:3.9272;stroke-linecap:butt;stroke-linejoin:miter;stroke:rgb(0%,0%,0%);stroke-opacity:1;stroke-miterlimit:4;" d="M 832.698416 113.387233 C 832.698416 113.387233 902.73352 61.383269 1037.060109 -10.626412 C 1169.302321 -74.568392 1355.96996 -63.775117 1355.96996 -46.058882 C 1338.229587 -28.342647 1178.797821 -28.342647 1072.494537 24.806058 C 971.008483 75.556257 868.086524 148.819702 868.086524 148.819702 L 832.652096 113.387233 Z M 832.698416 113.387233 " transform="matrix(0.0843327,0,0,0.0716592,244.807538,151.238043)"/>
<path style="fill-rule:evenodd;fill:rgb(72.54902%,35.294118%,11.764706%);fill-opacity:1;stroke-width:3.9272;stroke-linecap:butt;stroke-linejoin:miter;stroke:rgb(0%,0%,0%);stroke-opacity:1;stroke-miterlimit:4;" d="M 832.677034 113.385617 C 832.677034 113.385617 894.374626 78.334727 1037.038728 24.804442 C 1178.776439 -28.344263 1366.926303 7.088207 1366.926303 24.804442 C 1349.232249 42.520677 1196.516813 31.727401 1090.213529 60.236912 C 980.251004 87.983261 868.157781 148.818087 868.157781 148.818087 L 832.723353 113.385617 Z M 832.677034 113.385617 " transform="matrix(0.0843327,0,0,0.0716592,244.871841,159.984252)"/>
<path style="fill-rule:evenodd;fill:rgb(72.54902%,35.294118%,11.764706%);fill-opacity:1;stroke-width:3.9272;stroke-linecap:butt;stroke-linejoin:miter;stroke:rgb(0%,0%,0%);stroke-opacity:1;stroke-miterlimit:4;" d="M 832.686164 113.387985 C 832.686164 113.387985 903.740298 42.414022 1055.158788 24.80681 C 1207.457349 7.090575 1331.454687 113.387985 1331.454687 131.10422 C 1313.760632 148.820455 1171.930282 53.098275 1065.765957 66.835171 C 953.07058 80.463044 868.074273 148.820455 868.074273 148.820455 L 832.639845 113.387985 Z M 832.686164 113.387985 " transform="matrix(0.0843327,0,0,0.0716592,245.441384,168.859083)"/>
<path style="fill-rule:evenodd;fill:rgb(72.54902%,35.294118%,11.764706%);fill-opacity:1;stroke-width:4.375;stroke-linecap:butt;stroke-linejoin:miter;stroke:rgb(0%,0%,0%);stroke-opacity:1;stroke-miterlimit:4;" d="M 779.540429 255.112677 C 939.115833 253.749889 939.000865 209.595581 939.000865 209.595581 C 939.000865 209.595581 974.410969 138.730641 956.705917 121.014406 C 939.000865 103.298171 779.540429 113.382797 779.540429 113.382797 Z M 779.540429 255.112677 " transform="matrix(0.0679538,0,0,0.0716592,257.300728,176.484454)"/>
<path style="fill-rule:evenodd;fill:rgb(72.54902%,35.294118%,11.764706%);fill-opacity:1;stroke-width:4.375;stroke-linecap:butt;stroke-linejoin:miter;stroke:rgb(0%,0%,0%);stroke-opacity:1;stroke-miterlimit:4;" d="M 779.540429 255.146082 C 939.115833 253.728783 956.705917 219.713612 956.705917 219.713612 C 956.705917 219.713612 992.116021 148.848672 974.410969 131.077926 C 956.705917 113.361691 779.540429 113.361691 779.540429 113.361691 Z M 779.540429 255.146082 " transform="matrix(0.0679538,0,0,0.0716592,257.300728,171.403936)"/>
<path style="fill-rule:evenodd;fill:rgb(72.54902%,35.294118%,11.764706%);fill-opacity:1;stroke-width:4.375;stroke-linecap:butt;stroke-linejoin:miter;stroke:rgb(0%,0%,0%);stroke-opacity:1;stroke-miterlimit:4;" d="M 779.540429 255.101275 C 939.115833 253.738488 974.410969 219.668805 974.410969 219.668805 C 974.410969 219.668805 1009.821073 148.803865 992.116021 131.08763 C 974.410969 113.371395 779.540429 113.371395 779.540429 113.371395 Z M 779.540429 255.101275 " transform="matrix(0.0679538,0,0,0.0716592,257.300728,165.055584)"/>
<path style="fill-rule:evenodd;fill:rgb(72.54902%,35.294118%,11.764706%);fill-opacity:1;stroke-width:4.375;stroke-linecap:butt;stroke-linejoin:miter;stroke:rgb(0%,0%,0%);stroke-opacity:1;stroke-miterlimit:4;" d="M 779.540429 255.11098 C 939.115833 253.748192 992.116021 219.67851 992.116021 219.67851 C 992.116021 219.67851 1009.821073 148.81357 992.116021 131.097335 C 974.410969 113.3811 779.540429 113.3811 779.540429 113.3811 Z M 779.540429 255.11098 " transform="matrix(0.0679538,0,0,0.0716592,257.300728,158.707232)"/>
<path style="fill-rule:evenodd;fill:rgb(72.54902%,35.294118%,11.764706%);fill-opacity:1;stroke-width:3.9272;stroke-linecap:butt;stroke-linejoin:miter;stroke:rgb(0%,0%,0%);stroke-opacity:1;stroke-miterlimit:4;" d="M 832.683275 113.379403 C 832.683275 113.379403 946.907195 24.798228 946.907195 -46.066712 C 946.907195 -116.931651 896.557884 -187.796591 882.245154 -223.229061 C 910.824294 -223.229061 975.440016 -116.931651 975.440016 -46.066712 C 975.440016 31.394119 868.117703 148.811873 868.117703 148.811873 Z M 832.683275 113.379403 " transform="matrix(0.0843327,0,0,0.0716592,242.465065,140.93001)"/>
<path style="fill-rule:evenodd;fill:rgb(72.54902%,35.294118%,11.764706%);fill-opacity:1;stroke-width:3.9272;stroke-linecap:butt;stroke-linejoin:miter;stroke:rgb(0%,0%,0%);stroke-opacity:1;stroke-miterlimit:4;" d="M 832.683275 113.379403 C 832.683275 113.379403 818.416865 60.230698 818.416865 -46.066712 C 818.416865 -170.080356 881.411403 -248.958485 904.061645 -276.377766 C 909.944224 -248.958485 846.949685 -152.364121 846.949685 -46.066712 C 846.949685 31.394119 868.117703 148.811873 868.117703 148.811873 Z M 832.683275 113.379403 " transform="matrix(0.0843327,0,0,0.0716592,242.465065,140.93001)"/>
<path style="fill-rule:evenodd;fill:rgb(72.54902%,35.294118%,11.764706%);fill-opacity:1;stroke-width:4.375;stroke-linecap:butt;stroke-linejoin:miter;stroke:rgb(0%,0%,0%);stroke-opacity:1;stroke-miterlimit:4;" d="M 779.540429 255.120684 C 939.115833 253.703385 992.116021 219.688214 992.116021 219.688214 C 992.116021 219.688214 992.116021 148.823275 974.410969 131.10704 C 956.705917 113.390805 779.540429 113.390805 779.540429 113.390805 Z M 779.540429 255.120684 " transform="matrix(0.0679538,0,0,0.0716592,257.300728,152.35888)"/>
<path style="fill-rule:evenodd;fill:rgb(72.54902%,35.294118%,11.764706%);fill-opacity:1;stroke-width:4.375;stroke-linecap:butt;stroke-linejoin:miter;stroke:rgb(0%,0%,0%);stroke-opacity:1;stroke-miterlimit:4;" d="M 779.540429 255.130389 C 939.115833 253.71309 974.410969 219.697919 974.410969 219.697919 C 974.410969 219.697919 974.410969 148.832979 956.705917 131.116744 C 939.000865 113.400509 779.540429 113.400509 779.540429 113.400509 Z M 779.540429 255.130389 " transform="matrix(0.0679538,0,0,0.0716592,257.300728,146.010529)"/>
<path style="fill-rule:evenodd;fill:rgb(72.54902%,35.294118%,11.764706%);fill-opacity:1;stroke-width:11.026;stroke-linecap:butt;stroke-linejoin:miter;stroke:rgb(99.215686%,76.470588%,0.392157%);stroke-opacity:1;stroke-miterlimit:4;" d="M 318.90209 1318.104486 C 373.9717 1195.780697 389.779782 981.496022 389.779782 946.063552 C 389.779782 846.25301 356.841487 360.937195 354.312194 166.494703 C 351.840385 -27.893278 478.362526 -134.681291 602.355374 -134.681291 C 708.643171 -134.681291 779.520863 -63.816352 779.520863 42.535569 L 726.405707 42.535569 C 726.405707 -28.32937 673.233067 -81.532587 602.355374 -81.532587 C 496.067578 -81.532587 414.382906 2.251577 407.484834 166.494703 C 399.896955 356.412741 428.811374 849.469188 425.189886 981.496022 C 421.625882 1113.522856 373.9717 1231.213167 318.90209 1318.104486 Z M 318.90209 1318.104486 " transform="matrix(-0.0679538,0,0,0.0716592,363.244817,146.010529)"/>
<path style="fill-rule:evenodd;fill:rgb(72.54902%,35.294118%,11.764706%);fill-opacity:1;stroke-width:4.375;stroke-linecap:butt;stroke-linejoin:miter;stroke:rgb(0%,0%,0%);stroke-opacity:1;stroke-miterlimit:4;" d="M 779.419399 912.604622 C 779.419399 912.604622 779.273559 1016.195382 779.398789 1091.826851 C 779.524018 1167.458321 799.219774 1196.715079 833.64567 1195.425614 C 868.100035 1194.089662 874.779762 1136.624377 868.210061 1103.325116 C 861.61189 1070.072342 814.978137 904.402312 814.978137 904.402312 Z M 779.419399 912.604622 " transform="matrix(-0.05795,-0.037425,-0.0354898,0.0611105,385.411044,184.091452)"/>
<path style="fill-rule:evenodd;fill:rgb(72.54902%,35.294118%,11.764706%);fill-opacity:1;stroke-width:4.375;stroke-linecap:butt;stroke-linejoin:miter;stroke:rgb(0%,0%,0%);stroke-opacity:1;stroke-miterlimit:4;" d="M 779.540429 32.887035 C 903.648245 33.05057 957.280757 135.259618 956.993337 133.188181 L 921.238329 166.549214 C 902.268631 184.265449 779.540429 184.265449 781.035011 184.156426 Z M 779.540429 32.887035 " transform="matrix(0.0679538,0,0,0.0716592,257.300728,146.010529)"/>
<path style="fill-rule:evenodd;fill:rgb(72.54902%,35.294118%,11.764706%);fill-opacity:1;stroke-width:4.375;stroke-linecap:butt;stroke-linejoin:miter;stroke:rgb(0%,0%,0%);stroke-opacity:1;stroke-miterlimit:4;" d="M 779.397295 912.596889 C 779.397295 912.596889 779.258182 1016.217807 779.426671 1091.818102 C 779.527609 1167.459782 799.219601 1196.773026 833.644372 1195.444193 C 868.125373 1194.127299 874.761001 1136.577944 868.179732 1103.361105 C 861.609785 1070.090942 814.989991 904.383083 814.989991 904.383083 Z M 779.397295 912.596889 " transform="matrix(-0.066472,-0.0148823,-0.0141127,0.0700974,373.413907,158.808291)"/>
<path style="fill-rule:evenodd;fill:rgb(72.54902%,35.294118%,11.764706%);fill-opacity:1;stroke-width:4.375;stroke-linecap:butt;stroke-linejoin:miter;stroke:rgb(0%,0%,0%);stroke-opacity:1;stroke-miterlimit:4;" d="M 779.38568 912.593496 C 779.38568 912.593496 779.270712 1016.219842 779.38568 1091.827282 C 779.558132 1167.489233 799.217638 1196.761904 833.650515 1195.453628 C 868.083392 1194.090841 874.751529 1136.581217 868.19836 1103.329207 C 861.645191 1070.077196 814.968236 904.36226 814.968236 904.36226 Z M 779.38568 912.593496 " transform="matrix(-0.0679538,0,0,0.0716592,363.235631,146.010529)"/>
<path style="fill-rule:evenodd;fill:rgb(72.54902%,35.294118%,11.764706%);fill-opacity:1;stroke-width:5.5537;stroke-linecap:butt;stroke-linejoin:miter;stroke:rgb(0%,0%,0%);stroke-opacity:1;stroke-miterlimit:4;" d="M 779.572022 255.109857 C 939.082527 253.74707 956.682408 219.677387 956.682408 219.677387 C 956.682408 219.677387 992.160064 148.812448 974.374921 131.096213 C 956.682408 113.379978 779.572022 113.379978 779.572022 113.379978 Z M 779.572022 255.109857 " transform="matrix(-0.04217,0,0,0.0716592,343.136293,192.984656)"/>
<path style="fill-rule:evenodd;fill:rgb(72.54902%,35.294118%,11.764706%);fill-opacity:1;stroke-width:4.375;stroke-linecap:butt;stroke-linejoin:miter;stroke:rgb(0%,0%,0%);stroke-opacity:1;stroke-miterlimit:4;" d="M 779.558132 255.143262 C 885.845928 255.143262 903.55098 219.710792 903.55098 219.710792 C 903.55098 219.710792 938.961084 148.845853 921.256032 131.129618 C 903.55098 113.413383 779.558132 113.413383 779.558132 113.413383 Z M 779.558132 255.143262 " transform="matrix(-0.0679538,0,0,0.0716592,363.235631,187.904138)"/>
<path style="fill-rule:evenodd;fill:rgb(72.54902%,35.294118%,11.764706%);fill-opacity:1;stroke-width:4.375;stroke-linecap:butt;stroke-linejoin:miter;stroke:rgb(0%,0%,0%);stroke-opacity:1;stroke-miterlimit:4;" d="M 779.558132 255.122156 C 868.140876 255.122156 921.256032 219.689686 921.256032 219.689686 C 921.256032 219.689686 956.666136 148.824746 938.961084 131.108511 C 921.256032 113.392276 779.500648 113.392276 779.500648 113.392276 L 779.500648 255.122156 Z M 779.558132 255.122156 " transform="matrix(-0.0679538,0,0,0.0716592,363.235631,182.823619)"/>
<path style="fill-rule:evenodd;fill:rgb(72.54902%,35.294118%,11.764706%);fill-opacity:1;stroke-width:3.9272;stroke-linecap:butt;stroke-linejoin:miter;stroke:rgb(0%,0%,0%);stroke-opacity:1;stroke-miterlimit:4;" d="M 832.699994 113.366126 C 832.699994 113.366126 903.56885 24.784951 1027.566187 -63.796223 C 1151.563525 -152.377398 1241.284423 -220.516763 1257.866809 -205.526103 C 1257.866809 -187.809868 1151.563525 -99.228693 1063.000615 -28.363753 C 974.391386 42.501186 868.088102 148.798596 868.088102 148.798596 L 832.653674 113.366126 Z M 832.699994 113.366126 " transform="matrix(-0.0843327,0,0,0.0716592,376.42697,146.157524)"/>
<path style="fill-rule:evenodd;fill:rgb(72.54902%,35.294118%,11.764706%);fill-opacity:1;stroke-width:3.9272;stroke-linecap:butt;stroke-linejoin:miter;stroke:rgb(0%,0%,0%);stroke-opacity:1;stroke-miterlimit:4;" d="M 832.68265 113.387233 C 832.68265 113.387233 902.717754 61.383269 1037.044343 -10.626412 C 1169.286555 -74.568392 1355.954194 -63.775117 1355.954194 -46.058882 C 1338.26014 -28.342647 1178.782055 -28.342647 1072.478771 24.806058 C 970.992717 75.556257 868.117077 148.819702 868.117077 148.819702 Z M 832.68265 113.387233 " transform="matrix(-0.0843327,0,0,0.0716592,375.738008,151.238043)"/>
<path style="fill-rule:evenodd;fill:rgb(72.54902%,35.294118%,11.764706%);fill-opacity:1;stroke-width:3.9272;stroke-linecap:butt;stroke-linejoin:miter;stroke:rgb(0%,0%,0%);stroke-opacity:1;stroke-miterlimit:4;" d="M 832.661268 113.385617 C 832.661268 113.385617 894.35886 78.334727 1037.069281 24.804442 C 1178.760673 -28.344263 1366.910537 7.088207 1366.910537 24.804442 C 1349.216483 42.520677 1196.547366 31.727401 1090.244083 60.236912 C 980.235238 87.983261 868.142015 148.818087 868.142015 148.818087 L 832.707587 113.385617 Z M 832.661268 113.385617 " transform="matrix(-0.0843327,0,0,0.0716592,375.673704,159.984252)"/>
<path style="fill-rule:evenodd;fill:rgb(72.54902%,35.294118%,11.764706%);fill-opacity:1;stroke-width:3.9272;stroke-linecap:butt;stroke-linejoin:miter;stroke:rgb(0%,0%,0%);stroke-opacity:1;stroke-miterlimit:4;" d="M 832.670398 113.387985 C 832.670398 113.387985 903.770852 42.414022 1055.143022 24.80681 C 1207.441583 7.090575 1331.43892 113.387985 1331.43892 131.10422 C 1313.744866 148.820455 1171.960835 53.098275 1065.750191 66.835171 C 953.101134 80.463044 868.058507 148.820455 868.058507 148.820455 L 832.624079 113.387985 Z M 832.670398 113.387985 " transform="matrix(-0.0843327,0,0,0.0716592,375.104162,168.859083)"/>
<path style="fill-rule:evenodd;fill:rgb(72.54902%,35.294118%,11.764706%);fill-opacity:1;stroke-width:4.375;stroke-linecap:butt;stroke-linejoin:miter;stroke:rgb(0%,0%,0%);stroke-opacity:1;stroke-miterlimit:4;" d="M 779.558132 255.112677 C 939.076052 253.749889 938.961084 209.595581 938.961084 209.595581 C 938.961084 209.595581 974.428672 138.730641 956.72362 121.014406 C 938.961084 103.298171 779.558132 113.382797 779.558132 113.382797 Z M 779.558132 255.112677 " transform="matrix(-0.0679538,0,0,0.0716592,363.235631,176.484454)"/>
<path style="fill-rule:evenodd;fill:rgb(72.54902%,35.294118%,11.764706%);fill-opacity:1;stroke-width:4.375;stroke-linecap:butt;stroke-linejoin:miter;stroke:rgb(0%,0%,0%);stroke-opacity:1;stroke-miterlimit:4;" d="M 779.558132 255.146082 C 939.076052 253.728783 956.666136 219.713612 956.666136 219.713612 C 956.666136 219.713612 992.133724 148.848672 974.428672 131.077926 C 956.666136 113.361691 779.500648 113.361691 779.500648 113.361691 L 779.500648 255.09157 Z M 779.558132 255.146082 " transform="matrix(-0.0679538,0,0,0.0716592,363.235631,171.403936)"/>
<path style="fill-rule:evenodd;fill:rgb(72.54902%,35.294118%,11.764706%);fill-opacity:1;stroke-width:4.375;stroke-linecap:butt;stroke-linejoin:miter;stroke:rgb(0%,0%,0%);stroke-opacity:1;stroke-miterlimit:4;" d="M 779.558132 255.101275 C 939.076052 253.738488 974.428672 219.668805 974.428672 219.668805 C 974.428672 219.668805 1009.838776 148.803865 992.133724 131.08763 C 974.428672 113.371395 779.500648 113.371395 779.500648 113.371395 L 779.500648 255.101275 Z M 779.558132 255.101275 " transform="matrix(-0.0679538,0,0,0.0716592,363.235631,165.055584)"/>
<path style="fill-rule:evenodd;fill:rgb(72.54902%,35.294118%,11.764706%);fill-opacity:1;stroke-width:4.375;stroke-linecap:butt;stroke-linejoin:miter;stroke:rgb(0%,0%,0%);stroke-opacity:1;stroke-miterlimit:4;" d="M 779.558132 255.11098 C 939.076052 253.748192 992.133724 219.67851 992.133724 219.67851 C 992.133724 219.67851 1009.838776 148.81357 992.133724 131.097335 C 974.428672 113.3811 779.558132 113.3811 779.558132 113.3811 Z M 779.558132 255.11098 " transform="matrix(-0.0679538,0,0,0.0716592,363.235631,158.707232)"/>
<path style="fill-rule:evenodd;fill:rgb(72.54902%,35.294118%,11.764706%);fill-opacity:1;stroke-width:3.9272;stroke-linecap:butt;stroke-linejoin:miter;stroke:rgb(0%,0%,0%);stroke-opacity:1;stroke-miterlimit:4;" d="M 832.667509 113.379403 C 832.667509 113.379403 946.891429 24.798228 946.891429 -46.066712 C 946.891429 -116.931651 896.542118 -187.796591 882.275708 -223.229061 C 910.808528 -223.229061 975.42425 -116.931651 975.42425 -46.066712 C 975.42425 31.394119 868.101937 148.811873 868.101937 148.811873 Z M 832.667509 113.379403 " transform="matrix(-0.0843327,0,0,0.0716592,378.080481,140.93001)"/>
<path style="fill-rule:evenodd;fill:rgb(72.54902%,35.294118%,11.764706%);fill-opacity:1;stroke-width:3.9272;stroke-linecap:butt;stroke-linejoin:miter;stroke:rgb(0%,0%,0%);stroke-opacity:1;stroke-miterlimit:4;" d="M 832.667509 113.379403 C 832.667509 113.379403 818.401099 60.230698 818.401099 -46.066712 C 818.401099 -170.080356 881.395637 -248.958485 904.045879 -276.377766 C 909.974777 -248.958485 846.933919 -152.364121 846.933919 -46.066712 C 846.933919 31.394119 868.101937 148.811873 868.101937 148.811873 Z M 832.667509 113.379403 " transform="matrix(-0.0843327,0,0,0.0716592,378.080481,140.93001)"/>
<path style="fill-rule:evenodd;fill:rgb(72.54902%,35.294118%,11.764706%);fill-opacity:1;stroke-width:4.375;stroke-linecap:butt;stroke-linejoin:miter;stroke:rgb(0%,0%,0%);stroke-opacity:1;stroke-miterlimit:4;" d="M 779.558132 255.120684 C 939.076052 253.703385 992.133724 219.688214 992.133724 219.688214 C 992.133724 219.688214 992.133724 148.823275 974.428672 131.10704 C 956.72362 113.390805 779.558132 113.390805 779.558132 113.390805 Z M 779.558132 255.120684 " transform="matrix(-0.0679538,0,0,0.0716592,363.235631,152.35888)"/>
<path style="fill-rule:evenodd;fill:rgb(72.54902%,35.294118%,11.764706%);fill-opacity:1;stroke-width:4.375;stroke-linecap:butt;stroke-linejoin:miter;stroke:rgb(0%,0%,0%);stroke-opacity:1;stroke-miterlimit:4;" d="M 779.558132 255.130389 C 939.076052 253.71309 974.428672 219.697919 974.428672 219.697919 C 974.428672 219.697919 974.428672 148.832979 956.666136 131.116744 C 938.961084 113.400509 779.558132 113.400509 779.558132 113.400509 Z M 779.558132 255.130389 " transform="matrix(-0.0679538,0,0,0.0716592,363.235631,146.010529)"/>
<path style="fill-rule:evenodd;fill:rgb(72.54902%,35.294118%,11.764706%);fill-opacity:1;stroke-width:11.026;stroke-linecap:butt;stroke-linejoin:miter;stroke:rgb(99.215686%,76.470588%,0.392157%);stroke-opacity:1;stroke-miterlimit:4;" d="M 318.884387 1318.104486 C 373.953997 1195.780697 389.762079 981.496022 389.762079 946.063552 C 389.762079 846.25301 356.823784 360.937195 354.351975 166.494703 C 351.822682 -27.893278 478.344823 -134.681291 602.337671 -134.681291 C 708.682952 -134.681291 779.560644 -63.816352 779.560644 42.535569 L 726.388004 42.535569 C 726.388004 -28.32937 673.215364 -81.532587 602.337671 -81.532587 C 496.049875 -81.532587 414.365203 2.251577 407.467131 166.494703 C 399.879252 356.412741 428.793671 849.469188 425.172183 981.496022 C 421.608179 1113.522856 373.953997 1231.213167 318.884387 1318.104486 Z M 318.884387 1318.104486 " transform="matrix(0.0679538,0,0,0.0716592,257.291542,146.010529)"/>
<path style="fill-rule:evenodd;fill:rgb(72.54902%,35.294118%,11.764706%);fill-opacity:1;stroke-width:4.375;stroke-linecap:butt;stroke-linejoin:miter;stroke:rgb(0%,0%,0%);stroke-opacity:1;stroke-miterlimit:4;" d="M 779.558132 32.887035 C 903.665948 33.05057 957.29846 135.259618 957.01104 133.188181 L 921.256032 166.549214 C 902.286334 184.265449 779.500648 184.265449 781.052714 184.156426 L 779.500648 32.887035 Z M 779.558132 32.887035 " transform="matrix(-0.0679538,0,0,0.0716592,363.235631,146.010529)"/>
</g>
</svg>
