<?xml version="1.0" encoding="UTF-8"?>
<svg xmlns="http://www.w3.org/2000/svg" xmlns:xlink="http://www.w3.org/1999/xlink" width="384pt" height="384pt" viewBox="0 0 384 384" version="1.1">
<defs>
<clipPath id="clip1">
  <path d="M 0.00390625 0 L 384 0 L 384 384 L 0.00390625 384 Z M 0.00390625 0 "/>
</clipPath>
<clipPath id="clip2">
  <path d="M 0.00390625 279 L 384 279 L 384 384 L 0.00390625 384 Z M 0.00390625 279 "/>
</clipPath>
<clipPath id="clip3">
  <path d="M 0.00390625 0 L 384 0 L 384 105 L 0.00390625 105 Z M 0.00390625 0 "/>
</clipPath>
</defs>
<g id="surface1">
<g clip-path="url(#clip1)" clip-rule="nonzero">
<rect x="0" y="0" width="384" height="384" style="fill:rgb(100%,100%,100%);fill-opacity:1;stroke:none;"/>
</g>
<g clip-path="url(#clip2)" clip-rule="nonzero">
<path style=" stroke:none;fill-rule:evenodd;fill:rgb(13.72549%,62.352941%,25.098039%);fill-opacity:1;" d="M -192 279.332031 L 574.964844 279.332031 L 574.964844 383.675781 L -192 383.675781 Z M -192 279.332031 "/>
</g>
<g clip-path="url(#clip3)" clip-rule="nonzero">
<path style=" stroke:none;fill-rule:evenodd;fill:rgb(80.392157%,9.019608%,21.960784%);fill-opacity:1;" d="M -192 0 L 574.964844 0 L 574.964844 104.34375 L -192 104.34375 Z M -192 0 "/>
</g>
<path style=" stroke:none;fill-rule:evenodd;fill:rgb(100%,100%,0%);fill-opacity:1;" d="M 119.910156 159.195312 L 122.667969 168.28125 L 131.605469 168.082031 L 124.191406 173.636719 L 127.136719 182.46875 L 119.800781 176.8125 L 112.679688 182.46875 L 115.558594 173.417969 L 108.214844 168.082031 L 117.328125 168.144531 Z M 119.910156 159.195312 "/>
<path style=" stroke:none;fill-rule:evenodd;fill:rgb(100%,100%,0%);fill-opacity:1;" d="M 111.027344 198.140625 L 113.785156 207.230469 L 122.722656 207.027344 L 115.308594 212.582031 L 118.253906 221.414062 L 110.917969 215.761719 L 103.800781 221.414062 L 106.675781 212.363281 L 99.332031 207.027344 L 108.445312 207.09375 Z M 111.027344 198.140625 "/>
<path style=" stroke:none;fill-rule:evenodd;fill:rgb(100%,100%,0%);fill-opacity:1;" d="M 149.972656 127.421875 L 152.734375 136.511719 L 161.667969 136.308594 L 154.253906 141.863281 L 157.199219 150.695312 L 149.863281 145.042969 L 142.746094 150.695312 L 145.621094 141.648438 L 138.277344 136.308594 L 147.390625 136.375 Z M 149.972656 127.421875 "/>
<path style=" stroke:none;fill-rule:evenodd;fill:rgb(100%,100%,0%);fill-opacity:1;" d="M 190.453125 116.832031 L 193.214844 125.921875 L 202.148438 125.71875 L 194.738281 131.273438 L 197.683594 140.105469 L 190.347656 134.453125 L 183.226562 140.105469 L 186.101562 131.054688 L 178.757812 125.71875 L 187.871094 125.785156 Z M 190.453125 116.832031 "/>
<path style=" stroke:none;fill-rule:evenodd;fill:rgb(100%,100%,0%);fill-opacity:1;" d="M 231.285156 127.421875 L 234.046875 136.511719 L 242.980469 136.308594 L 235.566406 141.863281 L 238.511719 150.695312 L 231.175781 145.042969 L 224.058594 150.695312 L 226.933594 141.648438 L 219.589844 136.308594 L 228.703125 136.375 Z M 231.285156 127.421875 "/>
<path style=" stroke:none;fill-rule:evenodd;fill:rgb(100%,100%,0%);fill-opacity:1;" d="M 261.347656 159.363281 L 264.109375 168.453125 L 273.042969 168.25 L 265.628906 173.808594 L 268.574219 182.636719 L 261.238281 176.984375 L 254.121094 182.636719 L 256.996094 173.589844 L 249.652344 168.25 L 258.765625 168.316406 Z M 261.347656 159.363281 "/>
<path style=" stroke:none;fill-rule:evenodd;fill:rgb(100%,100%,0%);fill-opacity:1;" d="M 270.058594 198.140625 L 272.820312 207.230469 L 281.757812 207.027344 L 274.34375 212.582031 L 277.289062 221.414062 L 269.953125 215.761719 L 262.832031 221.414062 L 265.707031 212.363281 L 258.363281 207.027344 L 267.476562 207.09375 Z M 270.058594 198.140625 "/>
<path style=" stroke:none;fill-rule:evenodd;fill:rgb(100%,100%,0%);fill-opacity:1;" d="M 206.042969 176.894531 C 206.042969 183.347656 199.109375 188.578125 190.550781 188.578125 C 181.996094 188.578125 175.0625 183.347656 175.0625 176.894531 C 175.0625 170.441406 181.996094 165.207031 190.550781 165.207031 C 199.109375 165.207031 206.042969 170.441406 206.042969 176.894531 Z M 206.042969 176.894531 "/>
<path style=" stroke:none;fill-rule:evenodd;fill:rgb(100%,100%,0%);fill-opacity:1;" d="M 186.085938 185.140625 L 194.933594 185.140625 L 194.933594 226.328125 L 186.085938 226.328125 Z M 186.085938 185.140625 "/>
<path style=" stroke:none;fill-rule:evenodd;fill:rgb(100%,100%,0%);fill-opacity:1;" d="M 268.195312 223.21875 C 264.347656 231.390625 259.164062 234.289062 250.707031 234.0625 C 235.90625 234.414062 232.5625 223.542969 230.632812 218.742188 C 225.398438 225.636719 222.425781 228.378906 213.742188 228.210938 C 201.367188 228.488281 195.121094 221.445312 190.507812 208.128906 C 185.894531 221.359375 179.648438 228.402344 167.273438 228.128906 C 158.589844 228.292969 155.617188 225.550781 150.382812 218.65625 C 148.453125 223.457031 145.109375 234.328125 130.308594 233.976562 C 121.851562 234.203125 116.667969 231.304688 113.203125 223.019531 C 117.226562 234.589844 121.210938 241.0625 133.566406 241.46875 C 144.757812 241.601562 149.882812 235.121094 152.304688 230.6875 C 160.367188 234.972656 161.195312 235.921875 172.625 235.652344 C 181.160156 235.378906 186.058594 229.804688 190.476562 224.5 C 194.890625 229.804688 199.792969 235.378906 208.324219 235.652344 C 219.753906 235.921875 220.582031 234.972656 228.644531 230.6875 C 231.070312 235.121094 236.191406 241.601562 247.382812 241.46875 C 259.738281 241.0625 263.722656 234.589844 268.195312 223.21875 Z M 268.195312 223.21875 "/>
<path style=" stroke:none;fill-rule:evenodd;fill:rgb(100%,100%,0%);fill-opacity:1;" d="M 153.132812 235.140625 L 157.171875 240.734375 L 164.917969 240.507812 L 158.9375 247.28125 L 147.238281 247.582031 L 143.578125 242.679688 L 150.335938 241.585938 L 153.175781 235.15625 "/>
<path style=" stroke:none;fill-rule:evenodd;fill:rgb(100%,100%,0%);fill-opacity:1;" d="M 227.730469 235.140625 L 223.691406 240.734375 L 215.945312 240.507812 L 221.921875 247.28125 L 233.625 247.582031 L 237.285156 242.679688 L 230.527344 241.585938 L 227.6875 235.15625 "/>
<path style=" stroke:none;fill-rule:evenodd;fill:rgb(100%,100%,0%);fill-opacity:1;" d="M 180.777344 238.742188 C 180.777344 238.710938 186.089844 238.769531 186.089844 238.769531 L 190.558594 235.207031 L 194.921875 238.726562 L 200.191406 238.800781 L 195.449219 245.808594 L 185.484375 245.808594 Z M 180.777344 238.742188 "/>
<path style=" stroke:none;fill-rule:evenodd;fill:rgb(100%,100%,0%);fill-opacity:1;" d="M 248.003906 263.6875 C 227.34375 259.421875 213.511719 257.320312 190.484375 257.320312 C 167.453125 257.320312 153.625 259.421875 133.089844 263.636719 L 133.0625 254.726562 C 153.625 250.472656 167.453125 248.371094 190.484375 248.371094 C 213.511719 248.371094 227.34375 250.472656 247.902344 254.726562 Z M 248.003906 263.6875 "/>
<path style=" stroke:none;fill-rule:evenodd;fill:rgb(100%,100%,100%);fill-opacity:1;" d="M 198.617188 176.929688 C 198.617188 179.464844 194.992188 181.519531 190.523438 181.519531 C 186.054688 181.519531 182.433594 179.464844 182.433594 176.929688 C 182.433594 174.394531 186.054688 172.339844 190.523438 172.339844 C 194.992188 172.339844 198.617188 174.394531 198.617188 176.929688 Z M 198.617188 176.929688 "/>
</g>
</svg>
