<?xml version="1.0" encoding="UTF-8"?>
<svg xmlns="http://www.w3.org/2000/svg" xmlns:xlink="http://www.w3.org/1999/xlink" width="384pt" height="384pt" viewBox="0 0 384 384" version="1.1">
<g id="surface1">
<rect x="0" y="0" width="384" height="384" style="fill:rgb(0%,0%,40%);fill-opacity:1;stroke:none;"/>
<path style=" stroke:none;fill-rule:nonzero;fill:rgb(100%,100%,100%);fill-opacity:1;" d="M 0 0 L 0 21.464844 L 341.070312 192 L 384 192 L 384 170.535156 L 42.929688 0 Z M 384 0 L 384 21.464844 L 42.929688 192 L 0 192 L 0 170.535156 L 341.070312 0 Z M 384 0 "/>
<path style=" stroke:none;fill-rule:nonzero;fill:rgb(100%,100%,100%);fill-opacity:1;" d="M 159.996094 0 L 159.996094 192 L 223.996094 192 L 223.996094 0 Z M 0 64 L 0 128 L 384 128 L 384 64 Z M 0 64 "/>
<path style=" stroke:none;fill-rule:nonzero;fill:rgb(80%,0%,0%);fill-opacity:1;" d="M 0 76.800781 L 0 115.199219 L 384 115.199219 L 384 76.800781 Z M 172.800781 0 L 172.800781 192 L 211.199219 192 L 211.199219 0 Z M 172.800781 0 "/>
<path style=" stroke:none;fill-rule:nonzero;fill:rgb(80%,0%,0%);fill-opacity:1;" d="M 0 192 L 128.003906 128 L 156.625 128 L 28.621094 191.996094 L 0 191.996094 Z M 0 0 L 128.003906 64 L 99.382812 64 L 0 14.3125 Z M 227.378906 64 L 355.378906 0 L 384 0 L 255.996094 64 L 227.375 64 Z M 384 192.003906 L 255.996094 128.003906 L 284.617188 128.003906 L 384 177.691406 Z M 384 192.003906 "/>
<path style=" stroke:none;fill-rule:nonzero;fill:rgb(100%,100%,100%);fill-opacity:1;" d="M 267.058594 168.367188 L 271.054688 180.667969 L 283.988281 180.667969 L 273.523438 188.269531 L 277.519531 200.570312 L 267.058594 192.976562 L 256.59375 200.578125 L 260.589844 188.277344 L 250.128906 180.675781 L 263.0625 180.675781 Z M 267.058594 168.367188 "/>
<path style=" stroke:none;fill-rule:nonzero;fill:rgb(80%,0%,0%);fill-opacity:1;" d="M 267.058594 172.148438 L 270.203125 181.835938 L 280.390625 181.835938 L 272.148438 187.824219 L 275.296875 197.511719 L 267.058594 191.523438 L 258.816406 197.511719 L 261.964844 187.820312 L 253.722656 181.835938 L 263.910156 181.835938 Z M 267.058594 172.148438 "/>
<path style=" stroke:none;fill-rule:nonzero;fill:rgb(100%,100%,100%);fill-opacity:1;" d="M 205.4375 230.367188 L 209.433594 242.667969 L 222.367188 242.667969 L 211.90625 250.269531 L 215.902344 262.570312 L 205.4375 254.972656 L 194.976562 262.574219 L 198.972656 250.277344 L 188.507812 242.671875 L 201.441406 242.671875 Z M 205.4375 230.367188 "/>
<path style=" stroke:none;fill-rule:nonzero;fill:rgb(80%,0%,0%);fill-opacity:1;" d="M 205.4375 234.148438 L 208.585938 243.835938 L 218.773438 243.835938 L 210.53125 249.824219 L 213.679688 259.511719 L 205.4375 253.523438 L 197.199219 259.511719 L 200.34375 249.820312 L 192.105469 243.832031 L 202.292969 243.832031 Z M 205.4375 234.148438 "/>
<path style=" stroke:none;fill-rule:nonzero;fill:rgb(100%,100%,100%);fill-opacity:1;" d="M 319.875 217.183594 L 323.21875 227.480469 L 334.042969 227.480469 L 325.285156 233.84375 L 328.632812 244.140625 L 319.867188 237.773438 L 311.109375 244.136719 L 314.453125 233.839844 L 305.695312 227.476562 L 316.519531 227.476562 Z M 319.875 217.183594 "/>
<path style=" stroke:none;fill-rule:nonzero;fill:rgb(80%,0%,0%);fill-opacity:1;" d="M 319.875 220.398438 L 322.496094 228.472656 L 330.984375 228.472656 L 324.117188 233.460938 L 326.742188 241.535156 L 319.875 236.546875 L 313.003906 241.535156 L 315.628906 233.464844 L 308.761719 228.472656 L 317.25 228.472656 Z M 319.875 220.398438 "/>
<path style=" stroke:none;fill-rule:evenodd;fill:rgb(100%,100%,100%);fill-opacity:1;" d="M 267.058594 326.605469 L 271.453125 340.128906 L 285.675781 340.128906 L 274.167969 348.488281 L 278.5625 362.015625 L 267.058594 353.648438 L 255.550781 362.007812 L 259.945312 348.484375 L 248.441406 340.125 L 262.664062 340.125 Z M 267.058594 326.605469 "/>
<path style=" stroke:none;fill-rule:evenodd;fill:rgb(80%,0%,0%);fill-opacity:1;" d="M 267.058594 329.824219 L 270.730469 341.125 L 282.617188 341.125 L 273 348.113281 L 276.671875 359.414062 L 267.058594 352.429688 L 257.441406 359.414062 L 261.117188 348.113281 L 251.5 341.128906 L 263.386719 341.128906 Z M 267.058594 329.824219 "/>
</g>
</svg>
