<?xml version="1.0" encoding="UTF-8"?>
<svg xmlns="http://www.w3.org/2000/svg" xmlns:xlink="http://www.w3.org/1999/xlink" width="384pt" height="384pt" viewBox="0 0 384 384" version="1.1">
<defs>
<clipPath id="clip1">
  <path d="M 0 0 L 383.988281 0 L 383.988281 383.988281 L 0 383.988281 Z M 0 0 "/>
</clipPath>
<clipPath id="clip2">
  <path d="M 0 0 L 256 0 L 256 383.988281 L 0 383.988281 Z M 0 0 "/>
</clipPath>
</defs>
<g id="surface1">
<g clip-path="url(#clip1)" clip-rule="nonzero">
<path style=" stroke:none;fill-rule:evenodd;fill:rgb(79.607843%,0%,5.882353%);fill-opacity:1;" d="M 0 0 L 773.355469 0 L 773.355469 383.988281 L 0 383.988281 Z M 0 0 "/>
<path style=" stroke:none;fill-rule:evenodd;fill:rgb(97.254902%,75.294118%,4.705882%);fill-opacity:1;" d="M 0 0 C 2.425781 0 383.988281 192.535156 383.988281 192.535156 L 0 383.988281 Z M 0 0 "/>
</g>
<g clip-path="url(#clip2)" clip-rule="nonzero">
<path style=" stroke:none;fill-rule:evenodd;fill:rgb(0%,0%,0%);fill-opacity:1;" d="M 0 0 C 1.613281 0 255.453125 192.535156 255.453125 192.535156 L 0 383.988281 Z M 0 0 "/>
</g>
<path style=" stroke:none;fill-rule:evenodd;fill:rgb(100%,100%,100%);fill-opacity:1;" d="M 140.78125 223.613281 L 95.171875 213.507812 L 71.867188 253.136719 L 68.222656 208.378906 L 22.660156 198.351562 L 63.789062 179.738281 L 61.320312 135.199219 L 91.496094 167.742188 L 133 148.816406 L 111.378906 189.238281 Z M 140.78125 223.613281 "/>
</g>
</svg>
