<?xml version="1.0" encoding="UTF-8"?>
<svg xmlns="http://www.w3.org/2000/svg" xmlns:xlink="http://www.w3.org/1999/xlink" width="384pt" height="384pt" viewBox="0 0 384 384" version="1.1">
<defs>
<clipPath id="clip1">
  <path d="M 0 0 L 383.988281 0 L 383.988281 383.988281 L 0 383.988281 Z M 0 0 "/>
</clipPath>
</defs>
<g id="surface1">
<g clip-path="url(#clip1)" clip-rule="nonzero">
<path style=" stroke:none;fill-rule:evenodd;fill:rgb(90.588235%,0%,7.45098%);fill-opacity:1;" d="M -96 0 L 479.980469 0 L 479.980469 383.988281 L -96 383.988281 Z M -96 0 "/>
</g>
<path style=" stroke:none;fill-rule:evenodd;fill:rgb(100%,100%,100%);fill-opacity:1;" d="M 289.34375 191.824219 C 289.34375 245.308594 245.984375 288.667969 192.5 288.667969 C 139.011719 288.667969 95.65625 245.308594 95.65625 191.824219 C 95.65625 138.335938 139.011719 94.980469 192.5 94.980469 C 245.984375 94.980469 289.34375 138.339844 289.34375 191.824219 Z M 289.34375 191.824219 "/>
<path style=" stroke:none;fill-rule:evenodd;fill:rgb(90.588235%,0%,7.45098%);fill-opacity:1;" d="M 192.5 256.050781 C 157.050781 256.050781 128.277344 227.277344 128.277344 191.828125 C 128.277344 156.375 157.050781 127.601562 192.5 127.601562 C 201.363281 127.601562 211.453125 129.640625 218.304688 134.671875 C 171.335938 136.441406 159.453125 176.28125 159.453125 192.335938 C 159.453125 208.390625 167.050781 244.199219 218.304688 249.488281 C 212.472656 253.246094 201.363281 256.050781 192.5 256.050781 Z M 192.5 256.050781 "/>
<path style=" stroke:none;fill-rule:evenodd;fill:rgb(90.588235%,0%,7.45098%);fill-opacity:1;" d="M 249.082031 218.839844 L 219.914062 208.203125 L 200.625 232.515625 L 201.734375 201.5 L 172.644531 190.664062 L 202.492188 182.132812 L 203.800781 151.113281 L 221.136719 176.867188 L 251.042969 168.53125 L 231.914062 192.976562 Z M 249.082031 218.839844 "/>
</g>
</svg>
