<?xml version="1.0" encoding="UTF-8"?>
<svg xmlns="http://www.w3.org/2000/svg" xmlns:xlink="http://www.w3.org/1999/xlink" width="384pt" height="384pt" viewBox="0 0 384 384" version="1.1">
<g id="surface1">
<rect x="0" y="0" width="384" height="384" style="fill:rgb(95.294118%,9.803922%,18.823529%);fill-opacity:1;stroke:none;"/>
<path style=" stroke:none;fill-rule:evenodd;fill:rgb(100%,100%,100%);fill-opacity:1;" d="M 261.578125 197.980469 C 261.578125 250.949219 217.894531 293.890625 164.003906 293.890625 C 110.113281 293.890625 66.429688 250.949219 66.429688 197.980469 C 66.429688 145.007812 110.113281 102.066406 164.003906 102.066406 C 217.894531 102.066406 261.578125 145.007812 261.578125 197.980469 Z M 261.578125 197.980469 "/>
<path style=" stroke:none;fill-rule:evenodd;fill:rgb(95.294118%,9.411765%,18.823529%);fill-opacity:1;" d="M 266.460938 197.972656 C 266.460938 240.347656 231.511719 274.703125 188.398438 274.703125 C 145.289062 274.703125 110.339844 240.347656 110.339844 197.972656 C 110.339844 155.597656 145.289062 121.246094 188.398438 121.246094 C 231.511719 121.246094 266.460938 155.597656 266.460938 197.972656 Z M 266.460938 197.972656 "/>
<path style=" stroke:none;fill-rule:evenodd;fill:rgb(100%,100%,100%);fill-opacity:1;" d="M 280.578125 153.171875 L 279.789062 188.625 L 246.714844 197.605469 L 279.316406 209.21875 L 278.53125 241.730469 L 299.792969 216.339844 L 331.925781 227.488281 L 313.339844 200.238281 L 336.019531 173.144531 L 301.210938 182.742188 Z M 280.578125 153.171875 "/>
</g>
</svg>
