<?xml version="1.0" encoding="UTF-8"?>
<svg xmlns="http://www.w3.org/2000/svg" xmlns:xlink="http://www.w3.org/1999/xlink" width="384pt" height="384pt" viewBox="0 0 384 384" version="1.1">
<g id="surface1">
<path style=" stroke:none;fill-rule:evenodd;fill:rgb(100%,100%,100%);fill-opacity:1;" d="M 0.00390625 -1.671875 L 193.339844 -1.671875 L 193.339844 94.347656 L 0.00390625 94.347656 Z M 0.00390625 -1.671875 "/>
<path style=" stroke:none;fill-rule:nonzero;fill:rgb(80%,0%,0%);fill-opacity:1;" d="M 0.00390625 -1.671875 L -0.00390625 5.535156 L 46.132812 29.242188 L 63.492188 29.746094 Z M 0.00390625 -1.671875 "/>
<path style=" stroke:none;fill-rule:nonzero;fill:rgb(0%,0%,40%);fill-opacity:1;" d="M 19.757812 -1.671875 L 75.691406 27.546875 L 75.691406 -1.671875 Z M 19.757812 -1.671875 "/>
<path style=" stroke:none;fill-rule:nonzero;fill:rgb(80%,0%,0%);fill-opacity:1;" d="M 83.15625 -1.671875 L 83.15625 35.625 L 0.0078125 35.625 L 0.0078125 56.941406 L 83.15625 56.941406 L 83.15625 94.238281 L 108.742188 94.238281 L 108.742188 56.941406 L 191.890625 56.941406 L 191.890625 35.625 L 108.742188 35.625 L 108.742188 -1.671875 Z M 83.15625 -1.671875 "/>
<path style=" stroke:none;fill-rule:nonzero;fill:rgb(0%,0%,40%);fill-opacity:1;" d="M 116.199219 -1.671875 L 116.199219 25.859375 L 170.921875 -1.460938 Z M 116.199219 -1.671875 "/>
<path style=" stroke:none;fill-rule:nonzero;fill:rgb(80%,0%,0%);fill-opacity:1;" d="M 117.933594 28.859375 L 133.320312 28.734375 L 193.105469 -1.460938 L 177.242188 -1.199219 Z M 117.933594 28.859375 "/>
<path style=" stroke:none;fill-rule:nonzero;fill:rgb(0%,0%,40%);fill-opacity:1;" d="M 0.00390625 63.15625 L 0.00390625 83.582031 L 38.378906 63.367188 Z M 0.00390625 63.15625 "/>
<path style=" stroke:none;fill-rule:nonzero;fill:rgb(80%,0%,0%);fill-opacity:1;" d="M 147.78125 64 L 131.785156 63.875 L 192.089844 93.902344 L 191.695312 87.03125 Z M 14.988281 94.410156 L 71.535156 64.71875 L 56.683594 64.816406 L 0.00390625 94.363281 "/>
<path style=" stroke:none;fill-rule:nonzero;fill:rgb(0%,0%,40%);fill-opacity:1;" d="M 192.699219 6.761719 L 147.03125 29.410156 L 192.089844 29.578125 L 192.089844 63.324219 L 153.714844 63.324219 L 191.734375 83.925781 L 192.292969 94.40625 L 171.984375 94.164062 L 116.402344 66.878906 L 116.402344 94.40625 L 75.890625 94.40625 L 75.890625 66.878906 L 23.75 94.332031 L 0.203125 94.40625 L 0.203125 190.316406 L 383.976562 190.316406 L 383.976562 -1.507812 L 193.105469 -1.664062 M 0.203125 9.160156 L 0 29.078125 L 40.402344 29.585938 Z M 0.203125 9.160156 "/>
<path style=" stroke:none;fill-rule:evenodd;fill:rgb(0%,62.352941%,79.215686%);fill-opacity:1;" d="M 191.988281 -1.671875 L 383.976562 -1.671875 L 383.976562 190.316406 L 191.988281 190.316406 Z M 191.988281 -1.671875 "/>
<path style=" stroke:none;fill-rule:evenodd;fill:rgb(0%,62.352941%,79.215686%);fill-opacity:1;" d="M -0.00390625 94.324219 L 202.601562 94.324219 L 202.601562 190.316406 L -0.00390625 190.316406 Z M -0.00390625 94.324219 "/>
<path style=" stroke:none;fill-rule:evenodd;fill:rgb(0%,62.352941%,79.215686%);fill-opacity:1;" d="M 195.824219 186.5 L 383.980469 186.5 L 383.980469 386.15625 L 195.824219 386.15625 Z M 195.824219 186.5 "/>
<path style=" stroke:none;fill-rule:evenodd;fill:rgb(0%,62.352941%,79.215686%);fill-opacity:1;" d="M -0.00390625 184.355469 L 202.601562 184.355469 L 202.601562 386.160156 L -0.00390625 386.160156 Z M -0.00390625 184.355469 "/>
<path style=" stroke:none;fill-rule:evenodd;fill:rgb(100%,95.686275%,5.098039%);fill-opacity:1;" d="M 358.542969 169.722656 L 363.839844 185.027344 L 350.011719 175.558594 L 336.183594 185.027344 L 341.480469 169.722656 L 327.640625 160.269531 L 344.742188 160.285156 L 350.011719 144.972656 L 355.285156 160.285156 L 372.386719 160.273438 Z M 358.542969 169.722656 "/>
<path style=" stroke:none;fill-rule:evenodd;fill:rgb(100%,95.686275%,5.098039%);fill-opacity:1;" d="M 315.613281 291.789062 L 320.914062 307.097656 L 307.082031 297.625 L 293.253906 307.09375 L 298.554688 291.789062 L 284.710938 282.335938 L 301.816406 282.351562 L 307.085938 267.039062 L 312.359375 282.351562 L 329.460938 282.339844 Z M 315.613281 291.789062 "/>
<path style=" stroke:none;fill-rule:evenodd;fill:rgb(100%,95.686275%,5.098039%);fill-opacity:1;" d="M 358.542969 264.160156 L 363.839844 279.464844 L 350.011719 269.992188 L 336.183594 279.460938 L 341.480469 264.160156 L 327.640625 254.703125 L 344.742188 254.71875 L 350.011719 239.410156 L 355.285156 254.71875 L 372.386719 254.710938 Z M 358.542969 264.160156 "/>
<path style=" stroke:none;fill-rule:evenodd;fill:rgb(100%,95.686275%,5.098039%);fill-opacity:1;" d="M 173.964844 352.691406 L 179.261719 367.996094 L 165.433594 358.523438 L 151.601562 367.992188 L 156.902344 352.691406 L 143.058594 343.238281 L 160.164062 343.253906 L 165.433594 327.941406 L 170.707031 343.253906 L 187.808594 343.242188 Z M 173.964844 352.691406 "/>
<path style=" stroke:none;fill-rule:evenodd;fill:rgb(100%,95.686275%,5.098039%);fill-opacity:1;" d="M 206.265625 286.367188 L 200.964844 271.0625 L 214.796875 280.535156 L 228.625 271.066406 L 223.324219 286.367188 L 237.167969 295.824219 L 220.0625 295.804688 L 214.792969 311.117188 L 209.523438 295.804688 L 192.417969 295.816406 Z M 206.265625 286.367188 "/>
<path style=" stroke:none;fill-rule:evenodd;fill:rgb(100%,95.686275%,5.098039%);fill-opacity:1;" d="M 256.699219 216.617188 L 251.402344 201.3125 L 265.230469 210.785156 L 279.0625 201.3125 L 273.761719 216.617188 L 287.605469 226.070312 L 270.5 226.054688 L 265.230469 241.367188 L 259.957031 226.054688 L 242.855469 226.066406 Z M 256.699219 216.617188 "/>
<path style=" stroke:none;fill-rule:evenodd;fill:rgb(100%,95.686275%,5.098039%);fill-opacity:1;" d="M 299.089844 202.125 L 293.792969 186.820312 L 307.621094 196.292969 L 321.449219 186.824219 L 316.148438 202.125 L 329.992188 211.578125 L 312.890625 211.5625 L 307.621094 226.875 L 302.347656 211.5625 L 285.246094 211.574219 Z M 299.089844 202.125 "/>
<path style=" stroke:none;fill-rule:evenodd;fill:rgb(100%,95.686275%,5.098039%);fill-opacity:1;" d="M 256.699219 322.851562 L 251.402344 307.546875 L 265.230469 317.015625 L 279.0625 307.546875 L 273.761719 322.851562 L 287.605469 332.304688 L 270.5 332.289062 L 265.230469 347.601562 L 259.957031 332.289062 L 242.855469 332.300781 Z M 256.699219 322.851562 "/>
<path style=" stroke:none;fill-rule:evenodd;fill:rgb(100%,95.686275%,5.098039%);fill-opacity:1;" d="M 206.265625 335.195312 L 200.964844 319.886719 L 214.796875 329.359375 L 228.625 319.890625 L 223.324219 335.195312 L 237.167969 344.648438 L 220.0625 344.632812 L 214.792969 359.945312 L 209.523438 344.632812 L 192.417969 344.644531 Z M 206.265625 335.195312 "/>
</g>
</svg>
