<?xml version="1.0" encoding="UTF-8"?>
<svg xmlns="http://www.w3.org/2000/svg" xmlns:xlink="http://www.w3.org/1999/xlink" width="384pt" height="384pt" viewBox="0 0 384 384" version="1.1">
<defs>
<clipPath id="clip1">
  <path d="M 0 0 L 383.988281 0 L 383.988281 383.988281 L 0 383.988281 Z M 0 0 "/>
</clipPath>
</defs>
<g id="surface1">
<g clip-path="url(#clip1)" clip-rule="nonzero">
<path style=" stroke:none;fill-rule:evenodd;fill:rgb(87.058824%,12.941176%,6.27451%);fill-opacity:1;" d="M 0 0 L 575.980469 0 L 575.980469 383.988281 L 0 383.988281 Z M 0 0 "/>
</g>
<path style=" stroke:none;fill-rule:evenodd;fill:rgb(3.137255%,22.352941%,61.176471%);fill-opacity:1;" d="M 0 0 L 289.265625 0 L 289.265625 191.992188 L 0 191.992188 Z M 0 0 "/>
<path style=" stroke:none;fill-rule:evenodd;fill:rgb(100%,100%,100%);fill-opacity:1;" d="M 211.574219 133.917969 L 176.074219 126.617188 L 183.636719 162.0625 L 156.535156 137.996094 L 145.359375 172.472656 L 133.925781 138.074219 L 107.011719 162.347656 L 114.3125 126.847656 L 78.867188 134.402344 L 102.933594 107.3125 L 68.457031 96.132812 L 102.847656 84.699219 L 78.578125 57.785156 L 114.078125 65.082031 L 106.523438 29.632812 L 133.617188 53.703125 L 144.792969 19.226562 L 156.226562 53.621094 L 183.140625 29.351562 L 175.84375 64.851562 L 211.285156 57.292969 L 187.222656 84.390625 L 221.699219 95.5625 L 187.304688 106.992188 Z M 211.574219 133.917969 "/>
<path style=" stroke:none;fill-rule:evenodd;fill:rgb(0%,32.54902%,52.941176%);fill-opacity:1;" d="M 178.847656 131.191406 L 167.644531 137.136719 L 156.71875 143.59375 L 144.03125 143.15625 L 131.339844 143.304688 L 120.570312 136.601562 L 109.503906 130.394531 L 103.539062 119.214844 L 97.066406 108.324219 L 97.496094 95.671875 L 97.355469 83.007812 L 104.078125 72.269531 L 110.300781 61.230469 L 121.503906 55.28125 L 132.429688 48.824219 L 145.117188 49.261719 L 157.8125 49.117188 L 168.585938 55.820312 L 179.644531 62.027344 L 185.609375 73.203125 L 192.082031 84.09375 L 191.652344 96.746094 L 191.792969 109.410156 L 185.070312 120.152344 Z M 178.847656 131.191406 "/>
<path style=" stroke:none;fill-rule:evenodd;fill:rgb(100%,100%,100%);fill-opacity:1;" d="M 183.476562 96.210938 C 183.476562 117.695312 166.0625 135.109375 144.578125 135.109375 C 123.09375 135.109375 105.679688 117.695312 105.679688 96.210938 C 105.679688 74.726562 123.09375 57.3125 144.578125 57.3125 C 166.0625 57.3125 183.476562 74.726562 183.476562 96.210938 Z M 183.476562 96.210938 "/>
</g>
</svg>
