<?xml version="1.0" encoding="UTF-8"?>
<svg xmlns="http://www.w3.org/2000/svg" xmlns:xlink="http://www.w3.org/1999/xlink" width="384pt" height="384pt" viewBox="0 0 384 384" version="1.1">
<defs>
<clipPath id="clip1">
  <path d="M 0 256 L 383.988281 256 L 383.988281 320 L 0 320 Z M 0 256 "/>
</clipPath>
<clipPath id="clip2">
  <path d="M 0 191 L 383.988281 191 L 383.988281 256 L 0 256 Z M 0 191 "/>
</clipPath>
<clipPath id="clip3">
  <path d="M 0 128 L 383.988281 128 L 383.988281 192 L 0 192 Z M 0 128 "/>
</clipPath>
<clipPath id="clip4">
  <path d="M 0 64 L 383.988281 64 L 383.988281 129 L 0 129 Z M 0 64 "/>
</clipPath>
<clipPath id="clip5">
  <path d="M 0 0 L 383.988281 0 L 383.988281 64 L 0 64 Z M 0 0 "/>
</clipPath>
<clipPath id="clip6">
  <path d="M 0 320 L 383.988281 320 L 383.988281 383.988281 L 0 383.988281 Z M 0 320 "/>
</clipPath>
</defs>
<g id="surface1">
<g clip-path="url(#clip1)" clip-rule="nonzero">
<path style=" stroke:none;fill-rule:evenodd;fill:rgb(100%,90.588235%,0%);fill-opacity:1;" d="M -96 256.007812 L 479.980469 256.007812 L 479.980469 320 L -96 320 Z M -96 256.007812 "/>
</g>
<g clip-path="url(#clip2)" clip-rule="nonzero">
<path style=" stroke:none;fill-rule:evenodd;fill:rgb(0%,0%,0%);fill-opacity:1;" d="M -96 191.992188 L 479.980469 191.992188 L 479.980469 255.984375 L -96 255.984375 Z M -96 191.992188 "/>
</g>
<g clip-path="url(#clip3)" clip-rule="nonzero">
<path style=" stroke:none;fill-rule:evenodd;fill:rgb(87.058824%,22.352941%,3.137255%);fill-opacity:1;" d="M -96 128.007812 L 479.980469 128.007812 L 479.980469 191.996094 L -96 191.996094 Z M -96 128.007812 "/>
</g>
<g clip-path="url(#clip4)" clip-rule="nonzero">
<path style=" stroke:none;fill-rule:evenodd;fill:rgb(100%,90.588235%,0%);fill-opacity:1;" d="M -96 64.015625 L 479.980469 64.015625 L 479.980469 128.003906 L -96 128.003906 Z M -96 64.015625 "/>
</g>
<g clip-path="url(#clip5)" clip-rule="nonzero">
<path style=" stroke:none;fill-rule:evenodd;fill:rgb(0%,0%,0%);fill-opacity:1;" d="M -96 0 L 479.980469 0 L 479.980469 63.988281 L -96 63.988281 Z M -96 0 "/>
</g>
<path style="fill-rule:evenodd;fill:rgb(100%,99.215686%,100%);fill-opacity:1;stroke-width:1.25;stroke-linecap:butt;stroke-linejoin:miter;stroke:rgb(0%,0%,0%);stroke-opacity:1;stroke-miterlimit:4;" d="M 505.000822 232.30685 C 505.000822 295.82576 453.512407 347.306662 390.00101 347.306662 C 326.489614 347.306662 275.001199 295.82576 275.001199 232.30685 C 275.001199 168.795453 326.489614 117.307038 390.00101 117.307038 C 453.512407 117.307038 505.000822 168.795453 505.000822 232.30685 Z M 505.000822 232.30685 " transform="matrix(0.519838,0,0,0.519838,-10.745082,71.230304)"/>
<path style="fill-rule:evenodd;fill:rgb(87.058824%,19.215686%,3.137255%);fill-opacity:1;stroke-width:1.25;stroke-linecap:butt;stroke-linejoin:miter;stroke:rgb(0%,0%,0%);stroke-opacity:1;stroke-miterlimit:4;" d="M 374.71223 141.648343 L 367.242953 127.897058 C 370.128469 125.019057 374.975233 122.787291 382.699998 122.787291 C 382.699998 123.313297 381.91099 137.853589 381.91099 137.853589 Z M 374.71223 141.648343 " transform="matrix(0.519838,0,0,0.519838,-13.344271,72.529899)"/>
<path style="fill-rule:evenodd;fill:rgb(100%,90.588235%,0%);fill-opacity:1;stroke-width:1.25;stroke-linecap:butt;stroke-linejoin:miter;stroke:rgb(0%,0%,0%);stroke-opacity:1;stroke-miterlimit:4;" d="M 381.91099 137.988848 L 382.955486 122.794806 C 382.955486 122.794806 398.412531 121.878053 406.79856 131.962329 C 406.926305 131.834584 398.540275 143.752364 398.540275 143.752364 Z M 381.91099 137.988848 " transform="matrix(0.519838,0,0,0.519838,-13.344271,72.529899)"/>
<path style="fill-rule:evenodd;fill:rgb(87.058824%,19.215686%,3.137255%);fill-opacity:1;stroke-width:1.25;stroke-linecap:butt;stroke-linejoin:miter;stroke:rgb(0%,0%,0%);stroke-opacity:1;stroke-miterlimit:4;" d="M 398.810792 143.617106 L 406.407813 131.834584 C 411.51758 137.19984 413.606573 141.002107 414.395581 146.765624 C 414.523326 146.893368 402.342543 149.778883 402.342543 149.643625 C 402.342543 149.515881 398.938537 143.752364 398.810792 143.617106 Z M 398.810792 143.617106 " transform="matrix(0.519838,0,0,0.519838,-13.344271,72.529899)"/>
<path style="fill-rule:evenodd;fill:rgb(0%,0%,0%);fill-opacity:1;stroke-width:1.25;stroke-linecap:round;stroke-linejoin:round;stroke:rgb(0%,0%,0%);stroke-opacity:1;stroke-miterlimit:4;" d="M 378.506984 338.239108 C 378.506984 338.239108 392.784273 321.865311 420.549845 325.404576 C 416.364344 318.596563 402.868548 319.378057 402.868548 319.378057 C 402.868548 319.378057 398.683048 287.55473 401.951796 285.984228 C 405.228058 284.413726 419.114601 286.111972 419.114601 286.111972 C 420.940592 286.111972 424.08911 281.137464 421.601856 277.99646 C 419.114601 274.847942 411.780583 262.802418 414.786328 260.442908 C 417.799588 258.083398 434.173385 261.750407 434.173385 261.750407 L 387.937509 202.552255 C 387.937509 202.552255 383.226004 180.287197 392.656529 169.549173 C 404.048303 160.118647 402.868548 149.899113 402.477802 150.034372 C 400.9073 139.687094 385.187252 132.217817 374.584486 141.783601 C 368.294964 149.380622 372.487979 155.144139 372.487979 155.144139 C 372.487979 155.144139 355.986438 159.592641 355.325174 162.478157 C 354.671424 165.356158 373.923222 161.952151 373.923222 161.952151 L 372.089717 175.17743 C 372.089717 175.17743 334.630618 209.232524 363.320456 238.703855 C 363.575944 238.568597 364.237208 237.388842 364.237208 237.388842 C 364.237208 237.388842 374.321483 249.832627 384.92425 252.582884 C 394.880781 262.802418 393.964028 261.224402 393.964028 261.224402 C 393.964028 261.224402 395.925277 277.335196 394.099287 280.483714 C 391.604518 279.694706 366.198457 278.777954 362.403704 280.220711 C 358.992183 281.265208 345.894648 280.611458 349.17091 301.959764 C 351.658164 296.196247 353.88993 291.08648 353.88993 291.08648 C 353.88993 291.08648 353.491669 298.81876 356.640187 301.569017 C 356.114182 293.44599 359.653447 287.945476 359.653447 287.945476 C 359.653447 287.945476 360.307196 296.849997 362.268445 298.16501 C 364.237208 299.472509 364.237208 283.752462 375.102977 285.067475 C 385.97626 286.374975 393.836284 285.984228 393.836284 285.984228 C 393.836284 285.984228 397.503293 316.763059 396.323538 319.64106 C 388.463515 317.807555 369.737722 320.430068 368.557967 325.141573 C 379.558994 324.487824 384.668761 325.795323 384.668761 325.795323 C 384.668761 325.795323 375.756727 333.655347 378.506984 338.239108 Z M 378.506984 338.239108 " transform="matrix(0.519838,0,0,0.519838,-13.344271,72.529899)"/>
<path style="fill-rule:evenodd;fill:rgb(61.176471%,65.098039%,61.176471%);fill-opacity:1;stroke-width:1.25;stroke-linecap:round;stroke-linejoin:round;stroke:rgb(61.176471%,65.098039%,61.176471%);stroke-opacity:1;stroke-miterlimit:4;" d="M 382.917915 170.300609 C 382.917915 170.300609 355.66332 200.343032 367.423298 223.329469 C 368.04699 220.12835 367.776473 218.114501 368.16722 218.242245 C 367.51347 217.851498 371.548683 221.007531 371.240594 220.391353 C 371.330767 218.730679 370.015753 215.16887 370.015753 215.16887 C 371.240594 215.476959 372.47295 215.785048 373.697791 216.093137 C 372.983927 214.755581 372.262548 213.425538 371.548683 212.095496 C 373.292016 212.298384 375.035348 212.501272 376.771166 212.711674 C 376.771166 212.711674 374.930147 207.789766 375.546324 207.789766 C 376.162502 207.789766 379.84454 208.097855 379.84454 208.097855 C 372.097232 194.188769 379.408707 182.639193 382.917915 170.300609 Z M 382.917915 170.300609 " transform="matrix(0.519838,0,0,0.519838,-13.344271,72.529899)"/>
<path style="fill-rule:evenodd;fill:rgb(61.176471%,65.098039%,61.176471%);fill-opacity:1;stroke-width:1.25;stroke-linecap:butt;stroke-linejoin:miter;stroke:rgb(61.176471%,65.098039%,61.176471%);stroke-opacity:1;stroke-miterlimit:4;" d="M 392.393526 144.526344 C 392.393526 144.526344 393.82877 154.873621 388.200512 157.886881 C 387.28376 158.540631 383.744495 159.720386 384.2705 161.816893 C 384.92425 164.702408 386.494751 164.176403 388.726517 163.650398 C 394.617778 162.605901 401.425791 150.034372 392.393526 144.526344 Z M 392.393526 144.526344 " transform="matrix(0.519838,0,0,0.519838,-13.344271,72.529899)"/>
<path style=" stroke:none;fill-rule:evenodd;fill:rgb(100%,100%,100%);fill-opacity:1;" d="M 185.394531 152.292969 C 185.394531 152.933594 184.875 153.453125 184.238281 153.453125 C 183.597656 153.453125 183.082031 152.933594 183.082031 152.292969 C 183.082031 151.65625 183.597656 151.136719 184.238281 151.136719 C 184.875 151.136719 185.394531 151.65625 185.394531 152.292969 Z M 185.394531 152.292969 "/>
<path style="fill-rule:evenodd;fill:rgb(87.058824%,19.215686%,3.137255%);fill-opacity:1;stroke-width:1.25;stroke-linecap:butt;stroke-linejoin:miter;stroke:rgb(0%,0%,0%);stroke-opacity:1;stroke-miterlimit:4;" d="M 373.532475 162.079896 C 372.089717 163.259651 364.492696 171.119674 371.954459 173.997675 C 379.686739 171.901168 377.590231 170.465925 379.295992 168.760164 C 379.333563 165.220899 375.448638 164.304147 373.532475 162.079896 Z M 373.532475 162.079896 " transform="matrix(0.519838,0,0,0.519838,-13.344271,72.529899)"/>
<path style="fill-rule:evenodd;fill:rgb(61.176471%,65.098039%,61.176471%);fill-opacity:1;stroke-width:1.25;stroke-linecap:round;stroke-linejoin:round;stroke:rgb(61.176471%,65.098039%,61.176471%);stroke-opacity:1;stroke-miterlimit:4;" d="M 390.026502 236.35186 C 389.635755 238.050106 387.937509 244.339628 390.289505 249.186392 C 396.842029 246.436135 399.855289 247.217629 402.07954 248.660387 C 396.714285 244.339628 394.617778 242.506123 390.026502 236.35186 Z M 390.026502 236.35186 " transform="matrix(0.519838,0,0,0.519838,-13.344271,72.529899)"/>
<path style="fill-rule:evenodd;fill:rgb(100%,100%,100%);fill-opacity:1;stroke-width:1.25;stroke-linecap:round;stroke-linejoin:round;stroke:rgb(100%,100%,100%);stroke-opacity:1;stroke-miterlimit:4;" d="M 401.298047 266.07868 L 401.696308 280.746717 C 401.696308 280.746717 406.79856 281.663469 409.15807 280.746717 C 411.51758 279.829964 409.030326 270.534697 401.298047 266.07868 Z M 401.298047 266.07868 " transform="matrix(0.519838,0,0,0.519838,-13.344271,72.529899)"/>
<path style="fill-rule:evenodd;fill:rgb(61.176471%,65.098039%,61.176471%);fill-opacity:1;stroke-width:1.25;stroke-linecap:butt;stroke-linejoin:miter;stroke:rgb(0%,0%,0%);stroke-opacity:1;stroke-miterlimit:4;" d="M 438.358885 267.912185 C 438.358885 267.912185 428.928359 245.121122 404.829797 239.357605 C 380.731235 233.594089 383.872239 207.925025 385.841002 206.354523 C 386.885498 204.122757 387.674506 200.71875 394.617778 203.995013 C 401.553535 207.271275 433.512121 223.382069 438.095882 224.163563 C 442.679644 224.952571 438.749632 268.430676 438.358885 267.912185 Z M 438.358885 267.912185 " transform="matrix(0.519838,0,0,0.519838,-13.344271,72.529899)"/>
<path style="fill-rule:evenodd;fill:rgb(87.058824%,19.215686%,3.137255%);fill-opacity:1;stroke-width:1.25;stroke-linecap:butt;stroke-linejoin:round;stroke:rgb(0%,0%,0%);stroke-opacity:1;stroke-miterlimit:4;" d="M 415.440078 239.229861 C 415.049331 239.492864 447.661667 258.481659 437.83288 274.855456 C 447.135661 268.701193 444.122402 257.955654 444.122402 257.955654 C 444.122402 257.955654 451.719423 277.733457 433.249118 287.426985 C 435.217881 289.132746 436.525381 288.734485 436.525381 288.734485 L 433.384377 291.883003 C 433.384377 291.883003 431.941619 294.234998 444.385404 288.215994 C 440.981398 290.96625 440.718395 292.927499 440.718395 292.927499 C 440.718395 292.927499 441.635147 295.550012 449.758174 288.471482 C 443.205649 295.550012 441.762892 299.217021 441.762892 299.081762 C 459.444188 297.511261 497.955298 240.018869 429.582109 222.991322 C 433.256633 226.786076 432.730627 226.267585 432.730627 226.267585 Z M 415.440078 239.229861 " transform="matrix(0.519838,0,0,0.519838,-13.344271,72.529899)"/>
<path style="fill-rule:evenodd;fill:rgb(100%,100%,100%);fill-opacity:1;stroke-width:1.25;stroke-linecap:round;stroke-linejoin:round;stroke:rgb(0%,0%,0%);stroke-opacity:1;stroke-miterlimit:4;" d="M 416.882836 233.601603 C 421.331338 236.742607 422.90184 237.794618 423.427846 239.365119 C 419.37009 238.448367 415.703081 238.71137 415.703081 238.71137 C 415.703081 238.71137 406.926305 230.325341 405.355803 229.671591 C 404.176048 229.671591 397.368035 225.350832 397.368035 225.350832 C 393.956514 223.645072 390.81551 211.862551 403.38704 215.266557 C 416.35683 221.420821 418.190335 221.946826 418.190335 221.946826 C 423.337673 223.562414 428.492526 225.178002 433.647379 226.79359 C 436.615553 230.107424 439.583726 233.428773 442.5519 236.742607 C 442.5519 236.742607 426.704108 228.882583 424.735345 228.754839 C 429.063618 232.286589 431.550872 237.133354 431.550872 237.133354 C 426.531278 235.69811 422.165433 234.383097 416.882836 233.601603 Z M 416.882836 233.601603 " transform="matrix(0.519838,0,0,0.519838,-13.344271,72.529899)"/>
<path style="fill:none;stroke-width:1.25;stroke-linecap:round;stroke-linejoin:miter;stroke:rgb(100%,100%,100%);stroke-opacity:1;stroke-miterlimit:4;" d="M 355.197429 163.259651 C 355.197429 163.259651 370.391471 159.592641 372.224976 160.118647 " transform="matrix(0.519838,0,0,0.519838,-13.344271,72.529899)"/>
<g clip-path="url(#clip6)" clip-rule="nonzero">
<path style=" stroke:none;fill-rule:evenodd;fill:rgb(87.058824%,22.352941%,3.137255%);fill-opacity:1;" d="M -96 320.003906 L 479.980469 320.003906 L 479.980469 383.992188 L -96 383.992188 Z M -96 320.003906 "/>
</g>
</g>
</svg>
