<?xml version="1.0" encoding="UTF-8"?>
<svg xmlns="http://www.w3.org/2000/svg" xmlns:xlink="http://www.w3.org/1999/xlink" width="384pt" height="384pt" viewBox="0 0 384 384" version="1.1">
<g id="surface1">
<path style=" stroke:none;fill-rule:evenodd;fill:rgb(74.117647%,23.921569%,26.666667%);fill-opacity:1;" d="M 0 0 L 729.605469 0 L 729.605469 29.539062 L 0 29.539062 Z M 0 0 "/>
<path style=" stroke:none;fill-rule:evenodd;fill:rgb(74.117647%,23.921569%,26.666667%);fill-opacity:1;" d="M 0 59.078125 L 729.605469 59.078125 L 729.605469 88.617188 L 0 88.617188 Z M 0 59.078125 "/>
<path style=" stroke:none;fill-rule:evenodd;fill:rgb(74.117647%,23.921569%,26.666667%);fill-opacity:1;" d="M 0 118.15625 L 729.605469 118.15625 L 729.605469 147.695312 L 0 147.695312 Z M 0 118.15625 "/>
<path style=" stroke:none;fill-rule:evenodd;fill:rgb(74.117647%,23.921569%,26.666667%);fill-opacity:1;" d="M 0 177.234375 L 729.605469 177.234375 L 729.605469 206.769531 L 0 206.769531 Z M 0 177.234375 "/>
<path style=" stroke:none;fill-rule:evenodd;fill:rgb(74.117647%,23.921569%,26.666667%);fill-opacity:1;" d="M 0 236.308594 L 729.605469 236.308594 L 729.605469 265.847656 L 0 265.847656 Z M 0 236.308594 "/>
<path style=" stroke:none;fill-rule:evenodd;fill:rgb(74.117647%,23.921569%,26.666667%);fill-opacity:1;" d="M 0 295.386719 L 729.605469 295.386719 L 729.605469 324.925781 L 0 324.925781 Z M 0 295.386719 "/>
<path style=" stroke:none;fill-rule:evenodd;fill:rgb(74.117647%,23.921569%,26.666667%);fill-opacity:1;" d="M 0 354.464844 L 729.605469 354.464844 L 729.605469 384.003906 L 0 384.003906 Z M 0 354.464844 "/>
<path style=" stroke:none;fill-rule:evenodd;fill:rgb(100%,100%,100%);fill-opacity:1;" d="M 0 29.539062 L 729.605469 29.539062 L 729.605469 59.078125 L 0 59.078125 Z M 0 29.539062 "/>
<path style=" stroke:none;fill-rule:evenodd;fill:rgb(100%,100%,100%);fill-opacity:1;" d="M 0 88.617188 L 729.605469 88.617188 L 729.605469 118.15625 L 0 118.15625 Z M 0 88.617188 "/>
<path style=" stroke:none;fill-rule:evenodd;fill:rgb(100%,100%,100%);fill-opacity:1;" d="M 0 147.695312 L 729.605469 147.695312 L 729.605469 177.234375 L 0 177.234375 Z M 0 147.695312 "/>
<path style=" stroke:none;fill-rule:evenodd;fill:rgb(100%,100%,100%);fill-opacity:1;" d="M 0 206.769531 L 729.605469 206.769531 L 729.605469 236.308594 L 0 236.308594 Z M 0 206.769531 "/>
<path style=" stroke:none;fill-rule:evenodd;fill:rgb(100%,100%,100%);fill-opacity:1;" d="M 0 265.847656 L 729.605469 265.847656 L 729.605469 295.386719 L 0 295.386719 Z M 0 265.847656 "/>
<path style=" stroke:none;fill-rule:evenodd;fill:rgb(100%,100%,100%);fill-opacity:1;" d="M 0 324.925781 L 729.605469 324.925781 L 729.605469 354.464844 L 0 354.464844 Z M 0 324.925781 "/>
<path style=" stroke:none;fill-rule:evenodd;fill:rgb(9.803922%,18.431373%,36.470588%);fill-opacity:1;" d="M 0 0 L 291.84375 0 L 291.84375 206.769531 L 0 206.769531 Z M 0 0 "/>
<path style=" stroke:none;fill-rule:evenodd;fill:rgb(100%,100%,100%);fill-opacity:1;" d="M 24.320312 8.851562 L 26.976562 17.023438 L 35.570312 17.023438 L 28.617188 22.074219 L 31.273438 30.246094 L 24.320312 25.195312 L 17.367188 30.246094 L 20.023438 22.074219 L 13.070312 17.023438 L 21.664062 17.023438 Z M 24.320312 8.851562 "/>
<path style=" stroke:none;fill-rule:evenodd;fill:rgb(100%,100%,100%);fill-opacity:1;" d="M 72.960938 8.851562 L 75.617188 17.023438 L 84.210938 17.023438 L 77.257812 22.074219 L 79.914062 30.246094 L 72.960938 25.195312 L 66.007812 30.246094 L 68.664062 22.074219 L 61.710938 17.023438 L 70.304688 17.023438 Z M 72.960938 8.851562 "/>
<path style=" stroke:none;fill-rule:evenodd;fill:rgb(100%,100%,100%);fill-opacity:1;" d="M 121.601562 8.851562 L 124.257812 17.023438 L 132.851562 17.023438 L 125.898438 22.074219 L 128.554688 30.246094 L 121.601562 25.195312 L 114.648438 30.246094 L 117.304688 22.074219 L 110.355469 17.023438 L 118.945312 17.023438 Z M 121.601562 8.851562 "/>
<path style=" stroke:none;fill-rule:evenodd;fill:rgb(100%,100%,100%);fill-opacity:1;" d="M 170.242188 8.851562 L 172.894531 17.023438 L 181.488281 17.023438 L 174.535156 22.074219 L 177.191406 30.246094 L 170.242188 25.195312 L 163.289062 30.246094 L 165.945312 22.074219 L 158.992188 17.023438 L 167.585938 17.023438 Z M 170.242188 8.851562 "/>
<path style=" stroke:none;fill-rule:evenodd;fill:rgb(100%,100%,100%);fill-opacity:1;" d="M 218.882812 8.851562 L 221.539062 17.023438 L 230.128906 17.023438 L 223.179688 22.074219 L 225.835938 30.246094 L 218.882812 25.195312 L 211.929688 30.246094 L 214.585938 22.074219 L 207.632812 17.023438 L 216.226562 17.023438 Z M 218.882812 8.851562 "/>
<path style=" stroke:none;fill-rule:evenodd;fill:rgb(100%,100%,100%);fill-opacity:1;" d="M 267.523438 8.851562 L 270.179688 17.023438 L 278.773438 17.023438 L 271.820312 22.074219 L 274.476562 30.246094 L 267.523438 25.195312 L 260.570312 30.246094 L 263.226562 22.074219 L 256.273438 17.023438 L 264.867188 17.023438 Z M 267.523438 8.851562 "/>
<path style=" stroke:none;fill-rule:evenodd;fill:rgb(100%,100%,100%);fill-opacity:1;" d="M 48.640625 29.527344 L 51.296875 37.699219 L 59.890625 37.699219 L 52.9375 42.75 L 55.59375 50.921875 L 48.640625 45.871094 L 41.691406 50.921875 L 44.34375 42.75 L 37.394531 37.699219 L 45.984375 37.699219 Z M 48.640625 29.527344 "/>
<path style=" stroke:none;fill-rule:evenodd;fill:rgb(100%,100%,100%);fill-opacity:1;" d="M 97.28125 29.527344 L 99.933594 37.699219 L 108.527344 37.699219 L 101.578125 42.75 L 104.230469 50.921875 L 97.28125 45.871094 L 90.328125 50.921875 L 92.984375 42.75 L 86.03125 37.699219 L 94.625 37.699219 Z M 97.28125 29.527344 "/>
<path style=" stroke:none;fill-rule:evenodd;fill:rgb(100%,100%,100%);fill-opacity:1;" d="M 145.921875 29.527344 L 148.578125 37.699219 L 157.167969 37.699219 L 150.21875 42.75 L 152.875 50.921875 L 145.921875 45.871094 L 138.96875 50.921875 L 141.625 42.75 L 134.671875 37.699219 L 143.265625 37.699219 Z M 145.921875 29.527344 "/>
<path style=" stroke:none;fill-rule:evenodd;fill:rgb(100%,100%,100%);fill-opacity:1;" d="M 194.5625 29.527344 L 197.21875 37.699219 L 205.8125 37.699219 L 198.859375 42.75 L 201.515625 50.921875 L 194.5625 45.871094 L 187.609375 50.921875 L 190.265625 42.75 L 183.316406 37.699219 L 191.90625 37.699219 Z M 194.5625 29.527344 "/>
<path style=" stroke:none;fill-rule:evenodd;fill:rgb(100%,100%,100%);fill-opacity:1;" d="M 243.203125 29.527344 L 245.855469 37.699219 L 254.449219 37.699219 L 247.496094 42.75 L 250.152344 50.921875 L 243.203125 45.871094 L 236.25 50.921875 L 238.90625 42.75 L 231.953125 37.699219 L 240.546875 37.699219 Z M 243.203125 29.527344 "/>
<path style=" stroke:none;fill-rule:evenodd;fill:rgb(100%,100%,100%);fill-opacity:1;" d="M 24.320312 50.203125 L 26.976562 58.375 L 35.570312 58.375 L 28.617188 63.425781 L 31.273438 71.601562 L 24.320312 66.550781 L 17.367188 71.601562 L 20.023438 63.425781 L 13.070312 58.375 L 21.664062 58.375 Z M 24.320312 50.203125 "/>
<path style=" stroke:none;fill-rule:evenodd;fill:rgb(100%,100%,100%);fill-opacity:1;" d="M 72.960938 50.203125 L 75.617188 58.375 L 84.210938 58.375 L 77.257812 63.425781 L 79.914062 71.601562 L 72.960938 66.550781 L 66.007812 71.601562 L 68.664062 63.425781 L 61.710938 58.375 L 70.304688 58.375 Z M 72.960938 50.203125 "/>
<path style=" stroke:none;fill-rule:evenodd;fill:rgb(100%,100%,100%);fill-opacity:1;" d="M 121.601562 50.203125 L 124.257812 58.375 L 132.851562 58.375 L 125.898438 63.425781 L 128.554688 71.601562 L 121.601562 66.550781 L 114.648438 71.601562 L 117.304688 63.425781 L 110.355469 58.375 L 118.945312 58.375 Z M 121.601562 50.203125 "/>
<path style=" stroke:none;fill-rule:evenodd;fill:rgb(100%,100%,100%);fill-opacity:1;" d="M 170.242188 50.203125 L 172.894531 58.375 L 181.488281 58.375 L 174.535156 63.425781 L 177.191406 71.601562 L 170.242188 66.550781 L 163.289062 71.601562 L 165.945312 63.425781 L 158.992188 58.375 L 167.585938 58.375 Z M 170.242188 50.203125 "/>
<path style=" stroke:none;fill-rule:evenodd;fill:rgb(100%,100%,100%);fill-opacity:1;" d="M 218.882812 50.203125 L 221.539062 58.375 L 230.128906 58.375 L 223.179688 63.425781 L 225.835938 71.601562 L 218.882812 66.550781 L 211.929688 71.601562 L 214.585938 63.425781 L 207.632812 58.375 L 216.226562 58.375 Z M 218.882812 50.203125 "/>
<path style=" stroke:none;fill-rule:evenodd;fill:rgb(100%,100%,100%);fill-opacity:1;" d="M 267.523438 50.203125 L 270.179688 58.375 L 278.773438 58.375 L 271.820312 63.425781 L 274.476562 71.601562 L 267.523438 66.550781 L 260.570312 71.601562 L 263.226562 63.425781 L 256.273438 58.375 L 264.867188 58.375 Z M 267.523438 50.203125 "/>
<path style=" stroke:none;fill-rule:evenodd;fill:rgb(100%,100%,100%);fill-opacity:1;" d="M 48.640625 70.882812 L 51.296875 79.054688 L 59.890625 79.054688 L 52.9375 84.105469 L 55.59375 92.277344 L 48.640625 87.226562 L 41.691406 92.277344 L 44.34375 84.105469 L 37.394531 79.054688 L 45.984375 79.054688 Z M 48.640625 70.882812 "/>
<path style=" stroke:none;fill-rule:evenodd;fill:rgb(100%,100%,100%);fill-opacity:1;" d="M 97.28125 70.882812 L 99.933594 79.054688 L 108.527344 79.054688 L 101.578125 84.105469 L 104.230469 92.277344 L 97.28125 87.226562 L 90.328125 92.277344 L 92.984375 84.105469 L 86.03125 79.054688 L 94.625 79.054688 Z M 97.28125 70.882812 "/>
<path style=" stroke:none;fill-rule:evenodd;fill:rgb(100%,100%,100%);fill-opacity:1;" d="M 145.921875 70.882812 L 148.578125 79.054688 L 157.167969 79.054688 L 150.21875 84.105469 L 152.875 92.277344 L 145.921875 87.226562 L 138.96875 92.277344 L 141.625 84.105469 L 134.671875 79.054688 L 143.265625 79.054688 Z M 145.921875 70.882812 "/>
<path style=" stroke:none;fill-rule:evenodd;fill:rgb(100%,100%,100%);fill-opacity:1;" d="M 194.5625 70.882812 L 197.21875 79.054688 L 205.8125 79.054688 L 198.859375 84.105469 L 201.515625 92.277344 L 194.5625 87.226562 L 187.609375 92.277344 L 190.265625 84.105469 L 183.316406 79.054688 L 191.90625 79.054688 Z M 194.5625 70.882812 "/>
<path style=" stroke:none;fill-rule:evenodd;fill:rgb(100%,100%,100%);fill-opacity:1;" d="M 243.203125 70.882812 L 245.855469 79.054688 L 254.449219 79.054688 L 247.496094 84.105469 L 250.152344 92.277344 L 243.203125 87.226562 L 236.25 92.277344 L 238.90625 84.105469 L 231.953125 79.054688 L 240.546875 79.054688 Z M 243.203125 70.882812 "/>
<path style=" stroke:none;fill-rule:evenodd;fill:rgb(100%,100%,100%);fill-opacity:1;" d="M 24.320312 91.558594 L 26.976562 99.730469 L 35.570312 99.730469 L 28.617188 104.78125 L 31.273438 112.953125 L 24.320312 107.902344 L 17.367188 112.953125 L 20.023438 104.78125 L 13.070312 99.730469 L 21.664062 99.730469 Z M 24.320312 91.558594 "/>
<path style=" stroke:none;fill-rule:evenodd;fill:rgb(100%,100%,100%);fill-opacity:1;" d="M 72.960938 91.558594 L 75.617188 99.730469 L 84.210938 99.730469 L 77.257812 104.78125 L 79.914062 112.953125 L 72.960938 107.902344 L 66.007812 112.953125 L 68.664062 104.78125 L 61.710938 99.730469 L 70.304688 99.730469 Z M 72.960938 91.558594 "/>
<path style=" stroke:none;fill-rule:evenodd;fill:rgb(100%,100%,100%);fill-opacity:1;" d="M 121.601562 91.558594 L 124.257812 99.730469 L 132.851562 99.730469 L 125.898438 104.78125 L 128.554688 112.953125 L 121.601562 107.902344 L 114.648438 112.953125 L 117.304688 104.78125 L 110.355469 99.730469 L 118.945312 99.730469 Z M 121.601562 91.558594 "/>
<path style=" stroke:none;fill-rule:evenodd;fill:rgb(100%,100%,100%);fill-opacity:1;" d="M 170.242188 91.558594 L 172.894531 99.730469 L 181.488281 99.730469 L 174.535156 104.78125 L 177.191406 112.953125 L 170.242188 107.902344 L 163.289062 112.953125 L 165.945312 104.78125 L 158.992188 99.730469 L 167.585938 99.730469 Z M 170.242188 91.558594 "/>
<path style=" stroke:none;fill-rule:evenodd;fill:rgb(100%,100%,100%);fill-opacity:1;" d="M 218.882812 91.558594 L 221.539062 99.730469 L 230.128906 99.730469 L 223.179688 104.78125 L 225.835938 112.953125 L 218.882812 107.902344 L 211.929688 112.953125 L 214.585938 104.78125 L 207.632812 99.730469 L 216.226562 99.730469 Z M 218.882812 91.558594 "/>
<path style=" stroke:none;fill-rule:evenodd;fill:rgb(100%,100%,100%);fill-opacity:1;" d="M 267.523438 91.558594 L 270.179688 99.730469 L 278.773438 99.730469 L 271.820312 104.78125 L 274.476562 112.953125 L 267.523438 107.902344 L 260.570312 112.953125 L 263.226562 104.78125 L 256.273438 99.730469 L 264.867188 99.730469 Z M 267.523438 91.558594 "/>
<path style=" stroke:none;fill-rule:evenodd;fill:rgb(100%,100%,100%);fill-opacity:1;" d="M 48.640625 112.234375 L 51.296875 120.40625 L 59.890625 120.40625 L 52.9375 125.457031 L 55.59375 133.632812 L 48.640625 128.582031 L 41.691406 133.632812 L 44.34375 125.457031 L 37.394531 120.40625 L 45.984375 120.40625 Z M 48.640625 112.234375 "/>
<path style=" stroke:none;fill-rule:evenodd;fill:rgb(100%,100%,100%);fill-opacity:1;" d="M 97.28125 112.234375 L 99.933594 120.40625 L 108.527344 120.40625 L 101.578125 125.457031 L 104.230469 133.632812 L 97.28125 128.582031 L 90.328125 133.632812 L 92.984375 125.457031 L 86.03125 120.40625 L 94.625 120.40625 Z M 97.28125 112.234375 "/>
<path style=" stroke:none;fill-rule:evenodd;fill:rgb(100%,100%,100%);fill-opacity:1;" d="M 145.921875 112.234375 L 148.578125 120.40625 L 157.167969 120.40625 L 150.21875 125.457031 L 152.875 133.632812 L 145.921875 128.582031 L 138.96875 133.632812 L 141.625 125.457031 L 134.671875 120.40625 L 143.265625 120.40625 Z M 145.921875 112.234375 "/>
<path style=" stroke:none;fill-rule:evenodd;fill:rgb(100%,100%,100%);fill-opacity:1;" d="M 194.5625 112.234375 L 197.21875 120.40625 L 205.8125 120.40625 L 198.859375 125.457031 L 201.515625 133.632812 L 194.5625 128.582031 L 187.609375 133.632812 L 190.265625 125.457031 L 183.316406 120.40625 L 191.90625 120.40625 Z M 194.5625 112.234375 "/>
<path style=" stroke:none;fill-rule:evenodd;fill:rgb(100%,100%,100%);fill-opacity:1;" d="M 243.203125 112.234375 L 245.855469 120.40625 L 254.449219 120.40625 L 247.496094 125.457031 L 250.152344 133.632812 L 243.203125 128.582031 L 236.25 133.632812 L 238.90625 125.457031 L 231.953125 120.40625 L 240.546875 120.40625 Z M 243.203125 112.234375 "/>
<path style=" stroke:none;fill-rule:evenodd;fill:rgb(100%,100%,100%);fill-opacity:1;" d="M 24.320312 132.914062 L 26.976562 141.085938 L 35.570312 141.085938 L 28.617188 146.136719 L 31.273438 154.308594 L 24.320312 149.257812 L 17.367188 154.308594 L 20.023438 146.136719 L 13.070312 141.085938 L 21.664062 141.085938 Z M 24.320312 132.914062 "/>
<path style=" stroke:none;fill-rule:evenodd;fill:rgb(100%,100%,100%);fill-opacity:1;" d="M 72.960938 132.914062 L 75.617188 141.085938 L 84.210938 141.085938 L 77.257812 146.136719 L 79.914062 154.308594 L 72.960938 149.257812 L 66.007812 154.308594 L 68.664062 146.136719 L 61.710938 141.085938 L 70.304688 141.085938 Z M 72.960938 132.914062 "/>
<path style=" stroke:none;fill-rule:evenodd;fill:rgb(100%,100%,100%);fill-opacity:1;" d="M 121.601562 132.914062 L 124.257812 141.085938 L 132.851562 141.085938 L 125.898438 146.136719 L 128.554688 154.308594 L 121.601562 149.257812 L 114.648438 154.308594 L 117.304688 146.136719 L 110.355469 141.085938 L 118.945312 141.085938 Z M 121.601562 132.914062 "/>
<path style=" stroke:none;fill-rule:evenodd;fill:rgb(100%,100%,100%);fill-opacity:1;" d="M 170.242188 132.914062 L 172.894531 141.085938 L 181.488281 141.085938 L 174.535156 146.136719 L 177.191406 154.308594 L 170.242188 149.257812 L 163.289062 154.308594 L 165.945312 146.136719 L 158.992188 141.085938 L 167.585938 141.085938 Z M 170.242188 132.914062 "/>
<path style=" stroke:none;fill-rule:evenodd;fill:rgb(100%,100%,100%);fill-opacity:1;" d="M 218.882812 132.914062 L 221.539062 141.085938 L 230.128906 141.085938 L 223.179688 146.136719 L 225.835938 154.308594 L 218.882812 149.257812 L 211.929688 154.308594 L 214.585938 146.136719 L 207.632812 141.085938 L 216.226562 141.085938 Z M 218.882812 132.914062 "/>
<path style=" stroke:none;fill-rule:evenodd;fill:rgb(100%,100%,100%);fill-opacity:1;" d="M 267.523438 132.914062 L 270.179688 141.085938 L 278.773438 141.085938 L 271.820312 146.136719 L 274.476562 154.308594 L 267.523438 149.257812 L 260.570312 154.308594 L 263.226562 146.136719 L 256.273438 141.085938 L 264.867188 141.085938 Z M 267.523438 132.914062 "/>
<path style=" stroke:none;fill-rule:evenodd;fill:rgb(100%,100%,100%);fill-opacity:1;" d="M 48.640625 153.589844 L 51.296875 161.761719 L 59.890625 161.761719 L 52.9375 166.8125 L 55.59375 174.984375 L 48.640625 169.933594 L 41.691406 174.984375 L 44.34375 166.8125 L 37.394531 161.761719 L 45.984375 161.761719 Z M 48.640625 153.589844 "/>
<path style=" stroke:none;fill-rule:evenodd;fill:rgb(100%,100%,100%);fill-opacity:1;" d="M 97.28125 153.589844 L 99.933594 161.761719 L 108.527344 161.761719 L 101.578125 166.8125 L 104.230469 174.984375 L 97.28125 169.933594 L 90.328125 174.984375 L 92.984375 166.8125 L 86.03125 161.761719 L 94.625 161.761719 Z M 97.28125 153.589844 "/>
<path style=" stroke:none;fill-rule:evenodd;fill:rgb(100%,100%,100%);fill-opacity:1;" d="M 145.921875 153.589844 L 148.578125 161.761719 L 157.167969 161.761719 L 150.21875 166.8125 L 152.875 174.984375 L 145.921875 169.933594 L 138.96875 174.984375 L 141.625 166.8125 L 134.671875 161.761719 L 143.265625 161.761719 Z M 145.921875 153.589844 "/>
<path style=" stroke:none;fill-rule:evenodd;fill:rgb(100%,100%,100%);fill-opacity:1;" d="M 194.5625 153.589844 L 197.21875 161.761719 L 205.8125 161.761719 L 198.859375 166.8125 L 201.515625 174.984375 L 194.5625 169.933594 L 187.609375 174.984375 L 190.265625 166.8125 L 183.316406 161.761719 L 191.90625 161.761719 Z M 194.5625 153.589844 "/>
<path style=" stroke:none;fill-rule:evenodd;fill:rgb(100%,100%,100%);fill-opacity:1;" d="M 243.203125 153.589844 L 245.855469 161.761719 L 254.449219 161.761719 L 247.496094 166.8125 L 250.152344 174.984375 L 243.203125 169.933594 L 236.25 174.984375 L 238.90625 166.8125 L 231.953125 161.761719 L 240.546875 161.761719 Z M 243.203125 153.589844 "/>
<path style=" stroke:none;fill-rule:evenodd;fill:rgb(100%,100%,100%);fill-opacity:1;" d="M 24.320312 174.265625 L 26.976562 182.4375 L 35.570312 182.4375 L 28.617188 187.488281 L 31.273438 195.664062 L 24.320312 190.613281 L 17.367188 195.664062 L 20.023438 187.488281 L 13.070312 182.4375 L 21.664062 182.4375 Z M 24.320312 174.265625 "/>
<path style=" stroke:none;fill-rule:evenodd;fill:rgb(100%,100%,100%);fill-opacity:1;" d="M 72.960938 174.265625 L 75.617188 182.4375 L 84.210938 182.4375 L 77.257812 187.488281 L 79.914062 195.664062 L 72.960938 190.613281 L 66.007812 195.664062 L 68.664062 187.488281 L 61.710938 182.4375 L 70.304688 182.4375 Z M 72.960938 174.265625 "/>
<path style=" stroke:none;fill-rule:evenodd;fill:rgb(100%,100%,100%);fill-opacity:1;" d="M 121.601562 174.265625 L 124.257812 182.4375 L 132.851562 182.4375 L 125.898438 187.488281 L 128.554688 195.664062 L 121.601562 190.613281 L 114.648438 195.664062 L 117.304688 187.488281 L 110.355469 182.4375 L 118.945312 182.4375 Z M 121.601562 174.265625 "/>
<path style=" stroke:none;fill-rule:evenodd;fill:rgb(100%,100%,100%);fill-opacity:1;" d="M 170.242188 174.265625 L 172.894531 182.4375 L 181.488281 182.4375 L 174.535156 187.488281 L 177.191406 195.664062 L 170.242188 190.613281 L 163.289062 195.664062 L 165.945312 187.488281 L 158.992188 182.4375 L 167.585938 182.4375 Z M 170.242188 174.265625 "/>
<path style=" stroke:none;fill-rule:evenodd;fill:rgb(100%,100%,100%);fill-opacity:1;" d="M 218.882812 174.265625 L 221.539062 182.4375 L 230.128906 182.4375 L 223.179688 187.488281 L 225.835938 195.664062 L 218.882812 190.613281 L 211.929688 195.664062 L 214.585938 187.488281 L 207.632812 182.4375 L 216.226562 182.4375 Z M 218.882812 174.265625 "/>
<path style=" stroke:none;fill-rule:evenodd;fill:rgb(100%,100%,100%);fill-opacity:1;" d="M 267.523438 174.265625 L 270.179688 182.4375 L 278.773438 182.4375 L 271.820312 187.488281 L 274.476562 195.664062 L 267.523438 190.613281 L 260.570312 195.664062 L 263.226562 187.488281 L 256.273438 182.4375 L 264.867188 182.4375 Z M 267.523438 174.265625 "/>
</g>
</svg>
