<?xml version="1.0" encoding="UTF-8"?>
<svg xmlns="http://www.w3.org/2000/svg" xmlns:xlink="http://www.w3.org/1999/xlink" width="384pt" height="384pt" viewBox="0 0 384 384" version="1.1">
<defs>
<clipPath id="clip1">
  <path d="M 0 0 L 383.992188 0 L 383.992188 383.992188 L 0 383.992188 Z M 0 0 "/>
</clipPath>
<linearGradient id="linear0" gradientUnits="userSpaceOnUse" x1="123.79" y1="360.52" x2="123.79" y2="459.27" gradientTransform="matrix(0.72665,-0.000000000000000056,-0.000000000000000222,1.3762,0.000000000000042633,-0.000000000000113687)">
<stop offset="0" style="stop-color:rgb(98.039216%,100%,0%);stop-opacity:0.560784;"/>
<stop offset="1" style="stop-color:rgb(96.078431%,76.862745%,0.784314%);stop-opacity:0.560784;"/>
</linearGradient>
<linearGradient id="linear1" gradientUnits="userSpaceOnUse" x1="123.79" y1="360.52" x2="123.79" y2="459.27" gradientTransform="matrix(0.72665,-0.000000000000000002,0,1.3762,0.000000000000056843,0.000000000000227374)">
<stop offset="0" style="stop-color:rgb(98.039216%,100%,0%);stop-opacity:0.560784;"/>
<stop offset="1" style="stop-color:rgb(96.078431%,76.862745%,0.784314%);stop-opacity:0.560784;"/>
</linearGradient>
<linearGradient id="linear2" gradientUnits="userSpaceOnUse" x1="123.79" y1="360.52" x2="123.79" y2="459.27" gradientTransform="matrix(0.72665,0.000000000000000056,-0.000000000000000111,1.3762,0,0)">
<stop offset="0" style="stop-color:rgb(98.039216%,100%,0%);stop-opacity:0.560784;"/>
<stop offset="1" style="stop-color:rgb(96.078431%,76.862745%,0.784314%);stop-opacity:0.560784;"/>
</linearGradient>
<linearGradient id="linear3" gradientUnits="userSpaceOnUse" x1="123.79" y1="360.52" x2="123.79" y2="459.27" gradientTransform="matrix(0.72665,0,0,1.3762,0.000000000000056843,0)">
<stop offset="0" style="stop-color:rgb(98.039216%,100%,0%);stop-opacity:0.560784;"/>
<stop offset="1" style="stop-color:rgb(96.078431%,76.862745%,0.784314%);stop-opacity:0.560784;"/>
</linearGradient>
<linearGradient id="linear4" gradientUnits="userSpaceOnUse" x1="123.79" y1="360.52" x2="123.79" y2="459.27" gradientTransform="matrix(0.72665,0,-0.000000000000000111,1.3762,-0.000000000000007105,-0.000000000000001776)">
<stop offset="0" style="stop-color:rgb(98.039216%,100%,0%);stop-opacity:0.560784;"/>
<stop offset="1" style="stop-color:rgb(96.078431%,76.862745%,0.784314%);stop-opacity:0.560784;"/>
</linearGradient>
<linearGradient id="linear5" gradientUnits="userSpaceOnUse" x1="123.79" y1="360.52" x2="123.79" y2="459.27" gradientTransform="matrix(0.72665,-0.000000000000000056,-0.000000000000000111,1.3762,0.000000000000056843,-0.000000000000056843)">
<stop offset="0" style="stop-color:rgb(98.039216%,100%,0%);stop-opacity:0.560784;"/>
<stop offset="1" style="stop-color:rgb(96.078431%,76.862745%,0.784314%);stop-opacity:0.560784;"/>
</linearGradient>
<linearGradient id="linear6" gradientUnits="userSpaceOnUse" x1="123.79" y1="360.52" x2="123.79" y2="459.27" gradientTransform="matrix(0.72665,-0,0.000000000000000001,1.3762,0,0.000000000000113687)">
<stop offset="0" style="stop-color:rgb(98.039216%,100%,0%);stop-opacity:0.560784;"/>
<stop offset="1" style="stop-color:rgb(96.078431%,76.862745%,0.784314%);stop-opacity:0.560784;"/>
</linearGradient>
<clipPath id="clip2">
  <path d="M 212 43 L 383.992188 43 L 383.992188 88 L 212 88 Z M 212 43 "/>
</clipPath>
<clipPath id="clip3">
  <path d="M 212 128 L 383.992188 128 L 383.992188 173 L 212 173 Z M 212 128 "/>
</clipPath>
<linearGradient id="linear7" gradientUnits="userSpaceOnUse" x1="123.79" y1="360.52" x2="123.79" y2="459.27" gradientTransform="matrix(0.72665,0,0,1.3762,-0.000000000000028422,0.000000000000014211)">
<stop offset="0" style="stop-color:rgb(98.039216%,100%,0%);stop-opacity:0.560784;"/>
<stop offset="1" style="stop-color:rgb(96.078431%,76.862745%,0.784314%);stop-opacity:0.560784;"/>
</linearGradient>
<clipPath id="clip4">
  <path d="M 0 213 L 383.992188 213 L 383.992188 257 L 0 257 Z M 0 213 "/>
</clipPath>
<clipPath id="clip5">
  <path d="M 0 297 L 383.992188 297 L 383.992188 342 L 0 342 Z M 0 297 "/>
</clipPath>
</defs>
<g id="surface1">
<g clip-path="url(#clip1)" clip-rule="nonzero">
<path style=" stroke:none;fill-rule:evenodd;fill:rgb(100%,100%,100%);fill-opacity:1;" d="M -0.00390625 0 L 575.421875 0 L 575.421875 383.980469 L -0.00390625 383.980469 Z M -0.00390625 0 "/>
</g>
<path style="fill-rule:evenodd;fill:url(#linear0);stroke-width:3.125;stroke-linecap:butt;stroke-linejoin:miter;stroke:rgb(79.607843%,66.666667%,9.803922%);stroke-opacity:1;stroke-miterlimit:4;" d="M 101.655823 488.818052 C 111.298427 506.935968 123.519279 521.84484 132.077518 547.508502 C 133.918201 581.820446 130.011476 588.355808 136.706516 604.564887 C 139.40992 610.496888 143.250765 612.9433 143.99474 626.690903 C 142.848491 646.364608 134.351392 647.584368 126.000183 647.051467 C 124.5 641.008374 125.993931 637.102484 115.35135 626.689978 C 109.584683 620.525511 102.736675 610.342773 99.115358 597.199988 C 97.989032 585.122121 97.359743 569.423907 91.331252 556.305243 C 82.655469 542.13746 81.35779 535.232795 73.118282 527.81288 C 64.62595 517.940928 65.11596 514.480582 60.467393 503.718381 C 71.856657 485.271442 82.651919 483.388059 101.655823 488.818052 Z M 101.655823 488.818052 " transform="matrix(-0.257332,0.255439,-0.255439,-0.257332,229.010849,203.766904)"/>
<path style="fill-rule:evenodd;fill:url(#linear1);stroke-width:3.125;stroke-linecap:butt;stroke-linejoin:miter;stroke:rgb(79.607843%,66.666667%,9.803922%);stroke-opacity:1;stroke-miterlimit:4;" d="M 101.662967 488.825 C 111.303024 506.930099 123.51992 521.845041 132.083356 547.505959 C 133.927938 581.819237 130.004536 588.356023 136.710979 604.559735 C 139.405866 610.493735 143.262376 612.943437 144.000516 626.692447 C 142.854329 646.359285 134.347916 647.58985 126.001775 647.051385 C 124.501361 641.004964 125.99149 637.096225 115.352028 626.686008 C 109.583684 620.533194 102.739564 610.343226 99.110917 597.191867 C 97.985031 585.117863 97.361845 569.428023 91.330969 556.307745 C 82.657569 542.133469 81.361592 535.233246 73.120293 527.808758 C 64.631911 517.941739 65.115016 514.476994 60.472254 503.719838 C 71.858798 485.267276 82.651772 483.393002 101.662967 488.825 Z M 101.662967 488.825 " transform="matrix(-0.362558,-0.00469079,0.00469079,-0.362558,124.085314,262.415412)"/>
<path style="fill-rule:evenodd;fill:url(#linear2);stroke-width:3.125;stroke-linecap:butt;stroke-linejoin:miter;stroke:rgb(79.607843%,66.666667%,9.803922%);stroke-opacity:1;stroke-miterlimit:4;" d="M 101.661289 488.816668 C 111.303121 506.935798 123.515816 521.842791 132.073319 547.508098 C 133.920764 581.816257 130.006835 588.356818 136.710276 604.564928 C 139.410056 610.493362 143.253208 612.943155 144.003063 626.686109 C 142.851288 646.361344 134.354858 647.587976 125.991744 647.045727 C 124.502067 641.005222 125.998945 637.103769 115.343065 626.690042 C 109.58583 620.527896 102.733911 610.339842 99.118443 597.199122 C 97.990366 585.121031 97.356622 569.426542 91.326351 556.304211 C 82.656504 542.136129 81.363227 535.232641 73.116467 527.809815 C 64.630003 517.936478 65.118442 514.480128 60.469667 503.719828 C 71.858453 485.275163 82.65615 483.391428 101.661289 488.816668 Z M 101.661289 488.816668 " transform="matrix(-0.253612,-0.259134,0.259134,-0.253612,10.109598,229.735412)"/>
<path style="fill-rule:evenodd;fill:url(#linear3);stroke-width:3.125;stroke-linecap:butt;stroke-linejoin:miter;stroke:rgb(79.607843%,66.666667%,9.803922%);stroke-opacity:1;stroke-miterlimit:4;" d="M 101.655639 488.824196 C 111.298563 506.930087 123.515074 521.850086 132.080909 547.505213 C 133.921462 581.816666 130.003649 588.35201 136.713328 604.561237 C 139.406141 610.488947 143.25911 612.939241 143.993378 626.691848 C 142.852382 646.361829 134.350029 647.586351 125.996601 647.042936 C 124.498822 640.99892 126.000703 637.098884 115.346411 626.692589 C 109.581429 620.528345 102.731796 610.342557 99.114527 597.1924 C 97.99371 585.123245 97.353266 569.430719 91.333688 556.308563 C 82.656295 542.138882 81.357023 535.231555 73.1159 527.813785 C 64.630929 517.941386 65.112461 514.479611 60.467282 503.717788 C 71.862705 485.267098 82.655156 483.390512 101.655639 488.824196 Z M 101.655639 488.824196 " transform="matrix(0.00260019,-0.362576,0.362576,0.00260019,-47.570802,126.37988)"/>
<path style="fill-rule:evenodd;fill:url(#linear4);stroke-width:3.125;stroke-linecap:butt;stroke-linejoin:miter;stroke:rgb(79.607843%,66.666667%,9.803922%);stroke-opacity:1;stroke-miterlimit:4;" d="M 101.65386 488.821323 C 111.305869 506.933342 123.513909 521.845992 132.082918 547.506186 C 133.922868 581.81433 130.00764 588.350761 136.715568 604.56801 C 139.409103 610.486547 143.255395 612.939734 143.999128 626.685799 C 142.850443 646.362179 134.355987 647.585382 125.995903 647.048041 C 124.497675 641.008194 125.998243 637.098951 115.347972 626.694586 C 109.582928 620.527511 102.735286 610.336904 99.115559 597.201981 C 97.99315 585.126483 97.359814 569.429565 91.33289 556.308821 C 82.656293 542.12955 81.366335 535.235262 73.118042 527.810612 C 64.634431 517.941979 65.116829 514.480576 60.46743 503.720909 C 71.854284 485.271661 82.653093 483.387357 101.661433 488.81366 Z M 101.65386 488.821323 " transform="matrix(0.257894,-0.254874,0.254874,0.257894,-15.46369,12.110469)"/>
<path style="fill-rule:evenodd;fill:url(#linear5);stroke-width:3.125;stroke-linecap:butt;stroke-linejoin:miter;stroke:rgb(79.607843%,66.666667%,9.803922%);stroke-opacity:1;stroke-miterlimit:4;" d="M 101.662251 488.823519 C 111.300899 506.92747 123.513254 521.849075 132.078583 547.500354 C 133.92386 581.825059 130.011389 588.350979 136.714994 604.565565 C 139.411844 610.493684 143.256347 612.949708 143.997552 626.688716 C 142.849629 646.364247 134.354241 647.581208 126.002177 647.045296 C 124.49315 641.004402 125.996599 637.096248 115.34636 626.691668 C 109.585908 620.535566 102.738155 610.347542 99.112759 597.194751 C 97.991648 585.126038 97.354617 569.428674 91.32974 556.311105 C 82.655959 542.133056 81.355831 535.237872 73.120624 527.814707 C 64.629003 517.939876 65.113948 514.478815 60.464865 503.723345 C 71.857672 485.274822 82.650251 483.390874 101.662251 488.823519 Z M 101.662251 488.823519 " transform="matrix(0.255062,0.257705,-0.257705,0.255062,202.538345,-14.129255)"/>
<path style="fill-rule:evenodd;fill:url(#linear6);stroke-width:3.125;stroke-linecap:butt;stroke-linejoin:miter;stroke:rgb(79.607843%,66.666667%,9.803922%);stroke-opacity:1;stroke-miterlimit:4;" d="M 101.661729 488.818562 C 111.295626 506.930251 123.51214 521.841912 132.079662 547.510323 C 133.918661 581.815605 130.003718 588.350337 136.709883 604.567734 C 139.407166 610.492259 143.253029 612.942817 144.001649 626.68642 C 142.847361 646.363565 134.352425 647.585181 126.000759 647.050121 C 124.498788 641.001946 126.001075 637.106296 115.35527 626.691148 C 109.586567 620.532049 102.733939 610.337598 99.11143 597.198893 C 97.992933 585.126753 97.354429 569.432696 91.329503 556.304326 C 82.660607 542.13154 81.359665 535.231405 73.118436 527.811684 C 64.62963 517.936699 65.121092 514.476332 60.463828 503.722994 C 71.8581 485.273056 82.655714 483.395131 101.661729 488.818562 Z M 101.661729 488.818562 " transform="matrix(-0.00155981,0.362584,-0.362584,-0.00155981,260.853272,89.32345)"/>
<g clip-path="url(#clip2)" clip-rule="nonzero">
<path style=" stroke:none;fill-rule:evenodd;fill:rgb(0%,16.078431%,57.647059%);fill-opacity:1;" d="M 212.394531 43.882812 L 575.414062 43.882812 L 575.414062 87.582031 L 212.394531 87.582031 Z M 212.394531 43.882812 "/>
</g>
<g clip-path="url(#clip3)" clip-rule="nonzero">
<path style=" stroke:none;fill-rule:evenodd;fill:rgb(0%,16.078431%,57.647059%);fill-opacity:1;" d="M 212.394531 128.960938 L 575.414062 128.960938 L 575.414062 172.660156 L 212.394531 172.660156 Z M 212.394531 128.960938 "/>
</g>
<path style="fill-rule:evenodd;fill:url(#linear7);stroke-width:3.125;stroke-linecap:butt;stroke-linejoin:miter;stroke:rgb(79.607843%,66.666667%,9.803922%);stroke-opacity:1;stroke-miterlimit:4;" d="M 101.657133 488.823843 C 111.299205 506.933702 123.516088 521.843901 132.080834 547.505819 C 133.923062 581.818669 130.012367 588.358041 136.713338 604.561032 C 139.406654 610.497101 143.25271 612.942632 143.996065 626.689319 C 142.854099 646.361301 134.353993 647.589454 125.993939 647.05079 C 124.496455 641.006989 125.993939 637.096293 115.349953 626.689319 C 109.586256 620.527011 102.734459 610.346275 99.114642 597.192119 C 97.994222 585.126061 97.3586 569.429414 91.325571 556.307577 C 82.653093 542.12996 81.360301 535.23507 73.118753 527.81229 C 64.62942 517.943979 65.114217 514.474988 60.470939 503.723269 C 71.858281 485.268665 82.653093 483.394117 101.657133 488.823843 Z M 101.657133 488.823843 " transform="matrix(0.362587,0,0,0.362587,87.253688,-46.030417)"/>
<g clip-path="url(#clip4)" clip-rule="nonzero">
<path style=" stroke:none;fill-rule:evenodd;fill:rgb(0%,16.078431%,57.647059%);fill-opacity:1;" d="M -0.00390625 213.054688 L 575.421875 213.054688 L 575.421875 256.75 L -0.00390625 256.75 Z M -0.00390625 213.054688 "/>
</g>
<g clip-path="url(#clip5)" clip-rule="nonzero">
<path style=" stroke:none;fill-rule:evenodd;fill:rgb(0%,16.078431%,57.647059%);fill-opacity:1;" d="M -0.00390625 297.636719 L 575.421875 297.636719 L 575.421875 341.335938 L -0.00390625 341.335938 Z M -0.00390625 297.636719 "/>
</g>
<path style="fill-rule:evenodd;fill:rgb(98.039216%,100%,0%);fill-opacity:1;stroke-width:3.125;stroke-linecap:round;stroke-linejoin:miter;stroke:rgb(79.607843%,66.666667%,9.803922%);stroke-opacity:1;stroke-miterlimit:4;" d="M 82.663866 496.871472 L 53.54373 656.229612 L 53.54373 496.871472 Z M 82.663866 496.871472 " transform="matrix(0.362587,0,0,0.362587,87.253688,-46.030417)"/>
<path style="fill-rule:evenodd;fill:rgb(96.078431%,76.862745%,0.784314%);fill-opacity:1;stroke-width:3.125;stroke-linecap:butt;stroke-linejoin:miter;stroke:rgb(79.607843%,66.666667%,9.803922%);stroke-opacity:1;stroke-miterlimit:4;" d="M 82.656406 496.87196 L 53.53627 656.230101 L 53.53627 496.87196 Z M 82.656406 496.87196 " transform="matrix(-0.362587,0,0,0.362587,126.079544,-46.030594)"/>
<path style="fill-rule:evenodd;fill:rgb(98.039216%,100%,0%);fill-opacity:1;stroke-width:3.125;stroke-linecap:round;stroke-linejoin:miter;stroke:rgb(79.607843%,66.666667%,9.803922%);stroke-opacity:1;stroke-miterlimit:4;" d="M 82.655057 496.870779 L 53.537193 656.228961 L 53.547182 496.870796 Z M 82.655057 496.870779 " transform="matrix(0.255918,-0.256857,0.256857,0.255918,-16.203368,13.056822)"/>
<path style="fill-rule:evenodd;fill:rgb(96.078431%,76.862745%,0.784314%);fill-opacity:1;stroke-width:3.125;stroke-linecap:butt;stroke-linejoin:miter;stroke:rgb(79.607843%,66.666667%,9.803922%);stroke-opacity:1;stroke-miterlimit:4;" d="M 82.657618 496.869836 L 53.544497 656.228012 L 53.534508 496.869847 Z M 82.657618 496.869836 " transform="matrix(-0.255918,0.256857,0.256857,0.255918,11.200986,-14.447606)"/>
<path style="fill-rule:evenodd;fill:rgb(98.039216%,100%,0%);fill-opacity:1;stroke-width:3.125;stroke-linecap:round;stroke-linejoin:miter;stroke:rgb(79.607843%,66.666667%,9.803922%);stroke-opacity:1;stroke-miterlimit:4;" d="M 82.658339 496.866152 L 53.543337 656.232792 L 53.538186 496.874642 Z M 82.658339 496.866152 " transform="matrix(-0.000699141,-0.362587,0.362587,-0.000699141,-47.400386,127.783093)"/>
<path style="fill-rule:evenodd;fill:rgb(96.078431%,76.862745%,0.784314%);fill-opacity:1;stroke-width:3.125;stroke-linecap:butt;stroke-linejoin:miter;stroke:rgb(79.607843%,66.666667%,9.803922%);stroke-opacity:1;stroke-miterlimit:4;" d="M 82.661933 496.865887 L 53.536651 656.22632 L 53.541801 496.86817 Z M 82.661933 496.865887 " transform="matrix(0.000699141,0.362587,0.362587,-0.000699141,-47.472903,88.957237)"/>
<path style="fill-rule:evenodd;fill:rgb(98.039216%,100%,0%);fill-opacity:1;stroke-width:3.125;stroke-linecap:round;stroke-linejoin:miter;stroke:rgb(79.607843%,66.666667%,9.803922%);stroke-opacity:1;stroke-miterlimit:4;" d="M 82.658324 496.867568 L 53.54481 656.233361 L 53.54285 496.875182 Z M 82.658324 496.867568 " transform="matrix(-0.255784,-0.256991,0.256991,-0.255784,11.13572,230.543982)"/>
<path style="fill-rule:evenodd;fill:rgb(96.078431%,76.862745%,0.784314%);fill-opacity:1;stroke-width:3.125;stroke-linecap:butt;stroke-linejoin:miter;stroke:rgb(79.607843%,66.666667%,9.803922%);stroke-opacity:1;stroke-miterlimit:4;" d="M 82.664786 496.872786 L 53.539716 656.230951 L 53.541677 496.872772 Z M 82.664786 496.872786 " transform="matrix(0.255784,0.256991,0.256991,-0.255784,-16.25413,203.0236)"/>
<path style="fill-rule:evenodd;fill:rgb(98.039216%,100%,0%);fill-opacity:1;stroke-width:3.125;stroke-linecap:round;stroke-linejoin:miter;stroke:rgb(79.607843%,66.666667%,9.803922%);stroke-opacity:1;stroke-miterlimit:4;" d="M 82.654777 496.87166 L 53.546204 656.226742 L 53.54542 496.868601 Z M 82.654777 496.87166 " transform="matrix(-0.362587,0.000709076,-0.000709076,-0.362587,126.380492,262.139846)"/>
<path style="fill-rule:evenodd;fill:rgb(96.078431%,76.862745%,0.784314%);fill-opacity:1;stroke-width:3.125;stroke-linecap:butt;stroke-linejoin:miter;stroke:rgb(79.607843%,66.666667%,9.803922%);stroke-opacity:1;stroke-miterlimit:4;" d="M 82.664315 496.866095 L 53.543401 656.227318 L 53.544185 496.869176 Z M 82.664315 496.866095 " transform="matrix(0.362587,-0.000709076,-0.000709076,-0.362587,87.55506,262.215989)"/>
<path style="fill-rule:evenodd;fill:rgb(98.039216%,100%,0%);fill-opacity:1;stroke-width:3.125;stroke-linecap:round;stroke-linejoin:miter;stroke:rgb(79.607843%,66.666667%,9.803922%);stroke-opacity:1;stroke-miterlimit:4;" d="M 82.663483 496.872997 L 53.536608 656.229515 L 53.540376 496.871338 Z M 82.663483 496.872997 " transform="matrix(-0.255903,0.256871,-0.256871,-0.255903,229.540226,203.081614)"/>
<path style="fill-rule:evenodd;fill:rgb(96.078431%,76.862745%,0.784314%);fill-opacity:1;stroke-width:3.125;stroke-linecap:butt;stroke-linejoin:miter;stroke:rgb(79.607843%,66.666667%,9.803922%);stroke-opacity:1;stroke-miterlimit:4;" d="M 82.660186 496.872581 L 53.540847 656.232416 L 53.544683 496.866608 Z M 82.660186 496.872581 " transform="matrix(0.255903,-0.256871,-0.256871,-0.255903,202.139498,230.587492)"/>
<path style="fill-rule:evenodd;fill:rgb(98.039216%,100%,0%);fill-opacity:1;stroke-width:3.125;stroke-linecap:round;stroke-linejoin:miter;stroke:rgb(79.607843%,66.666667%,9.803922%);stroke-opacity:1;stroke-miterlimit:4;" d="M 82.661386 496.875325 L 53.544295 656.233503 L 53.539609 496.865749 Z M 82.661386 496.875325 " transform="matrix(0.00400913,0.362566,-0.362566,0.00400913,260.545073,86.955755)"/>
<path style="fill-rule:evenodd;fill:rgb(96.078431%,76.862745%,0.784314%);fill-opacity:1;stroke-width:3.125;stroke-linecap:butt;stroke-linejoin:miter;stroke:rgb(79.607843%,66.666667%,9.803922%);stroke-opacity:1;stroke-miterlimit:4;" d="M 82.658006 496.873011 L 53.542077 656.228676 L 53.53611 496.871813 Z M 82.658006 496.873011 " transform="matrix(-0.00400913,-0.362566,-0.362566,0.00400913,260.976552,125.781611)"/>
<path style="fill-rule:evenodd;fill:rgb(98.039216%,100%,0%);fill-opacity:1;stroke-width:3.125;stroke-linecap:round;stroke-linejoin:miter;stroke:rgb(79.607843%,66.666667%,9.803922%);stroke-opacity:1;stroke-miterlimit:4;" d="M 82.661954 496.867618 L 53.539842 656.226771 L 53.53799 496.871684 Z M 82.661954 496.867618 " transform="matrix(0.258289,0.254471,-0.254471,0.258289,200.990096,-15.327606)"/>
<path style="fill-rule:evenodd;fill:rgb(96.078431%,76.862745%,0.784314%);fill-opacity:1;stroke-width:3.125;stroke-linecap:butt;stroke-linejoin:miter;stroke:rgb(79.607843%,66.666667%,9.803922%);stroke-opacity:1;stroke-miterlimit:4;" d="M 82.660897 496.867779 L 53.542754 656.226361 L 53.544607 496.871274 Z M 82.660897 496.867779 " transform="matrix(-0.258289,-0.254471,-0.254471,0.258289,228.648261,11.921923)"/>
<path style="fill-rule:evenodd;fill:rgb(98.039216%,100%,0%);fill-opacity:1;stroke-width:3.125;stroke-linecap:butt;stroke-linejoin:miter;stroke:rgb(79.607843%,66.666667%,9.803922%);stroke-opacity:1;stroke-miterlimit:4;" d="M 134.809191 422.285545 C 134.809191 377.404122 97.996943 341.022805 52.58763 341.022805 C 7.178317 341.022805 -29.633931 377.404122 -29.633931 422.285545 C -29.633931 467.177741 7.178317 503.559058 52.58763 503.559058 C 97.996943 503.559058 134.809191 467.177741 134.809191 422.285545 Z M 134.809191 422.285545 " transform="matrix(0.362587,0,0,0.362587,87.600358,-44.990408)"/>
</g>
</svg>
