<?xml version="1.0" encoding="UTF-8"?>
<svg xmlns="http://www.w3.org/2000/svg" xmlns:xlink="http://www.w3.org/1999/xlink" width="384pt" height="384pt" viewBox="0 0 384 384" version="1.1">
<defs>
<clipPath id="clip1">
  <path d="M 0 0 L 383.988281 0 L 383.988281 383.988281 L 0 383.988281 Z M 0 0 "/>
</clipPath>
<clipPath id="clip2">
  <path d="M 0 0 L 383.988281 0 L 383.988281 133 L 0 133 Z M 0 0 "/>
</clipPath>
<clipPath id="clip3">
  <path d="M 0 124 L 383.988281 124 L 383.988281 133 L 0 133 Z M 0 124 "/>
</clipPath>
<clipPath id="clip4">
  <path d="M 0 259 L 383.988281 259 L 383.988281 383.988281 L 0 383.988281 Z M 0 259 "/>
</clipPath>
<clipPath id="clip5">
  <path d="M 0 259 L 383.988281 259 L 383.988281 269 L 0 269 Z M 0 259 "/>
</clipPath>
</defs>
<g id="surface1">
<g clip-path="url(#clip1)" clip-rule="nonzero">
<path style=" stroke:none;fill-rule:evenodd;fill:rgb(100%,100%,100%);fill-opacity:1;" d="M 0 0 L 767.984375 0 L 767.984375 383.988281 L 0 383.988281 Z M 0 0 "/>
</g>
<g clip-path="url(#clip2)" clip-rule="nonzero">
<path style=" stroke:none;fill-rule:evenodd;fill:rgb(58.039216%,67.45098%,83.137255%);fill-opacity:1;" d="M 0 0 L 767.984375 0 L 767.984375 132.910156 L 0 132.910156 Z M 0 0 "/>
</g>
<g clip-path="url(#clip3)" clip-rule="nonzero">
<path style=" stroke:none;fill-rule:evenodd;fill:rgb(71.764706%,18.823529%,0%);fill-opacity:1;" d="M 0 124.109375 L 767.984375 124.109375 L 767.984375 132.910156 L 0 132.910156 Z M 0 124.109375 "/>
</g>
<g clip-path="url(#clip4)" clip-rule="nonzero">
<path style=" stroke:none;fill-rule:evenodd;fill:rgb(0%,66.27451%,0%);fill-opacity:1;" d="M 0 259.878906 L 767.984375 259.878906 L 767.984375 383.988281 L 0 383.988281 Z M 0 259.878906 "/>
</g>
<g clip-path="url(#clip5)" clip-rule="nonzero">
<path style=" stroke:none;fill-rule:evenodd;fill:rgb(71.764706%,18.823529%,0%);fill-opacity:1;" d="M 0 259.878906 L 767.984375 259.878906 L 767.984375 268.683594 L 0 268.683594 Z M 0 259.878906 "/>
</g>
<path style=" stroke:none;fill-rule:evenodd;fill:rgb(99.607843%,100%,100%);fill-opacity:1;" d="M 202.117188 39.511719 L 194.964844 34.589844 L 187.886719 39.625 L 190.328125 31.261719 L 183.386719 26.054688 L 192.042969 25.804688 L 194.824219 17.546875 L 197.738281 25.753906 L 206.402344 25.863281 L 199.546875 31.183594 Z M 202.117188 39.511719 "/>
<path style=" stroke:none;fill-rule:evenodd;fill:rgb(99.607843%,100%,100%);fill-opacity:1;" d="M 168.390625 105.867188 L 161.238281 100.945312 L 154.160156 105.980469 L 156.601562 97.621094 L 149.660156 92.414062 L 158.316406 92.160156 L 161.097656 83.902344 L 164.011719 92.109375 L 172.675781 92.21875 L 165.820312 97.542969 Z M 168.390625 105.867188 "/>
<path style=" stroke:none;fill-rule:evenodd;fill:rgb(99.607843%,100%,100%);fill-opacity:1;" d="M 202.441406 105.867188 L 195.289062 100.945312 L 188.210938 105.980469 L 190.652344 97.621094 L 183.710938 92.414062 L 192.367188 92.160156 L 195.148438 83.902344 L 198.0625 92.109375 L 206.726562 92.21875 L 199.867188 97.542969 Z M 202.441406 105.867188 "/>
<path style=" stroke:none;fill-rule:evenodd;fill:rgb(99.607843%,100%,100%);fill-opacity:1;" d="M 233.902344 105.867188 L 226.75 100.945312 L 219.667969 105.980469 L 222.113281 97.621094 L 215.167969 92.414062 L 223.828125 92.160156 L 226.605469 83.902344 L 229.519531 92.109375 L 238.1875 92.21875 L 231.328125 97.542969 Z M 233.902344 105.867188 "/>
<path style=" stroke:none;fill-rule:evenodd;fill:rgb(99.607843%,100%,100%);fill-opacity:1;" d="M 263.082031 105.867188 L 255.933594 100.945312 L 248.851562 105.980469 L 251.296875 97.621094 L 244.351562 92.414062 L 253.011719 92.160156 L 255.789062 83.902344 L 258.703125 92.109375 L 267.371094 92.21875 L 260.511719 97.542969 Z M 263.082031 105.867188 "/>
<path style=" stroke:none;fill-rule:evenodd;fill:rgb(99.607843%,100%,100%);fill-opacity:1;" d="M 132.71875 105.867188 L 125.570312 100.945312 L 118.488281 105.980469 L 120.933594 97.621094 L 113.988281 92.414062 L 122.648438 92.160156 L 125.425781 83.902344 L 128.339844 92.109375 L 137.007812 92.21875 L 130.148438 97.542969 Z M 132.71875 105.867188 "/>
<path style=" stroke:none;fill-rule:evenodd;fill:rgb(99.607843%,100%,100%);fill-opacity:1;" d="M 167.742188 72.933594 L 160.589844 68.011719 L 153.511719 73.046875 L 155.953125 64.6875 L 149.011719 59.480469 L 157.667969 59.226562 L 160.449219 50.96875 L 163.363281 59.175781 L 172.027344 59.285156 L 165.171875 64.609375 Z M 167.742188 72.933594 "/>
<path style=" stroke:none;fill-rule:evenodd;fill:rgb(99.607843%,100%,100%);fill-opacity:1;" d="M 202.117188 72.933594 L 194.964844 68.011719 L 187.886719 73.046875 L 190.328125 64.6875 L 183.386719 59.480469 L 192.042969 59.226562 L 194.824219 50.96875 L 197.738281 59.175781 L 206.402344 59.285156 L 199.546875 64.609375 Z M 202.117188 72.933594 "/>
<path style=" stroke:none;fill-rule:evenodd;fill:rgb(99.607843%,100%,100%);fill-opacity:1;" d="M 234.542969 72.933594 L 227.390625 68.011719 L 220.3125 73.046875 L 222.753906 64.6875 L 215.8125 59.480469 L 224.46875 59.226562 L 227.25 50.96875 L 230.164062 59.175781 L 238.828125 59.285156 L 231.972656 64.609375 Z M 234.542969 72.933594 "/>
<path style=" stroke:none;fill-rule:evenodd;fill:rgb(99.607843%,100%,100%);fill-opacity:1;" d="M 262.757812 72.933594 L 255.605469 68.011719 L 248.527344 73.046875 L 250.96875 64.6875 L 244.027344 59.480469 L 252.683594 59.226562 L 255.464844 50.96875 L 258.378906 59.175781 L 267.042969 59.285156 L 260.1875 64.609375 Z M 262.757812 72.933594 "/>
<path style=" stroke:none;fill-rule:evenodd;fill:rgb(99.607843%,100%,100%);fill-opacity:1;" d="M 262.433594 39.511719 L 255.28125 34.589844 L 248.203125 39.625 L 250.644531 31.261719 L 243.703125 26.054688 L 252.359375 25.804688 L 255.140625 17.546875 L 258.054688 25.753906 L 266.71875 25.863281 L 259.859375 31.183594 Z M 262.433594 39.511719 "/>
<path style=" stroke:none;fill-rule:evenodd;fill:rgb(99.607843%,100%,100%);fill-opacity:1;" d="M 234.21875 39.511719 L 227.066406 34.589844 L 219.988281 39.625 L 222.429688 31.261719 L 215.488281 26.054688 L 224.144531 25.804688 L 226.925781 17.546875 L 229.839844 25.753906 L 238.503906 25.863281 L 231.644531 31.183594 Z M 234.21875 39.511719 "/>
<path style=" stroke:none;fill-rule:evenodd;fill:rgb(100%,100%,100%);fill-opacity:1;" d="M 110.257812 20.085938 C 71.992188 9.597656 47.75 36.691406 48.117188 60.96875 C 48.480469 85.25 70.855469 110.957031 105.390625 104.542969 C 51.128906 129.972656 23.378906 89.917969 24.484375 58.117188 C 26.390625 20.527344 68.640625 -10.128906 110.257812 20.085938 Z M 110.257812 20.085938 "/>
</g>
</svg>
