<?xml version="1.0" encoding="UTF-8"?>
<svg xmlns="http://www.w3.org/2000/svg" xmlns:xlink="http://www.w3.org/1999/xlink" width="384pt" height="384pt" viewBox="0 0 384 384" version="1.1">
<g id="surface1">
<path style=" stroke:none;fill-rule:evenodd;fill:rgb(95.686275%,94.509804%,0%);fill-opacity:1;" d="M 0 0 L 382.78125 0 L 382.78125 384 L 0 384 Z M 0 0 "/>
<path style=" stroke:none;fill-rule:evenodd;fill:rgb(9.803922%,60.392157%,0%);fill-opacity:1;" d="M 289.214844 0 L 383.996094 0 L 383.996094 384 L 289.214844 384 Z M 289.214844 0 "/>
<path style=" stroke:none;fill-rule:evenodd;fill:rgb(0%,34.509804%,66.666667%);fill-opacity:1;" d="M 0 0 L 94.785156 0 L 94.785156 384 L 0 384 Z M 0 0 "/>
<path style=" stroke:none;fill-rule:evenodd;fill:rgb(9.803922%,60.392157%,0%);fill-opacity:1;" d="M 143.40625 103.957031 L 106.304688 161.066406 L 142.101562 220.582031 L 177.160156 161.59375 Z M 143.40625 103.957031 "/>
<path style=" stroke:none;fill-rule:evenodd;fill:rgb(9.803922%,60.392157%,0%);fill-opacity:1;" d="M 240.429688 103.957031 L 203.328125 161.066406 L 239.128906 220.582031 L 274.179688 161.59375 Z M 240.429688 103.957031 "/>
<path style=" stroke:none;fill-rule:evenodd;fill:rgb(9.803922%,60.392157%,0%);fill-opacity:1;" d="M 191.429688 181.871094 L 154.328125 238.980469 L 190.125 298.492188 L 225.183594 239.507812 Z M 191.429688 181.871094 "/>
</g>
</svg>
