<?xml version="1.0" encoding="UTF-8"?>
<svg xmlns="http://www.w3.org/2000/svg" xmlns:xlink="http://www.w3.org/1999/xlink" width="384pt" height="384pt" viewBox="0 0 384 384" version="1.1">
<defs>
<linearGradient id="linear0" gradientUnits="userSpaceOnUse" x1="103.08" y1="111.28" x2="92.551" y2="107.76" gradientTransform="matrix(0.65977,0,0,1.4919,-3.68,-0.67323)">
<stop offset="0" style="stop-color:rgb(100%,0%,0%);stop-opacity:1;"/>
<stop offset="1" style="stop-color:rgb(100%,100%,0%);stop-opacity:1;"/>
</linearGradient>
<linearGradient id="linear1" gradientUnits="userSpaceOnUse" x1="103.08" y1="111.28" x2="92.551" y2="107.76" gradientTransform="matrix(0.65977,0,0,1.4919,-3.6759,-0.45102)">
<stop offset="0" style="stop-color:rgb(100%,0%,0%);stop-opacity:1;"/>
<stop offset="1" style="stop-color:rgb(100%,100%,0%);stop-opacity:1;"/>
</linearGradient>
<linearGradient id="linear2" gradientUnits="userSpaceOnUse" x1="103.08" y1="111.28" x2="92.551" y2="107.76" gradientTransform="matrix(0.65977,0,0,1.4919,-4.4568,-0.24902)">
<stop offset="0" style="stop-color:rgb(100%,0%,0%);stop-opacity:1;"/>
<stop offset="1" style="stop-color:rgb(100%,100%,0%);stop-opacity:1;"/>
</linearGradient>
<linearGradient id="linear3" gradientUnits="userSpaceOnUse" x1="103.08" y1="111.28" x2="92.551" y2="107.76" gradientTransform="matrix(0.65977,0,0,1.4919,-3.6941,-0.033018)">
<stop offset="0" style="stop-color:rgb(100%,0%,0%);stop-opacity:1;"/>
<stop offset="1" style="stop-color:rgb(100%,100%,0%);stop-opacity:1;"/>
</linearGradient>
<linearGradient id="linear4" gradientUnits="userSpaceOnUse" x1="103.08" y1="111.28" x2="92.551" y2="107.76" gradientTransform="matrix(0.65977,0,0,1.4919,-3.6957,0.17928)">
<stop offset="0" style="stop-color:rgb(100%,0%,0%);stop-opacity:1;"/>
<stop offset="1" style="stop-color:rgb(100%,100%,0%);stop-opacity:1;"/>
</linearGradient>
<linearGradient id="linear5" gradientUnits="userSpaceOnUse" x1="103.08" y1="111.28" x2="92.551" y2="107.76" gradientTransform="matrix(0.65977,0,0,1.4919,-3.6998,0.39469)">
<stop offset="0" style="stop-color:rgb(100%,0%,0%);stop-opacity:1;"/>
<stop offset="1" style="stop-color:rgb(100%,100%,0%);stop-opacity:1;"/>
</linearGradient>
<linearGradient id="linear6" gradientUnits="userSpaceOnUse" x1="103.08" y1="111.28" x2="92.551" y2="107.76" gradientTransform="matrix(0.65977,0,0,1.4919,-4.4626,0.39119)">
<stop offset="0" style="stop-color:rgb(100%,0%,0%);stop-opacity:1;"/>
<stop offset="1" style="stop-color:rgb(100%,100%,0%);stop-opacity:1;"/>
</linearGradient>
<linearGradient id="linear7" gradientUnits="userSpaceOnUse" x1="103.08" y1="111.28" x2="92.551" y2="107.76" gradientTransform="matrix(0.65977,0,0,1.4919,-4.4556,0.17973)">
<stop offset="0" style="stop-color:rgb(100%,0%,0%);stop-opacity:1;"/>
<stop offset="1" style="stop-color:rgb(100%,100%,0%);stop-opacity:1;"/>
</linearGradient>
<linearGradient id="linear8" gradientUnits="userSpaceOnUse" x1="103.08" y1="111.28" x2="92.551" y2="107.76" gradientTransform="matrix(0.65977,0,0,1.4919,-4.4463,-0.036398)">
<stop offset="0" style="stop-color:rgb(100%,0%,0%);stop-opacity:1;"/>
<stop offset="1" style="stop-color:rgb(100%,100%,0%);stop-opacity:1;"/>
</linearGradient>
<linearGradient id="linear9" gradientUnits="userSpaceOnUse" x1="103.08" y1="111.28" x2="92.551" y2="107.76" gradientTransform="matrix(0.85004,0,0,1.9222,723.32,109.68)">
<stop offset="0" style="stop-color:rgb(100%,0%,0%);stop-opacity:1;"/>
<stop offset="1" style="stop-color:rgb(100%,100%,0%);stop-opacity:1;"/>
</linearGradient>
<linearGradient id="linear10" gradientUnits="userSpaceOnUse" x1="103.08" y1="111.28" x2="92.551" y2="107.76" gradientTransform="matrix(0.65977,0,0,1.4919,-4.4545,-0.46164)">
<stop offset="0" style="stop-color:rgb(100%,0%,0%);stop-opacity:1;"/>
<stop offset="1" style="stop-color:rgb(100%,100%,0%);stop-opacity:1;"/>
</linearGradient>
<linearGradient id="linear11" gradientUnits="userSpaceOnUse" x1="103.08" y1="111.28" x2="92.551" y2="107.76" gradientTransform="matrix(0.65977,0,0,1.4919,-3.8334,-0.26294)">
<stop offset="0" style="stop-color:rgb(100%,0%,0%);stop-opacity:1;"/>
<stop offset="1" style="stop-color:rgb(100%,100%,0%);stop-opacity:1;"/>
</linearGradient>
</defs>
<g id="surface1">
<rect x="0" y="0" width="384" height="384" style="fill:rgb(0%,0%,40%);fill-opacity:1;stroke:none;"/>
<path style=" stroke:none;fill-rule:evenodd;fill:rgb(0%,0%,40%);fill-opacity:1;" d="M 0 0 L 384 0 L 384 192 L 0 192 Z M 0 0 "/>
<path style=" stroke:none;fill-rule:nonzero;fill:rgb(100%,100%,100%);fill-opacity:1;" d="M 0 0 L 0 21.464844 L 341.066406 192 L 384 192 L 384 170.535156 L 42.929688 0 Z M 384 0 L 384 21.464844 L 42.929688 192 L 0 192 L 0 170.535156 L 341.066406 0 Z M 384 0 "/>
<path style=" stroke:none;fill-rule:nonzero;fill:rgb(100%,100%,100%);fill-opacity:1;" d="M 160 0 L 160 192 L 224 192 L 224 0 Z M 0 64 L 0 128 L 384 128 L 384 64 Z M 0 64 "/>
<path style=" stroke:none;fill-rule:nonzero;fill:rgb(80%,0%,0%);fill-opacity:1;" d="M 0 76.800781 L 0 115.199219 L 384 115.199219 L 384 76.800781 Z M 172.800781 0 L 172.800781 192 L 211.199219 192 L 211.199219 0 Z M 172.800781 0 "/>
<path style=" stroke:none;fill-rule:nonzero;fill:rgb(80%,0%,0%);fill-opacity:1;" d="M 0 192 L 128 128 L 156.621094 128 L 28.621094 192 Z M 0 0 L 128 64 L 99.378906 64 L 0 14.3125 Z M 227.378906 64 L 355.378906 0 L 384 0 L 256 64 Z M 384 192 L 256 128 L 284.621094 128 L 384 177.6875 Z M 384 192 "/>
<path style=" stroke:none;fill-rule:evenodd;fill:rgb(100%,100%,100%);fill-opacity:1;" d="M 192.292969 145.210938 L 352.550781 144.617188 L 352.253906 287.335938 C 352.253906 287.335938 357.902344 309.039062 285.058594 342.042969 C 311.226562 339.367188 339.769531 311.417969 339.769531 311.417969 C 339.769531 311.417969 351.363281 296.554688 357.011719 304.878906 C 362.660156 313.203125 368.011719 317.367188 372.175781 320.636719 C 376.339844 323.90625 379.609375 332.828125 373.363281 339.367188 C 367.121094 345.910156 357.308594 346.800781 354.632812 338.773438 C 350.472656 340.855469 324.902344 371.777344 272.578125 373.261719 C 219.355469 372.371094 190.21875 338.476562 190.21875 338.476562 C 190.21875 338.476562 183.082031 349.773438 172.972656 340.855469 C 163.164062 329.257812 170.59375 321.824219 170.59375 321.824219 C 170.59375 321.824219 178.921875 317.066406 181.296875 313.796875 C 185.164062 309.335938 186.351562 303.390625 192.894531 303.390625 C 200.625 303.984375 203.597656 310.230469 203.597656 310.230469 C 203.597656 310.230469 230.355469 338.476562 259.195312 342.042969 C 194.082031 310.824219 191.703125 291.5 192.003906 286.742188 L 192.300781 145.214844 Z M 192.292969 145.210938 "/>
<path style="fill-rule:evenodd;fill:rgb(0%,38.039216%,16.078431%);fill-opacity:1;stroke-width:1.6105;stroke-linecap:butt;stroke-linejoin:miter;stroke:rgb(0%,0%,0%);stroke-opacity:1;stroke-miterlimit:4;" d="M 667.561667 128.088625 L 871.322083 126.901125 L 871.322083 310.052167 C 871.717917 333.838625 831.67625 358.020917 769.040833 388.937583 C 704.431458 355.640708 667.171042 335.421958 666.77 309.661542 L 667.561667 128.099042 Z M 667.561667 128.088625 " transform="matrix(0.75,0,0,0.75,-304.515,53.00775)"/>
<path style="fill:none;stroke-width:1.25;stroke-linecap:butt;stroke-linejoin:miter;stroke:rgb(96.862745%,77.647059%,0%);stroke-opacity:1;stroke-miterlimit:4;" d="M 69.785522 170.530212 L 79.119612 156.818114 L 88.502212 170.558509 " transform="matrix(0.9663,0,0,0.9663,147.0975,135.65025)"/>
<path style="fill-rule:evenodd;fill:rgb(96.862745%,77.647059%,0%);fill-opacity:1;stroke-width:0.575;stroke-linecap:butt;stroke-linejoin:miter;stroke:rgb(0%,0%,0%);stroke-opacity:1;stroke-miterlimit:4;" d="M 80.920537 156.721806 C 80.920537 157.662696 80.158155 158.425078 79.217265 158.425078 C 78.272656 158.425078 77.510274 157.662696 77.510274 156.721806 C 77.510274 155.777196 78.272656 155.014815 79.217265 155.014815 C 80.158155 155.014815 80.920537 155.777196 80.920537 156.721806 Z M 80.920537 156.721806 " transform="matrix(1.050368,0,0,1.050368,140.366931,130.860977)"/>
<path style="fill-rule:evenodd;fill:rgb(96.862745%,77.647059%,0%);fill-opacity:1;stroke-width:0.625;stroke-linecap:butt;stroke-linejoin:miter;stroke:rgb(0%,0%,0%);stroke-opacity:1;stroke-miterlimit:4;" d="M 71.539959 180.660671 L 86.012043 180.701096 C 86.012043 180.701096 86.242465 178.821342 84.504198 177.681362 C 92.083851 176.638402 90.115162 169.952137 96.461858 169.572144 C 97.694815 169.76214 93.147023 172.418051 93.147023 172.418051 C 93.147023 172.418051 89.318793 175.118429 91.061103 176.48883 C 92.443632 177.5803 93.050004 175.825863 93.240001 174.499929 C 93.429997 173.173995 99.400743 172.321031 98.547779 168.529183 C 97.124825 165.404345 88.785186 170.615104 88.785186 170.615104 L 82.838695 170.582764 C 82.466787 169.915755 80.825539 167.235589 79.135782 167.223462 C 77.126669 167.300269 75.7118 170.615104 75.7118 170.615104 L 62.254379 170.615104 C 62.254379 170.615104 61.793536 174.067383 68.617245 174.73035 C 70.153388 176.739464 71.341878 177.297326 72.679939 177.818806 C 71.786551 178.55858 71.535917 179.456011 71.539959 180.660671 Z M 71.539959 180.660671 " transform="matrix(0.9663,0,0,0.9663,147.0975,135.65025)"/>
<path style="fill:none;stroke-width:0.625;stroke-linecap:butt;stroke-linejoin:miter;stroke:rgb(0%,0%,0%);stroke-opacity:1;stroke-miterlimit:4;" d="M 72.582919 177.721787 L 84.6376 177.677319 " transform="matrix(0.9663,0,0,0.9663,147.0975,135.65025)"/>
<path style="fill:none;stroke-width:0.625;stroke-linecap:butt;stroke-linejoin:miter;stroke:rgb(0%,0%,0%);stroke-opacity:1;stroke-miterlimit:4;" d="M 67.060889 170.611062 C 67.060889 170.611062 68.027043 176.246281 72.477815 177.584342 " transform="matrix(0.9663,0,0,0.9663,147.0975,135.65025)"/>
<path style="fill-rule:evenodd;fill:url(#linear0);stroke-width:0.625;stroke-linecap:butt;stroke-linejoin:miter;stroke:rgb(0%,0%,0%);stroke-opacity:1;stroke-miterlimit:4;" d="M 66.321115 170.538297 C 66.765788 168.387697 67.58237 168.015788 68.471716 165.270943 C 68.621287 162.602905 66.321115 162.898007 66.988125 161.192079 C 68.172572 159.33658 67.58237 157.557888 65.354962 156.147062 C 65.799635 158.596806 62.460545 160.896978 62.460545 162.898007 C 62.460545 164.903077 64.170515 164.458404 63.944136 167.498351 C 64.093708 169.277043 63.499463 168.83237 63.353934 170.538297 Z M 66.321115 170.538297 " transform="matrix(0.9663,0,0,0.9663,147.0975,135.65025)"/>
<path style="fill-rule:evenodd;fill:rgb(96.862745%,77.647059%,0%);fill-opacity:1;stroke-width:0.625;stroke-linecap:butt;stroke-linejoin:miter;stroke:rgb(0%,0%,0%);stroke-opacity:1;stroke-miterlimit:4;" d="M 80.92398 156.720698 C 80.92398 157.662596 80.159951 158.426625 79.218053 158.426625 C 78.276155 158.426625 77.512126 157.662596 77.512126 156.720698 C 77.512126 155.778799 78.276155 155.01477 79.218053 155.01477 C 80.159951 155.01477 80.92398 155.778799 80.92398 156.720698 Z M 80.92398 156.720698 " transform="matrix(0.9663,0,0,0.9663,147.025814,136.080321)"/>
<path style="fill:none;stroke-width:1.25;stroke-linecap:butt;stroke-linejoin:miter;stroke:rgb(96.862745%,77.647059%,0%);stroke-opacity:1;stroke-miterlimit:4;" d="M 69.787786 170.529921 L 79.121876 156.817823 L 88.500433 170.558218 " transform="matrix(0.9663,0,0,0.9663,146.5875,108.381)"/>
<path style="fill-rule:evenodd;fill:rgb(96.862745%,77.647059%,0%);fill-opacity:1;stroke-width:0.575;stroke-linecap:butt;stroke-linejoin:miter;stroke:rgb(0%,0%,0%);stroke-opacity:1;stroke-miterlimit:4;" d="M 80.92262 156.721538 C 80.92262 157.662428 80.160238 158.42481 79.215629 158.42481 C 78.274738 158.42481 77.512357 157.662428 77.512357 156.721538 C 77.508638 155.776929 78.274738 155.014547 79.215629 155.014547 C 80.160238 155.014547 80.92262 155.776929 80.92262 156.721538 Z M 80.92262 156.721538 " transform="matrix(1.050368,0,0,1.050368,139.856931,103.591727)"/>
<path style="fill-rule:evenodd;fill:rgb(96.862745%,77.647059%,0%);fill-opacity:1;stroke-width:0.625;stroke-linecap:butt;stroke-linejoin:miter;stroke:rgb(0%,0%,0%);stroke-opacity:1;stroke-miterlimit:4;" d="M 71.542223 180.66038 L 86.014307 180.700805 C 86.014307 180.700805 86.240686 178.821051 84.502419 177.681071 C 92.082072 176.638111 90.113384 169.951846 96.464122 169.571853 C 97.693037 169.761849 93.145245 172.41776 93.145245 172.41776 C 93.145245 172.41776 89.317015 175.118137 91.059324 176.492581 C 92.445895 177.580009 93.052268 175.825572 93.242264 174.499638 C 93.428218 173.173704 99.398964 172.32074 98.546 168.532935 C 97.127089 165.404054 88.78745 170.614813 88.78745 170.614813 L 82.836917 170.582473 C 82.469051 169.915464 80.827803 167.239341 79.134003 167.223171 C 77.12489 167.299978 75.710021 170.614813 75.710021 170.614813 L 62.256643 170.614813 C 62.256643 170.614813 61.7958 174.067092 68.615466 174.730059 C 70.151609 176.739173 71.344141 177.297035 72.67816 177.818515 C 71.788814 178.558289 71.53818 179.45572 71.542223 180.66038 Z M 71.542223 180.66038 " transform="matrix(0.9663,0,0,0.9663,146.5875,108.381)"/>
<path style="fill:none;stroke-width:0.625;stroke-linecap:butt;stroke-linejoin:miter;stroke:rgb(0%,0%,0%);stroke-opacity:1;stroke-miterlimit:4;" d="M 72.581141 177.721496 L 84.639863 177.677028 " transform="matrix(0.9663,0,0,0.9663,146.5875,108.381)"/>
<path style="fill:none;stroke-width:0.625;stroke-linecap:butt;stroke-linejoin:miter;stroke:rgb(0%,0%,0%);stroke-opacity:1;stroke-miterlimit:4;" d="M 67.063153 170.61077 C 67.063153 170.61077 68.025264 176.250032 72.476036 177.584051 " transform="matrix(0.9663,0,0,0.9663,146.5875,108.381)"/>
<path style="fill-rule:evenodd;fill:url(#linear1);stroke-width:0.625;stroke-linecap:butt;stroke-linejoin:miter;stroke:rgb(0%,0%,0%);stroke-opacity:1;stroke-miterlimit:4;" d="M 66.319337 170.538006 C 66.76401 168.387406 67.580591 168.01954 68.469937 165.274695 C 68.619509 162.602614 66.319337 162.897716 66.986346 161.191788 C 68.174836 159.336289 67.580591 157.557597 65.357226 156.146771 C 65.801899 158.596515 62.462809 160.896687 62.462809 162.897716 C 62.462809 164.902786 64.168736 164.458113 63.9464 167.49806 C 64.095972 169.280794 63.501727 168.832079 63.352155 170.538006 Z M 66.319337 170.538006 " transform="matrix(0.9663,0,0,0.9663,146.5875,108.381)"/>
<path style="fill-rule:evenodd;fill:rgb(96.862745%,77.647059%,0%);fill-opacity:1;stroke-width:0.625;stroke-linecap:butt;stroke-linejoin:miter;stroke:rgb(0%,0%,0%);stroke-opacity:1;stroke-miterlimit:4;" d="M 80.922202 156.720407 C 80.922202 157.662305 80.158173 158.426334 79.216274 158.426334 C 78.274376 158.426334 77.510347 157.662305 77.510347 156.720407 C 77.510347 155.778508 78.274376 155.014479 79.216274 155.014479 C 80.158173 155.014479 80.922202 155.778508 80.922202 156.720407 Z M 80.922202 156.720407 " transform="matrix(0.9663,0,0,0.9663,146.515814,108.811071)"/>
<path style="fill:none;stroke-width:1.25;stroke-linecap:butt;stroke-linejoin:miter;stroke:rgb(96.862745%,77.647059%,0%);stroke-opacity:1;stroke-miterlimit:4;" d="M 69.784714 170.529856 L 79.122846 156.817758 L 88.501404 170.558154 " transform="matrix(0.9663,0,0,0.9663,242.4225,83.592)"/>
<path style="fill-rule:evenodd;fill:rgb(96.862745%,77.647059%,0%);fill-opacity:1;stroke-width:0.575;stroke-linecap:butt;stroke-linejoin:miter;stroke:rgb(0%,0%,0%);stroke-opacity:1;stroke-miterlimit:4;" d="M 80.923512 156.721478 C 80.923512 157.662369 80.157412 158.42475 79.216521 158.42475 C 78.275631 158.42475 77.50953 157.662369 77.50953 156.721478 C 77.50953 155.776869 78.275631 155.014487 79.216521 155.014487 C 80.157412 155.014487 80.923512 155.776869 80.923512 156.721478 Z M 80.923512 156.721478 " transform="matrix(1.050368,0,0,1.050368,235.691931,78.802727)"/>
<path style="fill-rule:evenodd;fill:rgb(96.862745%,77.647059%,0%);fill-opacity:1;stroke-width:0.625;stroke-linecap:butt;stroke-linejoin:miter;stroke:rgb(0%,0%,0%);stroke-opacity:1;stroke-miterlimit:4;" d="M 71.539151 180.660315 L 86.015277 180.70074 C 86.015277 180.70074 86.241656 178.820986 84.503389 177.681006 C 92.083042 176.638046 90.114354 169.951781 96.46105 169.571788 C 97.694007 169.761785 93.146215 172.417695 93.146215 172.417695 C 93.146215 172.417695 89.317985 175.118073 91.060294 176.492517 C 92.446866 177.579944 93.049195 175.825507 93.239192 174.499573 C 93.429189 173.173639 99.399934 172.320676 98.54697 168.53287 C 97.124017 165.403989 88.78842 170.614748 88.78842 170.614748 L 82.837887 170.582408 C 82.465978 169.915399 80.828773 167.239276 79.134974 167.223106 C 77.12586 167.299913 75.710992 170.614748 75.710992 170.614748 L 62.25357 170.614748 C 62.25357 170.614748 61.792727 174.067028 68.616436 174.729995 C 70.152579 176.739108 71.345112 177.29697 72.67913 177.818451 C 71.789784 178.558225 71.539151 179.455656 71.543193 180.660315 Z M 71.539151 180.660315 " transform="matrix(0.9663,0,0,0.9663,242.4225,83.592)"/>
<path style="fill:none;stroke-width:0.625;stroke-linecap:butt;stroke-linejoin:miter;stroke:rgb(0%,0%,0%);stroke-opacity:1;stroke-miterlimit:4;" d="M 72.582111 177.721431 L 84.636791 177.676964 " transform="matrix(0.9663,0,0,0.9663,242.4225,83.592)"/>
<path style="fill:none;stroke-width:0.625;stroke-linecap:butt;stroke-linejoin:miter;stroke:rgb(0%,0%,0%);stroke-opacity:1;stroke-miterlimit:4;" d="M 67.060081 170.610706 C 67.060081 170.610706 68.026234 176.249968 72.477006 177.583987 " transform="matrix(0.9663,0,0,0.9663,242.4225,83.592)"/>
<path style="fill-rule:evenodd;fill:url(#linear2);stroke-width:0.625;stroke-linecap:butt;stroke-linejoin:miter;stroke:rgb(0%,0%,0%);stroke-opacity:1;stroke-miterlimit:4;" d="M 66.320307 170.541984 C 66.76498 168.387341 67.581561 168.019475 68.470907 165.27463 C 68.620479 162.60255 66.320307 162.897651 66.987316 161.191724 C 68.175806 159.336225 67.581561 157.557533 65.354154 156.146707 C 65.798827 158.59645 62.463779 160.896622 62.463779 162.897651 C 62.463779 164.902722 64.169707 164.458049 63.94737 167.497995 C 64.092899 169.280729 63.502697 168.832014 63.353125 170.541984 Z M 66.320307 170.541984 " transform="matrix(0.9663,0,0,0.9663,242.4225,83.592)"/>
<path style="fill-rule:evenodd;fill:rgb(96.862745%,77.647059%,0%);fill-opacity:1;stroke-width:0.625;stroke-linecap:butt;stroke-linejoin:miter;stroke:rgb(0%,0%,0%);stroke-opacity:1;stroke-miterlimit:4;" d="M 80.923172 156.720342 C 80.923172 157.66224 80.159143 158.426269 79.217245 158.426269 C 78.275346 158.426269 77.511317 157.66224 77.511317 156.720342 C 77.511317 155.778444 78.275346 155.014415 79.217245 155.014415 C 80.159143 155.014415 80.923172 155.778444 80.923172 156.720342 Z M 80.923172 156.720342 " transform="matrix(0.9663,0,0,0.9663,242.350814,84.022071)"/>
<path style="fill:none;stroke-width:1.25;stroke-linecap:butt;stroke-linejoin:miter;stroke:rgb(96.862745%,77.647059%,0%);stroke-opacity:1;stroke-miterlimit:4;" d="M 69.787139 170.529817 L 79.121229 156.81772 L 88.503829 170.558115 " transform="matrix(0.9663,0,0,0.9663,148.8225,57.084225)"/>
<path style="fill-rule:evenodd;fill:rgb(96.862745%,77.647059%,0%);fill-opacity:1;stroke-width:0.575;stroke-linecap:butt;stroke-linejoin:miter;stroke:rgb(0%,0%,0%);stroke-opacity:1;stroke-miterlimit:4;" d="M 80.922025 156.721443 C 80.922025 157.662333 80.159643 158.424715 79.215034 158.424715 C 78.274143 158.424715 77.511762 157.662333 77.511762 156.721443 C 77.511762 155.776833 78.274143 155.014452 79.215034 155.014452 C 80.159643 155.014452 80.922025 155.776833 80.922025 156.721443 Z M 80.922025 156.721443 " transform="matrix(1.050368,0,0,1.050368,142.091931,52.294952)"/>
<path style="fill-rule:evenodd;fill:rgb(96.862745%,77.647059%,0%);fill-opacity:1;stroke-width:0.625;stroke-linecap:butt;stroke-linejoin:miter;stroke:rgb(0%,0%,0%);stroke-opacity:1;stroke-miterlimit:4;" d="M 71.541576 180.660276 L 86.01366 180.700701 C 86.01366 180.700701 86.240039 178.820947 84.501772 177.680967 C 92.081425 176.638007 90.112737 169.951742 96.463475 169.571749 C 97.69239 169.761746 93.144598 172.417656 93.144598 172.417656 C 93.144598 172.417656 89.316368 175.118034 91.06272 176.492478 C 92.445249 177.579905 93.051621 175.825468 93.241618 174.499534 C 93.431614 173.1736 99.398317 172.320637 98.545353 168.532831 C 97.126442 165.403951 88.786803 170.614709 88.786803 170.614709 L 82.83627 170.58237 C 82.468404 169.91536 80.827156 167.239237 79.133357 167.22711 C 77.124243 167.299875 75.709375 170.614709 75.709375 170.614709 L 62.255996 170.614709 C 62.255996 170.614709 61.795153 174.066989 68.614819 174.729956 C 70.150962 176.739069 71.343495 177.296932 72.677513 177.818412 C 71.788167 178.558186 71.537534 179.455617 71.541576 180.660276 Z M 71.541576 180.660276 " transform="matrix(0.9663,0,0,0.9663,148.8225,57.084225)"/>
<path style="fill:none;stroke-width:0.625;stroke-linecap:butt;stroke-linejoin:miter;stroke:rgb(0%,0%,0%);stroke-opacity:1;stroke-miterlimit:4;" d="M 72.584536 177.721392 L 84.639217 177.676925 " transform="matrix(0.9663,0,0,0.9663,148.8225,57.084225)"/>
<path style="fill:none;stroke-width:0.625;stroke-linecap:butt;stroke-linejoin:miter;stroke:rgb(0%,0%,0%);stroke-opacity:1;stroke-miterlimit:4;" d="M 67.062506 170.610667 C 67.062506 170.610667 68.024617 176.249929 72.475389 177.583948 " transform="matrix(0.9663,0,0,0.9663,148.8225,57.084225)"/>
<path style="fill-rule:evenodd;fill:url(#linear3);stroke-width:0.625;stroke-linecap:butt;stroke-linejoin:miter;stroke:rgb(0%,0%,0%);stroke-opacity:1;stroke-miterlimit:4;" d="M 66.31869 170.541945 C 66.763363 168.387302 67.579944 168.019436 68.46929 165.274591 C 68.618862 162.602511 66.31869 162.897612 66.985699 161.191685 C 68.174189 159.336186 67.579944 157.557494 65.356579 156.146668 C 65.801252 158.596412 62.462162 160.896584 62.462162 162.897612 C 62.462162 164.902683 64.16809 164.45801 63.945753 167.497956 C 64.095325 169.280691 63.50108 168.831975 63.351508 170.541945 Z M 66.31869 170.541945 " transform="matrix(0.9663,0,0,0.9663,148.8225,57.084225)"/>
<path style="fill-rule:evenodd;fill:rgb(96.862745%,77.647059%,0%);fill-opacity:1;stroke-width:0.625;stroke-linecap:butt;stroke-linejoin:miter;stroke:rgb(0%,0%,0%);stroke-opacity:1;stroke-miterlimit:4;" d="M 80.921555 156.720303 C 80.921555 157.662201 80.157526 158.42623 79.215628 158.42623 C 78.273729 158.42623 77.5097 157.662201 77.5097 156.720303 C 77.5097 155.778405 78.273729 155.014376 79.215628 155.014376 C 80.157526 155.014376 80.921555 155.778405 80.921555 156.720303 Z M 80.921555 156.720303 " transform="matrix(0.9663,0,0,0.9663,148.750814,57.514296)"/>
<path style="fill:none;stroke-width:1.25;stroke-linecap:butt;stroke-linejoin:miter;stroke:rgb(96.862745%,77.647059%,0%);stroke-opacity:1;stroke-miterlimit:4;" d="M 69.787786 170.528821 L 79.121876 156.820766 L 88.500433 170.557119 " transform="matrix(0.9663,0,0,0.9663,149.025,31.0305)"/>
<path style="fill-rule:evenodd;fill:rgb(96.862745%,77.647059%,0%);fill-opacity:1;stroke-width:0.575;stroke-linecap:butt;stroke-linejoin:miter;stroke:rgb(0%,0%,0%);stroke-opacity:1;stroke-miterlimit:4;" d="M 80.92262 156.720526 C 80.92262 157.661417 80.160238 158.427517 79.215629 158.427517 C 78.274738 158.427517 77.512357 157.661417 77.512357 156.720526 C 77.508638 155.779636 78.274738 155.013535 79.215629 155.013535 C 80.160238 155.013535 80.92262 155.779636 80.92262 156.720526 Z M 80.92262 156.720526 " transform="matrix(1.050368,0,0,1.050368,142.294431,26.241227)"/>
<path style="fill-rule:evenodd;fill:rgb(96.862745%,77.647059%,0%);fill-opacity:1;stroke-width:0.625;stroke-linecap:butt;stroke-linejoin:miter;stroke:rgb(0%,0%,0%);stroke-opacity:1;stroke-miterlimit:4;" d="M 71.542223 180.65928 L 86.014307 180.699705 C 86.014307 180.699705 86.240686 178.823994 84.502419 177.679971 C 92.082072 176.637011 90.113384 169.950746 96.464122 169.574796 C 97.693037 169.764792 93.145245 172.41666 93.145245 172.41666 C 93.145245 172.41666 89.317015 175.117038 91.059324 176.491482 C 92.445895 177.578909 93.052268 175.828515 93.242264 174.502581 C 93.428218 173.172604 99.398964 172.319641 98.546 168.531835 C 97.127089 165.402955 88.78745 170.613713 88.78745 170.613713 L 82.836917 170.581374 C 82.469051 169.914364 80.827803 167.238241 79.134003 167.226114 C 77.12489 167.298878 75.710021 170.613713 75.710021 170.613713 L 62.256643 170.613713 C 62.256643 170.613713 61.7958 174.070035 68.615466 174.733002 C 70.151609 176.738073 71.344141 177.299978 72.67816 177.817416 C 71.788814 178.55719 71.53818 179.458663 71.542223 180.65928 Z M 71.542223 180.65928 " transform="matrix(0.9663,0,0,0.9663,149.025,31.0305)"/>
<path style="fill:none;stroke-width:0.625;stroke-linecap:butt;stroke-linejoin:miter;stroke:rgb(0%,0%,0%);stroke-opacity:1;stroke-miterlimit:4;" d="M 72.581141 177.720396 L 84.639863 177.679971 " transform="matrix(0.9663,0,0,0.9663,149.025,31.0305)"/>
<path style="fill:none;stroke-width:0.625;stroke-linecap:butt;stroke-linejoin:miter;stroke:rgb(0%,0%,0%);stroke-opacity:1;stroke-miterlimit:4;" d="M 67.063153 170.609671 C 67.063153 170.609671 68.025264 176.248933 72.476036 177.582952 " transform="matrix(0.9663,0,0,0.9663,149.025,31.0305)"/>
<path style="fill-rule:evenodd;fill:url(#linear4);stroke-width:0.625;stroke-linecap:butt;stroke-linejoin:miter;stroke:rgb(0%,0%,0%);stroke-opacity:1;stroke-miterlimit:4;" d="M 66.319337 170.540949 C 66.76401 168.390348 67.580591 168.01844 68.469937 165.273595 C 68.619509 162.601515 66.319337 162.900658 66.986346 161.194731 C 68.174836 159.339232 67.580591 157.556498 65.357226 156.149714 C 65.801899 158.595416 62.462809 160.895588 62.462809 162.900658 C 62.462809 164.901687 64.168736 164.457014 63.9464 167.49696 C 64.095972 169.279694 63.501727 168.835021 63.352155 170.540949 Z M 66.319337 170.540949 " transform="matrix(0.9663,0,0,0.9663,149.025,31.0305)"/>
<path style="fill-rule:evenodd;fill:rgb(96.862745%,77.647059%,0%);fill-opacity:1;stroke-width:0.625;stroke-linecap:butt;stroke-linejoin:miter;stroke:rgb(0%,0%,0%);stroke-opacity:1;stroke-miterlimit:4;" d="M 80.922202 156.719307 C 80.922202 157.661205 80.158173 158.425234 79.216274 158.425234 C 78.274376 158.425234 77.510347 157.661205 77.510347 156.719307 C 77.510347 155.777409 78.274376 155.01338 79.216274 155.01338 C 80.158173 155.01338 80.922202 155.777409 80.922202 156.719307 Z M 80.922202 156.719307 " transform="matrix(0.9663,0,0,0.9663,148.953314,31.460571)"/>
<path style="fill:none;stroke-width:1.25;stroke-linecap:butt;stroke-linejoin:miter;stroke:rgb(96.862745%,77.647059%,0%);stroke-opacity:1;stroke-miterlimit:4;" d="M 69.784875 170.529759 L 79.123008 156.817661 L 88.501565 170.558057 " transform="matrix(0.9663,0,0,0.9663,149.52,4.596)"/>
<path style="fill-rule:evenodd;fill:rgb(96.862745%,77.647059%,0%);fill-opacity:1;stroke-width:0.575;stroke-linecap:butt;stroke-linejoin:miter;stroke:rgb(0%,0%,0%);stroke-opacity:1;stroke-miterlimit:4;" d="M 80.923661 156.721389 C 80.923661 157.662279 80.15756 158.424661 79.21667 158.424661 C 78.27578 158.424661 77.509679 157.662279 77.509679 156.721389 C 77.509679 155.77678 78.27578 155.014398 79.21667 155.014398 C 80.15756 155.014398 80.923661 155.77678 80.923661 156.721389 Z M 80.923661 156.721389 " transform="matrix(1.050368,0,0,1.050368,142.789431,-0.193273)"/>
<path style="fill-rule:evenodd;fill:rgb(96.862745%,77.647059%,0%);fill-opacity:1;stroke-width:0.625;stroke-linecap:butt;stroke-linejoin:miter;stroke:rgb(0%,0%,0%);stroke-opacity:1;stroke-miterlimit:4;" d="M 71.539312 180.660218 L 86.015439 180.700643 C 86.015439 180.700643 86.241818 178.820889 84.503551 177.680909 C 92.083204 176.637949 90.114515 169.951684 96.461212 169.571691 C 97.694168 169.761688 93.146377 172.417598 93.146377 172.417598 C 93.146377 172.417598 89.318147 175.117976 91.060456 176.49242 C 92.447027 177.579847 93.049357 175.82541 93.239354 174.499476 C 93.42935 173.173542 99.400096 172.320578 98.547132 168.532773 C 97.124179 165.403892 88.788581 170.614651 88.788581 170.614651 L 82.838048 170.582311 C 82.46614 169.915302 80.828935 167.239179 79.135135 167.227052 C 77.126022 167.299816 75.711153 170.614651 75.711153 170.614651 L 62.253732 170.614651 C 62.253732 170.614651 61.792889 174.066931 68.616598 174.729898 C 70.152741 176.739011 71.345273 177.296873 72.679292 177.818354 C 71.789946 178.558128 71.539312 179.455559 71.543355 180.660218 Z M 71.539312 180.660218 " transform="matrix(0.9663,0,0,0.9663,149.52,4.596)"/>
<path style="fill:none;stroke-width:0.625;stroke-linecap:butt;stroke-linejoin:miter;stroke:rgb(0%,0%,0%);stroke-opacity:1;stroke-miterlimit:4;" d="M 72.582273 177.721334 L 84.636953 177.680909 " transform="matrix(0.9663,0,0,0.9663,149.52,4.596)"/>
<path style="fill:none;stroke-width:0.625;stroke-linecap:butt;stroke-linejoin:miter;stroke:rgb(0%,0%,0%);stroke-opacity:1;stroke-miterlimit:4;" d="M 67.060243 170.610609 C 67.060243 170.610609 68.026396 176.249871 72.477168 177.58389 " transform="matrix(0.9663,0,0,0.9663,149.52,4.596)"/>
<path style="fill-rule:evenodd;fill:url(#linear5);stroke-width:0.625;stroke-linecap:butt;stroke-linejoin:miter;stroke:rgb(0%,0%,0%);stroke-opacity:1;stroke-miterlimit:4;" d="M 66.320469 170.541887 C 66.765142 168.387244 67.581723 168.019378 68.471069 165.274533 C 68.620641 162.602453 66.320469 162.897554 66.987478 161.191627 C 68.175968 159.34017 67.581723 157.557436 65.354315 156.146609 C 65.798988 158.596353 62.463941 160.896525 62.463941 162.897554 C 62.463941 164.902625 64.169868 164.457952 63.947532 167.497898 C 64.093061 169.280632 63.502859 168.831917 63.353287 170.541887 Z M 66.320469 170.541887 " transform="matrix(0.9663,0,0,0.9663,149.52,4.596)"/>
<path style="fill-rule:evenodd;fill:rgb(96.862745%,77.647059%,0%);fill-opacity:1;stroke-width:0.625;stroke-linecap:butt;stroke-linejoin:miter;stroke:rgb(0%,0%,0%);stroke-opacity:1;stroke-miterlimit:4;" d="M 80.923334 156.720245 C 80.923334 157.662143 80.159304 158.426172 79.217406 158.426172 C 78.275508 158.426172 77.511479 157.662143 77.511479 156.720245 C 77.511479 155.778347 78.275508 155.014318 79.217406 155.014318 C 80.159304 155.014318 80.923334 155.778347 80.923334 156.720245 Z M 80.923334 156.720245 " transform="matrix(0.9663,0,0,0.9663,149.448314,5.026071)"/>
<path style="fill:none;stroke-width:1.25;stroke-linecap:butt;stroke-linejoin:miter;stroke:rgb(96.862745%,77.647059%,0%);stroke-opacity:1;stroke-miterlimit:4;" d="M 69.787139 170.528918 L 79.121229 156.820863 L 88.503829 170.557216 " transform="matrix(0.9663,0,0,0.9663,243.135,5.0265)"/>
<path style="fill-rule:evenodd;fill:rgb(96.862745%,77.647059%,0%);fill-opacity:1;stroke-width:0.575;stroke-linecap:butt;stroke-linejoin:miter;stroke:rgb(0%,0%,0%);stroke-opacity:1;stroke-miterlimit:4;" d="M 80.922025 156.720616 C 80.922025 157.661506 80.159643 158.427606 79.215034 158.427606 C 78.274143 158.427606 77.511762 157.661506 77.511762 156.720616 C 77.511762 155.776006 78.274143 155.013625 79.215034 155.013625 C 80.159643 155.013625 80.922025 155.776006 80.922025 156.720616 Z M 80.922025 156.720616 " transform="matrix(1.050368,0,0,1.050368,236.404431,0.237227)"/>
<path style="fill-rule:evenodd;fill:rgb(96.862745%,77.647059%,0%);fill-opacity:1;stroke-width:0.625;stroke-linecap:butt;stroke-linejoin:miter;stroke:rgb(0%,0%,0%);stroke-opacity:1;stroke-miterlimit:4;" d="M 71.541576 180.659377 L 86.01366 180.699802 C 86.01366 180.699802 86.240039 178.824091 84.501772 177.680068 C 92.081425 176.637108 90.112737 169.950843 96.463475 169.574893 C 97.69239 169.764889 93.144598 172.416757 93.144598 172.416757 C 93.144598 172.416757 89.316368 175.117135 91.06272 176.491579 C 92.445249 177.579006 93.051621 175.828612 93.241618 174.502678 C 93.431614 173.172701 99.398317 172.319738 98.545353 168.531932 C 97.126442 165.403052 88.786803 170.61381 88.786803 170.61381 L 82.83627 170.581471 C 82.468404 169.914461 80.827156 167.238338 79.133357 167.226211 C 77.124243 167.298975 75.709375 170.61381 75.709375 170.61381 L 62.255996 170.61381 C 62.255996 170.61381 61.795153 174.06609 68.614819 174.733099 C 70.150962 176.73817 71.343495 177.296033 72.677513 177.817513 C 71.788167 178.557287 71.537534 179.454718 71.541576 180.659377 Z M 71.541576 180.659377 " transform="matrix(0.9663,0,0,0.9663,243.135,5.0265)"/>
<path style="fill:none;stroke-width:0.625;stroke-linecap:butt;stroke-linejoin:miter;stroke:rgb(0%,0%,0%);stroke-opacity:1;stroke-miterlimit:4;" d="M 72.584536 177.720493 L 84.639217 177.680068 " transform="matrix(0.9663,0,0,0.9663,243.135,5.0265)"/>
<path style="fill:none;stroke-width:0.625;stroke-linecap:butt;stroke-linejoin:miter;stroke:rgb(0%,0%,0%);stroke-opacity:1;stroke-miterlimit:4;" d="M 67.062506 170.609768 C 67.062506 170.609768 68.024617 176.24903 72.475389 177.583049 " transform="matrix(0.9663,0,0,0.9663,243.135,5.0265)"/>
<path style="fill-rule:evenodd;fill:url(#linear6);stroke-width:0.625;stroke-linecap:butt;stroke-linejoin:miter;stroke:rgb(0%,0%,0%);stroke-opacity:1;stroke-miterlimit:4;" d="M 66.31869 170.541046 C 66.763363 168.390446 67.579944 168.018537 68.46929 165.273692 C 68.618862 162.601612 66.31869 162.900755 66.985699 161.190786 C 68.174189 159.339329 67.579944 157.556595 65.356579 156.149811 C 65.801252 158.595513 62.462162 160.895685 62.462162 162.900755 C 62.462162 164.901784 64.16809 164.457111 63.945753 167.497057 C 64.095325 169.279791 63.50108 168.835118 63.351508 170.541046 Z M 66.31869 170.541046 " transform="matrix(0.9663,0,0,0.9663,243.135,5.0265)"/>
<path style="fill-rule:evenodd;fill:rgb(96.862745%,77.647059%,0%);fill-opacity:1;stroke-width:0.625;stroke-linecap:butt;stroke-linejoin:miter;stroke:rgb(0%,0%,0%);stroke-opacity:1;stroke-miterlimit:4;" d="M 80.921555 156.719404 C 80.921555 157.661302 80.157526 158.425331 79.215628 158.425331 C 78.273729 158.425331 77.5097 157.661302 77.5097 156.719404 C 77.5097 155.777506 78.273729 155.013477 79.215628 155.013477 C 80.157526 155.013477 80.921555 155.777506 80.921555 156.719404 Z M 80.921555 156.719404 " transform="matrix(0.9663,0,0,0.9663,243.063314,5.456571)"/>
<path style="fill:none;stroke-width:1.25;stroke-linecap:butt;stroke-linejoin:miter;stroke:rgb(96.862745%,77.647059%,0%);stroke-opacity:1;stroke-miterlimit:4;" d="M 69.786654 170.528886 L 79.120744 156.820831 L 88.503344 170.557183 " transform="matrix(0.9663,0,0,0.9663,242.28,30.97575)"/>
<path style="fill-rule:evenodd;fill:rgb(96.862745%,77.647059%,0%);fill-opacity:1;stroke-width:0.575;stroke-linecap:butt;stroke-linejoin:miter;stroke:rgb(0%,0%,0%);stroke-opacity:1;stroke-miterlimit:4;" d="M 80.921578 156.720586 C 80.921578 157.661476 80.159197 158.427577 79.214587 158.427577 C 78.273697 158.427577 77.511315 157.661476 77.511315 156.720586 C 77.511315 155.775976 78.273697 155.013595 79.214587 155.013595 C 80.159197 155.013595 80.921578 155.779695 80.921578 156.720586 Z M 80.921578 156.720586 " transform="matrix(1.050368,0,0,1.050368,235.549431,26.186477)"/>
<path style="fill-rule:evenodd;fill:rgb(96.862745%,77.647059%,0%);fill-opacity:1;stroke-width:0.625;stroke-linecap:butt;stroke-linejoin:miter;stroke:rgb(0%,0%,0%);stroke-opacity:1;stroke-miterlimit:4;" d="M 71.541091 180.659345 L 86.013175 180.69977 C 86.013175 180.69977 86.239554 178.824058 84.501287 177.680036 C 92.08094 176.637076 90.112252 169.950811 96.46299 169.57486 C 97.695947 169.764857 93.144113 172.416725 93.144113 172.416725 C 93.144113 172.416725 89.319925 175.117103 91.062235 176.491546 C 92.444764 177.578974 93.051136 175.828579 93.241132 174.502645 C 93.431129 173.172669 99.397832 172.319705 98.548911 168.5319 C 97.125957 165.403019 88.786318 170.613778 88.786318 170.613778 L 82.839827 170.581438 C 82.467919 169.914429 80.826671 167.238306 79.132872 167.226178 C 77.123758 167.298943 75.70889 170.613778 75.70889 170.613778 L 62.255511 170.613778 C 62.255511 170.613778 61.794668 174.0701 68.618377 174.733067 C 70.15452 176.738138 71.343009 177.296 72.677028 177.81748 C 71.787682 178.557254 71.537049 179.454685 71.541091 180.659345 Z M 71.541091 180.659345 " transform="matrix(0.9663,0,0,0.9663,242.28,30.97575)"/>
<path style="fill:none;stroke-width:0.625;stroke-linecap:butt;stroke-linejoin:miter;stroke:rgb(0%,0%,0%);stroke-opacity:1;stroke-miterlimit:4;" d="M 72.584051 177.720461 L 84.638732 177.680036 " transform="matrix(0.9663,0,0,0.9663,242.28,30.97575)"/>
<path style="fill:none;stroke-width:0.625;stroke-linecap:butt;stroke-linejoin:miter;stroke:rgb(0%,0%,0%);stroke-opacity:1;stroke-miterlimit:4;" d="M 67.062021 170.609736 C 67.062021 170.609736 68.028174 176.248997 72.478947 177.583016 " transform="matrix(0.9663,0,0,0.9663,242.28,30.97575)"/>
<path style="fill-rule:evenodd;fill:url(#linear7);stroke-width:0.625;stroke-linecap:butt;stroke-linejoin:miter;stroke:rgb(0%,0%,0%);stroke-opacity:1;stroke-miterlimit:4;" d="M 66.318205 170.541013 C 66.76692 168.390413 67.579459 168.018505 68.472847 165.27366 C 68.618377 162.601579 66.318205 162.900723 66.989257 161.194796 C 68.173704 159.339297 67.579459 157.556562 65.356094 156.149779 C 65.800767 158.59548 62.461677 160.895652 62.461677 162.900723 C 62.461677 164.901752 64.167605 164.457079 63.945268 167.497025 C 64.09484 169.279759 63.500595 168.835086 63.351023 170.541013 Z M 66.318205 170.541013 " transform="matrix(0.9663,0,0,0.9663,242.28,30.97575)"/>
<path style="fill-rule:evenodd;fill:rgb(96.862745%,77.647059%,0%);fill-opacity:1;stroke-width:0.625;stroke-linecap:butt;stroke-linejoin:miter;stroke:rgb(0%,0%,0%);stroke-opacity:1;stroke-miterlimit:4;" d="M 80.92107 156.719372 C 80.92107 157.66127 80.157041 158.425299 79.215142 158.425299 C 78.273244 158.425299 77.509215 157.66127 77.509215 156.719372 C 77.509215 155.777473 78.273244 155.013444 79.215142 155.013444 C 80.157041 155.013444 80.92107 155.777473 80.92107 156.719372 Z M 80.92107 156.719372 " transform="matrix(0.9663,0,0,0.9663,242.208314,31.405821)"/>
<path style="fill:none;stroke-width:1.25;stroke-linecap:butt;stroke-linejoin:miter;stroke:rgb(96.862745%,77.647059%,0%);stroke-opacity:1;stroke-miterlimit:4;" d="M 69.785684 170.529106 L 79.119774 156.817008 L 88.502374 170.557403 " transform="matrix(0.9663,0,0,0.9663,241.1325,57.498975)"/>
<path style="fill-rule:evenodd;fill:rgb(96.862745%,77.647059%,0%);fill-opacity:1;stroke-width:0.575;stroke-linecap:butt;stroke-linejoin:miter;stroke:rgb(0%,0%,0%);stroke-opacity:1;stroke-miterlimit:4;" d="M 80.920686 156.720788 C 80.920686 157.661679 80.158304 158.427779 79.217414 158.427779 C 78.272804 158.427779 77.510423 157.661679 77.510423 156.720788 C 77.510423 155.776179 78.272804 155.013797 79.217414 155.013797 C 80.158304 155.013797 80.920686 155.776179 80.920686 156.720788 Z M 80.920686 156.720788 " transform="matrix(1.050368,0,0,1.050368,234.401931,52.709702)"/>
<path style="fill-rule:evenodd;fill:rgb(96.862745%,77.647059%,0%);fill-opacity:1;stroke-width:0.625;stroke-linecap:butt;stroke-linejoin:miter;stroke:rgb(0%,0%,0%);stroke-opacity:1;stroke-miterlimit:4;" d="M 71.540121 180.659565 L 86.012205 180.69999 C 86.012205 180.69999 86.242627 178.824278 84.500317 177.680256 C 92.084012 176.637296 90.115324 169.951031 96.46202 169.57508 C 97.694977 169.761034 93.147185 172.416945 93.147185 172.416945 C 93.147185 172.416945 89.318955 175.117323 91.061265 176.491766 C 92.443793 177.579194 93.050166 175.828799 93.240162 174.498823 C 93.430159 173.172889 99.400904 172.319925 98.547941 168.53212 C 97.124987 165.403239 88.785347 170.613998 88.785347 170.613998 L 82.838857 170.581658 C 82.466949 169.914649 80.825701 167.238526 79.135944 167.226398 C 77.12683 167.299163 75.711962 170.613998 75.711962 170.613998 L 62.254541 170.613998 C 62.254541 170.613998 61.793698 174.066277 68.617407 174.733287 C 70.15355 176.738358 71.342039 177.29622 72.680101 177.8177 C 71.786712 178.557474 71.536078 179.454905 71.540121 180.659565 Z M 71.540121 180.659565 " transform="matrix(0.9663,0,0,0.9663,241.1325,57.498975)"/>
<path style="fill:none;stroke-width:0.625;stroke-linecap:butt;stroke-linejoin:miter;stroke:rgb(0%,0%,0%);stroke-opacity:1;stroke-miterlimit:4;" d="M 72.583081 177.720681 L 84.637761 177.680256 " transform="matrix(0.9663,0,0,0.9663,241.1325,57.498975)"/>
<path style="fill:none;stroke-width:0.625;stroke-linecap:butt;stroke-linejoin:miter;stroke:rgb(0%,0%,0%);stroke-opacity:1;stroke-miterlimit:4;" d="M 67.061051 170.609956 C 67.061051 170.609956 68.027204 176.249217 72.477977 177.583236 " transform="matrix(0.9663,0,0,0.9663,241.1325,57.498975)"/>
<path style="fill-rule:evenodd;fill:url(#linear8);stroke-width:0.625;stroke-linecap:butt;stroke-linejoin:miter;stroke:rgb(0%,0%,0%);stroke-opacity:1;stroke-miterlimit:4;" d="M 66.321277 170.541233 C 66.76595 168.390633 67.582531 168.018725 68.471877 165.27388 C 68.621449 162.601799 66.321277 162.900943 66.988287 161.190973 C 68.172734 159.339517 67.582531 157.556782 65.355124 156.149999 C 65.799797 158.5957 62.460707 160.895872 62.460707 162.900943 C 62.460707 164.901971 64.166634 164.457298 63.944298 167.497245 C 64.09387 169.279979 63.499625 168.835306 63.354096 170.541233 Z M 66.321277 170.541233 " transform="matrix(0.9663,0,0,0.9663,241.1325,57.498975)"/>
<path style="fill-rule:evenodd;fill:rgb(96.862745%,77.647059%,0%);fill-opacity:1;stroke-width:0.625;stroke-linecap:butt;stroke-linejoin:miter;stroke:rgb(0%,0%,0%);stroke-opacity:1;stroke-miterlimit:4;" d="M 80.9201 156.719592 C 80.924142 157.66149 80.160113 158.425519 79.218215 158.425519 C 78.272274 158.425519 77.512288 157.66149 77.512288 156.719592 C 77.512288 155.777693 78.272274 155.013664 79.218215 155.013664 C 80.160113 155.013664 80.924142 155.777693 80.9201 156.719592 Z M 80.9201 156.719592 " transform="matrix(0.9663,0,0,0.9663,241.060814,57.929046)"/>
<path style="fill:none;stroke-width:1.2884;stroke-linecap:butt;stroke-linejoin:miter;stroke:rgb(96.862745%,77.647059%,0%);stroke-opacity:1;stroke-miterlimit:4;" d="M 818.967917 330.2605 L 830.999167 312.593833 L 843.0825 330.296958 " transform="matrix(0.75,0,0,0.75,-304.515,53.00775)"/>
<path style="fill-rule:evenodd;fill:rgb(96.862745%,77.647059%,0%);fill-opacity:1;stroke-width:0.80528;stroke-linecap:butt;stroke-linejoin:miter;stroke:rgb(0%,0%,0%);stroke-opacity:1;stroke-miterlimit:4;" d="M 833.410625 323.661542 C 833.410625 324.97925 832.342917 326.046958 831.02 326.046958 C 829.702292 326.046958 828.634583 324.97925 828.634583 323.661542 C 828.634583 322.338625 829.702292 321.270917 831.02 321.270917 C 832.342917 321.270917 833.410625 322.338625 833.410625 323.661542 Z M 833.410625 323.661542 " transform="matrix(0.75,0,0,0.75,-304.515,53.00775)"/>
<path style="fill-rule:evenodd;fill:rgb(96.862745%,77.647059%,0%);fill-opacity:1;stroke-width:0.80525;stroke-linecap:butt;stroke-linejoin:miter;stroke:rgb(0%,0%,0%);stroke-opacity:1;stroke-miterlimit:4;" d="M 821.228333 343.312583 L 839.879375 343.364667 C 839.879375 343.364667 840.171042 340.942792 837.931458 339.474042 C 847.697083 338.130292 845.160625 329.515708 853.337708 329.026125 C 854.92625 329.270917 849.066875 332.687583 849.066875 332.687583 C 849.066875 332.687583 844.134583 336.16675 846.379375 337.937583 C 848.160625 339.343833 848.941875 337.083417 849.186667 335.375083 C 849.431458 333.66675 857.124167 332.567792 856.025208 327.682375 C 854.191875 323.656333 843.447083 330.369875 843.447083 330.369875 L 835.785625 330.328208 C 835.306458 329.468833 833.191875 326.015708 831.014792 326.000083 C 828.42625 326.093833 826.603333 330.369875 826.603333 330.369875 L 809.264792 330.369875 C 809.264792 330.369875 808.671042 334.817792 817.462708 335.671958 C 819.441875 338.255292 820.973125 338.97925 822.697083 339.645917 C 821.546042 340.60425 821.223125 341.7605 821.228333 343.312583 Z M 821.228333 343.312583 " transform="matrix(0.75,0,0,0.75,-304.515,53.00775)"/>
<path style="fill:none;stroke-width:0.80525;stroke-linecap:butt;stroke-linejoin:miter;stroke:rgb(0%,0%,0%);stroke-opacity:1;stroke-miterlimit:4;" d="M 822.572083 339.520917 L 838.103333 339.468833 " transform="matrix(0.75,0,0,0.75,-304.515,53.00775)"/>
<path style="fill:none;stroke-width:0.80525;stroke-linecap:butt;stroke-linejoin:miter;stroke:rgb(0%,0%,0%);stroke-opacity:1;stroke-miterlimit:4;" d="M 815.4575 330.369875 C 815.4575 330.369875 816.702292 337.6355 822.436667 339.35425 " transform="matrix(0.75,0,0,0.75,-304.515,53.00775)"/>
<path style="fill-rule:evenodd;fill:url(#linear9);stroke-width:0.80525;stroke-linecap:butt;stroke-linejoin:miter;stroke:rgb(0%,0%,0%);stroke-opacity:1;stroke-miterlimit:4;" d="M 814.499167 330.270917 C 815.072083 327.500083 816.124167 327.020917 817.27 323.484458 C 817.462708 320.04175 814.499167 320.427167 815.358542 318.22925 C 816.889792 315.838625 816.124167 313.54175 813.259583 311.72925 C 813.8325 314.880292 809.530417 317.843833 809.530417 320.427167 C 809.530417 323.005292 811.728333 322.432375 811.441875 326.349042 C 811.634583 328.645917 810.868958 328.073 810.67625 330.270917 Z M 814.499167 330.270917 " transform="matrix(0.75,0,0,0.75,-304.515,53.00775)"/>
<path style="fill-rule:evenodd;fill:rgb(96.862745%,77.647059%,0%);fill-opacity:1;stroke-width:0.80525;stroke-linecap:butt;stroke-linejoin:miter;stroke:rgb(0%,0%,0%);stroke-opacity:1;stroke-miterlimit:4;" d="M 833.217917 313.052167 C 833.217917 314.265708 832.23875 315.250083 831.02 315.250083 C 829.806458 315.250083 828.822083 314.265708 828.827292 313.052167 C 828.822083 311.838625 829.806458 310.85425 831.02 310.85425 C 832.23875 310.85425 833.217917 311.838625 833.217917 313.052167 Z M 833.217917 313.052167 " transform="matrix(0.75,0,0,0.75,-304.515,53.00775)"/>
<path style="fill:none;stroke-width:1.25;stroke-linecap:butt;stroke-linejoin:miter;stroke:rgb(96.862745%,77.647059%,0%);stroke-opacity:1;stroke-miterlimit:4;" d="M 69.784552 170.53115 L 79.122684 156.819052 L 88.501242 170.559447 " transform="matrix(0.9663,0,0,0.9663,242.1375,109.6845)"/>
<path style="fill-rule:evenodd;fill:rgb(96.862745%,77.647059%,0%);fill-opacity:1;stroke-width:0.575;stroke-linecap:butt;stroke-linejoin:miter;stroke:rgb(0%,0%,0%);stroke-opacity:1;stroke-miterlimit:4;" d="M 80.923363 156.718949 C 80.923363 157.663559 80.157263 158.42594 79.216372 158.42594 C 78.275482 158.42594 77.509382 157.663559 77.509382 156.718949 C 77.509382 155.778059 78.275482 155.015678 79.216372 155.015678 C 80.157263 155.015678 80.923363 155.778059 80.923363 156.718949 Z M 80.923363 156.718949 " transform="matrix(1.050368,0,0,1.050368,235.406931,104.895227)"/>
<path style="fill-rule:evenodd;fill:rgb(96.862745%,77.647059%,0%);fill-opacity:1;stroke-width:0.625;stroke-linecap:butt;stroke-linejoin:miter;stroke:rgb(0%,0%,0%);stroke-opacity:1;stroke-miterlimit:4;" d="M 71.538989 180.661609 L 86.015116 180.702034 C 86.015116 180.702034 86.241495 178.82228 84.503228 177.6823 C 92.082881 176.639339 90.114192 169.953075 96.460888 169.573082 C 97.693845 169.763078 93.146053 172.414946 93.146053 172.414946 C 93.146053 172.414946 89.317823 175.115324 91.060133 176.489768 C 92.446704 177.581238 93.053076 175.826801 93.23903 174.500867 C 93.429027 173.174933 99.399772 172.321969 98.546809 168.530121 C 97.123855 165.405283 88.788258 170.616042 88.788258 170.616042 L 82.837725 170.583702 C 82.465817 169.916693 80.828612 167.236527 79.134812 167.2244 C 77.125699 167.297164 75.71083 170.616042 75.71083 170.616042 L 62.253409 170.616042 C 62.253409 170.616042 61.792566 174.068321 68.616275 174.731288 C 70.152418 176.736359 71.34495 177.298264 72.678969 177.815702 C 71.789623 178.559518 71.538989 179.456949 71.543031 180.661609 Z M 71.538989 180.661609 " transform="matrix(0.9663,0,0,0.9663,242.1375,109.6845)"/>
<path style="fill:none;stroke-width:0.625;stroke-linecap:butt;stroke-linejoin:miter;stroke:rgb(0%,0%,0%);stroke-opacity:1;stroke-miterlimit:4;" d="M 72.581949 177.718682 L 84.636629 177.678257 " transform="matrix(0.9663,0,0,0.9663,242.1375,109.6845)"/>
<path style="fill:none;stroke-width:0.625;stroke-linecap:butt;stroke-linejoin:miter;stroke:rgb(0%,0%,0%);stroke-opacity:1;stroke-miterlimit:4;" d="M 67.063962 170.611999 C 67.063962 170.611999 68.026072 176.247219 72.476845 177.58528 " transform="matrix(0.9663,0,0,0.9663,242.1375,109.6845)"/>
<path style="fill-rule:evenodd;fill:url(#linear10);stroke-width:0.625;stroke-linecap:butt;stroke-linejoin:miter;stroke:rgb(0%,0%,0%);stroke-opacity:1;stroke-miterlimit:4;" d="M 66.320145 170.539235 C 66.764818 168.388634 67.581399 168.016726 68.470745 165.271881 C 68.620317 162.603843 66.320145 162.898944 66.987155 161.193017 C 68.175644 159.337518 67.581399 157.558826 65.353992 156.148 C 65.802707 158.597744 62.463618 160.897916 62.463618 162.898944 C 62.463618 164.904015 64.169545 164.4553 63.947208 167.499289 C 64.092738 169.27798 63.502535 168.833307 63.352964 170.539235 Z M 66.320145 170.539235 " transform="matrix(0.9663,0,0,0.9663,242.1375,109.6845)"/>
<path style="fill-rule:evenodd;fill:rgb(96.862745%,77.647059%,0%);fill-opacity:1;stroke-width:0.625;stroke-linecap:butt;stroke-linejoin:miter;stroke:rgb(0%,0%,0%);stroke-opacity:1;stroke-miterlimit:4;" d="M 80.92301 156.721635 C 80.92301 157.663534 80.158981 158.427563 79.217083 158.427563 C 78.275185 158.427563 77.511156 157.663534 77.511156 156.721635 C 77.511156 155.779737 78.275185 155.015708 79.217083 155.015708 C 80.158981 155.015708 80.92301 155.779737 80.92301 156.721635 Z M 80.92301 156.721635 " transform="matrix(0.9663,0,0,0.9663,242.065814,110.114571)"/>
<path style="fill:none;stroke-width:1.25;stroke-linecap:butt;stroke-linejoin:miter;stroke:rgb(96.862745%,77.647059%,0%);stroke-opacity:1;stroke-miterlimit:4;" d="M 69.784714 170.529112 L 79.122846 156.817015 L 88.501404 170.55741 " transform="matrix(0.9663,0,0,0.9663,165.9225,85.29975)"/>
<path style="fill-rule:evenodd;fill:rgb(96.862745%,77.647059%,0%);fill-opacity:1;stroke-width:0.575;stroke-linecap:butt;stroke-linejoin:miter;stroke:rgb(0%,0%,0%);stroke-opacity:1;stroke-miterlimit:4;" d="M 80.923512 156.720794 C 80.923512 157.661684 80.157412 158.427785 79.216521 158.427785 C 78.275631 158.427785 77.50953 157.661684 77.50953 156.720794 C 77.50953 155.776185 78.275631 155.013803 79.216521 155.013803 C 80.157412 155.013803 80.923512 155.776185 80.923512 156.720794 Z M 80.923512 156.720794 " transform="matrix(1.050368,0,0,1.050368,159.191931,80.510477)"/>
<path style="fill-rule:evenodd;fill:rgb(96.862745%,77.647059%,0%);fill-opacity:1;stroke-width:0.625;stroke-linecap:butt;stroke-linejoin:miter;stroke:rgb(0%,0%,0%);stroke-opacity:1;stroke-miterlimit:4;" d="M 71.539151 180.659571 L 86.015277 180.699996 C 86.015277 180.699996 86.241656 178.824285 84.503389 177.680262 C 92.083042 176.637302 90.114354 169.951037 96.46105 169.575087 C 97.694007 169.761041 93.146215 172.416951 93.146215 172.416951 C 93.146215 172.416951 89.317985 175.117329 91.060294 176.491773 C 92.446866 177.5792 93.049195 175.828806 93.239192 174.498829 C 93.429189 173.172895 99.399934 172.319932 98.54697 168.532126 C 97.124017 165.403246 88.78842 170.614004 88.78842 170.614004 L 82.837887 170.581665 C 82.465978 169.914655 80.828773 167.238532 79.134974 167.226405 C 77.12586 167.29917 75.710992 170.614004 75.710992 170.614004 L 62.25357 170.614004 C 62.25357 170.614004 61.792727 174.066284 68.616436 174.733293 C 70.152579 176.738364 71.345112 177.296227 72.67913 177.817707 C 71.789784 178.557481 71.539151 179.454912 71.543193 180.659571 Z M 71.539151 180.659571 " transform="matrix(0.9663,0,0,0.9663,165.9225,85.29975)"/>
<path style="fill:none;stroke-width:0.625;stroke-linecap:butt;stroke-linejoin:miter;stroke:rgb(0%,0%,0%);stroke-opacity:1;stroke-miterlimit:4;" d="M 72.582111 177.720687 L 84.636791 177.680262 " transform="matrix(0.9663,0,0,0.9663,165.9225,85.29975)"/>
<path style="fill:none;stroke-width:0.625;stroke-linecap:butt;stroke-linejoin:miter;stroke:rgb(0%,0%,0%);stroke-opacity:1;stroke-miterlimit:4;" d="M 67.060081 170.609962 C 67.060081 170.609962 68.026234 176.249224 72.477006 177.583243 " transform="matrix(0.9663,0,0,0.9663,165.9225,85.29975)"/>
<path style="fill-rule:evenodd;fill:url(#linear11);stroke-width:0.625;stroke-linecap:butt;stroke-linejoin:miter;stroke:rgb(0%,0%,0%);stroke-opacity:1;stroke-miterlimit:4;" d="M 66.320307 170.54124 C 66.76498 168.39064 67.581561 168.018731 68.470907 165.273886 C 68.620479 162.601806 66.320307 162.900949 66.987316 161.19098 C 68.175806 159.339523 67.581561 157.556789 65.354154 156.150005 C 65.798827 158.595707 62.463779 160.895879 62.463779 162.900949 C 62.463779 164.901978 64.169707 164.457305 63.94737 167.497251 C 64.092899 169.279986 63.502697 168.835313 63.353125 170.54124 Z M 66.320307 170.54124 " transform="matrix(0.9663,0,0,0.9663,165.9225,85.29975)"/>
<path style="fill-rule:evenodd;fill:rgb(96.862745%,77.647059%,0%);fill-opacity:1;stroke-width:0.625;stroke-linecap:butt;stroke-linejoin:miter;stroke:rgb(0%,0%,0%);stroke-opacity:1;stroke-miterlimit:4;" d="M 80.923172 156.719598 C 80.923172 157.661496 80.159143 158.425525 79.217245 158.425525 C 78.275346 158.425525 77.511317 157.661496 77.511317 156.719598 C 77.511317 155.7777 78.275346 155.013671 79.217245 155.013671 C 80.159143 155.013671 80.923172 155.7777 80.923172 156.719598 Z M 80.923172 156.719598 " transform="matrix(0.9663,0,0,0.9663,165.850814,85.729821)"/>
<path style="fill-rule:evenodd;fill:rgb(96.862745%,77.647059%,0%);fill-opacity:1;stroke-width:0.625;stroke-linecap:butt;stroke-linejoin:miter;stroke:rgb(0%,0%,0%);stroke-opacity:1;stroke-miterlimit:4;" d="M 139.219187 183.901933 C 139.219187 183.901933 142.994864 192.609438 147.300107 187.257192 C 151.601308 181.904947 150.02474 179.59669 150.02474 179.59669 L 140.375336 174.353591 L 137.541557 180.332421 Z M 139.219187 183.901933 " transform="matrix(0.9663,0,0,0.9663,147.0975,135.35025)"/>
<path style="fill-rule:evenodd;fill:rgb(100%,77.647059%,70.980392%);fill-opacity:1;stroke-width:0.625;stroke-linecap:butt;stroke-linejoin:miter;stroke:rgb(0%,0%,0%);stroke-opacity:1;stroke-miterlimit:4;" d="M 147.510316 182.749825 C 147.510316 182.749825 148.140944 182.85493 148.662424 181.908989 C 149.187946 180.967091 147.510316 180.546673 146.774585 179.49967 L 145.937791 181.1773 Z M 147.510316 182.749825 " transform="matrix(0.9663,0,0,0.9663,147.0975,135.35025)"/>
<path style="fill-rule:evenodd;fill:rgb(100%,77.647059%,70.980392%);fill-opacity:1;stroke-width:0.625;stroke-linecap:butt;stroke-linejoin:miter;stroke:rgb(0%,0%,0%);stroke-opacity:1;stroke-miterlimit:4;" d="M 125.680916 180.441568 L 117.183619 185.058082 C 117.183619 185.058082 112.987523 185.894876 112.67221 185.058082 C 112.356896 184.217246 112.777314 183.481515 114.980467 183.37641 C 117.183619 183.271305 123.16245 177.817998 123.16245 177.817998 Z M 125.680916 180.441568 " transform="matrix(0.9663,0,0,0.9663,147.0975,135.35025)"/>
<path style="fill-rule:evenodd;fill:rgb(100%,77.647059%,70.980392%);fill-opacity:1;stroke-width:0.625;stroke-linecap:butt;stroke-linejoin:miter;stroke:rgb(0%,0%,0%);stroke-opacity:1;stroke-miterlimit:4;" d="M 125.790063 29.471049 C 125.790063 29.471049 126.000272 31.463993 126.105376 32.510996 C 126.210481 33.562041 124.427746 35.765193 124.322642 35.660089 C 124.217537 35.554984 123.376701 35.765193 123.481806 36.39582 C 123.58691 37.022405 124.844122 37.232614 124.844122 37.232614 C 124.844122 37.232614 124.322642 39.435767 124.844122 39.540871 C 125.369645 39.645976 123.481806 42.374651 124.844122 43.110382 C 126.210481 43.842072 128.518738 44.788012 129.56574 44.577803 C 130.616786 44.367594 129.56574 48.668795 129.56574 48.668795 L 126.630899 54.962939 L 142.784655 53.285309 L 139.429396 47.933063 C 139.429396 47.933063 137.852828 46.88606 138.273246 43.842072 C 138.693664 40.802125 138.063037 27.057688 138.063037 27.057688 L 126.525794 25.48112 Z M 125.790063 29.471049 " transform="matrix(0.9663,0,0,0.9663,147.0975,135.35025)"/>
<path style="fill-rule:evenodd;fill:rgb(100%,77.647059%,70.980392%);fill-opacity:1;stroke-width:0.625;stroke-linecap:butt;stroke-linejoin:miter;stroke:rgb(0%,0%,0%);stroke-opacity:1;stroke-miterlimit:4;" d="M 122.851178 53.390413 C 122.851178 53.390413 117.604037 55.803775 117.814246 62.308128 C 116.45193 68.602272 115.716198 74.896415 115.716198 74.896415 C 115.716198 74.896415 109.527159 81.926291 107.63932 84.444757 C 105.747439 86.963223 102.917702 92.101217 101.866656 93.467576 C 100.819654 94.829892 96.728662 99.341302 96.833767 101.018932 C 96.934829 102.696562 95.887826 110.146855 99.978817 110.987691 C 101.029863 111.404067 104.385122 102.385291 104.385122 102.385291 C 104.385122 102.385291 104.595331 98.500466 103.443224 97.768777 C 102.287074 97.033045 105.957648 94.514579 105.957648 94.514579 C 105.957648 94.514579 112.987523 89.372542 114.560049 88.11533 C 116.136616 86.858119 120.437817 82.031396 120.437817 82.031396 Z M 122.851178 53.390413 " transform="matrix(0.9663,0,0,0.9663,147.0975,135.35025)"/>
<path style="fill-rule:evenodd;fill:rgb(100%,100%,100%);fill-opacity:1;stroke-width:0.625;stroke-linecap:butt;stroke-linejoin:miter;stroke:rgb(0%,0%,0%);stroke-opacity:1;stroke-miterlimit:4;" d="M 128.830009 48.458586 C 128.830009 48.458586 130.192325 52.129159 133.236314 51.502574 C 136.280302 50.871947 139.845771 48.038167 139.845771 48.038167 C 139.845771 48.038167 142.679551 47.933063 143.099969 48.353481 C 143.516345 48.773899 150.756429 55.803775 150.54622 58.006927 C 150.336011 60.21008 147.19096 59.579453 146.034811 61.046873 C 144.882703 62.518337 142.994864 66.18891 143.516345 68.917585 C 144.041867 71.64626 145.614393 75.211729 145.404183 76.574045 C 145.198017 77.940404 144.041867 78.35678 144.041867 79.092511 C 144.041867 79.828243 144.987808 81.085455 144.987808 82.451814 C 144.987808 83.81413 143.726554 85.807073 143.936763 87.16939 C 144.146972 88.535748 144.252076 92.521635 144.252076 92.521635 L 143.936763 110.987691 C 143.936763 110.987691 144.987808 111.614276 145.092912 112.665321 C 145.198017 113.716367 152.22385 144.245188 152.22385 144.245188 C 152.22385 144.245188 151.912579 145.187086 151.176847 145.081982 C 150.441116 144.976877 154.010627 149.8036 154.115731 151.165916 C 154.216793 152.532275 157.786305 163.232724 157.6812 164.700145 C 157.576096 166.171608 157.050573 169.421763 156.735259 169.526868 C 156.419946 169.631972 159.043517 176.24143 158.623098 177.292475 C 158.206723 178.339478 153.905522 178.234373 153.905522 178.234373 L 152.749373 178.024164 C 152.749373 178.024164 152.854477 179.390523 152.013641 179.495628 C 151.176847 179.600732 144.987808 179.180314 144.987808 179.180314 C 144.987808 179.180314 143.201031 181.908989 142.154028 181.803885 C 141.102983 181.69878 139.740667 179.806899 139.425353 180.122212 C 139.11004 180.437526 140.371294 182.22026 140.05598 182.745783 C 139.740667 183.271305 134.388421 184.423413 133.341418 181.908989 C 132.290373 179.390523 133.972045 180.017108 133.656732 179.495628 C 133.341418 178.970105 130.928057 177.607789 130.192325 178.024164 C 129.460636 178.444582 132.084207 179.07521 131.979102 180.122212 C 131.873997 181.173258 129.670845 182.745783 128.830009 182.745783 C 127.989173 182.745783 125.996229 178.865001 123.061388 179.285419 C 120.122503 179.705837 118.234664 180.437526 118.234664 180.437526 C 118.234664 180.437526 114.770258 181.908989 113.302837 181.593676 C 111.835416 181.278362 111.204789 180.122212 111.204789 179.495628 C 111.204789 178.865001 112.255834 176.136325 112.15073 175.299532 C 112.045625 174.458696 111.204789 173.617859 111.204789 172.360648 C 111.204789 171.099393 113.61815 166.798193 113.61815 166.798193 L 113.513046 147.495343 C 113.513046 147.495343 111.309893 147.495343 111.204789 146.133027 C 111.099684 144.766668 114.560049 115.604205 115.085571 113.712324 C 115.611094 111.824485 116.97341 105.109923 116.97341 105.109923 C 116.97341 105.109923 115.400885 105.845655 115.29578 105.109923 C 115.190676 104.378234 120.017399 87.694912 120.017399 87.694912 C 120.017399 87.694912 120.858235 79.407825 120.858235 77.204672 C 120.858235 75.00152 120.437817 71.957531 120.437817 71.957531 C 120.437817 71.957531 116.128532 70.134372 116.031512 67.34506 C 115.635349 62.89833 120.122503 60.420289 120.648026 58.948825 C 121.169506 57.481405 122.746074 53.0751 122.746074 53.0751 C 122.746074 53.0751 125.054331 49.089213 128.830009 48.458586 Z M 128.830009 48.458586 " transform="matrix(0.9663,0,0,0.9663,147.0975,135.35025)"/>
<path style="fill-rule:evenodd;fill:rgb(96.862745%,77.647059%,0%);fill-opacity:1;stroke-width:0.625;stroke-linecap:butt;stroke-linejoin:miter;stroke:rgb(0%,0%,0%);stroke-opacity:1;stroke-miterlimit:4;" d="M 127.261526 181.69878 C 127.261526 181.69878 117.082557 187.051026 115.615136 187.471444 C 114.147716 187.88782 113.201775 185.68871 114.669196 185.268291 C 116.140659 184.847873 118.448916 184.637664 118.448916 184.637664 C 118.448916 184.637664 114.984509 181.908989 115.089614 181.803885 C 115.194718 181.69878 119.811232 180.02115 119.916337 180.02115 C 120.021441 180.02115 121.383758 182.749825 122.329698 182.539616 C 123.271597 182.329407 126.000272 180.231359 126.000272 180.231359 C 126.000272 180.231359 127.471735 181.908989 127.261526 181.69878 Z M 127.261526 181.69878 " transform="matrix(0.9663,0,0,0.9663,147.0975,135.35025)"/>
<path style="fill-rule:evenodd;fill:rgb(100%,77.647059%,70.980392%);fill-opacity:1;stroke-width:0.625;stroke-linecap:butt;stroke-linejoin:miter;stroke:rgb(0%,0%,0%);stroke-opacity:1;stroke-miterlimit:4;" d="M 141.600208 184.629579 C 142.562319 185.870621 142.93827 188.021221 145.141422 186.76401 C 147.344575 185.506798 144.01357 183.170243 144.01357 183.170243 Z M 141.600208 184.629579 " transform="matrix(0.9663,0,0,0.9663,147.0975,135.35025)"/>
<path style="fill-rule:evenodd;fill:rgb(100%,77.647059%,70.980392%);fill-opacity:1;stroke-width:0.625;stroke-linecap:butt;stroke-linejoin:miter;stroke:rgb(0%,0%,0%);stroke-opacity:1;stroke-miterlimit:4;" d="M 145.618435 184.41937 C 145.618435 184.41937 146.66948 185.260206 147.611378 184.314266 C 148.557319 183.372368 145.72354 181.379424 145.72354 181.379424 L 144.361223 182.951949 Z M 145.618435 184.41937 " transform="matrix(0.9663,0,0,0.9663,147.0975,135.35025)"/>
<path style="fill:none;stroke-width:0.625;stroke-linecap:butt;stroke-linejoin:miter;stroke:rgb(0%,0%,0%);stroke-opacity:1;stroke-miterlimit:4;" d="M 142.469342 52.549577 C 142.469342 52.549577 133.131209 58.528407 133.341418 60.626455 " transform="matrix(0.9663,0,0,0.9663,147.0975,135.35025)"/>
<path style="fill:none;stroke-width:0.625;stroke-linecap:butt;stroke-linejoin:miter;stroke:rgb(0%,0%,0%);stroke-opacity:1;stroke-miterlimit:4;" d="M 144.571432 53.600622 C 144.571432 53.600622 142.473384 55.908879 142.36828 55.908879 " transform="matrix(0.9663,0,0,0.9663,147.0975,135.35025)"/>
<path style="fill:none;stroke-width:0.625;stroke-linecap:butt;stroke-linejoin:miter;stroke:rgb(0%,0%,0%);stroke-opacity:1;stroke-miterlimit:4;" d="M 147.401169 56.115046 C 147.401169 56.115046 142.784655 59.894766 143.516345 62.308128 " transform="matrix(0.9663,0,0,0.9663,147.0975,135.35025)"/>
<path style="fill:none;stroke-width:0.625;stroke-linecap:butt;stroke-linejoin:miter;stroke:rgb(0%,0%,0%);stroke-opacity:1;stroke-miterlimit:4;" d="M 125.579854 52.024054 C 125.579854 52.024054 124.217537 54.857834 124.532851 55.803775 C 124.844122 56.745673 127.152379 60.315184 127.467692 62.518337 C 127.783006 64.721489 127.467692 66.294015 127.467692 66.294015 " transform="matrix(0.9663,0,0,0.9663,147.0975,135.35025)"/>
<path style="fill:none;stroke-width:0.625;stroke-linecap:butt;stroke-linejoin:miter;stroke:rgb(0%,0%,0%);stroke-opacity:1;stroke-miterlimit:4;" d="M 123.170535 57.271196 C 123.170535 57.271196 123.590953 60.626455 124.217537 61.257082 C 124.848164 61.88771 126.525794 64.721489 126.736003 65.873596 " transform="matrix(0.9663,0,0,0.9663,147.0975,135.35025)"/>
<path style="fill:none;stroke-width:0.625;stroke-linecap:butt;stroke-linejoin:miter;stroke:rgb(0%,0%,0%);stroke-opacity:1;stroke-miterlimit:4;" d="M 122.329698 71.225842 C 122.329698 71.225842 125.058373 72.588158 127.576839 67.341017 " transform="matrix(0.9663,0,0,0.9663,147.0975,135.35025)"/>
<path style="fill:none;stroke-width:0.625;stroke-linecap:butt;stroke-linejoin:miter;stroke:rgb(0%,0%,0%);stroke-opacity:1;stroke-miterlimit:4;" d="M 131.659746 63.670444 C 131.554641 63.670444 129.666802 68.812481 133.022062 70.70032 C 136.381364 72.588158 138.899831 72.377949 140.367251 71.852427 C 141.834672 71.330947 143.41124 70.385006 143.41124 70.385006 " transform="matrix(0.9663,0,0,0.9663,147.0975,135.35025)"/>
<path style="fill:none;stroke-width:0.625;stroke-linecap:butt;stroke-linejoin:miter;stroke:rgb(0%,0%,0%);stroke-opacity:1;stroke-miterlimit:4;" d="M 130.20041 69.964588 C 130.20041 69.964588 130.410619 76.889359 140.585545 83.709025 " transform="matrix(0.9663,0,0,0.9663,147.0975,135.35025)"/>
<path style="fill:none;stroke-width:0.625;stroke-linecap:butt;stroke-linejoin:miter;stroke:rgb(0%,0%,0%);stroke-opacity:1;stroke-miterlimit:4;" d="M 130.620828 76.468941 C 130.620828 76.468941 130.515724 82.552876 134.501611 85.281551 " transform="matrix(0.9663,0,0,0.9663,147.0975,135.35025)"/>
<path style="fill:none;stroke-width:0.625;stroke-linecap:butt;stroke-linejoin:miter;stroke:rgb(0%,0%,0%);stroke-opacity:1;stroke-miterlimit:4;" d="M 128.518738 69.338003 C 128.518738 69.338003 125.478792 78.35678 123.06543 79.30272 " transform="matrix(0.9663,0,0,0.9663,147.0975,135.35025)"/>
<path style="fill:none;stroke-width:0.625;stroke-linecap:butt;stroke-linejoin:miter;stroke:rgb(0%,0%,0%);stroke-opacity:1;stroke-miterlimit:4;" d="M 127.568755 75.947461 C 127.568755 75.947461 127.46365 82.451814 126.626856 84.760071 " transform="matrix(0.9663,0,0,0.9663,147.0975,135.35025)"/>
<path style="fill:none;stroke-width:0.625;stroke-linecap:butt;stroke-linejoin:miter;stroke:rgb(0%,0%,0%);stroke-opacity:1;stroke-miterlimit:4;" d="M 125.790063 86.332596 C 125.790063 86.332596 127.888111 88.956167 130.196368 88.745958 C 132.504625 88.535748 133.446523 85.807073 135.023091 86.227491 C 136.595616 86.64791 138.063037 87.905121 141.737653 87.589808 " transform="matrix(0.9663,0,0,0.9663,147.0975,135.35025)"/>
<path style="fill:none;stroke-width:0.625;stroke-linecap:butt;stroke-linejoin:miter;stroke:rgb(0%,0%,0%);stroke-opacity:1;stroke-miterlimit:4;" d="M 136.490511 90.318483 C 136.490511 90.318483 136.490511 95.666686 137.43241 96.192209 C 138.37835 96.717731 137.957932 101.649559 137.957932 101.649559 " transform="matrix(0.9663,0,0,0.9663,147.0975,135.35025)"/>
<path style="fill:none;stroke-width:0.625;stroke-linecap:butt;stroke-linejoin:miter;stroke:rgb(0%,0%,0%);stroke-opacity:1;stroke-miterlimit:4;" d="M 123.692015 87.800017 C 123.692015 87.800017 123.58691 92.836949 122.956283 94.619683 C 122.325656 96.402418 121.068444 99.446406 121.278653 102.069977 " transform="matrix(0.9663,0,0,0.9663,147.0975,135.35025)"/>
<path style="fill:none;stroke-width:0.625;stroke-linecap:butt;stroke-linejoin:miter;stroke:rgb(0%,0%,0%);stroke-opacity:1;stroke-miterlimit:4;" d="M 117.288724 105.008861 C 117.814246 104.798652 119.596981 103.226127 119.596981 103.226127 " transform="matrix(0.9663,0,0,0.9663,147.0975,135.35025)"/>
<path style="fill:none;stroke-width:0.625;stroke-linecap:butt;stroke-linejoin:miter;stroke:rgb(0%,0%,0%);stroke-opacity:1;stroke-miterlimit:4;" d="M 120.538879 104.378234 C 120.538879 104.378234 116.027469 123.685126 117.288724 135.222369 " transform="matrix(0.9663,0,0,0.9663,147.0975,135.35025)"/>
<path style="fill:none;stroke-width:0.625;stroke-linecap:butt;stroke-linejoin:miter;stroke:rgb(0%,0%,0%);stroke-opacity:1;stroke-miterlimit:4;" d="M 121.589924 105.320132 C 121.589924 105.320132 119.281667 119.796259 120.332712 122.524934 " transform="matrix(0.9663,0,0,0.9663,147.0975,135.35025)"/>
<path style="fill:none;stroke-width:0.625;stroke-linecap:butt;stroke-linejoin:miter;stroke:rgb(0%,0%,0%);stroke-opacity:1;stroke-miterlimit:4;" d="M 120.441859 104.899714 C 120.542921 104.899714 129.254469 105.530341 129.254469 105.530341 " transform="matrix(0.9663,0,0,0.9663,147.0975,135.35025)"/>
<path style="fill:none;stroke-width:0.625;stroke-linecap:butt;stroke-linejoin:miter;stroke:rgb(0%,0%,0%);stroke-opacity:1;stroke-miterlimit:4;" d="M 130.511681 104.378234 C 130.511681 104.378234 132.921 105.639488 136.280302 105.429279 " transform="matrix(0.9663,0,0,0.9663,147.0975,135.35025)"/>
<path style="fill:none;stroke-width:0.625;stroke-linecap:butt;stroke-linejoin:miter;stroke:rgb(0%,0%,0%);stroke-opacity:1;stroke-miterlimit:4;" d="M 129.460636 111.40811 C 129.460636 111.40811 129.040218 136.16831 128.409591 141.62566 " transform="matrix(0.9663,0,0,0.9663,147.0975,135.35025)"/>
<path style="fill:none;stroke-width:0.625;stroke-linecap:butt;stroke-linejoin:miter;stroke:rgb(0%,0%,0%);stroke-opacity:1;stroke-miterlimit:4;" d="M 142.36828 117.071626 C 142.36828 117.071626 145.096955 138.787838 146.66948 140.780781 " transform="matrix(0.9663,0,0,0.9663,147.0975,135.35025)"/>
<path style="fill:none;stroke-width:0.625;stroke-linecap:butt;stroke-linejoin:miter;stroke:rgb(0%,0%,0%);stroke-opacity:1;stroke-miterlimit:4;" d="M 137.121139 119.800301 C 137.121139 119.800301 138.798768 138.998047 139.744709 140.679719 " transform="matrix(0.9663,0,0,0.9663,147.0975,135.35025)"/>
<path style="fill:none;stroke-width:0.625;stroke-linecap:butt;stroke-linejoin:miter;stroke:rgb(0%,0%,0%);stroke-opacity:1;stroke-miterlimit:4;" d="M 113.310922 147.390239 C 113.310922 147.390239 116.561077 146.339193 119.499961 143.194143 C 122.855221 147.705552 127.997258 143.404352 127.997258 143.404352 C 127.997258 143.404352 135.969031 148.857659 139.538543 142.773725 C 144.99185 146.339193 147.720525 142.248202 147.720525 142.248202 C 147.720525 142.248202 149.713469 145.292191 151.18089 144.976877 " transform="matrix(0.9663,0,0,0.9663,147.0975,135.35025)"/>
<path style="fill:none;stroke-width:0.625;stroke-linecap:butt;stroke-linejoin:miter;stroke:rgb(0%,0%,0%);stroke-opacity:1;stroke-miterlimit:4;" d="M 142.469342 147.078967 C 142.469342 147.078967 146.560333 166.280755 152.644268 171.734063 " transform="matrix(0.9663,0,0,0.9663,147.0975,135.35025)"/>
<path style="fill:none;stroke-width:0.625;stroke-linecap:butt;stroke-linejoin:miter;stroke:rgb(0%,0%,0%);stroke-opacity:1;stroke-miterlimit:4;" d="M 121.379715 145.081982 C 121.379715 145.081982 121.905238 161.130634 122.847136 172.46171 " transform="matrix(0.9663,0,0,0.9663,147.0975,135.35025)"/>
<path style="fill:none;stroke-width:0.625;stroke-linecap:butt;stroke-linejoin:miter;stroke:rgb(0%,0%,0%);stroke-opacity:1;stroke-miterlimit:4;" d="M 120.648026 163.228682 C 120.648026 163.228682 120.126546 173.722964 119.495919 174.454653 " transform="matrix(0.9663,0,0,0.9663,147.0975,135.35025)"/>
<path style="fill:none;stroke-width:0.625;stroke-linecap:butt;stroke-linejoin:miter;stroke:rgb(0%,0%,0%);stroke-opacity:1;stroke-miterlimit:4;" d="M 114.458987 175.509741 C 114.458987 175.509741 115.615136 180.02115 121.383758 175.825054 C 127.152379 171.628958 127.257483 177.39758 127.467692 178.028207 C 127.677902 178.658834 128.623842 183.170243 130.826995 179.390523 " transform="matrix(0.9663,0,0,0.9663,147.0975,135.35025)"/>
<path style="fill:none;stroke-width:0.625;stroke-linecap:butt;stroke-linejoin:miter;stroke:rgb(0%,0%,0%);stroke-opacity:1;stroke-miterlimit:4;" d="M 135.439466 173.201484 C 135.439466 173.201484 134.497568 182.535574 142.784655 175.715907 C 151.071743 168.900283 152.434059 175.614845 152.644268 177.712893 " transform="matrix(0.9663,0,0,0.9663,147.0975,135.35025)"/>
<path style="fill-rule:evenodd;fill:rgb(61.176471%,31.764706%,0%);fill-opacity:1;stroke-width:0.625;stroke-linecap:butt;stroke-linejoin:miter;stroke:rgb(0%,0%,0%);stroke-opacity:1;stroke-miterlimit:4;" d="M 125.470707 28.840422 C 125.470707 28.840422 127.778964 29.155736 129.036175 28.420004 C 130.29743 27.684272 131.76485 27.373001 132.815896 28.840422 C 133.862898 30.307843 134.59863 30.202739 134.59863 30.202739 C 134.59863 30.202739 133.022062 34.083521 134.59863 34.503939 C 136.171155 34.924357 136.906887 34.924357 137.011992 35.44988 C 137.117096 35.975402 135.645633 37.12751 136.066051 37.653032 C 136.486469 38.178555 137.222201 38.805139 137.323263 39.225558 C 137.428367 39.645976 136.381364 41.42871 136.696678 41.849128 C 137.011992 42.269546 137.95389 43.947176 138.584517 43.947176 C 139.215144 43.947176 138.794726 46.570747 140.682565 45.94012 C 142.570404 45.309492 142.465299 43.631863 142.465299 43.631863 C 142.465299 43.631863 144.458243 43.316549 144.983765 41.533815 C 145.509288 39.75108 146.7665 39.330662 146.7665 39.330662 C 146.7665 39.330662 149.284966 37.968346 145.929706 35.870298 C 145.929706 21.17992 136.27626 22.756487 136.27626 22.756487 C 136.27626 22.756487 135.12011 20.132917 133.232271 20.44823 C 131.344432 20.763544 131.239328 22.966696 129.877012 22.756487 C 128.510653 22.546278 128.199382 21.600338 128.094277 21.705442 C 127.989173 21.810547 126.833023 23.908595 126.833023 24.434117 C 126.833023 24.95964 123.16245 23.698386 123.477763 26.427061 C 123.793077 29.155736 125.575811 29.050631 125.470707 28.840422 Z M 125.470707 28.840422 " transform="matrix(0.9663,0,0,0.9663,147.0975,135.35025)"/>
<path style="fill:none;stroke-width:0.625;stroke-linecap:butt;stroke-linejoin:miter;stroke:rgb(0%,0%,0%);stroke-opacity:1;stroke-miterlimit:4;" d="M 135.548613 25.274953 C 135.548613 25.274953 134.816924 29.887425 139.744709 29.471049 C 139.118125 31.985473 141.005963 32.826309 141.005963 32.826309 " transform="matrix(0.9663,0,0,0.9663,147.0975,135.35025)"/>
<path style="fill:none;stroke-width:0.625;stroke-linecap:butt;stroke-linejoin:miter;stroke:rgb(0%,0%,0%);stroke-opacity:1;stroke-miterlimit:4;" d="M 144.668452 35.660089 C 144.773556 35.660089 146.871604 37.022405 144.563347 38.700035 " transform="matrix(0.9663,0,0,0.9663,147.0975,135.35025)"/>
<path style="fill:none;stroke-width:0.625;stroke-linecap:butt;stroke-linejoin:miter;stroke:rgb(0%,0%,0%);stroke-opacity:1;stroke-miterlimit:4;" d="M 137.541557 39.330662 C 137.541557 39.330662 138.588559 40.591916 139.744709 40.276603 C 140.896816 39.961289 142.784655 41.42871 142.784655 41.42871 C 142.784655 41.42871 144.357181 41.954233 144.56739 41.638919 " transform="matrix(0.9663,0,0,0.9663,147.0975,135.35025)"/>
<path style="fill:none;stroke-width:0.625;stroke-linecap:butt;stroke-linejoin:miter;stroke:rgb(0%,0%,0%);stroke-opacity:1;stroke-miterlimit:4;" d="M 131.138266 43.316549 C 131.138266 43.316549 134.707777 44.682908 137.016034 39.015348 " transform="matrix(0.9663,0,0,0.9663,147.0975,135.35025)"/>
<path style="fill:none;stroke-width:0.625;stroke-linecap:butt;stroke-linejoin:miter;stroke:rgb(0%,0%,0%);stroke-opacity:1;stroke-miterlimit:4;" d="M 124.528808 37.337719 L 126.626856 37.442823 " transform="matrix(0.9663,0,0,0.9663,147.0975,135.35025)"/>
<path style="fill:none;stroke-width:0.625;stroke-linecap:butt;stroke-linejoin:round;stroke:rgb(0%,0%,0%);stroke-opacity:1;stroke-miterlimit:4;" d="M 124.848164 39.435767 L 126.740046 39.435767 L 125.058373 40.171498 " transform="matrix(0.9663,0,0,0.9663,147.0975,135.35025)"/>
<path style="fill:none;stroke-width:1.125;stroke-linecap:butt;stroke-linejoin:round;stroke:rgb(0%,0%,0%);stroke-opacity:1;stroke-miterlimit:4;" d="M 127.471735 33.562041 C 127.783006 33.562041 128.939156 33.141623 129.149365 33.456936 C 129.359574 33.77225 127.888111 33.982459 127.471735 33.562041 Z M 127.471735 33.562041 " transform="matrix(0.9663,0,0,0.9663,147.0975,135.35025)"/>
<path style="fill-rule:evenodd;fill:rgb(100%,77.647059%,70.980392%);fill-opacity:1;stroke-width:0.625;stroke-linecap:butt;stroke-linejoin:miter;stroke:rgb(0%,0%,0%);stroke-opacity:1;stroke-miterlimit:4;" d="M 150.129845 58.487983 C 150.234949 58.487983 153.590209 68.873118 154.010627 71.496688 C 154.431045 74.120259 155.793361 84.610499 155.271881 86.07792 C 154.746359 87.549383 149.394113 94.575216 148.767528 96.361993 C 148.136901 98.144727 144.361223 104.964394 144.361223 104.964394 C 144.361223 104.964394 143.415283 111.678956 142.994864 111.990227 C 142.574446 112.30554 144.07825 113.954873 143.940805 114.508693 C 143.730596 115.135278 140.896816 118.078204 139.639605 117.762891 C 138.37835 117.447577 136.385407 115.980156 136.280302 114.613797 C 136.175198 113.251481 136.385407 108.740072 137.331348 107.583922 C 138.273246 106.431815 143.205073 94.785425 143.520387 94.049693 C 143.835701 93.318004 148.031797 84.190081 148.136901 82.617555 C 148.242006 81.040988 146.831179 77.402754 145.347589 76.068735 C 142.044881 66.350609 143.342518 60.489011 150.129845 58.487983 Z M 150.129845 58.487983 " transform="matrix(0.9663,0,0,0.9663,147.0975,135.35025)"/>
<path style="fill:none;stroke-width:0.625;stroke-linecap:butt;stroke-linejoin:miter;stroke:rgb(0%,0%,0%);stroke-opacity:1;stroke-miterlimit:4;" d="M 101.248157 103.501015 L 101.413898 108.097317 " transform="matrix(0.9663,0,0,0.9663,147.0975,135.35025)"/>
<path style="fill:none;stroke-width:0.625;stroke-linecap:butt;stroke-linejoin:miter;stroke:rgb(0%,0%,0%);stroke-opacity:1;stroke-miterlimit:4;" d="M 96.942914 103.161447 C 96.942914 103.161447 99.889883 108.089232 99.643291 110.716845 " transform="matrix(0.9663,0,0,0.9663,147.0975,135.35025)"/>
<path style="fill:none;stroke-width:0.625;stroke-linecap:butt;stroke-linejoin:round;stroke:rgb(0%,0%,0%);stroke-opacity:1;stroke-miterlimit:4;" d="M 136.450087 113.46169 C 136.450087 113.46169 138.653239 113.227226 138.584517 116.909927 C 139.991301 112.33788 142.853378 112.228733 142.853378 112.228733 " transform="matrix(0.9663,0,0,0.9663,147.0975,135.35025)"/>
<path style="fill-rule:evenodd;fill:rgb(96.862745%,77.647059%,0%);fill-opacity:1;stroke-width:1.6105;stroke-linecap:butt;stroke-linejoin:miter;stroke:rgb(0%,0%,0%);stroke-opacity:1;stroke-miterlimit:4;" d="M 768.249167 391.317792 C 825.337708 389.734458 862.202292 348.505292 861.806458 348.109458 C 861.410625 347.713625 869.337708 336.614667 875.681458 338.198 C 882.025208 339.786542 891.145 358.41675 902.243958 362.380292 C 907.790833 371.10425 900.655417 379.031333 898.280417 380.614667 C 895.900208 382.203208 885.197083 386.562583 883.608542 380.218833 C 882.025208 373.875083 878.853333 375.067792 878.853333 375.067792 C 878.853333 375.067792 828.108542 424.619875 769.441875 422.640708 C 708.790833 423.036542 658.842917 375.067792 658.842917 375.067792 L 654.483542 379.823 C 654.483542 379.823 649.723125 384.97925 647.348125 384.583417 C 644.967917 384.187583 634.660625 377.448 633.868958 370.708417 C 633.077292 363.968833 640.212708 359.609458 640.212708 359.609458 C 640.212708 359.609458 657.655417 346.130292 659.634583 338.994875 C 663.598125 335.031333 671.129375 341.770917 671.129375 341.770917 C 671.129375 341.770917 717.118958 394.494875 768.254375 391.323 Z M 768.249167 391.317792 " transform="matrix(0.75,0,0,0.75,-304.515,53.00775)"/>
<path style="fill:none;stroke-width:1.6105;stroke-linecap:butt;stroke-linejoin:miter;stroke:rgb(0%,0%,0%);stroke-opacity:1;stroke-miterlimit:4;" d="M 639.02 360.661542 C 639.02 360.661542 643.73875 359.401125 645.467917 361.369875 C 647.197083 363.333417 659.066875 374.968833 659.066875 374.968833 " transform="matrix(0.75,0,0,0.75,-304.515,53.00775)"/>
<path style="fill:none;stroke-width:1.6105;stroke-linecap:butt;stroke-linejoin:miter;stroke:rgb(0%,0%,0%);stroke-opacity:1;stroke-miterlimit:4;" d="M 649.790833 366.161542 L 645.072083 369.698 C 645.072083 369.698 656.941875 372.057375 654.27 379.838625 " transform="matrix(0.75,0,0,0.75,-304.515,53.00775)"/>
<path style="fill:none;stroke-width:1.6105;stroke-linecap:butt;stroke-linejoin:miter;stroke:rgb(0%,0%,0%);stroke-opacity:1;stroke-miterlimit:4;" d="M 897.98875 360.2605 C 897.98875 360.2605 895.629375 359.000083 891.936667 361.755292 C 888.23875 364.505292 878.884583 374.963625 878.884583 374.963625 " transform="matrix(0.75,0,0,0.75,-304.515,53.00775)"/>
<path style="fill:none;stroke-width:1.6105;stroke-linecap:butt;stroke-linejoin:miter;stroke:rgb(0%,0%,0%);stroke-opacity:1;stroke-miterlimit:4;" d="M 887.379375 365.849042 L 892.48875 369.781333 C 892.48875 369.781333 881.796042 370.489667 884.155417 380.630292 " transform="matrix(0.75,0,0,0.75,-304.515,53.00775)"/>
<path style=" stroke:none;fill-rule:nonzero;fill:rgb(0%,0%,0%);fill-opacity:1;" d="M 220.074219 332.9375 L 219.816406 333.300781 C 219.277344 333.035156 218.664062 332.984375 217.976562 333.152344 C 217.46875 333.28125 216.515625 333.757812 215.117188 334.578125 L 203.335938 341.445312 L 203.011719 341.214844 L 205.980469 327.441406 C 206.339844 325.78125 206.503906 324.773438 206.472656 324.417969 C 206.449219 324.066406 206.199219 323.675781 205.726562 323.25 L 205.984375 322.890625 L 212.335938 327.417969 L 212.078125 327.78125 L 211.863281 327.628906 C 211.289062 327.21875 210.847656 327.011719 210.535156 327.007812 C 210.316406 326.996094 210.140625 327.085938 210.003906 327.277344 C 209.921875 327.394531 209.847656 327.550781 209.785156 327.75 C 209.722656 327.945312 209.597656 328.496094 209.398438 329.40625 L 207.519531 338.015625 L 214.324219 334.011719 C 215.144531 333.523438 215.675781 333.1875 215.917969 332.996094 C 216.160156 332.804688 216.34375 332.628906 216.464844 332.457031 C 216.605469 332.261719 216.675781 332.050781 216.675781 331.828125 C 216.679688 331.605469 216.609375 331.382812 216.460938 331.160156 C 216.261719 330.847656 215.929688 330.527344 215.46875 330.199219 L 215.726562 329.835938 L 220.074219 332.9375 M 224.304688 353.410156 L 224.089844 353.796875 L 216.625 349.714844 L 216.839844 349.328125 L 217.3125 349.585938 C 217.726562 349.8125 218.101562 349.921875 218.433594 349.910156 C 218.667969 349.914062 218.902344 349.820312 219.128906 349.636719 C 219.300781 349.511719 219.582031 349.089844 219.972656 348.375 L 225.109375 338.980469 C 225.507812 338.25 225.71875 337.773438 225.742188 337.550781 C 225.761719 337.324219 225.691406 337.082031 225.527344 336.816406 C 225.371094 336.550781 225.09375 336.308594 224.695312 336.089844 L 224.21875 335.828125 L 224.433594 335.4375 L 231.898438 339.523438 L 231.683594 339.910156 L 231.210938 339.652344 C 230.796875 339.425781 230.421875 339.316406 230.089844 339.328125 C 229.851562 339.324219 229.617188 339.414062 229.382812 339.59375 C 229.210938 339.722656 228.933594 340.144531 228.539062 340.859375 L 223.40625 350.25 C 223.003906 350.980469 222.792969 351.457031 222.773438 351.683594 C 222.757812 351.910156 222.824219 352.160156 222.980469 352.425781 C 223.144531 352.691406 223.429688 352.929688 223.828125 353.148438 L 224.304688 353.410156 M 251.574219 347.011719 L 249.648438 352.417969 L 249.230469 352.265625 C 249.25 350.609375 248.894531 349.21875 248.15625 348.089844 C 247.421875 346.960938 246.453125 346.183594 245.257812 345.757812 C 244.109375 345.347656 243.042969 345.332031 242.050781 345.710938 C 241.0625 346.078125 240.203125 346.785156 239.476562 347.824219 C 238.75 348.863281 238.167969 349.992188 237.734375 351.203125 C 237.210938 352.675781 236.925781 354.023438 236.878906 355.257812 C 236.832031 356.488281 237.097656 357.5 237.683594 358.292969 C 238.273438 359.089844 239.101562 359.679688 240.164062 360.054688 C 240.53125 360.1875 240.921875 360.285156 241.332031 360.347656 C 241.753906 360.402344 242.195312 360.429688 242.65625 360.421875 L 243.792969 357.234375 C 244.007812 356.632812 244.105469 356.230469 244.082031 356.027344 C 244.0625 355.816406 243.949219 355.589844 243.734375 355.355469 C 243.53125 355.121094 243.242188 354.9375 242.875 354.804688 L 242.476562 354.664062 L 242.628906 354.246094 L 250.078125 356.898438 L 249.929688 357.316406 C 249.347656 357.15625 248.925781 357.09375 248.65625 357.132812 C 248.398438 357.167969 248.160156 357.300781 247.941406 357.527344 C 247.824219 357.648438 247.664062 357.984375 247.464844 358.542969 L 246.332031 361.730469 C 245.195312 361.820312 244.058594 361.78125 242.917969 361.625 C 241.78125 361.472656 240.644531 361.195312 239.507812 360.789062 C 238.050781 360.273438 236.914062 359.644531 236.085938 358.910156 C 235.273438 358.171875 234.609375 357.347656 234.097656 356.445312 C 233.597656 355.535156 233.285156 354.605469 233.160156 353.652344 C 233 352.421875 233.152344 351.164062 233.609375 349.875 C 234.433594 347.570312 235.9375 345.910156 238.125 344.898438 C 240.308594 343.882812 242.632812 343.816406 245.089844 344.691406 C 245.851562 344.960938 246.515625 345.265625 247.082031 345.605469 C 247.390625 345.78125 247.863281 346.144531 248.5 346.695312 C 249.148438 347.238281 249.539062 347.535156 249.675781 347.585938 C 249.886719 347.660156 250.109375 347.65625 250.34375 347.566406 C 250.582031 347.472656 250.851562 347.238281 251.15625 346.863281 L 251.574219 347.011719 M 263.0625 365.453125 L 262.996094 365.890625 L 254.582031 364.617188 L 254.648438 364.179688 L 255.183594 364.257812 C 255.648438 364.332031 256.039062 364.304688 256.347656 364.179688 C 256.570312 364.101562 256.757812 363.9375 256.910156 363.683594 C 257.023438 363.507812 257.144531 363.015625 257.265625 362.207031 L 258.871094 351.625 C 258.992188 350.800781 259.027344 350.28125 258.972656 350.0625 C 258.917969 349.84375 258.765625 349.640625 258.519531 349.449219 C 258.28125 349.25 257.9375 349.117188 257.488281 349.050781 L 256.953125 348.96875 L 257.019531 348.527344 L 265.433594 349.804688 L 265.367188 350.242188 L 264.832031 350.160156 C 264.363281 350.089844 263.976562 350.117188 263.667969 350.238281 C 263.445312 350.320312 263.253906 350.484375 263.09375 350.734375 C 262.976562 350.914062 262.859375 351.402344 262.738281 352.210938 L 261.132812 362.792969 C 261.007812 363.617188 260.976562 364.136719 261.03125 364.355469 C 261.09375 364.578125 261.246094 364.785156 261.480469 364.984375 C 261.726562 365.175781 262.078125 365.304688 262.527344 365.371094 L 263.0625 365.453125 M 284.898438 360.148438 L 284.578125 365.882812 L 270.148438 366.621094 L 270.125 366.175781 L 270.664062 366.148438 C 271.136719 366.125 271.511719 366.023438 271.789062 365.839844 C 271.992188 365.71875 272.140625 365.519531 272.238281 365.242188 C 272.316406 365.042969 272.335938 364.539062 272.292969 363.722656 L 271.75 353.035156 C 271.707031 352.203125 271.636719 351.6875 271.539062 351.484375 C 271.441406 351.28125 271.25 351.109375 270.972656 350.972656 C 270.699219 350.824219 270.335938 350.761719 269.878906 350.785156 L 269.339844 350.8125 L 269.320312 350.371094 L 277.984375 349.929688 L 278.003906 350.371094 L 277.296875 350.40625 C 276.828125 350.433594 276.453125 350.535156 276.171875 350.71875 C 275.972656 350.839844 275.816406 351.039062 275.710938 351.316406 C 275.632812 351.515625 275.613281 352.019531 275.65625 352.835938 L 276.183594 363.1875 C 276.226562 364.019531 276.300781 364.550781 276.410156 364.777344 C 276.515625 364.996094 276.714844 365.152344 277 365.25 C 277.203125 365.3125 277.6875 365.324219 278.453125 365.285156 L 279.808594 365.214844 C 280.671875 365.171875 281.382812 364.984375 281.941406 364.648438 C 282.503906 364.316406 282.972656 363.8125 283.355469 363.136719 C 283.746094 362.457031 284.09375 361.472656 284.40625 360.175781 L 284.898438 360.148438 M 300.679688 357.410156 L 295.171875 359.054688 L 294.972656 360.769531 C 294.90625 361.339844 294.925781 361.789062 295.023438 362.117188 C 295.152344 362.554688 295.425781 362.824219 295.839844 362.925781 C 296.085938 362.988281 296.621094 362.925781 297.453125 362.746094 L 297.578125 363.171875 L 292.394531 364.71875 L 292.265625 364.296875 C 292.800781 364.042969 293.191406 363.675781 293.441406 363.191406 C 293.6875 362.703125 293.898438 361.785156 294.070312 360.4375 L 295.929688 346.332031 L 296.148438 346.265625 L 305.589844 357.371094 C 306.488281 358.421875 307.15625 359.054688 307.597656 359.265625 C 307.929688 359.425781 308.335938 359.453125 308.824219 359.347656 L 308.949219 359.773438 L 301.410156 362.027344 L 301.28125 361.601562 L 301.589844 361.507812 C 302.195312 361.328125 302.597656 361.117188 302.792969 360.875 C 302.925781 360.703125 302.957031 360.5 302.886719 360.269531 C 302.847656 360.132812 302.78125 359.996094 302.691406 359.867188 C 302.65625 359.800781 302.453125 359.546875 302.089844 359.105469 L 300.679688 357.410156 M 300.035156 356.675781 L 296.109375 352 L 295.320312 358.085938 L 300.035156 356.675781 M 320.828125 335.488281 L 322.914062 339.367188 L 322.535156 339.570312 C 321.828125 338.796875 321.234375 338.289062 320.75 338.050781 C 320.261719 337.804688 319.71875 337.691406 319.113281 337.71875 C 318.777344 337.734375 318.273438 337.921875 317.605469 338.28125 L 316.539062 338.855469 L 322.480469 349.914062 C 322.875 350.644531 323.160156 351.082031 323.335938 351.222656 C 323.519531 351.363281 323.765625 351.4375 324.074219 351.453125 C 324.386719 351.460938 324.746094 351.351562 325.152344 351.132812 L 325.628906 350.878906 L 325.839844 351.269531 L 318.335938 355.300781 L 318.125 354.910156 L 318.601562 354.65625 C 319.015625 354.433594 319.3125 354.179688 319.484375 353.894531 C 319.617188 353.695312 319.667969 353.449219 319.644531 353.152344 C 319.632812 352.941406 319.433594 352.476562 319.046875 351.757812 L 313.101562 340.703125 L 312.066406 341.261719 C 311.101562 341.78125 310.511719 342.359375 310.292969 343.003906 C 309.988281 343.90625 310.035156 344.925781 310.441406 346.070312 L 310.042969 346.285156 L 307.957031 342.40625 L 320.828125 335.488281 M 330.589844 329.699219 L 334.578125 334.988281 L 334.835938 334.792969 C 335.660156 334.171875 336.0625 333.460938 336.042969 332.664062 C 336.023438 331.867188 335.683594 330.925781 335.023438 329.839844 L 335.390625 329.566406 L 340.519531 336.367188 L 340.15625 336.644531 C 339.519531 335.960938 338.898438 335.476562 338.292969 335.191406 C 337.695312 334.902344 337.171875 334.800781 336.726562 334.886719 C 336.273438 334.964844 335.738281 335.238281 335.121094 335.707031 L 337.882812 339.367188 C 338.421875 340.082031 338.78125 340.496094 338.957031 340.613281 C 339.140625 340.726562 339.355469 340.769531 339.597656 340.746094 C 339.839844 340.722656 340.148438 340.570312 340.519531 340.292969 L 341.292969 339.707031 C 342.507812 338.792969 343.265625 337.777344 343.570312 336.667969 C 343.882812 335.550781 343.761719 334.296875 343.214844 332.90625 L 343.570312 332.640625 L 346.101562 337.210938 L 334.871094 345.679688 L 334.605469 345.324219 L 335.035156 345 C 335.414062 344.714844 335.664062 344.417969 335.792969 344.113281 C 335.890625 343.898438 335.90625 343.648438 335.832031 343.363281 C 335.785156 343.15625 335.515625 342.726562 335.023438 342.078125 L 328.578125 333.53125 C 328.136719 332.941406 327.847656 332.59375 327.714844 332.484375 C 327.480469 332.308594 327.234375 332.226562 326.96875 332.234375 C 326.59375 332.238281 326.191406 332.398438 325.769531 332.71875 L 325.339844 333.042969 L 325.074219 332.6875 L 335.945312 324.488281 L 338.84375 328.328125 L 338.480469 328.601562 C 337.585938 327.804688 336.816406 327.328125 336.167969 327.171875 C 335.527344 327.015625 334.832031 327.070312 334.074219 327.34375 C 333.628906 327.496094 332.914062 327.945312 331.929688 328.6875 L 330.589844 329.699219 "/>
</g>
</svg>
