<?xml version="1.0" encoding="UTF-8"?>
<svg xmlns="http://www.w3.org/2000/svg" xmlns:xlink="http://www.w3.org/1999/xlink" width="384pt" height="384pt" viewBox="0 0 384 384" version="1.1">
<defs>
<clipPath id="clip1">
  <path d="M 0 0 L 383.988281 0 L 383.988281 383.988281 L 0 383.988281 Z M 0 0 "/>
</clipPath>
<clipPath id="clip2">
  <path d="M 0 13 L 383.988281 13 L 383.988281 371 L 0 371 Z M 0 13 "/>
</clipPath>
<clipPath id="clip3">
  <path d="M 0 213 L 383.988281 213 L 383.988281 383.988281 L 0 383.988281 Z M 0 213 "/>
</clipPath>
<clipPath id="clip4">
  <path d="M 0 0 L 383.988281 0 L 383.988281 171 L 0 171 Z M 0 0 "/>
</clipPath>
</defs>
<g id="surface1">
<g clip-path="url(#clip1)" clip-rule="nonzero">
<path style=" stroke:none;fill-rule:evenodd;fill:rgb(0%,0%,0%);fill-opacity:1;" d="M 0 0 L 260.5625 164.566406 L 575.980469 164.566406 L 575.980469 219.425781 L 260.5625 219.425781 L 0 383.984375 L 0 -0.00390625 Z M 0 0 "/>
</g>
<g clip-path="url(#clip2)" clip-rule="nonzero">
<path style=" stroke:none;fill-rule:evenodd;fill:rgb(100%,100%,0%);fill-opacity:1;" d="M 0 370.277344 L 266.050781 200.230469 L 575.980469 200.230469 L 575.980469 183.773438 L 266.050781 183.773438 L 0 13.71875 L 0 38.398438 L 249.59375 191.992188 L 0 345.589844 Z M 0 370.277344 "/>
</g>
<g clip-path="url(#clip3)" clip-rule="nonzero">
<path style=" stroke:none;fill-rule:evenodd;fill:rgb(25.098039%,66.666667%,25.098039%);fill-opacity:1;" d="M 0 383.988281 L 266.050781 213.9375 L 575.980469 213.9375 L 575.980469 383.988281 Z M 0 383.988281 "/>
</g>
<g clip-path="url(#clip4)" clip-rule="nonzero">
<path style=" stroke:none;fill-rule:evenodd;fill:rgb(80.784314%,0%,0%);fill-opacity:1;" d="M 0 0 L 266.050781 170.046875 L 575.980469 170.046875 L 575.980469 0 Z M 0 0 "/>
</g>
<path style=" stroke:none;fill-rule:evenodd;fill:rgb(100%,100%,0%);fill-opacity:1;" d="M 71.855469 199.96875 C 72.773438 200.167969 73.015625 200.433594 73.929688 199.09375 C 74.125 198.421875 74.695312 197.480469 75.195312 196.648438 C 75.859375 195.554688 76.152344 195.117188 76.777344 195.949219 C 77.179688 196.421875 78.792969 195.546875 79.460938 196.007812 C 80.496094 196.695312 79.875 196.59375 80.722656 195.851562 C 81.375 194.464844 80.800781 194.628906 79.882812 194 C 79.238281 193.558594 77.59375 194.46875 76.949219 194.027344 C 77.175781 192.640625 77.617188 192.492188 78.414062 192.222656 C 79.015625 192.636719 80.773438 191.910156 81.316406 191.921875 C 82.082031 192.082031 82.765625 192.167969 83.003906 191.042969 C 83.382812 190.242188 83.21875 190.792969 82.914062 190.214844 C 82.273438 189.773438 80.628906 190.683594 79.984375 190.242188 C 79.148438 189.609375 79.285156 189.371094 79.773438 188.3125 C 80.425781 187.953125 80.914062 188.125 81.722656 188.628906 C 82.554688 189.199219 83.863281 188.089844 84.59375 188.050781 C 85.25 187.304688 86.023438 187.054688 85.535156 186.144531 C 85.261719 185.453125 85.054688 185.375 84.15625 185.199219 C 83.234375 184.566406 82.035156 185.722656 81.683594 184.777344 C 82.414062 183.730469 82.6875 183.953125 83.574219 184.542969 C 84.144531 184.738281 85.863281 183.71875 86.414062 183.6875 C 87.234375 183.453125 86.839844 184.375 87.417969 182.335938 C 87.214844 181.449219 85.734375 182.875 84.898438 182.648438 C 84.097656 182.753906 83.457031 182.46875 83.382812 181.605469 C 83.394531 180.441406 83.96875 180.363281 84.796875 180.535156 C 85.523438 180.664062 87.164062 179.761719 87.777344 179.773438 C 88.644531 180.238281 88.921875 180.066406 89.605469 178.988281 C 90.109375 177.71875 89.550781 178.246094 88.6875 177.59375 C 88.042969 177.152344 86.398438 178.0625 85.753906 177.621094 C 85.867188 177.152344 86.070312 176.582031 86.511719 176.355469 C 87.144531 176.480469 87.691406 176.453125 88.488281 176.949219 C 89.273438 177.292969 90.570312 175.773438 91.242188 175.265625 C 91.113281 174.542969 89.828125 175.570312 89.046875 175.035156 C 88.550781 174.695312 87.929688 174.339844 87.773438 173.90625 C 88.21875 172.640625 88.003906 172.703125 89.21875 173.113281 C 89.867188 172.945312 90.964844 172.953125 90.222656 171.757812 C 90.101562 171.566406 89.460938 171.636719 88.902344 171.363281 C 88.226562 170.902344 87.578125 170.433594 86.863281 170.21875 C 86.347656 170.140625 85.597656 169.972656 85.191406 170.089844 C 85.148438 170.84375 85.335938 171.320312 85.292969 172.203125 C 85.628906 172.75 86.261719 172.765625 86.394531 172.960938 C 85.71875 173.554688 85.355469 173.25 84.644531 173.289062 C 83.796875 172.707031 84.285156 170.902344 83.285156 171.332031 C 83.515625 171.863281 83.429688 173.863281 83.859375 174.28125 C 84.3125 174.589844 84.890625 174.894531 84.992188 175.3125 C 84.273438 176.421875 84 176.359375 83.132812 175.824219 C 82.410156 175.328125 82.640625 173.699219 82.019531 173.78125 C 81.257812 174.355469 81.246094 174.332031 81.402344 175.144531 C 81.441406 176.207031 81.019531 177.6875 81.871094 178.269531 C 82.894531 178.996094 83.023438 178.910156 82.21875 180.296875 C 81.664062 180.96875 81.351562 180.847656 80.714844 180.539062 C 80.027344 180.066406 80.175781 178.332031 79.644531 177.765625 C 78.640625 177.164062 79.222656 177.1875 78.386719 177.921875 C 78.128906 178.863281 78.316406 179.109375 78.734375 179.945312 C 79.074219 180.464844 79.054688 182.234375 79.632812 182.347656 C 80.574219 182.886719 80.605469 182.777344 79.539062 183.8125 C 78.699219 183.847656 78.339844 184.074219 77.699219 183.316406 C 76.917969 182.726562 77.40625 180.914062 76.414062 180.902344 C 75.496094 180.976562 75.296875 181.003906 75.414062 182.257812 C 75.570312 183.359375 75.160156 185.097656 76.050781 185.753906 C 76.878906 186.132812 77.382812 186.109375 77.675781 186.617188 C 77.414062 186.84375 76.929688 187.542969 76.644531 187.691406 C 76.0625 187.734375 75.460938 187.332031 74.800781 187.195312 C 74.019531 186.832031 74.375 186.132812 73.746094 185.703125 C 73.023438 185.9375 73.007812 184.925781 72.625 185.957031 C 72.773438 186.800781 72.488281 187.902344 73.28125 188.445312 C 73.921875 188.886719 74.488281 189.785156 75.132812 190.226562 C 75.871094 191.101562 75.582031 191.253906 75.125 192.519531 C 74.511719 192.535156 73.789062 192.109375 73.117188 191.652344 C 72.472656 191.207031 72.585938 189.5 71.941406 189.058594 C 71.386719 188.511719 71.546875 188.042969 70.683594 189.214844 C 70.601562 190.042969 70.757812 190.105469 70.972656 190.6875 C 70.996094 191.535156 70.769531 193.097656 71.546875 193.632812 C 72.335938 193.792969 73.183594 194.203125 73.800781 194.417969 C 74.394531 195.109375 73.878906 194.976562 73.214844 196.054688 C 72.796875 197.132812 72.792969 197.324219 72.136719 197.863281 C 71.566406 198.625 71.339844 198.957031 71.855469 199.96875 Z M 71.855469 199.96875 "/>
<path style=" stroke:none;fill-rule:evenodd;fill:rgb(100%,100%,0%);fill-opacity:1;" d="M 90.6875 200.886719 C 91.242188 199.988281 91.578125 199.839844 90.714844 198.335938 C 90.175781 197.859375 89.539062 196.875 88.96875 196.011719 C 88.230469 194.871094 87.945312 194.386719 88.957031 194.054688 C 89.554688 193.8125 89.394531 191.75 90.082031 191.222656 C 91.125 190.402344 90.785156 191.019531 90.4375 189.824219 C 89.425781 188.578125 89.347656 189.253906 88.40625 189.976562 C 87.742188 190.484375 87.925781 192.59375 87.261719 193.101562 C 86.082031 192.308594 86.121094 191.78125 86.191406 190.828125 C 86.8125 190.351562 86.839844 188.195312 87.066406 187.625 C 87.519531 186.875 87.871094 186.183594 86.933594 185.476562 C 86.351562 184.753906 86.789062 185.152344 86.136719 185.242188 C 85.476562 185.75 85.65625 187.859375 84.996094 188.367188 C 84.082031 189 83.917969 188.761719 83.140625 187.820312 C 83.070312 186.980469 83.425781 186.53125 84.207031 185.875 C 85.0625 185.21875 84.566406 183.386719 84.820312 182.59375 C 84.394531 181.597656 84.472656 180.675781 83.445312 180.832031 C 82.699219 180.847656 82.546875 181.035156 82.027344 181.921875 C 81.078125 182.644531 81.664062 184.382812 80.65625 184.375 C 79.988281 183.179688 80.300781 182.980469 81.195312 182.277344 C 81.597656 181.75 81.347656 179.515625 81.539062 178.917969 C 81.648438 177.949219 82.335938 178.742188 80.695312 177.3125 C 79.804688 177.171875 80.523438 179.316406 79.980469 180.109375 C 79.757812 181.007812 79.242188 181.570312 78.417969 181.304688 C 77.355469 180.828125 77.511719 180.183594 78 179.375 C 78.410156 178.65625 78.234375 176.550781 78.488281 175.90625 C 79.257812 175.167969 79.210938 174.808594 78.496094 173.652344 C 77.53125 172.609375 77.789062 173.414062 76.847656 174.070312 C 76.1875 174.574219 76.371094 176.6875 75.707031 177.195312 C 75.324219 176.886719 74.878906 176.441406 74.84375 175.886719 C 75.210938 175.261719 75.402344 174.671875 76.175781 174.019531 C 76.804688 173.324219 75.925781 171.34375 75.726562 170.425781 C 75.011719 170.273438 75.445312 172.046875 74.644531 172.664062 C 74.132812 173.054688 73.558594 173.570312 73.101562 173.5625 C 72.113281 172.585938 72.085938 172.839844 72.949219 171.710938 C 73.050781 170.957031 73.496094 169.792969 72.101562 170.109375 C 71.878906 170.15625 71.6875 170.863281 71.214844 171.351562 C 70.519531 171.882812 69.835938 172.382812 69.351562 173.058594 C 69.074219 173.574219 68.621094 174.304688 68.570312 174.785156 C 69.242188 175.128906 69.757812 175.121094 70.546875 175.519531 C 71.1875 175.382812 71.449219 174.710938 71.683594 174.648438 C 71.957031 175.605469 71.535156 175.867188 71.289062 176.640625 C 70.414062 177.308594 68.953125 176.070312 68.949219 177.304688 C 69.527344 177.273438 71.332031 178.160156 71.886719 177.871094 C 72.351562 177.515625 72.859375 177.023438 73.285156 177.078125 C 74.015625 178.289062 73.851562 178.554688 73.011719 179.257812 C 72.269531 179.828125 70.863281 178.933594 70.695312 179.625 C 70.921875 180.664062 70.890625 180.667969 71.699219 180.828125 C 72.691406 181.207031 73.882812 182.25 74.757812 181.578125 C 75.832031 180.78125 75.804688 180.609375 76.753906 182.019531 C 77.152344 182.878906 76.914062 183.160156 76.378906 183.714844 C 75.671875 184.253906 74.140625 183.402344 73.40625 183.738281 C 72.457031 184.566406 72.707031 183.957031 73.046875 185.136719 C 73.808594 185.789062 74.113281 185.691406 75.046875 185.578125 C 75.65625 185.421875 77.273438 186.15625 77.609375 185.582031 C 78.476562 184.800781 78.390625 184.722656 78.917969 186.269531 C 78.613281 187.171875 78.679688 187.648438 77.726562 188.027344 C 76.875 188.617188 75.40625 187.375 75 188.425781 C 74.707031 189.429688 74.648438 189.652344 75.847656 190.027344 C 76.921875 190.300781 78.355469 191.433594 79.3125 190.75 C 79.988281 190.019531 80.167969 189.476562 80.746094 189.371094 C 80.851562 189.734375 81.304688 190.535156 81.328125 190.894531 C 81.132812 191.53125 80.523438 192.007812 80.136719 192.652344 C 79.492188 193.339844 78.992188 192.683594 78.347656 193.175781 C 78.273438 194.039062 77.339844 193.648438 78.132812 194.46875 C 78.964844 194.648438 79.863281 195.390625 80.679688 194.769531 C 81.339844 194.261719 82.390625 194.019531 83.050781 193.511719 C 84.148438 193.078125 84.171875 193.445312 85.152344 194.433594 C 84.925781 195.097656 84.246094 195.691406 83.558594 196.222656 C 82.894531 196.726562 81.371094 195.925781 80.707031 196.433594 C 79.984375 196.804688 79.621094 196.449219 80.351562 197.832031 C 81.082031 198.25 81.199219 198.109375 81.816406 198.117188 C 82.605469 198.429688 83.953125 199.292969 84.753906 198.679688 C 85.210938 197.910156 85.925781 197.171875 86.367188 196.601562 C 87.242188 196.246094 86.910156 196.742188 87.636719 197.878906 C 88.464844 198.753906 88.636719 198.832031 88.871094 199.746094 C 89.339844 200.65625 89.558594 201.027344 90.6875 200.886719 Z M 90.6875 200.886719 "/>
<path style=" stroke:none;fill-rule:evenodd;fill:rgb(100%,100%,0%);fill-opacity:1;" d="M 73.503906 235.878906 C 73.503906 231.886719 72.886719 227.898438 73.503906 227.898438 C 108.613281 227.898438 117.390625 203.960938 117.390625 188.003906 C 117.390625 172.042969 105.195312 156.085938 82.28125 156.085938 C 55.949219 156.085938 47.175781 171.675781 47.175781 188.003906 C 47.175781 203.960938 60.339844 215.929688 73.503906 215.929688 C 91.058594 215.929688 95.449219 211.941406 108.613281 195.984375 C 104.222656 215.929688 82.28125 223.910156 73.503906 223.910156 C 55.953125 223.910156 38.398438 211.941406 38.398438 188.003906 C 38.398438 168.058594 51.5625 148.109375 82.285156 148.109375 C 108.613281 148.109375 126.167969 168.058594 126.167969 188.003906 C 126.167969 215.933594 104.226562 235.878906 73.503906 235.878906 Z M 73.503906 235.878906 "/>
</g>
</svg>
