<?xml version="1.0" encoding="UTF-8"?>
<svg xmlns="http://www.w3.org/2000/svg" xmlns:xlink="http://www.w3.org/1999/xlink" width="384pt" height="384pt" viewBox="0 0 384 384" version="1.1">
<g id="surface1">
<rect x="0" y="0" width="384" height="384" style="fill:rgb(100%,0%,0%);fill-opacity:1;stroke:none;"/>
<path style=" stroke:none;fill-rule:evenodd;fill:rgb(0%,0%,41.960784%);fill-opacity:1;" d="M 0 -0.75 L 192 -0.75 L 192 95.25 L 0 95.25 Z M 0 -0.75 "/>
<path style=" stroke:none;fill-rule:evenodd;fill:rgb(100%,100%,100%);fill-opacity:1;" d="M 99.394531 87.429688 L 91.78125 82.292969 L 84.480469 87.515625 L 86.800781 78.351562 L 79.792969 72.703125 L 88.84375 72.179688 L 91.8125 63.460938 L 95.082031 72.304688 L 103.925781 72.5625 L 96.898438 78.554688 Z M 99.394531 87.429688 "/>
<path style=" stroke:none;fill-rule:evenodd;fill:rgb(100%,100%,100%);fill-opacity:1;" d="M 98.089844 26.46875 L 91.996094 22.554688 L 86.015625 26.441406 L 87.675781 19.140625 L 82.316406 14.367188 L 89.4375 13.769531 L 92.097656 6.9375 L 94.839844 13.867188 L 101.847656 14.417969 L 96.421875 19.296875 Z M 98.089844 26.46875 "/>
<path style=" stroke:none;fill-rule:evenodd;fill:rgb(100%,100%,100%);fill-opacity:1;" d="M 71.167969 48.40625 L 65.242188 44.339844 L 59.183594 48.40625 L 61.066406 41.277344 L 55.484375 36.53125 L 62.570312 36.195312 L 65.179688 29.195312 L 67.679688 36.117188 L 74.871094 36.535156 L 69.328125 41.148438 Z M 71.167969 48.40625 "/>
<path style=" stroke:none;fill-rule:evenodd;fill:rgb(100%,100%,100%);fill-opacity:1;" d="M 125.140625 43.503906 L 119.453125 39.835938 L 113.917969 43.550781 L 115.511719 36.78125 L 110.414062 32.449219 L 117.085938 31.933594 L 119.464844 25.542969 L 121.996094 31.992188 L 128.566406 32.375 L 123.460938 36.875 Z M 125.140625 43.503906 "/>
<path style=" stroke:none;fill-rule:evenodd;fill:rgb(100%,100%,100%);fill-opacity:1;" d="M 109.234375 59.535156 L 105.441406 57.171875 L 101.660156 59.558594 L 102.648438 55.070312 L 99.296875 52.0625 L 103.699219 51.652344 L 105.414062 47.410156 L 107.148438 51.640625 L 111.550781 52.023438 L 108.222656 55.050781 Z M 109.234375 59.535156 "/>
</g>
</svg>
