<?xml version="1.0" encoding="UTF-8"?>
<svg xmlns="http://www.w3.org/2000/svg" xmlns:xlink="http://www.w3.org/1999/xlink" width="384pt" height="384pt" viewBox="0 0 384 384" version="1.1">
<g id="surface1">
<path style=" stroke:none;fill-rule:evenodd;fill:rgb(0%,0%,0%);fill-opacity:1;" d="M -53.902344 305.832031 L -53.902344 78.277344 L 115.472656 191.996094 L -53.902344 305.839844 Z M -53.902344 305.832031 "/>
<path style=" stroke:none;fill-rule:evenodd;fill:rgb(0%,0%,80%);fill-opacity:1;" d="M 61.671875 384.042969 L 251.828125 256.0625 L 522.117188 256.0625 L 522.117188 384.042969 Z M 61.671875 384.042969 "/>
<path style=" stroke:none;fill-rule:evenodd;fill:rgb(100%,0%,0%);fill-opacity:1;" d="M 49.445312 0.00390625 L 522.101562 0.015625 L 522.101562 128.015625 L 251.8125 128.015625 C 251.8125 128.015625 51.980469 -1.261719 49.445312 0.00390625 Z M 49.445312 0.00390625 "/>
<path style=" stroke:none;fill-rule:evenodd;fill:rgb(100%,80%,0%);fill-opacity:1;" d="M -53.902344 48.015625 L -53.902344 78.261719 L 115.472656 191.980469 L -53.902344 305.820312 L -53.902344 336.066406 L 159.433594 191.980469 Z M -53.902344 48.015625 "/>
<path style=" stroke:none;fill-rule:evenodd;fill:rgb(0%,60%,20%);fill-opacity:1;" d="M -53.902344 48.015625 L -53.902344 0.00390625 L 17.265625 0.00390625 L 243.257812 152.914062 L 522.097656 152.914062 L 522.097656 231.109375 L 243.257812 231.109375 L 17.265625 383.992188 L -53.902344 383.992188 L -53.902344 336.066406 L 159.433594 191.980469 Z M -53.902344 48.015625 "/>
<path style=" stroke:none;fill-rule:evenodd;fill:rgb(100%,100%,100%);fill-opacity:1;" d="M 17.265625 0.00390625 L 61.664062 0.00390625 L 251.820312 128.007812 L 522.109375 128.007812 L 522.109375 152.914062 L 243.265625 152.914062 L 17.277344 0.00390625 Z M 17.265625 0.00390625 "/>
<path style=" stroke:none;fill-rule:evenodd;fill:rgb(100%,100%,100%);fill-opacity:1;" d="M 17.265625 384.042969 L 61.664062 384.042969 L 251.820312 256.0625 L 522.109375 256.0625 L 522.109375 231.160156 L 243.265625 231.160156 L 17.277344 384.042969 Z M 17.265625 384.042969 "/>
</g>
</svg>
