<?xml version="1.0" encoding="UTF-8"?>
<svg xmlns="http://www.w3.org/2000/svg" xmlns:xlink="http://www.w3.org/1999/xlink" width="384pt" height="384pt" viewBox="0 0 384 384" version="1.1">
<defs>
<clipPath id="clip1">
  <path d="M 0 0 L 383.980469 0 L 383.980469 383.988281 L 0 383.988281 Z M 0 0 "/>
</clipPath>
<clipPath id="clip2">
  <path d="M 316 137 L 383.980469 137 L 383.980469 383.988281 L 316 383.988281 Z M 316 137 "/>
</clipPath>
<clipPath id="clip3">
  <path d="M 248 137 L 317 137 L 317 383.988281 L 248 383.988281 Z M 248 137 "/>
</clipPath>
<clipPath id="clip4">
  <path d="M 179 137 L 249 137 L 249 383.988281 L 179 383.988281 Z M 179 137 "/>
</clipPath>
</defs>
<g id="surface1">
<g clip-path="url(#clip1)" clip-rule="nonzero">
<path style=" stroke:none;fill-rule:evenodd;fill:rgb(9.803922%,54.117647%,0%);fill-opacity:1;" d="M -192 0 L 383.980469 0 L 383.980469 383.988281 L -192 383.988281 Z M -192 0 "/>
</g>
<g clip-path="url(#clip2)" clip-rule="nonzero">
<path style=" stroke:none;fill-rule:evenodd;fill:rgb(93.72549%,49.019608%,0%);fill-opacity:1;" d="M 316.390625 137.949219 L 383.980469 137.949219 L 383.980469 383.964844 L 316.390625 383.964844 Z M 316.390625 137.949219 "/>
</g>
<g clip-path="url(#clip3)" clip-rule="nonzero">
<path style=" stroke:none;fill-rule:evenodd;fill:rgb(0%,0%,0%);fill-opacity:1;" d="M 248.882812 137.832031 L 316.402344 137.832031 L 316.402344 383.902344 L 248.882812 383.902344 Z M 248.882812 137.832031 "/>
</g>
<g clip-path="url(#clip4)" clip-rule="nonzero">
<path style=" stroke:none;fill-rule:evenodd;fill:rgb(87.058824%,12.54902%,6.27451%);fill-opacity:1;" d="M 179.949219 137.988281 L 248.902344 137.988281 L 248.902344 383.996094 L 179.949219 383.996094 Z M 179.949219 137.988281 "/>
</g>
<path style="fill-rule:evenodd;fill:rgb(93.72549%,49.019608%,0%);fill-opacity:1;stroke-width:1.25;stroke-linecap:butt;stroke-linejoin:round;stroke:rgb(0%,0%,0%);stroke-opacity:1;stroke-miterlimit:4;" d="M 292.600673 63.484336 C 292.600673 63.484336 338.126599 44.028155 342.537972 40.022265 C 344.544412 42.427197 324.284257 66.888993 284.980394 75.914479 C 320.676858 67.497217 351.157976 41.021989 357.380039 41.825964 C 359.183738 42.224456 358.778255 67.692967 276.954632 89.756822 C 333.512485 74.914755 366.398534 47.642544 366.000043 50.648709 C 366.398534 51.249942 360.386204 72.10434 310.847397 88.351614 C 324.689739 85.142708 362.189903 62.28187 361.791411 66.693242 C 362.993877 68.496941 325.486723 116.630541 257.708183 100.984499 C 311.854113 115.022592 346.949344 81.129827 351.968941 81.73106 C 352.968666 81.933801 341.936739 111.415194 273.752716 113.218893 C 306.443016 109.807245 297.019037 113.016151 297.019037 113.016151 C 297.019037 113.016151 277.765597 128.06096 254.499277 117.833007 C 272.752992 122.845613 274.752441 123.048354 275.157924 124.649312 C 273.955458 126.655752 258.910649 129.661917 244.474065 121.838897 C 256.107226 126.655752 266.530929 127.459727 266.73367 129.263426 C 266.530929 129.864659 259.113391 134.07329 252.492836 131.067125 C 245.879273 128.06096 184.910047 90.553805 184.910047 90.553805 L 288.790534 62.079128 Z M 292.600673 63.484336 " transform="matrix(0.558748,0,0,0.558748,175.205399,13.719688)"/>
<path style="fill-rule:evenodd;fill:rgb(93.72549%,49.019608%,0%);fill-opacity:1;stroke-width:1.25;stroke-linecap:butt;stroke-linejoin:round;stroke:rgb(0%,0%,0%);stroke-opacity:1;stroke-miterlimit:4;" d="M 170.473463 164.931926 C 161.336119 164.931926 161.08444 173.055563 161.08444 173.055563 C 161.08444 173.055563 160.329403 173.642814 160.832761 177.585784 C 162.342834 174.901209 163.097871 174.062279 163.097871 174.062279 C 164.097596 174.230065 168.292245 175.48846 174.9128 170.294086 C 168.879496 176.579068 172.479903 178.928072 172.479903 178.928072 C 172.479903 178.928072 171.053723 183.870767 175.667837 184.877483 C 174.241656 182.864051 175.080586 181.102298 175.080586 181.102298 C 175.080586 181.102298 181.533354 180.438146 181.11389 172.559196 C 181.365568 179.683109 185.217655 181.43787 185.217655 181.43787 C 185.217655 181.43787 185.217655 185.380841 189.412304 185.716412 C 187.147193 183.702981 187.650551 180.598941 187.650551 180.598941 C 187.650551 180.598941 193.096604 176.662961 188.489481 169.958514 C 191.257949 168.364547 193.516069 163.92521 193.516069 163.92521 C 193.516069 163.92521 189.747876 162.331243 187.986123 160.988956 C 187.147193 159.227203 187.90223 149.593492 187.90223 149.593492 L 185.63712 137.10742 L 179.184351 156.549619 C 179.43603 153.78115 179.603816 164.931926 170.473463 164.931926 Z M 170.473463 164.931926 " transform="matrix(0.558748,0,0,0.558748,175.205399,13.719688)"/>
<path style="fill-rule:evenodd;fill:rgb(93.72549%,49.019608%,0%);fill-opacity:1;stroke-width:1.25;stroke-linecap:butt;stroke-linejoin:round;stroke:rgb(0%,0%,0%);stroke-opacity:1;stroke-miterlimit:4;" d="M 215.586915 136.876714 C 215.789656 137.079455 222.410211 144.503984 228.828024 144.098502 C 231.232956 142.092061 223.815418 137.680688 223.815418 136.680964 C 226.416101 139.085896 237.448028 148.509874 244.467074 145.105217 C 247.277489 141.092336 239.454468 141.693569 230.834464 130.864384 C 236.846795 134.877265 251.891603 143.70001 258.910649 140.288362 C 261.916815 137.079455 243.264608 127.054244 237.049536 119.231223 L 221.005003 111.009711 L 199.14389 128.857943 Z M 215.586915 136.876714 " transform="matrix(0.558748,0,0,0.558748,175.205399,13.719688)"/>
<path style="fill-rule:evenodd;fill:rgb(93.72549%,49.019608%,0%);fill-opacity:1;stroke-width:1.25;stroke-linecap:round;stroke-linejoin:round;stroke:rgb(0%,0%,0%);stroke-opacity:1;stroke-miterlimit:4;" d="M 190.922377 75.914479 C 190.922377 75.914479 198.339915 71.503107 228.024049 73.712289 C 231.232956 74.11078 248.277214 67.895708 253.688311 66.092009 C 262.315306 64.48406 289.790258 58.47173 297.207796 52.8509 C 302.423143 52.249667 295.802589 62.47762 289.189025 64.889543 C 282.169979 68.09845 256.701468 76.921195 247.675981 75.718729 C 258.505167 75.914479 252.485845 84.744216 234.434872 80.528594 C 243.061867 85.345449 239.85296 86.142432 239.85296 86.142432 C 239.85296 86.142432 224.612401 86.946407 220.59952 83.54175 C 230.827473 87.351889 226.618842 88.750106 226.618842 88.750106 C 226.618842 88.750106 216.188148 89.756822 211.378283 87.54764 C 218.795821 89.756822 214.985682 91.162029 214.985682 91.162029 C 214.985682 91.162029 208.96636 92.161754 203.953754 90.358055 C 198.941148 88.554356 191.320869 75.92147 190.922377 75.92147 Z M 190.922377 75.914479 " transform="matrix(0.558748,0,0,0.558748,175.205399,13.719688)"/>
<path style="fill-rule:evenodd;fill:rgb(93.72549%,49.019608%,0%);fill-opacity:1;stroke-width:1.25;stroke-linecap:butt;stroke-linejoin:round;stroke:rgb(0%,0%,0%);stroke-opacity:1;stroke-miterlimit:4;" d="M 202.821199 141.043399 L 203.911808 160.653384 C 203.911808 160.653384 203.324557 161.6601 202.821199 162.24735 C 202.317841 162.82761 188.908946 160.150026 190.7476 170.370988 C 190.7476 174.565637 190.838484 175.656246 193.683855 177.998258 C 192.928818 175.236781 193.180497 173.307242 193.180497 173.307242 C 193.180497 173.307242 196.955681 175.572353 200.639981 169.371263 C 198.130183 175.48846 199.884945 177.662686 200.472195 177.837463 C 201.059446 178.921081 199.46548 183.870767 204.499059 183.786874 C 202.56952 181.941228 203.492343 179.256653 203.492343 179.256653 C 203.492343 179.256653 208.77061 178.417723 206.924964 168.867905 C 208.854503 166.938366 209.60954 168.784012 209.60954 168.784012 C 209.60954 168.784012 210.19679 174.481744 214.803913 173.307242 C 216.901238 174.481744 214.468341 177.578793 214.468341 177.578793 C 214.468341 177.578793 217.824061 177.662686 218.830777 174.817316 C 219.837492 171.964954 221.005003 166.854473 215.475057 164.757149 C 214.803913 162.750708 217.656275 162.582922 217.656275 162.582922 C 217.656275 162.582922 221.172789 163.750433 222.179505 165.512186 C 223.186221 167.273938 222.850649 160.905063 218.495205 160.233919 C 213.126054 160.066133 212.797473 158.975524 212.797473 158.723845 C 212.797473 158.472166 211.87465 144.47602 211.455185 140.456148 Z M 202.821199 141.043399 " transform="matrix(0.558748,0,0,0.558748,175.205399,13.719688)"/>
<path style="fill-rule:evenodd;fill:rgb(93.72549%,49.019608%,0%);fill-opacity:1;stroke-width:1.25;stroke-linecap:round;stroke-linejoin:round;stroke:rgb(0%,0%,0%);stroke-opacity:1;stroke-miterlimit:4;" d="M 221.480397 157.752085 C 221.543316 156.850235 212.32907 144.441065 214.671083 142.840107 C 217.006104 143.322492 220.837217 148.964295 223.941258 147.132631 C 223.004453 144.93044 220.228993 146.167862 217.076015 140.540041 C 213.930028 134.171165 213.468617 124.614356 202.436689 114.183662 C 209.581575 125.22258 225.779912 131.689331 226.465038 128.473434 C 227.150164 125.250545 212.203231 113.086062 212.965259 110.156799 C 215.94346 116.17612 230.953313 129.592007 242.013204 128.480425 C 242.768241 125.900715 232.952762 120.685368 230.428982 115.819575 C 223.360998 111.072631 204.457112 94.776419 204.079594 90.994243 C 197.200369 80.962041 192.900854 77.927911 190.901404 76.767391 C 190.132385 75.858551 189.936635 74.984666 189.782831 74.43237 C 185.51128 64.365212 191.167065 61.093386 194.480838 60.611001 C 197.20736 60.310385 197.997352 60.715867 199.954855 59.76508 C 197.633816 58.863231 195.312777 58.010319 192.991738 57.101478 C 196.018876 59.324642 203.751013 57.367139 202.080144 63.763979 C 205.463828 62.470629 212.678624 53.892571 193.900578 51.956042 C 187.790373 44.943986 162.664424 40.917123 156.379442 71.510098 C 156.875808 71.943545 157.14147 72.293099 158.742427 73.488574 C 150.800558 69.65047 129.400856 66.686251 121.689693 65.441839 C 100.849278 59.429508 79.211879 44.936995 77.128537 46.719721 C 74.346086 47.957143 89.719475 62.253905 88.922492 62.575495 C 75.590499 54.801412 63.412034 49.292439 52.086481 44.286825 C 44.116648 41.308624 36.132832 34.366479 35.251956 35.687794 C 32.315701 41.763044 48.031654 57.038558 50.953926 58.835266 C 53.876198 60.555072 76.862875 71.216472 76.527304 71.349303 C 41.900475 55.640342 36.097877 52.78798 34.357097 50.97729 C 31.308986 50.292164 23.877465 40.25297 21.801114 40.89615 C 20.668559 42.014723 22.94066 57.870497 39.467578 64.987418 C 42.159145 66.951912 74.877408 78.689939 74.555818 79.612762 C 74.478917 79.843467 37.083619 64.176453 35.629474 63.617166 C 28.414678 60.785778 19.570959 50.879415 17.914073 51.990997 C 16.341079 53.004704 21.996864 63.729024 29.281572 67.091734 C 33.098702 68.783576 47.745019 76.033328 60.944182 80.654433 C 61.790103 80.95505 37.223441 71.335321 25.415503 66.399617 C 20.060335 63.428407 17.536554 59.723134 16.718597 60.520117 C 15.516131 61.3171 18.669109 77.165883 56.623693 86.107477 C 57.623418 86.533933 69.983651 83.178214 69.368436 83.625643 C 69.221623 83.7375 57.099087 86.373138 55.917594 86.282254 C 54.868932 86.121459 48.227404 87.072246 48.108555 87.414809 C 47.710064 88.484445 50.513488 94.161203 70.10949 92.972719 C 72.612298 92.825907 86.209952 88.023033 85.070406 89.057713 C 84.497137 89.575054 66.558021 95.405616 65.187769 95.517473 C 63.999285 95.685259 57.70032 96.342421 57.469614 97.013565 C 57.18298 97.929396 62.132666 101.970242 72.654244 102.613421 C 81.973356 103.109788 99.681767 96.922681 99.325222 97.321172 C 98.968677 97.726655 82.253 103.452351 81.819553 103.801905 C 81.211328 104.144468 75.094132 104.473049 74.877408 104.941452 C 74.381041 106.115953 83.707145 114.833833 111.286963 105.528703 C 108.518495 109.268931 95.151546 111.827667 95.165528 112.505802 C 95.102608 112.995178 98.115765 115.896477 102.785807 116.938148 C 105.12782 117.462479 108.322744 117.350622 111.245017 116.889211 C 116.495319 115.840548 122.032256 113.764197 129.058293 107.269482 C 129.904214 109.303887 111.496695 118.616008 112.36359 119.503875 C 116.355497 123.202158 129.610589 119.028482 130.477483 118.546097 C 131.344377 118.056721 156.001923 104.15845 155.911039 102.543511 C 156.295549 104.60588 124.129581 122.090576 124.479135 122.803666 C 126.541504 126.096466 137.531485 122.628889 138.055816 122.328272 C 138.580147 122.027656 152.079926 114.735957 152.450454 114.519234 C 152.820981 114.30251 136.580697 124.020114 138.027851 125.502224 C 137.328743 131.80818 163.384506 121.14678 165.425902 119.818474 C 166.4466 119.154321 152.911865 125.767885 152.87691 128.913872 C 157.232354 136.282472 171.193544 133.94046 173.346797 132.32552 C 174.423424 131.514554 172.074421 137.799537 172.829457 137.226268 C 173.095119 137.10742 175.870578 133.828602 176.933222 131.458625 C 176.590659 133.514004 175.066604 136.757866 174.171745 140.484112 C 173.276887 144.203368 173.018217 148.405008 171.794777 152.865318 C 171.515134 154.822821 180.393808 149.034206 179.107449 135.184872 C 179.862486 142.392678 176.297034 155.857501 177.233839 156.55661 C 179.100458 157.954826 184.259876 149.852162 184.777216 144.364163 C 186.308263 147.139622 189.524161 152.914256 192.29263 154.249553 C 191.992013 150.054903 192.341567 150.250654 191.097155 146.132907 C 191.817236 140.66588 191.915111 133.10153 192.089888 124.558428 C 199.605301 138.960056 202.604475 145.035307 200.507151 156.060243 C 202.744297 156.997048 206.309749 148.370053 206.023114 143.923725 C 208.896449 156.262984 221.277655 158.115621 221.480397 157.759076 Z M 221.480397 157.752085 " transform="matrix(0.558748,0,0,0.558748,175.205399,13.719688)"/>
<path style="fill-rule:evenodd;fill:rgb(93.72549%,49.019608%,0%);fill-opacity:1;stroke-width:1.25;stroke-linecap:round;stroke-linejoin:round;stroke:rgb(0%,0%,0%);stroke-opacity:1;stroke-miterlimit:4;" d="M 96.291092 66.343688 C 96.291092 66.343688 91.17362 70.209757 84.804745 69.979051 C 86.398711 76.347926 99.583892 71.46116 99.583892 71.46116 C 99.583892 71.46116 93.222007 78.508171 88.670813 79.640726 C 91.397335 81.919819 102.883683 81.122835 104.813221 79.983289 C 106.749751 78.843743 110.161399 74.411397 110.161399 74.411397 C 110.161399 74.411397 98.332488 88.057989 96.626664 87.93914 C 96.40295 89.533107 109.021852 88.966829 111.636517 86.575879 C 114.251182 84.19192 120.843772 80.668415 120.843772 80.668415 C 120.843772 80.668415 103.561817 92.714049 102.764834 92.714049 C 109.245567 94.419873 122.207033 90.672653 130.505447 85.555181 C 118.229107 93.741738 117.089561 95.216857 110.839534 97.943379 C 116.411426 99.194782 119.249805 102.948993 138.125727 94.762436 C 148.926948 89.644964 155.065118 80.325852 155.065118 80.325852 C 148.353679 89.302401 137.783164 96.922681 126.073101 104.424112 C 125.387975 105.787373 138.580147 111.359265 155.40069 93.853596 " transform="matrix(0.558748,0,0,0.558748,175.205399,13.719688)"/>
<path style="fill-rule:evenodd;fill:rgb(93.72549%,49.019608%,0%);fill-opacity:1;stroke-width:1.25;stroke-linecap:round;stroke-linejoin:miter;stroke:rgb(0%,0%,0%);stroke-opacity:1;stroke-miterlimit:4;" d="M 187.692498 104.312254 C 187.692498 104.312254 188.825053 109.653441 193.376247 113.743224 C 197.920451 117.839998 198.263014 121.817923 198.263014 121.817923 " transform="matrix(0.558748,0,0,0.558748,175.205399,13.719688)"/>
<path style="fill-rule:evenodd;fill:rgb(93.72549%,49.019608%,0%);fill-opacity:1;stroke-width:1.25;stroke-linecap:round;stroke-linejoin:miter;stroke:rgb(0%,0%,0%);stroke-opacity:1;stroke-miterlimit:4;" d="M 185.420396 69.524631 C 185.420396 69.524631 187.014363 74.299539 191.670423 77.368624 C 196.445332 80.437709 203.611191 90.099385 204.177469 91.805209 C 204.729764 93.867578 207.47726 108.7446 207.246554 110.338567 " transform="matrix(0.558748,0,0,0.558748,175.205399,13.719688)"/>
<path style="fill-rule:evenodd;fill:rgb(93.72549%,49.019608%,0%);fill-opacity:1;stroke-width:1.25;stroke-linecap:round;stroke-linejoin:miter;stroke:rgb(0%,0%,0%);stroke-opacity:1;stroke-miterlimit:4;" d="M 156.428379 76.914204 C 156.770942 78.731885 149.723932 87.93914 159.385607 98.740362 C 150.632772 109.422735 150.632772 110.792987 150.632772 110.792987 C 150.632772 110.792987 155.519538 113.519509 164.272373 106.018078 C 178.708957 123.754453 173.899093 131.864108 173.899093 131.864108 " transform="matrix(0.558748,0,0,0.558748,175.205399,13.719688)"/>
<path style="fill-rule:evenodd;fill:rgb(93.72549%,49.019608%,0%);fill-opacity:1;stroke-width:1.25;stroke-linecap:round;stroke-linejoin:round;stroke:rgb(0%,0%,0%);stroke-opacity:1;stroke-miterlimit:4;" d="M 172.752555 119.350072 C 172.752555 119.350072 171.417259 117.441506 173.794227 110.331576 C 175.926507 112.904294 178.303475 113.449598 179.338155 114.49127 C 180.379826 115.532941 191.278923 117.112925 191.978031 124.397633 " transform="matrix(0.558748,0,0,0.558748,175.205399,13.719688)"/>
<path style="fill-rule:evenodd;fill:rgb(93.72549%,49.019608%,0%);fill-opacity:1;stroke-width:1.25;stroke-linecap:butt;stroke-linejoin:miter;stroke:rgb(0%,0%,0%);stroke-opacity:1;stroke-miterlimit:4;" d="M 185.560218 52.571257 C 185.560218 52.039935 183.365018 47.327945 175.178461 53.214436 C 179.561869 53.487089 183.903331 55.996887 185.560218 52.571257 Z M 185.560218 52.571257 " transform="matrix(0.558748,0,0,0.558748,175.205399,13.719688)"/>
<path style="fill-rule:evenodd;fill:rgb(93.72549%,49.019608%,0%);fill-opacity:1;stroke-width:1.25;stroke-linecap:butt;stroke-linejoin:round;stroke:rgb(0%,0%,0%);stroke-opacity:1;stroke-miterlimit:4;" d="M 263.720514 74.11078 C 264.119005 74.313522 288.189301 79.528869 296.208072 76.921195 C 285.980119 90.553805 265.524213 81.332568 265.524213 81.332568 C 275.549424 84.338733 275.954907 84.135992 279.163814 86.946407 C 280.163539 89.55408 260.714349 88.351614 254.296535 84.744216 C 272.144768 90.358055 272.543259 89.952572 273.144492 92.161754 C 273.948467 95.167919 243.865841 91.357779 241.258168 87.344898 C 249.28393 93.566961 253.695302 94.769427 258.106675 97.572851 C 252.688586 99.984775 242.663375 102.389707 224.21391 89.351339 C 248.479955 111.415194 270.341068 110.009986 273.745725 114.022867 C 265.328463 126.453011 232.638163 106.598338 217.593355 96.573127 C 202.555538 86.547915 250.486396 120.839172 254.897768 120.237939 C 252.688586 123.642596 236.846795 120.636431 235.84707 119.035473 " transform="matrix(0.558748,0,0,0.558748,175.205399,13.719688)"/>
<path style="fill-rule:evenodd;fill:rgb(93.72549%,49.019608%,0%);fill-opacity:1;stroke-width:1.25;stroke-linecap:round;stroke-linejoin:miter;stroke:rgb(0%,0%,0%);stroke-opacity:1;stroke-miterlimit:4;" d="M 269.942577 97.17436 C 267.132162 97.572851 258.707908 97.572851 257.505442 97.377101 " transform="matrix(0.558748,0,0,0.558748,175.205399,13.719688)"/>
<path style="fill-rule:evenodd;fill:rgb(93.72549%,49.019608%,0%);fill-opacity:1;stroke-width:1.25;stroke-linecap:round;stroke-linejoin:round;stroke:rgb(0%,0%,0%);stroke-opacity:1;stroke-miterlimit:4;" d="M 89.244082 62.701335 C 89.244082 62.701335 107.546734 72.370001 115.27188 71.684875 C 113.230484 73.614413 110.161399 74.411397 110.161399 74.411397 C 112.090937 75.20838 117.432124 78.05375 125.506824 76.229078 C 123.570294 78.165608 121.074478 80.325852 121.074478 80.325852 C 121.074478 80.325852 128.009631 82.940517 135.853625 78.843743 C 133.462675 81.80097 132.099414 83.961215 132.099414 83.961215 L 137.559449 84.303778 " transform="matrix(0.558748,0,0,0.558748,175.205399,13.719688)"/>
</g>
</svg>
