<?xml version="1.0" encoding="UTF-8"?>
<svg xmlns="http://www.w3.org/2000/svg" xmlns:xlink="http://www.w3.org/1999/xlink" width="480pt" height="360pt" viewBox="0 0 480 360" version="1.1">
<g id="surface1">
<rect x="0" y="0" width="480" height="360" style="fill:rgb(87.058824%,12.941176%,6.27451%);fill-opacity:1;stroke:none;"/>
<path style=" stroke:none;fill-rule:nonzero;fill:rgb(0%,0%,0%);fill-opacity:1;" d="M 171.953125 90.113281 C 177.527344 89.570312 178.65625 89.640625 182.75 90.699219 C 177.496094 93.105469 171.28125 91.902344 167.425781 88.488281 C 161.601562 83.199219 147.730469 74.054688 152.691406 81.847656 C 178.425781 110.363281 200.589844 91.082031 214.066406 107.503906 C 218.65625 113.097656 222.710938 120.605469 220.296875 127.976562 C 219.46875 130.5 216.488281 136.441406 212.878906 134.929688 C 208.15625 132.953125 213.773438 117.433594 210.335938 112.382812 C 202.527344 100.914062 188.382812 103.980469 176.777344 102.742188 C 173.40625 111.875 165.296875 110.5 157.839844 105.890625 C 148.316406 100.011719 148.601562 85.550781 140.09375 80.777344 C 131.226562 75.800781 132.671875 92.46875 134.101562 96.429688 C 140.289062 113.589844 158.515625 120.003906 175.199219 116.953125 C 162.851562 136.070312 143.285156 104.578125 133.589844 112.289062 C 127.441406 117.183594 138.304688 126.089844 142.066406 128.128906 C 152.476562 133.78125 164.988281 130.945312 175.199219 126.425781 C 169.367188 132.757812 158.644531 136.640625 149.9375 135.355469 C 145.441406 134.691406 136.429688 129.039062 132.335938 132.808594 C 126.011719 138.621094 141.449219 145.515625 145.199219 146.332031 C 157.839844 149.082031 166.792969 142.414062 176.777344 135.898438 C 170.507812 142.164062 163.8125 150.742188 154.671875 152.617188 C 148.972656 153.789062 136.390625 147.96875 132.707031 154.007812 C 128.300781 161.230469 139.980469 165.800781 145.199219 165.347656 C 157.566406 164.28125 169.046875 154.332031 178.355469 146.949219 C 171.957031 156.023438 162.082031 165.625 151.515625 169.726562 C 145.96875 171.878906 136.429688 168.546875 132.253906 173.382812 C 125.820312 180.824219 139.984375 185.21875 145.199219 183.953125 C 160.417969 180.25 168.535156 163.597656 183.089844 158 C 173.21875 167.09375 162.761719 181.179688 151.371094 187.917969 C 145.714844 191.269531 136.488281 187.164062 132.011719 192.105469 C 121.898438 203.277344 147.238281 205.664062 154.398438 199.746094 C 166.386719 189.835938 172.136719 175.628906 186.246094 167.472656 C 176.835938 180.273438 164.917969 199.382812 152.945312 209.714844 C 147.246094 214.632812 134.734375 210.320312 131.125 215.789062 C 123.875 226.773438 147.257812 228.65625 153.085938 224.777344 C 172.222656 212.035156 173.265625 182.503906 197.300781 175.367188 C 190.492188 189.953125 183.695312 209.695312 167.304688 214.835938 C 169.761719 222.246094 178.457031 222.890625 184.046875 217.492188 C 193.636719 208.226562 191.660156 187.132812 208.351562 186.417969 L 196.3125 203.292969 C 196.953125 210.183594 209.304688 200.9375 213.085938 194.3125 L 214.667969 194.3125 C 208.089844 210 196.480469 218.761719 181.511719 225.886719 C 181.804688 235.242188 175.546875 240.058594 167.300781 243.253906 C 162.867188 235.097656 151.042969 229.03125 145.199219 238.515625 C 149.835938 239.140625 153.980469 240.015625 154.671875 244.832031 C 147.316406 242.175781 141.511719 240.917969 138.882812 249.570312 C 147.5 248.152344 150.445312 248.46875 151.910156 252.234375 C 146.019531 259.019531 146.980469 269.335938 157.828125 270.339844 C 154.800781 268.152344 152.761719 266.703125 154.425781 263.777344 C 156.832031 260.582031 159.679688 263.816406 161.074219 261.910156 C 163.679688 258.109375 161.332031 259.4375 164.65625 260.96875 C 167.378906 262.914062 171.804688 254.761719 178.105469 268.515625 C 185.6875 263.0625 178.394531 254.441406 175.195312 247.988281 L 198.878906 243.253906 L 225.71875 217.992188 L 227.296875 219.570312 C 218.621094 233.222656 206.136719 244.941406 189.40625 246.410156 C 195.003906 256.566406 205.992188 251.332031 214.664062 247.988281 C 210.894531 255.347656 201.101562 255.390625 197.816406 261.480469 C 191.074219 273.96875 219.234375 261.09375 220.980469 260.621094 C 218.730469 268.546875 209.863281 270.132812 207.558594 276.851562 C 205.765625 282.066406 213.074219 282.585938 216.179688 281.070312 C 222.167969 278.144531 226.085938 270.210938 230.453125 265.355469 C 228.410156 274.828125 232.285156 282.328125 221.851562 293.28125 L 237.855469 312.964844 L 256.125 293.257812 C 246.042969 284.53125 252.234375 274.328125 250.289062 264.863281 C 254.5625 269.875 256.015625 278.097656 262.085938 281.070312 C 264.917969 282.457031 270.761719 282.5 270.050781 277.835938 C 269.042969 271.238281 259.347656 267.84375 257.292969 260.621094 C 259.316406 261.285156 286.613281 274.089844 280.335938 261.476562 C 277.359375 255.503906 267.285156 255.164062 263.609375 247.988281 C 272.382812 251.367188 281.390625 255.625 288.871094 247.988281 C 274.964844 243.15625 254.285156 234.929688 252.558594 217.992188 L 279.847656 241.488281 L 303.082031 249.566406 L 303.082031 251.148438 C 297.417969 257.046875 294.140625 261.160156 298.835938 268.367188 L 304.609375 270.09375 C 300.910156 266.015625 302.144531 263.910156 304.609375 262.296875 C 308.789062 260.304688 311.300781 264.171875 312.917969 260.183594 C 313.652344 258.246094 313.910156 257.335938 314.28125 259.699219 C 314.695312 263.882812 320.492188 260.664062 322.519531 261.210938 C 325.691406 264.335938 320.972656 267.460938 320.445312 270.09375 C 329.417969 266.949219 331.113281 261.445312 328.339844 252.726562 C 328.933594 249.417969 331.003906 247.839844 333.078125 247.988281 C 335.429688 248.269531 337.289062 249.042969 339.390625 249.566406 C 336.3125 241.523438 330.875 241.828125 323.605469 244.832031 C 324.261719 240.011719 326.644531 237.660156 331.496094 238.515625 C 327.851562 227.578125 314.667969 236.359375 310.972656 243.253906 C 302.386719 240.40625 294.167969 235.753906 296.761719 225.886719 C 282.257812 218.980469 268.753906 210.425781 263.609375 194.308594 L 265.1875 194.308594 C 268.96875 200.9375 281.078125 205.496094 280.234375 199.34375 L 269.925781 186.417969 C 292.128906 187.371094 283.285156 227.734375 310.972656 219.570312 L 310.972656 216.414062 C 295.039062 207.539062 288.496094 191.464844 280.976562 175.363281 C 304.609375 182.386719 305.390625 211.695312 323.75 224.5 C 329.621094 228.59375 354.335938 227.496094 347.070312 215.785156 C 343.800781 210.519531 330.769531 214.320312 325.246094 209.714844 C 313.253906 199.710938 301.191406 180.257812 292.027344 167.46875 C 306.53125 176.6875 313.472656 195.25 328.339844 202.695312 C 334.621094 205.839844 349.503906 205.371094 347.367188 194.535156 C 345.847656 186.828125 333.480469 191.125 328.363281 188.929688 C 316.878906 184.007812 304.390625 166.808594 295.183594 157.996094 C 308.96875 164.050781 317.144531 179.472656 331.496094 183.804688 C 336.78125 185.402344 350.421875 183.023438 346.640625 174.46875 C 343.957031 168.390625 331.933594 171.667969 326.761719 169.804688 C 315.386719 165.707031 306.644531 155.246094 298.34375 146.945312 C 309.484375 153.355469 319.5625 164.195312 333.074219 165.347656 C 338.292969 165.792969 351.832031 159.597656 344.722656 152.996094 C 340.097656 148.699219 330.75 153.492188 325.183594 152.859375 C 316.214844 151.84375 308.671875 143.933594 303.078125 137.472656 C 316.121094 145.484375 356.597656 148.894531 349.503906 132.144531 C 344.582031 128.046875 339.203125 135.183594 329.519531 135.449219 C 319.375 135.472656 309.3125 133.066406 301.007812 126.667969 C 311.585938 130.238281 323.726562 134.027344 334.628906 128.917969 C 338.507812 127.105469 352.390625 115.601562 343.417969 111.65625 C 336.425781 108.578125 329.214844 118.488281 323.601562 120.996094 C 316.644531 124.101562 308.53125 121.835938 301.5 120.105469 L 301.5 118.527344 C 315.917969 117.761719 330.234375 116.941406 339.722656 104.253906 C 342.839844 100.085938 350.957031 83.023438 341.886719 80.242188 C 338.269531 79.132812 335.460938 82.75 333.953125 85.464844 C 329.523438 93.449219 309.769531 125.164062 301.5 102.738281 C 289.867188 103.980469 275.777344 100.921875 267.9375 112.378906 C 264.457031 117.460938 269.832031 133.0625 265.136719 134.925781 C 251.867188 140.1875 260.730469 111.195312 263.945312 107.5 C 278.242188 91.0625 316.902344 105.214844 323.601562 82.214844 C 324.332031 76.117188 315.636719 87.03125 311.546875 89.675781 C 307.113281 92.40625 301.484375 92.585938 296.761719 91.6875 C 301.769531 89.0625 305.792969 89.894531 308.949219 89.367188 C 305.988281 84.160156 299.191406 84.820312 297.453125 81.9375 C 295.1875 77.84375 286.144531 76.652344 281.007812 77.460938 C 271.234375 79.621094 267.476562 82.535156 249.398438 77.476562 L 257.292969 86.949219 L 245.980469 91.679688 L 250.976562 94.84375 L 241.507812 101.160156 C 243.085938 101.6875 246.84375 101.6875 246.589844 103.175781 L 238.960938 116.152344 C 237.375 113.433594 232.167969 106.308594 231.433594 103.574219 C 231.066406 102.355469 233.265625 101.785156 236.246094 101.246094 L 227.296875 94.84375 L 233.082031 91.464844 L 220.980469 86.949219 L 227.296875 77.476562 C 217.226562 84.195312 208.585938 74.808594 196.929688 77.550781 C 191.960938 78.683594 187.945312 84.214844 183.265625 83.292969 C 179.320312 82.617188 174.71875 84.964844 171.953125 90.109375 Z M 171.953125 90.113281 "/>
<path style=" stroke:none;fill-rule:evenodd;fill:rgb(87.058824%,12.941176%,6.27451%);fill-opacity:1;" d="M 99.253906 248.476562 C 99.742188 248.710938 100.640625 248.59375 100.777344 249.121094 C 99.859375 249.453125 98.765625 249.492188 97.847656 249.414062 C 98.277344 248.4375 98.765625 248.808594 99.253906 248.476562 Z M 99.253906 248.476562 "/>
<path style=" stroke:none;fill-rule:evenodd;fill:rgb(87.058824%,12.941176%,6.27451%);fill-opacity:1;" d="M 141.148438 248.648438 C 140.664062 248.882812 139.765625 248.765625 139.628906 249.292969 C 140.546875 249.625 141.640625 249.664062 142.558594 249.585938 C 142.128906 248.609375 141.636719 248.980469 141.148438 248.648438 Z M 141.148438 248.648438 "/>
</g>
</svg>
