<?xml version="1.0" encoding="UTF-8"?>
<svg xmlns="http://www.w3.org/2000/svg" xmlns:xlink="http://www.w3.org/1999/xlink" width="480pt" height="360pt" viewBox="0 0 480 360" version="1.1">
<g id="surface1">
<rect x="0" y="0" width="480" height="360" style="fill:rgb(22.745098%,49.019608%,80.784314%);fill-opacity:1;stroke:none;"/>
<path style=" stroke:none;fill-rule:nonzero;fill:rgb(100%,100%,100%);fill-opacity:1;" d="M 138.625 168.996094 C 136.457031 164.566406 136.457031 164.566406 136.457031 160.140625 C 135.375 160.140625 135.171875 160.347656 134.546875 160.171875 C 133.921875 160 133.683594 164.257812 131.652344 163.425781 C 131.316406 163.011719 133.109375 159.933594 131.164062 158.652344 C 130.535156 158.234375 131.316406 155.710938 131.042969 154.605469 C 131.042969 154.605469 128.574219 155.917969 126.714844 151.28125 C 125.800781 150.070312 124.546875 152.390625 124.546875 152.390625 C 124.546875 152.390625 125.089844 153.808594 124.109375 154.152344 C 122.71875 153.117188 121.703125 153.660156 119.945312 152.234375 C 118.1875 150.804688 120.316406 149.171875 116.96875 147.960938 C 119.132812 142.425781 119.132812 143.53125 124.546875 141.320312 C 121.300781 139.105469 121.300781 139.105469 119.132812 135.78125 C 115.886719 134.675781 114.804688 133.570312 111.554688 131.355469 C 107.222656 125.820312 105.058594 114.75 105.058594 107 C 107.800781 104.402344 111.554688 115.855469 116.96875 119.175781 L 124.546875 122.496094 C 128.878906 124.710938 129.960938 126.925781 133.210938 129.140625 L 142.957031 132.460938 C 147.289062 135.78125 149.453125 140.210938 152.703125 141.316406 C 156.21875 141.316406 156.898438 139.246094 158.027344 139.117188 C 164.390625 138.78125 167.640625 137.945312 168.910156 135.988281 C 170.195312 134.433594 173.273438 136.890625 181.9375 133.570312 C 181.9375 133.570312 180.855469 129.140625 180.855469 129.140625 C 180.855469 129.140625 183.15625 127.203125 186.269531 128.03125 C 186.183594 126.007812 185.980469 120.613281 189.046875 118.175781 C 187.183594 116.179688 188.433594 114.746094 188.433594 114.746094 C 188.433594 114.746094 190.160156 113.050781 190.363281 112.152344 C 189.449219 107.273438 191.15625 107.199219 191.535156 105.761719 C 191.917969 104.328125 190.0625 104.820312 190.585938 102.84375 C 191.109375 100.863281 194.246094 100.394531 194.664062 98.761719 C 195.085938 97.132812 193.773438 96.316406 193.847656 95.925781 C 194.523438 94.371094 193.949219 90.703125 193.847656 89.285156 C 199.667969 87.691406 201.5625 82.847656 203.59375 84.855469 C 204.675781 78.214844 205.757812 76 212.253906 76 C 213.167969 73.957031 209.886719 72.226562 211.171875 71.570312 C 213.339844 71.292969 214.996094 71.433594 217.535156 74.789062 C 218.335938 75.851562 218.480469 73.230469 219.292969 72.953125 C 220.105469 72.679688 222.050781 72.671875 222.335938 71.363281 C 222.644531 70.015625 223.082031 68.25 224.164062 66.035156 C 225.078125 64.234375 225.789062 66.726562 226.601562 70.257812 C 231.171875 70.429688 241.492188 71.46875 245.820312 72.679688 C 249.070312 73.542969 251.234375 71.8125 254.347656 71.46875 C 256.648438 73.820312 258.8125 72.054688 260.03125 77.070312 C 261.753906 79.777344 264.566406 77.3125 265.175781 78.109375 C 268.796875 88.316406 281.25 81.429688 282.195312 81.605469 C 283.785156 81.605469 285.726562 86.167969 286.980469 86.054688 C 289.015625 85.703125 288.4375 84.285156 290.214844 84.855469 C 289.742188 88.695312 293.699219 93.125 293.699219 95.996094 C 293.699219 95.996094 294.664062 96.480469 295.558594 95.628906 C 296.449219 94.777344 297.269531 92.589844 298.066406 92.640625 C 299.960938 92.917969 300.726562 93.167969 302.910156 93.554688 C 308.78125 95.609375 311.773438 96.070312 314.054688 97.121094 C 315.113281 99.105469 316.140625 100.121094 318.292969 99.75 C 320.070312 100.972656 318.773438 102.570312 319.820312 102.671875 C 321.988281 101.566406 322.699219 100.355469 324.863281 101.460938 C 327.027344 102.570312 329.195312 104.785156 330.277344 107 C 330.277344 108.105469 329.195312 112.535156 330.277344 119.175781 C 330.820312 121.390625 331.082031 123.144531 333.40625 126.945312 C 332.789062 130.84375 336.335938 137.410156 336.335938 139.070312 C 336.335938 141.285156 334.609375 142.425781 333.527344 144.640625 C 337.855469 147.960938 333.527344 153.496094 331.359375 156.816406 C 347.601562 160.140625 340.023438 166.78125 353.015625 163.460938 C 349.765625 171.210938 350.917969 170.585938 354.167969 178.335938 C 347.667969 182.765625 354.03125 184.113281 349.699219 189.648438 C 349.429688 189.996094 352.269531 194.460938 356.265625 194.460938 C 355.183594 203.316406 351.933594 199.996094 353.015625 213.28125 C 344.488281 213.105469 347.941406 223.210938 342.1875 222.136719 C 342.527344 228.46875 345.46875 229.019531 344.355469 235.421875 C 340.023438 236.527344 340.023438 236.527344 337.855469 239.851562 L 334.609375 238.742188 C 333.527344 244.277344 331.359375 245.386719 334.609375 250.921875 C 334.609375 250.921875 330.414062 251.058594 329.195312 250.921875 C 329.09375 252.824219 331.054688 253.34375 331.359375 255.347656 C 331.191406 256.144531 325.203125 259.640625 320.53125 259.777344 C 319.3125 262.511719 323.78125 265.417969 323.511719 266.800781 C 318.433594 267.804688 316.199219 274.167969 316.199219 274.167969 C 316.199219 274.167969 318.804688 275.242188 318.367188 276.382812 C 316.980469 275.347656 316.199219 275.277344 314.035156 275.277344 C 312.953125 275.554688 310.3125 275.210938 307.785156 279.574219 C 305.007812 280.511719 303.695312 280.171875 301.589844 283.023438 C 300.65625 280.308594 299.3125 283.046875 297.671875 284.101562 C 296.035156 285.15625 293.828125 287.773438 293.53125 287.664062 C 293.597656 286.902344 294.546875 284.132812 294.546875 284.132812 L 289.132812 285.242188 C 289.132812 285.242188 288.890625 285.265625 288.464844 285.308594 C 288.039062 285.351562 288.152344 282.078125 287.125 282.195312 C 286.101562 282.316406 283.164062 286.316406 282.164062 286.441406 C 281.167969 286.566406 280.851562 285.167969 279.988281 285.289062 C 279.128906 285.410156 277.449219 289.507812 276.839844 289.617188 C 276.230469 289.726562 273.8125 287.125 271.742188 287.488281 C 261.082031 291.328125 259.386719 279.914062 257.730469 286.347656 C 255.5 285.136719 255.886719 285.839844 253.617188 286.449219 C 252.167969 286.828125 252.035156 284.492188 250.75 284.527344 C 248.171875 284.601562 248.308594 287.09375 246.902344 286.347656 C 245.753906 281.15625 238.816406 282.09375 238.140625 279.878906 C 237.589844 277.570312 241.144531 277.578125 242.296875 276.015625 C 243.175781 273.757812 241.378906 272.902344 244.945312 270.722656 C 249.59375 267.507812 246.921875 266.292969 247.738281 263.878906 C 249.195312 260.386719 249.203125 259.535156 247.984375 256.457031 C 247.984375 256.457031 244.367188 246.492188 243.65625 246.492188 C 241.488281 245.871094 241.488281 250.160156 238.308594 251.335938 C 231.8125 253.550781 220.34375 245.730469 218.34375 245.730469 C 216.519531 245.765625 208.058594 247.78125 208.375 243.464844 C 207.113281 247.660156 202.460938 244.449219 202.171875 244.449219 C 197.839844 244.449219 199.5 247.875 196.589844 247.738281 C 195.269531 247.289062 181.9375 246.492188 181.9375 246.492188 L 181.9375 248.707031 L 173.273438 244.277344 L 165.695312 242.0625 C 159.199219 239.851562 162.445312 234.3125 151.617188 237.636719 L 151.617188 230.992188 L 146.207031 230.992188 C 148.371094 217.707031 146.207031 224.351562 145.121094 212.171875 L 140.792969 213.28125 C 136.460938 207.292969 146.8125 208.4375 137.542969 204.421875 C 137.542969 204.421875 137.710938 197.8125 135.378906 199.996094 C 134.902344 200.269531 136.460938 203.316406 136.460938 203.316406 C 127.796875 202.207031 125.632812 199.996094 125.632812 191.136719 C 125.632812 191.136719 132.773438 192.175781 132.128906 191.136719 C 131.113281 189.476562 129.792969 178.683594 130.03125 177.957031 C 129.929688 176.503906 136.664062 172.835938 135.359375 169.339844 C 136.1875 169.03125 138.625 168.996094 138.625 168.996094 "/>
<path style="fill:none;stroke-width:2.108;stroke-linecap:round;stroke-linejoin:round;stroke:rgb(100%,100%,100%);stroke-opacity:1;stroke-miterlimit:4;" d="M 527.55 303.261111 C 527.055556 304.366667 527.144444 305.472222 527.655556 306.266667 C 528.566667 304.894444 527.794444 304.261111 527.55 303.261111 Z M 527.55 303.261111 " transform="matrix(0.703125,0,0,0.703125,60,0)"/>
<path style="fill:none;stroke-width:2.108;stroke-linecap:butt;stroke-linejoin:round;stroke:rgb(100%,100%,100%);stroke-opacity:1;stroke-miterlimit:4;" d="M 131.511111 178.938889 C 131.511111 178.938889 128.927778 178.622222 129.505556 180.888889 C 130.35 179.15 131.455556 179.044444 131.511111 178.938889 Z M 131.511111 178.938889 " transform="matrix(0.703125,0,0,0.703125,60,0)"/>
<path style="fill:none;stroke-width:2.108;stroke-linecap:butt;stroke-linejoin:round;stroke:rgb(100%,100%,100%);stroke-opacity:1;stroke-miterlimit:4;" d="M 132.088889 173.672222 C 130.666667 173.722222 128.927778 173.461111 129.505556 175.727778 C 130.35 173.988889 132.038889 173.777778 132.088889 173.672222 Z M 132.088889 173.672222 " transform="matrix(0.703125,0,0,0.703125,60,0)"/>
<path style="fill:none;stroke-width:2.108;stroke-linecap:butt;stroke-linejoin:round;stroke:rgb(100%,100%,100%);stroke-opacity:1;stroke-miterlimit:4;" d="M 141.811111 203.872222 C 141.811111 203.872222 144.022222 203.711111 143.444444 205.977778 C 142.6 204.238889 141.861111 203.977778 141.811111 203.872222 Z M 141.811111 203.872222 " transform="matrix(0.703125,0,0,0.703125,60,0)"/>
</g>
</svg>
