<?xml version="1.0" encoding="UTF-8"?>
<svg xmlns="http://www.w3.org/2000/svg" xmlns:xlink="http://www.w3.org/1999/xlink" width="480pt" height="360pt" viewBox="0 0 480 360" version="1.1">
<g id="surface1">
<rect x="0" y="0" width="480" height="360" style="fill:rgb(0%,0%,40%);fill-opacity:1;stroke:none;"/>
<path style=" stroke:none;fill-rule:evenodd;fill:rgb(74.117647%,6.27451%,12.941176%);fill-opacity:1;" d="M -280.5 180 L 487.5 372 L 487.5 -12 Z M -280.5 180 "/>
<path style=" stroke:none;fill-rule:evenodd;fill:rgb(100%,100%,100%);fill-opacity:1;" d="M 487.5 8.570312 L 487.5 351.425781 L -198.21875 180 Z M 487.5 8.570312 "/>
<path style="fill-rule:evenodd;fill:rgb(61.176471%,22.352941%,0%);fill-opacity:1;stroke-width:1.25;stroke-linecap:butt;stroke-linejoin:round;stroke:rgb(0%,0%,0%);stroke-opacity:1;stroke-miterlimit:4;" d="M 131.80947 174.071159 C 131.80947 174.071159 127.272929 170.35541 132.633959 164.37324 C 129.746397 161.899772 132.43061 157.156184 132.43061 157.156184 C 132.43061 157.156184 127.476278 155.300159 132.633959 147.665312 C 128.921908 145.191844 130.570887 139.623767 130.570887 139.623767 C 130.570887 139.623767 118.403197 135.083529 129.953444 130.754034 C 120.466269 134.876482 111.596537 125.18226 111.596537 125.18226 L 97.776171 125.596354 C 95.432106 114.116354 77.208301 124.084173 90.75507 91.152658 C 87.250065 90.535216 83.330967 89.50368 79.411869 92.391241 C 75.492771 95.278803 64.35292 101.464323 57.753307 95.278803 C 51.149996 89.089586 62.082801 80.219854 62.289848 80.012807 C 62.496894 79.809458 76.934703 72.381658 78.997776 67.431024 C 78.790729 63.718973 74.254188 60.831411 78.380333 52.786168 C 83.12392 45.155019 112.206585 37.934266 125.413206 35.460797 C 131.80947 32.569538 134.697032 27.001461 134.697032 27.001461 L 136.142661 32.366189 C 136.142661 32.366189 165.432373 23.699806 166.874305 19.577359 C 168.319934 15.451214 167.495445 23.28941 167.495445 23.28941 C 179.045692 22.257874 193.690548 12.356605 195.75362 16.893146 C 205.447842 15.037121 224.015493 6.788528 224.015493 6.788528 C 224.015493 6.788528 230.408059 6.581482 225.871519 13.595188 C 228.75908 18.131729 225.043332 22.050827 224.839982 22.050827 C 224.632936 22.050827 226.074868 26.591065 222.362817 29.064533 C 223.6014 32.983631 220.092698 36.07824 220.092698 36.07824 C 220.092698 36.07824 221.745374 40.821827 215.145761 43.298993 C 215.763204 47.425138 211.430012 48.249627 211.430012 48.249627 C 211.430012 48.249627 212.051152 52.579121 209.163591 54.435147 C 209.163591 57.736802 205.861935 59.385781 205.861935 59.385781 C 205.861935 59.385781 207.925008 60.624364 205.037446 62.687436 C 202.149884 64.750509 172.239032 83.107416 172.239032 82.904066 C 172.239032 82.69702 194.104641 86.823164 195.546574 87.647654 C 196.992203 88.472143 213.493085 99.404948 213.493085 99.404948 L 196.785157 120.031974 C 196.785157 120.031974 178.221203 117.968902 177.396713 119.000438 C 176.572224 120.031974 181.315811 120.446067 182.347347 122.095046 C 183.378884 123.744025 185.027863 127.663123 188.329518 127.252727 C 191.627476 126.838634 182.140301 133.234897 175.951084 133.85234 C 175.951084 136.122459 183.78928 136.329506 185.852352 134.47348 C 187.915424 132.613757 180.901718 139.834511 180.077228 140.866047 C 179.252739 141.897583 189.361054 139.420417 189.361054 139.420417 C 189.361054 139.420417 187.708378 146.227077 178.838646 148.290149 C 182.347347 154.06897 180.901718 157.781022 180.694671 157.781022 C 180.491322 157.781022 174.919548 152.005898 169.558517 153.037434 C 171.00045 158.605511 175.333641 163.763192 176.572224 164.587681 C 177.807109 165.412171 166.874305 165.205124 165.432373 162.110516 C 163.986743 159.019604 162.74816 169.538315 166.667258 172.839971 C 162.130717 173.04332 158.211619 170.362805 158.211619 170.362805 C 158.211619 170.362805 155.531104 176.552022 157.38713 179.64663 C 159.243156 182.741239 150.994564 173.457413 150.994564 173.457413 L 135.314474 180.057027 L 131.80947 174.074856 Z M 131.80947 174.071159 " transform="matrix(1.056525,0,0,1.056525,219.24,39.14025)"/>
<path style="fill-rule:evenodd;fill:rgb(100%,76.078431%,12.941176%);fill-opacity:1;stroke-width:1.25;stroke-linecap:butt;stroke-linejoin:miter;stroke:rgb(0%,0%,0%);stroke-opacity:1;stroke-miterlimit:4;" d="M 10.650186 161.788854 C 11.019912 161.788854 33.425321 161.422825 43.711105 155.544178 C 48.853997 163.626393 55.834428 169.135314 55.834428 169.135314 L 59.13978 157.381717 C 59.13978 157.381717 67.221995 157.747746 67.954053 159.585285 C 66.852269 161.788854 66.48624 164.728177 66.48624 164.728177 C 66.48624 164.728177 71.995161 165.094206 72.364887 165.829961 C 72.730916 166.565717 70.893377 172.810393 70.893377 172.810393 L 94.404268 178.319313 C 94.404268 178.319313 96.241807 169.135314 98.075649 170.237098 C 99.913188 171.338882 107.995404 182.72645 119.382971 183.462205 C 130.766842 184.19796 131.502597 173.912177 131.502597 173.912177 L 134.075891 175.37999 C 134.075891 175.37999 138.849057 165.094206 139.584812 165.094206 C 140.320567 165.094206 141.422352 166.565717 147.667028 166.565717 C 149.50087 168.769285 150.236625 173.912177 150.236625 173.912177 C 150.236625 173.912177 143.256194 180.892608 145.463459 186.401529 C 147.667028 191.910449 148.033056 190.442636 148.033056 190.442636 L 198.726219 202.562262 C 198.726219 202.562262 201.295816 206.60337 196.88868 208.806938 C 196.88868 209.176664 145.829488 197.053341 145.829488 197.053341 C 145.829488 197.053341 141.052625 202.562262 137.381244 201.460478 C 133.706165 200.358694 136.27946 203.664046 136.27946 203.664046 L 191.376062 208.071183 C 191.376062 208.071183 195.417169 213.217772 192.481543 214.685585 C 188.806465 215.051614 132.974107 211.010506 132.974107 211.010506 C 132.974107 211.010506 129.665058 217.990937 125.993676 212.11229 C 123.424079 216.153398 120.484755 211.010506 120.484755 211.010506 C 120.484755 211.010506 115.707893 214.685585 114.972137 210.644477 C 110.93103 213.583801 108.361433 208.806938 108.361433 208.806938 L 84.854239 207.339125 L 83.382729 209.542693 C 83.382729 209.542693 87.423836 210.644477 81.17916 213.217772 C 74.934485 215.787369 118.647216 214.685585 119.749 215.051614 C 120.850784 215.42134 116.809677 218.726692 116.809677 218.726692 C 116.809677 218.726692 139.218783 220.194506 143.256194 215.42134 C 147.297301 210.644477 141.788381 221.662319 141.788381 221.662319 C 141.788381 221.662319 159.420624 220.930261 159.420624 220.194506 C 159.420624 219.45875 159.050898 225.703426 146.931272 224.971368 C 154.277732 229.744534 163.461732 232.683857 163.461732 232.683857 C 163.461732 232.683857 154.277732 234.887426 143.62592 232.317828 C 145.459762 237.090994 153.541977 241.501828 153.541977 241.501828 C 153.541977 241.501828 147.667028 246.64472 134.44192 234.151671 C 138.116999 240.766073 135.177676 243.33567 134.807949 242.603612 C 134.44192 241.867857 128.197245 232.683857 113.504324 229.378505 C 122.688324 235.253455 118.647216 237.826749 118.647216 237.826749 C 118.647216 237.826749 113.870353 229.378505 106.157864 237.826749 C 103.218541 230.11426 91.830973 225.703426 77.873808 224.971368 C 73.466671 219.828477 70.893377 221.29629 60.607593 218.356966 C 54.732644 211.746261 46.284399 204.399801 46.284399 204.399801 C 46.284399 204.399801 46.650428 194.483744 56.570183 195.585528 C 57.671967 198.89088 57.671967 197.789096 57.671967 197.789096 C 57.671967 197.789096 68.689809 193.747989 71.995161 199.256909 C 76.772024 190.808665 83.382729 197.992446 84.484513 200.931769 C 87.649369 201.397624 103.58457 201.826507 103.58457 201.826507 C 103.58457 201.826507 101.750728 198.521154 102.852512 198.89088 C 103.954296 199.256909 112.768569 195.585528 112.40254 194.483744 C 112.032814 193.378262 111.666785 189.706881 113.134598 190.07291 C 114.606108 190.442636 100.648943 188.235371 92.932757 194.114018 C 90.36316 191.54442 92.197002 184.563989 92.197002 184.563989 L 69.425564 179.790824 L 68.32378 185.665773 C 68.32378 185.665773 61.709377 186.767558 62.079104 185.299744 C 62.445133 183.828234 60.607593 190.442636 60.607593 190.442636 C 60.607593 190.442636 51.79332 188.235371 51.79332 187.869342 C 51.79332 187.503313 54.362917 174.644235 54.362917 175.013961 C 54.362917 175.37999 47.016457 175.749716 36.730674 183.462205 C 33.795047 174.278206 10.653883 162.15858 10.653883 161.788854 Z M 10.650186 161.788854 " transform="matrix(1.056525,0,0,1.056525,219.24,39.14025)"/>
<path style="fill:none;stroke-width:1.25;stroke-linecap:butt;stroke-linejoin:miter;stroke:rgb(0%,0%,0%);stroke-opacity:1;stroke-miterlimit:4;" d="M 66.48624 165.101601 L 61.713075 186.405226 " transform="matrix(1.056525,0,0,1.056525,219.24,39.14025)"/>
<path style="fill:none;stroke-width:1.25;stroke-linecap:butt;stroke-linejoin:miter;stroke:rgb(0%,0%,0%);stroke-opacity:1;stroke-miterlimit:4;" d="M 70.893377 173.180119 L 69.425564 180.16055 " transform="matrix(1.056525,0,0,1.056525,219.24,39.14025)"/>
<path style="fill:none;stroke-width:1.25;stroke-linecap:butt;stroke-linejoin:miter;stroke:rgb(0%,0%,0%);stroke-opacity:1;stroke-miterlimit:4;" d="M 94.404268 178.68904 L 92.200699 185.303442 " transform="matrix(1.056525,0,0,1.056525,219.24,39.14025)"/>
<path style="fill:none;stroke-width:1.25;stroke-linecap:butt;stroke-linejoin:miter;stroke:rgb(0%,0%,0%);stroke-opacity:1;stroke-miterlimit:4;" d="M 135.181373 223.499858 C 134.811647 223.499858 123.427776 224.967671 121.956266 224.601642 C 120.488453 224.235613 139.954538 230.480289 139.954538 233.049886 " transform="matrix(1.056525,0,0,1.056525,219.24,39.14025)"/>
<path style="fill:none;stroke-width:1.25;stroke-linecap:butt;stroke-linejoin:miter;stroke:rgb(0%,0%,0%);stroke-opacity:1;stroke-miterlimit:4;" d="M 114.609806 226.080547 C 114.609806 226.080547 103.222238 218.734087 101.384699 219.469842 C 99.550857 220.2019 112.772266 219.100116 113.874051 217.998332 " transform="matrix(1.056525,0,0,1.056525,219.24,39.14025)"/>
<path style="fill:none;stroke-width:1.25;stroke-linecap:butt;stroke-linejoin:miter;stroke:rgb(0%,0%,0%);stroke-opacity:1;stroke-miterlimit:4;" d="M 91.098915 217.628606 C 91.098915 217.628606 79.345318 217.998332 78.243534 216.896548 C 77.14175 215.794763 89.627405 224.975066 91.83467 224.243008 " transform="matrix(1.056525,0,0,1.056525,219.24,39.14025)"/>
<path style="fill:none;stroke-width:1.25;stroke-linecap:butt;stroke-linejoin:miter;stroke:rgb(0%,0%,0%);stroke-opacity:1;stroke-miterlimit:4;" d="M 68.32378 212.478319 C 67.954053 212.478319 60.241564 209.542693 56.936212 208.806938 C 59.875535 211.746261 62.079104 215.787369 69.425564 217.255182 " transform="matrix(1.056525,0,0,1.056525,219.24,39.14025)"/>
<path style="fill:none;stroke-width:1.25;stroke-linecap:butt;stroke-linejoin:miter;stroke:rgb(0%,0%,0%);stroke-opacity:1;stroke-miterlimit:4;" d="M 71.263103 207.708851 C 70.893377 206.976793 56.570183 202.565959 56.570183 200.362391 C 59.875535 201.464175 64.648701 202.935685 69.059535 201.830204 " transform="matrix(1.056525,0,0,1.056525,219.24,39.14025)"/>
<path style="fill:none;stroke-width:1.25;stroke-linecap:butt;stroke-linejoin:miter;stroke:rgb(0%,0%,0%);stroke-opacity:1;stroke-miterlimit:4;" d="M 147.300999 190.808665 L 145.829488 197.41937 " transform="matrix(1.056525,0,0,1.056525,219.24,39.14025)"/>
<path style="fill-rule:evenodd;fill:rgb(100%,76.078431%,12.941176%);fill-opacity:1;stroke-width:1.25;stroke-linecap:butt;stroke-linejoin:miter;stroke:rgb(0%,0%,0%);stroke-opacity:1;stroke-miterlimit:4;" d="M 39.303968 131.670955 C 39.303968 131.670955 23.875293 144.892365 39.303968 152.608552 C 40.039723 147.46566 41.141508 146.729905 41.141508 146.729905 C 41.141508 146.729905 53.996888 151.506767 61.709377 140.1192 C 58.404025 135.342337 52.529075 137.179876 52.529075 137.179876 C 52.529075 137.179876 40.405752 137.179876 39.303968 131.670955 Z M 39.303968 131.670955 " transform="matrix(1.056525,0,0,1.056525,219.24,39.14025)"/>
<path style="fill:none;stroke-width:1.25;stroke-linecap:butt;stroke-linejoin:miter;stroke:rgb(0%,0%,0%);stroke-opacity:1;stroke-miterlimit:4;" d="M 52.159349 137.549602 L 41.507536 146.733602 " transform="matrix(1.056525,0,0,1.056525,219.24,39.14025)"/>
<path style="fill:none;stroke-width:1.25;stroke-linecap:butt;stroke-linejoin:miter;stroke:rgb(0%,0%,0%);stroke-opacity:1;stroke-miterlimit:4;" d="M 84.968854 201.331074 C 84.968854 201.331074 87.423836 204.03747 85.220268 207.342822 " transform="matrix(1.056525,0,0,1.056525,219.24,39.14025)"/>
<path style="fill:none;stroke-width:1.25;stroke-linecap:butt;stroke-linejoin:miter;stroke:rgb(0%,0%,0%);stroke-opacity:1;stroke-miterlimit:4;" d="M 136.649186 204.041167 L 132.611776 204.407196 " transform="matrix(1.056525,0,0,1.056525,219.24,39.14025)"/>
<path style="fill:none;stroke-width:1.25;stroke-linecap:butt;stroke-linejoin:miter;stroke:rgb(0%,0%,0%);stroke-opacity:1;stroke-miterlimit:4;" d="M 103.588267 201.830204 L 110.934727 202.931988 " transform="matrix(1.056525,0,0,1.056525,219.24,39.14025)"/>
<path style="fill:none;stroke-width:1.25;stroke-linecap:butt;stroke-linejoin:miter;stroke:rgb(0%,0%,0%);stroke-opacity:1;stroke-miterlimit:4;" d="M 123.350134 182.940891 C 123.350134 182.940891 123.55718 190.364994 117.367963 190.161644 C 111.178746 189.954598 113.241819 190.364994 113.241819 190.364994 " transform="matrix(1.056525,0,0,1.056525,219.24,39.14025)"/>
<path style="fill:none;stroke-width:1.25;stroke-linecap:butt;stroke-linejoin:miter;stroke:rgb(0%,0%,0%);stroke-opacity:1;stroke-miterlimit:4;" d="M 128.101116 181.698611 C 128.101116 181.698611 130.574584 182.526798 129.957141 184.382823 C 129.339699 186.238849 130.574584 191.599879 123.357528 196.75756 C 115.722682 198.406539 116.547171 190.364994 116.547171 190.364994 " transform="matrix(1.056525,0,0,1.056525,219.24,39.14025)"/>
<path style="fill:none;stroke-width:1.25;stroke-linecap:butt;stroke-linejoin:miter;stroke:rgb(0%,0%,0%);stroke-opacity:1;stroke-miterlimit:4;" d="M 130.781631 183.96873 C 130.781631 183.96873 135.318172 181.288215 135.935614 185.621406 C 136.556754 189.9509 132.223563 197.996143 129.128955 199.234726 C 126.034346 200.473309 122.529341 199.027679 122.939738 196.964607 " transform="matrix(1.056525,0,0,1.056525,219.24,39.14025)"/>
<path style="fill:none;stroke-width:1.25;stroke-linecap:butt;stroke-linejoin:miter;stroke:rgb(0%,0%,0%);stroke-opacity:1;stroke-miterlimit:4;" d="M 136.349708 185.828453 C 136.349708 185.828453 140.475852 182.530495 141.714435 186.859989 C 142.949321 191.19318 138.41278 200.887402 136.556754 201.094449 " transform="matrix(1.056525,0,0,1.056525,219.24,39.14025)"/>
<path style="fill:none;stroke-width:1.25;stroke-linecap:butt;stroke-linejoin:miter;stroke:rgb(0%,0%,0%);stroke-opacity:1;stroke-miterlimit:4;" d="M 142.121134 186.859989 C 142.121134 186.859989 144.184206 185.828453 145.626139 187.067036 " transform="matrix(1.056525,0,0,1.056525,219.24,39.14025)"/>
<path style="fill:none;stroke-width:1.25;stroke-linecap:butt;stroke-linejoin:miter;stroke:rgb(0%,0%,0%);stroke-opacity:1;stroke-miterlimit:4;" d="M 135.521521 201.708194 C 134.693334 201.915241 131.18833 202.122288 129.949747 199.441773 " transform="matrix(1.056525,0,0,1.056525,219.24,39.14025)"/>
<path style="fill:none;stroke-width:1.25;stroke-linecap:butt;stroke-linejoin:miter;stroke:rgb(0%,0%,0%);stroke-opacity:1;stroke-miterlimit:4;" d="M 116.961265 194.491138 C 116.754218 194.491138 112.628073 194.698185 112.628073 194.698185 " transform="matrix(1.056525,0,0,1.056525,219.24,39.14025)"/>
<path style="fill:none;stroke-width:1.25;stroke-linecap:butt;stroke-linejoin:miter;stroke:rgb(0%,0%,0%);stroke-opacity:1;stroke-miterlimit:4;" d="M 132.841006 210.78867 L 132.426913 203.982011 L 130.777934 201.715589 L 127.890372 204.603151 C 127.890372 204.603151 127.476278 211.40981 126.241393 212.027253 " transform="matrix(1.056525,0,0,1.056525,219.24,39.14025)"/>
<path style="fill:none;stroke-width:1.25;stroke-linecap:butt;stroke-linejoin:miter;stroke:rgb(0%,0%,0%);stroke-opacity:1;stroke-miterlimit:4;" d="M 127.890372 204.388709 C 127.683325 203.978313 125.620253 200.059215 125.620253 200.059215 L 122.115248 204.388709 C 122.115248 204.388709 121.701155 210.577926 120.462572 211.199067 " transform="matrix(1.056525,0,0,1.056525,219.24,39.14025)"/>
<path style="fill:none;stroke-width:1.25;stroke-linecap:butt;stroke-linejoin:miter;stroke:rgb(0%,0%,0%);stroke-opacity:1;stroke-miterlimit:4;" d="M 122.111551 204.181663 C 122.111551 203.974616 120.665921 200.055518 120.665921 200.055518 C 120.665921 200.055518 116.539777 202.325637 116.129381 203.974616 C 115.715287 205.623595 115.50824 210.163833 114.476704 210.574229 " transform="matrix(1.056525,0,0,1.056525,219.24,39.14025)"/>
<path style="fill:none;stroke-width:1.25;stroke-linecap:butt;stroke-linejoin:miter;stroke:rgb(0%,0%,0%);stroke-opacity:1;stroke-miterlimit:4;" d="M 116.129381 203.150127 C 116.129381 203.150127 116.543474 199.438075 115.304891 199.438075 C 114.066308 199.438075 108.498231 204.595756 108.291185 209.132297 " transform="matrix(1.056525,0,0,1.056525,219.24,39.14025)"/>
<path style="fill-rule:evenodd;fill:rgb(100%,100%,100%);fill-opacity:1;stroke-width:1.25;stroke-linecap:butt;stroke-linejoin:round;stroke:rgb(0%,0%,0%);stroke-opacity:1;stroke-miterlimit:4;" d="M 39.810493 131.778176 C 39.810493 131.778176 41.873565 129.718801 42.491008 127.241635 C 43.112148 124.768167 41.666519 122.083954 44.143684 119.817533 C 46.617153 117.547414 79.20852 103.727047 81.889035 101.046532 C 84.573247 98.36232 89.523881 92.587196 90.141324 91.348613 C 90.758767 90.113728 92.61849 97.53783 87.046716 100.839486 C 93.028886 99.186809 96.947984 97.330784 99.42515 98.15897 C 96.947984 101.663975 90.348371 107.439099 87.253762 107.439099 C 94.474516 104.758584 101.074129 102.488465 102.930154 103.934094 C 104.78618 105.376026 94.060422 112.59678 89.727231 113.007176 C 96.947984 111.154847 106.642206 108.263588 107.880788 111.358197 C 103.96169 112.59678 105.200273 113.628316 97.155031 118.164856 C 96.123494 118.993043 90.965814 119.196393 90.965814 119.196393 C 97.155031 118.57895 105.610669 116.101784 106.435159 120.642022 C 101.488222 122.498048 99.628499 124.971516 95.506052 126.003052 C 91.379907 127.034589 81.889035 128.890614 76.113911 131.160733 C 70.338788 133.430852 61.883149 140.030465 61.883149 140.030465 C 61.883149 140.030465 43.522544 140.651605 43.522544 140.444559 C 43.522544 140.237512 40.01754 131.985223 39.810493 131.778176 Z M 39.810493 131.778176 " transform="matrix(1.056525,0,0,1.056525,219.24,39.14025)"/>
<path style="fill:none;stroke-width:1.25;stroke-linecap:butt;stroke-linejoin:miter;stroke:rgb(0%,0%,0%);stroke-opacity:1;stroke-miterlimit:4;" d="M 48.473179 130.339941 C 48.473179 130.339941 48.680225 126.213796 50.536251 124.771864 C 52.392277 123.326235 61.676102 119.82123 63.739174 116.726621 C 65.802247 113.632013 60.644566 122.087652 61.469055 124.357771 " transform="matrix(1.056525,0,0,1.056525,219.24,39.14025)"/>
<path style="fill:none;stroke-width:1.25;stroke-linecap:butt;stroke-linejoin:miter;stroke:rgb(0%,0%,0%);stroke-opacity:1;stroke-miterlimit:4;" d="M 52.18523 124.150724 C 52.18523 124.150724 56.725468 125.799703 55.693932 129.308405 " transform="matrix(1.056525,0,0,1.056525,219.24,39.14025)"/>
<path style="fill:none;stroke-width:1.25;stroke-linecap:butt;stroke-linejoin:miter;stroke:rgb(0%,0%,0%);stroke-opacity:1;stroke-miterlimit:4;" d="M 57.343863 126.009726 C 57.343863 128.172515 55.58979 129.930846 53.422743 129.930846 C 51.259954 129.930846 49.505881 128.172515 49.505881 126.009726 C 49.505881 123.846937 51.259954 122.092864 53.422743 122.092864 C 55.58979 122.092864 57.343863 123.846937 57.343863 126.009726 Z M 57.343863 126.009726 " transform="matrix(0.917507,0,0,0.917507,227.429548,57.201545)"/>
<path style="fill-rule:evenodd;fill:rgb(100%,100%,100%);fill-opacity:1;stroke-width:1.25;stroke-linecap:butt;stroke-linejoin:miter;stroke:rgb(0%,0%,0%);stroke-opacity:1;stroke-miterlimit:4;" d="M 197.19925 119.20009 L 232.885225 126.00675 C 232.885225 126.00675 236.804323 121.470209 234.741251 118.993043 C 240.105978 117.758158 238.660349 110.744451 238.660349 110.744451 C 238.660349 110.744451 244.849566 108.060239 239.691885 101.874719 C 243.200587 98.366017 238.867395 95.685502 238.867395 95.685502 C 238.867395 95.685502 240.309328 89.496285 235.772787 88.878842 C 237.01137 83.928208 227.934591 82.275532 227.934591 82.275532 C 227.934591 82.275532 209.163591 87.433213 195.960667 87.847306 C 200.293858 92.1768 194.311688 94.861013 194.311688 94.861013 C 194.311688 94.861013 197.82039 97.334481 196.785157 99.397553 C 195.757318 101.460626 197.406297 103.730745 192.869756 105.172677 C 198.848229 107.856889 192.248616 112.39343 192.248616 112.39343 C 192.248616 112.39343 198.848229 116.929971 197.19925 119.20009 Z M 197.19925 119.20009 " transform="matrix(1.056525,0,0,1.056525,219.24,39.14025)"/>
<path style="fill:none;stroke-width:1.25;stroke-linecap:butt;stroke-linejoin:miter;stroke:rgb(0%,0%,0%);stroke-opacity:1;stroke-miterlimit:4;" d="M 193.690548 111.568941 C 193.690548 111.568941 225.250379 115.284689 226.692311 115.284689 C 228.13794 115.284689 233.706017 117.140715 234.737554 118.99674 " transform="matrix(1.056525,0,0,1.056525,219.24,39.14025)"/>
<path style="fill:none;stroke-width:1.25;stroke-linecap:butt;stroke-linejoin:miter;stroke:rgb(0%,0%,0%);stroke-opacity:1;stroke-miterlimit:4;" d="M 195.339527 109.709218 L 239.277792 110.740754 " transform="matrix(1.056525,0,0,1.056525,219.24,39.14025)"/>
<path style="fill:none;stroke-width:1.25;stroke-linecap:butt;stroke-linejoin:miter;stroke:rgb(0%,0%,0%);stroke-opacity:1;stroke-miterlimit:4;" d="M 195.550271 108.681379 C 195.550271 108.681379 237.218417 106.204213 240.105978 101.874719 " transform="matrix(1.056525,0,0,1.056525,219.24,39.14025)"/>
<path style="fill:none;stroke-width:1.25;stroke-linecap:butt;stroke-linejoin:miter;stroke:rgb(0%,0%,0%);stroke-opacity:1;stroke-miterlimit:4;" d="M 196.781459 99.6046 C 196.781459 99.6046 238.652954 95.064362 239.067048 95.685502 " transform="matrix(1.056525,0,0,1.056525,219.24,39.14025)"/>
<path style="fill:none;stroke-width:1.25;stroke-linecap:butt;stroke-linejoin:miter;stroke:rgb(0%,0%,0%);stroke-opacity:1;stroke-miterlimit:4;" d="M 195.339527 94.446919 C 195.339527 94.446919 235.976136 88.050655 236.386533 89.082192 " transform="matrix(1.056525,0,0,1.056525,219.24,39.14025)"/>
<path style="fill:none;stroke-width:1.25;stroke-linecap:butt;stroke-linejoin:miter;stroke:rgb(0%,0%,0%);stroke-opacity:1;stroke-miterlimit:4;" d="M 79.415566 68.251816 C 79.415566 68.251816 92.204396 82.279229 90.965814 91.766404 " transform="matrix(1.056525,0,0,1.056525,219.24,39.14025)"/>
<path style="fill:none;stroke-width:1.25;stroke-linecap:butt;stroke-linejoin:miter;stroke:rgb(0%,0%,0%);stroke-opacity:1;stroke-miterlimit:4;" d="M 90.141324 84.338604 C 90.141324 84.338604 94.267469 90.320774 95.916448 90.941915 C 97.569124 91.559357 112.006933 92.383847 112.831423 98.573064 C 113.655912 102.492162 109.736814 101.253579 110.357954 104.141141 C 111.38949 107.853192 121.083712 112.600477 131.602423 107.028703 " transform="matrix(1.056525,0,0,1.056525,219.24,39.14025)"/>
<path style="fill:none;stroke-width:1.25;stroke-linecap:butt;stroke-linejoin:miter;stroke:rgb(0%,0%,0%);stroke-opacity:1;stroke-miterlimit:4;" d="M 121.908201 109.919962 C 121.908201 109.919962 130.574584 122.708792 143.363414 108.888425 " transform="matrix(1.056525,0,0,1.056525,219.24,39.14025)"/>
<path style="fill:none;stroke-width:1.25;stroke-linecap:butt;stroke-linejoin:miter;stroke:rgb(0%,0%,0%);stroke-opacity:1;stroke-miterlimit:4;" d="M 136.760104 114.4602 C 136.760104 114.4602 147.278815 120.028277 155.9415 105.590468 " transform="matrix(1.056525,0,0,1.056525,219.24,39.14025)"/>
<path style="fill:none;stroke-width:1.25;stroke-linecap:butt;stroke-linejoin:miter;stroke:rgb(0%,0%,0%);stroke-opacity:1;stroke-miterlimit:4;" d="M 144.801649 115.691388 C 144.801649 115.691388 149.955633 120.020882 160.685088 114.245759 " transform="matrix(1.056525,0,0,1.056525,219.24,39.14025)"/>
<path style="fill:none;stroke-width:1.25;stroke-linecap:butt;stroke-linejoin:miter;stroke:rgb(0%,0%,0%);stroke-opacity:1;stroke-miterlimit:4;" d="M 175.540688 108.470635 C 175.540688 108.470635 191.424126 111.768593 192.455662 112.803826 " transform="matrix(1.056525,0,0,1.056525,219.24,39.14025)"/>
<path style="fill:none;stroke-width:1.25;stroke-linecap:butt;stroke-linejoin:miter;stroke:rgb(0%,0%,0%);stroke-opacity:1;stroke-miterlimit:4;" d="M 181.519161 104.969328 C 181.726207 104.969328 192.659012 105.383421 192.659012 105.383421 " transform="matrix(1.056525,0,0,1.056525,219.24,39.14025)"/>
<path style="fill:none;stroke-width:1.25;stroke-linecap:butt;stroke-linejoin:miter;stroke:rgb(0%,0%,0%);stroke-opacity:1;stroke-miterlimit:4;" d="M 174.708804 98.780111 C 174.708804 98.780111 193.686851 97.541528 196.164016 101.460626 " transform="matrix(1.056525,0,0,1.056525,219.24,39.14025)"/>
<path style="fill:none;stroke-width:1.25;stroke-linecap:butt;stroke-linejoin:miter;stroke:rgb(0%,0%,0%);stroke-opacity:1;stroke-miterlimit:4;" d="M 166.460212 92.79794 C 166.460212 92.79794 193.069408 93.829476 194.307991 95.271409 " transform="matrix(1.056525,0,0,1.056525,219.24,39.14025)"/>
<path style="fill:none;stroke-width:1.25;stroke-linecap:butt;stroke-linejoin:miter;stroke:rgb(0%,0%,0%);stroke-opacity:1;stroke-miterlimit:4;" d="M 172.438685 120.020882 C 172.438685 120.020882 176.978923 118.782299 177.596365 119.403439 " transform="matrix(1.056525,0,0,1.056525,219.24,39.14025)"/>
<path style="fill:none;stroke-width:1.25;stroke-linecap:butt;stroke-linejoin:miter;stroke:rgb(0%,0%,0%);stroke-opacity:1;stroke-miterlimit:4;" d="M 162.130717 131.160733 C 162.130717 131.160733 168.112888 136.318414 175.744037 134.048295 " transform="matrix(1.056525,0,0,1.056525,219.24,39.14025)"/>
<path style="fill:none;stroke-width:1.25;stroke-linecap:butt;stroke-linejoin:miter;stroke:rgb(0%,0%,0%);stroke-opacity:1;stroke-miterlimit:4;" d="M 165.428675 139.830813 C 165.428675 139.830813 172.235335 142.925422 180.280578 141.065699 " transform="matrix(1.056525,0,0,1.056525,219.24,39.14025)"/>
<path style="fill:none;stroke-width:1.25;stroke-linecap:butt;stroke-linejoin:miter;stroke:rgb(0%,0%,0%);stroke-opacity:1;stroke-miterlimit:4;" d="M 167.698794 144.9811 C 167.698794 144.9811 174.505454 149.51764 179.045692 148.693151 " transform="matrix(1.056525,0,0,1.056525,219.24,39.14025)"/>
<path style="fill:none;stroke-width:1.25;stroke-linecap:butt;stroke-linejoin:miter;stroke:rgb(0%,0%,0%);stroke-opacity:1;stroke-miterlimit:4;" d="M 164.61158 147.669009 C 164.61158 147.669009 169.355168 151.177711 169.558517 153.033737 " transform="matrix(1.056525,0,0,1.056525,219.24,39.14025)"/>
<path style="fill:none;stroke-width:1.25;stroke-linecap:butt;stroke-linejoin:miter;stroke:rgb(0%,0%,0%);stroke-opacity:1;stroke-miterlimit:4;" d="M 158.00827 151.791457 C 158.00827 151.791457 159.4539 159.215559 164.61158 161.896074 " transform="matrix(1.056525,0,0,1.056525,219.24,39.14025)"/>
<path style="fill:none;stroke-width:1.25;stroke-linecap:butt;stroke-linejoin:miter;stroke:rgb(0%,0%,0%);stroke-opacity:1;stroke-miterlimit:4;" d="M 154.499568 155.089415 C 154.499568 155.089415 152.229449 164.783636 158.00827 170.765807 " transform="matrix(1.056525,0,0,1.056525,219.24,39.14025)"/>
<path style="fill:none;stroke-width:1.25;stroke-linecap:butt;stroke-linejoin:miter;stroke:rgb(0%,0%,0%);stroke-opacity:1;stroke-miterlimit:4;" d="M 148.521095 162.720564 C 148.521095 162.927611 148.107002 167.257105 148.314048 167.671198 " transform="matrix(1.056525,0,0,1.056525,219.24,39.14025)"/>
<path style="fill:none;stroke-width:1.25;stroke-linecap:butt;stroke-linejoin:miter;stroke:rgb(0%,0%,0%);stroke-opacity:1;stroke-miterlimit:4;" d="M 111.38949 125.178563 L 122.529341 124.56112 C 122.529341 124.56112 126.655486 122.912141 123.764227 120.231626 " transform="matrix(1.056525,0,0,1.056525,219.24,39.14025)"/>
<path style="fill:none;stroke-width:1.25;stroke-linecap:butt;stroke-linejoin:miter;stroke:rgb(0%,0%,0%);stroke-opacity:1;stroke-miterlimit:4;" d="M 125.209857 122.708792 C 125.416903 122.708792 135.728568 123.533281 138.41278 126.62789 C 141.093295 129.722498 144.39495 135.911715 146.250976 136.943251 C 148.107002 137.974788 148.517398 136.529158 148.517398 136.529158 " transform="matrix(1.056525,0,0,1.056525,219.24,39.14025)"/>
<path style="fill:none;stroke-width:1.25;stroke-linecap:butt;stroke-linejoin:miter;stroke:rgb(0%,0%,0%);stroke-opacity:1;stroke-miterlimit:4;" d="M 143.980857 134.880179 C 143.980857 134.880179 138.41278 144.367354 142.742274 147.258613 " transform="matrix(1.056525,0,0,1.056525,219.24,39.14025)"/>
<path style="fill:none;stroke-width:1.25;stroke-linecap:butt;stroke-linejoin:miter;stroke:rgb(0%,0%,0%);stroke-opacity:1;stroke-miterlimit:4;" d="M 140.878854 145.39889 C 140.878854 145.39889 135.92822 152.002201 139.847318 155.300159 " transform="matrix(1.056525,0,0,1.056525,219.24,39.14025)"/>
<path style="fill:none;stroke-width:1.25;stroke-linecap:butt;stroke-linejoin:miter;stroke:rgb(0%,0%,0%);stroke-opacity:1;stroke-miterlimit:4;" d="M 138.819479 154.468275 C 138.819479 154.468275 134.900381 160.864538 139.647666 165.19773 " transform="matrix(1.056525,0,0,1.056525,219.24,39.14025)"/>
<path style="fill:none;stroke-width:1.25;stroke-linecap:butt;stroke-linejoin:miter;stroke:rgb(0%,0%,0%);stroke-opacity:1;stroke-miterlimit:4;" d="M 137.08916 137.508933 C 136.822957 137.775135 132.297508 140.96957 130.700291 140.170961 " transform="matrix(1.056525,0,0,1.056525,219.24,39.14025)"/>
<path style="fill:none;stroke-width:1.25;stroke-linecap:butt;stroke-linejoin:miter;stroke:rgb(0%,0%,0%);stroke-opacity:1;stroke-miterlimit:4;" d="M 132.301206 147.620945 C 132.301206 147.620945 134.164626 149.484365 135.761843 149.218162 " transform="matrix(1.056525,0,0,1.056525,219.24,39.14025)"/>
<path style="fill:none;stroke-width:1.25;stroke-linecap:butt;stroke-linejoin:miter;stroke:rgb(0%,0%,0%);stroke-opacity:1;stroke-miterlimit:4;" d="M 132.519344 157.300377 L 135.491943 159.337569 " transform="matrix(1.056525,0,0,1.056525,219.24,39.14025)"/>
<path style="fill:none;stroke-width:1.25;stroke-linecap:butt;stroke-linejoin:miter;stroke:rgb(0%,0%,0%);stroke-opacity:1;stroke-miterlimit:4;" d="M 132.918648 164.709691 L 135.491943 166.262541 " transform="matrix(1.056525,0,0,1.056525,219.24,39.14025)"/>
<path style="fill:none;stroke-width:1.25;stroke-linecap:butt;stroke-linejoin:miter;stroke:rgb(0%,0%,0%);stroke-opacity:1;stroke-miterlimit:4;" d="M 86.329447 63.545201 C 86.329447 63.545201 91.75333 66.362515 96.090219 63.545201 C 100.430805 60.72419 121.253786 50.094561 126.67767 48.360545 C 132.097856 46.626529 135.133308 36.647618 136.220304 32.31073 " transform="matrix(1.056525,0,0,1.056525,219.24,39.14025)"/>
<path style="fill:none;stroke-width:1.25;stroke-linecap:butt;stroke-linejoin:miter;stroke:rgb(0%,0%,0%);stroke-opacity:1;stroke-miterlimit:4;" d="M 132.101553 44.023657 L 162.467168 35.128044 C 162.467168 35.128044 167.458472 31.005596 167.672914 23.415117 " transform="matrix(1.056525,0,0,1.056525,219.24,39.14025)"/>
<path style="fill:none;stroke-width:1.25;stroke-linecap:butt;stroke-linejoin:miter;stroke:rgb(0%,0%,0%);stroke-opacity:1;stroke-miterlimit:4;" d="M 165.498923 31.656314 C 165.498923 31.656314 195.868235 28.620862 195.868235 17.340515 " transform="matrix(1.056525,0,0,1.056525,219.24,39.14025)"/>
<path style="fill:none;stroke-width:1.25;stroke-linecap:butt;stroke-linejoin:miter;stroke:rgb(0%,0%,0%);stroke-opacity:1;stroke-miterlimit:4;" d="M 191.098767 25.149133 C 191.098767 25.149133 222.987654 16.475356 226.023106 13.221765 " transform="matrix(1.056525,0,0,1.056525,219.24,39.14025)"/>
<path style="fill:none;stroke-width:1.25;stroke-linecap:butt;stroke-linejoin:miter;stroke:rgb(0%,0%,0%);stroke-opacity:1;stroke-miterlimit:4;" d="M 102.161124 70.484962 C 102.161124 70.484962 121.46453 60.506052 124.50368 59.422754 C 127.539132 58.339456 134.478893 49.661981 124.067403 49.661981 " transform="matrix(1.056525,0,0,1.056525,219.24,39.14025)"/>
<path style="fill:none;stroke-width:1.25;stroke-linecap:butt;stroke-linejoin:miter;stroke:rgb(0%,0%,0%);stroke-opacity:1;stroke-miterlimit:4;" d="M 111.489316 74.389271 C 111.707455 74.389271 127.324691 64.192222 132.530436 62.894483 C 135.351447 58.990174 133.831872 54.867727 129.058707 55.736583 " transform="matrix(1.056525,0,0,1.056525,219.24,39.14025)"/>
<path style="fill:none;stroke-width:1.25;stroke-linecap:butt;stroke-linejoin:miter;stroke:rgb(0%,0%,0%);stroke-opacity:1;stroke-miterlimit:4;" d="M 133.828175 60.29161 C 134.264452 60.073472 142.291208 59.855334 139.470197 66.148074 C 135.351447 69.183526 117.560221 78.075442 117.560221 78.075442 " transform="matrix(1.056525,0,0,1.056525,219.24,39.14025)"/>
<path style="fill:none;stroke-width:1.25;stroke-linecap:butt;stroke-linejoin:miter;stroke:rgb(0%,0%,0%);stroke-opacity:1;stroke-miterlimit:4;" d="M 129.709425 53.56629 L 163.550466 42.285943 C 163.550466 42.285943 166.371477 36.42948 162.24903 35.560623 " transform="matrix(1.056525,0,0,1.056525,219.24,39.14025)"/>
<path style="fill:none;stroke-width:1.25;stroke-linecap:butt;stroke-linejoin:miter;stroke:rgb(0%,0%,0%);stroke-opacity:1;stroke-miterlimit:4;" d="M 190.451746 25.367271 C 190.451746 25.58541 194.788635 27.970144 192.185762 31.874453 C 187.412597 34.695464 164.8556 40.11565 164.8556 40.11565 " transform="matrix(1.056525,0,0,1.056525,219.24,39.14025)"/>
<path style="fill:none;stroke-width:1.25;stroke-linecap:butt;stroke-linejoin:miter;stroke:rgb(0%,0%,0%);stroke-opacity:1;stroke-miterlimit:4;" d="M 224.72167 21.895542 L 192.832783 30.791155 " transform="matrix(1.056525,0,0,1.056525,219.24,39.14025)"/>
<path style="fill:none;stroke-width:1.25;stroke-linecap:butt;stroke-linejoin:miter;stroke:rgb(0%,0%,0%);stroke-opacity:1;stroke-miterlimit:4;" d="M 222.329541 29.053442 L 194.566799 37.512778 " transform="matrix(1.056525,0,0,1.056525,219.24,39.14025)"/>
<path style="fill:none;stroke-width:1.25;stroke-linecap:butt;stroke-linejoin:miter;stroke:rgb(0%,0%,0%);stroke-opacity:1;stroke-miterlimit:4;" d="M 219.948505 35.9969 L 195.439353 43.369241 " transform="matrix(1.056525,0,0,1.056525,219.24,39.14025)"/>
<path style="fill:none;stroke-width:1.25;stroke-linecap:butt;stroke-linejoin:miter;stroke:rgb(0%,0%,0%);stroke-opacity:1;stroke-miterlimit:4;" d="M 215.38978 42.936661 C 214.739062 42.936661 197.169672 48.360545 197.169672 48.360545 " transform="matrix(1.056525,0,0,1.056525,219.24,39.14025)"/>
<path style="fill:none;stroke-width:1.25;stroke-linecap:butt;stroke-linejoin:miter;stroke:rgb(0%,0%,0%);stroke-opacity:1;stroke-miterlimit:4;" d="M 211.489169 48.360545 L 200.208821 52.915572 " transform="matrix(1.056525,0,0,1.056525,219.24,39.14025)"/>
<path style="fill:none;stroke-width:1.25;stroke-linecap:butt;stroke-linejoin:miter;stroke:rgb(0%,0%,0%);stroke-opacity:1;stroke-miterlimit:4;" d="M 208.668157 54.43145 C 208.235578 54.43145 198.907385 58.553897 198.907385 58.553897 " transform="matrix(1.056525,0,0,1.056525,219.24,39.14025)"/>
<path style="fill:none;stroke-width:1.25;stroke-linecap:butt;stroke-linejoin:miter;stroke:rgb(0%,0%,0%);stroke-opacity:1;stroke-miterlimit:4;" d="M 205.850844 59.422754 L 197.173369 63.541504 " transform="matrix(1.056525,0,0,1.056525,219.24,39.14025)"/>
<path style="fill:none;stroke-width:1.25;stroke-linecap:butt;stroke-linejoin:miter;stroke:rgb(0%,0%,0%);stroke-opacity:1;stroke-miterlimit:4;" d="M 190.880629 68.750946 C 190.880629 68.750946 191.963927 69.183526 191.749485 70.484962 " transform="matrix(1.056525,0,0,1.056525,219.24,39.14025)"/>
<path style="fill:none;stroke-width:1.25;stroke-linecap:butt;stroke-linejoin:miter;stroke:rgb(0%,0%,0%);stroke-opacity:1;stroke-miterlimit:4;" d="M 168.970653 80.678315 C 168.970653 80.678315 172.656823 81.979751 169.188791 85.45148 C 167.451078 87.836214 162.463471 87.189193 159.424321 91.526082 " transform="matrix(1.056525,0,0,1.056525,219.24,39.14025)"/>
<path style="fill:none;stroke-width:1.25;stroke-linecap:butt;stroke-linejoin:miter;stroke:rgb(0%,0%,0%);stroke-opacity:1;stroke-miterlimit:4;" d="M 192.618342 32.092591 C 192.618342 32.092591 197.177066 33.175889 193.705337 39.032353 C 184.595283 42.504082 166.157036 48.142407 166.157036 48.142407 C 166.157036 48.142407 165.288179 49.661981 162.903445 50.963418 C 160.518711 52.264854 134.271846 59.640892 134.271846 59.640892 " transform="matrix(1.056525,0,0,1.056525,219.24,39.14025)"/>
<path style="fill:none;stroke-width:1.25;stroke-linecap:butt;stroke-linejoin:miter;stroke:rgb(0%,0%,0%);stroke-opacity:1;stroke-miterlimit:4;" d="M 194.141614 38.814214 C 194.141614 38.814214 199.129221 40.984507 194.141614 44.674375 C 188.499592 47.927966 168.759909 53.99887 168.759909 53.99887 C 168.759909 53.99887 168.545467 55.736583 167.676611 56.387302 C 166.807754 57.03802 140.779028 65.711797 140.779028 65.711797 " transform="matrix(1.056525,0,0,1.056525,219.24,39.14025)"/>
<path style="fill:none;stroke-width:1.25;stroke-linecap:butt;stroke-linejoin:miter;stroke:rgb(0%,0%,0%);stroke-opacity:1;stroke-miterlimit:4;" d="M 195.439353 44.670677 C 195.439353 44.670677 200.645098 46.190252 196.090071 50.527141 C 190.666188 53.780732 173.314936 59.637195 173.314936 59.637195 C 173.314936 59.637195 171.58092 61.807488 168.759909 62.676345 C 165.938898 63.541504 147.936928 70.917542 147.936928 70.917542 " transform="matrix(1.056525,0,0,1.056525,219.24,39.14025)"/>
<path style="fill:none;stroke-width:1.25;stroke-linecap:butt;stroke-linejoin:miter;stroke:rgb(0%,0%,0%);stroke-opacity:1;stroke-miterlimit:4;" d="M 196.740789 50.530838 C 198.260364 51.177859 202.379114 51.832274 197.391508 55.736583 C 191.535044 58.339456 177.219245 63.977781 177.219245 63.977781 L 175.917808 66.362515 L 153.142673 76.123287 " transform="matrix(1.056525,0,0,1.056525,219.24,39.14025)"/>
<path style="fill:none;stroke-width:1.25;stroke-linecap:butt;stroke-linejoin:miter;stroke:rgb(0%,0%,0%);stroke-opacity:1;stroke-miterlimit:4;" d="M 198.038528 56.387302 C 198.038528 56.387302 200.208821 58.990174 195.435656 62.025626 C 190.229911 64.846638 178.953261 69.183526 178.953261 69.183526 " transform="matrix(1.056525,0,0,1.056525,219.24,39.14025)"/>
<path style="fill:none;stroke-width:1.25;stroke-linecap:butt;stroke-linejoin:miter;stroke:rgb(0%,0%,0%);stroke-opacity:1;stroke-miterlimit:4;" d="M 195.439353 62.458206 C 195.439353 62.458206 197.827784 63.977781 194.788635 66.148074 C 191.320603 67.88209 177.655522 75.03999 177.655522 75.03999 L 168.759909 80.896453 " transform="matrix(1.056525,0,0,1.056525,219.24,39.14025)"/>
<path style="fill:none;stroke-width:1.25;stroke-linecap:butt;stroke-linejoin:miter;stroke:rgb(0%,0%,0%);stroke-opacity:1;stroke-miterlimit:4;" d="M 164.201184 42.504082 C 164.201184 42.718523 167.887355 45.757673 166.585918 49.225705 C 169.839509 51.614136 169.188791 54.217009 169.188791 54.217009 C 169.188791 54.217009 173.743818 56.819881 173.0931 60.506052 C 177.648127 61.593047 177.433686 64.195919 177.433686 64.195919 L 175.914111 66.580654 C 175.914111 66.580654 180.469138 66.362515 176.564829 72.218978 C 178.949563 73.520415 177.866266 75.03999 177.866266 75.03999 " transform="matrix(1.056525,0,0,1.056525,219.24,39.14025)"/>
<path style="fill:none;stroke-width:1.25;stroke-linecap:butt;stroke-linejoin:miter;stroke:rgb(0%,0%,0%);stroke-opacity:1;stroke-miterlimit:4;" d="M 176.561132 72.437117 C 175.910414 72.437117 160.725758 78.075442 156.821449 81.547171 " transform="matrix(1.056525,0,0,1.056525,219.24,39.14025)"/>
<path style="fill:none;stroke-width:1.25;stroke-linecap:butt;stroke-linejoin:miter;stroke:rgb(0%,0%,0%);stroke-opacity:1;stroke-miterlimit:4;" d="M 139.910171 65.711797 C 139.910171 65.711797 144.465198 65.497356 143.81448 70.484962 C 149.020226 68.750946 147.936928 73.738553 147.936928 73.738553 C 147.936928 73.738553 154.007832 71.353819 152.924534 78.944299 C 156.828843 78.075442 156.178125 81.979751 156.178125 81.979751 C 156.178125 81.979751 159.649854 81.76531 159.649854 83.717464 C 162.034589 81.547171 164.637461 82.630469 164.637461 82.630469 C 164.637461 82.630469 166.371477 80.245735 168.759909 80.896453 " transform="matrix(1.056525,0,0,1.056525,219.24,39.14025)"/>
<path style="fill:none;stroke-width:1.25;stroke-linecap:butt;stroke-linejoin:miter;stroke:rgb(0%,0%,0%);stroke-opacity:1;stroke-miterlimit:4;" d="M 144.028921 70.266824 C 144.028921 70.703101 123.63852 81.979751 123.63852 81.979751 " transform="matrix(1.056525,0,0,1.056525,219.24,39.14025)"/>
<path style="fill:none;stroke-width:1.25;stroke-linecap:butt;stroke-linejoin:miter;stroke:rgb(0%,0%,0%);stroke-opacity:1;stroke-miterlimit:4;" d="M 147.929533 73.956692 L 132.530436 83.499326 " transform="matrix(1.056525,0,0,1.056525,219.24,39.14025)"/>
<path style="fill:none;stroke-width:1.25;stroke-linecap:butt;stroke-linejoin:miter;stroke:rgb(0%,0%,0%);stroke-opacity:1;stroke-miterlimit:4;" d="M 153.138976 78.72616 C 153.138976 78.944299 139.692033 86.752916 139.692033 86.752916 " transform="matrix(1.056525,0,0,1.056525,219.24,39.14025)"/>
<path style="fill:none;stroke-width:1.25;stroke-linecap:butt;stroke-linejoin:miter;stroke:rgb(0%,0%,0%);stroke-opacity:1;stroke-miterlimit:4;" d="M 156.181822 81.76531 C 156.181822 81.76531 146.635491 89.573927 144.465198 89.137651 " transform="matrix(1.056525,0,0,1.056525,219.24,39.14025)"/>
<path style="fill:none;stroke-width:1.25;stroke-linecap:butt;stroke-linejoin:miter;stroke:rgb(0%,0%,0%);stroke-opacity:1;stroke-miterlimit:4;" d="M 159.431716 84.150044 C 159.431716 84.150044 154.007832 88.272491 149.452805 90.224646 " transform="matrix(1.056525,0,0,1.056525,219.24,39.14025)"/>
<path style="fill:none;stroke-width:1.25;stroke-linecap:butt;stroke-linejoin:miter;stroke:rgb(0%,0%,0%);stroke-opacity:1;stroke-miterlimit:4;" d="M 165.070041 82.416028 C 165.070041 82.416028 166.804057 84.582623 155.959987 90.224646 " transform="matrix(1.056525,0,0,1.056525,219.24,39.14025)"/>
</g>
</svg>
