<?xml version="1.0" encoding="UTF-8"?>
<svg xmlns="http://www.w3.org/2000/svg" xmlns:xlink="http://www.w3.org/1999/xlink" width="480pt" height="360pt" viewBox="0 0 480 360" version="1.1">
<defs>
<clipPath id="clip1">
  <path d="M 0 0 L 479.996094 0 L 479.996094 359.996094 L 0 359.996094 Z M 0 0 "/>
</clipPath>
<clipPath id="clip2">
  <path d="M 0 239 L 479.996094 239 L 479.996094 260 L 0 260 Z M 0 239 "/>
</clipPath>
<clipPath id="clip3">
  <path d="M 0 279 L 479.996094 279 L 479.996094 300 L 0 300 Z M 0 279 "/>
</clipPath>
</defs>
<g id="surface1">
<g clip-path="url(#clip1)" clip-rule="nonzero">
<path style=" stroke:none;fill-rule:nonzero;fill:rgb(20%,60%,80%);fill-opacity:1;" d="M 0 0 L 0 359.996094 L 539.996094 359.996094 L 539.996094 0 Z M 0 0 "/>
</g>
<g clip-path="url(#clip2)" clip-rule="nonzero">
<path style=" stroke:none;fill-rule:nonzero;fill:rgb(100%,100%,0%);fill-opacity:1;" d="M 0 239.996094 L 0 259.996094 L 539.996094 259.996094 L 539.996094 239.996094 Z M 0 239.996094 "/>
</g>
<g clip-path="url(#clip3)" clip-rule="nonzero">
<path style=" stroke:none;fill-rule:nonzero;fill:rgb(100%,100%,0%);fill-opacity:1;" d="M 0 279.996094 L 0 299.996094 L 539.996094 299.996094 L 539.996094 279.996094 Z M 0 279.996094 "/>
</g>
<path style=" stroke:none;fill-rule:nonzero;fill:rgb(60%,80%,80%);fill-opacity:1;" d="M 106.984375 21.050781 L 109.199219 23.265625 Z M 106.984375 21.050781 "/>
<path style=" stroke:none;fill-rule:nonzero;fill:rgb(60%,80%,80%);fill-opacity:1;" d="M 104.769531 25.476562 L 106.984375 27.691406 L 104.769531 25.476562 M 109.199219 25.476562 L 111.414062 27.691406 Z M 109.199219 25.476562 "/>
<path style=" stroke:none;fill-rule:nonzero;fill:rgb(80%,80%,100%);fill-opacity:1;" d="M 104.769531 27.691406 L 106.984375 29.90625 L 104.769531 27.691406 M 109.199219 27.691406 L 111.414062 29.90625 Z M 109.199219 27.691406 "/>
<path style=" stroke:none;fill-rule:nonzero;fill:rgb(40%,80%,80%);fill-opacity:1;" d="M 102.558594 32.121094 L 104.769531 34.335938 Z M 102.558594 32.121094 "/>
<path style=" stroke:none;fill-rule:nonzero;fill:rgb(80%,40%,40%);fill-opacity:1;" d="M 106.984375 32.121094 L 109.199219 34.335938 Z M 106.984375 32.121094 "/>
<path style=" stroke:none;fill-rule:nonzero;fill:rgb(40%,80%,80%);fill-opacity:1;" d="M 111.414062 32.121094 L 113.628906 34.335938 Z M 111.414062 32.121094 "/>
<path style=" stroke:none;fill-rule:nonzero;fill:rgb(80%,80%,100%);fill-opacity:1;" d="M 102.558594 34.335938 L 104.769531 36.546875 Z M 102.558594 34.335938 "/>
<path style=" stroke:none;fill-rule:nonzero;fill:rgb(80%,80%,100%);fill-opacity:1;" d="M 111.414062 34.335938 L 113.628906 36.546875 Z M 111.414062 34.335938 "/>
<path style=" stroke:none;fill-rule:nonzero;fill:rgb(100%,80%,80%);fill-opacity:1;" d="M 104.769531 36.546875 L 106.984375 38.761719 L 104.769531 36.546875 M 109.199219 36.546875 L 111.414062 38.761719 Z M 109.199219 36.546875 "/>
<path style=" stroke:none;fill-rule:nonzero;fill:rgb(40%,80%,80%);fill-opacity:1;" d="M 100.34375 38.761719 L 102.558594 40.976562 Z M 100.34375 38.761719 "/>
<path style="fill-rule:nonzero;fill:rgb(80%,0%,0%);fill-opacity:1;stroke-width:1.25;stroke-linecap:butt;stroke-linejoin:miter;stroke:rgb(100%,100%,100%);stroke-opacity:1;stroke-miterlimit:4;" d="M 47.835594 14.032793 L 40.824343 40.60639 L 14.173117 47.84347 L 40.748478 54.780622 L 47.835594 81.35422 L 54.920946 54.780622 L 81.496308 47.693506 L 54.920946 40.60639 Z M 47.835594 14.032793 " transform="matrix(2.214075,0,0,2.214075,0.7095,-5.518875)"/>
<path style=" stroke:none;fill-rule:nonzero;fill:rgb(40%,80%,80%);fill-opacity:1;" d="M 113.628906 38.761719 L 115.839844 40.976562 Z M 113.628906 38.761719 "/>
<path style=" stroke:none;fill-rule:nonzero;fill:rgb(60%,80%,100%);fill-opacity:1;" d="M 100.34375 40.976562 L 102.558594 43.191406 L 100.34375 40.976562 M 113.628906 40.976562 L 115.839844 43.191406 Z M 113.628906 40.976562 "/>
<path style=" stroke:none;fill-rule:nonzero;fill:rgb(100%,80%,80%);fill-opacity:1;" d="M 102.558594 43.191406 L 104.769531 45.40625 L 102.558594 43.191406 M 111.414062 43.191406 L 113.628906 45.40625 Z M 111.414062 43.191406 "/>
<path style=" stroke:none;fill-rule:nonzero;fill:rgb(40%,60%,80%);fill-opacity:1;" d="M 98.128906 45.40625 L 100.34375 47.617188 Z M 98.128906 45.40625 "/>
<path style=" stroke:none;fill-rule:nonzero;fill:rgb(80%,20%,20%);fill-opacity:1;" d="M 103.292969 46.882812 L 104.03125 48.359375 L 103.292969 46.882812 M 112.152344 46.882812 L 112.890625 48.359375 Z M 112.152344 46.882812 "/>
<path style=" stroke:none;fill-rule:nonzero;fill:rgb(40%,60%,80%);fill-opacity:1;" d="M 115.839844 45.40625 L 118.054688 47.617188 Z M 115.839844 45.40625 "/>
<path style=" stroke:none;fill-rule:nonzero;fill:rgb(60%,80%,100%);fill-opacity:1;" d="M 98.128906 47.617188 L 100.34375 49.832031 L 98.128906 47.617188 M 115.839844 47.617188 L 118.054688 49.832031 Z M 115.839844 47.617188 "/>
<path style=" stroke:none;fill-rule:nonzero;fill:rgb(100%,80%,80%);fill-opacity:1;" d="M 100.34375 49.832031 L 102.558594 52.046875 L 100.34375 49.832031 M 113.628906 49.832031 L 115.839844 52.046875 Z M 113.628906 49.832031 "/>
<path style=" stroke:none;fill-rule:nonzero;fill:rgb(40%,60%,80%);fill-opacity:1;" d="M 95.914062 52.046875 L 98.128906 54.261719 Z M 95.914062 52.046875 "/>
<path style=" stroke:none;fill-rule:nonzero;fill:rgb(40%,60%,80%);fill-opacity:1;" d="M 118.054688 52.046875 L 120.269531 54.261719 Z M 118.054688 52.046875 "/>
<path style=" stroke:none;fill-rule:nonzero;fill:rgb(60%,80%,80%);fill-opacity:1;" d="M 95.914062 54.261719 L 98.128906 56.476562 L 95.914062 54.261719 M 118.054688 54.261719 L 120.269531 56.476562 Z M 118.054688 54.261719 "/>
<path style=" stroke:none;fill-rule:nonzero;fill:rgb(80%,100%,100%);fill-opacity:1;" d="M 95.914062 56.476562 L 98.128906 58.6875 L 95.914062 56.476562 M 118.054688 56.476562 L 120.269531 58.6875 Z M 118.054688 56.476562 "/>
<path style=" stroke:none;fill-rule:nonzero;fill:rgb(40%,60%,80%);fill-opacity:1;" d="M 93.699219 58.6875 L 95.914062 60.902344 Z M 93.699219 58.6875 "/>
<path style=" stroke:none;fill-rule:nonzero;fill:rgb(100%,80%,80%);fill-opacity:1;" d="M 98.128906 58.6875 L 100.34375 60.902344 L 98.128906 58.6875 M 115.839844 58.6875 L 118.054688 60.902344 Z M 115.839844 58.6875 "/>
<path style=" stroke:none;fill-rule:nonzero;fill:rgb(40%,60%,80%);fill-opacity:1;" d="M 120.269531 58.6875 L 122.484375 60.902344 Z M 120.269531 58.6875 "/>
<path style=" stroke:none;fill-rule:nonzero;fill:rgb(60%,80%,80%);fill-opacity:1;" d="M 93.699219 60.902344 L 95.914062 63.117188 Z M 93.699219 60.902344 "/>
<path style=" stroke:none;fill-rule:nonzero;fill:rgb(80%,20%,20%);fill-opacity:1;" d="M 98.867188 62.378906 L 99.605469 63.855469 L 98.867188 62.378906 M 116.578125 62.378906 L 117.316406 63.855469 Z M 116.578125 62.378906 "/>
<path style=" stroke:none;fill-rule:nonzero;fill:rgb(60%,80%,80%);fill-opacity:1;" d="M 120.269531 60.902344 L 122.484375 63.117188 Z M 120.269531 60.902344 "/>
<path style=" stroke:none;fill-rule:nonzero;fill:rgb(80%,100%,100%);fill-opacity:1;" d="M 93.699219 63.117188 L 95.914062 65.332031 L 93.699219 63.117188 M 120.269531 63.117188 L 122.484375 65.332031 Z M 120.269531 63.117188 "/>
<path style=" stroke:none;fill-rule:nonzero;fill:rgb(100%,80%,80%);fill-opacity:1;" d="M 95.914062 65.332031 L 98.128906 67.546875 L 95.914062 65.332031 M 118.054688 65.332031 L 120.269531 67.546875 Z M 118.054688 65.332031 "/>
<path style=" stroke:none;fill-rule:nonzero;fill:rgb(60%,80%,80%);fill-opacity:1;" d="M 91.488281 67.546875 L 93.699219 69.757812 Z M 91.488281 67.546875 "/>
<path style=" stroke:none;fill-rule:nonzero;fill:rgb(80%,20%,20%);fill-opacity:1;" d="M 96.652344 69.023438 L 97.390625 70.5 L 96.652344 69.023438 M 118.792969 69.023438 L 119.53125 70.5 Z M 118.792969 69.023438 "/>
<path style=" stroke:none;fill-rule:nonzero;fill:rgb(60%,80%,80%);fill-opacity:1;" d="M 122.484375 67.546875 L 124.699219 69.757812 Z M 122.484375 67.546875 "/>
<path style=" stroke:none;fill-rule:nonzero;fill:rgb(80%,80%,100%);fill-opacity:1;" d="M 91.488281 69.757812 L 93.699219 71.972656 L 91.488281 69.757812 M 122.484375 69.757812 L 124.699219 71.972656 Z M 122.484375 69.757812 "/>
<path style=" stroke:none;fill-rule:nonzero;fill:rgb(100%,80%,80%);fill-opacity:1;" d="M 93.699219 71.972656 L 95.914062 74.1875 L 93.699219 71.972656 M 120.269531 71.972656 L 122.484375 74.1875 Z M 120.269531 71.972656 "/>
<path style=" stroke:none;fill-rule:nonzero;fill:rgb(60%,80%,80%);fill-opacity:1;" d="M 89.273438 74.1875 L 91.488281 76.402344 Z M 89.273438 74.1875 "/>
<path style=" stroke:none;fill-rule:nonzero;fill:rgb(80%,20%,20%);fill-opacity:1;" d="M 94.4375 75.664062 L 95.175781 77.140625 L 94.4375 75.664062 M 121.007812 75.664062 L 121.746094 77.140625 Z M 121.007812 75.664062 "/>
<path style=" stroke:none;fill-rule:nonzero;fill:rgb(60%,80%,80%);fill-opacity:1;" d="M 124.699219 74.1875 L 126.910156 76.402344 Z M 124.699219 74.1875 "/>
<path style=" stroke:none;fill-rule:nonzero;fill:rgb(80%,80%,100%);fill-opacity:1;" d="M 89.273438 76.402344 L 91.488281 78.617188 L 89.273438 76.402344 M 124.699219 76.402344 L 126.910156 78.617188 Z M 124.699219 76.402344 "/>
<path style=" stroke:none;fill-rule:nonzero;fill:rgb(100%,80%,80%);fill-opacity:1;" d="M 91.488281 78.617188 L 93.699219 80.828125 L 91.488281 78.617188 M 122.484375 78.617188 L 124.699219 80.828125 Z M 122.484375 78.617188 "/>
<path style=" stroke:none;fill-rule:nonzero;fill:rgb(60%,80%,80%);fill-opacity:1;" d="M 87.058594 80.828125 L 89.273438 83.042969 Z M 87.058594 80.828125 "/>
<path style=" stroke:none;fill-rule:nonzero;fill:rgb(80%,20%,20%);fill-opacity:1;" d="M 91.488281 80.828125 L 93.699219 83.042969 L 91.488281 80.828125 M 122.484375 80.828125 L 124.699219 83.042969 Z M 122.484375 80.828125 "/>
<path style=" stroke:none;fill-rule:nonzero;fill:rgb(60%,80%,80%);fill-opacity:1;" d="M 126.910156 80.828125 L 129.125 83.042969 L 126.910156 80.828125 M 80.417969 83.042969 L 82.628906 85.257812 Z M 80.417969 83.042969 "/>
<path style=" stroke:none;fill-rule:nonzero;fill:rgb(80%,80%,100%);fill-opacity:1;" d="M 82.628906 83.042969 L 84.84375 85.257812 L 82.628906 83.042969 M 131.339844 83.042969 L 133.554688 85.257812 Z M 131.339844 83.042969 "/>
<path style=" stroke:none;fill-rule:nonzero;fill:rgb(60%,80%,80%);fill-opacity:1;" d="M 133.554688 83.042969 L 135.769531 85.257812 L 133.554688 83.042969 M 73.773438 85.257812 L 75.988281 87.472656 Z M 73.773438 85.257812 "/>
<path style=" stroke:none;fill-rule:nonzero;fill:rgb(80%,80%,100%);fill-opacity:1;" d="M 75.988281 85.257812 L 78.203125 87.472656 Z M 75.988281 85.257812 "/>
<path style=" stroke:none;fill-rule:nonzero;fill:rgb(100%,80%,80%);fill-opacity:1;" d="M 84.84375 85.257812 L 87.058594 87.472656 Z M 84.84375 85.257812 "/>
<path style=" stroke:none;fill-rule:nonzero;fill:rgb(80%,20%,20%);fill-opacity:1;" d="M 87.058594 85.257812 L 89.273438 87.472656 L 87.058594 85.257812 M 126.910156 85.257812 L 129.125 87.472656 Z M 126.910156 85.257812 "/>
<path style=" stroke:none;fill-rule:nonzero;fill:rgb(100%,80%,80%);fill-opacity:1;" d="M 129.125 85.257812 L 131.339844 87.472656 Z M 129.125 85.257812 "/>
<path style=" stroke:none;fill-rule:nonzero;fill:rgb(80%,80%,100%);fill-opacity:1;" d="M 137.980469 85.257812 L 140.195312 87.472656 Z M 137.980469 85.257812 "/>
<path style=" stroke:none;fill-rule:nonzero;fill:rgb(60%,80%,80%);fill-opacity:1;" d="M 140.195312 85.257812 L 142.410156 87.472656 Z M 140.195312 85.257812 "/>
<path style=" stroke:none;fill-rule:nonzero;fill:rgb(40%,60%,80%);fill-opacity:1;" d="M 64.917969 87.472656 L 67.132812 89.6875 Z M 64.917969 87.472656 "/>
<path style=" stroke:none;fill-rule:nonzero;fill:rgb(60%,80%,80%);fill-opacity:1;" d="M 67.132812 87.472656 L 69.347656 89.6875 Z M 67.132812 87.472656 "/>
<path style=" stroke:none;fill-rule:nonzero;fill:rgb(80%,100%,100%);fill-opacity:1;" d="M 69.347656 87.472656 L 71.558594 89.6875 Z M 69.347656 87.472656 "/>
<path style=" stroke:none;fill-rule:nonzero;fill:rgb(100%,80%,80%);fill-opacity:1;" d="M 78.203125 87.472656 L 80.417969 89.6875 Z M 78.203125 87.472656 "/>
<path style=" stroke:none;fill-rule:nonzero;fill:rgb(80%,20%,20%);fill-opacity:1;" d="M 81.894531 88.210938 L 83.367188 88.949219 L 81.894531 88.210938 M 132.816406 88.210938 L 134.292969 88.949219 Z M 132.816406 88.210938 "/>
<path style=" stroke:none;fill-rule:nonzero;fill:rgb(100%,80%,80%);fill-opacity:1;" d="M 135.769531 87.472656 L 137.980469 89.6875 Z M 135.769531 87.472656 "/>
<path style=" stroke:none;fill-rule:nonzero;fill:rgb(80%,100%,100%);fill-opacity:1;" d="M 144.625 87.472656 L 146.839844 89.6875 Z M 144.625 87.472656 "/>
<path style=" stroke:none;fill-rule:nonzero;fill:rgb(60%,80%,80%);fill-opacity:1;" d="M 146.839844 87.472656 L 149.050781 89.6875 Z M 146.839844 87.472656 "/>
<path style=" stroke:none;fill-rule:nonzero;fill:rgb(40%,60%,80%);fill-opacity:1;" d="M 149.050781 87.472656 L 151.265625 89.6875 L 149.050781 87.472656 M 58.277344 89.6875 L 60.488281 91.902344 Z M 58.277344 89.6875 "/>
<path style=" stroke:none;fill-rule:nonzero;fill:rgb(60%,80%,80%);fill-opacity:1;" d="M 60.488281 89.6875 L 62.703125 91.902344 Z M 60.488281 89.6875 "/>
<path style=" stroke:none;fill-rule:nonzero;fill:rgb(80%,100%,100%);fill-opacity:1;" d="M 62.703125 89.6875 L 64.917969 91.902344 Z M 62.703125 89.6875 "/>
<path style=" stroke:none;fill-rule:nonzero;fill:rgb(100%,80%,80%);fill-opacity:1;" d="M 71.558594 89.6875 L 73.773438 91.902344 Z M 71.558594 89.6875 "/>
<path style=" stroke:none;fill-rule:nonzero;fill:rgb(80%,20%,20%);fill-opacity:1;" d="M 75.25 90.421875 L 76.726562 91.160156 L 75.25 90.421875 M 139.457031 90.421875 L 140.933594 91.160156 Z M 139.457031 90.421875 "/>
<path style=" stroke:none;fill-rule:nonzero;fill:rgb(100%,80%,80%);fill-opacity:1;" d="M 142.410156 89.6875 L 144.625 91.902344 Z M 142.410156 89.6875 "/>
<path style=" stroke:none;fill-rule:nonzero;fill:rgb(80%,100%,100%);fill-opacity:1;" d="M 151.265625 89.6875 L 153.480469 91.902344 Z M 151.265625 89.6875 "/>
<path style=" stroke:none;fill-rule:nonzero;fill:rgb(60%,80%,80%);fill-opacity:1;" d="M 153.480469 89.6875 L 155.695312 91.902344 Z M 153.480469 89.6875 "/>
<path style=" stroke:none;fill-rule:nonzero;fill:rgb(40%,60%,80%);fill-opacity:1;" d="M 155.695312 89.6875 L 157.910156 91.902344 L 155.695312 89.6875 M 51.632812 91.902344 L 53.847656 94.113281 Z M 51.632812 91.902344 "/>
<path style=" stroke:none;fill-rule:nonzero;fill:rgb(60%,80%,100%);fill-opacity:1;" d="M 53.847656 91.902344 L 56.0625 94.113281 Z M 53.847656 91.902344 "/>
<path style=" stroke:none;fill-rule:nonzero;fill:rgb(100%,80%,80%);fill-opacity:1;" d="M 64.917969 91.902344 L 67.132812 94.113281 Z M 64.917969 91.902344 "/>
<path style=" stroke:none;fill-rule:nonzero;fill:rgb(80%,20%,20%);fill-opacity:1;" d="M 68.609375 92.636719 L 70.085938 93.375 L 68.609375 92.636719 M 146.101562 92.636719 L 147.578125 93.375 Z M 146.101562 92.636719 "/>
<path style=" stroke:none;fill-rule:nonzero;fill:rgb(100%,80%,80%);fill-opacity:1;" d="M 149.050781 91.902344 L 151.265625 94.113281 Z M 149.050781 91.902344 "/>
<path style=" stroke:none;fill-rule:nonzero;fill:rgb(60%,80%,100%);fill-opacity:1;" d="M 160.121094 91.902344 L 162.335938 94.113281 Z M 160.121094 91.902344 "/>
<path style=" stroke:none;fill-rule:nonzero;fill:rgb(40%,60%,80%);fill-opacity:1;" d="M 162.335938 91.902344 L 164.550781 94.113281 Z M 162.335938 91.902344 "/>
<path style=" stroke:none;fill-rule:nonzero;fill:rgb(40%,80%,80%);fill-opacity:1;" d="M 44.992188 94.113281 L 47.203125 96.328125 Z M 44.992188 94.113281 "/>
<path style=" stroke:none;fill-rule:nonzero;fill:rgb(60%,80%,100%);fill-opacity:1;" d="M 47.203125 94.113281 L 49.417969 96.328125 Z M 47.203125 94.113281 "/>
<path style=" stroke:none;fill-rule:nonzero;fill:rgb(100%,80%,80%);fill-opacity:1;" d="M 56.0625 94.113281 L 58.277344 96.328125 Z M 56.0625 94.113281 "/>
<path style=" stroke:none;fill-rule:nonzero;fill:rgb(100%,80%,80%);fill-opacity:1;" d="M 157.910156 94.113281 L 160.121094 96.328125 Z M 157.910156 94.113281 "/>
<path style=" stroke:none;fill-rule:nonzero;fill:rgb(60%,80%,100%);fill-opacity:1;" d="M 166.765625 94.113281 L 168.980469 96.328125 Z M 166.765625 94.113281 "/>
<path style=" stroke:none;fill-rule:nonzero;fill:rgb(40%,80%,80%);fill-opacity:1;" d="M 168.980469 94.113281 L 171.191406 96.328125 L 168.980469 94.113281 M 38.347656 96.328125 L 40.5625 98.542969 Z M 38.347656 96.328125 "/>
<path style=" stroke:none;fill-rule:nonzero;fill:rgb(80%,80%,100%);fill-opacity:1;" d="M 40.5625 96.328125 L 42.777344 98.542969 Z M 40.5625 96.328125 "/>
<path style=" stroke:none;fill-rule:nonzero;fill:rgb(100%,80%,80%);fill-opacity:1;" d="M 49.417969 96.328125 L 51.632812 98.542969 Z M 49.417969 96.328125 "/>
<path style=" stroke:none;fill-rule:nonzero;fill:rgb(80%,20%,20%);fill-opacity:1;" d="M 53.109375 97.066406 L 54.585938 97.804688 L 53.109375 97.066406 M 161.601562 97.066406 L 163.074219 97.804688 Z M 161.601562 97.066406 "/>
<path style=" stroke:none;fill-rule:nonzero;fill:rgb(100%,80%,80%);fill-opacity:1;" d="M 164.550781 96.328125 L 166.765625 98.542969 Z M 164.550781 96.328125 "/>
<path style=" stroke:none;fill-rule:nonzero;fill:rgb(80%,80%,100%);fill-opacity:1;" d="M 173.40625 96.328125 L 175.621094 98.542969 Z M 173.40625 96.328125 "/>
<path style=" stroke:none;fill-rule:nonzero;fill:rgb(40%,80%,80%);fill-opacity:1;" d="M 175.621094 96.328125 L 177.835938 98.542969 Z M 175.621094 96.328125 "/>
<path style=" stroke:none;fill-rule:nonzero;fill:rgb(60%,80%,80%);fill-opacity:1;" d="M 31.707031 98.542969 L 33.921875 100.757812 Z M 31.707031 98.542969 "/>
<path style=" stroke:none;fill-rule:nonzero;fill:rgb(80%,80%,100%);fill-opacity:1;" d="M 33.921875 98.542969 L 36.132812 100.757812 Z M 33.921875 98.542969 "/>
<path style=" stroke:none;fill-rule:nonzero;fill:rgb(100%,80%,80%);fill-opacity:1;" d="M 42.777344 98.542969 L 44.992188 100.757812 Z M 42.777344 98.542969 "/>
<path style=" stroke:none;fill-rule:nonzero;fill:rgb(100%,80%,80%);fill-opacity:1;" d="M 171.191406 98.542969 L 173.40625 100.757812 Z M 171.191406 98.542969 "/>
<path style=" stroke:none;fill-rule:nonzero;fill:rgb(80%,80%,100%);fill-opacity:1;" d="M 180.050781 98.542969 L 182.261719 100.757812 Z M 180.050781 98.542969 "/>
<path style=" stroke:none;fill-rule:nonzero;fill:rgb(60%,80%,80%);fill-opacity:1;" d="M 182.261719 98.542969 L 184.476562 100.757812 L 182.261719 98.542969 M 27.277344 100.757812 L 29.492188 102.972656 Z M 27.277344 100.757812 "/>
<path style=" stroke:none;fill-rule:nonzero;fill:rgb(80%,40%,40%);fill-opacity:1;" d="M 38.347656 100.757812 L 40.5625 102.972656 Z M 38.347656 100.757812 "/>
<path style=" stroke:none;fill-rule:nonzero;fill:rgb(80%,40%,40%);fill-opacity:1;" d="M 175.621094 100.757812 L 177.835938 102.972656 Z M 175.621094 100.757812 "/>
<path style=" stroke:none;fill-rule:nonzero;fill:rgb(60%,80%,80%);fill-opacity:1;" d="M 186.691406 100.757812 L 188.90625 102.972656 L 186.691406 100.757812 M 31.707031 102.972656 L 33.921875 105.183594 Z M 31.707031 102.972656 "/>
<path style=" stroke:none;fill-rule:nonzero;fill:rgb(80%,80%,100%);fill-opacity:1;" d="M 33.921875 102.972656 L 36.132812 105.183594 Z M 33.921875 102.972656 "/>
<path style=" stroke:none;fill-rule:nonzero;fill:rgb(100%,80%,80%);fill-opacity:1;" d="M 42.777344 102.972656 L 44.992188 105.183594 L 42.777344 102.972656 M 171.191406 102.972656 L 173.40625 105.183594 Z M 171.191406 102.972656 "/>
<path style=" stroke:none;fill-rule:nonzero;fill:rgb(80%,80%,100%);fill-opacity:1;" d="M 180.050781 102.972656 L 182.261719 105.183594 Z M 180.050781 102.972656 "/>
<path style=" stroke:none;fill-rule:nonzero;fill:rgb(60%,80%,80%);fill-opacity:1;" d="M 182.261719 102.972656 L 184.476562 105.183594 Z M 182.261719 102.972656 "/>
<path style=" stroke:none;fill-rule:nonzero;fill:rgb(40%,80%,80%);fill-opacity:1;" d="M 38.347656 105.183594 L 40.5625 107.398438 Z M 38.347656 105.183594 "/>
<path style=" stroke:none;fill-rule:nonzero;fill:rgb(80%,80%,100%);fill-opacity:1;" d="M 40.5625 105.183594 L 42.777344 107.398438 Z M 40.5625 105.183594 "/>
<path style=" stroke:none;fill-rule:nonzero;fill:rgb(100%,80%,80%);fill-opacity:1;" d="M 49.417969 105.183594 L 51.632812 107.398438 Z M 49.417969 105.183594 "/>
<path style=" stroke:none;fill-rule:nonzero;fill:rgb(80%,20%,20%);fill-opacity:1;" d="M 53.109375 105.921875 L 54.585938 106.660156 L 53.109375 105.921875 M 161.601562 105.921875 L 163.074219 106.660156 Z M 161.601562 105.921875 "/>
<path style=" stroke:none;fill-rule:nonzero;fill:rgb(100%,80%,80%);fill-opacity:1;" d="M 164.550781 105.183594 L 166.765625 107.398438 Z M 164.550781 105.183594 "/>
<path style=" stroke:none;fill-rule:nonzero;fill:rgb(80%,80%,100%);fill-opacity:1;" d="M 173.40625 105.183594 L 175.621094 107.398438 Z M 173.40625 105.183594 "/>
<path style=" stroke:none;fill-rule:nonzero;fill:rgb(40%,80%,80%);fill-opacity:1;" d="M 175.621094 105.183594 L 177.835938 107.398438 L 175.621094 105.183594 M 44.992188 107.398438 L 47.203125 109.613281 Z M 44.992188 107.398438 "/>
<path style=" stroke:none;fill-rule:nonzero;fill:rgb(60%,80%,100%);fill-opacity:1;" d="M 47.203125 107.398438 L 49.417969 109.613281 Z M 47.203125 107.398438 "/>
<path style=" stroke:none;fill-rule:nonzero;fill:rgb(100%,80%,80%);fill-opacity:1;" d="M 56.0625 107.398438 L 58.277344 109.613281 Z M 56.0625 107.398438 "/>
<path style=" stroke:none;fill-rule:nonzero;fill:rgb(100%,80%,80%);fill-opacity:1;" d="M 157.910156 107.398438 L 160.121094 109.613281 Z M 157.910156 107.398438 "/>
<path style=" stroke:none;fill-rule:nonzero;fill:rgb(60%,80%,100%);fill-opacity:1;" d="M 166.765625 107.398438 L 168.980469 109.613281 Z M 166.765625 107.398438 "/>
<path style=" stroke:none;fill-rule:nonzero;fill:rgb(40%,80%,80%);fill-opacity:1;" d="M 168.980469 107.398438 L 171.191406 109.613281 Z M 168.980469 107.398438 "/>
<path style=" stroke:none;fill-rule:nonzero;fill:rgb(40%,60%,80%);fill-opacity:1;" d="M 51.632812 109.613281 L 53.847656 111.828125 Z M 51.632812 109.613281 "/>
<path style=" stroke:none;fill-rule:nonzero;fill:rgb(60%,80%,100%);fill-opacity:1;" d="M 53.847656 109.613281 L 56.0625 111.828125 Z M 53.847656 109.613281 "/>
<path style=" stroke:none;fill-rule:nonzero;fill:rgb(100%,80%,80%);fill-opacity:1;" d="M 64.917969 109.613281 L 67.132812 111.828125 Z M 64.917969 109.613281 "/>
<path style=" stroke:none;fill-rule:nonzero;fill:rgb(80%,20%,20%);fill-opacity:1;" d="M 68.609375 110.351562 L 70.085938 111.089844 L 68.609375 110.351562 M 146.101562 110.351562 L 147.578125 111.089844 Z M 146.101562 110.351562 "/>
<path style=" stroke:none;fill-rule:nonzero;fill:rgb(100%,80%,80%);fill-opacity:1;" d="M 149.050781 109.613281 L 151.265625 111.828125 Z M 149.050781 109.613281 "/>
<path style=" stroke:none;fill-rule:nonzero;fill:rgb(60%,80%,100%);fill-opacity:1;" d="M 160.121094 109.613281 L 162.335938 111.828125 Z M 160.121094 109.613281 "/>
<path style=" stroke:none;fill-rule:nonzero;fill:rgb(40%,60%,80%);fill-opacity:1;" d="M 162.335938 109.613281 L 164.550781 111.828125 L 162.335938 109.613281 M 58.277344 111.828125 L 60.488281 114.042969 Z M 58.277344 111.828125 "/>
<path style=" stroke:none;fill-rule:nonzero;fill:rgb(60%,80%,80%);fill-opacity:1;" d="M 60.488281 111.828125 L 62.703125 114.042969 Z M 60.488281 111.828125 "/>
<path style=" stroke:none;fill-rule:nonzero;fill:rgb(80%,100%,100%);fill-opacity:1;" d="M 62.703125 111.828125 L 64.917969 114.042969 Z M 62.703125 111.828125 "/>
<path style=" stroke:none;fill-rule:nonzero;fill:rgb(100%,80%,80%);fill-opacity:1;" d="M 71.558594 111.828125 L 73.773438 114.042969 Z M 71.558594 111.828125 "/>
<path style=" stroke:none;fill-rule:nonzero;fill:rgb(80%,20%,20%);fill-opacity:1;" d="M 75.25 112.5625 L 76.726562 113.300781 L 75.25 112.5625 M 139.457031 112.5625 L 140.933594 113.300781 Z M 139.457031 112.5625 "/>
<path style=" stroke:none;fill-rule:nonzero;fill:rgb(100%,80%,80%);fill-opacity:1;" d="M 142.410156 111.828125 L 144.625 114.042969 Z M 142.410156 111.828125 "/>
<path style=" stroke:none;fill-rule:nonzero;fill:rgb(80%,100%,100%);fill-opacity:1;" d="M 151.265625 111.828125 L 153.480469 114.042969 Z M 151.265625 111.828125 "/>
<path style=" stroke:none;fill-rule:nonzero;fill:rgb(60%,80%,80%);fill-opacity:1;" d="M 153.480469 111.828125 L 155.695312 114.042969 Z M 153.480469 111.828125 "/>
<path style=" stroke:none;fill-rule:nonzero;fill:rgb(40%,60%,80%);fill-opacity:1;" d="M 155.695312 111.828125 L 157.910156 114.042969 L 155.695312 111.828125 M 64.917969 114.042969 L 67.132812 116.253906 Z M 64.917969 114.042969 "/>
<path style=" stroke:none;fill-rule:nonzero;fill:rgb(60%,80%,80%);fill-opacity:1;" d="M 67.132812 114.042969 L 69.347656 116.253906 Z M 67.132812 114.042969 "/>
<path style=" stroke:none;fill-rule:nonzero;fill:rgb(80%,100%,100%);fill-opacity:1;" d="M 69.347656 114.042969 L 71.558594 116.253906 Z M 69.347656 114.042969 "/>
<path style=" stroke:none;fill-rule:nonzero;fill:rgb(100%,80%,80%);fill-opacity:1;" d="M 78.203125 114.042969 L 80.417969 116.253906 Z M 78.203125 114.042969 "/>
<path style=" stroke:none;fill-rule:nonzero;fill:rgb(80%,20%,20%);fill-opacity:1;" d="M 81.894531 114.777344 L 83.367188 115.515625 L 81.894531 114.777344 M 132.816406 114.777344 L 134.292969 115.515625 Z M 132.816406 114.777344 "/>
<path style=" stroke:none;fill-rule:nonzero;fill:rgb(100%,80%,80%);fill-opacity:1;" d="M 135.769531 114.042969 L 137.980469 116.253906 Z M 135.769531 114.042969 "/>
<path style=" stroke:none;fill-rule:nonzero;fill:rgb(80%,100%,100%);fill-opacity:1;" d="M 144.625 114.042969 L 146.839844 116.253906 Z M 144.625 114.042969 "/>
<path style=" stroke:none;fill-rule:nonzero;fill:rgb(60%,80%,80%);fill-opacity:1;" d="M 146.839844 114.042969 L 149.050781 116.253906 Z M 146.839844 114.042969 "/>
<path style=" stroke:none;fill-rule:nonzero;fill:rgb(40%,60%,80%);fill-opacity:1;" d="M 149.050781 114.042969 L 151.265625 116.253906 Z M 149.050781 114.042969 "/>
<path style=" stroke:none;fill-rule:nonzero;fill:rgb(60%,80%,80%);fill-opacity:1;" d="M 73.773438 116.253906 L 75.988281 118.46875 Z M 73.773438 116.253906 "/>
<path style=" stroke:none;fill-rule:nonzero;fill:rgb(80%,80%,100%);fill-opacity:1;" d="M 75.988281 116.253906 L 78.203125 118.46875 Z M 75.988281 116.253906 "/>
<path style=" stroke:none;fill-rule:nonzero;fill:rgb(100%,80%,80%);fill-opacity:1;" d="M 84.84375 116.253906 L 87.058594 118.46875 Z M 84.84375 116.253906 "/>
<path style=" stroke:none;fill-rule:nonzero;fill:rgb(80%,20%,20%);fill-opacity:1;" d="M 87.058594 116.253906 L 89.273438 118.46875 L 87.058594 116.253906 M 126.910156 116.253906 L 129.125 118.46875 Z M 126.910156 116.253906 "/>
<path style=" stroke:none;fill-rule:nonzero;fill:rgb(100%,80%,80%);fill-opacity:1;" d="M 129.125 116.253906 L 131.339844 118.46875 Z M 129.125 116.253906 "/>
<path style=" stroke:none;fill-rule:nonzero;fill:rgb(80%,80%,100%);fill-opacity:1;" d="M 137.980469 116.253906 L 140.195312 118.46875 Z M 137.980469 116.253906 "/>
<path style=" stroke:none;fill-rule:nonzero;fill:rgb(60%,80%,80%);fill-opacity:1;" d="M 140.195312 116.253906 L 142.410156 118.46875 L 140.195312 116.253906 M 80.417969 118.46875 L 82.628906 120.683594 Z M 80.417969 118.46875 "/>
<path style=" stroke:none;fill-rule:nonzero;fill:rgb(80%,80%,100%);fill-opacity:1;" d="M 82.628906 118.46875 L 84.84375 120.683594 L 82.628906 118.46875 M 131.339844 118.46875 L 133.554688 120.683594 Z M 131.339844 118.46875 "/>
<path style=" stroke:none;fill-rule:nonzero;fill:rgb(60%,80%,80%);fill-opacity:1;" d="M 133.554688 118.46875 L 135.769531 120.683594 L 133.554688 118.46875 M 87.058594 120.683594 L 89.273438 122.898438 Z M 87.058594 120.683594 "/>
<path style=" stroke:none;fill-rule:nonzero;fill:rgb(80%,20%,20%);fill-opacity:1;" d="M 91.488281 120.683594 L 93.699219 122.898438 L 91.488281 120.683594 M 122.484375 120.683594 L 124.699219 122.898438 Z M 122.484375 120.683594 "/>
<path style=" stroke:none;fill-rule:nonzero;fill:rgb(60%,80%,80%);fill-opacity:1;" d="M 126.910156 120.683594 L 129.125 122.898438 Z M 126.910156 120.683594 "/>
<path style=" stroke:none;fill-rule:nonzero;fill:rgb(100%,80%,80%);fill-opacity:1;" d="M 91.488281 122.898438 L 93.699219 125.113281 L 91.488281 122.898438 M 122.484375 122.898438 L 124.699219 125.113281 Z M 122.484375 122.898438 "/>
<path style=" stroke:none;fill-rule:nonzero;fill:rgb(80%,80%,100%);fill-opacity:1;" d="M 89.273438 125.113281 L 91.488281 127.324219 Z M 89.273438 125.113281 "/>
<path style=" stroke:none;fill-rule:nonzero;fill:rgb(80%,20%,20%);fill-opacity:1;" d="M 94.4375 126.589844 L 95.175781 128.0625 L 94.4375 126.589844 M 121.007812 126.589844 L 121.746094 128.0625 Z M 121.007812 126.589844 "/>
<path style=" stroke:none;fill-rule:nonzero;fill:rgb(80%,80%,100%);fill-opacity:1;" d="M 124.699219 125.113281 L 126.910156 127.324219 Z M 124.699219 125.113281 "/>
<path style=" stroke:none;fill-rule:nonzero;fill:rgb(60%,80%,80%);fill-opacity:1;" d="M 89.273438 127.324219 L 91.488281 129.539062 L 89.273438 127.324219 M 124.699219 127.324219 L 126.910156 129.539062 Z M 124.699219 127.324219 "/>
<path style=" stroke:none;fill-rule:nonzero;fill:rgb(100%,80%,80%);fill-opacity:1;" d="M 93.699219 129.539062 L 95.914062 131.753906 L 93.699219 129.539062 M 120.269531 129.539062 L 122.484375 131.753906 Z M 120.269531 129.539062 "/>
<path style=" stroke:none;fill-rule:nonzero;fill:rgb(80%,80%,100%);fill-opacity:1;" d="M 91.488281 131.753906 L 93.699219 133.96875 Z M 91.488281 131.753906 "/>
<path style=" stroke:none;fill-rule:nonzero;fill:rgb(80%,20%,20%);fill-opacity:1;" d="M 96.652344 133.230469 L 97.390625 134.707031 L 96.652344 133.230469 M 118.792969 133.230469 L 119.53125 134.707031 Z M 118.792969 133.230469 "/>
<path style=" stroke:none;fill-rule:nonzero;fill:rgb(80%,80%,100%);fill-opacity:1;" d="M 122.484375 131.753906 L 124.699219 133.96875 Z M 122.484375 131.753906 "/>
<path style=" stroke:none;fill-rule:nonzero;fill:rgb(60%,80%,80%);fill-opacity:1;" d="M 91.488281 133.96875 L 93.699219 136.183594 L 91.488281 133.96875 M 122.484375 133.96875 L 124.699219 136.183594 Z M 122.484375 133.96875 "/>
<path style=" stroke:none;fill-rule:nonzero;fill:rgb(100%,80%,80%);fill-opacity:1;" d="M 95.914062 136.183594 L 98.128906 138.394531 L 95.914062 136.183594 M 118.054688 136.183594 L 120.269531 138.394531 Z M 118.054688 136.183594 "/>
<path style=" stroke:none;fill-rule:nonzero;fill:rgb(80%,100%,100%);fill-opacity:1;" d="M 93.699219 138.394531 L 95.914062 140.609375 Z M 93.699219 138.394531 "/>
<path style=" stroke:none;fill-rule:nonzero;fill:rgb(80%,20%,20%);fill-opacity:1;" d="M 98.867188 139.871094 L 99.605469 141.347656 L 98.867188 139.871094 M 116.578125 139.871094 L 117.316406 141.347656 Z M 116.578125 139.871094 "/>
<path style=" stroke:none;fill-rule:nonzero;fill:rgb(80%,100%,100%);fill-opacity:1;" d="M 120.269531 138.394531 L 122.484375 140.609375 Z M 120.269531 138.394531 "/>
<path style=" stroke:none;fill-rule:nonzero;fill:rgb(60%,80%,80%);fill-opacity:1;" d="M 93.699219 140.609375 L 95.914062 142.824219 L 93.699219 140.609375 M 120.269531 140.609375 L 122.484375 142.824219 Z M 120.269531 140.609375 "/>
<path style=" stroke:none;fill-rule:nonzero;fill:rgb(40%,60%,80%);fill-opacity:1;" d="M 93.699219 142.824219 L 95.914062 145.039062 Z M 93.699219 142.824219 "/>
<path style=" stroke:none;fill-rule:nonzero;fill:rgb(100%,80%,80%);fill-opacity:1;" d="M 98.128906 142.824219 L 100.34375 145.039062 L 98.128906 142.824219 M 115.839844 142.824219 L 118.054688 145.039062 Z M 115.839844 142.824219 "/>
<path style=" stroke:none;fill-rule:nonzero;fill:rgb(40%,60%,80%);fill-opacity:1;" d="M 120.269531 142.824219 L 122.484375 145.039062 Z M 120.269531 142.824219 "/>
<path style=" stroke:none;fill-rule:nonzero;fill:rgb(80%,100%,100%);fill-opacity:1;" d="M 95.914062 145.039062 L 98.128906 147.253906 Z M 95.914062 145.039062 "/>
<path style=" stroke:none;fill-rule:nonzero;fill:rgb(80%,100%,100%);fill-opacity:1;" d="M 118.054688 145.039062 L 120.269531 147.253906 Z M 118.054688 145.039062 "/>
<path style=" stroke:none;fill-rule:nonzero;fill:rgb(60%,80%,80%);fill-opacity:1;" d="M 95.914062 147.253906 L 98.128906 149.464844 L 95.914062 147.253906 M 118.054688 147.253906 L 120.269531 149.464844 Z M 118.054688 147.253906 "/>
<path style=" stroke:none;fill-rule:nonzero;fill:rgb(40%,60%,80%);fill-opacity:1;" d="M 95.914062 149.464844 L 98.128906 151.679688 L 95.914062 149.464844 M 118.054688 149.464844 L 120.269531 151.679688 Z M 118.054688 149.464844 "/>
<path style=" stroke:none;fill-rule:nonzero;fill:rgb(100%,80%,80%);fill-opacity:1;" d="M 100.34375 151.679688 L 102.558594 153.894531 L 100.34375 151.679688 M 113.628906 151.679688 L 115.839844 153.894531 Z M 113.628906 151.679688 "/>
<path style=" stroke:none;fill-rule:nonzero;fill:rgb(60%,80%,100%);fill-opacity:1;" d="M 98.128906 153.894531 L 100.34375 156.109375 Z M 98.128906 153.894531 "/>
<path style=" stroke:none;fill-rule:nonzero;fill:rgb(80%,20%,20%);fill-opacity:1;" d="M 103.292969 155.371094 L 104.03125 156.847656 L 103.292969 155.371094 M 112.152344 155.371094 L 112.890625 156.847656 Z M 112.152344 155.371094 "/>
<path style=" stroke:none;fill-rule:nonzero;fill:rgb(60%,80%,100%);fill-opacity:1;" d="M 115.839844 153.894531 L 118.054688 156.109375 Z M 115.839844 153.894531 "/>
<path style=" stroke:none;fill-rule:nonzero;fill:rgb(40%,60%,80%);fill-opacity:1;" d="M 98.128906 156.109375 L 100.34375 158.324219 L 98.128906 156.109375 M 115.839844 156.109375 L 118.054688 158.324219 Z M 115.839844 156.109375 "/>
<path style=" stroke:none;fill-rule:nonzero;fill:rgb(100%,80%,80%);fill-opacity:1;" d="M 102.558594 158.324219 L 104.769531 160.535156 L 102.558594 158.324219 M 111.414062 158.324219 L 113.628906 160.535156 Z M 111.414062 158.324219 "/>
<path style=" stroke:none;fill-rule:nonzero;fill:rgb(60%,80%,100%);fill-opacity:1;" d="M 100.34375 160.535156 L 102.558594 162.75 Z M 100.34375 160.535156 "/>
<path style=" stroke:none;fill-rule:nonzero;fill:rgb(60%,80%,100%);fill-opacity:1;" d="M 113.628906 160.535156 L 115.839844 162.75 Z M 113.628906 160.535156 "/>
<path style=" stroke:none;fill-rule:nonzero;fill:rgb(40%,80%,80%);fill-opacity:1;" d="M 100.34375 162.75 L 102.558594 164.964844 L 100.34375 162.75 M 113.628906 162.75 L 115.839844 164.964844 Z M 113.628906 162.75 "/>
<path style=" stroke:none;fill-rule:nonzero;fill:rgb(100%,80%,80%);fill-opacity:1;" d="M 104.769531 164.964844 L 106.984375 167.179688 L 104.769531 164.964844 M 109.199219 164.964844 L 111.414062 167.179688 Z M 109.199219 164.964844 "/>
<path style=" stroke:none;fill-rule:nonzero;fill:rgb(80%,80%,100%);fill-opacity:1;" d="M 102.558594 167.179688 L 104.769531 169.394531 L 102.558594 167.179688 M 111.414062 167.179688 L 113.628906 169.394531 Z M 111.414062 167.179688 "/>
<path style=" stroke:none;fill-rule:nonzero;fill:rgb(40%,80%,80%);fill-opacity:1;" d="M 102.558594 169.394531 L 104.769531 171.605469 Z M 102.558594 169.394531 "/>
<path style=" stroke:none;fill-rule:nonzero;fill:rgb(80%,40%,40%);fill-opacity:1;" d="M 106.984375 169.394531 L 109.199219 171.605469 Z M 106.984375 169.394531 "/>
<path style=" stroke:none;fill-rule:nonzero;fill:rgb(40%,80%,80%);fill-opacity:1;" d="M 111.414062 169.394531 L 113.628906 171.605469 Z M 111.414062 169.394531 "/>
<path style=" stroke:none;fill-rule:nonzero;fill:rgb(80%,80%,100%);fill-opacity:1;" d="M 104.769531 173.820312 L 106.984375 176.035156 L 104.769531 173.820312 M 109.199219 173.820312 L 111.414062 176.035156 Z M 109.199219 173.820312 "/>
<path style=" stroke:none;fill-rule:nonzero;fill:rgb(60%,80%,80%);fill-opacity:1;" d="M 104.769531 176.035156 L 106.984375 178.25 L 104.769531 176.035156 M 109.199219 176.035156 L 111.414062 178.25 L 109.199219 176.035156 M 106.984375 180.464844 L 109.199219 182.675781 Z M 106.984375 180.464844 "/>
</g>
</svg>
