<?xml version="1.0" encoding="UTF-8"?>
<svg xmlns="http://www.w3.org/2000/svg" xmlns:xlink="http://www.w3.org/1999/xlink" width="480pt" height="360pt" viewBox="0 0 480 360" version="1.1">
<defs>
<filter id="alpha" filterUnits="objectBoundingBox" x="0%" y="0%" width="100%" height="100%">
  <feColorMatrix type="matrix" in="SourceGraphic" values="0 0 0 0 1 0 0 0 0 1 0 0 0 0 1 0 0 0 1 0"/>
</filter>
<mask id="mask0">
  <g filter="url(#alpha)">
<rect x="0" y="0" width="480" height="360" style="fill:rgb(0%,0%,0%);fill-opacity:0.988235;stroke:none;"/>
  </g>
</mask>
<clipPath id="clip1">
  <rect width="480" height="360"/>
</clipPath>
<g id="surface6" clip-path="url(#clip1)">
<path style="fill-rule:evenodd;fill:rgb(81.176471%,6.666667%,14.901961%);fill-opacity:1;stroke-width:2.5;stroke-linecap:butt;stroke-linejoin:bevel;stroke:rgb(0%,0%,0%);stroke-opacity:1;stroke-miterlimit:4;" d="M 457.886596 1168.696632 C 460.699361 1170.578973 471.928446 1172.549206 492.262393 1169.011576 C 527.780877 1162.793258 527.480555 1127.761201 582.798267 1144.006466 C 580.293149 1139.011304 571.547207 1123.703547 549.982675 1123.080983 C 552.172823 1115.888535 553.733029 1105.268321 549.667704 1098.698437 C 545.499831 1107.970982 539.053911 1112.277662 534.373295 1115.309916 C 532.930288 1114.533542 524.572566 1107.699984 523.671603 1097.409363 C 522.411718 1077.011228 512.457167 1073.40768 511.40238 1073.949677 C 505.007735 1073.76657 466.529988 1134.602084 384.132088 1134.997595 C 302.942798 1135.393107 262.311528 1074.491674 257.71881 1073.949677 C 256.664023 1073.40768 246.709472 1077.011228 245.449588 1097.409363 C 244.548624 1107.699984 236.088354 1114.233246 234.667322 1115.141458 C 230.00868 1112.241041 223.614034 1107.970982 219.453486 1098.698437 C 215.388162 1105.268321 216.948367 1115.888535 219.138515 1123.080983 C 197.573983 1123.703547 188.828042 1139.011304 186.322923 1144.006466 C 241.640635 1127.761201 241.750509 1162.793258 277.261667 1169.011576 C 297.602939 1172.549206 308.150808 1170.886593 310.963573 1169.018901 " transform="matrix(0.533283,0,0,0.533328,34.465262,-311.396859)"/>
</g>
<mask id="mask1">
  <g filter="url(#alpha)">
<rect x="0" y="0" width="480" height="360" style="fill:rgb(0%,0%,0%);fill-opacity:0.988235;stroke:none;"/>
  </g>
</mask>
<clipPath id="clip2">
  <rect width="480" height="360"/>
</clipPath>
<g id="surface9" clip-path="url(#clip2)">
<path style="fill-rule:evenodd;fill:rgb(81.176471%,6.666667%,14.901961%);fill-opacity:1;stroke-width:2.5;stroke-linecap:butt;stroke-linejoin:bevel;stroke:rgb(0%,0%,0%);stroke-opacity:1;stroke-miterlimit:4;" d="M 286.27863 1151.198914 C 267.01412 1150.429864 229.430012 1121.132723 234.762546 1115.097512 C 236.461925 1113.390953 244.739072 1115.148782 259.073918 1125.183053 C 280.345454 1139.677814 298.606452 1185.403327 383.95629 1185.051761 C 470.932259 1184.700196 488.783062 1139.677814 510.054597 1125.183053 C 524.389444 1115.148782 533.333158 1113.552088 534.343995 1115.507672 C 539.464106 1121.286533 501.843374 1150.517756 482.578864 1151.286806 " transform="matrix(0.533283,0,0,0.533328,34.465262,-311.396859)"/>
</g>
</defs>
<g id="surface1">
<path style=" stroke:none;fill-rule:evenodd;fill:rgb(100%,100%,100%);fill-opacity:1;" d="M -120.164062 24.855469 L -120.074219 110.484375 L 599.929688 259.996094 L 599.929688 174.984375 L -120.160156 24.855469 Z M -120.164062 24.855469 "/>
<path style=" stroke:none;fill-rule:evenodd;fill:rgb(99.215686%,81.960784%,7.843137%);fill-opacity:1;" d="M -120.074219 184.988281 L -120.074219 360 L 599.929688 360 L 599.929688 335.007812 L -120.074219 184.984375 Z M -120.074219 184.988281 "/>
<path style=" stroke:none;fill-rule:evenodd;fill:rgb(99.215686%,81.960784%,7.843137%);fill-opacity:1;" d="M 599.929688 175.007812 L 599.929688 -0.00390625 L -120.074219 -0.00390625 L -120.074219 24.988281 Z M 599.929688 175.007812 "/>
<path style=" stroke:none;fill-rule:evenodd;fill:rgb(0%,0%,0%);fill-opacity:1;" d="M -120.074219 110.035156 L -120.074219 185.039062 L 600.160156 335.007812 L 599.929688 259.996094 Z M -120.074219 110.035156 "/>
<path style="fill-rule:evenodd;fill:rgb(81.176471%,6.666667%,14.901961%);fill-opacity:1;stroke-width:1.5623;stroke-linecap:butt;stroke-linejoin:miter;stroke:rgb(0%,0%,0%);stroke-opacity:1;stroke-miterlimit:4;" d="M 274.569589 617.610881 L 284.109267 617.610881 L 284.109267 643.068677 L 274.569589 643.068677 Z M 274.569589 617.610881 " transform="matrix(0.853344,0,0,0.853435,1.213387,-384.856082)"/>
<path style="fill-rule:evenodd;fill:rgb(81.176471%,6.666667%,14.901961%);fill-opacity:1;stroke-width:3.2074;stroke-linecap:butt;stroke-linejoin:miter;stroke:rgb(0%,0%,0%);stroke-opacity:1;stroke-miterlimit:4;" d="M 415.123796 645.679583 C 414.882702 612.109847 416.2489 579.83227 418.890888 570.681682 C 421.52283 561.522304 425.440606 559.614832 430.302666 555.070304 C 418.790432 554.024272 406.082774 563.719851 400.246292 576.474417 C 396.539473 562.076086 389.597978 552.318975 383.500311 547.422839 C 377.402644 552.318975 370.210009 562.234309 366.93515 576.60627 C 360.927894 565.891028 350.380035 554.015481 337.903425 555.35159 C 342.343571 559.97523 346.39194 561.680527 349.084155 570.637731 C 351.786416 579.586144 353.132524 611.652757 352.158103 645.240074 " transform="matrix(0.388853,0,0,0.444387,90.390522,-87.349862)"/>
<path style="fill-rule:evenodd;fill:rgb(81.176471%,6.666667%,14.901961%);fill-opacity:1;stroke-width:2.8036;stroke-linecap:butt;stroke-linejoin:miter;stroke:rgb(0%,0%,0%);stroke-opacity:1;stroke-miterlimit:4;" d="M 414.44403 641.960885 C 414.1953 608.393685 415.807437 579.741081 418.119703 570.62967 C 420.422756 561.525583 424.107641 559.826349 429.377026 555.885884 C 417.861761 554.845835 406.890016 557.643712 400.469103 573.24444 C 396.885553 558.742355 389.83821 551.615825 383.730513 546.715878 C 377.632029 551.615825 370.446503 558.991381 367.166955 573.368953 C 360.1104 557.892738 350.262545 554.428351 337.789209 555.761371 C 342.975685 560.075375 347.047483 561.686718 349.590054 570.615022 C 352.123412 579.543325 352.44584 607.932255 351.478557 641.514104 " transform="matrix(0.42403,0,0,0.533328,76.806468,-105.465869)"/>
<path style="fill-rule:evenodd;fill:rgb(81.176471%,6.666667%,14.901961%);fill-opacity:1;stroke-width:2.5;stroke-linecap:butt;stroke-linejoin:miter;stroke:rgb(0%,0%,0%);stroke-opacity:1;stroke-miterlimit:4;" d="M 417.502129 590.82829 C 417.187158 583.020602 418.256595 572.524901 420.036548 568.474571 C 421.809176 564.416917 424.29232 561.457906 426.790114 558.022816 C 416.066447 556.477392 405.166983 557.261091 399.37298 572.986331 C 395.622626 558.616083 389.997096 551.116015 383.902772 546.216068 C 377.801123 551.116015 372.505214 558.616083 368.754861 572.986331 C 362.968183 557.261091 352.010119 556.308933 340.956831 558.022816 C 343.454625 561.457906 346.032993 564.416917 347.900845 568.474571 C 349.776022 572.524901 350.940682 583.020602 350.625711 590.82829 " transform="matrix(0.533283,0,0,0.533328,34.837553,-68.281337)"/>
<path style="fill-rule:evenodd;fill:rgb(81.176471%,6.666667%,14.901961%);fill-opacity:1;stroke-width:2.5;stroke-linecap:butt;stroke-linejoin:miter;stroke:rgb(0%,0%,0%);stroke-opacity:1;stroke-miterlimit:4;" d="M 378.953377 610.771041 L 378.953377 642.983248 L 390.321636 642.983248 L 390.321636 610.771041 Z M 378.953377 610.771041 " transform="matrix(0.533283,0,0,0.533328,34.465262,-225.733781)"/>
<use xlink:href="#surface6" mask="url(#mask0)"/>
<use xlink:href="#surface9" mask="url(#mask1)"/>
<path style="fill-rule:evenodd;fill:rgb(81.176471%,6.666667%,14.901961%);fill-opacity:1;stroke-width:2.5;stroke-linecap:butt;stroke-linejoin:miter;stroke:rgb(0%,0%,0%);stroke-opacity:1;stroke-miterlimit:4;" d="M 259.203523 399.53993 C 183.090395 479.726206 224.02931 663.902685 382.218043 666.561401 C 541.256465 668.341202 587.652438 482.29703 508.631321 399.188364 M 274.607806 402.293861 C 234.123035 470.468309 276.211961 589.934727 384.488765 589.934727 C 493.659207 589.934727 533.66786 469.604043 493.571308 401.883701 " transform="matrix(0.533283,0,0,0.533328,34.837553,-68.281337)"/>
<path style="fill-rule:evenodd;fill:rgb(99.215686%,81.960784%,7.843137%);fill-opacity:1;stroke-width:0.22025;stroke-linecap:butt;stroke-linejoin:miter;stroke:rgb(81.176471%,6.666667%,14.901961%);stroke-opacity:1;stroke-miterlimit:4;" d="M 512.188713 379.899301 C 515.440964 380.622023 518.404986 383.97752 517.209053 387.427659 C 515.884062 391.540293 510.988478 392.538339 509.138653 392.237204 C 507.151166 391.045573 508.342798 389.320503 514.447221 388.658008 C 518.426496 387.195355 514.799978 384.506656 511.792937 383.21608 C 510.158207 382.514867 510.665834 379.559449 512.188713 379.899301 Z M 512.188713 379.899301 " transform="matrix(0.908025,0,0,0.908025,-210.42,-45.20025)"/>
<path style="fill-rule:evenodd;fill:rgb(99.215686%,81.960784%,7.843137%);fill-opacity:1;stroke-width:0.22025;stroke-linecap:butt;stroke-linejoin:miter;stroke:rgb(81.176471%,6.666667%,14.901961%);stroke-opacity:1;stroke-miterlimit:4;" d="M 502.109317 378.841029 C 503.61929 377.120261 504.849639 382.390112 505.185189 386.042441 C 505.623985 389.613034 505.671306 394.009595 504.234465 394.228993 C 503.356873 394.375258 504.092502 390.133566 503.184797 386.240329 C 502.001769 381.731918 501.494143 379.593864 502.109317 378.841029 Z M 502.109317 378.841029 " transform="matrix(0.908025,0,0,0.908025,-210.42,-45.20025)"/>
<path style="fill-rule:evenodd;fill:rgb(99.215686%,81.960784%,7.843137%);fill-opacity:1;stroke-width:0.22025;stroke-linecap:butt;stroke-linejoin:miter;stroke:rgb(79.607843%,30.980392%,27.45098%);stroke-opacity:1;stroke-miterlimit:4;" d="M 498.64197 385.341228 C 502.431961 389.015067 496.004894 399.666618 481.946223 395.024848 C 481.150368 393.566497 487.530113 395.00764 492.025619 394.228993 C 500.586438 392.87819 496.912599 383.710801 498.64197 385.341228 Z M 498.64197 385.341228 " transform="matrix(0.908025,0,0,0.908025,-210.42,-45.20025)"/>
<path style="fill-rule:evenodd;fill:rgb(99.215686%,81.960784%,7.843137%);fill-opacity:1;stroke-width:0.22025;stroke-linecap:butt;stroke-linejoin:miter;stroke:rgb(81.176471%,6.666667%,14.901961%);stroke-opacity:1;stroke-miterlimit:4;" d="M 491.7589 378.040872 C 493.273175 376.320104 492.391282 381.762032 492.705322 385.418663 C 493.01506 388.855896 492.627887 393.033059 491.001762 392.49532 C 490.115567 392.06943 491.565313 388.210608 490.657609 384.58409 C 489.685375 380.024056 490.614589 379.193786 491.7589 378.040872 Z M 491.7589 378.040872 " transform="matrix(0.908025,0,0,0.908025,-210.42,-45.20025)"/>
<path style="fill-rule:evenodd;fill:rgb(99.215686%,81.960784%,7.843137%);fill-opacity:1;stroke-width:0.22025;stroke-linecap:butt;stroke-linejoin:miter;stroke:rgb(81.176471%,6.666667%,14.901961%);stroke-opacity:1;stroke-miterlimit:4;" d="M 482.109695 376.578219 C 484.794093 376.561012 484.075672 377.318149 483.882086 384.485146 C 483.671292 392.516829 476.891468 393.41593 475.278248 391.209046 C 473.923144 389.479674 474.417864 388.959142 468.35646 389.539901 C 467.001356 388.855896 467.052979 387.406149 462.626304 387.776114 C 461.481994 387.986908 461.516409 385.814439 459.451488 384.51526 C 455.850782 382.3643 454.650547 386.102668 447.784684 382.144902 C 447.354492 381.908297 444.566848 380.140208 445.074475 376.651352 C 445.607913 372.237583 441.585619 377.189092 437.163246 375.266134 C 436.307164 374.883263 433.717409 373.803481 431.43309 371.798787 C 428.202349 369.024049 431.583657 368.460498 435.941501 371.291161 C 438.634502 372.999023 442.587966 369.071371 442.695514 365.139417 C 442.936421 360.979461 440.867198 359.886773 444.07643 359.99002 C 445.866028 360.041643 445.440138 367.255961 442.398681 370.452287 C 438.329066 374.848848 441.077992 374.00137 442.527739 373.77767 C 444.042014 373.399101 450.93799 364.859792 452.086603 365.591118 C 453.876201 366.808561 446.713506 372.267696 448.318122 377.438603 C 449.083863 379.74013 453.351367 381.947014 456.866035 382.304073 C 461.000179 382.99238 461.013085 377.382678 462.686531 378.445252 C 465.005266 379.963829 458.255555 382.828908 465.340815 384.91964 C 466.906714 385.388549 467.810117 381.40067 468.735029 381.577049 C 470.959121 381.93841 467.285283 386.227424 471.260256 386.911429 C 474.030692 387.371734 473.269252 382.90204 474.99002 383.177363 C 476.977506 383.048305 475.110473 390.32285 480.621232 389.58292 C 482.944268 389.277484 479.309146 376.595427 482.109695 376.578219 Z M 482.109695 376.578219 " transform="matrix(0.908025,0,0,0.908025,-210.42,-45.20025)"/>
<path style="fill-rule:evenodd;fill:rgb(99.215686%,81.960784%,7.843137%);fill-opacity:1;stroke-width:0.22025;stroke-linecap:butt;stroke-linejoin:miter;stroke:rgb(81.176471%,6.666667%,14.901961%);stroke-opacity:1;stroke-miterlimit:4;" d="M 432.160114 367.139809 C 433.756126 366.799957 436.492146 365.315795 436.603996 362.923928 C 436.831998 360.30406 433.183971 359.392053 428.85624 360.076058 C 426.576223 360.41591 422.700194 358.936049 420.420177 356.995884 C 418.144462 354.148014 418.144462 350.95599 415.408441 352.324 C 413.356426 353.236007 418.256312 358.480046 420.648179 359.731904 C 423.044348 360.988065 426.920377 360.871913 427.144076 362.695927 C 427.372078 364.51994 426.23207 367.367811 432.160114 367.139809 Z M 432.160114 367.139809 " transform="matrix(0.908025,0,0,0.908025,-210.42,-45.20025)"/>
<path style="fill-rule:evenodd;fill:rgb(99.215686%,81.960784%,7.843137%);fill-opacity:1;stroke-width:0.22025;stroke-linecap:butt;stroke-linejoin:miter;stroke:rgb(81.176471%,6.666667%,14.901961%);stroke-opacity:1;stroke-miterlimit:4;" d="M 529.138274 379.370165 C 528.260683 379.796055 527.546564 387.758907 532.519582 387.930983 C 538.765969 388.154683 541.90637 384.988471 543.472268 383.861368 C 546.070627 381.886787 550.755417 377.937626 548.58725 374.534808 C 547.503166 373.295855 546.900898 376.806221 545.653341 378.862538 C 543.949781 381.873882 538.124983 385.448776 533.659591 384.962659 C 528.191852 384.62711 530.252471 379.086238 529.138274 379.370165 Z M 529.138274 379.370165 " transform="matrix(0.908025,0,0,0.908025,-210.42,-45.20025)"/>
<path style="fill-rule:evenodd;fill:rgb(99.215686%,81.960784%,7.843137%);fill-opacity:1;stroke-width:0.22025;stroke-linecap:butt;stroke-linejoin:miter;stroke:rgb(81.176471%,6.666667%,14.901961%);stroke-opacity:1;stroke-miterlimit:4;" d="M 541.979502 375.679118 C 540.710436 374.71979 544.805863 373.145288 545.231753 371.661126 C 545.653341 370.172662 543.420645 368.770236 544.6639 367.144111 C 545.967381 364.997453 546.036212 371.183613 547.692451 371.364293 C 552.278296 371.841806 549.004536 374.801527 547.275165 374.229371 C 545.317791 373.648612 542.745244 376.401841 541.979502 375.679118 Z M 541.979502 375.679118 " transform="matrix(0.908025,0,0,0.908025,-210.42,-45.20025)"/>
<path style="fill-rule:evenodd;fill:rgb(99.215686%,81.960784%,7.843137%);fill-opacity:1;stroke-width:0.22025;stroke-linecap:butt;stroke-linejoin:miter;stroke:rgb(81.176471%,6.666667%,14.901961%);stroke-opacity:1;stroke-miterlimit:4;" d="M 538.430419 366.309539 C 538.133587 368.37446 539.389747 368.89069 539.759712 367.711964 C 540.20281 365.496476 538.946649 364.464015 538.430419 366.309539 Z M 538.430419 366.309539 " transform="matrix(0.908025,0,0,0.908025,-210.42,-45.20025)"/>
<path style="fill-rule:evenodd;fill:rgb(99.215686%,81.960784%,7.843137%);fill-opacity:1;stroke-width:0.22025;stroke-linecap:butt;stroke-linejoin:miter;stroke:rgb(81.176471%,6.666667%,14.901961%);stroke-opacity:1;stroke-miterlimit:4;" d="M 541.751501 364.171485 C 541.01157 364.22741 540.908324 366.791353 541.871954 366.860184 C 542.908717 366.941921 542.426902 368.692802 543.300191 368.671292 C 544.336954 368.641179 544.414388 365.737383 543.239964 365.70727 C 542.151579 365.681458 542.409694 364.180089 541.751501 364.171485 Z M 541.751501 364.171485 " transform="matrix(0.908025,0,0,0.908025,-210.42,-45.20025)"/>
<path style="fill-rule:evenodd;fill:rgb(99.215686%,81.960784%,7.843137%);fill-opacity:1;stroke-width:0.22025;stroke-linecap:butt;stroke-linejoin:miter;stroke:rgb(81.176471%,6.666667%,14.901961%);stroke-opacity:1;stroke-miterlimit:4;" d="M 550.049902 363.681066 C 549.172311 364.790961 547.507468 359.404959 553.108567 358.630613 C 555.771455 358.867219 558.042868 363.250874 557.810564 367.483962 C 557.720224 369.045559 557.651393 372.573133 556.791009 374.2939 C 556.085495 375.941535 553.500041 381.344745 552.248183 380.875836 C 550.996324 380.406927 552.575129 378.144118 554.678767 374.999415 C 556.373723 372.426867 557.027615 365.289984 556.162929 364.038125 C 555.302545 362.781965 554.43786 367.169922 552.639657 368.107741 C 551.146892 368.89069 549.585295 366.627881 549.352991 365.530891 C 549.168009 364.231712 550.351037 363.431555 551.151194 364.975944 C 551.792179 366.137462 553.758156 363.831633 553.715137 362.1883 C 553.76676 359.525412 551.998672 361.637655 550.049902 363.681066 Z M 550.049902 363.681066 " transform="matrix(0.908025,0,0,0.908025,-210.42,-45.20025)"/>
<path style="fill-rule:evenodd;fill:rgb(99.215686%,81.960784%,7.843137%);fill-opacity:1;stroke-width:0.22025;stroke-linecap:butt;stroke-linejoin:miter;stroke:rgb(81.176471%,6.666667%,14.901961%);stroke-opacity:1;stroke-miterlimit:4;" d="M 562.121087 351.661504 C 561.415572 352.681059 558.98929 354.94817 558.516079 355.890291 C 558.04717 356.828109 557.969735 358.475744 558.752684 360.041643 C 559.535634 361.607541 561.178967 364.111258 560.864927 366.386973 C 560.550887 368.654084 558.984988 373.356082 559.849674 372.964607 C 560.710058 372.573133 562.826602 367.952872 562.353391 364.425298 C 561.884481 360.902026 560.241148 358.944653 560.550887 357.770229 C 560.864927 356.595805 562.8223 354.401827 563.218076 352.913363 C 563.609551 351.424899 562.981471 347.432718 562.435127 347.118678 C 561.884481 346.804638 559.927108 347.510153 560.550887 348.839445 C 561.178967 350.17304 562.512562 349.390091 562.121087 351.661504 Z M 562.121087 351.661504 " transform="matrix(0.908025,0,0,0.908025,-210.42,-45.20025)"/>
<path style="fill-rule:evenodd;fill:rgb(99.215686%,81.960784%,7.843137%);fill-opacity:1;stroke-width:0.20734;stroke-linecap:butt;stroke-linejoin:miter;stroke:rgb(81.176471%,6.666667%,14.901961%);stroke-opacity:1;stroke-miterlimit:4;" d="M 565.338922 353.481216 C 564.461331 354.281373 564.900127 358.643519 566.108966 357.086224 C 567.205955 355.567647 566.044437 352.767098 565.338922 353.481216 Z M 565.338922 353.481216 " transform="matrix(0.908025,0,0,0.908025,-210.42,-45.20025)"/>
<path style="fill-rule:evenodd;fill:rgb(99.215686%,81.960784%,7.843137%);fill-opacity:1;stroke-width:0.25044;stroke-linecap:butt;stroke-linejoin:miter;stroke:rgb(81.176471%,6.666667%,14.901961%);stroke-opacity:1;stroke-miterlimit:4;" d="M 542.319354 385.878968 C 541.90637 387.78902 543.79061 388.395591 544.30684 387.302903 C 544.922015 385.25519 543.042076 384.175408 542.319354 385.878968 Z M 542.319354 385.878968 " transform="matrix(0.908025,0,0,0.908025,-210.42,-45.20025)"/>
<path style="fill-rule:evenodd;fill:rgb(99.215686%,81.960784%,7.843137%);fill-opacity:1;stroke-width:0.27617;stroke-linecap:butt;stroke-linejoin:miter;stroke:rgb(81.176471%,6.666667%,14.901961%);stroke-opacity:1;stroke-miterlimit:4;" d="M 545.20164 384.261447 C 544.590767 385.827345 547.313882 385.965006 548.079623 385.070207 C 548.995932 383.388157 546.268515 382.859021 545.20164 384.261447 Z M 545.20164 384.261447 " transform="matrix(0.908025,0,0,0.908025,-210.42,-45.20025)"/>
<path style="fill-rule:evenodd;fill:rgb(81.176471%,6.666667%,14.901961%);fill-opacity:1;stroke-width:0.22025;stroke-linecap:butt;stroke-linejoin:miter;stroke:rgb(81.176471%,6.666667%,14.901961%);stroke-opacity:1;stroke-miterlimit:4;" d="M 431.820262 361.67207 C 430.361912 361.018178 430.452252 363.947785 431.136257 364.747942 C 431.820262 365.543797 435.795236 363.500385 431.820262 361.67207 Z M 431.820262 361.67207 " transform="matrix(0.908025,0,0,0.908025,-210.42,-45.20025)"/>
<path style="fill-rule:evenodd;fill:rgb(81.176471%,6.666667%,14.901961%);fill-opacity:1;stroke-width:2.5;stroke-linecap:round;stroke-linejoin:miter;stroke:rgb(0%,0%,0%);stroke-opacity:1;stroke-miterlimit:4;" d="M 385.648344 680.278509 C 360.707029 685.273671 343.574067 699.892945 351.609493 704.866134 C 356.524506 708.147414 379.619944 699.138543 384.491009 691.491989 C 393.354148 705.019944 417.394499 710.117647 423.195827 707.085393 " transform="matrix(0.533283,0,0,0.533328,34.465262,-225.733781)"/>
<path style=" stroke:none;fill-rule:evenodd;fill:rgb(81.176471%,6.666667%,14.901961%);fill-opacity:1;" d="M 171.128906 132.8125 C 173.335938 136.222656 184.777344 144.453125 193.003906 145.054688 C 201.234375 145.65625 219.894531 149.472656 223.507812 147.863281 C 227.121094 146.257812 237.355469 139.234375 239.964844 140.4375 C 242.574219 141.644531 257.824219 150.074219 263.445312 149.871094 C 269.066406 149.671875 305.386719 139.4375 306.59375 137.429688 C 307.796875 135.421875 299.367188 130.203125 293.949219 130.203125 C 288.53125 130.203125 171.128906 133.011719 171.128906 132.8125 Z M 171.128906 132.8125 "/>
<path style="fill-rule:evenodd;fill:rgb(81.176471%,6.666667%,14.901961%);fill-opacity:1;stroke-width:2.5;stroke-linecap:round;stroke-linejoin:miter;stroke:rgb(0%,0%,0%);stroke-opacity:1;stroke-miterlimit:4;" d="M 316.200883 703.328035 C 316.325406 707.173284 319.277345 709.956513 326.375181 710.029756 C 338.285483 710.278781 358.428983 704.646406 370.463808 691.125775 " transform="matrix(0.533283,0,0,0.533328,34.465262,-225.733781)"/>
<path style="fill-rule:evenodd;fill:rgb(81.176471%,6.666667%,14.901961%);fill-opacity:1;stroke-width:2.5;stroke-linecap:round;stroke-linejoin:miter;stroke:rgb(0%,0%,0%);stroke-opacity:1;stroke-miterlimit:4;" d="M 280.469977 697.622416 C 279.84736 700.845102 285.187219 705.06389 295.603239 705.188403 C 306.026584 705.312916 342.380107 700.845102 354.041362 688.686788 " transform="matrix(0.533283,0,0,0.533328,34.465262,-225.733781)"/>
<path style="fill-rule:evenodd;fill:rgb(81.176471%,6.666667%,14.901961%);fill-opacity:1;stroke-width:2.5;stroke-linecap:round;stroke-linejoin:miter;stroke:rgb(0%,0%,0%);stroke-opacity:1;stroke-miterlimit:4;" d="M 255.858283 687.85182 C 250.276703 695.044268 268.061582 697.622416 278.733974 697.497903 C 289.406366 697.373391 316.940699 697.234229 329.26852 688.049575 " transform="matrix(0.533283,0,0,0.533328,34.465262,-225.733781)"/>
<path style="fill-rule:evenodd;fill:rgb(81.176471%,6.666667%,14.901961%);fill-opacity:1;stroke-width:2.5;stroke-linecap:round;stroke-linejoin:miter;stroke:rgb(0%,0%,0%);stroke-opacity:1;stroke-miterlimit:4;" d="M 236.366701 675.781397 C 231.034167 682.849333 248.958219 689.060327 270.793773 688.5696 C 290.893323 688.071548 311.366443 681.120801 311.366443 681.120801 " transform="matrix(0.533283,0,0,0.533328,34.465262,-225.733781)"/>
<path style="fill-rule:evenodd;fill:rgb(81.176471%,6.666667%,14.901961%);fill-opacity:1;stroke-width:2.5;stroke-linecap:round;stroke-linejoin:miter;stroke:rgb(0%,0%,0%);stroke-opacity:1;stroke-miterlimit:4;" d="M 452.480813 703.328035 C 452.35629 707.173284 449.397026 709.956513 442.306515 710.029756 C 430.396213 710.278781 410.252713 704.646406 398.217888 691.125775 " transform="matrix(0.533283,0,0,0.533328,34.465262,-225.733781)"/>
<path style="fill-rule:evenodd;fill:rgb(81.176471%,6.666667%,14.901961%);fill-opacity:1;stroke-width:2.5;stroke-linecap:round;stroke-linejoin:miter;stroke:rgb(0%,0%,0%);stroke-opacity:1;stroke-miterlimit:4;" d="M 488.211719 697.622416 C 488.827011 700.845102 483.494477 705.06389 473.071132 705.188403 C 462.655112 705.312916 426.301589 700.845102 414.640334 688.686788 " transform="matrix(0.533283,0,0,0.533328,34.465262,-225.733781)"/>
<path style="fill-rule:evenodd;fill:rgb(81.176471%,6.666667%,14.901961%);fill-opacity:1;stroke-width:2.5;stroke-linecap:round;stroke-linejoin:miter;stroke:rgb(0%,0%,0%);stroke-opacity:1;stroke-miterlimit:4;" d="M 512.662265 687.998305 C 518.243845 695.198078 500.612789 697.615092 489.940397 697.490579 C 479.27533 697.366066 451.733672 697.226905 439.405851 688.049575 " transform="matrix(0.533283,0,0,0.533328,34.465262,-225.733781)"/>
<path style="fill-rule:evenodd;fill:rgb(81.176471%,6.666667%,14.901961%);fill-opacity:1;stroke-width:2.5;stroke-linecap:round;stroke-linejoin:miter;stroke:rgb(0%,0%,0%);stroke-opacity:1;stroke-miterlimit:4;" d="M 532.373594 675.656885 C 537.706128 682.732144 519.716152 689.067651 497.880598 688.5696 C 477.788373 688.071548 457.315253 681.120801 457.315253 681.120801 " transform="matrix(0.533283,0,0,0.533328,34.465262,-225.733781)"/>
<path style="fill-rule:evenodd;fill:rgb(81.176471%,6.666667%,14.901961%);fill-opacity:1;stroke-width:2.5;stroke-linecap:round;stroke-linejoin:miter;stroke:rgb(0%,0%,0%);stroke-opacity:1;stroke-miterlimit:4;" d="M 279.210093 675.122212 C 251.477988 679.128596 238.703347 677.08512 233.165716 674.441053 C 226.251002 671.39415 214.406624 662.128929 231.898506 661.792012 C 243.486512 661.564959 249.331789 662.451198 262.509301 662.385279 C 296.211206 661.960471 344.870576 635.344018 359.615618 635.234154 C 373.320523 635.138938 376.953677 641.46712 384.76203 641.598958 C 392.760831 641.694173 395.353848 635.138938 409.051428 635.234154 C 423.803795 635.344018 472.45584 661.960471 506.16507 662.385279 C 519.335257 662.451198 525.180534 661.564959 536.76854 661.792012 C 554.260422 662.128929 542.416045 671.39415 535.501331 674.441053 C 529.971024 677.08512 517.196383 679.128596 489.456953 675.122212 " transform="matrix(0.533283,0,0,0.533328,34.465262,-225.733781)"/>
<path style="fill-rule:evenodd;fill:rgb(81.176471%,6.666667%,14.901961%);fill-opacity:1;stroke-width:2.5;stroke-linecap:butt;stroke-linejoin:miter;stroke:rgb(0%,0%,0%);stroke-opacity:1;stroke-miterlimit:4;" d="M 383.551177 280.29324 C 370.505514 280.945101 352.544837 278.718519 346.772809 293.264549 C 337.990243 309.91265 340.473387 328.787333 344.414188 329.182845 C 351.482725 329.959219 352.156617 310.337459 355.167155 310.308161 C 358.316865 310.27154 358.309541 327.344449 364.469789 327.219936 C 369.062507 327.088099 371.941196 310.044487 373.384203 310.176324 C 374.82721 310.308161 377.845073 326.560751 383.6464 326.560751 C 389.843273 326.560751 392.465591 310.308161 393.908598 310.176324 C 395.351605 310.044487 398.230294 327.088099 402.823012 327.219936 C 408.98326 327.344449 408.975935 310.27154 412.125646 310.308161 C 415.136184 310.337459 416.469317 329.827382 423.530529 329.051008 C 427.478655 328.655496 429.427081 309.91265 420.644515 293.264549 C 414.879812 278.718519 396.530915 280.945101 383.551177 280.29324 Z M 383.551177 280.29324 " transform="matrix(0.533283,0,0,0.533328,34.837553,-68.281337)"/>
<path style="fill-rule:evenodd;fill:rgb(81.176471%,6.666667%,14.901961%);fill-opacity:1;stroke-width:2.5;stroke-linecap:butt;stroke-linejoin:miter;stroke:rgb(0%,0%,0%);stroke-opacity:1;stroke-miterlimit:4;" d="M 352.222541 286.247884 C 355.723848 292.136609 383.053083 291.997448 384.598639 291.997448 C 386.136869 291.997448 409.964798 292.275771 415.568353 286.533531 " transform="matrix(0.533283,0,0,0.533328,34.837553,-68.281337)"/>
<path style="fill-rule:evenodd;fill:rgb(81.176471%,6.666667%,14.901961%);fill-opacity:1;stroke-width:2.5;stroke-linecap:butt;stroke-linejoin:miter;stroke:rgb(0%,0%,0%);stroke-opacity:1;stroke-miterlimit:4;" d="M 378.621513 224.863049 L 378.621513 282.893361 C 378.621513 282.893361 378.936484 286.130695 383.741624 286.24056 C 388.554089 286.3431 389.28658 283.515926 389.28658 283.098441 L 389.074158 224.753184 " transform="matrix(0.533283,0,0,0.533328,34.837553,-68.281337)"/>
<path style="fill-rule:evenodd;fill:rgb(81.176471%,6.666667%,14.901961%);fill-opacity:1;stroke-width:2.5;stroke-linecap:butt;stroke-linejoin:miter;stroke:rgb(0%,0%,0%);stroke-opacity:1;stroke-miterlimit:4;" d="M 384.247043 231.586742 C 406.111896 230.466127 412.631065 243.364193 418.798638 246.169395 C 424.966212 248.967272 427.771652 250.087887 436.180647 249.531242 C 444.589643 248.967272 421.604078 263.549924 421.604078 264.106569 L 430.013074 279.245867 C 422.160771 280.366483 407.298531 273.11544 401.423954 269.153002 C 394.772937 265.227185 387.404079 267.468416 384.598639 266.911771 Z M 384.247043 231.586742 " transform="matrix(0.533283,0,0,0.533328,34.837553,-68.281337)"/>
<path style="fill-rule:evenodd;fill:rgb(81.176471%,6.666667%,14.901961%);fill-opacity:1;stroke-width:1.6744;stroke-linecap:butt;stroke-linejoin:miter;stroke:rgb(0%,0%,0%);stroke-opacity:1;stroke-miterlimit:4;" d="M 313.399254 264.670955 C 313.399254 269.001442 309.508741 272.521155 304.709936 272.521155 C 299.916177 272.521155 296.020618 269.001442 296.020618 264.670955 C 296.020618 260.335699 299.916177 256.820756 304.709936 256.820756 C 309.508741 256.820756 313.399254 260.335699 313.399254 264.670955 Z M 313.399254 264.670955 " transform="matrix(0.774119,0,0,0.819048,3.610573,-170.961713)"/>
<path style="fill-rule:evenodd;fill:rgb(99.215686%,81.960784%,7.843137%);fill-opacity:1;stroke-width:0.375;stroke-linecap:butt;stroke-linejoin:miter;stroke:rgb(81.176471%,6.666667%,14.901961%);stroke-opacity:1;stroke-miterlimit:4;" d="M 249.31714 508.250902 C 247.654385 510.580025 246.218703 504.449598 240.490624 508.748953 C 237.267664 511.510209 235.971156 515.736322 235.99313 524.56941 C 236.015105 532.062154 240.329476 537.064641 242.82727 536.566589 C 246.658198 536.061214 244.658498 526.905857 248.819046 525.23592 C 254.818146 522.408746 263.307716 526.737398 264.809322 532.230612 C 266.310928 537.731151 261.974582 543.722416 257.31594 543.055906 C 254.649673 542.059803 258.810222 538.229202 259.147167 536.566589 C 259.476788 534.896652 259.974882 529.403438 255.982807 527.90196 C 251.983406 526.400481 252.649973 531.901019 252.4815 533.402498 C 252.320352 534.896652 249.485613 539.562222 246.321252 539.393763 C 243.156891 539.225305 238.132004 539.247278 233.165716 533.900549 C 230.528748 531.153942 227.335088 523.741766 230.169828 514.410626 C 232.997243 505.086811 237.824358 504.251842 240.490624 504.083384 C 243.156891 503.922249 249.983706 505.584862 249.31714 508.250902 Z M 249.31714 508.250902 " transform="matrix(0.533283,0,0,0.533328,34.465262,-71.52562)"/>
<path style="fill-rule:evenodd;fill:rgb(99.215686%,81.960784%,7.843137%);fill-opacity:1;stroke-width:0.375;stroke-linecap:butt;stroke-linejoin:miter;stroke:rgb(81.176471%,6.666667%,14.901961%);stroke-opacity:1;stroke-miterlimit:4;" d="M 242.490325 547.06229 C 239.714184 545.57546 243.537787 540.162813 236.330076 542.067128 C 233.429412 542.872799 240.659097 551.222484 243.823458 551.559401 C 247.31744 551.222484 246.343227 548.951956 242.490325 547.06229 Z M 242.490325 547.06229 " transform="matrix(0.533283,0,0,0.533328,34.465262,-71.52562)"/>
<path style="fill-rule:evenodd;fill:rgb(99.215686%,81.960784%,7.843137%);fill-opacity:1;stroke-width:0.375;stroke-linecap:butt;stroke-linejoin:miter;stroke:rgb(81.176471%,6.666667%,14.901961%);stroke-opacity:1;stroke-miterlimit:4;" d="M 250.152179 551.559401 C 251.646461 558.385635 253.067493 557.807017 253.31654 561.220134 C 253.441063 565.578083 245.984306 563.717715 244.988118 565.717245 C 243.984606 567.716775 242.651473 572.880396 247.485912 573.209989 C 252.313027 573.539582 259.242391 571.686537 260.641449 575.04106 C 264.399127 584.482064 272.419902 583.112423 276.162931 581.647566 C 280.389403 579.955656 290.351279 570.983406 292.614676 570.214356 C 295.998784 568.976552 289.45764 566.544889 285.626713 569.877439 C 284.623201 570.880866 276.294779 579.369713 271.965758 579.538171 C 268.801397 579.889737 263.901033 571.869645 264.13543 569.049795 C 264.472376 567.050265 271.760661 568.698229 272.800798 564.552684 C 273.577238 561.586348 273.628512 558.385635 271.299191 558.224501 C 268.96987 558.056042 257.975182 559.550197 257.645561 557.887584 C 255.645861 553.06088 259.645261 551.06135 258.143655 549.72833 C 256.480901 549.06182 250.313327 548.058393 250.152179 551.559401 Z M 250.152179 551.559401 " transform="matrix(0.533283,0,0,0.533328,34.465262,-71.52562)"/>
<path style="fill-rule:evenodd;fill:rgb(99.215686%,81.960784%,7.843137%);fill-opacity:1;stroke-width:0.375;stroke-linecap:butt;stroke-linejoin:miter;stroke:rgb(81.176471%,6.666667%,14.901961%);stroke-opacity:1;stroke-miterlimit:4;" d="M 287.179594 578.036693 C 283.656313 581.728133 274.375653 587.638831 274.375653 591.813674 C 274.375653 594.179418 276.968671 597.885506 279.107544 598.771745 C 282.308529 600.031522 287.208893 599.716577 290.937272 596.823485 C 295.15642 593.395719 297.053571 589.924008 295.251643 589.308768 C 288.871648 587.485021 288.7105 596.281488 285.648688 596.545162 C 282.726049 596.786863 278.272505 592.091996 284.117782 586.247217 C 289.963059 580.402437 298.035109 574.557657 297.756762 572.88772 C 297.478416 571.225107 289.706687 575.487842 287.179594 578.036693 Z M 287.179594 578.036693 " transform="matrix(0.533283,0,0,0.533328,34.465262,-71.52562)"/>
<path style="fill-rule:evenodd;fill:rgb(99.215686%,81.960784%,7.843137%);fill-opacity:1;stroke-width:0.375;stroke-linecap:butt;stroke-linejoin:miter;stroke:rgb(81.176471%,6.666667%,14.901961%);stroke-opacity:1;stroke-miterlimit:4;" d="M 259.347707 585.691779 C 259.091336 588.042874 265.332158 588.057523 266.445544 585.970102 C 267.280584 584.439326 259.626054 583.326035 259.347707 585.691779 Z M 259.347707 585.691779 " transform="matrix(0.533283,0,0,0.533328,41.217693,-62.549702)"/>
<path style="fill-rule:evenodd;fill:rgb(99.215686%,81.960784%,7.843137%);fill-opacity:1;stroke-width:0.375;stroke-linecap:butt;stroke-linejoin:miter;stroke:rgb(81.176471%,6.666667%,14.901961%);stroke-opacity:1;stroke-miterlimit:4;" d="M 273.838521 583.057203 C 270.31524 586.748643 274.256041 590.945458 276.951607 594.387872 C 278.438564 596.226268 281.866621 598.013394 284.005494 598.892308 C 287.199155 600.152085 293.571825 599.719952 297.300204 596.826859 C 301.519352 593.399094 301.848973 587.378531 299.292579 587.356558 C 292.670862 587.283316 297.278229 596.160349 294.216417 596.424024 C 291.293779 596.665725 283.089881 594.820005 279.097805 586.375104 C 276.819759 581.39459 283.302303 580.442433 282.335415 578.274445 C 281.346553 575.952646 276.365614 580.508352 273.838521 583.057203 Z M 273.838521 583.057203 " transform="matrix(0.533283,0,0,0.533328,44.704831,-60.320389)"/>
<path style="fill-rule:evenodd;fill:rgb(99.215686%,81.960784%,7.843137%);fill-opacity:1;stroke-width:0.375;stroke-linecap:butt;stroke-linejoin:miter;stroke:rgb(81.176471%,6.666667%,14.901961%);stroke-opacity:1;stroke-miterlimit:4;" d="M 259.34759 585.688663 C 259.092234 588.042754 265.33376 588.057078 266.444436 585.965734 C 267.280865 584.434641 259.628507 583.327936 259.34759 585.688663 Z M 259.34759 585.688663 " transform="matrix(0.397851,-0.355143,0.355113,0.397884,-111.265006,109.534066)"/>
<path style="fill-rule:evenodd;fill:rgb(99.215686%,81.960784%,7.843137%);fill-opacity:1;stroke-width:0.375;stroke-linecap:butt;stroke-linejoin:miter;stroke:rgb(81.176471%,6.666667%,14.901961%);stroke-opacity:1;stroke-miterlimit:4;" d="M 319.563016 621.308571 C 319.372568 624.018556 320.170983 627.673375 316.991973 627.797888 C 313.805638 627.9224 309.769613 623.637693 306.590602 623.754882 C 303.404267 623.879395 302.056484 626.325706 302.422729 627.673375 C 302.788975 629.021043 308.297306 630.610413 317.724464 630.002497 C 327.151622 629.387257 325.064023 635.136821 331.678415 634.653419 C 338.285483 634.162691 339.267021 631.958082 338.776252 630.493225 C 338.285483 629.021043 332.652628 630.002497 330.572354 629.636283 C 328.49208 629.262745 324.822301 625.959492 324.331532 623.146966 C 323.840763 620.334441 323.840763 615.47844 326.294607 615.434494 C 330.821401 615.353927 328.726477 619.550742 328.902275 621.022924 C 329.056098 622.326646 330.53573 623.674315 332.53543 621.308571 C 335.187047 618.166452 333.75869 613.229884 331.187646 611.516001 C 328.616603 609.809443 320.039135 614.716714 319.563016 621.308571 Z M 319.563016 621.308571 " transform="matrix(0.533283,0,0,0.533328,34.465262,-71.52562)"/>
<path style="fill-rule:evenodd;fill:rgb(99.215686%,81.960784%,7.843137%);fill-opacity:1;stroke-width:0.375;stroke-linecap:butt;stroke-linejoin:miter;stroke:rgb(81.176471%,6.666667%,14.901961%);stroke-opacity:1;stroke-miterlimit:4;" d="M 342.929475 621.799298 C 342.446031 626.655299 338.974025 627.006865 339.38422 628.779342 C 339.882313 630.808169 341.142198 631.445382 341.947938 636.48449 C 342.409407 638.967423 345.500518 640.02212 349.419345 639.787743 C 352.62033 639.699851 354.803153 635.363874 356.883427 635.51036 C 359.81339 635.66417 357.374196 642.307297 364.222986 642.241378 C 369.731317 642.190108 371.0791 637.465944 373.034851 637.341431 C 374.997927 637.216918 374.74888 642.849294 379.282998 642.849294 C 383.809792 642.849294 385.765543 637.707646 387.845817 637.590457 C 390.050614 637.707646 390.050614 643.09832 396.782206 642.724781 C 403.513797 642.358567 408.53136 641.384437 410.120865 640.036768 C 411.71037 638.6891 412.450186 634.27988 414.647659 634.038179 C 416.852456 633.796477 420.280513 638.198373 423.342325 638.198373 C 426.396812 638.198373 432.762158 630.493225 434.717909 630.368712 C 436.680985 630.244199 438.27049 635.136821 442.680085 635.136821 C 449.528875 635.019633 450.334615 626.105978 453.52095 625.688493 C 459.278329 625.124523 459.505401 622.780752 459.813047 622.165512 C 460.421014 620.451629 459.769097 612.416888 458.457939 608.747421 C 457.827997 606.81381 450.510413 590.466005 447.206879 590.099791 C 443.903345 589.733577 444.877558 594.509011 446.840633 597.321536 C 448.796384 600.134062 458.831509 613.229884 457.483726 617.023864 C 456.143267 620.817844 449.038106 615.434494 443.412576 615.434494 C 435.574923 615.434494 430.821057 631.269599 425.298076 631.833569 C 422.873531 632.097243 420.280513 629.753472 421.137528 628.039589 C 422.727033 625.593278 424.565585 619.719201 418.441961 620.576142 C 412.325662 621.433084 406.08484 624.245609 407.059053 627.548862 C 408.040591 630.859439 411.71037 634.162691 407.674345 635.51036 C 403.63832 636.850704 396.657682 637.224243 393.229625 636.118276 C 389.801568 635.019633 391.881842 627.30716 389.801568 627.30716 C 387.479571 627.30716 387.355048 636.367301 384.051514 636.609003 C 380.74798 636.850704 377.810692 635.51036 377.078201 632.939536 C 376.338385 630.368712 378.301461 627.182648 376.096663 626.816433 C 373.891865 626.450219 371.694393 636.975217 368.383534 636.733516 C 365.08 636.48449 364.962801 635.752061 362.999726 633.671964 C 361.043975 631.591867 364.713755 624.494635 361.410221 623.879395 C 358.106687 623.271479 354.803153 634.404393 352.598355 634.287204 C 350.393558 634.162691 347.090024 634.038179 346.108486 631.833569 C 345.625042 630.734926 345.75689 623.842773 345.866764 621.052221 C 345.808165 619.726525 342.687753 620.305144 342.929475 621.799298 Z M 342.929475 621.799298 " transform="matrix(0.533283,0,0,0.533328,34.465262,-71.52562)"/>
<path style="fill-rule:evenodd;fill:rgb(99.215686%,81.960784%,7.843137%);fill-opacity:1;stroke-width:0.375;stroke-linecap:butt;stroke-linejoin:miter;stroke:rgb(81.176471%,6.666667%,14.901961%);stroke-opacity:1;stroke-miterlimit:4;" d="M 454.180192 591.806349 C 460.208592 600.939733 465.643674 613.288478 468.991158 613.962312 C 471.21793 614.291905 462.01052 597.438725 458.956033 593.644745 C 456.384989 589.733577 448.994156 583.852175 454.180192 591.806349 Z M 454.180192 591.806349 " transform="matrix(0.533283,0,0,0.533328,34.465262,-71.52562)"/>
<path style="fill-rule:evenodd;fill:rgb(99.215686%,81.960784%,7.843137%);fill-opacity:1;stroke-width:0.375;stroke-linecap:butt;stroke-linejoin:miter;stroke:rgb(81.176471%,6.666667%,14.901961%);stroke-opacity:1;stroke-miterlimit:4;" d="M 342.155665 613.741914 C 341.020482 616.025248 341.420587 618.232975 343.383896 617.907864 C 345.347204 617.582754 347.878104 613.741914 347.22677 613.008525 C 346.575435 612.267575 343.709563 611.617354 342.155665 613.741914 Z M 342.155665 613.741914 " transform="matrix(0.419811,0,0,0.516651,73.406126,-61.125715)"/>
<path style="fill-rule:evenodd;fill:rgb(99.215686%,81.960784%,7.843137%);fill-opacity:1;stroke-width:0.375;stroke-linecap:butt;stroke-linejoin:miter;stroke:rgb(81.176471%,6.666667%,14.901961%);stroke-opacity:1;stroke-miterlimit:4;" d="M 471.899147 595.856679 C 471.877172 600.807896 475.385803 606.410974 481.912297 606.059409 C 488.431466 605.707843 495.587902 598.493422 496.115295 591.081245 C 496.642689 583.676393 487.508527 578.241773 485.215831 579.831143 C 482.923134 581.413188 486.072845 586.9357 491.925447 587.279941 C 494.437891 587.433751 493.617501 592.333698 488.812361 596.215569 C 483.780149 600.192656 476.323392 600.119413 474.499489 597.372806 C 473.093107 593.490935 471.803923 593.468962 471.899147 595.856679 Z M 471.899147 595.856679 " transform="matrix(0.533283,0,0,0.533328,34.465262,-71.52562)"/>
<path style="fill-rule:evenodd;fill:rgb(99.215686%,81.960784%,7.843137%);fill-opacity:1;stroke-width:0.375;stroke-linecap:butt;stroke-linejoin:miter;stroke:rgb(81.176471%,6.666667%,14.901961%);stroke-opacity:1;stroke-miterlimit:4;" d="M 475.832623 580.856543 C 474.87306 582.819451 476.865435 587.338535 479.018958 587.14078 C 481.209106 586.928375 476.528489 579.560144 475.832623 580.856543 Z M 475.832623 580.856543 " transform="matrix(0.533283,0,0,0.533328,34.465262,-71.52562)"/>
<path style="fill-rule:evenodd;fill:rgb(99.215686%,81.960784%,7.843137%);fill-opacity:1;stroke-width:0.375;stroke-linecap:butt;stroke-linejoin:miter;stroke:rgb(81.176471%,6.666667%,14.901961%);stroke-opacity:1;stroke-miterlimit:4;" d="M 494.979935 577.34821 C 496.247144 580.285248 497.7634 584.760387 500.436992 584.760387 C 503.117908 584.760387 505.278756 585.485491 505.278756 587.748695 C 505.278756 590.011899 498.298118 597.555913 498.071046 600.104765 C 497.682826 604.45539 500.847187 604.228337 502.392742 601.855269 C 503.938298 599.489525 508.113496 588.349287 508.98516 585.280411 C 509.358731 582.848748 512.361943 578.285719 512.486467 573.539582 C 512.296019 568.185529 517.218358 572.506857 519.591628 572.719262 C 521.759801 572.814477 524.118422 568.800769 524.433393 565.922325 C 524.741039 563.036556 522.162671 562.523856 522.162671 559.945708 C 522.162671 558.502824 524.916837 553.873875 525.048686 550.783027 C 525.356332 548.051069 519.694177 540.177462 517.328232 540.280002 C 515.365156 540.382542 517.01326 543.26831 518.148621 544.49879 C 519.283982 545.736594 522.162671 548.314743 521.137184 550.577947 C 519.283982 555.001815 510.215745 556.13708 509.80555 560.875892 C 509.395355 564.274361 510.215745 574.982466 507.439605 574.982466 C 504.656139 574.982466 502.385417 568.295393 498.071046 568.288069 C 493.229281 568.156232 493.976422 575.114303 494.979935 577.34821 Z M 494.979935 577.34821 " transform="matrix(0.533283,0,0,0.533328,34.465262,-71.52562)"/>
<path style="fill-rule:evenodd;fill:rgb(99.215686%,81.960784%,7.843137%);fill-opacity:1;stroke-width:0.375;stroke-linecap:butt;stroke-linejoin:miter;stroke:rgb(81.176471%,6.666667%,14.901961%);stroke-opacity:1;stroke-miterlimit:4;" d="M 502.092421 536.676453 C 502.224269 538.588092 506.20902 546.871859 508.574965 546.871859 C 511.973723 546.871859 507.02941 542.96069 507.344381 541.517806 C 507.652027 540.074922 512.515766 537.906933 510.530716 537.401558 C 506.98546 536.317564 501.916623 534.156899 502.092421 536.676453 Z M 502.092421 536.676453 " transform="matrix(0.533283,0,0,0.533328,34.465262,-71.52562)"/>
<path style="fill-rule:evenodd;fill:rgb(99.215686%,81.960784%,7.843137%);fill-opacity:1;stroke-width:0.375;stroke-linecap:butt;stroke-linejoin:miter;stroke:rgb(81.176471%,6.666667%,14.901961%);stroke-opacity:1;stroke-miterlimit:4;" d="M 501.77745 525.968348 C 502.502616 528.649037 513.519279 532.662745 518.258495 534.003089 C 522.990386 535.343434 528.755089 541.005106 530.923263 539.152062 C 533.084111 537.299018 516.405293 530.707161 513.929474 529.776977 C 511.46098 528.854117 501.264706 523.294984 501.77745 525.968348 Z M 501.77745 525.968348 " transform="matrix(0.533283,0,0,0.533328,34.465262,-71.52562)"/>
<path style="fill-rule:evenodd;fill:rgb(99.215686%,81.960784%,7.843137%);fill-opacity:1;stroke-width:0.375;stroke-linecap:butt;stroke-linejoin:miter;stroke:rgb(81.176471%,6.666667%,14.901961%);stroke-opacity:1;stroke-miterlimit:4;" d="M 535.039861 543.26831 C 539.15646 543.37085 536.893063 535.233569 535.860251 533.277985 C 534.834764 531.322401 533.289208 536.991398 533.494306 538.639362 C 533.699403 540.280002 533.801952 543.16577 535.039861 543.26831 Z M 535.039861 543.26831 " transform="matrix(0.533283,0,0,0.533328,34.465262,-71.52562)"/>
<path style="fill-rule:evenodd;fill:rgb(99.215686%,81.960784%,7.843137%);fill-opacity:1;stroke-width:0.375;stroke-linecap:butt;stroke-linejoin:miter;stroke:rgb(81.176471%,6.666667%,14.901961%);stroke-opacity:1;stroke-miterlimit:4;" d="M 511.050785 502.801634 C 511.01416 504.640029 522.426368 503.336307 527.729602 504.757218 C 530.022299 505.394431 537.823327 509.598571 539.266334 508.565846 C 540.914438 506.405182 528.659866 501.76891 521.657253 501.76891 C 519.386531 501.805531 511.087409 500.626321 511.050785 502.801634 Z M 511.050785 502.801634 " transform="matrix(0.533283,0,0,0.533328,34.465262,-71.52562)"/>
<path style="fill-rule:evenodd;fill:rgb(99.215686%,81.960784%,7.843137%);fill-opacity:1;stroke-width:0.375;stroke-linecap:butt;stroke-linejoin:miter;stroke:rgb(81.176471%,6.666667%,14.901961%);stroke-opacity:1;stroke-miterlimit:4;" d="M 508.062222 508.053146 C 506.018572 510.235783 514.947636 512.682095 522.887837 512.989715 C 530.798739 513.304659 535.926175 518.05812 535.244959 521.537156 C 534.109598 527.411233 524.228296 523.59528 525.466205 526.788668 C 526.184046 529.264277 530.527717 528.356065 531.025811 531.014781 C 531.362757 533.688145 534.153547 534.164224 534.007049 530.860971 C 533.992399 528.231552 540.137998 523.910224 539.984175 522.67242 C 539.676529 520.204136 535.9628 511.554155 526.491693 510.62397 C 517.020585 509.701111 510.669889 505.130756 508.062222 508.053146 Z M 508.062222 508.053146 " transform="matrix(0.533283,0,0,0.533328,34.465262,-71.52562)"/>
<path style="fill-rule:evenodd;fill:rgb(81.176471%,6.666667%,14.901961%);fill-opacity:1;stroke-width:0.073416;stroke-linecap:butt;stroke-linejoin:miter;stroke:rgb(81.176471%,6.666667%,14.901961%);stroke-opacity:1;stroke-miterlimit:4;" d="M 419.370509 303.329444 C 418.621975 302.899252 415.963389 305.291119 416.918415 305.820255 C 418.729523 306.848414 420.501913 303.966128 419.370509 303.329444 Z M 419.370509 303.329444 " transform="matrix(0.908025,0,0,0.908025,-210.42,-45.20025)"/>
<path style="fill-rule:evenodd;fill:rgb(81.176471%,6.666667%,14.901961%);fill-opacity:1;stroke-width:0.073416;stroke-linecap:butt;stroke-linejoin:miter;stroke:rgb(81.176471%,6.666667%,14.901961%);stroke-opacity:1;stroke-miterlimit:4;" d="M 425.079155 300.490178 C 423.78858 300.331007 423.164801 303.071329 424.244583 303.234802 C 426.989207 303.613371 427.531249 300.78701 425.079155 300.490178 Z M 425.079155 300.490178 " transform="matrix(0.908025,0,0,0.908025,-210.42,-45.20025)"/>
<path style="fill-rule:evenodd;fill:rgb(81.176471%,6.666667%,14.901961%);fill-opacity:1;stroke-width:0.073416;stroke-linecap:butt;stroke-linejoin:miter;stroke:rgb(81.176471%,6.666667%,14.901961%);stroke-opacity:1;stroke-miterlimit:4;" d="M 564.259141 308.182009 C 563.648268 308.177707 561.721009 309.025185 562.387806 310.35878 C 563.050301 311.688073 564.960354 311.718186 565.833643 310.961049 C 566.61229 310.225421 566.435912 308.194915 564.259141 308.182009 Z M 564.259141 308.182009 " transform="matrix(0.908025,0,0,0.908025,-210.42,-45.20025)"/>
<path style="fill-rule:evenodd;fill:rgb(81.176471%,6.666667%,14.901961%);fill-opacity:1;stroke-width:0.073416;stroke-linecap:butt;stroke-linejoin:miter;stroke:rgb(81.176471%,6.666667%,14.901961%);stroke-opacity:1;stroke-miterlimit:4;" d="M 571.821914 302.370116 C 572.015501 303.832769 573.086679 303.596163 573.934157 303.277821 C 574.902088 302.851931 575.186015 301.574261 574.239593 301.10105 C 573.250151 300.60633 571.619724 301.32475 571.821914 302.370116 Z M 571.821914 302.370116 " transform="matrix(0.908025,0,0,0.908025,-210.42,-45.20025)"/>
<path style="fill-rule:evenodd;fill:rgb(81.176471%,6.666667%,14.901961%);fill-opacity:1;stroke-width:0.073416;stroke-linecap:butt;stroke-linejoin:miter;stroke:rgb(81.176471%,6.666667%,14.901961%);stroke-opacity:1;stroke-miterlimit:4;" d="M 528.118719 336.578976 C 526.815238 339.45696 527.938039 342.274717 530.015865 341.732675 C 532.093692 341.190634 534.175821 337.211358 532.640036 335.946594 C 531.099949 334.68183 528.983405 334.668924 528.118719 336.578976 Z M 528.118719 336.578976 " transform="matrix(0.908025,0,0,0.908025,-210.42,-45.20025)"/>
<path style=" stroke:none;fill-rule:evenodd;fill:rgb(81.176471%,6.666667%,14.901961%);fill-opacity:1;" d="M 109.910156 152 C 105.507812 151.601562 95.5 149.601562 95.101562 151.601562 C 94.699219 153.601562 100.503906 177.019531 103.503906 180.019531 C 106.507812 183.023438 120.515625 189.425781 121.914062 188.625 C 123.316406 187.824219 119.113281 173.214844 117.511719 170.613281 C 115.914062 168.011719 111.109375 158.605469 111.511719 158.207031 C 111.910156 157.804688 109.707031 152 109.910156 152 Z M 109.910156 152 "/>
<path style="fill-rule:evenodd;fill:rgb(81.176471%,6.666667%,14.901961%);fill-opacity:1;stroke-width:2.5;stroke-linecap:butt;stroke-linejoin:miter;stroke:rgb(0%,0%,0%);stroke-opacity:1;stroke-miterlimit:4;" d="M 124.239961 411.540449 C 126.254311 400.978829 138.530859 413.620546 137.314924 427.382878 C 136.721606 432.048448 139.329274 437.190096 141.841717 439.70965 " transform="matrix(0.533283,0,0,0.533328,34.842587,-68.279212)"/>
<path style="fill-rule:evenodd;fill:rgb(81.176471%,6.666667%,14.901961%);fill-opacity:1;stroke-width:2.5;stroke-linecap:butt;stroke-linejoin:miter;stroke:rgb(0%,0%,0%);stroke-opacity:1;stroke-miterlimit:4;" d="M 134.80248 412.0385 L 134.341011 412.65374 C 140.501259 402.231282 146.45641 417.070284 147.372024 434.17249 " transform="matrix(0.533283,0,0,0.533328,34.842587,-68.279212)"/>
<path style="fill-rule:evenodd;fill:rgb(81.176471%,6.666667%,14.901961%);fill-opacity:1;stroke-width:2.5;stroke-linecap:butt;stroke-linejoin:miter;stroke:rgb(0%,0%,0%);stroke-opacity:1;stroke-miterlimit:4;" d="M 113.618843 410.412509 C 113.267248 401.872392 127.125975 399.418756 126.268961 430.283295 C 132.319336 434.194463 139.431822 449.128681 139.783418 454.468085 C 144.324862 455.530106 151.876843 461.111212 153.715395 465.732836 " transform="matrix(0.533283,0,0,0.533328,34.842587,-68.279212)"/>
<path style="fill-rule:evenodd;fill:rgb(81.176471%,6.666667%,14.901961%);fill-opacity:1;stroke-width:2.5;stroke-linecap:butt;stroke-linejoin:miter;stroke:rgb(0%,0%,0%);stroke-opacity:1;stroke-miterlimit:4;" d="M 147.621071 581.39795 C 148.265663 557.901643 148.639233 507.591127 146.178064 502.134534 C 141.849042 492.034345 120.086738 480.315488 113.457695 464.436437 C 106.814003 447.627203 101.159173 409.299217 103.85474 404.677593 C 107.378021 398.019818 119.14915 412.85882 115.948164 429.221274 C 130.173138 445.942617 127.184575 455.896321 129.814217 458.035012 C 138.589458 464.788003 151.986716 469.416952 154.359987 475.459487 C 159.238376 486.277456 153.29055 460.166379 149.379049 454.826975 C 145.467547 449.494895 138.706656 437.76139 143.335999 434.912243 C 147.958016 432.070421 156.13994 439.533867 157.202051 441.672559 C 158.271488 443.803926 169.295476 455.896321 172.496461 458.745468 C 178.187915 463.008202 192.559387 472.551746 192.273715 480.732972 C 192.259065 493.953307 193.438376 580.943845 193.438376 580.943845 " transform="matrix(0.533283,0,0,0.533328,34.842587,-68.279212)"/>
<path style="fill-rule:evenodd;fill:rgb(81.176471%,6.666667%,14.901961%);fill-opacity:1;stroke-width:2.5;stroke-linecap:butt;stroke-linejoin:miter;stroke:rgb(0%,0%,0%);stroke-opacity:1;stroke-miterlimit:4;" d="M 144.969454 612.372353 C 144.969454 612.372353 144.881555 621.828005 144.881555 622.003788 C 148.983504 626.998951 166.116466 627.555596 169.947393 627.533624 C 173.697746 627.423759 189.819871 627.716731 193.562899 621.557007 C 193.658123 621.381224 193.797296 613.52959 193.797296 611.368926 " transform="matrix(0.533283,0,0,0.533328,34.842587,-68.279212)"/>
<path style="fill-rule:evenodd;fill:rgb(81.176471%,6.666667%,14.901961%);fill-opacity:1;stroke-width:2.5;stroke-linecap:butt;stroke-linejoin:miter;stroke:rgb(0%,0%,0%);stroke-opacity:1;stroke-miterlimit:4;" d="M 144.200338 585.217617 C 139.453797 586.272314 138.215888 592.073148 141.563371 596.291936 C 144.280912 599.719702 155.539297 603.674816 168.453111 603.93849 C 181.374251 604.202164 198.507213 599.719702 199.298303 592.600496 C 199.562 585.481291 192.874358 585.920748 193.665448 586.184422 " transform="matrix(0.533283,0,0,0.533328,34.842587,-61.249943)"/>
<path style="fill-rule:evenodd;fill:rgb(81.176471%,6.666667%,14.901961%);fill-opacity:1;stroke-width:2.5;stroke-linecap:butt;stroke-linejoin:miter;stroke:rgb(0%,0%,0%);stroke-opacity:1;stroke-miterlimit:4;" d="M 144.200338 585.309119 C 139.453797 586.363816 138.567483 592.340433 141.914967 596.559221 C 144.632508 599.986986 156.059366 604.733123 168.980505 604.996798 C 181.901644 605.260472 198.243516 599.986986 199.034606 592.867781 C 199.298303 585.748576 194.383289 586.363816 194.024368 586.539599 " transform="matrix(0.533283,0,0,0.533328,34.842587,-68.279212)"/>
<path style="fill-rule:evenodd;fill:rgb(81.176471%,6.666667%,14.901961%);fill-opacity:1;stroke-width:2.5;stroke-linecap:butt;stroke-linejoin:miter;stroke:rgb(0%,0%,0%);stroke-opacity:1;stroke-miterlimit:4;" d="M 171.090079 592.596783 C 188.223041 592.860457 199.298303 584.430204 199.298303 579.947742 C 199.298303 575.465279 193.760672 575.201605 190.332614 576.519976 C 186.904557 577.838348 181.637948 581.185546 170.562685 581.266113 C 159.231051 581.610354 149.210576 573.355885 145.782518 573.619559 C 142.354461 573.883233 139.673544 577.596646 140.772281 581.529787 C 142.127389 585.426307 154.220813 593.124131 171.090079 592.596783 Z M 171.090079 592.596783 " transform="matrix(0.533283,0,0,0.533328,34.842587,-68.279212)"/>
<path style=" stroke:none;fill-rule:evenodd;fill:rgb(81.176471%,6.666667%,14.901961%);fill-opacity:1;" d="M 370.09375 152 C 374.496094 151.601562 384.5 149.601562 384.902344 151.601562 C 385.300781 153.601562 379.496094 177.019531 376.496094 180.019531 C 373.496094 183.023438 359.488281 189.425781 358.085938 188.625 C 356.683594 187.824219 360.886719 173.214844 362.488281 170.613281 C 364.089844 168.011719 368.890625 158.605469 368.492188 158.207031 C 368.089844 157.804688 370.292969 152 370.09375 152 Z M 370.09375 152 "/>
<path style="fill-rule:evenodd;fill:rgb(81.176471%,6.666667%,14.901961%);fill-opacity:1;stroke-width:2.5;stroke-linecap:butt;stroke-linejoin:miter;stroke:rgb(0%,0%,0%);stroke-opacity:1;stroke-miterlimit:4;" d="M 124.242292 411.540449 C 126.249317 400.978829 138.53319 413.620546 137.317255 427.382878 C 136.716612 432.048448 139.331605 437.190096 141.844048 439.70965 " transform="matrix(-0.533283,0,0,0.533328,445.162563,-68.279212)"/>
<path style="fill-rule:evenodd;fill:rgb(81.176471%,6.666667%,14.901961%);fill-opacity:1;stroke-width:2.5;stroke-linecap:butt;stroke-linejoin:miter;stroke:rgb(0%,0%,0%);stroke-opacity:1;stroke-miterlimit:4;" d="M 134.797486 412.0385 L 134.336017 412.65374 C 140.496265 402.231282 146.451416 417.070284 147.374355 434.17249 " transform="matrix(-0.533283,0,0,0.533328,445.162563,-68.279212)"/>
<path style="fill-rule:evenodd;fill:rgb(81.176471%,6.666667%,14.901961%);fill-opacity:1;stroke-width:2.5;stroke-linecap:butt;stroke-linejoin:miter;stroke:rgb(0%,0%,0%);stroke-opacity:1;stroke-miterlimit:4;" d="M 113.621174 410.412509 C 113.262254 401.872392 127.128306 399.418756 126.271292 430.283295 C 132.314342 434.194463 139.434153 449.128681 139.785749 454.468085 C 144.319868 455.530106 151.879174 461.111212 153.717726 465.732836 " transform="matrix(-0.533283,0,0,0.533328,445.162563,-68.279212)"/>
<path style="fill-rule:evenodd;fill:rgb(81.176471%,6.666667%,14.901961%);fill-opacity:1;stroke-width:2.5;stroke-linecap:butt;stroke-linejoin:miter;stroke:rgb(0%,0%,0%);stroke-opacity:1;stroke-miterlimit:4;" d="M 147.623401 581.39795 C 148.267993 557.901643 148.641564 507.591127 146.180394 502.134534 C 141.851373 492.034345 120.089069 480.315488 113.452701 464.436437 C 106.816334 447.627203 101.154179 409.299217 103.849746 404.677593 C 107.380352 398.019818 119.144156 412.85882 115.94317 429.221274 C 130.175468 445.942617 127.179581 455.896321 129.816548 458.035012 C 138.591789 464.788003 151.989047 469.416952 154.354993 475.459487 C 159.233382 486.277456 153.292881 460.166379 149.38138 454.826975 C 145.469878 449.494895 138.708987 437.76139 143.331005 434.912243 C 147.953022 432.070421 156.134946 439.533867 157.204382 441.672559 C 158.273819 443.803926 169.297807 455.896321 172.498792 458.745468 C 178.190246 463.008202 192.561718 472.551746 192.276046 480.732972 C 192.261396 493.953307 193.433382 580.943845 193.433382 580.943845 " transform="matrix(-0.533283,0,0,0.533328,445.162563,-68.279212)"/>
<path style="fill-rule:evenodd;fill:rgb(81.176471%,6.666667%,14.901961%);fill-opacity:1;stroke-width:2.5;stroke-linecap:butt;stroke-linejoin:miter;stroke:rgb(0%,0%,0%);stroke-opacity:1;stroke-miterlimit:4;" d="M 144.971784 612.372353 C 144.971784 612.372353 144.876561 621.828005 144.883886 622.003788 C 148.985835 626.998951 166.111472 627.555596 169.949724 627.533624 C 173.700077 627.423759 189.822202 627.716731 193.56523 621.557007 C 193.653129 621.381224 193.799627 613.52959 193.799627 611.368926 " transform="matrix(-0.533283,0,0,0.533328,445.162563,-68.279212)"/>
<path style="fill-rule:evenodd;fill:rgb(81.176471%,6.666667%,14.901961%);fill-opacity:1;stroke-width:2.5;stroke-linecap:butt;stroke-linejoin:miter;stroke:rgb(0%,0%,0%);stroke-opacity:1;stroke-miterlimit:4;" d="M 144.202669 585.217617 C 139.456128 586.272314 138.218218 592.073148 141.565702 596.291936 C 144.275918 599.719702 155.534303 603.674816 168.455442 603.93849 C 181.369257 604.202164 198.509544 599.719702 199.300634 592.600496 C 199.56433 585.481291 192.876689 585.920748 193.667779 586.184422 " transform="matrix(-0.533283,0,0,0.533328,445.162563,-61.249943)"/>
<path style="fill-rule:evenodd;fill:rgb(81.176471%,6.666667%,14.901961%);fill-opacity:1;stroke-width:2.5;stroke-linecap:butt;stroke-linejoin:miter;stroke:rgb(0%,0%,0%);stroke-opacity:1;stroke-miterlimit:4;" d="M 144.202669 585.309119 C 139.456128 586.363816 138.569814 592.340433 141.917297 596.559221 C 144.627514 599.986986 156.061697 604.733123 168.982836 604.996798 C 181.89665 605.260472 198.245847 599.986986 199.036937 592.867781 C 199.300634 585.748576 194.38562 586.363816 194.026699 586.539599 " transform="matrix(-0.533283,0,0,0.533328,445.162563,-68.279212)"/>
<path style="fill-rule:evenodd;fill:rgb(81.176471%,6.666667%,14.901961%);fill-opacity:1;stroke-width:2.5;stroke-linecap:butt;stroke-linejoin:miter;stroke:rgb(0%,0%,0%);stroke-opacity:1;stroke-miterlimit:4;" d="M 171.09241 592.596783 C 188.225372 592.860457 199.300634 584.430204 199.300634 579.947742 C 199.300634 575.465279 193.763003 575.201605 190.334945 576.519976 C 186.906888 577.838348 181.632953 581.185546 170.565016 581.266113 C 159.226057 581.610354 149.205582 573.355885 145.784849 573.619559 C 142.356792 573.883233 139.66855 577.596646 140.774612 581.529787 C 142.12972 585.426307 154.215819 593.124131 171.09241 592.596783 Z M 171.09241 592.596783 " transform="matrix(-0.533283,0,0,0.533328,445.162563,-68.279212)"/>
</g>
</svg>
