<?xml version="1.0" encoding="UTF-8"?>
<svg xmlns="http://www.w3.org/2000/svg" xmlns:xlink="http://www.w3.org/1999/xlink" width="480pt" height="360pt" viewBox="0 0 480 360" version="1.1">
<defs>
<clipPath id="clip1">
  <path d="M 0.00390625 163 L 480 163 L 480 309 L 0.00390625 309 Z M 0.00390625 163 "/>
</clipPath>
<clipPath id="clip2">
  <path d="M 0.00390625 0 L 480 0 L 480 181 L 0.00390625 181 Z M 0.00390625 0 "/>
</clipPath>
<clipPath id="clip3">
  <path d="M 0.00390625 271 L 480 271 L 480 360 L 0.00390625 360 Z M 0.00390625 271 "/>
</clipPath>
<clipPath id="clip4">
  <path d="M 0.00390625 212 L 480 212 L 480 241 L 0.00390625 241 Z M 0.00390625 212 "/>
</clipPath>
</defs>
<g id="surface1">
<g clip-path="url(#clip1)" clip-rule="nonzero">
<path style=" stroke:none;fill-rule:evenodd;fill:rgb(100%,100%,100%);fill-opacity:1;" d="M 0.00390625 163.863281 L 595.21875 163.863281 L 595.21875 308.6875 L 0.00390625 308.6875 Z M 0.00390625 163.863281 "/>
</g>
<g clip-path="url(#clip2)" clip-rule="nonzero">
<path style=" stroke:none;fill-rule:evenodd;fill:rgb(3.137255%,9.411765%,45.098039%);fill-opacity:1;" d="M 0.472656 0 L 595.28125 0 L 595.28125 180.449219 L 0.472656 180.449219 Z M 0.472656 0 "/>
</g>
<g clip-path="url(#clip3)" clip-rule="nonzero">
<path style=" stroke:none;fill-rule:evenodd;fill:rgb(3.137255%,9.411765%,45.098039%);fill-opacity:1;" d="M 0.644531 271.316406 L 599.789062 271.316406 L 599.789062 360 L 0.644531 360 Z M 0.644531 271.316406 "/>
</g>
<g clip-path="url(#clip4)" clip-rule="nonzero">
<path style=" stroke:none;fill-rule:evenodd;fill:rgb(87.058824%,22.352941%,16.078431%);fill-opacity:1;" d="M 0.644531 212.730469 L 595.453125 212.730469 L 595.453125 240.609375 L 0.644531 240.609375 Z M 0.644531 212.730469 "/>
</g>
<path style=" stroke:none;fill-rule:evenodd;fill:rgb(100%,80.784314%,3.137255%);fill-opacity:1;" d="M 178.84375 280.664062 L 183.519531 295.058594 L 198.652344 295.058594 L 186.410156 303.953125 L 191.085938 318.34375 L 178.84375 309.449219 L 166.601562 318.34375 L 171.277344 303.953125 L 159.035156 295.058594 L 174.167969 295.058594 Z M 178.84375 280.664062 "/>
<path style=" stroke:none;fill-rule:evenodd;fill:rgb(100%,80.784314%,3.137255%);fill-opacity:1;" d="M 309.617188 176.132812 L 314.292969 190.523438 L 329.425781 190.523438 L 317.183594 199.417969 L 321.859375 213.808594 L 309.617188 204.914062 L 297.375 213.808594 L 302.050781 199.417969 L 289.808594 190.523438 L 304.941406 190.523438 Z M 309.617188 176.132812 "/>
<path style=" stroke:none;fill-rule:evenodd;fill:rgb(100%,80.784314%,3.137255%);fill-opacity:1;" d="M 148.855469 235.863281 L 153.53125 250.253906 L 168.664062 250.253906 L 156.421875 259.148438 L 161.097656 273.539062 L 148.855469 264.644531 L 136.613281 273.539062 L 141.289062 259.148438 L 129.046875 250.253906 L 144.179688 250.253906 Z M 148.855469 235.863281 "/>
<path style=" stroke:none;fill-rule:evenodd;fill:rgb(100%,80.784314%,3.137255%);fill-opacity:1;" d="M 309.617188 231.648438 L 314.292969 246.042969 L 329.425781 246.042969 L 317.183594 254.9375 L 321.859375 269.328125 L 309.617188 260.433594 L 297.375 269.328125 L 302.050781 254.9375 L 289.808594 246.042969 L 304.941406 246.042969 Z M 309.617188 231.648438 "/>
<path style=" stroke:none;fill-rule:evenodd;fill:rgb(100%,80.784314%,3.137255%);fill-opacity:1;" d="M 276.507812 132.3125 L 281.183594 146.703125 L 296.316406 146.703125 L 284.074219 155.597656 L 288.75 169.992188 L 276.507812 161.097656 L 264.265625 169.992188 L 268.941406 155.597656 L 256.699219 146.703125 L 271.832031 146.703125 Z M 276.507812 132.3125 "/>
<path style=" stroke:none;fill-rule:evenodd;fill:rgb(100%,80.784314%,3.137255%);fill-opacity:1;" d="M 226.527344 114.910156 L 231.207031 129.300781 L 246.335938 129.300781 L 234.09375 138.195312 L 238.769531 152.589844 L 226.527344 143.695312 L 214.285156 152.589844 L 218.964844 138.195312 L 206.722656 129.300781 L 221.851562 129.300781 Z M 226.527344 114.910156 "/>
<path style=" stroke:none;fill-rule:evenodd;fill:rgb(100%,80.784314%,3.137255%);fill-opacity:1;" d="M 176.542969 131.335938 L 181.21875 145.726562 L 196.351562 145.726562 L 184.109375 154.621094 L 188.785156 169.011719 L 176.542969 160.117188 L 164.300781 169.011719 L 168.976562 154.621094 L 156.734375 145.726562 L 171.867188 145.726562 Z M 176.542969 131.335938 "/>
<path style=" stroke:none;fill-rule:evenodd;fill:rgb(100%,80.784314%,3.137255%);fill-opacity:1;" d="M 147.386719 176.132812 L 152.0625 190.523438 L 167.195312 190.523438 L 154.953125 199.417969 L 159.628906 213.808594 L 147.386719 204.914062 L 135.144531 213.808594 L 139.820312 199.417969 L 127.578125 190.523438 L 142.710938 190.523438 Z M 147.386719 176.132812 "/>
<path style=" stroke:none;fill-rule:evenodd;fill:rgb(100%,80.784314%,3.137255%);fill-opacity:1;" d="M 226.527344 295.597656 L 231.207031 309.992188 L 246.335938 309.992188 L 234.09375 318.886719 L 238.769531 333.277344 L 226.527344 324.382812 L 214.285156 333.277344 L 218.964844 318.886719 L 206.722656 309.992188 L 221.851562 309.992188 Z M 226.527344 295.597656 "/>
<path style=" stroke:none;fill-rule:evenodd;fill:rgb(100%,80.784314%,3.137255%);fill-opacity:1;" d="M 279.628906 280.664062 L 284.304688 295.058594 L 299.4375 295.058594 L 287.195312 303.953125 L 291.871094 318.34375 L 279.628906 309.449219 L 267.386719 318.34375 L 272.0625 303.953125 L 259.820312 295.058594 L 274.953125 295.058594 Z M 279.628906 280.664062 "/>
</g>
</svg>
