<?xml version="1.0" encoding="UTF-8"?>
<svg xmlns="http://www.w3.org/2000/svg" xmlns:xlink="http://www.w3.org/1999/xlink" width="480pt" height="360pt" viewBox="0 0 480 360" version="1.1">
<g id="surface1">
<rect x="0" y="0" width="480" height="360" style="fill:rgb(0%,12.941176%,67.843137%);fill-opacity:1;stroke:none;"/>
<path style=" stroke:none;fill-rule:evenodd;fill:rgb(10.980392%,54.117647%,25.882353%);fill-opacity:1;" d="M 0 0 L 480 360 L 479.722656 0.269531 Z M 0 0 "/>
<path style=" stroke:none;fill-rule:evenodd;fill:rgb(100%,77.647059%,22.352941%);fill-opacity:1;" d="M 321.25 191.324219 C 321.25 236.839844 284.351562 273.738281 238.832031 273.738281 C 193.316406 273.738281 156.417969 236.839844 156.417969 191.324219 C 156.417969 145.804688 193.316406 108.90625 238.832031 108.90625 C 284.351562 108.90625 321.25 145.804688 321.25 191.324219 Z M 321.25 191.324219 "/>
<path style=" stroke:none;fill-rule:evenodd;fill:rgb(10.980392%,54.117647%,25.882353%);fill-opacity:1;" d="M 187.589844 154.546875 C 193.226562 162.289062 201.765625 175.25 208.640625 171.867188 C 214 171.886719 216.769531 172.265625 217.496094 175.828125 C 230.144531 177.984375 251.402344 172.648438 264.621094 155.425781 C 264.621094 155.425781 265.738281 155.570312 265.347656 149.023438 C 265.421875 146.167969 269.25 146.746094 269.339844 147.664062 C 269.875 149.085938 269.78125 150.148438 270.496094 150.183594 C 272.132812 149.636719 274.355469 145.988281 276.21875 143.671875 C 276.730469 142.648438 276.453125 141.570312 276.570312 140.289062 C 277.554688 137.867188 280.007812 138.394531 280.527344 139.660156 C 280.992188 140.476562 281 141.105469 281.464844 141.921875 C 283.953125 143.582031 288.453125 142.035156 288.804688 142.035156 C 289.246094 140.003906 290.554688 140.195312 290.554688 140.195312 C 292.210938 139.828125 291.566406 139.976562 292.652344 140.542969 C 291.691406 151.5 294.804688 151.980469 294.546875 157.605469 C 294.660156 163.871094 292.652344 165.65625 292.652344 168.054688 C 293.289062 170.972656 302.539062 171.074219 299.28125 173.546875 C 296.421875 175.078125 299.296875 177.9375 294.988281 179.046875 C 282.46875 185.40625 280.066406 190.859375 280.066406 190.859375 C 280.066406 190.859375 276.921875 196.800781 276.570312 196.800781 C 274.46875 200.765625 271.8125 198.601562 270.335938 200.535156 C 269.597656 202.964844 268.769531 208.34375 270.246094 211.140625 C 270.980469 214.980469 270.152344 217.078125 269.230469 220.921875 C 268.398438 228.941406 265.222656 230.15625 264.855469 232.976562 C 263.378906 235.980469 265.164062 250.101562 263.769531 250.101562 C 254.441406 250.285156 247.292969 248.320312 243.605469 247.582031 C 247.203125 232.09375 245.808594 218.472656 245.808594 217.078125 C 244.886719 205.996094 229.203125 208.695312 226.808594 207.21875 C 224.816406 206.796875 223.566406 205.175781 222.863281 204.476562 C 220.648438 204.242188 219.820312 203.734375 217.605469 203.503906 C 216.5 204.054688 217.167969 204.628906 214.699219 205.386719 C 208.449219 206.140625 205.683594 199.9375 205.683594 199.9375 C 205.988281 197.84375 191.628906 200.363281 183.820312 198.550781 C 180.617188 200.335938 179.222656 205.613281 176.597656 206.242188 C 176.523438 207.875 172.285156 204.898438 171.433594 203.289062 C 171.25 198.605469 175.511719 196.53125 175.511719 196.53125 C 178.894531 194.152344 180.902344 193.761719 182.53125 192.125 C 183.347656 188.046875 182.9375 185.03125 184.675781 181.964844 C 186.144531 179.625 188.3125 180.722656 189.785156 179.671875 C 191.371094 178.625 192.035156 171.769531 190.578125 169.886719 C 190.578125 169.886719 184.25 164.175781 183.902344 163.828125 C 181.839844 157.921875 186.308594 154.117188 187.589844 154.542969 Z M 187.589844 154.546875 "/>
<path style=" stroke:none;fill-rule:evenodd;fill:rgb(100%,77.647059%,22.352941%);fill-opacity:1;" d="M 434.632812 54.429688 C 432.503906 46.003906 413.445312 27.855469 399.121094 16.304688 C 395.699219 13.976562 393.46875 15.363281 393.914062 18.6875 C 395.699219 21.660156 397.035156 24.929688 398.820312 27.90625 C 399.316406 29.886719 400.257812 31.273438 400.753906 33.257812 C 400.753906 33.257812 400.902344 36.675781 401.203125 36.972656 C 405.660156 41.882812 406.257812 46.046875 406.257812 46.046875 C 408.832031 51.003906 411.113281 54.621094 415.625 58.683594 C 420.679688 61.855469 416.960938 71.71875 417.109375 76.976562 C 417.109375 80.296875 414.734375 79.898438 412.652344 79.503906 C 396.246094 64.433594 379.988281 64.386719 365.660156 60.023438 C 360.0625 59.429688 359.960938 62.105469 361.796875 63.59375 C 371.808594 74.300781 381.226562 81.585938 393.617188 87.679688 C 395.699219 88.96875 397.78125 90.257812 399.863281 91.546875 C 402.242188 93.53125 404.621094 95.511719 407 97.496094 C 412.5 101.0625 412.949219 104.335938 412.949219 104.632812 C 413.09375 111.324219 409.527344 116.527344 408.484375 118.609375 C 406.605469 125.707031 402.835938 126.9375 402.835938 126.9375 C 372.203125 147.605469 356.144531 152.957031 306.476562 146.566406 C 305.734375 146.167969 300.972656 146.960938 306.476562 148.945312 C 319.117188 153.15625 350.164062 159.910156 380.203125 145.6875 C 387.414062 140.628906 392.242188 142.289062 397.464844 139.261719 C 406.042969 133.972656 418.296875 127.382812 420.527344 126.640625 C 427.21875 123.070312 445.953125 119.058594 450.265625 115.488281 C 455.222656 115.089844 460.359375 114.441406 460.703125 110.179688 C 462.335938 109.128906 464.710938 109.894531 466.484375 106.425781 C 470.40625 105.742188 469.746094 104.335938 469.746094 104.335938 C 468.753906 101.558594 465.085938 100.417969 462.460938 98.386719 C 458.59375 97.097656 455.917969 96.703125 453.09375 98.089844 C 452.199219 98.488281 451.308594 98.882812 450.417969 99.277344 C 450.417969 99.277344 446.253906 98.683594 446.253906 98.386719 C 437 97.878906 437.902344 67.21875 434.628906 54.429688 Z M 434.632812 54.429688 "/>
<path style=" stroke:none;fill-rule:evenodd;fill:rgb(10.980392%,54.117647%,25.882353%);fill-opacity:1;" d="M 441.484375 54.40625 C 441.210938 55.164062 439.996094 55.464844 438.769531 55.082031 C 437.542969 54.695312 436.769531 53.769531 437.039062 53.011719 C 437.3125 52.253906 438.527344 51.949219 439.753906 52.335938 C 440.980469 52.722656 441.753906 53.648438 441.484375 54.40625 Z M 441.484375 54.40625 "/>
<path style=" stroke:none;fill-rule:evenodd;fill:rgb(100%,100%,100%);fill-opacity:1;" d="M 60.625 310.28125 L 50.140625 300.46875 L 39.53125 310.144531 L 40.667969 295.835938 L 26.488281 293.570312 L 38.386719 285.535156 L 31.3125 273.039062 L 45.015625 277.332031 L 50.375 264.007812 L 55.5625 277.398438 L 69.324219 273.28125 L 62.085938 285.6875 L 73.882812 293.875 L 59.671875 295.957031 Z M 60.625 310.28125 "/>
<path style=" stroke:none;fill-rule:evenodd;fill:rgb(100%,100%,100%);fill-opacity:1;" d="M 131.535156 226.734375 L 123.277344 219.003906 L 114.921875 226.625 L 115.816406 215.355469 L 104.644531 213.574219 L 114.019531 207.242188 L 108.445312 197.402344 L 119.242188 200.78125 L 123.460938 190.289062 L 127.546875 200.835938 L 138.382812 197.59375 L 132.683594 207.363281 L 141.976562 213.8125 L 130.785156 215.453125 Z M 131.535156 226.734375 "/>
<path style=" stroke:none;fill-rule:evenodd;fill:rgb(100%,100%,100%);fill-opacity:1;" d="M 142.328125 403.84375 L 128.523438 396.886719 L 123.003906 411.328125 L 118.171875 396.644531 L 104.054688 402.953125 L 111.011719 389.15625 L 96.578125 383.636719 L 111.257812 378.796875 L 104.945312 364.6875 L 118.75 371.644531 L 124.269531 357.203125 L 129.105469 371.882812 L 143.21875 365.574219 L 136.261719 379.378906 L 150.695312 384.894531 L 136.015625 389.734375 Z M 142.328125 403.84375 "/>
<path style=" stroke:none;fill-rule:evenodd;fill:rgb(100%,100%,100%);fill-opacity:1;" d="M 205.382812 299.96875 L 194.933594 299.660156 L 189.894531 308.824219 L 184.9375 299.617188 L 174.488281 299.835938 L 179.984375 290.945312 L 174.558594 282 L 185.015625 282.3125 L 190.046875 273.144531 L 195.007812 282.355469 L 205.460938 282.132812 L 199.964844 291.023438 Z M 205.382812 299.96875 "/>
<path style=" stroke:none;fill-rule:evenodd;fill:rgb(100%,100%,100%);fill-opacity:1;" d="M 139.265625 328.464844 L 130.359375 322.523438 L 121.6875 328.78125 L 124.738281 318.699219 L 115.945312 312.601562 L 126.738281 312.3125 L 129.96875 302.277344 L 133.589844 312.1875 L 144.382812 312.085938 L 135.828125 318.5 Z M 139.265625 328.464844 "/>
</g>
</svg>
