<?xml version="1.0" encoding="UTF-8"?>
<svg xmlns="http://www.w3.org/2000/svg" xmlns:xlink="http://www.w3.org/1999/xlink" width="480pt" height="360pt" viewBox="0 0 480 360" version="1.1">
<g id="surface1">
<rect x="0" y="0" width="480" height="360" style="fill:rgb(100%,90.980392%,0%);fill-opacity:1;stroke:none;"/>
<path style=" stroke:none;fill-rule:evenodd;fill:rgb(0%,7.843137%,55.686275%);fill-opacity:1;" d="M 0 180 L 480 180 L 480 360 L 0 360 Z M 0 180 "/>
<path style=" stroke:none;fill-rule:evenodd;fill:rgb(85.490196%,0%,6.27451%);fill-opacity:1;" d="M 0 270 L 480 270 L 480 360 L 0 360 Z M 0 270 "/>
<path style=" stroke:none;fill-rule:evenodd;fill:rgb(0%,0%,0%);fill-opacity:1;" d="M 202.160156 218.125 L 147.84375 275.488281 L 146.886719 274.257812 L 201.203125 216.894531 Z M 202.160156 218.125 "/>
<path style=" stroke:none;fill-rule:evenodd;fill:rgb(0%,0%,0%);fill-opacity:1;" d="M 240 227.5 L 168.917969 302.433594 L 167.671875 301.253906 L 238.753906 226.320312 Z M 240 227.5 "/>
<path style="fill-rule:evenodd;fill:rgb(50.196078%,50.196078%,50.196078%);fill-opacity:1;stroke-width:4.1036;stroke-linecap:butt;stroke-linejoin:miter;stroke:rgb(0%,0%,0%);stroke-opacity:1;stroke-miterlimit:4;" d="M 478.34244 60.22348 L 478.346614 148.793037 L 496.06361 237.413281 L 513.771678 148.836201 L 513.805386 60.237398 Z M 478.34244 60.22348 " transform="matrix(-0.051414,-0.0509159,-0.0665942,0.0676135,198.772004,322.162234)"/>
<path style="fill-rule:evenodd;fill:rgb(50.196078%,50.196078%,50.196078%);fill-opacity:1;stroke-width:4.1036;stroke-linecap:butt;stroke-linejoin:miter;stroke:rgb(0%,0%,0%);stroke-opacity:1;stroke-miterlimit:4;" d="M 478.372083 60.241691 L 478.376257 148.811248 L 496.054792 237.402529 L 513.76286 148.82545 L 513.796568 60.226646 Z M 478.372083 60.241691 " transform="matrix(-0.051414,-0.0509159,-0.0665942,0.0676135,180.442709,292.892981)"/>
<path style="fill-rule:evenodd;fill:rgb(100%,87.45098%,0%);fill-opacity:1;stroke-width:1.25;stroke-linecap:butt;stroke-linejoin:miter;stroke:rgb(0%,0%,0%);stroke-opacity:1;stroke-miterlimit:4;" d="M 301.179192 272.83825 C 301.179192 272.83825 283.462431 609.453656 354.329475 609.453656 C 425.19652 609.453656 460.630042 574.013648 460.630042 574.013648 L 459.770907 388.98835 Z M 301.179192 272.83825 " transform="matrix(0.336458,0,0,0.483211,54.275371,-44.822805)"/>
<path style="fill-rule:evenodd;fill:rgb(0%,0%,76.862745%);fill-opacity:1;stroke-width:1.25;stroke-linecap:butt;stroke-linejoin:miter;stroke:rgb(0%,0%,0%);stroke-opacity:1;stroke-miterlimit:4;" d="M 344.46103 304.203951 C 344.46103 321.915871 336.612714 574.021732 372.046236 574.021732 C 407.479759 574.021732 460.630042 556.301728 460.630042 556.301728 L 459.770907 388.996434 Z M 344.46103 304.203951 " transform="matrix(0.336458,0,0,0.483211,54.275371,-44.822805)"/>
<path style="fill-rule:evenodd;fill:rgb(88.235294%,0%,0%);fill-opacity:1;stroke-width:1.25;stroke-linecap:butt;stroke-linejoin:miter;stroke:rgb(0%,0%,0%);stroke-opacity:1;stroke-miterlimit:4;" d="M 367.518362 321.155981 C 367.518362 338.875985 372.046236 538.581724 407.479759 538.581724 L 460.630042 538.581724 L 459.770907 388.98835 Z M 367.518362 321.155981 " transform="matrix(0.336458,0,0,0.483211,54.275371,-44.822805)"/>
<path style=" stroke:none;fill-rule:evenodd;fill:rgb(0%,0%,0%);fill-opacity:1;" d="M 154.652344 87.015625 L 208.96875 144.378906 L 209.925781 143.148438 L 155.609375 85.78125 Z M 154.652344 87.015625 "/>
<path style="fill-rule:evenodd;fill:rgb(100%,87.45098%,0%);fill-opacity:1;stroke-width:1.25;stroke-linecap:butt;stroke-linejoin:miter;stroke:rgb(0%,0%,0%);stroke-opacity:1;stroke-miterlimit:4;" d="M 301.179081 272.843774 C 301.179081 272.843774 265.744417 609.447926 372.048408 609.447926 C 460.630608 609.447926 460.630608 556.30168 478.343481 556.30168 L 460.621689 432.282512 Z M 301.179081 272.843774 " transform="matrix(0.437976,0,0,0.462536,7.223612,-7.633555)"/>
<path style="fill:none;stroke-width:2.3046;stroke-linecap:butt;stroke-linejoin:miter;stroke:rgb(0%,0%,0%);stroke-opacity:1;stroke-miterlimit:4;" d="M 269.591422 155.245116 C 270.727151 155.243637 297.904205 61.225804 388.534498 7.993639 " transform="matrix(0.288862,-0.0202939,-0.0375714,0.263157,101.352506,110.523503)"/>
<path style="fill-rule:evenodd;fill:rgb(0%,35.686275%,0%);fill-opacity:1;stroke-width:1.25;stroke-linecap:butt;stroke-linejoin:miter;stroke:rgb(0%,0%,0%);stroke-opacity:1;stroke-miterlimit:4;" d="M 421.366112 -20.334039 C 421.363935 -2.189048 416.797397 11.382763 410.042155 24.976476 C 404.424545 6.858289 400.985459 -2.204978 400.978184 -20.327576 C 400.989093 -38.45883 407.812163 -55.448798 413.432682 -69.039184 C 415.669216 -56.576334 421.377021 -38.465293 421.366112 -20.334039 Z M 421.366112 -20.334039 " transform="matrix(0.103914,-0.164931,0.218306,0.104821,131.90306,193.018453)"/>
<path style="fill-rule:evenodd;fill:rgb(100%,0%,0%);fill-opacity:1;stroke-width:1.25;stroke-linecap:butt;stroke-linejoin:miter;stroke:rgb(0%,0%,0%);stroke-opacity:1;stroke-miterlimit:4;" d="M 454.223014 -169.272903 C 454.228979 -165.215887 450.430129 -161.918474 445.732163 -161.91058 C 441.034198 -161.902686 437.239825 -165.219572 437.233859 -169.276587 C 437.227894 -173.333603 441.038105 -176.654282 445.724709 -176.63891 C 450.422675 -176.646804 454.228409 -173.353184 454.223014 -169.272903 Z M 454.223014 -169.272903 " transform="matrix(0.135642,-0.0754442,0.0662364,0.131057,133.209668,192.507561)"/>
<path style="fill-rule:evenodd;fill:rgb(0%,35.686275%,0%);fill-opacity:1;stroke-width:1.25;stroke-linecap:butt;stroke-linejoin:miter;stroke:rgb(0%,0%,0%);stroke-opacity:1;stroke-miterlimit:4;" d="M 421.379797 -20.325694 C 421.362684 -2.19813 416.810872 11.39071 410.05149 24.985338 C 404.408251 6.860128 400.984724 -2.198818 400.969412 -20.33046 C 400.986525 -38.458023 407.810257 -55.446006 413.454128 -69.033546 C 415.665368 -56.578236 421.364485 -38.457335 421.379797 -20.325694 Z M 421.379797 -20.325694 " transform="matrix(0.132461,0.0891274,-0.0953356,0.249187,135.749769,72.305279)"/>
<path style="fill-rule:evenodd;fill:rgb(0%,35.686275%,0%);fill-opacity:1;stroke-width:1.25;stroke-linecap:butt;stroke-linejoin:miter;stroke:rgb(0%,0%,0%);stroke-opacity:1;stroke-miterlimit:4;" d="M 421.374254 -20.324081 C 421.373305 -2.20165 416.806561 11.386734 410.031588 24.974468 C 404.425262 6.86624 400.994892 -2.191142 400.992944 -20.32987 C 400.993893 -38.4523 407.81944 -55.448243 413.431047 -69.033897 C 415.674931 -56.579653 421.372306 -38.462809 421.374254 -20.324081 Z M 421.374254 -20.324081 " transform="matrix(0.130909,-0.0230683,-0.0232723,0.243783,134.486288,119.448477)"/>
<path style="fill-rule:evenodd;fill:rgb(0%,35.686275%,0%);fill-opacity:1;stroke-width:1.25;stroke-linecap:butt;stroke-linejoin:miter;stroke:rgb(0%,0%,0%);stroke-opacity:1;stroke-miterlimit:4;" d="M 421.380142 -20.327444 C 421.372574 -2.193394 416.793106 11.397692 410.052734 24.981204 C 404.416709 6.860451 400.979049 -2.185668 400.970502 -20.325626 C 400.978071 -38.459677 407.824103 -55.444715 413.443735 -69.046783 C 415.669193 -56.582311 421.371596 -38.467403 421.380142 -20.327444 Z M 421.380142 -20.327444 " transform="matrix(0.0474538,0.1893,-0.129441,0.144834,170.985986,34.09092)"/>
<path style="fill-rule:evenodd;fill:rgb(0%,35.686275%,0%);fill-opacity:1;stroke-width:1.25;stroke-linecap:butt;stroke-linejoin:miter;stroke:rgb(0%,0%,0%);stroke-opacity:1;stroke-miterlimit:4;" d="M 421.377105 -20.32655 C 421.371782 -2.182671 416.809389 11.391061 410.04414 24.974755 C 404.423544 6.861636 400.976746 -2.188204 400.98207 -20.332084 C 400.975698 -38.463061 407.816035 -55.440058 413.437257 -69.041323 C 415.67095 -56.566743 421.370733 -38.457527 421.377105 -20.32655 Z M 421.377105 -20.32655 " transform="matrix(0.154909,-0.13929,0.140416,0.176499,112.700073,180.812408)"/>
<path style="fill-rule:evenodd;fill:rgb(0%,35.686275%,0%);fill-opacity:1;stroke-width:1.25;stroke-linecap:butt;stroke-linejoin:miter;stroke:rgb(0%,0%,0%);stroke-opacity:1;stroke-miterlimit:4;" d="M 421.37324 -20.322122 C 421.364543 -2.19669 416.803035 11.379427 410.042118 24.988009 C 404.407909 6.861047 400.987294 -2.189469 400.985465 -20.326547 C 400.983637 -38.463625 407.808166 -55.443888 413.44581 -69.036628 C 415.677023 -56.575685 421.371412 -38.4592 421.37324 -20.322122 Z M 421.37324 -20.322122 " transform="matrix(0.162626,-0.168256,0.188436,0.152071,101.674464,211.582622)"/>
<path style="fill-rule:evenodd;fill:rgb(0%,35.686275%,0%);fill-opacity:1;stroke-width:1.25;stroke-linecap:butt;stroke-linejoin:miter;stroke:rgb(0%,0%,0%);stroke-opacity:1;stroke-miterlimit:4;" d="M 421.374175 -20.333079 C 421.369999 -2.194813 416.796645 11.389723 410.033595 24.976909 C 404.410942 6.858295 400.975898 -2.193837 400.980074 -20.332103 C 400.977657 -38.452087 407.812415 -55.43695 413.437479 -69.026216 C 415.662828 -56.578488 421.371758 -38.453063 421.374175 -20.333079 Z M 421.374175 -20.333079 " transform="matrix(0.192489,0.0716468,-0.144247,0.239496,98.086025,110.742105)"/>
<path style="fill-rule:evenodd;fill:rgb(0%,35.686275%,0%);fill-opacity:1;stroke-width:1.25;stroke-linecap:butt;stroke-linejoin:miter;stroke:rgb(0%,0%,0%);stroke-opacity:1;stroke-miterlimit:4;" d="M 421.371999 -20.324731 C 421.36292 -2.189668 416.80678 11.391384 410.040535 24.986687 C 404.40738 6.85644 400.98747 -2.192498 400.979929 -20.335406 C 400.977507 -38.459629 407.815445 -55.437471 413.437647 -69.035918 C 415.680181 -56.57321 421.381078 -38.459794 421.371999 -20.324731 Z M 421.371999 -20.324731 " transform="matrix(0.113336,0.156607,-0.240112,0.16615,133.874873,77.512192)"/>
<path style="fill-rule:evenodd;fill:rgb(0%,35.686275%,0%);fill-opacity:1;stroke-width:1.25;stroke-linecap:butt;stroke-linejoin:miter;stroke:rgb(0%,0%,0%);stroke-opacity:1;stroke-miterlimit:4;" d="M 421.382907 -20.324131 C 421.35472 -2.193966 416.806621 11.390402 410.019023 24.987266 C 404.423156 6.853977 401.001507 -2.199469 400.967322 -20.328313 C 400.995509 -38.458478 407.791851 -55.440644 413.428514 -69.0306 C 415.656359 -56.566774 421.382846 -38.471147 421.382907 -20.324131 Z M 421.382907 -20.324131 " transform="matrix(0.0604832,0.0652207,-0.101386,0.12248,188.007543,76.97907)"/>
<path style="fill-rule:evenodd;fill:rgb(0%,35.686275%,0%);fill-opacity:1;stroke-width:1.25;stroke-linecap:butt;stroke-linejoin:miter;stroke:rgb(0%,0%,0%);stroke-opacity:1;stroke-miterlimit:4;" d="M 421.389757 -20.329643 C 421.375508 -2.196348 416.783376 11.391793 410.05913 24.991395 C 404.436661 6.866798 400.98666 -2.204221 400.953432 -20.33591 C 400.967681 -38.469204 407.813819 -55.438719 413.424532 -69.030985 C 415.686584 -56.584324 421.356529 -38.461332 421.389757 -20.329643 Z M 421.389757 -20.329643 " transform="matrix(0.0802978,0.00435677,-0.0585308,0.128824,178.571079,102.30648)"/>
<path style="fill-rule:evenodd;fill:rgb(0%,35.686275%,0%);fill-opacity:1;stroke-width:1.25;stroke-linecap:butt;stroke-linejoin:miter;stroke:rgb(0%,0%,0%);stroke-opacity:1;stroke-miterlimit:4;" d="M 421.396253 -20.346315 C 421.366512 -2.178875 416.830777 11.371476 410.034146 24.970744 C 404.408173 6.86836 400.99066 -2.196496 400.960106 -20.321243 C 400.967119 -38.448712 407.810484 -55.423825 413.412899 -69.013173 C 415.664595 -56.567999 421.3657 -38.471062 421.396253 -20.346315 Z M 421.396253 -20.346315 " transform="matrix(-0.00738853,0.108454,-0.101929,0.0616715,215.531815,60.845479)"/>
<path style="fill-rule:evenodd;fill:rgb(0%,35.686275%,0%);fill-opacity:1;stroke-width:1.25;stroke-linecap:butt;stroke-linejoin:miter;stroke:rgb(0%,0%,0%);stroke-opacity:1;stroke-miterlimit:4;" d="M 421.354523 -20.332039 C 421.375223 -2.187402 416.801299 11.38674 410.059144 24.985237 C 404.423204 6.859966 400.989176 -2.200731 400.981598 -20.321091 C 400.994435 -38.456786 407.797778 -55.446543 413.428843 -69.029667 C 415.657055 -56.57128 421.367359 -38.467734 421.354523 -20.332039 Z M 421.354523 -20.332039 " transform="matrix(0.0501342,0.0859598,-0.188,0.114433,165.514261,86.700849)"/>
<path style="fill-rule:evenodd;fill:rgb(0%,35.686275%,0%);fill-opacity:1;stroke-width:1.25;stroke-linecap:butt;stroke-linejoin:miter;stroke:rgb(0%,0%,0%);stroke-opacity:1;stroke-miterlimit:4;" d="M 421.367431 -20.330747 C 421.373525 -2.195454 416.807527 11.396173 410.041562 24.988813 C 404.412562 6.862749 400.977914 -2.200058 400.989146 -20.328601 C 400.983052 -38.463895 407.813063 -55.433452 413.439199 -69.033309 C 415.666522 -56.570936 421.378663 -38.45929 421.367431 -20.330747 Z M 421.367431 -20.330747 " transform="matrix(0.0975423,0.166975,-0.250322,0.150074,155.274487,52.583881)"/>
<path style="fill:none;stroke-width:2.3703;stroke-linecap:butt;stroke-linejoin:miter;stroke:rgb(0%,0%,0%);stroke-opacity:1;stroke-miterlimit:4;" d="M 269.594152 155.236092 C 270.725139 155.248124 297.907433 61.230524 388.527356 7.990737 " transform="matrix(0.264818,-0.147292,0.10598,0.209695,83.822517,170.86393)"/>
<path style="fill-rule:evenodd;fill:rgb(100%,0%,0%);fill-opacity:1;stroke-width:1.25;stroke-linecap:butt;stroke-linejoin:miter;stroke:rgb(0%,0%,0%);stroke-opacity:1;stroke-miterlimit:4;" d="M 454.210304 -169.286335 C 454.21627 -165.229378 450.406058 -161.908747 445.719454 -161.924118 C 441.021488 -161.916224 437.215754 -165.209797 437.22115 -169.290019 C 437.215184 -173.346976 441.036513 -176.631401 445.734479 -176.639295 C 450.432445 -176.647189 454.204339 -173.343292 454.210304 -169.286335 Z M 454.210304 -169.286335 " transform="matrix(0.135642,-0.0754442,0.0662373,0.131059,150.255412,168.465714)"/>
<path style="fill-rule:evenodd;fill:rgb(100%,0%,0%);fill-opacity:1;stroke-width:1.25;stroke-linecap:butt;stroke-linejoin:miter;stroke:rgb(0%,0%,0%);stroke-opacity:1;stroke-miterlimit:4;" d="M 454.231269 -169.285215 C 454.225874 -165.204993 450.404544 -161.920568 445.740419 -161.922999 C 441.042453 -161.915105 437.236719 -165.208677 437.230754 -169.265634 C 437.236149 -173.345857 441.034999 -176.643222 445.732965 -176.651116 C 450.41957 -176.635745 454.225304 -173.342172 454.231269 -169.285215 Z M 454.231269 -169.285215 " transform="matrix(0.135642,-0.0754442,0.0662373,0.131059,158.342338,163.693711)"/>
<path style="fill-rule:evenodd;fill:rgb(100%,0%,0%);fill-opacity:1;stroke-width:1.25;stroke-linecap:butt;stroke-linejoin:miter;stroke:rgb(0%,0%,0%);stroke-opacity:1;stroke-miterlimit:4;" d="M 454.222319 -169.296314 C 454.221094 -165.210063 450.410564 -161.921765 445.727604 -161.904472 C 441.033895 -161.935382 437.24285 -165.21881 437.233093 -169.274086 C 437.234318 -173.360337 441.044847 -176.648634 445.716826 -176.634953 C 450.421516 -176.635018 454.212561 -173.35159 454.222319 -169.296314 Z M 454.222319 -169.296314 " transform="matrix(0.140319,-0.0780457,0.0497514,0.0984394,125.108397,174.521802)"/>
<path style="fill-rule:evenodd;fill:rgb(100%,0%,0%);fill-opacity:1;stroke-width:1.25;stroke-linecap:butt;stroke-linejoin:miter;stroke:rgb(0%,0%,0%);stroke-opacity:1;stroke-miterlimit:4;" d="M 454.22479 -169.26449 C 454.212817 -165.226442 450.424018 -161.920916 445.719327 -161.920851 C 441.036366 -161.903558 437.223591 -165.204213 437.224816 -169.290464 C 437.236789 -173.328512 441.025588 -176.634038 445.730279 -176.634103 C 450.41324 -176.651396 454.226015 -173.35074 454.22479 -169.26449 Z M 454.22479 -169.26449 " transform="matrix(0.140319,-0.0780457,0.0497514,0.0984394,127.446311,173.507143)"/>
<path style="fill-rule:evenodd;fill:rgb(100%,0%,0%);fill-opacity:1;stroke-width:1.25;stroke-linecap:butt;stroke-linejoin:miter;stroke:rgb(0%,0%,0%);stroke-opacity:1;stroke-miterlimit:4;" d="M 454.225488 -169.270776 C 454.213516 -165.232728 450.424716 -161.927202 445.720026 -161.927137 C 441.037065 -161.909844 437.22429 -165.2105 437.225515 -169.29675 C 437.237487 -173.334799 441.026287 -176.640324 445.730978 -176.640389 C 450.413938 -176.657682 454.226713 -173.357027 454.225488 -169.270776 Z M 454.225488 -169.270776 " transform="matrix(0.140319,-0.0780457,0.0497514,0.0984394,126.102775,175.683598)"/>
<path style="fill-rule:evenodd;fill:rgb(100%,0%,0%);fill-opacity:1;stroke-width:1.25;stroke-linecap:butt;stroke-linejoin:miter;stroke:rgb(0%,0%,0%);stroke-opacity:1;stroke-miterlimit:4;" d="M 454.218774 -169.281499 C 454.222395 -165.20203 450.416869 -161.920427 445.72231 -161.913566 C 441.037977 -161.927643 437.228878 -165.220197 437.235264 -169.267081 C 437.231644 -173.34655 441.03717 -176.628153 445.731728 -176.635015 C 450.426286 -176.641876 454.215154 -173.360969 454.218774 -169.281499 Z M 454.218774 -169.281499 " transform="matrix(0.150714,-0.0838273,0.0735967,0.14562,134.044349,184.898626)"/>
<path style="fill-rule:evenodd;fill:rgb(100%,0%,0%);fill-opacity:1;stroke-width:1.25;stroke-linecap:butt;stroke-linejoin:miter;stroke:rgb(0%,0%,0%);stroke-opacity:1;stroke-miterlimit:4;" d="M 454.213342 -169.273643 C 454.227187 -165.215113 450.411436 -161.91257 445.727102 -161.926648 C 441.032544 -161.919786 437.223445 -165.21234 437.240056 -169.280163 C 437.226211 -173.338693 441.041962 -176.641236 445.73652 -176.648097 C 450.420853 -176.63402 454.229952 -173.341466 454.213342 -169.273643 Z M 454.213342 -169.273643 " transform="matrix(0.150714,-0.0838273,0.0735967,0.14562,135.767246,183.115776)"/>
<path style="fill-rule:evenodd;fill:rgb(100%,0%,0%);fill-opacity:1;stroke-width:1.25;stroke-linecap:butt;stroke-linejoin:miter;stroke:rgb(0%,0%,0%);stroke-opacity:1;stroke-miterlimit:4;" d="M 454.219756 -169.284303 C 454.223376 -165.204834 450.41785 -161.923231 445.723292 -161.916369 C 441.028734 -161.909508 437.229859 -165.223001 437.236245 -169.269885 C 437.232625 -173.349354 441.038151 -176.630957 445.732709 -176.637818 C 450.427267 -176.64468 454.20591 -173.342833 454.219756 -169.284303 Z M 454.219756 -169.284303 " transform="matrix(0.150714,-0.0838273,0.0735967,0.14562,136.200658,183.973335)"/>
<path style="fill-rule:evenodd;fill:rgb(0%,0%,76.862745%);fill-opacity:1;stroke-width:1.25;stroke-linecap:butt;stroke-linejoin:miter;stroke:rgb(0%,0%,0%);stroke-opacity:1;stroke-miterlimit:4;" d="M 336.613744 308.27182 C 336.604826 325.990051 301.179081 520.873695 389.761281 574.019941 C 425.195944 591.738172 478.343481 556.301711 478.343481 574.019941 L 460.630608 432.282543 Z M 336.613744 308.27182 " transform="matrix(0.437976,0,0,0.462536,7.223612,-7.633569)"/>
<path style="fill-rule:evenodd;fill:rgb(88.235294%,0%,0%);fill-opacity:1;stroke-width:1.25;stroke-linecap:butt;stroke-linejoin:miter;stroke:rgb(0%,0%,0%);stroke-opacity:1;stroke-miterlimit:4;" d="M 372.048408 343.699805 C 372.048408 361.418036 354.335536 503.146989 407.483072 538.58345 C 442.917736 574.011465 531.499936 564.400719 531.499936 564.400719 L 460.630608 432.282512 L 372.057327 343.699805 Z M 372.048408 343.699805 " transform="matrix(0.437976,0,0,0.462536,7.223612,-7.633555)"/>
<path style=" stroke:none;fill-rule:evenodd;fill:rgb(0%,0%,0%);fill-opacity:1;" d="M 137.886719 118.5625 L 208.96875 193.492188 L 210.214844 192.3125 L 139.132812 117.382812 Z M 137.886719 118.5625 "/>
<path style="fill-rule:evenodd;fill:rgb(80.784314%,80.784314%,80%);fill-opacity:1;stroke-width:1.25;stroke-linecap:butt;stroke-linejoin:miter;stroke:rgb(0%,0%,0%);stroke-opacity:1;stroke-miterlimit:4;" d="M 460.631305 184.237862 L 478.353027 219.681274 L 478.345725 237.386538 C 477.495353 236.092805 478.357672 255.116763 460.640596 255.10884 C 442.905133 255.124822 442.900488 219.689334 442.900488 219.689334 C 442.900488 219.689334 425.188057 255.116899 425.192702 290.552388 C 425.197347 325.987877 442.907123 343.701064 442.907123 343.701064 C 442.907123 343.701064 440.303409 306.996116 460.619554 308.273499 C 480.954084 309.526975 478.347715 325.96278 478.347715 325.96278 L 478.333974 361.422175 L 496.069437 361.406193 L 496.070103 219.689198 L 513.782534 184.261632 L 486.645494 131.117612 Z M 460.631305 184.237862 " transform="matrix(0.101606,-0.106087,0.0781437,0.0818087,64.764895,144.115128)"/>
<path style="fill-rule:evenodd;fill:rgb(80.784314%,80.784314%,80%);fill-opacity:1;stroke-width:1.25;stroke-linecap:butt;stroke-linejoin:miter;stroke:rgb(0%,0%,0%);stroke-opacity:1;stroke-miterlimit:4;" d="M 557.815727 95.674738 L 531.4799 166.529515 L 549.218543 219.695611 L 513.795841 201.97355 L 549.198067 255.111557 L 549.215398 290.536571 L 566.931868 290.543615 L 566.914537 255.118601 L 602.363111 201.982705 L 566.919933 219.676591 L 584.652036 166.533651 Z M 557.815727 95.674738 " transform="matrix(0.0782313,-0.119972,0.104606,0.0694173,85.489918,137.870897)"/>
<path style="fill-rule:evenodd;fill:rgb(88.235294%,0%,0%);fill-opacity:1;stroke-width:1.25;stroke-linecap:butt;stroke-linejoin:miter;stroke:rgb(0%,0%,0%);stroke-opacity:1;stroke-miterlimit:4;" d="M 422.533182 136.961698 C 422.533182 139.026727 420.571164 140.705612 418.154373 140.705612 C 415.750575 140.705612 413.788557 139.026727 413.788557 136.961698 C 413.788557 134.89667 415.750575 133.217785 418.154373 133.217785 C 420.571164 133.217785 422.533182 134.89667 422.533182 136.961698 Z M 416.283309 144.869247 C 416.283309 180.663078 437.202844 332.686124 438.866012 336.430038 C 439.00894 340.862294 434.149371 342.809801 431.784554 337.26948 C 425.23583 319.926597 411.046928 177.355674 410.462221 144.046594 C 410.215344 130.313313 414.217342 129.238827 418.778061 129.473871 C 422.546176 129.675337 427.106894 133.200996 427.106894 137.38142 C 427.106894 142.384497 421.285806 146.128411 416.283309 144.869247 Z M 416.283309 144.869247 " transform="matrix(0.300631,0,0,0.232669,32.813234,52.348063)"/>
<path style="fill-rule:evenodd;fill:rgb(0%,0%,76.862745%);fill-opacity:1;stroke-width:1.25;stroke-linecap:butt;stroke-linejoin:miter;stroke:rgb(0%,0%,0%);stroke-opacity:1;stroke-miterlimit:4;" d="M 422.525584 136.955126 C 422.528747 139.036414 420.578628 140.709504 418.156202 140.713871 C 415.746034 140.714434 413.791747 139.025151 413.78264 136.963505 C 413.785789 134.898054 415.748165 133.22116 418.158334 133.220597 C 420.568503 133.220034 422.528733 134.889676 422.525584 136.955126 Z M 416.287211 144.871184 C 447.777537 206.286242 465.004745 311.637888 466.679172 315.389519 C 466.811387 319.833372 461.949654 321.769442 459.598649 316.216719 C 457.123395 312.909411 446.925764 216.036504 410.462244 144.045098 C 410.221259 130.309281 414.218985 129.246477 418.783392 129.467162 C 422.548496 129.686765 427.116334 133.198863 427.104459 137.384886 C 427.113314 142.383145 421.27421 146.117525 416.287211 144.871184 Z M 416.287211 144.871184 " transform="matrix(0.283603,0.0681222,-0.113042,0.219487,57.038999,28.617674)"/>
<path style="fill-rule:evenodd;fill:rgb(88.235294%,0%,0%);fill-opacity:1;stroke-width:1.25;stroke-linecap:butt;stroke-linejoin:miter;stroke:rgb(0%,0%,0%);stroke-opacity:1;stroke-miterlimit:4;" d="M 422.533781 136.963487 C 422.533781 139.027418 420.571289 140.709521 418.161388 140.709521 C 415.751488 140.709521 413.788995 139.027418 413.788995 136.963487 C 413.788995 134.889236 415.751488 133.217452 418.161388 133.217452 C 420.571289 133.217452 422.533781 134.889236 422.533781 136.963487 Z M 416.290411 144.868342 C 416.290411 180.667224 437.206719 332.675736 438.864161 336.43209 C 439.006518 340.869542 434.146044 342.809637 431.786985 337.257663 C 425.238564 319.920643 411.043539 177.354615 410.453775 144.04277 C 410.209734 130.307309 414.216066 129.244385 418.781658 129.471417 C 422.54395 129.67781 427.109541 133.196813 427.109541 137.376273 C 427.109541 142.381305 421.283074 146.12734 416.290411 144.878662 Z M 416.290411 144.868342 " transform="matrix(0.384157,0,0,0.378525,-18.456233,62.292579)"/>
<path style="fill-rule:evenodd;fill:rgb(0%,0%,76.862745%);fill-opacity:1;stroke-width:1.25;stroke-linecap:butt;stroke-linejoin:miter;stroke:rgb(0%,0%,0%);stroke-opacity:1;stroke-miterlimit:4;" d="M 422.534452 136.962434 C 422.529205 139.031601 420.57855 140.709087 418.162156 140.704251 C 415.749642 140.70915 413.787614 139.031782 413.79286 136.962614 C 413.788515 134.896424 415.748763 133.215961 418.161277 133.211062 C 420.577671 133.215897 422.530107 134.896243 422.534452 136.962434 Z M 416.284723 144.864124 C 447.771942 206.284743 465.006075 311.642085 466.672825 315.391124 C 466.815274 319.83205 461.949861 321.768771 459.597934 316.21955 C 457.114662 312.909905 446.928953 216.041748 410.461437 144.04606 C 410.212994 130.306757 414.217487 129.238906 418.784174 129.473379 C 422.544031 129.684786 427.114114 133.200013 427.109549 137.380266 C 427.108231 142.379963 421.281895 146.124559 416.288603 144.873859 Z M 416.284723 144.864124 " transform="matrix(0.362399,0.110828,-0.144444,0.357082,12.501223,23.682419)"/>
<path style=" stroke:none;fill-rule:evenodd;fill:rgb(0%,0%,0%);fill-opacity:1;" d="M 277.839844 218.125 L 332.15625 275.488281 L 333.113281 274.257812 L 278.796875 216.894531 Z M 277.839844 218.125 "/>
<path style=" stroke:none;fill-rule:evenodd;fill:rgb(0%,0%,0%);fill-opacity:1;" d="M 240 227.5 L 311.082031 302.433594 L 312.328125 301.253906 L 241.246094 226.320312 Z M 240 227.5 "/>
<path style="fill-rule:evenodd;fill:rgb(50.196078%,50.196078%,50.196078%);fill-opacity:1;stroke-width:4.1036;stroke-linecap:butt;stroke-linejoin:miter;stroke:rgb(0%,0%,0%);stroke-opacity:1;stroke-miterlimit:4;" d="M 478.358696 60.235721 L 478.36287 148.805278 L 496.041404 237.396559 L 513.749473 148.81948 L 513.78318 60.220676 Z M 478.358696 60.235721 " transform="matrix(0.051414,-0.0509159,0.0665942,0.0676135,281.230251,322.162234)"/>
<path style="fill-rule:evenodd;fill:rgb(50.196078%,50.196078%,50.196078%);fill-opacity:1;stroke-width:4.1036;stroke-linecap:butt;stroke-linejoin:miter;stroke:rgb(0%,0%,0%);stroke-opacity:1;stroke-miterlimit:4;" d="M 478.349877 60.22497 L 478.354051 148.794527 L 496.071048 237.414771 L 513.779116 148.837691 L 513.812824 60.238888 Z M 478.349877 60.22497 " transform="matrix(0.051414,-0.0509159,0.0665942,0.0676135,299.559546,292.892981)"/>
<path style="fill-rule:evenodd;fill:rgb(100%,87.45098%,0%);fill-opacity:1;stroke-width:1.25;stroke-linecap:butt;stroke-linejoin:miter;stroke:rgb(0%,0%,0%);stroke-opacity:1;stroke-miterlimit:4;" d="M 301.177952 272.83825 C 301.177952 272.83825 283.461191 609.453656 354.328236 609.453656 C 425.19528 609.453656 460.628802 574.013648 460.628802 574.013648 L 459.769667 388.98835 Z M 301.177952 272.83825 " transform="matrix(-0.336458,0,0,0.483211,425.735931,-44.822805)"/>
<path style="fill-rule:evenodd;fill:rgb(0%,0%,76.862745%);fill-opacity:1;stroke-width:1.25;stroke-linecap:butt;stroke-linejoin:miter;stroke:rgb(0%,0%,0%);stroke-opacity:1;stroke-miterlimit:4;" d="M 344.459791 304.203951 C 344.459791 321.915871 336.611475 574.021732 372.044997 574.021732 C 407.478519 574.021732 460.628802 556.301728 460.628802 556.301728 L 459.769667 388.996434 Z M 344.459791 304.203951 " transform="matrix(-0.336458,0,0,0.483211,425.735931,-44.822805)"/>
<path style="fill-rule:evenodd;fill:rgb(88.235294%,0%,0%);fill-opacity:1;stroke-width:1.25;stroke-linecap:butt;stroke-linejoin:miter;stroke:rgb(0%,0%,0%);stroke-opacity:1;stroke-miterlimit:4;" d="M 367.517122 321.155981 C 367.517122 338.875985 372.044997 538.581724 407.478519 538.581724 L 460.628802 538.581724 L 459.769667 388.98835 Z M 367.517122 321.155981 " transform="matrix(-0.336458,0,0,0.483211,425.735931,-44.822805)"/>
<path style=" stroke:none;fill-rule:evenodd;fill:rgb(0%,0%,0%);fill-opacity:1;" d="M 325.359375 87.015625 L 271.042969 144.378906 L 270.085938 143.148438 L 324.402344 85.78125 Z M 325.359375 87.015625 "/>
<path style="fill-rule:evenodd;fill:rgb(0%,35.686275%,0%);fill-opacity:1;stroke-width:1.25;stroke-linecap:butt;stroke-linejoin:miter;stroke:rgb(0%,0%,0%);stroke-opacity:1;stroke-miterlimit:4;" d="M 428.177523 -16.93156 C 428.177523 -16.93156 509.735724 73.698075 539.169155 137.120744 C 568.631422 200.549445 593.557972 293.436627 593.557972 293.436627 C 593.557972 293.436627 595.807987 207.35699 557.309239 130.330707 C 505.191449 32.909382 425.894758 -12.397818 428.177523 -16.93156 Z M 428.177523 -16.93156 " transform="matrix(0.122724,-0.0552695,0.0609306,0.264252,232.136403,158.236999)"/>
<path style="fill-rule:evenodd;fill:rgb(0%,35.686275%,0%);fill-opacity:1;stroke-width:1.25;stroke-linecap:butt;stroke-linejoin:miter;stroke:rgb(0%,0%,0%);stroke-opacity:1;stroke-miterlimit:4;" d="M 428.177183 -16.929142 C 428.177183 -16.929142 509.736111 73.690924 539.170756 137.114765 C 568.626291 200.55472 593.546144 293.446089 593.546144 293.446089 C 593.546144 293.446089 595.814322 207.360579 557.29933 130.335231 C 505.21458 32.914285 425.895529 -12.401423 428.177183 -16.929142 Z M 428.177183 -16.929142 " transform="matrix(0.147112,-0.0383559,0.0517028,0.292121,218.615834,136.930976)"/>
<path style="fill-rule:evenodd;fill:rgb(0%,35.686275%,0%);fill-opacity:1;stroke-width:1.25;stroke-linecap:butt;stroke-linejoin:miter;stroke:rgb(0%,0%,0%);stroke-opacity:1;stroke-miterlimit:4;" d="M 428.158775 -16.929735 C 428.158775 -16.929735 509.72731 73.69452 539.174767 137.127101 C 568.622224 200.559682 593.559484 293.433227 593.559484 293.433227 C 593.559484 293.433227 595.806527 207.353628 557.293548 130.329929 C 505.204606 32.91817 425.910017 -12.394843 428.181876 -16.924844 Z M 428.158775 -16.929735 " transform="matrix(0.173655,0.105992,-0.0215601,0.298051,222.357198,52.055355)"/>
<path style="fill-rule:evenodd;fill:rgb(0%,35.686275%,0%);fill-opacity:1;stroke-width:1.25;stroke-linecap:butt;stroke-linejoin:miter;stroke:rgb(0%,0%,0%);stroke-opacity:1;stroke-miterlimit:4;" d="M 428.180452 -16.93229 C 428.180452 -16.93229 509.72709 73.693909 539.17128 137.125152 C 568.636748 200.554952 593.542542 293.438823 593.542542 293.438823 C 593.542542 293.438823 595.82198 207.3507 557.313218 130.328177 C 505.197754 32.907581 425.906183 -12.393324 428.180452 -16.93229 Z M 428.180452 -16.93229 " transform="matrix(0.184423,0.0224155,0.01237,0.330515,205.801558,86.1821)"/>
<path style="fill-rule:evenodd;fill:rgb(0%,35.686275%,0%);fill-opacity:1;stroke-width:1.25;stroke-linecap:butt;stroke-linejoin:miter;stroke:rgb(0%,0%,0%);stroke-opacity:1;stroke-miterlimit:4;" d="M 428.160366 -16.916785 C 428.160366 -16.916785 509.737445 73.680651 539.187912 137.121276 C 568.635648 200.548515 593.549977 293.442166 593.549977 293.442166 C 593.549977 293.442166 595.810144 207.357814 557.3071 130.329664 C 505.194814 32.912553 425.911353 -12.406356 428.186646 -16.92919 Z M 428.160366 -16.916785 " transform="matrix(0.135584,0.125638,-0.0276596,0.266168,247.491968,50.232955)"/>
<path style="fill-rule:evenodd;fill:rgb(0%,35.686275%,0%);fill-opacity:1;stroke-width:1.25;stroke-linecap:butt;stroke-linejoin:miter;stroke:rgb(0%,0%,0%);stroke-opacity:1;stroke-miterlimit:4;" d="M 428.174221 -16.926044 C 428.174221 -16.926044 509.717348 73.687599 539.183651 137.123478 C 568.626938 200.559437 593.560771 293.440445 593.560771 293.440445 C 593.560771 293.440445 595.821503 207.355887 557.303811 130.336205 C 505.202431 32.908515 425.899784 -12.392482 428.174221 -16.926044 Z M 428.174221 -16.926044 " transform="matrix(0.169814,0.00105946,0.0257414,0.302102,210.436646,106.394132)"/>
<path style="fill-rule:evenodd;fill:rgb(0%,35.686275%,0%);fill-opacity:1;stroke-width:1.25;stroke-linecap:butt;stroke-linejoin:miter;stroke:rgb(0%,0%,0%);stroke-opacity:1;stroke-miterlimit:4;" d="M 428.179986 -16.922144 C 428.179986 -16.922144 509.729955 73.684961 539.181525 137.124983 C 568.637386 200.552268 593.539951 293.442999 593.539951 293.442999 C 593.539951 293.442999 595.813961 207.349641 557.295562 130.3328 C 505.214583 32.917091 425.894924 -12.405748 428.179986 -16.922144 Z M 428.179986 -16.922144 " transform="matrix(0.148342,-0.0532484,0.049971,0.288749,217.602067,147.627578)"/>
<path style="fill-rule:evenodd;fill:rgb(0%,35.686275%,0%);fill-opacity:1;stroke-width:1.25;stroke-linecap:butt;stroke-linejoin:miter;stroke:rgb(0%,0%,0%);stroke-opacity:1;stroke-miterlimit:4;" d="M 428.171978 -16.921804 C 428.171978 -16.921804 509.730544 73.694378 539.183285 137.128713 C 568.639293 200.550136 593.558467 293.443152 593.558467 293.443152 C 593.558467 293.443152 595.80336 207.357907 557.302802 130.334905 C 505.195169 32.912795 425.898911 -12.403376 428.171978 -16.921804 Z M 428.171978 -16.921804 " transform="matrix(0.148618,-0.0245035,0.0375904,0.296305,219.513864,125.083848)"/>
<path style="fill-rule:evenodd;fill:rgb(0%,35.686275%,0%);fill-opacity:1;stroke-width:1.25;stroke-linecap:butt;stroke-linejoin:miter;stroke:rgb(0%,0%,0%);stroke-opacity:1;stroke-miterlimit:4;" d="M 428.177362 -16.925731 C 428.177362 -16.925731 509.716281 73.690033 539.170809 137.125575 C 568.625338 200.561117 593.549287 293.439133 593.549287 293.439133 C 593.549287 293.439133 595.823297 207.354324 557.29731 130.329373 C 505.197756 32.91366 425.908013 -12.393206 428.177362 -16.925731 Z M 428.177362 -16.925731 " transform="matrix(0.166764,0.11404,-0.0380221,0.282896,228.811333,49.134525)"/>
<path style="fill-rule:evenodd;fill:rgb(0%,35.686275%,0%);fill-opacity:1;stroke-width:1.25;stroke-linecap:butt;stroke-linejoin:miter;stroke:rgb(0%,0%,0%);stroke-opacity:1;stroke-miterlimit:4;" d="M 428.17984 -16.930821 C 428.17984 -16.930821 509.729707 73.69536 539.170412 137.121019 C 568.632647 200.555904 593.554073 293.441879 593.554073 293.441879 C 593.554073 293.441879 595.817195 207.357648 557.297834 130.335195 C 505.213753 32.911173 425.896253 -12.396234 428.17984 -16.930821 Z M 428.17984 -16.930821 " transform="matrix(0.182934,0.0396256,-0.00349473,0.330933,209.158882,73.249376)"/>
<path style="fill-rule:evenodd;fill:rgb(0%,35.686275%,0%);fill-opacity:1;stroke-width:1.25;stroke-linecap:butt;stroke-linejoin:miter;stroke:rgb(0%,0%,0%);stroke-opacity:1;stroke-miterlimit:4;" d="M 428.182043 -16.929299 C 428.182043 -16.929299 509.722643 73.68939 539.169652 137.128449 C 568.642784 200.554096 593.551125 293.436235 593.551125 293.436235 C 593.551125 293.436235 595.82162 207.34539 557.312737 130.325644 C 505.215056 32.901206 425.906704 -12.395692 428.182043 -16.929299 Z M 428.182043 -16.929299 " transform="matrix(0.127549,0.126933,-0.0428264,0.247231,254.219463,52.499088)"/>
<path style="fill-rule:evenodd;fill:rgb(0%,35.686275%,0%);fill-opacity:1;stroke-width:1.25;stroke-linecap:butt;stroke-linejoin:miter;stroke:rgb(0%,0%,0%);stroke-opacity:1;stroke-miterlimit:4;" d="M 428.161863 -16.925262 C 428.161863 -16.925262 509.719186 73.695539 539.18466 137.116666 C 568.627986 200.551271 593.541707 293.437593 593.541707 293.437593 C 593.541707 293.437593 595.824021 207.360432 557.303577 130.333452 C 505.200008 32.916707 425.899754 -12.39788 428.183563 -16.926062 Z M 428.161863 -16.925262 " transform="matrix(0.180245,0.0113744,0.00636748,0.308528,207.320362,96.011971)"/>
<path style="fill-rule:evenodd;fill:rgb(100%,87.45098%,0%);fill-opacity:1;stroke-width:1.25;stroke-linecap:butt;stroke-linejoin:miter;stroke:rgb(0%,0%,0%);stroke-opacity:1;stroke-miterlimit:4;" d="M 301.17921 272.843728 C 301.17921 272.843728 265.744546 609.44788 372.048537 609.44788 C 460.630737 609.44788 460.630737 556.301634 478.343609 556.301634 L 460.621818 432.282466 Z M 301.17921 272.843728 " transform="matrix(-0.437976,0,0,0.462536,472.792069,-7.633533)"/>
<path style="fill-rule:evenodd;fill:rgb(0%,0%,76.862745%);fill-opacity:1;stroke-width:1.25;stroke-linecap:butt;stroke-linejoin:miter;stroke:rgb(0%,0%,0%);stroke-opacity:1;stroke-miterlimit:4;" d="M 336.613873 308.271774 C 336.604954 325.990005 301.17921 520.873649 389.761409 574.019895 C 425.196073 591.738126 478.343609 556.301665 478.343609 574.019895 L 460.630737 432.282497 Z M 336.613873 308.271774 " transform="matrix(-0.437976,0,0,0.462536,472.792069,-7.633548)"/>
<path style="fill-rule:evenodd;fill:rgb(88.235294%,0%,0%);fill-opacity:1;stroke-width:1.25;stroke-linecap:butt;stroke-linejoin:miter;stroke:rgb(0%,0%,0%);stroke-opacity:1;stroke-miterlimit:4;" d="M 372.048537 343.699759 C 372.048537 361.41799 354.335665 503.146943 407.483201 538.583404 C 442.917864 574.01142 531.500064 564.400673 531.500064 564.400673 L 460.630737 432.282466 L 372.057456 343.699759 Z M 372.048537 343.699759 " transform="matrix(-0.437976,0,0,0.462536,472.792069,-7.633533)"/>
<path style=" stroke:none;fill-rule:evenodd;fill:rgb(0%,0%,0%);fill-opacity:1;" d="M 342.128906 118.5625 L 271.046875 193.492188 L 269.800781 192.3125 L 340.882812 117.382812 Z M 342.128906 118.5625 "/>
<path style="fill-rule:evenodd;fill:rgb(80.784314%,80.784314%,80%);fill-opacity:1;stroke-width:1.25;stroke-linecap:butt;stroke-linejoin:miter;stroke:rgb(0%,0%,0%);stroke-opacity:1;stroke-miterlimit:4;" d="M 460.629249 184.235197 L 478.350971 219.678609 L 478.34367 237.383873 C 477.493298 236.09014 478.355617 255.114098 460.63854 255.106174 C 442.903078 255.122157 442.898432 219.686668 442.898432 219.686668 C 442.898432 219.686668 425.186001 255.114234 425.190647 290.549723 C 425.195292 325.985212 442.905067 343.698399 442.905067 343.698399 C 442.905067 343.698399 440.301354 306.993451 460.617498 308.270834 C 480.952029 309.52431 478.345659 325.960115 478.345659 325.960115 L 478.331919 361.41951 L 496.067381 361.403527 L 496.068048 219.686532 L 513.780479 184.258967 L 486.643439 131.114947 Z M 460.629249 184.235197 " transform="matrix(-0.101606,-0.106087,-0.0781437,0.0818087,415.246406,144.115128)"/>
<path style="fill-rule:evenodd;fill:rgb(80.784314%,80.784314%,80%);fill-opacity:1;stroke-width:1.25;stroke-linecap:butt;stroke-linejoin:miter;stroke:rgb(0%,0%,0%);stroke-opacity:1;stroke-miterlimit:4;" d="M 557.815944 95.675115 L 531.480118 166.529892 L 549.218761 219.695987 L 513.796059 201.973926 L 549.198285 255.111933 L 549.215615 290.536948 L 566.932085 290.543992 L 566.914755 255.118977 L 602.363329 201.983081 L 566.92015 219.676967 L 584.652254 166.534027 Z M 557.815944 95.675115 " transform="matrix(-0.0782313,-0.119972,-0.104606,0.0694173,394.525763,137.870897)"/>
<path style="fill-rule:evenodd;fill:rgb(88.235294%,0%,0%);fill-opacity:1;stroke-width:1.25;stroke-linecap:butt;stroke-linejoin:miter;stroke:rgb(0%,0%,0%);stroke-opacity:1;stroke-miterlimit:4;" d="M 422.533724 136.961698 C 422.533724 139.026727 420.571706 140.705612 418.154915 140.705612 C 415.751117 140.705612 413.789099 139.026727 413.789099 136.961698 C 413.789099 134.89667 415.751117 133.217785 418.154915 133.217785 C 420.571706 133.217785 422.533724 134.89667 422.533724 136.961698 Z M 416.283851 144.869247 C 416.283851 180.663078 437.203386 332.686124 438.866554 336.430038 C 439.009482 340.862294 434.149913 342.809801 431.785096 337.26948 C 425.236372 319.926597 411.04747 177.355674 410.462763 144.046594 C 410.215886 130.313313 414.217884 129.238827 418.778603 129.473871 C 422.546718 129.675337 427.107436 133.200996 427.107436 137.38142 C 427.107436 142.384497 421.286348 146.128411 416.283851 144.869247 Z M 416.283851 144.869247 " transform="matrix(-0.300631,0,0,0.232669,447.214272,52.348063)"/>
<path style="fill-rule:evenodd;fill:rgb(0%,0%,76.862745%);fill-opacity:1;stroke-width:1.25;stroke-linecap:butt;stroke-linejoin:miter;stroke:rgb(0%,0%,0%);stroke-opacity:1;stroke-miterlimit:4;" d="M 422.524275 136.955532 C 422.527439 139.03682 420.57732 140.70991 418.167151 140.710473 C 415.744725 140.714841 413.790439 139.025557 413.793588 136.960106 C 413.78448 134.89846 415.746856 133.221566 418.157025 133.221003 C 420.579451 133.216636 422.527425 134.890082 422.524275 136.955532 Z M 416.285902 144.87159 C 447.776228 206.286649 465.003437 311.638294 466.677863 315.389925 C 466.810078 319.833779 461.948346 321.769848 459.597341 316.217126 C 457.122086 312.909817 446.924456 216.03691 410.460935 144.045504 C 410.219951 130.309687 414.217676 129.246884 418.782084 129.467568 C 422.547187 129.687172 427.115025 133.199269 427.115408 137.381488 C 427.112005 142.383552 421.272902 146.117931 416.285902 144.87159 Z M 416.285902 144.87159 " transform="matrix(-0.283603,0.0681222,0.113042,0.219487,422.972302,28.617674)"/>
<path style="fill-rule:evenodd;fill:rgb(88.235294%,0%,0%);fill-opacity:1;stroke-width:1.25;stroke-linecap:butt;stroke-linejoin:miter;stroke:rgb(0%,0%,0%);stroke-opacity:1;stroke-miterlimit:4;" d="M 422.52681 136.963487 C 422.52681 139.027418 420.574486 140.709521 418.154417 140.709521 C 415.744517 140.709521 413.792192 139.027418 413.792192 136.963487 C 413.792192 134.889236 415.744517 133.217452 418.154417 133.217452 C 420.574486 133.217452 422.52681 134.889236 422.52681 136.963487 Z M 416.28344 144.868342 C 416.28344 180.667224 437.199748 332.675736 438.867358 336.43209 C 439.009715 340.869542 434.149241 342.809637 431.790182 337.257663 C 425.241761 319.920643 411.046736 177.354615 410.456972 144.04277 C 410.212931 130.307309 414.219263 129.244385 418.784855 129.471417 C 422.547147 129.67781 427.112739 133.196813 427.112739 137.376273 C 427.112739 142.381305 421.276102 146.12734 416.28344 144.878662 Z M 416.28344 144.868342 " transform="matrix(-0.384157,0,0,0.378525,498.457461,62.292579)"/>
<path style="fill-rule:evenodd;fill:rgb(0%,0%,76.862745%);fill-opacity:1;stroke-width:1.25;stroke-linecap:butt;stroke-linejoin:miter;stroke:rgb(0%,0%,0%);stroke-opacity:1;stroke-miterlimit:4;" d="M 422.528777 136.964195 C 422.533122 139.030385 420.572875 140.710848 418.15648 140.706012 C 415.743966 140.710912 413.791531 139.030566 413.787185 136.964376 C 413.792432 134.895208 415.75268 133.214745 418.155601 133.212823 C 420.571996 133.217659 422.534024 134.895027 422.528777 136.964195 Z M 416.28864 144.862908 C 447.775859 206.283527 465.009992 311.64087 466.676742 315.389909 C 466.809598 319.833812 461.953778 321.767556 459.592258 316.221311 C 457.118579 312.90869 446.93287 216.040532 410.455761 144.047821 C 410.216911 130.305541 414.221404 129.23769 418.788091 129.472163 C 422.547948 129.68357 427.108439 133.201775 427.113466 137.37905 C 427.112148 142.378747 421.285812 146.123343 416.282928 144.87562 Z M 416.28864 144.862908 " transform="matrix(-0.362399,0.110828,0.144444,0.357082,467.49256,23.682419)"/>
<path style="fill-rule:evenodd;fill:rgb(88.235294%,0%,0%);fill-opacity:1;stroke-width:1.25;stroke-linecap:butt;stroke-linejoin:miter;stroke:rgb(0%,0%,0%);stroke-opacity:1;stroke-miterlimit:4;" d="M 478.352399 698.030633 C 496.065272 708.680151 515.437054 706.298578 531.499936 698.030633 L 531.499936 556.30168 L 496.065272 556.30168 C 513.787063 609.447926 513.787063 662.602618 478.352399 698.030633 Z M 478.352399 698.030633 " transform="matrix(0.437976,0,0,0.462536,7.223612,-7.633555)"/>
<path style="fill-rule:evenodd;fill:rgb(0%,0%,76.862745%);fill-opacity:1;stroke-width:1.25;stroke-linecap:butt;stroke-linejoin:miter;stroke:rgb(0%,0%,0%);stroke-opacity:1;stroke-miterlimit:4;" d="M 513.776175 609.449 C 513.776175 698.030769 471.308199 717.721445 471.308199 735.430292 C 489.034091 735.430292 500.782131 727.180176 513.776175 715.747123 C 531.502067 698.030769 533.207907 608.067725 531.502067 609.441493 L 513.776175 609.441493 Z M 513.776175 609.449 " transform="matrix(0.263342,0,0,0.520353,92.611408,-67.448659)"/>
<path style="fill-rule:evenodd;fill:rgb(0%,0%,76.862745%);fill-opacity:1;stroke-width:1.25;stroke-linecap:butt;stroke-linejoin:miter;stroke:rgb(0%,0%,0%);stroke-opacity:1;stroke-miterlimit:4;" d="M 478.354056 609.449 C 477.53822 661.216787 433.557238 709.088476 441.8491 719.688261 C 451.327631 729.162006 478.354056 698.038276 513.791008 715.75463 C 531.502067 698.038276 533.207907 608.075232 531.502067 609.456507 L 478.354056 609.456507 Z M 478.354056 609.449 " transform="matrix(0.263342,0,0,0.520353,92.611408,-67.448659)"/>
<path style="fill-rule:evenodd;fill:rgb(100%,87.45098%,0%);fill-opacity:1;stroke-width:1.25;stroke-linecap:butt;stroke-linejoin:miter;stroke:rgb(0%,0%,0%);stroke-opacity:1;stroke-miterlimit:4;" d="M 513.785791 609.446456 C 513.785791 698.028435 473.082988 703.917386 473.082988 727.540748 C 490.794047 727.540748 513.681958 714.625592 513.785791 715.751587 C 531.496851 698.028435 533.20269 608.072743 531.496851 609.446456 Z M 513.785791 609.446456 " transform="matrix(0.263342,0,0,0.346916,84.386219,38.253215)"/>
<path style="fill-rule:evenodd;fill:rgb(100%,87.45098%,0%);fill-opacity:1;stroke-width:1.25;stroke-linecap:butt;stroke-linejoin:miter;stroke:rgb(0%,0%,0%);stroke-opacity:1;stroke-miterlimit:4;" d="M 478.348839 609.446456 C 477.533003 661.219678 434.620025 705.155979 442.911887 715.751587 C 452.390418 725.221199 478.348839 698.028435 513.785791 715.751587 C 531.496851 698.028435 533.20269 608.072743 531.496851 609.446456 Z M 478.348839 609.446456 " transform="matrix(0.263342,0,0,0.346916,84.386219,38.253215)"/>
<path style="fill-rule:evenodd;fill:rgb(88.235294%,0%,0%);fill-opacity:1;stroke-width:1.25;stroke-linecap:butt;stroke-linejoin:miter;stroke:rgb(0%,0%,0%);stroke-opacity:1;stroke-miterlimit:4;" d="M 478.352528 698.031838 C 496.065401 708.681356 515.437183 706.282892 531.500064 698.014947 L 531.500064 556.294439 L 496.065401 556.294439 C 513.787192 609.449131 513.787192 662.595377 478.352528 698.023393 Z M 478.352528 698.031838 " transform="matrix(-0.437976,0,0,0.462536,472.792069,-7.626299)"/>
<path style="fill-rule:evenodd;fill:rgb(0%,0%,76.862745%);fill-opacity:1;stroke-width:1.25;stroke-linecap:butt;stroke-linejoin:miter;stroke:rgb(0%,0%,0%);stroke-opacity:1;stroke-miterlimit:4;" d="M 513.774591 609.447618 C 513.774591 698.029387 471.306615 717.720063 471.306615 735.42891 C 489.032508 735.42891 500.780547 727.178795 513.774591 715.745741 C 531.500484 698.029387 533.206323 608.066343 531.500484 609.447618 Z M 513.774591 609.447618 " transform="matrix(-0.263342,0,0,0.520353,387.399894,-67.444034)"/>
<path style="fill-rule:evenodd;fill:rgb(0%,0%,76.862745%);fill-opacity:1;stroke-width:1.25;stroke-linecap:butt;stroke-linejoin:miter;stroke:rgb(0%,0%,0%);stroke-opacity:1;stroke-miterlimit:4;" d="M 478.352472 609.447618 C 477.536636 661.222912 433.555655 709.087094 441.847516 719.686879 C 451.326048 729.168131 478.352472 698.036894 513.789424 715.753248 C 531.500484 698.036894 533.206323 608.07385 531.500484 609.455125 L 478.352472 609.455125 Z M 478.352472 609.447618 " transform="matrix(-0.263342,0,0,0.520353,387.399894,-67.444034)"/>
<path style="fill-rule:evenodd;fill:rgb(100%,87.45098%,0%);fill-opacity:1;stroke-width:1.25;stroke-linecap:butt;stroke-linejoin:miter;stroke:rgb(0%,0%,0%);stroke-opacity:1;stroke-miterlimit:4;" d="M 513.786005 609.447643 C 513.786005 698.029622 473.083202 703.918573 473.083202 727.541935 C 490.794262 727.541935 513.682172 714.62678 513.786005 715.752774 C 531.497065 698.029622 533.202904 608.07393 531.497065 609.447643 Z M 513.786005 609.447643 " transform="matrix(-0.263342,0,0,0.346916,395.629463,38.260616)"/>
<path style="fill-rule:evenodd;fill:rgb(100%,87.45098%,0%);fill-opacity:1;stroke-width:1.25;stroke-linecap:butt;stroke-linejoin:miter;stroke:rgb(0%,0%,0%);stroke-opacity:1;stroke-miterlimit:4;" d="M 478.349053 609.446456 C 477.533217 661.219678 434.62024 705.155979 442.912101 715.751587 C 452.390633 725.221199 478.349053 698.028435 513.786005 715.751587 C 531.497065 698.028435 533.202904 608.072743 531.497065 609.446456 Z M 478.349053 609.446456 " transform="matrix(-0.263342,0,0,0.346916,395.629463,38.253215)"/>
<path style="fill-rule:evenodd;fill:rgb(56.470588%,56.078431%,54.117647%);fill-opacity:1;stroke-width:4.4666;stroke-linecap:butt;stroke-linejoin:miter;stroke:rgb(0%,0%,0%);stroke-opacity:1;stroke-miterlimit:4;" d="M 198.576585 77.946835 L 108.895194 113.388139 L 198.576585 148.829443 L 243.39567 131.108791 L 265.826822 148.829443 L 288.214755 184.247521 L 310.645908 148.829443 L 333.07706 131.108791 L 1534.980571 131.108791 L 1534.980571 95.667487 L 333.07706 95.667487 L 310.645908 77.946835 C 310.645908 60.226183 315.356882 42.528756 333.07706 42.528756 C 350.797238 42.528756 387.318094 42.528756 422.75845 42.528756 C 422.75845 24.808104 377.896145 -10.633199 288.257975 -10.633199 C 198.576585 -10.633199 153.714279 24.808104 153.714279 42.528756 C 189.154636 42.528756 225.675491 42.528756 243.39567 42.528756 C 261.115848 42.528756 265.826822 60.226183 265.826822 77.946835 L 243.39567 95.667487 L 198.533365 77.946835 Z M 198.576585 77.946835 " transform="matrix(0.0903807,0,0,0.168192,163.353286,243.268886)"/>
<path style="fill-rule:evenodd;fill:rgb(71.764706%,30.196078%,0%);fill-opacity:1;stroke-width:1.723;stroke-linecap:butt;stroke-linejoin:miter;stroke:rgb(0%,0%,0%);stroke-opacity:1;stroke-miterlimit:4;" d="M 204.355436 95.667504 L 540.964565 95.667504 L 540.964565 113.396468 L 204.355436 113.396468 Z M 204.355436 95.667504 " transform="matrix(0.20856,0,0,0.205569,162.043738,250.946977)"/>
<path style="fill-rule:evenodd;fill:rgb(71.764706%,30.196078%,0%);fill-opacity:1;stroke-width:1.723;stroke-linecap:butt;stroke-linejoin:miter;stroke:rgb(0%,0%,0%);stroke-opacity:1;stroke-miterlimit:4;" d="M 204.355436 77.957541 L 540.964565 77.957541 L 540.964565 95.667504 L 204.355436 95.667504 Z M 204.355436 77.957541 " transform="matrix(0.20856,0,0,0.205569,162.043738,250.946977)"/>
<path style="fill-rule:evenodd;fill:rgb(71.764706%,30.196078%,0%);fill-opacity:1;stroke-width:1.723;stroke-linecap:butt;stroke-linejoin:miter;stroke:rgb(0%,0%,0%);stroke-opacity:1;stroke-miterlimit:4;" d="M 204.355436 60.228577 L 540.964565 60.228577 L 540.964565 77.957541 L 204.355436 77.957541 Z M 204.355436 60.228577 " transform="matrix(0.20856,0,0,0.205569,162.043738,250.946977)"/>
<path style="fill-rule:evenodd;fill:rgb(71.764706%,30.196078%,0%);fill-opacity:1;stroke-width:1.723;stroke-linecap:butt;stroke-linejoin:miter;stroke:rgb(0%,0%,0%);stroke-opacity:1;stroke-miterlimit:4;" d="M 204.355436 42.518615 L 540.964565 42.518615 L 540.964565 60.247579 L 204.355436 60.247579 Z M 204.355436 42.518615 " transform="matrix(0.20856,0,0,0.205569,162.043738,250.946977)"/>
<path style="fill-rule:evenodd;fill:rgb(71.764706%,30.196078%,0%);fill-opacity:1;stroke-width:1.723;stroke-linecap:butt;stroke-linejoin:miter;stroke:rgb(0%,0%,0%);stroke-opacity:1;stroke-miterlimit:4;" d="M 204.355436 24.808652 L 540.964565 24.808652 L 540.964565 42.518615 L 204.355436 42.518615 Z M 204.355436 24.808652 " transform="matrix(0.20856,0,0,0.205569,162.043738,250.946977)"/>
<path style="fill-rule:evenodd;fill:rgb(71.764706%,30.196078%,0%);fill-opacity:1;stroke-width:1.723;stroke-linecap:butt;stroke-linejoin:miter;stroke:rgb(0%,0%,0%);stroke-opacity:1;stroke-miterlimit:4;" d="M 204.355436 7.079688 L 540.964565 7.079688 L 540.964565 24.808652 L 204.355436 24.808652 Z M 204.355436 7.079688 " transform="matrix(0.20856,0,0,0.205569,162.043738,250.946977)"/>
<path style="fill-rule:evenodd;fill:rgb(71.764706%,30.196078%,0%);fill-opacity:1;stroke-width:1.723;stroke-linecap:butt;stroke-linejoin:miter;stroke:rgb(0%,0%,0%);stroke-opacity:1;stroke-miterlimit:4;" d="M 204.355436 -10.630274 L 540.964565 -10.630274 L 540.964565 7.079688 L 204.355436 7.079688 Z M 204.355436 -10.630274 " transform="matrix(0.20856,0,0,0.205569,162.043738,250.946977)"/>
<path style="fill-rule:evenodd;fill:rgb(56.470588%,56.078431%,54.117647%);fill-opacity:1;stroke-width:3.2546;stroke-linecap:butt;stroke-linejoin:miter;stroke:rgb(0%,0%,0%);stroke-opacity:1;stroke-miterlimit:4;" d="M 423.22957 60.241936 L 561.020841 184.249676 L 580.708281 184.249676 L 442.917011 60.241936 Z M 423.22957 60.241936 " transform="matrix(0.187699,0,0,0.205569,128.919615,236.381731)"/>
<path style="fill-rule:evenodd;fill:rgb(56.470588%,56.078431%,54.117647%);fill-opacity:1;stroke-width:3.2546;stroke-linecap:butt;stroke-linejoin:miter;stroke:rgb(0%,0%,0%);stroke-opacity:1;stroke-miterlimit:4;" d="M 423.22957 60.237768 L 561.020841 184.264511 L 580.708281 184.264511 L 442.917011 60.237768 Z M 423.22957 60.237768 " transform="matrix(0.187699,0,0,-0.205569,128.919615,286.64085)"/>
<path style="fill-rule:evenodd;fill:rgb(56.470588%,56.078431%,54.117647%);fill-opacity:1;stroke-width:3.0875;stroke-linecap:butt;stroke-linejoin:miter;stroke:rgb(0%,0%,0%);stroke-opacity:1;stroke-miterlimit:4;" d="M 425.191293 60.241936 L 425.191293 184.249676 L 442.908791 184.249676 L 442.908791 60.241936 Z M 425.191293 60.241936 " transform="matrix(0.208569,0,0,0.205569,119.673943,236.381731)"/>
<path style="fill-rule:evenodd;fill:rgb(56.470588%,56.078431%,54.117647%);fill-opacity:1;stroke-width:3.2546;stroke-linecap:butt;stroke-linejoin:miter;stroke:rgb(0%,0%,0%);stroke-opacity:1;stroke-miterlimit:4;" d="M 423.220997 60.241936 L 561.033079 184.249676 L 580.720519 184.249676 L 442.908437 60.241936 Z M 423.220997 60.241936 " transform="matrix(0.187699,0,0,0.205569,162.175131,236.381731)"/>
<path style="fill-rule:evenodd;fill:rgb(56.470588%,56.078431%,54.117647%);fill-opacity:1;stroke-width:3.2546;stroke-linecap:butt;stroke-linejoin:miter;stroke:rgb(0%,0%,0%);stroke-opacity:1;stroke-miterlimit:4;" d="M 423.220997 60.237768 L 561.033079 184.264511 L 580.720519 184.264511 L 442.908437 60.237768 Z M 423.220997 60.237768 " transform="matrix(0.187699,0,0,-0.205569,162.175131,286.64085)"/>
<path style="fill-rule:evenodd;fill:rgb(56.470588%,56.078431%,54.117647%);fill-opacity:1;stroke-width:3.0875;stroke-linecap:butt;stroke-linejoin:miter;stroke:rgb(0%,0%,0%);stroke-opacity:1;stroke-miterlimit:4;" d="M 425.194073 60.241936 L 425.194073 184.249676 L 442.911942 184.249676 L 442.911942 60.241936 Z M 425.194073 60.241936 " transform="matrix(0.208564,0,0,0.205569,178.796319,236.381731)"/>
<path style="fill-rule:evenodd;fill:rgb(56.470588%,56.078431%,54.117647%);fill-opacity:1;stroke-width:3.0875;stroke-linecap:butt;stroke-linejoin:miter;stroke:rgb(0%,0%,0%);stroke-opacity:1;stroke-miterlimit:4;" d="M 425.192507 60.241936 L 425.192507 184.249676 L 442.910376 184.249676 L 442.910376 60.241936 Z M 425.192507 60.241936 " transform="matrix(0.208564,0,0,0.205569,152.929458,236.381731)"/>
<path style="fill-rule:evenodd;fill:rgb(56.470588%,56.078431%,54.117647%);fill-opacity:1;stroke-width:3.0875;stroke-linecap:butt;stroke-linejoin:miter;stroke:rgb(0%,0%,0%);stroke-opacity:1;stroke-miterlimit:4;" d="M 425.19286 60.241936 L 425.19286 184.249676 L 442.910357 184.249676 L 442.910357 60.241936 Z M 425.19286 60.241936 " transform="matrix(0.208569,0,0,0.205569,145.540804,236.381731)"/>
<path style="fill-rule:evenodd;fill:rgb(100%,87.45098%,0%);fill-opacity:1;stroke-width:1.25;stroke-linecap:butt;stroke-linejoin:miter;stroke:rgb(0%,0%,0%);stroke-opacity:1;stroke-miterlimit:4;" d="M 655.50788 396.846051 C 655.50788 484.862923 599.95225 556.30168 531.491017 556.30168 C 463.029784 556.30168 407.474153 484.862923 407.474153 396.846051 C 407.474153 308.837624 463.029784 237.398868 531.491017 237.398868 C 599.943331 237.398868 655.50788 308.829179 655.50788 396.846051 Z M 637.795008 396.854497 C 637.795008 475.083271 590.168251 538.58345 531.491017 538.58345 C 472.813782 538.58345 425.195944 475.083271 425.195944 396.854497 C 425.195944 318.617277 472.813782 255.117098 531.491017 255.117098 C 590.168251 255.117098 637.795008 318.617277 637.795008 396.854497 Z M 637.795008 396.854497 " transform="matrix(0.437976,0,0,0.462536,7.223612,-7.633555)"/>
<path style="fill-rule:evenodd;fill:rgb(100%,87.45098%,0%);fill-opacity:1;stroke-width:1.25;stroke-linecap:butt;stroke-linejoin:miter;stroke:rgb(0%,0%,0%);stroke-opacity:1;stroke-miterlimit:4;" d="M 579.751013 249.940132 C 564.910016 241.866429 548.606325 237.398868 531.491017 237.398868 C 514.375708 237.398868 498.072017 241.866429 483.23102 249.940132 L 490.125306 266.264889 C 502.843612 259.086387 516.819478 255.117098 531.491017 255.117098 C 546.162555 255.117098 560.138422 259.086387 572.856728 266.264889 Z M 579.751013 249.940132 " transform="matrix(0.437976,0,0,0.462536,7.223612,-7.633555)"/>
<path style="fill-rule:evenodd;fill:rgb(100%,87.45098%,0%);fill-opacity:1;stroke-width:1.25;stroke-linecap:butt;stroke-linejoin:miter;stroke:rgb(0%,0%,0%);stroke-opacity:1;stroke-miterlimit:4;" d="M 579.751487 249.939584 C 564.91049 241.865881 548.606799 237.406765 531.491491 237.406765 C 514.376182 237.406765 498.072491 241.865881 483.231494 249.939584 L 490.12578 266.264341 C 502.844086 259.085839 516.819952 255.11655 531.491491 255.11655 C 546.163029 255.11655 560.138896 259.085839 572.857202 266.264341 Z M 579.751487 249.939584 " transform="matrix(0.437976,0,0,-0.462536,7.313248,359.480957)"/>
<path style=" stroke:none;fill-rule:evenodd;fill:rgb(65.490196%,81.176471%,100%);fill-opacity:1;" d="M 286.566406 175.921875 C 286.566406 212.128906 265.71875 241.480469 240.007812 241.480469 C 214.296875 241.480469 193.449219 212.128906 193.449219 175.921875 C 193.449219 139.71875 214.296875 110.367188 240.007812 110.367188 C 265.71875 110.367188 286.566406 139.71875 286.566406 175.921875 Z M 286.566406 175.921875 "/>
<path style="fill-rule:evenodd;fill:rgb(68.627451%,100%,48.235294%);fill-opacity:1;stroke-width:1.25;stroke-linecap:butt;stroke-linejoin:miter;stroke:rgb(0%,0%,0%);stroke-opacity:1;stroke-miterlimit:4;" d="M 637.803927 396.846051 C 638.936623 423.50785 633.166115 436.488269 625.906157 464.20573 C 623.997519 467.186919 614.944867 457.669071 609.459763 452.973487 C 603.983578 448.269457 601.646835 457.213025 594.922008 449.924735 C 588.197181 442.636445 583.880449 451.985387 578.939396 445.828767 C 574.007262 439.672146 527.638066 438.776945 527.575634 438.244891 C 532.168851 435.964661 555.848446 438.396906 552.049008 427.054874 C 547.750114 415.332804 520.957833 426.700172 517.35461 411.684436 C 514.919759 396.778489 463.796806 396.145092 460.14007 392.462943 C 461.584927 398.121291 499.86471 400.51131 498.954985 415.028773 C 498.116612 420.948925 461.263848 422.671766 457.705219 427.679826 C 454.663885 433.980017 486.638028 425.973876 487.824238 433.718212 C 487.743968 436.902089 483.115075 433.785775 466.463548 438.700937 C 458.133325 441.166963 481.919947 449.029534 472.876214 453.34508 C 463.823563 457.652181 444.612321 459.527036 445.441775 461.33433 C 448.376083 470.244117 490.134224 480.876744 485.978032 482.405342 C 471.217305 488.958892 463.422214 493.274438 456.349551 497.057931 C 437.111552 471.401122 425.204863 435.964661 425.204863 396.854497 C 456.920359 385.453347 450.168776 383.122446 508.84601 383.122446 C 567.523245 383.122446 586.823676 385.453347 637.795008 396.854497 Z M 637.803927 396.846051 " transform="matrix(0.437976,0,0,0.462536,7.223612,-7.633555)"/>
<path style="fill-rule:evenodd;fill:rgb(100%,100%,100%);fill-opacity:1;stroke-width:1.25;stroke-linecap:butt;stroke-linejoin:miter;stroke:rgb(0%,0%,0%);stroke-opacity:1;stroke-miterlimit:4;" d="M 637.803927 396.846051 C 629.732351 396.846051 621.348615 400.249505 612.732988 400.249505 C 604.117361 400.249505 595.260925 396.854497 586.261787 396.854497 C 577.262649 396.854497 566.979194 401.381175 557.748165 401.381175 C 548.526055 401.381175 540.365291 396.854497 531.07183 396.854497 C 521.787288 396.854497 512.511665 400.249505 503.325231 400.249505 C 494.129877 400.249505 485.032632 396.854497 476.104845 396.854497 C 467.168139 396.854497 458.40981 400.249505 449.90121 400.249505 C 441.392609 400.249505 433.133737 396.846051 425.204863 396.846051 C 425.204863 377.295192 428.174846 358.656424 433.561843 341.69827 C 460.630608 343.699805 444.603402 325.981575 460.630608 325.981575 C 469.290829 325.981575 478.066996 327.83954 485.871005 335.769672 C 488.323694 335.769672 500.355248 324.402304 513.787063 325.981575 C 527.218879 327.56929 522.277826 353.25988 540.160157 354.619573 C 549.221727 361.418036 554.546291 365.750472 566.934599 368.495193 C 584.647472 370.0998 635.288806 365.995386 635.636642 368.300952 C 637.054742 377.523215 637.803927 387.066399 637.803927 396.846051 Z M 637.803927 396.846051 " transform="matrix(0.437976,0,0,0.462536,7.223612,-7.633555)"/>
<path style="fill-rule:evenodd;fill:rgb(0%,0%,0%);fill-opacity:1;stroke-width:1.25;stroke-linecap:butt;stroke-linejoin:miter;stroke:rgb(0%,0%,0%);stroke-opacity:1;stroke-miterlimit:4;" d="M 549.860357 473.941538 C 549.860357 468.270795 563.349929 464.483084 563.349929 455.414223 C 563.349929 446.356184 551.43541 446.063989 550.978137 437.557874 C 550.774904 434.094824 561.292198 430.512732 565.890338 430.220537 C 570.488479 429.928343 574.400709 437.64445 574.400709 439.343509 C 574.400709 441.042567 569.726356 435.144561 565.814126 434.960587 C 561.901896 434.776612 553.493142 435.588264 553.493142 437.287323 C 553.493142 440.696262 568.354535 444.89521 567.211351 456.215053 C 566.093571 467.545719 554.509305 470.878904 554.509305 474.277021 C 554.509305 477.675139 559.56472 487.133593 559.56472 487.133593 C 559.56472 487.133593 549.860357 479.60146 549.860357 473.941538 Z M 549.860357 473.941538 " transform="matrix(0.153765,0,0,0.360954,162.91969,44.628344)"/>
<path style="fill-rule:evenodd;fill:rgb(0%,0%,0%);fill-opacity:1;stroke-width:1.25;stroke-linecap:butt;stroke-linejoin:miter;stroke:rgb(0%,0%,0%);stroke-opacity:1;stroke-miterlimit:4;" d="M 549.837497 473.937185 C 549.837497 468.277264 563.352473 464.478731 563.352473 455.420692 C 563.352473 446.351831 551.41255 446.070458 550.980681 437.55352 C 550.04073 433.592658 562.793583 431.017014 567.391724 430.72482 C 571.989864 430.432625 577.375532 438.646546 577.375532 440.345604 C 577.375532 442.044663 571.96446 435.15103 568.05223 434.967055 C 564.14 434.772259 553.495686 435.594733 553.495686 437.293792 C 553.495686 440.691909 568.357079 444.890857 567.213895 456.221522 C 566.096115 467.541366 554.51185 470.874551 554.51185 474.272668 C 554.51185 477.670786 559.567264 487.12924 559.567264 487.12924 C 559.567264 487.12924 549.837497 479.607929 549.837497 473.937185 Z M 549.837497 473.937185 " transform="matrix(-0.153765,0,0,0.360954,334.369764,44.336946)"/>
<path style=" stroke:none;fill-rule:evenodd;fill:rgb(0%,0%,0%);fill-opacity:1;" d="M 249.722656 198.632812 C 249.722656 199.632812 249.234375 200.445312 248.632812 200.445312 C 248.03125 200.445312 247.542969 199.632812 247.542969 198.632812 C 247.542969 197.636719 248.03125 196.824219 248.632812 196.824219 C 249.234375 196.824219 249.722656 197.636719 249.722656 198.632812 Z M 249.722656 198.632812 "/>
<path style=" stroke:none;fill-rule:evenodd;fill:rgb(0%,0%,0%);fill-opacity:1;" d="M 264.183594 204.230469 L 264.535156 204.230469 L 264.535156 218.863281 L 264.183594 218.863281 Z M 264.183594 204.230469 "/>
<path style=" stroke:none;fill-rule:evenodd;fill:rgb(0%,0%,0%);fill-opacity:1;" d="M 267.34375 203.121094 L 267.691406 203.121094 L 267.691406 217.753906 L 267.34375 217.753906 Z M 267.34375 203.121094 "/>
<path style=" stroke:none;fill-rule:evenodd;fill:rgb(0%,0%,0%);fill-opacity:1;" d="M 264.449219 210.921875 L 264.449219 210.554688 L 267.433594 211.066406 L 267.429688 211.4375 Z M 264.449219 210.921875 "/>
<path style="fill-rule:evenodd;fill:rgb(71.764706%,30.196078%,0%);fill-opacity:1;stroke-width:1.25;stroke-linecap:butt;stroke-linejoin:miter;stroke:rgb(0%,0%,0%);stroke-opacity:1;stroke-miterlimit:4;" d="M 497.260515 478.071975 C 497.260515 478.071975 523.312529 489.397117 528.976011 496.19558 C 534.639492 502.994043 532.3741 502.994043 532.3741 502.994043 L 590.14161 505.257382 C 590.14161 501.853928 600.335876 501.853928 602.601269 493.923795 C 604.866661 486.002108 604.866661 483.730323 604.866661 483.730323 L 586.743521 489.397117 L 587.876217 479.203645 L 572.018469 479.203645 L 569.753077 489.397117 L 535.772188 488.265447 L 538.037581 461.08004 L 531.241403 462.21171 L 530.108707 488.265447 C 528.976011 488.265447 498.393211 480.335315 497.260515 478.071975 Z M 497.260515 478.071975 " transform="matrix(0.437976,0,0,0.462536,5.239187,-7.109687)"/>
<path style="fill-rule:evenodd;fill:rgb(99.607843%,87.058824%,0%);fill-opacity:1;stroke-width:1.25;stroke-linecap:butt;stroke-linejoin:miter;stroke:rgb(99.607843%,87.058824%,0%);stroke-opacity:1;stroke-miterlimit:4;" d="M 440.527479 316.27793 C 440.527479 316.27793 478.174022 305.062577 532.641551 305.86488 C 587.109079 306.667183 624.746704 318.684839 623.952924 318.684839 C 623.150226 318.684839 613.535686 300.257204 613.535686 300.257204 C 613.535686 300.257204 575.086445 289.844154 531.838853 289.050296 C 488.59126 288.247993 450.944717 297.056437 451.747415 297.85874 Z M 440.527479 316.27793 " transform="matrix(0.437976,0,0,0.462536,7.223612,-7.633555)"/>
<path style=" stroke:none;fill-rule:evenodd;fill:rgb(21.960784%,66.27451%,97.647059%);fill-opacity:1;" d="M 229.554688 127.390625 L 239.726562 127.195312 L 239.828125 133.121094 L 229.65625 133.316406 Z M 229.554688 127.390625 "/>
<path style=" stroke:none;fill-rule:evenodd;fill:rgb(21.960784%,66.27451%,97.647059%);fill-opacity:1;" d="M 206.082031 130.617188 L 202.496094 136.453125 L 214.617188 134.960938 L 213.644531 129.125 Z M 206.082031 130.617188 "/>
<path style=" stroke:none;fill-rule:evenodd;fill:rgb(21.960784%,66.27451%,97.647059%);fill-opacity:1;" d="M 216.414062 128.371094 L 226.554688 127.480469 L 227.019531 133.386719 L 216.878906 134.277344 Z M 216.414062 128.371094 "/>
<path style=" stroke:none;fill-rule:evenodd;fill:rgb(21.960784%,66.27451%,97.647059%);fill-opacity:1;" d="M 253.042969 127.765625 L 242.890625 127.082031 L 242.53125 133 L 252.6875 133.679688 Z M 253.042969 127.765625 "/>
<path style=" stroke:none;fill-rule:evenodd;fill:rgb(21.960784%,66.27451%,97.647059%);fill-opacity:1;" d="M 274.929688 131.480469 L 278.617188 138.746094 L 267.636719 136.039062 L 268.859375 130.253906 Z M 274.929688 131.480469 "/>
<path style=" stroke:none;fill-rule:evenodd;fill:rgb(21.960784%,66.27451%,97.647059%);fill-opacity:1;" d="M 266.128906 129.367188 L 256.039062 127.992188 L 255.320312 133.871094 L 265.410156 135.246094 Z M 266.128906 129.367188 "/>
<path style="fill-rule:evenodd;fill:rgb(100%,87.45098%,0%);fill-opacity:1;stroke-width:1.25;stroke-linecap:butt;stroke-linejoin:miter;stroke:rgb(0%,0%,0%);stroke-opacity:1;stroke-miterlimit:4;" d="M 532.641551 323.490212 L 530.063998 310.019966 L 522.518635 321.480232 L 525.292403 308.052212 L 513.947603 315.745876 L 521.653505 304.403844 L 508.221689 307.182346 L 519.673516 299.640697 L 506.197106 297.056437 L 519.673516 294.480622 L 508.221689 286.947418 L 521.653505 289.717475 L 513.947603 278.366997 L 525.292403 286.069107 L 522.518635 272.641087 L 530.063998 284.101353 L 532.641551 270.631106 L 535.210185 284.101353 L 542.746629 272.641087 L 539.981779 286.069107 L 551.32658 278.366997 L 543.620678 289.717475 L 557.061412 286.947418 L 545.600666 294.480622 L 559.068158 297.056437 L 545.600666 299.640697 L 557.061412 307.182346 L 543.620678 304.403844 L 551.32658 315.745876 L 539.981779 308.052212 L 542.746629 321.480232 L 535.210185 310.019966 Z M 532.641551 323.490212 " transform="matrix(0.437976,0,0,0.462536,7.223612,-7.633555)"/>
<path style="fill-rule:evenodd;fill:rgb(100%,87.45098%,0%);fill-opacity:1;stroke-width:1.25;stroke-linecap:butt;stroke-linejoin:miter;stroke:rgb(0%,0%,0%);stroke-opacity:1;stroke-miterlimit:4;" d="M 547.046181 293.857785 C 547.046181 303.151026 540.418699 310.680881 532.232887 310.680881 C 524.047075 310.680881 517.410426 303.151026 517.410426 293.857785 C 517.410426 284.574679 524.047075 277.044823 532.232887 277.044823 C 540.418699 277.044823 547.046181 284.574679 547.046181 293.857785 Z M 547.046181 293.857785 " transform="matrix(0.426137,0,0,0.385445,13.699525,16.316077)"/>
<path style=" stroke:none;fill-rule:evenodd;fill:rgb(0%,0%,0%);fill-opacity:1;" d="M 240.507812 127.914062 C 240.507812 128.324219 239.5625 128.65625 238.402344 128.65625 C 237.238281 128.65625 236.296875 128.324219 236.296875 127.914062 C 236.296875 127.503906 237.238281 127.171875 238.402344 127.171875 C 239.5625 127.171875 240.507812 127.503906 240.507812 127.914062 Z M 240.507812 127.914062 "/>
<path style=" stroke:none;fill-rule:evenodd;fill:rgb(0%,0%,0%);fill-opacity:1;" d="M 245.066406 127.914062 C 245.066406 128.324219 244.359375 128.65625 243.488281 128.65625 C 242.617188 128.65625 241.910156 128.324219 241.910156 127.914062 C 241.910156 127.503906 242.617188 127.171875 243.488281 127.171875 C 244.359375 127.171875 245.066406 127.503906 245.066406 127.914062 Z M 245.066406 127.914062 "/>
<path style="fill:none;stroke-width:1.25;stroke-linecap:butt;stroke-linejoin:miter;stroke:rgb(0%,0%,0%);stroke-opacity:1;stroke-miterlimit:4;" d="M 529.432749 297.863873 L 530.228436 298.663316 C 528.326921 296.761156 529.233466 297.531784 531.830289 301.859573 C 534.225998 301.371406 534.919227 300.475765 536.642612 299.46252 " transform="matrix(0.419936,-0.131383,0.124407,0.443484,-20.03645,67.972516)"/>
<path style="fill:none;stroke-width:1.25;stroke-linecap:butt;stroke-linejoin:miter;stroke:rgb(0%,0%,0%);stroke-opacity:1;stroke-miterlimit:4;" d="M 527.830784 304.26875 L 528.633483 305.071053 C 526.724845 303.170861 527.509705 304.074508 531.835356 306.675659 C 535.857766 307.216158 539.92477 305.476427 542.243676 302.664144 " transform="matrix(0.437976,0,0,0.462536,6.522019,-7.633569)"/>
<path style=" stroke:none;fill-rule:evenodd;fill:rgb(71.764706%,88.235294%,100%);fill-opacity:1;" d="M 212.441406 145.328125 C 212.441406 145.328125 213.144531 151.253906 208.582031 158.664062 C 204.023438 166.074219 204.722656 163.480469 204.722656 163.480469 C 204.722656 163.480469 206.828125 167.554688 206.476562 167.554688 C 206.128906 167.554688 202.96875 163.851562 202.96875 163.851562 L 199.113281 167.925781 C 199.113281 167.925781 202.621094 161.628906 202.269531 161.628906 C 201.917969 161.628906 201.214844 159.40625 201.214844 159.40625 L 204.023438 158.292969 C 204.023438 158.292969 208.230469 150.511719 208.230469 150.882812 C 208.230469 151.253906 195.601562 159.40625 195.601562 159.40625 Z M 212.441406 145.328125 "/>
<path style=" stroke:none;fill-rule:evenodd;fill:rgb(71.764706%,88.235294%,100%);fill-opacity:1;" d="M 215.25 147.550781 C 214.898438 147.550781 217.003906 153.480469 218.757812 156.441406 C 220.511719 159.40625 220.511719 163.113281 220.511719 163.113281 L 226.476562 166.074219 L 218.757812 154.589844 L 223.667969 156.441406 Z M 215.25 147.550781 "/>
<path style=" stroke:none;fill-rule:evenodd;fill:rgb(71.764706%,88.235294%,100%);fill-opacity:1;" d="M 215.25 163.113281 C 215.25 163.113281 219.457031 167.558594 219.808594 169.039062 C 220.160156 170.519531 220.160156 173.855469 220.160156 173.855469 L 218.40625 170.148438 L 215.949219 173.484375 C 215.949219 173.484375 217.703125 168.296875 217.355469 167.925781 C 217.003906 167.558594 214.546875 169.78125 214.546875 169.78125 C 214.546875 169.78125 215.601562 166.816406 215.601562 166.445312 C 215.601562 166.074219 215.601562 164.222656 215.25 163.113281 Z M 215.25 163.113281 "/>
<path style=" stroke:none;fill-rule:evenodd;fill:rgb(71.764706%,88.235294%,100%);fill-opacity:1;" d="M 194.199219 173.480469 C 195.601562 172.371094 198.410156 171.628906 198.410156 171.628906 C 198.410156 171.628906 196.65625 174.59375 196.304688 174.59375 C 195.953125 174.59375 194.902344 174.59375 194.199219 173.480469 Z M 194.199219 173.480469 "/>
<path style=" stroke:none;fill-rule:evenodd;fill:rgb(71.764706%,88.235294%,100%);fill-opacity:1;" d="M 242.609375 157.183594 C 242.609375 157.183594 251.730469 162.738281 251.730469 163.109375 C 251.730469 163.480469 245.765625 160.515625 245.765625 160.515625 Z M 242.609375 157.183594 "/>
<path style=" stroke:none;fill-rule:evenodd;fill:rgb(71.764706%,88.235294%,100%);fill-opacity:1;" d="M 226.125 145.695312 C 226.824219 146.066406 239.453125 156.441406 239.101562 156.441406 C 238.753906 156.441406 233.492188 153.476562 233.492188 153.847656 L 233.492188 156.441406 L 230.683594 150.511719 L 229.984375 152.734375 Z M 226.125 145.695312 "/>
<path style=" stroke:none;fill-rule:evenodd;fill:rgb(71.764706%,88.235294%,100%);fill-opacity:1;" d="M 229.277344 162.367188 L 232.785156 169.40625 L 236.292969 168.664062 C 236.292969 168.664062 229.628906 162.367188 229.277344 162.367188 Z M 229.277344 162.367188 "/>
<path style=" stroke:none;fill-rule:evenodd;fill:rgb(71.764706%,88.235294%,100%);fill-opacity:1;" d="M 240.15625 157.921875 C 240.15625 159.035156 240.507812 164.589844 240.507812 164.589844 C 240.507812 164.589844 242.613281 166.441406 242.613281 166.070312 C 242.613281 165.703125 240.507812 158.292969 240.15625 157.921875 Z M 240.15625 157.921875 "/>
<path style=" stroke:none;fill-rule:evenodd;fill:rgb(59.607843%,25.098039%,0%);fill-opacity:1;" d="M 136.957031 67.140625 C 136.957031 67.140625 152.695312 58.433594 170.609375 51.953125 C 188.527344 45.46875 208.621094 41.207031 211.277344 41.207031 C 216.585938 41.207031 225.6875 54.542969 227.203125 54.542969 C 228.71875 54.542969 234.785156 50.839844 242.371094 50.839844 C 249.953125 50.839844 254.503906 56.769531 256.019531 56.769531 L 269.671875 56.769531 C 271.1875 56.769531 265.121094 41.949219 269.671875 42.6875 C 271.945312 43.058594 291.28125 46.023438 309.292969 51.859375 C 327.304688 57.695312 352.871094 67.996094 352.871094 67.996094 C 352.871094 67.996094 311.085938 73.574219 300.007812 71.925781 C 298.488281 72.664062 299.929688 81.726562 297.804688 77.742188 C 294.316406 76.941406 281.496094 74.945312 279.222656 74.945312 C 276.949219 74.945312 272.707031 77.515625 266.640625 78.996094 C 260.570312 80.480469 252.988281 82.703125 252.988281 82.703125 L 262.847656 98.261719 L 250.714844 104.191406 C 250.714844 104.191406 243.128906 86.40625 240.097656 86.40625 C 237.0625 86.40625 235.546875 99.003906 231.753906 98.261719 C 227.964844 97.523438 226.445312 86.40625 223.414062 83.441406 C 220.378906 80.480469 204.386719 79.402344 198.320312 77.917969 C 192.253906 76.4375 182.460938 75.292969 177.152344 73.808594 C 171.84375 72.328125 166.535156 77.515625 164.261719 77.515625 C 161.984375 77.515625 167.292969 73.070312 165.019531 72.328125 C 162.746094 71.585938 161.226562 74.550781 159.710938 74.550781 C 158.195312 74.550781 142.269531 71.585938 140.753906 70.847656 C 139.234375 70.105469 144.542969 67.140625 143.027344 67.140625 Z M 136.957031 67.140625 "/>
<path style="fill-rule:evenodd;fill:rgb(50.196078%,50.196078%,50.196078%);fill-opacity:1;stroke-width:3.7057;stroke-linecap:butt;stroke-linejoin:miter;stroke:rgb(46.666667%,14.901961%,0%);stroke-opacity:1;stroke-miterlimit:4;" d="M 462.904552 -64.934341 C 462.904552 -43.779525 442.413419 -26.634444 417.114842 -26.634444 C 391.840065 -26.634444 371.325133 -43.779525 371.325133 -64.934341 C 371.325133 -86.089158 391.840065 -103.234238 417.114842 -103.234238 C 442.413419 -103.234238 462.904552 -86.089158 462.904552 -64.934341 Z M 462.904552 -64.934341 " transform="matrix(0.164133,0,0,0.197761,173.721077,72.388343)"/>
<path style="fill-rule:evenodd;fill:rgb(59.607843%,25.098039%,0%);fill-opacity:1;stroke-width:5.25;stroke-linecap:butt;stroke-linejoin:miter;stroke:rgb(46.666667%,14.901961%,0%);stroke-opacity:1;stroke-miterlimit:4;" d="M 284.732367 -59.952557 C 291.39615 -66.609946 299.735398 -76.596031 321.364134 -76.596031 C 326.371491 -78.260378 326.371491 -88.246463 338.023592 -88.246463 C 349.675692 -88.246463 346.343801 -78.260378 354.683049 -74.931684 C 363.003259 -71.602989 431.278476 -78.260378 431.278476 -78.260378 C 431.278476 -78.260378 437.92322 -73.267336 437.92322 -66.609946 C 437.92322 -59.952557 432.934902 -54.943197 431.278476 -54.943197 C 429.60301 -54.943197 363.003259 -59.952557 358.014941 -58.271892 C 353.007584 -56.607545 349.675692 -54.943197 338.023592 -54.943197 C 326.371491 -54.943197 323.0396 -66.609946 314.71939 -66.609946 C 306.380142 -66.609946 298.059933 -68.274294 284.732367 -59.952557 Z M 284.732367 -59.952557 " transform="matrix(0.205167,0,0,0.239396,154.04329,75.489099)"/>
<path style="fill:none;stroke-width:3.5;stroke-linecap:butt;stroke-linejoin:miter;stroke:rgb(46.666667%,14.901961%,0%);stroke-opacity:1;stroke-miterlimit:4;" d="M 487.882553 -76.595058 L 514.518646 -76.595058 C 524.095454 -76.480838 527.389267 -73.592706 536.166421 -73.266363 L 559.489662 -73.266363 C 567.962186 -73.576389 572.436441 -75.567079 581.137437 -76.595058 C 595.626406 -76.774546 590.676167 -77.900428 587.782181 -86.581143 C 585.154746 -93.156947 584.831077 -96.191933 581.137437 -99.912239 C 579.728523 -107.858682 576.472789 -110.681546 576.13008 -119.884409 C 574.60693 -126.917092 571.789102 -131.649061 574.473654 -139.872895 C 578.30057 -134.227167 579.861799 -131.910135 589.457646 -131.551158 C 599.4914 -131.551158 603.394473 -131.746963 609.429956 -128.222463 C 614.094604 -123.327323 620.320482 -124.893768 629.421305 -124.893768 C 637.094176 -123.474178 638.369814 -119.574383 644.405298 -116.555714 C 651.506986 -112.623285 656.095477 -111.562671 666.053073 -111.562671 C 674.011534 -110.143081 680.922829 -108.984565 686.025383 -106.569629 C 690.290204 -101.495001 696.973026 -100.238582 706.016732 -99.912239 C 711.062168 -99.912239 714.965241 -100.434387 719.325259 -101.576587 C 727.017168 -101.201293 734.804275 -101.576587 744.304925 -101.576587 C 750.473685 -94.364414 751.901638 -91.721039 762.620809 -91.590502 C 769.97001 -86.434288 776.157808 -85.553163 782.612158 -83.252448 L 807.591825 -83.252448 C 816.521294 -82.567128 819.377201 -78.912091 827.564135 -76.595058 C 835.674911 -72.8258 843.290663 -70.247694 849.21191 -68.273321 C 855.114118 -66.984267 862.786988 -66.608973 870.859685 -66.608973 C 877.047484 -63.427133 884.472842 -63.149741 889.175569 -59.951584 C 896.067825 -58.466725 905.473279 -56.737109 910.823344 -54.958541 C 919.638577 -53.783708 923.008548 -51.009795 930.795654 -49.949182 C 937.516555 -48.040077 928.587086 -46.392047 924.150911 -44.956139 C 914.32659 -45.331433 913.603094 -48.904885 904.159561 -49.949182 C 899.133165 -52.886265 891.517413 -52.510971 884.187252 -54.958541 L 882.511786 -54.958541 C 889.118451 -51.04243 895.458565 -48.529591 892.507461 -41.627445 C 884.015897 -41.627445 877.142681 -42.720692 869.203259 -43.291792 C 860.806893 -44.907188 856.960938 -46.620487 847.555484 -46.620487 C 856.941899 -48.888568 859.397979 -46.359413 865.871368 -43.291792 C 868.27033 -35.231129 863.148736 -38.29875 854.200228 -38.29875 C 846.603515 -41.023711 842.034064 -44.287137 832.571492 -44.956139 L 812.580143 -44.956139 C 822.461581 -44.597163 824.555913 -40.860539 830.896026 -36.634402 C 831.41009 -34.039978 830.762751 -34.154198 825.907709 -33.305707 C 820.748037 -37.776601 814.008096 -39.310412 805.91636 -41.627445 C 798.034056 -41.904836 789.694808 -42.590155 782.612158 -44.956139 C 777.738077 -45.266165 778.499652 -51.140332 789.275941 -41.627445 C 795.806449 -37.792919 798.110214 -34.676346 797.596151 -31.64136 C 789.028429 -33.778904 784.763608 -37.221819 779.280267 -39.963097 C 771.550278 -42.818595 765.153047 -43.291792 755.957026 -43.291792 C 747.351226 -45.559873 756.851877 -46.865244 762.620809 -38.29875 C 775.015446 -29.53645 761.002462 -33.28939 755.957026 -34.970055 C 748.45551 -37.107599 740.687443 -40.158903 734.32829 -41.627445 C 729.282854 -43.063352 724.884758 -44.482943 719.325259 -44.956139 C 727.969137 -44.172917 730.901202 -41.137931 734.32829 -34.970055 C 743.067366 -28.932716 733.928463 -31.8698 725.989042 -33.305707 C 720.924567 -37.711333 714.508295 -39.963097 711.005049 -44.956139 C 702.665801 -49.133325 702.437328 -53.946879 707.673158 -43.291792 C 709.043993 -39.881511 708.796481 -32.506168 709.348623 -31.64136 C 703.198904 -38.266115 704.512621 -39.963097 697.677483 -39.963097 C 693.050914 -43.210206 686.196737 -45.723045 682.693491 -49.949182 C 676.258181 -50.552916 675.858354 -52.853631 669.384964 -54.958541 C 674.715991 -48.676445 681.760562 -42.475935 686.025383 -36.634402 C 693.622095 -32.391948 695.735467 -28.573739 701.009375 -24.98397 C 703.160825 -21.34525 708.929757 -18.32658 702.68484 -23.319623 C 695.545073 -30.352306 690.214046 -31.98402 679.3616 -36.634402 C 673.21188 -41.59481 671.003312 -43.683403 664.377607 -48.284834 C 655.371981 -51.189284 658.875227 -52.837314 664.377607 -43.291792 C 670.698682 -37.531844 675.553724 -31.07026 681.037065 -26.648318 C 684.806862 -21.736861 691.166015 -16.531696 696.021057 -13.317221 C 697.525168 -11.065457 702.018462 -10.657528 696.021057 -9.988526 C 690.937543 -14.589957 683.626421 -17.527041 677.705174 -21.655275 C 669.404004 -23.988625 665.51997 -28.296348 659.38929 -33.305707 C 655.486217 -39.14724 649.012828 -43.683403 644.405298 -48.284834 C 634.771371 -52.054092 646.309236 -44.646114 649.393615 -39.963097 C 651.545065 -33.893124 654.191539 -28.932716 656.057398 -23.319623 C 658.837148 -17.755481 647.584874 -24.64131 644.405298 -26.648318 C 637.075136 -30.809186 631.72507 -33.583099 622.757522 -34.970055 C 616.779157 -36.275425 609.163405 -37.433942 602.766173 -38.29875 C 595.16946 -40.354708 606.821561 -33.501513 611.105422 -26.648318 C 619.520828 -18.734509 602.766173 -25.21241 597.777856 -26.648318 C 589.552843 -28.296348 581.499186 -28.312665 572.798189 -28.312665 C 562.136136 -27.676297 569.751888 -26.370926 572.798189 -21.655275 C 576.092002 -19.12612 578.433845 -13.790418 577.805546 -11.652873 C 570.760975 -12.615584 564.76357 -14.68786 556.15777 -14.981568 C 549.189357 -12.664536 540.81203 -13.317221 532.83453 -13.317221 C 532.453742 -9.140035 534.281523 -12.664536 537.841887 -8.324179 C 543.59178 -5.990829 547.418695 -3.151648 546.162096 -0.00244137 L 497.878228 -0.00244137 C 492.58528 1.449783 499.001551 0.699195 502.866545 6.654948 C 500.715095 12.055919 497.916307 9.983643 491.214445 9.983643 C 486.664033 8.172442 477.620327 7.356585 472.898561 4.990601 C 468.214873 4.990601 468.557582 3.766816 464.578352 3.326254 C 478.610375 13.263387 471.641962 10.783183 479.562344 18.321698 C 480.933179 18.778577 484.074677 19.986045 481.21877 19.986045 " transform="matrix(0.205167,0,0,0.239396,154.04329,78.676366)"/>
<path style="fill:none;stroke-width:3.5;stroke-linecap:butt;stroke-linejoin:miter;stroke:rgb(46.666667%,14.901961%,0%);stroke-opacity:1;stroke-miterlimit:4;" d="M 371.323468 73.26148 C 370.314381 73.26148 368.124852 67.893144 364.659685 63.275396 C 362.33688 57.22174 359.27154 60.680972 356.339476 51.624964 C 356.682184 42.209979 357.024893 40.529314 356.339476 31.636477 C 349.466259 26.855558 346.629392 25.370699 341.355483 16.65735 C 332.882959 9.575715 342.593043 -2.417377 344.192351 -11.195994 C 336.824111 -12.844024 333.187589 0.27495 321.859158 4.990601 C 313.691264 10.489474 320.945268 -6.366123 316.966037 -16.189036 C 314.186288 -30.058598 306.13263 -9.237938 303.04825 -3.331136 C 297.583948 0.38917 295.927522 5.202724 288.064258 -1.666789 C 288.064258 -6.806685 292.995458 -21.149444 290.901126 -23.939674 C 283.09498 -20.137782 272.813715 -8.454716 264.760057 -6.659831 C 256.630242 -8.438398 266.51168 -21.492104 266.51168 -31.18448 C 263.579615 -32.163508 251.832318 -5.419729 246.996315 -5.174972 C 242.179352 -4.930215 244.292723 -31.168163 242.027037 -30.613381 C 238.485712 -25.652973 231.384023 -15.177374 226.452824 -11.652873 C 217.009291 -12.876658 227.842699 -29.095887 229.289692 -35.084275 C 230.927078 -42.247496 220.398301 -21.328933 214.800723 -19.974611 C 210.688217 -16.433793 202.558402 -13.904638 199.816731 -13.317221 C 203.053426 -19.452462 218.89419 -32.032971 217.751827 -35.606423 C 208.536767 -35.263763 194.428587 -23.042231 186.489165 -21.655275 C 181.291414 -21.655275 174.094529 -19.893025 173.161599 -19.990928 C 173.618544 -27.904737 192.581767 -34.627395 195.609028 -39.440949 C 186.317811 -37.95609 168.420793 -29.748573 163.184964 -23.319623 C 157.035244 -21.981618 149.229098 -20.300953 143.193614 -23.319623 C 144.088465 -30.792869 158.044331 -45.315116 161.128711 -50.063402 C 152.732344 -46.37573 148.486562 -43.487598 139.480935 -41.741664 C 137.824509 -40.093634 132.969467 -36.520182 134.492618 -40.077317 C 137.139092 -47.028415 141.17544 -50.193939 144.488292 -55.072761 C 137.024855 -53.702122 134.207027 -49.427034 126.172409 -45.070359 C 121.069855 -44.858237 106.523768 -30.221769 101.573529 -29.977012 C 90.111823 -21.590007 85.561411 -20.170416 73.261971 -16.645916 C 65.665258 -15.291594 62.009697 -13.725149 58.277979 -9.988526 C 62.066816 -16.67855 67.873826 -23.091183 73.261971 -26.648318 C 76.936571 -32.212459 80.382699 -36.830208 88.245963 -39.963097 C 90.149901 -42.28013 95.442849 -42.867547 89.921429 -43.291792 C 85.161584 -39.049338 77.222162 -34.333687 73.261971 -31.64136 C 68.159417 -28.426885 62.257209 -25.163459 59.934405 -26.648318 C 62.561839 -33.844173 67.378803 -35.541154 71.605545 -41.627445 C 80.401739 -47.240538 71.643624 -43.536549 64.941762 -41.627445 C 60.600783 -37.760284 52.813677 -34.904786 46.625878 -31.64136 C 39.50515 -29.781207 34.916659 -25.506118 26.634529 -23.319623 C 26.634529 -20.937321 28.995412 -27.562077 29.966421 -29.977012 C 36.801558 -37.38499 38.629339 -39.440949 46.625878 -41.627445 C 48.529816 -44.49926 51.043014 -43.291792 44.950413 -43.291792 C 40.43808 -39.277778 34.136045 -37.074965 28.309994 -33.305707 C 22.407787 -32.016654 14.734916 -31.64136 6.662219 -31.64136 C -3.695204 -30.401258 -2.800353 -29.618036 6.662219 -34.970055 C 12.012285 -40.012048 16.429421 -38.739312 16.638854 -44.956139 C 10.393938 -40.419977 2.778186 -37.091282 -4.989881 -33.305707 C -11.425192 -33.109902 -13.138736 -31.64136 -19.992913 -31.64136 C -16.680061 -35.05164 -14.699965 -39.277778 -9.997238 -41.627445 C -3.104983 -49.296496 -14.376296 -43.112304 -16.661021 -41.627445 L -41.640688 -41.627445 C -46.095903 -36.046985 -41.869161 -41.578493 -38.308797 -44.956139 C -33.986857 -47.191586 -29.550682 -50.112353 -29.969548 -51.613529 C -34.938826 -47.305806 -40.707759 -45.315116 -44.95354 -41.627445 C -49.599149 -40.240488 -54.949215 -39.538852 -54.949215 -38.29875 C -51.331733 -43.650769 -45.429525 -46.881561 -41.640688 -51.613529 C -36.024071 -52.837314 -31.245187 -54.550613 -29.969548 -56.606572 L -53.292789 -56.606572 L -36.633331 -56.606572 C -28.236965 -56.606572 -21.002 -57.35716 -13.32913 -58.287236 C -0.058682 -60.490049 -14.490532 -61.615931 -21.649339 -61.615931 C -23.039214 -64.161404 -17.536833 -65.597311 -11.653664 -66.608973 C -6.627268 -68.991275 -0.42043 -71.096185 4.986754 -73.266363 C 10.241623 -74.702271 17.70506 -79.075262 18.31432 -79.923753 C 13.287924 -79.662679 13.345042 -78.520479 8.318645 -78.259405 C 15.763043 -78.830505 21.113109 -79.923753 29.966421 -79.923753 C 38.001039 -82.50186 44.874255 -85.341041 51.614196 -88.24549 C 54.54626 -91.835259 55.859978 -91.574185 48.282304 -91.574185 C 55.003205 -93.744363 64.522896 -94.772343 69.93008 -96.583544 C 77.812383 -98.264209 84.837914 -100.825999 89.921429 -103.240934 C 94.79551 -106.553312 97.594299 -110.420472 103.229955 -113.227019 C 109.760463 -108.788759 109.83662 -108.233976 121.545839 -108.233976 C 130.970332 -108.348196 136.720225 -110.599961 141.537188 -114.891366 C 148.734074 -116.865739 150.009713 -120.324971 158.177607 -121.548756 C 165.622004 -120.227068 173.218717 -119.884409 181.500847 -119.884409 C 189.592584 -122.005636 197.170257 -125.90543 203.148623 -129.88681 C 208.232137 -132.383331 214.28666 -136.005735 219.789041 -138.208548 C 225.862603 -135.075658 230.641488 -132.56282 238.104925 -131.551158 C 245.834913 -132.693357 249.852222 -136.413663 256.420808 -138.208548 C 260.000212 -142.532587 265.197963 -144.833303 271.404801 -146.530285 C 281.076806 -151.27857 280.33427 -144.96384 284.732367 -139.872895 C 289.625487 -134.732998 296.098877 -137.196885 303.04825 -134.879853 C 306.875166 -128.989368 309.692994 -124.959037 314.700351 -121.548756 C 318.603424 -116.849422 323.210954 -115.527734 331.359809 -114.891366 C 334.329952 -110.94262 331.95003 -108.087122 338.023592 -106.569629 C 340.403514 -104.040474 344.53506 -102.963543 348.000227 -101.576587 " transform="matrix(0.205167,0,0,0.239396,154.04329,78.676366)"/>
<path style="fill:none;stroke-width:3.125;stroke-linecap:butt;stroke-linejoin:miter;stroke:rgb(47.058824%,14.901961%,0%);stroke-opacity:1;stroke-miterlimit:4;" d="M 468.747976 30.804303 L 468.747976 31.636477 C 468.747976 29.303127 468.63374 30.543229 470.404402 34.965172 C 470.994623 38.603892 469.604748 38.179647 467.910243 40.790388 C 467.624653 44.510694 467.072511 47.186704 467.072511 51.608646 C 466.539408 55.23105 464.502194 58.657647 462.902886 61.611048 C 461.303578 64.743938 454.354205 66.473553 454.582677 70.764959 C 450.603447 71.907158 450.50825 69.329052 450.432092 64.939743 C 448.03313 62.214782 447.214437 58.478159 445.424735 54.953658 C 444.320451 51.478109 441.959568 48.91632 440.436418 44.951257 C 437.980338 41.165682 435.886006 40.088751 433.772635 35.797346 C 432.953941 33.72507 433.087217 31.179597 431.278476 29.97213 C 428.555845 26.529215 426.785182 25.974432 422.120534 25.811261 C 418.522091 26.659752 417.151256 28.226197 413.800325 29.139956 C 411.230009 29.988447 406.222652 29.711056 402.966918 30.804303 C 402.167264 32.109674 404.566226 32.746042 405.461076 35.797346 C 403.328666 37.559596 402.548051 40.676168 401.310492 43.286909 C 399.330396 45.78343 398.016679 46.990898 397.140867 50.776473 C 398.492663 53.093505 397.331261 56.177443 395.465402 58.282353 C 394.89422 62.133196 393.047401 64.156521 392.15255 67.436264 C 389.448958 69.263783 388.496989 70.977082 386.30746 74.093654 C 384.403522 76.769664 382.670938 76.590175 377.987251 76.590175 C 374.33169 75.59483 373.817627 73.60414 370.504774 72.429307 C 370.143026 71.368693 369.895514 71.123936 368.829309 70.764959 " transform="matrix(0.205167,0,0,0.239396,154.04329,78.676366)"/>
<path style=" stroke:none;fill-rule:evenodd;fill:rgb(50.588235%,18.039216%,0%);fill-opacity:1;" d="M 230.738281 94.148438 C 230.738281 94.148438 230.394531 97.867188 228.003906 100.34375 C 225.613281 102.820312 220.660156 105.710938 220.660156 105.710938 C 220.660156 105.710938 227.320312 102.546875 228.003906 103.234375 C 228.6875 103.921875 223.734375 109.429688 223.734375 109.429688 C 223.734375 109.429688 230.226562 103.648438 231.078125 103.648438 C 231.933594 103.648438 233.8125 109.289062 234.496094 109.152344 C 235.179688 109.015625 232.957031 101.996094 233.300781 100.894531 C 233.640625 99.792969 233.300781 93.875 233.300781 93.875 Z M 230.738281 94.148438 "/>
<path style=" stroke:none;fill-rule:evenodd;fill:rgb(50.588235%,18.039216%,0%);fill-opacity:1;" d="M 246.109375 93.648438 C 246.109375 93.648438 245.769531 97.621094 243.375 100.265625 C 240.984375 102.914062 236.03125 106.003906 236.03125 106.003906 C 236.03125 106.003906 242.691406 102.621094 243.375 103.355469 C 244.058594 104.09375 239.105469 109.976562 239.105469 109.976562 C 239.105469 109.976562 245.597656 103.796875 246.449219 103.796875 C 247.304688 103.796875 249.183594 109.832031 249.867188 109.683594 C 250.550781 109.535156 248.328125 102.03125 248.671875 100.855469 C 249.011719 99.679688 248.671875 93.351562 248.671875 93.351562 Z M 246.109375 93.648438 "/>
<path style=" stroke:none;fill-rule:evenodd;fill:rgb(50.588235%,18.039216%,0%);fill-opacity:1;" d="M 224.589844 57.613281 C 224.589844 58.351562 223.863281 58.953125 222.96875 58.953125 C 222.074219 58.953125 221.351562 58.351562 221.351562 57.613281 C 221.351562 56.871094 222.074219 56.273438 222.96875 56.273438 C 223.863281 56.273438 224.589844 56.871094 224.589844 57.613281 Z M 224.589844 57.613281 "/>
</g>
</svg>
