<?xml version="1.0" encoding="UTF-8"?>
<svg xmlns="http://www.w3.org/2000/svg" xmlns:xlink="http://www.w3.org/1999/xlink" width="480pt" height="360pt" viewBox="0 0 480 360" version="1.1">
<g id="surface1">
<rect x="0" y="0" width="480" height="360" style="fill:rgb(74.509804%,0%,15.294118%);fill-opacity:1;stroke:none;"/>
<path style=" stroke:none;fill-rule:evenodd;fill:rgb(70.588235%,84.313725%,95.686275%);fill-opacity:1;" d="M 0 360 L 480.003906 359.773438 L 479.980469 180 Z M 0 360 "/>
<path style=" stroke:none;fill-rule:evenodd;fill:rgb(13.72549%,61.960784%,27.45098%);fill-opacity:1;" d="M 0 0 L 480.003906 0.226562 L 479.980469 180 Z M 0 0 "/>
<path style=" stroke:none;fill-rule:evenodd;fill:rgb(95.294118%,88.627451%,58.431373%);fill-opacity:1;" d="M 139.671875 270.300781 C 131.636719 272.519531 127.03125 278.75 127.148438 284.632812 L 166.699219 284.472656 C 167.054688 278.15625 161.855469 272.308594 153.9375 270.007812 C 192.660156 269.207031 226.296875 254.703125 232.410156 245.398438 C 226.363281 242.773438 219.367188 246.996094 214.382812 246.027344 C 226.21875 240.554688 261.6875 217.597656 255.921875 192.988281 C 251.4375 206.65625 237.859375 217.96875 232.078125 221.003906 C 245.324219 200.886719 263.417969 179.941406 247.722656 163.722656 C 248.515625 173.121094 241.746094 183.46875 238.757812 184.246094 C 246.445312 162.988281 253.777344 136.300781 237.125 118.707031 C 239.3125 125.066406 238.429688 143.003906 235.417969 143.8125 C 234.492188 129.355469 232.027344 98.953125 216.804688 99.386719 C 221.636719 103.691406 223.753906 115.4375 223.859375 127.304688 C 220.390625 119.175781 216.449219 113.054688 208.015625 107.050781 C 201.195312 93.96875 189.058594 83.128906 176.917969 75.363281 C 178.28125 84.886719 179.410156 92.398438 192.707031 102.277344 C 185.773438 101.847656 178.84375 88.703125 171.433594 88.339844 C 165.539062 88.054688 160.914062 93.679688 151.285156 90.445312 C 152.351562 93.621094 156.84375 95.03125 157.792969 97.382812 C 155.730469 98.804688 150.832031 97.160156 146.761719 95.039062 C 152.363281 102.667969 161.039062 107.152344 168.40625 105.636719 C 177.167969 103.953125 186.558594 104.84375 195.519531 109.941406 C 193.230469 111.117188 184.324219 111.109375 178.609375 110.394531 C 183.804688 115.652344 187.289062 119.140625 196.320312 119.082031 C 204.386719 119.03125 208.617188 114.777344 210.691406 117.410156 C 215.75 123.40625 219.15625 129.398438 223.386719 136.460938 C 214.039062 137.492188 216.855469 125.886719 206.441406 119.949219 C 200.59375 132.058594 213.171875 146.414062 221.738281 152.382812 C 221.851562 161.484375 223.183594 169.097656 227.042969 176.03125 C 229.644531 180.914062 233.011719 185.917969 231.742188 196.945312 C 226.613281 193.210938 221.605469 180.617188 223.449219 170.621094 C 217.03125 172.371094 214.523438 183.65625 217.546875 189.335938 C 219.804688 193.65625 221.3125 201.933594 218.707031 205.632812 C 216.167969 209.078125 215.902344 208.691406 215.9375 216.089844 C 216.027344 220.515625 213.554688 225.75 209.527344 229.398438 C 210.367188 226.28125 211.328125 220.914062 210.394531 217.5625 C 207.210938 222.960938 199.226562 228.546875 196.710938 234.355469 C 194.242188 240.171875 193.617188 250.253906 181.664062 252.578125 C 166.289062 255.628906 160.984375 258.292969 151.089844 262.339844 C 149.992188 254.828125 153.277344 239.15625 159.5625 240.050781 C 165.695312 241.140625 184.296875 233.640625 177.644531 217.972656 C 176.328125 222.910156 171.945312 227.730469 167.207031 227.945312 C 172.324219 221.300781 181.464844 214.421875 177.015625 203.289062 C 174.539062 208.019531 170.648438 213.699219 164.75 216.894531 C 171.074219 204.773438 165.484375 201.148438 157.972656 211.128906 C 155.136719 214.980469 153.421875 222.699219 151.617188 232.503906 C 148.667969 224.53125 148.863281 214.035156 145.367188 205.515625 C 141.714844 196.300781 150.214844 193.867188 154.214844 194.605469 C 164.007812 197.21875 180.375 197.21875 179.160156 181.039062 C 174.929688 186.511719 167.511719 188.203125 159.5 186.230469 C 168.496094 179.664062 175.601562 167.308594 165.574219 160.855469 C 165.242188 167.695312 159.949219 175.367188 152.878906 178.898438 C 151.226562 173.128906 151.226562 167 152.644531 160.285156 C 148.695312 164.4375 145.8125 173.082031 143.523438 182.910156 C 143.347656 173.195312 145.1875 166.199219 146.550781 160.972656 C 148.613281 153.339844 153.75 158.308594 161.609375 158.871094 C 169.175781 159.300781 179.597656 155.117188 177.605469 144.851562 C 175.023438 148.914062 169.71875 150.492188 164.296875 150.0625 C 170.824219 146.109375 182.191406 139.085938 175.957031 128.28125 C 173.335938 132.375 172.488281 135.875 164.910156 137.128906 C 166.894531 132.5625 167.222656 126.105469 173.109375 123.546875 C 162.613281 121.457031 156.601562 128.34375 153.546875 139.132812 C 152.308594 131.652344 150.835938 128.898438 150.542969 123.429688 C 156.214844 117.125 156.808594 104.800781 144.527344 102.042969 C 143.796875 108.402344 144.011719 109.917969 145.410156 115.09375 C 139.644531 111.667969 131.515625 109.777344 126.105469 114.621094 C 129.773438 118.578125 135.445312 122.0625 144.191406 117.746094 C 142.125 124.503906 136.753906 123.347656 129.371094 120.769531 C 133.882812 129.246094 139.578125 130.753906 145.863281 129.777344 C 149.152344 138.453125 149.296875 145.042969 139.683594 157.679688 C 140.125 149.828125 139.570312 143.976562 133.332031 137.628906 C 127.984375 132.394531 123.640625 137.855469 131.992188 149.492188 C 126.925781 145.761719 121.191406 138.1875 119.464844 130.613281 C 117.792969 139.96875 119.296875 150.996094 124.476562 157.179688 C 122.027344 159.796875 119.242188 156.898438 115.121094 150.496094 C 116.679688 170.992188 125.421875 174.945312 137.175781 170.378906 C 137.507812 181.625 137.507812 192.042969 138.175781 205.632812 C 131.324219 195.777344 122.640625 188.421875 117.792969 186.585938 C 116.289062 192.097656 121.96875 199.28125 125.144531 203.292969 C 120.300781 202.289062 109.773438 194.269531 109.773438 194.269531 C 108.714844 203.40625 120.523438 211.871094 128.152344 215.65625 C 119.1875 215.265625 115.230469 211.871094 109.4375 206.300781 C 109.550781 231.640625 136.894531 227.242188 142.019531 223.34375 C 142.6875 235.820312 143.640625 250.242188 144.308594 262.71875 C 136.578125 261.367188 137.1875 259.042969 130.574219 258.429688 C 112.214844 257.714844 97.652344 236.394531 92.828125 220.707031 C 91.445312 223.289062 92.542969 225.992188 91.277344 229.160156 C 88.296875 221.464844 84.488281 211.519531 79.382812 206.894531 C 80.683594 211.382812 80.820312 215.941406 80.367188 224.332031 C 78.617188 218.894531 76.984375 217.230469 76.867188 210.847656 C 76.980469 205.949219 81.59375 202.335938 81.335938 195.445312 C 81.148438 190.417969 76.558594 179.515625 75.886719 171.074219 C 73.664062 179.761719 72.269531 188.917969 68.867188 194.296875 C 70.558594 185.019531 70.015625 178.617188 72.875 172.375 C 76.179688 165.804688 78.992188 159.9375 76.789062 153.304688 C 74.679688 155.863281 75.40625 158.191406 70.105469 164.417969 C 68.953125 157.648438 76.960938 146.8125 84.726562 142.457031 C 90.207031 139.570312 97.113281 129.246094 92.613281 122.167969 C 87.460938 125.871094 85.148438 130.867188 77.871094 139.410156 C 83.0625 119.117188 96.550781 113.808594 112.699219 113.738281 C 116.273438 113.722656 123.476562 112.429688 125.5 107.703125 C 120.949219 109.460938 115.566406 109.683594 110.777344 108.726562 C 114.261719 103.609375 121.601562 104.273438 128.441406 104.242188 C 133.808594 104.21875 142.183594 103.488281 145.570312 95.847656 C 139.023438 98.683594 128.816406 99.273438 122.390625 97.265625 C 132.613281 91.96875 148.621094 91.398438 156.832031 84.449219 C 147.472656 77.464844 124.054688 86.078125 109.261719 96.222656 C 113.394531 92.441406 119.929688 85.734375 123.535156 80.320312 C 115.445312 76.441406 94.984375 99.109375 87.9375 112.578125 C 81.242188 116.355469 78.5625 122.285156 75.964844 126.417969 C 79.53125 114.363281 79.910156 105.617188 82.886719 95.691406 C 59.9375 103.589844 69.476562 145.992188 64.484375 156.136719 C 65.070312 144.9375 64.59375 130.550781 59.984375 123.132812 C 52.914062 128.523438 52.34375 160.261719 58.980469 186.6875 C 56.585938 179.617188 52.0625 173.015625 50.609375 164.40625 C 40.148438 183.488281 56.742188 205.996094 70.617188 223.777344 C 60.171875 218.335938 49.84375 206.632812 43.058594 196.824219 C 44.933594 230.972656 80.59375 238.066406 86.128906 246.460938 C 78.617188 242.964844 64.25 236.042969 58.152344 243.292969 C 68.078125 245.585938 75.992188 248.234375 82.371094 252.414062 C 91.628906 263.96875 109.152344 269.023438 139.675781 270.300781 Z M 139.671875 270.300781 "/>
</g>
</svg>
