<?xml version="1.0" encoding="UTF-8"?>
<svg xmlns="http://www.w3.org/2000/svg" xmlns:xlink="http://www.w3.org/1999/xlink" width="480pt" height="360pt" viewBox="0 0 480 360" version="1.1">
<defs>
<clipPath id="clip1">
  <path d="M 28 0 L 195 0 L 195 201 L 28 201 Z M 28 0 "/>
</clipPath>
<clipPath id="clip2">
  <path d="M -52.648438 245.464844 C 33.75 245.464844 103.789062 175.421875 103.789062 89.023438 C 103.789062 2.625 33.75 -67.417969 -52.648438 -67.417969 L 275.273438 -67.417969 C 188.875 -67.417969 118.832031 2.625 118.832031 89.023438 C 118.832031 175.421875 188.875 245.464844 275.273438 245.464844 Z M -52.648438 245.464844 "/>
</clipPath>
<clipPath id="clip3">
  <path d="M 0 6 L 223 6 L 223 172 L 0 172 Z M 0 6 "/>
</clipPath>
<clipPath id="clip4">
  <path d="M -45.128906 -74.9375 C -45.128906 11.460938 24.914062 81.503906 111.3125 81.503906 C 197.710938 81.503906 267.753906 11.460938 267.753906 -74.9375 L 267.753906 252.984375 C 267.753906 166.585938 197.710938 96.542969 111.3125 96.542969 C 24.914062 96.542969 -45.128906 166.585938 -45.128906 252.984375 Z M -45.128906 -74.9375 "/>
</clipPath>
<clipPath id="clip5">
  <path d="M 285 159 L 452 159 L 452 360 L 285 360 Z M 285 159 "/>
</clipPath>
<clipPath id="clip6">
  <path d="M 204.722656 427.632812 C 291.121094 427.632812 361.164062 357.59375 361.164062 271.191406 C 361.164062 184.792969 291.121094 114.75 204.722656 114.75 L 532.648438 114.75 C 446.246094 114.75 376.207031 184.792969 376.207031 271.191406 C 376.207031 357.59375 446.246094 427.632812 532.648438 427.632812 Z M 204.722656 427.632812 "/>
</clipPath>
<clipPath id="clip7">
  <path d="M 257 188 L 480 188 L 480 354 L 257 354 Z M 257 188 "/>
</clipPath>
<clipPath id="clip8">
  <path d="M 212.246094 107.230469 C 212.246094 193.628906 282.285156 263.671875 368.683594 263.671875 C 455.085938 263.671875 525.125 193.628906 525.125 107.230469 L 525.125 435.15625 C 525.125 348.753906 455.085938 278.714844 368.683594 278.714844 C 282.285156 278.714844 212.246094 348.753906 212.246094 435.15625 Z M 212.246094 107.230469 "/>
</clipPath>
<clipPath id="clip9">
  <path d="M 285 0 L 452 0 L 452 201 L 285 201 Z M 285 0 "/>
</clipPath>
<clipPath id="clip10">
  <path d="M 204.722656 245.464844 C 291.121094 245.464844 361.164062 175.421875 361.164062 89.023438 C 361.164062 2.625 291.121094 -67.417969 204.722656 -67.417969 L 532.648438 -67.417969 C 446.246094 -67.417969 376.207031 2.625 376.207031 89.023438 C 376.207031 175.421875 446.246094 245.464844 532.648438 245.464844 Z M 204.722656 245.464844 "/>
</clipPath>
<clipPath id="clip11">
  <path d="M 257 6 L 480 6 L 480 172 L 257 172 Z M 257 6 "/>
</clipPath>
<clipPath id="clip12">
  <path d="M 212.246094 -74.9375 C 212.246094 11.460938 282.285156 81.503906 368.683594 81.503906 C 455.085938 81.503906 525.125 11.460938 525.125 -74.9375 L 525.125 252.984375 C 525.125 166.585938 455.085938 96.542969 368.683594 96.542969 C 282.285156 96.542969 212.246094 166.585938 212.246094 252.984375 Z M 212.246094 -74.9375 "/>
</clipPath>
<clipPath id="clip13">
  <path d="M 28 159 L 195 159 L 195 360 L 28 360 Z M 28 159 "/>
</clipPath>
<clipPath id="clip14">
  <path d="M -52.648438 427.632812 C 33.75 427.632812 103.789062 357.59375 103.789062 271.191406 C 103.789062 184.792969 33.75 114.75 -52.648438 114.75 L 275.273438 114.75 C 188.875 114.75 118.832031 184.792969 118.832031 271.191406 C 118.832031 357.59375 188.875 427.632812 275.273438 427.632812 Z M -52.648438 427.632812 "/>
</clipPath>
<clipPath id="clip15">
  <path d="M 0 188 L 223 188 L 223 354 L 0 354 Z M 0 188 "/>
</clipPath>
<clipPath id="clip16">
  <path d="M -45.128906 107.230469 C -45.128906 193.628906 24.914062 263.671875 111.3125 263.671875 C 197.710938 263.671875 267.753906 193.628906 267.753906 107.230469 L 267.753906 435.15625 C 267.753906 348.753906 197.710938 278.714844 111.3125 278.714844 C 24.914062 278.714844 -45.128906 348.753906 -45.128906 435.15625 Z M -45.128906 107.230469 "/>
</clipPath>
</defs>
<g id="surface1">
<path style=" stroke:none;fill-rule:nonzero;fill:rgb(100%,100%,100%);fill-opacity:1;" d="M 0 0 L 479.992188 0 L 479.992188 360 L 0 360 Z M 0 0 "/>
<path style=" stroke:none;fill-rule:nonzero;fill:rgb(100%,100%,100%);fill-opacity:1;" d="M 14.367188 29.683594 L 465.625 29.683594 L 465.625 330.53125 L 14.367188 330.53125 Z M 14.367188 29.683594 "/>
<path style=" stroke:none;fill-rule:nonzero;fill:rgb(100%,0%,0%);fill-opacity:1;" d="M 209.914062 29.683594 L 209.914062 150.019531 L 14.367188 150.019531 L 14.367188 210.191406 L 209.914062 210.191406 L 209.914062 330.53125 L 270.085938 330.53125 L 270.085938 210.191406 L 465.636719 210.191406 L 465.636719 150.019531 L 270.085938 150.019531 L 270.085938 29.683594 Z M 209.914062 29.683594 "/>
<g clip-path="url(#clip1)" clip-rule="nonzero">
<g clip-path="url(#clip2)" clip-rule="nonzero">
<path style=" stroke:none;fill-rule:nonzero;fill:rgb(100%,0%,0%);fill-opacity:1;" d="M 28.578125 200.335938 C 28.578125 154.644531 65.621094 117.605469 111.3125 117.605469 C 157.003906 117.605469 194.046875 154.644531 194.046875 200.335938 L 194.046875 -22.289062 C 194.046875 23.402344 157.003906 60.441406 111.3125 60.441406 C 65.621094 60.441406 28.578125 23.402344 28.578125 -22.289062 Z M 28.578125 200.335938 "/>
</g>
</g>
<g clip-path="url(#clip3)" clip-rule="nonzero">
<g clip-path="url(#clip4)" clip-rule="nonzero">
<path style=" stroke:none;fill-rule:nonzero;fill:rgb(100%,0%,0%);fill-opacity:1;" d="M 0 6.289062 C 45.691406 6.289062 82.730469 43.332031 82.730469 89.023438 C 82.730469 134.714844 45.691406 171.757812 0 171.757812 L 222.625 171.757812 C 176.933594 171.757812 139.890625 134.714844 139.890625 89.023438 C 139.890625 43.332031 176.933594 6.289062 222.625 6.289062 Z M 0 6.289062 "/>
</g>
</g>
<g clip-path="url(#clip5)" clip-rule="nonzero">
<g clip-path="url(#clip6)" clip-rule="nonzero">
<path style=" stroke:none;fill-rule:nonzero;fill:rgb(100%,0%,0%);fill-opacity:1;" d="M 285.953125 382.507812 C 285.953125 336.8125 322.992188 299.773438 368.683594 299.773438 C 414.378906 299.773438 451.417969 336.8125 451.417969 382.507812 L 451.417969 159.878906 C 451.417969 205.570312 414.378906 242.613281 368.683594 242.613281 C 322.992188 242.613281 285.953125 205.570312 285.953125 159.878906 Z M 285.953125 382.507812 "/>
</g>
</g>
<g clip-path="url(#clip7)" clip-rule="nonzero">
<g clip-path="url(#clip8)" clip-rule="nonzero">
<path style=" stroke:none;fill-rule:nonzero;fill:rgb(100%,0%,0%);fill-opacity:1;" d="M 257.371094 188.460938 C 303.0625 188.460938 340.105469 225.5 340.105469 271.191406 C 340.105469 316.882812 303.0625 353.925781 257.371094 353.925781 L 480 353.925781 C 434.304688 353.925781 397.265625 316.882812 397.265625 271.191406 C 397.265625 225.5 434.304688 188.460938 480 188.460938 Z M 257.371094 188.460938 "/>
</g>
</g>
<g clip-path="url(#clip9)" clip-rule="nonzero">
<g clip-path="url(#clip10)" clip-rule="nonzero">
<path style=" stroke:none;fill-rule:nonzero;fill:rgb(100%,0%,0%);fill-opacity:1;" d="M 285.953125 200.335938 C 285.953125 154.644531 322.992188 117.605469 368.683594 117.605469 C 414.378906 117.605469 451.417969 154.644531 451.417969 200.335938 L 451.417969 -22.289062 C 451.417969 23.402344 414.378906 60.441406 368.683594 60.441406 C 322.992188 60.441406 285.953125 23.402344 285.953125 -22.289062 Z M 285.953125 200.335938 "/>
</g>
</g>
<g clip-path="url(#clip11)" clip-rule="nonzero">
<g clip-path="url(#clip12)" clip-rule="nonzero">
<path style=" stroke:none;fill-rule:nonzero;fill:rgb(100%,0%,0%);fill-opacity:1;" d="M 257.371094 6.289062 C 303.0625 6.289062 340.105469 43.332031 340.105469 89.023438 C 340.105469 134.714844 303.0625 171.757812 257.371094 171.757812 L 480 171.757812 C 434.304688 171.757812 397.265625 134.714844 397.265625 89.023438 C 397.265625 43.332031 434.304688 6.289062 480 6.289062 Z M 257.371094 6.289062 "/>
</g>
</g>
<g clip-path="url(#clip13)" clip-rule="nonzero">
<g clip-path="url(#clip14)" clip-rule="nonzero">
<path style=" stroke:none;fill-rule:nonzero;fill:rgb(100%,0%,0%);fill-opacity:1;" d="M 28.578125 382.507812 C 28.578125 336.8125 65.621094 299.773438 111.3125 299.773438 C 157.003906 299.773438 194.046875 336.8125 194.046875 382.507812 L 194.046875 159.878906 C 194.046875 205.570312 157.003906 242.613281 111.3125 242.613281 C 65.621094 242.613281 28.578125 205.570312 28.578125 159.878906 Z M 28.578125 382.507812 "/>
</g>
</g>
<g clip-path="url(#clip15)" clip-rule="nonzero">
<g clip-path="url(#clip16)" clip-rule="nonzero">
<path style=" stroke:none;fill-rule:nonzero;fill:rgb(100%,0%,0%);fill-opacity:1;" d="M 0 188.460938 C 45.691406 188.460938 82.730469 225.5 82.730469 271.191406 C 82.730469 316.882812 45.691406 353.925781 0 353.925781 L 222.625 353.925781 C 176.933594 353.925781 139.890625 316.882812 139.890625 271.191406 C 139.890625 225.5 176.933594 188.460938 222.625 188.460938 Z M 0 188.460938 "/>
</g>
</g>
</g>
</svg>
