<?xml version="1.0" encoding="UTF-8"?>
<svg xmlns="http://www.w3.org/2000/svg" xmlns:xlink="http://www.w3.org/1999/xlink" width="480pt" height="360pt" viewBox="0 0 480 360" version="1.1">
<g id="surface1">
<path style=" stroke:none;fill-rule:evenodd;fill:rgb(24.313725%,60.392157%,0%);fill-opacity:1;" d="M 0 0 L 539.984375 0 L 539.984375 120.855469 L 0 120.855469 Z M 0 0 "/>
<path style=" stroke:none;fill-rule:evenodd;fill:rgb(100%,100%,100%);fill-opacity:1;" d="M 0 120.855469 L 539.984375 120.855469 L 539.984375 239.136719 L 0 239.136719 Z M 0 120.855469 "/>
<path style=" stroke:none;fill-rule:evenodd;fill:rgb(89.019608%,12.941176%,9.411765%);fill-opacity:1;" d="M 0 239.136719 L 539.984375 239.136719 L 539.984375 359.996094 L 0 359.996094 Z M 0 239.136719 "/>
<path style=" stroke:none;fill-rule:evenodd;fill:rgb(33.333333%,40.392157%,89.411765%);fill-opacity:1;" d="M 0 0 L 0 359.988281 L 179.996094 179.996094 Z M 0 0 "/>
<path style="fill-rule:evenodd;fill:rgb(80%,80%,80%);fill-opacity:1;stroke-width:3.7907;stroke-linecap:butt;stroke-linejoin:miter;stroke:rgb(0%,0%,0%);stroke-opacity:1;stroke-miterlimit:4;" d="M 283.47123 148.826763 L 283.47123 591.738145 C 283.47123 627.160276 301.184112 662.582407 336.609876 662.582407 L 407.484709 662.582407 C 425.197591 662.582407 442.910473 698.034481 442.910473 698.034481 C 442.910473 698.034481 459.854243 662.582407 478.336236 662.582407 L 549.21107 662.582407 C 584.636834 662.582407 602.349715 627.160276 602.349715 591.738145 L 602.349715 148.826763 L 283.447924 148.826763 Z M 283.47123 148.826763 " transform="matrix(0.167604,0,0,0.130458,189.500804,126.400792)"/>
<path style="fill-rule:evenodd;fill:rgb(80%,80%,80%);fill-opacity:1;stroke-width:1.25;stroke-linecap:butt;stroke-linejoin:miter;stroke:rgb(0%,0%,0%);stroke-opacity:1;stroke-miterlimit:4;" d="M 215.378323 731.780811 C 197.361788 731.780811 179.646688 714.08454 179.646688 696.358325 L 179.646688 607.78714 C 195.135807 623.267635 268.222188 678.632111 250.507088 696.358325 C 232.791988 714.08454 214.775453 696.358325 215.076888 696.358325 C 215.378323 696.358325 215.378323 731.780811 215.378323 731.780811 Z M 215.378323 731.780811 " transform="matrix(0.168465,0,0,0.130457,188.306126,112.753181)"/>
<path style=" stroke:none;fill-rule:evenodd;fill:rgb(80%,80%,80%);fill-opacity:1;" d="M 224.539062 203.597656 C 227.523438 201.285156 227.523438 205.910156 230.507812 203.597656 L 227.523438 217.464844 C 224.628906 217.03125 224.527344 217.464844 222.855469 215.152344 C 222.855469 212.84375 222.855469 205.457031 224.539062 203.597656 Z M 224.539062 203.597656 "/>
<path style="fill-rule:evenodd;fill:rgb(80%,80%,80%);fill-opacity:1;stroke-width:1.25;stroke-linecap:butt;stroke-linejoin:miter;stroke:rgb(0%,0%,0%);stroke-opacity:1;stroke-miterlimit:4;" d="M 215.388172 731.781111 C 197.34845 731.781111 179.63335 714.08484 179.63335 696.358625 L 179.63335 607.78744 C 195.145656 623.267935 268.232037 678.632411 250.516937 696.358625 C 232.801837 714.08484 214.762115 696.358625 215.086737 696.358625 C 215.388172 696.358625 215.388172 731.781111 215.388172 731.781111 Z M 215.388172 731.781111 " transform="matrix(-0.168465,0,0,0.130457,338.836158,112.753142)"/>
<path style=" stroke:none;fill-rule:evenodd;fill:rgb(80%,80%,80%);fill-opacity:1;" d="M 302.140625 203.597656 C 299.15625 201.285156 299.15625 205.910156 296.171875 203.597656 L 299.15625 217.464844 C 302.050781 217.03125 302.148438 217.464844 303.824219 215.152344 C 303.824219 212.84375 303.824219 205.457031 302.140625 203.597656 Z M 302.140625 203.597656 "/>
<path style="fill-rule:evenodd;fill:rgb(80%,80%,80%);fill-opacity:1;stroke-width:1.25;stroke-linecap:butt;stroke-linejoin:miter;stroke:rgb(0%,0%,0%);stroke-opacity:1;stroke-miterlimit:4;" d="M 513.778189 1140.911281 C 513.778189 1123.185067 478.347989 1087.762582 478.347989 1070.036368 C 478.347989 1052.310153 513.778189 1087.762582 584.638588 1087.762582 C 655.522175 1087.762582 690.952375 999.161454 673.237275 981.465182 C 690.952375 1016.887668 690.952375 1052.310153 690.952375 1070.036368 C 690.952375 1105.488796 655.522175 1140.911281 584.638588 1140.911281 Z M 513.778189 1140.911281 " transform="matrix(0.168465,0,0,0.130457,188.723681,75.55523)"/>
<path style="fill-rule:evenodd;fill:rgb(80%,80%,80%);fill-opacity:1;stroke-width:1.25;stroke-linecap:butt;stroke-linejoin:miter;stroke:rgb(0%,0%,0%);stroke-opacity:1;stroke-miterlimit:4;" d="M 513.772725 1140.911281 C 513.772725 1123.185067 478.342525 1087.762582 478.342525 1070.036368 C 478.342525 1052.310153 513.772725 1087.762582 584.656312 1087.762582 C 655.516712 1087.762582 690.946912 999.161454 673.231812 981.465182 C 690.946912 1016.887668 690.946912 1052.310153 690.946912 1070.036368 C 690.946912 1105.488796 655.516712 1140.911281 584.656312 1140.911281 Z M 513.772725 1140.911281 " transform="matrix(-0.168465,0,0,0.130457,337.955086,75.55523)"/>
<path style=" stroke:none;fill-rule:evenodd;fill:rgb(80%,80%,80%);fill-opacity:1;" d="M 251.402344 222.082031 C 251.402344 219.773438 257.371094 217.460938 257.371094 215.148438 L 257.371094 226.707031 L 251.402344 226.707031 Z M 251.402344 222.082031 "/>
<path style=" stroke:none;fill-rule:evenodd;fill:rgb(80%,80%,80%);fill-opacity:1;" d="M 275.277344 222.082031 C 275.277344 219.773438 269.308594 217.460938 269.308594 215.148438 L 269.308594 226.707031 L 275.277344 226.707031 Z M 275.277344 222.082031 "/>
<path style="fill-rule:evenodd;fill:rgb(80%,80%,80%);fill-opacity:1;stroke-width:1.25;stroke-linecap:butt;stroke-linejoin:miter;stroke:rgb(0%,0%,0%);stroke-opacity:1;stroke-miterlimit:4;" d="M 371.158578 1034.585124 C 371.158578 1052.311338 512.902564 1052.311338 512.902564 1034.585124 L 512.902564 1105.460038 C 512.902564 1123.186252 371.158578 1123.186252 371.158578 1105.460038 Z M 371.158578 1034.585124 " transform="matrix(0.168465,0,0,0.130457,188.871193,87.109763)"/>
<path style="fill:none;stroke-width:1.25;stroke-linecap:butt;stroke-linejoin:miter;stroke:rgb(0%,0%,0%);stroke-opacity:1;stroke-miterlimit:4;" d="M 249.630988 696.358325 C 231.915888 714.08454 231.915888 678.632111 214.200788 696.358325 C 196.485688 714.08454 231.915888 802.655725 302.776288 802.655725 C 373.636688 802.655725 409.090075 767.233239 409.090075 784.92951 C 409.090075 802.655725 373.636688 820.381939 373.636688 838.07821 C 373.636688 855.804424 515.380674 855.804424 515.380674 838.07821 C 515.380674 820.381939 479.950474 802.655725 479.950474 784.92951 C 479.950474 767.233239 515.380674 802.655725 586.241074 802.655725 C 657.101474 802.655725 692.554861 714.08454 674.816574 696.358325 C 657.101474 678.632111 657.101474 714.08454 639.386374 696.358325 " transform="matrix(0.168465,0,0,0.130457,188.453718,112.753181)"/>
<path style=" stroke:none;fill-rule:nonzero;fill:rgb(0%,0%,0%);fill-opacity:1;" d="M 300.117188 220.503906 L 297.046875 215.382812 L 297.582031 215.167969 L 300.65625 220.289062 Z M 300.117188 220.503906 "/>
<path style=" stroke:none;fill-rule:nonzero;fill:rgb(0%,0%,0%);fill-opacity:1;" d="M 298.195312 219.390625 L 298.839844 219.386719 C 299.003906 220 299.011719 220.507812 298.859375 220.910156 C 298.707031 221.3125 298.410156 221.585938 297.976562 221.730469 C 297.523438 221.878906 297.097656 221.886719 296.703125 221.75 C 296.304688 221.609375 295.925781 221.34375 295.558594 220.953125 C 295.195312 220.5625 294.890625 220.113281 294.640625 219.605469 C 294.371094 219.054688 294.21875 218.546875 294.183594 218.082031 C 294.148438 217.617188 294.230469 217.226562 294.433594 216.910156 C 294.636719 216.59375 294.921875 216.375 295.292969 216.253906 C 295.710938 216.113281 296.128906 216.132812 296.546875 216.304688 C 296.964844 216.480469 297.351562 216.792969 297.703125 217.246094 L 297.238281 217.589844 C 296.949219 217.234375 296.671875 217 296.402344 216.886719 C 296.128906 216.773438 295.855469 216.761719 295.574219 216.855469 C 295.253906 216.960938 295.03125 217.148438 294.910156 217.417969 C 294.792969 217.683594 294.769531 217.996094 294.84375 218.355469 C 294.917969 218.710938 295.039062 219.0625 295.210938 219.414062 C 295.433594 219.863281 295.675781 220.238281 295.945312 220.542969 C 296.214844 220.84375 296.5 221.039062 296.800781 221.132812 C 297.101562 221.226562 297.378906 221.230469 297.632812 221.144531 C 297.945312 221.042969 298.152344 220.84375 298.257812 220.542969 C 298.359375 220.246094 298.339844 219.863281 298.195312 219.390625 Z M 298.195312 219.390625 "/>
<path style=" stroke:none;fill-rule:nonzero;fill:rgb(0%,0%,0%);fill-opacity:1;" d="M 294.449219 222.921875 L 292.445312 217.453125 L 293.019531 217.3125 L 295.019531 222.78125 Z M 294.449219 222.921875 "/>
<path style=" stroke:none;fill-rule:nonzero;fill:rgb(0%,0%,0%);fill-opacity:1;" d="M 290.664062 223.523438 L 290.140625 218.507812 L 288.65625 218.613281 L 288.585938 217.941406 L 292.152344 217.6875 L 292.222656 218.359375 L 290.734375 218.464844 L 291.261719 223.484375 Z M 290.664062 223.523438 "/>
<path style=" stroke:none;fill-rule:nonzero;fill:rgb(0%,0%,0%);fill-opacity:1;" d="M 284.9375 222.003906 L 285.5 221.945312 C 285.527344 222.230469 285.589844 222.464844 285.6875 222.648438 C 285.785156 222.832031 285.9375 222.976562 286.140625 223.09375 C 286.347656 223.203125 286.578125 223.261719 286.835938 223.261719 C 287.0625 223.261719 287.265625 223.21875 287.4375 223.132812 C 287.613281 223.046875 287.742188 222.929688 287.828125 222.78125 C 287.914062 222.628906 287.957031 222.46875 287.957031 222.289062 C 287.957031 222.113281 287.914062 221.957031 287.832031 221.824219 C 287.75 221.6875 287.613281 221.574219 287.425781 221.484375 C 287.304688 221.425781 287.039062 221.332031 286.621094 221.207031 C 286.207031 221.082031 285.917969 220.960938 285.75 220.847656 C 285.535156 220.707031 285.375 220.53125 285.265625 220.320312 C 285.164062 220.105469 285.109375 219.867188 285.109375 219.605469 C 285.109375 219.316406 285.175781 219.050781 285.304688 218.800781 C 285.433594 218.546875 285.621094 218.359375 285.871094 218.226562 C 286.121094 218.097656 286.394531 218.03125 286.699219 218.03125 C 287.035156 218.03125 287.328125 218.101562 287.582031 218.238281 C 287.839844 218.375 288.039062 218.574219 288.175781 218.839844 C 288.3125 219.105469 288.386719 219.402344 288.398438 219.738281 L 287.824219 219.792969 C 287.792969 219.433594 287.6875 219.160156 287.507812 218.976562 C 287.332031 218.789062 287.070312 218.699219 286.722656 218.699219 C 286.363281 218.699219 286.097656 218.785156 285.933594 218.953125 C 285.769531 219.117188 285.6875 219.320312 285.6875 219.554688 C 285.6875 219.761719 285.746094 219.929688 285.863281 220.0625 C 285.976562 220.195312 286.277344 220.332031 286.761719 220.472656 C 287.246094 220.609375 287.582031 220.730469 287.761719 220.832031 C 288.023438 220.988281 288.21875 221.179688 288.34375 221.417969 C 288.46875 221.652344 288.53125 221.921875 288.53125 222.226562 C 288.53125 222.53125 288.460938 222.820312 288.324219 223.089844 C 288.1875 223.355469 287.988281 223.566406 287.730469 223.714844 C 287.476562 223.863281 287.183594 223.9375 286.863281 223.9375 C 286.453125 223.9375 286.109375 223.863281 285.835938 223.710938 C 285.558594 223.5625 285.34375 223.335938 285.183594 223.035156 C 285.027344 222.730469 284.945312 222.386719 284.9375 222.003906 Z M 284.9375 222.003906 "/>
<path style=" stroke:none;fill-rule:nonzero;fill:rgb(0%,0%,0%);fill-opacity:1;" d="M 283.3125 218.070312 L 283.910156 218.089844 L 283.726562 221.386719 C 283.695312 221.960938 283.617188 222.414062 283.496094 222.746094 C 283.375 223.082031 283.175781 223.347656 282.894531 223.550781 C 282.613281 223.75 282.257812 223.84375 281.824219 223.828125 C 281.402344 223.8125 281.0625 223.707031 280.800781 223.511719 C 280.542969 223.316406 280.367188 223.042969 280.269531 222.691406 C 280.175781 222.335938 280.144531 221.859375 280.179688 221.253906 L 280.359375 217.957031 L 280.957031 217.980469 L 280.773438 221.273438 C 280.746094 221.769531 280.761719 222.136719 280.824219 222.375 C 280.882812 222.609375 280.996094 222.796875 281.167969 222.929688 C 281.339844 223.0625 281.550781 223.132812 281.808594 223.144531 C 282.246094 223.160156 282.566406 223.046875 282.769531 222.800781 C 282.96875 222.558594 283.089844 222.078125 283.128906 221.359375 Z M 283.3125 218.070312 "/>
<path style=" stroke:none;fill-rule:nonzero;fill:rgb(0%,0%,0%);fill-opacity:1;" d="M 275.9375 221.894531 L 276.476562 221.800781 C 276.492188 222.234375 276.554688 222.535156 276.671875 222.695312 C 276.785156 222.855469 276.945312 222.9375 277.148438 222.9375 C 277.296875 222.9375 277.425781 222.894531 277.535156 222.808594 C 277.644531 222.722656 277.71875 222.601562 277.761719 222.453125 C 277.800781 222.304688 277.824219 222.066406 277.824219 221.738281 L 277.824219 217.804688 L 278.421875 217.804688 L 278.421875 221.695312 C 278.421875 222.171875 278.375 222.542969 278.28125 222.804688 C 278.191406 223.066406 278.046875 223.265625 277.847656 223.40625 C 277.652344 223.542969 277.417969 223.613281 277.152344 223.613281 C 276.753906 223.613281 276.453125 223.46875 276.238281 223.179688 C 276.03125 222.890625 275.929688 222.460938 275.9375 221.894531 Z M 275.9375 221.894531 "/>
<path style=" stroke:none;fill-rule:nonzero;fill:rgb(0%,0%,0%);fill-opacity:1;" d="M 265.78125 231.429688 L 265.78125 230.640625 L 268.09375 226.511719 C 268.257812 226.21875 268.414062 225.964844 268.5625 225.746094 L 266.042969 225.746094 L 266.042969 224.984375 L 269.277344 224.984375 L 269.277344 225.746094 L 266.742188 230.21875 L 266.46875 230.671875 L 269.351562 230.671875 L 269.351562 231.429688 Z M 265.78125 231.429688 "/>
<path style=" stroke:none;fill-rule:nonzero;fill:rgb(0%,0%,0%);fill-opacity:1;" d="M 232.902344 223.511719 L 234.324219 217.175781 L 234.914062 217.261719 L 233.488281 223.601562 Z M 232.902344 223.511719 "/>
<path style=" stroke:none;fill-rule:nonzero;fill:rgb(0%,0%,0%);fill-opacity:1;" d="M 226.511719 221.015625 L 230.222656 215.335938 L 230.761719 215.574219 L 229.9375 220.957031 L 232.851562 216.496094 L 233.355469 216.71875 L 229.644531 222.398438 L 229.101562 222.160156 L 229.929688 216.777344 L 227.015625 221.238281 Z M 226.511719 221.015625 "/>
<path style=" stroke:none;fill-rule:nonzero;fill:rgb(0%,0%,0%);fill-opacity:1;" d="M 229.699219 214.679688 L 230.125 215.027344 L 226.921875 217.660156 C 226.363281 218.121094 225.886719 218.453125 225.484375 218.664062 C 225.085938 218.875 224.6875 218.988281 224.289062 219 C 223.898438 219.015625 223.546875 218.894531 223.238281 218.640625 C 222.9375 218.394531 222.785156 218.121094 222.773438 217.820312 C 222.761719 217.515625 222.882812 217.191406 223.140625 216.84375 C 223.398438 216.5 223.820312 216.082031 224.410156 215.601562 L 227.609375 212.964844 L 228.03125 213.3125 L 224.835938 215.945312 C 224.355469 216.339844 224.023438 216.652344 223.84375 216.882812 C 223.671875 217.113281 223.585938 217.332031 223.585938 217.535156 C 223.589844 217.742188 223.679688 217.917969 223.863281 218.066406 C 224.175781 218.320312 224.519531 218.402344 224.894531 218.308594 C 225.269531 218.21875 225.808594 217.882812 226.503906 217.3125 Z M 229.699219 214.679688 "/>
<path style=" stroke:none;fill-rule:nonzero;fill:rgb(0%,0%,0%);fill-opacity:1;" d="M 236.078125 224.003906 L 236.292969 217.558594 L 237.847656 217.59375 C 238.199219 217.601562 238.464844 217.640625 238.648438 217.703125 C 238.90625 217.796875 239.121094 217.953125 239.292969 218.183594 C 239.523438 218.472656 239.6875 218.847656 239.789062 219.296875 C 239.894531 219.746094 239.9375 220.257812 239.917969 220.828125 C 239.902344 221.320312 239.847656 221.753906 239.753906 222.128906 C 239.660156 222.503906 239.546875 222.816406 239.414062 223.0625 C 239.28125 223.304688 239.136719 223.496094 238.980469 223.636719 C 238.828125 223.773438 238.644531 223.878906 238.433594 223.945312 C 238.21875 224.015625 237.976562 224.046875 237.703125 224.039062 Z M 236.699219 223.253906 L 237.664062 223.277344 C 237.960938 223.285156 238.195312 223.25 238.367188 223.175781 C 238.539062 223.097656 238.679688 222.992188 238.785156 222.851562 C 238.933594 222.652344 239.050781 222.382812 239.140625 222.042969 C 239.230469 221.703125 239.285156 221.289062 239.300781 220.804688 C 239.324219 220.128906 239.265625 219.609375 239.121094 219.246094 C 238.980469 218.878906 238.800781 218.632812 238.582031 218.503906 C 238.425781 218.414062 238.167969 218.363281 237.8125 218.355469 L 236.863281 218.332031 Z M 236.699219 223.253906 "/>
<path style=" stroke:none;fill-rule:nonzero;fill:rgb(0%,0%,0%);fill-opacity:1;" d="M 240.242188 224.042969 L 241.976562 217.597656 L 242.621094 217.597656 L 244.46875 224.042969 L 243.789062 224.042969 L 243.261719 222.09375 L 241.375 222.09375 L 240.878906 224.042969 Z M 241.546875 221.398438 L 243.078125 221.398438 L 242.605469 219.613281 C 242.460938 219.070312 242.355469 218.625 242.285156 218.277344 C 242.226562 218.6875 242.148438 219.101562 242.042969 219.507812 Z M 241.546875 221.398438 "/>
<path style=" stroke:none;fill-rule:nonzero;fill:rgb(0%,0%,0%);fill-opacity:1;" d="M 244.945312 224.042969 L 244.945312 217.597656 L 246.5 217.597656 C 246.851562 217.597656 247.121094 217.628906 247.304688 217.691406 C 247.5625 217.777344 247.785156 217.929688 247.96875 218.152344 C 248.207031 218.441406 248.382812 218.808594 248.5 219.257812 C 248.621094 219.703125 248.679688 220.210938 248.679688 220.785156 C 248.679688 221.277344 248.640625 221.710938 248.558594 222.089844 C 248.480469 222.464844 248.375 222.78125 248.25 223.03125 C 248.125 223.277344 247.988281 223.46875 247.839844 223.613281 C 247.691406 223.753906 247.511719 223.863281 247.300781 223.933594 C 247.089844 224.007812 246.847656 224.042969 246.574219 224.042969 Z M 245.542969 223.285156 L 246.507812 223.285156 C 246.804688 223.285156 247.039062 223.246094 247.207031 223.164062 C 247.378906 223.085938 247.511719 222.972656 247.613281 222.832031 C 247.753906 222.628906 247.863281 222.359375 247.941406 222.019531 C 248.023438 221.675781 248.0625 221.261719 248.0625 220.773438 C 248.0625 220.097656 247.984375 219.582031 247.828125 219.222656 C 247.675781 218.859375 247.488281 218.613281 247.265625 218.492188 C 247.105469 218.402344 246.847656 218.359375 246.492188 218.359375 L 245.542969 218.359375 Z M 245.542969 223.285156 "/>
<path style=" stroke:none;fill-rule:nonzero;fill:rgb(0%,0%,0%);fill-opacity:1;" d="M 257.730469 231.429688 L 257.730469 224.984375 L 259.433594 224.984375 C 259.734375 224.984375 259.960938 225.007812 260.121094 225.046875 C 260.339844 225.101562 260.527344 225.199219 260.675781 225.351562 C 260.828125 225.496094 260.945312 225.703125 261.039062 225.96875 C 261.128906 226.238281 261.175781 226.53125 261.175781 226.851562 C 261.175781 227.398438 261.054688 227.863281 260.808594 228.242188 C 260.566406 228.621094 260.125 228.8125 259.484375 228.8125 L 258.328125 228.8125 L 258.328125 231.429688 Z M 258.328125 228.050781 L 259.496094 228.050781 C 259.878906 228.050781 260.15625 227.949219 260.316406 227.742188 C 260.480469 227.539062 260.558594 227.25 260.558594 226.875 C 260.558594 226.605469 260.511719 226.375 260.414062 226.1875 C 260.320312 225.992188 260.195312 225.863281 260.039062 225.804688 C 259.9375 225.765625 259.753906 225.746094 259.480469 225.746094 L 258.328125 225.746094 Z M 258.328125 228.050781 "/>
<path style=" stroke:none;fill-rule:nonzero;fill:rgb(0%,0%,0%);fill-opacity:1;" d="M 261.441406 231.429688 L 263.175781 224.984375 L 263.820312 224.984375 L 265.667969 231.429688 L 264.984375 231.429688 L 264.460938 229.480469 L 262.570312 229.480469 L 262.074219 231.429688 Z M 262.742188 228.785156 L 264.273438 228.785156 L 263.804688 227 C 263.660156 226.457031 263.550781 226.011719 263.484375 225.664062 C 263.425781 226.074219 263.34375 226.484375 263.238281 226.894531 Z M 262.742188 228.785156 "/>
<path style=" stroke:none;fill-rule:nonzero;fill:rgb(0%,0%,0%);fill-opacity:1;" d="M 301.472656 220.003906 L 298.457031 214.492188 L 298.933594 214.203125 L 304.597656 218.113281 L 304.09375 218.417969 L 302.402344 217.21875 L 301.007812 218.0625 L 301.941406 219.71875 Z M 300.671875 217.476562 L 301.804688 216.789062 L 300.265625 215.691406 C 299.796875 215.355469 299.421875 215.078125 299.136719 214.851562 C 299.371094 215.179688 299.582031 215.519531 299.777344 215.863281 Z M 300.671875 217.476562 "/>
<path style="fill-rule:evenodd;fill:rgb(40.784314%,16.078431%,0%);fill-opacity:1;stroke-width:5.0292;stroke-linecap:butt;stroke-linejoin:miter;stroke:rgb(0%,0%,0%);stroke-opacity:1;stroke-miterlimit:4;" d="M 419.160644 331.779315 C 419.236054 364.753636 439.068974 463.414601 381.49318 616.720867 C 377.232495 627.837068 388.544046 633.189313 397.970339 635.547295 C 407.396631 637.905277 412.109777 626.152795 412.109777 623.794813 C 412.109777 621.436831 414.447498 642.621242 423.87379 640.263259 C 433.300083 637.905277 442.726375 623.794813 442.726375 623.794813 C 442.726375 623.794813 447.401816 644.979224 459.203534 644.979224 C 470.967547 644.979224 470.967547 619.078849 470.967547 619.078849 C 470.967547 621.436831 479.111864 641.311252 488.538156 641.311252 C 497.964449 641.311252 512.480939 632.553032 504.110392 618.18057 C 444.272287 517.461049 447.401816 350.643172 447.401816 331.779315 C 447.401816 312.952886 475.190526 278.706003 502.828416 277.882581 L 492.157853 261.152136 C 485.182396 263.285549 476.887259 264.820109 462.74782 276.572591 C 448.608382 288.362501 440.35095 301.162976 440.35095 301.162976 L 440.35095 221.103869 L 416.822924 221.103869 L 419.160644 294.126458 C 419.160644 294.126458 411.091738 284.657101 399.063789 274.17718 C 387.676827 264.258684 367.089805 264.969822 354.420868 267.065806 L 353.214302 283.047685 C 368.183255 286.154232 387.299776 279.978565 396.726068 294.126458 C 408.490081 305.87894 419.122939 315.385725 419.160644 331.779315 Z M 419.160644 331.779315 " transform="matrix(0.1036,0,0,0.104366,219.465644,142.053125)"/>
<path style="fill-rule:evenodd;fill:rgb(0%,57.254902%,0%);fill-opacity:1;stroke-width:4.4636;stroke-linecap:butt;stroke-linejoin:miter;stroke:rgb(0%,0%,0%);stroke-opacity:1;stroke-miterlimit:4;" d="M 310.543418 312.203243 L 310.543418 311.366705 C 310.543418 313.367123 310.48889 312.494213 311.388598 308.89346 C 312.151985 306.020131 313.787817 303.36503 315.532703 301.400983 C 318.586255 300.382588 322.975736 301.437354 326.356453 300.564444 C 328.646617 297.291032 332.190918 304.81988 332.190918 299.727905 C 336.553135 299.400564 336.607663 295.145128 338.025383 293.071967 C 342.087697 292.562769 342.987405 287.61628 346.340859 290.562351 C 349.094508 291.871716 346.749816 289.725812 351.357408 289.725812 C 354.056529 290.380494 355.47425 292.053572 358.009788 290.562351 C 358.636857 287.725393 359.400245 284.306496 359.672883 280.560257 C 358.500538 278.232498 358.827704 273.395122 358.827704 269.757997 C 361.117868 266.702812 365.09839 272.231242 368.833538 271.431074 C 369.842301 267.866692 372.977644 267.939434 371.314549 264.738765 C 371.014647 260.737927 370.251259 258.264682 371.314549 253.936504 C 372.650478 250.226637 374.558948 250.33575 377.994193 248.117104 C 379.084747 244.843692 377.857874 242.079477 378.812109 238.115011 C 382.71084 238.005897 382.656312 236.987502 382.983479 233.13215 C 384.237616 230.440678 385.846183 227.749205 387.972764 225.639673 C 389.935761 223.239171 392.280453 223.493769 393.807229 219.783902 C 395.115894 216.51049 395.115894 215.05564 398.796514 213.964502 C 401.495635 212.691509 403.622216 212.546024 405.476158 210.654719 C 407.193781 207.563163 408.638765 205.16266 411.283359 201.489164 C 413.927953 199.706973 426.523854 203.12587 430.449849 203.12587 C 432.549165 200.470769 435.848092 196.288076 437.920145 194.833226 C 441.518973 192.90555 442.882166 192.32361 447.925979 192.32361 C 452.206404 193.596604 454.005819 195.124196 458.749729 193.996687 C 460.685463 191.268844 462.566669 190.032221 467.065205 191.487071 C 470.50045 193.705717 472.40892 193.596604 473.744849 197.306471 C 475.680583 201.925619 475.244361 203.525954 480.397229 203.962409 C 485.577362 204.144265 486.095375 205.417259 489.557884 208.145103 C 494.792544 210.40012 494.54717 209.127126 494.54717 213.964502 C 498.255054 213.964502 498.609484 213.528047 498.718539 217.310657 C 501.008703 218.001711 503.626033 220.00213 505.37092 221.456979 C 507.470236 223.893853 507.98825 225.385074 512.86848 225.639673 C 516.467308 224.112081 517.61239 224.112081 517.857765 219.783902 C 520.611414 218.801878 521.0749 216.146777 522.029135 213.127964 C 524.128451 210.254635 525.491644 209.81818 530.34461 209.81818 C 534.625035 211.564 534.488716 213.382562 533.6708 217.310657 C 536.342658 217.856226 537.433212 217.528885 537.84217 220.620441 C 539.25989 222.984572 538.878196 225.785158 536.99699 227.276379 C 539.150835 228.840343 540.377708 231.531815 541.16836 234.768856 C 539.75064 237.132987 540.623083 240.588256 541.16836 243.097872 C 544.085593 244.552722 545.585105 245.898458 549.483836 247.280566 C 551.474097 248.953643 555.699994 250.699463 559.48967 251.426888 C 563.960942 250.844948 565.460454 250.881319 569.468241 253.099965 C 571.567558 256.082408 571.703877 259.865017 573.63961 261.428981 C 575.820719 263.283915 579.446811 264.084082 581.13717 266.411842 C 583.918083 268.448632 584.735999 270.703649 588.63473 271.431074 C 590.106978 273.64972 593.269585 277.323216 594.441931 279.723719 C 595.396166 282.451562 595.805124 287.143453 596.950206 290.562351 L 596.950206 302.20115 C 596.786623 306.529329 596.13229 309.148058 596.13229 313.876321 C 595.368902 316.276823 594.441931 317.186104 594.441931 320.532259 C 592.860628 324.06027 591.524699 327.042712 589.452646 329.697814 C 588.525675 333.916878 586.998899 335.917297 585.30854 339.699907 C 585.335804 344.064457 586.126456 345.992133 586.126456 350.502167 C 584.327041 353.19364 582.254988 355.157687 578.628896 357.158106 C 575.90251 360.358776 574.266679 361.595398 573.63961 366.32366 C 572.085571 369.015133 572.194626 368.833276 568.650325 368.833276 C 564.451692 368.833276 560.825599 369.196989 556.981396 369.669815 C 553.600678 369.669815 552.34654 369.997156 550.329015 367.996738 C 546.348492 366.178175 542.995038 366.069062 538.660086 367.160199 C 536.342658 365.559864 535.415687 364.650583 531.18979 364.650583 C 528.027182 365.087038 525.219006 365.487122 521.183955 365.487122 C 518.702944 362.722907 517.285224 362.177338 512.86848 362.177338 C 510.496524 363.341218 505.670822 363.013877 502.044729 363.013877 C 498.22779 361.959111 497.737041 360.358776 496.210265 357.158106 C 493.620199 355.921483 492.584172 354.139292 488.712705 353.848322 C 485.086612 353.848322 480.26091 354.175663 477.888955 353.011784 C 475.162569 352.684442 472.299865 351.993389 470.391395 350.502167 C 468.837355 348.210779 466.874358 346.246731 464.584194 344.682768 C 460.87631 344.682768 458.722465 345.04648 457.086634 343.00969 C 454.360249 340.863787 452.17914 337.444889 448.743895 335.517213 C 445.690343 333.08034 443.61829 331.589118 442.091514 327.188197 C 442.091514 323.260103 442.882166 322.31445 438.765324 322.205336 C 436.011675 325.005923 434.757538 325.51512 429.604669 325.51512 C 426.223951 325.51512 422.67965 325.51512 420.444014 324.714953 C 416.763394 322.60542 415.427465 321.696139 411.283359 321.368798 C 408.693293 323.005504 405.285311 324.93318 401.304788 325.51512 C 397.896807 327.479167 395.852018 327.915622 394.652408 331.370891 C 391.489801 333.916878 389.663123 335.444471 385.491753 337.190291 C 383.174326 339.408937 380.965953 339.772649 379.657288 343.846229 C 378.866637 347.228755 377.994193 349.229174 377.994193 353.848322 C 378.566734 358.212872 378.348623 360.067806 376.331098 363.814044 C 374.586211 366.32366 371.559924 367.523911 368.833538 369.669815 C 364.716696 370.142641 364.280475 369.851671 361.335978 367.996738 C 358.391482 367.014714 355.065292 366.214547 351.357408 365.487122 C 346.858872 364.614212 345.332096 363.523074 343.014668 361.340799 L 351.357408 365.487122 C 346.858872 364.614212 345.332096 363.523074 343.014668 361.340799 C 337.943592 357.740046 336.962093 355.921483 331.373003 355.5214 C 326.165607 355.557771 323.92997 355.81237 323.030263 360.504261 C 326.002023 361.304428 323.657332 363.050248 322.212348 363.814044 C 320.140295 365.668978 316.786841 367.19657 313.869608 367.996738 C 312.560943 369.306103 312.806318 366.9056 310.543418 366.32366 C 307.108172 364.468727 305.663188 363.086619 302.227943 362.177338 C 300.537584 359.194896 298.629114 356.903507 296.393478 353.848322 C 294.648591 351.011365 293.01276 349.99297 290.559013 347.192384 C 289.386667 345.410193 286.414907 345.33745 284.751812 343.846229 C 283.743049 340.863787 281.561941 335.262614 282.243538 332.20743 C 283.933896 330.607095 284.888131 324.93318 287.232823 323.878414 C 290.613541 321.332427 291.867678 323.660186 296.393478 323.878414 C 300.646639 323.878414 290.531749 317.149733 294.730383 317.222475 C 298.656378 316.531422 299.119863 314.603746 300.564847 312.203243 Z M 310.543418 312.203243 " transform="matrix(0.143276,0,0,0.107399,200.842587,133.625811)"/>
<path style="fill:none;stroke-width:4.05;stroke-linecap:butt;stroke-linejoin:miter;stroke:rgb(0%,40.784314%,0%);stroke-opacity:1;stroke-miterlimit:4;" d="M 382.983479 253.093638 C 383.855922 253.812261 387.672861 255.608819 391.298954 255.608819 C 395.279477 256.327442 396.15192 257.824574 397.133419 261.417689 C 399.314527 262.735165 400.67772 263.094477 404.630979 263.094477 C 408.993195 263.962813 408.938668 265.310231 412.128539 268.094896 " transform="matrix(0.143276,0,0,0.130458,200.842587,125.966333)"/>
<path style="fill:none;stroke-width:4.05;stroke-linecap:butt;stroke-linejoin:miter;stroke:rgb(0%,40.784314%,0%);stroke-opacity:1;stroke-miterlimit:4;" d="M 358.827704 299.714313 C 360.654382 299.983797 367.00686 300.552707 371.314549 300.552707 C 374.668003 298.636378 376.249307 297.318903 378.812109 295.552287 C 382.765368 295.552287 384.12856 295.911599 386.309669 297.229075 C 388.408985 297.917755 393.371007 298.187239 395.470324 298.875919 C 395.470324 299.983797 395.197685 299.714313 396.315503 299.714313 " transform="matrix(0.143276,0,0,0.130458,200.842587,125.966333)"/>
<path style="fill:none;stroke-width:4.05;stroke-linecap:butt;stroke-linejoin:miter;stroke:rgb(0%,40.784314%,0%);stroke-opacity:1;stroke-miterlimit:4;" d="M 391.298954 286.389843 C 391.380746 286.389843 394.570617 284.443572 397.133419 283.904604 C 399.96886 281.928391 403.076939 280.970227 406.294074 279.742579 C 408.420654 279.293439 413.40994 279.293439 414.609549 278.904185 " transform="matrix(0.143276,0,0,0.130458,200.842587,125.966333)"/>
<path style="fill:none;stroke-width:4.05;stroke-linecap:butt;stroke-linejoin:miter;stroke:rgb(0%,40.784314%,0%);stroke-opacity:1;stroke-miterlimit:4;" d="M 432.112944 273.903766 L 432.112944 274.74216 C 432.112944 272.406635 432.003888 273.664225 433.776039 278.065792 C 434.648482 282.137989 435.711772 285.611334 437.102229 288.905024 C 439.555976 292.73768 441.164543 294.44441 444.599789 296.390681 C 447.517021 298.696264 449.752657 301.121617 452.915264 302.229494 C 455.123637 304.175765 458.013605 305.792667 461.23074 307.19997 C 465.511165 307.19997 468.810091 307.888651 472.899669 308.038364 L 475.38068 308.038364 " transform="matrix(0.143276,0,0,0.130458,200.842587,125.966333)"/>
<path style="fill:none;stroke-width:4.05;stroke-linecap:butt;stroke-linejoin:miter;stroke:rgb(0%,40.784314%,0%);stroke-opacity:1;stroke-miterlimit:4;" d="M 477.071039 227.283091 L 477.071039 228.121485 C 477.071039 225.875788 477.125567 227.013608 476.22586 231.445117 C 474.971722 234.110011 473.526738 236.565307 472.05449 238.960717 C 468.155759 240.368021 466.683511 243.21257 465.40211 246.446374 C 464.038917 248.662129 461.912336 251.596507 460.412824 253.932032 C 457.822758 257.135893 456.786732 258.183885 452.070085 259.770845 " transform="matrix(0.143276,0,0,0.130458,200.842587,125.966333)"/>
<path style="fill:none;stroke-width:4.05;stroke-linecap:butt;stroke-linejoin:miter;stroke:rgb(0%,40.784314%,0%);stroke-opacity:1;stroke-miterlimit:4;" d="M 510.360205 244.769587 C 510.360205 245.009128 508.833429 247.19494 507.85193 249.770006 C 506.216099 252.195359 505.779878 256.626869 505.37092 259.770845 C 505.37092 263.36396 505.398184 267.316387 506.188835 269.74174 C 508.724374 272.855774 509.351442 274.502619 513.686395 276.418947 L 506.188835 269.74174 C 508.724374 272.855774 509.351442 274.502619 513.686395 276.418947 " transform="matrix(0.143276,0,0,0.130458,200.842587,125.966333)"/>
<path style="fill:none;stroke-width:4.05;stroke-linecap:butt;stroke-linejoin:miter;stroke:rgb(0%,40.784314%,0%);stroke-opacity:1;stroke-miterlimit:4;" d="M 571.131336 273.903766 L 571.131336 274.74216 C 571.131336 272.137151 571.349447 273.72411 566.98723 277.227398 C 563.715568 280.251604 561.39814 282.647014 558.644491 284.742998 C 553.927844 286.000589 553.19172 285.910761 548.66592 285.551449 L 541.16836 285.551449 " transform="matrix(0.143276,0,0,0.130458,200.842587,125.966333)"/>
<path style="fill:none;stroke-width:4.05;stroke-linecap:butt;stroke-linejoin:miter;stroke:rgb(0%,40.784314%,0%);stroke-opacity:1;stroke-miterlimit:4;" d="M 582.800265 337.202486 L 581.955086 337.202486 C 584.299777 337.202486 583.04564 337.082715 578.628896 338.84933 C 574.948275 339.777552 570.749642 339.837437 567.805146 338.84933 C 564.860649 337.172543 561.861625 335.795182 559.48967 333.04046 C 558.235533 332.082296 558.07195 331.722984 556.981396 331.363673 " transform="matrix(0.143276,0,0,0.130458,200.842587,125.966333)"/>
<path style="fill:none;stroke-width:4.05;stroke-linecap:butt;stroke-linejoin:miter;stroke:rgb(0%,40.784314%,0%);stroke-opacity:1;stroke-miterlimit:4;" d="M 553.655205 363.013033 L 553.655205 362.174639 C 553.655205 364.779648 553.873316 363.162746 549.483836 359.659458 C 547.629894 356.904736 545.748688 355.886687 542.01354 353.012194 C 538.769141 349.08971 538.332919 347.532693 536.99699 343.011356 C 536.64256 339.687724 535.552006 336.274264 536.99699 333.848911 " transform="matrix(0.143276,0,0,0.130458,200.842587,125.966333)"/>
<path style="fill:none;stroke-width:4.05;stroke-linecap:butt;stroke-linejoin:miter;stroke:rgb(0%,40.784314%,0%);stroke-opacity:1;stroke-miterlimit:4;" d="M 492.038895 348.850169 C 493.865573 348.850169 500.599745 348.670513 503.707825 348.011775 C 506.134308 346.36493 508.806165 345.257053 512.0233 343.84975 C 513.795451 339.478126 515.294963 338.040879 515.34949 333.010517 " transform="matrix(0.143276,0,0,0.130458,200.842587,125.966333)"/>
<path style="fill:none;stroke-width:4.05;stroke-linecap:butt;stroke-linejoin:miter;stroke:rgb(0%,40.784314%,0%);stroke-opacity:1;stroke-miterlimit:4;" d="M 441.273599 323.878015 C 440.619266 322.380884 437.729298 316.422301 436.257049 313.038783 C 436.202522 309.415725 435.439134 306.750831 435.439134 303.067888 " transform="matrix(0.143276,0,0,0.130458,200.842587,125.966333)"/>
<path style="fill:none;stroke-width:4.05;stroke-linecap:butt;stroke-linejoin:miter;stroke:rgb(0%,40.784314%,0%);stroke-opacity:1;stroke-miterlimit:4;" d="M 328.864728 350.497013 C 329.709908 350.646727 333.226945 350.91621 335.517108 350.497013 C 339.143201 348.64057 342.551183 348.311201 346.340859 348.011775 C 348.276592 346.844013 351.439199 346.993726 352.993239 345.526537 C 356.483012 343.191012 356.946498 340.855487 358.827704 337.202486 C 358.991287 335.525698 359.5093 334.687305 359.672883 333.04046 " transform="matrix(0.143276,0,0,0.130458,200.842587,125.966333)"/>
<path style="fill:none;stroke-width:4.05;stroke-linecap:butt;stroke-linejoin:miter;stroke:rgb(0%,40.784314%,0%);stroke-opacity:1;stroke-miterlimit:4;" d="M 383.801394 338.010937 C 381.974716 338.010937 375.158752 338.130707 371.314549 337.172543 C 369.351551 335.914953 367.961095 333.818968 366.325264 332.202066 C 367.443082 332.202066 367.170443 332.47155 367.170443 331.363673 " transform="matrix(0.143276,0,0,0.130458,200.842587,125.966333)"/>
<path style="fill:none;stroke-width:4.05;stroke-linecap:butt;stroke-linejoin:miter;stroke:rgb(0%,40.784314%,0%);stroke-opacity:1;stroke-miterlimit:4;" d="M 393.807229 313.877177 C 394.161659 313.787349 398.278501 312.20039 401.304788 312.20039 C 403.076939 311.06257 406.048699 309.984635 408.775085 308.876758 C 410.274597 308.098249 411.283359 307.110143 412.946454 306.391519 " transform="matrix(0.143276,0,0,0.130458,200.842587,125.966333)"/>
<path style="fill:none;stroke-width:4.05;stroke-linecap:butt;stroke-linejoin:miter;stroke:rgb(0%,40.784314%,0%);stroke-opacity:1;stroke-miterlimit:4;" d="M 293.067288 347.173381 L 293.885203 347.173381 C 291.649567 347.173381 292.794649 347.233267 297.211393 346.334988 C 302.391526 346.035561 305.881299 344.239004 309.725502 343.011356 C 312.206513 340.705773 315.641759 338.370248 318.040978 337.202486 C 318.040978 335.765239 317.686548 335.914953 318.858894 335.525698 " transform="matrix(0.143276,0,0,0.130458,200.842587,125.966333)"/>
<path style="fill:none;stroke-width:4.05;stroke-linecap:butt;stroke-linejoin:miter;stroke:rgb(0%,40.784314%,0%);stroke-opacity:1;stroke-miterlimit:4;" d="M 504.553004 301.3911 L 505.37092 301.3911 C 503.053492 301.3911 504.280366 301.301272 508.69711 303.067888 C 512.214147 304.415306 515.404018 304.834503 518.702944 305.553126 C 521.674704 306.271749 522.819786 307.229913 527.01842 307.229913 C 531.217053 309.056414 532.116761 309.625324 535.333895 312.20039 C 537.814906 313.368152 539.559793 313.877177 543.676635 313.877177 C 545.857743 312.679472 549.838266 311.272168 551.99211 310.553545 C 553.218984 309.625324 553.300775 309.984635 553.655205 308.876758 " transform="matrix(0.143276,0,0,0.130458,200.842587,125.966333)"/>
<path style="fill:none;stroke-width:1.25;stroke-linecap:butt;stroke-linejoin:miter;stroke:rgb(0%,0%,0%);stroke-opacity:1;stroke-miterlimit:4;" d="M 430.951623 469.525635 L 430.951623 488.389492 C 430.951623 494.407961 430.379082 499.647921 428.579667 504.857939 C 428.579667 510.726694 428.497876 516.415794 426.234976 520.158623 C 425.826018 525.787837 425.06263 530.638543 425.06263 536.657012 C 423.345007 541.777201 423.535854 548.693949 422.690675 554.323163 C 421.954551 559.832607 421.300218 566.360101 420.345983 570.79161 C 418.601097 574.474553 415.602073 581.15176 413.284645 583.756769 C 412.984743 588.847016 411.757869 591.332254 413.284645 595.524222 C 414.920476 600.434813 414.456991 606.363454 414.456991 612.022611 C 415.983767 616.633776 415.629337 622.02345 415.629337 627.323295 " transform="matrix(0.143276,0,0,0.130458,202.751163,125.531869)"/>
<path style="fill:none;stroke-width:1.25;stroke-linecap:butt;stroke-linejoin:miter;stroke:rgb(0%,0%,0%);stroke-opacity:1;stroke-miterlimit:4;" d="M 436.813351 493.090485 C 437.167781 495.455953 438.939932 503.95966 439.185307 509.558932 L 439.185307 535.459306 C 439.185307 541.777201 439.70332 547.316588 440.357652 553.125458 C 440.275861 560.072148 438.99446 562.677157 435.641006 568.426142 C 434.986673 573.995471 433.950647 579.355202 433.296314 584.924531 C 431.660483 589.835122 432.123968 595.763763 432.123968 601.392978 C 433.514425 607.740815 435.804589 608.848692 436.813351 614.358136 C 436.813351 617.711711 437.140517 619.418441 437.985697 621.424597 " transform="matrix(0.143276,0,0,0.130458,202.751163,125.531869)"/>
<path style="fill:none;stroke-width:1.25;stroke-linecap:butt;stroke-linejoin:miter;stroke:rgb(0%,0%,0%);stroke-opacity:1;stroke-miterlimit:4;" d="M 447.41899 535.459306 C 447.41899 537.615176 447.282671 548.005268 448.591336 551.957696 C 448.591336 557.976164 449.709154 562.497501 449.763682 568.426142 C 449.054822 573.725987 448.318698 577.528701 445.074299 580.223538 C 442.920455 584.56522 441.748109 588.457761 441.529998 594.326517 C 444.58355 596.482386 447.882476 602.411027 450.963292 604.926208 C 453.526094 610.285939 455.898049 610.52548 456.852284 616.723604 C 459.306031 619.448383 455.107397 620.855687 456.852284 622.59236 C 458.760754 625.137483 457.53388 624.059548 456.852284 626.12559 " transform="matrix(0.143276,0,0,0.130458,202.751163,125.531869)"/>
<path style="fill-rule:evenodd;fill:rgb(100%,81.960784%,0%);fill-opacity:1;stroke-width:3.125;stroke-linecap:butt;stroke-linejoin:miter;stroke:rgb(0%,0%,0%);stroke-opacity:1;stroke-miterlimit:4;" d="M 93.254405 -106.5537 L 109.233018 -80.985918 L 139.399539 -79.928462 L 125.211632 -53.303223 L 139.399539 -26.640218 L 109.233018 -25.582762 L 93.254405 -0.01498 L 77.275791 -25.582762 L 47.10927 -26.640218 L 61.26274 -53.303223 L 47.10927 -79.928462 L 77.275791 -80.985918 Z M 93.254405 -106.5537 " transform="matrix(0.113433,0,0,0.103432,259.859385,139.595299)"/>
<path style="fill-rule:evenodd;fill:rgb(100%,81.960784%,0%);fill-opacity:1;stroke-width:3.125;stroke-linecap:butt;stroke-linejoin:miter;stroke:rgb(0%,0%,0%);stroke-opacity:1;stroke-miterlimit:4;" d="M 93.254316 -106.5537 L 109.23293 -80.985918 L 139.399451 -79.928462 L 125.211544 -53.303223 L 139.399451 -26.640218 L 109.23293 -25.582762 L 93.254316 -0.01498 L 77.275702 -25.582762 L 47.109182 -26.640218 L 61.262652 -53.303223 L 47.109182 -79.928462 L 77.275702 -80.985918 Z M 93.254316 -106.5537 " transform="matrix(0.113433,0,0,0.103432,245.882833,139.595299)"/>
<path style="fill-rule:evenodd;fill:rgb(100%,81.960784%,0%);fill-opacity:1;stroke-width:3.125;stroke-linecap:butt;stroke-linejoin:miter;stroke:rgb(0%,0%,0%);stroke-opacity:1;stroke-miterlimit:4;" d="M 93.233724 -106.558229 L 109.235807 -80.96873 L 139.383505 -79.925793 L 125.20792 -53.288376 L 139.404668 -26.639719 L 109.226999 -25.591802 L 93.241903 0.00945801 L 77.278857 -25.613029 L 47.097013 -26.660426 L 61.272598 -53.297843 L 47.109997 -79.942039 L 77.248628 -80.956969 Z M 93.233724 -106.558229 " transform="matrix(0.112477,-0.0133954,0.0146901,0.102562,233.910709,143.208981)"/>
<path style="fill-rule:evenodd;fill:rgb(100%,81.960784%,0%);fill-opacity:1;stroke-width:3.125;stroke-linecap:butt;stroke-linejoin:miter;stroke:rgb(0%,0%,0%);stroke-opacity:1;stroke-miterlimit:4;" d="M 93.262748 -106.586103 L 109.225793 -80.963616 L 139.373491 -79.920679 L 125.232052 -53.278802 L 139.394654 -26.634606 L 109.216985 -25.586688 L 93.231889 0.0145718 L 77.268843 -25.607915 L 47.086999 -26.655312 L 61.262584 -53.292729 L 47.099983 -79.936926 L 77.277651 -80.984843 Z M 93.262748 -106.586103 " transform="matrix(-0.112477,-0.0133954,-0.0146901,0.102562,294.11949,142.864572)"/>
<path style="fill-rule:evenodd;fill:rgb(100%,81.960784%,0%);fill-opacity:1;stroke-width:3.125;stroke-linecap:butt;stroke-linejoin:miter;stroke:rgb(0%,0%,0%);stroke-opacity:1;stroke-miterlimit:4;" d="M 93.243533 -106.571432 L 109.229645 -80.962245 L 139.37142 -79.926066 L 125.216406 -53.271952 L 139.390546 -26.656899 L 109.249421 -25.611972 L 93.236798 -0.00884173 L 77.250686 -25.618029 L 47.108911 -26.654207 L 61.296424 -53.296935 L 47.089785 -79.923374 L 77.26341 -80.956915 Z M 93.243533 -106.571432 " transform="matrix(-0.107053,-0.0341995,-0.0375067,0.0976151,304.863741,150.052798)"/>
<path style="fill-rule:evenodd;fill:rgb(100%,81.960784%,0%);fill-opacity:1;stroke-width:3.125;stroke-linecap:butt;stroke-linejoin:miter;stroke:rgb(0%,0%,0%);stroke-opacity:1;stroke-miterlimit:4;" d="M 93.242592 -106.558267 L 109.241191 -80.984722 L 139.382966 -79.948544 L 125.227953 -53.294429 L 139.389605 -26.643735 L 109.21598 -25.610194 L 93.235857 0.00432295 L 77.249745 -25.604864 L 47.10797 -26.641042 L 61.262983 -53.295157 L 47.101331 -79.945851 L 77.274956 -80.979392 Z M 93.242592 -106.558267 " transform="matrix(0.107053,-0.0341995,0.0375067,0.0976151,222.78821,149.36398)"/>
</g>
</svg>
