<?xml version="1.0" encoding="UTF-8"?>
<svg xmlns="http://www.w3.org/2000/svg" xmlns:xlink="http://www.w3.org/1999/xlink" width="480pt" height="360pt" viewBox="0 0 480 360" version="1.1">
<defs>
<clipPath id="clip1">
  <path d="M 0 0 L 479.996094 0 L 479.996094 40 L 0 40 Z M 0 0 "/>
</clipPath>
<clipPath id="clip2">
  <path d="M 0 40 L 479.996094 40 L 479.996094 80 L 0 80 Z M 0 40 "/>
</clipPath>
<clipPath id="clip3">
  <path d="M 0 80 L 479.996094 80 L 479.996094 120 L 0 120 Z M 0 80 "/>
</clipPath>
<clipPath id="clip4">
  <path d="M 0 120 L 479.996094 120 L 479.996094 160 L 0 160 Z M 0 120 "/>
</clipPath>
<clipPath id="clip5">
  <path d="M 0 160 L 479.996094 160 L 479.996094 200 L 0 200 Z M 0 160 "/>
</clipPath>
<clipPath id="clip6">
  <path d="M 0 200 L 479.996094 200 L 479.996094 240 L 0 240 Z M 0 200 "/>
</clipPath>
<clipPath id="clip7">
  <path d="M 0 240 L 479.996094 240 L 479.996094 280 L 0 280 Z M 0 240 "/>
</clipPath>
<clipPath id="clip8">
  <path d="M 0 280 L 479.996094 280 L 479.996094 320 L 0 320 Z M 0 280 "/>
</clipPath>
<clipPath id="clip9">
  <path d="M 0 319 L 479.996094 319 L 479.996094 359.996094 L 0 359.996094 Z M 0 319 "/>
</clipPath>
</defs>
<g id="surface1">
<g clip-path="url(#clip1)" clip-rule="nonzero">
<path style=" stroke:none;fill-rule:evenodd;fill:rgb(0%,38.039216%,95.294118%);fill-opacity:1;" d="M 0 0 L 539.996094 0 L 539.996094 40 L 0 40 Z M 0 0 "/>
</g>
<g clip-path="url(#clip2)" clip-rule="nonzero">
<path style=" stroke:none;fill-rule:evenodd;fill:rgb(100%,100%,100%);fill-opacity:1;" d="M 0 40 L 539.996094 40 L 539.996094 80 L 0 80 Z M 0 40 "/>
</g>
<g clip-path="url(#clip3)" clip-rule="nonzero">
<path style=" stroke:none;fill-rule:evenodd;fill:rgb(0%,38.039216%,95.294118%);fill-opacity:1;" d="M 0 80 L 539.996094 80 L 539.996094 120 L 0 120 Z M 0 80 "/>
</g>
<g clip-path="url(#clip4)" clip-rule="nonzero">
<path style=" stroke:none;fill-rule:evenodd;fill:rgb(100%,100%,100%);fill-opacity:1;" d="M 0 120 L 539.996094 120 L 539.996094 160 L 0 160 Z M 0 120 "/>
</g>
<g clip-path="url(#clip5)" clip-rule="nonzero">
<path style=" stroke:none;fill-rule:evenodd;fill:rgb(0%,38.039216%,95.294118%);fill-opacity:1;" d="M 0 160 L 539.996094 160 L 539.996094 200 L 0 200 Z M 0 160 "/>
</g>
<g clip-path="url(#clip6)" clip-rule="nonzero">
<path style=" stroke:none;fill-rule:evenodd;fill:rgb(100%,100%,100%);fill-opacity:1;" d="M 0 200 L 539.996094 200 L 539.996094 240 L 0 240 Z M 0 200 "/>
</g>
<g clip-path="url(#clip7)" clip-rule="nonzero">
<path style=" stroke:none;fill-rule:evenodd;fill:rgb(0%,38.039216%,95.294118%);fill-opacity:1;" d="M 0 240 L 539.996094 240 L 539.996094 280 L 0 280 Z M 0 240 "/>
</g>
<g clip-path="url(#clip8)" clip-rule="nonzero">
<path style=" stroke:none;fill-rule:evenodd;fill:rgb(100%,100%,100%);fill-opacity:1;" d="M 0 280 L 539.996094 280 L 539.996094 319.996094 L 0 319.996094 Z M 0 280 "/>
</g>
<g clip-path="url(#clip9)" clip-rule="nonzero">
<path style=" stroke:none;fill-rule:evenodd;fill:rgb(0%,38.039216%,95.294118%);fill-opacity:1;" d="M 0 319.996094 L 539.996094 319.996094 L 539.996094 359.996094 L 0 359.996094 Z M 0 319.996094 "/>
</g>
<path style=" stroke:none;fill-rule:evenodd;fill:rgb(0%,38.039216%,95.294118%);fill-opacity:1;" d="M 0 0 L 200 0 L 200 200 L 0 200 Z M 0 0 "/>
<path style=" stroke:none;fill-rule:evenodd;fill:rgb(100%,100%,100%);fill-opacity:1;" d="M 80 0 L 120 0 L 120 200 L 80 200 Z M 80 0 "/>
<path style=" stroke:none;fill-rule:evenodd;fill:rgb(100%,100%,100%);fill-opacity:1;" d="M 0 80 L 200 80 L 200 120 L 0 120 Z M 0 80 "/>
</g>
</svg>
