<?xml version="1.0" encoding="UTF-8"?>
<svg xmlns="http://www.w3.org/2000/svg" xmlns:xlink="http://www.w3.org/1999/xlink" width="480pt" height="360pt" viewBox="0 0 480 360" version="1.1">
<g id="surface1">
<path style=" stroke:none;fill-rule:evenodd;fill:rgb(0%,40%,100%);fill-opacity:1;" d="M 0 0 L 480 0 L 480 359.992188 L 0 359.992188 Z M 0 0 "/>
<path style=" stroke:none;fill-rule:evenodd;fill:rgb(100%,100%,100%);fill-opacity:1;" d="M 160.003906 0 L 320.003906 0 L 320.003906 359.996094 L 160.003906 359.996094 Z M 160.003906 0 "/>
<path style="fill:none;stroke-width:0.5;stroke-linecap:butt;stroke-linejoin:miter;stroke:rgb(0%,0%,0%);stroke-opacity:1;stroke-miterlimit:4;" d="M 401.820043 305.020503 C 400.059201 303.188426 390.690909 300.329776 384.031214 299.755505 C 378.27608 299.303203 374.563827 295.51708 371.153942 295.14355 C 361.297797 285.233563 348.412902 281.44744 339.987283 262.153458 C 338.386517 256.365009 337.248195 249.313672 337.075414 242.569799 C 340.256619 220.038555 342.314746 220.645859 347.061144 205.750386 " transform="matrix(-1.53735,0,0,1.537275,852.171637,-198.326175)"/>
<path style=" stroke:none;fill-rule:evenodd;fill:rgb(4.705882%,36.078431%,11.372549%);fill-opacity:1;" d="M 261.550781 265.835938 C 261.816406 268.390625 269.625 277.816406 283.105469 276.15625 C 281.902344 273.554688 278.972656 271.691406 274.769531 267.773438 C 272.847656 265.792969 261.457031 264.625 261.550781 265.835938 Z M 261.550781 265.835938 "/>
<path style=" stroke:none;fill-rule:evenodd;fill:rgb(4.705882%,36.078431%,11.372549%);fill-opacity:1;" d="M 277.601562 263.15625 C 276.035156 263.292969 274.640625 264.226562 277.320312 266.578125 C 281.839844 270.378906 298.050781 273.871094 300.496094 269.050781 C 293.320312 268.082031 288.535156 266.5625 287.796875 266.589844 C 284.464844 265.496094 280.167969 262.914062 277.601562 263.15625 Z M 277.601562 263.15625 "/>
<path style=" stroke:none;fill-rule:evenodd;fill:rgb(4.705882%,36.078431%,11.372549%);fill-opacity:1;" d="M 269.515625 261.996094 C 272.785156 259.746094 275.320312 259.933594 277.433594 259.488281 C 282.851562 259.113281 286.558594 259.855469 288.824219 260.792969 C 292.179688 262.238281 297.070312 265.855469 297.691406 268.484375 C 292.707031 268.390625 289.40625 264.628906 282.988281 263.207031 C 279.714844 262.921875 273.667969 262.5 269.515625 261.996094 Z M 269.515625 261.996094 "/>
<path style=" stroke:none;fill-rule:evenodd;fill:rgb(4.705882%,36.078431%,11.372549%);fill-opacity:1;" d="M 260.859375 261.011719 C 270.3125 255.195312 279.269531 244.535156 280.1875 233.394531 C 268.386719 242.628906 260.386719 255.964844 260.859375 261.011719 Z M 260.859375 261.011719 "/>
<path style=" stroke:none;fill-rule:evenodd;fill:rgb(4.705882%,36.078431%,11.372549%);fill-opacity:1;" d="M 266.195312 260.902344 C 274.1875 257.4375 285.011719 249.671875 286.328125 233.523438 C 275.363281 240.425781 271.855469 250.628906 266.195312 260.902344 Z M 266.195312 260.902344 "/>
<path style=" stroke:none;fill-rule:evenodd;fill:rgb(4.705882%,36.078431%,11.372549%);fill-opacity:1;" d="M 283.058594 253.121094 C 282.445312 248.5625 293.390625 224.746094 299.777344 218.613281 C 300.472656 227.78125 291.558594 253.53125 283.058594 253.121094 Z M 283.058594 253.121094 "/>
<path style=" stroke:none;fill-rule:evenodd;fill:rgb(4.705882%,36.078431%,11.372549%);fill-opacity:1;" d="M 282.722656 254.035156 C 284.382812 261.097656 302.449219 262.933594 308.285156 254.652344 C 301.019531 253.441406 292.042969 252.734375 282.722656 254.035156 Z M 282.722656 254.035156 "/>
<path style=" stroke:none;fill-rule:evenodd;fill:rgb(4.705882%,36.078431%,11.372549%);fill-opacity:1;" d="M 290.664062 249.183594 C 298.054688 253.839844 316.066406 250.578125 326.5625 242.257812 C 310.882812 237.53125 291.472656 246.542969 290.664062 249.183594 Z M 290.664062 249.183594 "/>
<path style=" stroke:none;fill-rule:evenodd;fill:rgb(4.705882%,36.078431%,11.372549%);fill-opacity:1;" d="M 304.90625 239 C 306.078125 233.867188 321.277344 223.730469 331.082031 224.292969 C 324.855469 232.746094 322.71875 231.296875 319.476562 235.046875 C 317.257812 237.828125 309.523438 239.871094 304.90625 239 Z M 304.90625 239 "/>
<path style=" stroke:none;fill-rule:evenodd;fill:rgb(4.705882%,36.078431%,11.372549%);fill-opacity:1;" d="M 309.90625 227.339844 C 304.527344 225.300781 305.726562 209.773438 309.324219 203.441406 C 312.96875 211.992188 313.941406 225.316406 309.90625 227.339844 Z M 309.90625 227.339844 "/>
<path style=" stroke:none;fill-rule:evenodd;fill:rgb(4.705882%,36.078431%,11.372549%);fill-opacity:1;" d="M 317.328125 221.605469 C 310.167969 217.621094 312.746094 198.140625 316.5625 192.679688 C 319.554688 198.496094 321.125 218.773438 317.328125 221.605469 Z M 317.328125 221.605469 "/>
<path style=" stroke:none;fill-rule:evenodd;fill:rgb(4.705882%,36.078431%,11.372549%);fill-opacity:1;" d="M 320.070312 221.429688 C 324.21875 214.902344 338.65625 214.621094 344.996094 217.144531 C 338.105469 223.886719 327.496094 224.226562 320.070312 221.429688 Z M 320.070312 221.429688 "/>
<path style=" stroke:none;fill-rule:evenodd;fill:rgb(4.705882%,36.078431%,11.372549%);fill-opacity:1;" d="M 324.335938 217.238281 C 318.371094 207.910156 322.078125 202.964844 325.71875 191.414062 C 327.480469 201.222656 326.058594 211.570312 324.335938 217.238281 Z M 324.335938 217.238281 "/>
<path style=" stroke:none;fill-rule:evenodd;fill:rgb(4.705882%,36.078431%,11.372549%);fill-opacity:1;" d="M 331.902344 196.550781 C 332.925781 187.902344 340.761719 183.816406 349.667969 180.84375 C 347.816406 187.210938 343.976562 194.101562 331.902344 196.550781 Z M 331.902344 196.550781 "/>
<path style=" stroke:none;fill-rule:evenodd;fill:rgb(4.705882%,36.078431%,11.372549%);fill-opacity:1;" d="M 329.773438 201.265625 C 320.449219 199.671875 320.015625 190.777344 320.210938 182.082031 C 322.871094 186.871094 329.246094 193.039062 329.773438 201.265625 Z M 329.773438 201.265625 "/>
<path style=" stroke:none;fill-rule:evenodd;fill:rgb(4.705882%,36.078431%,11.372549%);fill-opacity:1;" d="M 327.402344 186.195312 C 329.609375 180.789062 325.734375 166.179688 316.214844 160.796875 C 316.367188 169.742188 322.460938 180.863281 327.402344 186.195312 Z M 327.402344 186.195312 "/>
<path style=" stroke:none;fill-rule:evenodd;fill:rgb(4.705882%,36.078431%,11.372549%);fill-opacity:1;" d="M 332.6875 183.046875 C 334.050781 179.824219 334.933594 178.183594 336.992188 174.078125 C 340.566406 166.582031 338.257812 169.09375 343.082031 160.019531 C 345.691406 170.148438 340.472656 182.234375 332.6875 183.046875 Z M 332.6875 183.046875 "/>
<path style=" stroke:none;fill-rule:evenodd;fill:rgb(4.705882%,36.078431%,11.372549%);fill-opacity:1;" d="M 333.316406 155.917969 C 326.863281 159.457031 320.320312 157.164062 311.367188 149.988281 C 318.753906 149.324219 325.386719 152.875 333.316406 155.917969 Z M 333.316406 155.917969 "/>
<path style=" stroke:none;fill-rule:evenodd;fill:rgb(4.705882%,36.078431%,11.372549%);fill-opacity:1;" d="M 331.539062 152.320312 C 335.398438 139.507812 337.664062 137.324219 340.832031 123.414062 C 332.914062 129.824219 328.839844 143.71875 331.539062 152.320312 Z M 331.539062 152.320312 "/>
<path style=" stroke:none;fill-rule:evenodd;fill:rgb(4.705882%,36.078431%,11.372549%);fill-opacity:1;" d="M 330.085938 151.46875 C 321.394531 145.160156 319.351562 137.996094 309.351562 135.382812 C 309.5625 138.964844 323.941406 153.917969 330.085938 151.46875 Z M 330.085938 151.46875 "/>
<path style=" stroke:none;fill-rule:evenodd;fill:rgb(4.705882%,36.078431%,11.372549%);fill-opacity:1;" d="M 327.839844 142.691406 C 322.292969 135.789062 319.230469 130.152344 311.011719 125.160156 C 312.328125 133.585938 321.527344 145.820312 327.839844 142.691406 Z M 327.839844 142.691406 "/>
<path style=" stroke:none;fill-rule:evenodd;fill:rgb(4.705882%,36.078431%,11.372549%);fill-opacity:1;" d="M 317.320312 127.292969 C 319.082031 117.65625 307.152344 111.265625 303.015625 106.324219 C 302.546875 114.835938 309.996094 124.851562 317.320312 127.292969 Z M 317.320312 127.292969 "/>
<path style=" stroke:none;fill-rule:evenodd;fill:rgb(4.705882%,36.078431%,11.372549%);fill-opacity:1;" d="M 317.246094 116.203125 C 320.015625 107.523438 312.238281 101.644531 308.363281 97.214844 C 308.984375 105.683594 310.265625 114.425781 317.246094 116.203125 Z M 317.246094 116.203125 "/>
<path style=" stroke:none;fill-rule:evenodd;fill:rgb(4.705882%,36.078431%,11.372549%);fill-opacity:1;" d="M 328.511719 133.441406 C 331.9375 127.847656 329.988281 115.015625 327.773438 109.613281 C 325.007812 112.574219 323.683594 132.429688 328.511719 133.441406 Z M 328.511719 133.441406 "/>
<path style=" stroke:none;fill-rule:evenodd;fill:rgb(4.705882%,36.078431%,11.372549%);fill-opacity:1;" d="M 323.210938 122.066406 C 327.089844 115.207031 324.914062 107.878906 322.636719 102.484375 C 320.125 110.492188 318.304688 118.203125 323.210938 122.066406 Z M 323.210938 122.066406 "/>
<path style=" stroke:none;fill-rule:evenodd;fill:rgb(4.705882%,36.078431%,11.372549%);fill-opacity:1;" d="M 331.121094 176.410156 C 336.878906 175.671875 340.957031 163.664062 336.992188 152.925781 C 333.300781 162.480469 333.308594 167.03125 331.121094 176.410156 Z M 331.121094 176.410156 "/>
<path style=" stroke:none;fill-rule:evenodd;fill:rgb(4.705882%,36.078431%,11.372549%);fill-opacity:1;" d="M 329.648438 155.148438 C 336.8125 155.515625 341.328125 149.320312 345.128906 138.492188 C 339.226562 142.28125 336.324219 152.292969 329.648438 155.148438 Z M 329.648438 155.148438 "/>
<path style=" stroke:none;fill-rule:evenodd;fill:rgb(4.705882%,36.078431%,11.372549%);fill-opacity:1;" d="M 334.488281 179.351562 C 327.9375 180.917969 320.546875 163.753906 325.621094 154.082031 C 331.179688 165.167969 332.4375 169.816406 334.488281 179.351562 Z M 334.488281 179.351562 "/>
<path style=" stroke:none;fill-rule:evenodd;fill:rgb(4.705882%,36.078431%,11.372549%);fill-opacity:1;" d="M 327.507812 204.515625 C 328.410156 197.964844 342.472656 196.296875 349.53125 197.738281 C 343.882812 202.273438 332.390625 205.082031 327.507812 204.515625 Z M 327.507812 204.515625 "/>
<path style=" stroke:none;fill-rule:evenodd;fill:rgb(4.705882%,36.078431%,11.372549%);fill-opacity:1;" d="M 324.175781 214.917969 C 328.171875 211.433594 334.488281 215.195312 344.617188 195.433594 C 330.988281 203.207031 325.753906 212.261719 324.175781 214.917969 Z M 324.175781 214.917969 "/>
<path style="fill:none;stroke-width:0.5;stroke-linecap:butt;stroke-linejoin:miter;stroke:rgb(0%,0%,0%);stroke-opacity:1;stroke-miterlimit:4;" d="M 399.559661 306.240359 C 398.146922 304.235493 390.691926 302.073083 384.032232 301.498812 C 378.277097 301.740209 373.002192 300.390926 368.199895 297.931217 C 358.34375 288.02123 347.372151 281.450146 338.946533 262.156164 C 337.343226 256.367715 336.377684 251.054438 336.207444 244.310565 C 339.386108 221.781861 339.706261 219.606746 348.452033 204.711274 " transform="matrix(1.53735,0,0,1.537275,-370.067733,-200.197523)"/>
<path style=" stroke:none;fill-rule:evenodd;fill:rgb(4.705882%,36.078431%,11.372549%);fill-opacity:1;" d="M 211.664062 266.042969 C 211.402344 268.597656 202.460938 276.511719 190.113281 276.367188 C 191.316406 273.765625 203.460938 270.980469 206.765625 266.28125 C 207.742188 264.867188 211.761719 264.835938 211.664062 266.042969 Z M 211.664062 266.042969 "/>
<path style=" stroke:none;fill-rule:evenodd;fill:rgb(4.705882%,36.078431%,11.372549%);fill-opacity:1;" d="M 202.597656 262.417969 C 204.152344 262.15625 204.992188 262.921875 202.3125 265.273438 C 197.792969 269.074219 190.089844 270.867188 178.761719 272.847656 C 182.535156 269.046875 191.667969 265.824219 192.402344 265.851562 C 195.738281 264.761719 199.65625 262.933594 202.597656 262.417969 Z M 202.597656 262.417969 "/>
<path style=" stroke:none;fill-rule:evenodd;fill:rgb(4.705882%,36.078431%,11.372549%);fill-opacity:1;" d="M 209.175781 262.015625 C 207.984375 259.386719 206.773438 258.0625 204.660156 257.617188 C 199.242188 257.242188 194.96875 258.175781 193.269531 258.921875 C 191.425781 259.992188 185.59375 263.796875 184.972656 266.425781 C 189.386719 265.195312 192.3125 261.8125 198.726562 260.957031 C 201.8125 259.917969 206.160156 260.0625 209.175781 262.015625 Z M 209.175781 262.015625 "/>
<path style=" stroke:none;fill-rule:evenodd;fill:rgb(4.705882%,36.078431%,11.372549%);fill-opacity:1;" d="M 221.238281 259.140625 C 211.789062 253.328125 205.855469 245.878906 204.9375 234.734375 C 216.738281 243.972656 221.714844 254.09375 221.238281 259.140625 Z M 221.238281 259.140625 "/>
<path style=" stroke:none;fill-rule:evenodd;fill:rgb(4.705882%,36.078431%,11.372549%);fill-opacity:1;" d="M 215.339844 260.738281 C 206.402344 256.894531 203.140625 249.695312 196.910156 237.894531 C 208.0625 243.472656 212.703125 249.328125 215.339844 260.738281 Z M 215.339844 260.738281 "/>
<path style=" stroke:none;fill-rule:evenodd;fill:rgb(4.705882%,36.078431%,11.372549%);fill-opacity:1;" d="M 195.261719 256.726562 C 197.199219 248.765625 193.816406 237.046875 187.996094 231.296875 C 187.488281 240.273438 189.222656 255.246094 195.261719 256.726562 Z M 195.261719 256.726562 "/>
<path style=" stroke:none;fill-rule:evenodd;fill:rgb(4.705882%,36.078431%,11.372549%);fill-opacity:1;" d="M 192.1875 254.621094 C 190.527344 261.683594 172.082031 261.816406 166.625 255.238281 C 172.1875 256.484375 184.378906 256.722656 192.1875 254.621094 Z M 192.1875 254.621094 "/>
<path style=" stroke:none;fill-rule:evenodd;fill:rgb(4.705882%,36.078431%,11.372549%);fill-opacity:1;" d="M 187.28125 249.015625 C 181.59375 253.292969 158.664062 246.25 158.375 242.277344 C 161.390625 241.898438 186.472656 246.371094 187.28125 249.015625 Z M 187.28125 249.015625 "/>
<path style=" stroke:none;fill-rule:evenodd;fill:rgb(4.705882%,36.078431%,11.372549%);fill-opacity:1;" d="M 185.621094 247.535156 C 188.945312 240.96875 179.804688 220.195312 176.148438 220.359375 C 178.308594 235.898438 182.214844 242.964844 185.621094 247.535156 Z M 185.621094 247.535156 "/>
<path style=" stroke:none;fill-rule:evenodd;fill:rgb(4.705882%,36.078431%,11.372549%);fill-opacity:1;" d="M 179.640625 242.046875 C 177.523438 237.101562 161.566406 228.667969 153.464844 227.335938 C 160.070312 234.277344 164.324219 233.300781 166.585938 237.714844 C 168.234375 240.683594 175.402344 241.214844 179.640625 242.046875 Z M 179.640625 242.046875 "/>
<path style=" stroke:none;fill-rule:evenodd;fill:rgb(4.705882%,36.078431%,11.372549%);fill-opacity:1;" d="M 176.644531 238.308594 C 178.304688 232.078125 177.476562 229.585938 173.402344 225.097656 C 172.988281 231.660156 173.820312 234.238281 176.644531 238.308594 Z M 176.644531 238.308594 "/>
<path style=" stroke:none;fill-rule:evenodd;fill:rgb(4.705882%,36.078431%,11.372549%);fill-opacity:1;" d="M 170.664062 231.351562 C 175.148438 228.410156 172.410156 213.367188 168.417969 209.164062 C 167.589844 220.007812 166.507812 229.585938 170.664062 231.351562 Z M 170.664062 231.351562 "/>
<path style=" stroke:none;fill-rule:evenodd;fill:rgb(4.705882%,36.078431%,11.372549%);fill-opacity:1;" d="M 162.683594 220.109375 C 170.414062 217.449219 164.429688 203.074219 161.9375 197.425781 C 158.945312 203.242188 164.179688 206.316406 162.683594 220.109375 Z M 162.683594 220.109375 "/>
<path style=" stroke:none;fill-rule:evenodd;fill:rgb(4.705882%,36.078431%,11.372549%);fill-opacity:1;" d="M 161.273438 221.0625 C 154.859375 214.914062 143.441406 214.441406 137.101562 216.964844 C 144.746094 219.546875 156.492188 221.210938 161.273438 221.0625 Z M 161.273438 221.0625 "/>
<path style=" stroke:none;fill-rule:evenodd;fill:rgb(4.705882%,36.078431%,11.372549%);fill-opacity:1;" d="M 154.542969 207.351562 C 152.863281 200.949219 138.703125 200.976562 131.867188 203.25 C 138.015625 207.082031 149.761719 208.496094 154.542969 207.351562 Z M 154.542969 207.351562 "/>
<path style=" stroke:none;fill-rule:evenodd;fill:rgb(4.705882%,36.078431%,11.372549%);fill-opacity:1;" d="M 159.003906 217.394531 C 155.007812 213.90625 148.691406 217.667969 138.5625 197.90625 C 152.191406 205.683594 157.425781 214.734375 159.003906 217.394531 Z M 159.003906 217.394531 "/>
<path style=" stroke:none;fill-rule:evenodd;fill:rgb(4.705882%,36.078431%,11.372549%);fill-opacity:1;" d="M 157.382812 217.632812 C 163.347656 208.304688 159.644531 203.363281 156 191.8125 C 154.238281 201.621094 155.660156 211.96875 157.382812 217.632812 Z M 157.382812 217.632812 "/>
<path style=" stroke:none;fill-rule:evenodd;fill:rgb(4.705882%,36.078431%,11.372549%);fill-opacity:1;" d="M 148.296875 196.378906 C 146.511719 187.921875 138.492188 183.648438 130.34375 182.566406 C 132.570312 186.851562 138.679688 188.449219 148.296875 196.378906 Z M 148.296875 196.378906 "/>
<path style=" stroke:none;fill-rule:evenodd;fill:rgb(4.705882%,36.078431%,11.372549%);fill-opacity:1;" d="M 149.691406 200.679688 C 159.109375 199.824219 160.246094 190.996094 160.738281 182.308594 C 157.707031 186.875 150.867188 192.523438 149.691406 200.679688 Z M 149.691406 200.679688 "/>
<path style=" stroke:none;fill-rule:evenodd;fill:rgb(4.705882%,36.078431%,11.372549%);fill-opacity:1;" d="M 149.605469 189.570312 C 155.097656 190.121094 161.957031 178.175781 159.507812 168.578125 C 155.027344 179.210938 154.628906 182.945312 149.605469 189.570312 Z M 149.605469 189.570312 "/>
<path style=" stroke:none;fill-rule:evenodd;fill:rgb(4.705882%,36.078431%,11.372549%);fill-opacity:1;" d="M 147.265625 179.414062 C 153.0625 179.066406 157.9375 167.359375 154.707031 156.378906 C 152.027344 166.535156 153.25 170.984375 147.265625 179.414062 Z M 147.265625 179.414062 "/>
<path style=" stroke:none;fill-rule:evenodd;fill:rgb(4.705882%,36.078431%,11.372549%);fill-opacity:1;" d="M 146.25 184.65625 C 144.855469 181.269531 142.203125 180.183594 140.960938 175.761719 C 138.714844 167.851562 134.433594 166.601562 135.085938 160.421875 C 145.042969 172.011719 147.671875 178.941406 146.25 184.65625 Z M 146.25 184.65625 "/>
<path style=" stroke:none;fill-rule:evenodd;fill:rgb(4.705882%,36.078431%,11.372549%);fill-opacity:1;" d="M 146.746094 175.984375 C 144.246094 153.574219 148.6875 163.109375 138.980469 141.980469 C 153.4375 154.933594 149.445312 175.109375 146.746094 175.984375 Z M 146.746094 175.984375 "/>
<path style=" stroke:none;fill-rule:evenodd;fill:rgb(4.705882%,36.078431%,11.372549%);fill-opacity:1;" d="M 147.410156 166.503906 C 146.925781 159.34375 153.046875 154.730469 163.8125 150.757812 C 160.121094 156.71875 150.15625 159.78125 147.410156 166.503906 Z M 147.410156 166.503906 "/>
<path style=" stroke:none;fill-rule:evenodd;fill:rgb(4.705882%,36.078431%,11.372549%);fill-opacity:1;" d="M 149.980469 150.078125 C 146.121094 137.261719 143.855469 135.078125 140.6875 121.167969 C 148.605469 127.582031 152.679688 141.472656 149.980469 150.078125 Z M 149.980469 150.078125 "/>
<path style=" stroke:none;fill-rule:evenodd;fill:rgb(4.705882%,36.078431%,11.372549%);fill-opacity:1;" d="M 153.527344 149.59375 C 162.214844 143.285156 164.257812 136.121094 174.261719 133.507812 C 174.050781 137.089844 159.667969 152.042969 153.527344 149.59375 Z M 153.527344 149.59375 "/>
<path style=" stroke:none;fill-rule:evenodd;fill:rgb(4.705882%,36.078431%,11.372549%);fill-opacity:1;" d="M 152.9375 143.660156 C 158.484375 136.757812 161.546875 131.121094 169.761719 126.128906 C 168.449219 134.550781 159.25 146.789062 152.9375 143.660156 Z M 152.9375 143.660156 "/>
<path style=" stroke:none;fill-rule:evenodd;fill:rgb(4.705882%,36.078431%,11.372549%);fill-opacity:1;" d="M 165.589844 122 C 165.871094 112.210938 178.871094 108.441406 183.945312 104.46875 C 182.632812 112.890625 173.261719 121.136719 165.589844 122 Z M 165.589844 122 "/>
<path style=" stroke:none;fill-rule:evenodd;fill:rgb(4.705882%,36.078431%,11.372549%);fill-opacity:1;" d="M 164.53125 115.269531 C 162.804688 106.328125 171.21875 101.398438 175.582031 97.457031 C 173.972656 105.796875 171.675781 114.324219 164.53125 115.269531 Z M 164.53125 115.269531 "/>
<path style=" stroke:none;fill-rule:evenodd;fill:rgb(4.705882%,36.078431%,11.372549%);fill-opacity:1;" d="M 153.023438 129.679688 C 149.597656 124.085938 151.546875 111.253906 153.761719 105.847656 C 156.527344 108.8125 157.851562 128.667969 153.023438 129.679688 Z M 153.023438 129.679688 "/>
<path style=" stroke:none;fill-rule:evenodd;fill:rgb(4.705882%,36.078431%,11.372549%);fill-opacity:1;" d="M 159 121.765625 C 156.140625 114.421875 159.347656 107.480469 162.378906 102.46875 C 163.714844 110.753906 164.40625 118.644531 159 121.765625 Z M 159 121.765625 "/>
<path style=" stroke:none;fill-rule:evenodd;fill:rgb(43.529412%,52.156863%,57.647059%);fill-opacity:1;" d="M 205.054688 243.074219 C 231.101562 217.601562 253.746094 195.519531 289.984375 172.757812 C 231.328125 218.449219 233.140625 222.015625 208.453125 244.945312 C 207.433594 244.09375 206.074219 243.925781 205.054688 243.074219 Z M 205.054688 243.074219 "/>
<path style=" stroke:none;fill-rule:evenodd;fill:rgb(41.568627%,5.098039%,2.352941%);fill-opacity:1;" d="M 158.703125 249.085938 L 168.40625 259.75 L 197.816406 215.101562 L 210.195312 201.953125 L 207.199219 197.59375 L 188.191406 216.171875 L 186.003906 220.527344 Z M 158.703125 249.085938 "/>
<path style=" stroke:none;fill-rule:evenodd;fill:rgb(41.568627%,5.098039%,2.352941%);fill-opacity:1;" d="M 319.234375 249.765625 L 306.8125 260.769531 L 279.101562 215.78125 L 262.988281 198.214844 L 267.34375 195.214844 L 288.726562 216.851562 L 290.914062 221.207031 Z M 319.234375 249.765625 "/>
<path style=" stroke:none;fill-rule:evenodd;fill:rgb(73.333333%,80.392157%,80.392157%);fill-opacity:1;" d="M 279.078125 222.539062 C 279.332031 220.925781 281.453125 217.785156 276.699219 213.535156 C 276.8125 211.273438 279.132812 208.921875 280.945312 207.761719 C 282.472656 207.761719 286.890625 210.847656 288.84375 214.300781 C 289.949219 216.707031 290.515625 220.445312 289.097656 223.304688 C 288.050781 224.886719 286.835938 226.726562 285.53125 227.464844 C 284.910156 227.917969 283.519531 227.773438 282.390625 227.292969 C 280.605469 226.386719 279.246094 223.785156 279.078125 222.539062 Z M 279.078125 222.539062 "/>
<path style=" stroke:none;fill-rule:evenodd;fill:rgb(0%,0%,0%);fill-opacity:1;" d="M 219.644531 143.070312 L 197.957031 121.183594 L 196.660156 121.234375 L 196.210938 122.679688 L 195.511719 124.6875 L 192.945312 127.105469 L 159.070312 95.339844 L 190.925781 130.082031 L 192.429688 130.101562 L 197.074219 125.265625 L 199.03125 125.71875 L 215.003906 144.421875 Z M 219.644531 143.070312 "/>
<path style=" stroke:none;fill-rule:evenodd;fill:rgb(0%,0%,0%);fill-opacity:1;" d="M 247.945312 273.511719 C 287.632812 209.0625 322.203125 164.648438 258.875 107.699219 C 256.503906 105.316406 248.324219 97.765625 243.199219 96.136719 C 242.488281 91.523438 245.984375 84.238281 237.050781 83.636719 C 233.25 83.839844 231.375 85.195312 231.453125 88.625 C 231.460938 91.292969 232.867188 92.457031 232.144531 94.84375 C 231.875 96.035156 228.917969 98.75 229.097656 102.21875 C 230.246094 109.601562 233.097656 111.410156 233.964844 112.460938 C 235.515625 114.003906 236.441406 115.089844 240.992188 116.964844 C 241.496094 117.574219 242.839844 118.703125 243.53125 119.460938 C 251.890625 121.25 259.515625 120.339844 264.917969 123.03125 C 267.269531 123.757812 271.046875 127.753906 272.277344 129.753906 C 287.535156 146.484375 294.136719 173.328125 270.808594 201.671875 C 275.480469 202.054688 286.667969 182.90625 289.222656 166.644531 C 285.648438 190.898438 277.734375 199.371094 273.816406 206.617188 C 281.652344 201.398438 287.960938 183.011719 289.429688 179.234375 C 283.214844 212.699219 251.035156 254.019531 230.792969 262.691406 C 249.117188 258.445312 261.410156 240.183594 267.929688 233.640625 C 261.582031 246.734375 248.523438 265.265625 247.945312 273.519531 Z M 247.945312 273.511719 "/>
<path style=" stroke:none;fill-rule:evenodd;fill:rgb(43.529412%,52.156863%,57.647059%);fill-opacity:1;" d="M 275.21875 244.773438 C 249.851562 219.128906 209.371094 180.402344 189.269531 176.15625 C 220.582031 196.367188 248.15625 223.542969 271.820312 246.644531 C 272.839844 245.792969 274.199219 245.625 275.21875 244.773438 Z M 275.21875 244.773438 "/>
<path style=" stroke:none;fill-rule:evenodd;fill:rgb(0%,0%,0%);fill-opacity:1;" d="M 259.335938 144.773438 L 283.191406 121.1875 L 284.488281 121.238281 L 284.941406 122.683594 L 285.636719 124.691406 L 288.207031 127.105469 L 322.078125 95.34375 L 290.222656 130.085938 L 288.71875 130.101562 L 284.074219 125.265625 L 282.117188 125.722656 L 261.808594 148.222656 Z M 259.335938 144.773438 "/>
<path style=" stroke:none;fill-rule:evenodd;fill:rgb(89.019608%,81.176471%,43.137255%);fill-opacity:1;" d="M 196.230469 136.066406 C 197.476562 129.269531 199.570312 124.347656 206.59375 123.15625 C 224.992188 122.363281 242.035156 122.25 261.285156 122.648438 C 266.777344 127.007812 261.058594 135.953125 255.339844 136.40625 C 264.117188 151.578125 276.121094 163.183594 277.761719 181.074219 C 278.328125 190.472656 275.019531 196.566406 271.691406 199.949219 C 246.398438 200.566406 234.140625 203.714844 212.996094 205.351562 C 207.089844 206.0625 202.648438 199.191406 202.707031 193.472656 C 202.738281 187.5625 205.171875 182.941406 211.738281 182.121094 C 213.777344 181.902344 216.613281 182.035156 219.160156 182.09375 C 214.234375 167.375 195.210938 149.9375 196.230469 136.066406 Z M 196.230469 136.066406 "/>
<path style=" stroke:none;fill-rule:evenodd;fill:rgb(20%,39.215686%,27.45098%);fill-opacity:1;" d="M 229.445312 99.859375 C 227.261719 106.871094 232.746094 112.890625 233.613281 113.941406 C 235.164062 115.484375 236.175781 116.738281 240.722656 118.617188 C 241.230469 119.222656 247.742188 122.9375 248.671875 123.816406 C 255.597656 125.628906 259.277344 122.519531 267.164062 124.453125 C 265.132812 119.441406 244.066406 98.890625 229.445312 99.859375 Z M 229.445312 99.859375 "/>
<path style=" stroke:none;fill-rule:evenodd;fill:rgb(25.098039%,18.039216%,3.137255%);fill-opacity:1;" d="M 229.621094 103.046875 C 227.5 106.511719 233.105469 114.8125 233.96875 115.863281 C 235.519531 117.40625 236.53125 118.660156 241.082031 120.539062 C 241.585938 121.144531 243.839844 122.285156 244.171875 122.683594 L 250.136719 123.777344 C 248.105469 118.765625 236.582031 101.425781 229.621094 103.046875 Z M 229.621094 103.046875 "/>
<path style=" stroke:none;fill-rule:evenodd;fill:rgb(0%,0%,0%);fill-opacity:1;" d="M 231.871094 91.195312 L 230.453125 92.226562 L 232.515625 93.257812 Z M 231.871094 91.195312 "/>
<path style=" stroke:none;fill-rule:evenodd;fill:rgb(54.901961%,21.176471%,11.372549%);fill-opacity:1;" d="M 229.082031 105.472656 C 230.234375 112.859375 232.984375 114.867188 233.910156 115.863281 C 235.398438 117.460938 236.53125 118.480469 241.082031 120.539062 C 242.910156 122.042969 243.601562 122.464844 245.015625 123.222656 L 249.832031 123.941406 C 247.804688 118.929688 235.789062 107.511719 229.082031 105.472656 Z M 229.082031 105.472656 "/>
<path style=" stroke:none;fill-rule:evenodd;fill:rgb(73.333333%,80.392157%,80.392157%);fill-opacity:1;" d="M 197.921875 221.9375 C 197.667969 220.324219 195.546875 217.183594 200.300781 212.9375 C 200.1875 210.671875 197.867188 208.324219 196.054688 207.160156 C 194.527344 207.160156 190.109375 210.246094 188.15625 213.699219 C 187.050781 216.105469 186.484375 219.84375 187.902344 222.703125 C 188.949219 224.289062 190.164062 226.128906 191.46875 226.863281 C 192.089844 227.316406 193.480469 227.175781 194.609375 226.691406 C 196.394531 225.789062 197.753906 223.183594 197.921875 221.9375 Z M 197.921875 221.9375 "/>
<path style=" stroke:none;fill-rule:evenodd;fill:rgb(83.137255%,74.509804%,44.705882%);fill-opacity:1;" d="M 201.320312 245.457031 C 199.167969 247.949219 190.734375 252.820312 189.089844 254.460938 C 187.730469 256.273438 190.957031 258.765625 192.996094 259.046875 C 196.621094 256.332031 200.242188 252.59375 203.523438 250.386719 C 208.105469 246.15625 207.800781 245.808594 215.246094 248.007812 C 214.171875 244.042969 206.640625 240.929688 202.339844 240.027344 C 195.089844 240.816406 191.75 243.816406 190.277344 248.007812 C 195.089844 244.382812 198.375 242.628906 201.320312 245.457031 Z M 201.320312 245.457031 "/>
<path style=" stroke:none;fill-rule:evenodd;fill:rgb(100%,100%,100%);fill-opacity:1;" d="M 280.324219 222.433594 C 280.457031 221.65625 280.894531 221.238281 280.90625 219.71875 C 282.496094 222.003906 283.253906 223.164062 285.316406 226.066406 C 284.574219 227.058594 283.5 226.589844 282.488281 226.109375 C 281.546875 225.503906 280.191406 223.558594 280.324219 222.433594 Z M 280.324219 222.433594 "/>
<path style=" stroke:none;fill-rule:evenodd;fill:rgb(100%,100%,100%);fill-opacity:1;" d="M 196.890625 221.921875 C 196.757812 221.148438 196.320312 220.730469 196.308594 219.207031 C 194.722656 221.492188 193.964844 222.65625 191.898438 225.554688 C 192.640625 226.546875 193.714844 226.078125 194.726562 225.597656 C 195.667969 224.996094 197.023438 223.046875 196.890625 221.921875 Z M 196.890625 221.921875 "/>
<path style=" stroke:none;fill-rule:evenodd;fill:rgb(83.137255%,74.509804%,44.705882%);fill-opacity:1;" d="M 277.433594 247.15625 C 279.585938 249.648438 288.019531 254.515625 289.664062 256.160156 C 291.023438 257.972656 287.796875 260.464844 285.757812 260.746094 C 282.132812 258.027344 278.507812 254.292969 275.226562 252.085938 C 271.472656 247.578125 269.847656 247.78125 263.503906 249.707031 C 264.582031 245.742188 272.109375 242.628906 276.414062 241.722656 C 283.664062 242.515625 287.003906 245.515625 288.472656 249.707031 C 283.664062 246.082031 280.378906 244.328125 277.433594 247.15625 Z M 277.433594 247.15625 "/>
<path style=" stroke:none;fill-rule:evenodd;fill:rgb(0%,0%,0%);fill-opacity:1;" d="M 219.042969 182.152344 C 220.847656 184.734375 222.347656 190.4375 222.589844 194.101562 C 222.90625 201.1875 215.722656 204.792969 213.277344 204.492188 C 208.636719 203.929688 204.832031 200.429688 204.449219 195.003906 C 205.191406 188.679688 207.851562 185.175781 212.257812 184.914062 C 215.140625 185.414062 218.382812 188.859375 218.382812 193.023438 C 218.304688 196.464844 217.324219 199.90625 215.199219 199.988281 C 210.035156 199.585938 210.335938 196.605469 209.496094 195.003906 C 209.273438 193.824219 209.089844 190.628906 209.675781 189.839844 C 210.445312 188.882812 214 187.617188 215.738281 190.078125 C 217.621094 192 212.957031 189.058594 211.117188 190.378906 C 210.175781 191.71875 210.796875 193.902344 211.058594 194.761719 C 211.378906 195.625 211.339844 198.464844 214.898438 198.304688 C 216.203125 198.105469 216.660156 195.441406 216.761719 192.839844 C 216.964844 191.058594 214.460938 187.476562 211.957031 186.714844 C 210.214844 186.4375 205.953125 190 206.132812 195.003906 C 206.472656 200.6875 211.136719 202.648438 213.640625 202.269531 C 216.179688 201.589844 221.484375 199.585938 221.265625 193.921875 C 220.707031 187.675781 219.542969 185.09375 217.542969 182.09375 C 218.320312 182.09375 218.265625 182.09375 219.042969 182.152344 Z M 219.042969 182.152344 "/>
<path style=" stroke:none;fill-rule:evenodd;fill:rgb(0%,0%,0%);fill-opacity:1;" d="M 256.28125 138.019531 L 255.195312 136.277344 L 231.898438 136.277344 C 225.292969 136.878906 215.230469 137.878906 211.769531 139.378906 C 202.902344 143.742188 200.484375 136.035156 200.003906 134.113281 C 199.488281 132.351562 200.589844 129.171875 202.3125 128.050781 C 202.992188 126.75 206.800781 125.324219 209.101562 126.183594 C 211.703125 127.285156 212.835938 130.570312 212.421875 132.792969 C 211.640625 136.097656 205.386719 138.136719 207.613281 134.773438 C 207.890625 133.296875 209.015625 129.191406 207.035156 126.246094 L 205.222656 126.605469 C 207.742188 131.855469 205.429688 134.460938 205.308594 135.960938 C 205.191406 138.484375 207.34375 138.265625 209.015625 138.199219 C 210.15625 138.140625 212.082031 136.695312 212.863281 135.914062 C 213.800781 135.097656 213.945312 133.507812 214.0625 131.652344 C 214.355469 126.765625 209.878906 123.285156 206.855469 123.726562 C 197.667969 126.007812 197.445312 133.675781 199.527344 137.65625 C 200.6875 139.660156 202.03125 140.878906 204.273438 142.042969 C 206.152344 142.601562 209 142.28125 211.238281 141.441406 C 215.671875 139.847656 222.851562 138.4375 231.800781 138.21875 Z M 256.28125 138.019531 "/>
<path style=" stroke:none;fill-rule:nonzero;fill:rgb(54.901961%,21.176471%,11.372549%);fill-opacity:1;" d="M 248.191406 176.257812 L 249.15625 177.664062 L 249.011719 177.675781 C 248.703125 177.363281 248.449219 177.140625 248.25 177.011719 C 248.046875 176.878906 247.828125 176.78125 247.585938 176.71875 C 247.457031 176.683594 247.261719 176.679688 247.007812 176.707031 L 246.601562 176.75 L 249.34375 180.746094 C 249.527344 181.011719 249.652344 181.175781 249.730469 181.238281 C 249.804688 181.300781 249.90625 181.355469 250.03125 181.394531 C 250.152344 181.433594 250.292969 181.445312 250.449219 181.429688 L 250.628906 181.410156 L 250.726562 181.550781 L 247.882812 181.855469 L 247.785156 181.710938 L 247.964844 181.691406 C 248.121094 181.675781 248.230469 181.636719 248.289062 181.570312 C 248.335938 181.527344 248.347656 181.460938 248.328125 181.371094 C 248.316406 181.308594 248.21875 181.144531 248.042969 180.886719 L 245.300781 176.886719 L 244.90625 176.929688 C 244.542969 176.96875 244.328125 177.070312 244.261719 177.234375 C 244.171875 177.46875 244.226562 177.777344 244.425781 178.164062 L 244.273438 178.183594 L 243.3125 176.78125 Z M 248.191406 176.257812 "/>
<path style=" stroke:none;fill-rule:nonzero;fill:rgb(54.901961%,21.176471%,11.372549%);fill-opacity:1;" d="M 234.0625 178.089844 L 235.507812 180.199219 L 235.617188 180.1875 C 235.960938 180.152344 236.140625 180.023438 236.152344 179.800781 C 236.167969 179.578125 236.054688 179.261719 235.824219 178.855469 L 235.976562 178.839844 L 237.835938 181.550781 L 237.683594 181.566406 C 237.449219 181.277344 237.214844 181.039062 236.980469 180.863281 C 236.75 180.683594 236.542969 180.570312 236.363281 180.523438 C 236.183594 180.472656 235.960938 180.457031 235.703125 180.484375 L 236.707031 181.945312 C 236.902344 182.230469 237.03125 182.40625 237.101562 182.464844 C 237.171875 182.527344 237.253906 182.574219 237.351562 182.609375 C 237.449219 182.640625 237.574219 182.648438 237.730469 182.632812 L 238.054688 182.597656 C 238.5625 182.542969 238.890625 182.390625 239.042969 182.132812 C 239.195312 181.875 239.183594 181.511719 239 181.039062 L 239.148438 181.023438 L 240.035156 182.695312 L 235.339844 183.195312 L 235.242188 183.054688 L 235.421875 183.035156 C 235.578125 183.019531 235.6875 182.976562 235.746094 182.914062 C 235.792969 182.871094 235.804688 182.804688 235.78125 182.714844 C 235.769531 182.648438 235.675781 182.488281 235.496094 182.226562 L 233.15625 178.820312 C 232.996094 178.585938 232.890625 178.441406 232.84375 178.386719 C 232.753906 178.300781 232.65625 178.238281 232.550781 178.199219 C 232.402344 178.136719 232.238281 178.117188 232.0625 178.136719 L 231.882812 178.15625 L 231.785156 178.011719 L 236.332031 177.527344 L 237.382812 179.0625 L 237.230469 179.078125 C 236.898438 178.710938 236.601562 178.453125 236.347656 178.304688 C 236.097656 178.15625 235.820312 178.058594 235.511719 178.011719 C 235.328125 177.980469 235.03125 177.988281 234.621094 178.03125 Z M 234.0625 178.089844 "/>
<path style=" stroke:none;fill-rule:nonzero;fill:rgb(54.901961%,21.176471%,11.372549%);fill-opacity:1;" d="M 229.414062 183.667969 L 229.511719 183.8125 L 226.671875 184.113281 L 226.574219 183.972656 L 226.753906 183.953125 C 226.910156 183.933594 227.019531 183.894531 227.078125 183.832031 C 227.125 183.789062 227.136719 183.722656 227.113281 183.632812 C 227.101562 183.566406 227.003906 183.40625 226.828125 183.144531 L 224.488281 179.734375 C 224.308594 179.472656 224.179688 179.308594 224.105469 179.242188 C 224.03125 179.179688 223.929688 179.128906 223.804688 179.089844 C 223.683594 179.050781 223.546875 179.035156 223.394531 179.054688 L 223.214844 179.074219 L 223.117188 178.929688 L 225.957031 178.628906 L 226.054688 178.769531 L 225.875 178.789062 C 225.714844 178.804688 225.609375 178.847656 225.546875 178.910156 C 225.503906 178.953125 225.488281 179.019531 225.511719 179.109375 C 225.523438 179.175781 225.617188 179.335938 225.796875 179.597656 L 228.132812 183.007812 C 228.316406 183.269531 228.445312 183.433594 228.519531 183.496094 C 228.597656 183.5625 228.695312 183.613281 228.820312 183.65625 C 228.941406 183.691406 229.082031 183.703125 229.234375 183.6875 Z M 229.414062 183.667969 "/>
<path style=" stroke:none;fill-rule:nonzero;fill:rgb(54.901961%,21.176471%,11.372549%);fill-opacity:1;" d="M 224.964844 182.34375 L 226.007812 184.183594 L 221.183594 184.699219 L 221.085938 184.558594 L 221.265625 184.535156 C 221.425781 184.519531 221.535156 184.480469 221.59375 184.417969 C 221.636719 184.371094 221.648438 184.308594 221.628906 184.214844 C 221.613281 184.152344 221.519531 183.988281 221.339844 183.730469 L 219.003906 180.320312 C 218.820312 180.054688 218.691406 179.890625 218.617188 179.828125 C 218.542969 179.765625 218.445312 179.714844 218.320312 179.675781 C 218.195312 179.632812 218.058594 179.621094 217.90625 179.636719 L 217.726562 179.65625 L 217.628906 179.515625 L 220.527344 179.207031 L 220.625 179.347656 L 220.386719 179.375 C 220.230469 179.390625 220.121094 179.429688 220.0625 179.496094 C 220.015625 179.539062 220.003906 179.605469 220.023438 179.695312 C 220.035156 179.757812 220.132812 179.921875 220.308594 180.183594 L 222.574219 183.484375 C 222.757812 183.75 222.886719 183.917969 222.972656 183.988281 C 223.050781 184.054688 223.152344 184.101562 223.269531 184.128906 C 223.351562 184.144531 223.519531 184.136719 223.777344 184.109375 L 224.230469 184.0625 C 224.519531 184.03125 224.726562 183.957031 224.851562 183.839844 C 224.976562 183.722656 225.039062 183.550781 225.035156 183.328125 C 225.03125 183.105469 224.953125 182.78125 224.800781 182.359375 Z M 224.964844 182.34375 "/>
<path style=" stroke:none;fill-rule:nonzero;fill:rgb(54.901961%,21.176471%,11.372549%);fill-opacity:1;" d="M 258.074219 180.769531 L 257.980469 180.628906 L 258.15625 180.609375 C 258.316406 180.589844 258.421875 180.554688 258.472656 180.5 C 258.523438 180.441406 258.542969 180.371094 258.527344 180.285156 C 258.515625 180.230469 258.417969 180.066406 258.234375 179.800781 L 255.894531 176.390625 C 255.714844 176.125 255.585938 175.960938 255.507812 175.898438 C 255.433594 175.835938 255.335938 175.785156 255.210938 175.746094 C 255.089844 175.703125 254.949219 175.691406 254.796875 175.707031 L 254.617188 175.726562 L 254.519531 175.585938 L 256.953125 175.328125 C 257.601562 175.257812 258.183594 175.289062 258.691406 175.414062 C 259.316406 175.566406 259.898438 175.839844 260.433594 176.230469 C 260.96875 176.621094 261.421875 177.082031 261.78125 177.609375 C 262.03125 177.972656 262.203125 178.316406 262.289062 178.636719 C 262.375 178.957031 262.390625 179.226562 262.335938 179.449219 C 262.277344 179.667969 262.160156 179.851562 261.988281 180.003906 C 261.816406 180.148438 261.570312 180.277344 261.246094 180.382812 C 261.101562 180.429688 260.859375 180.472656 260.507812 180.507812 Z M 256.792969 175.660156 L 259.566406 179.703125 C 259.714844 179.917969 259.816406 180.046875 259.871094 180.09375 C 259.925781 180.140625 259.984375 180.171875 260.054688 180.191406 C 260.152344 180.222656 260.269531 180.230469 260.40625 180.214844 C 260.851562 180.167969 261.09375 179.988281 261.128906 179.671875 C 261.179688 179.246094 260.921875 178.621094 260.355469 177.792969 C 259.898438 177.128906 259.425781 176.609375 258.933594 176.234375 C 258.546875 175.945312 258.179688 175.753906 257.832031 175.671875 C 257.582031 175.613281 257.238281 175.609375 256.792969 175.660156 Z M 256.792969 175.660156 "/>
<path style=" stroke:none;fill-rule:nonzero;fill:rgb(54.901961%,21.176471%,11.372549%);fill-opacity:1;" d="M 254.445312 179.574219 L 252.523438 179.777344 L 252.640625 180.308594 C 252.683594 180.484375 252.738281 180.625 252.816406 180.734375 C 252.914062 180.878906 253.050781 180.980469 253.21875 181.035156 C 253.320312 181.070312 253.519531 181.082031 253.816406 181.070312 L 253.914062 181.214844 L 252.105469 181.40625 L 252.007812 181.265625 C 252.183594 181.214844 252.292969 181.121094 252.332031 180.984375 C 252.371094 180.84375 252.347656 180.566406 252.257812 180.152344 L 251.367188 175.808594 L 251.441406 175.800781 L 256.316406 179.839844 C 256.78125 180.222656 257.105469 180.460938 257.300781 180.554688 C 257.445312 180.621094 257.605469 180.65625 257.777344 180.648438 L 257.875 180.792969 L 255.246094 181.070312 L 255.148438 180.929688 L 255.257812 180.917969 C 255.46875 180.894531 255.597656 180.851562 255.644531 180.785156 C 255.675781 180.738281 255.664062 180.679688 255.613281 180.601562 C 255.582031 180.554688 255.539062 180.507812 255.492188 180.464844 C 255.46875 180.441406 255.363281 180.347656 255.175781 180.1875 Z M 254.113281 179.304688 L 252.078125 177.605469 L 252.472656 179.480469 Z M 254.113281 179.304688 "/>
<path style=" stroke:none;fill-rule:nonzero;fill:rgb(54.901961%,21.176471%,11.372549%);fill-opacity:1;" d="M 241.203125 180.035156 L 242.199219 181.484375 C 242.390625 181.765625 242.53125 181.941406 242.617188 182.011719 C 242.703125 182.078125 242.804688 182.128906 242.925781 182.164062 C 243.046875 182.195312 243.230469 182.199219 243.480469 182.171875 L 243.578125 182.3125 L 240.796875 182.609375 L 240.699219 182.46875 C 240.949219 182.441406 241.105469 182.402344 241.164062 182.351562 C 241.222656 182.292969 241.246094 182.230469 241.230469 182.152344 C 241.21875 182.078125 241.117188 181.902344 240.925781 181.621094 L 238.617188 178.257812 C 238.425781 177.976562 238.289062 177.804688 238.203125 177.738281 C 238.117188 177.667969 238.011719 177.613281 237.890625 177.582031 C 237.773438 177.546875 237.585938 177.542969 237.339844 177.570312 L 237.242188 177.429688 L 239.765625 177.160156 C 240.421875 177.089844 240.933594 177.082031 241.296875 177.136719 C 241.660156 177.191406 242.019531 177.324219 242.375 177.539062 C 242.722656 177.75 243.007812 178.011719 243.222656 178.324219 C 243.484375 178.707031 243.558594 179.039062 243.441406 179.320312 C 243.363281 179.496094 243.1875 179.644531 242.910156 179.757812 L 245.417969 181.371094 C 245.746094 181.578125 245.964844 181.707031 246.074219 181.757812 C 246.238281 181.824219 246.394531 181.855469 246.542969 181.847656 L 246.640625 181.988281 L 244.929688 182.171875 L 241.5625 179.996094 Z M 239.460938 177.492188 L 241.019531 179.761719 L 241.246094 179.738281 C 241.617188 179.699219 241.871094 179.636719 242.015625 179.554688 C 242.152344 179.46875 242.214844 179.335938 242.207031 179.15625 C 242.195312 178.972656 242.097656 178.746094 241.910156 178.472656 C 241.636719 178.078125 241.339844 177.796875 241.015625 177.628906 C 240.695312 177.460938 240.320312 177.398438 239.890625 177.445312 Z M 239.460938 177.492188 "/>
<path style=" stroke:none;fill-rule:nonzero;fill:rgb(54.901961%,21.176471%,11.372549%);fill-opacity:1;" d="M 231.460938 180.65625 C 232.054688 180.714844 232.511719 180.816406 232.832031 180.957031 C 233.289062 181.15625 233.644531 181.441406 233.898438 181.8125 C 234.167969 182.199219 234.222656 182.539062 234.070312 182.832031 C 233.878906 183.183594 233.398438 183.398438 232.628906 183.480469 L 229.867188 183.773438 L 229.769531 183.632812 C 230.023438 183.605469 230.175781 183.566406 230.234375 183.515625 C 230.292969 183.457031 230.316406 183.394531 230.304688 183.320312 C 230.292969 183.242188 230.1875 183.066406 229.996094 182.785156 L 227.691406 179.421875 C 227.496094 179.140625 227.359375 178.96875 227.273438 178.902344 C 227.1875 178.832031 227.085938 178.777344 226.964844 178.746094 C 226.84375 178.710938 226.660156 178.707031 226.410156 178.734375 L 226.3125 178.59375 L 228.917969 178.316406 C 229.539062 178.25 230.019531 178.253906 230.351562 178.335938 C 230.679688 178.410156 230.992188 178.546875 231.289062 178.742188 C 231.582031 178.9375 231.808594 179.152344 231.972656 179.390625 C 232.140625 179.636719 232.199219 179.871094 232.144531 180.085938 C 232.089844 180.300781 231.859375 180.492188 231.460938 180.65625 Z M 229.929688 180.707031 C 230.3125 180.667969 230.5625 180.597656 230.683594 180.496094 C 230.8125 180.394531 230.871094 180.265625 230.867188 180.109375 C 230.859375 179.949219 230.78125 179.757812 230.621094 179.527344 C 230.464844 179.296875 230.289062 179.117188 230.09375 178.980469 C 229.898438 178.84375 229.6875 178.746094 229.457031 178.6875 C 229.230469 178.628906 228.921875 178.625 228.53125 178.667969 Z M 230.136719 181.007812 L 231.277344 182.667969 L 231.402344 182.859375 C 231.496094 183 231.605469 183.097656 231.726562 183.164062 C 231.847656 183.222656 231.980469 183.246094 232.125 183.230469 C 232.339844 183.207031 232.503906 183.140625 232.621094 183.035156 C 232.742188 182.921875 232.792969 182.777344 232.769531 182.597656 C 232.746094 182.414062 232.664062 182.214844 232.519531 182.003906 C 232.351562 181.761719 232.144531 181.550781 231.894531 181.371094 C 231.644531 181.191406 231.390625 181.074219 231.132812 181.019531 C 230.875 180.964844 230.542969 180.960938 230.136719 181.007812 Z M 230.136719 181.007812 "/>
<path style=" stroke:none;fill-rule:nonzero;fill:rgb(54.901961%,21.176471%,11.372549%);fill-opacity:1;" d="M 245.925781 176.890625 L 247.289062 179 L 247.398438 178.988281 C 247.746094 178.953125 247.929688 178.824219 247.953125 178.601562 C 247.972656 178.378906 247.875 178.0625 247.65625 177.65625 L 247.8125 177.640625 L 249.566406 180.351562 L 249.414062 180.367188 C 249.191406 180.078125 248.964844 179.839844 248.738281 179.664062 C 248.515625 179.488281 248.3125 179.371094 248.136719 179.324219 C 247.957031 179.273438 247.738281 179.257812 247.476562 179.289062 L 248.421875 180.746094 C 248.605469 181.03125 248.730469 181.207031 248.796875 181.265625 C 248.863281 181.328125 248.949219 181.375 249.042969 181.410156 C 249.140625 181.441406 249.265625 181.449219 249.421875 181.433594 L 249.746094 181.398438 C 250.257812 181.34375 250.59375 181.191406 250.753906 180.933594 C 250.914062 180.675781 250.914062 180.3125 250.753906 179.839844 L 250.902344 179.824219 L 251.722656 181.496094 L 247.007812 181.996094 L 246.917969 181.855469 L 247.097656 181.835938 C 247.253906 181.820312 247.367188 181.777344 247.425781 181.714844 C 247.472656 181.671875 247.488281 181.605469 247.46875 181.515625 C 247.460938 181.449219 247.371094 181.289062 247.203125 181.027344 L 244.996094 177.621094 C 244.84375 177.386719 244.742188 177.242188 244.695312 177.191406 C 244.609375 177.101562 244.515625 177.039062 244.410156 177 C 244.265625 176.9375 244.101562 176.917969 243.925781 176.9375 L 243.742188 176.957031 L 243.652344 176.8125 L 248.21875 176.328125 L 249.210938 177.863281 L 249.058594 177.878906 C 248.738281 177.511719 248.453125 177.253906 248.207031 177.105469 C 247.960938 176.957031 247.683594 176.859375 247.378906 176.8125 C 247.199219 176.78125 246.902344 176.789062 246.488281 176.832031 Z M 245.925781 176.890625 "/>
<path style=" stroke:none;fill-rule:nonzero;fill:rgb(54.901961%,21.176471%,11.372549%);fill-opacity:1;" d="M 232.613281 177.988281 L 235.167969 177.714844 L 235.398438 178.746094 L 233.25 178.972656 L 233.378906 179.511719 C 234.328125 179.445312 235.179688 179.589844 235.941406 179.941406 C 236.570312 180.230469 237.042969 180.625 237.363281 181.121094 C 237.570312 181.441406 237.675781 181.761719 237.683594 182.089844 C 237.691406 182.414062 237.574219 182.675781 237.335938 182.878906 C 237.097656 183.078125 236.769531 183.199219 236.355469 183.242188 C 235.910156 183.289062 235.515625 183.246094 235.175781 183.113281 C 234.9375 183.019531 234.773438 182.902344 234.679688 182.757812 C 234.609375 182.648438 234.589844 182.546875 234.621094 182.453125 C 234.65625 182.363281 234.730469 182.308594 234.84375 182.296875 C 234.949219 182.285156 235.070312 182.292969 235.203125 182.324219 C 235.335938 182.351562 235.589844 182.441406 235.960938 182.585938 C 236.195312 182.675781 236.382812 182.734375 236.527344 182.761719 C 236.628906 182.785156 236.734375 182.789062 236.835938 182.777344 C 237.058594 182.753906 237.195312 182.660156 237.25 182.492188 C 237.304688 182.320312 237.265625 182.128906 237.125 181.914062 C 236.835938 181.464844 236.363281 181.128906 235.710938 180.898438 C 235.058594 180.667969 234.371094 180.589844 233.652344 180.667969 C 233.578125 180.675781 233.472656 180.6875 233.328125 180.703125 Z M 232.613281 177.988281 "/>
<path style=" stroke:none;fill-rule:nonzero;fill:rgb(54.901961%,21.176471%,11.372549%);fill-opacity:1;" d="M 229.855469 178.164062 L 232.597656 182.402344 C 232.804688 182.722656 232.953125 182.921875 233.039062 183.007812 C 233.125 183.09375 233.230469 183.15625 233.363281 183.203125 C 233.492188 183.25 233.660156 183.261719 233.867188 183.242188 L 233.992188 183.226562 L 234.085938 183.367188 L 231.210938 183.671875 L 231.121094 183.53125 L 231.265625 183.515625 C 231.5 183.492188 231.648438 183.449219 231.714844 183.386719 C 231.78125 183.324219 231.800781 183.25 231.78125 183.15625 C 231.757812 183.0625 231.640625 182.851562 231.429688 182.527344 L 229.6875 179.839844 C 229.535156 179.601562 229.425781 179.453125 229.363281 179.398438 C 229.300781 179.339844 229.222656 179.292969 229.128906 179.257812 C 229.035156 179.222656 228.945312 179.207031 228.859375 179.21875 C 228.722656 179.234375 228.582031 179.289062 228.441406 179.394531 L 228.277344 179.261719 L 229.722656 178.179688 Z M 229.855469 178.164062 "/>
<path style=" stroke:none;fill-rule:nonzero;fill:rgb(54.901961%,21.176471%,11.372549%);fill-opacity:1;" d="M 241.003906 182.632812 L 240.910156 182.492188 L 241.09375 182.472656 C 241.25 182.457031 241.355469 182.421875 241.410156 182.367188 C 241.464844 182.308594 241.484375 182.238281 241.472656 182.152344 C 241.460938 182.09375 241.371094 181.933594 241.195312 181.664062 L 238.988281 178.257812 C 238.816406 177.992188 238.695312 177.828125 238.625 177.765625 C 238.550781 177.703125 238.453125 177.652344 238.332031 177.613281 C 238.210938 177.570312 238.070312 177.558594 237.921875 177.574219 L 237.738281 177.59375 L 237.648438 177.453125 L 240.089844 177.195312 C 240.742188 177.125 241.320312 177.152344 241.824219 177.277344 C 242.445312 177.433594 243.015625 177.707031 243.535156 178.097656 C 244.054688 178.488281 244.488281 178.949219 244.832031 179.476562 C 245.066406 179.839844 245.222656 180.183594 245.300781 180.503906 C 245.375 180.824219 245.378906 181.09375 245.3125 181.316406 C 245.246094 181.535156 245.121094 181.71875 244.945312 181.867188 C 244.765625 182.015625 244.515625 182.140625 244.1875 182.246094 C 244.042969 182.292969 243.796875 182.339844 243.445312 182.375 Z M 239.917969 177.527344 L 242.535156 181.570312 C 242.675781 181.78125 242.769531 181.914062 242.824219 181.960938 C 242.875 182.003906 242.933594 182.039062 243.003906 182.058594 C 243.101562 182.089844 243.21875 182.097656 243.355469 182.082031 C 243.800781 182.035156 244.050781 181.855469 244.097656 181.539062 C 244.164062 181.113281 243.933594 180.484375 243.398438 179.660156 C 242.96875 178.996094 242.515625 178.476562 242.035156 178.101562 C 241.660156 177.808594 241.300781 177.621094 240.953125 177.539062 C 240.710938 177.480469 240.363281 177.476562 239.917969 177.527344 Z M 239.917969 177.527344 "/>
<path style=" stroke:none;fill-rule:nonzero;fill:rgb(54.901961%,21.176471%,11.372549%);fill-opacity:1;" d="M 261.8125 175.109375 L 263.28125 177.21875 L 263.390625 177.207031 C 263.734375 177.167969 263.910156 177.039062 263.921875 176.816406 C 263.933594 176.59375 263.820312 176.277344 263.582031 175.871094 L 263.734375 175.855469 L 265.625 178.566406 L 265.472656 178.585938 C 265.234375 178.292969 264.996094 178.058594 264.761719 177.878906 C 264.527344 177.703125 264.324219 177.589844 264.140625 177.539062 C 263.960938 177.488281 263.738281 177.476562 263.480469 177.503906 L 264.5 178.964844 C 264.695312 179.25 264.832031 179.421875 264.898438 179.484375 C 264.96875 179.542969 265.054688 179.589844 265.152344 179.625 C 265.25 179.65625 265.375 179.667969 265.53125 179.648438 L 265.855469 179.613281 C 266.363281 179.5625 266.6875 179.40625 266.835938 179.148438 C 266.988281 178.890625 266.96875 178.527344 266.785156 178.054688 L 266.933594 178.039062 L 267.835938 179.710938 L 263.144531 180.210938 L 263.046875 180.070312 L 263.226562 180.050781 C 263.382812 180.035156 263.492188 179.996094 263.550781 179.929688 C 263.59375 179.886719 263.605469 179.820312 263.582031 179.730469 C 263.570312 179.667969 263.472656 179.503906 263.292969 179.242188 L 260.917969 175.835938 C 260.753906 175.601562 260.644531 175.457031 260.597656 175.40625 C 260.507812 175.320312 260.410156 175.257812 260.304688 175.214844 C 260.152344 175.152344 259.988281 175.132812 259.8125 175.152344 L 259.632812 175.171875 L 259.535156 175.03125 L 264.078125 174.546875 L 265.144531 176.078125 L 264.992188 176.09375 C 264.652344 175.726562 264.359375 175.472656 264.101562 175.324219 C 263.851562 175.175781 263.570312 175.074219 263.261719 175.027344 C 263.078125 174.996094 262.78125 175.003906 262.371094 175.046875 Z M 261.8125 175.109375 "/>
<path style=" stroke:none;fill-rule:nonzero;fill:rgb(54.901961%,21.176471%,11.372549%);fill-opacity:1;" d="M 246.53125 180.082031 L 245.625 176.507812 L 247.832031 176.273438 L 247.929688 176.414062 L 247.753906 176.433594 C 247.59375 176.449219 247.484375 176.492188 247.425781 176.554688 C 247.386719 176.597656 247.375 176.664062 247.390625 176.75 C 247.40625 176.816406 247.503906 176.976562 247.679688 177.234375 L 250.0625 180.652344 C 250.246094 180.914062 250.375 181.078125 250.453125 181.140625 C 250.527344 181.207031 250.628906 181.257812 250.753906 181.300781 C 250.878906 181.335938 251.015625 181.347656 251.167969 181.332031 L 251.34375 181.3125 L 251.445312 181.453125 L 248.609375 181.757812 L 248.511719 181.617188 L 248.6875 181.597656 C 248.847656 181.578125 248.957031 181.539062 249.015625 181.476562 C 249.058594 181.433594 249.070312 181.367188 249.050781 181.277344 C 249.035156 181.210938 248.9375 181.046875 248.757812 180.789062 L 246.082031 176.949219 L 247.292969 181.898438 L 247.199219 181.90625 L 241.8125 177.441406 L 244.355469 181.089844 C 244.535156 181.34375 244.652344 181.5 244.707031 181.558594 C 244.828125 181.679688 244.976562 181.777344 245.148438 181.847656 C 245.320312 181.914062 245.53125 181.933594 245.777344 181.90625 L 245.875 182.050781 L 244.019531 182.246094 L 243.921875 182.105469 L 243.976562 182.097656 C 244.097656 182.089844 244.199219 182.058594 244.277344 182.011719 C 244.351562 181.957031 244.394531 181.898438 244.402344 181.824219 C 244.410156 181.753906 244.382812 181.65625 244.332031 181.53125 C 244.316406 181.503906 244.230469 181.375 244.066406 181.140625 L 241.78125 177.863281 C 241.597656 177.601562 241.46875 177.4375 241.398438 177.378906 C 241.320312 177.316406 241.222656 177.265625 241.097656 177.226562 C 240.972656 177.183594 240.832031 177.171875 240.679688 177.1875 L 240.507812 177.207031 L 240.410156 177.066406 L 242.628906 176.828125 Z M 246.53125 180.082031 "/>
<path style=" stroke:none;fill-rule:nonzero;fill:rgb(54.901961%,21.176471%,11.372549%);fill-opacity:1;" d="M 237.21875 177.726562 L 238.6875 179.835938 L 238.796875 179.824219 C 239.140625 179.789062 239.316406 179.65625 239.328125 179.433594 C 239.339844 179.210938 239.226562 178.898438 238.988281 178.488281 L 239.140625 178.472656 L 241.03125 181.1875 L 240.878906 181.203125 C 240.640625 180.910156 240.40625 180.675781 240.171875 180.5 C 239.9375 180.320312 239.730469 180.207031 239.550781 180.160156 C 239.367188 180.105469 239.148438 180.09375 238.886719 180.121094 L 239.90625 181.582031 C 240.105469 181.867188 240.238281 182.039062 240.304688 182.101562 C 240.378906 182.164062 240.460938 182.210938 240.558594 182.242188 C 240.65625 182.277344 240.785156 182.285156 240.9375 182.269531 L 241.261719 182.234375 C 241.769531 182.179688 242.097656 182.023438 242.246094 181.769531 C 242.394531 181.511719 242.378906 181.144531 242.191406 180.671875 L 242.339844 180.65625 L 243.242188 182.332031 L 238.554688 182.832031 L 238.453125 182.6875 L 238.632812 182.667969 C 238.792969 182.652344 238.898438 182.613281 238.957031 182.550781 C 239.003906 182.503906 239.015625 182.4375 238.992188 182.347656 C 238.976562 182.285156 238.878906 182.121094 238.699219 181.863281 L 236.324219 178.453125 C 236.160156 178.21875 236.054688 178.074219 236.003906 178.023438 C 235.914062 177.9375 235.816406 177.875 235.710938 177.832031 C 235.558594 177.773438 235.398438 177.75 235.21875 177.769531 L 235.039062 177.789062 L 234.941406 177.648438 L 239.484375 177.164062 L 240.550781 178.695312 L 240.398438 178.710938 C 240.0625 178.347656 239.765625 178.089844 239.511719 177.941406 C 239.257812 177.792969 238.976562 177.695312 238.667969 177.644531 C 238.488281 177.617188 238.191406 177.621094 237.777344 177.667969 Z M 237.21875 177.726562 "/>
<path style=" stroke:none;fill-rule:nonzero;fill:rgb(54.901961%,21.176471%,11.372549%);fill-opacity:1;" d="M 238.097656 182.726562 L 238.199219 182.867188 L 235.359375 183.171875 L 235.261719 183.03125 L 235.441406 183.011719 C 235.597656 182.992188 235.707031 182.953125 235.765625 182.890625 C 235.8125 182.847656 235.824219 182.78125 235.796875 182.6875 C 235.785156 182.625 235.6875 182.460938 235.507812 182.203125 L 233.132812 178.792969 C 232.949219 178.53125 232.816406 178.367188 232.742188 178.300781 C 232.667969 178.238281 232.566406 178.1875 232.441406 178.148438 C 232.316406 178.109375 232.179688 178.09375 232.027344 178.109375 L 231.847656 178.128906 L 231.75 177.988281 L 234.585938 177.6875 L 234.683594 177.828125 L 234.503906 177.847656 C 234.347656 177.863281 234.238281 177.902344 234.179688 177.96875 C 234.136719 178.011719 234.125 178.078125 234.144531 178.167969 C 234.160156 178.234375 234.253906 178.394531 234.4375 178.65625 L 236.8125 182.0625 C 236.996094 182.328125 237.125 182.492188 237.203125 182.554688 C 237.28125 182.617188 237.382812 182.671875 237.503906 182.710938 C 237.628906 182.75 237.765625 182.761719 237.917969 182.746094 Z M 238.097656 182.726562 "/>
<path style=" stroke:none;fill-rule:nonzero;fill:rgb(54.901961%,21.176471%,11.372549%);fill-opacity:1;" d="M 231.296875 178.042969 L 232.273438 179.441406 L 232.128906 179.457031 C 231.816406 179.144531 231.5625 178.921875 231.359375 178.792969 C 231.15625 178.660156 230.933594 178.5625 230.695312 178.5 C 230.5625 178.464844 230.367188 178.460938 230.113281 178.488281 L 229.710938 178.53125 L 232.496094 182.527344 C 232.679688 182.792969 232.8125 182.957031 232.886719 183.019531 C 232.964844 183.082031 233.066406 183.132812 233.1875 183.175781 C 233.3125 183.214844 233.453125 183.226562 233.605469 183.210938 L 233.789062 183.191406 L 233.886719 183.332031 L 231.042969 183.632812 L 230.945312 183.492188 L 231.125 183.472656 C 231.285156 183.457031 231.390625 183.417969 231.449219 183.351562 C 231.496094 183.308594 231.507812 183.242188 231.488281 183.152344 C 231.472656 183.085938 231.375 182.925781 231.195312 182.667969 L 228.410156 178.667969 L 228.015625 178.710938 C 227.652344 178.75 227.4375 178.851562 227.375 179.015625 C 227.289062 179.246094 227.34375 179.558594 227.550781 179.945312 L 227.398438 179.960938 L 226.421875 178.5625 Z M 231.296875 178.042969 "/>
<path style=" stroke:none;fill-rule:nonzero;fill:rgb(54.901961%,21.176471%,11.372549%);fill-opacity:1;" d="M 218.085938 179.765625 L 219.554688 181.875 L 219.664062 181.863281 C 220.007812 181.828125 220.1875 181.699219 220.195312 181.476562 C 220.207031 181.253906 220.09375 180.9375 219.855469 180.53125 L 220.007812 180.515625 L 221.898438 183.226562 L 221.746094 183.242188 C 221.507812 182.953125 221.273438 182.71875 221.039062 182.539062 C 220.804688 182.363281 220.597656 182.25 220.417969 182.199219 C 220.234375 182.148438 220.015625 182.136719 219.753906 182.164062 L 220.773438 183.625 C 220.972656 183.90625 221.105469 184.082031 221.171875 184.140625 C 221.246094 184.203125 221.328125 184.25 221.425781 184.285156 C 221.523438 184.316406 221.652344 184.324219 221.804688 184.308594 L 222.128906 184.273438 C 222.636719 184.21875 222.964844 184.066406 223.113281 183.808594 C 223.261719 183.550781 223.246094 183.1875 223.058594 182.714844 L 223.207031 182.699219 L 224.109375 184.371094 L 219.421875 184.871094 L 219.320312 184.730469 L 219.5 184.710938 C 219.660156 184.695312 219.765625 184.652344 219.824219 184.589844 C 219.871094 184.546875 219.882812 184.480469 219.859375 184.390625 C 219.84375 184.324219 219.75 184.164062 219.566406 183.902344 L 217.191406 180.496094 C 217.027344 180.261719 216.921875 180.117188 216.871094 180.066406 C 216.78125 179.976562 216.683594 179.914062 216.578125 179.875 C 216.429688 179.8125 216.261719 179.792969 216.089844 179.8125 L 215.90625 179.832031 L 215.808594 179.691406 L 220.351562 179.207031 L 221.417969 180.738281 L 221.265625 180.753906 C 220.929688 180.386719 220.632812 180.128906 220.378906 179.980469 C 220.125 179.835938 219.84375 179.734375 219.535156 179.6875 C 219.355469 179.65625 219.058594 179.664062 218.648438 179.707031 Z M 218.085938 179.765625 "/>
<path style=" stroke:none;fill-rule:nonzero;fill:rgb(54.901961%,21.176471%,11.372549%);fill-opacity:1;" d="M 214.855469 179.664062 L 216.101562 181.386719 L 215.9375 181.402344 C 215.558594 180.976562 215.125 180.648438 214.636719 180.421875 C 214.152344 180.1875 213.734375 180.089844 213.378906 180.125 C 213.109375 180.15625 212.941406 180.25 212.878906 180.40625 C 212.816406 180.5625 212.847656 180.730469 212.976562 180.910156 C 213.054688 181.023438 213.152344 181.121094 213.273438 181.207031 C 213.433594 181.316406 213.640625 181.421875 213.890625 181.523438 C 214.074219 181.59375 214.46875 181.710938 215.070312 181.875 C 215.914062 182.105469 216.539062 182.34375 216.945312 182.582031 C 217.347656 182.824219 217.667969 183.117188 217.90625 183.457031 C 218.207031 183.890625 218.289062 184.285156 218.15625 184.636719 C 218.019531 184.984375 217.679688 185.1875 217.132812 185.246094 C 216.964844 185.261719 216.792969 185.261719 216.617188 185.246094 C 216.441406 185.230469 216.207031 185.1875 215.914062 185.121094 C 215.75 185.082031 215.628906 185.070312 215.542969 185.078125 C 215.472656 185.085938 215.417969 185.117188 215.375 185.175781 C 215.335938 185.238281 215.328125 185.320312 215.351562 185.429688 L 215.203125 185.445312 L 213.839844 183.488281 L 213.988281 183.472656 C 214.488281 184.011719 215.007812 184.40625 215.542969 184.664062 C 216.078125 184.914062 216.542969 185.019531 216.929688 184.980469 C 217.226562 184.945312 217.410156 184.84375 217.480469 184.671875 C 217.550781 184.496094 217.511719 184.304688 217.367188 184.097656 C 217.28125 183.976562 217.167969 183.863281 217.015625 183.753906 C 216.871094 183.648438 216.691406 183.550781 216.480469 183.460938 C 216.273438 183.375 215.929688 183.265625 215.464844 183.136719 C 214.808594 182.957031 214.316406 182.796875 213.988281 182.65625 C 213.65625 182.515625 213.363281 182.351562 213.105469 182.164062 C 212.851562 181.976562 212.640625 181.757812 212.46875 181.515625 C 212.183594 181.105469 212.097656 180.738281 212.210938 180.414062 C 212.328125 180.089844 212.625 179.898438 213.109375 179.847656 C 213.285156 179.828125 213.46875 179.832031 213.664062 179.855469 C 213.8125 179.871094 214 179.914062 214.238281 179.976562 C 214.476562 180.039062 214.632812 180.066406 214.707031 180.058594 C 214.773438 180.050781 214.8125 180.027344 214.828125 179.980469 C 214.839844 179.9375 214.808594 179.835938 214.734375 179.675781 Z M 214.855469 179.664062 "/>
<path style=" stroke:none;fill-rule:nonzero;fill:rgb(54.901961%,21.176471%,11.372549%);fill-opacity:1;" d="M 225.304688 181.730469 L 226.304688 183.164062 C 226.5 183.445312 226.640625 183.621094 226.726562 183.691406 C 226.816406 183.757812 226.917969 183.808594 227.039062 183.84375 C 227.164062 183.875 227.347656 183.878906 227.59375 183.855469 L 227.691406 183.996094 L 224.933594 184.289062 L 224.835938 184.148438 C 225.085938 184.121094 225.242188 184.082031 225.300781 184.03125 C 225.359375 183.972656 225.378906 183.90625 225.363281 183.832031 C 225.351562 183.757812 225.25 183.578125 225.054688 183.300781 L 222.710938 179.9375 C 222.515625 179.65625 222.375 179.484375 222.285156 179.417969 C 222.199219 179.34375 222.097656 179.292969 221.976562 179.261719 C 221.855469 179.226562 221.671875 179.222656 221.421875 179.25 L 221.324219 179.109375 L 223.6875 178.855469 C 224.46875 178.773438 225.121094 178.847656 225.644531 179.074219 C 226.167969 179.304688 226.566406 179.617188 226.84375 180.011719 C 227.078125 180.351562 227.167969 180.648438 227.117188 180.914062 C 227.066406 181.175781 226.878906 181.371094 226.554688 181.496094 C 226.335938 181.585938 225.921875 181.664062 225.304688 181.730469 Z M 223.539062 179.191406 L 225.097656 181.429688 C 225.1875 181.425781 225.257812 181.421875 225.304688 181.417969 C 225.628906 181.382812 225.816406 181.265625 225.863281 181.0625 C 225.910156 180.859375 225.796875 180.5625 225.527344 180.175781 C 225.261719 179.789062 224.976562 179.515625 224.675781 179.359375 C 224.375 179.199219 224.050781 179.136719 223.699219 179.175781 Z M 223.539062 179.191406 "/>
<path style=" stroke:none;fill-rule:nonzero;fill:rgb(54.901961%,21.176471%,11.372549%);fill-opacity:1;" d="M 253.320312 178.304688 C 253.917969 178.363281 254.375 178.464844 254.695312 178.605469 C 255.15625 178.804688 255.515625 179.089844 255.773438 179.457031 C 256.042969 179.847656 256.105469 180.1875 255.953125 180.476562 C 255.765625 180.828125 255.289062 181.046875 254.519531 181.128906 L 251.761719 181.421875 L 251.664062 181.28125 C 251.914062 181.253906 252.070312 181.214844 252.128906 181.160156 C 252.1875 181.105469 252.207031 181.039062 252.191406 180.964844 C 252.179688 180.890625 252.078125 180.710938 251.882812 180.433594 L 249.539062 177.070312 C 249.34375 176.789062 249.203125 176.613281 249.113281 176.546875 C 249.027344 176.476562 248.925781 176.425781 248.804688 176.390625 C 248.683594 176.359375 248.5 176.355469 248.25 176.378906 L 248.152344 176.238281 L 250.753906 175.960938 C 251.375 175.898438 251.851562 175.902344 252.1875 175.980469 C 252.519531 176.058594 252.832031 176.195312 253.128906 176.390625 C 253.421875 176.582031 253.652344 176.796875 253.816406 177.035156 C 253.992188 177.285156 254.054688 177.519531 254 177.734375 C 253.945312 177.949219 253.71875 178.136719 253.320312 178.304688 Z M 251.792969 178.355469 C 252.171875 178.316406 252.421875 178.246094 252.542969 178.144531 C 252.667969 178.042969 252.726562 177.914062 252.722656 177.753906 C 252.714844 177.597656 252.632812 177.402344 252.472656 177.175781 C 252.3125 176.945312 252.132812 176.761719 251.933594 176.628906 C 251.738281 176.492188 251.527344 176.394531 251.296875 176.335938 C 251.066406 176.277344 250.757812 176.269531 250.371094 176.316406 Z M 252 178.652344 L 253.160156 180.316406 L 253.289062 180.507812 C 253.382812 180.644531 253.492188 180.746094 253.613281 180.808594 C 253.738281 180.871094 253.871094 180.894531 254.015625 180.878906 C 254.226562 180.855469 254.394531 180.789062 254.511719 180.679688 C 254.628906 180.570312 254.675781 180.425781 254.652344 180.242188 C 254.628906 180.058594 254.542969 179.863281 254.394531 179.652344 C 254.226562 179.410156 254.015625 179.199219 253.765625 179.019531 C 253.511719 178.839844 253.257812 178.722656 253 178.667969 C 252.742188 178.613281 252.40625 178.609375 252 178.652344 Z M 252 178.652344 "/>
<path style=" stroke:none;fill-rule:nonzero;fill:rgb(54.901961%,21.176471%,11.372549%);fill-opacity:1;" d="M 257.585938 178.265625 L 258.597656 179.714844 C 258.792969 179.996094 258.933594 180.171875 259.019531 180.242188 C 259.109375 180.308594 259.210938 180.359375 259.332031 180.394531 C 259.453125 180.425781 259.636719 180.429688 259.886719 180.40625 L 259.984375 180.546875 L 257.207031 180.84375 L 257.109375 180.699219 C 257.359375 180.675781 257.515625 180.632812 257.574219 180.582031 C 257.632812 180.527344 257.652344 180.460938 257.636719 180.386719 C 257.625 180.308594 257.523438 180.132812 257.328125 179.851562 L 254.984375 176.488281 C 254.789062 176.207031 254.648438 176.035156 254.558594 175.96875 C 254.472656 175.898438 254.371094 175.84375 254.25 175.8125 C 254.128906 175.777344 253.945312 175.773438 253.695312 175.800781 L 253.597656 175.660156 L 256.117188 175.390625 C 256.777344 175.320312 257.285156 175.3125 257.648438 175.367188 C 258.015625 175.421875 258.375 175.554688 258.730469 175.769531 C 259.082031 175.980469 259.371094 176.242188 259.585938 176.558594 C 259.855469 176.9375 259.929688 177.269531 259.816406 177.550781 C 259.742188 177.726562 259.566406 177.875 259.289062 177.988281 L 261.816406 179.605469 C 262.148438 179.8125 262.367188 179.941406 262.476562 179.988281 C 262.640625 180.054688 262.796875 180.085938 262.949219 180.078125 L 263.046875 180.21875 L 261.339844 180.402344 L 257.945312 178.226562 Z M 255.816406 175.722656 L 257.398438 177.992188 L 257.625 177.96875 C 257.996094 177.929688 258.253906 177.867188 258.390625 177.785156 C 258.53125 177.699219 258.59375 177.566406 258.578125 177.386719 C 258.566406 177.207031 258.464844 176.976562 258.277344 176.703125 C 258 176.308594 257.699219 176.027344 257.375 175.859375 C 257.050781 175.691406 256.675781 175.632812 256.246094 175.675781 Z M 255.816406 175.722656 "/>
<path style=" stroke:none;fill-rule:nonzero;fill:rgb(54.901961%,21.176471%,11.372549%);fill-opacity:1;" d="M 252.808594 175.847656 L 254.804688 180.085938 C 254.957031 180.40625 255.066406 180.605469 255.136719 180.691406 C 255.210938 180.777344 255.304688 180.839844 255.425781 180.886719 C 255.550781 180.933594 255.714844 180.945312 255.925781 180.925781 L 256.054688 180.910156 L 256.121094 181.050781 L 253.195312 181.355469 L 253.125 181.214844 L 253.273438 181.199219 C 253.511719 181.175781 253.667969 181.132812 253.746094 181.070312 C 253.824219 181.007812 253.859375 180.933594 253.851562 180.839844 C 253.847656 180.746094 253.765625 180.535156 253.613281 180.210938 L 252.347656 177.523438 C 252.234375 177.285156 252.152344 177.136719 252.097656 177.082031 C 252.046875 177.023438 251.976562 176.976562 251.886719 176.941406 C 251.800781 176.90625 251.714844 176.890625 251.628906 176.902344 C 251.488281 176.917969 251.335938 176.972656 251.175781 177.078125 L 251.039062 176.945312 L 252.671875 175.863281 Z M 252.808594 175.847656 "/>
<path style=" stroke:none;fill-rule:nonzero;fill:rgb(54.901961%,21.176471%,11.372549%);fill-opacity:1;" d="M 251.84375 181.492188 L 248.574219 181.832031 L 248.535156 181.75 C 249.011719 180.53125 249.265625 179.71875 249.296875 179.3125 C 249.332031 178.90625 249.261719 178.519531 249.089844 178.152344 C 248.964844 177.882812 248.769531 177.671875 248.511719 177.515625 C 248.25 177.355469 247.992188 177.285156 247.734375 177.3125 C 247.3125 177.359375 247.078125 177.589844 247.03125 178.003906 L 246.855469 177.972656 C 246.773438 177.464844 246.828125 177.082031 247.015625 176.816406 C 247.207031 176.550781 247.5 176.398438 247.890625 176.355469 C 248.175781 176.328125 248.460938 176.359375 248.75 176.457031 C 249.039062 176.554688 249.300781 176.707031 249.53125 176.90625 C 249.761719 177.105469 249.921875 177.296875 250.007812 177.480469 C 250.167969 177.820312 250.230469 178.175781 250.191406 178.546875 C 250.140625 179.046875 249.847656 179.765625 249.3125 180.707031 L 250.515625 180.582031 C 250.808594 180.550781 250.996094 180.519531 251.074219 180.484375 C 251.152344 180.453125 251.207031 180.40625 251.238281 180.347656 C 251.269531 180.285156 251.292969 180.164062 251.300781 179.976562 L 251.449219 179.960938 Z M 251.84375 181.492188 "/>
<path style=" stroke:none;fill-rule:nonzero;fill:rgb(54.901961%,21.176471%,11.372549%);fill-opacity:1;" d="M 240.21875 177.160156 L 242.214844 181.398438 C 242.367188 181.71875 242.476562 181.917969 242.546875 182.003906 C 242.617188 182.089844 242.714844 182.152344 242.835938 182.199219 C 242.960938 182.246094 243.125 182.257812 243.335938 182.238281 L 243.464844 182.222656 L 243.53125 182.363281 L 240.605469 182.667969 L 240.535156 182.527344 L 240.683594 182.511719 C 240.921875 182.488281 241.078125 182.445312 241.15625 182.382812 C 241.234375 182.320312 241.269531 182.246094 241.261719 182.152344 C 241.257812 182.058594 241.175781 181.847656 241.023438 181.523438 L 239.757812 178.835938 C 239.644531 178.597656 239.5625 178.449219 239.507812 178.394531 C 239.457031 178.335938 239.386719 178.289062 239.296875 178.253906 C 239.210938 178.21875 239.125 178.203125 239.039062 178.214844 C 238.898438 178.230469 238.746094 178.285156 238.585938 178.390625 L 238.449219 178.257812 L 240.082031 177.175781 Z M 240.21875 177.160156 "/>
<path style=" stroke:none;fill-rule:nonzero;fill:rgb(54.901961%,21.176471%,11.372549%);fill-opacity:1;" d="M 232.261719 178.414062 L 233.253906 180.523438 L 233.363281 180.511719 C 233.71875 180.476562 233.925781 180.347656 233.984375 180.121094 C 234.046875 179.898438 234.003906 179.585938 233.859375 179.175781 L 234.015625 179.160156 L 235.292969 181.875 L 235.136719 181.890625 C 234.964844 181.597656 234.78125 181.363281 234.585938 181.1875 C 234.394531 181.007812 234.210938 180.894531 234.042969 180.847656 C 233.871094 180.792969 233.652344 180.78125 233.386719 180.808594 L 234.078125 182.269531 C 234.210938 182.554688 234.304688 182.730469 234.359375 182.789062 C 234.417969 182.851562 234.492188 182.898438 234.582031 182.929688 C 234.671875 182.964844 234.796875 182.972656 234.953125 182.957031 L 235.285156 182.921875 C 235.804688 182.867188 236.167969 182.710938 236.375 182.457031 C 236.582031 182.199219 236.648438 181.835938 236.566406 181.363281 L 236.71875 181.347656 L 237.246094 183.019531 L 232.441406 183.519531 L 232.375 183.378906 L 232.558594 183.359375 C 232.722656 183.339844 232.839844 183.300781 232.910156 183.238281 C 232.964844 183.195312 232.992188 183.128906 232.988281 183.035156 C 232.992188 182.972656 232.929688 182.8125 232.808594 182.550781 L 231.199219 179.140625 C 231.089844 178.90625 231.015625 178.765625 230.976562 178.710938 C 230.910156 178.625 230.824219 178.5625 230.726562 178.519531 C 230.589844 178.460938 230.433594 178.441406 230.25 178.457031 L 230.066406 178.476562 L 230 178.335938 L 234.652344 177.851562 L 235.375 179.382812 L 235.21875 179.402344 C 234.964844 179.035156 234.722656 178.777344 234.503906 178.628906 C 234.285156 178.480469 234.023438 178.382812 233.726562 178.332031 C 233.550781 178.304688 233.253906 178.3125 232.835938 178.355469 Z M 232.261719 178.414062 "/>
<path style=" stroke:none;fill-rule:nonzero;fill:rgb(54.901961%,21.176471%,11.372549%);fill-opacity:1;" d="M 226.324219 184.15625 L 226.257812 184.015625 L 226.441406 183.996094 C 226.605469 183.980469 226.714844 183.945312 226.777344 183.890625 C 226.84375 183.832031 226.878906 183.757812 226.878906 183.671875 C 226.878906 183.617188 226.816406 183.457031 226.691406 183.1875 L 225.082031 179.78125 C 224.960938 179.515625 224.867188 179.351562 224.804688 179.289062 C 224.742188 179.226562 224.65625 179.171875 224.539062 179.136719 C 224.425781 179.09375 224.289062 179.082031 224.132812 179.097656 L 223.949219 179.117188 L 223.882812 178.976562 L 226.371094 178.714844 C 227.035156 178.648438 227.609375 178.675781 228.09375 178.800781 C 228.683594 178.957031 229.207031 179.230469 229.65625 179.621094 C 230.109375 180.011719 230.460938 180.46875 230.710938 181 C 230.882812 181.363281 230.976562 181.703125 230.996094 182.027344 C 231.015625 182.34375 230.972656 182.617188 230.867188 182.839844 C 230.761719 183.058594 230.605469 183.242188 230.402344 183.390625 C 230.199219 183.539062 229.925781 183.664062 229.578125 183.769531 C 229.425781 183.816406 229.171875 183.859375 228.8125 183.898438 Z M 226.140625 179.046875 L 228.046875 183.089844 C 228.148438 183.304688 228.21875 183.433594 228.265625 183.480469 C 228.308594 183.527344 228.363281 183.5625 228.425781 183.582031 C 228.519531 183.609375 228.632812 183.621094 228.773438 183.605469 C 229.230469 183.558594 229.511719 183.375 229.613281 183.058594 C 229.757812 182.632812 229.632812 182.007812 229.246094 181.183594 C 228.929688 180.519531 228.570312 180 228.15625 179.625 C 227.832031 179.332031 227.503906 179.144531 227.175781 179.0625 C 226.941406 179 226.597656 179 226.140625 179.046875 Z M 226.140625 179.046875 "/>
<path style=" stroke:none;fill-rule:nonzero;fill:rgb(54.901961%,21.176471%,11.372549%);fill-opacity:1;" d="M 245.648438 179.070312 C 246.164062 179.296875 246.554688 179.519531 246.8125 179.734375 C 247.074219 179.949219 247.273438 180.203125 247.414062 180.503906 C 247.613281 180.921875 247.609375 181.292969 247.40625 181.617188 C 247.207031 181.941406 246.816406 182.132812 246.238281 182.191406 C 245.6875 182.25 245.207031 182.167969 244.785156 181.945312 C 244.367188 181.726562 244.070312 181.433594 243.898438 181.070312 C 243.769531 180.789062 243.738281 180.539062 243.8125 180.3125 C 243.890625 180.085938 244.089844 179.863281 244.410156 179.648438 C 243.824219 179.378906 243.421875 179.152344 243.203125 178.96875 C 242.984375 178.78125 242.816406 178.558594 242.691406 178.296875 C 242.527344 177.949219 242.542969 177.628906 242.730469 177.332031 C 242.925781 177.035156 243.296875 176.859375 243.84375 176.800781 C 244.375 176.746094 244.835938 176.820312 245.230469 177.023438 C 245.628906 177.226562 245.902344 177.492188 246.054688 177.816406 C 246.171875 178.0625 246.195312 178.285156 246.128906 178.492188 C 246.0625 178.691406 245.902344 178.886719 245.648438 179.070312 Z M 245.246094 178.90625 C 245.285156 178.769531 245.292969 178.621094 245.269531 178.457031 C 245.242188 178.292969 245.1875 178.117188 245.097656 177.929688 C 244.941406 177.597656 244.746094 177.351562 244.511719 177.191406 C 244.332031 177.070312 244.140625 177.019531 243.941406 177.039062 C 243.757812 177.058594 243.628906 177.136719 243.558594 177.273438 C 243.488281 177.410156 243.496094 177.570312 243.582031 177.753906 C 243.671875 177.941406 243.832031 178.125 244.070312 178.3125 C 244.308594 178.496094 244.699219 178.695312 245.246094 178.90625 Z M 244.804688 179.800781 C 244.753906 179.878906 244.722656 179.949219 244.71875 180.011719 C 244.703125 180.109375 244.714844 180.242188 244.753906 180.417969 C 244.789062 180.59375 244.851562 180.773438 244.941406 180.960938 C 245.054688 181.199219 245.179688 181.398438 245.324219 181.554688 C 245.464844 181.707031 245.609375 181.8125 245.765625 181.871094 C 245.921875 181.929688 246.066406 181.953125 246.191406 181.941406 C 246.390625 181.917969 246.527344 181.835938 246.601562 181.683594 C 246.671875 181.53125 246.652344 181.339844 246.542969 181.101562 C 246.308594 180.609375 245.730469 180.171875 244.804688 179.800781 Z M 244.804688 179.800781 "/>
</g>
</svg>
