<?xml version="1.0" encoding="UTF-8"?>
<svg xmlns="http://www.w3.org/2000/svg" xmlns:xlink="http://www.w3.org/1999/xlink" width="480pt" height="360pt" viewBox="0 0 480 360" version="1.1">
<g id="surface1">
<path style=" stroke:none;fill-rule:evenodd;fill:rgb(100%,100%,100%);fill-opacity:1;" d="M -111.644531 101.746094 L 590.609375 101.746094 L 590.609375 229.359375 L -111.644531 229.359375 Z M -111.644531 101.746094 "/>
<path style=" stroke:none;fill-rule:evenodd;fill:rgb(0%,24.313725%,62.352941%);fill-opacity:1;" d="M -111.007812 217.320312 L 592.613281 217.320312 L 592.613281 360 L -111.007812 360 Z M -111.007812 217.320312 "/>
<path style=" stroke:none;fill-rule:evenodd;fill:rgb(83.921569%,8.235294%,9.019608%);fill-opacity:1;" d="M -112.613281 0 L 592.148438 0 L 592.148438 119.632812 L -112.613281 119.632812 Z M -112.613281 0 "/>
<path style="fill-rule:evenodd;fill:rgb(100%,100%,100%);fill-opacity:1;stroke-width:1.0662;stroke-linecap:round;stroke-linejoin:miter;stroke:rgb(89.803922%,7.843137%,11.372549%);stroke-opacity:1;stroke-miterlimit:4;" d="M 242.638398 155.171876 C 267.177741 146.442498 294.378582 141.73466 320.96845 141.667704 C 347.558319 141.600749 374.675465 145.768754 401.466201 155.372744 L 421.410694 115.136423 L 407.395984 90.718437 C 407.395984 90.718437 382.383765 100.991985 382.178712 100.991985 C 381.97366 100.991985 364.544198 81.809115 364.544198 81.809115 L 342.151628 95.330026 L 321.14421 79.260606 L 301.362921 95.083126 L 278.284054 81.742159 L 261.45301 101.753609 L 236.214815 90.961152 L 222.702274 115.153162 L 242.634213 155.171876 Z M 242.638398 155.171876 " transform="matrix(0.93345,0,0,0.93345,-59.07675,-37.5405)"/>
<path style="fill-rule:evenodd;fill:rgb(0%,65.490196%,74.117647%);fill-opacity:1;stroke-width:0.333187;stroke-linecap:butt;stroke-linejoin:miter;stroke:rgb(0%,51.764706%,99.215686%);stroke-opacity:1;stroke-miterlimit:4;" d="M 370.499089 144.011162 L 381.919258 103.640929 L 406.379091 93.714714 L 419.26392 115.349845 L 400.763164 153.188307 C 390.129727 148.936606 384.430105 147.116242 370.499089 144.011162 Z M 370.499089 144.011162 " transform="matrix(0.93345,0,0,0.93345,-59.07675,-37.5405)"/>
<path style="fill-rule:evenodd;fill:rgb(0%,65.490196%,74.117647%);fill-opacity:1;stroke-width:0.333187;stroke-linecap:butt;stroke-linejoin:miter;stroke:rgb(0%,51.764706%,99.215686%);stroke-opacity:1;stroke-miterlimit:4;" d="M 306.100052 139.638103 L 302.241718 97.828318 L 321.679857 82.378241 L 341.988423 97.790656 L 338.397912 139.675766 C 327.207905 139.085717 319.219227 139.102456 306.100052 139.638103 Z M 306.100052 139.638103 " transform="matrix(0.93345,0,0,0.93345,-59.07675,-37.5405)"/>
<path style="fill-rule:evenodd;fill:rgb(0%,65.490196%,74.117647%);fill-opacity:1;stroke-width:0.333187;stroke-linecap:butt;stroke-linejoin:miter;stroke:rgb(0%,51.764706%,99.215686%);stroke-opacity:0.996078;stroke-miterlimit:4;" d="M 243.609259 153.159014 L 225.493499 114.839306 L 237.599965 93.681236 L 262.700064 104.607605 L 273.304208 144.140889 C 261.846376 146.513639 255.778496 148.446991 243.609259 153.159014 Z M 243.609259 153.159014 " transform="matrix(0.93345,0,0,0.93345,-59.07675,-37.5405)"/>
<path style="fill-rule:evenodd;fill:rgb(100%,100%,100%);fill-opacity:1;stroke-width:0.333187;stroke-linecap:butt;stroke-linejoin:miter;stroke:rgb(100%,100%,100%);stroke-opacity:1;stroke-miterlimit:4;" d="M 237.968223 131.929803 C 243.676215 133.084793 247.739602 133.12664 252.85336 131.724751 C 258.967272 129.222274 261.1266 125.853554 263.114354 123.141839 C 264.039183 128.862386 263.072507 134.047284 256.092352 137.704751 C 249.827789 140.592225 241.374605 138.780231 237.968223 131.929803 Z M 237.968223 131.929803 " transform="matrix(0.93345,0,0,0.93345,-59.07675,-37.5405)"/>
<path style="fill-rule:evenodd;fill:rgb(98.039216%,96.862745%,1.176471%);fill-opacity:0.996078;stroke-width:1.25;stroke-linecap:butt;stroke-linejoin:miter;stroke:rgb(32.941176%,29.411765%,12.54902%);stroke-opacity:0.996078;stroke-miterlimit:4;" d="M 410.933378 120.558588 L 406.874746 121.573033 L 407.030249 129.070416 L 402.038599 130.164115 L 398.539778 136.78971 L 400.701272 138.834451 C 400.810124 139.056361 398.990737 143.716468 399.068489 143.716468 C 399.14624 143.716468 400.390265 145.475897 400.390265 145.475897 L 401.727592 149.549528 L 405.08646 150.009198 L 405.941727 154.780261 L 411.244384 155.636199 L 416.173833 159.155056 L 416.484839 161.342453 L 422.114053 161.50096 L 425.93943 162.753166 L 439.297149 161.183946 L 441.100985 158.378371 L 441.256488 154.5425 L 448.440733 154.30474 L 449.093846 148.202218 L 452.903673 148.202218 L 452.437163 141.323012 L 455.609427 141.608325 L 454.785261 138.327229 L 452.810371 135.632609 L 452.421613 131.416321 L 446.7924 125.78932 L 445.548375 118.450444 C 445.548375 118.450444 441.956252 116.817821 441.956252 116.738568 C 441.956252 116.659314 441.722998 111.808998 441.722998 111.808998 L 445.781629 106.102744 L 445.392872 103.836093 L 441.645246 103.75684 L 438.830639 106.102744 C 438.830639 106.102744 435.083014 106.499012 435.083014 106.578265 L 435.083014 108.290142 C 435.083014 108.290142 436.016033 111.491984 436.016033 111.571238 C 436.016033 111.650491 431.724146 111.571238 431.724146 111.571238 L 431.568643 106.499012 L 425.47292 103.455676 C 425.47292 103.455676 419.765956 107.35495 419.765956 107.434203 C 419.765956 107.513457 419.454949 111.967505 419.454949 111.967505 L 416.718094 112.74419 L 413.903487 108.527902 L 408.989589 106.657519 L 406.330485 106.499012 L 406.252733 109.780108 L 411.415437 116.580061 Z M 410.933378 120.558588 " transform="matrix(0.251201,0,0,0.24644,142.417767,30.121557)"/>
<path style="fill:none;stroke-width:1.25;stroke-linecap:butt;stroke-linejoin:miter;stroke:rgb(32.941176%,29.411765%,12.54902%);stroke-opacity:1;stroke-miterlimit:4;" d="M 449.233799 148.043711 L 448.129727 143.954229 " transform="matrix(0.251201,0,0,0.24644,142.417767,30.121557)"/>
<path style="fill:none;stroke-width:1.25;stroke-linecap:butt;stroke-linejoin:miter;stroke:rgb(32.941176%,29.411765%,12.54902%);stroke-opacity:1;stroke-miterlimit:4;" d="M 452.328311 141.307161 L 450.446723 138.533288 " transform="matrix(0.251201,0,0,0.24644,142.417767,30.121557)"/>
<path style="fill-rule:evenodd;fill:rgb(32.941176%,29.411765%,12.54902%);fill-opacity:1;stroke-width:1.25;stroke-linecap:butt;stroke-linejoin:miter;stroke:rgb(32.941176%,29.411765%,12.941176%);stroke-opacity:1;stroke-miterlimit:4;" d="M 400.841224 138.216274 L 406.703693 137.883409 L 407.807765 143.177544 L 409.782655 144.952823 L 410.124761 154.669306 L 412.006349 155.44599 L 412.55061 151.578418 L 417.075751 151.245554 L 417.962119 159.091653 L 416.858047 160.090247 L 417.309006 161.294901 L 422.720515 161.183946 C 422.720515 161.183946 423.933439 159.091653 424.042292 159.091653 C 424.151144 159.091653 427.136804 158.758788 427.136804 158.869743 C 427.136804 158.980698 428.349728 161.183946 428.349728 161.183946 L 429.236096 158.204013 C 429.236096 158.204013 432.112904 156.99936 432.112904 157.110315 C 432.112904 157.205419 434.429901 160.851081 434.429901 160.851081 L 438.410781 160.312157 L 435.969382 157.982103 L 434.974162 152.909878 L 440.510073 149.914094 L 442.718218 153.670711 C 442.718218 153.670711 444.81751 153.781666 444.708658 153.670711 C 444.584255 153.559757 442.267259 149.37517 442.267259 149.37517 L 442.267259 140.530477 L 446.465843 134.792521 L 452.328311 134.126792 L 452.328311 131.685783 L 446.465843 126.280692 L 444.926362 118.767458 L 441.614145 117.103134 L 440.727778 118.101728 L 437.073454 118.434593 L 440.727778 123.839684 L 440.727778 127.374391 L 442.376111 128.262031 L 442.049554 137.994364 C 442.049554 137.994364 437.959822 138.533288 437.959822 138.644243 C 437.959822 138.755198 437.633265 144.065184 437.633265 144.065184 L 435.098564 146.601297 C 435.098564 146.601297 433.652385 151.689373 433.543533 151.689373 C 433.434681 151.689373 431.117684 154.780261 431.117684 154.780261 L 426.576993 154.891216 C 426.576993 154.891216 423.933439 152.355103 423.933439 152.244148 C 423.933439 152.133193 423.48248 148.487531 423.48248 148.487531 C 423.48248 148.487531 421.725295 147.932756 421.616443 147.932756 C 421.507591 147.932756 420.621223 143.843274 420.621223 143.843274 L 417.52671 142.083846 L 417.309006 139.642837 L 414.323346 138.327229 C 414.323346 138.327229 413.981239 136.10813 413.872387 135.997175 C 413.763535 135.88622 412.441758 134.99858 412.332906 134.99858 C 412.224054 134.99858 412.224054 128.92776 412.224054 128.92776 L 414.867607 128.48394 L 413.390327 126.550154 L 412.877167 124.838278 L 412.877167 123.07885 L 415.085311 120.859751 C 415.085311 120.859751 411.119981 120.304976 411.119981 120.415931 C 411.119981 120.526886 407.247953 122.19121 407.247953 122.080255 C 407.356806 122.080255 407.139101 129.260625 407.139101 129.260625 L 402.61396 130.703039 L 398.959637 136.551949 Z M 400.841224 138.216274 " transform="matrix(0.251201,0,0,0.24644,142.417767,30.121557)"/>
<path style="fill-rule:evenodd;fill:rgb(32.941176%,29.411765%,12.54902%);fill-opacity:1;stroke-width:1.25;stroke-linecap:butt;stroke-linejoin:miter;stroke:rgb(32.941176%,29.411765%,12.54902%);stroke-opacity:1;stroke-miterlimit:4;" d="M 423.715735 148.043711 L 426.685845 146.268432 L 426.576993 142.84468 L 423.715735 142.17895 L 422.611663 141.085251 L 425.815027 141.624175 L 429.780357 141.307161 L 431.117684 140.641432 C 430.557873 142.067995 430.122464 141.95704 430.013612 141.95704 C 429.90476 141.95704 427.805467 143.066589 427.805467 143.066589 L 427.91432 146.379387 C 427.91432 146.379387 434.756457 147.267026 434.647605 147.267026 C 434.538753 147.267026 434.647605 148.598486 434.429901 148.598486 C 434.212196 148.598486 427.354508 147.045117 427.354508 147.045117 L 423.047072 149.692184 Z M 423.715735 148.043711 " transform="matrix(0.251201,0,0,0.24644,142.417767,30.121557)"/>
<path style="fill-rule:evenodd;fill:rgb(32.941176%,29.411765%,12.54902%);fill-opacity:1;stroke-width:1.25;stroke-linecap:butt;stroke-linejoin:miter;stroke:rgb(32.941176%,29.411765%,12.54902%);stroke-opacity:1;stroke-miterlimit:4;" d="M 440.945482 127.485346 L 436.980152 130.576234 L 434.429901 135.109535 L 433.108124 135.331445 L 429.236096 130.148264 L 424.819807 130.259219 C 424.819807 130.259219 422.393958 136.33004 422.393958 136.440995 C 422.393958 136.551949 420.621223 136.219085 420.621223 136.219085 L 415.987229 131.131008 C 415.987229 131.131008 414.54105 128.594895 414.758755 128.594895 C 414.992009 128.594895 426.359288 128.70585 426.359288 128.70585 L 426.250436 123.173954 C 426.250436 123.173954 424.493251 122.63503 423.606883 122.080255 C 424.259996 121.858345 429.90476 121.858345 429.90476 121.858345 L 427.463361 123.506819 L 427.463361 128.262031 L 437.524413 128.372985 Z M 440.945482 127.485346 " transform="matrix(0.251201,0,0,0.24644,142.417767,30.121557)"/>
<path style=" stroke:none;fill-rule:evenodd;fill:rgb(47.45098%,41.568627%,22.745098%);fill-opacity:0.996078;" d="M 248.132812 62.191406 C 248.316406 62.191406 248.464844 62.339844 248.464844 62.519531 C 248.464844 62.699219 248.316406 62.847656 248.132812 62.847656 C 247.949219 62.847656 247.800781 62.699219 247.800781 62.519531 C 247.800781 62.339844 247.949219 62.191406 248.132812 62.191406 Z M 248.132812 62.191406 "/>
<path style=" stroke:none;fill-rule:evenodd;fill:rgb(47.843137%,41.960784%,22.745098%);fill-opacity:1;" d="M 251.296875 62.058594 C 251.480469 62.058594 251.628906 62.203125 251.628906 62.382812 C 251.628906 62.566406 251.480469 62.710938 251.296875 62.710938 C 251.113281 62.710938 250.964844 62.566406 250.964844 62.382812 C 250.964844 62.203125 251.113281 62.058594 251.296875 62.058594 Z M 251.296875 62.058594 "/>
<path style="fill:none;stroke-width:1.25;stroke-linecap:butt;stroke-linejoin:miter;stroke:rgb(32.941176%,29.411765%,12.54902%);stroke-opacity:1;stroke-miterlimit:4;" d="M 413.54583 121.303571 C 417.744415 119.607545 420.730075 118.244385 425.92388 117.768863 C 430.822228 117.24579 434.616505 117.943221 438.955042 118.751607 " transform="matrix(0.251201,0,0,0.24644,142.417767,30.121557)"/>
<path style="fill-rule:evenodd;fill:rgb(32.941176%,29.411765%,12.54902%);fill-opacity:1;stroke-width:1.25;stroke-linecap:butt;stroke-linejoin:miter;stroke:rgb(32.941176%,29.411765%,12.54902%);stroke-opacity:1;stroke-miterlimit:4;" d="M 415.862827 112.347922 L 412.441758 112.347922 L 407.59006 107.164741 L 410.342466 107.481756 L 413.54583 108.92417 Z M 415.862827 112.347922 " transform="matrix(0.251201,0,0,0.24644,142.417767,30.121557)"/>
<path style="fill-rule:evenodd;fill:rgb(32.941176%,29.411765%,12.54902%);fill-opacity:1;stroke-width:1.25;stroke-linecap:butt;stroke-linejoin:miter;stroke:rgb(32.941176%,29.411765%,12.54902%);stroke-opacity:1;stroke-miterlimit:4;" d="M 436.529193 110.366584 L 444.257699 104.390868 L 441.722998 104.058003 L 438.84619 106.720922 L 435.425121 107.259846 Z M 436.529193 110.366584 " transform="matrix(0.251201,0,0,0.24644,142.417767,30.121557)"/>
<path style="fill-rule:evenodd;fill:rgb(32.941176%,29.411765%,12.54902%);fill-opacity:1;stroke-width:1.25;stroke-linecap:butt;stroke-linejoin:miter;stroke:rgb(32.941176%,29.411765%,12.54902%);stroke-opacity:1;stroke-miterlimit:4;" d="M 431.972951 111.460283 L 419.843707 111.904102 L 419.952559 110.588494 L 424.384399 110.144674 L 424.928659 108.369395 C 424.928659 108.369395 426.250436 108.25844 426.250436 108.369395 C 426.250436 108.48035 427.245656 110.033719 427.245656 110.033719 L 431.553093 110.810404 Z M 431.972951 111.460283 " transform="matrix(0.251201,0,0,0.24644,142.417767,30.121557)"/>
<path style="fill-rule:evenodd;fill:rgb(32.941176%,29.411765%,12.54902%);fill-opacity:1;stroke-width:1.25;stroke-linecap:butt;stroke-linejoin:miter;stroke:rgb(32.941176%,29.411765%,12.54902%);stroke-opacity:1;stroke-miterlimit:4;" d="M 431.335388 106.831877 L 427.136804 106.942832 L 426.810247 104.612778 Z M 431.335388 106.831877 " transform="matrix(0.251201,0,0,0.24644,142.417767,30.121557)"/>
<path style="fill-rule:evenodd;fill:rgb(32.941176%,29.411765%,12.54902%);fill-opacity:1;stroke-width:1.25;stroke-linecap:butt;stroke-linejoin:miter;stroke:rgb(32.941176%,29.411765%,12.54902%);stroke-opacity:1;stroke-miterlimit:4;" d="M 424.259996 104.723733 L 423.933439 107.053787 L 419.843707 107.719516 Z M 424.259996 104.723733 " transform="matrix(0.251201,0,0,0.24644,142.417767,30.121557)"/>
<path style="fill-rule:evenodd;fill:rgb(32.941176%,29.411765%,12.54902%);fill-opacity:1;stroke-width:1.25;stroke-linecap:butt;stroke-linejoin:miter;stroke:rgb(32.941176%,29.411765%,12.54902%);stroke-opacity:1;stroke-miterlimit:4;" d="M 401.058929 147.045117 L 403.158221 141.73513 L 401.276633 138.089468 L 399.410596 143.510409 Z M 401.058929 147.045117 " transform="matrix(0.251201,0,0,0.24644,142.417767,30.121557)"/>
<path style="fill-rule:evenodd;fill:rgb(32.941176%,29.411765%,12.54902%);fill-opacity:1;stroke-width:1.25;stroke-linecap:butt;stroke-linejoin:miter;stroke:rgb(32.941176%,29.411765%,12.54902%);stroke-opacity:1;stroke-miterlimit:4;" d="M 405.367983 149.803654 L 407.918235 143.510924 L 403.050987 148.599001 Z M 405.367983 149.803654 " transform="matrix(0.251201,0,0,0.24644,142.390017,30.148774)"/>
<path style="fill-rule:evenodd;fill:rgb(98.039216%,96.862745%,1.176471%);fill-opacity:0.996078;stroke-width:1.25;stroke-linecap:butt;stroke-linejoin:miter;stroke:rgb(32.941176%,29.411765%,12.54902%);stroke-opacity:0.996078;stroke-miterlimit:4;" d="M 410.937821 120.553586 L 406.87919 121.583882 L 407.034693 129.081266 L 402.027492 130.174964 L 398.528671 136.784708 L 400.690165 138.829449 C 400.799017 139.051359 398.995181 143.727317 399.072932 143.727317 C 399.150684 143.727317 400.394709 145.486746 400.394709 145.486746 L 401.716486 149.544526 L 405.075353 150.020048 L 405.946171 154.775259 L 411.248828 155.631197 L 416.178277 159.150054 L 416.489283 161.337451 L 422.118496 161.495958 L 425.943874 162.748164 L 439.301592 161.178944 L 441.089878 158.373369 L 441.245382 154.537499 L 448.445177 154.315589 L 449.09829 148.197216 L 452.908116 148.197216 L 452.426057 141.333861 L 455.613871 141.619174 L 454.789704 138.322227 L 452.814815 135.643458 L 452.426057 131.42717 L 446.796843 125.80017 L 445.552818 118.445442 C 445.552818 118.445442 441.960696 116.81282 441.960696 116.733566 C 441.960696 116.654312 441.727441 111.803997 441.727441 111.803997 L 445.786073 106.113593 L 445.397315 103.846942 L 441.64969 103.767689 L 438.835083 106.113593 C 438.835083 106.113593 435.087458 106.49401 435.087458 106.573264 L 435.087458 108.300991 C 435.087458 108.300991 436.020476 111.502833 436.020476 111.582087 C 436.020476 111.66134 431.72859 111.582087 431.72859 111.582087 L 431.557537 106.49401 L 425.477364 103.450675 C 425.477364 103.450675 419.770399 107.349948 419.770399 107.429202 C 419.770399 107.508455 419.459393 111.962504 419.459393 111.962504 L 416.722538 112.755039 L 413.907931 108.522901 L 408.978482 106.652517 L 406.334929 106.49401 L 406.257177 109.775106 L 411.404331 116.575059 Z M 410.937821 120.553586 " transform="matrix(0.251201,0,0,0.24644,125.568994,30.665758)"/>
<path style="fill:none;stroke-width:1.25;stroke-linecap:butt;stroke-linejoin:miter;stroke:rgb(32.941176%,29.411765%,12.54902%);stroke-opacity:1;stroke-miterlimit:4;" d="M 449.222692 148.038709 L 448.11862 143.949227 " transform="matrix(0.251201,0,0,0.24644,125.568994,30.665758)"/>
<path style="fill:none;stroke-width:1.25;stroke-linecap:butt;stroke-linejoin:miter;stroke:rgb(32.941176%,29.411765%,12.54902%);stroke-opacity:1;stroke-miterlimit:4;" d="M 452.332755 141.30216 L 450.451167 138.544137 " transform="matrix(0.251201,0,0,0.24644,125.568994,30.665758)"/>
<path style="fill-rule:evenodd;fill:rgb(32.941176%,29.411765%,12.54902%);fill-opacity:1;stroke-width:1.25;stroke-linecap:butt;stroke-linejoin:miter;stroke:rgb(32.941176%,29.411765%,12.941176%);stroke-opacity:1;stroke-miterlimit:4;" d="M 400.845668 138.211272 L 406.692586 137.878407 L 407.796658 143.188393 L 409.787098 144.947822 L 410.113655 154.664304 L 411.995243 155.440989 L 412.555054 151.573417 L 417.080195 151.240552 L 417.966563 159.086651 L 416.862491 160.085246 L 417.297899 161.30575 L 422.709408 161.194795 C 422.709408 161.194795 423.937883 159.086651 424.046735 159.086651 C 424.155587 159.086651 427.141248 158.753786 427.141248 158.864741 C 427.141248 158.975696 428.354172 161.194795 428.354172 161.194795 L 429.24054 158.214862 C 429.24054 158.214862 432.101797 156.994358 432.101797 157.105313 C 432.101797 157.216268 434.434344 160.86193 434.434344 160.86193 L 438.399674 160.307155 L 435.973825 157.992952 L 434.978605 152.904876 L 440.498967 149.924943 L 442.707111 153.681561 C 442.707111 153.681561 444.806403 153.792515 444.697551 153.681561 C 444.588699 153.570606 442.271702 149.370169 442.271702 149.370169 L 442.271702 140.525475 L 446.470287 134.78752 L 452.332755 134.12179 L 452.332755 131.696632 L 446.470287 126.275691 L 444.930806 118.762456 L 441.603039 117.113983 L 440.732221 118.096727 L 437.077898 118.429591 L 440.732221 123.850533 L 440.732221 127.38524 L 442.380554 128.27288 L 442.053998 137.989362 C 442.053998 137.989362 437.964266 138.544137 437.964266 138.655092 C 437.964266 138.766047 437.637709 144.060182 437.637709 144.060182 L 435.087458 146.612146 C 435.087458 146.612146 433.656829 151.684372 433.547977 151.684372 C 433.439124 151.684372 431.106577 154.775259 431.106577 154.775259 L 426.581436 154.886214 C 426.581436 154.886214 423.937883 152.350101 423.937883 152.239146 C 423.937883 152.128191 423.486924 148.482529 423.486924 148.482529 C 423.486924 148.482529 421.729739 147.927754 421.605336 147.927754 C 421.496484 147.927754 420.610116 143.838272 420.610116 143.838272 L 417.515604 142.078844 L 417.297899 139.653686 L 414.312239 138.322227 C 414.312239 138.322227 413.985683 136.103128 413.876831 135.992173 C 413.767978 135.881218 412.446202 135.009429 412.33735 135.009429 C 412.212947 135.009429 412.212947 128.922759 412.212947 128.922759 L 414.872051 128.494789 L 413.394771 126.545153 L 412.88161 124.833276 L 412.88161 123.073848 L 415.089755 120.8706 C 415.089755 120.8706 411.108875 120.315825 411.108875 120.42678 C 411.108875 120.537735 407.252397 122.186209 407.252397 122.075254 C 407.361249 122.075254 407.143545 129.255623 407.143545 129.255623 L 402.602854 130.698038 L 398.96408 136.546948 Z M 400.845668 138.211272 " transform="matrix(0.251201,0,0,0.24644,125.568994,30.665758)"/>
<path style="fill-rule:evenodd;fill:rgb(32.941176%,29.411765%,12.54902%);fill-opacity:1;stroke-width:1.25;stroke-linecap:butt;stroke-linejoin:miter;stroke:rgb(32.941176%,29.411765%,12.54902%);stroke-opacity:1;stroke-miterlimit:4;" d="M 423.704628 148.038709 L 426.690289 146.279281 L 426.581436 142.839678 L 423.704628 142.189799 L 422.600556 141.08025 L 425.803921 141.635024 L 429.784801 141.30216 L 431.106577 140.63643 C 430.562316 142.078844 430.111357 141.967889 430.002505 141.967889 C 429.893653 141.967889 427.794361 143.061588 427.794361 143.061588 L 427.903213 146.390236 C 427.903213 146.390236 434.760901 147.262025 434.652049 147.262025 C 434.543197 147.262025 434.652049 148.593484 434.434344 148.593484 C 434.20109 148.593484 427.358952 147.040115 427.358952 147.040115 L 423.051515 149.703033 Z M 423.704628 148.038709 " transform="matrix(0.251201,0,0,0.24644,125.568994,30.665758)"/>
<path style="fill-rule:evenodd;fill:rgb(32.941176%,29.411765%,12.54902%);fill-opacity:1;stroke-width:1.25;stroke-linecap:butt;stroke-linejoin:miter;stroke:rgb(32.941176%,29.411765%,12.54902%);stroke-opacity:1;stroke-miterlimit:4;" d="M 440.949926 127.496195 L 436.969046 130.587083 L 434.434344 135.120384 L 433.112568 135.326444 L 429.24054 130.143263 L 424.824251 130.254218 C 424.824251 130.254218 422.382852 136.325038 422.382852 136.435993 C 422.382852 136.546948 420.625666 136.214083 420.625666 136.214083 L 415.976123 131.141857 C 415.976123 131.141857 414.545494 128.589894 414.763198 128.589894 C 414.980903 128.589894 426.363732 128.700849 426.363732 128.700849 L 426.25488 123.184803 C 426.25488 123.184803 424.482144 122.630028 423.611327 122.075254 C 424.26444 121.853344 429.909203 121.853344 429.909203 121.853344 L 427.467804 123.517668 L 427.467804 128.257029 L 437.528857 128.367984 Z M 440.949926 127.496195 " transform="matrix(0.251201,0,0,0.24644,125.568994,30.665758)"/>
<path style=" stroke:none;fill-rule:evenodd;fill:rgb(47.45098%,41.568627%,22.745098%);fill-opacity:0.996078;" d="M 231.285156 62.738281 C 231.46875 62.738281 231.617188 62.882812 231.617188 63.0625 C 231.617188 63.246094 231.46875 63.390625 231.285156 63.390625 C 231.097656 63.390625 230.949219 63.246094 230.949219 63.0625 C 230.949219 62.882812 231.097656 62.738281 231.285156 62.738281 Z M 231.285156 62.738281 "/>
<path style=" stroke:none;fill-rule:evenodd;fill:rgb(47.843137%,41.960784%,22.745098%);fill-opacity:1;" d="M 234.449219 62.601562 C 234.632812 62.601562 234.78125 62.75 234.78125 62.929688 C 234.78125 63.109375 234.632812 63.253906 234.449219 63.253906 C 234.265625 63.253906 234.117188 63.109375 234.117188 62.929688 C 234.117188 62.75 234.265625 62.601562 234.449219 62.601562 Z M 234.449219 62.601562 "/>
<path style="fill:none;stroke-width:1.25;stroke-linecap:butt;stroke-linejoin:miter;stroke:rgb(32.941176%,29.411765%,12.54902%);stroke-opacity:1;stroke-miterlimit:4;" d="M 413.550274 121.298569 C 417.748858 119.602544 420.734519 118.239383 425.928323 117.763862 C 430.826672 117.256639 434.620948 117.95407 438.959486 118.762456 " transform="matrix(0.251201,0,0,0.24644,125.568994,30.665758)"/>
<path style="fill-rule:evenodd;fill:rgb(32.941176%,29.411765%,12.54902%);fill-opacity:1;stroke-width:1.25;stroke-linecap:butt;stroke-linejoin:miter;stroke:rgb(32.941176%,29.411765%,12.54902%);stroke-opacity:1;stroke-miterlimit:4;" d="M 415.867271 112.342921 L 412.446202 112.342921 L 407.578954 107.15974 L 410.346909 107.492605 L 413.550274 108.919168 Z M 415.867271 112.342921 " transform="matrix(0.251201,0,0,0.24644,125.568994,30.665758)"/>
<path style="fill-rule:evenodd;fill:rgb(32.941176%,29.411765%,12.54902%);fill-opacity:1;stroke-width:1.25;stroke-linecap:butt;stroke-linejoin:miter;stroke:rgb(32.941176%,29.411765%,12.54902%);stroke-opacity:1;stroke-miterlimit:4;" d="M 436.533637 110.361582 L 444.262142 104.401717 L 441.727441 104.068852 L 438.850633 106.71592 L 435.429565 107.270695 Z M 436.533637 110.361582 " transform="matrix(0.251201,0,0,0.24644,125.568994,30.665758)"/>
<path style="fill-rule:evenodd;fill:rgb(32.941176%,29.411765%,12.54902%);fill-opacity:1;stroke-width:1.25;stroke-linecap:butt;stroke-linejoin:miter;stroke:rgb(32.941176%,29.411765%,12.54902%);stroke-opacity:1;stroke-miterlimit:4;" d="M 431.977395 111.455281 L 419.848151 111.914951 L 419.957003 110.583492 L 424.373292 110.139672 L 424.933103 108.380244 C 424.933103 108.380244 426.25488 108.269289 426.25488 108.380244 C 426.25488 108.491199 427.2501 110.028718 427.2501 110.028718 L 431.557537 110.805402 Z M 431.977395 111.455281 " transform="matrix(0.251201,0,0,0.24644,125.568994,30.665758)"/>
<path style="fill-rule:evenodd;fill:rgb(32.941176%,29.411765%,12.54902%);fill-opacity:1;stroke-width:1.25;stroke-linecap:butt;stroke-linejoin:miter;stroke:rgb(32.941176%,29.411765%,12.54902%);stroke-opacity:1;stroke-miterlimit:4;" d="M 431.339832 106.826875 L 427.141248 106.93783 L 426.814691 104.623627 Z M 431.339832 106.826875 " transform="matrix(0.251201,0,0,0.24644,125.568994,30.665758)"/>
<path style="fill-rule:evenodd;fill:rgb(32.941176%,29.411765%,12.54902%);fill-opacity:1;stroke-width:1.25;stroke-linecap:butt;stroke-linejoin:miter;stroke:rgb(32.941176%,29.411765%,12.54902%);stroke-opacity:1;stroke-miterlimit:4;" d="M 424.26444 104.734582 L 423.922333 107.048785 L 419.848151 107.714515 Z M 424.26444 104.734582 " transform="matrix(0.251201,0,0,0.24644,125.568994,30.665758)"/>
<path style="fill-rule:evenodd;fill:rgb(32.941176%,29.411765%,12.54902%);fill-opacity:1;stroke-width:1.25;stroke-linecap:butt;stroke-linejoin:miter;stroke:rgb(32.941176%,29.411765%,12.54902%);stroke-opacity:1;stroke-miterlimit:4;" d="M 401.063373 147.040115 L 403.162665 141.730129 L 401.281077 138.084466 L 399.399489 143.505408 Z M 401.063373 147.040115 " transform="matrix(0.251201,0,0,0.24644,125.568994,30.665758)"/>
<path style="fill-rule:evenodd;fill:rgb(32.941176%,29.411765%,12.54902%);fill-opacity:1;stroke-width:1.25;stroke-linecap:butt;stroke-linejoin:miter;stroke:rgb(32.941176%,29.411765%,12.54902%);stroke-opacity:1;stroke-miterlimit:4;" d="M 405.372427 149.814503 L 407.907128 143.505923 L 403.05543 148.593999 Z M 405.372427 149.814503 " transform="matrix(0.251201,0,0,0.24644,125.541244,30.692975)"/>
<path style="fill-rule:evenodd;fill:rgb(0%,6.27451%,43.921569%);fill-opacity:1;stroke-width:0.333187;stroke-linecap:butt;stroke-linejoin:miter;stroke:rgb(0%,6.27451%,44.313725%);stroke-opacity:0.996078;stroke-miterlimit:4;" d="M 338.690844 139.621364 L 342.302279 97.686037 L 364.51072 84.910011 L 381.676543 103.511202 L 370.23545 143.914912 C 359.145877 141.650966 352.818543 140.680105 338.690844 139.621364 Z M 338.690844 139.621364 " transform="matrix(0.93345,0,0,0.93345,-59.07675,-37.5405)"/>
<path style="fill-rule:evenodd;fill:rgb(98.039216%,96.862745%,1.176471%);fill-opacity:0.996078;stroke-width:1.25;stroke-linecap:butt;stroke-linejoin:miter;stroke:rgb(32.941176%,29.411765%,12.54902%);stroke-opacity:0.996078;stroke-miterlimit:4;" d="M 410.933064 120.556178 L 406.874432 121.570623 L 407.029936 129.083858 L 402.038285 130.177557 L 398.539465 136.787301 L 400.700958 138.832042 C 400.80981 139.053952 398.990424 143.714059 399.068175 143.714059 C 399.145927 143.714059 400.389952 145.489338 400.389952 145.489338 L 401.727279 149.547119 L 405.086146 150.006789 L 405.941414 154.777852 L 411.259621 155.63379 L 416.17352 159.152646 L 416.484526 161.340044 L 422.113739 161.498551 L 425.939116 162.750756 L 439.296835 161.181537 L 441.100672 158.375962 L 441.256175 154.540091 L 448.440419 154.30233 L 449.093533 148.199809 L 452.903359 148.199809 L 452.43685 141.336453 L 455.609114 141.621766 L 454.784947 138.324819 L 452.810057 135.630199 L 452.4213 131.413912 L 446.792086 125.802762 L 445.548061 118.448034 C 445.548061 118.448034 441.955939 116.815412 441.955939 116.736158 C 441.955939 116.656905 441.722684 111.806589 441.722684 111.806589 L 445.781316 106.100335 L 445.392558 103.849535 L 441.644933 103.770281 L 438.830326 106.100335 C 438.830326 106.100335 435.0827 106.496603 435.0827 106.575856 L 435.0827 108.287732 C 435.0827 108.287732 436.015719 111.505425 436.015719 111.568828 C 436.015719 111.648082 431.723833 111.568828 431.723833 111.568828 L 431.56833 106.496603 L 425.472607 103.453267 C 425.472607 103.453267 419.765642 107.352541 419.765642 107.431794 C 419.765642 107.511048 419.454636 111.965096 419.454636 111.965096 L 416.717781 112.74178 L 413.903174 108.525493 L 408.989275 106.65511 L 406.330172 106.496603 L 406.25242 109.777699 L 411.415124 116.577651 Z M 410.933064 120.556178 " transform="matrix(0.251201,0,0,0.24644,134.296752,45.290119)"/>
<path style="fill:none;stroke-width:1.25;stroke-linecap:butt;stroke-linejoin:miter;stroke:rgb(32.941176%,29.411765%,12.54902%);stroke-opacity:1;stroke-miterlimit:4;" d="M 449.233485 148.041302 L 448.129413 143.95182 " transform="matrix(0.251201,0,0,0.24644,134.296752,45.290119)"/>
<path style="fill:none;stroke-width:1.25;stroke-linecap:butt;stroke-linejoin:miter;stroke:rgb(32.941176%,29.411765%,12.54902%);stroke-opacity:1;stroke-miterlimit:4;" d="M 452.327998 141.304752 L 450.44641 138.530878 " transform="matrix(0.251201,0,0,0.24644,134.296752,45.290119)"/>
<path style="fill-rule:evenodd;fill:rgb(32.941176%,29.411765%,12.54902%);fill-opacity:1;stroke-width:1.25;stroke-linecap:butt;stroke-linejoin:miter;stroke:rgb(32.941176%,29.411765%,12.941176%);stroke-opacity:1;stroke-miterlimit:4;" d="M 400.840911 138.213864 L 406.703379 137.880999 L 407.807451 143.175135 L 409.782341 144.950414 L 410.124448 154.666897 L 412.006036 155.443581 L 412.550297 151.576009 L 417.075438 151.243144 L 417.961806 159.089243 L 416.857733 160.087838 L 417.308693 161.308342 L 422.720202 161.197387 C 422.720202 161.197387 423.933126 159.089243 424.041978 159.089243 C 424.15083 159.089243 427.13649 158.756379 427.13649 158.867334 C 427.13649 158.978288 428.349415 161.197387 428.349415 161.197387 L 429.235783 158.201604 C 429.235783 158.201604 432.112591 156.99695 432.112591 157.107905 C 432.112591 157.21886 434.429587 160.864522 434.429587 160.864522 L 438.410467 160.309748 L 435.969068 157.979694 L 434.973848 152.907468 L 440.50976 149.927536 L 442.717904 153.684153 C 442.717904 153.684153 444.817196 153.795108 444.708344 153.684153 C 444.599492 153.573198 442.266945 149.372761 442.266945 149.372761 L 442.266945 140.528067 L 446.46553 134.790112 L 452.327998 134.124382 L 452.327998 131.683374 L 446.46553 126.278283 L 444.926049 118.765049 L 441.613832 117.100725 L 440.727464 118.099319 L 437.073141 118.432184 L 440.727464 123.853125 L 440.727464 127.387832 L 442.375797 128.259621 L 442.049241 137.991954 C 442.049241 137.991954 437.959508 138.546729 437.959508 138.657684 C 437.959508 138.768639 437.632952 144.062775 437.632952 144.062775 L 435.098251 146.614738 C 435.098251 146.614738 433.652072 151.686964 433.543219 151.686964 C 433.434367 151.686964 431.117371 154.777852 431.117371 154.777852 L 426.576679 154.888806 C 426.576679 154.888806 423.933126 152.352694 423.933126 152.241739 C 423.933126 152.130784 423.497717 148.485121 423.497717 148.485121 C 423.497717 148.485121 421.724981 147.930347 421.616129 147.930347 C 421.507277 147.930347 420.620909 143.840865 420.620909 143.840865 L 417.526397 142.081436 L 417.308693 139.640428 L 414.323032 138.324819 C 414.323032 138.324819 413.980926 136.10572 413.872073 135.994765 C 413.763221 135.883811 412.441445 135.012022 412.332592 135.012022 C 412.22374 135.012022 412.22374 128.925351 412.22374 128.925351 L 414.867293 128.481531 L 413.390014 126.547745 L 412.876853 124.835869 L 412.876853 123.07644 L 415.100548 120.857342 C 415.100548 120.857342 411.119668 120.318418 411.119668 120.413522 C 411.119668 120.524477 407.24764 122.188801 407.24764 122.077846 C 407.356492 122.077846 407.138788 129.258216 407.138788 129.258216 L 402.613647 130.70063 L 398.959323 136.54954 Z M 400.840911 138.213864 " transform="matrix(0.251201,0,0,0.24644,134.296752,45.290119)"/>
<path style="fill-rule:evenodd;fill:rgb(32.941176%,29.411765%,12.54902%);fill-opacity:1;stroke-width:1.25;stroke-linecap:butt;stroke-linejoin:miter;stroke:rgb(32.941176%,29.411765%,12.54902%);stroke-opacity:1;stroke-miterlimit:4;" d="M 423.715422 148.041302 L 426.685531 146.266023 L 426.576679 142.84227 L 423.715422 142.176541 L 422.611349 141.082842 L 425.814714 141.637617 L 429.780044 141.304752 L 431.117371 140.639022 C 430.557559 142.081436 430.122151 141.970481 430.013298 141.970481 C 429.904446 141.970481 427.805154 143.06418 427.805154 143.06418 L 427.914006 146.376978 C 427.914006 146.376978 434.756144 147.264617 434.647292 147.264617 C 434.53844 147.264617 434.647292 148.596076 434.429587 148.596076 C 434.211883 148.596076 427.354195 147.042707 427.354195 147.042707 L 423.046758 149.689775 Z M 423.715422 148.041302 " transform="matrix(0.251201,0,0,0.24644,134.296752,45.290119)"/>
<path style="fill-rule:evenodd;fill:rgb(32.941176%,29.411765%,12.54902%);fill-opacity:1;stroke-width:1.25;stroke-linecap:butt;stroke-linejoin:miter;stroke:rgb(32.941176%,29.411765%,12.54902%);stroke-opacity:1;stroke-miterlimit:4;" d="M 440.945169 127.482937 L 436.979839 130.589675 L 434.429587 135.107126 L 433.107811 135.329036 L 429.235783 130.145855 L 424.819494 130.25681 C 424.819494 130.25681 422.393645 136.32763 422.393645 136.438585 C 422.393645 136.54954 420.620909 136.216675 420.620909 136.216675 L 415.986916 131.128599 C 415.986916 131.128599 414.540737 128.592486 414.758441 128.592486 C 414.991696 128.592486 426.358975 128.703441 426.358975 128.703441 L 426.250123 123.187395 C 426.250123 123.187395 424.492937 122.632621 423.606569 122.077846 C 424.259683 121.855936 429.904446 121.855936 429.904446 121.855936 L 427.478597 123.50441 L 427.478597 128.259621 L 437.5241 128.370576 Z M 440.945169 127.482937 " transform="matrix(0.251201,0,0,0.24644,134.296752,45.290119)"/>
<path style=" stroke:none;fill-rule:evenodd;fill:rgb(47.45098%,41.568627%,22.745098%);fill-opacity:0.996078;" d="M 240.011719 77.363281 C 240.195312 77.363281 240.34375 77.507812 240.34375 77.6875 C 240.34375 77.867188 240.195312 78.015625 240.011719 78.015625 C 239.828125 78.015625 239.679688 77.867188 239.679688 77.6875 C 239.679688 77.507812 239.828125 77.363281 240.011719 77.363281 Z M 240.011719 77.363281 "/>
<path style=" stroke:none;fill-rule:evenodd;fill:rgb(47.843137%,41.960784%,22.745098%);fill-opacity:1;" d="M 243.175781 77.226562 C 243.359375 77.226562 243.507812 77.371094 243.507812 77.554688 C 243.507812 77.734375 243.359375 77.878906 243.175781 77.878906 C 242.992188 77.878906 242.84375 77.734375 242.84375 77.554688 C 242.84375 77.371094 242.992188 77.226562 243.175781 77.226562 Z M 243.175781 77.226562 "/>
<path style="fill:none;stroke-width:1.25;stroke-linecap:butt;stroke-linejoin:miter;stroke:rgb(32.941176%,29.411765%,12.54902%);stroke-opacity:1;stroke-miterlimit:4;" d="M 413.545517 121.301161 C 417.744101 119.605136 420.729761 118.241975 425.923566 117.766454 C 430.821915 117.243381 434.616191 117.956663 438.954728 118.765049 " transform="matrix(0.251201,0,0,0.24644,134.296752,45.290119)"/>
<path style="fill-rule:evenodd;fill:rgb(32.941176%,29.411765%,12.54902%);fill-opacity:1;stroke-width:1.25;stroke-linecap:butt;stroke-linejoin:miter;stroke:rgb(32.941176%,29.411765%,12.54902%);stroke-opacity:1;stroke-miterlimit:4;" d="M 415.862513 112.345513 L 412.441445 112.345513 L 407.589747 107.162332 L 410.342152 107.495197 L 413.545517 108.92176 Z M 415.862513 112.345513 " transform="matrix(0.251201,0,0,0.24644,134.296752,45.290119)"/>
<path style="fill-rule:evenodd;fill:rgb(32.941176%,29.411765%,12.54902%);fill-opacity:1;stroke-width:1.25;stroke-linecap:butt;stroke-linejoin:miter;stroke:rgb(32.941176%,29.411765%,12.54902%);stroke-opacity:1;stroke-miterlimit:4;" d="M 436.52888 110.364175 L 444.257385 104.388459 L 441.722684 104.055594 L 438.845876 106.718512 L 435.424807 107.273287 Z M 436.52888 110.364175 " transform="matrix(0.251201,0,0,0.24644,134.296752,45.290119)"/>
<path style="fill-rule:evenodd;fill:rgb(32.941176%,29.411765%,12.54902%);fill-opacity:1;stroke-width:1.25;stroke-linecap:butt;stroke-linejoin:miter;stroke:rgb(32.941176%,29.411765%,12.54902%);stroke-opacity:1;stroke-miterlimit:4;" d="M 431.972638 111.457873 L 419.843394 111.917544 L 419.952246 110.586085 L 424.384085 110.142265 L 424.928346 108.382836 C 424.928346 108.382836 426.250123 108.271882 426.250123 108.382836 C 426.250123 108.493791 427.245343 110.03131 427.245343 110.03131 L 431.552779 110.807994 Z M 431.972638 111.457873 " transform="matrix(0.251201,0,0,0.24644,134.296752,45.290119)"/>
<path style="fill-rule:evenodd;fill:rgb(32.941176%,29.411765%,12.54902%);fill-opacity:1;stroke-width:1.25;stroke-linecap:butt;stroke-linejoin:miter;stroke:rgb(32.941176%,29.411765%,12.54902%);stroke-opacity:1;stroke-miterlimit:4;" d="M 431.335075 106.829467 L 427.13649 106.940422 L 426.809934 104.626219 Z M 431.335075 106.829467 " transform="matrix(0.251201,0,0,0.24644,134.296752,45.290119)"/>
<path style="fill-rule:evenodd;fill:rgb(32.941176%,29.411765%,12.54902%);fill-opacity:1;stroke-width:1.25;stroke-linecap:butt;stroke-linejoin:miter;stroke:rgb(32.941176%,29.411765%,12.54902%);stroke-opacity:1;stroke-miterlimit:4;" d="M 424.259683 104.737174 L 423.933126 107.051377 L 419.843394 107.717107 Z M 424.259683 104.737174 " transform="matrix(0.251201,0,0,0.24644,134.296752,45.290119)"/>
<path style="fill-rule:evenodd;fill:rgb(32.941176%,29.411765%,12.54902%);fill-opacity:1;stroke-width:1.25;stroke-linecap:butt;stroke-linejoin:miter;stroke:rgb(32.941176%,29.411765%,12.54902%);stroke-opacity:1;stroke-miterlimit:4;" d="M 401.058615 147.042707 L 403.157908 141.732721 L 401.27632 138.087059 L 399.410282 143.508 Z M 401.058615 147.042707 " transform="matrix(0.251201,0,0,0.24644,134.296752,45.290119)"/>
<path style="fill-rule:evenodd;fill:rgb(32.941176%,29.411765%,12.54902%);fill-opacity:1;stroke-width:1.25;stroke-linecap:butt;stroke-linejoin:miter;stroke:rgb(32.941176%,29.411765%,12.54902%);stroke-opacity:1;stroke-miterlimit:4;" d="M 405.36767 149.817096 L 407.917921 143.508515 L 403.050673 148.596591 Z M 405.36767 149.817096 " transform="matrix(0.251201,0,0,0.24644,134.269002,45.317336)"/>
<path style="fill-rule:evenodd;fill:rgb(62.745098%,12.941176%,4.705882%);fill-opacity:1;stroke-width:0.333187;stroke-linecap:butt;stroke-linejoin:miter;stroke:rgb(62.745098%,12.941176%,4.705882%);stroke-opacity:0.996078;stroke-miterlimit:4;" d="M 344.197969 132.109747 L 343.084826 133.411203 L 343.172706 134.503421 L 345.482685 134.461574 C 346.22757 134.285815 346.411699 134.026361 346.55398 133.725059 C 346.784141 133.356801 346.625121 133.151749 346.683707 132.657949 Z M 344.197969 132.109747 " transform="matrix(0.93345,0,0,0.93345,-59.07675,-37.5405)"/>
<path style="fill-rule:evenodd;fill:rgb(62.745098%,12.941176%,4.705882%);fill-opacity:1;stroke-width:0.333187;stroke-linecap:butt;stroke-linejoin:miter;stroke:rgb(62.745098%,12.941176%,4.705882%);stroke-opacity:0.996078;stroke-miterlimit:4;" d="M 349.759494 135.378033 L 348.817927 136.261014 L 348.817927 137.269538 L 350.872636 137.22769 C 351.613336 137.051931 351.71377 136.918019 351.856051 136.620902 C 352.086212 136.24846 352.015072 136.25683 352.073658 135.758845 Z M 349.759494 135.378033 " transform="matrix(0.93345,0,0,0.93345,-59.07675,-37.5405)"/>
<path style="fill-rule:evenodd;fill:rgb(62.745098%,12.941176%,4.705882%);fill-opacity:1;stroke-width:0.333187;stroke-linecap:butt;stroke-linejoin:miter;stroke:rgb(62.745098%,12.941176%,4.705882%);stroke-opacity:0.996078;stroke-miterlimit:4;" d="M 358.790174 132.570069 L 357.718879 133.662288 L 357.760726 134.503421 L 359.945163 134.587116 C 360.685863 134.411357 360.572875 134.444835 360.803036 134.059839 C 361.029012 133.691581 360.957871 133.612071 361.016458 133.114086 Z M 358.790174 132.570069 " transform="matrix(0.93345,0,0,0.93345,-59.07675,-37.5405)"/>
<path style="fill-rule:evenodd;fill:rgb(62.745098%,12.941176%,4.705882%);fill-opacity:1;stroke-width:0.333187;stroke-linecap:butt;stroke-linejoin:miter;stroke:rgb(62.745098%,12.941176%,4.705882%);stroke-opacity:0.996078;stroke-miterlimit:4;" d="M 365.171909 134.541084 L 363.92904 135.591455 L 363.92904 136.637641 L 366.239019 136.851063 C 366.983904 136.675304 367.038305 136.457697 367.226619 136.198243 C 367.452595 135.825801 367.339607 135.792323 367.398194 135.294338 Z M 365.171909 134.541084 " transform="matrix(0.93345,0,0,0.93345,-59.07675,-37.5405)"/>
<path style="fill-rule:evenodd;fill:rgb(62.745098%,12.941176%,4.705882%);fill-opacity:1;stroke-width:0.333187;stroke-linecap:butt;stroke-linejoin:miter;stroke:rgb(0%,0%,0%);stroke-opacity:1;stroke-miterlimit:4;" d="M 349.629767 107.080789 L 353.994456 109.976632 C 354.818851 109.298704 356.526227 109.708809 357.191601 109.897122 C 358.392623 110.210978 359.242126 110.922385 360.288312 111.110698 C 362.20911 111.591944 364.506535 111.926723 366.247389 111.73841 C 367.988243 111.550096 369.448718 110.637822 370.733435 109.976632 L 370.733435 109.558158 L 369.879747 109.558158 C 368.490412 110.056143 366.540321 110.085436 365.050552 109.888753 C 363.560783 109.69207 363.159047 109.026695 360.932763 108.382245 L 360.761188 107.96377 C 363.460349 108.089312 364.012735 108.022357 365.142616 107.528557 C 366.247389 107.235625 366.745373 106.591174 367.3689 106.147591 L 367.352161 105.653791 L 366.540321 105.611944 C 365.48995 106.306611 364.824575 106.436338 363.217634 106.285688 C 361.757158 106.139221 360.438963 105.306457 359.459733 105.289718 C 358.421916 105.298088 358.472133 104.800103 357.463609 104.754071 C 355.865037 104.61179 354.140922 104.825212 352.626045 105.189284 C 350.81405 105.737486 350.542042 106.197808 349.629767 107.080789 Z M 349.629767 107.080789 " transform="matrix(0.93345,0,0,0.93345,-59.07675,-37.5405)"/>
<path style="fill-rule:evenodd;fill:rgb(0%,0%,0%);fill-opacity:1;stroke-width:0.333187;stroke-linecap:butt;stroke-linejoin:miter;stroke:rgb(0%,0%,0%);stroke-opacity:1;stroke-miterlimit:4;" d="M 350.47927 106.427969 C 350.897745 106.524218 351.366436 106.645576 351.709585 106.838074 C 352.04855 107.034757 351.96067 107.030572 352.328928 107.298396 C 352.270341 106.951062 352.28708 106.97617 352.052734 106.704162 C 351.814204 106.427969 351.425023 106.181069 351.115352 105.959277 Z M 350.47927 106.427969 " transform="matrix(0.93345,0,0,0.93345,-59.07675,-37.5405)"/>
<path style="fill-rule:evenodd;fill:rgb(0%,0%,0%);fill-opacity:1;stroke-width:0.333187;stroke-linecap:butt;stroke-linejoin:miter;stroke:rgb(0%,0%,0%);stroke-opacity:1;stroke-miterlimit:4;" d="M 354.128368 109.558158 C 354.136737 109.181531 353.944239 108.855121 353.801958 108.528711 C 353.655492 108.202301 353.538319 107.921923 353.270495 107.595513 C 353.605275 107.691762 353.793588 107.838228 354.078151 108.181377 C 354.366898 108.524526 354.350159 108.867675 354.408746 109.361475 Z M 354.128368 109.558158 " transform="matrix(0.93345,0,0,0.93345,-59.07675,-37.5405)"/>
<path style="fill-rule:evenodd;fill:rgb(0%,0%,0%);fill-opacity:1;stroke-width:0.333187;stroke-linecap:butt;stroke-linejoin:miter;stroke:rgb(0%,0%,0%);stroke-opacity:1;stroke-miterlimit:4;" d="M 354.961132 104.971678 C 355.061566 105.231132 355.258249 105.411076 355.429824 105.967647 C 355.57629 106.474001 355.643245 107.181223 355.643245 107.181223 C 355.588844 106.804596 355.685093 106.377752 355.630691 106.001125 C 355.57629 105.624498 355.371237 105.298088 355.312651 104.921461 Z M 354.961132 104.971678 " transform="matrix(0.93345,0,0,0.93345,-59.07675,-37.5405)"/>
<path style="fill-rule:evenodd;fill:rgb(0%,0%,0%);fill-opacity:1;stroke-width:0.333187;stroke-linecap:butt;stroke-linejoin:miter;stroke:rgb(0%,0%,0%);stroke-opacity:1;stroke-miterlimit:4;" d="M 358.509796 105.189284 L 358.685555 107.277472 L 358.890607 105.314827 Z M 358.509796 105.189284 " transform="matrix(0.93345,0,0,0.93345,-59.07675,-37.5405)"/>
<path style="fill-rule:evenodd;fill:rgb(0%,0%,0%);fill-opacity:1;stroke-width:0.333187;stroke-linecap:butt;stroke-linejoin:miter;stroke:rgb(0%,0%,0%);stroke-opacity:1;stroke-miterlimit:4;" d="M 357.651923 109.507941 C 357.735618 109.168977 357.718879 108.830012 357.677031 108.491048 C 357.630999 108.152084 357.513826 107.863336 357.396654 107.474155 C 357.735618 107.762902 357.86953 108.126975 358.053658 108.516156 C 358.053658 108.905338 357.953225 109.244302 357.651923 109.507941 Z M 357.651923 109.507941 " transform="matrix(0.93345,0,0,0.93345,-59.07675,-37.5405)"/>
<path style="fill-rule:evenodd;fill:rgb(0%,0%,0%);fill-opacity:1;stroke-width:0.333187;stroke-linecap:butt;stroke-linejoin:miter;stroke:rgb(0%,0%,0%);stroke-opacity:1;stroke-miterlimit:4;" d="M 361.321944 108.599851 C 361.334498 108.599851 361.426563 109.307073 361.267542 109.817612 C 361.104337 110.328151 360.991349 110.365814 360.685863 110.637822 C 361.091783 110.340705 361.447486 110.240271 361.573029 109.918046 C 361.698571 109.420061 361.372161 108.675177 361.321944 108.599851 Z M 361.321944 108.599851 " transform="matrix(0.93345,0,0,0.93345,-59.07675,-37.5405)"/>
<path style="fill-rule:evenodd;fill:rgb(0%,0%,0%);fill-opacity:1;stroke-width:0.333187;stroke-linecap:butt;stroke-linejoin:miter;stroke:rgb(0%,0%,0%);stroke-opacity:1;stroke-miterlimit:4;" d="M 361.958025 107.921923 C 361.706941 107.959585 361.656724 106.909214 361.506073 106.40286 C 361.614876 106.344274 361.72368 106.361013 361.832483 106.603728 C 361.949656 106.741825 361.916178 107.482525 361.958025 107.921923 Z M 361.958025 107.921923 " transform="matrix(0.93345,0,0,0.93345,-59.07675,-37.5405)"/>
<path style="fill-rule:evenodd;fill:rgb(0%,0%,0%);fill-opacity:1;stroke-width:0.333187;stroke-linecap:butt;stroke-linejoin:miter;stroke:rgb(0%,0%,0%);stroke-opacity:1;stroke-miterlimit:4;" d="M 364.460503 107.499263 L 364.560937 106.628837 L 364.841314 106.603728 L 364.841314 107.352797 C 364.841314 107.377906 364.485611 107.524372 364.460503 107.499263 Z M 364.460503 107.499263 " transform="matrix(0.93345,0,0,0.93345,-59.07675,-37.5405)"/>
<path style="fill-rule:evenodd;fill:rgb(0%,0%,0%);fill-opacity:1;stroke-width:0.333187;stroke-linecap:butt;stroke-linejoin:miter;stroke:rgb(0%,0%,0%);stroke-opacity:1;stroke-miterlimit:4;" d="M 364.259635 109.838536 C 364.418655 110.106359 364.707403 110.420215 364.740881 110.708963 C 364.774359 110.99771 364.682294 111.139991 364.464687 111.57939 L 364.866423 111.604498 C 365.088214 111.25298 365.15517 111.001895 365.121692 110.721517 C 365.088214 110.445324 364.954303 110.169131 364.665555 109.93897 Z M 364.259635 109.838536 " transform="matrix(0.93345,0,0,0.93345,-59.07675,-37.5405)"/>
<path style="fill-rule:evenodd;fill:rgb(0%,0%,0%);fill-opacity:1;stroke-width:0.333187;stroke-linecap:butt;stroke-linejoin:miter;stroke:rgb(0%,0%,0%);stroke-opacity:1;stroke-miterlimit:4;" d="M 367.281021 110.060327 L 367.381455 111.278088 L 367.712049 111.102329 L 367.636724 110.060327 Z M 367.281021 110.060327 " transform="matrix(0.93345,0,0,0.93345,-59.07675,-37.5405)"/>
<path style="fill-rule:evenodd;fill:rgb(86.27451%,56.862745%,1.176471%);fill-opacity:1;stroke-width:0.333187;stroke-linecap:butt;stroke-linejoin:miter;stroke:rgb(32.941176%,29.411765%,12.54902%);stroke-opacity:1;stroke-miterlimit:4;" d="M 349.361944 107.290026 C 348.370159 107.574589 348.014456 108.12279 347.529025 108.595667 L 344.74617 107.185408 C 344.294218 107.55785 344.122643 108.093497 344.34025 108.641699 C 344.553672 109.1899 345.428284 110.047773 346.05181 110.470432 C 345.89279 111.227871 345.666814 111.796996 345.394806 112.462371 C 345.089319 113.207255 344.440684 114.148823 344.423945 114.450125 C 344.386282 114.797458 344.273294 115.538158 344.792202 115.739026 C 345.306926 115.935709 346.976639 115.600929 347.529025 115.638592 C 347.441146 115.935709 347.223539 116.454617 347.298864 116.676409 C 347.370005 116.902385 347.520656 116.97771 347.972608 116.990265 C 347.842881 117.266458 347.562503 117.613792 347.696415 117.781181 C 348.047934 118.04482 348.445484 117.998788 348.784449 117.977864 C 348.252986 118.593022 346.926422 119.777305 346.495393 120.308767 C 346.039256 120.923925 346.001594 121.589299 346.884575 121.522343 C 346.55398 121.886416 346.240124 122.237935 346.290341 122.55179 C 346.365666 122.928417 346.55398 123.183687 347.185876 122.961895 C 346.813434 123.807214 347.056149 124.564653 347.190061 125.447634 C 346.87202 126.113008 347.005932 126.728166 346.926422 127.493974 C 346.277787 127.862232 346.198277 128.343477 345.775617 129.079992 C 345.394806 129.879278 344.687584 130.10107 344.294218 131.816815 L 346.838543 132.448712 C 346.934792 132.097193 347.265386 131.867032 347.361636 131.515514 C 347.4537 131.163995 347.44533 130.724597 347.403483 130.331231 C 347.905652 129.603085 348.930915 128.088208 349.257325 127.284737 C 349.813896 126.98762 350.219816 126.799306 350.638291 126.799306 C 351.05258 126.799306 351.320404 127.050391 351.763987 127.284737 C 351.567304 127.962665 351.014918 128.703365 350.985625 129.657487 L 350.985625 132.281322 C 350.872636 132.934142 350.131937 132.942512 349.818081 134.909342 L 352.107136 135.499391 C 352.496317 134.838201 353.111475 134.750321 353.27468 134.482498 L 353.437885 131.754044 C 353.730817 130.469327 355.534442 129.402218 355.559551 128.004513 C 356.208186 127.996143 356.455086 128.063099 356.710355 127.929187 C 357.057689 127.80783 357.174862 127.615332 357.442686 127.368432 C 357.547304 127.791091 357.877899 127.828754 358.158277 127.828754 C 358.438655 127.828754 358.999411 127.431203 359.229572 127.272182 C 359.392777 127.498159 359.476472 127.715765 359.815436 127.795276 C 360.1544 127.874786 361.108522 127.732504 361.497703 127.636255 L 359.618753 130.716227 C 359.547612 131.00916 359.643861 131.197473 359.497395 131.540622 C 359.359299 131.854478 359.083106 132.000944 358.961748 132.289691 L 361.091783 132.796046 L 361.430747 131.90051 C 361.8827 131.708012 362.246773 131.607578 362.485303 131.318831 C 362.723834 131.025899 362.719649 130.477697 362.857745 130.163841 C 363.585891 129.636563 364.728326 128.485758 365.535982 127.540006 C 366.079999 127.632071 366.854177 128.079838 367.147109 128.753582 C 367.188956 129.477543 367.239173 130.808292 366.916948 131.728936 L 365.535982 133.892449 L 365.376962 134.243967 L 367.553029 135.018145 L 368.933995 133.959405 L 368.988397 132.452897 C 369.683064 131.226766 370.674849 130.557207 371.620601 129.783029 C 371.620601 129.741182 371.721035 128.159348 371.683372 128.100762 C 371.449026 127.920818 371.294191 128.029621 371.210496 127.703211 C 371.126801 127.376801 371.185388 126.477081 371.227235 126.129747 C 371.365332 125.958173 371.654079 125.765674 371.63734 125.619208 C 371.260713 125.204919 371.377886 124.137809 371.490874 123.30086 C 371.465765 122.355107 372.763036 121.229411 372.959719 120.677025 L 373.039229 119.681055 C 372.909502 119.434156 372.712819 119.287689 372.70445 119.082637 C 372.700265 118.8734 372.959719 118.530251 373.114555 118.308459 L 373.390748 117.839768 L 373.348901 115.383323 C 373.26939 115.115499 373.043414 114.705394 372.825807 114.659362 C 372.612386 114.617514 372.294345 114.86023 372.05163 115.128053 L 370.804576 116.052882 C 370.201973 116.232826 369.678879 116.308151 368.628508 116.044512 L 367.017382 116.07799 C 366.176248 116.312336 365.73685 116.349999 364.941748 116.002665 L 363.991811 116.019404 C 363.694694 116.182609 363.284589 116.442063 362.962364 116.504834 C 362.640139 116.563421 362.204925 116.575975 361.8827 116.479726 C 359.426255 116.642931 360.037227 116.822875 359.33419 116.973526 C 358.76925 116.868907 358.949194 116.588529 356.760572 116.567605 L 355.890145 116.312336 C 354.793742 115.588375 353.952609 114.425016 353.220278 113.094267 C 355.505149 112.441447 356.463455 111.759334 357.153938 110.202609 L 353.9275 110.323966 Z M 349.361944 107.290026 " transform="matrix(0.93345,0,0,0.93345,-59.07675,-37.5405)"/>
<path style="fill-rule:evenodd;fill:rgb(0%,0%,0%);fill-opacity:1;stroke-width:0.333187;stroke-linecap:butt;stroke-linejoin:miter;stroke:rgb(0%,0%,0%);stroke-opacity:1;stroke-miterlimit:4;" d="M 348.219508 111.269719 L 349.135967 111.6589 C 349.244771 111.788627 349.462377 111.943462 349.604659 111.951832 C 349.74694 111.960201 349.868298 111.813735 349.99384 111.709117 L 350.834974 111.269719 C 350.336989 111.198578 350.182154 110.888907 349.654876 110.888907 C 349.123413 110.888907 348.750971 111.1651 348.219508 111.269719 Z M 348.219508 111.269719 " transform="matrix(0.93345,0,0,0.93345,-59.07675,-37.5405)"/>
<path style="fill-rule:evenodd;fill:rgb(0%,0%,0%);fill-opacity:1;stroke-width:0.333187;stroke-linecap:butt;stroke-linejoin:miter;stroke:rgb(0%,0%,0%);stroke-opacity:1;stroke-miterlimit:4;" d="M 352.228494 111.499879 C 352.525611 111.675639 353.065443 112.027157 353.509026 112.027157 C 353.998641 111.98531 353.990271 111.646346 354.684939 111.416185 L 355.706017 110.59179 C 355.090859 110.600159 353.76011 110.717332 353.02778 110.943308 C 352.412623 111.106513 352.270341 111.349229 352.228494 111.499879 Z M 352.228494 111.499879 " transform="matrix(0.93345,0,0,0.93345,-59.07675,-37.5405)"/>
<path style="fill-rule:evenodd;fill:rgb(0%,0%,0%);fill-opacity:1;stroke-width:0.333187;stroke-linecap:butt;stroke-linejoin:miter;stroke:rgb(0%,0%,0%);stroke-opacity:1;stroke-miterlimit:4;" d="M 349.901776 122.057991 C 349.901776 122.137501 349.772049 122.191902 349.709277 122.099838 C 349.629767 121.028543 349.395422 120.279474 349.064827 119.442525 C 349.437269 120.078606 349.74694 121.103869 349.901776 122.057991 Z M 349.901776 122.057991 " transform="matrix(0.93345,0,0,0.93345,-59.07675,-37.5405)"/>
<path style="fill-rule:evenodd;fill:rgb(0%,0%,0%);fill-opacity:1;stroke-width:0.333187;stroke-linecap:butt;stroke-linejoin:miter;stroke:rgb(0%,0%,0%);stroke-opacity:1;stroke-miterlimit:4;" d="M 352.508872 126.451973 C 352.094582 126.49382 351.931377 126.431049 351.517087 126.472896 C 351.471055 125.393232 351.46687 124.162917 351.471055 123.392924 C 351.630075 123.413848 352.094582 123.899278 352.36659 124.660902 C 352.441916 125.221658 352.54235 125.857739 352.508872 126.451973 Z M 352.508872 126.451973 " transform="matrix(0.93345,0,0,0.93345,-59.07675,-37.5405)"/>
<path style="fill-rule:evenodd;fill:rgb(0%,0%,0%);fill-opacity:1;stroke-width:0.333187;stroke-linecap:butt;stroke-linejoin:miter;stroke:rgb(0%,0%,0%);stroke-opacity:1;stroke-miterlimit:4;" d="M 355.270803 122.170979 C 355.459117 122.221196 355.718571 122.221196 355.781342 122.099838 C 355.860852 121.869677 355.622322 121.618592 355.534442 121.338214 C 355.224771 120.731426 355.053196 120.078606 354.927654 119.794044 C 354.789558 119.710349 354.643091 119.714533 354.676569 119.856815 C 354.852329 120.396647 355.157815 121.961741 355.270803 122.170979 Z M 355.270803 122.170979 " transform="matrix(0.93345,0,0,0.93345,-59.07675,-37.5405)"/>
<path style="fill-rule:evenodd;fill:rgb(0%,0%,0%);fill-opacity:1;stroke-width:0.333187;stroke-linecap:butt;stroke-linejoin:miter;stroke:rgb(0%,0%,0%);stroke-opacity:1;stroke-miterlimit:4;" d="M 358.208494 121.848753 C 358.229418 121.97848 357.785835 121.790167 357.714694 121.643701 C 357.706325 121.354953 357.112091 119.254212 357.20834 119.170517 C 357.333882 119.11193 357.723064 119.873554 357.848606 120.225072 C 357.877899 120.43431 358.137353 121.200118 358.208494 121.848753 Z M 358.208494 121.848753 " transform="matrix(0.93345,0,0,0.93345,-59.07675,-37.5405)"/>
<path style="fill-rule:evenodd;fill:rgb(0%,0%,0%);fill-opacity:1;stroke-width:0.333187;stroke-linecap:butt;stroke-linejoin:miter;stroke:rgb(0%,0%,0%);stroke-opacity:1;stroke-miterlimit:4;" d="M 357.79002 126.179964 C 357.777465 126.32643 358.124799 126.205073 358.262896 126.096269 C 358.660446 125.476927 359.150062 124.824107 359.296528 124.577207 C 359.380223 124.313568 359.815436 122.622931 359.681524 122.635485 C 359.635492 122.589453 359.258865 123.472434 358.76925 124.347046 C 358.262896 125.238397 357.785835 126.096269 357.79002 126.179964 Z M 357.79002 126.179964 " transform="matrix(0.93345,0,0,0.93345,-59.07675,-37.5405)"/>
<path style="fill-rule:evenodd;fill:rgb(0%,0%,0%);fill-opacity:1;stroke-width:0.333187;stroke-linecap:butt;stroke-linejoin:miter;stroke:rgb(0%,0%,0%);stroke-opacity:1;stroke-miterlimit:4;" d="M 360.748634 125.271874 C 360.606353 125.33883 361.041566 123.811399 361.075044 123.53939 C 361.154554 123.112546 361.263358 122.342553 361.439117 121.346584 C 361.648354 122.735919 361.401454 124.229873 360.748634 125.271874 Z M 360.748634 125.271874 " transform="matrix(0.93345,0,0,0.93345,-59.07675,-37.5405)"/>
<path style="fill-rule:evenodd;fill:rgb(0%,0%,0%);fill-opacity:1;stroke-width:0.333187;stroke-linecap:butt;stroke-linejoin:miter;stroke:rgb(0%,0%,0%);stroke-opacity:1;stroke-miterlimit:4;" d="M 362.518781 120.589145 C 362.426717 120.67284 361.158739 118.576283 361.271727 118.563729 C 361.305205 118.471664 362.334652 119.877738 362.485303 120.124638 C 362.54389 120.241811 362.606661 120.421755 362.518781 120.589145 Z M 362.518781 120.589145 " transform="matrix(0.93345,0,0,0.93345,-59.07675,-37.5405)"/>
<path style="fill-rule:evenodd;fill:rgb(0%,0%,0%);fill-opacity:1;stroke-width:0.333187;stroke-linecap:butt;stroke-linejoin:miter;stroke:rgb(0%,0%,0%);stroke-opacity:1;stroke-miterlimit:4;" d="M 365.48995 122.150055 C 365.393701 122.078914 365.431363 121.409355 365.247235 120.67284 C 365.058921 119.94051 364.736696 119.229103 364.803652 119.028235 C 364.862238 118.923617 365.067291 118.969649 365.230496 119.11193 C 365.310006 119.513666 365.494135 121.049467 365.707557 122.045436 C 365.707557 122.141685 365.598753 122.208641 365.48995 122.150055 Z M 365.48995 122.150055 " transform="matrix(0.93345,0,0,0.93345,-59.07675,-37.5405)"/>
<path style="fill-rule:evenodd;fill:rgb(0%,0%,0%);fill-opacity:1;stroke-width:0.333187;stroke-linecap:butt;stroke-linejoin:miter;stroke:rgb(0%,0%,0%);stroke-opacity:1;stroke-miterlimit:4;" d="M 367.561399 120.292028 C 367.45678 120.183225 367.837592 121.011804 368.1096 121.995219 C 368.385793 122.978634 368.52389 124.715303 368.590846 124.593946 C 368.779159 124.468404 368.749866 124.309383 369.042798 124.246612 C 369.33573 124.183841 370.427949 124.284275 370.365178 124.213134 C 369.687249 123.610531 369.063722 123.112546 368.599215 122.455541 C 368.134709 121.802721 367.825037 120.944848 367.561399 120.292028 Z M 367.561399 120.292028 " transform="matrix(0.93345,0,0,0.93345,-59.07675,-37.5405)"/>
<path style="fill-rule:evenodd;fill:rgb(0%,0%,0%);fill-opacity:1;stroke-width:0.333187;stroke-linecap:butt;stroke-linejoin:miter;stroke:rgb(0%,0%,0%);stroke-opacity:1;stroke-miterlimit:4;" d="M 370.118278 129.259936 C 369.90904 129.414772 369.507305 129.536129 369.390132 129.469173 C 368.745681 128.130055 368.385793 127.255444 367.486073 125.820076 C 367.255912 125.481112 366.678417 125.531329 366.711895 125.397417 C 366.732819 125.242581 367.034121 125.305352 367.230804 125.083561 C 367.427487 124.857585 367.452595 124.573022 367.573953 124.472588 C 367.310314 125.087746 368.000797 126.037683 368.389978 126.790937 C 368.649432 126.862078 368.854485 126.857893 368.975842 127.012728 C 369.005136 127.083869 368.695464 127.134086 368.733127 127.39354 L 369.390132 128.711735 C 369.603554 128.870755 369.929964 128.958635 370.248005 129.008852 C 370.3317 129.079992 370.185234 129.184611 370.118278 129.259936 Z M 370.118278 129.259936 " transform="matrix(0.93345,0,0,0.93345,-59.07675,-37.5405)"/>
<path style="fill-rule:evenodd;fill:rgb(0%,0%,0%);fill-opacity:1;stroke-width:0.333187;stroke-linecap:butt;stroke-linejoin:miter;stroke:rgb(0%,0%,0%);stroke-opacity:1;stroke-miterlimit:4;" d="M 371.461581 117.538466 C 371.863316 117.563575 372.231574 117.597053 372.348747 117.392 C 372.595647 116.881461 372.742113 116.462987 372.574723 116.132392 C 371.938642 116.182609 371.461581 116.475541 371.202127 117.032112 C 371.210496 117.228795 371.256528 117.371076 371.461581 117.538466 Z M 371.461581 117.538466 " transform="matrix(0.93345,0,0,0.93345,-59.07675,-37.5405)"/>
<path style="fill-rule:evenodd;fill:rgb(99.215686%,98.823529%,98.823529%);fill-opacity:1;stroke-width:0.333187;stroke-linecap:butt;stroke-linejoin:miter;stroke:rgb(99.215686%,98.823529%,98.823529%);stroke-opacity:1;stroke-miterlimit:4;" d="M 378.11951 117.161839 C 384.388257 118.484218 390.192498 119.990727 395.992555 121.861308 C 401.796795 123.736073 407.320659 125.970727 412.936586 128.393694 L 403.533465 147.388251 C 398.285795 145.392127 393.105081 143.781001 387.920182 142.107103 C 382.739468 140.433205 377.688481 138.951805 372.440811 137.344863 Z M 378.11951 117.161839 " transform="matrix(0.93345,0,0,0.93345,-59.07675,-37.5405)"/>
<path style="fill-rule:evenodd;fill:rgb(90.196078%,8.235294%,11.764706%);fill-opacity:1;stroke-width:0.333187;stroke-linecap:butt;stroke-linejoin:miter;stroke:rgb(90.196078%,8.235294%,11.764706%);stroke-opacity:1;stroke-miterlimit:4;" d="M 376.868271 121.65207 C 376.868271 121.65207 385.622757 123.602161 394.109419 126.330615 C 402.591897 129.059069 410.869322 132.5617 410.835844 132.5617 C 410.768888 132.5617 405.504479 143.412743 405.504479 143.412743 C 400.390721 141.378957 395.017509 139.470713 389.707068 137.763338 C 384.396627 136.051777 379.086186 134.402988 373.641833 133.143379 L 376.868271 121.647886 Z M 376.868271 121.65207 " transform="matrix(0.93345,0,0,0.93345,-59.07675,-37.5405)"/>
<path style="fill-rule:evenodd;fill:rgb(0%,0%,0%);fill-opacity:1;stroke-width:0.333187;stroke-linecap:butt;stroke-linejoin:miter;stroke:rgb(0.392157%,0%,0.392157%);stroke-opacity:0.996078;stroke-miterlimit:4;" d="M 377.600601 126.949957 C 378.462659 126.468712 379.044338 126.338984 379.508845 125.548068 L 382.609741 125.548068 L 382.647403 126.677949 C 383.409027 127.042022 383.85261 127.443757 384.614233 127.80783 C 385.375857 128.171903 386.455521 128.498313 387.221329 128.862386 L 393.895997 129.444065 C 394.791533 129.590531 396.084619 129.967158 396.858797 130.419111 C 397.632974 130.875248 398.130959 131.448558 398.549434 132.176703 C 399.917845 132.657949 401.290441 132.942512 402.7007 133.151749 C 404.115144 133.356801 405.881106 133.448866 407.253703 133.503267 C 407.927447 133.733428 407.927447 134.084947 407.609406 134.436466 C 407.609406 134.436466 406.856152 135.461728 404.793073 135.470097 C 402.729994 135.478467 400.394906 134.319293 399.382198 134.478313 C 399.424045 135.10184 400.49534 136.386557 401.72984 136.892911 L 401.687992 139.85571 L 401.131421 140.366249 L 400.537187 139.972883 C 401.014248 139.27403 400.855228 138.453821 400.65436 137.750783 C 400.198223 137.089594 400.139637 136.817585 399.281764 136.775738 C 398.269056 136.58324 397.532541 136.307046 396.243639 135.411511 L 395.766578 135.491021 C 395.4862 135.984821 395.210007 136.323785 394.573926 136.620902 L 393.259916 136.541392 C 393.259916 136.541392 390.23853 135.880202 390.23853 135.84254 C 390.23853 135.800692 390.200868 135.373848 390.280378 135.332001 C 390.359888 135.294338 391.31401 135.294338 391.39352 135.294338 C 392.029601 135.491021 393.381274 135.491021 393.381274 135.491021 L 393.339426 134.356955 L 395.369028 134.243967 C 394.958923 132.837893 394.825011 131.942358 392.941876 131.628502 L 387.058124 131.787522 L 387.141819 132.603547 C 385.668789 132.411049 383.007291 132.373386 381.647249 132.825339 C 380.852148 132.904849 379.705528 133.306584 379.190804 133.306584 L 378.592386 133.151749 C 378.194835 133.034576 378.194835 132.917403 378.353855 132.565885 C 380.89818 132.369202 381.295731 132.176703 382.05317 131.825185 C 382.090832 131.590839 381.772792 131.084485 381.655619 131.042638 C 380.065416 130.967312 378.793254 131.084485 378.353855 131.004975 C 377.680111 130.812477 376.763652 130.460958 376.763652 130.419111 C 376.763652 130.381448 376.646479 129.795584 376.684142 129.795584 C 376.72599 129.795584 377.717774 130.067592 377.759622 130.067592 C 378.830916 130.264275 380.701497 130.184765 381.136711 129.954604 L 381.178558 129.096731 C 381.136711 128.703365 380.860517 128.351847 380.781007 128.314184 C 380.701497 128.276521 379.031784 128.079838 378.433365 128.079838 C 377.466689 127.912448 377.613155 127.431203 377.600601 126.949957 Z M 377.600601 126.949957 " transform="matrix(0.93345,0,0,0.93345,-59.07675,-37.5405)"/>
<path style="fill-rule:evenodd;fill:rgb(99.215686%,99.215686%,99.215686%);fill-opacity:0.996078;stroke-width:0.333187;stroke-linecap:butt;stroke-linejoin:miter;stroke:rgb(0.392157%,0%,0.392157%);stroke-opacity:0.996078;stroke-miterlimit:4;" d="M 390.439398 133.888264 C 391.339118 134.177011 392.004493 134.264891 393.343611 134.356955 L 395.369028 134.239783 C 394.958923 132.837893 394.825011 131.938173 392.94606 131.628502 L 387.062309 131.783337 L 387.141819 132.603547 C 388.928705 133.264737 389.803317 133.62881 390.439398 133.888264 Z M 390.439398 133.888264 " transform="matrix(0.93345,0,0,0.93345,-59.07675,-37.5405)"/>
<path style="fill-rule:evenodd;fill:rgb(0.392157%,6.666667%,44.313725%);fill-opacity:0.996078;stroke-width:0.333187;stroke-linecap:butt;stroke-linejoin:miter;stroke:rgb(0.392157%,6.666667%,44.313725%);stroke-opacity:1;stroke-miterlimit:4;" d="M 273.601324 143.990238 L 262.967888 104.369074 L 279.192143 84.717513 L 301.940416 97.702776 L 305.794566 139.68832 C 294.186084 140.546193 286.666098 141.66352 273.59714 143.990238 Z M 273.601324 143.990238 " transform="matrix(0.93345,0,0,0.93345,-59.07675,-37.5405)"/>
<path style="fill-rule:evenodd;fill:rgb(98.431373%,99.215686%,6.27451%);fill-opacity:0.996078;stroke-width:0.333187;stroke-linecap:butt;stroke-linejoin:miter;stroke:rgb(99.215686%,77.647059%,1.960784%);stroke-opacity:0.996078;stroke-miterlimit:4;" d="M 236.922037 112.420523 L 240.621351 115.680439 L 239.57098 120.91974 L 244.697292 119.145408 L 248.484486 122.40114 L 249.32562 117.576129 L 253.531288 116.216087 L 250.334143 112.751118 L 251.384514 107.96377 C 251.384514 107.96377 246.337712 109.449355 246.337712 109.407507 C 246.337712 109.36566 242.977362 106.189438 242.93133 106.231286 C 242.889483 106.273133 241.839112 110.771734 241.839112 110.771734 Z M 236.922037 112.420523 " transform="matrix(0.93345,0,0,0.93345,-59.07675,-37.5405)"/>
<path style=" stroke:none;fill-rule:evenodd;fill:rgb(100%,77.254902%,0%);fill-opacity:1;" d="M 162.160156 67.433594 L 177.546875 70.902344 L 173.582031 72.25 L 170.011719 69.359375 C 170.011719 69.359375 172.914062 76.601562 172.875 76.5625 C 172.835938 76.523438 169.5 73.75 169.382812 73.636719 L 169.972656 69.359375 C 169.972656 69.359375 164.632812 75.289062 164.632812 75.253906 C 164.632812 75.214844 165.652344 70.402344 165.652344 70.402344 Z M 162.160156 67.433594 "/>
<path style=" stroke:none;fill-rule:evenodd;fill:rgb(100%,77.254902%,0%);fill-opacity:1;" d="M 166.632812 65.859375 L 170.046875 69.132812 L 167.691406 61.546875 Z M 166.632812 65.859375 "/>
<path style=" stroke:none;fill-rule:evenodd;fill:rgb(100%,77.254902%,0%);fill-opacity:1;" d="M 170.832031 64.625 C 170.871094 64.664062 170.007812 69.054688 170.046875 69.054688 C 170.4375 68.589844 175.582031 63.238281 175.542969 63.238281 C 175.503906 63.238281 170.910156 64.664062 170.832031 64.625 Z M 170.832031 64.625 "/>
<path style="fill-rule:evenodd;fill:rgb(98.431373%,99.215686%,6.27451%);fill-opacity:0.996078;stroke-width:0.333187;stroke-linecap:butt;stroke-linejoin:miter;stroke:rgb(99.215686%,77.647059%,1.960784%);stroke-opacity:0.996078;stroke-miterlimit:4;" d="M 396.210161 104.410922 L 396.992709 109.227563 L 392.812148 112.6465 L 397.938461 114.43757 L 398.783779 119.308613 L 402.537495 116.07799 L 406.676208 117.617976 L 406.416754 112.951986 L 410.304382 109.884568 C 410.304382 109.884568 405.433339 107.921923 405.458447 107.888445 C 405.48774 107.859152 404.910246 103.310334 404.851659 103.318703 C 404.793073 103.322888 401.089574 106.168515 401.089574 106.168515 Z M 396.210161 104.410922 " transform="matrix(0.93345,0,0,0.93345,-59.07675,-37.5405)"/>
<path style=" stroke:none;fill-rule:evenodd;fill:rgb(100%,77.254902%,0%);fill-opacity:1;" d="M 310.804688 59.996094 L 320.53125 72.195312 L 316.585938 70.792969 L 315.664062 66.339844 C 315.664062 66.339844 313.273438 73.757812 313.269531 73.707031 C 313.261719 73.652344 312.449219 69.4375 312.433594 69.273438 L 315.632812 66.316406 C 315.632812 66.316406 307.679688 67.625 307.707031 67.597656 C 307.730469 67.566406 311.613281 64.457031 311.613281 64.457031 Z M 310.804688 59.996094 "/>
<path style=" stroke:none;fill-rule:evenodd;fill:rgb(99.215686%,77.647059%,1.960784%);fill-opacity:1;" d="M 315.292969 61.535156 L 315.84375 66.1875 L 318.882812 58.839844 Z M 315.292969 61.535156 "/>
<path style=" stroke:none;fill-rule:evenodd;fill:rgb(99.215686%,77.647059%,1.960784%);fill-opacity:1;" d="M 319.34375 63.179688 C 319.347656 63.234375 315.859375 66.109375 315.890625 66.132812 C 316.492188 66.015625 323.921875 65.035156 323.894531 65.011719 C 323.863281 64.988281 319.378906 63.257812 319.34375 63.179688 Z M 319.34375 63.179688 "/>
<path style="fill-rule:evenodd;fill:rgb(90.196078%,7.843137%,11.372549%);fill-opacity:1;stroke-width:0.333187;stroke-linecap:butt;stroke-linejoin:miter;stroke:rgb(90.196078%,7.843137%,11.372549%);stroke-opacity:1;stroke-miterlimit:4;" d="M 263.051583 104.519725 C 268.822346 101.761978 275.304516 99.606835 282.138204 98.669452 C 288.708253 97.727884 295.282487 97.648374 302.028296 97.660929 C 302.028296 97.660929 302.915461 107.993063 302.915461 108.080943 C 297.609205 108.12279 293.658806 108.022357 284.305901 109.235933 C 275.003214 110.524834 271.174172 111.629607 265.516398 113.797304 Z M 263.051583 104.519725 " transform="matrix(0.93345,0,0,0.93345,-59.07675,-37.5405)"/>
<path style="fill-rule:evenodd;fill:rgb(90.196078%,7.843137%,11.372549%);fill-opacity:0.996078;stroke-width:0.333187;stroke-linecap:butt;stroke-linejoin:miter;stroke:rgb(90.196078%,7.843137%,11.372549%);stroke-opacity:1;stroke-miterlimit:4;" d="M 267.989582 122.811245 C 267.901702 122.811245 270.910534 133.737613 270.910534 133.737613 C 276.46369 132.335724 282.104726 131.281168 287.745762 130.486066 C 293.386798 129.69515 299.387722 129.239013 304.852998 128.879124 L 303.894692 118.22058 C 298.132298 117.873246 291.570618 117.873246 285.632466 118.651608 C 279.698498 119.434156 273.936104 120.815121 267.997951 122.811245 Z M 267.989582 122.811245 " transform="matrix(0.93345,0,0,0.93345,-59.07675,-37.5405)"/>
<path style="fill-rule:evenodd;fill:rgb(100%,100%,100%);fill-opacity:1;stroke-width:1.0662;stroke-linecap:butt;stroke-linejoin:miter;stroke:rgb(89.803922%,7.843137%,11.372549%);stroke-opacity:1;stroke-miterlimit:4;" d="M 241.491778 156.561211 L 402.650483 156.561211 L 402.650483 259.899298 C 398.553618 300.143989 359.874022 330.228119 324.525483 329.997958 C 286.368981 331.663486 244.174199 300.432736 241.136075 259.556149 L 241.483408 156.565396 Z M 241.491778 156.561211 " transform="matrix(0.93345,0,0,0.93345,-59.07675,-37.5405)"/>
<path style="fill-rule:evenodd;fill:rgb(83.921569%,8.235294%,9.019608%);fill-opacity:1;stroke-width:1.0218;stroke-linecap:butt;stroke-linejoin:miter;stroke:rgb(89.803922%,7.843137%,11.372549%);stroke-opacity:1;stroke-miterlimit:4;" d="M 244.839574 160.168461 L 399.290133 160.168461 L 399.290133 259.200446 C 395.364843 297.767054 358.296374 326.59576 324.420865 326.373969 C 287.85875 327.972541 247.421561 298.043247 244.504794 258.869851 L 244.843758 160.168461 Z M 244.839574 160.168461 " transform="matrix(0.93345,0,0,0.93345,-59.07675,-37.5405)"/>
<path style=" stroke:none;fill-rule:evenodd;fill:rgb(100%,100%,100%);fill-opacity:1;" d="M 256.128906 112.4375 L 283.914062 112.4375 L 283.914062 142.589844 L 256.128906 142.589844 Z M 256.128906 112.4375 "/>
<path style=" stroke:none;fill-rule:evenodd;fill:rgb(100%,100%,100%);fill-opacity:1;" d="M 198.808594 112.4375 L 226.589844 112.4375 L 226.589844 142.589844 L 198.808594 142.589844 Z M 198.808594 112.4375 "/>
<path style=" stroke:none;fill-rule:evenodd;fill:rgb(100%,100%,100%);fill-opacity:1;" d="M 169.824219 143.585938 L 197.980469 143.585938 L 197.980469 173.015625 L 169.824219 173.015625 Z M 169.824219 143.585938 "/>
<path style=" stroke:none;fill-rule:evenodd;fill:rgb(100%,100%,100%);fill-opacity:1;" d="M 227.699219 143.585938 L 255.203125 143.585938 L 255.203125 173.015625 L 227.699219 173.015625 Z M 227.699219 143.585938 "/>
<path style=" stroke:none;fill-rule:evenodd;fill:rgb(100%,100%,100%);fill-opacity:1;" d="M 284.742188 143.585938 L 313.085938 143.585938 L 313.085938 173.015625 L 284.742188 173.015625 Z M 284.742188 143.585938 "/>
<path style=" stroke:none;fill-rule:evenodd;fill:rgb(100%,100%,100%);fill-opacity:1;" d="M 256.128906 173.921875 L 283.914062 173.921875 L 283.914062 203.804688 L 256.128906 203.804688 Z M 256.128906 173.921875 "/>
<path style=" stroke:none;fill-rule:evenodd;fill:rgb(100%,100%,100%);fill-opacity:1;" d="M 198.808594 173.921875 L 226.589844 173.921875 L 226.589844 203.804688 L 198.808594 203.804688 Z M 198.808594 173.921875 "/>
<path style=" stroke:none;fill-rule:evenodd;fill:rgb(100%,100%,100%);fill-opacity:1;" d="M 227.699219 204.707031 L 255.203125 204.707031 L 255.203125 234.589844 L 227.699219 234.589844 Z M 227.699219 204.707031 "/>
<path style="fill-rule:evenodd;fill:rgb(100%,100%,100%);fill-opacity:1;stroke-width:0.333187;stroke-linecap:butt;stroke-linejoin:miter;stroke:rgb(100%,100%,100%);stroke-opacity:1;stroke-miterlimit:4;" d="M 368.519705 259.798864 L 368.528075 291.247221 L 386.648019 291.27233 C 394.917075 279.190972 397.750147 267.427654 398.524325 259.807234 C 398.390413 259.807234 368.636878 259.790495 368.519705 259.798864 Z M 368.519705 259.798864 " transform="matrix(0.93345,0,0,0.93345,-59.07675,-37.5405)"/>
<path style="fill-rule:evenodd;fill:rgb(100%,100%,100%);fill-opacity:1;stroke-width:0.333187;stroke-linecap:butt;stroke-linejoin:miter;stroke:rgb(100%,100%,100%);stroke-opacity:1;stroke-miterlimit:4;" d="M 337.85808 292.778838 L 337.86645 324.340183 C 350.755464 321.661946 361.254988 315.552219 367.264282 311.070357 L 367.268466 292.766284 Z M 337.85808 292.778838 " transform="matrix(0.93345,0,0,0.93345,-59.07675,-37.5405)"/>
<path style="fill-rule:evenodd;fill:rgb(100%,100%,100%);fill-opacity:1;stroke-width:0.333187;stroke-linecap:butt;stroke-linejoin:miter;stroke:rgb(100%,100%,100%);stroke-opacity:1;stroke-miterlimit:4;" d="M 276.501353 292.720251 L 276.459505 310.551449 C 286.582403 317.937523 298.144852 322.260365 305.844783 323.921708 L 305.853152 292.732806 Z M 276.501353 292.720251 " transform="matrix(0.93345,0,0,0.93345,-59.07675,-37.5405)"/>
<path style="fill-rule:evenodd;fill:rgb(100%,100%,100%);fill-opacity:1;stroke-width:0.333187;stroke-linecap:butt;stroke-linejoin:miter;stroke:rgb(100%,100%,100%);stroke-opacity:1;stroke-miterlimit:4;" d="M 245.278972 259.761202 C 246.241463 272.114568 251.505872 283.576584 257.159462 291.326731 L 275.204082 291.297438 L 275.208266 259.748647 Z M 245.278972 259.761202 " transform="matrix(0.93345,0,0,0.93345,-59.07675,-37.5405)"/>
</g>
</svg>
