<?xml version="1.0" encoding="UTF-8"?>
<svg xmlns="http://www.w3.org/2000/svg" xmlns:xlink="http://www.w3.org/1999/xlink" width="480pt" height="360pt" viewBox="0 0 480 360" version="1.1">
<g id="surface1">
<rect x="0" y="0" width="480" height="360" style="fill:rgb(100%,100%,100%);fill-opacity:1;stroke:none;"/>
<path style=" stroke:none;fill-rule:evenodd;fill:rgb(0%,0%,0%);fill-opacity:1;" d="M 0 259.996094 L 480 259.996094 L 480 420 L 0 420 Z M 0 259.996094 "/>
<path style=" stroke:none;fill-rule:evenodd;fill:rgb(95.294118%,0%,0%);fill-opacity:1;" d="M 0 -60 L 480 -60 L 480 100.003906 L 0 100.003906 Z M 0 -60 "/>
<path style=" stroke:none;fill-rule:evenodd;fill:rgb(0%,33.72549%,13.72549%);fill-opacity:1;" d="M 457.113281 206.277344 L 437.320312 191.957031 L 417.621094 206.472656 L 425.121094 183.214844 L 405.230469 168.96875 L 429.664062 168.910156 L 437.074219 145.597656 L 444.671875 168.816406 L 469.136719 168.652344 L 449.402344 183.058594 Z M 457.113281 206.277344 "/>
<path style=" stroke:none;fill-rule:evenodd;fill:rgb(0%,33.72549%,13.72549%);fill-opacity:1;" d="M 181.164062 158.597656 C 181.367188 181.414062 181.164062 196.085938 181.164062 200.769531 C 178.71875 203.625 176.273438 206.679688 174.4375 209.125 C 173.625 208.511719 173.421875 208.511719 173.421875 207.289062 C 173.421875 206.066406 173.214844 176.117188 173.421875 165.117188 C 177.085938 163.28125 179.53125 158.1875 181.164062 158.597656 Z M 172.808594 158.1875 C 174.644531 155.132812 176.679688 152.078125 178.105469 150.652344 C 179.53125 151.464844 179.328125 153.707031 179.53125 154.316406 C 178.105469 156.355469 174.644531 159.613281 173.625 160.632812 C 173.214844 160.023438 173.625 160.226562 172.808594 158.1875 Z M 182.996094 132.109375 C 170.566406 140.261719 156.507812 150.039062 151.414062 154.320312 C 146.320312 158.597656 144.488281 161.246094 144.488281 168.582031 C 144.488281 175.914062 144.691406 184.269531 144.082031 188.140625 C 143.46875 192.011719 141.636719 196.085938 137.152344 192.417969 C 132.671875 188.75 129.410156 185.082031 127.375 183.453125 C 125.335938 181.824219 121.667969 179.582031 116.777344 183.863281 C 111.890625 188.140625 89.070312 212.179688 84.792969 214.828125 C 80.511719 217.476562 79.699219 218.089844 76.640625 219.71875 C 82.957031 220.128906 90.089844 220.535156 95.792969 219.3125 C 103.332031 213.8125 112.09375 201.382812 114.945312 198.328125 C 117.796875 195.269531 120.648438 188.75 126.964844 195.882812 C 133.28125 203.011719 133.078125 203.214844 136.132812 205.457031 C 139.191406 207.699219 143.0625 207.289062 145.710938 202.808594 C 148.359375 198.328125 148.5625 196.289062 149.582031 188.953125 C 150.601562 181.621094 151.210938 172.453125 152.839844 168.375 C 154.472656 164.300781 157.730469 160.226562 163.230469 156.964844 C 168.734375 153.707031 169.753906 153.503906 170.972656 152.890625 C 173.417969 148.203125 179.328125 137.203125 181.773438 134.554688 C 182.792969 133.332031 182.996094 132.71875 182.996094 132.109375 Z M 127.78125 206.273438 C 124.726562 204.234375 123.707031 202.605469 122.078125 202.808594 C 120.449219 203.011719 116.984375 207.699219 114.945312 208.921875 C 117.59375 211.164062 120.039062 213.199219 122.078125 212.792969 C 124.113281 212.386719 125.539062 207.902344 127.78125 206.273438 Z M 127.78125 206.273438 "/>
<path style=" stroke:none;fill-rule:evenodd;fill:rgb(0%,33.72549%,13.72549%);fill-opacity:1;" d="M 385.921875 149.023438 C 381.644531 150.042969 379.402344 155.75 375.734375 159.621094 C 375.328125 171.03125 375.328125 206.480469 375.328125 211.167969 C 378.996094 206.886719 381.234375 204.441406 383.886719 202.8125 C 384.496094 183.863281 386.738281 157.378906 385.921875 149.023438 Z M 365.75 148.820312 C 360.65625 152.082031 359.433594 155.339844 355.15625 159.007812 C 354.953125 172.660156 355.5625 192.015625 354.546875 194.664062 C 353.527344 197.3125 351.285156 202.8125 345.785156 202.203125 C 340.28125 201.589844 338.652344 200.570312 338.652344 194.867188 C 338.652344 189.164062 339.875 152.691406 339.875 146.785156 C 335.597656 148.820312 331.929688 155.136719 328.875 157.785156 C 328.875 172.046875 329.484375 190.179688 329.078125 194.054688 C 328.671875 197.921875 327.039062 204.238281 320.113281 204.035156 C 313.1875 203.832031 309.519531 200.367188 309.519531 196.292969 C 309.519531 192.21875 309.316406 165.53125 309.722656 160.84375 C 303.609375 165.121094 289.347656 173.679688 286.496094 184.679688 C 283.644531 195.683594 288.125 198.941406 292.199219 196.90625 C 296.273438 194.867188 298.109375 193.035156 300.351562 191.402344 C 300.960938 198.332031 301.164062 205.871094 308.09375 210.351562 C 315.019531 214.835938 323.78125 213.203125 327.039062 210.757812 C 330.300781 208.316406 331.523438 206.683594 332.339844 205.460938 C 338.449219 210.148438 347.414062 212.59375 353.324219 207.5 C 359.230469 202.40625 362.492188 197.3125 363.101562 191.609375 C 363.714844 185.902344 366.566406 156.5625 365.75 148.820312 Z M 301.777344 176.53125 C 295.664062 179.382812 293.015625 183.660156 294.644531 186.308594 C 296.273438 188.957031 299.535156 185.902344 301.777344 184.882812 C 301.367188 180.808594 301.777344 178.570312 301.777344 176.53125 Z M 341.097656 133.335938 C 339.671875 138.023438 338.652344 137.207031 336.820312 137.410156 C 334.984375 137.617188 333.765625 135.78125 332.335938 134.152344 C 330.910156 134.355469 330.707031 134.761719 329.6875 135.171875 C 332.949219 139.855469 335.394531 141.894531 339.265625 140.875 C 343.136719 139.855469 343.339844 136.394531 343.339844 134.558594 C 342.726562 134.152344 342.523438 133.949219 341.097656 133.335938 Z M 337.632812 127.429688 C 335.800781 128.039062 335.394531 128.445312 334.78125 130.078125 C 335.800781 132.316406 337.226562 133.539062 338.652344 132.929688 C 340.078125 132.316406 340.285156 129.875 339.46875 129.261719 C 338.652344 128.652344 339.0625 128.242188 337.632812 127.429688 Z M 337.632812 127.429688 "/>
<path style=" stroke:none;fill-rule:evenodd;fill:rgb(0%,33.72549%,13.72549%);fill-opacity:1;" d="M 58.601562 206.277344 L 38.808594 191.957031 L 19.109375 206.472656 L 26.605469 183.214844 L 6.71875 168.96875 L 31.152344 168.910156 L 38.5625 145.597656 L 46.160156 168.816406 L 70.625 168.652344 L 50.890625 183.058594 Z M 58.601562 206.277344 "/>
<path style=" stroke:none;fill-rule:evenodd;fill:rgb(0%,33.72549%,13.72549%);fill-opacity:1;" d="M 257.449219 206.277344 L 237.65625 191.957031 L 217.957031 206.472656 L 225.457031 183.214844 L 205.566406 168.96875 L 230 168.910156 L 237.410156 145.597656 L 245.007812 168.816406 L 269.472656 168.652344 L 249.738281 183.058594 Z M 257.449219 206.277344 "/>
</g>
</svg>
