<?xml version="1.0" encoding="UTF-8"?>
<svg xmlns="http://www.w3.org/2000/svg" xmlns:xlink="http://www.w3.org/1999/xlink" width="480pt" height="360pt" viewBox="0 0 480 360" version="1.1">
<g id="surface1">
<rect x="0" y="0" width="480" height="360" style="fill:rgb(100%,100%,100%);fill-opacity:1;stroke:none;"/>
<path style=" stroke:none;fill-rule:evenodd;fill:rgb(87.45098%,6.666667%,17.647059%);fill-opacity:1;" d="M -60 0 L -60 23.125 L 201.25 180 L -60 336.878906 L -60 360.003906 L -20.625 360.003906 L 240.003906 203.125 L 500.628906 360.003906 L 540.003906 360.003906 L 540.003906 336.878906 L 278.753906 180 L 540.003906 23.125 L 540.003906 0 L 500.628906 0 L 240.003906 156.875 L -20.625 0 Z M -60 0 "/>
<path style="fill-rule:nonzero;fill:rgb(90.980392%,6.666667%,17.647059%);fill-opacity:1;stroke-width:0.125;stroke-linecap:butt;stroke-linejoin:miter;stroke:rgb(0%,0%,0%);stroke-opacity:1;stroke-miterlimit:4;" d="M 132.660079 22.232608 C 135.816005 35.011391 134.084563 50.79262 119.831735 59.548956 C 105.57571 50.79262 103.844267 35.011391 107.001792 22.232608 C 110.362358 19.179001 125.633587 17.294079 132.660079 22.232608 Z M 132.660079 22.232608 " transform="matrix(2.44332,0,0,2.44332,-52.7404,-0.462)"/>
<path style="fill-rule:nonzero;fill:rgb(97.647059%,86.666667%,8.627451%);fill-opacity:1;stroke-width:0.125;stroke-linecap:butt;stroke-linejoin:miter;stroke:rgb(0%,0%,0%);stroke-opacity:1;stroke-miterlimit:4;" d="M 119.809353 19.666619 C 125.035656 19.666619 129.902241 21.049535 132.771992 22.843329 C 133.33475 18.437183 135.333184 14.031037 137.689737 10.700847 C 135.230864 10.649687 134.129328 11.955863 134.103748 13.314798 C 133.48823 11.572164 131.080517 11.674484 130.338699 12.622541 C 133.027791 14.441915 130.952618 17.668186 128.519325 17.003107 C 127.376221 16.689753 126.773494 15.893577 126.559262 14.736084 C 126.821456 14.718498 127.083651 14.622573 127.302679 14.443513 C 127.870234 13.983074 127.956566 13.150127 127.497726 12.584171 C 127.037287 12.016616 126.20434 11.930283 125.636785 12.389124 C 125.06923 12.849563 124.982897 13.68251 125.443336 14.250065 C 125.593619 14.43552 125.787067 14.568216 125.994904 14.648153 C 125.225907 15.903169 123.847787 16.280473 122.859762 16.00389 C 121.577567 15.645771 121.040388 14.493074 121.040388 13.468278 C 121.040388 10.803167 123.60158 10.393888 124.370577 10.854327 C 124.319417 9.062132 121.500827 7.628056 120.62951 9.113292 C 121.603147 7.370658 121.551987 4.911785 119.809353 3.27307 C 118.068317 4.911785 118.017157 7.370658 118.990794 9.113292 C 118.119477 7.628056 115.302485 9.062132 115.251326 10.854327 C 116.018724 10.393888 118.581515 10.803167 118.581515 13.468278 C 118.581515 14.493074 118.042737 15.645771 116.762141 16.00389 C 115.774116 16.280473 114.394397 15.903169 113.6254 14.648153 C 113.833237 14.568216 114.026686 14.43552 114.176968 14.250065 C 114.637407 13.68251 114.549476 12.849563 113.983519 12.389124 C 113.415964 11.930283 112.583017 12.016616 112.122578 12.584171 C 111.663738 13.150127 111.75007 13.983074 112.317625 14.443513 C 112.538252 14.622573 112.798848 14.718498 113.062641 14.736084 C 112.848409 15.893577 112.242484 16.689753 111.100979 17.003107 C 108.667686 17.668186 106.592513 14.441915 109.281605 12.622541 C 108.539787 11.674484 106.132074 11.572164 105.516556 13.314798 C 105.490976 11.955863 104.38944 10.649687 101.930567 10.700847 C 104.28712 14.031037 106.285554 18.437183 106.848312 22.843329 C 109.718063 21.049535 114.584648 19.666619 119.809353 19.666619 Z M 119.809353 19.666619 " transform="matrix(2.44332,0,0,2.44332,-52.7404,-0.462)"/>
<path style="fill-rule:nonzero;fill:rgb(97.647059%,86.666667%,8.627451%);fill-opacity:1;stroke-width:0.125;stroke-linecap:butt;stroke-linejoin:miter;stroke:rgb(0%,0%,0%);stroke-opacity:1;stroke-miterlimit:4;" d="M 130.650455 32.200794 C 130.335501 32.274336 130.335501 32.680418 130.169232 32.680418 C 130.989389 32.658035 131.387477 32.432612 131.635283 32.020136 C 131.454624 32.184806 131.611301 32.501358 131.552148 32.574901 C 132.153277 32.365465 132.439452 31.853866 132.228418 31.508537 C 132.364311 31.703584 132.754405 31.809101 132.874311 31.82349 C 132.453841 31.494148 132.754405 30.742737 132.078135 30.351044 C 132.303559 30.336655 132.740017 30.592455 132.859923 30.893019 C 132.754405 30.216749 132.648888 29.780291 132.092524 29.404586 C 132.153277 29.471733 132.46823 29.532486 132.604123 29.404586 C 132.244405 29.179162 132.137289 28.803457 132.169264 28.562046 C 132.210831 28.226309 131.988606 28.157563 131.566537 28.261482 C 131.187634 28.357407 130.319514 28.411764 129.809514 28.411764 C 128.757538 28.411764 127.839858 28.411764 126.968541 27.810635 C 128.276316 28.35261 129.943809 27.209506 129.943809 26.263048 C 129.943809 25.211073 128.650422 24.354145 126.036471 24.924897 C 123.420922 25.497249 120.234619 25.255838 120.234619 24.384521 C 120.234619 23.513204 122.519228 23.391699 123.692709 23.572357 C 124.86459 23.753016 125.705531 23.872922 127.90061 23.091135 C 127.358635 23.302169 125.614402 23.362922 124.233085 22.971229 C 122.850169 22.581134 119.452832 22.581134 119.422456 24.414897 C 119.393678 26.24866 123.04042 26.080791 126.186754 25.617155 C 128.020516 25.346966 128.981363 25.526026 128.981363 26.127155 C 128.981363 26.699506 127.299481 26.939318 126.006095 26.789036 C 124.714308 26.638754 123.390545 26.66913 121.857347 27.119977 C 120.57835 27.495682 119.694243 27.119977 118.280951 27.359789 C 117.596687 27.476497 115.935589 27.359789 115.117031 26.007249 C 114.613426 26.368566 113.094616 27.123174 112.840415 27.860196 C 112.479099 28.536466 112.720509 29.209539 113.200133 29.869821 C 113.806058 30.702768 112.899569 30.576467 112.253675 30.606843 C 111.36797 30.648411 110.181699 30.512517 109.562984 29.810667 C 109.014614 29.187156 108.285586 28.688347 107.702043 29.150385 C 107.401479 29.387 107.689253 29.700354 107.927467 29.612423 C 108.162482 29.526091 108.440664 29.700354 108.691667 29.810667 C 108.290382 29.638003 107.849128 29.772298 107.676463 29.925777 C 107.439849 30.138411 107.727623 30.544492 108.015398 30.400605 C 108.239222 30.287094 108.70126 30.213552 109.001824 30.488536 C 108.677279 30.424586 108.338344 30.438975 108.176871 30.613238 C 108.015398 30.787502 108.1401 31.040104 108.490225 31.025715 C 109.051386 31.000135 109.195273 31.393427 109.75963 31.313489 C 109.412702 31.358254 109.217655 31.538913 109.126527 31.673207 C 109.652514 31.433395 110.234458 32.082487 110.915524 31.929007 C 110.650132 32.03932 110.221668 32.299916 110.224866 32.501358 C 110.629349 32.034524 113.350416 32.861076 113.411168 31.839477 C 113.486309 32.048913 113.470322 32.365465 113.260886 32.635653 C 113.609413 32.424618 114.733332 32.351076 115.078661 31.538913 C 115.109037 31.778725 115.064272 32.095277 114.853238 32.170418 C 115.214554 32.287126 115.689382 32.018537 116.175401 31.297502 C 116.36885 31.012925 116.415213 30.822674 116.38164 30.606843 C 116.864461 30.626028 117.212988 30.504524 117.588693 30.186373 C 117.980386 29.855432 118.400857 30.456561 119.062738 30.036091 C 119.724619 29.614022 120.295372 29.975338 120.65509 29.764304 C 121.016406 29.554868 121.512018 29.839445 121.903711 29.599633 C 122.293805 29.359821 122.89973 29.71794 123.547223 29.206341 C 124.565624 29.578849 125.753493 30.271107 128.66641 29.735526 C 130.3371 29.428567 130.861489 29.989727 130.861489 30.757126 C 130.861489 31.283113 130.552931 31.329477 130.319514 31.343866 C 129.390642 31.399822 128.992554 30.995339 128.624842 31.124837 C 128.378635 31.212768 128.228353 31.612455 128.584874 31.749947 C 128.290704 31.90023 128.329074 32.181609 128.479356 32.285527 C 128.629639 32.387847 129.016535 32.293521 129.27873 32.172016 C 128.941394 32.325496 128.591269 32.600481 128.791112 32.888255 C 128.912617 33.062518 129.217977 33.209603 129.504153 32.838694 C 129.790329 32.462988 130.316317 32.149634 130.650455 32.200794 Z M 130.650455 32.200794 " transform="matrix(2.44332,0,0,2.44332,-52.7404,-0.462)"/>
<path style="fill-rule:nonzero;fill:rgb(97.647059%,86.666667%,8.627451%);fill-opacity:1;stroke-width:0.125;stroke-linecap:butt;stroke-linejoin:miter;stroke:rgb(0%,0%,0%);stroke-opacity:1;stroke-miterlimit:4;" d="M 112.140164 24.264615 C 111.297625 23.917687 111.014647 23.909693 111.208095 24.593957 C 111.29123 24.888126 111.492672 25.300603 111.695713 25.489255 C 111.703706 25.203079 111.809224 24.414897 112.140164 24.264615 Z M 112.140164 24.264615 " transform="matrix(2.44332,0,0,2.44332,-52.7404,-0.462)"/>
<path style="fill-rule:nonzero;fill:rgb(97.647059%,86.666667%,8.627451%);fill-opacity:1;stroke-width:0.125;stroke-linecap:butt;stroke-linejoin:miter;stroke:rgb(0%,0%,0%);stroke-opacity:1;stroke-miterlimit:4;" d="M 114.770103 24.264615 C 115.612642 23.917687 115.895621 23.909693 115.702172 24.593957 C 115.619037 24.888126 115.415996 25.300603 115.212956 25.489255 C 115.206561 25.203079 115.101043 24.414897 114.770103 24.264615 Z M 114.770103 24.264615 " transform="matrix(2.44332,0,0,2.44332,-52.7404,-0.462)"/>
<path style="fill-rule:nonzero;fill:rgb(97.647059%,86.666667%,8.627451%);fill-opacity:1;stroke-width:0.125;stroke-linecap:butt;stroke-linejoin:miter;stroke:rgb(0%,0%,0%);stroke-opacity:1;stroke-miterlimit:4;" d="M 113.460729 23.802577 C 115.053081 23.802577 115.251326 24.549192 115.243332 25.481261 C 115.236937 26.488472 114.69656 26.143142 114.388002 27.43493 C 114.268096 27.940134 113.865212 27.968911 113.460729 27.968911 C 113.054647 27.968911 112.651763 27.940134 112.530259 27.43493 C 112.223299 26.143142 111.681324 26.488472 111.674929 25.481261 C 111.666935 24.549192 111.866779 23.802577 113.460729 23.802577 Z M 113.460729 23.802577 " transform="matrix(2.44332,0,0,2.44332,-52.7404,-0.462)"/>
<path style="fill-rule:nonzero;fill:rgb(97.647059%,86.666667%,8.627451%);fill-opacity:1;stroke-width:0.125;stroke-linecap:butt;stroke-linejoin:miter;stroke:rgb(0%,0%,0%);stroke-opacity:1;stroke-miterlimit:4;" d="M 109.359944 27.495682 C 108.953862 27.254271 108.691667 27.420541 108.526997 27.465306 C 109.052984 27.601199 109.073768 28.275871 110.277624 28.592422 C 110.005837 28.517281 109.855555 28.667563 109.599756 28.53167 C 110.095367 28.923363 110.651731 29.375808 111.825211 29.388598 C 112.479099 29.396592 112.026653 29.733928 111.599788 29.53888 C 112.042641 29.997721 112.921951 29.622015 113.478315 30.456561 C 113.582234 29.809069 112.440729 28.78747 112.966716 28.050447 C 111.345587 27.981701 111.211292 27.083205 110.277624 26.368566 C 109.516621 25.786622 109.447875 25.195085 109.112138 24.088753 C 108.958658 23.586746 108.371918 23.274991 108.047373 23.393298 C 107.762796 23.497216 107.658877 23.743423 107.903485 23.927279 C 108.146495 24.111135 108.45825 24.136715 108.525398 24.603549 C 108.208846 24.224646 107.734018 24.087154 107.505397 24.323768 C 107.366306 24.469254 107.422263 24.80659 107.721228 24.836966 C 108.208846 24.886527 107.85872 25.361355 108.413486 25.82659 C 107.92267 25.275023 107.497404 25.223863 107.23361 25.524427 C 107.076933 25.703487 107.23361 26.024835 107.572545 25.989663 C 108.061761 25.940101 108.627718 27.180729 109.359944 27.495682 Z M 109.359944 27.495682 " transform="matrix(2.44332,0,0,2.44332,-52.7404,-0.462)"/>
<path style="fill-rule:nonzero;fill:rgb(97.647059%,86.666667%,8.627451%);fill-opacity:1;stroke-width:0.125;stroke-linecap:butt;stroke-linejoin:miter;stroke:rgb(0%,0%,0%);stroke-opacity:1;stroke-miterlimit:4;" d="M 122.429699 32.138443 C 122.173899 32.184806 122.250639 32.605277 121.903711 32.635653 C 122.730263 32.635653 123.150733 32.439007 123.542426 32.124054 C 123.361768 32.229571 123.286627 32.49976 123.272238 32.650042 C 123.708696 32.274336 124.744684 32.24396 125.286659 32.349477 C 125.827036 32.454995 125.916565 32.199195 126.111612 31.853866 C 126.308258 31.508537 126.036471 31.311891 125.766283 31.041702 C 125.496095 30.771514 125.435343 30.395809 125.496095 29.764304 C 124.052427 27.841011 121.467253 28.773081 121.438476 29.614022 C 122.370545 30.696373 122.490451 30.576467 123.272238 30.726749 C 124.052427 30.877032 124.532051 30.875433 124.007662 31.311891 C 123.828602 31.462173 123.075592 31.391828 122.490451 31.417408 C 121.179479 31.474963 120.57835 30.512517 120.191453 31.011326 C 119.873303 31.423803 120.202644 31.604461 120.851736 31.583678 C 120.402488 31.586875 119.804556 31.561295 119.906876 31.980167 C 120.079541 32.686813 120.754212 31.84907 121.016406 32.140042 C 120.792582 32.087283 120.442456 32.224775 120.429666 32.437408 C 120.416876 32.650042 120.928475 32.925026 121.491234 32.477377 C 121.799792 32.232769 122.193084 32.14164 122.429699 32.138443 Z M 122.429699 32.138443 " transform="matrix(2.44332,0,0,2.44332,-52.7404,-0.462)"/>
<path style="fill:none;stroke-width:0.125;stroke-linecap:butt;stroke-linejoin:miter;stroke:rgb(0%,0%,0%);stroke-opacity:1;stroke-miterlimit:4;" d="M 123.55042 29.206341 C 123.080389 29.033677 122.650326 28.929758 122.100357 29.043269 " transform="matrix(2.44332,0,0,2.44332,-52.7404,-0.462)"/>
<path style="fill:none;stroke-width:0.125;stroke-linecap:butt;stroke-linejoin:miter;stroke:rgb(0%,0%,0%);stroke-opacity:1;stroke-miterlimit:4;" d="M 116.480762 28.982517 C 116.093865 29.812266 116.327282 30.221545 116.384837 30.606843 " transform="matrix(2.44332,0,0,2.44332,-52.7404,-0.462)"/>
<path style="fill:none;stroke-width:0.125;stroke-linecap:butt;stroke-linejoin:miter;stroke:rgb(0%,0%,0%);stroke-opacity:1;stroke-miterlimit:4;" d="M 112.370384 25.052797 C 112.635776 25.183894 112.784459 24.809788 113.172955 25.207875 C 113.065839 25.091167 112.933143 25.516434 112.635776 25.235054 " transform="matrix(2.44332,0,0,2.44332,-52.7404,-0.462)"/>
<path style="fill:none;stroke-width:0.125;stroke-linecap:butt;stroke-linejoin:miter;stroke:rgb(0%,0%,0%);stroke-opacity:1;stroke-miterlimit:4;" d="M 114.530291 25.052797 C 114.264899 25.183894 114.116215 24.809788 113.72772 25.207875 C 113.833237 25.091167 113.967532 25.516434 114.264899 25.235054 " transform="matrix(2.44332,0,0,2.44332,-52.7404,-0.462)"/>
<path style="fill:none;stroke-width:0.125;stroke-linecap:butt;stroke-linejoin:miter;stroke:rgb(0%,0%,0%);stroke-opacity:1;stroke-miterlimit:4;" d="M 113.729319 25.206277 C 113.639789 25.281418 113.630196 25.147123 113.698942 25.502045 C 113.826842 26.152735 113.978723 26.458095 113.451137 26.458095 C 112.912359 26.458095 113.075431 26.152735 113.203331 25.502045 C 113.273676 25.147123 113.264083 25.281418 113.172955 25.206277 " transform="matrix(2.44332,0,0,2.44332,-52.7404,-0.462)"/>
<path style="fill-rule:nonzero;fill:rgb(100%,0%,8.627451%);fill-opacity:1;stroke-width:0.0625;stroke-linecap:butt;stroke-linejoin:miter;stroke:rgb(0%,0%,0%);stroke-opacity:1;stroke-miterlimit:4;" d="M 113.460729 27.706717 C 113.887595 27.706717 114.1354 27.698723 114.068253 27.097594 C 114.041074 26.856183 114.362422 26.760259 114.248911 26.368566 C 114.368817 26.849788 113.460729 26.803425 113.460729 26.585995 C 113.460729 26.803425 112.551042 26.849788 112.670948 26.368566 C 112.557437 26.760259 112.878785 26.856183 112.851607 27.097594 C 112.784459 27.698723 113.032265 27.706717 113.460729 27.706717 Z M 113.460729 27.706717 " transform="matrix(2.44332,0,0,2.44332,-52.7404,-0.462)"/>
<path style="fill-rule:nonzero;fill:rgb(0%,0%,0%);fill-opacity:1;stroke-width:0.0625;stroke-linecap:butt;stroke-linejoin:miter;stroke:rgb(0%,0%,0%);stroke-opacity:1;stroke-miterlimit:4;" d="M 113.070635 26.488472 L 112.042641 26.202296 " transform="matrix(2.44332,0,0,2.44332,-52.7404,-0.462)"/>
<path style="fill-rule:nonzero;fill:rgb(0%,0%,0%);fill-opacity:1;stroke-width:0.0625;stroke-linecap:butt;stroke-linejoin:miter;stroke:rgb(0%,0%,0%);stroke-opacity:1;stroke-miterlimit:4;" d="M 113.070635 26.542829 L 111.922735 26.533237 " transform="matrix(2.44332,0,0,2.44332,-52.7404,-0.462)"/>
<path style="fill-rule:nonzero;fill:rgb(0%,0%,0%);fill-opacity:1;stroke-width:0.0625;stroke-linecap:butt;stroke-linejoin:miter;stroke:rgb(0%,0%,0%);stroke-opacity:1;stroke-miterlimit:4;" d="M 113.080227 26.601983 L 112.101794 26.864177 " transform="matrix(2.44332,0,0,2.44332,-52.7404,-0.462)"/>
<path style="fill-rule:nonzero;fill:rgb(0%,0%,0%);fill-opacity:1;stroke-width:0.0625;stroke-linecap:butt;stroke-linejoin:miter;stroke:rgb(0%,0%,0%);stroke-opacity:1;stroke-miterlimit:4;" d="M 113.839632 26.488472 L 114.867626 26.202296 " transform="matrix(2.44332,0,0,2.44332,-52.7404,-0.462)"/>
<path style="fill-rule:nonzero;fill:rgb(0%,0%,0%);fill-opacity:1;stroke-width:0.0625;stroke-linecap:butt;stroke-linejoin:miter;stroke:rgb(0%,0%,0%);stroke-opacity:1;stroke-miterlimit:4;" d="M 113.839632 26.542829 L 114.987532 26.533237 " transform="matrix(2.44332,0,0,2.44332,-52.7404,-0.462)"/>
<path style="fill-rule:nonzero;fill:rgb(0%,0%,0%);fill-opacity:1;stroke-width:0.0625;stroke-linecap:butt;stroke-linejoin:miter;stroke:rgb(0%,0%,0%);stroke-opacity:1;stroke-miterlimit:4;" d="M 113.83004 26.601983 L 114.808473 26.864177 " transform="matrix(2.44332,0,0,2.44332,-52.7404,-0.462)"/>
<path style="fill-rule:nonzero;fill:rgb(0%,31.764706%,72.941176%);fill-opacity:1;stroke-width:0.013;stroke-linecap:butt;stroke-linejoin:miter;stroke:rgb(0%,0%,0%);stroke-opacity:1;stroke-miterlimit:4;" d="M 108.130507 23.414082 C 107.831542 23.041574 107.081729 23.356527 107.067341 23.818564 C 107.319943 23.518 107.732419 23.949662 107.957843 23.858533 C 108.11452 23.796182 108.250413 23.565963 108.130507 23.414082 Z M 108.130507 23.414082 " transform="matrix(2.44332,0,0,2.44332,-52.7404,-0.462)"/>
<path style="fill-rule:nonzero;fill:rgb(0%,31.764706%,72.941176%);fill-opacity:1;stroke-width:0.013;stroke-linecap:butt;stroke-linejoin:miter;stroke:rgb(0%,0%,0%);stroke-opacity:1;stroke-miterlimit:4;" d="M 107.750006 24.294991 C 107.45104 23.922483 106.702826 24.237436 106.688438 24.699474 C 106.939441 24.39891 107.353516 24.830571 107.57894 24.739443 C 107.735617 24.677092 107.87151 24.446872 107.750006 24.294991 Z M 107.750006 24.294991 " transform="matrix(2.44332,0,0,2.44332,-52.7404,-0.462)"/>
<path style="fill-rule:nonzero;fill:rgb(0%,31.764706%,72.941176%);fill-opacity:1;stroke-width:0.013;stroke-linecap:butt;stroke-linejoin:miter;stroke:rgb(0%,0%,0%);stroke-opacity:1;stroke-miterlimit:4;" d="M 107.550162 25.479662 C 107.211228 25.142327 106.502983 25.538816 106.539754 25.999255 C 106.758783 25.67471 107.216024 26.05681 107.430256 25.940101 C 107.577341 25.860164 107.687655 25.615556 107.550162 25.479662 Z M 107.550162 25.479662 " transform="matrix(2.44332,0,0,2.44332,-52.7404,-0.462)"/>
<path style="fill-rule:nonzero;fill:rgb(0%,31.764706%,72.941176%);fill-opacity:1;stroke-width:0.013;stroke-linecap:butt;stroke-linejoin:miter;stroke:rgb(0%,0%,0%);stroke-opacity:1;stroke-miterlimit:4;" d="M 107.90988 29.148786 C 107.534175 28.853018 106.87709 29.327846 106.96662 29.78189 C 107.145679 29.433363 107.644488 29.759508 107.842733 29.620417 C 107.980225 29.524492 108.06336 29.268692 107.90988 29.148786 Z M 107.90988 29.148786 " transform="matrix(2.44332,0,0,2.44332,-52.7404,-0.462)"/>
<path style="fill-rule:nonzero;fill:rgb(0%,31.764706%,72.941176%);fill-opacity:1;stroke-width:0.013;stroke-linecap:butt;stroke-linejoin:miter;stroke:rgb(0%,0%,0%);stroke-opacity:1;stroke-miterlimit:4;" d="M 107.890695 29.951357 C 107.441447 29.785088 106.961823 30.440574 107.187247 30.845057 C 107.249598 30.45816 107.825147 30.614837 107.972231 30.421389 C 108.074551 30.287094 108.071354 30.018505 107.890695 29.951357 Z M 107.890695 29.951357 " transform="matrix(2.44332,0,0,2.44332,-52.7404,-0.462)"/>
<path style="fill-rule:nonzero;fill:rgb(0%,31.764706%,72.941176%);fill-opacity:1;stroke-width:0.013;stroke-linecap:butt;stroke-linejoin:miter;stroke:rgb(0%,0%,0%);stroke-opacity:1;stroke-miterlimit:4;" d="M 108.459849 30.550887 C 108.0122 30.386216 107.532576 31.040104 107.756401 31.444587 C 107.818752 31.05769 108.394301 31.214367 108.541385 31.020919 C 108.643705 30.886624 108.642106 30.618035 108.459849 30.550887 Z M 108.459849 30.550887 " transform="matrix(2.44332,0,0,2.44332,-52.7404,-0.462)"/>
<path style="fill-rule:nonzero;fill:rgb(0%,31.764706%,72.941176%);fill-opacity:1;stroke-width:0.013;stroke-linecap:butt;stroke-linejoin:miter;stroke:rgb(0%,0%,0%);stroke-opacity:1;stroke-miterlimit:4;" d="M 120.199447 31.714775 C 119.751798 31.548505 119.272174 32.203991 119.497597 32.606876 C 119.559948 32.219979 120.135497 32.378255 120.282582 32.183208 C 120.383303 32.048913 120.381704 31.781922 120.199447 31.714775 Z M 120.199447 31.714775 " transform="matrix(2.44332,0,0,2.44332,-52.7404,-0.462)"/>
<path style="fill-rule:nonzero;fill:rgb(0%,31.764706%,72.941176%);fill-opacity:1;stroke-width:0.013;stroke-linecap:butt;stroke-linejoin:miter;stroke:rgb(0%,0%,0%);stroke-opacity:1;stroke-miterlimit:4;" d="M 120.810168 32.258349 C 120.346532 32.144838 119.943647 32.849885 120.212237 33.225591 C 120.231422 32.833898 120.821359 32.925026 120.944463 32.71559 C 121.030795 32.570104 120.99882 32.304712 120.810168 32.258349 Z M 120.810168 32.258349 " transform="matrix(2.44332,0,0,2.44332,-52.7404,-0.462)"/>
<path style="fill-rule:nonzero;fill:rgb(0%,31.764706%,72.941176%);fill-opacity:1;stroke-width:0.013;stroke-linecap:butt;stroke-linejoin:miter;stroke:rgb(0%,0%,0%);stroke-opacity:1;stroke-miterlimit:4;" d="M 120.380105 30.94258 C 119.96603 30.702768 119.382487 31.267126 119.534368 31.701985 C 119.662268 31.332674 120.202644 31.585276 120.381704 31.419007 C 120.503209 31.303897 120.547974 31.038505 120.380105 30.94258 Z M 120.380105 30.94258 " transform="matrix(2.44332,0,0,2.44332,-52.7404,-0.462)"/>
<path style="fill-rule:nonzero;fill:rgb(0%,31.764706%,72.941176%);fill-opacity:1;stroke-width:0.013;stroke-linecap:butt;stroke-linejoin:miter;stroke:rgb(0%,0%,0%);stroke-opacity:1;stroke-miterlimit:4;" d="M 128.73036 31.882643 C 128.266723 31.769132 127.863839 32.47418 128.132428 32.849885 C 128.151613 32.459791 128.741551 32.549321 128.864654 32.339885 C 128.950987 32.195998 128.919012 31.929007 128.73036 31.882643 Z M 128.73036 31.882643 " transform="matrix(2.44332,0,0,2.44332,-52.7404,-0.462)"/>
<path style="fill-rule:nonzero;fill:rgb(0%,31.764706%,72.941176%);fill-opacity:1;stroke-width:0.013;stroke-linecap:butt;stroke-linejoin:miter;stroke:rgb(0%,0%,0%);stroke-opacity:1;stroke-miterlimit:4;" d="M 128.749545 31.145621 C 128.329074 30.921796 127.764717 31.505339 127.932585 31.935402 C 128.047695 31.561295 128.596065 31.794712 128.76873 31.622048 C 128.887037 31.50374 128.922209 31.23675 128.749545 31.145621 Z M 128.749545 31.145621 " transform="matrix(2.44332,0,0,2.44332,-52.7404,-0.462)"/>
<path style="fill-rule:nonzero;fill:rgb(0%,31.764706%,72.941176%);fill-opacity:1;stroke-width:0.013;stroke-linecap:butt;stroke-linejoin:miter;stroke:rgb(0%,0%,0%);stroke-opacity:1;stroke-miterlimit:4;" d="M 129.069294 32.541327 C 128.60246 32.4486 128.231551 33.171233 128.516128 33.534149 C 128.517726 33.142456 129.110861 33.208004 129.224372 32.993772 C 129.30431 32.845089 129.261144 32.579697 129.069294 32.541327 Z M 129.069294 32.541327 " transform="matrix(2.44332,0,0,2.44332,-52.7404,-0.462)"/>
<path style="fill-rule:nonzero;fill:rgb(0%,31.764706%,72.941176%);fill-opacity:1;stroke-width:0.013;stroke-linecap:butt;stroke-linejoin:miter;stroke:rgb(0%,0%,0%);stroke-opacity:1;stroke-miterlimit:4;" d="M 113.489507 27.3454 C 113.783676 27.3454 113.903582 27.430133 113.903582 27.962516 C 113.903582 29.086435 113.890792 29.570855 113.527877 29.570855 C 113.164961 29.570855 113.190541 29.110416 113.190541 28.285463 C 113.190541 27.853801 113.190541 27.637971 113.10261 27.674742 C 113.10261 27.393362 113.227312 27.3454 113.489507 27.3454 Z M 113.489507 27.3454 " transform="matrix(2.44332,0,0,2.44332,-52.7404,-0.462)"/>
<path style="fill-rule:nonzero;fill:rgb(97.647059%,86.666667%,8.627451%);fill-opacity:1;stroke-width:0.125;stroke-linecap:butt;stroke-linejoin:miter;stroke:rgb(0%,0%,0%);stroke-opacity:1;stroke-miterlimit:4;" d="M 130.649338 32.200643 C 130.334917 32.275252 130.334917 32.680267 130.169714 32.680267 C 130.988627 32.658951 131.386537 32.43335 131.635231 32.019452 C 131.455816 32.184656 131.612138 32.500853 131.551741 32.575461 C 132.15216 32.365847 132.438158 31.854248 132.228544 31.507853 C 132.363549 31.703256 132.754354 31.809839 132.875148 31.82405 C 132.454145 31.493642 132.754354 30.742231 132.077551 30.351426 C 132.303152 30.335439 132.740143 30.591238 132.859161 30.893224 C 132.754354 30.216421 132.649547 29.77943 132.093539 29.404613 C 132.15216 29.472116 132.468356 29.532513 132.603361 29.404613 C 132.244532 29.179012 132.137948 28.802418 132.168147 28.562606 C 132.21078 28.226869 131.988732 28.15759 131.567729 28.262397 C 131.187582 28.356546 130.320706 28.411614 129.809107 28.411614 C 128.757487 28.411614 127.840872 28.411614 126.968667 27.811195 C 128.276087 28.352993 129.944113 27.210777 129.944113 26.263964 C 129.944113 25.210567 128.650904 24.354349 126.036065 24.924569 C 123.421226 25.496565 120.23439 25.256753 120.23439 24.384548 C 120.23439 23.512343 122.518822 23.391549 123.691236 23.57274 C 124.863651 23.752155 125.705657 23.872949 127.899493 23.09134 C 127.359472 23.302729 125.615062 23.36135 124.233034 22.972322 C 122.84923 22.581517 119.452781 22.581517 119.422582 24.414747 C 119.392384 26.247976 123.039303 26.080996 126.187058 25.617359 C 128.020287 25.345572 128.981312 25.526764 128.981312 26.127182 C 128.981312 26.699178 127.299075 26.93899 126.005866 26.789774 C 124.714434 26.638781 123.391027 26.66898 121.858007 27.120181 C 120.577233 27.496775 119.694369 27.120181 118.280367 27.359993 C 117.596458 27.477235 115.935538 27.359993 115.116624 26.008164 C 114.612131 26.36877 113.095098 27.123734 112.839298 27.859158 C 112.478692 28.535961 112.720281 29.209211 113.199905 29.870026 C 113.805652 30.703151 112.899695 30.577027 112.254868 30.607226 C 111.368451 30.648083 110.181826 30.513077 109.563644 29.809629 C 109.014741 29.187894 108.284646 28.68873 107.701992 29.15059 C 107.401783 29.386849 107.689557 29.699493 107.927593 29.61245 C 108.162076 29.527184 108.439192 29.699493 108.691439 29.809629 C 108.289976 29.637319 107.849432 29.772325 107.677123 29.925094 C 107.440863 30.13826 107.728638 30.543276 108.014636 30.401165 C 108.240237 30.287476 108.702097 30.212868 109.002306 30.488208 C 108.677228 30.426034 108.339714 30.438469 108.176287 30.612555 C 108.014636 30.786641 108.140759 31.040664 108.490707 31.024676 C 109.052045 30.999807 109.195932 31.394164 109.759046 31.312451 C 109.412651 31.358637 109.217249 31.538052 109.126653 31.673057 C 109.652463 31.433245 110.233341 32.081626 110.915473 31.928856 C 110.650792 32.038992 110.220906 32.300121 110.224459 32.500853 C 110.629475 32.03544 113.350897 32.861459 113.411294 31.840037 C 113.485903 32.049651 113.471692 32.365847 113.260302 32.635858 C 113.608473 32.426244 114.734701 32.34986 115.07932 31.538052 C 115.109519 31.77964 115.063333 32.09406 114.853719 32.170445 C 115.214326 32.287686 115.690397 32.019452 116.17535 31.29824 C 116.368976 31.012242 116.415162 30.822168 116.381411 30.607226 C 116.864587 30.62499 117.212759 30.504195 117.589353 30.186222 C 117.980157 29.855815 118.401161 30.456233 119.061976 30.03523 C 119.724568 29.614226 120.294788 29.974833 120.655394 29.765219 C 121.016 29.553829 121.511611 29.839827 121.902416 29.600015 C 122.293221 29.358427 122.900745 29.717257 123.547349 29.205658 C 124.565218 29.578699 125.75362 30.269713 128.666892 29.735021 C 130.336694 29.427706 130.860727 29.99082 130.860727 30.756442 C 130.860727 31.282252 130.553413 31.328438 130.320706 31.342649 C 129.391657 31.40127 128.99197 30.996254 128.624258 31.12593 C 128.379117 31.212973 128.228124 31.61266 128.585178 31.751218 C 128.290298 31.900434 128.329378 32.181103 128.478595 32.284134 C 128.629587 32.387164 129.016839 32.294792 129.279744 32.172221 C 128.940455 32.32499 128.590507 32.60033 128.791239 32.888105 C 128.912033 33.06219 129.217571 33.20963 129.503569 32.838366 C 129.791343 32.463548 130.315377 32.150905 130.649338 32.200643 Z M 130.649338 32.200643 " transform="matrix(2.198988,0,0,2.198988,-24.397888,33.011484)"/>
<path style="fill-rule:nonzero;fill:rgb(97.647059%,86.666667%,8.627451%);fill-opacity:1;stroke-width:0.125;stroke-linecap:butt;stroke-linejoin:miter;stroke:rgb(0%,0%,0%);stroke-opacity:1;stroke-miterlimit:4;" d="M 112.139403 24.263754 C 111.297396 23.919135 111.013174 23.908477 111.208577 24.594161 C 111.29029 24.887265 111.492798 25.301163 111.695306 25.48946 C 111.704188 25.203462 111.808995 24.414747 112.139403 24.263754 Z M 112.139403 24.263754 " transform="matrix(2.198988,0,0,2.198988,-24.397888,33.011484)"/>
<path style="fill-rule:nonzero;fill:rgb(97.647059%,86.666667%,8.627451%);fill-opacity:1;stroke-width:0.125;stroke-linecap:butt;stroke-linejoin:miter;stroke:rgb(0%,0%,0%);stroke-opacity:1;stroke-miterlimit:4;" d="M 114.770229 24.263754 C 115.612236 23.919135 115.896457 23.908477 115.702831 24.594161 C 115.619341 24.887265 115.416833 25.301163 115.212549 25.48946 C 115.205444 25.203462 115.100637 24.414747 114.770229 24.263754 Z M 114.770229 24.263754 " transform="matrix(2.198988,0,0,2.198988,-24.397888,33.011484)"/>
<path style="fill-rule:nonzero;fill:rgb(97.647059%,86.666667%,8.627451%);fill-opacity:1;stroke-width:0.125;stroke-linecap:butt;stroke-linejoin:miter;stroke:rgb(0%,0%,0%);stroke-opacity:1;stroke-miterlimit:4;" d="M 113.459257 23.801894 C 115.052674 23.801894 115.25163 24.549752 115.244524 25.482354 C 115.237419 26.487788 114.695621 26.143169 114.388306 27.434602 C 114.267512 27.940871 113.864273 27.969294 113.459257 27.969294 C 113.054241 27.969294 112.652778 27.940871 112.530207 27.434602 C 112.224669 26.143169 111.682872 26.487788 111.675766 25.482354 C 111.666884 24.549752 111.865839 23.801894 113.459257 23.801894 Z M 113.459257 23.801894 " transform="matrix(2.198988,0,0,2.198988,-24.397888,33.011484)"/>
<path style="fill-rule:nonzero;fill:rgb(97.647059%,86.666667%,8.627451%);fill-opacity:1;stroke-width:0.125;stroke-linecap:butt;stroke-linejoin:miter;stroke:rgb(0%,0%,0%);stroke-opacity:1;stroke-miterlimit:4;" d="M 109.35936 27.494999 C 108.954344 27.255187 108.691439 27.420391 108.526235 27.466577 C 109.053821 27.601582 109.073361 28.276608 110.277751 28.592805 C 110.005964 28.51642 109.856747 28.667413 109.599172 28.532408 C 110.096559 28.923213 110.652568 29.376191 111.824982 29.388625 C 112.478692 29.395731 112.02749 29.735021 111.599381 29.539618 C 112.043478 29.997926 112.922788 29.621332 113.478797 30.456233 C 113.583604 29.809629 112.441388 28.788207 112.967198 28.051007 C 111.345358 27.981728 111.212129 27.082877 110.277751 26.366994 C 109.515681 25.786116 109.448179 25.19458 109.112442 24.087892 C 108.959673 23.586951 108.371689 23.274307 108.046611 23.393325 C 107.762389 23.496355 107.659359 23.743273 107.902724 23.928017 C 108.147865 24.112761 108.458732 24.13763 108.526235 24.60482 C 108.208262 24.224673 107.733967 24.086115 107.50659 24.324151 C 107.366255 24.469815 107.4231 24.805551 107.721532 24.837526 C 108.208262 24.887265 107.858314 25.36156 108.412546 25.826973 C 107.922264 25.274517 107.497708 25.224778 107.234803 25.524987 C 107.076704 25.704402 107.234803 26.024152 107.572316 25.9904 C 108.060822 25.940662 108.627489 27.180579 109.35936 27.494999 Z M 109.35936 27.494999 " transform="matrix(2.198988,0,0,2.198988,-24.397888,33.011484)"/>
<path style="fill-rule:nonzero;fill:rgb(97.647059%,86.666667%,8.627451%);fill-opacity:1;stroke-width:0.125;stroke-linecap:butt;stroke-linejoin:miter;stroke:rgb(0%,0%,0%);stroke-opacity:1;stroke-miterlimit:4;" d="M 122.430003 32.13847 C 122.174203 32.184656 122.250588 32.605659 121.904193 32.635858 C 122.730212 32.635858 123.151215 32.440455 123.54202 32.124259 C 123.362605 32.229066 123.28622 32.499076 123.272009 32.650069 C 123.707224 32.273475 124.744633 32.245053 125.28643 32.34986 C 125.826451 32.454667 125.917047 32.198867 126.112449 31.854248 C 126.307852 31.507853 126.037841 31.312451 125.767831 31.04244 C 125.496044 30.770653 125.435647 30.395836 125.496044 29.763443 C 124.053619 27.839617 121.467202 28.77222 121.43878 29.614226 C 122.369606 30.696045 122.4904 30.575251 123.272009 30.726244 C 124.053619 30.877236 124.531467 30.87546 124.007433 31.312451 C 123.828018 31.463444 123.076607 31.392388 122.4904 31.417258 C 121.179427 31.474102 120.579009 30.511301 120.191757 31.012242 C 119.873784 31.422587 120.202415 31.605554 120.852573 31.582461 C 120.401371 31.586014 119.804505 31.561145 119.907536 31.980372 C 120.079845 32.687373 120.754871 31.848919 121.017776 32.140246 C 120.792175 32.086955 120.442228 32.223736 120.429793 32.436903 C 120.417358 32.650069 120.928957 32.925409 121.492071 32.47776 C 121.799386 32.232618 122.193743 32.140246 122.430003 32.13847 Z M 122.430003 32.13847 " transform="matrix(2.198988,0,0,2.198988,-24.397888,33.011484)"/>
<path style="fill:none;stroke-width:0.125;stroke-linecap:butt;stroke-linejoin:miter;stroke:rgb(0%,0%,0%);stroke-opacity:1;stroke-miterlimit:4;" d="M 123.549125 29.205658 C 123.08016 29.035125 122.650274 28.930318 122.101371 29.04223 " transform="matrix(2.198988,0,0,2.198988,-24.397888,33.011484)"/>
<path style="fill:none;stroke-width:0.125;stroke-linecap:butt;stroke-linejoin:miter;stroke:rgb(0%,0%,0%);stroke-opacity:1;stroke-miterlimit:4;" d="M 116.479112 28.98361 C 116.093636 29.813182 116.328119 30.22175 116.384963 30.607226 " transform="matrix(2.198988,0,0,2.198988,-24.397888,33.011484)"/>
<path style="fill:none;stroke-width:0.125;stroke-linecap:butt;stroke-linejoin:miter;stroke:rgb(0%,0%,0%);stroke-opacity:1;stroke-miterlimit:4;" d="M 112.370333 25.052469 C 112.635014 25.183921 112.78423 24.810881 113.173259 25.207014 C 113.066676 25.091549 112.933447 25.516105 112.635014 25.23366 " transform="matrix(2.198988,0,0,2.198988,-24.397888,33.011484)"/>
<path style="fill:none;stroke-width:0.125;stroke-linecap:butt;stroke-linejoin:miter;stroke:rgb(0%,0%,0%);stroke-opacity:1;stroke-miterlimit:4;" d="M 114.530417 25.052469 C 114.265736 25.183921 114.116519 24.810881 113.727491 25.207014 C 113.834074 25.091549 113.967303 25.516105 114.265736 25.23366 " transform="matrix(2.198988,0,0,2.198988,-24.397888,33.011484)"/>
<path style="fill:none;stroke-width:0.125;stroke-linecap:butt;stroke-linejoin:miter;stroke:rgb(0%,0%,0%);stroke-opacity:1;stroke-miterlimit:4;" d="M 113.729267 25.207014 C 113.638672 25.281623 113.62979 25.146617 113.699069 25.501894 C 113.826969 26.153828 113.977961 26.45759 113.450375 26.45759 C 112.91213 26.45759 113.075558 26.153828 113.203457 25.501894 C 113.272736 25.146617 113.263854 25.281623 113.173259 25.207014 " transform="matrix(2.198988,0,0,2.198988,-24.397888,33.011484)"/>
<path style="fill-rule:nonzero;fill:rgb(100%,0%,8.627451%);fill-opacity:1;stroke-width:0.0625;stroke-linecap:butt;stroke-linejoin:miter;stroke:rgb(0%,0%,0%);stroke-opacity:1;stroke-miterlimit:4;" d="M 113.459257 27.706389 C 113.887366 27.706389 114.13606 27.699283 114.068557 27.097088 C 114.040135 26.8555 114.361661 26.759575 114.249748 26.36877 C 114.368766 26.848394 113.459257 26.803985 113.459257 26.585489 C 113.459257 26.803985 112.551524 26.848394 112.670542 26.36877 C 112.558629 26.759575 112.878379 26.8555 112.851733 27.097088 C 112.78423 27.699283 113.031148 27.706389 113.459257 27.706389 Z M 113.459257 27.706389 " transform="matrix(2.198988,0,0,2.198988,-24.397888,33.011484)"/>
<path style="fill-rule:nonzero;fill:rgb(0%,0%,0%);fill-opacity:1;stroke-width:0.0625;stroke-linecap:butt;stroke-linejoin:miter;stroke:rgb(0%,0%,0%);stroke-opacity:1;stroke-miterlimit:4;" d="M 113.070228 26.489565 L 112.041701 26.20179 " transform="matrix(2.198988,0,0,2.198988,-24.397888,33.011484)"/>
<path style="fill-rule:nonzero;fill:rgb(0%,0%,0%);fill-opacity:1;stroke-width:0.0625;stroke-linecap:butt;stroke-linejoin:miter;stroke:rgb(0%,0%,0%);stroke-opacity:1;stroke-miterlimit:4;" d="M 113.070228 26.542856 L 111.922684 26.533974 " transform="matrix(2.198988,0,0,2.198988,-24.397888,33.011484)"/>
<path style="fill-rule:nonzero;fill:rgb(0%,0%,0%);fill-opacity:1;stroke-width:0.0625;stroke-linecap:butt;stroke-linejoin:miter;stroke:rgb(0%,0%,0%);stroke-opacity:1;stroke-miterlimit:4;" d="M 113.080887 26.601477 L 112.100322 26.864382 " transform="matrix(2.198988,0,0,2.198988,-24.397888,33.011484)"/>
<path style="fill-rule:nonzero;fill:rgb(0%,0%,0%);fill-opacity:1;stroke-width:0.0625;stroke-linecap:butt;stroke-linejoin:miter;stroke:rgb(0%,0%,0%);stroke-opacity:1;stroke-miterlimit:4;" d="M 113.839403 26.489565 L 114.86793 26.20179 " transform="matrix(2.198988,0,0,2.198988,-24.397888,33.011484)"/>
<path style="fill-rule:nonzero;fill:rgb(0%,0%,0%);fill-opacity:1;stroke-width:0.0625;stroke-linecap:butt;stroke-linejoin:miter;stroke:rgb(0%,0%,0%);stroke-opacity:1;stroke-miterlimit:4;" d="M 113.839403 26.542856 L 114.988725 26.533974 " transform="matrix(2.198988,0,0,2.198988,-24.397888,33.011484)"/>
<path style="fill-rule:nonzero;fill:rgb(0%,0%,0%);fill-opacity:1;stroke-width:0.0625;stroke-linecap:butt;stroke-linejoin:miter;stroke:rgb(0%,0%,0%);stroke-opacity:1;stroke-miterlimit:4;" d="M 113.830521 26.601477 L 114.80931 26.864382 " transform="matrix(2.198988,0,0,2.198988,-24.397888,33.011484)"/>
<path style="fill-rule:nonzero;fill:rgb(0%,31.764706%,72.941176%);fill-opacity:1;stroke-width:0.013;stroke-linecap:butt;stroke-linejoin:miter;stroke:rgb(0%,0%,0%);stroke-opacity:1;stroke-miterlimit:4;" d="M 108.130101 23.414642 C 107.831668 23.041601 107.082034 23.356021 107.067822 23.817881 C 107.320069 23.519448 107.732191 23.949334 107.957791 23.858738 C 108.114113 23.796564 108.250895 23.565634 108.130101 23.414642 Z M 108.130101 23.414642 " transform="matrix(2.198988,0,0,2.198988,-24.397888,33.011484)"/>
<path style="fill-rule:nonzero;fill:rgb(0%,31.764706%,72.941176%);fill-opacity:1;stroke-width:0.013;stroke-linecap:butt;stroke-linejoin:miter;stroke:rgb(0%,0%,0%);stroke-opacity:1;stroke-miterlimit:4;" d="M 107.749954 24.295729 C 107.451522 23.922688 106.703663 24.237108 106.687676 24.698968 C 106.939923 24.398759 107.35382 24.830421 107.579421 24.739825 C 107.735743 24.677652 107.872525 24.446722 107.749954 24.295729 Z M 107.749954 24.295729 " transform="matrix(2.198988,0,0,2.198988,-24.397888,33.011484)"/>
<path style="fill-rule:nonzero;fill:rgb(0%,31.764706%,72.941176%);fill-opacity:1;stroke-width:0.013;stroke-linecap:butt;stroke-linejoin:miter;stroke:rgb(0%,0%,0%);stroke-opacity:1;stroke-miterlimit:4;" d="M 107.549223 25.478801 C 107.21171 25.143065 106.502932 25.539198 106.540236 25.999282 C 106.758731 25.674204 107.215262 26.056127 107.430205 25.940662 C 107.577645 25.860724 107.687781 25.615583 107.549223 25.478801 Z M 107.549223 25.478801 " transform="matrix(2.198988,0,0,2.198988,-24.397888,33.011484)"/>
<path style="fill-rule:nonzero;fill:rgb(0%,31.764706%,72.941176%);fill-opacity:1;stroke-width:0.013;stroke-linecap:butt;stroke-linejoin:miter;stroke:rgb(0%,0%,0%);stroke-opacity:1;stroke-miterlimit:4;" d="M 107.909829 29.148813 C 107.533235 28.852157 106.877749 29.328228 106.966568 29.781207 C 107.144207 29.433035 107.643371 29.75989 107.842326 29.621332 C 107.980885 29.523631 108.062598 29.267831 107.909829 29.148813 Z M 107.909829 29.148813 " transform="matrix(2.198988,0,0,2.198988,-24.397888,33.011484)"/>
<path style="fill-rule:nonzero;fill:rgb(0%,31.764706%,72.941176%);fill-opacity:1;stroke-width:0.013;stroke-linecap:butt;stroke-linejoin:miter;stroke:rgb(0%,0%,0%);stroke-opacity:1;stroke-miterlimit:4;" d="M 107.890289 29.95174 C 107.44264 29.786536 106.961239 30.440246 107.18684 30.843485 C 107.249014 30.458009 107.824563 30.614331 107.972003 30.420705 C 108.073257 30.287476 108.07148 30.017466 107.890289 29.95174 Z M 107.890289 29.95174 " transform="matrix(2.198988,0,0,2.198988,-24.397888,33.011484)"/>
<path style="fill-rule:nonzero;fill:rgb(0%,31.764706%,72.941176%);fill-opacity:1;stroke-width:0.013;stroke-linecap:butt;stroke-linejoin:miter;stroke:rgb(0%,0%,0%);stroke-opacity:1;stroke-miterlimit:4;" d="M 108.460509 30.550381 C 108.012859 30.385178 107.531459 31.040664 107.755284 31.443903 C 107.819233 31.056651 108.394782 31.21475 108.542222 31.021124 C 108.643476 30.886118 108.6417 30.617884 108.460509 30.550381 Z M 108.460509 30.550381 " transform="matrix(2.198988,0,0,2.198988,-24.397888,33.011484)"/>
<path style="fill-rule:nonzero;fill:rgb(0%,31.764706%,72.941176%);fill-opacity:1;stroke-width:0.013;stroke-linecap:butt;stroke-linejoin:miter;stroke:rgb(0%,0%,0%);stroke-opacity:1;stroke-miterlimit:4;" d="M 120.200639 31.713914 C 119.751214 31.54871 119.27159 32.204196 119.497191 32.607436 C 119.559364 32.220184 120.134913 32.378282 120.282353 32.184656 C 120.383607 32.049651 120.38183 31.781416 120.200639 31.713914 Z M 120.200639 31.713914 " transform="matrix(2.198988,0,0,2.198988,-24.397888,33.011484)"/>
<path style="fill-rule:nonzero;fill:rgb(0%,31.764706%,72.941176%);fill-opacity:1;stroke-width:0.013;stroke-linecap:butt;stroke-linejoin:miter;stroke:rgb(0%,0%,0%);stroke-opacity:1;stroke-miterlimit:4;" d="M 120.809939 32.257488 C 120.346303 32.145575 119.94484 32.849024 120.213074 33.225618 C 120.230838 32.834813 120.820598 32.925409 120.944945 32.715795 C 121.030211 32.570132 120.998236 32.303674 120.809939 32.257488 Z M 120.809939 32.257488 " transform="matrix(2.198988,0,0,2.198988,-24.397888,33.011484)"/>
<path style="fill-rule:nonzero;fill:rgb(0%,31.764706%,72.941176%);fill-opacity:1;stroke-width:0.013;stroke-linecap:butt;stroke-linejoin:miter;stroke:rgb(0%,0%,0%);stroke-opacity:1;stroke-miterlimit:4;" d="M 120.380054 30.941186 C 119.966156 30.703151 119.381725 31.266265 119.534495 31.703256 C 119.662394 31.331991 120.202415 31.586014 120.38183 31.419034 C 120.504401 31.303569 120.548811 31.038887 120.380054 30.941186 Z M 120.380054 30.941186 " transform="matrix(2.198988,0,0,2.198988,-24.397888,33.011484)"/>
<path style="fill-rule:nonzero;fill:rgb(0%,31.764706%,72.941176%);fill-opacity:1;stroke-width:0.013;stroke-linecap:butt;stroke-linejoin:miter;stroke:rgb(0%,0%,0%);stroke-opacity:1;stroke-miterlimit:4;" d="M 128.730841 31.88267 C 128.265428 31.770758 127.863965 32.474207 128.1322 32.8508 C 128.15174 32.458219 128.7415 32.550591 128.865847 32.340978 C 128.951113 32.195314 128.919138 31.928856 128.730841 31.88267 Z M 128.730841 31.88267 " transform="matrix(2.198988,0,0,2.198988,-24.397888,33.011484)"/>
<path style="fill-rule:nonzero;fill:rgb(0%,31.764706%,72.941176%);fill-opacity:1;stroke-width:0.013;stroke-linecap:butt;stroke-linejoin:miter;stroke:rgb(0%,0%,0%);stroke-opacity:1;stroke-miterlimit:4;" d="M 128.750382 31.145471 C 128.329378 30.921646 127.764488 31.5043 127.931468 31.935962 C 128.046933 31.561145 128.595836 31.795628 128.768146 31.623318 C 128.887163 31.5043 128.922691 31.237843 128.750382 31.145471 Z M 128.750382 31.145471 " transform="matrix(2.198988,0,0,2.198988,-24.397888,33.011484)"/>
<path style="fill-rule:nonzero;fill:rgb(0%,31.764706%,72.941176%);fill-opacity:1;stroke-width:0.013;stroke-linecap:butt;stroke-linejoin:miter;stroke:rgb(0%,0%,0%);stroke-opacity:1;stroke-miterlimit:4;" d="M 129.070131 32.541709 C 128.601165 32.449337 128.231677 33.17055 128.515899 33.534709 C 128.517675 33.142128 129.110988 33.207854 129.224677 32.992911 C 129.304614 32.843695 129.260204 32.579014 129.070131 32.541709 Z M 129.070131 32.541709 " transform="matrix(2.198988,0,0,2.198988,-24.397888,33.011484)"/>
<path style="fill-rule:nonzero;fill:rgb(0%,31.764706%,72.941176%);fill-opacity:1;stroke-width:0.013;stroke-linecap:butt;stroke-linejoin:miter;stroke:rgb(0%,0%,0%);stroke-opacity:1;stroke-miterlimit:4;" d="M 113.489455 27.345782 C 113.784335 27.345782 113.903353 27.431049 113.903353 27.962188 C 113.903353 29.08664 113.889142 29.571593 113.528536 29.571593 C 113.164377 29.571593 113.189246 29.111509 113.189246 28.28549 C 113.189246 27.853829 113.189246 27.638886 113.102203 27.674414 C 113.102203 27.393745 113.228327 27.345782 113.489455 27.345782 Z M 113.489455 27.345782 " transform="matrix(2.198988,0,0,2.198988,-24.397888,33.011484)"/>
<path style="fill-rule:nonzero;fill:rgb(97.647059%,86.666667%,8.627451%);fill-opacity:1;stroke-width:0.125;stroke-linecap:butt;stroke-linejoin:miter;stroke:rgb(0%,0%,0%);stroke-opacity:1;stroke-miterlimit:4;" d="M 130.649438 32.199398 C 130.334461 32.276138 130.334461 32.681154 130.169814 32.681154 C 130.988277 32.657705 131.386771 32.433881 131.634935 32.020338 C 131.45597 32.184476 131.611073 32.499962 131.551418 32.576702 C 132.152738 32.365668 132.43908 31.854069 132.229096 31.508739 C 132.365108 31.704852 132.754057 31.809304 132.875753 31.824226 C 132.453397 31.493818 132.754057 30.741341 132.078766 30.351247 C 132.303068 30.336325 132.73974 30.592125 132.85905 30.892689 C 132.754057 30.216952 132.649065 29.779961 132.093083 29.404789 C 132.152738 29.473002 132.470101 29.532688 132.603727 29.404789 C 132.243413 29.178832 132.13842 28.80366 132.169441 28.562782 C 132.210006 28.225979 131.988091 28.157766 131.568121 28.262218 C 131.188717 28.356011 130.320144 28.411434 129.8095 28.411434 C 128.75719 28.411434 127.840894 28.411434 126.967548 27.810305 C 128.27518 28.351747 129.943126 27.209176 129.943126 26.262718 C 129.943126 25.211809 128.649812 24.354881 126.036935 24.926166 C 123.421671 25.497452 120.236109 25.256574 120.236109 24.384724 C 120.236109 23.512874 122.519692 23.391369 123.691311 23.57256 C 124.86293 23.753752 125.705254 23.873125 127.900548 23.090805 C 127.358883 23.301839 125.614579 23.361526 124.232976 22.971432 C 122.848986 22.581337 119.453439 22.581337 119.422418 24.414567 C 119.393784 26.247797 123.039881 26.081527 126.187265 25.616825 C 128.019858 25.346104 128.981492 25.527295 128.981492 26.128424 C 128.981492 26.699709 127.299229 26.938455 126.005914 26.789239 C 124.714986 26.637891 123.390651 26.669866 121.858717 27.119647 C 120.577334 27.496951 119.694444 27.119647 118.28182 27.360524 C 117.596983 27.475634 115.936196 27.360524 115.117733 26.006919 C 114.611861 26.369301 113.094244 27.12391 112.838922 27.859333 C 112.478607 28.537202 112.719612 29.208676 113.199237 29.869491 C 113.805329 30.702971 112.900963 30.577203 112.254306 30.607046 C 111.369029 30.647548 110.183093 30.513253 109.562684 29.809805 C 109.013861 29.187359 108.286073 28.68855 107.701457 29.151121 C 107.403183 29.387735 107.689526 29.70109 107.928145 29.613692 C 108.161991 29.526293 108.441175 29.70109 108.691725 29.809805 C 108.290845 29.63714 107.8494 29.771435 107.677595 29.924914 C 107.438976 30.138081 107.727705 30.543096 108.014047 30.400275 C 108.240735 30.287297 108.70127 30.212689 109.00193 30.487673 C 108.677408 30.425855 108.338569 30.438645 108.176308 30.613441 C 108.014047 30.786106 108.140515 31.041905 108.488899 31.024852 C 109.05204 30.999272 109.195211 31.39363 109.758352 31.312627 C 109.412354 31.357391 109.216687 31.538583 109.126011 31.672877 C 109.653359 31.434131 110.233203 32.082157 110.915653 31.928677 C 110.650786 32.039523 110.221272 32.299586 110.226045 32.499962 C 110.629311 32.03526 113.351953 32.862345 113.411607 31.839147 C 113.485579 32.050182 113.471262 32.365668 113.261277 32.636389 C 113.609661 32.425354 114.733556 32.350746 115.079554 31.538583 C 115.108188 31.779461 115.06285 32.094947 114.852866 32.169555 C 115.215566 32.288928 115.690418 32.018207 116.174814 31.297705 C 116.368096 31.012062 116.41582 30.822344 116.382413 30.607046 C 116.864423 30.626231 117.212807 30.504726 117.589825 30.184977 C 117.98116 29.854569 118.401129 30.455698 119.062103 30.035761 C 119.723078 29.615823 120.295763 29.976074 120.656078 29.76504 C 121.016392 29.554005 121.51272 29.839648 121.904055 29.59877 C 122.293004 29.360024 122.899096 29.718143 123.548139 29.206544 C 124.564656 29.579585 125.752978 30.270244 128.666515 29.735196 C 130.336848 29.428237 130.861809 29.990996 130.861809 30.756263 C 130.861809 31.282783 130.553991 31.32968 130.320144 31.34247 C 129.391917 31.400025 128.991037 30.995009 128.62595 31.12504 C 128.380172 31.212438 128.229843 31.613191 128.585385 31.749617 C 128.291883 31.900965 128.330062 32.182345 128.478006 32.284665 C 128.628336 32.386984 129.014899 32.293191 129.279766 32.171686 C 128.940927 32.325166 128.590157 32.600151 128.790597 32.887925 C 128.912293 33.062721 129.217725 33.209806 129.504068 32.838897 C 129.79041 32.463724 130.315372 32.15037 130.649438 32.199398 Z M 130.649438 32.199398 " transform="matrix(1.637024,0,0,1.83249,43.037744,66.7293)"/>
<path style="fill-rule:nonzero;fill:rgb(97.647059%,86.666667%,8.627451%);fill-opacity:1;stroke-width:0.125;stroke-linecap:butt;stroke-linejoin:miter;stroke:rgb(0%,0%,0%);stroke-opacity:1;stroke-miterlimit:4;" d="M 112.139769 24.263219 C 111.297444 23.91789 111.013487 23.909363 111.209155 24.595758 C 111.290285 24.887796 111.493111 25.301339 111.695937 25.488925 C 111.703096 25.203282 111.808088 24.414567 112.139769 24.263219 Z M 112.139769 24.263219 " transform="matrix(1.637024,0,0,1.83249,43.037744,66.7293)"/>
<path style="fill-rule:nonzero;fill:rgb(97.647059%,86.666667%,8.627451%);fill-opacity:1;stroke-width:0.125;stroke-linecap:butt;stroke-linejoin:miter;stroke:rgb(0%,0%,0%);stroke-opacity:1;stroke-miterlimit:4;" d="M 114.769349 24.263219 C 115.611674 23.91789 115.89563 23.909363 115.702349 24.595758 C 115.618832 24.887796 115.416006 25.301339 115.21318 25.488925 C 115.206022 25.203282 115.101029 24.414567 114.769349 24.263219 Z M 114.769349 24.263219 " transform="matrix(1.637024,0,0,1.83249,43.037744,66.7293)"/>
<path style="fill-rule:nonzero;fill:rgb(97.647059%,86.666667%,8.627451%);fill-opacity:1;stroke-width:0.125;stroke-linecap:butt;stroke-linejoin:miter;stroke:rgb(0%,0%,0%);stroke-opacity:1;stroke-miterlimit:4;" d="M 113.459331 23.80278 C 115.053306 23.80278 115.251359 24.548862 115.244201 25.48253 C 115.237042 26.488675 114.695377 26.143345 114.387559 27.435133 C 114.268249 27.940337 113.864983 27.968048 113.459331 27.968048 C 113.053679 27.968048 112.652799 27.940337 112.531104 27.435133 C 112.223285 26.143345 111.68162 26.488675 111.674462 25.48253 C 111.667303 24.548862 111.865357 23.80278 113.459331 23.80278 Z M 113.459331 23.80278 " transform="matrix(1.637024,0,0,1.83249,43.037744,66.7293)"/>
<path style="fill-rule:nonzero;fill:rgb(97.647059%,86.666667%,8.627451%);fill-opacity:1;stroke-width:0.125;stroke-linecap:butt;stroke-linejoin:miter;stroke:rgb(0%,0%,0%);stroke-opacity:1;stroke-miterlimit:4;" d="M 109.359858 27.494819 C 108.954206 27.253941 108.691725 27.420211 108.527078 27.467108 C 109.05204 27.601402 109.073515 28.277139 110.276155 28.592625 C 110.006515 28.518017 109.856185 28.667234 109.600863 28.532939 C 110.097191 28.923033 110.653173 29.374945 111.824792 29.387735 C 112.478607 29.396262 112.027618 29.735196 111.598104 29.539083 C 112.041935 29.997391 112.922439 29.622218 113.478421 30.455698 C 113.583413 29.809805 112.440428 28.786607 112.967776 28.051183 C 111.345167 27.98297 111.211541 27.083408 110.276155 26.36717 C 109.51496 25.785226 109.448147 25.194755 109.111694 24.088423 C 108.958978 23.587482 108.371976 23.274128 108.047454 23.393501 C 107.763497 23.497952 107.658505 23.743093 107.901896 23.928548 C 108.147674 24.111871 108.457879 24.137451 108.527078 24.604285 C 108.209715 24.224849 107.734863 24.086291 107.505789 24.325037 C 107.36739 24.46999 107.422272 24.806793 107.722932 24.836636 C 108.209715 24.887796 107.858945 25.361025 108.412541 25.825728 C 107.920986 25.273627 107.496244 25.224599 107.233763 25.525163 C 107.076275 25.704223 107.233763 26.023972 107.572602 25.989866 C 108.061771 25.940837 108.627298 27.181465 109.359858 27.494819 Z M 109.359858 27.494819 " transform="matrix(1.637024,0,0,1.83249,43.037744,66.7293)"/>
<path style="fill-rule:nonzero;fill:rgb(97.647059%,86.666667%,8.627451%);fill-opacity:1;stroke-width:0.125;stroke-linecap:butt;stroke-linejoin:miter;stroke:rgb(0%,0%,0%);stroke-opacity:1;stroke-miterlimit:4;" d="M 122.429016 32.139712 C 122.173694 32.184476 122.250052 32.604414 121.904055 32.634257 C 122.732063 32.634257 123.152032 32.440276 123.540981 32.12479 C 123.362016 32.229241 123.288045 32.499962 123.271341 32.649179 C 123.708014 32.274006 124.746006 32.244163 125.285285 32.348614 C 125.82695 32.455198 125.917625 32.199398 126.110906 31.854069 C 126.30896 31.508739 126.036935 31.312627 125.767295 31.041905 C 125.49527 30.771184 125.435615 30.396012 125.49527 29.76504 C 124.054011 27.840149 121.467382 28.771685 121.438748 29.613692 C 122.369362 30.696576 122.491057 30.575071 123.271341 30.726419 C 124.054011 30.875636 124.531249 30.875636 124.008674 31.312627 C 123.827323 31.461843 123.075674 31.391498 122.491057 31.417078 C 121.178653 31.474633 120.57972 30.511121 120.193157 31.012062 C 119.873408 31.423473 120.202702 31.604664 120.851745 31.583348 C 120.403142 31.585479 119.804208 31.562031 119.906814 31.979837 C 120.07862 32.687549 120.753912 31.849805 121.016392 32.139712 C 120.792091 32.08642 120.441321 32.224978 120.42939 32.438144 C 120.417459 32.649179 120.928103 32.924163 121.491244 32.478646 C 121.799063 32.233505 122.192784 32.141843 122.429016 32.139712 Z M 122.429016 32.139712 " transform="matrix(1.637024,0,0,1.83249,43.037744,66.7293)"/>
<path style="fill:none;stroke-width:0.125;stroke-linecap:butt;stroke-linejoin:miter;stroke:rgb(0%,0%,0%);stroke-opacity:1;stroke-miterlimit:4;" d="M 123.550525 29.206544 C 123.080446 29.033879 122.650932 28.929428 122.102109 29.042406 " transform="matrix(1.637024,0,0,1.83249,43.037744,66.7293)"/>
<path style="fill:none;stroke-width:0.125;stroke-linecap:butt;stroke-linejoin:miter;stroke:rgb(0%,0%,0%);stroke-opacity:1;stroke-miterlimit:4;" d="M 116.480247 28.98272 C 116.093684 29.811936 116.327531 30.221215 116.384799 30.607046 " transform="matrix(1.637024,0,0,1.83249,43.037744,66.7293)"/>
<path style="fill:none;stroke-width:0.125;stroke-linecap:butt;stroke-linejoin:miter;stroke:rgb(0%,0%,0%);stroke-opacity:1;stroke-miterlimit:4;" d="M 112.368843 25.051934 C 112.636096 25.184097 112.78404 24.811056 113.172988 25.207545 C 113.06561 25.092436 112.931983 25.516637 112.636096 25.235257 " transform="matrix(1.637024,0,0,1.83249,43.037744,66.7293)"/>
<path style="fill:none;stroke-width:0.125;stroke-linecap:butt;stroke-linejoin:miter;stroke:rgb(0%,0%,0%);stroke-opacity:1;stroke-miterlimit:4;" d="M 114.53073 25.051934 C 114.265863 25.184097 114.115533 24.811056 113.726584 25.207545 C 113.833963 25.092436 113.967589 25.516637 114.265863 25.235257 " transform="matrix(1.637024,0,0,1.83249,43.037744,66.7293)"/>
<path style="fill:none;stroke-width:0.125;stroke-linecap:butt;stroke-linejoin:miter;stroke:rgb(0%,0%,0%);stroke-opacity:1;stroke-miterlimit:4;" d="M 113.728971 25.207545 C 113.638295 25.282154 113.631137 25.147859 113.69795 25.501715 C 113.826804 26.154004 113.977134 26.458831 113.452173 26.458831 C 112.912894 26.458831 113.075155 26.154004 113.204009 25.501715 C 113.273208 25.147859 113.263664 25.282154 113.172988 25.207545 " transform="matrix(1.637024,0,0,1.83249,43.037744,66.7293)"/>
<path style="fill-rule:nonzero;fill:rgb(100%,0%,8.627451%);fill-opacity:1;stroke-width:0.0625;stroke-linecap:butt;stroke-linejoin:miter;stroke:rgb(0%,0%,0%);stroke-opacity:1;stroke-miterlimit:4;" d="M 113.459331 27.705854 C 113.888845 27.705854 114.137009 27.699459 114.067809 27.09833 C 114.041561 26.85532 114.361311 26.759396 114.24916 26.369301 C 114.368469 26.848926 113.459331 26.804161 113.459331 26.584599 C 113.459331 26.804161 112.550193 26.848926 112.671889 26.369301 C 112.557352 26.759396 112.877101 26.85532 112.850853 27.09833 C 112.78404 27.699459 113.032203 27.705854 113.459331 27.705854 Z M 113.459331 27.705854 " transform="matrix(1.637024,0,0,1.83249,43.037744,66.7293)"/>
<path style="fill-rule:nonzero;fill:rgb(0%,0%,0%);fill-opacity:1;stroke-width:0.0625;stroke-linecap:butt;stroke-linejoin:miter;stroke:rgb(0%,0%,0%);stroke-opacity:1;stroke-miterlimit:4;" d="M 113.070382 26.488675 L 112.041935 26.203032 " transform="matrix(1.637024,0,0,1.83249,43.037744,66.7293)"/>
<path style="fill-rule:nonzero;fill:rgb(0%,0%,0%);fill-opacity:1;stroke-width:0.0625;stroke-linecap:butt;stroke-linejoin:miter;stroke:rgb(0%,0%,0%);stroke-opacity:1;stroke-miterlimit:4;" d="M 113.070382 26.541966 L 111.922625 26.533439 " transform="matrix(1.637024,0,0,1.83249,43.037744,66.7293)"/>
<path style="fill-rule:nonzero;fill:rgb(0%,0%,0%);fill-opacity:1;stroke-width:0.0625;stroke-linecap:butt;stroke-linejoin:miter;stroke:rgb(0%,0%,0%);stroke-opacity:1;stroke-miterlimit:4;" d="M 113.079927 26.601653 L 112.101589 26.863847 " transform="matrix(1.637024,0,0,1.83249,43.037744,66.7293)"/>
<path style="fill-rule:nonzero;fill:rgb(0%,0%,0%);fill-opacity:1;stroke-width:0.0625;stroke-linecap:butt;stroke-linejoin:miter;stroke:rgb(0%,0%,0%);stroke-opacity:1;stroke-miterlimit:4;" d="M 113.841121 26.488675 L 114.867183 26.203032 " transform="matrix(1.637024,0,0,1.83249,43.037744,66.7293)"/>
<path style="fill-rule:nonzero;fill:rgb(0%,0%,0%);fill-opacity:1;stroke-width:0.0625;stroke-linecap:butt;stroke-linejoin:miter;stroke:rgb(0%,0%,0%);stroke-opacity:1;stroke-miterlimit:4;" d="M 113.841121 26.541966 L 114.988878 26.533439 " transform="matrix(1.637024,0,0,1.83249,43.037744,66.7293)"/>
<path style="fill-rule:nonzero;fill:rgb(0%,0%,0%);fill-opacity:1;stroke-width:0.0625;stroke-linecap:butt;stroke-linejoin:miter;stroke:rgb(0%,0%,0%);stroke-opacity:1;stroke-miterlimit:4;" d="M 113.82919 26.601653 L 114.809914 26.863847 " transform="matrix(1.637024,0,0,1.83249,43.037744,66.7293)"/>
<path style="fill-rule:nonzero;fill:rgb(0%,31.764706%,72.941176%);fill-opacity:1;stroke-width:0.013;stroke-linecap:butt;stroke-linejoin:miter;stroke:rgb(0%,0%,0%);stroke-opacity:1;stroke-miterlimit:4;" d="M 108.130971 23.414817 C 107.830311 23.041776 107.081047 23.355131 107.06673 23.817702 C 107.319666 23.519269 107.732477 23.949865 107.959165 23.858203 C 108.114267 23.796385 108.25028 23.566165 108.130971 23.414817 Z M 108.130971 23.414817 " transform="matrix(1.637024,0,0,1.83249,43.037744,66.7293)"/>
<path style="fill-rule:nonzero;fill:rgb(0%,31.764706%,72.941176%);fill-opacity:1;stroke-width:0.013;stroke-linecap:butt;stroke-linejoin:miter;stroke:rgb(0%,0%,0%);stroke-opacity:1;stroke-miterlimit:4;" d="M 107.74918 24.295194 C 107.450907 23.922153 106.704029 24.237639 106.687326 24.698078 C 106.940262 24.399645 107.353073 24.830241 107.579761 24.740711 C 107.734863 24.676762 107.870876 24.446542 107.74918 24.295194 Z M 107.74918 24.295194 " transform="matrix(1.637024,0,0,1.83249,43.037744,66.7293)"/>
<path style="fill-rule:nonzero;fill:rgb(0%,31.764706%,72.941176%);fill-opacity:1;stroke-width:0.013;stroke-linecap:butt;stroke-linejoin:miter;stroke:rgb(0%,0%,0%);stroke-opacity:1;stroke-miterlimit:4;" d="M 107.551127 25.478267 C 107.209902 25.143596 106.50359 25.540085 106.539382 26.000524 C 106.758912 25.67438 107.21706 26.055947 107.429431 25.940837 C 107.577375 25.859834 107.687139 25.616825 107.551127 25.478267 Z M 107.551127 25.478267 " transform="matrix(1.637024,0,0,1.83249,43.037744,66.7293)"/>
<path style="fill-rule:nonzero;fill:rgb(0%,31.764706%,72.941176%);fill-opacity:1;stroke-width:0.013;stroke-linecap:butt;stroke-linejoin:miter;stroke:rgb(0%,0%,0%);stroke-opacity:1;stroke-miterlimit:4;" d="M 107.909055 29.148989 C 107.534423 28.852688 106.875835 29.328049 106.96651 29.782093 C 107.145474 29.4325 107.644188 29.760776 107.842242 29.620087 C 107.980641 29.524162 108.064157 29.268362 107.909055 29.148989 Z M 107.909055 29.148989 " transform="matrix(1.637024,0,0,1.83249,43.037744,66.7293)"/>
<path style="fill-rule:nonzero;fill:rgb(0%,31.764706%,72.941176%);fill-opacity:1;stroke-width:0.013;stroke-linecap:butt;stroke-linejoin:miter;stroke:rgb(0%,0%,0%);stroke-opacity:1;stroke-miterlimit:4;" d="M 107.889965 29.950494 C 107.441362 29.786356 106.961738 30.440777 107.18604 30.843661 C 107.248081 30.45783 107.825538 30.615573 107.971096 30.421592 C 108.073702 30.287297 108.071316 30.018707 107.889965 29.950494 Z M 107.889965 29.950494 " transform="matrix(1.637024,0,0,1.83249,43.037744,66.7293)"/>
<path style="fill-rule:nonzero;fill:rgb(0%,31.764706%,72.941176%);fill-opacity:1;stroke-width:0.013;stroke-linecap:butt;stroke-linejoin:miter;stroke:rgb(0%,0%,0%);stroke-opacity:1;stroke-miterlimit:4;" d="M 108.460265 30.551623 C 108.011661 30.385353 107.532037 31.039774 107.756339 31.44479 C 107.81838 31.056827 108.395838 31.21457 108.541395 31.020589 C 108.644001 30.886294 108.641615 30.617705 108.460265 30.551623 Z M 108.460265 30.551623 " transform="matrix(1.637024,0,0,1.83249,43.037744,66.7293)"/>
<path style="fill-rule:nonzero;fill:rgb(0%,31.764706%,72.941176%);fill-opacity:1;stroke-width:0.013;stroke-linecap:butt;stroke-linejoin:miter;stroke:rgb(0%,0%,0%);stroke-opacity:1;stroke-miterlimit:4;" d="M 120.200316 31.713379 C 119.751712 31.549241 119.272088 32.203661 119.49639 32.606546 C 119.560817 32.220715 120.135889 32.378458 120.281446 32.184476 C 120.384052 32.050182 120.381666 31.781592 120.200316 31.713379 Z M 120.200316 31.713379 " transform="matrix(1.637024,0,0,1.83249,43.037744,66.7293)"/>
<path style="fill-rule:nonzero;fill:rgb(0%,31.764706%,72.941176%);fill-opacity:1;stroke-width:0.013;stroke-linecap:butt;stroke-linejoin:miter;stroke:rgb(0%,0%,0%);stroke-opacity:1;stroke-miterlimit:4;" d="M 120.81118 32.256953 C 120.345873 32.143975 119.944993 32.849555 120.212247 33.224728 C 120.231336 32.834633 120.820725 32.924163 120.944807 32.71526 C 121.03071 32.570307 120.999689 32.30385 120.81118 32.256953 Z M 120.81118 32.256953 " transform="matrix(1.637024,0,0,1.83249,43.037744,66.7293)"/>
<path style="fill-rule:nonzero;fill:rgb(0%,31.764706%,72.941176%);fill-opacity:1;stroke-width:0.013;stroke-linecap:butt;stroke-linejoin:miter;stroke:rgb(0%,0%,0%);stroke-opacity:1;stroke-miterlimit:4;" d="M 120.37928 30.941717 C 119.966469 30.702971 119.381853 31.26573 119.534569 31.702721 C 119.663423 31.331811 120.202702 31.585479 120.381666 31.41921 C 120.503362 31.3041 120.548699 31.039774 120.37928 30.941717 Z M 120.37928 30.941717 " transform="matrix(1.637024,0,0,1.83249,43.037744,66.7293)"/>
<path style="fill-rule:nonzero;fill:rgb(0%,31.764706%,72.941176%);fill-opacity:1;stroke-width:0.013;stroke-linecap:butt;stroke-linejoin:miter;stroke:rgb(0%,0%,0%);stroke-opacity:1;stroke-miterlimit:4;" d="M 128.730942 31.883912 C 128.265635 31.770934 127.864756 32.474383 128.132009 32.849555 C 128.151098 32.459461 128.742873 32.548991 128.864569 32.340088 C 128.950472 32.195135 128.919451 31.928677 128.730942 31.883912 Z M 128.730942 31.883912 " transform="matrix(1.637024,0,0,1.83249,43.037744,66.7293)"/>
<path style="fill-rule:nonzero;fill:rgb(0%,31.764706%,72.941176%);fill-opacity:1;stroke-width:0.013;stroke-linecap:butt;stroke-linejoin:miter;stroke:rgb(0%,0%,0%);stroke-opacity:1;stroke-miterlimit:4;" d="M 128.750032 31.146357 C 128.330062 30.920401 127.764536 31.504476 127.931569 31.935072 C 128.046106 31.559899 128.594929 31.794382 128.769121 31.623849 C 128.886045 31.504476 128.921837 31.238018 128.750032 31.146357 Z M 128.750032 31.146357 " transform="matrix(1.637024,0,0,1.83249,43.037744,66.7293)"/>
<path style="fill-rule:nonzero;fill:rgb(0%,31.764706%,72.941176%);fill-opacity:1;stroke-width:0.013;stroke-linecap:butt;stroke-linejoin:miter;stroke:rgb(0%,0%,0%);stroke-opacity:1;stroke-miterlimit:4;" d="M 129.069781 32.542596 C 128.602088 32.448803 128.229843 33.171436 128.516185 33.533819 C 128.518571 33.143725 129.110346 33.207674 129.224883 32.992376 C 129.306014 32.845292 129.260676 32.578834 129.069781 32.542596 Z M 129.069781 32.542596 " transform="matrix(1.637024,0,0,1.83249,43.037744,66.7293)"/>
<path style="fill-rule:nonzero;fill:rgb(0%,31.764706%,72.941176%);fill-opacity:1;stroke-width:0.013;stroke-linecap:butt;stroke-linejoin:miter;stroke:rgb(0%,0%,0%);stroke-opacity:1;stroke-miterlimit:4;" d="M 113.490352 27.345603 C 113.783853 27.345603 113.903162 27.430869 113.903162 27.961653 C 113.903162 29.087171 113.888845 29.571058 113.528531 29.571058 C 113.16583 29.571058 113.189692 29.110619 113.189692 28.285666 C 113.189692 27.85507 113.189692 27.637641 113.103789 27.673879 C 113.103789 27.392499 113.227871 27.345603 113.490352 27.345603 Z M 113.490352 27.345603 " transform="matrix(1.637024,0,0,1.83249,43.037744,66.7293)"/>
</g>
</svg>
