<?xml version="1.0" encoding="UTF-8"?>
<svg xmlns="http://www.w3.org/2000/svg" xmlns:xlink="http://www.w3.org/1999/xlink" width="480pt" height="360pt" viewBox="0 0 480 360" version="1.1">
<g id="surface1">
<rect x="0" y="0" width="480" height="360" style="fill:rgb(74.509804%,0%,15.294118%);fill-opacity:1;stroke:none;"/>
<path style=" stroke:none;fill-rule:evenodd;fill:rgb(100%,100%,0%);fill-opacity:1;" d="M 133.875 183.613281 C 143.476562 171.933594 163.371094 183.332031 179.609375 174.925781 C 160.375 175.980469 149.886719 165.691406 134.691406 167.136719 C 150.4375 157.460938 163.84375 170.296875 181.449219 165.140625 C 158.132812 163.175781 159.140625 152.753906 137.9375 151.273438 C 156.773438 143.238281 166.089844 159.535156 184.539062 155.828125 C 162.792969 150.808594 159.898438 138 143.730469 135.289062 C 167.359375 131.722656 165.820312 145.691406 188.984375 147.398438 C 165.472656 137.308594 171.636719 128.554688 151.96875 120.871094 C 173.976562 120.351562 172.515625 135.605469 194.8125 139.605469 C 175.726562 127.496094 178.082031 116.445312 162.363281 107.800781 C 181.011719 108.136719 182.832031 127.226562 201.867188 133.140625 C 184.886719 119.667969 189.351562 108.3125 174.679688 96.28125 C 193.230469 100.632812 190.53125 117.101562 209.851562 127.605469 C 195.53125 111.707031 201.027344 100.320312 188.535156 87.304688 C 206.378906 93.050781 199.601562 108.703125 218.113281 123.582031 C 207.5 106.105469 214.050781 94.960938 203.609375 80.214844 C 220.171875 88.769531 212.152344 104.734375 227.53125 120.6875 C 220.292969 102.75 227.542969 91.609375 220.144531 75.726562 C 234.3125 86.316406 225.886719 103.375 237.316406 119.652344 C 233.148438 97.210938 242.828125 93.519531 239.816406 73.863281 C 250.578125 87.074219 238.550781 100.289062 246.8125 119.75 C 245.804688 97.617188 257.566406 92.472656 255.527344 74.703125 C 266.191406 90.625 249.542969 104.480469 256.507812 121.535156 C 258.308594 100.535156 272.105469 95.097656 272.320312 78.757812 C 280.710938 93.757812 262.398438 104.542969 265.371094 124.429688 C 271.394531 102.496094 286.09375 99.785156 287.832031 85.039062 C 292.917969 102.390625 272.878906 110.457031 274.050781 129.6875 C 280.019531 110.183594 298.390625 107.898438 302.148438 93.492188 C 304.464844 111.847656 286.398438 115.109375 281.3125 135.386719 C 290.8125 118.835938 307.425781 117.480469 314.910156 104.386719 C 314.320312 122.539062 293.925781 124.917969 287.664062 141.914062 C 299.425781 127.492188 314.164062 129.996094 325.925781 117.210938 C 324.683594 133.59375 303.921875 132.667969 292.871094 149.628906 C 305.625 137.863281 324.816406 141.386719 334.589844 131.257812 C 334.113281 145.75 308.636719 144.660156 296.621094 157.609375 C 311.441406 149.492188 330.203125 154.261719 341.078125 146.722656 C 339.089844 159.425781 312.195312 156.457031 299.34375 166.371094 C 317.070312 161.460938 330.757812 169.050781 345.117188 163.5625 C 338.128906 175.929688 313.734375 168.101562 300.78125 176.140625 C 316.167969 173.535156 332.511719 182.855469 346.550781 179.863281 C 341.9375 190.554688 315.203125 179.21875 300.78125 185.867188 C 318.015625 185.714844 329.191406 196.71875 345.171875 195.992188 C 336.480469 205.667969 312.980469 192.363281 299.285156 194.636719 C 315.992188 198.089844 328.753906 211.933594 341.421875 212.601562 C 331.027344 220.582031 311.59375 202.40625 295.8125 204.714844 C 312.058594 209.0625 325.707031 227.546875 335.03125 227.949219 C 324.988281 234.816406 305.136719 212.15625 291.535156 212.960938 C 308.054688 220.429688 315.632812 239.339844 326.476562 241.996094 C 313.050781 246.304688 299.851562 221.453125 285.421875 220.59375 C 302.136719 231.136719 303.082031 247.253906 315.949219 254.429688 C 302.410156 257.738281 292.773438 229.703125 278.503906 227.335938 C 292.207031 237.410156 294.273438 258.929688 303.359375 265.734375 C 289.574219 266.460938 284.589844 237.105469 270.460938 232.914062 C 282.566406 243.023438 279.667969 264.960938 289.078125 274.300781 C 274.71875 271.355469 276.570312 245.796875 261.574219 237.191406 C 272.347656 250.777344 266.867188 270.128906 273.886719 281.023438 C 259.917969 275.371094 265.984375 252.496094 252.648438 239.542969 C 259.921875 254.015625 252.101562 270.894531 257.839844 284.886719 C 245.078125 278.660156 253.660156 251.570312 243.878906 240.824219 C 248.375 257.550781 240.082031 271.390625 243.425781 286.382812 C 230.375 271.246094 245.40625 256.015625 234.085938 240.59375 C 237.09375 258.292969 224.710938 270.613281 226.65625 285.429688 C 216.308594 273.34375 232.214844 253.949219 224.175781 238.6875 C 225.90625 256.09375 209.921875 271.339844 211.019531 282.300781 C 202.597656 268.261719 220.367188 251.660156 215.609375 235.695312 C 214.605469 252.269531 198.472656 261.277344 195.4375 276.375 C 190.011719 259.71875 209.191406 247.679688 207.535156 231.3125 C 202.042969 246.882812 186.453125 253.125 180.960938 268.214844 C 176.464844 251.605469 199.183594 242.785156 199.785156 225.308594 C 192.761719 241.699219 174.105469 245.296875 167.945312 257.839844 C 165.648438 241.316406 191.71875 233.929688 192.6875 218.273438 C 184.296875 233.304688 163.882812 233.914062 156.835938 245.871094 C 155.765625 229.40625 183.257812 227.367188 187.574219 210.136719 C 179.222656 222.988281 156.824219 221.320312 147.507812 231.769531 C 148.976562 216.496094 178.71875 215.550781 183.457031 201.816406 C 172.402344 212.480469 151.84375 208.0625 140.265625 216.519531 C 146.710938 201.519531 174.605469 204.699219 180.914062 193.832031 C 168.5625 200.277344 146.683594 194.03125 135.914062 200.472656 C 145.703125 186.265625 167.417969 194.753906 179.707031 184.96875 C 159.71875 187.882812 147.710938 179.929688 133.875 183.609375 Z M 133.875 183.613281 "/>
<path style=" stroke:none;fill-rule:evenodd;fill:rgb(100%,100%,0%);fill-opacity:1;" d="M 310 180.078125 C 310 218.609375 278.765625 249.84375 240.234375 249.84375 C 201.703125 249.84375 170.46875 218.609375 170.46875 180.078125 C 170.46875 141.546875 201.703125 110.3125 240.234375 110.3125 C 278.765625 110.3125 310 141.546875 310 180.078125 Z M 310 180.078125 "/>
<path style=" stroke:none;fill-rule:evenodd;fill:rgb(74.509804%,0%,15.294118%);fill-opacity:1;" d="M 301.019531 180.214844 C 301.019531 213.714844 273.863281 240.871094 240.367188 240.871094 C 206.867188 240.871094 179.710938 213.714844 179.710938 180.214844 C 179.710938 146.714844 206.867188 119.5625 240.367188 119.5625 C 273.867188 119.5625 301.019531 146.71875 301.019531 180.214844 Z M 301.019531 180.214844 "/>
<path style=" stroke:none;fill-rule:evenodd;fill:rgb(100%,100%,0%);fill-opacity:1;" d="M 292.574219 180.34375 C 292.574219 209.109375 269.253906 232.425781 240.492188 232.425781 C 211.726562 232.425781 188.40625 209.109375 188.40625 180.34375 C 188.40625 151.578125 211.726562 128.257812 240.492188 128.257812 C 269.257812 128.257812 292.574219 151.578125 292.574219 180.34375 Z M 292.574219 180.34375 "/>
<path style=" stroke:none;fill-rule:evenodd;fill:rgb(74.509804%,0%,15.294118%);fill-opacity:1;" d="M 196.164062 146.214844 C 210.578125 145.898438 228.53125 147.210938 240.363281 156.6875 C 252.917969 148.84375 267.789062 145.21875 282.929688 146.621094 C 285.511719 151.335938 288.097656 156.050781 290.679688 160.765625 C 279.4375 159.632812 268.46875 161.21875 255.457031 166.476562 C 272.050781 179.625 280.34375 196.578125 279.800781 217.203125 C 277.898438 219.5625 274.90625 222.191406 273.003906 224.546875 C 275.765625 204.511719 265.207031 182.164062 249.882812 170.421875 C 262.347656 188.417969 269.785156 204.648438 267.699219 226.996094 C 265.476562 228.308594 262.847656 230.167969 260.628906 231.484375 C 263.890625 211.765625 259.269531 188.644531 244.714844 175.179688 C 253.101562 187.511719 261.488281 209.632812 256.273438 232.164062 C 254.007812 232.84375 250.519531 234.746094 248.25 235.425781 C 254.101562 216.976562 250.425781 193.902344 240.636719 180.078125 C 230.933594 193.996094 227.761719 215.253906 233.292969 234.882812 C 230.570312 234.203125 228.53125 233.386719 225.8125 232.707031 C 221.824219 211.582031 227.355469 187.738281 236.964844 175.320312 C 227.171875 180.984375 217.925781 205.28125 220.507812 230.125 C 218.152344 229.035156 216.335938 228.21875 213.980469 227.132812 C 210.808594 208.589844 219.191406 184.476562 231.253906 170.558594 C 217.5625 179.171875 206.457031 200.296875 208.40625 223.050781 C 206.320312 221.195312 204.371094 220.289062 202.285156 218.429688 C 199.882812 198.574219 211.351562 178.582031 224.859375 166.613281 C 213.480469 161.539062 203.734375 160.539062 189.636719 160.765625 C 191.859375 156.1875 193.945312 150.792969 196.164062 146.214844 Z M 196.164062 146.214844 "/>
</g>
</svg>
