<?xml version="1.0" encoding="UTF-8"?>
<svg xmlns="http://www.w3.org/2000/svg" xmlns:xlink="http://www.w3.org/1999/xlink" width="480pt" height="360pt" viewBox="0 0 480 360" version="1.1">
<g id="surface1">
<rect x="0" y="0" width="480" height="360" style="fill:rgb(0%,0%,40%);fill-opacity:1;stroke:none;"/>
<path style=" stroke:none;fill-rule:evenodd;fill:rgb(0%,0%,40%);fill-opacity:1;" d="M 0 0 L 300 0 L 300 150 L 0 150 Z M 0 0 "/>
<path style=" stroke:none;fill-rule:nonzero;fill:rgb(100%,100%,100%);fill-opacity:1;" d="M 0 0 L 0 20.316406 L 250.808594 181.722656 L 282.378906 181.722656 L 282.378906 161.40625 L 31.570312 0 Z M 282.378906 0 L 282.378906 20.316406 L 31.570312 181.722656 L 0 181.722656 L 0 161.40625 L 250.808594 0 Z M 282.378906 0 "/>
<path style=" stroke:none;fill-rule:nonzero;fill:rgb(100%,100%,100%);fill-opacity:1;" d="M 117.65625 0 L 117.65625 181.722656 L 164.722656 181.722656 L 164.722656 0 Z M 0 60.574219 L 0 121.148438 L 282.378906 121.148438 L 282.378906 60.574219 Z M 0 60.574219 "/>
<path style=" stroke:none;fill-rule:nonzero;fill:rgb(80%,0%,0%);fill-opacity:1;" d="M 0 72.6875 L 0 109.035156 L 282.378906 109.035156 L 282.378906 72.6875 Z M 127.070312 0 L 127.070312 181.722656 L 155.308594 181.722656 L 155.308594 0 Z M 127.070312 0 "/>
<path style=" stroke:none;fill-rule:nonzero;fill:rgb(80%,0%,0%);fill-opacity:1;" d="M 0 181.722656 L 94.125 121.148438 L 115.171875 121.148438 L 21.046875 181.722656 Z M 0 0 L 94.125 60.574219 L 73.078125 60.574219 L 0 13.546875 Z M 167.207031 60.574219 L 261.332031 0 L 282.378906 0 L 188.253906 60.574219 Z M 282.378906 181.722656 L 188.253906 121.148438 L 209.300781 121.148438 L 282.378906 168.179688 Z M 282.378906 181.722656 "/>
<path style=" stroke:none;fill-rule:evenodd;fill:rgb(100%,100%,100%);fill-opacity:1;" d="M 336.25 134.355469 C 335.492188 134.8125 333.976562 136.1875 332.460938 135.730469 C 330.949219 135.269531 327.539062 129.320312 323.753906 130.238281 C 319.96875 131.152344 317.695312 132.523438 316.179688 132.523438 C 314.667969 132.523438 310.5 133.898438 310.5 137.558594 C 310.5 141.21875 310.878906 143.964844 311.636719 143.964844 C 312.394531 143.964844 313.53125 141.679688 313.53125 141.679688 C 313.53125 141.679688 313.910156 146.253906 316.558594 146.253906 C 319.210938 146.253906 324.890625 146.710938 325.269531 148.085938 C 325.648438 149.457031 322.617188 152.660156 323.375 155.40625 C 324.132812 158.152344 327.539062 162.730469 327.539062 162.730469 C 327.539062 162.730469 322.617188 166.390625 322.617188 168.679688 C 322.617188 170.96875 323.375 173.253906 323.375 173.253906 L 301.414062 174.171875 C 301.414062 174.171875 299.898438 239.15625 300.65625 244.191406 C 301.414062 249.222656 303.308594 261.582031 303.308594 261.582031 C 303.308594 261.582031 298.386719 259.980469 294.222656 264.097656 C 290.054688 268.21875 275.480469 275.308594 275.101562 278.511719 C 274.722656 281.714844 273.398438 284.464844 274.910156 286.75 C 276.425781 289.039062 281.753906 295.257812 280.210938 294.988281 C 275.128906 294.113281 273.238281 286.890625 269.800781 284.234375 C 266.421875 281.628906 259.765625 282.175781 259.011719 284.921875 C 258.253906 287.667969 258.632812 292.242188 259.011719 293.160156 C 259.386719 294.074219 263.554688 308.71875 264.6875 311.921875 C 265.824219 315.125 277.75 319.929688 283.050781 319.472656 C 293.085938 319.699219 297.628906 315.125 298.007812 315.585938 C 298.386719 316.042969 319.59375 337.910156 363.128906 338.007812 C 397.019531 338.082031 422.574219 316.042969 422.574219 316.5 C 422.574219 316.957031 436.582031 321.074219 441.503906 319.703125 C 446.425781 318.328125 453.621094 315.125 455.136719 311.921875 C 456.648438 308.71875 460.8125 292.242188 461.191406 289.5 C 461.570312 286.753906 461.191406 283.546875 457.785156 282.632812 C 454.378906 281.71875 452.484375 281.945312 450.589844 282.859375 C 448.699219 283.777344 448.128906 286.296875 445.289062 290.871094 C 443.777344 292.246094 439.800781 295.90625 440.9375 294.988281 C 442.074219 294.074219 444.535156 287.210938 444.914062 284.921875 C 445.289062 282.632812 446.425781 278.515625 443.777344 276.226562 C 441.125 273.9375 437.066406 273.003906 432.417969 269.589844 C 428.003906 266.566406 424.46875 261.582031 421.816406 261.582031 C 419.164062 261.582031 416.136719 260.210938 416.515625 260.210938 C 416.894531 260.210938 419.929688 253.5625 419.171875 246.699219 C 418.414062 239.832031 419.542969 174.171875 419.164062 174.171875 C 418.789062 174.171875 400.234375 175.546875 400.234375 174.628906 C 400.234375 173.714844 401.75 167.308594 400.234375 163.1875 C 398.71875 159.070312 392.285156 156.324219 394.175781 155.410156 C 396.070312 154.492188 404.398438 152.207031 404.019531 148.542969 C 403.640625 144.882812 398.339844 145.339844 396.070312 143.96875 C 393.796875 142.59375 386.984375 136.1875 386.226562 136.1875 C 385.46875 136.1875 405.914062 123.832031 404.398438 123.832031 C 402.886719 123.832031 394.933594 121.542969 392.285156 122.917969 C 392.285156 120.628906 403.261719 113.765625 401.371094 112.847656 C 399.476562 111.933594 390.769531 111.015625 393.039062 110.558594 C 395.3125 110.101562 396.070312 104.609375 395.691406 104.609375 C 395.3125 104.609375 385.847656 105.984375 385.847656 105.984375 C 385.847656 105.984375 383.574219 102.78125 382.816406 102.78125 C 382.0625 102.78125 378.652344 104.609375 378.652344 104.609375 L 376.761719 99.578125 L 372.59375 102.324219 L 370.703125 100.035156 C 370.703125 100.035156 367.292969 100.949219 367.292969 100.035156 C 367.4375 100 366.902344 97.734375 366.367188 97.734375 C 365.832031 97.734375 362.082031 100.648438 361.949219 100.488281 C 361.816406 100.324219 357.667969 94.5 357.667969 94.660156 C 357.667969 94.824219 354.722656 105.664062 354.585938 105.664062 C 354.453125 105.664062 351.640625 105.988281 351.507812 106.148438 C 351.375 106.3125 336.515625 97.574219 336.648438 97.734375 C 336.785156 97.898438 340.53125 106.148438 340.53125 106.148438 C 340.53125 106.148438 337.320312 107.929688 337.320312 108.089844 C 337.320312 108.253906 337.855469 111.8125 337.855469 111.8125 L 327.949219 108.414062 C 327.949219 108.414062 331.695312 116.019531 331.429688 116.019531 C 331.160156 116.019531 324.066406 116.34375 324.199219 116.34375 C 324.332031 116.34375 327.546875 122.652344 327.546875 122.652344 L 326.339844 126.375 C 326.339844 126.375 337.003906 133.898438 336.246094 134.355469 Z M 399.476562 293.617188 C 400.425781 294.988281 405.535156 301.394531 404.777344 301.394531 C 404.019531 301.394531 391.335938 309.863281 386.226562 311.464844 C 381.113281 313.066406 364.457031 316.039062 365.402344 315.8125 C 366.347656 315.582031 380.359375 307.910156 386.039062 304.25 C 391.71875 300.589844 399.476562 294.074219 399.476562 293.617188 Z M 320.34375 293.386719 C 319.585938 294.300781 315.988281 301.394531 315.988281 301.394531 C 315.988281 301.394531 326.402344 308.71875 334.164062 311.464844 C 341.925781 314.207031 355.175781 315.125 354.417969 314.894531 C 353.660156 314.667969 337.757812 307.574219 333.214844 303.914062 C 328.671875 300.25 320.53125 293.382812 320.34375 293.382812 Z M 320.34375 293.386719 "/>
<path style="fill-rule:evenodd;fill:rgb(99.607843%,77.254902%,0%);fill-opacity:1;stroke-width:1.403;stroke-linecap:butt;stroke-linejoin:miter;stroke:rgb(42.745098%,40%,40%);stroke-opacity:1;stroke-miterlimit:4;" d="M 394.649494 -212.969728 C 394.649494 -212.969728 423.422057 -195.705797 430.00446 -191.593332 C 436.586862 -187.480867 457.962705 -169.388828 459.608305 -170.216935 C 461.253906 -171.045042 472.756145 -180.084044 472.756145 -180.084044 C 472.756145 -180.084044 448.920384 -198.990154 434.109979 -203.102619 C 419.316538 -207.215084 394.649494 -211.327549 394.649494 -212.969728 Z M 394.649494 -212.969728 " transform="matrix(0.230254,0,0,0.278308,237.7905,183.19302)"/>
<path style="fill-rule:evenodd;fill:rgb(99.607843%,77.254902%,0%);fill-opacity:1;stroke-width:1.403;stroke-linecap:butt;stroke-linejoin:miter;stroke:rgb(42.745098%,40%,40%);stroke-opacity:1;stroke-miterlimit:4;" d="M 390.543975 -231.875838 C 393.003894 -231.875838 438.232463 -208.857263 452.211585 -197.347975 C 466.173743 -185.838688 471.941827 -171.031007 473.587428 -171.031007 C 475.233028 -171.031007 496.608871 -174.3294 495.777588 -174.3294 C 494.963271 -174.3294 485.92095 -203.930726 465.359425 -212.969728 C 444.7979 -222.00873 391.358293 -231.875838 390.543975 -231.875838 Z M 390.543975 -231.875838 " transform="matrix(0.230254,0,0,0.278308,237.7905,183.19302)"/>
<path style="fill-rule:evenodd;fill:rgb(99.607843%,77.254902%,0%);fill-opacity:1;stroke-width:1.403;stroke-linecap:butt;stroke-linejoin:miter;stroke:rgb(42.745098%,40%,40%);stroke-opacity:1;stroke-miterlimit:4;" d="M 603.488085 -296.010106 C 602.656802 -296.010106 594.428799 -271.349352 591.968881 -263.938493 C 589.508962 -256.54167 585.386478 -240.919918 585.386478 -240.919918 C 585.386478 -240.919918 549.217195 -237.63556 550.862796 -241.748025 C 552.508396 -245.86049 605.948003 -296.010106 603.488085 -296.010106 Z M 603.488085 -296.010106 " transform="matrix(0.230254,0,0,0.278308,237.7905,184.487402)"/>
<path style="fill-rule:evenodd;fill:rgb(99.607843%,77.254902%,0%);fill-opacity:1;stroke-width:1.403;stroke-linecap:butt;stroke-linejoin:miter;stroke:rgb(42.745098%,40%,40%);stroke-opacity:1;stroke-miterlimit:4;" d="M 398.755013 -261.477165 C 398.755013 -261.477165 441.506699 -232.703946 456.317104 -216.254086 C 471.110544 -199.818261 485.903985 -171.045042 486.735268 -171.045042 C 487.549585 -171.045042 527.027035 -179.255937 527.027035 -178.441865 C 527.027035 -177.613758 480.984148 -224.479016 458.777023 -238.45859 C 436.586862 -252.438163 399.586296 -259.834986 398.755013 -261.477165 Z M 398.755013 -261.477165 " transform="matrix(0.230254,0,0,0.278308,237.7905,183.19302)"/>
<path style="fill-rule:evenodd;fill:rgb(99.607843%,77.254902%,0%);fill-opacity:1;stroke-width:1.403;stroke-linecap:butt;stroke-linejoin:miter;stroke:rgb(42.745098%,40%,40%);stroke-opacity:1;stroke-miterlimit:4;" d="M 443.152299 -273.805602 C 443.152299 -273.805602 464.545107 -240.919918 468.650626 -229.41063 C 472.756145 -217.901342 485.089667 -188.300016 485.089667 -188.300016 L 518.799032 -188.300016 C 518.799032 -188.300016 502.359991 -225.298165 484.275349 -243.390204 C 466.173743 -261.482243 443.983582 -272.163423 443.152299 -273.805602 Z M 443.152299 -273.805602 " transform="matrix(0.230254,0,0,0.278308,237.7905,184.487402)"/>
<path style="fill-rule:evenodd;fill:rgb(99.607843%,77.254902%,0%);fill-opacity:1;stroke-width:1.403;stroke-linecap:butt;stroke-linejoin:miter;stroke:rgb(42.745098%,40%,40%);stroke-opacity:1;stroke-miterlimit:4;" d="M 454.654539 -291.897641 C 455.485821 -289.427355 485.903985 -260.654135 493.300705 -241.748025 C 500.697425 -222.841915 506.46551 -198.995232 506.46551 -198.995232 L 536.05239 -206.392055 C 536.05239 -206.392055 509.739746 -254.899492 493.300705 -268.050958 C 476.861664 -281.21646 456.300139 -290.255462 454.654539 -291.897641 Z M 454.654539 -291.897641 " transform="matrix(0.230254,0,0,0.278308,237.7905,184.487402)"/>
<path style="fill-rule:evenodd;fill:rgb(99.607843%,77.254902%,0%);fill-opacity:1;stroke-width:1.403;stroke-linecap:butt;stroke-linejoin:miter;stroke:rgb(42.745098%,40%,40%);stroke-opacity:1;stroke-miterlimit:4;" d="M 700.493695 -209.68537 C 700.493695 -209.68537 638.84305 -203.102619 616.635925 -197.347975 C 594.445764 -191.593332 582.112242 -170.216935 582.112242 -170.216935 C 582.112242 -170.216935 610.884805 -159.521719 612.530406 -161.177933 C 614.176006 -162.820112 631.429365 -180.084044 650.345289 -186.652759 C 669.261214 -193.23551 702.139295 -208.857263 700.493695 -209.68537 Z M 700.493695 -209.68537 " transform="matrix(0.230254,0,0,0.278308,237.7905,183.19302)"/>
<path style="fill-rule:evenodd;fill:rgb(99.607843%,77.254902%,0%);fill-opacity:1;stroke-width:1.403;stroke-linecap:butt;stroke-linejoin:miter;stroke:rgb(42.745098%,40%,40%);stroke-opacity:1;stroke-miterlimit:4;" d="M 698.033776 -249.967877 C 696.388176 -249.153806 647.054088 -208.857263 631.429365 -195.705797 C 615.804642 -182.55433 601.011201 -168.574756 599.365601 -167.746649 C 597.72 -166.932577 567.301837 -171.859114 568.947437 -173.501293 C 570.593038 -175.157507 614.159041 -210.499442 642.948569 -226.121195 C 671.721132 -241.742947 695.556893 -248.325698 698.033776 -249.967877 Z M 698.033776 -249.967877 " transform="matrix(0.230254,0,0,0.278308,237.7905,183.19302)"/>
<path style="fill-rule:evenodd;fill:rgb(99.607843%,77.254902%,0%);fill-opacity:1;stroke-width:1.403;stroke-linecap:butt;stroke-linejoin:miter;stroke:rgb(42.745098%,40%,40%);stroke-opacity:1;stroke-miterlimit:4;" d="M 685.700254 -278.755132 C 680.763453 -273.000488 632.260648 -233.532053 619.095843 -219.552479 C 605.948003 -205.572905 584.57216 -180.912151 584.57216 -180.912151 C 584.57216 -180.912151 559.090799 -192.421439 560.736399 -197.347975 C 562.365035 -202.288548 596.905682 -231.061767 621.572726 -247.511627 C 646.23977 -263.947451 688.160173 -277.112953 685.700254 -278.755132 Z M 685.700254 -278.755132 " transform="matrix(0.230254,0,0,0.278308,237.7905,183.19302)"/>
<path style="fill-rule:evenodd;fill:rgb(99.607843%,77.254902%,0%);fill-opacity:1;stroke-width:1.403;stroke-linecap:butt;stroke-linejoin:miter;stroke:rgb(42.745098%,40%,40%);stroke-opacity:1;stroke-miterlimit:4;" d="M 636.366167 -282.03949 C 635.551849 -281.211383 606.779286 -250.795985 601.011201 -242.571055 C 595.260082 -234.346125 577.989758 -198.176083 577.989758 -198.176083 C 577.989758 -198.176083 552.508396 -220.380586 552.508396 -221.194658 C 552.508396 -222.022765 584.57216 -255.736557 603.488085 -268.888023 C 622.387044 -282.03949 637.197449 -279.569204 636.366167 -282.03949 Z M 636.366167 -282.03949 " transform="matrix(0.230254,0,0,0.278308,237.7905,183.19302)"/>
<path style="fill-rule:evenodd;fill:rgb(99.607843%,77.254902%,0%);fill-opacity:1;stroke-width:1.403;stroke-linecap:butt;stroke-linejoin:miter;stroke:rgb(42.745098%,40%,40%);stroke-opacity:1;stroke-miterlimit:4;" d="M 565.096393 -241.776097 C 565.096393 -235.993381 560.3971 -231.305452 554.629016 -231.305452 C 548.843966 -231.305452 544.161639 -235.993381 544.161639 -241.776097 C 544.161639 -247.544776 548.843966 -252.232705 554.629016 -252.232705 C 560.3971 -252.232705 565.096393 -247.544776 565.096393 -241.776097 Z M 565.096393 -241.776097 " transform="matrix(0.230254,0,0,0.278308,237.7905,184.487402)"/>
<path style="fill-rule:evenodd;fill:rgb(99.607843%,77.254902%,0%);fill-opacity:1;stroke-width:1.403;stroke-linecap:butt;stroke-linejoin:miter;stroke:rgb(42.745098%,40%,40%);stroke-opacity:1;stroke-miterlimit:4;" d="M 586.014182 -227.810558 C 586.014182 -222.673486 581.331854 -218.504878 575.546805 -218.504878 C 569.77872 -218.504878 565.096393 -222.673486 565.096393 -227.810558 C 565.096393 -232.947631 569.77872 -237.116239 575.546805 -237.116239 C 581.331854 -237.116239 586.014182 -232.947631 586.014182 -227.810558 Z M 586.014182 -227.810558 " transform="matrix(0.230254,0,0,0.278308,237.7905,184.487402)"/>
<path style="fill-rule:evenodd;fill:rgb(99.607843%,77.254902%,0%);fill-opacity:1;stroke-width:1.403;stroke-linecap:butt;stroke-linejoin:miter;stroke:rgb(42.745098%,40%,40%);stroke-opacity:1;stroke-miterlimit:4;" d="M 539.513241 -238.281203 C 539.513241 -233.144131 533.779087 -228.975523 526.721665 -228.975523 C 519.664244 -228.975523 513.93009 -233.144131 513.93009 -238.281203 C 513.93009 -243.418275 519.664244 -247.586883 526.721665 -247.586883 C 533.779087 -247.586883 539.513241 -243.418275 539.513241 -238.281203 Z M 539.513241 -238.281203 " transform="matrix(0.230254,0,0,0.278308,237.7905,184.487402)"/>
<path style="fill-rule:evenodd;fill:rgb(99.607843%,77.254902%,0%);fill-opacity:1;stroke-width:1.403;stroke-linecap:butt;stroke-linejoin:miter;stroke:rgb(42.745098%,40%,40%);stroke-opacity:1;stroke-miterlimit:4;" d="M 573.222606 -219.094378 C 573.222606 -209.143055 566.725028 -201.072518 558.700605 -201.072518 C 550.676181 -201.072518 544.161639 -209.143055 544.161639 -219.094378 C 544.161639 -229.045701 550.676181 -237.116239 558.700605 -237.116239 C 566.725028 -237.116239 573.222606 -229.045701 573.222606 -219.094378 Z M 573.222606 -219.094378 " transform="matrix(0.230254,0,0,0.278308,237.7905,184.487402)"/>
<path style="fill-rule:evenodd;fill:rgb(99.607843%,77.254902%,0%);fill-opacity:1;stroke-width:1.403;stroke-linecap:butt;stroke-linejoin:miter;stroke:rgb(42.745098%,40%,40%);stroke-opacity:1;stroke-miterlimit:4;" d="M 533.694262 -218.504878 C 533.694262 -210.79927 527.196684 -204.553376 519.172261 -204.553376 C 511.130872 -204.553376 504.633295 -210.79927 504.633295 -218.504878 C 504.633295 -226.210487 511.130872 -232.456381 519.172261 -232.456381 C 527.196684 -232.456381 533.694262 -226.210487 533.694262 -218.504878 Z M 533.694262 -218.504878 " transform="matrix(0.230254,0,0,0.278308,237.7905,184.487402)"/>
<path style="fill-rule:evenodd;fill:rgb(99.607843%,77.254902%,0%);fill-opacity:1;stroke-width:1.403;stroke-linecap:butt;stroke-linejoin:miter;stroke:rgb(42.745098%,40%,40%);stroke-opacity:1;stroke-miterlimit:4;" d="M 513.93009 -207.458769 C 513.93009 -200.721625 508.976323 -195.247696 502.885904 -195.247696 C 496.778521 -195.247696 491.841719 -200.721625 491.841719 -207.458769 C 491.841719 -214.195913 496.778521 -219.669843 502.885904 -219.669843 C 508.976323 -219.669843 513.93009 -214.209949 513.93009 -207.458769 Z M 513.93009 -207.458769 " transform="matrix(0.230254,0,0,0.278308,237.7905,184.487402)"/>
<path style="fill-rule:evenodd;fill:rgb(99.607843%,77.254902%,0%);fill-opacity:1;stroke-width:1.403;stroke-linecap:butt;stroke-linejoin:miter;stroke:rgb(42.745098%,40%,40%);stroke-opacity:1;stroke-miterlimit:4;" d="M 595.327942 -208.623734 C 595.327942 -200.609339 587.778537 -194.096767 578.464777 -194.096767 C 569.151017 -194.096767 561.601612 -200.609339 561.601612 -208.623734 C 561.601612 -216.652164 569.151017 -223.164736 578.464777 -223.164736 C 587.778537 -223.164736 595.327942 -216.652164 595.327942 -208.623734 Z M 595.327942 -208.623734 " transform="matrix(0.230254,0,0,0.278308,237.7905,184.487402)"/>
<path style="fill-rule:evenodd;fill:rgb(99.607843%,77.254902%,0%);fill-opacity:1;stroke-width:1.403;stroke-linecap:butt;stroke-linejoin:miter;stroke:rgb(42.745098%,40%,40%);stroke-opacity:1;stroke-miterlimit:4;" d="M 554.629016 -229.565023 C 554.629016 -224.750772 548.640387 -220.834807 541.260632 -220.834807 C 533.880876 -220.834807 527.892247 -224.750772 527.892247 -229.565023 C 527.892247 -234.379274 533.880876 -238.281203 541.260632 -238.281203 C 548.640387 -238.281203 554.629016 -234.379274 554.629016 -229.565023 Z M 554.629016 -229.565023 " transform="matrix(0.230254,0,0,0.278308,237.7905,184.487402)"/>
<path style="fill-rule:evenodd;fill:rgb(99.607843%,77.254902%,0%);fill-opacity:1;stroke-width:1.403;stroke-linecap:butt;stroke-linejoin:miter;stroke:rgb(42.745098%,40%,40%);stroke-opacity:1;stroke-miterlimit:4;" d="M 556.953214 -210.364163 C 556.953214 -203.304197 548.623422 -197.577625 538.342659 -197.577625 C 528.078862 -197.577625 519.749069 -203.304197 519.749069 -210.364163 C 519.749069 -217.438164 528.078862 -223.164736 538.342659 -223.164736 C 548.623422 -223.164736 556.953214 -217.438164 556.953214 -210.364163 Z M 556.953214 -210.364163 " transform="matrix(0.230254,0,0,0.278308,237.7905,184.487402)"/>
<path style="fill-rule:evenodd;fill:rgb(99.607843%,77.254902%,0%);fill-opacity:1;stroke-width:1.403;stroke-linecap:butt;stroke-linejoin:miter;stroke:rgb(42.745098%,40%,40%);stroke-opacity:1;stroke-miterlimit:4;" d="M 604.624737 -187.69648 C 604.624737 -179.036443 596.803893 -172.004549 587.184763 -172.004549 C 577.548669 -172.004549 569.74479 -179.036443 569.74479 -187.69648 C 569.74479 -196.370553 577.548669 -203.402447 587.184763 -203.402447 C 596.803893 -203.402447 604.624737 -196.370553 604.624737 -187.69648 Z M 604.624737 -187.69648 " transform="matrix(0.230254,0,0,0.278308,237.7905,184.487402)"/>
<path style="fill-rule:evenodd;fill:rgb(99.607843%,77.254902%,0%);fill-opacity:1;stroke-width:1.403;stroke-linecap:butt;stroke-linejoin:miter;stroke:rgb(42.745098%,40%,40%);stroke-opacity:1;stroke-miterlimit:4;" d="M 509.281692 -191.766838 C 509.281692 -185.984123 504.853839 -181.310229 499.391124 -181.310229 C 493.945373 -181.310229 489.51752 -185.984123 489.51752 -191.766838 C 489.51752 -197.549553 493.945373 -202.237483 499.391124 -202.237483 C 504.853839 -202.237483 509.281692 -197.549553 509.281692 -191.766838 Z M 509.281692 -191.766838 " transform="matrix(0.230254,0,0,0.278308,237.7905,184.487402)"/>
<path style="fill-rule:evenodd;fill:rgb(99.607843%,77.254902%,0%);fill-opacity:1;stroke-width:1.403;stroke-linecap:butt;stroke-linejoin:miter;stroke:rgb(42.745098%,40%,40%);stroke-opacity:1;stroke-miterlimit:4;" d="M 579.041585 -193.507267 C 579.041585 -186.12448 572.272568 -180.131229 563.925811 -180.131229 C 555.579053 -180.131229 548.810036 -186.12448 548.810036 -193.507267 C 548.810036 -200.890054 555.579053 -206.883305 563.925811 -206.883305 C 572.272568 -206.883305 579.041585 -200.890054 579.041585 -193.507267 Z M 579.041585 -193.507267 " transform="matrix(0.230254,0,0,0.278308,237.7905,184.487402)"/>
<path style="fill-rule:evenodd;fill:rgb(99.607843%,77.254902%,0%);fill-opacity:1;stroke-width:1.403;stroke-linecap:butt;stroke-linejoin:miter;stroke:rgb(42.745098%,40%,40%);stroke-opacity:1;stroke-miterlimit:4;" d="M 531.370063 -194.096767 C 531.370063 -187.668409 525.381434 -182.461158 518.001679 -182.461158 C 510.621924 -182.461158 504.633295 -187.668409 504.633295 -194.096767 C 504.633295 -200.511089 510.621924 -205.71834 518.001679 -205.71834 C 525.381434 -205.71834 531.370063 -200.511089 531.370063 -194.096767 Z M 531.370063 -194.096767 " transform="matrix(0.230254,0,0,0.278308,237.7905,184.487402)"/>
<path style="fill-rule:evenodd;fill:rgb(99.607843%,77.254902%,0%);fill-opacity:1;stroke-width:1.403;stroke-linecap:butt;stroke-linejoin:miter;stroke:rgb(42.745098%,40%,40%);stroke-opacity:1;stroke-miterlimit:4;" d="M 554.629016 -190.615909 C 554.629016 -183.541908 548.385912 -177.815335 540.683823 -177.815335 C 532.964769 -177.815335 526.721665 -183.541908 526.721665 -190.615909 C 526.721665 -197.675875 532.964769 -203.402447 540.683823 -203.402447 C 548.385912 -203.402447 554.629016 -197.675875 554.629016 -190.615909 Z M 554.629016 -190.615909 " transform="matrix(0.230254,0,0,0.278308,237.7905,184.487402)"/>
<path style="fill-rule:evenodd;fill:rgb(99.607843%,77.254902%,0%);fill-opacity:1;stroke-width:1.403;stroke-linecap:butt;stroke-linejoin:miter;stroke:rgb(42.745098%,40%,40%);stroke-opacity:1;stroke-miterlimit:4;" d="M 494.165918 -267.349172 C 497.643733 -267.349172 522.073268 -259.208457 522.073268 -259.208457 C 522.073268 -259.208457 491.841719 -247.586883 496.490116 -248.751848 C 501.138514 -249.902776 530.199481 -253.39767 527.875282 -253.39767 C 525.551084 -253.39767 502.292131 -231.305452 509.281692 -232.470416 C 516.254289 -233.635381 530.199481 -247.586883 531.370063 -247.586883 C 532.52368 -247.586883 546.485838 -225.494665 547.639454 -226.65963 C 548.810036 -227.810558 547.639454 -248.751848 548.810036 -248.751848 C 549.963653 -248.751848 577.871003 -234.78631 575.546805 -235.951274 C 573.222606 -237.116239 556.953214 -253.39767 558.106831 -253.39767 C 559.277413 -253.39767 596.481559 -249.902776 594.15736 -251.067741 C 591.833161 -252.232705 569.74479 -262.70335 569.74479 -262.70335 C 569.74479 -262.70335 586.014182 -277.819817 582.536366 -277.819817 C 579.041585 -277.819817 552.304817 -262.70335 554.629016 -263.868315 C 556.953214 -265.019243 583.689983 -295.252177 583.689983 -295.252177 L 556.953214 -282.465639 C 556.953214 -282.465639 561.601612 -301.062964 559.277413 -299.912035 C 556.953214 -298.747071 538.342659 -275.489888 537.189042 -275.489888 C 536.018461 -275.489888 531.370063 -298.747071 531.370063 -298.747071 C 531.370063 -298.747071 532.52368 -273.159959 525.551084 -271.994995 C 518.578487 -270.844066 494.165918 -266.184208 494.165918 -267.349172 Z M 494.165918 -267.349172 " transform="matrix(0.230254,0,0,0.278308,237.7905,184.487402)"/>
<path style=" stroke:none;fill-rule:evenodd;fill:rgb(0%,21.960784%,60.784314%);fill-opacity:1;" d="M 334.132812 162.402344 C 334.265625 163.050781 338.550781 174.699219 345.109375 174.375 C 351.667969 174.050781 354.34375 172.109375 354.078125 171.949219 C 353.808594 171.785156 351 169.84375 349.390625 165.636719 C 347.785156 161.429688 347.519531 159.652344 347.519531 159.652344 Z M 334.132812 162.402344 "/>
<path style=" stroke:none;fill-rule:evenodd;fill:rgb(0%,21.960784%,60.784314%);fill-opacity:1;" d="M 357.558594 157.871094 C 357.558594 157.871094 362.375 169.359375 364.519531 170.976562 C 366.660156 172.59375 371.613281 173.890625 373.753906 173.726562 C 375.898438 173.566406 378.441406 173.726562 378.441406 173.726562 C 378.441406 173.726562 376.296875 172.59375 374.558594 166.285156 C 372.816406 159.976562 372.28125 157.871094 372.28125 157.871094 Z M 357.558594 157.871094 "/>
<path style=" stroke:none;fill-rule:evenodd;fill:rgb(0%,21.960784%,60.784314%);fill-opacity:1;" d="M 387.007812 162.078125 C 387.007812 162.078125 386.070312 170.492188 387.007812 172.59375 C 387.945312 174.699219 392.628906 178.582031 392.628906 178.582031 C 392.628906 178.582031 398.25 177.773438 398.386719 172.59375 C 398.519531 167.417969 396.511719 162.5625 396.511719 162.5625 Z M 387.007812 162.078125 "/>
<path style="fill-rule:evenodd;fill:rgb(0%,31.764706%,12.54902%);fill-opacity:1;stroke-width:1.403;stroke-linecap:butt;stroke-linejoin:miter;stroke:rgb(0%,0%,0%);stroke-opacity:1;stroke-miterlimit:4;" d="M 288.933447 21.018052 C 288.933447 21.018052 290.104029 25.663875 288.933447 29.158768 C 287.77983 32.639626 277.889262 41.945306 277.889262 49.496522 C 277.889262 57.061773 289.52722 80.318955 324.983975 80.89442 C 360.44073 81.48392 405.211245 61.707595 404.634437 61.132131 C 404.057628 60.542631 319.758769 4.161157 318.588187 4.736621 C 317.434571 5.312085 288.950412 22.183017 288.950412 21.018052 Z M 288.933447 21.018052 " transform="matrix(0.230254,0,0,0.278308,263.05002,141.50598)"/>
<path style="fill-rule:evenodd;fill:rgb(0%,31.764706%,12.54902%);fill-opacity:1;stroke-width:1.403;stroke-linecap:butt;stroke-linejoin:miter;stroke:rgb(0%,0%,0%);stroke-opacity:1;stroke-miterlimit:4;" d="M 523.236434 61.132131 C 523.236434 61.132131 530.785839 81.48392 533.686846 83.799813 C 536.604818 86.129742 537.758435 90.775564 538.352209 90.775564 C 538.929017 90.775564 587.177348 101.246209 587.177348 101.246209 C 587.177348 101.246209 591.825745 87.870171 584.853149 77.413562 C 577.880553 66.942917 551.720593 39.615377 551.720593 39.615377 L 523.219469 61.132131 Z M 523.236434 61.132131 " transform="matrix(0.230254,0,0,0.278308,263.05002,141.50598)"/>
<path style="fill-rule:evenodd;fill:rgb(0%,31.764706%,12.54902%);fill-opacity:1;stroke-width:1.403;stroke-linecap:butt;stroke-linejoin:miter;stroke:rgb(0%,0%,0%);stroke-opacity:1;stroke-miterlimit:4;" d="M 556.36899 36.134519 C 557.539572 36.134519 569.160566 46.015664 578.457361 40.780341 C 587.771121 35.545019 602.886896 21.593517 602.886896 21.593517 C 602.886896 21.593517 590.09532 25.663875 580.78156 25.08841 C 571.484765 24.49891 556.945799 36.709984 556.36899 36.134519 Z M 556.36899 36.134519 " transform="matrix(0.230254,0,0,0.278308,263.05002,141.50598)"/>
<path style="fill-rule:evenodd;fill:rgb(0%,31.764706%,12.54902%);fill-opacity:1;stroke-width:1.403;stroke-linecap:butt;stroke-linejoin:miter;stroke:rgb(0%,0%,0%);stroke-opacity:1;stroke-miterlimit:4;" d="M 287.203022 23.333946 C 287.203022 23.333946 283.708241 13.452801 274.411446 12.877337 C 265.114651 12.287837 248.251486 14.042301 242.432507 9.382443 C 236.613527 4.736621 234.883102 -6.309488 231.96513 -5.734024 C 229.064122 -5.144524 221.497753 -5.734024 220.920944 -5.734024 C 220.344136 -5.734024 217.443128 -15.025668 225.569342 -19.685526 C 233.71252 -24.331348 240.685116 -20.26099 245.333514 -23.755884 C 249.998876 -27.236742 256.971473 -29.566671 266.268268 -30.142135 C 275.565063 -30.731635 290.680837 -18.520562 297.670399 -15.615168 C 304.642995 -12.709775 319.758769 -9.214881 325.577749 -12.120275 C 331.379763 -15.025668 363.935511 -27.826242 375.57347 -28.401706 C 387.194464 -28.977171 411.607033 -29.566671 420.920793 -28.977171 C 430.217588 -28.401706 466.844925 -23.755884 477.889111 -18.520562 C 488.933296 -13.285239 547.649004 7.06655 555.792182 11.712372 C 563.93536 16.358194 581.952142 23.333946 581.952142 23.333946 C 581.952142 23.333946 549.973202 54.731844 534.280619 59.967166 C 518.588037 65.202489 468.592315 73.343204 438.937575 71.58874 C 409.282834 69.848311 386.040847 66.942917 363.358702 55.307308 C 340.676558 43.685735 316.263989 32.639626 315.093407 26.828839 C 313.93979 21.018052 314.516598 13.452801 314.516598 13.452801 Z M 287.203022 23.333946 " transform="matrix(0.230254,0,0,0.278308,263.05002,141.50598)"/>
<path style="fill-rule:evenodd;fill:rgb(0%,31.764706%,12.54902%);fill-opacity:1;stroke-width:1.403;stroke-linecap:butt;stroke-linejoin:miter;stroke:rgb(0%,0%,0%);stroke-opacity:1;stroke-miterlimit:4;" d="M 251.152493 -14.450204 C 249.981911 -13.860704 244.179897 -11.54481 245.333514 -10.379846 C 246.504096 -9.214881 248.828294 -5.734024 255.800891 -6.309488 C 262.773487 -6.884952 270.339857 -10.95531 270.339857 -10.95531 C 270.339857 -10.95531 261.61987 -15.025668 251.152493 -14.450204 Z M 251.152493 -14.450204 " transform="matrix(0.230254,0,0,0.278308,263.05002,141.50598)"/>
<path style="fill-rule:evenodd;fill:rgb(0%,0%,0%);fill-opacity:1;stroke-width:1.403;stroke-linecap:butt;stroke-linejoin:miter;stroke:rgb(0%,0%,0%);stroke-opacity:1;stroke-miterlimit:4;" d="M 250.575685 -13.285239 L 250.575685 -6.884952 C 250.575685 -6.884952 258.701898 -4.569059 258.701898 -6.309488 C 258.701898 -8.049917 259.295671 -12.120275 257.548281 -12.120275 C 255.800891 -12.120275 251.152493 -12.709775 250.575685 -13.285239 Z M 250.575685 -13.285239 " transform="matrix(0.230254,0,0,0.278308,263.05002,141.50598)"/>
<path style="fill-rule:evenodd;fill:rgb(0%,9.019608%,2.745098%);fill-opacity:1;stroke-width:1.403;stroke-linecap:butt;stroke-linejoin:miter;stroke:rgb(0%,0%,2.745098%);stroke-opacity:1;stroke-miterlimit:4;" d="M 331.956572 -8.456953 C 334.009331 -12.148346 331.956572 -17.088919 343.86597 -22.843562 C 355.792333 -28.598206 376.557437 -26.956027 376.557437 -26.956027 C 376.557437 -26.956027 370.585773 -22.436527 370.382194 -17.70649 C 370.178614 -12.976454 370.806318 -10.913203 370.806318 -10.913203 C 370.806318 -10.913203 359.490693 -14.618632 350.855531 -12.358882 C 342.220369 -10.099132 332.160151 -7.839381 331.956572 -8.456953 Z M 331.956572 -8.456953 " transform="matrix(0.230254,0,0,0.278308,263.05002,141.50598)"/>
<path style="fill-rule:evenodd;fill:rgb(0%,9.019608%,2.745098%);fill-opacity:1;stroke-width:1.403;stroke-linecap:butt;stroke-linejoin:miter;stroke:rgb(0%,0%,2.745098%);stroke-opacity:1;stroke-miterlimit:4;" d="M 385.396178 -28.598206 C 384.174702 -27.980635 375.115416 -17.90299 376.150278 -14.829168 C 377.18514 -11.74131 389.298118 -4.344488 393.217022 -4.962059 C 397.118962 -5.579631 415.000024 -14.211597 416.017921 -18.520562 C 417.052784 -22.843562 417.884066 -28.598206 416.442045 -29.833349 C 415.000024 -31.068492 385.599758 -28.19117 385.396178 -28.598206 Z M 385.396178 -28.598206 " transform="matrix(0.230254,0,0,0.278308,263.05002,141.50598)"/>
<path style="fill-rule:evenodd;fill:rgb(0%,9.019608%,2.745098%);fill-opacity:1;stroke-width:1.403;stroke-linecap:butt;stroke-linejoin:miter;stroke:rgb(0%,0%,2.745098%);stroke-opacity:1;stroke-miterlimit:4;" d="M 424.653083 -30.240385 C 422.396744 -27.980635 423.228027 -17.088919 424.042345 -15.853775 C 424.856663 -14.618632 439.05633 -0.442558 442.126986 0.385549 C 445.214608 1.213656 468.032472 -1.046094 469.881652 -3.51638 C 471.730832 -5.986667 477.278372 -16.471347 475.632772 -18.941633 C 473.987171 -21.397884 469.050369 -24.696277 453.84977 -27.980635 C 438.632206 -31.264992 429.589885 -30.857957 424.653083 -30.240385 Z M 424.653083 -30.240385 " transform="matrix(0.230254,0,0,0.278308,263.05002,141.50598)"/>
<path style="fill-rule:evenodd;fill:rgb(0%,9.019608%,2.745098%);fill-opacity:1;stroke-width:1.403;stroke-linecap:butt;stroke-linejoin:miter;stroke:rgb(0%,0%,2.745098%);stroke-opacity:1;stroke-miterlimit:4;" d="M 482.825912 -16.471347 C 486.524272 -14.618632 508.103695 -4.133952 520.844375 4.287478 C 533.585056 12.722944 538.725438 22.379517 542.423798 23.207624 C 546.122158 24.021696 561.136143 14.982694 561.746881 12.512408 C 562.357619 10.042122 543.45866 -3.109345 530.717979 -9.074524 C 517.960333 -15.025668 482.825912 -15.853775 482.825912 -16.471347 Z M 482.825912 -16.471347 " transform="matrix(0.230254,0,0,0.278308,263.05002,141.50598)"/>
<path style="fill-rule:evenodd;fill:rgb(0%,9.019608%,2.745098%);fill-opacity:1;stroke-width:1.403;stroke-linecap:butt;stroke-linejoin:miter;stroke:rgb(0%,0%,2.745098%);stroke-opacity:1;stroke-miterlimit:4;" d="M 478.296269 -7.628845 C 476.447089 -5.986667 501.317713 37.383698 506.050935 38.829377 C 510.784157 40.26102 539.132596 30.393911 538.725438 27.109553 C 538.318279 23.825196 530.921558 17.242445 513.447655 7.585871 C 495.973752 -2.084737 481.808015 -8.456953 478.296269 -7.628845 Z M 478.296269 -7.628845 " transform="matrix(0.230254,0,0,0.278308,263.05002,141.50598)"/>
<path style="fill-rule:evenodd;fill:rgb(0%,9.019608%,2.745098%);fill-opacity:1;stroke-width:1.403;stroke-linecap:butt;stroke-linejoin:miter;stroke:rgb(0%,0%,2.745098%);stroke-opacity:1;stroke-miterlimit:4;" d="M 447.470947 8.189407 C 443.569008 10.463193 437.393764 49.300022 441.295704 51.152736 C 445.214608 53.005451 493.310254 46.4227 495.159434 42.113735 C 497.008614 37.790734 475.429192 3.473406 469.050369 3.473406 C 462.688511 3.473406 451.169307 5.115585 447.470947 8.203443 Z M 447.470947 8.189407 " transform="matrix(0.230254,0,0,0.278308,263.05002,141.50598)"/>
<path style="fill-rule:evenodd;fill:rgb(0%,9.019608%,2.745098%);fill-opacity:1;stroke-width:1.403;stroke-linecap:butt;stroke-linejoin:miter;stroke:rgb(0%,0%,2.745098%);stroke-opacity:1;stroke-miterlimit:4;" d="M 397.7297 -0.021487 C 392.589319 4.70855 393.624181 40.878591 395.88052 43.138342 C 398.136859 45.398092 426.705843 52.794915 429.793464 50.128129 C 432.881086 47.461343 436.986605 6.757764 434.102563 3.669906 C 431.235486 0.596085 423.211062 -6.814774 417.052784 -7.41831 C 410.87754 -8.035881 400.613743 -1.467166 397.7297 -0.021487 Z M 397.7297 -0.021487 " transform="matrix(0.230254,0,0,0.278308,263.05002,141.50598)"/>
<path style="fill-rule:evenodd;fill:rgb(0%,9.019608%,2.745098%);fill-opacity:1;stroke-width:1.403;stroke-linecap:butt;stroke-linejoin:miter;stroke:rgb(0%,0%,2.745098%);stroke-opacity:1;stroke-miterlimit:4;" d="M 333.195013 -0.639059 C 328.461791 3.052335 328.258212 12.722944 333.398593 14.365123 C 338.538974 16.007301 351.279655 21.55141 363.206018 26.702518 C 375.115416 31.83959 381.901398 38.00127 385.396178 37.790734 C 388.890959 37.594234 392.18216 1.410156 388.4838 -0.639059 C 384.78544 -2.702309 373.893939 -4.344488 363.613177 -3.937452 C 353.332414 -3.51638 338.335395 -2.491773 333.195013 -0.639059 Z M 333.195013 -0.639059 " transform="matrix(0.230254,0,0,0.278308,263.05002,141.50598)"/>
<path style=" stroke:none;fill-rule:evenodd;fill:rgb(83.137255%,5.882353%,5.882353%);fill-opacity:0.996078;" d="M 290.980469 269.402344 C 292.925781 267.511719 295.945312 262.890625 300.042969 262.679688 C 304.140625 262.46875 308.457031 266.25 308.457031 266.25 C 308.457031 266.25 312.773438 283.894531 312.554688 283.894531 C 312.339844 283.894531 305.4375 288.9375 305.222656 288.9375 C 305.003906 288.9375 302.199219 282.003906 299.613281 282.636719 C 297.023438 283.265625 297.238281 292.71875 296.808594 292.089844 C 296.375 291.457031 285.375 278.433594 285.804688 278.015625 C 286.238281 277.59375 291.199219 270.03125 290.984375 269.402344 Z M 290.980469 269.402344 "/>
<path style=" stroke:none;fill-rule:evenodd;fill:rgb(83.137255%,5.882353%,5.882353%);fill-opacity:0.996078;" d="M 404.898438 267.089844 C 406.195312 266.878906 412.019531 262.46875 416.117188 262.679688 C 420.21875 262.886719 422.589844 264.777344 424.746094 266.667969 C 426.90625 268.558594 429.492188 273.390625 429.492188 273.390625 C 429.492188 273.390625 424.316406 287.675781 423.886719 287.675781 C 423.453125 287.675781 421.296875 288.9375 420.863281 287.886719 C 420.433594 286.835938 419.140625 283.472656 416.550781 283.054688 C 413.960938 282.632812 413.3125 287.675781 413.3125 287.675781 Z M 404.898438 267.089844 "/>
<path style=" stroke:none;fill-rule:evenodd;fill:rgb(99.215686%,86.27451%,34.901961%);fill-opacity:0.996078;" d="M 407.703125 271.503906 C 407.703125 272.765625 415.683594 292.511719 428.628906 296.292969 C 441.574219 300.074219 445.671875 292.722656 447.183594 290.203125 C 448.691406 287.679688 454.085938 287.890625 454.085938 287.890625 C 454.085938 287.890625 452.792969 306.375 450.636719 308.6875 C 448.476562 310.996094 446.75 316.039062 434.671875 316.25 C 422.589844 316.457031 411.585938 304.90625 407.917969 301.542969 C 404.25 298.183594 399.503906 289.363281 397.5625 285.371094 C 395.621094 281.378906 407.917969 271.925781 407.703125 271.503906 Z M 407.703125 271.503906 "/>
<path style=" stroke:none;fill-rule:evenodd;fill:rgb(99.215686%,86.27451%,34.901961%);fill-opacity:0.996078;" d="M 267.035156 310.78125 C 267.25 310.78125 272.859375 316.871094 281.058594 316.242188 C 289.257812 315.613281 303.28125 310.78125 309.753906 302.378906 C 316.222656 293.976562 319.460938 284.941406 319.460938 284.941406 C 319.460938 284.941406 309.96875 268.136719 309.753906 268.136719 C 309.535156 268.136719 308.671875 273.601562 306.949219 277.171875 C 305.222656 280.742188 300.476562 290.824219 292.492188 293.976562 C 284.511719 297.128906 284.511719 298.386719 281.273438 297.96875 C 278.039062 297.546875 269.625 292.503906 269.625 292.296875 C 269.625 292.085938 265.527344 302.167969 265.527344 302.167969 C 265.527344 302.167969 264.664062 308.679688 267.035156 310.78125 Z M 267.035156 310.78125 "/>
<path style=" stroke:none;fill-rule:evenodd;fill:rgb(99.215686%,86.27451%,34.901961%);fill-opacity:0.996078;" d="M 290.835938 268.816406 C 290.226562 268.816406 274.972656 277.136719 275.582031 280.699219 C 276.191406 284.265625 301.820312 334.765625 356.734375 335.359375 C 411.652344 335.957031 445.21875 289.613281 442.773438 281.886719 C 440.335938 274.164062 423.25 265.253906 423.25 265.253906 C 423.25 265.253906 427.519531 268.816406 426.910156 273.570312 C 426.300781 278.324219 407.382812 319.320312 359.789062 318.132812 C 312.191406 316.945312 289.613281 280.703125 289.613281 276.542969 C 289.613281 272.382812 292.054688 270.007812 290.835938 268.816406 Z M 290.835938 268.816406 "/>
<path style=" stroke:none;fill-rule:evenodd;fill:rgb(83.137255%,5.882353%,5.882353%);fill-opacity:0.996078;" d="M 439.628906 305.535156 C 440.921875 304.484375 448.90625 282.636719 453.4375 283.269531 C 457.96875 283.898438 456.457031 290.410156 456.027344 292.089844 C 455.59375 293.773438 451.0625 308.894531 451.0625 308.894531 C 451.0625 308.894531 451.28125 305.324219 448.257812 304.484375 C 445.238281 303.644531 440.277344 305.957031 439.628906 305.535156 Z M 439.628906 305.535156 "/>
<path style=" stroke:none;fill-rule:evenodd;fill:rgb(83.137255%,5.882353%,5.882353%);fill-opacity:0.996078;" d="M 267.035156 311.003906 C 267.035156 309.816406 263.375 305.65625 267.644531 304.46875 C 271.917969 303.28125 277.410156 305.65625 277.410156 305.65625 C 277.410156 305.65625 274.359375 296.742188 270.699219 289.613281 C 267.035156 282.484375 265.816406 283.675781 262.765625 284.863281 C 259.714844 286.050781 259.789062 289.195312 261.617188 293.949219 C 263.449219 298.699219 267.035156 312.191406 267.035156 311.003906 Z M 267.035156 311.003906 "/>
<path style=" stroke:none;fill-rule:evenodd;fill:rgb(99.215686%,76.862745%,0%);fill-opacity:1;" d="M 317.382812 270.261719 L 322.679688 252.316406 L 307.96875 241.039062 L 326.394531 240.613281 L 332.402344 222.910156 L 338.496094 240.585938 L 356.917969 240.925781 L 342.257812 252.273438 L 347.636719 270.1875 L 332.484375 259.527344 Z M 317.382812 270.261719 "/>
<path style=" stroke:none;fill-rule:evenodd;fill:rgb(100%,100%,100%);fill-opacity:1;" d="M 416.726562 176.875 L 416.726562 245.90625 C 416.863281 279.640625 382.460938 309.183594 359.617188 314.933594 C 336.773438 309.183594 302.371094 279.640625 302.507812 245.90625 L 302.507812 176.878906 L 416.726562 176.878906 Z M 416.726562 176.875 "/>
<path style="fill-rule:evenodd;fill:rgb(83.137255%,5.882353%,5.882353%);fill-opacity:0.996078;stroke-width:1.403;stroke-linecap:butt;stroke-linejoin:miter;stroke:rgb(0%,0%,0%);stroke-opacity:1;stroke-miterlimit:4;" d="M 177.153023 325.98077 L 177.577147 486.713601 C 177.577147 486.713601 179.969205 483.428295 212.592813 485.41983 C 245.21642 487.425901 248.032603 520.860423 283.455428 520.860423 C 318.895218 520.860423 318.895218 485.41983 354.318043 485.41983 C 389.757833 485.41983 389.757833 520.860423 425.197623 520.860423 C 460.620448 520.860423 460.620448 485.41983 496.060238 485.41983 C 531.483063 485.41983 531.483063 520.860423 568.924718 522.881031 C 602.362643 520.860423 602.362643 485.41983 637.989048 483.428295 L 673.225258 485.41983 L 673.225258 325.98077 Z M 177.153023 325.98077 " transform="matrix(0.230254,0,0,0.268716,261.7137,89.278908)"/>
<path style=" stroke:none;fill-rule:evenodd;fill:rgb(0%,38.431373%,73.333333%);fill-opacity:0.996078;" d="M 302.503906 234.003906 L 302.503906 248.285156 L 310.664062 248.285156 C 318.175781 248.824219 318.824219 257.808594 326.980469 257.808594 C 335.140625 257.808594 335.140625 248.285156 343.296875 248.285156 C 351.457031 248.285156 351.457031 257.808594 359.617188 257.808594 C 367.773438 257.808594 367.773438 248.285156 375.933594 248.285156 C 384.089844 248.285156 383.628906 257.261719 392.25 257.808594 C 399.949219 257.261719 400.363281 248.824219 408.566406 248.285156 L 416.726562 248.285156 L 416.726562 234.003906 L 408.566406 234.003906 C 400.410156 234.003906 400.410156 243.527344 392.25 243.527344 C 384.089844 243.527344 384.089844 234.003906 375.933594 234.003906 C 367.773438 234.003906 367.773438 243.527344 359.617188 243.527344 C 351.457031 243.527344 351.457031 234.003906 343.296875 234.003906 C 335.140625 234.003906 335.140625 243.527344 326.980469 243.527344 C 318.824219 243.527344 318.824219 234.003906 310.664062 234.003906 Z M 302.503906 234.003906 "/>
<path style=" stroke:none;fill-rule:evenodd;fill:rgb(0%,38.431373%,73.333333%);fill-opacity:0.996078;" d="M 304.96875 262.566406 L 310.664062 276.847656 C 318.175781 277.386719 318.824219 286.371094 326.980469 286.371094 C 335.140625 286.371094 335.140625 276.847656 343.300781 276.847656 C 351.457031 276.847656 351.457031 286.371094 359.617188 286.371094 C 367.773438 286.371094 367.773438 276.847656 375.933594 276.847656 C 384.09375 276.847656 383.628906 285.824219 392.25 286.371094 C 399.949219 285.824219 400.175781 277.386719 408.378906 276.847656 L 414.265625 262.34375 L 408.566406 262.566406 C 400.410156 262.566406 400.410156 272.085938 392.25 272.085938 C 384.09375 272.085938 384.09375 262.566406 375.933594 262.566406 C 367.773438 262.566406 367.773438 272.085938 359.617188 272.085938 C 351.457031 272.085938 351.457031 262.566406 343.300781 262.566406 C 335.140625 262.566406 335.140625 272.085938 326.980469 272.085938 C 318.824219 272.085938 318.824219 262.566406 310.664062 262.566406 Z M 304.96875 262.566406 "/>
<path style=" stroke:none;fill-rule:evenodd;fill:rgb(0%,38.431373%,73.333333%);fill-opacity:0.996078;" d="M 359.617188 314.933594 C 367.777344 314.933594 386.46875 300.652344 386.277344 300.652344 C 386.46875 300.652344 384.09375 291.128906 375.933594 291.128906 C 367.777344 291.128906 367.777344 300.652344 359.617188 300.652344 C 351.457031 300.652344 351.457031 291.128906 343.300781 291.128906 C 335.140625 291.128906 333.058594 300.652344 333.039062 300.652344 C 332.660156 300.652344 351.457031 314.933594 359.617188 314.933594 Z M 359.617188 314.933594 "/>
<path style="fill-rule:evenodd;fill:rgb(99.215686%,76.862745%,0%);fill-opacity:0.996078;stroke-width:0.70149;stroke-linecap:butt;stroke-linejoin:miter;stroke:rgb(0%,0%,0%);stroke-opacity:1;stroke-miterlimit:4;" d="M 90.848764 117.56933 C 91.671424 117.56933 99.071897 118.802194 104.413983 118.391239 C 109.75954 117.980284 111.814456 115.925511 111.814456 115.514556 L 111.814456 114.281692 L 118.801863 114.281692 C 118.801863 114.281692 120.034118 120.035058 119.211457 120.446013 C 118.392268 120.856967 116.333881 122.504776 115.924287 122.504776 C 115.514692 122.504776 115.924287 119.624103 115.101626 120.446013 C 114.278966 121.267922 113.869371 122.504776 113.869371 122.504776 C 113.869371 122.504776 113.046711 121.267922 112.637116 121.267922 C 112.22405 121.267922 111.40139 122.504776 111.40139 122.504776 C 111.40139 122.504776 111.40139 121.267922 110.991795 121.267922 C 110.578729 121.267922 108.523814 123.326686 108.523814 123.326686 L 106.468898 121.678877 C 106.468898 121.678877 105.236643 123.73764 104.823578 123.73764 C 104.413983 123.73764 101.949473 122.093821 101.949473 122.093821 L 97.836171 124.55955 C 97.836171 124.55955 97.836171 120.856967 97.01351 121.267922 C 96.194321 121.678877 91.671424 121.678877 91.671424 121.678877 C 91.671424 121.678877 90.439169 124.148595 90.026103 124.148595 C 89.616509 124.148595 87.971188 122.093821 88.380782 122.093821 C 88.793848 122.093821 89.616509 120.856967 89.203443 120.446013 C 88.793848 120.035058 86.738933 120.446013 86.738933 120.035058 C 86.738933 119.624103 85.916272 117.158375 86.325867 117.158375 C 86.738933 117.158375 88.380782 117.56933 88.380782 117.56933 L 88.380782 115.103601 L 90.439169 115.103601 Z M 90.848764 117.56933 " transform="matrix(1.12535,0,0,0.979046,215.200808,94.726202)"/>
<path style="fill-rule:evenodd;fill:rgb(99.215686%,76.862745%,0%);fill-opacity:0.996078;stroke-width:0.70149;stroke-linecap:butt;stroke-linejoin:miter;stroke:rgb(0%,0%,0%);stroke-opacity:1;stroke-miterlimit:4;" d="M 98.249236 94.13693 C 97.836171 94.13693 94.958595 97.424568 95.37166 101.123161 C 95.781255 104.825743 102.768662 110.168155 102.768662 110.168155 C 102.768662 110.168155 106.468898 108.524336 107.704625 110.168155 C 108.93688 111.811974 108.93688 116.74343 108.523814 116.74343 C 108.114219 116.74343 103.181728 117.980284 103.181728 117.154385 C 103.181728 116.332476 103.181728 115.510566 102.768662 115.510566 C 102.359067 115.510566 97.836171 115.921521 97.836171 115.921521 L 98.249236 114.277702 L 94.135934 113.455792 L 95.781255 111.811974 C 95.781255 111.811974 89.203443 108.93529 89.616509 108.93529 C 90.026103 108.93529 92.494084 107.291471 92.494084 107.291471 L 87.561593 104.003834 L 90.439169 104.003834 C 90.439169 104.003834 86.325867 100.712206 86.738933 100.712206 C 87.148527 100.712206 89.203443 101.123161 89.203443 101.123161 L 87.971188 97.835523 L 89.203443 97.835523 L 87.971188 95.369794 L 90.026103 94.547885 L 91.258358 96.602659 L 90.848764 91.671202 L 93.72634 92.082157 L 93.72634 96.191704 C 93.72634 96.191704 94.958595 93.725975 94.958595 93.315021 C 94.958595 92.904066 98.658831 94.95884 98.249236 94.13693 Z M 98.249236 94.13693 " transform="matrix(1.12535,0,0,0.979046,215.200808,94.726202)"/>
<path style=" stroke:none;fill-rule:evenodd;fill:rgb(0%,0%,0%);fill-opacity:0.996078;" d="M 397.472656 211.839844 C 396.894531 212.34375 395.160156 213.449219 395.160156 213.449219 C 395.160156 213.449219 399.09375 213.148438 398.976562 213.148438 C 398.863281 213.148438 397.589844 212.140625 397.472656 211.839844 Z M 397.472656 211.839844 "/>
<path style=" stroke:none;fill-rule:evenodd;fill:rgb(0%,0%,0%);fill-opacity:0.996078;" d="M 400.828125 213.75 C 400.597656 214.050781 399.902344 217.167969 400.363281 216.96875 C 400.828125 216.765625 402.675781 214.453125 402.675781 214.453125 Z M 400.828125 213.75 "/>
<path style=" stroke:none;fill-rule:evenodd;fill:rgb(0%,0%,0%);fill-opacity:0.996078;" d="M 406.140625 214.148438 C 406.714844 214.652344 409.375 216.96875 409.03125 216.464844 C 408.683594 215.960938 408.335938 213.847656 408.105469 213.746094 C 407.875 213.648438 406.371094 214.351562 406.140625 214.148438 Z M 406.140625 214.148438 "/>
<path style=" stroke:none;fill-rule:evenodd;fill:rgb(0%,0%,0%);fill-opacity:0.996078;" d="M 359.539062 210.832031 C 359.191406 210.933594 356.300781 212.84375 356.300781 212.84375 C 356.300781 212.84375 361.15625 212.039062 360.925781 212.039062 C 360.695312 212.039062 359.421875 211.132812 359.539062 210.832031 Z M 359.539062 210.832031 "/>
<path style=" stroke:none;fill-rule:evenodd;fill:rgb(0%,0%,0%);fill-opacity:0.996078;" d="M 362.542969 213.25 C 362.082031 213.652344 360.578125 216.46875 361.15625 216.367188 C 361.734375 216.269531 364.277344 214.457031 364.277344 214.457031 Z M 362.542969 213.25 "/>
<path style=" stroke:none;fill-rule:evenodd;fill:rgb(0%,0%,0%);fill-opacity:0.996078;" d="M 360.6875 209.324219 C 360.339844 209.222656 357.910156 208.214844 358.027344 208.214844 C 358.140625 208.214844 361.265625 207.511719 361.265625 207.511719 Z M 360.6875 209.324219 "/>
<path style=" stroke:none;fill-rule:evenodd;fill:rgb(0%,0%,0%);fill-opacity:0.996078;" d="M 314.894531 208.019531 L 311.421875 205.605469 L 315.820312 206.8125 Z M 314.894531 208.019531 "/>
<path style=" stroke:none;fill-rule:evenodd;fill:rgb(0%,0%,0%);fill-opacity:0.996078;" d="M 311.886719 209.628906 C 311.421875 209.628906 307.027344 212.042969 307.144531 212.042969 C 307.261719 212.042969 313.273438 212.140625 313.160156 212.042969 C 313.042969 211.941406 312.117188 209.828125 311.886719 209.628906 Z M 311.886719 209.628906 "/>
<path style=" stroke:none;fill-rule:evenodd;fill:rgb(0%,0%,0%);fill-opacity:0.996078;" d="M 314.660156 213.152344 C 314.199219 213.351562 310.730469 215.667969 310.960938 215.667969 C 311.191406 215.667969 316.164062 215.769531 316.164062 215.667969 C 316.164062 215.566406 314.777344 213.253906 314.660156 213.152344 Z M 314.660156 213.152344 "/>
<path style=" stroke:none;fill-rule:evenodd;fill:rgb(0%,0%,0%);fill-opacity:0.996078;" d="M 314.199219 188.09375 C 314.199219 188.09375 312.925781 185.277344 313.042969 185.277344 C 313.15625 185.277344 316.28125 187.492188 316.28125 187.492188 Z M 314.199219 188.09375 "/>
<path style=" stroke:none;fill-rule:evenodd;fill:rgb(0%,0%,0%);fill-opacity:0.996078;" d="M 317.667969 184.574219 C 317.667969 184.472656 318.015625 182.761719 318.015625 182.761719 C 318.015625 182.761719 321.136719 184.875 321.023438 184.875 C 320.90625 184.875 317.898438 184.875 317.667969 184.574219 Z M 317.667969 184.574219 "/>
<path style=" stroke:none;fill-rule:evenodd;fill:rgb(0%,0%,0%);fill-opacity:0.996078;" d="M 322.527344 185.878906 C 322.527344 185.78125 322.875 183.265625 322.875 183.265625 C 322.875 183.265625 325.765625 186.683594 325.535156 186.785156 C 325.300781 186.886719 322.757812 186.28125 322.527344 185.878906 Z M 322.527344 185.878906 "/>
<path style="fill-rule:evenodd;fill:rgb(99.215686%,76.862745%,0%);fill-opacity:0.996078;stroke-width:0.70149;stroke-linecap:butt;stroke-linejoin:miter;stroke:rgb(0%,0%,0%);stroke-opacity:1;stroke-miterlimit:4;" d="M 137.260756 110.85982 C 137.260756 111.067293 141.575385 114.558413 141.679519 115.380323 C 141.780182 116.202232 133.869451 116.409704 133.869451 116.409704 C 133.869451 116.409704 131.606267 114.662149 130.887741 114.765885 C 130.169215 114.869622 129.860283 116.613187 129.860283 116.613187 L 131.710402 117.642568 L 128.214963 117.846051 L 129.24242 119.801078 L 131.915199 119.593606 L 131.297336 121.444897 C 131.297336 121.444897 132.942657 122.677761 133.251588 122.474279 C 133.56052 122.266807 134.587978 120.419505 135.410638 120.108297 C 136.233298 119.801078 137.979282 119.801078 137.979282 119.801078 C 137.979282 119.801078 136.642893 122.063324 137.260756 122.063324 C 137.875148 122.063324 140.652061 119.697342 140.652061 119.697342 C 140.652061 119.697342 141.266453 121.855852 141.370587 121.855852 C 141.474721 121.855852 143.425503 119.390124 143.425503 119.390124 C 143.425503 119.390124 143.425503 121.341161 143.734434 121.341161 C 144.043366 121.341161 146.920942 118.875433 146.920942 118.875433 C 146.920942 118.875433 149.180655 121.752116 149.489586 121.548633 C 149.798518 121.341161 150.107449 118.464478 150.41291 118.464478 C 150.721841 118.464478 152.676094 118.157259 152.676094 118.053523 C 152.676094 117.949787 151.440367 116.924395 151.23557 115.484059 C 151.030773 114.047712 151.440367 110.656338 151.339704 110.656338 C 151.23557 110.656338 137.465553 111.167039 137.260756 110.85982 Z M 137.260756 110.85982 " transform="matrix(1.12535,0,0,0.979046,214.431991,94.947467)"/>
<path style="fill-rule:evenodd;fill:rgb(99.215686%,76.862745%,0%);fill-opacity:0.996078;stroke-width:0.70149;stroke-linecap:butt;stroke-linejoin:miter;stroke:rgb(0%,0%,0%);stroke-opacity:1;stroke-miterlimit:4;" d="M 115.368269 104.599743 L 155.654333 104.599743 C 159.767635 104.599743 163.4644 102.955924 163.4644 100.490196 C 163.4644 98.024467 156.890059 97.613513 154.422078 98.435422 C 151.957567 99.257332 141.266453 104.188788 136.747027 103.777834 C 132.22413 103.366879 128.114299 100.490196 127.704705 97.613513 C 127.291639 94.73284 129.75962 92.267111 134.279046 92.267111 C 138.801943 92.267111 144.557095 93.91093 145.78935 93.499975 C 147.021605 93.089021 149.902652 89.801383 151.134907 89.390428 C 152.367162 88.979473 156.067399 88.568519 156.067399 88.568519 L 154.422078 89.801383 L 159.767635 88.568519 C 159.767635 88.568519 155.654333 93.089021 151.544502 94.321885 C 147.434671 95.554749 138.801943 95.143794 135.511301 95.143794 C 132.22413 95.143794 130.57881 94.73284 130.991875 97.202558 C 131.40147 99.668286 133.869451 101.312105 135.924367 100.90115 C 137.979282 100.490196 144.1475 98.435422 144.1475 98.435422 L 142.502179 97.202558 L 149.902652 96.791603 C 149.902652 96.791603 149.489586 95.554749 149.902652 95.554749 C 150.312247 95.554749 154.012483 95.969694 154.012483 95.969694 C 154.012483 95.969694 151.544502 94.73284 151.957567 94.73284 C 152.367162 94.73284 154.012483 94.73284 157.299654 95.143794 C 160.590295 95.554749 167.577702 96.791603 167.164637 100.079241 C 166.755042 103.366879 164.290532 106.243562 161.409485 106.243562 C 158.531909 106.243562 156.067399 105.421653 156.067399 106.654517 C 156.067399 107.887381 159.354569 108.70929 161.409485 108.70929 C 163.4644 108.70929 165.932381 107.065471 166.345447 107.065471 C 166.755042 107.065471 167.577702 109.5312 167.987297 109.5312 C 168.400363 109.5312 170.864873 108.70929 170.864873 108.70929 L 169.223023 113.233782 L 172.100599 114.055692 C 172.100599 114.055692 170.455278 115.699511 170.864873 115.699511 C 171.277939 115.699511 173.742449 115.699511 173.742449 116.110465 C 173.742449 116.52142 170.455278 118.987149 170.455278 119.398103 C 170.455278 119.809058 172.919788 121.041922 172.919788 121.041922 C 172.919788 121.041922 171.277939 123.51164 170.864873 123.100686 C 170.455278 122.689731 168.809957 120.630967 168.809957 120.630967 C 168.809957 120.630967 168.400363 122.278776 167.577702 122.278776 C 166.755042 122.278776 165.109721 121.867821 165.109721 121.867821 C 165.109721 121.867821 166.345447 119.398103 165.932381 119.398103 C 165.522787 119.398103 163.4644 121.041922 163.4644 120.630967 L 162.235616 119.394113 C 162.235616 119.394113 165.522787 118.061503 165.522787 116.106476 C 165.522787 114.155438 164.186397 112.200411 158.226448 111.893192 C 152.266499 111.585974 152.162365 113.333529 147.743602 113.126056 C 143.32484 112.922574 143.32484 111.175019 140.034198 111.175019 C 136.747027 111.175019 126.573113 115.284566 121.845419 115.18083 C 117.117724 115.081084 111.157775 114.769875 111.362573 114.566393 C 111.56737 114.35892 115.267606 104.906962 115.368269 104.599743 Z M 115.368269 104.599743 " transform="matrix(1.12535,0,0,0.979046,214.431991,94.947467)"/>
<path style="fill-rule:evenodd;fill:rgb(99.215686%,76.862745%,0%);fill-opacity:0.996078;stroke-width:0.70149;stroke-linecap:butt;stroke-linejoin:miter;stroke:rgb(0%,0%,0%);stroke-opacity:1;stroke-miterlimit:4;" d="M 106.878493 102.459761 C 106.468898 102.667233 102.872796 103.181924 102.664528 106.980263 C 102.459731 110.786582 102.973459 110.786582 103.386525 110.579109 C 103.79612 110.375627 104.61878 107.083999 104.61878 107.083999 C 104.61878 107.083999 103.386525 111.608491 104.722914 112.633883 C 106.059304 113.663265 107.496356 114.074219 107.496356 114.074219 L 108.010085 110.475373 C 108.010085 110.475373 106.982627 113.970483 109.450609 115.203348 C 111.915119 116.436212 112.841913 115.510566 112.633645 114.58891 C 112.428848 113.663265 111.710321 111.297283 111.710321 111.297283 C 111.710321 111.297283 113.664574 113.455792 113.765237 113.663265 C 113.869371 113.866747 114.792695 115.510566 117.260676 114.792393 C 119.725186 114.074219 117.979202 112.430401 117.979202 112.430401 L 114.997492 109.968662 C 114.997492 109.968662 118.083336 113.152564 119.419726 112.023436 C 120.752644 110.894308 118.388797 108.428579 118.492931 108.528326 C 118.597065 108.632062 120.447184 112.023436 121.16571 109.864926 C 121.884236 107.706416 120.034118 107.091979 119.419726 105.037205 C 118.801863 102.978442 118.288134 102.774959 118.902526 101.542095 C 119.520389 100.309231 119.624523 97.943249 119.624523 97.943249 C 119.624523 97.943249 122.193168 98.561676 121.98837 96.403166 C 121.783573 94.244656 119.211457 93.729965 118.697728 93.626229 C 118.184 93.526483 118.288134 91.367973 118.083336 91.471709 C 117.875068 91.571456 116.233218 92.80432 116.233218 92.80432 C 116.233218 92.80432 114.792695 89.412946 114.483763 89.620418 C 114.178303 89.8239 112.532982 91.571456 111.300727 91.675192 C 110.065001 91.778928 109.346474 93.526483 109.346474 93.526483 C 109.346474 93.526483 105.028375 91.471709 105.132509 94.863083 C 105.236643 98.254457 107.701154 97.432548 107.701154 97.532294 C 107.701154 97.63603 107.291559 102.260268 106.878493 102.467741 Z M 106.878493 102.459761 " transform="matrix(1.12535,0,0,0.979046,215.200808,94.726202)"/>
<path style=" stroke:none;fill-rule:evenodd;fill:rgb(0%,0%,0%);fill-opacity:0.996078;" d="M 338.15625 189.941406 C 338.710938 189.773438 339.53125 189.0625 340.480469 189.148438 C 341.425781 189.234375 342.945312 189.960938 342.195312 190.359375 C 341.441406 190.757812 340.886719 190.925781 340.035156 190.726562 C 339.183594 190.527344 338.53125 190.101562 338.15625 189.941406 Z M 338.15625 189.941406 "/>
<path style=" stroke:none;fill-rule:evenodd;fill:rgb(0%,0%,0%);fill-opacity:0.996078;" d="M 347.589844 189.84375 C 347.03125 189.671875 346.214844 188.960938 345.265625 189.046875 C 344.316406 189.132812 342.796875 189.859375 343.550781 190.257812 C 344.304688 190.65625 344.859375 190.828125 345.710938 190.625 C 346.558594 190.425781 347.214844 190 347.589844 189.84375 Z M 347.589844 189.84375 "/>
<path style="fill-rule:evenodd;fill:rgb(0%,0%,22.352941%);fill-opacity:0.996078;stroke-width:0.42089;stroke-linecap:butt;stroke-linejoin:miter;stroke:rgb(0%,0%,0%);stroke-opacity:1;stroke-miterlimit:4;" d="M 110.991652 103.168833 C 111.092315 103.683524 111.401246 108.000543 111.606043 107.693325 C 111.810841 107.382116 113.355499 103.272569 113.251364 103.272569 C 113.14723 103.272569 111.092315 103.376305 110.991652 103.168833 Z M 110.991652 103.168833 " transform="matrix(1.12535,0,0,0.979046,215.357219,94.774176)"/>
<path style="fill:none;stroke-width:0.84179;stroke-linecap:butt;stroke-linejoin:miter;stroke:rgb(0%,0%,0%);stroke-opacity:1;stroke-miterlimit:4;" d="M 109.960723 103.170457 C 110.009319 101.953553 110.783383 102.041329 112.428704 102.244812 C 114.070554 102.452284 114.893214 103.274193 114.78908 103.477676 C 114.688417 103.685148 113.352027 104.199839 112.220435 104.096103 C 110.884046 103.685148 109.92254 104.18388 109.960723 103.170457 Z M 109.960723 103.170457 " transform="matrix(1.12535,0,0,0.979046,215.357219,94.917116)"/>
<path style="fill:none;stroke-width:1.403;stroke-linecap:butt;stroke-linejoin:miter;stroke:rgb(0%,0%,0%);stroke-opacity:1;stroke-miterlimit:4;" d="M 112.428704 100.078322 L 112.223907 102.03335 " transform="matrix(1.12535,0,0,0.979046,215.357219,94.917116)"/>
<path style="fill:none;stroke-width:1.403;stroke-linecap:butt;stroke-linejoin:miter;stroke:rgb(0%,0%,0%);stroke-opacity:1;stroke-miterlimit:4;" d="M 119.318919 94.843637 C 119.318919 94.843637 120.655308 95.462064 120.450511 96.076501 C 120.245714 96.694928 119.318919 97.002147 119.318919 97.002147 " transform="matrix(1.12535,0,0,0.979046,215.357219,94.917116)"/>
<path style="fill:none;stroke-width:1.403;stroke-linecap:butt;stroke-linejoin:miter;stroke:rgb(0%,0%,0%);stroke-opacity:1;stroke-miterlimit:4;" d="M 108.121018 94.328946 C 107.812086 94.432682 107.402492 94.640154 107.194223 95.462064 C 106.989426 96.283973 108.121018 96.794674 108.121018 96.794674 " transform="matrix(1.12535,0,0,0.979046,215.357219,94.917116)"/>
<path style="fill:none;stroke-width:1.403;stroke-linecap:butt;stroke-linejoin:miter;stroke:rgb(0%,0%,0%);stroke-opacity:1;stroke-miterlimit:4;" d="M 111.189954 136.128356 C 111.189954 136.128356 109.735546 137.584652 112.206998 137.584652 C 114.678451 137.584652 112.932467 136.275981 112.932467 136.275981 " transform="matrix(1.12535,0,0,0.979046,215.520778,58.204492)"/>
<path style=" stroke:none;fill-rule:evenodd;fill:rgb(99.215686%,76.862745%,0%);fill-opacity:1;" d="M 346.761719 302.820312 L 351.566406 287.023438 L 338.21875 277.09375 L 354.9375 276.71875 L 360.390625 261.132812 L 365.917969 276.695312 L 382.640625 276.992188 L 369.335938 286.984375 L 374.214844 302.757812 L 360.464844 293.371094 Z M 346.761719 302.820312 "/>
<path style=" stroke:none;fill-rule:evenodd;fill:rgb(0%,18.823529%,9.019608%);fill-opacity:0.996078;" d="M 349.039062 298.585938 L 353.042969 286.039062 L 341.917969 278.148438 L 355.851562 277.851562 L 360.394531 265.46875 L 365.003906 277.832031 L 378.933594 278.070312 L 367.847656 286.007812 L 371.914062 298.535156 L 360.457031 291.078125 Z M 349.039062 298.585938 "/>
<path style=" stroke:none;fill-rule:evenodd;fill:rgb(99.215686%,76.862745%,0%);fill-opacity:1;" d="M 319.246094 270.828125 L 324 255.890625 L 310.796875 246.5 L 327.335938 246.148438 L 332.730469 231.40625 L 338.199219 246.121094 L 354.738281 246.40625 L 341.578125 255.851562 L 346.402344 270.769531 L 332.804688 261.890625 Z M 319.246094 270.828125 "/>
<path style=" stroke:none;fill-rule:evenodd;fill:rgb(0%,18.823529%,9.019608%);fill-opacity:0.996078;" d="M 321.503906 266.824219 L 325.46875 254.957031 L 314.460938 247.496094 L 328.246094 247.214844 L 332.742188 235.507812 L 337.296875 247.195312 L 351.082031 247.421875 L 340.113281 254.925781 L 344.136719 266.777344 L 332.800781 259.722656 Z M 321.503906 266.824219 "/>
<path style=" stroke:none;fill-rule:evenodd;fill:rgb(99.215686%,76.862745%,0%);fill-opacity:1;" d="M 374.679688 270.828125 L 379.496094 255.890625 L 366.117188 246.5 L 382.871094 246.148438 L 388.335938 231.40625 L 393.875 246.121094 L 410.625 246.40625 L 397.296875 255.851562 L 402.183594 270.769531 L 388.410156 261.890625 Z M 374.679688 270.828125 "/>
<path style=" stroke:none;fill-rule:evenodd;fill:rgb(0%,18.823529%,9.019608%);fill-opacity:0.996078;" d="M 376.964844 266.824219 L 380.976562 254.957031 L 369.832031 247.496094 L 383.792969 247.214844 L 388.34375 235.507812 L 392.960938 247.195312 L 406.921875 247.421875 L 395.8125 254.925781 L 399.886719 266.777344 L 388.40625 259.722656 Z M 376.964844 266.824219 "/>
<path style=" stroke:none;fill-rule:nonzero;fill:rgb(0%,0%,0%);fill-opacity:1;" d="M 279.847656 283.425781 L 288.101562 278.761719 L 288.878906 280.457031 L 285.640625 282.285156 L 286.710938 284.628906 L 289.949219 282.796875 L 290.726562 284.496094 L 282.46875 289.160156 L 281.695312 287.460938 L 285.433594 285.347656 L 284.363281 283.007812 L 280.621094 285.121094 L 279.847656 283.425781 M 283.300781 290.644531 L 291.007812 284.941406 L 293.644531 289.339844 L 292.363281 290.289062 L 290.675781 287.472656 L 288.894531 288.792969 L 290.464844 291.414062 L 289.246094 292.316406 L 287.675781 289.695312 L 285.554688 291.269531 L 287.28125 294.148438 L 285.980469 295.109375 L 283.300781 290.644531 M 288.671875 298.929688 L 295.46875 291.945312 L 296.632812 293.34375 L 293.96875 296.082031 L 295.570312 298.011719 L 298.238281 295.269531 L 299.402344 296.667969 L 292.605469 303.652344 L 291.441406 302.257812 L 294.519531 299.089844 L 292.917969 297.160156 L 289.835938 300.328125 L 288.671875 298.929688 M 297.550781 303.066406 L 298.652344 304.144531 L 300.65625 300.355469 L 297.550781 303.066406 M 293.238281 304.355469 L 300.910156 298.148438 L 302.652344 299.847656 L 298.128906 309.125 L 296.730469 307.761719 L 297.921875 305.484375 L 296.429688 304.03125 L 294.5625 305.648438 L 293.238281 304.359375 M 299.933594 310.578125 L 304.507812 303.648438 L 302.90625 302.347656 L 303.808594 300.976562 L 308.402344 304.71875 L 307.5 306.089844 L 305.898438 304.785156 L 301.324219 311.714844 L 299.933594 310.578125 M 303.6875 313.582031 L 308.511719 304.796875 L 309.976562 305.789062 L 308.082031 309.234375 L 310.101562 310.601562 L 311.992188 307.160156 L 313.457031 308.148438 L 308.632812 316.933594 L 307.167969 315.941406 L 309.355469 311.960938 L 307.339844 310.59375 L 305.152344 314.574219 L 303.6875 313.582031 M 312.757812 319.320312 L 316.648438 309.984375 L 321.042969 312.246094 L 320.40625 313.773438 L 317.578125 312.316406 L 316.660156 314.523438 L 319.328125 315.898438 L 318.707031 317.390625 L 316.035156 316.015625 L 314.324219 320.125 L 312.757812 319.320312 M 321.347656 317.902344 C 320.804688 319.484375 320.546875 320.515625 320.570312 321 C 320.601562 321.476562 320.839844 321.8125 321.289062 322.003906 C 321.734375 322.1875 322.101562 322.117188 322.402344 321.785156 C 322.703125 321.449219 323.128906 320.484375 323.675781 318.882812 C 324.21875 317.285156 324.480469 316.246094 324.457031 315.769531 C 324.429688 315.289062 324.195312 314.957031 323.75 314.769531 C 323.300781 314.582031 322.925781 314.65625 322.621094 314.996094 C 322.320312 315.335938 321.894531 316.304688 321.347656 317.902344 M 319.699219 317.207031 C 320.046875 316.1875 320.371094 315.390625 320.664062 314.820312 C 320.957031 314.242188 321.25 313.839844 321.539062 313.609375 C 321.941406 313.277344 322.347656 313.09375 322.757812 313.050781 C 323.171875 313.011719 323.664062 313.113281 324.234375 313.351562 C 324.800781 313.59375 325.230469 313.878906 325.515625 314.214844 C 325.796875 314.546875 325.992188 314.988281 326.097656 315.53125 C 326.175781 315.925781 326.148438 316.445312 326.023438 317.085938 C 325.902344 317.730469 325.667969 318.5625 325.320312 319.578125 C 324.976562 320.589844 324.65625 321.382812 324.359375 321.960938 C 324.066406 322.53125 323.773438 322.9375 323.488281 323.179688 C 323.082031 323.507812 322.675781 323.695312 322.261719 323.734375 C 321.847656 323.773438 321.359375 323.675781 320.789062 323.433594 C 320.21875 323.195312 319.792969 322.90625 319.507812 322.570312 C 319.222656 322.238281 319.03125 321.800781 318.925781 321.253906 C 318.847656 320.871094 318.871094 320.355469 318.992188 319.710938 C 319.117188 319.0625 319.351562 318.226562 319.699219 317.207031 M 327.664062 315.023438 L 329.320312 315.570312 L 327.539062 322.214844 C 327.332031 322.976562 327.277344 323.519531 327.371094 323.847656 C 327.46875 324.171875 327.730469 324.40625 328.15625 324.546875 C 328.578125 324.6875 328.90625 324.648438 329.140625 324.425781 C 329.378906 324.207031 329.601562 323.710938 329.808594 322.941406 L 331.582031 316.320312 L 333.214844 316.859375 L 331.390625 323.664062 C 331.214844 324.328125 331.046875 324.800781 330.898438 325.085938 C 330.75 325.367188 330.566406 325.597656 330.347656 325.773438 C 330.015625 326.042969 329.632812 326.199219 329.195312 326.242188 C 328.757812 326.285156 328.269531 326.214844 327.730469 326.039062 C 326.714844 325.703125 326.066406 325.222656 325.777344 324.597656 C 325.492188 323.96875 325.515625 323.046875 325.839844 321.828125 L 327.664062 315.023438 M 332.09375 327.15625 L 334.117188 317.113281 L 335.847656 317.542969 L 336.785156 325.152344 L 338.152344 318.117188 L 339.742188 318.511719 L 337.722656 328.554688 L 336.003906 328.125 L 335.046875 320.503906 L 333.679688 327.550781 L 332.09375 327.15625 M 341.144531 327.667969 L 341.902344 327.796875 C 342.285156 327.863281 342.558594 327.882812 342.722656 327.847656 C 342.886719 327.8125 343.023438 327.726562 343.132812 327.59375 C 343.332031 327.355469 343.492188 327.015625 343.625 326.570312 C 343.757812 326.121094 343.894531 325.386719 344.039062 324.375 C 344.175781 323.390625 344.238281 322.667969 344.222656 322.203125 C 344.207031 321.742188 344.121094 321.378906 343.960938 321.117188 C 343.878906 320.984375 343.761719 320.882812 343.609375 320.8125 C 343.460938 320.738281 343.222656 320.667969 342.890625 320.613281 L 342.160156 320.484375 L 341.144531 327.667969 M 339.265625 328.875 L 340.699219 318.710938 L 343.4375 319.1875 C 343.996094 319.28125 344.433594 319.414062 344.746094 319.574219 C 345.0625 319.738281 345.3125 319.957031 345.492188 320.234375 C 345.765625 320.636719 345.929688 321.117188 345.984375 321.671875 C 346.042969 322.222656 345.996094 323.058594 345.839844 324.175781 C 345.632812 325.617188 345.445312 326.632812 345.269531 327.214844 C 345.09375 327.792969 344.867188 328.273438 344.59375 328.652344 C 344.324219 329.035156 343.988281 329.273438 343.589844 329.375 C 343.195312 329.476562 342.535156 329.445312 341.613281 329.28125 L 339.265625 328.875 M 346.429688 330.050781 L 347.320312 319.808594 L 352.054688 320.320312 L 351.90625 322.019531 L 348.875 321.695312 L 348.671875 324.0625 L 351.488281 324.367188 L 351.347656 325.988281 L 348.53125 325.6875 L 348.285156 328.507812 L 351.386719 328.839844 L 351.234375 330.566406 L 346.429688 330.050781 M 354.25 329.222656 L 355.015625 329.253906 C 355.402344 329.269531 355.675781 329.25 355.835938 329.191406 C 355.992188 329.136719 356.121094 329.035156 356.21875 328.886719 C 356.386719 328.625 356.511719 328.265625 356.597656 327.804688 C 356.679688 327.339844 356.738281 326.597656 356.769531 325.574219 C 356.804688 324.574219 356.785156 323.847656 356.722656 323.390625 C 356.65625 322.933594 356.53125 322.585938 356.34375 322.347656 C 356.25 322.226562 356.121094 322.140625 355.960938 322.089844 C 355.808594 322.035156 355.5625 322 355.226562 321.988281 L 354.488281 321.957031 L 354.25 329.222656 M 352.511719 330.671875 L 352.847656 320.390625 L 355.617188 320.5 C 356.183594 320.523438 356.628906 320.59375 356.957031 320.714844 C 357.292969 320.835938 357.5625 321.019531 357.769531 321.269531 C 358.082031 321.632812 358.296875 322.085938 358.414062 322.628906 C 358.53125 323.171875 358.574219 324.003906 358.535156 325.136719 C 358.488281 326.597656 358.410156 327.625 358.296875 328.230469 C 358.183594 328.824219 358.011719 329.332031 357.777344 329.746094 C 357.550781 330.160156 357.246094 330.445312 356.859375 330.597656 C 356.476562 330.746094 355.820312 330.804688 354.886719 330.765625 L 352.511719 330.671875 M 362.828125 330.804688 L 362.460938 320.523438 L 364.1875 320.449219 L 364.554688 330.730469 L 362.828125 330.804688 M 367.433594 330.535156 L 366.800781 321.972656 L 364.824219 322.152344 L 364.699219 320.460938 L 370.375 319.941406 L 370.5 321.632812 L 368.523438 321.816406 L 369.15625 330.378906 L 367.433594 330.535156 M 373.511719 319.503906 L 375.210938 319.175781 L 376.28125 326.007812 C 376.402344 326.789062 376.570312 327.304688 376.785156 327.550781 C 377 327.792969 377.328125 327.875 377.765625 327.789062 C 378.199219 327.703125 378.480469 327.507812 378.601562 327.191406 C 378.726562 326.878906 378.726562 326.324219 378.605469 325.53125 L 377.539062 318.726562 L 379.214844 318.402344 L 380.308594 325.398438 C 380.417969 326.078125 380.460938 326.582031 380.4375 326.914062 C 380.417969 327.238281 380.347656 327.535156 380.222656 327.800781 C 380.03125 328.207031 379.75 328.535156 379.375 328.792969 C 379 329.046875 378.535156 329.226562 377.984375 329.332031 C 376.941406 329.535156 376.164062 329.425781 375.65625 329.011719 C 375.152344 328.585938 374.800781 327.75 374.605469 326.5 L 373.511719 319.503906 M 382.722656 322.113281 L 383.425781 321.921875 C 383.945312 321.78125 384.289062 321.570312 384.449219 321.289062 C 384.609375 321 384.628906 320.582031 384.507812 320.035156 C 384.386719 319.480469 384.207031 319.121094 383.964844 318.964844 C 383.726562 318.800781 383.335938 318.789062 382.796875 318.9375 L 382.070312 319.132812 L 382.722656 322.113281 M 382.335938 328.171875 L 380.144531 318.175781 L 383.054688 317.386719 C 383.945312 317.148438 384.632812 317.195312 385.117188 317.53125 C 385.605469 317.867188 385.957031 318.535156 386.175781 319.539062 C 386.394531 320.527344 386.347656 321.320312 386.035156 321.917969 C 385.726562 322.507812 385.148438 322.921875 384.292969 323.152344 L 383.074219 323.480469 L 384.003906 327.722656 L 382.335938 328.171875 M 388.949219 320.925781 C 389.410156 322.539062 389.785156 323.527344 390.074219 323.890625 C 390.363281 324.246094 390.738281 324.339844 391.199219 324.179688 C 391.648438 324.019531 391.898438 323.707031 391.945312 323.242188 C 391.996094 322.773438 391.789062 321.722656 391.324219 320.089844 C 390.859375 318.460938 390.484375 317.46875 390.195312 317.109375 C 389.910156 316.753906 389.539062 316.65625 389.082031 316.816406 C 388.628906 316.976562 388.375 317.292969 388.328125 317.769531 C 388.277344 318.242188 388.484375 319.296875 388.949219 320.925781 M 387.273438 321.519531 C 386.976562 320.480469 386.78125 319.632812 386.691406 318.984375 C 386.601562 318.328125 386.605469 317.808594 386.703125 317.429688 C 386.832031 316.894531 387.046875 316.46875 387.347656 316.152344 C 387.648438 315.835938 388.089844 315.574219 388.671875 315.371094 C 389.25 315.164062 389.746094 315.09375 390.15625 315.160156 C 390.566406 315.226562 390.964844 315.4375 391.351562 315.792969 C 391.632812 316.046875 391.902344 316.472656 392.164062 317.0625 C 392.425781 317.652344 392.707031 318.464844 393.003906 319.5 C 393.296875 320.53125 393.492188 321.375 393.582031 322.03125 C 393.667969 322.679688 393.667969 323.199219 393.578125 323.585938 C 393.445312 324.125 393.226562 324.550781 392.925781 324.867188 C 392.625 325.183594 392.1875 325.445312 391.605469 325.648438 C 391.023438 325.855469 390.527344 325.921875 390.117188 325.855469 C 389.707031 325.792969 389.3125 325.582031 388.929688 325.226562 C 388.652344 324.976562 388.382812 324.558594 388.117188 323.96875 C 387.851562 323.375 387.570312 322.558594 387.273438 321.519531 M 395.734375 323.871094 L 392.289062 314.320312 L 393.9375 313.585938 L 398.585938 319.269531 L 396.128906 312.609375 L 397.644531 311.9375 L 401.089844 321.488281 L 399.453125 322.214844 L 394.785156 316.527344 L 397.242188 323.199219 L 395.738281 323.871094 M 406.460938 318.601562 L 402.847656 311.003906 L 401.09375 312.035156 L 400.378906 310.535156 L 405.414062 307.578125 L 406.128906 309.078125 L 404.375 310.109375 L 407.988281 317.707031 L 406.460938 318.601562 M 410.539062 316.171875 L 405.59375 307.472656 L 407.042969 306.457031 L 408.980469 309.867188 L 410.980469 308.464844 L 409.039062 305.054688 L 410.488281 304.035156 L 415.433594 312.738281 L 413.984375 313.753906 L 411.742188 309.808594 L 409.746094 311.210938 L 411.988281 315.15625 L 410.539062 316.171875 M 416.714844 311.722656 L 411.132812 303.511719 L 414.929688 300.328125 L 415.859375 301.691406 L 413.429688 303.730469 L 414.71875 305.628906 L 416.980469 303.730469 L 417.863281 305.03125 L 415.605469 306.929688 L 417.140625 309.191406 L 419.625 307.105469 L 420.570312 308.488281 L 416.714844 311.722656 M 421.480469 302.894531 L 422.710938 301.550781 L 423.128906 302.023438 C 423.527344 302.472656 423.847656 302.726562 424.09375 302.78125 C 424.339844 302.832031 424.589844 302.722656 424.835938 302.449219 C 425.097656 302.164062 425.230469 301.878906 425.234375 301.585938 C 425.242188 301.289062 425.121094 300.996094 424.867188 300.710938 C 424.675781 300.492188 424.460938 300.355469 424.230469 300.304688 C 423.996094 300.246094 423.609375 300.269531 423.078125 300.363281 L 422.007812 300.554688 C 421.09375 300.730469 420.441406 300.761719 420.050781 300.652344 C 419.664062 300.535156 419.285156 300.273438 418.921875 299.859375 C 418.375 299.242188 418.113281 298.582031 418.132812 297.871094 C 418.152344 297.164062 418.453125 296.496094 419.03125 295.863281 C 419.640625 295.195312 420.273438 294.871094 420.929688 294.886719 C 421.585938 294.902344 422.21875 295.257812 422.835938 295.953125 C 422.898438 296.023438 422.941406 296.078125 422.972656 296.121094 C 423.007812 296.15625 423.035156 296.191406 423.058594 296.222656 L 421.890625 297.5 L 421.71875 297.304688 C 421.367188 296.90625 421.058594 296.683594 420.789062 296.640625 C 420.519531 296.597656 420.25 296.722656 419.980469 297.015625 C 419.785156 297.230469 419.6875 297.46875 419.6875 297.722656 C 419.6875 297.972656 419.789062 298.210938 419.992188 298.4375 C 420.265625 298.746094 420.820312 298.8125 421.65625 298.632812 C 421.664062 298.632812 421.671875 298.628906 421.679688 298.628906 L 422.808594 298.398438 C 423.605469 298.226562 424.230469 298.207031 424.683594 298.339844 C 425.132812 298.464844 425.574219 298.773438 426.007812 299.261719 C 426.597656 299.929688 426.878906 300.632812 426.855469 301.367188 C 426.835938 302.105469 426.503906 302.824219 425.867188 303.519531 C 425.203125 304.242188 424.539062 304.59375 423.875 304.566406 C 423.214844 304.539062 422.539062 304.132812 421.847656 303.351562 C 421.777344 303.269531 421.660156 303.125 421.503906 302.921875 L 421.480469 302.894531 M 428.644531 300.003906 L 421.546875 293.394531 L 424.601562 289.34375 L 425.78125 290.445312 L 423.828125 293.035156 L 425.46875 294.5625 L 427.289062 292.152344 L 428.410156 293.199219 L 426.59375 295.609375 L 428.546875 297.429688 L 430.546875 294.777344 L 431.746094 295.890625 L 428.644531 300.003906 M 430.445312 290.792969 L 431.265625 289.441406 L 427.632812 287.710938 L 430.445312 290.792969 M 432.144531 295.382812 L 425.628906 287.710938 L 426.925781 285.578125 L 435.78125 289.386719 L 434.742188 291.097656 L 432.558594 290.074219 L 431.449219 291.90625 L 433.128906 293.757812 L 432.144531 295.382812 M 433.246094 287.015625 L 434.03125 285.308594 L 434.5625 285.613281 C 435.070312 285.902344 435.445312 286.027344 435.695312 285.996094 C 435.945312 285.957031 436.148438 285.765625 436.308594 285.421875 C 436.472656 285.058594 436.519531 284.738281 436.441406 284.460938 C 436.363281 284.175781 436.164062 283.941406 435.84375 283.761719 C 435.597656 283.621094 435.359375 283.566406 435.121094 283.597656 C 434.882812 283.625 434.523438 283.777344 434.046875 284.054688 L 433.085938 284.613281 C 432.265625 285.097656 431.65625 285.351562 431.253906 285.382812 C 430.855469 285.410156 430.421875 285.292969 429.957031 285.027344 C 429.265625 284.632812 428.828125 284.097656 428.648438 283.417969 C 428.464844 282.738281 428.5625 281.996094 428.929688 281.199219 C 429.324219 280.347656 429.832031 279.820312 430.457031 279.605469 C 431.082031 279.390625 431.785156 279.507812 432.566406 279.953125 C 432.644531 279.996094 432.707031 280.035156 432.746094 280.0625 C 432.789062 280.085938 432.824219 280.109375 432.855469 280.132812 L 432.109375 281.75 L 431.890625 281.625 C 431.445312 281.371094 431.085938 281.269531 430.820312 281.320312 C 430.550781 281.375 430.332031 281.585938 430.160156 281.960938 C 430.035156 282.234375 430.007812 282.488281 430.082031 282.730469 C 430.152344 282.96875 430.316406 283.160156 430.570312 283.304688 C 430.917969 283.503906 431.464844 283.371094 432.207031 282.910156 C 432.214844 282.902344 432.222656 282.898438 432.226562 282.898438 L 433.234375 282.285156 C 433.941406 281.84375 434.53125 281.605469 434.996094 281.570312 C 435.460938 281.535156 435.964844 281.671875 436.515625 281.988281 C 437.265625 282.414062 437.730469 282.980469 437.917969 283.6875 C 438.105469 284.394531 437.996094 285.191406 437.585938 286.074219 C 437.160156 286.996094 436.628906 287.558594 435.992188 287.765625 C 435.359375 287.96875 434.601562 287.820312 433.726562 287.320312 C 433.632812 287.265625 433.484375 287.171875 433.277344 287.035156 L 433.246094 287.015625 "/>
</g>
</svg>
