<?xml version="1.0" encoding="UTF-8"?>
<svg xmlns="http://www.w3.org/2000/svg" xmlns:xlink="http://www.w3.org/1999/xlink" width="480pt" height="360pt" viewBox="0 0 480 360" version="1.1">
<g id="surface1">
<rect x="0" y="0" width="480" height="360" style="fill:rgb(43.529412%,86.27451%,100%);fill-opacity:1;stroke:none;"/>
<path style=" stroke:none;fill-rule:evenodd;fill:rgb(100%,89.411765%,0%);fill-opacity:1;" d="M 45.175781 350.246094 C 47.617188 352.632812 46.8125 356.652344 53.59375 356.132812 C 63.949219 356.132812 64.246094 349.800781 64.246094 345.375 C 64.246094 340.960938 48.820312 334.785156 48.109375 328.285156 C 47.390625 321.777344 51.671875 319.960938 55.253906 319.960938 C 58.8125 319.960938 61.3125 322.046875 61.3125 323.863281 C 61.3125 325.679688 59.535156 326.203125 57.03125 326.203125 C 54.53125 326.203125 58.101562 324.902344 55.960938 323.863281 C 53.820312 322.820312 52.390625 325.417969 52.390625 326.984375 C 52.390625 328.542969 57.742188 329.058594 61.3125 327.894531 C 62.035156 331.402344 62.382812 331.667969 57.382812 337.640625 C 60.964844 335.300781 61.304688 334.785156 65.246094 336.082031 C 61.3125 332.699219 64.257812 325.8125 64.390625 324.058594 C 64.527344 322.304688 63.640625 320.222656 62.035156 319.179688 C 59.171875 316.582031 52.925781 316.464844 49.179688 318.136719 C 43.726562 320.574219 43.457031 327.753906 44.886719 330.101562 L 60.007812 345.601562 C 61.078125 347.425781 61.449219 352.492188 55.027344 352.75 C 48.242188 353.269531 45.917969 344.023438 44.714844 340.945312 C 43.097656 344.304688 41.296875 353.574219 34.511719 353.058594 C 28.082031 352.796875 26.84375 347.734375 27.914062 345.910156 L 43.445312 330.101562 C 44.867188 327.753906 44.601562 320.574219 39.144531 318.136719 C 35.398438 316.464844 29.160156 316.582031 26.300781 319.179688 C 24.695312 320.222656 23.800781 322.304688 23.933594 324.058594 C 24.066406 325.8125 27.011719 332.699219 23.078125 336.082031 C 27.019531 334.785156 27.371094 335.300781 30.941406 337.640625 C 25.941406 331.667969 26.300781 331.402344 27.011719 327.894531 C 30.582031 329.058594 35.945312 328.542969 35.945312 326.984375 C 35.945312 325.417969 34.503906 322.820312 32.363281 323.863281 C 30.230469 324.902344 33.792969 326.203125 31.300781 326.203125 C 28.789062 326.203125 27.011719 325.679688 27.011719 323.863281 C 27.011719 322.046875 29.511719 319.960938 33.082031 319.960938 C 36.652344 319.960938 40.9375 321.777344 40.214844 328.285156 C 39.503906 334.785156 23.675781 341.875 23.675781 346.292969 C 23.675781 350.714844 24.777344 356.132812 35.132812 356.132812 C 41.914062 356.652344 42.714844 352.632812 45.175781 350.246094 Z M 45.175781 350.246094 "/>
<path style=" stroke:none;fill-rule:evenodd;fill:rgb(100%,89.411765%,0%);fill-opacity:1;" d="M 44.351562 257.46875 C 46.792969 255.082031 48.800781 248.003906 55.582031 248.519531 C 65.9375 248.519531 69.855469 254.242188 69.855469 258.667969 C 69.855469 263.082031 48.800781 299.230469 48.089844 305.730469 C 47.367188 312.234375 51.648438 314.050781 55.230469 314.050781 C 58.792969 314.050781 61.292969 311.96875 61.292969 310.152344 C 61.292969 308.335938 59.511719 307.8125 57.011719 307.8125 C 54.511719 307.8125 58.082031 309.109375 55.941406 310.152344 C 53.800781 311.195312 52.371094 308.59375 52.371094 307.027344 C 52.371094 305.46875 57.722656 304.953125 61.292969 306.121094 C 62.015625 302.613281 62.363281 302.347656 57.363281 296.375 C 60.945312 298.714844 61.285156 299.230469 65.226562 297.929688 C 61.292969 301.3125 64.238281 308.203125 64.371094 309.957031 C 64.503906 311.710938 63.621094 313.792969 62.015625 314.835938 C 59.152344 317.433594 52.90625 317.550781 49.160156 315.875 C 43.703125 313.441406 43.4375 306.261719 44.867188 303.914062 L 65.214844 259.96875 C 66.285156 258.144531 63.433594 252.160156 57.011719 251.902344 C 50.230469 251.386719 47.902344 258.496094 46.699219 261.570312 L 55.941406 260.898438 C 55.941406 260.898438 56.300781 262.324219 55.941406 263.246094 C 51.167969 263.5625 46.699219 264.429688 46.699219 264.429688 L 46.347656 269.113281 L 50.910156 269.113281 L 50.546875 271.1875 C 50.546875 271.1875 46.699219 270.929688 46.347656 271.1875 C 45.988281 271.445312 45.628906 275.875 45.628906 275.875 C 45.628906 275.875 44.917969 276.132812 44.148438 276.132812 C 43.363281 276.132812 42.65625 275.875 42.65625 275.875 C 42.65625 275.875 42.292969 271.445312 41.945312 271.1875 C 41.585938 270.929688 37.734375 271.1875 37.734375 271.1875 L 37.386719 269.113281 L 41.945312 269.113281 L 41.585938 264.429688 C 41.585938 264.429688 37.117188 263.5625 32.339844 263.246094 C 31.992188 262.324219 32.339844 260.898438 32.339844 260.898438 L 41.585938 261.570312 C 40.378906 258.496094 38.054688 251.386719 31.28125 251.902344 C 24.847656 252.160156 22 258.144531 23.070312 259.96875 L 43.425781 303.914062 C 44.847656 306.261719 44.578125 313.441406 39.125 315.875 C 35.378906 317.550781 29.140625 317.433594 26.28125 314.835938 C 24.675781 313.792969 23.777344 311.710938 23.914062 309.957031 C 24.046875 308.203125 26.988281 301.3125 23.058594 297.929688 C 27 299.230469 27.351562 298.714844 30.921875 296.375 C 25.917969 302.347656 26.28125 302.613281 26.988281 306.121094 C 30.5625 304.953125 35.921875 305.46875 35.921875 307.027344 C 35.921875 308.59375 34.484375 311.195312 32.339844 310.152344 C 30.210938 309.109375 33.773438 307.8125 31.28125 307.8125 C 28.769531 307.8125 26.988281 308.335938 26.988281 310.152344 C 26.988281 311.96875 29.492188 314.050781 33.0625 314.050781 C 36.632812 314.050781 40.914062 312.234375 40.195312 305.730469 C 39.484375 299.230469 18.425781 263.082031 18.425781 258.667969 C 18.425781 254.242188 22.347656 248.519531 32.703125 248.519531 C 39.484375 248.003906 41.894531 255.082031 44.351562 257.46875 Z M 44.351562 257.46875 "/>
<path style=" stroke:none;fill-rule:evenodd;fill:rgb(100%,89.411765%,0%);fill-opacity:1;" d="M 44.351562 239.554688 C 46.792969 241.945312 48.800781 249.023438 55.582031 248.503906 C 65.9375 248.503906 69.855469 242.78125 69.855469 238.359375 C 69.855469 233.941406 48.800781 197.796875 48.089844 191.296875 C 47.367188 184.789062 51.648438 182.972656 55.230469 182.972656 C 58.792969 182.972656 61.292969 185.058594 61.292969 186.875 C 61.292969 188.691406 59.511719 189.214844 57.011719 189.214844 C 54.511719 189.214844 58.082031 187.914062 55.941406 186.875 C 53.800781 185.832031 52.371094 188.429688 52.371094 189.996094 C 52.371094 191.554688 57.722656 192.070312 61.292969 190.90625 C 62.015625 194.414062 62.363281 194.679688 57.363281 200.652344 C 60.945312 198.3125 61.285156 197.796875 65.226562 199.09375 C 61.292969 195.710938 64.238281 188.824219 64.371094 187.070312 C 64.503906 185.316406 63.621094 183.234375 62.015625 182.191406 C 59.152344 179.59375 52.90625 179.472656 49.160156 181.148438 C 43.703125 183.585938 43.4375 190.765625 44.867188 193.113281 L 65.214844 237.058594 C 66.285156 238.882812 63.433594 244.863281 57.011719 245.121094 C 50.230469 245.640625 47.902344 238.53125 46.699219 235.453125 L 55.941406 236.128906 C 55.941406 236.128906 56.300781 234.703125 55.941406 233.777344 C 51.167969 233.464844 46.699219 232.597656 46.699219 232.597656 L 46.347656 227.914062 L 50.910156 227.914062 L 50.546875 225.839844 C 50.546875 225.839844 46.699219 226.097656 46.347656 225.839844 C 45.988281 225.582031 45.628906 221.148438 45.628906 221.148438 C 45.628906 221.148438 44.917969 220.890625 44.148438 220.890625 C 43.363281 220.890625 42.65625 221.148438 42.65625 221.148438 C 42.65625 221.148438 42.292969 225.582031 41.945312 225.839844 C 41.585938 226.097656 37.734375 225.839844 37.734375 225.839844 L 37.386719 227.914062 L 41.945312 227.914062 L 41.585938 232.597656 C 41.585938 232.597656 37.117188 233.464844 32.339844 233.777344 C 31.992188 234.703125 32.339844 236.128906 32.339844 236.128906 L 41.585938 235.453125 C 40.378906 238.53125 38.054688 245.640625 31.28125 245.121094 C 24.847656 244.863281 21.996094 238.882812 23.066406 237.058594 L 43.425781 193.113281 C 44.847656 190.765625 44.578125 183.585938 39.125 181.148438 C 35.378906 179.472656 29.140625 179.59375 26.28125 182.191406 C 24.675781 183.234375 23.777344 185.316406 23.914062 187.070312 C 24.046875 188.824219 26.988281 195.710938 23.058594 199.09375 C 27 197.796875 27.351562 198.3125 30.921875 200.652344 C 25.917969 194.679688 26.28125 194.414062 26.988281 190.90625 C 30.5625 192.070312 35.921875 191.554688 35.921875 189.996094 C 35.921875 188.429688 34.484375 185.832031 32.339844 186.875 C 30.210938 187.914062 33.773438 189.214844 31.28125 189.214844 C 28.769531 189.214844 26.988281 188.691406 26.988281 186.875 C 26.988281 185.058594 29.492188 182.972656 33.0625 182.972656 C 36.632812 182.972656 40.914062 184.789062 40.195312 191.296875 C 39.484375 197.796875 18.425781 233.941406 18.425781 238.359375 C 18.425781 242.78125 22.347656 248.503906 32.703125 248.503906 C 39.484375 249.023438 41.894531 241.945312 44.351562 239.554688 Z M 44.351562 239.554688 "/>
<path style=" stroke:none;fill-rule:evenodd;fill:rgb(100%,89.411765%,0%);fill-opacity:1;" d="M 44.351562 120.457031 C 46.792969 118.070312 48.800781 110.992188 55.582031 111.507812 C 65.9375 111.507812 69.855469 117.230469 69.855469 121.65625 C 69.855469 126.070312 48.800781 162.21875 48.089844 168.71875 C 47.367188 175.222656 51.648438 177.039062 55.230469 177.039062 C 58.792969 177.039062 61.292969 174.957031 61.292969 173.140625 C 61.292969 171.324219 59.511719 170.800781 57.011719 170.800781 C 54.511719 170.800781 58.082031 172.097656 55.941406 173.140625 C 53.800781 174.183594 52.371094 171.582031 52.371094 170.015625 C 52.371094 168.457031 57.722656 167.941406 61.292969 169.109375 C 62.015625 165.601562 62.363281 165.335938 57.363281 159.359375 C 60.945312 161.703125 61.285156 162.21875 65.226562 160.917969 C 61.292969 164.300781 64.238281 171.191406 64.371094 172.945312 C 64.503906 174.699219 63.621094 176.78125 62.015625 177.824219 C 59.152344 180.421875 52.90625 180.539062 49.160156 178.863281 C 43.703125 176.429688 43.4375 169.25 44.867188 166.902344 L 65.214844 122.957031 C 66.285156 121.132812 63.433594 115.148438 57.011719 114.890625 C 50.230469 114.375 47.902344 121.484375 46.699219 124.558594 L 55.941406 123.886719 C 55.941406 123.886719 56.300781 125.3125 55.941406 126.234375 C 51.167969 126.546875 46.699219 127.417969 46.699219 127.417969 L 46.347656 132.101562 L 50.910156 132.101562 L 50.546875 134.175781 C 50.546875 134.175781 46.699219 133.917969 46.347656 134.175781 C 45.988281 134.433594 45.628906 138.863281 45.628906 138.863281 C 45.628906 138.863281 44.917969 139.121094 44.148438 139.121094 C 43.363281 139.121094 42.65625 138.863281 42.65625 138.863281 C 42.65625 138.863281 42.292969 134.433594 41.945312 134.175781 C 41.585938 133.917969 37.734375 134.175781 37.734375 134.175781 L 37.386719 132.101562 L 41.945312 132.101562 L 41.585938 127.417969 C 41.585938 127.417969 37.117188 126.546875 32.339844 126.234375 C 31.992188 125.3125 32.339844 123.886719 32.339844 123.886719 L 41.585938 124.558594 C 40.378906 121.484375 38.054688 114.375 31.28125 114.890625 C 24.847656 115.148438 22 121.132812 23.070312 122.957031 L 43.425781 166.902344 C 44.847656 169.25 44.578125 176.429688 39.125 178.863281 C 35.378906 180.539062 29.140625 180.421875 26.28125 177.824219 C 24.675781 176.78125 23.777344 174.699219 23.914062 172.945312 C 24.046875 171.191406 26.988281 164.300781 23.058594 160.917969 C 27 162.21875 27.351562 161.703125 30.921875 159.359375 C 25.917969 165.335938 26.28125 165.601562 26.988281 169.109375 C 30.5625 167.941406 35.921875 168.457031 35.921875 170.015625 C 35.921875 171.582031 34.484375 174.183594 32.339844 173.140625 C 30.210938 172.097656 33.773438 170.800781 31.28125 170.800781 C 28.769531 170.800781 26.988281 171.324219 26.988281 173.140625 C 26.988281 174.957031 29.492188 177.039062 33.0625 177.039062 C 36.632812 177.039062 40.914062 175.222656 40.195312 168.71875 C 39.484375 162.21875 18.425781 126.070312 18.425781 121.65625 C 18.425781 117.230469 22.347656 111.507812 32.703125 111.507812 C 39.484375 110.992188 41.894531 118.070312 44.351562 120.457031 Z M 44.351562 120.457031 "/>
<path style=" stroke:none;fill-rule:evenodd;fill:rgb(100%,89.411765%,0%);fill-opacity:1;" d="M 44.351562 102.542969 C 46.792969 104.933594 48.800781 112.011719 55.582031 111.492188 C 65.9375 111.492188 69.855469 105.769531 69.855469 101.347656 C 69.855469 96.929688 48.800781 60.78125 48.089844 54.285156 C 47.367188 47.777344 51.648438 45.960938 55.230469 45.960938 C 58.792969 45.960938 61.292969 48.042969 61.292969 49.859375 C 61.292969 51.675781 59.511719 52.203125 57.011719 52.203125 C 54.511719 52.203125 58.082031 50.902344 55.941406 49.859375 C 53.800781 48.820312 52.371094 51.417969 52.371094 52.984375 C 52.371094 54.542969 57.722656 55.058594 61.292969 53.894531 C 62.015625 57.402344 62.363281 57.667969 57.363281 63.640625 C 60.945312 61.300781 61.285156 60.78125 65.226562 62.082031 C 61.292969 58.699219 64.238281 51.8125 64.371094 50.058594 C 64.503906 48.304688 63.621094 46.21875 62.015625 45.179688 C 59.152344 42.582031 52.90625 42.460938 49.160156 44.136719 C 43.703125 46.574219 43.4375 53.753906 44.867188 56.101562 L 65.214844 100.046875 C 66.285156 101.871094 63.433594 107.851562 57.011719 108.109375 C 50.230469 108.628906 47.902344 101.519531 46.699219 98.441406 L 55.941406 99.113281 C 55.941406 99.113281 56.300781 97.691406 55.941406 96.765625 C 51.167969 96.453125 46.699219 95.585938 46.699219 95.585938 L 46.347656 90.902344 L 50.910156 90.902344 L 50.546875 88.828125 C 50.546875 88.828125 46.699219 89.085938 46.347656 88.828125 C 45.988281 88.570312 45.628906 84.136719 45.628906 84.136719 C 45.628906 84.136719 44.917969 83.878906 44.148438 83.878906 C 43.363281 83.878906 42.65625 84.136719 42.65625 84.136719 C 42.65625 84.136719 42.292969 88.570312 41.945312 88.828125 C 41.585938 89.085938 37.734375 88.828125 37.734375 88.828125 L 37.386719 90.902344 L 41.945312 90.902344 L 41.585938 95.585938 C 41.585938 95.585938 37.117188 96.453125 32.339844 96.765625 C 31.992188 97.691406 32.339844 99.113281 32.339844 99.113281 L 41.585938 98.441406 C 40.378906 101.519531 38.054688 108.628906 31.28125 108.109375 C 24.847656 107.851562 21.996094 101.871094 23.066406 100.046875 L 43.425781 56.101562 C 44.847656 53.753906 44.578125 46.574219 39.125 44.136719 C 35.378906 42.460938 29.140625 42.582031 26.28125 45.179688 C 24.675781 46.21875 23.777344 48.304688 23.914062 50.058594 C 24.046875 51.8125 26.988281 58.699219 23.058594 62.082031 C 27 60.78125 27.351562 61.300781 30.921875 63.640625 C 25.917969 57.667969 26.28125 57.402344 26.988281 53.894531 C 30.5625 55.058594 35.921875 54.542969 35.921875 52.984375 C 35.921875 51.417969 34.484375 48.820312 32.339844 49.859375 C 30.210938 50.902344 33.773438 52.203125 31.28125 52.203125 C 28.769531 52.203125 26.988281 51.675781 26.988281 49.859375 C 26.988281 48.042969 29.492188 45.960938 33.0625 45.960938 C 36.632812 45.960938 40.914062 47.777344 40.195312 54.285156 C 39.484375 60.78125 18.425781 96.929688 18.425781 101.347656 C 18.425781 105.769531 22.347656 111.492188 32.703125 111.492188 C 39.484375 112.011719 41.894531 104.933594 44.351562 102.542969 Z M 44.351562 102.542969 "/>
<path style=" stroke:none;fill-rule:evenodd;fill:rgb(100%,89.411765%,0%);fill-opacity:1;" d="M 45.175781 9.753906 C 47.613281 7.363281 46.8125 3.347656 53.59375 3.863281 C 63.949219 3.863281 64.246094 10.199219 64.246094 14.621094 C 64.246094 19.039062 48.820312 25.214844 48.109375 31.714844 C 47.386719 38.21875 51.671875 40.035156 55.25 40.035156 C 58.8125 40.035156 61.3125 37.953125 61.3125 36.136719 C 61.3125 34.320312 59.535156 33.796875 57.03125 33.796875 C 54.53125 33.796875 58.101562 35.09375 55.960938 36.136719 C 53.820312 37.179688 52.390625 34.578125 52.390625 33.011719 C 52.390625 31.453125 57.742188 30.9375 61.3125 32.105469 C 62.035156 28.597656 62.382812 28.332031 57.382812 22.355469 C 60.964844 24.699219 61.304688 25.214844 65.246094 23.914062 C 61.3125 27.296875 64.257812 34.1875 64.390625 35.941406 C 64.523438 37.695312 63.640625 39.777344 62.035156 40.820312 C 59.171875 43.417969 52.925781 43.535156 49.179688 41.859375 C 43.722656 39.425781 43.457031 32.246094 44.886719 29.898438 L 60.007812 14.394531 C 61.078125 12.570312 61.449219 7.503906 55.027344 7.246094 C 48.242188 6.730469 45.917969 15.976562 44.710938 19.054688 C 43.097656 15.695312 41.296875 6.425781 34.511719 6.941406 C 28.082031 7.199219 26.84375 12.265625 27.914062 14.089844 L 43.445312 29.898438 C 44.867188 32.246094 44.597656 39.425781 39.144531 41.859375 C 35.398438 43.535156 29.160156 43.417969 26.300781 40.820312 C 24.695312 39.777344 23.796875 37.695312 23.933594 35.941406 C 24.066406 34.1875 27.011719 27.296875 23.078125 23.914062 C 27.019531 25.214844 27.371094 24.699219 30.941406 22.355469 C 25.941406 28.332031 26.300781 28.597656 27.011719 32.105469 C 30.582031 30.9375 35.945312 31.453125 35.945312 33.011719 C 35.945312 34.578125 34.503906 37.179688 32.363281 36.136719 C 30.230469 35.09375 33.792969 33.796875 31.300781 33.796875 C 28.789062 33.796875 27.011719 34.320312 27.011719 36.136719 C 27.011719 37.953125 29.511719 40.035156 33.082031 40.035156 C 36.652344 40.035156 40.933594 38.21875 40.214844 31.714844 C 39.503906 25.214844 23.675781 18.121094 23.675781 13.707031 C 23.675781 9.28125 24.777344 3.863281 35.128906 3.863281 C 41.914062 3.347656 42.714844 7.363281 45.175781 9.753906 Z M 45.175781 9.753906 "/>
<path style=" stroke:none;fill-rule:evenodd;fill:rgb(100%,89.411765%,0%);fill-opacity:1;" d="M 263.011719 89.824219 C 300.640625 89.824219 331.148438 118.726562 331.148438 154.378906 L 331.148438 154.382812 C 331.148438 190.035156 300.640625 218.941406 263.011719 218.941406 C 225.378906 218.941406 194.875 190.035156 194.875 154.382812 L 194.875 154.378906 C 194.875 118.726562 225.378906 89.824219 263.011719 89.824219 Z M 263.011719 89.824219 "/>
<path style=" stroke:none;fill-rule:evenodd;fill:rgb(100%,89.411765%,0%);fill-opacity:1;" d="M 259.746094 51.324219 C 259.179688 51.320312 256.117188 72.8125 254.933594 77.640625 C 253.871094 88.390625 269.394531 88 266.855469 77.214844 L 259.75 51.324219 Z M 259.746094 51.324219 "/>
<path style=" stroke:none;fill-rule:evenodd;fill:rgb(100%,89.411765%,0%);fill-opacity:1;" d="M 265.210938 259.332031 C 265.777344 259.375 270.40625 238.136719 271.941406 233.394531 C 273.789062 222.742188 258.273438 222.109375 260.015625 233.035156 Z M 265.210938 259.332031 "/>
<path style=" stroke:none;fill-rule:evenodd;fill:rgb(100%,89.411765%,0%);fill-opacity:1;" d="M 156.667969 153.988281 C 156.621094 154.523438 179.011719 159.015625 184.007812 160.492188 C 195.246094 162.292969 195.984375 147.59375 184.445312 149.191406 Z M 156.667969 153.988281 "/>
<path style=" stroke:none;fill-rule:evenodd;fill:rgb(100%,89.411765%,0%);fill-opacity:1;" d="M 374.171875 156.542969 C 374.195312 156.007812 351.628906 152.320312 346.570312 151.023438 C 335.265625 149.625 335.175781 164.339844 346.632812 162.328125 Z M 374.171875 156.542969 "/>
<path style=" stroke:none;fill-rule:evenodd;fill:rgb(100%,89.411765%,0%);fill-opacity:1;" d="M 179.578125 85.972656 C 179.191406 86.367188 193.902344 102.984375 196.871094 107.066406 C 204.546875 115.046875 214.695312 103.90625 204.570312 98.425781 Z M 179.578125 85.972656 "/>
<path style=" stroke:none;fill-rule:evenodd;fill:rgb(100%,89.411765%,0%);fill-opacity:1;" d="M 348.605469 222.855469 C 348.953125 222.429688 332.777344 207.085938 329.445312 203.265625 C 321.066406 195.945312 311.980469 207.878906 322.570312 212.503906 Z M 348.605469 222.855469 "/>
<path style=" stroke:none;fill-rule:evenodd;fill:rgb(100%,89.411765%,0%);fill-opacity:1;" d="M 213.339844 62.742188 C 212.828125 62.964844 219.71875 83.644531 220.816406 88.496094 C 224.691406 98.648438 238.5625 92.027344 231.414062 83.296875 Z M 213.339844 62.742188 "/>
<path style=" stroke:none;fill-rule:evenodd;fill:rgb(100%,89.411765%,0%);fill-opacity:1;" d="M 311.808594 248.726562 C 312.339844 248.535156 306.980469 227.453125 306.238281 222.542969 C 303.117188 212.160156 288.792969 217.851562 295.285156 227.03125 Z M 311.808594 248.726562 "/>
<path style=" stroke:none;fill-rule:evenodd;fill:rgb(100%,89.411765%,0%);fill-opacity:1;" d="M 335.964844 77.136719 C 335.558594 76.765625 317.785156 90.433594 313.429688 93.183594 C 304.886719 100.324219 316.480469 110.117188 322.425781 100.613281 Z M 335.964844 77.136719 "/>
<path style=" stroke:none;fill-rule:evenodd;fill:rgb(100%,89.411765%,0%);fill-opacity:1;" d="M 189.542969 232.210938 C 189.925781 232.609375 208.652344 220.144531 213.199219 217.6875 C 222.25 211.125 211.402344 200.59375 204.773438 209.683594 Z M 189.542969 232.210938 "/>
<path style=" stroke:none;fill-rule:evenodd;fill:rgb(100%,89.411765%,0%);fill-opacity:1;" d="M 161.453125 116.808594 C 161.222656 117.296875 180.765625 128.585938 184.957031 131.554688 C 194.921875 136.792969 200.78125 123.164062 189.335938 121.035156 L 161.457031 116.808594 Z M 161.453125 116.808594 "/>
<path style=" stroke:none;fill-rule:evenodd;fill:rgb(100%,89.411765%,0%);fill-opacity:1;" d="M 364.710938 195.605469 C 364.980469 195.132812 346.3125 182.585938 342.34375 179.347656 C 332.789062 173.46875 325.945312 186.679688 337.207031 189.554688 Z M 364.710938 195.605469 "/>
<path style=" stroke:none;fill-rule:evenodd;fill:rgb(100%,89.411765%,0%);fill-opacity:1;" d="M 300.113281 57.21875 C 299.585938 57.019531 288.449219 75.964844 285.484375 80.050781 C 280.351562 89.6875 294.953125 94.699219 296.75 83.78125 Z M 300.113281 57.21875 "/>
<path style=" stroke:none;fill-rule:evenodd;fill:rgb(100%,89.411765%,0%);fill-opacity:1;" d="M 224.988281 252.734375 C 225.5 252.972656 237.996094 234.804688 241.257812 230.921875 C 247.082031 221.644531 232.882812 215.6875 230.292969 226.460938 Z M 224.988281 252.734375 "/>
<path style=" stroke:none;fill-rule:evenodd;fill:rgb(100%,89.411765%,0%);fill-opacity:1;" d="M 162.96875 197.269531 C 163.171875 197.773438 185.371094 192.480469 190.542969 191.726562 C 201.472656 188.664062 195.320312 175.15625 185.695312 181.394531 Z M 162.96875 197.269531 "/>
<path style=" stroke:none;fill-rule:evenodd;fill:rgb(100%,89.411765%,0%);fill-opacity:1;" d="M 364.757812 115.167969 C 364.589844 114.652344 342.058594 118.472656 336.84375 118.882812 C 325.71875 121.21875 330.867188 135.101562 340.921875 129.507812 Z M 364.757812 115.167969 "/>
<path style=" stroke:none;fill-rule:evenodd;fill:rgb(100%,89.411765%,0%);fill-opacity:1;" d="M 281.902344 52.738281 C 281.347656 52.625 273.785156 73.09375 271.601562 77.597656 C 268.277344 87.925781 283.570312 90.5 283.371094 79.453125 Z M 281.902344 52.738281 "/>
<path style=" stroke:none;fill-rule:evenodd;fill:rgb(100%,89.411765%,0%);fill-opacity:1;" d="M 243.101562 257.539062 C 243.648438 257.6875 252.691406 237.765625 255.203125 233.414062 C 259.273438 223.332031 244.207031 219.757812 243.597656 230.789062 Z M 243.101562 257.539062 "/>
<path style=" stroke:none;fill-rule:evenodd;fill:rgb(100%,89.411765%,0%);fill-opacity:1;" d="M 235.28125 54.753906 C 234.730469 54.867188 236.816406 76.464844 236.804688 81.421875 C 238.308594 92.125 253.347656 88.453125 248.324219 78.480469 L 235.285156 54.753906 Z M 235.28125 54.753906 "/>
<path style=" stroke:none;fill-rule:evenodd;fill:rgb(100%,89.411765%,0%);fill-opacity:1;" d="M 289.722656 256.332031 C 290.285156 256.253906 289.78125 234.570312 290.160156 229.625 C 289.445312 218.847656 274.171875 221.523438 278.449219 231.800781 L 289.722656 256.328125 Z M 289.722656 256.332031 "/>
<path style=" stroke:none;fill-rule:evenodd;fill:rgb(100%,89.411765%,0%);fill-opacity:1;" d="M 196.683594 72.726562 C 196.21875 73.035156 206.902344 92.214844 208.898438 96.796875 C 214.625 106.132812 227.023438 97.269531 218.34375 89.886719 Z M 196.683594 72.726562 "/>
<path style=" stroke:none;fill-rule:evenodd;fill:rgb(100%,89.411765%,0%);fill-opacity:1;" d="M 328.648438 239.039062 C 329.136719 238.761719 319.886719 218.925781 318.230469 214.222656 C 313.199219 204.535156 300.183594 212.5625 308.300781 220.496094 Z M 328.648438 239.039062 "/>
<path style=" stroke:none;fill-rule:evenodd;fill:rgb(100%,89.411765%,0%);fill-opacity:1;" d="M 168.539062 99.582031 C 168.222656 100.027344 185.453125 114.300781 189.050781 117.902344 C 197.929688 124.671875 206.148438 112.1875 195.253906 108.246094 Z M 168.539062 99.582031 "/>
<path style=" stroke:none;fill-rule:evenodd;fill:rgb(100%,89.411765%,0%);fill-opacity:1;" d="M 356.003906 211.34375 C 356.351562 210.921875 340.210938 195.546875 336.882812 191.714844 C 328.523438 184.378906 319.40625 196.292969 329.988281 200.941406 Z M 356.003906 211.34375 "/>
<path style=" stroke:none;fill-rule:evenodd;fill:rgb(100%,89.411765%,0%);fill-opacity:1;" d="M 156.1875 133.113281 C 156.042969 133.632812 177.269531 141.746094 181.917969 144.023438 C 192.652344 147.648438 196.082031 133.296875 184.421875 132.96875 Z M 156.1875 133.113281 "/>
<path style=" stroke:none;fill-rule:evenodd;fill:rgb(100%,89.411765%,0%);fill-opacity:1;" d="M 370.289062 179.398438 C 370.472656 178.886719 349.894531 169.398438 345.421875 166.820312 C 334.980469 162.496094 330.507812 176.589844 342.113281 177.683594 Z M 370.289062 179.398438 "/>
<path style=" stroke:none;fill-rule:evenodd;fill:rgb(100%,89.411765%,0%);fill-opacity:1;" d="M 155.492188 174.28125 C 155.570312 174.8125 178.457031 174.492188 183.671875 174.882812 C 195.050781 174.28125 192.335938 159.792969 181.457031 163.773438 Z M 155.492188 174.28125 "/>
<path style=" stroke:none;fill-rule:evenodd;fill:rgb(100%,89.411765%,0%);fill-opacity:1;" d="M 371.789062 138.269531 C 371.75 137.730469 348.894531 136.546875 343.71875 135.8125 C 332.324219 135.664062 333.96875 150.296875 345.113281 147.042969 Z M 371.789062 138.269531 "/>
<path style=" stroke:none;fill-rule:evenodd;fill:rgb(100%,89.411765%,0%);fill-opacity:1;" d="M 175.085938 217.082031 C 175.402344 217.527344 195.839844 207.765625 200.714844 205.957031 C 210.671875 200.703125 201.546875 188.796875 193.597656 196.882812 Z M 175.085938 217.082031 "/>
<path style=" stroke:none;fill-rule:evenodd;fill:rgb(100%,89.411765%,0%);fill-opacity:1;" d="M 353.03125 95.148438 C 352.75 94.679688 331.644531 103.078125 326.652344 104.558594 C 316.335938 109.144531 324.5625 121.625 333.085938 114.082031 L 353.035156 95.148438 Z M 353.03125 95.148438 "/>
<path style=" stroke:none;fill-rule:evenodd;fill:rgb(100%,89.411765%,0%);fill-opacity:1;" d="M 208.425781 245.371094 C 208.90625 245.660156 223.535156 228.984375 227.242188 225.484375 C 234.160156 216.902344 220.78125 209.433594 216.894531 219.851562 Z M 208.425781 245.371094 "/>
<path style=" stroke:none;fill-rule:evenodd;fill:rgb(100%,89.411765%,0%);fill-opacity:1;" d="M 320.261719 66.300781 C 319.804688 65.980469 303.988281 81.65625 300.035156 84.902344 C 292.503906 93.007812 305.304688 101.339844 309.941406 91.203125 Z M 320.261719 66.300781 "/>
<path style=" stroke:none;fill-rule:evenodd;fill:rgb(100%,89.411765%,0%);fill-opacity:1;" d="M 158.894531 197.375 C 159.988281 201.503906 160.261719 224.722656 184.828125 246.914062 C 209.394531 269.101562 251.15625 274.003906 251.15625 274.003906 C 251.15625 274.003906 251.429688 277.101562 248.425781 277.359375 C 245.425781 277.617188 231.230469 274.78125 224.132812 272.714844 C 217.035156 270.652344 210.757812 267.039062 209.941406 267.296875 C 209.121094 267.554688 207.757812 269.878906 205.574219 269.621094 C 203.390625 269.363281 193.289062 259.300781 188.921875 256.71875 C 184.554688 254.140625 169.8125 238.914062 164.902344 231.433594 C 159.988281 223.953125 158.894531 219.046875 157.257812 219.046875 C 155.621094 219.046875 149.886719 222.660156 149.886719 222.660156 C 149.886719 222.660156 144.703125 215.179688 140.0625 203.308594 C 135.421875 191.441406 135.96875 184.472656 137.058594 183.957031 C 138.152344 183.441406 138.152344 192.730469 141.699219 201.246094 C 145.25 209.761719 150.160156 212.339844 150.160156 212.339844 C 150.160156 212.339844 146.886719 207.953125 144.429688 196.859375 C 141.972656 185.761719 141.152344 175.183594 142.789062 171.832031 C 144.429688 168.476562 146.066406 167.445312 146.339844 167.703125 C 146.613281 167.960938 143.335938 172.863281 145.519531 185.507812 C 147.703125 198.148438 153.984375 208.984375 155.347656 208.46875 C 156.710938 207.953125 154.527344 205.371094 153.4375 197.890625 C 152.34375 190.410156 154.527344 185.761719 156.441406 185.25 C 157.257812 184.472656 158.625 193.503906 158.894531 197.375 Z M 158.894531 197.375 "/>
<path style=" stroke:none;fill-rule:evenodd;fill:rgb(100%,89.411765%,0%);fill-opacity:1;" d="M 141.695312 218.527344 C 137.058594 214.398438 129.6875 199.953125 128.050781 200.726562 C 126.410156 201.5 140.058594 222.140625 140.332031 223.949219 C 140.605469 225.753906 143.609375 231.429688 141.425781 230.65625 C 139.242188 229.882812 122.863281 213.628906 124.773438 216.722656 C 126.683594 219.820312 138.96875 234.007812 138.148438 234.785156 C 137.328125 235.558594 128.050781 227.042969 127.777344 228.078125 C 127.503906 229.109375 137.058594 237.621094 136.785156 238.65625 C 136.511719 239.6875 130.777344 233.238281 130.777344 234.527344 C 130.777344 235.816406 136.785156 242.265625 136.785156 243.296875 C 136.785156 244.332031 131.597656 238.65625 133.238281 241.75 C 134.875 244.847656 139.511719 247.6875 139.242188 248.71875 C 138.96875 249.75 135.421875 247.425781 135.421875 247.941406 C 135.421875 248.457031 142.242188 250.78125 143.878906 252.585938 C 145.519531 254.394531 156.710938 266.519531 165.171875 272.710938 C 173.636719 278.90625 197.65625 289.484375 199.292969 289.484375 C 200.929688 289.484375 203.386719 286.128906 202.839844 284.839844 C 202.296875 283.546875 178.820312 276.066406 172.269531 270.390625 C 165.71875 264.714844 149.613281 251.296875 148.25 250.523438 C 146.882812 249.75 143.335938 250.007812 143.335938 249.234375 C 143.335938 248.457031 147.976562 249.75 147.703125 249.234375 C 147.429688 248.71875 141.152344 246.136719 141.425781 245.621094 C 141.695312 245.105469 145.792969 246.652344 145.792969 246.136719 C 145.792969 245.621094 138.421875 241.75 138.695312 240.976562 C 138.96875 240.203125 144.15625 243.296875 144.15625 242.78125 C 144.15625 242.265625 137.058594 237.621094 137.328125 236.847656 C 137.605469 236.074219 142.789062 240.460938 142.515625 239.429688 C 142.242188 238.398438 138.421875 232.976562 138.421875 232.203125 C 138.421875 231.429688 144.699219 237.878906 145.246094 236.589844 C 145.792969 235.300781 143.0625 224.722656 143.335938 224.464844 C 143.609375 224.207031 147.957031 226.8125 148.777344 225.261719 C 149.59375 223.714844 145.566406 221.5625 141.695312 218.527344 Z M 141.695312 218.527344 "/>
<path style=" stroke:none;fill-rule:evenodd;fill:rgb(100%,89.411765%,0%);fill-opacity:1;" d="M 222.246094 299.777344 C 218.9375 300.183594 217.449219 299.125 219.324219 296.582031 C 221.925781 296.398438 228.84375 294.304688 231.289062 293.34375 C 233.734375 292.382812 236.34375 291.003906 238.515625 289.160156 C 240.683594 287.144531 241.839844 290.453125 240.757812 292.164062 C 239.855469 293.367188 235.796875 295.539062 232.816406 296.6875 C 228.484375 298.046875 224.765625 299.933594 222.246094 299.777344 Z M 222.246094 299.777344 "/>
<path style=" stroke:none;fill-rule:evenodd;fill:rgb(100%,89.411765%,0%);fill-opacity:1;" d="M 244.058594 291.300781 C 241.875 288.976562 243.789062 287.429688 247.0625 285.625 C 251.976562 283.042969 250.613281 279.691406 256.890625 276.851562 C 259.621094 275.304688 298.652344 260.339844 311.480469 252.339844 C 324.3125 244.339844 360.070312 218.796875 369.621094 201.253906 C 379.175781 183.707031 374.535156 182.417969 375.902344 181.644531 C 377.265625 180.871094 378.632812 184.222656 378.355469 188.09375 C 378.085938 191.964844 375.082031 203.574219 375.902344 204.609375 C 376.71875 205.640625 390.367188 195.578125 395.828125 183.191406 C 401.285156 170.808594 405.652344 157.90625 408.382812 157.90625 C 411.113281 157.90625 403.742188 179.0625 399.101562 187.320312 C 394.460938 195.578125 389.003906 199.707031 390.367188 201.511719 C 391.734375 203.316406 405.382812 192.480469 410.019531 184.480469 C 414.664062 176.484375 419.03125 169.257812 419.847656 170.808594 C 420.667969 172.355469 415.480469 189.386719 408.113281 197.382812 C 400.742188 205.382812 392.007812 211.058594 393.371094 212.347656 C 394.734375 213.640625 404.5625 214.929688 414.933594 208.21875 C 425.308594 201.511719 426.398438 191.707031 427.765625 192.222656 C 429.128906 192.738281 426.398438 206.15625 416.570312 214.410156 C 406.746094 222.667969 393.371094 223.441406 393.917969 225.25 C 394.460938 227.054688 422.304688 217.765625 421.757812 219.832031 C 421.214844 221.894531 385.726562 235.054688 385.453125 236.34375 C 385.457031 237.375 391.460938 237.632812 401.011719 235.570312 C 410.566406 233.507812 419.578125 226.539062 420.941406 228.089844 C 421.210938 230.410156 414.117188 236.085938 403.195312 238.667969 C 392.277344 241.246094 386.820312 244.859375 386.546875 245.632812 C 386.273438 246.40625 405.929688 243.308594 405.929688 244.339844 C 405.929688 245.375 380.269531 250.019531 379.996094 251.308594 C 379.722656 252.601562 404.5625 246.664062 404.015625 247.953125 C 403.46875 249.246094 370.441406 258.53125 370.714844 259.050781 C 370.988281 259.566406 398.285156 253.371094 397.738281 254.40625 C 397.191406 255.4375 351.609375 267.5625 351.335938 268.339844 C 351.0625 269.109375 391.460938 259.824219 391.1875 260.597656 C 390.914062 261.371094 370.167969 266.273438 370.167969 266.789062 C 370.167969 267.304688 386.820312 264.210938 386.546875 264.984375 C 386.273438 265.757812 344.511719 275.820312 343.691406 277.367188 C 342.875 278.917969 365.253906 273.238281 364.984375 276.078125 C 364.710938 278.917969 316.667969 294.398438 316.394531 291.558594 C 316.121094 288.71875 345.601562 281.496094 345.328125 280.722656 C 345.058594 279.949219 328.40625 282.527344 328.132812 280.980469 C 327.859375 279.433594 339.050781 276.078125 338.234375 275.304688 C 337.414062 274.53125 328.953125 277.625 329.769531 275.820312 C 330.589844 274.015625 346.421875 267.046875 346.148438 266.53125 C 345.875 266.015625 340.417969 268.335938 340.960938 266.53125 C 341.507812 264.726562 375.355469 255.4375 374.808594 254.40625 C 374.261719 253.371094 359.25 256.726562 357.886719 256.984375 C 357.339844 255.953125 378.902344 248.46875 378.355469 247.179688 C 377.8125 245.890625 366.894531 251.566406 366.347656 250.019531 C 365.800781 248.46875 385.183594 241.246094 384.089844 240.214844 C 383 239.179688 373.992188 243.050781 372.898438 242.019531 C 371.808594 240.988281 391.1875 228.089844 388.183594 227.828125 C 385.183594 227.570312 381.632812 231.699219 381.085938 229.121094 C 381.632812 225.765625 396.375 220.347656 393.097656 217.765625 C 387.910156 216.21875 370.167969 218.800781 362.800781 222.925781 C 355.429688 227.054688 331.136719 250.019531 325.128906 253.628906 C 319.125 257.242188 298.925781 265.242188 295.105469 266.789062 C 289.097656 268.855469 288.007812 271.949219 282.003906 274.789062 C 271.082031 277.628906 271.082031 280.722656 265.898438 282.527344 C 263.988281 283.042969 244.335938 292.074219 244.058594 291.300781 Z M 244.058594 291.300781 "/>
<path style=" stroke:none;fill-rule:evenodd;fill:rgb(100%,89.411765%,0%);fill-opacity:1;" d="M 216.492188 302.90625 C 213.21875 304.457031 210.214844 308.582031 212.125 310.132812 C 213.21875 312.195312 216.492188 305.746094 219.222656 306.003906 C 221.953125 306.261719 225.773438 306.261719 233.144531 306.777344 C 240.511719 307.292969 244.335938 305.230469 248.429688 305.488281 C 252.523438 305.746094 261.804688 303.421875 266.171875 303.421875 C 270.539062 303.421875 271.359375 303.9375 271.90625 302.132812 C 272.449219 300.328125 258.253906 301.617188 251.976562 301.359375 C 245.699219 301.101562 237.78125 302.648438 233.144531 302.648438 C 228.777344 302.390625 221.132812 301.101562 216.492188 302.90625 Z M 216.492188 302.90625 "/>
<path style=" stroke:none;fill-rule:evenodd;fill:rgb(100%,89.411765%,0%);fill-opacity:1;" d="M 234.507812 298.519531 C 236.164062 298.519531 237.511719 299.617188 237.511719 300.96875 C 237.511719 302.324219 236.164062 303.421875 234.507812 303.421875 C 232.847656 303.421875 231.503906 302.324219 231.503906 300.96875 C 231.503906 299.617188 232.847656 298.519531 234.507812 298.519531 Z M 234.507812 298.519531 "/>
<path style=" stroke:none;fill-rule:evenodd;fill:rgb(100%,89.411765%,0%);fill-opacity:1;" d="M 307.183594 296.191406 C 310.183594 295.675781 318.199219 298.257812 323.738281 299.546875 C 333.921875 303.160156 352.746094 301.351562 352.746094 303.160156 C 352.746094 304.964844 351.574219 307.289062 347.082031 307.546875 C 342.589844 307.804688 331.78125 305.996094 332.082031 305.996094 C 332.378906 305.996094 340.765625 309.609375 338.371094 310.640625 C 335.976562 311.671875 328.785156 308.578125 327.589844 309.351562 C 326.390625 310.125 334.175781 311.671875 332.980469 312.191406 C 331.78125 312.707031 326.371094 311.414062 324.574219 311.675781 C 322.78125 311.929688 326.089844 313.738281 323.996094 314.511719 C 321.898438 315.285156 318.375 313.480469 316.878906 313.996094 C 315.382812 314.515625 320.101562 317.351562 318.003906 317.609375 C 315.910156 317.867188 310.863281 316.320312 308.164062 316.0625 C 305.472656 315.804688 310.816406 318.640625 309.023438 318.898438 C 307.222656 319.15625 302.335938 316.835938 301.140625 316.835938 C 299.941406 316.835938 301.234375 319.929688 299.4375 319.929688 C 297.640625 319.929688 295.527344 317.351562 294.628906 317.351562 C 293.730469 317.351562 294.648438 320.445312 292.851562 320.445312 C 291.054688 320.445312 290.410156 317.09375 288.914062 317.351562 C 287.140625 317.609375 288.957031 321.738281 286.5625 321.480469 C 284.164062 321.21875 283.847656 317.09375 282.050781 317.351562 C 280.253906 317.609375 282.371094 321.480469 280.574219 321.480469 C 278.777344 321.480469 278.484375 317.609375 276.6875 317.351562 C 274.890625 317.09375 275.78125 320.960938 274.582031 320.960938 C 273.386719 320.960938 272.496094 317.351562 271.894531 317.351562 C 271.296875 317.351562 271.886719 320.960938 269.792969 320.703125 C 267.695312 320.445312 267.703125 316.574219 267.105469 316.832031 C 266.507812 317.09375 266.496094 319.671875 265 319.671875 C 263.503906 319.671875 263.511719 317.09375 262.914062 317.351562 C 262.3125 317.609375 260.207031 320.960938 258.710938 320.445312 C 257.214844 319.929688 259.070312 317.351562 258.472656 317.351562 C 257.875 317.351562 256.015625 319.15625 254.820312 318.898438 C 253.621094 318.640625 254.878906 316.574219 254.578125 316.574219 C 254.28125 316.574219 251.523438 317.867188 250.328125 317.867188 C 249.128906 317.867188 245.835938 319.671875 244.933594 318.125 C 244.039062 316.574219 247.28125 316.574219 247.878906 315.027344 C 248.476562 313.480469 246.132812 309.09375 248.527344 307.546875 C 250.925781 305.996094 258.414062 309.609375 269.492188 307.03125 C 289.855469 301.871094 305.570312 295.9375 307.183594 296.191406 Z M 307.183594 296.191406 "/>
</g>
</svg>
