<?xml version="1.0" encoding="UTF-8"?>
<svg xmlns="http://www.w3.org/2000/svg" xmlns:xlink="http://www.w3.org/1999/xlink" width="480pt" height="360pt" viewBox="0 0 480 360" version="1.1">
<g id="surface1">
<path style=" stroke:none;fill-rule:evenodd;fill:rgb(100%,0%,0%);fill-opacity:1;" d="M -30 269.996094 L 509.984375 269.996094 L 509.984375 359.996094 L -30 359.996094 Z M -30 269.996094 "/>
<path style=" stroke:none;fill-rule:evenodd;fill:rgb(100%,0%,0%);fill-opacity:1;" d="M -30 0 L 509.984375 0 L 509.984375 90 L -30 90 Z M -30 0 "/>
<path style=" stroke:none;fill-rule:evenodd;fill:rgb(100%,100%,100%);fill-opacity:1;" d="M -30 90 L 509.984375 90 L 509.984375 269.996094 L -30 269.996094 Z M -30 90 "/>
<path style=" stroke:none;fill-rule:nonzero;fill:rgb(0%,47.45098%,0%);fill-opacity:1;" d="M 237.257812 91.371094 C 231.765625 102.335938 228.105469 102.335938 218.953125 109.644531 C 215.292969 113.300781 209.800781 115.128906 217.121094 118.78125 C 209.800781 122.4375 206.140625 124.265625 202.476562 131.574219 L 204.308594 133.402344 C 204.308594 133.402344 211.265625 129.992188 211.632812 131.574219 C 212.847656 133.035156 202.472656 138.640625 201.132812 139.492188 C 199.796875 140.34375 193.324219 144.367188 193.324219 144.367188 C 184.171875 151.675781 178.679688 149.847656 173.191406 160.8125 L 191.496094 158.984375 C 195.15625 171.777344 182.34375 173.605469 173.191406 179.085938 L 158.546875 188.226562 C 162.207031 201.015625 173.191406 193.707031 182.34375 190.050781 L 184.171875 191.878906 L 184.171875 195.535156 L 165.867188 204.671875 C 165.867188 204.671875 144.257812 217.035156 143.902344 217.464844 C 143.753906 218.125 143.902344 221.117188 143.902344 221.117188 C 151.222656 222.945312 162.207031 224.773438 169.53125 221.117188 C 178.683594 217.464844 180.511719 213.808594 191.496094 213.808594 C 178.683594 222.945312 169.53125 226.601562 154.886719 228.425781 L 154.886719 235.738281 C 165.867188 235.738281 173.191406 235.738281 182.34375 233.910156 L 206.140625 226.601562 C 211.632812 226.601562 217.121094 232.082031 215.292969 237.5625 C 209.800781 257.664062 187.832031 254.011719 180.511719 270.457031 L 209.800781 259.492188 C 217.121094 255.839844 224.445312 252.183594 233.597656 254.011719 C 244.578125 257.664062 244.578125 264.976562 259.222656 268.628906 L 255.5625 259.492188 C 259.222656 261.320312 262.886719 261.320312 266.546875 263.148438 C 275.699219 266.804688 277.527344 270.457031 288.511719 268.628906 C 279.359375 257.664062 277.527344 259.492188 270.207031 252.183594 C 262.886719 241.21875 259.222656 224.773438 270.207031 222.945312 L 283.019531 226.601562 C 295.832031 228.425781 295.832031 224.773438 314.140625 232.082031 C 325.121094 235.738281 328.785156 241.21875 341.597656 237.566406 C 336.105469 224.773438 315.96875 215.636719 303.15625 211.980469 C 317.800781 202.84375 314.140625 215.636719 334.273438 210.152344 L 334.273438 206.5 C 319.632812 195.535156 314.140625 186.398438 294.003906 186.398438 C 294.003906 186.398438 325.125 182.742188 325.125 182.742188 L 325.125 179.085938 C 325.125 179.085938 294.433594 171.035156 293.71875 170.75 C 293.933594 169.820312 294.683594 168.382812 296.722656 167.585938 C 302.550781 171.359375 320.175781 170.921875 321.175781 170.851562 C 320.660156 166.351562 312.308594 162.640625 304.988281 158.988281 C 304.988281 158.988281 273.636719 139.664062 273.480469 137.953125 C 274.101562 133.054688 286.355469 138.730469 299.496094 142.539062 C 295.835938 135.230469 288.511719 131.574219 281.191406 129.746094 L 292.175781 127.921875 C 284.851562 111.472656 266.546875 113.300781 255.5625 105.992188 C 248.242188 100.507812 248.242188 96.855469 237.257812 91.371094 Z M 237.257812 91.371094 "/>
<path style="fill-rule:evenodd;fill:rgb(100%,100%,100%);fill-opacity:1;stroke-width:3.219;stroke-linecap:round;stroke-linejoin:round;stroke:rgb(100%,100%,100%);stroke-opacity:1;stroke-miterlimit:4;" d="M 223.961111 303.072218 C 225.894444 296.877773 228.438889 291.39444 216.844444 286.116662 C 205.25 280.838884 222.638889 307.227773 223.961111 303.072218 Z M 223.961111 303.072218 " transform="matrix(0.703125,0,0,0.703125,60,0.0000032931)"/>
<path style="fill-rule:evenodd;fill:rgb(100%,100%,100%);fill-opacity:1;stroke-width:3.219;stroke-linecap:round;stroke-linejoin:round;stroke:rgb(100%,100%,100%);stroke-opacity:1;stroke-miterlimit:4;" d="M 237.688889 290.677773 C 235.355556 290.983329 234.127778 299.516662 238.805556 301.849995 C 243.994444 302.661106 239.722222 290.783329 237.688889 290.677773 Z M 237.688889 290.677773 " transform="matrix(0.703125,0,0,0.703125,60,0.0000032931)"/>
<path style="fill-rule:evenodd;fill:rgb(100%,100%,100%);fill-opacity:1;stroke-width:3.219;stroke-linecap:round;stroke-linejoin:round;stroke:rgb(100%,100%,100%);stroke-opacity:1;stroke-miterlimit:4;" d="M 251.222222 289.772218 C 248.777778 290.483329 248.677778 302.461106 257.222222 300.327773 C 265.761111 298.199995 257.116667 288.755551 251.222222 289.772218 Z M 251.222222 289.772218 " transform="matrix(0.703125,0,0,0.703125,60,0.0000032931)"/>
<path style="fill-rule:evenodd;fill:rgb(100%,100%,100%);fill-opacity:1;stroke-width:3.219;stroke-linecap:round;stroke-linejoin:round;stroke:rgb(100%,100%,100%);stroke-opacity:1;stroke-miterlimit:4;" d="M 266.977778 259.011106 C 268.811111 256.066662 266.877778 243.983329 259.555556 249.061106 C 252.233333 254.138884 264.638889 259.822218 266.977778 259.011106 Z M 266.977778 259.011106 " transform="matrix(0.703125,0,0,0.703125,60,0.0000032931)"/>
<path style="fill-rule:evenodd;fill:rgb(100%,100%,100%);fill-opacity:1;stroke-width:3.219;stroke-linecap:round;stroke-linejoin:round;stroke:rgb(100%,100%,100%);stroke-opacity:1;stroke-miterlimit:4;" d="M 251.011111 248.961106 C 253.25 248.149995 253.45 240.738884 247.044444 242.666662 C 240.638889 244.59444 249.283333 250.483329 251.011111 248.961106 Z M 251.011111 248.961106 " transform="matrix(0.703125,0,0,0.703125,60,0.0000032931)"/>
<path style="fill-rule:evenodd;fill:rgb(100%,100%,100%);fill-opacity:1;stroke-width:3.219;stroke-linecap:round;stroke-linejoin:round;stroke:rgb(100%,100%,100%);stroke-opacity:1;stroke-miterlimit:4;" d="M 236.577778 251.899995 C 236.577778 251.899995 232.105556 245.705551 228.644444 247.027773 C 224.272222 251.188884 236.883333 251.999995 236.577778 251.899995 Z M 236.577778 251.899995 " transform="matrix(0.703125,0,0,0.703125,60,0.0000032931)"/>
<path style="fill-rule:evenodd;fill:rgb(100%,100%,100%);fill-opacity:1;stroke-width:3.219;stroke-linecap:round;stroke-linejoin:round;stroke:rgb(100%,100%,100%);stroke-opacity:1;stroke-miterlimit:4;" d="M 186.988889 271.688884 C 188.894444 271.861106 203.016667 269.361106 207.9 263.877773 C 212.777778 258.39444 182.772222 266.227773 182.772222 266.327773 C 182.772222 266.427773 185.605556 271.172218 186.988889 271.688884 Z M 186.988889 271.688884 " transform="matrix(0.703125,0,0,0.703125,60,0.0000032931)"/>
<path style="fill-rule:evenodd;fill:rgb(100%,100%,100%);fill-opacity:1;stroke-width:3.219;stroke-linecap:round;stroke-linejoin:round;stroke:rgb(100%,100%,100%);stroke-opacity:1;stroke-miterlimit:4;" d="M 328.1 236.727773 C 328.827778 235.433329 320.583333 229.555551 315.683333 231.872218 C 314.422222 236.211106 328.061111 237.622218 328.1 236.727773 Z M 328.1 236.727773 " transform="matrix(0.703125,0,0,0.703125,60,0.0000032931)"/>
<path style="fill-rule:evenodd;fill:rgb(100%,100%,100%);fill-opacity:1;stroke-width:3.219;stroke-linecap:round;stroke-linejoin:round;stroke:rgb(100%,100%,100%);stroke-opacity:1;stroke-miterlimit:4;" d="M 300.338889 222.761106 C 301.866667 220.527773 296.783333 211.388884 286.611111 216.466662 C 276.444444 221.54444 297.288889 226.311106 300.338889 222.761106 Z M 300.338889 222.761106 " transform="matrix(0.703125,0,0,0.703125,60,0.0000032931)"/>
<path style="fill-rule:evenodd;fill:rgb(100%,100%,100%);fill-opacity:1;stroke-width:3.219;stroke-linecap:round;stroke-linejoin:round;stroke:rgb(100%,100%,100%);stroke-opacity:1;stroke-miterlimit:4;" d="M 268.2 217.377773 C 268.2 217.377773 270.738889 209.155551 276.844444 210.783329 C 283.761111 216.061106 268.505556 217.683329 268.2 217.377773 Z M 268.2 217.377773 " transform="matrix(0.703125,0,0,0.703125,60,0.0000032931)"/>
<path style="fill-rule:evenodd;fill:rgb(100%,100%,100%);fill-opacity:1;stroke-width:3.219;stroke-linecap:round;stroke-linejoin:round;stroke:rgb(100%,100%,100%);stroke-opacity:1;stroke-miterlimit:4;" d="M 262.2 211.188884 C 261.283333 208.855551 254.877778 210.277773 247.555556 215.049995 C 240.233333 219.822218 264.433333 216.472218 262.2 211.188884 Z M 262.2 211.188884 " transform="matrix(0.703125,0,0,0.703125,60,0.0000032931)"/>
<path style="fill-rule:evenodd;fill:rgb(100%,100%,100%);fill-opacity:1;stroke-width:3.219;stroke-linecap:round;stroke-linejoin:round;stroke:rgb(100%,100%,100%);stroke-opacity:1;stroke-miterlimit:4;" d="M 280.911111 189.061106 C 280.911111 189.061106 287.433333 186.138884 289.35 189.061106 C 292.094444 193.427773 280.811111 189.161106 280.911111 189.061106 Z M 280.911111 189.061106 " transform="matrix(0.703125,0,0,0.703125,60,0.0000032931)"/>
<path style="fill-rule:evenodd;fill:rgb(100%,100%,100%);fill-opacity:1;stroke-width:3.219;stroke-linecap:round;stroke-linejoin:round;stroke:rgb(100%,100%,100%);stroke-opacity:1;stroke-miterlimit:4;" d="M 275.438889 186.199995 C 274.116667 183.561106 266.9 183.311106 267.083333 187.122218 C 265.877778 190.111106 276.466667 189.555551 275.438889 186.199995 Z M 275.438889 186.199995 " transform="matrix(0.703125,0,0,0.703125,60,0.0000032931)"/>
<path style="fill-rule:evenodd;fill:rgb(100%,100%,100%);fill-opacity:1;stroke-width:3.219;stroke-linecap:round;stroke-linejoin:round;stroke:rgb(100%,100%,100%);stroke-opacity:1;stroke-miterlimit:4;" d="M 258.238889 186.211106 C 257.527778 184.688884 247.261111 186.238884 244.205556 192.405551 C 249.105556 194.783329 260.477778 190.066662 258.238889 186.211106 Z M 258.238889 186.211106 " transform="matrix(0.703125,0,0,0.703125,60,0.0000032931)"/>
<path style="fill-rule:evenodd;fill:rgb(100%,100%,100%);fill-opacity:1;stroke-width:3.219;stroke-linecap:round;stroke-linejoin:round;stroke:rgb(100%,100%,100%);stroke-opacity:1;stroke-miterlimit:4;" d="M 236.272222 192.511106 C 236.272222 192.511106 222.761111 200.766662 221.933333 206.827773 C 222.338889 212.055551 238.711111 197.383329 238.711111 197.383329 C 238.711111 197.383329 240.133333 191.59444 236.272222 192.511106 Z M 236.272222 192.511106 " transform="matrix(0.703125,0,0,0.703125,60,0.0000032931)"/>
<path style="fill-rule:evenodd;fill:rgb(100%,100%,100%);fill-opacity:1;stroke-width:3.219;stroke-linecap:round;stroke-linejoin:round;stroke:rgb(100%,100%,100%);stroke-opacity:1;stroke-miterlimit:4;" d="M 221.322222 184.999995 C 221.7 183.322218 227.994444 179.427773 228.538889 179.722218 C 229.05 181.416662 223.394444 185.999995 221.322222 184.999995 Z M 221.322222 184.999995 " transform="matrix(0.703125,0,0,0.703125,60,0.0000032931)"/>
<path style="fill-rule:evenodd;fill:rgb(100%,100%,100%);fill-opacity:1;stroke-width:3.219;stroke-linecap:round;stroke-linejoin:round;stroke:rgb(100%,100%,100%);stroke-opacity:1;stroke-miterlimit:4;" d="M 225.588889 216.572218 C 225.894444 214.133329 209.522222 214.333329 215.727778 221.849995 C 220.894444 228.149995 226.711111 217.688884 225.588889 216.572218 Z M 225.588889 216.572218 " transform="matrix(0.703125,0,0,0.703125,60,0.0000032931)"/>
<path style="fill-rule:evenodd;fill:rgb(100%,100%,100%);fill-opacity:1;stroke-width:3.219;stroke-linecap:round;stroke-linejoin:round;stroke:rgb(100%,100%,100%);stroke-opacity:1;stroke-miterlimit:4;" d="M 210.688889 227.349995 C 209.838889 225.699995 208.605556 221.311106 206.366667 220.905551 C 204.538889 220.805551 194.694444 222.833329 193.938889 224.499995 C 193.533333 225.822218 198.016667 233.938884 199.544444 234.138884 C 201.272222 234.849995 210.383333 228.161106 210.688889 227.349995 Z M 210.688889 227.349995 " transform="matrix(0.703125,0,0,0.703125,60,0.0000032931)"/>
<path style="fill-rule:evenodd;fill:rgb(100%,100%,100%);fill-opacity:1;stroke-width:3.219;stroke-linecap:round;stroke-linejoin:round;stroke:rgb(100%,100%,100%);stroke-opacity:1;stroke-miterlimit:4;" d="M 299.022222 282.461106 C 299.527778 280.733329 316.261111 274.955551 322.033333 280.483329 C 328.844444 289.822218 298.616667 285.405551 299.022222 282.461106 Z M 299.022222 282.461106 " transform="matrix(0.703125,0,0,0.703125,60,0.0000032931)"/>
<path style="fill-rule:evenodd;fill:rgb(100%,100%,100%);fill-opacity:1;stroke-width:3.219;stroke-linecap:round;stroke-linejoin:round;stroke:rgb(100%,100%,100%);stroke-opacity:1;stroke-miterlimit:4;" d="M 345 293.388884 C 348.666667 287.183329 333.744444 279.833329 327.405556 286.922218 C 329.572222 295.438884 342.033333 298.522218 345 293.388884 Z M 345 293.388884 " transform="matrix(0.703125,0,0,0.703125,60,0.0000032931)"/>
</g>
</svg>
