<?xml version="1.0" encoding="UTF-8"?>
<svg xmlns="http://www.w3.org/2000/svg" xmlns:xlink="http://www.w3.org/1999/xlink" width="480pt" height="360pt" viewBox="0 0 480 360" version="1.1">
<g id="surface1">
<rect x="0" y="0" width="480" height="360" style="fill:rgb(100%,80%,0%);fill-opacity:1;stroke:none;"/>
<path style=" stroke:none;fill-rule:evenodd;fill:rgb(100%,40%,0%);fill-opacity:1;" d="M 181.222656 32.015625 L 332.796875 32.015625 L 332.796875 334.429688 L 181.222656 334.429688 Z M 181.222656 32.015625 "/>
<path style=" stroke:none;fill-rule:evenodd;fill:rgb(0%,40%,0%);fill-opacity:1;" d="M 31.996094 32.015625 L 181.351562 32.015625 L 181.351562 334.472656 L 31.996094 334.472656 Z M 31.996094 32.015625 "/>
<path style=" stroke:none;fill-rule:evenodd;fill:rgb(60%,10.588235%,20%);fill-opacity:1;" d="M 181.796875 128.6875 L 457.722656 128.6875 L 457.722656 334.804688 L 181.796875 334.804688 Z M 181.796875 128.6875 "/>
<path style="fill-rule:evenodd;fill:rgb(100%,80%,0%);fill-opacity:1;stroke-width:1.25;stroke-linecap:round;stroke-linejoin:round;stroke:rgb(60%,10.588235%,20%);stroke-opacity:1;stroke-miterlimit:4;" d="M 267.940893 101.339977 L 271.496225 101.432102 C 271.496225 101.432102 267.483681 104.803185 268.394692 109.361654 C 272.588074 103.162 274.137134 104.345973 274.137134 104.345973 C 272.861036 105.714196 270.400964 107.628344 272.315112 111.821725 C 273.956297 107.536219 277.32738 104.257261 277.32738 104.257261 C 277.32738 104.257261 276.416369 108.996567 278.422641 113.370786 C 279.879577 108.996567 282.339648 105.260397 282.339648 105.260397 C 282.339648 105.260397 281.974562 109.999703 284.072958 111.729601 C 285.710732 110.272665 286.805992 106.533083 286.805992 106.533083 C 286.805992 106.533083 289.904113 112.002563 291.818261 112.82145 C 293.367321 109.085279 293.367321 106.171408 293.367321 106.171408 C 293.367321 106.171408 299.747813 110.726465 304.852206 108.085555 C 300.293737 106.44437 298.744676 102.616075 298.744676 102.616075 C 298.744676 102.616075 307.039315 106.260121 310.594648 104.622348 C 307.128028 101.978026 299.017639 98.057607 299.017639 98.057607 C 299.017639 98.057607 305.033043 100.244716 306.766353 99.698792 C 305.944054 98.514818 303.303145 97.054471 303.303145 97.054471 " transform="matrix(1.144847,0,0,1.144847,-16.29825,108.074963)"/>
<path style=" stroke:none;fill-rule:nonzero;fill:rgb(100%,80%,0%);fill-opacity:1;" d="M 347.441406 173.195312 C 360.023438 172.050781 379.464844 182.328125 389.769531 189.1875 C 389.769531 186.898438 389.769531 184.621094 392.046875 183.472656 C 394.335938 182.328125 397.769531 184.621094 396.625 188.042969 C 393.191406 196.035156 379.464844 186.898438 374.894531 184.621094 L 377.1875 189.1875 C 370.316406 188.042969 369.171875 186.898438 364.605469 181.183594 C 363.460938 185.753906 363.460938 186.898438 357.734375 186.898438 C 359.886719 183.507812 360.609375 182.375 357.734375 178.90625 L 356.589844 185.753906 L 350.878906 177.761719 L 350.878906 185.753906 C 349.730469 184.621094 345.152344 181.183594 342.863281 181.183594 C 339.441406 180.039062 337.152344 186.898438 336.003906 190.332031 C 339.441406 186.898438 340.574219 184.621094 346.296875 186.898438 C 343.195312 189.828125 344.101562 193.34375 347.441406 196.035156 C 347.441406 196.035156 348.039062 191.28125 348.402344 190.195312 C 350.222656 191.558594 354.082031 196.675781 358.878906 197.179688 C 362.3125 197.179688 365.75 196.035156 369.171875 194.898438 C 380.609375 193.753906 405.773438 196.035156 400.058594 213.171875 C 398.914062 216.605469 397.769531 218.882812 395.480469 221.175781 C 411.496094 226.886719 397.769531 247.449219 394.335938 257.730469 C 392.046875 266.867188 393.636719 274.148438 404.914062 272.96875 C 402.636719 277.535156 398.914062 278.289062 394.335938 278.289062 C 394.335938 278.289062 394.90625 281.039062 397.851562 282.332031 C 392.960938 286.71875 399.542969 293.289062 396.625 296.574219 C 391.703125 298.933594 385.1875 295.429688 385.1875 295.429688 L 384.867188 298.667969 C 384.867188 298.667969 376.222656 298.074219 376.039062 297.707031 C 376.039062 297.707031 378.503906 293.105469 378.320312 293.011719 C 376.03125 296.4375 373.84375 298.441406 369.171875 297.707031 C 369.171875 297.707031 369.539062 295.554688 372.089844 292.832031 C 368.621094 296.289062 368.246094 297.800781 364.605469 297.707031 C 364.605469 291.996094 368.027344 285.148438 374.894531 287.425781 C 376.039062 287.425781 379.648438 290.265625 381.339844 288.433594 C 382.714844 286.464844 381.902344 279.800781 381.902344 277.511719 C 382.625 267.414062 380.609375 268.011719 374.894531 262.296875 C 370.316406 258.875 366.972656 253.625 361.257812 252.480469 C 355.535156 251.335938 346.296875 257.730469 341.71875 260.007812 C 330.28125 266.867188 319.988281 271.433594 307.40625 273.722656 C 307.40625 273.722656 307.65625 273.140625 307.65625 271.996094 C 307.65625 271.226562 320.003906 261.613281 322.164062 244.738281 C 318.785156 261.394531 306.777344 270.191406 306.324219 273.289062 C 305.875 276.382812 303.421875 281.664062 303.125 282.011719 C 304.609375 281.121094 309.371094 278.785156 315.410156 278.289062 C 314.109375 285.445312 307.40625 284.003906 306.261719 287.425781 C 306.261719 290.859375 310.84375 295.429688 306.261719 297.707031 L 287.96875 297.707031 C 287.96875 299.984375 290.78125 293.808594 290.917969 292.738281 C 288.453125 294.230469 286.890625 298.152344 281.5 297.75 C 281.695312 296.273438 284.277344 293.964844 283.84375 293.058594 C 280.757812 295.921875 279.308594 298.332031 275.375 297.707031 C 276.519531 294.285156 276.519531 289.714844 281.097656 289.714844 C 284.535156 288.570312 287.96875 290.859375 290.246094 287.425781 C 294.824219 281.714844 289.410156 269.214844 288.277344 262.359375 C 288.277344 256.644531 288.296875 255.5625 286.824219 248.59375 L 287.96875 269.15625 C 283.386719 265.71875 278.808594 263.441406 275.375 258.875 C 267.371094 248.59375 269.660156 237.167969 279.953125 230.308594 C 284.535156 226.886719 287.007812 225.101562 292.730469 222.824219 C 291.585938 219.386719 294.355469 216.859375 290.304688 215.792969 C 289.089844 217.910156 287.898438 220.222656 285.585938 220.03125 L 286.824219 214.316406 C 286.824219 214.316406 282.703125 214.570312 283.515625 221.941406 C 278.773438 219.664062 281.097656 214.316406 281.097656 214.316406 L 278.808594 214.316406 C 278.808594 214.316406 278.796875 221.117188 275.066406 222.492188 C 276.074219 219.296875 276.519531 214.316406 276.519531 214.316406 C 276.519531 214.316406 270.394531 221.621094 266.832031 219.25 C 268.929688 216.882812 270.554688 216.492188 270.269531 213.628906 C 269.992188 210.777344 268.515625 207.101562 268.25 206.519531 C 269.542969 207.144531 278.171875 209.722656 283.585938 207.039062 C 283.226562 208.828125 283.386719 210.894531 283.386719 210.894531 C 289.101562 209.75 290.246094 209.75 295.96875 212.027344 C 294.824219 204.035156 290.246094 202.890625 285.679688 197.179688 L 285.679688 201.746094 C 281.097656 200.613281 279.953125 199.46875 277.664062 194.898438 L 274.242188 197.179688 C 268.207031 193.617188 263.753906 185.167969 272.316406 185.660156 C 277.421875 186.300781 273.097656 190.332031 273.097656 190.332031 C 273.097656 190.332031 286.191406 186.210938 291.390625 185.753906 C 291.390625 185.753906 289.878906 182.558594 285.046875 182.007812 C 289.054688 179 293.085938 178.023438 295.96875 184.367188 C 298.84375 184.527344 301.523438 181.070312 299.816406 176.582031 C 304.0625 176.515625 306.160156 179.203125 308.09375 182.03125 C 309.675781 182.316406 311.265625 180.660156 310.886719 174.980469 C 314.894531 178.402344 316.863281 179.457031 317.128906 182.339844 C 320.539062 183.097656 322.851562 182.328125 327.992188 180.039062 C 326.859375 184.621094 326.859375 185.753906 322.277344 188.042969 C 325.507812 192.03125 325.847656 196.847656 325.171875 198.597656 C 324.050781 198.273438 323.769531 198.199219 322.976562 197.980469 C 323.222656 199.746094 323.582031 204.601562 323.421875 207.460938 L 321.132812 207.460938 C 321.132812 210.316406 324.570312 217.738281 324.570312 217.738281 L 322.277344 221.175781 C 330.28125 217.738281 338.296875 218.882812 346.296875 216.605469 C 355.445312 215.460938 364.605469 212.027344 374.894531 212.027344 C 381.753906 212.027344 381.753906 215.460938 390.914062 215.460938 L 390.914062 209.75 C 390.914062 205.179688 387.476562 200.613281 381.753906 199.46875 C 378.332031 199.46875 372.605469 201.746094 369.171875 202.890625 C 364.605469 204.035156 357.734375 204.035156 353.15625 204.035156 C 338.296875 201.746094 340.664062 200.304688 335.480469 197.523438 C 332.375 198.347656 330.636719 200.980469 329.089844 205.628906 C 326.21875 201.414062 326.859375 196.035156 330.28125 193.753906 C 326.859375 181.183594 336.003906 175.472656 347.441406 173.195312 Z M 347.441406 173.195312 "/>
<path style="fill-rule:nonzero;fill:rgb(100%,80%,0%);fill-opacity:1;stroke-width:1;stroke-linecap:butt;stroke-linejoin:round;stroke:rgb(60%,10.588235%,20%);stroke-opacity:1;stroke-miterlimit:4;" d="M 320.721545 146.689234 C 318.718685 143.690062 311.720617 138.701678 313.720065 133.709882 C 316.719237 128.721497 333.711134 120.740765 336.70007 131.72067 C 337.699794 134.709606 334.618733 142.645981 333.619009 145.648566 C 335.130537 145.259594 336.812667 142.932592 341.736222 143.775363 C 340.818387 147.695782 334.830279 150.718838 334.830279 150.718838 C 335.43762 153.369984 330.70855 165.639634 330.70855 165.639634 L 317.718961 165.639634 L 319.718409 161.650974 L 316.719237 165.639634 L 311.720617 165.639634 L 315.719513 160.65125 C 315.719513 160.65125 310.990443 166.192383 306.957427 165.970601 C 307.957151 157.989869 312.720341 156.659178 319.718409 159.65835 C 320.721545 155.66969 322.710757 150.681306 320.721545 146.689234 Z M 320.721545 146.689234 " transform="matrix(1.144847,0,0,1.144847,-16.29825,108.074963)"/>
<path style="fill-rule:evenodd;fill:rgb(100%,80%,0%);fill-opacity:1;stroke-width:1.25;stroke-linecap:butt;stroke-linejoin:miter;stroke:rgb(60%,10.588235%,20%);stroke-opacity:1;stroke-miterlimit:4;" d="M 267.220955 71.542741 C 265.873204 72.371864 266.971877 77.85158 269.042977 76.920097 C 271.62247 75.756595 268.244563 70.911516 267.220955 71.542741 Z M 267.220955 71.542741 " transform="matrix(1.144847,0,0,1.144847,-16.29825,108.074963)"/>
<path style="fill-rule:evenodd;fill:rgb(100%,80%,0%);fill-opacity:1;stroke-width:1.25;stroke-linecap:round;stroke-linejoin:round;stroke:rgb(60%,10.588235%,20%);stroke-opacity:1;stroke-miterlimit:4;" d="M 268.490229 69.809431 C 270.950301 71.542741 274.87072 76.189923 279.698739 75.916961 C 276.054694 72.910964 276.784868 70.723855 276.784868 70.723855 C 278.699015 72.999677 285.076094 75.098074 287.174491 74.187063 C 284.71442 72.361628 284.257208 72.180791 283.711284 70.447481 C 286.628567 70.812568 290.272612 71.450617 293.186484 70.174518 " transform="matrix(1.144847,0,0,1.144847,-16.29825,108.074963)"/>
<path style="fill-rule:evenodd;fill:rgb(100%,80%,0%);fill-opacity:1;stroke-width:1.25;stroke-linecap:round;stroke-linejoin:round;stroke:rgb(60%,10.588235%,20%);stroke-opacity:1;stroke-miterlimit:4;" d="M 273.229535 100.25154 L 273.502497 96.058159 C 273.502497 96.058159 276.235531 102.43865 278.241804 102.527363 C 276.965705 97.880181 277.51163 94.144011 277.51163 94.144011 " transform="matrix(1.144847,0,0,1.144847,-16.29825,108.074963)"/>
<path style="fill-rule:evenodd;fill:rgb(100%,80%,0%);fill-opacity:1;stroke-width:1.25;stroke-linecap:round;stroke-linejoin:round;stroke:rgb(60%,10.588235%,20%);stroke-opacity:1;stroke-miterlimit:4;" d="M 279.610027 95.147147 C 279.610027 95.147147 285.079507 105.171684 287.720416 103.530499 C 283.711284 99.975166 284.168495 95.327985 284.168495 95.327985 C 284.168495 95.327985 285.990518 101.527639 291.367873 103.441786 C 291.729548 99.978578 289.269476 94.328261 289.269476 94.328261 C 289.269476 94.328261 293.73582 102.165688 296.015054 102.346525 C 297.47199 100.524503 296.926066 98.610355 296.926066 98.610355 " transform="matrix(1.144847,0,0,1.144847,-16.29825,108.074963)"/>
<path style="fill-rule:evenodd;fill:rgb(100%,80%,0%);fill-opacity:1;stroke-width:1.25;stroke-linecap:round;stroke-linejoin:round;stroke:rgb(60%,10.588235%,20%);stroke-opacity:1;stroke-miterlimit:4;" d="M 275.331344 88.220732 L 279.340476 93.325125 L 279.978525 86.490834 C 279.978525 86.490834 283.895533 89.588955 284.625707 89.49683 C 285.355881 89.404705 283.530446 82.205327 283.530446 82.205327 C 283.530446 82.205327 288.819089 90.227004 289.184176 90.042754 C 289.54585 89.861917 289.7301 82.113202 289.7301 82.113202 C 289.7301 82.113202 293.739232 93.144287 295.107455 93.052162 C 296.475678 92.960038 296.110591 91.503102 296.110591 91.503102 " transform="matrix(1.144847,0,0,1.144847,-16.29825,108.074963)"/>
<path style="fill-rule:evenodd;fill:rgb(100%,80%,0%);fill-opacity:1;stroke-width:1.25;stroke-linecap:round;stroke-linejoin:round;stroke:rgb(60%,10.588235%,20%);stroke-opacity:1;stroke-miterlimit:4;" d="M 272.318524 79.288044 C 272.318524 79.288044 278.518178 84.938361 279.156227 84.576686 C 279.794276 84.211599 276.60403 78.011945 276.60403 78.011945 C 276.60403 78.011945 280.159363 81.386441 281.524174 81.659403 C 282.892397 81.932365 281.981386 77.285184 281.981386 77.285184 C 281.981386 77.285184 286.171355 80.837104 286.901529 80.656267 C 287.631703 80.472017 287.266616 77.285184 287.266616 77.285184 C 287.266616 77.285184 289.99965 80.018218 290.1839 80.018218 C 290.364737 80.018218 289.634563 72.180791 289.634563 72.180791 C 289.634563 72.180791 295.742092 78.649995 296.199304 78.561282 " transform="matrix(1.144847,0,0,1.144847,-16.29825,108.074963)"/>
<path style="fill-rule:evenodd;fill:rgb(100%,80%,0%);fill-opacity:1;stroke-width:1.25;stroke-linecap:round;stroke-linejoin:round;stroke:rgb(60%,10.588235%,20%);stroke-opacity:1;stroke-miterlimit:4;" d="M 247.530144 81.294316 C 247.803107 81.748116 248.816479 89.807324 261.304499 86.528366 C 262.488473 85.890317 261.966433 88.780304 261.915252 89.626487 C 262.464589 89.534362 268.415164 87.412081 272.516421 90.421489 C 272.031914 87.087938 271.13455 84.849648 267.579218 82.935501 C 265.84932 82.570414 264.583458 83.454129 264.583458 83.454129 C 264.583458 83.454129 249.536417 83.57355 247.530144 81.294316 Z M 247.530144 81.294316 " transform="matrix(1.144847,0,0,1.144847,-16.29825,108.074963)"/>
<path style="fill-rule:nonzero;fill:rgb(100%,80%,0%);fill-opacity:1;stroke-width:1;stroke-linecap:round;stroke-linejoin:round;stroke:rgb(60%,10.588235%,20%);stroke-opacity:1;stroke-miterlimit:4;" d="M 240.719738 132.611209 C 240.511604 133.542692 239.859907 133.812242 237.993528 136.507744 C 238.82265 137.647361 242.637297 139.42844 243.674553 138.496956 C 244.606037 137.978328 244.674277 135.50802 244.674277 135.50802 C 246.673726 138.496956 250.191526 143.212378 254.190422 144.212102 C 257.18277 145.211826 260.181942 143.212378 260.181942 140.223442 C 260.181942 137.231094 255.664418 132.403075 253.675206 130.413863 C 248.673174 124.422343 249.113325 113.111472 239.662009 114.684416 C 239.614241 114.769717 239.235506 116.056052 238.331318 116.288069 C 239.088789 117.741593 239.515292 118.966511 237.696681 119.423723 C 239.112673 120.812418 239.334454 121.822378 237.515844 122.518432 C 238.614517 123.992427 239.904263 124.531528 237.372539 125.793978 C 240.020272 128.373471 240.590081 132.171057 240.719738 132.611209 " transform="matrix(1.144847,0,0,1.144847,-16.29825,108.074963)"/>
<path style="fill-rule:evenodd;fill:rgb(100%,80%,0%);fill-opacity:1;stroke-width:1.25;stroke-linecap:butt;stroke-linejoin:miter;stroke:rgb(60%,10.588235%,20%);stroke-opacity:1;stroke-miterlimit:4;" d="M 238.259666 48.040696 C 235.25367 52.394443 234.943175 100.275425 235.874659 109.91099 C 232.872074 111.87973 227.276349 111.050607 225.720465 110.429618 C 226.447227 107.010767 229.036956 51.459548 238.259666 48.040696 Z M 238.259666 48.040696 " transform="matrix(1.144847,0,0,1.144847,-16.29825,108.074963)"/>
<path style=" stroke:none;fill-rule:evenodd;fill:rgb(100%,80%,0%);fill-opacity:1;" d="M 246.742188 275.429688 C 246.742188 275.429688 231.554688 277.5625 237.960938 268.546875 C 243.417969 266.175781 243.300781 271.75 241.285156 273.648438 C 243.777344 273.925781 245.4375 272.304688 245.792969 269.851562 C 242.707031 265.699219 247.097656 262.96875 246.859375 262.96875 C 236.300781 265.34375 234.875 258.105469 238.792969 256.921875 C 243.738281 257.195312 242.15625 258.777344 244.132812 260.242188 C 247.691406 256.960938 249.828125 256.644531 251.960938 260.003906 C 254.097656 256.683594 257.183594 257.039062 257.300781 257.394531 C 260.742188 263.207031 253.148438 263.5625 250.0625 262.851562 C 252.675781 265.699219 251.605469 268.429688 250.773438 270.445312 C 250.855469 272.421875 252.359375 272.738281 254.808594 273.53125 C 249.589844 259.132812 273.199219 277.367188 249.46875 275.546875 C 249.511719 276.179688 249.550781 276.8125 249.589844 277.445312 C 251.527344 277.800781 252.871094 278.277344 253.503906 280.292969 C 252.675781 281.398438 251.371094 281.558594 249.351562 280.769531 C 249.351562 280.769531 250.539062 284.089844 248.402344 285.039062 C 246.621094 283.972656 246.386719 281.359375 246.386719 281.359375 C 245.398438 282.585938 243.933594 281.796875 242.707031 280.769531 C 243.816406 278.039062 246.941406 279.34375 246.742188 275.429688 Z M 246.742188 275.429688 "/>
<path style=" stroke:none;fill-rule:evenodd;fill:rgb(100%,80%,0%);fill-opacity:1;" d="M 233.691406 231.535156 C 234.597656 227.421875 244.171875 227.933594 239.625 232.367188 C 242.667969 237.230469 252 236.519531 255.523438 233.789062 C 252.554688 228.132812 260.625 229.359375 260.269531 233.671875 C 259.277344 241.300781 232.664062 240.273438 233.691406 231.535156 Z M 233.691406 231.535156 "/>
<path style="fill-rule:nonzero;fill:rgb(100%,80%,0%);fill-opacity:1;stroke-width:1;stroke-linecap:butt;stroke-linejoin:miter;stroke:rgb(60%,10.588235%,20%);stroke-opacity:1;stroke-miterlimit:4;" d="M 384.270557 171.440081 C 386.761337 176.100911 391.179912 187.142231 393.629748 189.779729 C 395.926042 191.830357 401.641188 191.591515 403.398382 189.271337 C 403.398382 189.271337 407.059488 193.041627 408.540308 194.181244 C 409.420611 193.880986 409.959711 193.041627 409.959711 193.041627 C 408.468655 191.420914 406.438499 190.509903 405.438775 187.51073 C 406.929831 185.521518 407.748717 181.648867 406.748993 178.649695 C 402.381598 171.330896 387.839537 174.220883 384.270557 171.440081 Z M 384.270557 171.440081 " transform="matrix(1.144847,0,0,1.144847,-16.29825,108.074963)"/>
<path style="fill-rule:nonzero;fill:rgb(100%,80%,0%);fill-opacity:1;stroke-width:1;stroke-linecap:butt;stroke-linejoin:miter;stroke:rgb(60%,10.588235%,20%);stroke-opacity:1;stroke-miterlimit:4;" d="M 202.798465 44.287466 C 200.311097 39.626637 195.889109 28.585316 193.439273 25.947819 C 191.146391 23.893778 185.431245 24.136032 183.670639 26.456211 C 183.670639 26.456211 180.009533 22.68592 178.528713 21.546303 C 177.64841 21.846562 177.10931 22.68592 177.10931 22.68592 C 178.600366 24.306633 180.630522 25.217645 181.630246 28.216817 C 180.13919 30.206029 179.320304 34.07868 180.320028 37.077852 C 184.690835 44.396651 199.229484 41.506664 202.798465 44.287466 Z M 202.798465 44.287466 " transform="matrix(1.144847,0,0,1.144847,-16.29825,108.074963)"/>
<path style="fill-rule:nonzero;fill:rgb(100%,80%,0%);fill-opacity:1;stroke-width:1;stroke-linecap:butt;stroke-linejoin:miter;stroke:rgb(60%,10.588235%,20%);stroke-opacity:1;stroke-miterlimit:4;" d="M 201.321057 170.730379 C 196.660227 173.221159 185.618906 177.639735 182.981409 180.089571 C 180.927369 182.385865 181.169623 188.101011 183.489801 189.861617 C 183.489801 189.861617 179.719511 193.519311 178.579894 195.000131 C 178.880152 195.880434 179.719511 196.419534 179.719511 196.419534 C 181.340224 194.928478 182.251235 192.898322 185.250407 191.898598 C 187.239619 193.389654 191.108859 194.20854 194.111443 193.208816 C 201.430242 188.841421 198.540254 174.29936 201.321057 170.730379 Z M 201.321057 170.730379 " transform="matrix(1.144847,0,0,1.144847,-16.29825,108.074963)"/>
<path style="fill-rule:nonzero;fill:rgb(100%,80%,0%);fill-opacity:1;stroke-width:1;stroke-linecap:butt;stroke-linejoin:miter;stroke:rgb(60%,10.588235%,20%);stroke-opacity:1;stroke-miterlimit:4;" d="M 384.649292 44.287466 C 387.140072 39.626637 391.562059 28.585316 394.008483 25.944407 C 396.304777 23.893778 402.019923 24.136032 403.780529 26.456211 C 403.780529 26.456211 407.441635 22.68592 408.919043 21.546303 C 409.799346 21.846562 410.338446 22.68592 410.338446 22.68592 C 408.850802 24.306633 406.820646 25.217645 405.820922 28.216817 C 407.308566 30.206029 408.130864 34.075268 407.13114 37.07444 C 402.760333 44.396651 388.221684 41.506664 384.649292 44.287466 Z M 384.649292 44.287466 " transform="matrix(1.144847,0,0,1.144847,-16.29825,108.074963)"/>
<path style="fill-rule:evenodd;fill:rgb(100%,80%,0%);fill-opacity:1;stroke-width:1.25;stroke-linecap:butt;stroke-linejoin:round;stroke:rgb(100%,80%,0%);stroke-opacity:1;stroke-miterlimit:4;" d="M 222.100304 116.028755 C 221.902406 117.547108 225.525979 118.209041 229.241677 118.226101 C 232.953963 118.246573 236.761786 117.622172 236.932387 116.567856 C 236.983568 114.684416 233.690961 116.288069 229.944555 116.257361 C 226.201561 116.226653 223.079556 114.756069 222.100304 116.028755 Z M 222.100304 116.028755 " transform="matrix(1.144847,0,0,1.144847,-16.29825,108.074963)"/>
<path style="fill-rule:evenodd;fill:rgb(100%,80%,0%);fill-opacity:1;stroke-width:1.25;stroke-linecap:butt;stroke-linejoin:round;stroke:rgb(100%,80%,0%);stroke-opacity:1;stroke-miterlimit:4;" d="M 222.400562 120.239197 C 222.448331 121.658601 226.04802 122.003215 229.228029 122.098752 C 232.411451 122.197701 235.618757 121.563064 236.205625 120.532632 C 235.642641 118.918743 232.104368 120.266493 229.228029 120.338146 C 226.35169 120.413211 223.158032 118.918743 222.400562 120.239197 Z M 222.400562 120.239197 " transform="matrix(1.144847,0,0,1.144847,-16.29825,108.074963)"/>
<path style="fill-rule:evenodd;fill:rgb(100%,80%,0%);fill-opacity:1;stroke-width:1.25;stroke-linecap:butt;stroke-linejoin:round;stroke:rgb(100%,80%,0%);stroke-opacity:1;stroke-miterlimit:4;" d="M 223.430995 124.009488 C 223.185329 125.087688 226.355102 125.858806 229.272386 125.875867 C 232.193081 125.892927 236.328458 124.766958 236.352342 123.617104 C 236.181741 122.712917 232.094132 123.934423 229.34745 124.026548 C 226.600768 124.118672 223.430995 123.030236 223.430995 124.009488 Z M 223.430995 124.009488 " transform="matrix(1.144847,0,0,1.144847,-16.29825,108.074963)"/>
<path style="fill-rule:evenodd;fill:rgb(100%,80%,0%);fill-opacity:1;stroke-width:1.25;stroke-linecap:butt;stroke-linejoin:round;stroke:rgb(100%,80%,0%);stroke-opacity:1;stroke-miterlimit:4;" d="M 223.079556 127.878727 C 223.325222 128.933043 226.924911 129.287894 230.08786 129.049052 C 233.25081 128.81021 236.468351 127.830958 236.737902 126.704989 C 236.591184 125.995287 232.957375 127.254326 229.944555 127.407867 C 226.935147 127.561408 223.031787 127.046192 223.079556 127.878727 Z M 223.079556 127.878727 " transform="matrix(1.144847,0,0,1.144847,-16.29825,108.074963)"/>
</g>
</svg>
