<?xml version="1.0" encoding="UTF-8"?>
<svg xmlns="http://www.w3.org/2000/svg" xmlns:xlink="http://www.w3.org/1999/xlink" width="480pt" height="360pt" viewBox="0 0 480 360" version="1.1">
<g id="surface1">
<path style=" stroke:none;fill-rule:evenodd;fill:rgb(0%,60.392157%,0%);fill-opacity:1;" d="M 0 0 L 540 0 L 540 112.5 L 0 112.5 Z M 0 0 "/>
<path style=" stroke:none;fill-rule:evenodd;fill:rgb(100%,100%,100%);fill-opacity:1;" d="M 0 112.472656 L 540 112.472656 L 540 123.734375 L 0 123.734375 Z M 0 112.472656 "/>
<path style=" stroke:none;fill-rule:evenodd;fill:rgb(0%,0%,0%);fill-opacity:1;" d="M 0 123.734375 L 540 123.734375 L 540 236.234375 L 0 236.234375 Z M 0 123.734375 "/>
<path style=" stroke:none;fill-rule:evenodd;fill:rgb(100%,100%,100%);fill-opacity:1;" d="M 0 236.234375 L 540 236.234375 L 540 247.5 L 0 247.5 Z M 0 236.234375 "/>
<path style=" stroke:none;fill-rule:evenodd;fill:rgb(100%,79.215686%,0%);fill-opacity:1;" d="M 0 247.5 L 540 247.5 L 540 360 L 0 360 Z M 0 247.5 "/>
<path style=" stroke:none;fill-rule:evenodd;fill:rgb(100%,0%,0%);fill-opacity:1;" d="M 0 0 L 0 360 L 236.265625 180 Z M 0 0 "/>
<path style=" stroke:none;fill-rule:evenodd;fill:rgb(100%,79.215686%,0%);fill-opacity:1;" d="M 139.59375 234.117188 L 103.574219 207.746094 L 67.597656 234.125 L 81.546875 191.71875 L 45.34375 165.65625 L 89.988281 165.820312 L 103.582031 123.335938 L 117.222656 165.84375 L 161.828125 165.640625 L 125.613281 191.75 Z M 139.59375 234.117188 "/>
<path style="fill-rule:evenodd;fill:rgb(100%,100%,100%);fill-opacity:1;stroke-width:1.25;stroke-linecap:round;stroke-linejoin:round;stroke:rgb(0%,0%,0%);stroke-opacity:1;stroke-miterlimit:4;" d="M 77.114262 167.910449 L 118.942935 167.910449 C 122.312152 171.68901 129.818894 173.225625 136.972969 167.866365 C 150.084577 160.687099 175.451318 167.910449 175.451318 167.910449 L 180.451614 162.60157 L 168.272051 122.643286 L 163.901516 117.95787 C 163.901516 117.95787 154.536981 112.340409 136.739958 114.210796 C 118.942935 116.087482 112.702011 113.587334 112.702011 113.587334 C 112.702011 113.587334 97.090256 115.464019 92.71972 117.649287 C 92.241102 118.033441 87.725722 122.643286 87.725722 122.643286 Z M 77.114262 167.910449 " transform="matrix(0.620276,0,0,0.620276,24.476484,100.392184)"/>
<path style="fill:none;stroke-width:1.25;stroke-linecap:round;stroke-linejoin:round;stroke:rgb(0%,0%,0%);stroke-opacity:1;stroke-miterlimit:4;" d="M 85.540454 157.607572 C 85.540454 157.607572 125.505036 152.613573 137.054838 167.910449 C 130.530523 172.375449 124.78711 172.747007 118.634352 168.225329 C 119.616778 166.59425 132.992885 152.613573 167.025126 157.298989 " transform="matrix(0.620276,0,0,0.620276,24.476484,100.392184)"/>
<path style="fill:none;stroke-width:1.25;stroke-linecap:butt;stroke-linejoin:miter;stroke:rgb(0%,0%,0%);stroke-opacity:1;stroke-miterlimit:4;" d="M 128.307469 117.649287 L 127.998887 161.669525 " transform="matrix(0.620276,0,0,0.620276,24.476484,100.392184)"/>
<path style="fill:none;stroke-width:1.25;stroke-linecap:butt;stroke-linejoin:miter;stroke:rgb(0%,0%,0%);stroke-opacity:1;stroke-miterlimit:4;" d="M 163.901516 118.27275 L 171.395662 153.237036 " transform="matrix(0.620276,0,0,0.620276,24.476484,100.392184)"/>
<path style="fill:none;stroke-width:1.25;stroke-linecap:round;stroke-linejoin:round;stroke:rgb(0%,0%,0%);stroke-opacity:1;stroke-miterlimit:4;" d="M 93.135362 117.718561 L 88.972647 135.754893 " transform="matrix(0.620276,0,0,0.620276,24.476484,100.392184)"/>
<path style="fill-rule:evenodd;fill:rgb(0%,0%,0%);fill-opacity:1;stroke-width:1.25;stroke-linecap:round;stroke-linejoin:round;stroke:rgb(0%,0%,0%);stroke-opacity:1;stroke-miterlimit:4;" d="M 49.94011 172.709221 L 59.783262 184.246428 C 60.935723 184.932867 61.962232 184.888784 62.988741 184.246428 L 77.56769 166.75169 L 83.688959 159.169377 C 84.639897 158.042106 84.942182 156.788884 84.860313 155.66791 L 96.567555 145.264272 C 97.524791 145.333546 98.091575 145.440605 99.04881 145.503581 C 97.921539 145.213891 97.090256 144.659702 97.978218 143.419075 L 100.604318 141.378651 L 102.644741 144.004751 C 102.644741 144.004751 99.728951 147.795908 99.439262 147.795908 L 96.227484 147.795908 L 90.106215 153.337798 L 92.782696 155.699398 L 96.813161 166.75169 L 101.769374 163.250223 L 98.563895 151.876754 L 105.560531 144.294441 L 102.934431 140.213595 L 104.685164 137.877185 C 104.685164 137.877185 128.912039 153.129977 138.238787 149.049131 C 138.490692 149.137297 138.805572 138.173172 138.805572 138.173172 C 138.805572 138.173172 113.72852 135.547072 113.142843 130.590859 C 112.563464 125.634646 118.684733 125.048969 118.684733 125.048969 L 116.058633 121.257813 L 116.64431 119.21739 L 121.014846 124.75928 L 130.933569 116.3016 L 189.255661 182.785385 C 192.43595 181.494376 193.116091 180.719771 193.336507 177.539482 C 193.254638 177.457613 136.179472 111.924767 136.179472 111.924767 L 140.556305 107.258244 C 141.419076 106.288413 141.721361 105.879069 141.721361 104.342454 L 148.428307 98.510875 C 150.44354 99.203611 151.734549 100.41275 152.805141 102.012341 L 171.24452 86.381693 C 171.729435 86.872906 173.203074 87.357822 174.204392 86.80993 L 204.684786 57.544974 L 171.464936 81.016136 L 170.293582 80.14077 C 170.293582 79.164641 171.502721 78.925332 170.293582 77.22498 C 169.002573 75.67577 167.088102 78.679726 166.798413 78.679726 C 166.502425 78.679726 161.987045 77.086433 160.998321 75.058605 L 160.670846 80.430459 L 152.213166 88.302462 L 145.802207 88.012772 L 136.469161 97.049831 L 135.304105 100.551298 L 136.758851 103.467087 C 136.758851 103.467087 131.802638 107.843921 131.802638 107.547934 C 131.802638 107.258244 130.801319 106.263223 130.757236 106.130973 L 135.008118 102.302031 L 135.593795 99.675931 L 134.176834 97.459175 C 133.7423 97.774055 128.301171 103.467087 128.011482 102.88141 C 127.520269 102.346114 112.261179 85.096982 112.261179 85.096982 L 113.136546 81.891503 L 103.22412 71.097413 C 99.609297 69.850488 93.891074 69.642667 92.726018 77.51467 C 91.812865 79.366165 84.268338 77.804359 84.268338 77.804359 L 80.181195 78.679726 L 57.144566 111.33909 L 69.979079 126.799703 L 96.221187 93.554662 L 97.00209 84.133449 L 102.506194 90.292504 C 104.345093 90.531813 106.095827 90.550706 107.758394 89.713125 L 123.307173 107.069316 L 120.718859 109.594654 C 121.594225 110.564485 122.192498 111.187947 123.067864 112.157778 C 123.943231 111.572101 124.780812 110.873067 125.656179 110.28739 C 125.945868 110.677842 126.430784 111.420959 126.726771 111.81141 C 125.423167 112.516742 124.510015 113.461382 123.206411 114.173011 C 121.121905 112.812729 119.106673 111.118674 119.257815 108.4233 L 110.510446 115.715923 L 110.220756 117.176967 L 84.268338 138.752551 L 81.931928 139.042241 L 81.352549 145.749187 L 98.26161 131.755916 L 98.26161 129.715493 L 100.012343 131.170239 L 113.136546 120.672136 C 113.136546 120.672136 114.011913 121.837192 113.722223 121.837192 C 113.426236 121.837192 102.052766 132.335295 102.052766 132.335295 L 101.763077 133.506649 L 99.722654 135.257382 L 98.557597 134.382016 L 82.807295 148.375287 L 80.477182 148.375287 L 71.729813 157.122656 C 69.468974 157.32418 67.516717 157.557191 65.602246 158.87339 L 49.933812 172.709221 Z M 49.94011 172.709221 " transform="matrix(0.620276,0,0,0.620276,24.476484,100.392184)"/>
</g>
</svg>
