<?xml version="1.0" encoding="UTF-8"?>
<svg xmlns="http://www.w3.org/2000/svg" xmlns:xlink="http://www.w3.org/1999/xlink" width="480pt" height="360pt" viewBox="0 0 480 360" version="1.1">
<g id="surface1">
<path style=" stroke:none;fill-rule:evenodd;fill:rgb(100%,100%,100%);fill-opacity:1;" d="M 146.09375 0 L 333.929688 0 L 333.929688 360 L 146.09375 360 Z M 146.09375 0 "/>
<path style=" stroke:none;fill-rule:evenodd;fill:rgb(9.803922%,50.980392%,0%);fill-opacity:1;" d="M 0 0 L 146.09375 0 L 146.09375 360 L 0 360 Z M 0 0 "/>
<path style=" stroke:none;fill-rule:evenodd;fill:rgb(9.803922%,50.980392%,0%);fill-opacity:1;" d="M 333.921875 0 L 480 0 L 480 360 L 333.921875 360 Z M 333.921875 0 "/>
<path style="fill-rule:evenodd;fill:rgb(9.803922%,50.980392%,0%);fill-opacity:1;stroke-width:0.74216;stroke-linecap:round;stroke-linejoin:round;stroke:rgb(0%,0%,0%);stroke-opacity:1;stroke-miterlimit:4;" d="M 313.5 351.291667 L 313.5 403.921875 C 320.588542 403.994792 327.682292 404.067708 334.770833 404.140625 C 334.770833 404.140625 327.973958 358.307292 331.703125 352.166667 C 335.427083 346.026042 338.9375 346.90625 338.9375 346.90625 C 338.9375 346.90625 352.75 351.072917 354.286458 350.411458 C 355.822917 349.755208 354.067708 345.151042 361.526042 345.807292 C 363.9375 344.932292 362.619792 340.765625 364.8125 340.546875 C 367.005208 340.322917 409.328125 352.385417 418.541667 340.984375 C 416.125 334.625 407.796875 340.546875 405.604167 340.765625 C 403.630208 340.765625 395.296875 336.817708 390.46875 340.765625 C 386.083333 337.473958 366.130208 335.28125 366.130208 335.28125 C 363.494792 332.651042 413.713542 336.598958 416.567708 334.625 C 422.484375 328.703125 405.604167 329.359375 402.96875 331.333333 C 398.291667 328.484375 392.427083 328.703125 388.84375 330.677083 C 387.125 326.567708 370.807292 328.338542 361.744792 327.166667 C 358.84375 325.46875 359.338542 324.5 361.302083 323.442708 C 380.234375 324.244792 399.078125 326.703125 418.098958 325.854167 C 423.239583 319.151042 411.619792 316.635417 404.505208 322.34375 C 400.322917 315.473958 391.786458 322.125 386.083333 321.46875 C 380.385417 320.807292 383.015625 313.791667 390.25 314.885417 C 397.489583 315.984375 410.427083 314.447917 412.838542 311.161458 C 415.25 307.869792 411.395833 304.53125 399.463542 307.651042 C 395.421875 303.703125 386.526042 307.651042 382.359375 308.96875 C 376.8125 305.875 363.9375 308.526042 359.552083 309.625 C 355.260417 306.958333 382.140625 302.609375 382.140625 302.609375 C 392.515625 302.421875 398.364583 300.635417 401.65625 299.755208 C 417.338542 291.348958 401.432292 290.453125 393.197917 296.5625 C 388.088542 292.578125 383.234375 296.90625 378.630208 298.442708 C 374.026042 299.973958 365.25 301.072917 365.25 300.416667 C 365.25 299.755208 377.75 292.083333 377.75 292.083333 C 377.75 292.083333 393.104167 290.984375 396.171875 290.546875 C 399.244792 290.109375 414.953125 282.041667 393.541667 287.473958 C 386.083333 288.135417 381.697917 287.697917 378.848958 287.916667 C 362.317708 286.208333 380.385417 284.625 380.385417 284.625 C 380.385417 284.625 403.791667 282.473958 404.067708 281.338542 C 404.526042 272.208333 384.989583 276.510417 384.770833 276.510417 C 384.828125 269.989583 366.567708 276.729167 366.567708 276.510417 C 363.078125 274.458333 368.541667 272.34375 368.541667 272.34375 C 373.364583 271.177083 380.578125 270.833333 382.463542 269.296875 C 382.463542 269.296875 396.088542 269.166667 397.708333 265.546875 C 394.364583 256.328125 368.885417 267.182292 365.473958 268.838542 C 360.864583 268.838542 368.541667 261.380208 368.760417 261.161458 C 368.979167 260.942708 389.8125 260.067708 399.682292 246.6875 C 400.364583 238.546875 388.057292 251.291667 388.057292 251.291667 C 387.140625 240.734375 374.682292 251.953125 367.447917 252.828125 C 360.208333 253.708333 359.989583 249.541667 365.036458 248.880208 C 370.078125 248.223958 375.78125 248.661458 378.630208 240.989583 C 381.479167 233.3125 390.036458 241.427083 391.567708 238.572917 C 393.104167 235.723958 388.5 233.3125 388.5 233.3125 C 388.5 233.3125 394.859375 226.734375 384.552083 226.953125 C 374.244792 227.171875 360.869792 225.635417 360.869792 225.635417 C 360.869792 225.635417 371.614583 221.46875 381.703125 221.6875 C 391.786458 221.911458 386.307292 214.453125 376.65625 214.453125 C 367.010417 214.453125 361.963542 211.166667 361.963542 211.166667 C 367.447917 209.119792 372.927083 207.072917 378.411458 205.026042 C 378.046875 203.489583 377.682292 201.953125 377.3125 200.421875 C 377.3125 200.421875 386.963542 192.744792 373.369792 194.5 C 359.770833 196.255208 358.239583 196.473958 358.239583 196.473958 C 358.239583 196.473958 331.046875 200.640625 330.828125 200.640625 C 330.604167 200.640625 323.369792 198.447917 330.385417 196.692708 C 337.40625 194.9375 362.182292 189.890625 365.911458 191.208333 C 369.640625 192.526042 365.473958 182 352.317708 180.682292 C 339.161458 179.369792 331.046875 183.973958 331.046875 183.973958 C 331.046875 183.973958 322.494792 180.901042 330.385417 178.270833 C 338.28125 175.640625 350.78125 179.145833 350.78125 179.145833 C 350.78125 179.145833 364.817708 174.984375 353.192708 173.229167 C 341.572917 171.473958 337.90625 174.796875 332.583333 174.984375 C 330.453125 172.328125 350.828125 171.692708 352.098958 169.5 C 349.947917 165.552083 337.333333 169.5 329.947917 169.5 C 326.807292 168.166667 326.604167 166.005208 330.166667 164.677083 C 337.697917 164.380208 344.765625 164.822917 352.296875 164.53125 C 352.078125 160.510417 352.317708 155.755208 352.098958 151.739583 C 342.546875 149.994792 331.34375 152.994792 325.984375 152.739583 C 327.416667 148.354167 348.046875 147.229167 350.34375 146.036458 C 355.119792 140.067708 330.166667 146.036458 329.947917 146.036458 C 325.598958 145.395833 325.880208 142.645833 328.635417 140.994792 C 334.994792 140.260417 349.25 141.916667 348.171875 137.604167 C 347.34375 133.567708 338.28125 135.729167 334.552083 136.604167 C 330.828125 137.484375 325.34375 136.828125 325.34375 136.828125 C 322.958333 133.614583 346.833333 134.921875 346.614583 132.4375 C 346.302083 129.59375 331.484375 131.5625 326.442708 131.78125 C 322.5 129.0625 345.369792 127.270833 345.739583 126.958333 C 346.5625 119.666667 330.390625 126.958333 327.317708 126.958333 C 324.25 126.958333 325.78125 122.354167 325.78125 122.354167 C 325.78125 122.354167 332.140625 119.5 331.921875 119.0625 C 331.703125 118.625 327.098958 117.088542 326.661458 117.088542 C 326.223958 117.088542 326.661458 112.046875 326.661458 112.046875 C 326.661458 112.046875 331.921875 108.098958 331.484375 107 C 331.046875 105.90625 325.34375 107.880208 325.34375 107.880208 L 325.34375 103.494792 C 325.34375 103.494792 329.510417 103.057292 329.947917 101.083333 C 330.390625 99.109375 324.90625 98.890625 324.90625 98.890625 C 324.177083 91.213542 323.442708 83.536458 322.713542 75.864583 C 322.057292 83.026042 321.395833 90.192708 320.739583 97.354167 C 318.328125 97.71875 315.916667 98.083333 313.505208 98.447917 C 313.505208 98.447917 318.546875 101.302083 319.421875 104.151042 C 320.302083 107 313.28125 106.125 313.28125 106.125 C 313.28125 106.125 318.984375 110.947917 319.421875 112.703125 C 319.864583 114.458333 311.53125 114.895833 311.53125 114.895833 C 311.53125 114.895833 318.546875 119.942708 318.984375 122.791667 C 319.421875 125.640625 318.984375 127.177083 318.984375 127.177083 C 318.984375 127.177083 307.364583 117.088542 299.90625 119.942708 C 296.03125 121.963542 308.78125 122.901042 317.229167 130.244792 C 317.208333 131.885417 296.713542 125.255208 295.958333 129.369792 C 296.432292 130.515625 317.848958 133.588542 319.421875 136.385417 C 311.604167 136.682292 295.427083 134.677083 295.958333 137.265625 C 294.322917 140.25 311.239583 138.557292 318.328125 140.994792 C 320.40625 143.354167 320.1875 145.348958 316.572917 145.598958 C 309.739583 142.333333 294.458333 139.890625 294.421875 144.0625 C 294.515625 145.177083 310.21875 144.453125 315.916667 148.229167 C 308.3125 149.958333 282.53125 144.708333 282.369792 147.265625 C 283.104167 148.458333 287.1875 153.713542 294.203125 153.489583 C 301.223958 153.270833 317.447917 156.34375 318.546875 158.536458 C 319.640625 160.729167 297.494792 153.932292 289.161458 157.875 C 280.828125 161.822917 313.0625 159.411458 318.322917 164.239583 C 323.588542 169.0625 307.796875 163.796875 307.796875 163.796875 C 307.796875 163.796875 285.869792 160.729167 282.583333 162.265625 C 279.291667 163.796875 275.5625 167.307292 275.5625 167.307292 C 275.5625 167.307292 277.755208 171.692708 279.947917 170.817708 C 282.140625 169.9375 279.291667 173.447917 279.291667 173.447917 C 279.291667 173.447917 309.994792 180.901042 316.791667 187.484375 C 323.588542 194.0625 277.755208 177.177083 277.755208 177.177083 C 277.755208 177.177083 259.338542 183.973958 278.854167 184.411458 C 276.609375 187.697917 279.947917 189.677083 279.947917 189.677083 C 279.947917 189.677083 312.40625 196.473958 315.692708 201.734375 C 318.984375 207 293.546875 196.692708 287.84375 193.84375 C 282.140625 190.989583 265.916667 195.59375 266.135417 196.692708 C 266.354167 197.786458 274.03125 199.322917 274.25 201.296875 C 274.46875 203.270833 264.817708 203.927083 264.817708 205.682292 C 264.817708 207.4375 305.828125 215.989583 316.791667 225.197917 C 327.755208 234.411458 284.557292 214.234375 284.557292 214.234375 C 284.557292 214.234375 286.96875 217.526042 284.557292 218.401042 C 282.140625 219.28125 273.59375 206.119792 259.557292 214.234375 C 257 217.572917 271.796875 220.229167 275.5625 220.59375 C 274.276042 223.901042 273.151042 224.979167 278.416667 228.270833 C 283.677083 231.557292 268.109375 223.447917 268.109375 223.885417 C 268.109375 224.322917 269.203125 229.588542 269.203125 229.588542 C 264.34375 225.640625 258.479167 224.447917 252.979167 228.489583 C 252.979167 228.489583 252.755208 232.4375 258.458333 234.848958 C 255.34375 241.208333 261.96875 239.234375 272.494792 245.15625 C 256.848958 241.067708 255.609375 248.666667 266.791667 250.416667 C 277.973958 252.171875 308.677083 253.270833 315.911458 262.697917 C 323.151042 272.130208 305.630208 259.083333 303.635417 258.75 C 303.192708 258.96875 302.755208 263.578125 302.755208 263.578125 C 298.078125 260.869792 293.765625 258.4375 288.171875 257.286458 C 287.734375 258.166667 287.84375 259.411458 287.40625 260.286458 C 282.328125 256.625 277.895833 254.0625 270.520833 253.708333 C 270.229167 254.875 269.9375 256.046875 269.640625 257.21875 C 269.640625 257.21875 263.505208 249.541667 251.442708 257.21875 C 244.708333 262.046875 276.880208 258.96875 282.140625 264.671875 C 287.40625 270.375 283.239583 271.25 283.239583 271.25 C 278.854167 269.645833 274.46875 268.036458 270.083333 266.427083 C 270.083333 266.427083 254.515625 263.578125 250.125 267.083333 C 245.739583 270.59375 314.161458 279.145833 316.135417 288.572917 C 317.463542 293.6875 300.052083 283.208333 284.994792 278.708333 C 284.411458 280.385417 283.822917 282.067708 283.239583 283.75 C 283.239583 283.75 277.260417 277.744792 270.520833 276.734375 C 270.302083 276.734375 271.833333 282.65625 271.833333 282.65625 C 271.833333 282.65625 254.953125 274.760417 246.401042 278.927083 C 237.84375 283.09375 276.223958 285.286458 279.729167 289.234375 C 283.239583 293.182292 268.109375 286.604167 266.791667 289.234375 C 265.473958 291.864583 246.838542 284.40625 247.057292 287.916667 C 247.276042 291.427083 249.6875 293.401042 249.6875 293.401042 C 249.6875 293.401042 288.5 297.125 289.817708 301.734375 C 291.135417 306.338542 268.328125 299.098958 268.328125 299.098958 C 268.328125 299.098958 266.135417 302.390625 267.890625 303.927083 C 269.640625 305.463542 254.729167 295.15625 256.046875 301.953125 C 251.208333 300.026042 238.723958 294.057292 240.479167 298.661458 C 242.229167 303.265625 275.78125 309.848958 275.78125 309.848958 C 275.78125 309.848958 261.088542 310.942708 261.75 314.671875 C 242.848958 303.15625 243.328125 310.505208 243.765625 310.723958 C 244.203125 310.942708 219.427083 304.583333 238.0625 314.671875 C 256.703125 324.760417 248.151042 323.005208 248.369792 323.223958 C 248.588542 323.442708 250.34375 328.265625 249.90625 328.265625 C 249.46875 328.265625 237.1875 321.6875 233.020833 321.25 C 228.854167 320.8125 209.119792 326.734375 230.171875 335.942708 C 251.223958 345.151042 264.161458 333.75 275.78125 335.067708 C 287.40625 336.380208 292.885417 338.354167 291.791667 342.083333 C 290.692708 345.8125 279.916667 329.864583 268.572917 343.65625 C 255.671875 341.104167 246.916667 339.625 253.578125 349.104167 C 232.505208 341.229167 219.645833 351.510417 246.177083 355.677083 C 272.255208 356.447917 288.28125 349.317708 288.28125 349.317708 C 288.28125 349.317708 292.666667 357.432292 299.026042 351.729167 C 305.385417 346.03125 305.604167 353.921875 305.822917 353.921875 C 306.041667 353.921875 311.963542 351.291667 311.963542 351.291667 Z M 313.5 351.291667 " transform="matrix(0.75,0,0,0.75,0,0)"/>
<path style="fill-rule:evenodd;fill:rgb(100%,100%,100%);fill-opacity:1;stroke-width:0.742163;stroke-linecap:round;stroke-linejoin:round;stroke:rgb(0%,0%,0%);stroke-opacity:1;stroke-miterlimit:4;" d="M 316.067708 320.161458 L 316.067708 316.489583 C 316.067708 316.489583 307.786458 315.015625 303.75 315.84375 C 301.354167 314.473958 299.09375 312.666667 296.234375 314.192708 C 295.682292 315.385417 301.46875 318.505208 303.395833 318.505208 C 305.65625 319.9375 316.072917 320.34375 316.072917 320.161458 Z M 316.067708 320.161458 " transform="matrix(0.75,0,0,0.75,0,0)"/>
<path style="fill-rule:evenodd;fill:rgb(100%,100%,100%);fill-opacity:1;stroke-width:0.742163;stroke-linecap:round;stroke-linejoin:round;stroke:rgb(0%,0%,0%);stroke-opacity:1;stroke-miterlimit:4;" d="M 315.96875 326.130208 C 315.96875 326.130208 307.6875 323.104167 304.380208 326.588542 C 304.921875 330.302083 314.135417 332.098958 316.0625 331.088542 C 317.989583 330.078125 316.0625 326.3125 315.96875 326.130208 Z M 315.96875 326.130208 " transform="matrix(0.75,0,0,0.75,0,0)"/>
<path style="fill-rule:evenodd;fill:rgb(100%,100%,100%);fill-opacity:1;stroke-width:0.742163;stroke-linecap:round;stroke-linejoin:round;stroke:rgb(0%,0%,0%);stroke-opacity:1;stroke-miterlimit:4;" d="M 329.932292 327.598958 L 329.932292 330.171875 C 329.932292 330.171875 339.848958 332.098958 341.59375 329.989583 C 343.338542 327.875 333.692708 326.5 329.932292 327.598958 Z M 329.932292 327.598958 " transform="matrix(0.75,0,0,0.75,0,0)"/>
<path style="fill-rule:evenodd;fill:rgb(100%,100%,100%);fill-opacity:1;stroke-width:0.742163;stroke-linecap:round;stroke-linejoin:round;stroke:rgb(0%,0%,0%);stroke-opacity:1;stroke-miterlimit:4;" d="M 329.479167 317.348958 L 329.84375 320.25 C 329.84375 320.25 338.385417 322.177083 341.692708 317.494792 C 344.994792 312.8125 334.1875 317.53125 329.479167 317.348958 Z M 329.479167 317.348958 " transform="matrix(0.75,0,0,0.75,0,0)"/>
<path style="fill-rule:evenodd;fill:rgb(100%,100%,100%);fill-opacity:1;stroke-width:0.742163;stroke-linecap:round;stroke-linejoin:round;stroke:rgb(0%,0%,0%);stroke-opacity:1;stroke-miterlimit:4;" d="M 329.932292 307.401042 L 329.932292 309.328125 C 329.932292 309.328125 336.359375 310.338542 337.828125 307.583333 C 339.296875 304.828125 330.114583 307.583333 329.932292 307.401042 Z M 329.932292 307.401042 " transform="matrix(0.75,0,0,0.75,0,0)"/>
<path style="fill-rule:evenodd;fill:rgb(100%,100%,100%);fill-opacity:1;stroke-width:0.742163;stroke-linecap:round;stroke-linejoin:round;stroke:rgb(0%,0%,0%);stroke-opacity:1;stroke-miterlimit:4;" d="M 316.510417 301.458333 C 315.520833 300.046875 312.03125 296.557292 302.661458 295.546875 C 296.15625 295.526042 314.421875 305.125 316.510417 301.458333 Z M 316.510417 301.458333 " transform="matrix(0.75,0,0,0.75,0,0)"/>
<path style="fill-rule:evenodd;fill:rgb(100%,100%,100%);fill-opacity:1;stroke-width:0.742163;stroke-linecap:round;stroke-linejoin:round;stroke:rgb(0%,0%,0%);stroke-opacity:1;stroke-miterlimit:4;" d="M 329.75 291.6875 C 329.75 291.6875 329.385417 294.354167 329.473958 294.354167 C 329.567708 294.354167 351.510417 287.833333 356.65625 288.291667 C 361.244792 286.994792 362.166667 283.791667 361.979167 283.791667 C 358.0625 280.9375 339.114583 286.088542 329.75 291.6875 Z M 329.75 291.6875 " transform="matrix(0.75,0,0,0.75,0,0)"/>
<path style="fill-rule:evenodd;fill:rgb(100%,100%,100%);fill-opacity:1;stroke-width:0.742163;stroke-linecap:round;stroke-linejoin:round;stroke:rgb(0%,0%,0%);stroke-opacity:1;stroke-miterlimit:4;" d="M 330.208333 283.890625 C 330.119792 284.348958 329.932292 286.463542 329.932292 286.463542 C 329.932292 286.463542 345.453125 283.432292 349.583333 280.494792 C 353.71875 277.552083 330.395833 283.984375 330.208333 283.890625 Z M 330.208333 283.890625 " transform="matrix(0.75,0,0,0.75,0,0)"/>
<path style="fill-rule:evenodd;fill:rgb(100%,100%,100%);fill-opacity:1;stroke-width:0.742163;stroke-linecap:round;stroke-linejoin:round;stroke:rgb(0%,0%,0%);stroke-opacity:1;stroke-miterlimit:4;" d="M 329.567708 276.270833 L 329.572917 278.859375 C 329.572917 278.859375 339.927083 278.541667 342.057292 276.453125 C 343.416667 274.364583 332.927083 276.15625 329.567708 276.270833 Z M 329.567708 276.270833 " transform="matrix(0.75,0,0,0.75,0,0)"/>
<path style="fill-rule:evenodd;fill:rgb(100%,100%,100%);fill-opacity:1;stroke-width:0.742163;stroke-linecap:round;stroke-linejoin:round;stroke:rgb(0%,0%,0%);stroke-opacity:1;stroke-miterlimit:4;" d="M 351.182292 298.010417 C 351.182292 298.010417 356.5625 298.760417 357.572917 297.203125 C 357.369792 294.432292 351.182292 298.098958 351.182292 298.010417 Z M 351.182292 298.010417 " transform="matrix(0.75,0,0,0.75,0,0)"/>
<path style="fill-rule:evenodd;fill:rgb(100%,100%,100%);fill-opacity:1;stroke-width:0.742163;stroke-linecap:round;stroke-linejoin:round;stroke:rgb(0%,0%,0%);stroke-opacity:1;stroke-miterlimit:4;" d="M 330.020833 266.630208 C 329.927083 267.088542 330.109375 272.322917 330.109375 272.322917 C 330.109375 272.322917 354.994792 264.427083 356.557292 262.958333 C 358.119792 261.489583 361.583333 257.0625 330.020833 266.630208 Z M 330.020833 266.630208 " transform="matrix(0.75,0,0,0.75,0,0)"/>
<path style="fill-rule:evenodd;fill:rgb(100%,100%,100%);fill-opacity:1;stroke-width:0.742163;stroke-linecap:round;stroke-linejoin:round;stroke:rgb(0%,0%,0%);stroke-opacity:1;stroke-miterlimit:4;" d="M 329.291667 258.729167 L 329.291667 262.864583 C 329.291667 262.864583 339.296875 262.125 343.890625 258.364583 C 348.484375 254.598958 329.291667 258.822917 329.291667 258.729167 Z M 329.291667 258.729167 " transform="matrix(0.75,0,0,0.75,0,0)"/>
<path style="fill-rule:evenodd;fill:rgb(100%,100%,100%);fill-opacity:1;stroke-width:0.742163;stroke-linecap:round;stroke-linejoin:round;stroke:rgb(0%,0%,0%);stroke-opacity:1;stroke-miterlimit:4;" d="M 317.260417 249.359375 L 317.901042 253.125 C 317.901042 253.125 284.9375 242.473958 285.03125 242.473958 C 285.119792 242.473958 283.369792 237.046875 317.260417 249.359375 Z M 317.260417 249.359375 " transform="matrix(0.75,0,0,0.75,0,0)"/>
<path style="fill-rule:evenodd;fill:rgb(100%,100%,100%);fill-opacity:1;stroke-width:0.742163;stroke-linecap:round;stroke-linejoin:round;stroke:rgb(0%,0%,0%);stroke-opacity:1;stroke-miterlimit:4;" d="M 317.8125 236.140625 C 317.71875 236.505208 317.71875 239.71875 317.625 239.630208 C 317.536458 239.536458 294.760417 230.078125 293.9375 230.90625 C 290.911458 223.817708 317.8125 236.322917 317.8125 236.140625 Z M 317.8125 236.140625 " transform="matrix(0.75,0,0,0.75,0,0)"/>
<path style="fill-rule:evenodd;fill:rgb(100%,100%,100%);fill-opacity:1;stroke-width:0.742163;stroke-linecap:round;stroke-linejoin:round;stroke:rgb(0%,0%,0%);stroke-opacity:1;stroke-miterlimit:4;" d="M 328.921875 242.020833 C 328.921875 242.114583 329.286458 245.234375 329.286458 245.234375 C 329.286458 245.234375 343.244792 242.296875 344.072917 240.916667 C 344.895833 239.541667 328.921875 242.114583 328.921875 242.020833 Z M 328.921875 242.020833 " transform="matrix(0.75,0,0,0.75,0,0)"/>
<path style="fill-rule:evenodd;fill:rgb(100%,100%,100%);fill-opacity:1;stroke-width:0.742163;stroke-linecap:round;stroke-linejoin:round;stroke:rgb(0%,0%,0%);stroke-opacity:1;stroke-miterlimit:4;" d="M 329.25 249.447917 C 329.380208 250.239583 329.65625 252.755208 329.65625 252.755208 C 329.65625 252.755208 335.255208 252.296875 336.083333 251.010417 C 336.90625 249.723958 329.25 249.541667 329.25 249.447917 Z M 329.25 249.447917 " transform="matrix(0.75,0,0,0.75,0,0)"/>
<path style="fill-rule:evenodd;fill:rgb(100%,100%,100%);fill-opacity:1;stroke-width:0.742163;stroke-linecap:round;stroke-linejoin:round;stroke:rgb(0%,0%,0%);stroke-opacity:1;stroke-miterlimit:4;" d="M 328.369792 232.46875 C 328.369792 232.744792 328.463542 235.59375 328.463542 235.59375 C 328.463542 235.59375 343.796875 232.5625 345.447917 231.09375 C 347.104167 229.625 328.09375 232.46875 328.369792 232.46875 Z M 328.369792 232.46875 " transform="matrix(0.75,0,0,0.75,0,0)"/>
<path style="fill-rule:evenodd;fill:rgb(100%,100%,100%);fill-opacity:1;stroke-width:0.742163;stroke-linecap:round;stroke-linejoin:round;stroke:rgb(0%,0%,0%);stroke-opacity:1;stroke-miterlimit:4;" d="M 328.458333 224.020833 C 328.458333 224.203125 327.911458 227.140625 328.276042 227.140625 C 328.645833 227.140625 346.916667 224.020833 349.765625 221.447917 C 352.609375 218.880208 328.734375 224.296875 328.458333 224.020833 Z M 328.458333 224.020833 " transform="matrix(0.75,0,0,0.75,0,0)"/>
<path style="fill-rule:evenodd;fill:rgb(100%,100%,100%);fill-opacity:1;stroke-width:0.742163;stroke-linecap:round;stroke-linejoin:round;stroke:rgb(0%,0%,0%);stroke-opacity:1;stroke-miterlimit:4;" d="M 328.1875 209.140625 L 328.1875 212.354167 C 328.1875 212.354167 340.036458 209.875 342.239583 207.395833 C 344.442708 204.916667 328.1875 209.322917 328.1875 209.140625 Z M 328.1875 209.140625 " transform="matrix(0.75,0,0,0.75,0,0)"/>
<path style="fill-rule:evenodd;fill:rgb(100%,100%,100%);fill-opacity:1;stroke-width:0.742163;stroke-linecap:round;stroke-linejoin:round;stroke:rgb(0%,0%,0%);stroke-opacity:1;stroke-miterlimit:4;" d="M 326.171875 187.46875 L 326.447917 192.338542 C 326.447917 192.338542 342.333333 190.135417 344.625 187.46875 C 346.921875 184.807292 326.078125 187.46875 326.171875 187.46875 Z M 326.171875 187.46875 " transform="matrix(0.75,0,0,0.75,0,0)"/>
<path style="fill-rule:evenodd;fill:rgb(100%,100%,100%);fill-opacity:1;stroke-width:0.742163;stroke-linecap:round;stroke-linejoin:round;stroke:rgb(0%,0%,0%);stroke-opacity:1;stroke-miterlimit:4;" d="M 318.817708 151.020833 L 318.817708 154.052083 C 318.817708 154.052083 311.291667 153.682292 313.125 152.395833 C 314.963542 151.109375 318.817708 151.296875 318.817708 151.020833 Z M 318.817708 151.020833 " transform="matrix(0.75,0,0,0.75,0,0)"/>
<path style="fill-rule:evenodd;fill:rgb(100%,100%,100%);fill-opacity:1;stroke-width:0.742163;stroke-linecap:round;stroke-linejoin:round;stroke:rgb(0%,0%,0%);stroke-opacity:1;stroke-miterlimit:4;" d="M 325.802083 155.0625 L 325.984375 159.192708 C 325.984375 159.192708 335.71875 158.276042 336.453125 156.713542 C 337.1875 155.151042 325.984375 155.0625 325.802083 155.0625 Z M 325.802083 155.0625 " transform="matrix(0.75,0,0,0.75,0,0)"/>
<path style="fill-rule:evenodd;fill:rgb(100%,100%,100%);fill-opacity:1;stroke-width:0.742163;stroke-linecap:round;stroke-linejoin:round;stroke:rgb(0%,0%,0%);stroke-opacity:1;stroke-miterlimit:4;" d="M 325.25 161.03125 C 325.25 161.03125 325.432292 163.598958 325.614583 163.598958 C 325.802083 163.598958 329.473958 163.328125 330.302083 162.317708 C 331.125 161.307292 325.614583 161.213542 325.25 161.03125 Z M 325.25 161.03125 " transform="matrix(0.75,0,0,0.75,0,0)"/>
<path style="fill-rule:evenodd;fill:rgb(100%,100%,100%);fill-opacity:1;stroke-width:0.742163;stroke-linecap:round;stroke-linejoin:round;stroke:rgb(0%,0%,0%);stroke-opacity:1;stroke-miterlimit:4;" d="M 316.989583 172.78125 C 316.989583 173.057292 317.265625 176.729167 317.083333 176.635417 C 316.895833 176.541667 295.776042 170.484375 293.848958 170.578125 C 291.921875 170.666667 291.369792 165.708333 316.989583 172.78125 Z M 316.989583 172.78125 " transform="matrix(0.75,0,0,0.75,0,0)"/>
<path style="fill-rule:evenodd;fill:rgb(100%,100%,100%);fill-opacity:1;stroke-width:0.742163;stroke-linecap:round;stroke-linejoin:round;stroke:rgb(0%,0%,0%);stroke-opacity:1;stroke-miterlimit:4;" d="M 318.729167 179.671875 C 318.729167 180.40625 319.1875 184.260417 318.453125 184.078125 C 317.71875 183.895833 304.130208 179.578125 305.505208 178.291667 C 306.885417 177.005208 318.729167 179.947917 318.729167 179.671875 Z M 318.729167 179.671875 " transform="matrix(0.75,0,0,0.75,0,0)"/>
<path style="fill-rule:evenodd;fill:rgb(100%,100%,100%);fill-opacity:1;stroke-width:0.742163;stroke-linecap:round;stroke-linejoin:round;stroke:rgb(0%,0%,0%);stroke-opacity:1;stroke-miterlimit:4;" d="M 317.541667 208.682292 L 317.630208 212.166667 C 317.630208 212.166667 293.942708 205.005208 293.114583 203.8125 C 292.286458 202.619792 289.994792 197.020833 317.541667 208.682292 Z M 317.541667 208.682292 " transform="matrix(0.75,0,0,0.75,0,0)"/>
<path style="fill-rule:evenodd;fill:rgb(100%,100%,100%);fill-opacity:1;stroke-width:0.742163;stroke-linecap:round;stroke-linejoin:round;stroke:rgb(0%,0%,0%);stroke-opacity:1;stroke-miterlimit:4;" d="M 318.447917 217.21875 C 318.447917 217.3125 318.635417 220.526042 318.541667 220.526042 C 318.447917 220.526042 286.3125 209.229167 286.3125 209.229167 C 286.3125 209.229167 283.739583 200.78125 318.447917 217.21875 Z M 318.447917 217.21875 " transform="matrix(0.75,0,0,0.75,0,0)"/>
<path style="fill-rule:evenodd;fill:rgb(100%,100%,100%);fill-opacity:1;stroke-width:0.742163;stroke-linecap:butt;stroke-linejoin:round;stroke:rgb(0%,0%,0%);stroke-opacity:1;stroke-miterlimit:4;" d="M 280.260417 328.682292 C 280.260417 328.791667 280.151042 332.197917 280.151042 332.197917 C 280.151042 332.197917 273.885417 330.4375 271.90625 326.921875 C 275.536458 325.932292 280.369792 328.791667 280.260417 328.682292 Z M 280.260417 328.682292 " transform="matrix(0.75,0,0,0.75,0,0)"/>
</g>
</svg>
