<?xml version="1.0" encoding="UTF-8"?>
<svg xmlns="http://www.w3.org/2000/svg" xmlns:xlink="http://www.w3.org/1999/xlink" width="480pt" height="360pt" viewBox="0 0 480 360" version="1.1">
<g id="surface1">
<path style=" stroke:none;fill-rule:evenodd;fill:rgb(0%,0%,0%);fill-opacity:1;" d="M 1.234375 0 L 0.859375 359.988281 L 480.847656 359.988281 L 1.230469 0 Z M 1.234375 0 "/>
<path style=" stroke:none;fill-rule:evenodd;fill:rgb(100%,0%,0%);fill-opacity:1;" d="M 480.472656 359.988281 L 480.847656 0 L 0.859375 0 L 480.476562 359.988281 Z M 480.472656 359.988281 "/>
<path style="fill-rule:nonzero;fill:rgb(100%,80%,0%);fill-opacity:1;stroke-width:1.0648;stroke-linecap:butt;stroke-linejoin:miter;stroke:rgb(100%,80%,0%);stroke-opacity:1;stroke-miterlimit:4;" d="M 178.00061 53.999315 L 174.159858 53.79917 C 172.979712 51.020686 169.648089 49.977577 167.597498 51.147837 C 165.736951 51.305598 155.997817 50.999494 155.997817 50.999494 L 163.11623 54.119402 C 164.87589 58.8805 170.997162 59.998957 170.997162 59.998957 C 170.45284 68.774729 162.116743 58.866372 155.115641 63.867643 C 150.115859 66.867464 150.057204 70.451238 147.354366 76.238962 C 146.514421 77.847186 142.995101 81.99843 142.995101 81.99843 L 148.874712 81.499245 L 146.995395 83.99988 L 153.994151 82.999155 C 153.994151 82.999155 153.055665 83.783253 152.49492 84.378979 C 153.531947 84.581478 160.495509 82.749562 160.495509 82.749562 L 159.995765 84.998251 C 163.564357 83.56898 167.994008 82.118517 167.994008 82.118517 C 167.994008 82.118517 169.565971 83.430056 170.994816 83.99988 L 171.994303 79.999334 L 175.994597 81.000059 L 176.994084 76.999513 C 182.995699 84.998251 184.994673 92.999343 195.996069 94.998439 L 194.994236 91.000248 C 198.056045 92.309432 203.733882 95.09027 203.733882 95.09027 L 204.594943 93.258355 C 209.364795 96.679658 213.325204 96.618437 215.995195 96.99989 C 215.995195 96.99989 214.005606 92.01981 213.993875 91.998618 C 214.125263 92.05042 215.98581 93.008762 215.995195 92.999343 C 215.995195 92.999343 212.994388 84.998251 212.994388 84.998251 C 212.994388 84.998251 215.995195 85.998976 215.995195 85.998976 L 211.994901 79.999334 L 213.494131 78.998609 L 212.994388 75.998788 C 218.996003 78.000238 226.994245 81.000059 227.996079 88.000427 C 228.995566 98.998985 216.994682 101.998807 208.994093 101.000436 C 214.995708 105.999353 225.994758 104.000257 230.99454 98.998985 C 232.99586 96.99989 233.995347 94.000069 234.994834 91.000248 C 235.994321 94.000069 237.995642 97.99826 237.995642 101.998807 C 236.996154 110.99827 224.995271 114.000445 216.994682 114.998816 C 225.994758 120.000087 241.995936 114.000445 242.995423 101.000436 C 242.995423 89.999522 235.994321 84.998251 232.99586 79.999334 C 232.545387 78.179191 231.994027 74.618964 231.994027 74.618964 C 232.383498 74.734342 234.994834 76.008206 234.994834 76.008206 C 234.994834 76.008206 233.225789 72.699926 232.99586 71.998241 C 232.99586 71.998241 229.875396 63.500318 228.744521 61.618955 C 228.929872 61.512996 230.99454 61.969797 230.99454 61.969797 L 222.803907 51.698824 C 222.803907 51.698824 224.781766 51.519871 225.124313 51.45865 C 225.124313 51.45865 215.605724 43.949679 212.994388 42.998402 C 212.994388 42.998402 215.995195 42.000031 215.995195 42.000031 C 209.995927 39.00021 202.994825 40.999306 196.995556 44.999852 L 197.995043 42.000031 L 196.164997 42.169566 L 196.164997 38.738844 C 196.164997 38.738844 197.995043 36.000389 197.995043 36.000389 C 197.995043 36.000389 194.994236 34.999664 194.994236 34.999664 L 196.995556 29.998392 C 196.995556 29.998392 193.994749 30.999117 193.994749 30.999117 L 194.994236 26.0002 C 194.994236 26.0002 192.755948 27.0386 191.395144 26.890257 C 191.444415 26.998571 192.985877 23.468954 192.985877 23.468954 C 192.03566 21.978462 192.995262 18.999833 192.995262 18.999833 C 185.99416 19.998204 184.994673 20.998929 180.994379 26.998571 C 174.99511 37.999485 176.994084 42.998402 177.995917 53.999315 Z M 178.00061 53.999315 " transform="matrix(1.664917,0,0,1.658953,0.85869,-0.000301359)"/>
<path style="fill-rule:evenodd;fill:rgb(100%,0%,0%);fill-opacity:1;stroke-width:1.331;stroke-linecap:butt;stroke-linejoin:miter;stroke:rgb(100%,0%,0%);stroke-opacity:1;stroke-miterlimit:4;" d="M 215.779344 70.43711 C 216.300203 71.296556 221.97804 74.032657 226.248149 76.453235 C 225.100851 71.845189 216.769446 70.827982 215.779344 70.43711 Z M 215.779344 70.43711 " transform="matrix(1.664917,0,0,1.658953,0.85869,-0.000301359)"/>
<path style=" stroke:none;fill-rule:evenodd;fill:rgb(100%,100%,100%);fill-opacity:1;" d="M 131.210938 299.273438 L 120.621094 292.539062 L 106.410156 299.324219 L 109.5625 287.214844 L 98.695312 275.832031 L 111.234375 275.070312 L 118.730469 261.269531 L 123.328125 272.914062 L 138.828125 275.75 L 129.128906 283.714844 Z M 131.210938 299.273438 "/>
<path style=" stroke:none;fill-rule:evenodd;fill:rgb(100%,100%,100%);fill-opacity:1;" d="M 158.386719 240.066406 L 153.476562 237.726562 L 148.753906 240.433594 L 149.472656 235.039062 L 145.433594 231.40625 L 150.789062 230.429688 L 153.011719 225.46875 L 155.605469 230.246094 L 161.019531 230.828125 L 157.265625 234.757812 Z M 158.386719 240.066406 "/>
<path style=" stroke:none;fill-rule:evenodd;fill:rgb(100%,100%,100%);fill-opacity:1;" d="M 182.335938 206.109375 L 171.5625 200.867188 L 161.121094 206.738281 L 162.785156 194.910156 L 153.949219 186.832031 L 165.757812 184.757812 L 170.730469 173.890625 L 176.375 184.441406 L 188.277344 185.800781 L 179.953125 194.394531 Z M 182.335938 206.109375 "/>
<path style=" stroke:none;fill-rule:evenodd;fill:rgb(100%,100%,100%);fill-opacity:1;" d="M 133.054688 158.828125 L 120.363281 152.492188 L 107.933594 159.316406 L 110.0625 145.332031 L 99.703125 135.664062 L 113.707031 133.355469 L 119.742188 120.554688 L 126.269531 133.113281 L 140.351562 134.871094 L 130.382812 144.9375 Z M 133.054688 158.828125 "/>
<path style=" stroke:none;fill-rule:evenodd;fill:rgb(100%,100%,100%);fill-opacity:1;" d="M 87.453125 207.933594 L 74.65625 200.367188 L 61.894531 208.097656 L 65.167969 193.632812 L 53.835938 183.945312 L 68.652344 182.566406 L 74.410156 168.832031 L 80.296875 182.453125 L 95.1875 183.664062 L 84.007812 193.449219 Z M 87.453125 207.933594 "/>
</g>
</svg>
