<?xml version="1.0" encoding="UTF-8"?>
<svg xmlns="http://www.w3.org/2000/svg" xmlns:xlink="http://www.w3.org/1999/xlink" width="480pt" height="360pt" viewBox="0 0 480 360" version="1.1">
<defs>
<clipPath id="clip1">
  <path d="M 0 0 L 480 0 L 480 240 L 0 240 Z M 0 0 "/>
</clipPath>
</defs>
<g id="surface1">
<rect x="0" y="0" width="480" height="360" style="fill:rgb(0%,14.117647%,49.019608%);fill-opacity:1;stroke:none;"/>
<g clip-path="url(#clip1)" clip-rule="nonzero">
<path style=" stroke:none;fill-rule:nonzero;fill:rgb(0%,14.117647%,49.019608%);fill-opacity:1;" d="M 560 120 C 560 296.730469 416.730469 440 240 440 C 63.269531 440 -80 296.730469 -80 120 C -80 -56.730469 63.269531 -200 240 -200 C 416.730469 -200 560 -56.730469 560 120 Z M 560 120 "/>
<path style="fill-rule:nonzero;fill:rgb(0%,0%,0%);fill-opacity:1;stroke-width:3;stroke-linecap:butt;stroke-linejoin:miter;stroke:rgb(100%,100%,100%);stroke-opacity:1;stroke-miterlimit:4;" d="M -20 -10 L 20 10 M -20 10 L 20 -10 " transform="matrix(16,0,0,16,240,120)"/>
<path style="fill-rule:nonzero;fill:rgb(0%,0%,0%);fill-opacity:1;stroke-width:2;stroke-linecap:butt;stroke-linejoin:miter;stroke:rgb(81.176471%,7.843137%,16.862745%);stroke-opacity:1;stroke-miterlimit:4;" d="M -20 -10 L 20 10 M -20 10 L 20 -10 " transform="matrix(16,0,0,16,240,120)"/>
<path style=" stroke:none;fill-rule:nonzero;fill:rgb(100%,100%,100%);fill-opacity:1;" d="M 240 120 L 560 280 L 512 280 L 192 120 M 240 120 L 560 -40 L 608 -40 L 288 120 M 240 120 L -80 280 L -128 280 L 192 120 M 240 120 L -80 -40 L -32 -40 L 288 120 "/>
<path style="fill-rule:nonzero;fill:rgb(0%,0%,0%);fill-opacity:1;stroke-width:5;stroke-linecap:butt;stroke-linejoin:miter;stroke:rgb(100%,100%,100%);stroke-opacity:1;stroke-miterlimit:4;" d="M -20 0 L 20 0 M 0 -10 L 0 10 " transform="matrix(16,0,0,16,240,120)"/>
<path style="fill-rule:nonzero;fill:rgb(0%,0%,0%);fill-opacity:1;stroke-width:3;stroke-linecap:butt;stroke-linejoin:miter;stroke:rgb(81.176471%,7.843137%,16.862745%);stroke-opacity:1;stroke-miterlimit:4;" d="M -20 0 L 20 0 M 0 -10 L 0 10 " transform="matrix(16,0,0,16,240,120)"/>
</g>
<path style="fill-rule:nonzero;fill:rgb(96.862745%,87.843137%,9.019608%);fill-opacity:1;stroke-width:0.18616;stroke-linecap:butt;stroke-linejoin:miter;stroke:rgb(0%,0%,0%);stroke-opacity:1;stroke-miterlimit:4;" d="M 197.839327 77.265177 C 195.133997 79.560096 192.556249 82.904867 191.922956 85.928381 C 190.141435 94.440946 187.774271 96.334677 184.117465 94.507042 C 184.117465 99.076897 188.126272 99.428898 189.884736 96.755847 C 189.884736 101.045947 191.438763 104.762701 194.946469 107.935315 C 196.42364 109.271071 196.703396 108.358022 196.000933 106.880851 C 195.298469 105.405217 195.298469 100.623239 193.892005 97.881019 C 196.142348 99.498068 199.445616 98.585019 199.164324 94.155042 C 196.282225 95.842799 193.417035 95.776703 193.117297 91.763285 C 192.766834 87.053552 194.605228 80.217983 197.839327 77.265177 Z M 197.839327 77.265177 " transform="matrix(2.54128,0,0,2.54128,-195.312,36.4288)"/>
<path style="fill-rule:nonzero;fill:rgb(96.862745%,87.843137%,9.019608%);fill-opacity:1;stroke-width:0.18616;stroke-linecap:butt;stroke-linejoin:miter;stroke:rgb(0%,0%,0%);stroke-opacity:1;stroke-miterlimit:4;" d="M 194.419237 43.400907 C 194.611377 41.711613 194.250154 39.977743 193.015847 38.889462 C 190.631776 36.789758 188.295355 37.486072 186.55841 39.176903 C 183.956067 37.77044 182.574197 42.756854 179.621392 41.912975 C 180.11327 43.530025 180.886441 44.234025 182.363612 43.67144 C 180.815733 45.076367 182.363612 46.764123 180.53444 48.45188 C 183.839246 49.506344 185.597711 47.678709 185.456296 44.513781 C 186.722882 45.638952 188.690394 45.569782 189.746395 44.303196 C 187.987931 43.74061 187.980245 42.211177 188.690394 40.787804 C 189.746395 38.678877 194.70053 38.760344 194.419237 43.400907 Z M 194.419237 43.400907 " transform="matrix(2.54128,0,0,2.54128,-195.312,36.4288)"/>
<path style="fill-rule:nonzero;fill:rgb(20%,45.098039%,12.941176%);fill-opacity:1;stroke-width:0.18616;stroke-linecap:butt;stroke-linejoin:miter;stroke:rgb(0%,0%,0%);stroke-opacity:1;stroke-miterlimit:4;" d="M 202.049496 67.858009 C 198.32352 69.827058 191.503322 68.98318 190.870029 64.132032 C 190.236736 59.279347 194.948006 57.099712 196.214592 56.467956 C 198.186716 55.481126 199.728446 57.241127 199.09669 59.279347 C 201.276325 58.506176 201.769741 55.974541 200.71374 54.498907 C 203.597375 54.709492 206.268888 52.529857 207.394059 49.435636 C 206.382635 50.39941 203.62658 49.747671 201.356256 49.601645 C 202.058719 48.828474 202.049496 47.326709 201.838911 46.553538 C 199.448691 49.014466 196.00247 47.889294 191.432615 54.990785 C 192.136615 52.529857 193.472372 47.608002 194.245543 44.373903 C 194.322399 44.051108 194.382346 43.732924 194.419237 43.400907 C 194.70053 38.760344 189.751006 38.67734 188.696543 40.786267 C 189.852456 42.091281 189.245294 43.613029 188.830272 45.920245 C 188.338394 48.662465 187.28393 54.990785 186.369344 57.101249 C 186.089589 53.796443 183.908417 53.585858 183.487246 51.967271 C 182.853953 52.389979 182.50349 53.51515 182.643368 54.288321 C 181.870197 53.444443 179.198684 54.498907 178.21339 53.233858 C 177.158927 55.342785 178.846684 57.451712 180.603611 58.366298 C 179.584501 58.437006 179.338562 59.666701 178.21339 59.666701 C 179.725916 61.425165 181.272257 62.127629 183.064538 62.269044 C 184.858356 62.408921 186.194113 63.076031 187.28393 65.257203 C 189.042394 68.772594 195.739622 71.058291 202.049496 67.858009 Z M 202.049496 67.858009 " transform="matrix(2.54128,0,0,2.54128,-195.312,36.4288)"/>
<path style="fill-rule:nonzero;fill:rgb(96.862745%,87.843137%,9.019608%);fill-opacity:1;stroke-width:0.18616;stroke-linecap:butt;stroke-linejoin:miter;stroke:rgb(0%,0%,0%);stroke-opacity:1;stroke-miterlimit:4;" d="M 211.330621 63.569446 C 209.221694 69.40435 203.454423 73.553035 200.853618 74.186328 C 196.426715 75.262311 187.39614 79.646175 184.972103 81.902666 C 184.58936 81.818124 184.234286 81.678246 183.977587 81.498403 C 182.783246 80.654525 181.799489 77.912305 183.908417 75.592792 C 190.518029 69.40435 197.619519 72.075863 202.049496 67.858009 C 198.321982 69.827058 191.501785 68.98318 190.868492 64.132032 C 194.877299 65.186496 202.118667 65.255666 207.8844 59.068762 C 208.657571 59.91264 210.907914 62.584153 211.330621 63.569446 Z M 211.330621 63.569446 " transform="matrix(2.54128,0,0,2.54128,-195.312,36.4288)"/>
<path style="fill-rule:nonzero;fill:rgb(20%,45.098039%,12.941176%);fill-opacity:1;stroke-width:0.18616;stroke-linecap:butt;stroke-linejoin:miter;stroke:rgb(0%,0%,0%);stroke-opacity:1;stroke-miterlimit:4;" d="M 197.839327 77.265177 C 194.500704 80.098088 192.766834 87.053552 193.117297 91.763285 C 193.215673 93.074447 193.584581 93.962902 194.141019 94.507042 C 194.386958 91.835529 196.245335 84.932327 200.993495 81.850404 C 205.000765 79.248061 211.258377 73.41162 213.579427 66.732837 C 213.156719 65.536959 212.454255 64.69308 211.118499 63.849202 C 208.822043 70.152927 202.656658 73.177978 197.839327 77.265177 Z M 197.839327 77.265177 " transform="matrix(2.54128,0,0,2.54128,-195.312,36.4288)"/>
<path style="fill-rule:nonzero;fill:rgb(19.215686%,42.745098%,22.745098%);fill-opacity:1;stroke-width:0.18616;stroke-linecap:butt;stroke-linejoin:miter;stroke:rgb(0%,0%,0%);stroke-opacity:1;stroke-miterlimit:4;" d="M 209.189414 60.86258 C 207.993536 62.65486 205.286669 65.115788 202.685864 66.099544 C 203.248449 65.467788 203.423681 64.659264 203.459034 63.990617 C 200.154228 65.257203 193.544616 65.115788 190.873103 64.132032 C 194.880373 65.186496 202.123278 65.257203 207.889012 59.068762 C 208.451597 59.702055 208.943475 60.26464 209.189414 60.86258 Z M 209.189414 60.86258 " transform="matrix(2.54128,0,0,2.54128,-195.312,36.4288)"/>
<path style="fill-rule:nonzero;fill:rgb(20%,45.098039%,12.941176%);fill-opacity:1;stroke-width:0.18616;stroke-linecap:butt;stroke-linejoin:miter;stroke:rgb(0%,0%,0%);stroke-opacity:1;stroke-miterlimit:4;" d="M 183.909954 75.591255 C 178.536186 80.622245 182.082319 85.013795 184.191247 85.997551 C 183.628661 89.512942 186.933467 89.091772 186.86276 92.044577 C 188.198516 91.271407 188.550516 89.23165 188.339931 87.6146 C 190.027688 89.443772 194.31625 87.404015 195.229299 90.779528 C 195.793422 87.052015 192.909786 83.326038 189.323687 83.678038 C 190.800859 82.342282 189.95698 80.162647 188.550516 79.600061 C 188.270761 82.342282 185.17654 82.342282 183.980661 81.498403 C 182.784783 80.654525 181.801026 77.912305 183.909954 75.591255 Z M 183.909954 75.591255 " transform="matrix(2.54128,0,0,2.54128,-195.312,36.4288)"/>
<path style="fill-rule:nonzero;fill:rgb(96.862745%,87.843137%,9.019608%);fill-opacity:1;stroke-width:0.18616;stroke-linecap:butt;stroke-linejoin:miter;stroke:rgb(0%,0%,0%);stroke-opacity:1;stroke-miterlimit:4;" d="M 195.550557 107.58024 C 194.963377 107.915332 195.006417 108.671595 195.373788 109.161936 C 196.111605 110.145692 194.854242 112.377589 197.236776 112.852559 C 197.940777 112.993974 198.481843 112.56358 198.749302 111.762741 C 199.487119 109.547753 197.132252 109.301813 196.921667 108.24735 C 196.709545 107.192886 196.042435 107.29741 195.550557 107.58024 Z M 195.550557 107.58024 " transform="matrix(2.54128,0,0,2.54128,-195.312,36.4288)"/>
<path style="fill-rule:nonzero;fill:rgb(96.862745%,87.843137%,9.019608%);fill-opacity:1;stroke-width:0.18616;stroke-linecap:butt;stroke-linejoin:miter;stroke:rgb(0%,0%,0%);stroke-opacity:1;stroke-miterlimit:4;" d="M 197.550349 111.730462 C 196.760269 112.094759 196.073177 112.609694 196.389824 115.139792 C 196.520479 116.18657 196.460531 118.725891 195.545945 118.761244 C 196.108531 119.042537 197.30441 119.340738 197.796288 118.690537 C 198.26972 119.482153 199.34263 119.25466 199.765337 118.269366 C 200.326386 118.725891 201.101094 117.95272 201.101094 117.28561 C 201.592972 117.600719 202.576728 117.144195 202.330789 115.633207 C 202.928728 115.842255 203.701899 115.422622 203.983192 115.035268 C 203.10396 114.858499 200.890508 113.664157 200.361739 112.715755 C 199.834508 111.764278 198.463397 111.307754 197.550349 111.730462 Z M 197.550349 111.730462 " transform="matrix(2.54128,0,0,2.54128,-195.312,36.4288)"/>
<path style="fill:none;stroke-width:0.18616;stroke-linecap:butt;stroke-linejoin:miter;stroke:rgb(0%,0%,0%);stroke-opacity:1;stroke-miterlimit:4;" d="M 185.370217 40.620258 C 185.723754 40.096101 186.120331 39.602685 186.55841 39.176903 " transform="matrix(2.54128,0,0,2.54128,-195.312,36.4288)"/>
<path style="fill:none;stroke-width:0.18616;stroke-linecap:butt;stroke-linejoin:miter;stroke:rgb(0%,0%,0%);stroke-opacity:1;stroke-miterlimit:4;" d="M 198.749302 49.927514 C 199.370298 49.57244 200.314089 49.534012 201.360867 49.601645 " transform="matrix(2.54128,0,0,2.54128,-195.312,36.4288)"/>
<path style="fill:none;stroke-width:0.18616;stroke-linecap:butt;stroke-linejoin:miter;stroke:rgb(0%,0%,0%);stroke-opacity:1;stroke-miterlimit:4;" d="M 197.799362 118.690537 C 197.553423 118.338537 197.465807 116.861365 197.642576 115.965225 " transform="matrix(2.54128,0,0,2.54128,-195.312,36.4288)"/>
<path style="fill:none;stroke-width:0.18616;stroke-linecap:butt;stroke-linejoin:miter;stroke:rgb(0%,0%,0%);stroke-opacity:1;stroke-miterlimit:4;" d="M 199.769949 118.269366 C 199.382595 117.971165 198.644777 116.952055 198.521808 116.054378 " transform="matrix(2.54128,0,0,2.54128,-195.312,36.4288)"/>
<path style="fill:none;stroke-width:0.18616;stroke-linecap:butt;stroke-linejoin:miter;stroke:rgb(0%,0%,0%);stroke-opacity:1;stroke-miterlimit:4;" d="M 201.099557 117.290221 C 200.607679 117.061191 199.4118 115.513312 199.147415 114.512647 " transform="matrix(2.54128,0,0,2.54128,-195.312,36.4288)"/>
<path style="fill:none;stroke-width:0.18616;stroke-linecap:butt;stroke-linejoin:miter;stroke:rgb(0%,0%,0%);stroke-opacity:1;stroke-miterlimit:4;" d="M 202.329252 115.639355 C 201.749758 115.516386 199.974385 114.355861 199.236568 113.126166 " transform="matrix(2.54128,0,0,2.54128,-195.312,36.4288)"/>
<path style="fill-rule:nonzero;fill:rgb(96.862745%,87.843137%,9.019608%);fill-opacity:1;stroke-width:0.18616;stroke-linecap:butt;stroke-linejoin:miter;stroke:rgb(0%,0%,0%);stroke-opacity:1;stroke-miterlimit:4;" d="M 234.750168 75.663499 C 243.399537 82.904867 243.960585 88.670601 242.624829 92.046115 C 241.922365 88.882723 238.336267 83.960868 234.608753 82.694282 Z M 234.750168 75.663499 " transform="matrix(2.54128,0,0,2.54128,-195.312,36.4288)"/>
<path style="fill-rule:nonzero;fill:rgb(20%,45.098039%,12.941176%);fill-opacity:1;stroke-width:0.18616;stroke-linecap:butt;stroke-linejoin:miter;stroke:rgb(0%,0%,0%);stroke-opacity:1;stroke-miterlimit:4;" d="M 219.280601 71.585522 L 235.312753 71.585522 L 235.312753 90.568943 C 235.312753 106.740973 226.311384 116.303391 217.171674 121.366661 C 208.030427 116.303391 199.030594 106.740973 199.030594 90.568943 L 199.030594 71.585522 L 210.279232 71.585522 C 210.297677 72.569279 210.385293 74.04645 211.545818 75.522084 C 214.200423 75.259237 217.20549 73.271742 219.280601 71.585522 Z M 219.280601 71.585522 " transform="matrix(2.54128,0,0,2.54128,-195.312,36.4288)"/>
<path style="fill-rule:nonzero;fill:rgb(0%,43.137255%,78.039216%);fill-opacity:1;stroke-width:0.18616;stroke-linecap:butt;stroke-linejoin:miter;stroke:rgb(0%,0%,0%);stroke-opacity:1;stroke-miterlimit:4;" d="M 235.309679 71.585522 L 235.309679 90.568943 C 235.309679 95.450833 234.488857 99.730173 233.093153 103.465372 L 217.173211 74.252424 L 201.253269 103.465372 C 199.856027 99.730173 199.036743 95.450833 199.036743 90.568943 L 199.036743 71.585522 L 235.317365 71.585522 Z M 235.309679 71.585522 " transform="matrix(2.54128,0,0,2.54128,-195.312,36.4288)"/>
<path style=" stroke:none;fill-rule:nonzero;fill:rgb(96.862745%,87.843137%,9.019608%);fill-opacity:1;" d="M 398.28125 295.792969 C 397.566406 297.980469 396.269531 301.53125 395.265625 303.71875 L 356.589844 231.839844 L 317.910156 303.71875 C 316.90625 301.53125 315.609375 297.980469 314.894531 295.792969 L 356.597656 218.484375 L 398.300781 295.792969 Z M 398.28125 295.792969 "/>
<path style="fill-rule:nonzero;fill:rgb(96.862745%,87.843137%,9.019608%);fill-opacity:1;stroke-width:0.18616;stroke-linecap:butt;stroke-linejoin:miter;stroke:rgb(0%,0%,0%);stroke-opacity:1;stroke-miterlimit:4;" d="M 224.409968 112.469816 C 224.832675 112.680401 225.608921 113.070829 225.960921 113.212244 C 226.804799 111.524488 226.944677 109.134267 226.663384 107.023803 C 225.750335 109.344853 222.656115 109.274145 221.812236 110.680609 C 222.331783 110.940382 222.812901 111.280086 223.227923 111.579824 C 222.173459 112.634288 219.703309 114.406586 218.296845 114.829294 L 218.296845 99.747081 C 218.296845 98.692617 217.944845 97.813385 217.944845 96.934153 L 217.944845 93.816876 C 217.944845 93.112875 217.804967 92.093765 217.171674 92.093765 C 216.538381 92.093765 216.398503 93.112875 216.398503 93.816876 L 216.398503 96.934153 C 216.398503 97.813385 216.046503 98.832495 216.046503 99.747081 L 216.046503 114.829294 C 215.273332 112.578951 212.245207 113.349048 210.838743 111.098706 C 211.389032 110.964976 211.968526 110.923474 212.531111 111.03261 C 211.476648 107.446511 208.594549 107.165218 208.030427 106.110754 C 208.030427 107.586389 207.398671 111.03261 208.382427 112.508244 C 208.603772 112.243859 208.93579 111.971789 209.335441 111.727387 C 210.529782 114.32973 215.906625 114.337416 217.171674 118.625978 C 218.18771 117.050431 221.84759 115.221259 224.409968 112.469816 Z M 224.409968 112.469816 " transform="matrix(2.54128,0,0,2.54128,-195.312,36.4288)"/>
<path style="fill-rule:nonzero;fill:rgb(96.862745%,87.843137%,9.019608%);fill-opacity:1;stroke-width:0.18616;stroke-linecap:butt;stroke-linejoin:miter;stroke:rgb(0%,0%,0%);stroke-opacity:1;stroke-miterlimit:4;" d="M 217.170137 99.920776 C 218.364478 99.920776 222.1627 99.531885 223.532273 99.531885 C 223.890421 99.531885 224.1794 98.998504 224.1794 98.33908 C 224.1794 97.679656 223.890421 97.146276 223.532273 97.146276 C 222.1627 97.146276 218.364478 96.757385 217.170137 96.757385 C 215.974258 96.757385 212.177574 97.146276 210.806464 97.146276 C 210.449852 97.146276 210.159337 97.679656 210.159337 98.33908 C 210.159337 98.998504 210.449852 99.531885 210.806464 99.531885 C 212.177574 99.531885 215.974258 99.920776 217.170137 99.920776 Z M 217.170137 99.920776 " transform="matrix(2.54128,0,0,2.54128,-195.312,36.4288)"/>
<path style="fill-rule:nonzero;fill:rgb(96.862745%,87.843137%,9.019608%);fill-opacity:1;stroke-width:0.18616;stroke-linecap:butt;stroke-linejoin:miter;stroke:rgb(0%,0%,0%);stroke-opacity:1;stroke-miterlimit:4;" d="M 216.40004 93.74002 C 216.146415 93.535583 215.812861 93.412613 215.448563 93.412613 C 214.650799 93.412613 214.006746 94.00133 214.006746 94.728387 C 214.006746 95.455445 214.650799 96.045698 215.448563 96.045698 C 216.243254 96.045698 216.888844 95.455445 216.888844 94.728387 C 216.888844 94.165802 217.706591 94.165802 217.706591 94.728387 C 217.706591 95.867393 216.696704 96.791201 215.448563 96.791201 C 214.200423 96.791201 213.187461 95.867393 213.187461 94.728387 C 213.187461 93.589382 214.200423 92.665574 215.448563 92.665574 C 215.822083 92.665574 216.175621 92.748578 216.486119 92.896141 C 216.458451 93.085207 216.40004 93.437207 216.40004 93.74002 Z M 216.40004 93.74002 " transform="matrix(2.54128,0,0,2.54128,-195.312,36.4288)"/>
<path style="fill-rule:nonzero;fill:rgb(96.862745%,87.843137%,9.019608%);fill-opacity:1;stroke-width:0.18616;stroke-linecap:butt;stroke-linejoin:miter;stroke:rgb(0%,0%,0%);stroke-opacity:1;stroke-miterlimit:4;" d="M 210.809538 99.531885 C 211.167687 99.531885 211.456665 98.998504 211.456665 98.33908 C 211.456665 97.679656 211.167687 97.144739 210.809538 97.144739 " transform="matrix(2.54128,0,0,2.54128,-195.312,36.4288)"/>
<path style="fill-rule:nonzero;fill:rgb(96.862745%,87.843137%,9.019608%);fill-opacity:1;stroke-width:0.18616;stroke-linecap:butt;stroke-linejoin:miter;stroke:rgb(0%,0%,0%);stroke-opacity:1;stroke-miterlimit:4;" d="M 211.339844 99.531885 C 211.696456 99.531885 211.985434 98.998504 211.985434 98.33908 C 211.985434 97.679656 211.696456 97.144739 211.339844 97.144739 " transform="matrix(2.54128,0,0,2.54128,-195.312,36.4288)"/>
<path style="fill-rule:nonzero;fill:rgb(96.862745%,87.843137%,9.019608%);fill-opacity:1;stroke-width:0.18616;stroke-linecap:butt;stroke-linejoin:miter;stroke:rgb(0%,0%,0%);stroke-opacity:1;stroke-miterlimit:4;" d="M 214.810659 99.776286 C 215.239515 99.776286 215.588441 99.132234 215.588441 98.33908 C 215.588441 97.54439 215.239515 96.900337 214.810659 96.900337 " transform="matrix(2.54128,0,0,2.54128,-195.312,36.4288)"/>
<path style="fill-rule:nonzero;fill:rgb(96.862745%,87.843137%,9.019608%);fill-opacity:1;stroke-width:0.18616;stroke-linecap:butt;stroke-linejoin:miter;stroke:rgb(0%,0%,0%);stroke-opacity:1;stroke-miterlimit:4;" d="M 215.620721 99.842383 C 216.069559 99.842383 216.435394 99.169124 216.435394 98.33908 C 216.435394 97.507499 216.069559 96.834241 215.620721 96.834241 " transform="matrix(2.54128,0,0,2.54128,-195.312,36.4288)"/>
<path style="fill-rule:nonzero;fill:rgb(96.862745%,87.843137%,9.019608%);fill-opacity:1;stroke-width:0.18616;stroke-linecap:butt;stroke-linejoin:miter;stroke:rgb(0%,0%,0%);stroke-opacity:1;stroke-miterlimit:4;" d="M 218.319902 99.859291 C 218.774889 99.859291 219.143798 99.178347 219.143798 98.33908 C 219.143798 97.498276 218.774889 96.817332 218.319902 96.817332 " transform="matrix(2.54128,0,0,2.54128,-195.312,36.4288)"/>
<path style="fill-rule:nonzero;fill:rgb(96.862745%,87.843137%,9.019608%);fill-opacity:1;stroke-width:0.18616;stroke-linecap:butt;stroke-linejoin:miter;stroke:rgb(0%,0%,0%);stroke-opacity:1;stroke-miterlimit:4;" d="M 219.169929 99.81164 C 219.620305 99.81164 219.984602 99.152216 219.984602 98.33908 C 219.984602 97.525944 219.620305 96.86652 219.169929 96.86652 " transform="matrix(2.54128,0,0,2.54128,-195.312,36.4288)"/>
<path style="fill-rule:nonzero;fill:rgb(96.862745%,87.843137%,9.019608%);fill-opacity:1;stroke-width:0.18616;stroke-linecap:butt;stroke-linejoin:miter;stroke:rgb(0%,0%,0%);stroke-opacity:1;stroke-miterlimit:4;" d="M 222.940482 99.554941 C 223.303242 99.554941 223.599906 99.010801 223.599906 98.337543 C 223.599906 97.665822 223.303242 97.121682 222.940482 97.121682 " transform="matrix(2.54128,0,0,2.54128,-195.312,36.4288)"/>
<path style="fill-rule:nonzero;fill:rgb(96.862745%,87.843137%,9.019608%);fill-opacity:1;stroke-width:0.18616;stroke-linecap:butt;stroke-linejoin:miter;stroke:rgb(0%,0%,0%);stroke-opacity:1;stroke-miterlimit:4;" d="M 209.329292 111.730462 C 209.764297 111.46454 210.282306 111.235509 210.834132 111.100243 " transform="matrix(2.54128,0,0,2.54128,-195.312,36.4288)"/>
<path style="fill-rule:nonzero;fill:rgb(96.862745%,87.843137%,9.019608%);fill-opacity:1;stroke-width:0.18616;stroke-linecap:butt;stroke-linejoin:miter;stroke:rgb(0%,0%,0%);stroke-opacity:1;stroke-miterlimit:4;" d="M 223.639871 111.870339 C 223.510753 111.778112 223.372412 111.679737 223.226386 111.573675 " transform="matrix(2.54128,0,0,2.54128,-195.312,36.4288)"/>
<path style="fill-rule:nonzero;fill:rgb(96.862745%,87.843137%,9.019608%);fill-opacity:1;stroke-width:0.18616;stroke-linecap:butt;stroke-linejoin:miter;stroke:rgb(0%,0%,0%);stroke-opacity:1;stroke-miterlimit:4;" d="M 224.409968 112.469816 C 225.395261 111.412278 226.214545 110.217936 226.663384 108.851438 " transform="matrix(2.54128,0,0,2.54128,-195.312,36.4288)"/>
<path style="fill-rule:nonzero;fill:rgb(100%,100%,100%);fill-opacity:1;stroke-width:0.18616;stroke-linecap:butt;stroke-linejoin:miter;stroke:rgb(0%,0%,0%);stroke-opacity:1;stroke-miterlimit:4;" d="M 213.949872 85.006109 C 213.949872 84.663332 214.232702 84.515768 214.560108 84.268292 C 214.956685 83.968554 215.113471 83.828676 215.474694 83.828676 L 220.089126 83.828676 C 220.430366 83.828676 220.510296 83.916292 220.510296 84.232938 L 220.510296 90.507458 C 220.510296 90.824105 220.430366 90.911721 220.089126 90.911721 L 213.949872 90.911721 L 213.949872 84.944624 " transform="matrix(2.54128,0,0,2.54128,-195.312,36.4288)"/>
<path style="fill-rule:nonzero;fill:rgb(89.803922%,89.803922%,89.803922%);fill-opacity:1;stroke-width:0.18616;stroke-linecap:butt;stroke-linejoin:miter;stroke:rgb(0%,0%,0%);stroke-opacity:1;stroke-miterlimit:4;" d="M 218.950121 91.457398 C 219.555746 91.457398 219.44661 91.443564 219.872392 91.017782 C 220.316619 90.573554 220.275117 90.61352 220.275117 90.204646 L 220.275117 84.46658 C 220.275117 84.171453 220.201336 84.088449 219.884689 84.088449 L 215.614572 84.088449 C 215.27948 84.088449 215.133454 84.220641 214.76762 84.500397 C 214.46327 84.732502 214.206571 84.869306 214.206571 85.190563 L 214.206571 91.457398 Z M 218.950121 91.457398 " transform="matrix(2.54128,0,0,2.54128,-195.312,36.4288)"/>
<path style="fill-rule:nonzero;fill:rgb(100%,100%,100%);fill-opacity:1;stroke-width:0.18616;stroke-linecap:butt;stroke-linejoin:miter;stroke:rgb(0%,0%,0%);stroke-opacity:1;stroke-miterlimit:4;" d="M 219.400497 91.325206 C 219.400497 91.641852 219.320566 91.729468 218.977789 91.729468 L 214.363357 91.729468 C 214.02058 91.729468 213.946798 91.641852 213.946798 91.325206 L 213.946798 85.049148 C 213.946798 84.732502 214.02058 84.644886 214.363357 84.644886 L 218.977789 84.644886 C 219.320566 84.644886 219.400497 84.732502 219.400497 85.049148 Z M 219.400497 91.325206 " transform="matrix(2.54128,0,0,2.54128,-195.312,36.4288)"/>
<path style="fill-rule:nonzero;fill:rgb(58.823529%,52.941176%,49.019608%);fill-opacity:1;stroke-width:0.18616;stroke-linecap:butt;stroke-linejoin:miter;stroke:rgb(0%,0%,0%);stroke-opacity:1;stroke-miterlimit:4;" d="M 228.349604 67.908733 C 229.248819 68.909398 229.545482 70.260526 229.055142 71.579374 L 227.719385 71.579374 C 228.280433 69.891617 227.92997 68.280716 225.53975 68.070131 C 221.964411 67.753484 217.804967 74.678206 211.547355 75.522084 C 209.71972 73.342449 209.816559 69.190691 212.137609 67.221641 C 210.938656 63.76466 208.403947 59.960291 206.651631 58.315573 C 205.503403 58.128045 204.176869 58.03428 203.320694 58.085005 C 204.233742 56.115956 206.839159 54.043919 208.949624 53.200041 C 209.289327 52.702014 209.656699 52.220896 209.999476 51.79204 C 210.211599 49.085173 223.077285 50.350222 225.819506 52.037979 C 225.819506 55.061492 227.013847 65.166513 228.349604 67.908733 Z M 228.349604 67.908733 " transform="matrix(2.54128,0,0,2.54128,-195.312,36.4288)"/>
<path style=" stroke:none;fill-rule:nonzero;fill:rgb(0%,0%,0%);fill-opacity:1;" d="M 345.34375 213.691406 C 344.566406 201.78125 339.753906 191.972656 332.988281 185.289062 C 336.203125 186.183594 342.8125 186.183594 347.28125 182.964844 C 353.175781 179.035156 368.542969 172.15625 374.171875 175.105469 C 374.621094 176.085938 374.886719 178.320312 374.53125 179.75 C 373.191406 176.175781 358.359375 181.714844 354.160156 183.414062 C 350.140625 185.289062 348.355469 187.789062 349.78125 193.417969 C 347.460938 191.453125 348.261719 189.578125 345.851562 188.148438 C 346.835938 190.472656 347.636719 194.671875 347.90625 198.066406 C 347.011719 195.652344 345.402344 190.472656 341.917969 187.433594 C 344.960938 193.332031 347.59375 207.492188 346.34375 214.996094 C 348.753906 214.996094 354.070312 212.628906 356.214844 210.929688 C 354.339844 213.613281 348.933594 215.488281 345.449219 216.203125 C 343.886719 218.078125 342.8125 222.902344 342.902344 225.582031 C 342.636719 222.277344 343.679688 214.21875 345.34375 213.691406 Z M 345.34375 213.691406 "/>
<path style=" stroke:none;fill-rule:nonzero;fill:rgb(0%,0%,0%);fill-opacity:1;" d="M 384.988281 209.003906 C 382.03125 205.710938 376.511719 203.925781 369.445312 205.839844 C 370.519531 205.300781 372.84375 204.410156 374.898438 204.050781 C 374.632812 202.175781 372.933594 194.136719 372.664062 192.167969 L 374.632812 191.367188 C 375.613281 196.191406 376.863281 201.730469 377.667969 203.960938 C 378.292969 204.140625 379.722656 204.410156 380.972656 205.035156 C 380.4375 203.160156 377.398438 189.667969 377.488281 188.238281 L 380.167969 186.808594 C 381.242188 194.136719 382.9375 204.765625 384.988281 209.003906 Z M 384.988281 209.003906 "/>
<path style="fill-rule:nonzero;fill:rgb(58.823529%,52.941176%,49.019608%);fill-opacity:1;stroke-width:0.18616;stroke-linecap:butt;stroke-linejoin:miter;stroke:rgb(0%,0%,0%);stroke-opacity:1;stroke-miterlimit:4;" d="M 227.719385 71.577837 C 228.281971 69.89008 227.931507 68.279179 225.53975 68.068594 C 223.687522 67.905659 221.67697 69.705626 219.29751 71.577837 Z M 227.719385 71.577837 " transform="matrix(2.54128,0,0,2.54128,-195.312,36.4288)"/>
<path style="fill-rule:nonzero;fill:rgb(58.823529%,52.941176%,49.019608%);fill-opacity:1;stroke-width:0.18616;stroke-linecap:butt;stroke-linejoin:miter;stroke:rgb(0%,0%,0%);stroke-opacity:1;stroke-miterlimit:4;" d="M 212.180648 56.432602 C 211.124647 56.57248 208.769781 56.361895 207.573902 55.974541 C 207.643073 55.657894 207.766042 55.328951 207.924365 54.981562 C 207.185011 55.47344 205.781621 56.432602 205.25439 57.099712 C 206.942146 57.451712 210.425258 57.626944 212.180648 56.432602 Z M 212.180648 56.432602 " transform="matrix(2.54128,0,0,2.54128,-195.312,36.4288)"/>
<path style="fill:none;stroke-width:0.18616;stroke-linecap:butt;stroke-linejoin:miter;stroke:rgb(0%,0%,0%);stroke-opacity:1;stroke-miterlimit:4;" d="M 212.140683 67.221641 C 212.528037 68.342201 212.781662 69.42587 212.815478 70.389644 " transform="matrix(2.54128,0,0,2.54128,-195.312,36.4288)"/>
<path style="fill:none;stroke-width:0.18616;stroke-linecap:butt;stroke-linejoin:miter;stroke:rgb(0%,0%,0%);stroke-opacity:1;stroke-miterlimit:4;" d="M 208.949624 53.200041 C 208.311719 54.131535 207.758357 55.127588 207.575439 55.974541 C 208.771318 56.361895 211.126184 56.57248 212.180648 56.432602 " transform="matrix(2.54128,0,0,2.54128,-195.312,36.4288)"/>
<path style="fill:none;stroke-width:0.18616;stroke-linecap:butt;stroke-linejoin:miter;stroke:rgb(0%,0%,0%);stroke-opacity:1;stroke-miterlimit:4;" d="M 206.650094 58.314036 C 207.105081 58.387818 207.530863 58.476971 207.890549 58.576883 C 209.155598 58.927347 211.756403 58.927347 213.514868 57.662298 C 215.273332 56.397249 220.053772 52.45915 225.467506 52.037979 " transform="matrix(2.54128,0,0,2.54128,-195.312,36.4288)"/>
<path style="fill:none;stroke-width:0.18616;stroke-linecap:butt;stroke-linejoin:miter;stroke:rgb(0%,0%,0%);stroke-opacity:1;stroke-miterlimit:4;" d="M 205.249778 57.099712 C 206.937535 57.451712 210.420647 57.626944 212.176037 56.432602 C 216.254014 53.655028 220.190576 52.037979 224.128675 51.825856 " transform="matrix(2.54128,0,0,2.54128,-195.312,36.4288)"/>
<path style="fill-rule:nonzero;fill:rgb(20%,45.098039%,12.941176%);fill-opacity:1;stroke-width:0.18616;stroke-linecap:butt;stroke-linejoin:miter;stroke:rgb(0%,0%,0%);stroke-opacity:1;stroke-miterlimit:4;" d="M 234.750168 75.663499 C 240.655779 79.741476 245.016586 83.678038 246.281635 90.006358 C 247.546684 96.334677 249.938441 98.022434 252.891247 96.334677 C 252.187247 99.991483 248.53044 100.412654 245.437757 97.601263 C 245.71905 101.819118 244.031293 106.882388 239.672023 108.710023 C 239.39073 106.178387 241.064653 104.173984 240.586609 102.100411 C 240.374486 101.187362 240.305316 99.076897 241.499658 98.093141 C 239.180145 98.866312 235.523339 97.390678 235.171338 93.944457 C 237.844388 95.211043 241.289072 95.421628 242.624829 92.046115 C 243.960585 88.670601 243.399537 82.906404 234.750168 75.663499 Z M 234.750168 75.663499 " transform="matrix(2.54128,0,0,2.54128,-195.312,36.4288)"/>
<path style="fill-rule:nonzero;fill:rgb(20%,45.098039%,12.941176%);fill-opacity:1;stroke-width:0.18616;stroke-linecap:butt;stroke-linejoin:miter;stroke:rgb(0%,0%,0%);stroke-opacity:1;stroke-miterlimit:4;" d="M 242.200584 42.756854 C 244.028219 37.976413 248.810196 38.468292 250.427245 40.506511 C 255.138515 37.834999 255.770271 43.882025 259.777541 42.686146 C 259.70837 43.811318 258.372614 44.865781 256.895442 44.796611 C 258.441784 46.201538 256.263687 48.312002 259.566955 49.577051 C 256.755565 50.983515 252.817466 49.506344 251.763002 45.638952 C 250.848416 47.468124 247.54361 47.468124 246.207853 45.990952 C 249.091489 45.217781 248.879366 42.546269 247.262317 41.491805 C 245.634508 40.429656 242.76317 40.858512 242.200584 42.756854 Z M 242.200584 42.756854 " transform="matrix(2.54128,0,0,2.54128,-195.312,36.4288)"/>
<path style="fill-rule:nonzero;fill:rgb(20%,45.098039%,12.941176%);fill-opacity:1;stroke-width:0.18616;stroke-linecap:butt;stroke-linejoin:miter;stroke:rgb(0%,0%,0%);stroke-opacity:1;stroke-miterlimit:4;" d="M 227.94073 53.28612 C 229.251893 57.517808 231.966445 61.451296 234.891583 64.132032 C 238.265559 67.226253 243.362646 66.451545 246.210928 63.498739 C 246.281635 69.387442 240.182347 69.845504 236.788388 67.999424 C 235.294308 67.186288 234.084595 67.613607 235.523339 68.912472 C 237.702974 70.881522 242.472654 72.346396 248.10927 73.553035 C 257.95298 75.663499 254.437589 83.467453 251.555491 83.398283 C 252.380924 83.379837 253.058793 82.514439 251.8706 81.446141 C 243.327292 73.765157 225.960921 76.78867 226.242214 59.632884 C 224.414579 64.132032 216.890381 62.375105 220.405772 57.030542 C 221.530944 57.945128 223.499993 58.015835 224.062579 56.609371 C 224.500658 55.514942 224.214753 53.611989 222.244167 51.976494 C 222.568499 51.950363 223.263277 51.976494 223.192569 51.167969 C 223.280185 51.642939 223.710578 52.34694 224.817304 52.108686 C 225.135488 52.609787 225.467506 52.938731 225.916344 52.758888 C 226.005497 52.723534 226.268345 52.592879 226.162283 52.091778 C 226.251436 53.023272 227.358162 53.356827 227.94073 53.28612 Z M 227.94073 53.28612 " transform="matrix(2.54128,0,0,2.54128,-195.312,36.4288)"/>
<path style="fill-rule:nonzero;fill:rgb(96.862745%,87.843137%,9.019608%);fill-opacity:1;stroke-width:0.18616;stroke-linecap:butt;stroke-linejoin:miter;stroke:rgb(0%,0%,0%);stroke-opacity:1;stroke-miterlimit:4;" d="M 236.789925 67.999424 C 240.867902 70.670936 245.479259 70.669399 249.727856 65.749081 C 251.063613 64.202739 253.17254 62.865446 254.649711 62.725568 C 256.125346 62.58569 256.056175 61.179226 257.181347 60.897933 C 256.477346 60.685811 256.196053 59.84347 255.14159 59.947994 C 257.777749 59.033408 257.004578 56.92448 258.306518 55.905371 C 257.250517 56.292725 255.599651 54.709492 254.087126 56.713895 C 254.47448 55.799309 253.945711 54.709492 253.559894 54.288321 C 253.699772 55.342785 251.484783 55.55337 251.063613 58.224883 C 250.826896 59.725111 250.009149 59.631347 249.867734 57.311834 C 249.764747 55.613318 248.954685 50.912808 247.969392 48.522588 C 246.985636 46.132367 246.759679 42.850618 248.095436 42.357203 C 247.89561 42.0175 247.61278 41.717761 247.266928 41.491805 C 245.637582 40.429656 242.766244 40.858512 242.203658 42.756854 C 240.376024 47.538831 245.508464 50.281052 245.087294 55.482663 C 244.314123 51.615271 238.056511 50.631515 238.125681 46.834831 C 236.087461 47.74788 236.368754 49.435636 237.141925 50.771393 C 235.875339 48.80388 232.993241 52.037979 230.532313 49.366466 C 230.25102 52.881857 233.345241 54.217614 235.875339 54.357492 C 234.61029 56.607834 236.298047 58.506176 237.984266 59.139469 C 238.056511 55.20137 246.12946 56.818419 246.212465 63.569446 C 246.281635 69.33518 240.094731 69.827058 236.789925 67.997886 Z M 236.789925 67.999424 " transform="matrix(2.54128,0,0,2.54128,-195.312,36.4288)"/>
<path style="fill-rule:nonzero;fill:rgb(96.862745%,87.843137%,9.019608%);fill-opacity:1;stroke-width:0.18616;stroke-linecap:butt;stroke-linejoin:miter;stroke:rgb(0%,0%,0%);stroke-opacity:1;stroke-miterlimit:4;" d="M 248.10927 73.553035 C 257.954518 75.661962 254.439126 83.467453 251.555491 83.396745 C 249.720171 83.352169 247.969392 81.81505 247.863331 80.479293 C 245.754403 81.604465 246.318526 83.819453 247.935575 84.697148 C 243.505598 84.169916 241.64261 87.088905 241.536549 90.28765 C 242.345073 88.810479 244.806001 88.705955 245.720587 89.021064 C 246.633635 89.337711 248.988502 89.514479 249.938441 88.460016 C 249.165271 89.127125 250.43032 90.673467 249.340502 91.869346 C 253.032662 91.729468 254.649711 88.283247 254.016418 86.772259 C 258.798396 82.412989 257.88381 75.311499 248.10927 73.553035 Z M 248.10927 73.553035 " transform="matrix(2.54128,0,0,2.54128,-195.312,36.4288)"/>
<path style="fill-rule:nonzero;fill:rgb(96.862745%,87.843137%,9.019608%);fill-opacity:1;stroke-width:0.18616;stroke-linecap:butt;stroke-linejoin:miter;stroke:rgb(0%,0%,0%);stroke-opacity:1;stroke-miterlimit:4;" d="M 240.609666 106.959244 C 241.250644 107.360432 241.170714 108.201236 240.737247 108.733079 C 239.870311 109.79984 241.176863 112.345309 238.496127 112.772628 C 237.704511 112.898672 237.118868 112.394497 236.856021 111.490671 C 236.128964 108.986704 238.769734 108.814547 239.04949 107.646336 C 239.33232 106.478126 240.073211 106.624152 240.609666 106.959244 Z M 240.609666 106.959244 " transform="matrix(2.54128,0,0,2.54128,-195.312,36.4288)"/>
<path style="fill-rule:nonzero;fill:rgb(96.862745%,87.843137%,9.019608%);fill-opacity:1;stroke-width:0.18616;stroke-linecap:butt;stroke-linejoin:miter;stroke:rgb(0%,0%,0%);stroke-opacity:1;stroke-miterlimit:4;" d="M 238.199463 111.499894 C 239.064861 111.941047 239.810364 112.545135 239.347691 115.356526 C 239.155551 116.520125 239.112512 119.356109 240.131622 119.43604 C 239.490643 119.725018 238.14259 120.006311 237.621506 119.259271 C 237.057383 120.121595 235.870728 119.820319 235.443408 118.701297 C 234.794744 119.188563 233.966237 118.290886 233.995442 117.545383 C 233.43132 117.877401 232.352262 117.324038 232.693502 115.647041 C 232.01717 115.857626 231.171754 115.351914 230.875091 114.907687 C 231.863458 114.749364 234.387408 113.51352 235.017626 112.475964 C 235.647845 111.439946 237.197261 110.98957 238.199463 111.499894 Z M 238.199463 111.499894 " transform="matrix(2.54128,0,0,2.54128,-195.312,36.4288)"/>
<path style="fill:none;stroke-width:0.18616;stroke-linecap:butt;stroke-linejoin:miter;stroke:rgb(0%,0%,0%);stroke-opacity:1;stroke-miterlimit:4;" d="M 237.619969 119.259271 C 237.910485 118.878065 238.073419 117.233348 237.916633 116.226535 " transform="matrix(2.54128,0,0,2.54128,-195.312,36.4288)"/>
<path style="fill:none;stroke-width:0.18616;stroke-linecap:butt;stroke-linejoin:miter;stroke:rgb(0%,0%,0%);stroke-opacity:1;stroke-miterlimit:4;" d="M 235.440334 118.710519 C 235.884562 118.393873 236.753034 117.288684 236.929803 116.292631 " transform="matrix(2.54128,0,0,2.54128,-195.312,36.4288)"/>
<path style="fill:none;stroke-width:0.18616;stroke-linecap:butt;stroke-linejoin:miter;stroke:rgb(0%,0%,0%);stroke-opacity:1;stroke-miterlimit:4;" d="M 233.989294 117.549994 C 234.548805 117.316352 235.950658 115.64243 236.288824 114.535704 " transform="matrix(2.54128,0,0,2.54128,-195.312,36.4288)"/>
<path style="fill:none;stroke-width:0.18616;stroke-linecap:butt;stroke-linejoin:miter;stroke:rgb(0%,0%,0%);stroke-opacity:1;stroke-miterlimit:4;" d="M 232.690428 115.650115 C 233.343704 115.537906 235.374238 114.320507 236.25347 112.980139 " transform="matrix(2.54128,0,0,2.54128,-195.312,36.4288)"/>
<path style="fill-rule:nonzero;fill:rgb(96.862745%,87.843137%,9.019608%);fill-opacity:1;stroke-width:0.18616;stroke-linecap:butt;stroke-linejoin:miter;stroke:rgb(0%,0%,0%);stroke-opacity:1;stroke-miterlimit:4;" d="M 226.240676 59.631347 C 226.122318 66.838899 229.118163 70.484945 233.266848 72.858257 C 231.725117 71.935986 232.393764 68.772594 230.318653 67.751947 C 230.810532 67.718131 231.583702 68.420594 232.814935 68.139301 C 232.216995 66.803545 231.231702 64.763788 228.947543 64.482495 C 229.545482 64.413325 230.845885 64.62391 231.689764 64.307263 C 230.493885 62.479629 227.330494 63.358861 226.240676 59.631347 Z M 226.240676 59.631347 " transform="matrix(2.54128,0,0,2.54128,-195.312,36.4288)"/>
<path style="fill-rule:nonzero;fill:rgb(96.862745%,87.843137%,9.019608%);fill-opacity:1;stroke-width:0.18616;stroke-linecap:butt;stroke-linejoin:miter;stroke:rgb(0%,0%,0%);stroke-opacity:1;stroke-miterlimit:4;" d="M 225.490562 52.777333 C 225.236938 52.694329 225.021741 52.439167 224.812693 52.108686 C 223.70443 52.345403 223.274037 51.641402 223.186421 51.167969 C 223.257128 51.976494 222.557739 51.945752 222.233407 51.971883 C 224.211679 53.608915 224.494509 55.511868 224.05643 56.607834 C 223.493845 58.014298 221.524795 57.94359 220.399624 57.030542 C 220.259746 60.018701 224.127138 61.002457 225.533602 57.241127 C 225.533602 57.872883 226.342126 57.803713 226.552712 58.647591 C 227.55645 57.030542 226.798651 54.709492 225.490562 52.777333 Z M 225.490562 52.777333 " transform="matrix(2.54128,0,0,2.54128,-195.312,36.4288)"/>
<path style="fill-rule:nonzero;fill:rgb(20%,45.098039%,12.941176%);fill-opacity:1;stroke-width:0.18616;stroke-linecap:butt;stroke-linejoin:miter;stroke:rgb(0%,0%,0%);stroke-opacity:1;stroke-miterlimit:4;" d="M 219.320566 38.503645 C 217.562102 36.886596 216.753577 34.178192 216.822748 32.63185 C 216.893455 31.085509 217.526748 29.397752 219.777091 30.100215 C 219.07309 30.100215 219.566505 31.506679 218.827151 31.648094 C 219.42509 31.858679 220.233615 31.366801 220.339676 31.050155 C 220.479554 31.542033 221.39414 31.402155 221.46331 31.964741 C 221.815311 31.683448 221.429494 30.312338 220.902262 30.031045 C 221.288079 29.818922 221.498664 28.729105 221.323432 28.201873 C 220.971432 28.272581 220.445737 28.764459 220.339676 29.468459 C 220.514908 28.905874 220.304323 27.49941 219.320566 27.288824 C 219.037736 27.674641 218.968566 28.624581 219.354383 29.151813 C 218.441334 28.941227 217.105578 29.53763 216.787394 30.312338 C 216.859639 29.379306 216.98722 28.052773 217.562102 27.218117 C 217.754242 26.936824 217.279272 26.444946 216.910364 27.112056 C 216.226346 25.776299 214.398711 25.073836 213.588649 25.740946 C 212.780125 26.409592 211.690307 25.424299 211.023197 26.4803 C 210.354551 27.534763 208.091911 27.645436 208.21027 28.764459 C 208.27944 29.433106 208.11958 30.464512 207.787562 30.83957 C 206.980574 31.752618 208.174916 32.421265 208.385501 33.22979 C 208.245623 30.558277 212.498832 25.355129 216.753577 27.393349 C 216.366223 28.061995 216.028057 29.396215 215.909699 31.014801 C 215.734467 33.405021 216.084931 36.780535 218.404443 38.749584 Z M 219.320566 38.503645 " transform="matrix(2.54128,0,0,2.54128,-195.312,36.4288)"/>
<path style="fill-rule:nonzero;fill:rgb(81.176471%,7.843137%,16.862745%);fill-opacity:1;stroke-width:0.18616;stroke-linecap:butt;stroke-linejoin:miter;stroke:rgb(0%,0%,0%);stroke-opacity:1;stroke-miterlimit:4;" d="M 220.579467 30.135569 C 220.55641 29.502276 221.652376 28.679917 223.129547 28.695288 C 224.903383 28.712197 226.274493 30.329246 227.699402 30.170923 C 229.122775 30.012599 228.420311 30.804216 228.120573 31.014801 C 227.822372 31.225386 227.64714 31.542033 227.751665 31.929387 C 227.857726 32.315204 227.674809 32.568829 227.101463 32.21068 C 225.836414 31.419063 224.569828 32.527326 222.900517 31.910942 C 221.45255 31.377561 220.614821 31.085509 220.579467 30.135569 Z M 220.579467 30.135569 " transform="matrix(2.54128,0,0,2.54128,-195.312,36.4288)"/>
<path style="fill-rule:nonzero;fill:rgb(58.823529%,52.941176%,49.019608%);fill-opacity:1;stroke-width:0.18616;stroke-linecap:butt;stroke-linejoin:miter;stroke:rgb(0%,0%,0%);stroke-opacity:1;stroke-miterlimit:4;" d="M 213.339636 46.72877 C 212.637173 44.513781 209.96566 42.088207 208.66372 41.525621 L 208.594549 40.329743 C 209.297013 40.049987 210.983232 38.712694 211.75794 37.974876 C 217.030259 40.506511 224.202457 36.920413 227.507263 33.194436 L 228.773849 33.967607 L 228.140556 34.811485 L 227.473446 34.459485 C 226.663384 35.443241 223.644482 38.283837 222.731434 38.881777 C 223.959592 39.192275 225.639663 39.407471 226.102336 39.38134 C 229.055142 37.272413 231.374654 35.374071 232.499825 35.232656 L 233.449765 36.499242 L 232.605887 37.095644 L 231.93724 36.709827 C 228.773849 39.310633 225.18775 45.005659 223.781286 48.80388 C 221.812236 48.381173 214.781454 48.662465 213.339636 46.72877 Z M 213.339636 46.72877 " transform="matrix(2.54128,0,0,2.54128,-195.312,36.4288)"/>
<path style="fill:none;stroke-width:0.18616;stroke-linecap:butt;stroke-linejoin:miter;stroke:rgb(0%,0%,0%);stroke-opacity:1;stroke-miterlimit:4;" d="M 222.729896 38.881777 C 222.274909 38.766493 221.882944 38.635838 221.635468 38.502108 C 221.072882 39.02934 219.666418 39.485864 217.874137 39.556572 " transform="matrix(2.54128,0,0,2.54128,-195.312,36.4288)"/>
<path style="fill:none;stroke-width:0.18616;stroke-linecap:butt;stroke-linejoin:miter;stroke:rgb(0%,0%,0%);stroke-opacity:1;stroke-miterlimit:4;" d="M 213.619392 45.955599 C 213.145959 43.336348 213.900684 40.435804 215.236441 39.558109 C 218.15543 41.491805 223.147993 41.491805 226.100799 39.38134 " transform="matrix(2.54128,0,0,2.54128,-195.312,36.4288)"/>
<path style="fill:none;stroke-width:0.18616;stroke-linecap:butt;stroke-linejoin:miter;stroke:rgb(0%,0%,0%);stroke-opacity:1;stroke-miterlimit:4;" d="M 213.619392 44.584488 C 215.869734 44.515318 220.756236 44.901135 221.952114 45.076367 C 223.147993 45.253135 225.150859 45.745013 224.869566 46.342953 " transform="matrix(2.54128,0,0,2.54128,-195.312,36.4288)"/>
<path style="fill:none;stroke-width:0.18616;stroke-linecap:butt;stroke-linejoin:miter;stroke:rgb(0%,0%,0%);stroke-opacity:1;stroke-miterlimit:4;" d="M 214.660021 44.212506 L 215.307148 43.565378 L 214.660021 42.919788 L 214.014431 43.565378 Z M 214.660021 44.212506 " transform="matrix(2.54128,0,0,2.54128,-195.312,36.4288)"/>
<path style="fill-rule:nonzero;fill:rgb(20%,45.098039%,12.941176%);fill-opacity:1;stroke-width:0.18616;stroke-linecap:butt;stroke-linejoin:miter;stroke:rgb(0%,0%,0%);stroke-opacity:1;stroke-miterlimit:4;" d="M 216.189455 31.119325 C 215.38093 29.995691 213.153645 29.63908 212.674063 31.154679 C 212.463478 31.823326 212.146832 32.525789 211.6196 32.842436 C 211.092368 33.159082 211.215337 34.116707 211.444368 34.530192 C 212.005417 35.549302 211.513538 36.534596 212.603356 37.201705 C 212.603356 36.393181 213.799235 35.549302 214.818344 35.338717 C 215.837454 35.128132 217.385333 34.213546 217.595919 33.194436 C 217.806504 32.175326 218.158504 31.331448 216.189455 31.119325 Z M 216.189455 31.119325 " transform="matrix(2.54128,0,0,2.54128,-195.312,36.4288)"/>
<path style="fill-rule:nonzero;fill:rgb(58.823529%,52.941176%,49.019608%);fill-opacity:1;stroke-width:0.18616;stroke-linecap:butt;stroke-linejoin:miter;stroke:rgb(0%,0%,0%);stroke-opacity:1;stroke-miterlimit:4;" d="M 211.120036 41.244329 L 211.401329 41.244329 L 211.40594 43.167265 C 211.462814 43.187247 211.527373 43.214915 211.573486 43.256418 L 213.2305 42.300329 L 213.370378 42.544731 L 211.708753 43.510042 C 211.719512 43.56999 211.728735 43.637623 211.714901 43.699108 L 213.370378 44.656733 L 213.2305 44.899598 L 211.562726 43.941973 C 211.516613 43.981938 211.461276 44.02344 211.401329 44.043423 L 211.401329 45.955599 L 211.120036 45.955599 L 211.115425 44.032663 C 211.058551 44.01268 210.993992 43.986549 210.947879 43.945047 L 209.290864 44.899598 L 209.150986 44.656733 L 210.812612 43.691422 C 210.801852 43.631475 210.79263 43.562304 210.806464 43.502357 L 209.150986 42.544731 L 209.290864 42.300329 L 210.958638 43.257955 C 211.004752 43.21799 211.060088 43.176487 211.118499 43.158042 Z M 211.120036 41.244329 " transform="matrix(2.54128,0,0,2.54128,-195.312,36.4288)"/>
<path style="fill-rule:nonzero;fill:rgb(58.823529%,52.941176%,49.019608%);fill-opacity:1;stroke-width:0.18616;stroke-linecap:butt;stroke-linejoin:miter;stroke:rgb(0%,0%,0%);stroke-opacity:1;stroke-miterlimit:4;" d="M 213.630151 45.946376 C 213.026064 46.555075 212.189871 46.931669 211.266062 46.931669 C 209.426131 46.931669 207.933588 45.440664 207.933588 43.600732 C 207.933588 41.760801 209.426131 40.269795 211.266062 40.269795 C 212.346657 40.269795 213.307356 40.78473 213.916056 41.582495 C 213.743898 42.000591 213.54561 42.941308 213.530239 43.36709 C 213.413418 42.220399 212.443496 41.324259 211.266062 41.324259 C 210.008699 41.324259 208.989589 42.343369 208.989589 43.600732 C 208.989589 44.858096 210.008699 45.877206 211.266062 45.877206 C 212.317452 45.877206 213.227426 45.140926 213.488736 44.171003 C 213.488736 44.5891 213.497959 45.595913 213.630151 45.946376 Z M 213.630151 45.946376 " transform="matrix(2.54128,0,0,2.54128,-195.312,36.4288)"/>
<path style="fill-rule:nonzero;fill:rgb(20%,45.098039%,12.941176%);fill-opacity:1;stroke-width:0.18616;stroke-linecap:butt;stroke-linejoin:miter;stroke:rgb(0%,0%,0%);stroke-opacity:1;stroke-miterlimit:4;" d="M 209.859598 49.120527 C 209.65055 48.874588 209.263196 48.205941 209.29855 47.714063 C 209.613659 47.678709 210.211599 47.889294 210.492891 48.170587 C 210.457538 47.818587 210.31766 47.045416 210.388367 46.694953 C 210.775721 46.834831 211.582709 47.291355 211.864002 47.818587 C 211.793294 47.468124 211.653416 46.553538 211.793294 45.990952 C 212.216002 46.236891 212.918465 46.905538 213.05988 47.362063 C 213.095234 46.659599 213.341173 45.499074 213.551758 45.217781 C 213.868405 45.534428 214.360283 45.815721 214.67693 46.236891 C 214.747637 45.674306 215.027393 45.007196 215.4501 44.830427 C 215.766747 45.182428 216.258625 45.990952 216.364686 46.905538 C 216.681333 46.799477 217.102503 46.272245 217.277735 45.990952 C 217.454504 46.272245 217.629735 46.764123 217.525211 47.362063 C 217.911028 47.010062 218.367552 46.518184 218.473614 46.097014 C 218.754906 46.307599 219.282138 46.834831 219.423553 47.397416 C 219.352846 46.940892 219.3882 46.132367 219.246785 45.674306 C 219.775554 45.955599 220.196724 46.447477 220.301248 46.976246 C 220.442663 46.482831 220.75931 45.605136 221.040603 45.393013 C 221.320358 45.955599 221.603188 46.624245 221.567834 47.186831 C 221.743066 46.834831 222.024359 46.201538 222.305652 46.06166 C 222.551591 46.447477 222.516237 47.291355 222.445529 47.749417 C 222.693006 47.397416 223.14953 46.976246 223.430823 46.834831 C 223.466176 47.045416 223.50153 47.468124 223.430823 47.783233 C 223.747469 47.608002 224.274701 46.659599 224.449933 46.166184 C 224.943348 46.41366 225.435226 47.257539 225.47058 47.678709 C 225.821043 47.537294 226.525043 46.905538 226.735629 46.553538 C 226.735629 46.799477 226.84169 47.468124 226.700275 47.995356 C 226.91086 47.783233 227.121446 47.362063 227.227507 47.186831 C 227.367385 47.537294 227.262861 48.381173 227.121446 48.839234 C 227.439629 48.557941 227.896154 48.381173 228.177447 48.381173 C 228.211263 48.979112 227.790092 50.033576 227.402738 50.806747 C 224.028762 49.858344 216.962626 49.506344 209.859598 49.120527 Z M 209.859598 49.120527 " transform="matrix(2.54128,0,0,2.54128,-195.312,36.4288)"/>
<path style=" stroke:none;fill-rule:nonzero;fill:rgb(96.862745%,87.843137%,9.019608%);fill-opacity:1;" d="M 367.910156 113.925781 C 367.867188 113.265625 369.339844 111.777344 371.96875 111.792969 C 375.125 111.808594 378.042969 114.125 380.574219 113.960938 C 383.109375 113.796875 381.859375 114.621094 381.328125 114.839844 C 380.792969 115.058594 380.480469 115.386719 380.667969 115.789062 C 380.855469 116.191406 380.53125 116.453125 379.511719 116.082031 C 377.261719 115.257812 375.007812 116.410156 372.039062 115.769531 C 369.460938 115.214844 367.972656 114.910156 367.910156 113.925781 Z M 367.910156 113.925781 "/>
<path style="fill-rule:nonzero;fill:rgb(96.862745%,87.843137%,9.019608%);fill-opacity:1;stroke-width:0.18616;stroke-linecap:butt;stroke-linejoin:miter;stroke:rgb(0%,0%,0%);stroke-opacity:1;stroke-miterlimit:4;" d="M 210.949416 51.229454 C 209.896489 52.494503 208.840488 52.283918 208.629903 51.475393 C 208.419318 50.666869 209.192489 50.279515 208.911196 49.577051 C 208.629903 48.873051 209.36772 48.556404 209.71972 48.873051 C 210.071721 49.189697 211.195355 48.170587 211.68877 49.225051 C 212.180648 50.279515 212.568002 51.017332 212.286709 51.44004 C 212.005417 51.86121 211.161538 51.650625 210.949416 51.229454 Z M 210.949416 51.229454 " transform="matrix(2.54128,0,0,2.54128,-195.312,36.4288)"/>
<path style="fill-rule:nonzero;fill:rgb(96.862745%,87.843137%,9.019608%);fill-opacity:1;stroke-width:0.18616;stroke-linecap:butt;stroke-linejoin:miter;stroke:rgb(0%,0%,0%);stroke-opacity:1;stroke-miterlimit:4;" d="M 215.479306 49.331112 C 215.282554 48.868439 216.376983 47.97691 216.939569 48.610203 C 217.502154 49.243496 218.381387 47.924648 218.873265 48.92685 C 219.365143 49.929052 219.523466 50.456283 219.769405 51.018869 C 220.015344 51.581455 218.433649 51.879656 217.940233 51.387778 C 218.012478 51.721332 216.575272 51.982643 216.183306 51.035777 C 215.972721 50.526991 215.74369 49.94596 215.479306 49.331112 Z M 215.479306 49.331112 " transform="matrix(2.54128,0,0,2.54128,-195.312,36.4288)"/>
<path style="fill-rule:nonzero;fill:rgb(96.862745%,87.843137%,9.019608%);fill-opacity:1;stroke-width:0.18616;stroke-linecap:butt;stroke-linejoin:miter;stroke:rgb(0%,0%,0%);stroke-opacity:1;stroke-miterlimit:4;" d="M 222.800604 49.910606 C 222.536219 49.418728 223.819714 48.716265 224.486824 49.612405 C 224.663592 49.243496 225.928641 49.172789 226.016257 50.245698 C 226.10541 51.31707 226.140764 51.950363 226.17458 52.371534 C 226.209934 52.794241 225.401409 53.180058 224.820378 52.108686 C 223.78436 52.319272 223.30939 51.739778 223.186421 51.123393 C 223.063451 50.508545 222.940482 50.210344 222.800604 49.910606 Z M 222.800604 49.910606 " transform="matrix(2.54128,0,0,2.54128,-195.312,36.4288)"/>
<path style="fill-rule:nonzero;fill:rgb(20%,45.098039%,12.941176%);fill-opacity:1;stroke-width:0.18616;stroke-linecap:butt;stroke-linejoin:miter;stroke:rgb(0%,0%,0%);stroke-opacity:1;stroke-miterlimit:4;" d="M 211.63036 49.208143 C 211.472036 48.856142 212.5265 48.153679 213.247409 48.680911 C 213.968318 49.208143 214.965908 48.225924 215.39169 49.172789 C 216.252477 51.089576 216.306276 51.229454 216.041891 51.598363 C 215.777507 51.967271 214.652336 51.827394 214.37258 51.31707 C 214.318781 51.66907 213.348859 51.61066 212.843146 51.335515 C 212.263653 51.018869 211.857853 49.841436 211.63036 49.208143 Z M 211.63036 49.208143 " transform="matrix(2.54128,0,0,2.54128,-195.312,36.4288)"/>
<path style="fill-rule:nonzero;fill:rgb(20%,45.098039%,12.941176%);fill-opacity:1;stroke-width:0.18616;stroke-linecap:butt;stroke-linejoin:miter;stroke:rgb(0%,0%,0%);stroke-opacity:1;stroke-miterlimit:4;" d="M 219.030051 49.295758 C 218.784112 48.751618 220.436515 48.276648 221.157424 49.225051 C 221.526332 48.891496 222.334857 48.874588 222.791381 49.910606 C 223.249443 50.948161 223.318613 51.527655 222.985058 51.79204 C 222.749879 51.978031 221.895241 52.125595 221.613948 51.652162 C 221.226594 51.898101 220.032252 51.685979 219.769405 51.018869 C 219.505021 50.350222 219.27599 49.770728 219.030051 49.295758 Z M 219.030051 49.295758 " transform="matrix(2.54128,0,0,2.54128,-195.312,36.4288)"/>
<path style="fill-rule:nonzero;fill:rgb(20%,45.098039%,12.941176%);fill-opacity:1;stroke-width:0.18616;stroke-linecap:butt;stroke-linejoin:miter;stroke:rgb(0%,0%,0%);stroke-opacity:1;stroke-miterlimit:4;" d="M 226.030091 50.333314 C 225.994737 49.841436 226.892415 49.612405 227.22597 50.333314 C 227.559525 51.054223 228.627822 50.404021 228.72005 51.598363 C 228.736958 51.827394 228.59708 52.706626 228.263525 53.127796 C 227.928433 53.550504 226.294476 53.127796 226.188414 52.231656 C 226.082353 51.335515 226.048537 50.825192 226.030091 50.333314 Z M 226.030091 50.333314 " transform="matrix(2.54128,0,0,2.54128,-195.312,36.4288)"/>
<path style="fill:none;stroke-width:0.18616;stroke-linecap:butt;stroke-linejoin:miter;stroke:rgb(0%,0%,0%);stroke-opacity:1;stroke-miterlimit:4;" d="M 210.949416 51.229454 C 210.563599 50.702222 210.036367 49.858344 209.36772 50.771393 " transform="matrix(2.54128,0,0,2.54128,-195.312,36.4288)"/>
<path style="fill:none;stroke-width:0.18616;stroke-linecap:butt;stroke-linejoin:miter;stroke:rgb(0%,0%,0%);stroke-opacity:1;stroke-miterlimit:4;" d="M 214.380266 51.31707 C 214.151235 51.018869 213.853034 50.525454 213.746972 50.139637 " transform="matrix(2.54128,0,0,2.54128,-195.312,36.4288)"/>
<path style="fill:none;stroke-width:0.18616;stroke-linecap:butt;stroke-linejoin:miter;stroke:rgb(0%,0%,0%);stroke-opacity:1;stroke-miterlimit:4;" d="M 217.940233 51.38624 C 217.694294 51.211009 217.325386 50.859009 217.131709 50.4901 " transform="matrix(2.54128,0,0,2.54128,-195.312,36.4288)"/>
<path style="fill:none;stroke-width:0.18616;stroke-linecap:butt;stroke-linejoin:miter;stroke:rgb(0%,0%,0%);stroke-opacity:1;stroke-miterlimit:4;" d="M 217.629735 49.541697 C 218.244583 49.612405 218.667291 50.191899 218.859431 50.456283 C 219.054645 50.719131 219.45737 51.194101 219.775554 51.246363 " transform="matrix(2.54128,0,0,2.54128,-195.312,36.4288)"/>
<path style="fill:none;stroke-width:0.18616;stroke-linecap:butt;stroke-linejoin:miter;stroke:rgb(0%,0%,0%);stroke-opacity:1;stroke-miterlimit:4;" d="M 221.620096 51.650625 C 221.409511 51.31707 221.197389 51.017332 221.146664 50.771393 " transform="matrix(2.54128,0,0,2.54128,-195.312,36.4288)"/>
<path style="fill:none;stroke-width:0.18616;stroke-linecap:butt;stroke-linejoin:miter;stroke:rgb(0%,0%,0%);stroke-opacity:1;stroke-miterlimit:4;" d="M 221.160498 49.225051 C 221.371083 49.523252 221.529406 49.769191 221.652376 50.050484 " transform="matrix(2.54128,0,0,2.54128,-195.312,36.4288)"/>
<path style="fill:none;stroke-width:0.18616;stroke-linecap:butt;stroke-linejoin:miter;stroke:rgb(0%,0%,0%);stroke-opacity:1;stroke-miterlimit:4;" d="M 224.820378 52.108686 C 224.539086 51.579917 224.09947 51.071131 223.730561 50.894362 " transform="matrix(2.54128,0,0,2.54128,-195.312,36.4288)"/>
<path style="fill:none;stroke-width:0.18616;stroke-linecap:butt;stroke-linejoin:miter;stroke:rgb(0%,0%,0%);stroke-opacity:1;stroke-miterlimit:4;" d="M 224.680501 50.173453 C 224.714317 51.211009 226.103873 51.281716 226.156135 52.019533 " transform="matrix(2.54128,0,0,2.54128,-195.312,36.4288)"/>
<path style="fill:none;stroke-width:0.18616;stroke-linecap:butt;stroke-linejoin:miter;stroke:rgb(0%,0%,0%);stroke-opacity:1;stroke-miterlimit:4;" d="M 227.219821 50.333314 C 227.359699 50.596161 227.413498 50.860546 227.430407 51.300162 " transform="matrix(2.54128,0,0,2.54128,-195.312,36.4288)"/>
</g>
</svg>
