<?xml version="1.0" encoding="UTF-8"?>
<svg xmlns="http://www.w3.org/2000/svg" xmlns:xlink="http://www.w3.org/1999/xlink" width="480pt" height="360pt" viewBox="0 0 480 360" version="1.1">
<defs>
<clipPath id="clip1">
  <path d="M 0.00390625 0 L 480 0 L 480 120 L 0.00390625 120 Z M 0.00390625 0 "/>
</clipPath>
<clipPath id="clip2">
  <path d="M 0.00390625 120 L 480 120 L 480 240 L 0.00390625 240 Z M 0.00390625 120 "/>
</clipPath>
<clipPath id="clip3">
  <path d="M 0.00390625 240 L 480 240 L 480 360 L 0.00390625 360 Z M 0.00390625 240 "/>
</clipPath>
<clipPath id="clip4">
  <path d="M 0.00390625 0 L 271 0 L 271 360 L 0.00390625 360 Z M 0.00390625 0 "/>
</clipPath>
</defs>
<g id="surface1">
<g clip-path="url(#clip1)" clip-rule="nonzero">
<path style=" stroke:none;fill-rule:evenodd;fill:rgb(0%,0%,0%);fill-opacity:1;" d="M -89.996094 0 L 630.003906 0 L 630.003906 120 L -89.996094 120 Z M -89.996094 0 "/>
</g>
<g clip-path="url(#clip2)" clip-rule="nonzero">
<path style=" stroke:none;fill-rule:evenodd;fill:rgb(100%,100%,100%);fill-opacity:1;" d="M -89.996094 120 L 630.003906 120 L 630.003906 240 L -89.996094 240 Z M -89.996094 120 "/>
</g>
<g clip-path="url(#clip3)" clip-rule="nonzero">
<path style=" stroke:none;fill-rule:evenodd;fill:rgb(0%,60%,0%);fill-opacity:1;" d="M -89.996094 240 L 630.003906 240 L 630.003906 360 L -89.996094 360 Z M -89.996094 240 "/>
</g>
<g clip-path="url(#clip4)" clip-rule="nonzero">
<path style=" stroke:none;fill-rule:evenodd;fill:rgb(100%,0%,0%);fill-opacity:1;" d="M -89.996094 360 L 270.003906 180 L -89.996094 0 Z M -89.996094 360 "/>
</g>
</g>
</svg>
