<?xml version="1.0" encoding="UTF-8"?>
<svg xmlns="http://www.w3.org/2000/svg" xmlns:xlink="http://www.w3.org/1999/xlink" width="540pt" height="360pt" viewBox="0 0 540 360" version="1.1">
<g id="surface1">
<rect x="0" y="0" width="540" height="360" style="fill:rgb(0%,27.45098%,7.843137%);fill-opacity:1;stroke:none;"/>
<path style="fill-rule:nonzero;fill:rgb(100%,100%,100%);fill-opacity:1;stroke-width:5.139236;stroke-linecap:round;stroke-linejoin:miter;stroke:rgb(100%,100%,100%);stroke-opacity:1;stroke-miterlimit:4;" d="M 396.621769 78.114011 C 308.522131 78.114011 237.109681 149.522345 237.109681 237.62547 C 237.109681 325.728595 308.522131 397.136928 396.621769 397.136928 C 484.721407 397.136928 556.133857 325.728595 556.133857 237.62547 C 556.133857 149.522345 484.721407 78.114011 396.621769 78.114011 Z M 396.621769 90.758282 C 477.728735 90.758282 543.485094 156.517657 543.485094 237.62547 C 543.485094 318.733282 477.728735 384.492657 396.621769 384.492657 C 315.514803 384.492657 249.752708 318.733282 249.752708 237.62547 C 249.752708 156.517657 315.514803 90.758282 396.621769 90.758282 Z M 396.621769 90.758282 " transform="matrix(0.680958,0,0,0.681818,-0.664951,-0.665803)"/>
<path style="fill:none;stroke-width:11.239209;stroke-linecap:butt;stroke-linejoin:round;stroke:rgb(100%,100%,100%);stroke-opacity:1;stroke-miterlimit:4;" d="M 234.878222 232.492136 C 277.648823 232.492136 296.498635 217.785366 326.012416 217.785366 C 358.377187 217.785366 369.769679 230.698907 394.545192 230.698907 C 424.695713 230.698907 425.734001 218.140574 458.052882 218.140574 C 487.61829 218.140574 510.902339 234.199428 554.573556 233.214011 " transform="matrix(0.680958,0,0,0.681818,-0.664951,-0.665803)"/>
<path style="fill:none;stroke-width:11.239209;stroke-linecap:butt;stroke-linejoin:round;stroke:rgb(100%,100%,100%);stroke-opacity:1;stroke-miterlimit:4;" d="M 235.738682 255.082241 C 278.509284 255.082241 297.364832 240.369741 326.878612 240.369741 C 359.243384 240.369741 370.630139 253.289011 395.411389 253.289011 C 425.561909 253.289011 426.594462 240.730678 458.919078 240.730678 C 488.484486 240.730678 511.762799 256.789532 555.439752 255.798386 " transform="matrix(0.680958,0,0,0.681818,-0.664951,-0.665803)"/>
<path style="fill:none;stroke-width:11.239209;stroke-linecap:butt;stroke-linejoin:round;stroke:rgb(100%,100%,100%);stroke-opacity:1;stroke-miterlimit:4;" d="M 243.253366 277.43172 C 279.673773 275.541095 297.84669 262.954116 325.146219 262.954116 C 357.510991 262.954116 368.903482 275.873386 393.678996 275.873386 C 423.835253 275.873386 424.867805 263.315053 457.186685 263.315053 C 485.794114 263.315053 508.521733 278.348386 549.525523 278.428595 " transform="matrix(0.680958,0,0,0.681818,-0.664951,-0.665803)"/>
<path style="fill:none;stroke-width:11.239209;stroke-linecap:butt;stroke-linejoin:round;stroke:rgb(100%,100%,100%);stroke-opacity:1;stroke-miterlimit:4;" d="M 249.333951 299.700991 C 282.616546 297.02547 300.364969 285.54422 326.442646 285.54422 C 358.813154 285.54422 370.199909 298.457761 394.975422 298.457761 C 425.131679 298.457761 426.164231 285.899428 458.488848 285.899428 C 484.904972 285.899428 506.301746 298.721303 541.718282 300.749428 " transform="matrix(0.680958,0,0,0.681818,-0.664951,-0.665803)"/>
<path style="fill:none;stroke-width:11.239209;stroke-linecap:butt;stroke-linejoin:round;stroke:rgb(100%,100%,100%);stroke-opacity:1;stroke-miterlimit:4;" d="M 261.173881 321.036407 C 287.704734 317.106199 304.254249 308.128595 327.308842 308.128595 C 359.673614 308.128595 371.066105 321.047866 395.841619 321.047866 C 425.992139 321.047866 427.030428 308.489532 459.349308 308.489532 C 482.633358 308.489532 502.016655 318.446824 530.538038 322.199428 " transform="matrix(0.680958,0,0,0.681818,-0.664951,-0.665803)"/>
<path style=" stroke:none;fill-rule:nonzero;fill:rgb(100%,100%,100%);fill-opacity:1;" d="M 266.726562 76.828125 C 274.851562 80.386719 280.5625 88.492188 280.5625 97.941406 C 280.5625 110.667969 270.242188 121.003906 257.527344 121.003906 C 251.171875 121.003906 245.429688 118.394531 241.265625 114.222656 C 245.546875 122.425781 254.121094 128.039062 264.003906 128.039062 C 278.164062 128.039062 289.652344 116.539062 289.652344 102.359375 C 289.652344 89.105469 279.605469 78.195312 266.726562 76.828125 Z M 266.726562 76.828125 "/>
<path style=" stroke:none;fill-rule:nonzero;fill:rgb(100%,100%,100%);fill-opacity:1;" d="M 254.816406 105.527344 L 249.925781 99.296875 L 242.21875 101.085938 L 246.621094 94.503906 L 242.539062 87.714844 L 250.152344 89.875 L 255.339844 83.890625 L 255.640625 91.808594 L 262.925781 94.898438 L 255.5 97.632812 Z M 254.816406 105.527344 "/>
<path style="fill:none;stroke-width:1.729109;stroke-linecap:butt;stroke-linejoin:miter;stroke:rgb(100%,100%,100%);stroke-opacity:1;stroke-miterlimit:4;" d="M 220.084045 334.820782 Z M 220.084045 334.820782 " transform="matrix(0.680958,0,0,0.681818,-0.664951,-0.665803)"/>
<path style="fill-rule:nonzero;fill:rgb(0%,27.45098%,7.843137%);fill-opacity:1;stroke-width:1.729109;stroke-linecap:round;stroke-linejoin:miter;stroke:rgb(100%,100%,100%);stroke-opacity:1;stroke-miterlimit:4;" d="M 227.409428 237.96922 L 224.661692 261.802553 " transform="matrix(0.680958,0,0,0.681818,-0.664951,-0.665803)"/>
<path style="fill-rule:nonzero;fill:rgb(0%,27.45098%,7.843137%);fill-opacity:1;stroke-width:1.729109;stroke-linecap:round;stroke-linejoin:miter;stroke:rgb(100%,100%,100%);stroke-opacity:1;stroke-miterlimit:4;" d="M 233.054046 260.628074 L 229.594997 282.673907 " transform="matrix(0.680958,0,0,0.681818,-0.664951,-0.665803)"/>
<path style="fill-rule:nonzero;fill:rgb(0%,27.45098%,7.843137%);fill-opacity:1;stroke-width:1.729109;stroke-linecap:round;stroke-linejoin:miter;stroke:rgb(100%,100%,100%);stroke-opacity:1;stroke-miterlimit:4;" d="M 202.794534 242.907761 L 201.498107 266.248386 " transform="matrix(0.680958,0,0,0.681818,-0.664951,-0.665803)"/>
<path style="fill-rule:nonzero;fill:rgb(0%,27.45098%,7.843137%);fill-opacity:1;stroke-width:1.729109;stroke-linecap:round;stroke-linejoin:miter;stroke:rgb(100%,100%,100%);stroke-opacity:1;stroke-miterlimit:4;" d="M 190.690729 254.698386 L 192.342812 279.270782 " transform="matrix(0.680958,0,0,0.681818,-0.664951,-0.665803)"/>
<path style="fill-rule:nonzero;fill:rgb(0%,27.45098%,7.843137%);fill-opacity:1;stroke-width:1.729109;stroke-linecap:round;stroke-linejoin:miter;stroke:rgb(100%,100%,100%);stroke-opacity:1;stroke-miterlimit:4;" d="M 213.728113 259.109845 L 218.254133 222.202553 " transform="matrix(0.680958,0,0,0.681818,-0.664951,-0.665803)"/>
<path style="fill-rule:nonzero;fill:rgb(0%,27.45098%,7.843137%);fill-opacity:1;stroke-width:1.729109;stroke-linecap:round;stroke-linejoin:miter;stroke:rgb(100%,100%,100%);stroke-opacity:1;stroke-miterlimit:4;" d="M 235.669845 274.26922 L 231.017624 297.718699 " transform="matrix(0.680958,0,0,0.681818,-0.664951,-0.665803)"/>
<path style="fill-rule:nonzero;fill:rgb(0%,27.45098%,7.843137%);fill-opacity:1;stroke-width:1.729109;stroke-linecap:round;stroke-linejoin:miter;stroke:rgb(100%,100%,100%);stroke-opacity:1;stroke-miterlimit:4;" d="M 191.120959 299.786928 L 185.499286 285.085886 " transform="matrix(0.680958,0,0,0.681818,-0.664951,-0.665803)"/>
<path style="fill-rule:nonzero;fill:rgb(0%,27.45098%,7.843137%);fill-opacity:1;stroke-width:1.729109;stroke-linecap:butt;stroke-linejoin:miter;stroke:rgb(100%,100%,100%);stroke-opacity:1;stroke-miterlimit:4;" d="M 225.057504 259.550991 C 229.617942 273.896824 220.198773 290.167657 214.898339 294.997345 C 215.116322 283.980157 215.145004 263.567136 225.057504 259.550991 Z M 225.057504 259.550991 " transform="matrix(0.680958,0,0,0.681818,-0.664951,-0.665803)"/>
<path style="fill-rule:nonzero;fill:rgb(0%,27.45098%,7.843137%);fill-opacity:1;stroke-width:1.729109;stroke-linecap:butt;stroke-linejoin:miter;stroke:rgb(100%,100%,100%);stroke-opacity:1;stroke-miterlimit:4;" d="M 229.81298 279.866616 C 214.932757 283.745261 217.841112 295.667657 215.110586 309.257241 C 222.390078 302.955157 231.837929 299.855678 229.81298 279.866616 Z M 229.81298 279.866616 " transform="matrix(0.680958,0,0,0.681818,-0.664951,-0.665803)"/>
<path style="fill-rule:nonzero;fill:rgb(0%,27.45098%,7.843137%);fill-opacity:1;stroke-width:1.729109;stroke-linecap:butt;stroke-linejoin:miter;stroke:rgb(100%,100%,100%);stroke-opacity:1;stroke-miterlimit:4;" d="M 201.928337 262.78797 C 193.163117 272.773907 202.008647 286.09422 206.253583 294.997345 C 211.209833 283.705157 211.863783 268.923907 201.928337 262.78797 Z M 201.928337 262.78797 " transform="matrix(0.680958,0,0,0.681818,-0.664951,-0.665803)"/>
<path style="fill-rule:nonzero;fill:rgb(0%,27.45098%,7.843137%);fill-opacity:1;stroke-width:1.729109;stroke-linecap:butt;stroke-linejoin:miter;stroke:rgb(100%,100%,100%);stroke-opacity:1;stroke-miterlimit:4;" d="M 192.205139 277.271303 C 192.451804 293.072345 196.323874 306.106199 208.628453 312.717657 C 207.555746 294.298386 203.603366 280.204636 192.205139 277.271303 Z M 192.205139 277.271303 " transform="matrix(0.680958,0,0,0.681818,-0.664951,-0.665803)"/>
<path style="fill-rule:nonzero;fill:rgb(0%,27.45098%,7.843137%);fill-opacity:1;stroke-width:1.729109;stroke-linecap:butt;stroke-linejoin:miter;stroke:rgb(100%,100%,100%);stroke-opacity:1;stroke-miterlimit:4;" d="M 214.032142 255.872866 C 204.148324 266.523386 207.83683 283.384324 213.814159 291.754636 C 216.785615 283.13797 221.936902 264.890574 214.032142 255.872866 Z M 214.032142 255.872866 " transform="matrix(0.680958,0,0,0.681818,-0.664951,-0.665803)"/>
<path style="fill-rule:nonzero;fill:rgb(0%,27.45098%,7.843137%);fill-opacity:1;stroke-width:1.729109;stroke-linecap:butt;stroke-linejoin:miter;stroke:rgb(100%,100%,100%);stroke-opacity:1;stroke-miterlimit:4;" d="M 211.009059 277.918699 C 218.374598 289.657761 219.774279 306.094741 211.439289 317.908282 C 202.490505 307.125991 204.945684 289.634845 211.009059 277.918699 Z M 211.009059 277.918699 " transform="matrix(0.680958,0,0,0.681818,-0.664951,-0.665803)"/>
<path style="fill-rule:nonzero;fill:rgb(0%,27.45098%,7.843137%);fill-opacity:1;stroke-width:1.729109;stroke-linecap:butt;stroke-linejoin:miter;stroke:rgb(100%,100%,100%);stroke-opacity:1;stroke-miterlimit:4;" d="M 210.791076 324.823386 C 208.932482 314.178595 216.785615 302.067136 231.321653 295.644741 C 231.545373 317.163491 222.086049 327.487449 210.791076 324.823386 Z M 210.791076 324.823386 " transform="matrix(0.680958,0,0,0.681818,-0.664951,-0.665803)"/>
<path style="fill-rule:nonzero;fill:rgb(0%,27.45098%,7.843137%);fill-opacity:1;stroke-width:1.729109;stroke-linecap:butt;stroke-linejoin:round;stroke:rgb(100%,100%,100%);stroke-opacity:1;stroke-miterlimit:4;" d="M 214.628728 325.253074 C 198.331614 324.399428 193.226218 312.815053 190.662047 298.234324 C 202.255312 301.76922 209.947825 310.764011 214.628728 325.253074 Z M 214.628728 325.253074 " transform="matrix(0.680958,0,0,0.681818,-0.664951,-0.665803)"/>
<path style="fill-rule:nonzero;fill:rgb(0%,27.45098%,7.843137%);fill-opacity:1;stroke-width:1.729109;stroke-linecap:round;stroke-linejoin:miter;stroke:rgb(100%,100%,100%);stroke-opacity:1;stroke-miterlimit:4;" d="M 158.366112 326.404636 L 175.225393 348.885886 " transform="matrix(0.680958,0,0,0.681818,-0.664951,-0.665803)"/>
<path style="fill-rule:nonzero;fill:rgb(0%,27.45098%,7.843137%);fill-opacity:1;stroke-width:1.729109;stroke-linecap:round;stroke-linejoin:miter;stroke:rgb(100%,100%,100%);stroke-opacity:1;stroke-miterlimit:4;" d="M 162.645467 309.497866 L 173.452845 330.678595 " transform="matrix(0.680958,0,0,0.681818,-0.664951,-0.665803)"/>
<path style="fill-rule:nonzero;fill:rgb(0%,27.45098%,7.843137%);fill-opacity:1;stroke-width:1.729109;stroke-linecap:round;stroke-linejoin:miter;stroke:rgb(100%,100%,100%);stroke-opacity:1;stroke-miterlimit:4;" d="M 181.437915 317.157761 L 160.689354 284.300991 " transform="matrix(0.680958,0,0,0.681818,-0.664951,-0.665803)"/>
<path style="fill-rule:nonzero;fill:rgb(0%,27.45098%,7.843137%);fill-opacity:1;stroke-width:1.729109;stroke-linecap:round;stroke-linejoin:miter;stroke:rgb(100%,100%,100%);stroke-opacity:1;stroke-miterlimit:4;" d="M 176.854531 359.897345 L 194.149778 367.242136 " transform="matrix(0.680958,0,0,0.681818,-0.664951,-0.665803)"/>
<path style="fill-rule:nonzero;fill:rgb(0%,27.45098%,7.843137%);fill-opacity:1;stroke-width:1.729109;stroke-linecap:round;stroke-linejoin:miter;stroke:rgb(100%,100%,100%);stroke-opacity:1;stroke-miterlimit:4;" d="M 190.461273 308.203074 L 179.653894 290.047345 " transform="matrix(0.680958,0,0,0.681818,-0.664951,-0.665803)"/>
<path style="fill-rule:nonzero;fill:rgb(0%,27.45098%,7.843137%);fill-opacity:1;stroke-width:1.729109;stroke-linecap:round;stroke-linejoin:miter;stroke:rgb(100%,100%,100%);stroke-opacity:1;stroke-miterlimit:4;" d="M 206.580558 322.136407 L 201.389116 308.30047 " transform="matrix(0.680958,0,0,0.681818,-0.664951,-0.665803)"/>
<path style="fill-rule:nonzero;fill:rgb(0%,27.45098%,7.843137%);fill-opacity:1;stroke-width:1.729109;stroke-linecap:round;stroke-linejoin:miter;stroke:rgb(100%,100%,100%);stroke-opacity:1;stroke-miterlimit:4;" d="M 219.986526 335.233282 L 211.858047 320.165574 " transform="matrix(0.680958,0,0,0.681818,-0.664951,-0.665803)"/>
<path style="fill-rule:nonzero;fill:rgb(0%,27.45098%,7.843137%);fill-opacity:1;stroke-width:1.729109;stroke-linecap:butt;stroke-linejoin:miter;stroke:rgb(100%,100%,100%);stroke-opacity:1;stroke-miterlimit:4;" d="M 171.886808 327.905678 C 181.575589 324.536928 191.591344 327.424428 193.501565 349.086407 C 180.382417 345.843699 171.77208 338.630678 171.886808 327.905678 Z M 171.886808 327.905678 " transform="matrix(0.680958,0,0,0.681818,-0.664951,-0.665803)"/>
<path style="fill-rule:nonzero;fill:rgb(0%,27.45098%,7.843137%);fill-opacity:1;stroke-width:1.729109;stroke-linecap:butt;stroke-linejoin:miter;stroke:rgb(100%,100%,100%);stroke-opacity:1;stroke-miterlimit:4;" d="M 190.042516 307.372345 C 203.94755 314.476511 208.444888 331.864532 205.324286 343.179636 C 193.518774 338.739532 185.63696 322.016095 190.042516 307.372345 Z M 190.042516 307.372345 " transform="matrix(0.680958,0,0,0.681818,-0.664951,-0.665803)"/>
<path style="fill-rule:nonzero;fill:rgb(0%,27.45098%,7.843137%);fill-opacity:1;stroke-width:1.729109;stroke-linecap:butt;stroke-linejoin:miter;stroke:rgb(100%,100%,100%);stroke-opacity:1;stroke-miterlimit:4;" d="M 206.46583 321.208282 C 198.767581 335.187449 204.630182 347.848907 214.680356 360.109324 C 216.395539 346.31922 219.762806 332.219741 206.46583 321.208282 Z M 206.46583 321.208282 " transform="matrix(0.680958,0,0,0.681818,-0.664951,-0.665803)"/>
<path style="fill-rule:nonzero;fill:rgb(0%,27.45098%,7.843137%);fill-opacity:1;stroke-width:1.729109;stroke-linecap:butt;stroke-linejoin:miter;stroke:rgb(100%,100%,100%);stroke-opacity:1;stroke-miterlimit:4;" d="M 178.150957 312.345261 C 175.196711 321.723907 185.229676 342.732761 200.631911 340.658803 C 198.004639 327.435886 189.422984 314.974949 178.150957 312.345261 Z M 178.150957 312.345261 " transform="matrix(0.680958,0,0,0.681818,-0.664951,-0.665803)"/>
<path style="fill-rule:nonzero;fill:rgb(0%,27.45098%,7.843137%);fill-opacity:1;stroke-width:1.729109;stroke-linecap:butt;stroke-linejoin:miter;stroke:rgb(100%,100%,100%);stroke-opacity:1;stroke-miterlimit:4;" d="M 173.183235 346.496824 C 180.302108 361.621824 194.60869 363.483803 209.058683 365.082241 C 197.981694 353.887449 187.558654 338.991616 173.183235 346.496824 Z M 173.183235 346.496824 " transform="matrix(0.680958,0,0,0.681818,-0.664951,-0.665803)"/>
<path style="fill-rule:nonzero;fill:rgb(0%,27.45098%,7.843137%);fill-opacity:1;stroke-width:1.729109;stroke-linecap:butt;stroke-linejoin:miter;stroke:rgb(100%,100%,100%);stroke-opacity:1;stroke-miterlimit:4;" d="M 190.472746 334.608803 C 204.699019 338.762449 215.036012 347.505157 216.624995 366.594741 C 201.07935 362.217657 191.620026 352.23172 190.472746 334.608803 Z M 190.472746 334.608803 " transform="matrix(0.680958,0,0,0.681818,-0.664951,-0.665803)"/>
<path style="fill-rule:nonzero;fill:rgb(0%,27.45098%,7.843137%);fill-opacity:1;stroke-width:1.729109;stroke-linecap:butt;stroke-linejoin:miter;stroke:rgb(100%,100%,100%);stroke-opacity:1;stroke-miterlimit:4;" d="M 219.653815 334.173386 C 212.053084 351.572866 213.36672 365.689532 227.650357 375.022345 C 234.103808 356.144741 228.006014 344.508803 219.653815 334.173386 Z M 219.653815 334.173386 " transform="matrix(0.680958,0,0,0.681818,-0.664951,-0.665803)"/>
<path style="fill-rule:nonzero;fill:rgb(0%,27.45098%,7.843137%);fill-opacity:1;stroke-width:1.729109;stroke-linecap:butt;stroke-linejoin:miter;stroke:rgb(100%,100%,100%);stroke-opacity:1;stroke-miterlimit:4;" d="M 190.902976 365.947345 C 205.634052 359.31297 219.258003 360.143699 231.109407 373.080157 C 214.565628 379.834845 201.108032 377.634845 190.902976 365.947345 Z M 190.902976 365.947345 " transform="matrix(0.680958,0,0,0.681818,-0.664951,-0.665803)"/>
<path style="fill-rule:nonzero;fill:rgb(0%,27.45098%,7.843137%);fill-opacity:1;stroke-width:1.729109;stroke-linecap:butt;stroke-linejoin:miter;stroke:rgb(100%,100%,100%);stroke-opacity:1;stroke-miterlimit:4;" d="M 201.062141 386.698386 C 296.6191 347.41922 283.970337 426.89422 342.418521 414.146824 C 304.483705 411.030157 284.016228 328.639011 201.062141 386.698386 Z M 201.062141 386.698386 " transform="matrix(0.680958,0,0,0.681818,-0.664951,-0.665803)"/>
<path style="fill-rule:nonzero;fill:rgb(0%,27.45098%,7.843137%);fill-opacity:1;stroke-width:1.729109;stroke-linecap:butt;stroke-linejoin:miter;stroke:rgb(100%,100%,100%);stroke-opacity:1;stroke-miterlimit:4;" d="M 437.952534 451.970782 C 440.688797 454.520261 441.910651 453.700991 444.22242 451.970782 C 446.356361 450.366616 447.979762 447.948907 444.004437 445.920782 C 428.160499 437.831199 410.142465 415.229636 352.359703 415.229636 L 283.40817 414.307241 L 276.059841 422.093178 L 350.19708 421.279636 C 380.73194 420.941616 411.811758 427.610366 437.952534 451.970782 Z M 437.952534 451.970782 " transform="matrix(0.680958,0,0,0.681818,-0.664951,-0.665803)"/>
<path style="fill-rule:nonzero;fill:rgb(0%,27.45098%,7.843137%);fill-opacity:1;stroke-width:1.729109;stroke-linecap:round;stroke-linejoin:miter;stroke:rgb(100%,100%,100%);stroke-opacity:1;stroke-miterlimit:4;" d="M 228.723064 432.291095 L 249.976428 431.477553 " transform="matrix(0.680958,0,0,0.681818,-0.664951,-0.665803)"/>
<path style="fill-rule:nonzero;fill:rgb(0%,27.45098%,7.843137%);fill-opacity:1;stroke-width:1.729109;stroke-linecap:round;stroke-linejoin:miter;stroke:rgb(100%,100%,100%);stroke-opacity:1;stroke-miterlimit:4;" d="M 202.358567 412.198907 L 229.164767 422.752032 " transform="matrix(0.680958,0,0,0.681818,-0.664951,-0.665803)"/>
<path style="fill-rule:nonzero;fill:rgb(0%,27.45098%,7.843137%);fill-opacity:1;stroke-width:1.729109;stroke-linecap:round;stroke-linejoin:miter;stroke:rgb(100%,100%,100%);stroke-opacity:1;stroke-miterlimit:4;" d="M 180.749547 366.812449 L 216.624995 390.588491 " transform="matrix(0.680958,0,0,0.681818,-0.664951,-0.665803)"/>
<path style="fill-rule:nonzero;fill:rgb(0%,27.45098%,7.843137%);fill-opacity:1;stroke-width:1.729109;stroke-linecap:round;stroke-linejoin:miter;stroke:rgb(100%,100%,100%);stroke-opacity:1;stroke-miterlimit:4;" d="M 245.507772 381.284324 L 233.403967 369.178595 " transform="matrix(0.680958,0,0,0.681818,-0.664951,-0.665803)"/>
<path style="fill-rule:nonzero;fill:rgb(0%,27.45098%,7.843137%);fill-opacity:1;stroke-width:1.729109;stroke-linecap:round;stroke-linejoin:miter;stroke:rgb(100%,100%,100%);stroke-opacity:1;stroke-miterlimit:4;" d="M 266.388269 386.772866 L 252.379979 376.271303 " transform="matrix(0.680958,0,0,0.681818,-0.664951,-0.665803)"/>
<path style="fill-rule:nonzero;fill:rgb(0%,27.45098%,7.843137%);fill-opacity:1;stroke-width:1.729109;stroke-linecap:round;stroke-linejoin:miter;stroke:rgb(100%,100%,100%);stroke-opacity:1;stroke-miterlimit:4;" d="M 195.876435 391.453595 L 219.04002 405.896824 " transform="matrix(0.680958,0,0,0.681818,-0.664951,-0.665803)"/>
<path style="fill-rule:nonzero;fill:rgb(0%,27.45098%,7.843137%);fill-opacity:1;stroke-width:1.729109;stroke-linecap:butt;stroke-linejoin:miter;stroke:rgb(100%,100%,100%);stroke-opacity:1;stroke-miterlimit:4;" d="M 215.351514 403.696824 C 229.623679 394.272345 245.857692 403.055157 245.920793 410.571824 C 236.077129 414.129636 222.814571 417.607241 215.351514 403.696824 Z M 215.351514 403.696824 " transform="matrix(0.680958,0,0,0.681818,-0.664951,-0.665803)"/>
<path style="fill-rule:nonzero;fill:rgb(0%,27.45098%,7.843137%);fill-opacity:1;stroke-width:1.729109;stroke-linecap:butt;stroke-linejoin:miter;stroke:rgb(100%,100%,100%);stroke-opacity:1;stroke-miterlimit:4;" d="M 222.998136 376.494741 C 222.522015 390.932241 235.956665 401.966616 250.813942 400.637449 C 247.320474 385.008282 230.690649 375.795782 222.998136 376.494741 Z M 222.998136 376.494741 " transform="matrix(0.680958,0,0,0.681818,-0.664951,-0.665803)"/>
<path style="fill-rule:nonzero;fill:rgb(0%,27.45098%,7.843137%);fill-opacity:1;stroke-width:1.729109;stroke-linecap:butt;stroke-linejoin:miter;stroke:rgb(100%,100%,100%);stroke-opacity:1;stroke-miterlimit:4;" d="M 213.521603 388.411407 C 215.626862 399.663491 233.220402 404.951511 245.616763 401.25047 C 243.32794 389.763491 221.300162 384.143178 213.521603 388.411407 Z M 213.521603 388.411407 " transform="matrix(0.680958,0,0,0.681818,-0.664951,-0.665803)"/>
<path style="fill-rule:nonzero;fill:rgb(0%,27.45098%,7.843137%);fill-opacity:1;stroke-width:1.729109;stroke-linecap:butt;stroke-linejoin:miter;stroke:rgb(100%,100%,100%);stroke-opacity:1;stroke-miterlimit:4;" d="M 244.39491 379.703074 C 260.290476 381.427553 265.688429 395.595782 267.472449 406.446824 C 253.44695 403.341616 239.111685 397.939011 244.39491 379.703074 Z M 244.39491 379.703074 " transform="matrix(0.680958,0,0,0.681818,-0.664951,-0.665803)"/>
<path style="fill-rule:nonzero;fill:rgb(0%,27.45098%,7.843137%);fill-opacity:1;stroke-width:1.729109;stroke-linecap:butt;stroke-linejoin:miter;stroke:rgb(100%,100%,100%);stroke-opacity:1;stroke-miterlimit:4;" d="M 223.606195 420.506199 C 233.55885 407.604116 248.12357 409.70672 264.564094 417.910886 C 251.892385 430.761407 237.895568 427.432761 223.606195 420.506199 Z M 223.606195 420.506199 " transform="matrix(0.680958,0,0,0.681818,-0.664951,-0.665803)"/>
<path style="fill-rule:nonzero;fill:rgb(0%,27.45098%,7.843137%);fill-opacity:1;stroke-width:1.729109;stroke-linecap:butt;stroke-linejoin:miter;stroke:rgb(100%,100%,100%);stroke-opacity:1;stroke-miterlimit:4;" d="M 235.526435 398.958803 C 250.165729 393.269741 271.017545 401.359324 272.359862 415.61922 C 257.491112 419.664011 234.522565 416.008803 235.526435 398.958803 Z M 235.526435 398.958803 " transform="matrix(0.680958,0,0,0.681818,-0.664951,-0.665803)"/>
<path style="fill-rule:nonzero;fill:rgb(0%,27.45098%,7.843137%);fill-opacity:1;stroke-width:1.729109;stroke-linecap:butt;stroke-linejoin:miter;stroke:rgb(100%,100%,100%);stroke-opacity:1;stroke-miterlimit:4;" d="M 263.956036 384.899428 C 276.145887 390.926511 289.196198 396.065574 287.951399 415.922866 C 263.026739 421.990053 264.047818 401.267657 263.956036 384.899428 Z M 263.956036 384.899428 " transform="matrix(0.680958,0,0,0.681818,-0.664951,-0.665803)"/>
<path style="fill-rule:nonzero;fill:rgb(0%,27.45098%,7.843137%);fill-opacity:1;stroke-width:1.729109;stroke-linecap:butt;stroke-linejoin:round;stroke:rgb(100%,100%,100%);stroke-opacity:1;stroke-miterlimit:4;" d="M 244.90545 431.735366 C 261.644266 434.674428 276.272087 431.311407 287.928453 416.341095 C 275.256744 411.895261 255.466163 414.851511 244.90545 431.735366 Z M 244.90545 431.735366 " transform="matrix(0.680958,0,0,0.681818,-0.664951,-0.665803)"/>
<path style="fill-rule:nonzero;fill:rgb(0%,27.45098%,7.843137%);fill-opacity:1;stroke-width:1.729109;stroke-linecap:round;stroke-linejoin:miter;stroke:rgb(100%,100%,100%);stroke-opacity:1;stroke-miterlimit:4;" d="M 223.284956 376.98172 L 214.204234 367.471303 " transform="matrix(0.680958,0,0,0.681818,-0.664951,-0.665803)"/>
<path style="fill-rule:nonzero;fill:rgb(0%,27.45098%,7.843137%);fill-opacity:1;stroke-width:1.729109;stroke-linecap:butt;stroke-linejoin:miter;stroke:rgb(100%,100%,100%);stroke-opacity:1;stroke-miterlimit:4;" d="M 292.706875 432.084845 L 313.025205 432.084845 C 331.760289 418.649949 339.177455 403.181199 370.951377 401.823386 C 382.538906 401.330678 393.340548 412.107241 395.589217 416.954116 C 380.404965 408.801511 368.66829 411.545782 351.499243 430.354636 C 343.267508 439.372345 332.569122 444.952553 318.210911 445.920782 C 298.988233 447.209845 299.303735 437.814011 292.706875 432.084845 Z M 292.706875 432.084845 " transform="matrix(0.680958,0,0,0.681818,-0.664951,-0.665803)"/>
<path style="fill:none;stroke-width:1.729109;stroke-linecap:butt;stroke-linejoin:miter;stroke:rgb(100%,100%,100%);stroke-opacity:1;stroke-miterlimit:4;" d="M 574.914832 334.820782 Z M 574.914832 334.820782 " transform="matrix(0.680958,0,0,0.681818,-0.664951,-0.665803)"/>
<path style="fill-rule:nonzero;fill:rgb(0%,27.45098%,7.843137%);fill-opacity:1;stroke-width:1.729109;stroke-linecap:round;stroke-linejoin:miter;stroke:rgb(100%,100%,100%);stroke-opacity:1;stroke-miterlimit:4;" d="M 567.595185 237.96922 L 570.337184 261.802553 " transform="matrix(0.680958,0,0,0.681818,-0.664951,-0.665803)"/>
<path style="fill-rule:nonzero;fill:rgb(0%,27.45098%,7.843137%);fill-opacity:1;stroke-width:1.729109;stroke-linecap:round;stroke-linejoin:miter;stroke:rgb(100%,100%,100%);stroke-opacity:1;stroke-miterlimit:4;" d="M 561.94483 260.628074 L 565.40388 282.673907 " transform="matrix(0.680958,0,0,0.681818,-0.664951,-0.665803)"/>
<path style="fill-rule:nonzero;fill:rgb(0%,27.45098%,7.843137%);fill-opacity:1;stroke-width:1.729109;stroke-linecap:round;stroke-linejoin:miter;stroke:rgb(100%,100%,100%);stroke-opacity:1;stroke-miterlimit:4;" d="M 592.204343 242.907761 L 593.500769 266.248386 " transform="matrix(0.680958,0,0,0.681818,-0.664951,-0.665803)"/>
<path style="fill-rule:nonzero;fill:rgb(0%,27.45098%,7.843137%);fill-opacity:1;stroke-width:1.729109;stroke-linecap:round;stroke-linejoin:miter;stroke:rgb(100%,100%,100%);stroke-opacity:1;stroke-miterlimit:4;" d="M 604.308148 254.698386 L 602.598701 278.94422 " transform="matrix(0.680958,0,0,0.681818,-0.664951,-0.665803)"/>
<path style="fill-rule:nonzero;fill:rgb(0%,27.45098%,7.843137%);fill-opacity:1;stroke-width:1.729109;stroke-linecap:round;stroke-linejoin:miter;stroke:rgb(100%,100%,100%);stroke-opacity:1;stroke-miterlimit:4;" d="M 581.270764 259.109845 L 576.744744 222.202553 " transform="matrix(0.680958,0,0,0.681818,-0.664951,-0.665803)"/>
<path style="fill-rule:nonzero;fill:rgb(0%,27.45098%,7.843137%);fill-opacity:1;stroke-width:1.729109;stroke-linecap:round;stroke-linejoin:miter;stroke:rgb(100%,100%,100%);stroke-opacity:1;stroke-miterlimit:4;" d="M 559.329032 274.26922 L 563.981253 297.718699 " transform="matrix(0.680958,0,0,0.681818,-0.664951,-0.665803)"/>
<path style="fill-rule:nonzero;fill:rgb(0%,27.45098%,7.843137%);fill-opacity:1;stroke-width:1.729109;stroke-linecap:round;stroke-linejoin:miter;stroke:rgb(100%,100%,100%);stroke-opacity:1;stroke-miterlimit:4;" d="M 603.499315 300.508803 L 609.115251 285.166095 " transform="matrix(0.680958,0,0,0.681818,-0.664951,-0.665803)"/>
<path style="fill-rule:nonzero;fill:rgb(0%,27.45098%,7.843137%);fill-opacity:1;stroke-width:1.729109;stroke-linecap:butt;stroke-linejoin:miter;stroke:rgb(100%,100%,100%);stroke-opacity:1;stroke-miterlimit:4;" d="M 569.947109 259.550991 C 565.380934 273.896824 574.800104 290.167657 580.100538 294.997345 C 579.882555 283.980157 579.853873 263.567136 569.947109 259.550991 Z M 569.947109 259.550991 " transform="matrix(0.680958,0,0,0.681818,-0.664951,-0.665803)"/>
<path style="fill-rule:nonzero;fill:rgb(0%,27.45098%,7.843137%);fill-opacity:1;stroke-width:1.729109;stroke-linecap:butt;stroke-linejoin:miter;stroke:rgb(100%,100%,100%);stroke-opacity:1;stroke-miterlimit:4;" d="M 565.191633 279.866616 C 580.066119 283.745261 577.157764 295.667657 579.888291 309.257241 C 572.608799 302.955157 563.160947 299.855678 565.191633 279.866616 Z M 565.191633 279.866616 " transform="matrix(0.680958,0,0,0.681818,-0.664951,-0.665803)"/>
<path style="fill-rule:nonzero;fill:rgb(0%,27.45098%,7.843137%);fill-opacity:1;stroke-width:1.729109;stroke-linecap:butt;stroke-linejoin:miter;stroke:rgb(100%,100%,100%);stroke-opacity:1;stroke-miterlimit:4;" d="M 593.070539 262.78797 C 601.835759 272.773907 592.99023 286.09422 588.75103 294.997345 C 583.789043 283.705157 583.14083 268.923907 593.070539 262.78797 Z M 593.070539 262.78797 " transform="matrix(0.680958,0,0,0.681818,-0.664951,-0.665803)"/>
<path style="fill-rule:nonzero;fill:rgb(0%,27.45098%,7.843137%);fill-opacity:1;stroke-width:1.729109;stroke-linecap:butt;stroke-linejoin:miter;stroke:rgb(100%,100%,100%);stroke-opacity:1;stroke-miterlimit:4;" d="M 602.799475 277.271303 C 602.547073 293.072345 598.675003 306.106199 586.370424 312.717657 C 587.44313 294.298386 591.401247 280.204636 602.799475 277.271303 Z M 602.799475 277.271303 " transform="matrix(0.680958,0,0,0.681818,-0.664951,-0.665803)"/>
<path style="fill-rule:nonzero;fill:rgb(0%,27.45098%,7.843137%);fill-opacity:1;stroke-width:1.729109;stroke-linecap:butt;stroke-linejoin:miter;stroke:rgb(100%,100%,100%);stroke-opacity:1;stroke-miterlimit:4;" d="M 580.966734 255.872866 C 590.856289 266.523386 587.162047 283.384324 581.184718 291.754636 C 578.213262 283.13797 573.061975 264.890574 580.966734 255.872866 Z M 580.966734 255.872866 " transform="matrix(0.680958,0,0,0.681818,-0.664951,-0.665803)"/>
<path style="fill-rule:nonzero;fill:rgb(0%,27.45098%,7.843137%);fill-opacity:1;stroke-width:1.729109;stroke-linecap:butt;stroke-linejoin:miter;stroke:rgb(100%,100%,100%);stroke-opacity:1;stroke-miterlimit:4;" d="M 583.995554 277.918699 C 576.624279 289.657761 575.224598 306.094741 583.559587 317.908282 C 592.508372 307.125991 590.053193 289.634845 583.995554 277.918699 Z M 583.995554 277.918699 " transform="matrix(0.680958,0,0,0.681818,-0.664951,-0.665803)"/>
<path style="fill-rule:nonzero;fill:rgb(0%,27.45098%,7.843137%);fill-opacity:1;stroke-width:1.729109;stroke-linecap:butt;stroke-linejoin:miter;stroke:rgb(100%,100%,100%);stroke-opacity:1;stroke-miterlimit:4;" d="M 584.207801 324.823386 C 586.066394 314.178595 578.213262 302.067136 563.677223 295.644741 C 563.453504 317.163491 572.912828 327.487449 584.207801 324.823386 Z M 584.207801 324.823386 " transform="matrix(0.680958,0,0,0.681818,-0.664951,-0.665803)"/>
<path style="fill-rule:nonzero;fill:rgb(0%,27.45098%,7.843137%);fill-opacity:1;stroke-width:1.729109;stroke-linecap:butt;stroke-linejoin:round;stroke:rgb(100%,100%,100%);stroke-opacity:1;stroke-miterlimit:4;" d="M 580.370149 325.253074 C 596.667262 324.399428 601.772659 312.815053 604.33683 298.234324 C 592.743565 301.76922 585.051051 310.764011 580.370149 325.253074 Z M 580.370149 325.253074 " transform="matrix(0.680958,0,0,0.681818,-0.664951,-0.665803)"/>
<path style="fill-rule:nonzero;fill:rgb(0%,27.45098%,7.843137%);fill-opacity:1;stroke-width:1.729109;stroke-linecap:round;stroke-linejoin:miter;stroke:rgb(100%,100%,100%);stroke-opacity:1;stroke-miterlimit:4;" d="M 636.632764 326.404636 L 619.77922 348.885886 " transform="matrix(0.680958,0,0,0.681818,-0.664951,-0.665803)"/>
<path style="fill-rule:nonzero;fill:rgb(0%,27.45098%,7.843137%);fill-opacity:1;stroke-width:1.729109;stroke-linecap:round;stroke-linejoin:miter;stroke:rgb(100%,100%,100%);stroke-opacity:1;stroke-miterlimit:4;" d="M 632.35341 309.497866 L 621.551768 330.678595 " transform="matrix(0.680958,0,0,0.681818,-0.664951,-0.665803)"/>
<path style="fill-rule:nonzero;fill:rgb(0%,27.45098%,7.843137%);fill-opacity:1;stroke-width:1.729109;stroke-linecap:round;stroke-linejoin:miter;stroke:rgb(100%,100%,100%);stroke-opacity:1;stroke-miterlimit:4;" d="M 613.560962 317.157761 L 634.309522 284.300991 " transform="matrix(0.680958,0,0,0.681818,-0.664951,-0.665803)"/>
<path style="fill-rule:nonzero;fill:rgb(0%,27.45098%,7.843137%);fill-opacity:1;stroke-width:1.729109;stroke-linecap:round;stroke-linejoin:miter;stroke:rgb(100%,100%,100%);stroke-opacity:1;stroke-miterlimit:4;" d="M 618.144346 359.897345 L 600.854835 367.242136 " transform="matrix(0.680958,0,0,0.681818,-0.664951,-0.665803)"/>
<path style="fill-rule:nonzero;fill:rgb(0%,27.45098%,7.843137%);fill-opacity:1;stroke-width:1.729109;stroke-linecap:round;stroke-linejoin:miter;stroke:rgb(100%,100%,100%);stroke-opacity:1;stroke-miterlimit:4;" d="M 604.537604 308.203074 L 615.344982 290.047345 " transform="matrix(0.680958,0,0,0.681818,-0.664951,-0.665803)"/>
<path style="fill-rule:nonzero;fill:rgb(0%,27.45098%,7.843137%);fill-opacity:1;stroke-width:1.729109;stroke-linecap:round;stroke-linejoin:miter;stroke:rgb(100%,100%,100%);stroke-opacity:1;stroke-miterlimit:4;" d="M 588.418319 322.136407 L 593.609761 308.30047 " transform="matrix(0.680958,0,0,0.681818,-0.664951,-0.665803)"/>
<path style="fill-rule:nonzero;fill:rgb(0%,27.45098%,7.843137%);fill-opacity:1;stroke-width:1.729109;stroke-linecap:round;stroke-linejoin:miter;stroke:rgb(100%,100%,100%);stroke-opacity:1;stroke-miterlimit:4;" d="M 574.364137 335.445261 L 584.328265 320.704116 " transform="matrix(0.680958,0,0,0.681818,-0.664951,-0.665803)"/>
<path style="fill-rule:nonzero;fill:rgb(0%,27.45098%,7.843137%);fill-opacity:1;stroke-width:1.729109;stroke-linecap:butt;stroke-linejoin:miter;stroke:rgb(100%,100%,100%);stroke-opacity:1;stroke-miterlimit:4;" d="M 623.112069 327.905678 C 613.423288 324.536928 603.407533 327.424428 601.503048 349.086407 C 614.622196 345.843699 623.226797 338.630678 623.112069 327.905678 Z M 623.112069 327.905678 " transform="matrix(0.680958,0,0,0.681818,-0.664951,-0.665803)"/>
<path style="fill-rule:nonzero;fill:rgb(0%,27.45098%,7.843137%);fill-opacity:1;stroke-width:1.729109;stroke-linecap:butt;stroke-linejoin:miter;stroke:rgb(100%,100%,100%);stroke-opacity:1;stroke-miterlimit:4;" d="M 604.956361 307.372345 C 591.051326 314.476511 586.553988 331.864532 589.67459 343.179636 C 601.485839 338.739532 609.361917 322.016095 604.956361 307.372345 Z M 604.956361 307.372345 " transform="matrix(0.680958,0,0,0.681818,-0.664951,-0.665803)"/>
<path style="fill-rule:nonzero;fill:rgb(0%,27.45098%,7.843137%);fill-opacity:1;stroke-width:1.729109;stroke-linecap:butt;stroke-linejoin:miter;stroke:rgb(100%,100%,100%);stroke-opacity:1;stroke-miterlimit:4;" d="M 588.533047 321.208282 C 596.231296 335.187449 590.368695 347.848907 580.318521 360.109324 C 578.603337 346.31922 575.23607 332.219741 588.533047 321.208282 Z M 588.533047 321.208282 " transform="matrix(0.680958,0,0,0.681818,-0.664951,-0.665803)"/>
<path style="fill-rule:nonzero;fill:rgb(0%,27.45098%,7.843137%);fill-opacity:1;stroke-width:1.729109;stroke-linecap:butt;stroke-linejoin:miter;stroke:rgb(100%,100%,100%);stroke-opacity:1;stroke-miterlimit:4;" d="M 616.847919 312.345261 C 619.802166 321.723907 609.774937 342.732761 594.366966 340.658803 C 596.994237 327.435886 605.575892 314.974949 616.847919 312.345261 Z M 616.847919 312.345261 " transform="matrix(0.680958,0,0,0.681818,-0.664951,-0.665803)"/>
<path style="fill-rule:nonzero;fill:rgb(0%,27.45098%,7.843137%);fill-opacity:1;stroke-width:1.729109;stroke-linecap:butt;stroke-linejoin:miter;stroke:rgb(100%,100%,100%);stroke-opacity:1;stroke-miterlimit:4;" d="M 621.815642 346.496824 C 614.696769 361.621824 600.390186 363.483803 585.940194 365.082241 C 597.017183 353.887449 607.440223 338.991616 621.815642 346.496824 Z M 621.815642 346.496824 " transform="matrix(0.680958,0,0,0.681818,-0.664951,-0.665803)"/>
<path style="fill-rule:nonzero;fill:rgb(0%,27.45098%,7.843137%);fill-opacity:1;stroke-width:1.729109;stroke-linecap:butt;stroke-linejoin:miter;stroke:rgb(100%,100%,100%);stroke-opacity:1;stroke-miterlimit:4;" d="M 604.526131 334.608803 C 590.299858 338.762449 579.962864 347.505157 578.373881 366.594741 C 593.925263 362.217657 603.378851 352.23172 604.526131 334.608803 Z M 604.526131 334.608803 " transform="matrix(0.680958,0,0,0.681818,-0.664951,-0.665803)"/>
<path style="fill-rule:nonzero;fill:rgb(0%,27.45098%,7.843137%);fill-opacity:1;stroke-width:1.729109;stroke-linecap:butt;stroke-linejoin:miter;stroke:rgb(100%,100%,100%);stroke-opacity:1;stroke-miterlimit:4;" d="M 575.350798 334.173386 C 582.945793 351.572866 581.637893 365.689532 567.34852 375.022345 C 560.895069 356.144741 566.992863 344.508803 575.350798 334.173386 Z M 575.350798 334.173386 " transform="matrix(0.680958,0,0,0.681818,-0.664951,-0.665803)"/>
<path style="fill-rule:nonzero;fill:rgb(0%,27.45098%,7.843137%);fill-opacity:1;stroke-width:1.729109;stroke-linecap:butt;stroke-linejoin:miter;stroke:rgb(100%,100%,100%);stroke-opacity:1;stroke-miterlimit:4;" d="M 604.095901 365.947345 C 589.370561 359.31297 575.740874 360.143699 563.895207 373.080157 C 580.433249 379.834845 593.896581 377.634845 604.095901 365.947345 Z M 604.095901 365.947345 " transform="matrix(0.680958,0,0,0.681818,-0.664951,-0.665803)"/>
<path style="fill-rule:nonzero;fill:rgb(0%,27.45098%,7.843137%);fill-opacity:1;stroke-width:1.729109;stroke-linecap:butt;stroke-linejoin:miter;stroke:rgb(100%,100%,100%);stroke-opacity:1;stroke-miterlimit:4;" d="M 593.936736 386.698386 C 498.385513 347.41922 511.02854 426.89422 452.580356 414.146824 C 490.515172 411.030157 510.982649 328.639011 593.936736 386.698386 Z M 593.936736 386.698386 " transform="matrix(0.680958,0,0,0.681818,-0.664951,-0.665803)"/>
<path style="fill-rule:nonzero;fill:rgb(0%,27.45098%,7.843137%);fill-opacity:1;stroke-width:1.729109;stroke-linecap:butt;stroke-linejoin:miter;stroke:rgb(100%,100%,100%);stroke-opacity:1;stroke-miterlimit:4;" d="M 357.046342 451.970782 C 354.310079 454.520261 353.088226 453.700991 350.782193 451.970782 C 348.642516 450.366616 347.019114 447.948907 350.99444 445.920782 C 366.838378 437.831199 384.856412 415.229636 442.639174 415.229636 L 511.590707 414.307241 L 518.939036 422.093178 L 444.801797 421.279636 C 414.266937 420.941616 383.187119 427.610366 357.046342 451.970782 Z M 357.046342 451.970782 " transform="matrix(0.680958,0,0,0.681818,-0.664951,-0.665803)"/>
<path style="fill-rule:nonzero;fill:rgb(0%,27.45098%,7.843137%);fill-opacity:1;stroke-width:1.729109;stroke-linecap:round;stroke-linejoin:miter;stroke:rgb(100%,100%,100%);stroke-opacity:1;stroke-miterlimit:4;" d="M 566.281549 432.291095 L 545.097022 430.887449 " transform="matrix(0.680958,0,0,0.681818,-0.664951,-0.665803)"/>
<path style="fill-rule:nonzero;fill:rgb(0%,27.45098%,7.843137%);fill-opacity:1;stroke-width:1.729109;stroke-linecap:round;stroke-linejoin:miter;stroke:rgb(100%,100%,100%);stroke-opacity:1;stroke-miterlimit:4;" d="M 592.640309 412.198907 L 566.161085 422.900991 " transform="matrix(0.680958,0,0,0.681818,-0.664951,-0.665803)"/>
<path style="fill-rule:nonzero;fill:rgb(0%,27.45098%,7.843137%);fill-opacity:1;stroke-width:1.729109;stroke-linecap:round;stroke-linejoin:miter;stroke:rgb(100%,100%,100%);stroke-opacity:1;stroke-miterlimit:4;" d="M 614.255066 366.812449 L 578.373881 390.588491 " transform="matrix(0.680958,0,0,0.681818,-0.664951,-0.665803)"/>
<path style="fill-rule:nonzero;fill:rgb(0%,27.45098%,7.843137%);fill-opacity:1;stroke-width:1.729109;stroke-linecap:round;stroke-linejoin:miter;stroke:rgb(100%,100%,100%);stroke-opacity:1;stroke-miterlimit:4;" d="M 549.491105 381.284324 L 561.59491 369.178595 " transform="matrix(0.680958,0,0,0.681818,-0.664951,-0.665803)"/>
<path style="fill-rule:nonzero;fill:rgb(0%,27.45098%,7.843137%);fill-opacity:1;stroke-width:1.729109;stroke-linecap:round;stroke-linejoin:miter;stroke:rgb(100%,100%,100%);stroke-opacity:1;stroke-miterlimit:4;" d="M 528.140223 387.29422 L 542.618897 376.271303 " transform="matrix(0.680958,0,0,0.681818,-0.664951,-0.665803)"/>
<path style="fill-rule:nonzero;fill:rgb(0%,27.45098%,7.843137%);fill-opacity:1;stroke-width:1.729109;stroke-linecap:round;stroke-linejoin:miter;stroke:rgb(100%,100%,100%);stroke-opacity:1;stroke-miterlimit:4;" d="M 599.122442 391.453595 L 575.672037 405.822345 " transform="matrix(0.680958,0,0,0.681818,-0.664951,-0.665803)"/>
<path style="fill-rule:nonzero;fill:rgb(0%,27.45098%,7.843137%);fill-opacity:1;stroke-width:1.729109;stroke-linecap:butt;stroke-linejoin:miter;stroke:rgb(100%,100%,100%);stroke-opacity:1;stroke-miterlimit:4;" d="M 579.647362 403.696824 C 565.375198 394.272345 549.141185 403.055157 549.078084 410.571824 C 558.921747 414.129636 572.184305 417.607241 579.647362 403.696824 Z M 579.647362 403.696824 " transform="matrix(0.680958,0,0,0.681818,-0.664951,-0.665803)"/>
<path style="fill-rule:nonzero;fill:rgb(0%,27.45098%,7.843137%);fill-opacity:1;stroke-width:1.729109;stroke-linecap:butt;stroke-linejoin:miter;stroke:rgb(100%,100%,100%);stroke-opacity:1;stroke-miterlimit:4;" d="M 572.006477 376.494741 C 572.482598 390.932241 559.042212 401.966616 544.190671 400.637449 C 547.678402 385.008282 564.313964 375.795782 572.006477 376.494741 Z M 572.006477 376.494741 " transform="matrix(0.680958,0,0,0.681818,-0.664951,-0.665803)"/>
<path style="fill-rule:nonzero;fill:rgb(0%,27.45098%,7.843137%);fill-opacity:1;stroke-width:1.729109;stroke-linecap:butt;stroke-linejoin:miter;stroke:rgb(100%,100%,100%);stroke-opacity:1;stroke-miterlimit:4;" d="M 581.477274 388.411407 C 579.372015 399.663491 561.784211 404.951511 549.382113 401.25047 C 551.670937 389.763491 573.698715 384.143178 581.477274 388.411407 Z M 581.477274 388.411407 " transform="matrix(0.680958,0,0,0.681818,-0.664951,-0.665803)"/>
<path style="fill-rule:nonzero;fill:rgb(0%,27.45098%,7.843137%);fill-opacity:1;stroke-width:1.729109;stroke-linecap:butt;stroke-linejoin:miter;stroke:rgb(100%,100%,100%);stroke-opacity:1;stroke-miterlimit:4;" d="M 550.609703 379.703074 C 534.708401 381.427553 529.310448 395.595782 527.532164 406.446824 C 541.551927 403.341616 555.887192 397.939011 550.609703 379.703074 Z M 550.609703 379.703074 " transform="matrix(0.680958,0,0,0.681818,-0.664951,-0.665803)"/>
<path style="fill-rule:nonzero;fill:rgb(0%,27.45098%,7.843137%);fill-opacity:1;stroke-width:1.729109;stroke-linecap:butt;stroke-linejoin:miter;stroke:rgb(100%,100%,100%);stroke-opacity:1;stroke-miterlimit:4;" d="M 571.392682 420.506199 C 561.445764 407.604116 546.875306 409.70672 530.434783 417.910886 C 543.106491 430.761407 557.103308 427.432761 571.392682 420.506199 Z M 571.392682 420.506199 " transform="matrix(0.680958,0,0,0.681818,-0.664951,-0.665803)"/>
<path style="fill-rule:nonzero;fill:rgb(0%,27.45098%,7.843137%);fill-opacity:1;stroke-width:1.729109;stroke-linecap:butt;stroke-linejoin:miter;stroke:rgb(100%,100%,100%);stroke-opacity:1;stroke-miterlimit:4;" d="M 559.472442 398.958803 C 544.833148 393.269741 523.981332 401.359324 522.639014 415.61922 C 537.507764 419.664011 560.476312 416.008803 559.472442 398.958803 Z M 559.472442 398.958803 " transform="matrix(0.680958,0,0,0.681818,-0.664951,-0.665803)"/>
<path style="fill-rule:nonzero;fill:rgb(0%,27.45098%,7.843137%);fill-opacity:1;stroke-width:1.729109;stroke-linecap:butt;stroke-linejoin:miter;stroke:rgb(100%,100%,100%);stroke-opacity:1;stroke-miterlimit:4;" d="M 531.042841 384.899428 C 518.85299 390.926511 505.802679 396.065574 507.047478 415.922866 C 531.972138 421.990053 530.951059 401.267657 531.042841 384.899428 Z M 531.042841 384.899428 " transform="matrix(0.680958,0,0,0.681818,-0.664951,-0.665803)"/>
<path style="fill-rule:nonzero;fill:rgb(0%,27.45098%,7.843137%);fill-opacity:1;stroke-width:1.729109;stroke-linecap:butt;stroke-linejoin:round;stroke:rgb(100%,100%,100%);stroke-opacity:1;stroke-miterlimit:4;" d="M 550.150791 431.357241 C 533.406238 434.290574 517.843384 431.798386 507.081896 416.484324 C 521.927701 409.792657 539.584341 414.473386 550.150791 431.357241 Z M 550.150791 431.357241 " transform="matrix(0.680958,0,0,0.681818,-0.664951,-0.665803)"/>
<path style="fill-rule:nonzero;fill:rgb(0%,27.45098%,7.843137%);fill-opacity:1;stroke-width:1.729109;stroke-linecap:round;stroke-linejoin:miter;stroke:rgb(100%,100%,100%);stroke-opacity:1;stroke-miterlimit:4;" d="M 571.71392 376.98172 L 580.794642 367.471303 " transform="matrix(0.680958,0,0,0.681818,-0.664951,-0.665803)"/>
<path style="fill-rule:nonzero;fill:rgb(0%,27.45098%,7.843137%);fill-opacity:1;stroke-width:1.729109;stroke-linecap:butt;stroke-linejoin:miter;stroke:rgb(100%,100%,100%);stroke-opacity:1;stroke-miterlimit:4;" d="M 502.292002 432.084845 L 481.973672 432.084845 C 463.238588 418.649949 455.821422 403.181199 424.053236 401.823386 C 412.459971 401.330678 401.658329 412.107241 399.40966 416.954116 C 414.593912 408.801511 426.330587 411.545782 443.50537 430.354636 C 451.731368 439.372345 462.429755 444.952553 476.787966 445.920782 C 496.010644 447.209845 495.700878 437.814011 502.292002 432.084845 Z M 502.292002 432.084845 " transform="matrix(0.680958,0,0,0.681818,-0.664951,-0.665803)"/>
<path style=" stroke:none;fill-rule:nonzero;fill:rgb(100%,100%,100%);fill-opacity:1;" d="M 318.457031 216.238281 C 315.941406 219.304688 309.082031 220.972656 307.371094 225.464844 C 307.371094 228.675781 307.347656 231.886719 307.347656 235.136719 C 307.238281 235.71875 306.933594 236.28125 306.753906 236.5 C 306.167969 235.257812 306.320312 233.242188 304.753906 233.496094 C 303.660156 233.605469 302.714844 236.046875 302.859375 238.824219 C 303.296875 239.441406 305.179688 238.28125 305.328125 239.121094 C 305.363281 241.054688 303.589844 242.765625 301.476562 244.042969 C 301.109375 244.042969 301.175781 244.339844 302.050781 244.449219 C 303.363281 243.828125 304.90625 243.578125 306.328125 243.210938 C 306.726562 242.007812 307.042969 241.167969 306.859375 238.503906 C 307.550781 237.882812 307.859375 237.011719 307.859375 235.988281 C 308.550781 237.082031 309.890625 237.914062 311.347656 237.949219 C 314.59375 237.730469 316.300781 232.308594 318.414062 230.300781 C 318.339844 229.933594 318.382812 229.96875 318.308594 229.640625 C 316.996094 229.457031 315.792969 228.273438 314.117188 228.382812 C 312.984375 228.347656 311.03125 230.699219 310.519531 233.984375 C 309.789062 234.679688 308.441406 233.179688 308.371094 232.046875 C 308.332031 229.601562 308.515625 229.113281 308.371094 226.742188 C 309.753906 223.894531 312.074219 223.5 315.136719 221.457031 C 317.542969 220.035156 318.566406 217.476562 318.457031 216.238281 Z M 315.03125 229.808594 C 316.1875 229.785156 316.5 230.203125 316.371094 230.554688 C 315.570312 232.710938 313.507812 233.9375 311.285156 233.902344 C 311.6875 232.257812 313.164062 229.960938 314.476562 229.851562 C 314.679688 229.828125 314.867188 229.8125 315.03125 229.808594 Z M 315.03125 229.808594 "/>
<path style=" stroke:none;fill-rule:nonzero;fill:rgb(100%,100%,100%);fill-opacity:1;" d="M 297.207031 232.152344 C 298.082031 232.296875 298.007812 234.453125 299.757812 234.195312 C 300.378906 235.363281 299.539062 236.570312 299.175781 237.738281 C 298.410156 238.136719 297.207031 237.480469 296.292969 237.082031 C 294.910156 237.992188 295.382812 240.730469 293.667969 241.277344 C 292.722656 241.242188 292.066406 240.4375 291.117188 240.4375 C 288.019531 244.597656 280.984375 248.140625 274.929688 248.140625 C 271.175781 248.105469 269.753906 246.828125 270.046875 244.378906 C 270.121094 243.066406 270.300781 241.789062 270.738281 240.695312 C 270.992188 240.695312 271.210938 240.65625 271.46875 240.621094 C 270.8125 243.320312 271.867188 244.160156 273.984375 244.160156 C 281.203125 244.015625 286.234375 242.738281 290.460938 239.234375 C 291.15625 239.160156 292.320312 239.890625 292.832031 239.453125 C 293.667969 238.648438 293.449219 237.445312 294.070312 236.460938 C 294.144531 236.3125 295.019531 235.875 295.128906 235.839844 C 295.457031 234.234375 295.746094 232.957031 297.207031 232.152344 Z M 297.207031 232.152344 "/>
<path style=" stroke:none;fill-rule:nonzero;fill:rgb(100%,100%,100%);fill-opacity:1;" d="M 281.601562 236.058594 C 282.113281 235.4375 283.351562 237.773438 284.300781 238.578125 C 284.628906 238.941406 282.988281 239.816406 282.257812 240.476562 C 282.003906 240.65625 280.507812 238.6875 279.632812 237.773438 C 279.488281 237.589844 281.019531 236.679688 281.601562 236.058594 Z M 281.601562 236.058594 "/>
<path style=" stroke:none;fill-rule:nonzero;fill:rgb(100%,100%,100%);fill-opacity:1;" d="M 277.992188 236.53125 C 278.503906 235.910156 279.742188 238.25 280.726562 239.085938 C 281.019531 239.417969 279.378906 240.292969 278.648438 240.949219 C 278.429688 241.132812 276.9375 239.160156 276.0625 238.285156 C 275.914062 238.066406 277.410156 237.152344 277.992188 236.53125 Z M 277.992188 236.53125 "/>
<path style=" stroke:none;fill-rule:nonzero;fill:rgb(100%,100%,100%);fill-opacity:1;" d="M 254.660156 228.429688 C 255.390625 228.027344 255.644531 230.691406 256.265625 231.789062 C 256.410156 232.226562 254.589844 232.445312 253.640625 232.773438 C 253.347656 232.882812 252.691406 230.472656 252.21875 229.339844 C 252.144531 229.085938 253.894531 228.792969 254.660156 228.429688 Z M 254.660156 228.429688 "/>
<path style=" stroke:none;fill-rule:nonzero;fill:rgb(100%,100%,100%);fill-opacity:1;" d="M 224.839844 237.917969 C 225.535156 237.519531 225.824219 240.183594 226.40625 241.277344 C 226.589844 241.714844 224.730469 241.933594 223.820312 242.261719 C 223.527344 242.371094 222.871094 239.964844 222.363281 238.832031 C 222.324219 238.578125 224.039062 238.285156 224.839844 237.917969 Z M 224.839844 237.917969 "/>
<path style=" stroke:none;fill-rule:nonzero;fill:rgb(100%,100%,100%);fill-opacity:1;" d="M 241.101562 246.679688 C 241.792969 246.316406 242.085938 248.941406 242.667969 250.074219 C 242.851562 250.511719 240.992188 250.695312 240.078125 251.058594 C 239.789062 251.132812 239.132812 248.761719 238.65625 247.59375 C 238.585938 247.335938 240.296875 247.082031 241.101562 246.679688 Z M 241.101562 246.679688 "/>
<path style=" stroke:none;fill-rule:nonzero;fill:rgb(100%,100%,100%);fill-opacity:1;" d="M 254.042969 240.402344 C 254.734375 240 255.027344 242.664062 255.609375 243.761719 C 255.792969 244.199219 253.933594 244.417969 253.019531 244.746094 C 252.730469 244.855469 252.074219 242.445312 251.597656 241.277344 C 251.527344 241.058594 253.238281 240.765625 254.042969 240.402344 Z M 254.042969 240.402344 "/>
<path style=" stroke:none;fill-rule:nonzero;fill:rgb(100%,100%,100%);fill-opacity:1;" d="M 257.796875 241.933594 C 258.488281 241.570312 258.78125 244.199219 259.363281 245.328125 C 259.546875 245.769531 257.6875 245.949219 256.777344 246.316406 C 256.484375 246.386719 255.828125 244.015625 255.316406 242.847656 C 255.28125 242.59375 256.996094 242.335938 257.796875 241.933594 Z M 257.796875 241.933594 "/>
<path style=" stroke:none;fill-rule:nonzero;fill:rgb(100%,100%,100%);fill-opacity:1;" d="M 254.441406 245.074219 C 255.171875 244.671875 255.425781 247.335938 256.046875 248.433594 C 256.230469 248.871094 254.371094 249.089844 253.421875 249.417969 C 253.128906 249.527344 252.472656 247.117188 252 245.988281 C 251.925781 245.730469 253.675781 245.4375 254.441406 245.074219 Z M 254.441406 245.074219 "/>
<path style=" stroke:none;fill-rule:nonzero;fill:rgb(100%,100%,100%);fill-opacity:1;" d="M 257.578125 236.3125 C 256.777344 237.191406 255.902344 237.664062 254.441406 237.226562 C 253.675781 236.605469 254.113281 235.4375 253.421875 235.074219 C 251.089844 234.597656 245.148438 235.582031 244.746094 237.882812 C 245.914062 238.503906 247.371094 239.125 248.753906 239.5625 C 247.84375 240 245.914062 240.402344 244.382812 240.074219 C 242.449219 240.183594 242.15625 238.320312 243.398438 236.09375 C 244.746094 232.917969 246.570312 229.890625 247.664062 226.675781 C 246.933594 227.335938 246.460938 227.953125 245.402344 227.882812 C 243.578125 232.480469 241.828125 235.800781 240.625 239.34375 C 240.1875 240.546875 240.773438 243.03125 242.851562 243.652344 C 246.460938 244.378906 249.410156 240.984375 251.78125 240.183594 C 251.890625 239.746094 251.855469 239.855469 251.964844 239.417969 C 250.761719 238.757812 248.101562 237.519531 246.933594 236.859375 C 248.027344 235.910156 250.941406 236.242188 252.472656 236.75 C 253.347656 237.152344 253.09375 238.539062 254.152344 238.796875 C 255.574219 239.015625 257.25 238.175781 257.6875 236.96875 C 257.722656 236.679688 257.6875 236.460938 257.578125 236.3125 Z M 257.578125 236.3125 "/>
<path style=" stroke:none;fill-rule:nonzero;fill:rgb(100%,100%,100%);fill-opacity:1;" d="M 239.460938 234.78125 C 239.351562 235.183594 239.351562 235 239.242188 235.402344 C 235.449219 237.773438 230.78125 239.269531 222.179688 234.488281 C 217.039062 231.605469 220.066406 228.503906 221.449219 226.75 C 222.800781 231.789062 229.652344 236.132812 239.460938 234.78125 Z M 239.460938 234.78125 "/>
</g>
</svg>
