<?xml version="1.0" encoding="UTF-8"?>
<svg xmlns="http://www.w3.org/2000/svg" xmlns:xlink="http://www.w3.org/1999/xlink" width="540pt" height="360pt" viewBox="0 0 540 360" version="1.1">
<g id="surface1">
<path style=" stroke:none;fill-rule:evenodd;fill:rgb(0%,50.196078%,100%);fill-opacity:1;" d="M 0 0 L 540 0 L 540 180 L 0 180 Z M 0 0 "/>
<path style=" stroke:none;fill-rule:evenodd;fill:rgb(0%,50.196078%,0%);fill-opacity:1;" d="M 0 180 L 540 180 L 540 360 L 0 360 Z M 0 180 "/>
<path style=" stroke:none;fill-rule:evenodd;fill:rgb(97.254902%,0%,0%);fill-opacity:1;" d="M 270 300 C 336.265625 300 390 246.261719 390 180 C 390 113.734375 336.261719 60 270 60 C 203.734375 60 150 113.738281 150 180 C 150 246.265625 203.738281 300 270 300 Z M 364.511719 173.804688 L 304.132812 177.761719 C 301.882812 177.910156 299.863281 176.363281 299.421875 174.148438 C 298.980469 171.929688 300.253906 169.730469 302.390625 169.003906 L 359.6875 149.554688 C 366.820312 147.132812 374.457031 151.550781 375.925781 158.929688 C 377.390625 166.308594 372.027344 173.3125 364.511719 173.804688 Z M 354.945312 138.109375 L 300.679688 164.871094 C 298.65625 165.871094 296.199219 165.210938 294.945312 163.332031 C 293.6875 161.457031 294.019531 158.933594 295.71875 157.445312 L 341.210938 117.550781 C 346.875 112.582031 355.617188 113.742188 359.796875 120 C 363.976562 126.253906 361.703125 134.777344 354.945312 138.109375 Z M 332.449219 108.789062 L 292.554688 154.28125 C 291.066406 155.980469 288.542969 156.3125 286.667969 155.054688 C 284.789062 153.800781 284.128906 151.347656 285.128906 149.320312 L 311.890625 95.050781 C 315.222656 88.296875 323.746094 86.019531 330 90.199219 C 336.257812 94.378906 337.417969 103.125 332.449219 108.789062 Z M 300.445312 90.3125 L 280.996094 147.609375 C 280.269531 149.746094 278.070312 151.019531 275.851562 150.578125 C 273.636719 150.136719 272.089844 148.121094 272.238281 145.867188 L 276.195312 85.488281 C 276.6875 77.972656 283.691406 72.605469 291.070312 74.074219 C 298.449219 75.542969 302.867188 83.179688 300.445312 90.3125 Z M 263.804688 85.488281 L 267.761719 145.867188 C 267.910156 148.117188 266.363281 150.136719 264.148438 150.578125 C 261.933594 151.019531 259.730469 149.746094 259.003906 147.609375 L 239.554688 90.3125 C 237.132812 83.179688 241.550781 75.542969 248.929688 74.074219 C 256.308594 72.609375 263.3125 77.972656 263.804688 85.488281 Z M 228.109375 95.054688 L 254.871094 149.320312 C 255.871094 151.34375 255.210938 153.800781 253.332031 155.054688 C 251.457031 156.3125 248.933594 155.980469 247.445312 154.28125 L 207.550781 108.789062 C 202.582031 103.125 203.742188 94.382812 210 90.203125 C 216.253906 86.023438 224.777344 88.296875 228.109375 95.054688 Z M 198.789062 117.550781 L 244.28125 157.445312 C 245.980469 158.933594 246.3125 161.457031 245.058594 163.332031 C 243.800781 165.210938 241.347656 165.871094 239.320312 164.871094 L 185.050781 138.109375 C 178.296875 134.777344 176.019531 126.253906 180.199219 120 C 184.378906 113.742188 193.125 112.582031 198.789062 117.550781 Z M 180.3125 149.554688 L 237.609375 169.003906 C 239.746094 169.730469 241.019531 171.933594 240.578125 174.148438 C 240.136719 176.363281 238.121094 177.910156 235.867188 177.761719 L 175.488281 173.804688 C 167.972656 173.3125 162.609375 166.308594 164.074219 158.929688 C 165.542969 151.550781 173.179688 147.132812 180.3125 149.554688 Z M 175.488281 186.195312 L 235.867188 182.238281 C 238.117188 182.089844 240.136719 183.636719 240.578125 185.851562 C 241.019531 188.066406 239.746094 190.269531 237.609375 190.996094 L 180.3125 210.445312 C 173.179688 212.867188 165.542969 208.449219 164.074219 201.070312 C 162.609375 193.691406 167.972656 186.6875 175.488281 186.195312 Z M 185.054688 221.890625 L 239.320312 195.128906 C 241.34375 194.128906 243.800781 194.789062 245.058594 196.667969 C 246.3125 198.542969 245.980469 201.066406 244.28125 202.554688 L 198.789062 242.449219 C 193.125 247.417969 184.382812 246.257812 180.203125 240 C 176.023438 233.746094 178.296875 225.222656 185.054688 221.890625 Z M 207.550781 251.210938 L 247.445312 205.71875 C 248.933594 204.019531 251.457031 203.6875 253.332031 204.941406 C 255.210938 206.199219 255.871094 208.652344 254.871094 210.679688 L 228.109375 264.949219 C 224.777344 271.703125 216.253906 273.980469 210 269.800781 C 203.742188 265.621094 202.582031 256.875 207.550781 251.210938 Z M 239.554688 269.6875 L 259.003906 212.390625 C 259.730469 210.253906 261.933594 208.980469 264.148438 209.421875 C 266.363281 209.863281 267.910156 211.878906 267.761719 214.132812 L 263.804688 274.511719 C 263.3125 282.027344 256.308594 287.394531 248.929688 285.925781 C 241.550781 284.457031 237.132812 276.820312 239.554688 269.6875 Z M 276.195312 274.511719 L 272.238281 214.132812 C 272.089844 211.882812 273.636719 209.863281 275.851562 209.421875 C 278.070312 208.980469 280.269531 210.253906 280.996094 212.390625 L 300.445312 269.6875 C 302.867188 276.820312 298.449219 284.457031 291.070312 285.925781 C 283.691406 287.390625 276.6875 282.027344 276.195312 274.511719 Z M 311.890625 264.945312 L 285.128906 210.679688 C 284.128906 208.65625 284.789062 206.199219 286.667969 204.941406 C 288.542969 203.6875 291.066406 204.019531 292.554688 205.71875 L 332.449219 251.210938 C 337.417969 256.875 336.257812 265.617188 330.003906 269.796875 C 323.746094 273.976562 315.222656 271.703125 311.890625 264.945312 Z M 341.210938 242.449219 L 295.71875 202.554688 C 294.019531 201.066406 293.6875 198.542969 294.945312 196.667969 C 296.199219 194.789062 298.652344 194.128906 300.679688 195.128906 L 354.949219 221.890625 C 361.703125 225.222656 363.980469 233.746094 359.800781 240 C 355.621094 246.257812 346.875 247.417969 341.210938 242.449219 Z M 359.6875 210.445312 L 302.390625 190.996094 C 300.253906 190.269531 298.980469 188.066406 299.421875 185.851562 C 299.863281 183.636719 301.878906 182.089844 304.132812 182.238281 L 364.511719 186.195312 C 372.027344 186.6875 377.394531 193.691406 375.925781 201.070312 C 374.457031 208.449219 366.820312 212.867188 359.6875 210.445312 Z M 359.6875 210.445312 "/>
</g>
</svg>
