<?xml version="1.0" encoding="UTF-8"?>
<svg xmlns="http://www.w3.org/2000/svg" xmlns:xlink="http://www.w3.org/1999/xlink" width="480pt" height="360pt" viewBox="0 0 480 360" version="1.1">
<g id="surface1">
<rect x="0" y="0" width="480" height="360" style="fill:rgb(9.803922%,61.568627%,0%);fill-opacity:1;stroke:none;"/>
<path style=" stroke:none;fill-rule:evenodd;fill:rgb(100%,100%,100%);fill-opacity:1;" d="M 106.082031 102.042969 C 105.460938 110.453125 104.710938 125.253906 111.855469 126.773438 C 120.5 127.605469 115.734375 112.144531 118.863281 109.339844 C 119.453125 107.957031 120.546875 107.949219 120.636719 109.695312 L 120.636719 122.808594 C 120.554688 127.074219 123.359375 128.332031 125.539062 129.210938 C 127.804688 129.035156 129.316406 129.113281 130.207031 131.316406 C 130.558594 138.878906 130.914062 146.4375 131.269531 154 C 131.269531 154 136.523438 155.503906 136.777344 141.242188 C 137.027344 132.867188 135.101562 125.855469 136.230469 124.226562 C 136.269531 122.625 138.316406 122.53125 139.734375 123.3125 C 141.992188 124.90625 143 126.871094 146.507812 126.085938 C 151.851562 124.613281 155.0625 122.015625 155.140625 117.914062 C 154.832031 114.015625 154.394531 110.113281 152.703125 106.214844 C 152.941406 105.507812 151.671875 103.671875 151.90625 102.960938 C 152.867188 104.464844 154.328125 104.339844 154.660156 102.960938 C 153.75 99.964844 152.339844 97.09375 150.054688 95.851562 C 148.164062 94.183594 145.398438 94.527344 144.382812 98 C 143.914062 102 145.828125 106.757812 148.742188 110.632812 C 149.359375 112.148438 150.230469 114.664062 149.847656 116.929688 C 148.296875 117.816406 146.746094 117.445312 145.445312 116.074219 C 145.445312 116.074219 141.195312 112.886719 141.195312 112.175781 C 142.320312 104.949219 141.445312 104.132812 140.816406 102.125 C 140.382812 99.359375 139.066406 98.472656 138.003906 96.582031 C 136.941406 95.453125 135.5 95.453125 134.8125 96.582031 C 132.933594 99.839844 133.808594 106.835938 135.167969 109.96875 C 136.148438 112.847656 137.648438 114.65625 136.941406 114.65625 C 136.355469 116.285156 135.152344 115.910156 134.273438 114.03125 C 133.019531 110.144531 132.769531 104.347656 132.769531 101.738281 C 132.394531 98.503906 131.980469 91.601562 129.851562 89.847656 C 128.550781 88.078125 126.625 88.941406 125.953125 90.554688 C 125.8125 93.769531 125.796875 96.980469 126.160156 99.9375 C 127.621094 105.128906 128.078125 109.695312 128.789062 115.011719 C 128.984375 122.132812 124.671875 118.101562 124.867188 114.570312 C 125.863281 109.984375 125.605469 102.765625 124.71875 100.9375 C 124.019531 99.109375 123.191406 98.65625 121.488281 98.957031 C 120.132812 98.875 116.652344 102.679688 115.671875 108.984375 C 115.671875 108.984375 114.839844 112.234375 114.484375 115.117188 C 114.007812 118.375 111.863281 120.671875 110.359375 114.65625 C 109.058594 110.285156 108.257812 99.523438 106.082031 102.042969 Z M 106.082031 102.042969 "/>
<path style=" stroke:none;fill-rule:evenodd;fill:rgb(100%,100%,100%);fill-opacity:1;" d="M 129.570312 136.554688 C 121.941406 140.28125 114.566406 143.761719 107.0625 147.363281 C 107.335938 142.261719 117.765625 133.054688 124.875 132.921875 C 129.5 133.054688 128.339844 134.71875 129.570312 136.554688 Z M 129.570312 136.554688 "/>
<path style=" stroke:none;fill-rule:evenodd;fill:rgb(100%,100%,100%);fill-opacity:1;" d="M 125.636719 143.605469 C 113.777344 174.183594 153.414062 178.441406 157.84375 144.859375 C 158.261719 143.480469 159.933594 142.101562 160.226562 144.355469 C 159.304688 174.765625 129.566406 176.855469 124.511719 167.289062 C 123.257812 165.035156 122.882812 160.023438 122.757812 157.011719 C 122.003906 151.039062 118.871094 153.335938 118.371094 159.269531 C 117.871094 162.570312 117.996094 163.488281 117.996094 166.664062 C 119.582031 190.679688 157.886719 180.363281 164.109375 160.523438 C 167.410156 149.535156 163.566406 141.433594 165.363281 141.472656 C 169.164062 145.570312 174.46875 142.019531 175.640625 140.597656 C 176.140625 139.886719 177.394531 139.429688 178.269531 140.347656 C 181.238281 142.480469 186.460938 141.472656 187.542969 137.714844 C 188.171875 134.039062 188.671875 130.238281 188.796875 126.3125 C 186.375 127.066406 184.578125 127.566406 184.414062 128.566406 C 184.246094 129.65625 184.078125 130.738281 183.910156 131.824219 C 183.703125 132.871094 181.613281 132.910156 181.53125 131.574219 C 180.609375 127.398438 176.808594 126.855469 174.511719 133.332031 C 172.964844 134.582031 170.167969 134.835938 169.875 132.953125 C 170.25 128.609375 168.496094 128.023438 164.988281 130.070312 C 163.859375 121.46875 162.734375 113.238281 161.605469 104.632812 C 163.066406 104.589844 164.40625 105.675781 165.742188 104.007812 C 164.277344 99.453125 161.1875 90.140625 159.472656 89.46875 C 158.640625 88.46875 157.925781 89.09375 156.84375 89.34375 C 155.003906 89.929688 153.292969 91.515625 153.835938 94.609375 C 156.007812 107.808594 157.425781 117.875 159.597656 131.074219 C 159.933594 132.621094 158.640625 134.664062 156.96875 134.457031 C 154.128906 132.535156 153.417969 128.652344 148.570312 128.816406 C 145.0625 128.859375 141.050781 132.660156 140.550781 136.339844 C 139.96875 139.261719 139.757812 142.433594 140.550781 144.984375 C 143.015625 147.949219 145.980469 147.65625 148.570312 146.988281 C 150.703125 146.113281 152.457031 143.980469 153.207031 144.480469 C 153.710938 145.109375 153.332031 152.125 143.183594 157.515625 C 137.042969 160.273438 132.15625 160.898438 129.523438 155.886719 C 127.894531 152.753906 129.648438 140.847656 125.636719 143.605469 Z M 125.636719 143.605469 "/>
<path style=" stroke:none;fill-rule:evenodd;fill:rgb(100%,100%,100%);fill-opacity:1;" d="M 175.953125 112.519531 C 178.332031 111.644531 189.613281 98.738281 189.613281 98.738281 C 189.027344 98.234375 188.503906 97.859375 187.921875 97.359375 C 187.292969 96.816406 187.355469 96.273438 187.921875 95.730469 C 190.71875 94.101562 189.820312 90.527344 188.359375 88.898438 C 185.9375 87.8125 183.828125 88.167969 182.28125 88.960938 C 180.316406 90.84375 179.859375 93.847656 181.40625 95.730469 C 182.910156 96.441406 184.410156 97.964844 183.410156 98.800781 C 178.792969 103.730469 166.15625 112.230469 167.621094 112.519531 C 167.933594 112.9375 175.703125 112.917969 175.953125 112.519531 Z M 175.953125 112.519531 "/>
<path style=" stroke:none;fill-rule:evenodd;fill:rgb(100%,100%,100%);fill-opacity:1;" d="M 107.835938 158.203125 C 103.609375 164.941406 103.238281 175.011719 105.574219 178.011719 C 106.8125 179.429688 108.851562 180.050781 110.359375 179.605469 C 113.015625 178.453125 114.179688 173.070312 113.550781 171.097656 C 112.664062 169.710938 111.964844 169.492188 111.078125 170.671875 C 109.207031 174.46875 108.429688 171.863281 108.265625 169.742188 C 107.980469 165.71875 108.359375 162.011719 108.796875 159.078125 C 109.261719 156.070312 108.789062 156.988281 107.835938 158.203125 Z M 107.835938 158.203125 "/>
<path style=" stroke:none;fill-rule:evenodd;fill:rgb(100%,100%,100%);fill-opacity:1;" d="M 288.601562 147.410156 C 284.511719 138.605469 278.847656 129.90625 277.046875 126.566406 C 275.246094 123.222656 261.644531 103.484375 259.640625 101.261719 C 255.222656 96.011719 266.816406 103.449219 258.175781 93.027344 C 254.882812 90.199219 254.691406 90.027344 251.953125 87.71875 C 250.574219 86.742188 247.207031 84.953125 246.609375 87.917969 C 246.3125 90.53125 246.472656 91.949219 246.910156 94.125 C 247.25 95.574219 249.363281 98.003906 250.402344 99.410156 C 264.199219 117.960938 276.4375 136.691406 288.234375 160.242188 C 290.097656 159.355469 289.691406 148.882812 288.601562 147.410156 Z M 288.601562 147.410156 "/>
<path style=" stroke:none;fill-rule:evenodd;fill:rgb(100%,100%,100%);fill-opacity:1;" d="M 270.648438 176.863281 C 269.84375 177.765625 272.636719 181.628906 276.261719 181.625 C 282.324219 180.921875 287.660156 177.515625 292.605469 168.550781 C 293.925781 166.457031 296.25 161.988281 296.316406 158.519531 C 296.777344 138.179688 295.296875 122.355469 292.25 107.65625 C 292.054688 106.222656 292.175781 104.539062 292.417969 104.109375 C 292.808594 103.640625 294.140625 104.113281 294.847656 102.953125 C 295.882812 101.894531 292.097656 93.132812 289.9375 89.753906 C 289.167969 88.25 288.902344 87.242188 287.632812 89.933594 C 286.296875 92.121094 285.402344 95.9375 285.503906 99.503906 C 288.398438 119.53125 289.285156 137.046875 291.175781 157.074219 C 291.332031 159.011719 291.046875 161.828125 289.757812 162.949219 C 284.996094 167.921875 278.125 174.042969 270.648438 176.863281 Z M 270.648438 176.863281 "/>
<path style=" stroke:none;fill-rule:evenodd;fill:rgb(100%,100%,100%);fill-opacity:1;" d="M 352.554688 176.757812 C 348.203125 179.273438 348.199219 182.167969 351.71875 182.273438 C 357.78125 181.566406 364.945312 181.0625 369.886719 173.601562 C 371.210938 171.511719 372.78125 165.859375 372.847656 162.390625 C 373.3125 142.050781 372.582031 126.871094 369.535156 112.171875 C 369.339844 110.738281 368.707031 107.445312 368.949219 107.015625 C 369.339844 106.007812 371.320312 107.125 372.023438 105.964844 C 373.0625 104.90625 366.90625 97.003906 364.75 93.628906 C 363.980469 92.121094 363.714844 91.113281 362.445312 93.804688 C 361.109375 95.992188 360.644531 99.914062 361.175781 103.375 C 364.390625 125.121094 366.785156 141.457031 367.28125 160.734375 C 367.003906 162.5625 366.933594 163.546875 366.074219 165.851562 C 364.179688 168.285156 362.074219 171.328125 360.105469 172.796875 C 358.132812 174.265625 353.925781 175.667969 352.554688 176.757812 Z M 352.554688 176.757812 "/>
<path style=" stroke:none;fill-rule:evenodd;fill:rgb(100%,100%,100%);fill-opacity:1;" d="M 355.820312 157.261719 C 355.769531 152.175781 355.890625 147.785156 355.722656 143.992188 C 355.554688 140.199219 354.886719 137.109375 353.574219 134.417969 C 352.332031 131.53125 353.101562 129.210938 352.519531 126.132812 C 351.933594 123.058594 352.078125 118.457031 351.199219 114.808594 C 350.957031 113.382812 350.214844 108.820312 350.445312 108.382812 C 350.804688 107.367188 352.171875 108.414062 352.839844 107.234375 C 353.839844 106.144531 349.371094 94.574219 347.101562 91.269531 C 346.285156 89.789062 344.804688 90.296875 342.976562 92.703125 C 341.285156 94.289062 341.910156 97.902344 342.558594 101.34375 C 346.910156 124.046875 350.15625 144.597656 349.445312 166.210938 C 349.230469 168.046875 355.863281 160.730469 355.820312 157.261719 Z M 355.820312 157.261719 "/>
<path style=" stroke:none;fill-rule:evenodd;fill:rgb(100%,100%,100%);fill-opacity:1;" d="M 323.671875 129.101562 C 320.933594 129.050781 315.203125 123.777344 313.53125 120.683594 C 312.898438 118.910156 313.304688 117.183594 313.863281 116.167969 C 314.875 115.511719 316.433594 114.769531 317.597656 115.480469 C 317.597656 115.480469 318.808594 117.171875 318.574219 117.386719 C 320.066406 118.101562 320.703125 117.6875 320.855469 117.082031 C 320.957031 116.015625 320.410156 115.382812 320.40625 114.210938 C 321.039062 111.03125 324.671875 110.539062 326.039062 112.566406 C 327.042969 113.800781 327.410156 116.425781 327.5625 118.199219 C 327.542969 119.105469 326.078125 118.042969 325.246094 118.261719 C 324.410156 118.480469 324.210938 119.441406 324.144531 120.3125 C 323.996094 122.617188 323.722656 126.3125 323.671875 129.101562 Z M 323.671875 129.101562 "/>
<path style=" stroke:none;fill-rule:evenodd;fill:rgb(100%,100%,100%);fill-opacity:1;" d="M 273.167969 162.898438 C 273.921875 155.988281 272.886719 143.683594 272.820312 139.605469 C 272.542969 129.972656 270.96875 111.367188 270.21875 108.257812 C 269.375 102.398438 272.628906 108.902344 272.179688 105.496094 C 271.125 99.644531 267.878906 95.675781 264.0625 90.316406 C 262.832031 88.574219 262.875 88.21875 260.976562 90.746094 C 258.875 95.515625 260.6875 98.792969 261.230469 102.507812 C 263.984375 114.605469 265.589844 125.734375 266.335938 136.738281 C 267.082031 147.742188 267.3125 159.640625 266.628906 171.230469 C 268.691406 171.3125 272.007812 167.894531 273.167969 162.898438 Z M 273.167969 162.898438 "/>
<path style=" stroke:none;fill-rule:evenodd;fill:rgb(100%,100%,100%);fill-opacity:1;" d="M 365.136719 151.832031 C 360.308594 143.738281 353.027344 134.96875 351.082031 131.707031 C 349.136719 128.445312 332.683594 107.214844 330.585938 105.085938 C 324.570312 98.761719 333.347656 104.058594 329.433594 99.171875 C 326.125 95.539062 325.160156 94.398438 322.328125 92.214844 C 320.90625 91.296875 320.046875 89.542969 319.582031 92.53125 C 319.394531 95.152344 319.199219 98.191406 319.378906 100.402344 C 319.367188 101.628906 320.648438 103.941406 321.746094 105.300781 C 336.339844 123.230469 352.257812 141.539062 365.070312 164.554688 C 366.894531 163.585938 366.289062 153.257812 365.136719 151.832031 Z M 365.136719 151.832031 "/>
<path style=" stroke:none;fill-rule:evenodd;fill:rgb(10.588235%,64.313725%,0%);fill-opacity:1;" d="M 146.195312 136.890625 C 145.847656 137.5 145.074219 138.289062 145.335938 139.105469 C 145.875 139.839844 146.308594 139.988281 147.210938 140.027344 C 147.996094 140.027344 149.089844 140.214844 149.324219 139.75 C 149.746094 139.285156 150.066406 138.339844 149.714844 137.445312 C 148.898438 135.40625 146.621094 136.164062 146.195312 136.890625 Z M 146.195312 136.890625 "/>
<path style=" stroke:none;fill-rule:evenodd;fill:rgb(100%,100%,100%);fill-opacity:1;" d="M 309.027344 254.910156 C 315.480469 255.148438 319.703125 255.207031 325.441406 255.886719 C 325.441406 255.886719 330.390625 255.398438 332.160156 255.132812 C 339.632812 254.417969 339.960938 265.804688 339.960938 265.804688 C 339.878906 272.480469 337.300781 272.828125 334.011719 273.535156 C 332.132812 273.773438 331.144531 272.410156 330.15625 270.953125 C 328.917969 271.472656 327.234375 271.546875 325.191406 271.265625 C 322.5 271.097656 319.8125 271.109375 317.125 270.9375 C 314.265625 270.6875 312.746094 271.238281 309.890625 270.984375 C 309.300781 271.910156 308.535156 273.191406 306.789062 272.777344 C 305.335938 272.617188 303.613281 268.535156 304.121094 265.433594 C 305.167969 263.207031 304.878906 263.925781 304.769531 262.945312 C 278.386719 262.273438 251.75 261.097656 225.867188 261.433594 C 205.617188 261.519531 185.617188 262.359375 165.617188 263.199219 C 154.945312 263.03125 146.796875 261.351562 141.164062 253.117188 C 141.671875 253.117188 168.390625 254.628906 176.207031 254.125 C 190.660156 253.953125 203.851562 252.78125 218.554688 252.359375 C 247.546875 252.863281 276.285156 252.863281 305.273438 254.878906 C 302.5 252.984375 302.398438 248.5 306.667969 247.40625 C 307.03125 247.15625 307.21875 249.632812 307.855469 249.585938 C 311.269531 249.332031 309.773438 253.957031 309.023438 254.910156 Z M 309.027344 254.910156 "/>
<path style=" stroke:none;fill-rule:evenodd;fill:rgb(100%,100%,100%);fill-opacity:1;" d="M 192.636719 95.117188 C 188.242188 107.675781 195.152344 121.410156 199.945312 120.074219 C 203.402344 121.503906 205.601562 114.929688 207.019531 107.726562 C 207.988281 105.703125 208.71875 105.488281 209.214844 106.527344 C 209.085938 116.105469 209.902344 118.230469 212.367188 121.136719 C 217.859375 125.375 222.40625 121.679688 222.761719 121.320312 L 227.039062 117.042969 C 227.992188 116.042969 229.261719 115.984375 230.605469 116.867188 C 231.910156 118.054688 231.726562 120.105469 234.527344 121.527344 C 236.882812 122.472656 241.917969 121.746094 243.082031 119.71875 C 244.652344 117.027344 245.027344 116.105469 245.757812 115.082031 C 246.875 113.59375 248.785156 114.253906 248.785156 114.726562 C 248.609375 115.558594 247.488281 116.390625 248.253906 117.886719 C 249.585938 118.886719 249.890625 118.246094 250.679688 118.023438 C 253.46875 116.691406 255.5625 110.625 255.5625 110.625 C 255.683594 108.371094 254.421875 108.558594 253.601562 109.023438 C 252.53125 109.675781 252.460938 109.886719 251.390625 110.539062 C 250.027344 110.742188 247.382812 111.644531 246.078125 109.621094 C 244.742188 107.1875 244.722656 103.792969 243.703125 101.339844 C 243.703125 101.160156 241.933594 97.472656 243.582031 97.238281 C 244.414062 97.390625 246.1875 97.859375 246.46875 96.367188 C 247.34375 94.910156 244.601562 90.785156 242.726562 88.703125 C 241.097656 86.914062 238.84375 86.699219 236.667969 88.523438 C 235.140625 89.925781 235.359375 91.496094 235.0625 92.980469 C 234.671875 94.6875 234.757812 96.785156 236.488281 99.039062 C 238.007812 102.042969 240.785156 105.90625 239.875 111.339844 C 239.875 111.339844 238.253906 113.90625 235.425781 113.570312 C 234.25 113.316406 232.339844 112.816406 231.316406 105.277344 C 230.546875 99.574219 231.5 91.59375 229.078125 87.851562 C 228.203125 85.59375 227.566406 83.410156 225.4375 87.277344 C 224.863281 88.792969 222.40625 91.097656 224.1875 95.832031 C 225.644531 98.835938 226.238281 103.722656 225.578125 109.160156 C 224.566406 110.703125 224.34375 111.226562 223.019531 112.773438 C 221.160156 114.773438 219.140625 114.261719 217.59375 113.515625 C 216.148438 112.542969 215.015625 112.039062 214.355469 108.945312 C 214.476562 104.011719 214.75 95.941406 213.851562 94.230469 C 212.519531 91.574219 210.328125 92.535156 209.394531 93.335938 C 204.894531 97.449219 202.671875 104.386719 201.316406 109.914062 C 200.066406 113.941406 198.738281 112.789062 197.808594 111.164062 C 195.535156 109.035156 195.378906 92.382812 192.636719 95.121094 Z M 192.636719 95.117188 "/>
<path style=" stroke:none;fill-rule:evenodd;fill:rgb(100%,100%,100%);fill-opacity:1;" d="M 205.863281 122.414062 C 207.859375 121 206.925781 120.011719 209.910156 122.996094 C 213.644531 129.382812 216.046875 137.652344 216.40625 144.980469 C 216.246094 146.785156 217.519531 147.929688 218.101562 147.535156 C 218.449219 143.296875 228.757812 137.390625 238.210938 136.527344 C 239.65625 136.214844 238.953125 133.441406 239.1875 132.03125 C 238.621094 126.78125 242.136719 122.003906 247.0625 121.625 C 253.769531 122.613281 256.003906 126.195312 256.117188 131.660156 C 255.390625 142.152344 244.460938 143.933594 238.320312 144.769531 C 237.378906 145.125 236.984375 145.558594 238.320312 146.074219 L 264.050781 146.191406 L 265.363281 146.949219 C 265.519531 147.5625 264.988281 147.050781 263.972656 148.722656 C 262.957031 150.394531 261.460938 154.253906 261.382812 156.828125 C 253.714844 159.292969 245.785156 160.375 237.726562 161.347656 C 234.925781 162.765625 233.539062 164.652344 234.113281 166.773438 C 235.058594 169.128906 241.257812 171.480469 241.257812 171.59375 C 242.4375 172.332031 243.828125 174.054688 240.925781 177.589844 C 228.375 177.035156 218.648438 171.695312 215.28125 164.15625 C 214.265625 163.371094 213.171875 164.152344 212.472656 165.171875 C 207.574219 171.488281 202.75 177.175781 194.398438 180.195312 C 189.414062 181.441406 184.316406 179.429688 181.90625 176.167969 C 180.292969 174.3125 180.355469 172.261719 179.761719 171.816406 C 177.070312 173.007812 153.898438 182.855469 156.835938 178.265625 C 162.476562 172.230469 172.238281 167.796875 180.859375 161.839844 C 181.484375 159.84375 182.613281 153.09375 186.019531 150.890625 C 186.214844 150.910156 185.480469 154.859375 185.554688 156.523438 C 185.59375 157.890625 185.453125 158.425781 185.753906 158.074219 C 186.335938 157.703125 196.796875 149.484375 197.605469 146.960938 C 198.625 145.515625 197.910156 141.855469 197.910156 141.742188 C 195.949219 136.6875 193.199219 136.257812 192.175781 133.746094 C 191.257812 130.40625 191.675781 126.597656 193.582031 125.535156 C 195.277344 123.996094 197.28125 124.1875 199.132812 125.867188 C 201.246094 127.761719 203.125 131.460938 203.664062 134.214844 C 203.304688 135.304688 200.902344 133.492188 200.066406 134.03125 C 201.542969 135.558594 202.230469 137.324219 202.765625 139.476562 C 204.125 145.25 203.710938 147.492188 202.339844 151.226562 C 197.695312 160.992188 191.757812 163.90625 186.5625 167.527344 C 186.425781 167.574219 186.332031 170.003906 188.285156 171.316406 C 188.960938 172.023438 191.667969 172.386719 194.855469 171.367188 C 201.011719 168.007812 207.402344 161.824219 210.574219 154.9375 C 211.496094 149.726562 210.21875 144.199219 208.863281 139.378906 C 206.820312 134.671875 204.417969 127.945312 204.417969 127.835938 C 204.335938 124.898438 204.578125 123.878906 205.863281 122.414062 Z M 205.863281 122.414062 "/>
<path style=" stroke:none;fill-rule:evenodd;fill:rgb(100%,100%,100%);fill-opacity:1;" d="M 138.496094 95.253906 C 141.457031 96.664062 147.027344 96.0625 146.789062 91.289062 C 146.789062 90.867188 146.683594 89.4375 146.640625 89.050781 C 146.035156 87.640625 144.386719 87.988281 144.011719 89.445312 C 143.894531 89.917969 144.222656 90.695312 143.792969 90.933594 C 143.542969 91.183594 142.597656 91.039062 142.636719 89.71875 C 142.636719 89.296875 142.328125 88.847656 142.140625 88.578125 C 141.953125 88.457031 141.835938 88.421875 141.496094 88.421875 C 141.082031 88.4375 141.089844 88.546875 140.863281 88.894531 C 140.765625 89.246094 140.632812 89.59375 140.632812 89.992188 C 140.582031 90.460938 140.40625 90.628906 140.0625 90.699219 C 139.675781 90.699219 139.761719 90.742188 139.449219 90.542969 C 139.261719 90.339844 139.03125 90.261719 139.03125 89.914062 C 139.03125 89.554688 138.949219 88.972656 138.839844 88.738281 C 138.675781 88.519531 138.414062 88.421875 138.117188 88.34375 C 136.5 88.351562 136.386719 90.195312 136.480469 90.894531 C 136.359375 91.027344 136.289062 94.335938 138.496094 95.253906 Z M 138.496094 95.253906 "/>
<path style=" stroke:none;fill-rule:evenodd;fill:rgb(100%,100%,100%);fill-opacity:1;" d="M 225.3125 131.996094 C 228.273438 133.410156 235.324219 132.597656 233.605469 128.035156 C 233.605469 127.613281 233.5 126.183594 233.457031 125.796875 C 232.851562 124.386719 231.203125 124.734375 230.828125 126.1875 C 230.710938 126.664062 231.039062 127.441406 230.605469 127.679688 C 230.359375 127.929688 229.414062 127.78125 229.453125 126.464844 C 229.453125 126.042969 229.144531 125.589844 228.957031 125.324219 C 228.769531 125.203125 228.648438 125.167969 228.3125 125.167969 C 227.898438 125.183594 227.90625 125.292969 227.679688 125.640625 C 227.582031 125.992188 227.449219 126.335938 227.449219 126.738281 C 227.398438 127.207031 227.222656 127.375 226.875 127.445312 C 226.488281 127.445312 226.578125 127.488281 226.265625 127.289062 C 226.078125 127.085938 225.847656 127.007812 225.847656 126.660156 C 225.847656 126.300781 225.765625 125.71875 225.65625 125.480469 C 225.492188 125.265625 225.230469 125.164062 224.933594 125.089844 C 223.3125 125.09375 223.203125 126.941406 223.296875 127.640625 C 223.175781 127.773438 223.105469 131.082031 225.3125 131.996094 Z M 225.3125 131.996094 "/>
<path style=" stroke:none;fill-rule:evenodd;fill:rgb(100%,100%,100%);fill-opacity:1;" d="M 275.9375 116.789062 C 278.898438 118.203125 284.464844 117.601562 284.230469 112.824219 C 284.230469 112.402344 284.125 110.972656 284.082031 110.585938 C 283.476562 109.179688 281.828125 109.527344 281.453125 110.980469 C 281.335938 111.457031 281.664062 112.230469 281.230469 112.472656 C 280.984375 112.71875 280.039062 112.574219 280.078125 111.253906 C 280.078125 110.835938 279.769531 110.382812 279.582031 110.117188 C 279.394531 109.992188 279.273438 109.960938 278.9375 109.960938 C 278.523438 109.976562 278.53125 110.082031 278.304688 110.429688 C 278.207031 110.785156 278.074219 111.128906 278.074219 111.53125 C 278.023438 112 277.847656 112.167969 277.5 112.234375 C 277.113281 112.234375 277.203125 112.277344 276.890625 112.078125 C 276.703125 111.875 276.472656 111.796875 276.472656 111.453125 C 276.472656 111.09375 276.390625 110.511719 276.28125 110.273438 C 276.117188 110.058594 275.855469 109.957031 275.558594 109.882812 C 273.9375 109.886719 273.828125 111.730469 273.921875 112.433594 C 273.800781 112.5625 273.730469 115.875 275.9375 116.789062 Z M 275.9375 116.789062 "/>
<path style=" stroke:none;fill-rule:evenodd;fill:rgb(100%,100%,100%);fill-opacity:1;" d="M 302.15625 154.988281 C 296.996094 160.804688 299.269531 170.425781 300.4375 172.5 C 302.136719 175.902344 303.507812 178.085938 306.820312 179.773438 C 309.835938 181.992188 312.1875 180.605469 313.480469 179.050781 C 316.515625 175.902344 316.550781 167.875 317.976562 166.28125 C 318.976562 163.359375 321.492188 163.859375 322.714844 165.152344 C 323.898438 166.855469 325.292969 167.953125 327.03125 168.878906 C 329.859375 171.375 333.242188 171.832031 336.570312 169.558594 C 338.847656 168.28125 340.328125 166.632812 341.660156 163.355469 C 343.140625 159.398438 342.316406 141.105469 342.019531 130.261719 C 341.90625 129.410156 339.078125 115.351562 339.078125 115.195312 C 339.078125 115.039062 338.703125 108.019531 338.390625 106.347656 C 338.335938 105.667969 338.167969 105.472656 338.878906 105.558594 C 339.632812 106.195312 339.738281 106.234375 340.207031 106.445312 C 340.96875 106.582031 341.652344 105.289062 341.191406 104.09375 C 338.835938 99.75 336.480469 95.40625 334.125 91.0625 C 333.558594 90.507812 332.828125 89.894531 331.929688 91.222656 C 331.070312 91.976562 330.152344 93.339844 330.183594 95.089844 C 330.390625 98.179688 330.933594 101.320312 331.144531 104.410156 C 332.085938 109.695312 333.027344 114.980469 333.96875 120.265625 C 334.859375 131.570312 335.082031 140.820312 335.972656 152.125 C 335.847656 156.910156 334.359375 161.082031 332.964844 161.6875 C 332.964844 161.6875 330.839844 162.917969 329.417969 161.558594 C 328.378906 161.140625 324.234375 154.648438 324.234375 154.648438 C 322.117188 152.707031 320.71875 153.261719 319.210938 154.648438 C 315.054688 158.664062 313.171875 166.175781 310.34375 171.359375 C 309.617188 172.511719 307.558594 173.503906 305.277344 171.273438 C 299.480469 163.355469 302.878906 152.09375 302.15625 154.988281 Z M 302.15625 154.988281 "/>
<path style=" stroke:none;fill-rule:evenodd;fill:rgb(100%,100%,100%);fill-opacity:1;" d="M 277.265625 89.066406 C 279.917969 90.175781 281.789062 95.550781 281.179688 98.175781 C 280.652344 101.421875 279.246094 104.925781 278.234375 104.46875 C 277.132812 104.0625 278.984375 101.242188 277.925781 98.285156 C 277.339844 96.359375 273.71875 92.84375 274.097656 91.804688 C 273.351562 89.632812 275.636719 88.679688 277.265625 89.066406 Z M 277.265625 89.066406 "/>
<path style=" stroke:none;fill-rule:evenodd;fill:rgb(100%,100%,100%);fill-opacity:1;" d="M 310.699219 158.175781 C 311.257812 151.722656 310.316406 147.785156 310.148438 143.992188 C 309.980469 140.199219 305.855469 111.253906 305.019531 108.386719 C 304.011719 102.957031 309.027344 107.65625 308.480469 104.5 C 306.746094 100.523438 302.425781 94.726562 301.070312 91.269531 C 300.253906 89.789062 300.597656 88.472656 298.769531 90.882812 C 297.074219 96.417969 296.488281 100.945312 297.136719 104.386719 C 301.484375 127.089844 305.945312 145.96875 305.238281 167.582031 C 307.300781 167.59375 309.679688 162.859375 310.699219 158.175781 Z M 310.699219 158.175781 "/>
<path style=" stroke:none;fill-rule:evenodd;fill:rgb(100%,100%,100%);fill-opacity:1;" d="M 356.03125 98.210938 C 358.449219 99.414062 359.863281 106.148438 359.597656 108.074219 C 359.117188 111.589844 357.832031 115.386719 356.910156 114.890625 C 355.910156 114.449219 357.113281 109.679688 356.632812 108.195312 C 356.097656 106.109375 352.796875 102.300781 353.144531 101.179688 C 352.460938 98.828125 354.546875 97.796875 356.03125 98.210938 Z M 356.03125 98.210938 "/>
<path style=" stroke:none;fill-rule:evenodd;fill:rgb(100%,100%,100%);fill-opacity:1;" d="M 176.261719 145.96875 C 178.574219 146.851562 179.933594 151.800781 179.675781 153.214844 C 179.214844 155.796875 177.988281 158.585938 177.105469 158.222656 C 176.144531 157.898438 177.296875 154.394531 176.835938 153.304688 C 176.640625 150.660156 173.429688 149.292969 173.5 148.148438 C 172.898438 146.050781 174.839844 145.664062 176.261719 145.96875 Z M 176.261719 145.96875 "/>
<path style=" stroke:none;fill-rule:evenodd;fill:rgb(10.588235%,61.568627%,0%);fill-opacity:1;" d="M 232.167969 153.402344 C 235.152344 153.589844 236.644531 155.933594 233.847656 156.917969 C 231.089844 157.859375 228.4375 158.597656 228.425781 162.585938 C 229.445312 168.140625 227.027344 166.234375 225.582031 165.480469 C 223.882812 164.257812 219.105469 161.320312 218.425781 154.96875 C 218.324219 153.453125 219.507812 152.179688 221.410156 152.1875 C 224.273438 152.964844 228.5 153.023438 232.167969 153.402344 Z M 232.167969 153.402344 "/>
<path style=" stroke:none;fill-rule:evenodd;fill:rgb(100%,100%,100%);fill-opacity:1;" d="M 114.421875 87.460938 C 117.835938 88.492188 118.035156 93.507812 117.785156 94.976562 C 117.328125 97.652344 116.121094 100.542969 115.253906 100.167969 C 114.308594 99.832031 115.214844 96.195312 114.761719 95.066406 C 114.253906 93.476562 111.371094 90.578125 111.699219 89.722656 C 111.054688 87.929688 113.023438 87.144531 114.421875 87.460938 Z M 114.421875 87.460938 "/>
<path style=" stroke:none;fill-rule:evenodd;fill:rgb(100%,100%,100%);fill-opacity:1;" d="M 181.835938 111.113281 C 179.21875 112.53125 178.203125 116.753906 179.832031 119.214844 C 181.355469 121.378906 183.761719 120.578125 184.082031 120.578125 C 186.648438 120.898438 188.171875 115.765625 188.171875 115.765625 C 188.171875 115.765625 188.253906 114.324219 185.203125 117.050781 C 183.921875 117.289062 183.761719 116.808594 183.441406 116.085938 C 183.175781 114.75 183.226562 113.414062 183.84375 112.078125 C 184.296875 110.796875 183.308594 110.234375 181.835938 111.113281 Z M 181.835938 111.113281 "/>
<path style=" stroke:none;fill-rule:evenodd;fill:rgb(100%,100%,100%);fill-opacity:1;" d="M 201.484375 85.519531 C 200.167969 86.402344 197.546875 89.117188 197.464844 92.246094 C 197.386719 94.007812 197.058594 94.003906 198.214844 95.125 C 199.046875 96.328125 199.890625 96.222656 201.574219 95.339844 C 202.542969 94.625 202.867188 94.152344 203.195312 92.957031 C 203.597656 90.953125 201.074219 93.910156 200.753906 91.679688 C 200.195312 89.605469 201.8125 88.757812 203.335938 86.753906 C 203.386719 85.382812 203.355469 84.410156 201.484375 85.519531 Z M 201.484375 85.519531 "/>
<path style=" stroke:none;fill-rule:evenodd;fill:rgb(100%,100%,100%);fill-opacity:1;" d="M 217.308594 88.332031 C 216.742188 89.585938 216.0625 96.132812 216.175781 96.132812 C 215.722656 98.085938 218.21875 98.917969 219.351562 96.410156 C 221.050781 91.816406 221.050781 89.863281 221.164062 87.914062 C 220.636719 84.945312 218.632812 85.039062 217.308594 88.332031 Z M 217.308594 88.332031 "/>
<path style=" stroke:none;fill-rule:evenodd;fill:rgb(100%,100%,100%);fill-opacity:1;" d="M 317.097656 139.113281 C 317.4375 138.773438 331.160156 129.019531 331.160156 129.019531 C 332.558594 128.53125 332.253906 134.046875 331.613281 134.011719 C 331.875 135.105469 318.082031 144.480469 317.097656 144.101562 C 316.417969 144.59375 315.734375 140.324219 317.097656 139.113281 Z M 317.097656 139.113281 "/>
<path style=" stroke:none;fill-rule:evenodd;fill:rgb(100%,100%,100%);fill-opacity:1;" d="M 329.605469 139.027344 C 332.023438 140.230469 332.988281 147.308594 332.722656 149.230469 C 332.808594 152.972656 330.390625 155.972656 329.46875 155.480469 C 328.464844 155.039062 329.554688 150.835938 329.074219 149.351562 C 328.539062 147.265625 326.484375 143.34375 326.832031 142.222656 C 326.152344 139.871094 328.121094 138.613281 329.605469 139.027344 Z M 329.605469 139.027344 "/>
<path style=" stroke:none;fill-rule:evenodd;fill:rgb(100%,100%,100%);fill-opacity:1;" d="M 247.996094 169.503906 C 248.949219 168.109375 251.898438 166.101562 251.964844 166.101562 C 253.324219 165.417969 254.652344 166.632812 254.570312 166.554688 C 254.796875 167.914062 253.710938 169.179688 254.050781 170.996094 C 254.347656 171.726562 254.566406 172.539062 255.90625 172.230469 C 258.085938 170.515625 260.105469 170.40625 262.28125 170.296875 C 263.953125 170.394531 264.019531 173.222656 262.960938 173.242188 C 258.941406 174.117188 257.136719 175.195312 254.265625 176.292969 C 252.902344 177.085938 251.738281 176.078125 251.738281 175.964844 C 251.738281 175.851562 250.941406 175.191406 251.496094 173.390625 C 251.59375 171.945312 251.011719 171.152344 249.808594 171.316406 C 248.902344 171.808594 248.101562 172.132812 247.648438 171.089844 C 247.46875 170.320312 247.414062 169.945312 247.996094 169.503906 Z M 247.996094 169.503906 "/>
<path style=" stroke:none;fill-rule:evenodd;fill:rgb(100%,100%,100%);fill-opacity:1;" d="M 344.042969 173.3125 C 344.628906 174.0625 345.007812 174.753906 343.996094 175.984375 C 343.03125 176.863281 342.355469 177.351562 341.390625 178.230469 C 340.9375 179.007812 340.648438 180.183594 342.035156 180.558594 C 344.601562 181.277344 350.535156 177.429688 350.535156 177.351562 C 351.5 176.628906 351.179688 175.265625 351.097656 175.265625 C 350.535156 174.625 349.273438 175.003906 348.421875 174.902344 C 348.015625 174.902344 346.6875 174.699219 347.320312 173.523438 C 347.847656 172.792969 348.035156 172.34375 348.394531 171.445312 C 348.796875 170.5625 348.453125 169.972656 347.007812 169.492188 C 345.539062 169.226562 344.949219 169.359375 343.320312 169.492188 C 342.4375 169.679688 342.136719 170.074219 341.976562 171.144531 C 342.039062 172.765625 343.027344 172.671875 344.042969 173.3125 Z M 344.042969 173.3125 "/>
<path style=" stroke:none;fill-rule:evenodd;fill:rgb(14.509804%,62.352941%,0%);fill-opacity:1;" d="M 248.519531 133.414062 C 248.144531 134.0625 246.871094 134.03125 245.679688 133.34375 C 244.484375 132.652344 243.824219 131.566406 244.199219 130.914062 C 244.578125 130.265625 245.847656 130.296875 247.042969 130.984375 C 248.234375 131.675781 248.894531 132.761719 248.519531 133.414062 Z M 248.519531 133.414062 "/>
<path style=" stroke:none;fill-rule:evenodd;fill:rgb(14.509804%,62.352941%,0%);fill-opacity:1;" d="M 185.890625 95.730469 C 185.179688 95.902344 184.246094 95.269531 183.808594 94.308594 C 183.375 93.351562 183.597656 92.433594 184.3125 92.257812 C 185.023438 92.085938 185.953125 92.71875 186.390625 93.679688 C 186.828125 94.636719 186.605469 95.554688 185.890625 95.730469 Z M 185.890625 95.730469 "/>
<path style=" stroke:none;fill-rule:evenodd;fill:rgb(12.54902%,56.470588%,0%);fill-opacity:1;" d="M 309.777344 263.652344 C 316.351562 263.972656 322.53125 263.726562 329.105469 264.046875 C 330.296875 265.058594 329.445312 267.546875 328.652344 267.367188 C 326.515625 267.3125 325.28125 267.261719 323.144531 267.207031 C 323.070312 265.113281 317.726562 265.457031 317.878906 267.273438 C 314.992188 267.621094 312.390625 267.171875 309.503906 267.066406 C 308.652344 266.003906 308.761719 264.089844 309.777344 263.652344 Z M 309.777344 263.652344 "/>
</g>
</svg>
