<?xml version="1.0" encoding="UTF-8"?>
<svg xmlns="http://www.w3.org/2000/svg" xmlns:xlink="http://www.w3.org/1999/xlink" width="623pt" height="360pt" viewBox="0 0 623 360" version="1.1">
<g id="surface1">
<path style=" stroke:none;fill-rule:nonzero;fill:rgb(100%,62.352941%,0%);fill-opacity:1;" d="M 14.832031 345.011719 L 608.167969 345.011719 L 608.167969 179.925781 L 311.46875 179.925781 Z M 14.832031 345.011719 "/>
<path style=" stroke:none;fill-rule:nonzero;fill:rgb(0.392157%,0.392157%,0.392157%);fill-opacity:1;" d="M 14.832031 14.839844 L 311.46875 179.925781 L 14.832031 345.011719 Z M 14.832031 14.839844 "/>
<path style=" stroke:none;fill-rule:nonzero;fill:rgb(100%,0.392157%,16.862745%);fill-opacity:1;" d="M 14.832031 14.839844 L 311.464844 179.925781 L 608.191406 179.925781 L 608.191406 14.839844 Z M 14.832031 14.839844 "/>
<path style=" stroke:none;fill-rule:nonzero;fill:rgb(100%,100%,100%);fill-opacity:1;" d="M 89.597656 212.097656 C 84.882812 209.535156 79.359375 208.351562 75.796875 204.066406 C 71.9375 201.089844 70.675781 196.226562 69.878906 191.898438 C 69.457031 186.992188 71.34375 181.382812 75.648438 178.746094 C 80.339844 175.847656 85.945312 175.121094 91.339844 175.746094 C 113.34375 175.527344 130.558594 175.476562 152.242188 174.664062 C 152.382812 169.675781 152.707031 165.046875 152.128906 162.753906 C 151.09375 158.855469 149.90625 153.027344 146.453125 151.710938 C 144.421875 156.199219 143.996094 161.488281 140.507812 165.242188 C 137.207031 168.863281 132.148438 171.121094 127.148438 171.007812 C 122.574219 171.378906 117.621094 170.128906 114.578125 166.714844 C 110 163.820312 108.527344 158.277344 108.765625 153.140625 C 108.914062 148.285156 110.269531 142.675781 114.613281 139.917969 C 118.292969 136.722656 122.652344 136.105469 127.023438 134.738281 C 132.230469 132.699219 138.015625 133.671875 143.265625 135.070312 C 148.605469 136.566406 153.539062 139.707031 157.320312 143.714844 C 160.515625 148.371094 164.339844 152.863281 165.28125 158.605469 C 167.164062 163.238281 166.609375 174.941406 166.609375 174.941406 L 175.726562 174.941406 L 175.726562 133.769531 L 189.847656 133.769531 L 189.847656 212.605469 L 175.726562 212.605469 L 175.714844 185.515625 L 164.980469 185.515625 C 164.980469 185.515625 164.382812 188.710938 162.8125 190.753906 C 159.558594 196.570312 154.257812 200.953125 149.054688 205.019531 C 145.207031 207.074219 141.84375 210.144531 137.503906 211.371094 C 132.800781 212.835938 128.230469 214.066406 123.441406 215.085938 C 118.730469 215.347656 113.980469 216.113281 109.148438 215.792969 C 102.425781 215.949219 95.371094 213.671875 89.59375 212.09375 Z M 120.847656 203.246094 C 125.574219 202.117188 130.394531 201.199219 134.75 198.875 C 139.640625 195.769531 147.3125 190.949219 150.304688 185.761719 C 150.367188 185.710938 121.625 186.558594 109.796875 186.792969 C 104.648438 186.523438 99.574219 187.191406 94.328125 187.117188 C 90.976562 188.070312 80.210938 185.582031 83.84375 191.84375 C 86.875 195.296875 91.136719 197.375 95.199219 199.484375 C 101.058594 201.96875 107.230469 204.042969 113.691406 203.652344 C 116.078125 203.644531 118.492188 203.660156 120.847656 203.246094 Z M 128.386719 158.507812 C 133.339844 156.984375 133.285156 149.566406 128.039062 148.453125 C 122.546875 146.398438 118.054688 155.773438 123.785156 158.160156 C 125.023438 159.296875 126.921875 158.855469 128.390625 158.507812 Z M 128.386719 158.507812 "/>
</g>
</svg>
