<?xml version="1.0" encoding="UTF-8"?>
<svg xmlns="http://www.w3.org/2000/svg" xmlns:xlink="http://www.w3.org/1999/xlink" width="480pt" height="360pt" viewBox="0 0 480 360" version="1.1">
<g id="surface1">
<path style=" stroke:none;fill-rule:evenodd;fill:rgb(100%,90.588235%,0%);fill-opacity:1;" d="M -30 240.019531 L 510 240.019531 L 510 300.011719 L -30 300.011719 Z M -30 240.019531 "/>
<path style=" stroke:none;fill-rule:evenodd;fill:rgb(0%,0%,0%);fill-opacity:1;" d="M -30 180 L 510 180 L 510 239.992188 L -30 239.992188 Z M -30 180 "/>
<path style=" stroke:none;fill-rule:evenodd;fill:rgb(87.058824%,22.352941%,3.137255%);fill-opacity:1;" d="M -30 120.007812 L 510 120.007812 L 510 180 L -30 180 Z M -30 120.007812 "/>
<path style=" stroke:none;fill-rule:evenodd;fill:rgb(100%,90.588235%,0%);fill-opacity:1;" d="M -30 60.015625 L 510 60.015625 L 510 120.007812 L -30 120.007812 Z M -30 60.015625 "/>
<path style=" stroke:none;fill-rule:evenodd;fill:rgb(0%,0%,0%);fill-opacity:1;" d="M -30 0 L 510 0 L 510 59.992188 L -30 59.992188 Z M -30 0 "/>
<path style="fill-rule:evenodd;fill:rgb(100%,99.215686%,100%);fill-opacity:1;stroke-width:1.333375;stroke-linecap:butt;stroke-linejoin:miter;stroke:rgb(0%,0%,0%);stroke-opacity:1;stroke-miterlimit:4;" d="M 505.002613 232.306049 C 505.002613 295.82628 453.513154 347.307724 390.000938 347.307724 C 326.488722 347.307724 274.999263 295.82628 274.999263 232.306049 C 274.999263 168.793833 326.488722 117.312389 390.000938 117.312389 C 453.513154 117.312389 505.002613 168.793833 505.002613 232.306049 Z M 505.002613 232.306049 " transform="matrix(0.487357,0,0,0.487357,49.930301,66.780107)"/>
<path style="fill-rule:evenodd;fill:rgb(87.058824%,19.215686%,3.137255%);fill-opacity:1;stroke-width:1.333375;stroke-linecap:butt;stroke-linejoin:miter;stroke:rgb(0%,0%,0%);stroke-opacity:1;stroke-miterlimit:4;" d="M 374.706525 141.647182 L 367.2444 127.901164 C 370.121847 125.015702 374.971025 122.787484 382.69765 122.787484 C 382.69765 123.316486 381.912163 137.856006 381.912163 137.856006 Z M 374.706525 141.647182 " transform="matrix(0.487357,0,0,0.487357,47.493516,67.9985)"/>
<path style="fill-rule:evenodd;fill:rgb(100%,90.588235%,0%);fill-opacity:1;stroke-width:1.333375;stroke-linecap:butt;stroke-linejoin:miter;stroke:rgb(0%,0%,0%);stroke-opacity:1;stroke-miterlimit:4;" d="M 381.912163 137.992264 L 382.954136 122.7955 C 382.954136 122.7955 398.415401 121.88177 406.791254 131.964855 C 406.927512 131.836613 398.543643 143.755172 398.543643 143.755172 Z M 381.912163 137.992264 " transform="matrix(0.487357,0,0,0.487357,47.493516,67.9985)"/>
<path style="fill-rule:evenodd;fill:rgb(87.058824%,19.215686%,3.137255%);fill-opacity:1;stroke-width:1.333375;stroke-linecap:butt;stroke-linejoin:miter;stroke:rgb(0%,0%,0%);stroke-opacity:1;stroke-miterlimit:4;" d="M 398.808144 143.618914 L 406.406526 131.836613 C 411.51219 137.206777 413.612165 140.997953 414.397652 146.760861 C 414.525895 146.897119 402.342835 149.774566 402.342835 149.646323 C 402.342835 149.510065 398.944402 143.747157 398.808144 143.618914 Z M 398.808144 143.618914 " transform="matrix(0.487357,0,0,0.487357,47.493516,67.9985)"/>
<path style="fill-rule:evenodd;fill:rgb(0%,0%,0%);fill-opacity:1;stroke-width:1.3333;stroke-linecap:round;stroke-linejoin:round;stroke:rgb(0%,0%,0%);stroke-opacity:1;stroke-miterlimit:4;" d="M 378.513731 338.243299 C 378.513731 338.243299 392.788751 321.868305 420.553303 325.402995 C 416.361369 318.5901 402.871836 319.383602 402.871836 319.383602 C 402.871836 319.383602 398.679901 287.555357 401.950091 285.984384 C 405.228296 284.41341 419.110572 286.112626 419.110572 286.112626 C 420.946047 286.112626 424.087994 281.135205 421.603291 277.993258 C 419.110572 274.851311 411.776691 262.796493 414.790395 260.440033 C 417.8041 258.083573 434.171079 261.754521 434.171079 261.754521 L 387.939572 202.554467 C 387.939572 202.554467 383.226651 180.288322 392.652493 169.547993 C 404.050066 160.114136 402.871836 149.902808 402.479092 150.031051 C 400.908119 139.683465 385.190368 132.221341 374.578282 141.78344 C 368.294388 149.381822 372.486322 155.14473 372.486322 155.14473 C 372.486322 155.14473 355.983085 159.59315 355.325841 162.478612 C 354.676612 165.356058 373.929053 161.94961 373.929053 161.94961 L 372.093579 175.182658 C 372.093579 175.182658 334.630669 209.231105 363.316966 238.702889 C 363.581467 238.566631 364.230696 237.388401 364.230696 237.388401 C 364.230696 237.388401 374.321796 249.835962 384.925868 252.585165 C 394.88071 262.796493 393.966981 261.22552 393.966981 261.22552 C 393.966981 261.22552 395.930698 277.336014 394.095223 280.477961 C 391.61052 279.692474 366.202428 278.778745 362.403237 280.221475 C 358.996789 281.263448 345.9 280.614219 349.170189 301.95862 C 351.662908 296.195712 353.88311 291.090048 353.88311 291.090048 C 353.88311 291.090048 353.490367 298.816672 356.640329 301.565876 C 356.111328 293.446508 359.646018 287.9481 359.646018 287.9481 C 359.646018 287.9481 360.303262 296.852956 362.266979 298.159428 C 364.230696 299.473916 364.230696 283.756166 375.107283 285.062639 C 385.975855 286.377127 393.830723 285.984384 393.830723 285.984384 C 393.830723 285.984384 397.501671 316.762641 396.323441 319.640087 C 388.460558 317.804613 369.737118 320.425574 368.558888 325.14651 C 379.555703 324.489266 384.669382 325.795738 384.669382 325.795738 C 384.669382 325.795738 375.756512 333.658621 378.513731 338.243299 Z M 378.513731 338.243299 " transform="matrix(0.487357,0,0,0.487357,47.493516,67.9985)"/>
<path style="fill-rule:evenodd;fill:rgb(61.176471%,65.098039%,61.176471%);fill-opacity:1;stroke-width:1.3333;stroke-linecap:round;stroke-linejoin:round;stroke:rgb(61.176471%,65.098039%,61.176471%);stroke-opacity:1;stroke-miterlimit:4;" d="M 382.922075 170.301419 C 382.922075 170.301419 355.662478 200.34228 367.420734 223.329791 C 368.045917 220.123722 367.773401 218.111915 368.166145 218.240157 C 367.516916 217.847414 371.548547 221.005391 371.243971 220.396238 C 371.324122 218.729083 370.009634 215.170347 370.009634 215.170347 C 371.243971 215.474923 372.470292 215.787515 373.704628 216.092091 C 372.983263 214.761573 372.269912 213.431055 371.548547 212.092521 C 373.287839 212.300915 375.035147 212.501295 376.774439 212.709689 C 376.774439 212.709689 374.930949 207.796389 375.548117 207.796389 C 376.15727 207.796389 379.844249 208.100966 379.844249 208.100966 C 372.093579 194.186629 379.41143 182.636767 382.922075 170.301419 Z M 382.922075 170.301419 " transform="matrix(0.487357,0,0,0.487357,47.493516,67.9985)"/>
<path style="fill-rule:evenodd;fill:rgb(61.176471%,65.098039%,61.176471%);fill-opacity:1;stroke-width:1.333375;stroke-linecap:butt;stroke-linejoin:miter;stroke:rgb(61.176471%,65.098039%,61.176471%);stroke-opacity:1;stroke-miterlimit:4;" d="M 392.387992 144.532644 C 392.387992 144.532644 393.830723 154.88023 388.196057 157.885919 C 387.282328 158.543163 383.747638 159.721393 384.268624 161.821368 C 384.925868 164.698814 386.496841 164.177828 388.725059 163.648827 C 394.61621 162.606855 401.429105 150.031051 392.387992 144.532644 Z M 392.387992 144.532644 " transform="matrix(0.487357,0,0,0.487357,47.493516,67.9985)"/>
<path style=" stroke:none;fill-rule:evenodd;fill:rgb(100%,100%,100%);fill-opacity:1;" d="M 233.816406 142.777344 C 233.816406 143.378906 233.328125 143.863281 232.730469 143.863281 C 232.128906 143.863281 231.644531 143.378906 231.644531 142.777344 C 231.644531 142.179688 232.128906 141.695312 232.730469 141.695312 C 233.328125 141.695312 233.816406 142.179688 233.816406 142.777344 Z M 233.816406 142.777344 "/>
<path style="fill-rule:evenodd;fill:rgb(87.058824%,19.215686%,3.137255%);fill-opacity:1;stroke-width:1.333375;stroke-linecap:butt;stroke-linejoin:miter;stroke:rgb(0%,0%,0%);stroke-opacity:1;stroke-miterlimit:4;" d="M 373.528294 162.077853 C 372.085564 163.256083 364.495197 171.118966 371.957321 173.996413 C 379.683946 171.904453 377.591986 170.461722 379.291202 168.762506 C 379.339293 165.227815 375.451935 164.306071 373.528294 162.077853 Z M 373.528294 162.077853 " transform="matrix(0.487357,0,0,0.487357,47.493516,67.9985)"/>
<path style="fill-rule:evenodd;fill:rgb(61.176471%,65.098039%,61.176471%);fill-opacity:1;stroke-width:1.3333;stroke-linecap:round;stroke-linejoin:round;stroke:rgb(61.176471%,65.098039%,61.176471%);stroke-opacity:1;stroke-miterlimit:4;" d="M 390.031532 236.346429 C 389.638788 238.05366 387.931557 244.337554 390.288017 249.186733 C 396.844427 246.437529 399.850116 247.223016 402.078334 248.657732 C 396.708169 244.337554 394.61621 242.50208 390.031532 236.346429 Z M 390.031532 236.346429 " transform="matrix(0.487357,0,0,0.487357,47.493516,67.9985)"/>
<path style="fill-rule:evenodd;fill:rgb(100%,100%,100%);fill-opacity:1;stroke-width:1.3333;stroke-linecap:round;stroke-linejoin:round;stroke:rgb(100%,100%,100%);stroke-opacity:1;stroke-miterlimit:4;" d="M 401.300862 266.082714 L 401.693606 280.750477 C 401.693606 280.750477 406.79927 281.664206 409.15573 280.750477 C 411.51219 279.828732 409.027487 270.531134 401.300862 266.082714 Z M 401.300862 266.082714 " transform="matrix(0.487357,0,0,0.487357,47.493516,67.9985)"/>
<path style="fill-rule:evenodd;fill:rgb(61.176471%,65.098039%,61.176471%);fill-opacity:1;stroke-width:1.333375;stroke-linecap:butt;stroke-linejoin:miter;stroke:rgb(0%,0%,0%);stroke-opacity:1;stroke-miterlimit:4;" d="M 438.363014 267.910173 C 438.363014 267.910173 428.929157 245.123041 404.827538 239.360133 C 380.733933 233.597225 383.87588 207.924632 385.839597 206.353658 C 386.889585 204.125441 387.675071 200.718993 394.61621 203.997198 C 401.557348 207.267388 433.513835 223.377882 438.098513 224.163369 C 442.683191 224.948855 438.755757 268.431159 438.363014 267.910173 Z M 438.363014 267.910173 " transform="matrix(0.487357,0,0,0.487357,47.493516,67.9985)"/>
<path style="fill-rule:evenodd;fill:rgb(87.058824%,19.215686%,3.137255%);fill-opacity:1;stroke-width:1.3333;stroke-linecap:butt;stroke-linejoin:round;stroke:rgb(0%,0%,0%);stroke-opacity:1;stroke-miterlimit:4;" d="M 415.439624 239.23189 C 415.046881 239.488376 447.660612 258.484331 437.834012 274.851311 C 447.139626 268.695659 444.125922 257.95533 444.125922 257.95533 C 444.125922 257.95533 451.716289 277.736772 433.249334 287.427114 C 435.213051 289.134346 436.527539 288.733587 436.527539 288.733587 L 433.385592 291.883549 C 433.385592 291.883549 431.942861 294.24001 444.382407 288.212601 C 440.975959 290.961805 440.719474 292.925522 440.719474 292.925522 C 440.719474 292.925522 441.633203 295.546483 449.752572 288.477102 C 443.204177 295.546483 441.761446 299.217431 441.761446 299.081173 C 459.442914 297.5102 497.955811 240.017377 429.586401 222.985139 C 433.249334 226.78433 432.728348 226.263344 432.728348 226.263344 Z M 415.439624 239.23189 " transform="matrix(0.487357,0,0,0.487357,47.493516,67.9985)"/>
<path style="fill-rule:evenodd;fill:rgb(100%,100%,100%);fill-opacity:1;stroke-width:1.3333;stroke-linecap:round;stroke-linejoin:round;stroke:rgb(0%,0%,0%);stroke-opacity:1;stroke-miterlimit:4;" d="M 416.882355 233.597225 C 421.330775 236.739172 422.901748 237.78916 423.43075 239.360133 C 419.367058 238.446404 415.704125 238.710904 415.704125 238.710904 C 415.704125 238.710904 406.927512 230.327035 405.356539 229.669791 C 404.178309 229.669791 397.365413 225.349614 397.365413 225.349614 C 393.958966 223.642383 390.817018 211.860081 403.392822 215.266529 C 416.353354 221.42218 418.188828 221.943166 418.188828 221.943166 C 423.342583 223.562231 428.488323 225.17328 433.642078 226.792345 C 436.615706 230.110626 439.58132 233.428907 442.546933 236.747187 C 442.546933 236.747187 426.70094 228.884304 424.737223 228.756062 C 429.0574 232.290752 431.550118 237.139931 431.550118 237.139931 C 426.524606 235.6972 422.164353 234.382712 416.882355 233.597225 Z M 416.882355 233.597225 " transform="matrix(0.487357,0,0,0.487357,47.493516,67.9985)"/>
<path style="fill:none;stroke-width:1.3333;stroke-linecap:round;stroke-linejoin:miter;stroke:rgb(100%,100%,100%);stroke-opacity:1;stroke-miterlimit:4;" d="M 355.197598 163.256083 C 355.197598 163.256083 370.394362 159.59315 372.229837 160.114136 " transform="matrix(0.487357,0,0,0.487357,47.493516,67.9985)"/>
<path style=" stroke:none;fill-rule:evenodd;fill:rgb(87.058824%,22.352941%,3.137255%);fill-opacity:1;" d="M -30 300.007812 L 510 300.007812 L 510 360 L -30 360 Z M -30 300.007812 "/>
</g>
</svg>
