<?xml version="1.0" encoding="UTF-8"?>
<svg xmlns="http://www.w3.org/2000/svg" xmlns:xlink="http://www.w3.org/1999/xlink" width="480pt" height="360pt" viewBox="0 0 480 360" version="1.1">
<defs>
<linearGradient id="linear0" gradientUnits="userSpaceOnUse" x1="103.08" y1="111.28" x2="92.551" y2="107.76" gradientTransform="matrix(0.64274,0,0,1.4534,-94.683,29.21)">
<stop offset="0" style="stop-color:rgb(100%,0%,0%);stop-opacity:1;"/>
<stop offset="1" style="stop-color:rgb(100%,100%,0%);stop-opacity:1;"/>
</linearGradient>
<linearGradient id="linear1" gradientUnits="userSpaceOnUse" x1="103.08" y1="111.28" x2="92.551" y2="107.76" gradientTransform="matrix(0.64274,0,0,1.4534,-94.666,30.155)">
<stop offset="0" style="stop-color:rgb(100%,0%,0%);stop-opacity:1;"/>
<stop offset="1" style="stop-color:rgb(100%,100%,0%);stop-opacity:1;"/>
</linearGradient>
<linearGradient id="linear2" gradientUnits="userSpaceOnUse" x1="103.08" y1="111.28" x2="92.551" y2="107.76" gradientTransform="matrix(0.64274,0,0,1.4534,-97.986,31.014)">
<stop offset="0" style="stop-color:rgb(100%,0%,0%);stop-opacity:1;"/>
<stop offset="1" style="stop-color:rgb(100%,100%,0%);stop-opacity:1;"/>
</linearGradient>
<linearGradient id="linear3" gradientUnits="userSpaceOnUse" x1="103.08" y1="111.28" x2="92.551" y2="107.76" gradientTransform="matrix(0.64274,0,0,1.4534,-94.743,31.932)">
<stop offset="0" style="stop-color:rgb(100%,0%,0%);stop-opacity:1;"/>
<stop offset="1" style="stop-color:rgb(100%,100%,0%);stop-opacity:1;"/>
</linearGradient>
<linearGradient id="linear4" gradientUnits="userSpaceOnUse" x1="103.08" y1="111.28" x2="92.551" y2="107.76" gradientTransform="matrix(0.64274,0,0,1.4534,-94.75,32.835)">
<stop offset="0" style="stop-color:rgb(100%,0%,0%);stop-opacity:1;"/>
<stop offset="1" style="stop-color:rgb(100%,100%,0%);stop-opacity:1;"/>
</linearGradient>
<linearGradient id="linear5" gradientUnits="userSpaceOnUse" x1="103.08" y1="111.28" x2="92.551" y2="107.76" gradientTransform="matrix(0.64274,0,0,1.4534,-94.767,33.751)">
<stop offset="0" style="stop-color:rgb(100%,0%,0%);stop-opacity:1;"/>
<stop offset="1" style="stop-color:rgb(100%,100%,0%);stop-opacity:1;"/>
</linearGradient>
<linearGradient id="linear6" gradientUnits="userSpaceOnUse" x1="103.08" y1="111.28" x2="92.551" y2="107.76" gradientTransform="matrix(0.64274,0,0,1.4534,-98.011,33.736)">
<stop offset="0" style="stop-color:rgb(100%,0%,0%);stop-opacity:1;"/>
<stop offset="1" style="stop-color:rgb(100%,100%,0%);stop-opacity:1;"/>
</linearGradient>
<linearGradient id="linear7" gradientUnits="userSpaceOnUse" x1="103.08" y1="111.28" x2="92.551" y2="107.76" gradientTransform="matrix(0.64274,0,0,1.4534,-97.981,32.837)">
<stop offset="0" style="stop-color:rgb(100%,0%,0%);stop-opacity:1;"/>
<stop offset="1" style="stop-color:rgb(100%,100%,0%);stop-opacity:1;"/>
</linearGradient>
<linearGradient id="linear8" gradientUnits="userSpaceOnUse" x1="103.08" y1="111.28" x2="92.551" y2="107.76" gradientTransform="matrix(0.64274,0,0,1.4534,-97.942,31.918)">
<stop offset="0" style="stop-color:rgb(100%,0%,0%);stop-opacity:1;"/>
<stop offset="1" style="stop-color:rgb(100%,100%,0%);stop-opacity:1;"/>
</linearGradient>
<linearGradient id="linear9" gradientUnits="userSpaceOnUse" x1="103.08" y1="111.28" x2="92.551" y2="107.76" gradientTransform="matrix(0.8281,0,0,1.8726,602.82,148.17)">
<stop offset="0" style="stop-color:rgb(100%,0%,0%);stop-opacity:1;"/>
<stop offset="1" style="stop-color:rgb(100%,100%,0%);stop-opacity:1;"/>
</linearGradient>
<linearGradient id="linear10" gradientUnits="userSpaceOnUse" x1="103.08" y1="111.28" x2="92.551" y2="107.76" gradientTransform="matrix(0.64274,0,0,1.4534,-97.976,30.11)">
<stop offset="0" style="stop-color:rgb(100%,0%,0%);stop-opacity:1;"/>
<stop offset="1" style="stop-color:rgb(100%,100%,0%);stop-opacity:1;"/>
</linearGradient>
<linearGradient id="linear11" gradientUnits="userSpaceOnUse" x1="103.08" y1="111.28" x2="92.551" y2="107.76" gradientTransform="matrix(0.64274,0,0,1.4534,-95.336,30.955)">
<stop offset="0" style="stop-color:rgb(100%,0%,0%);stop-opacity:1;"/>
<stop offset="1" style="stop-color:rgb(100%,100%,0%);stop-opacity:1;"/>
</linearGradient>
</defs>
<g id="surface1">
<rect x="0" y="0" width="480" height="360" style="fill:rgb(0%,0%,40%);fill-opacity:1;stroke:none;"/>
<path style=" stroke:none;fill-rule:evenodd;fill:rgb(0%,0%,40%);fill-opacity:1;" d="M 0 0 L 262.5 0 L 262.5 131.25 L 0 131.25 Z M 0 0 "/>
<path style=" stroke:none;fill-rule:nonzero;fill:rgb(100%,100%,100%);fill-opacity:1;" d="M 0 0 L 0 14.675781 L 233.152344 131.25 L 262.5 131.25 L 262.5 116.578125 L 29.347656 0 Z M 262.5 0 L 262.5 14.671875 L 29.347656 131.25 L 0 131.25 L 0 116.578125 L 233.152344 0 Z M 262.5 0 "/>
<path style=" stroke:none;fill-rule:nonzero;fill:rgb(100%,100%,100%);fill-opacity:1;" d="M 109.375 0 L 109.375 131.25 L 153.125 131.25 L 153.125 0 Z M 0 43.75 L 0 87.5 L 262.5 87.5 L 262.5 43.75 Z M 0 43.75 "/>
<path style=" stroke:none;fill-rule:nonzero;fill:rgb(80%,0%,0%);fill-opacity:1;" d="M 0 52.5 L 0 78.75 L 262.5 78.75 L 262.5 52.5 Z M 118.125 0 L 118.125 131.25 L 144.375 131.25 L 144.375 0 Z M 118.125 0 "/>
<path style=" stroke:none;fill-rule:nonzero;fill:rgb(80%,0%,0%);fill-opacity:1;" d="M 0 131.25 L 87.5 87.5 L 107.066406 87.5 L 19.566406 131.25 Z M 0 0 L 87.5 43.75 L 67.933594 43.75 L 0 9.78125 Z M 155.4375 43.75 L 242.9375 0 L 262.5 0 L 175 43.75 Z M 262.5 131.25 L 175 87.5 L 194.566406 87.5 L 262.5 121.46875 Z M 262.5 131.25 "/>
<path style=" stroke:none;fill-rule:evenodd;fill:rgb(100%,100%,100%);fill-opacity:1;" d="M 283.855469 115.84375 L 448.363281 115.230469 L 448.058594 261.730469 C 448.058594 261.730469 453.855469 284.011719 379.082031 317.890625 C 405.941406 315.140625 435.238281 286.453125 435.238281 286.453125 C 435.238281 286.453125 447.140625 271.195312 452.941406 279.738281 C 458.738281 288.285156 464.234375 292.558594 468.503906 295.914062 C 472.777344 299.273438 476.136719 308.429688 469.726562 315.140625 C 463.316406 321.855469 453.246094 322.773438 450.5 314.53125 C 446.226562 316.667969 419.980469 348.410156 366.265625 349.933594 C 311.636719 349.019531 281.726562 314.226562 281.726562 314.226562 C 281.726562 314.226562 274.402344 325.824219 264.023438 316.667969 C 253.953125 304.765625 261.582031 297.136719 261.582031 297.136719 C 261.582031 297.136719 270.128906 292.253906 272.570312 288.894531 C 276.539062 284.316406 277.757812 278.210938 284.472656 278.210938 C 292.410156 278.824219 295.460938 285.230469 295.460938 285.230469 C 295.460938 285.230469 322.929688 314.226562 352.53125 317.890625 C 285.695312 285.84375 283.25 266.003906 283.558594 261.121094 L 283.863281 115.847656 Z M 283.855469 115.84375 "/>
<path style="fill-rule:evenodd;fill:rgb(0%,38.039216%,16.078431%);fill-opacity:1;stroke-width:1.568875;stroke-linecap:butt;stroke-linejoin:miter;stroke:rgb(0%,0%,0%);stroke-opacity:1;stroke-miterlimit:4;" d="M 667.560075 128.09137 L 871.321846 126.89901 L 871.321846 310.050698 C 871.717608 333.837027 831.674582 358.019118 769.037587 388.939316 C 704.431929 355.639471 667.169386 335.420076 666.76855 309.66001 L 667.565149 128.101518 Z M 667.560075 128.09137 " transform="matrix(0.769875,0,0,0.769875,-226.1175,21.19425)"/>
<path style="fill:none;stroke-width:1.217737;stroke-linecap:butt;stroke-linejoin:miter;stroke:rgb(96.862745%,77.647059%,0%);stroke-opacity:1;stroke-miterlimit:4;" d="M 69.785641 170.529106 L 79.122927 156.820505 L 88.503532 170.560611 " transform="matrix(0.991907,0,0,0.991907,237.462731,106.026776)"/>
<path style="fill-rule:evenodd;fill:rgb(96.862745%,77.647059%,0%);fill-opacity:1;stroke-width:0.56016;stroke-linecap:butt;stroke-linejoin:miter;stroke:rgb(0%,0%,0%);stroke-opacity:1;stroke-miterlimit:4;" d="M 80.922514 156.719442 C 80.922514 157.661403 80.158077 158.42584 79.216116 158.42584 C 78.274155 158.42584 77.509717 157.661403 77.509717 156.719442 C 77.509717 155.777481 78.274155 155.013043 79.216116 155.013043 C 80.158077 155.013043 80.922514 155.777481 80.922514 156.719442 Z M 80.922514 156.719442 " transform="matrix(1.078203,0,0,1.078203,230.553802,101.110588)"/>
<path style="fill-rule:evenodd;fill:rgb(96.862745%,77.647059%,0%);fill-opacity:1;stroke-width:0.60887;stroke-linecap:butt;stroke-linejoin:miter;stroke:rgb(0%,0%,0%);stroke-opacity:1;stroke-miterlimit:4;" d="M 71.542043 180.661892 L 86.01464 180.701273 C 86.01464 180.701273 86.239112 178.822789 84.502401 177.680734 C 92.083285 176.637132 90.114224 169.95414 96.462476 169.572142 C 97.695108 169.761172 93.146577 172.415466 93.146577 172.415466 C 93.146577 172.415466 89.318723 175.117017 91.059373 176.491421 C 92.445592 177.582281 93.052062 175.825879 93.241092 174.50267 C 93.430122 173.175523 99.400314 172.320951 98.545742 168.532478 C 97.12408 165.40561 88.787077 170.615744 88.787077 170.615744 L 82.836576 170.584239 C 82.466392 169.914759 80.828134 167.236836 79.134741 167.225022 C 77.126299 167.299846 75.712514 170.615744 75.712514 170.615744 L 62.255953 170.615744 C 62.255953 170.615744 61.795193 174.069477 68.616019 174.731081 C 70.151886 176.735585 71.345137 177.298736 72.68016 177.818568 C 71.790145 178.558935 71.538105 179.456827 71.542043 180.661892 Z M 71.542043 180.661892 " transform="matrix(0.991907,0,0,0.991907,237.462731,106.026776)"/>
<path style="fill:none;stroke-width:0.60887;stroke-linecap:butt;stroke-linejoin:miter;stroke:rgb(0%,0%,0%);stroke-opacity:1;stroke-miterlimit:4;" d="M 72.581707 177.720115 L 84.636297 177.680734 " transform="matrix(0.991907,0,0,0.991907,237.462731,106.026776)"/>
<path style="fill:none;stroke-width:0.60887;stroke-linecap:butt;stroke-linejoin:miter;stroke:rgb(0%,0%,0%);stroke-opacity:1;stroke-miterlimit:4;" d="M 67.060461 170.611806 C 67.060461 170.611806 68.025301 176.247258 72.479316 177.582281 " transform="matrix(0.991907,0,0,0.991907,237.462731,106.026776)"/>
<path style="fill-rule:evenodd;fill:url(#linear0);stroke-width:0.60887;stroke-linecap:butt;stroke-linejoin:miter;stroke:rgb(0%,0%,0%);stroke-opacity:1;stroke-miterlimit:4;" d="M 66.320094 170.54092 C 66.765102 168.386768 67.580293 168.016584 68.470309 165.271713 C 68.619957 162.601667 66.320094 162.900964 66.985637 161.19182 C 68.17495 159.336965 67.580293 157.556934 65.355255 156.147086 C 65.800262 158.596598 62.460735 160.896461 62.460735 162.900964 C 62.460735 164.90153 64.16988 164.456522 63.945407 167.496752 C 64.095056 169.280721 63.500399 168.835713 63.350751 170.54092 Z M 66.320094 170.54092 " transform="matrix(0.991907,0,0,0.991907,237.462731,106.026776)"/>
<path style="fill-rule:evenodd;fill:rgb(96.862745%,77.647059%,0%);fill-opacity:1;stroke-width:0.60887;stroke-linecap:butt;stroke-linejoin:miter;stroke:rgb(0%,0%,0%);stroke-opacity:1;stroke-miterlimit:4;" d="M 80.92201 156.718052 C 80.92201 157.663201 80.158015 158.427196 79.216804 158.427196 C 78.275593 158.427196 77.511597 157.663201 77.511597 156.718052 C 77.511597 155.77684 78.275593 155.012845 79.216804 155.012845 C 80.158015 155.012845 80.92201 155.77684 80.92201 156.718052 Z M 80.92201 156.718052 " transform="matrix(0.991907,0,0,0.991907,237.389146,106.468244)"/>
<path style="fill:none;stroke-width:1.217737;stroke-linecap:butt;stroke-linejoin:miter;stroke:rgb(96.862745%,77.647059%,0%);stroke-opacity:1;stroke-miterlimit:4;" d="M 69.785719 170.528801 L 79.123005 156.8202 L 88.50361 170.560306 " transform="matrix(0.991907,0,0,0.991907,236.939216,78.034891)"/>
<path style="fill-rule:evenodd;fill:rgb(96.862745%,77.647059%,0%);fill-opacity:1;stroke-width:0.56016;stroke-linecap:butt;stroke-linejoin:miter;stroke:rgb(0%,0%,0%);stroke-opacity:1;stroke-miterlimit:4;" d="M 80.922586 156.719161 C 80.922586 157.661122 80.158148 158.42556 79.216187 158.42556 C 78.274227 158.42556 77.509789 157.661122 77.509789 156.719161 C 77.509789 155.777201 78.274227 155.012763 79.216187 155.012763 C 80.158148 155.012763 80.922586 155.777201 80.922586 156.719161 Z M 80.922586 156.719161 " transform="matrix(1.078203,0,0,1.078203,230.030287,73.118703)"/>
<path style="fill-rule:evenodd;fill:rgb(96.862745%,77.647059%,0%);fill-opacity:1;stroke-width:0.60887;stroke-linecap:butt;stroke-linejoin:miter;stroke:rgb(0%,0%,0%);stroke-opacity:1;stroke-miterlimit:4;" d="M 71.542121 180.661587 L 86.014718 180.700968 C 86.014718 180.700968 86.239191 178.822484 84.502479 177.680429 C 92.083363 176.640765 90.114302 169.953835 96.462554 169.571837 C 97.695186 169.764805 93.146656 172.415161 93.146656 172.415161 C 93.146656 172.415161 89.318802 175.116712 91.059451 176.491117 C 92.44567 177.581976 93.052141 175.825574 93.24117 174.502365 C 93.4302 173.175218 99.400392 172.320646 98.54582 168.532173 C 97.124158 165.405305 88.787155 170.615439 88.787155 170.615439 L 82.836654 170.583934 C 82.46647 169.914454 80.828212 167.236531 79.13482 167.224717 C 77.126378 167.299541 75.712592 170.615439 75.712592 170.615439 L 62.256031 170.615439 C 62.256031 170.615439 61.795271 174.069172 68.616097 174.730776 C 70.151965 176.739218 71.345215 177.298431 72.680239 177.818263 C 71.790223 178.55863 71.538183 179.456522 71.542121 180.661587 Z M 71.542121 180.661587 " transform="matrix(0.991907,0,0,0.991907,236.939216,78.034891)"/>
<path style="fill:none;stroke-width:0.60887;stroke-linecap:butt;stroke-linejoin:miter;stroke:rgb(0%,0%,0%);stroke-opacity:1;stroke-miterlimit:4;" d="M 72.581786 177.71981 L 84.636375 177.680429 " transform="matrix(0.991907,0,0,0.991907,236.939216,78.034891)"/>
<path style="fill:none;stroke-width:0.60887;stroke-linecap:butt;stroke-linejoin:miter;stroke:rgb(0%,0%,0%);stroke-opacity:1;stroke-miterlimit:4;" d="M 67.060539 170.611501 C 67.060539 170.611501 68.025379 176.246953 72.475456 177.581976 " transform="matrix(0.991907,0,0,0.991907,236.939216,78.034891)"/>
<path style="fill-rule:evenodd;fill:url(#linear1);stroke-width:0.60887;stroke-linecap:butt;stroke-linejoin:miter;stroke:rgb(0%,0%,0%);stroke-opacity:1;stroke-miterlimit:4;" d="M 66.320172 170.540615 C 66.76518 168.390401 67.580371 168.016279 68.470387 165.271409 C 68.620035 162.601362 66.320172 162.90066 66.985715 161.191515 C 68.175028 159.33666 67.580371 157.556629 65.355333 156.146781 C 65.80034 158.596293 62.460813 160.896156 62.460813 162.90066 C 62.460813 164.901225 64.169958 164.456218 63.945485 167.500385 C 64.095134 169.280416 63.500478 168.835409 63.350829 170.540615 Z M 66.320172 170.540615 " transform="matrix(0.991907,0,0,0.991907,236.939216,78.034891)"/>
<path style="fill-rule:evenodd;fill:rgb(96.862745%,77.647059%,0%);fill-opacity:1;stroke-width:0.60887;stroke-linecap:butt;stroke-linejoin:miter;stroke:rgb(0%,0%,0%);stroke-opacity:1;stroke-miterlimit:4;" d="M 80.922088 156.721685 C 80.922088 157.662896 80.158093 158.426891 79.216882 158.426891 C 78.275671 158.426891 77.511675 157.662896 77.511675 156.721685 C 77.511675 155.776536 78.275671 155.01254 79.216882 155.01254 C 80.158093 155.01254 80.922088 155.776536 80.922088 156.721685 Z M 80.922088 156.721685 " transform="matrix(0.991907,0,0,0.991907,236.865631,78.476359)"/>
<path style="fill:none;stroke-width:1.217737;stroke-linecap:butt;stroke-linejoin:miter;stroke:rgb(96.862745%,77.647059%,0%);stroke-opacity:1;stroke-miterlimit:4;" d="M 69.786095 170.529402 L 79.119443 156.820801 L 88.503986 170.560907 " transform="matrix(0.991907,0,0,0.991907,335.313844,52.588983)"/>
<path style="fill-rule:evenodd;fill:rgb(96.862745%,77.647059%,0%);fill-opacity:1;stroke-width:0.56016;stroke-linecap:butt;stroke-linejoin:miter;stroke:rgb(0%,0%,0%);stroke-opacity:1;stroke-miterlimit:4;" d="M 80.922931 156.719714 C 80.922931 157.661675 80.158494 158.426113 79.216533 158.426113 C 78.274572 158.426113 77.510134 157.661675 77.510134 156.719714 C 77.510134 155.777753 78.274572 155.013316 79.216533 155.013316 C 80.158494 155.013316 80.922931 155.777753 80.922931 156.719714 Z M 80.922931 156.719714 " transform="matrix(1.078203,0,0,1.078203,328.404914,47.672794)"/>
<path style="fill-rule:evenodd;fill:rgb(96.862745%,77.647059%,0%);fill-opacity:1;stroke-width:0.60887;stroke-linecap:butt;stroke-linejoin:miter;stroke:rgb(0%,0%,0%);stroke-opacity:1;stroke-miterlimit:4;" d="M 71.542497 180.65825 L 86.015093 180.701569 C 86.015093 180.701569 86.239566 178.823085 84.502855 177.68103 C 92.083738 176.637428 90.114678 169.950498 96.462929 169.572438 C 97.695561 169.761468 93.147031 172.415762 93.147031 172.415762 C 93.147031 172.415762 89.319177 175.117313 91.059827 176.491717 C 92.446045 177.582577 93.052516 175.826175 93.241546 174.499028 C 93.430576 173.175819 99.400768 172.321247 98.546196 168.532774 C 97.124534 165.405906 88.787531 170.61604 88.787531 170.61604 L 82.837029 170.584535 C 82.466846 169.915055 80.828587 167.237132 79.135195 167.225318 C 77.126753 167.300142 75.709029 170.61604 75.709029 170.61604 L 62.256407 170.61604 C 62.256407 170.61604 61.795647 174.069773 68.616473 174.731377 C 70.15234 176.735881 71.341653 177.299032 72.676676 177.818864 C 71.786661 178.559231 71.538559 179.457123 71.542497 180.65825 Z M 71.542497 180.65825 " transform="matrix(0.991907,0,0,0.991907,335.313844,52.588983)"/>
<path style="fill:none;stroke-width:0.60887;stroke-linecap:butt;stroke-linejoin:miter;stroke:rgb(0%,0%,0%);stroke-opacity:1;stroke-miterlimit:4;" d="M 72.582161 177.720411 L 84.636751 177.677092 " transform="matrix(0.991907,0,0,0.991907,335.313844,52.588983)"/>
<path style="fill:none;stroke-width:0.60887;stroke-linecap:butt;stroke-linejoin:miter;stroke:rgb(0%,0%,0%);stroke-opacity:1;stroke-miterlimit:4;" d="M 67.060915 170.608164 C 67.060915 170.608164 68.025755 176.247554 72.475832 177.582577 " transform="matrix(0.991907,0,0,0.991907,335.313844,52.588983)"/>
<path style="fill-rule:evenodd;fill:url(#linear2);stroke-width:0.60887;stroke-linecap:butt;stroke-linejoin:miter;stroke:rgb(0%,0%,0%);stroke-opacity:1;stroke-miterlimit:4;" d="M 66.320548 170.541216 C 66.765556 168.387064 67.580747 168.01688 68.470762 165.27201 C 68.620411 162.601963 66.320548 162.897322 66.986091 161.192116 C 68.175403 159.337261 67.580747 157.55723 65.355708 156.147382 C 65.800716 158.596894 62.461189 160.896757 62.461189 162.897322 C 62.461189 164.901826 64.170334 164.456818 63.945861 167.497048 C 64.095509 169.277079 63.500853 168.832071 63.351204 170.541216 Z M 66.320548 170.541216 " transform="matrix(0.991907,0,0,0.991907,335.313844,52.588983)"/>
<path style="fill-rule:evenodd;fill:rgb(96.862745%,77.647059%,0%);fill-opacity:1;stroke-width:0.60887;stroke-linecap:butt;stroke-linejoin:miter;stroke:rgb(0%,0%,0%);stroke-opacity:1;stroke-miterlimit:4;" d="M 80.922464 156.718348 C 80.922464 157.663497 80.158468 158.427492 79.217257 158.427492 C 78.276046 158.427492 77.512051 157.663497 77.512051 156.718348 C 77.512051 155.777137 78.276046 155.013141 79.217257 155.013141 C 80.158468 155.013141 80.922464 155.777137 80.922464 156.718348 Z M 80.922464 156.718348 " transform="matrix(0.991907,0,0,0.991907,335.240258,53.030451)"/>
<path style="fill:none;stroke-width:1.217737;stroke-linecap:butt;stroke-linejoin:miter;stroke:rgb(96.862745%,77.647059%,0%);stroke-opacity:1;stroke-miterlimit:4;" d="M 69.78445 170.528689 L 79.121736 156.820089 L 88.502341 170.560194 " transform="matrix(0.991907,0,0,0.991907,239.233444,25.378752)"/>
<path style="fill-rule:evenodd;fill:rgb(96.862745%,77.647059%,0%);fill-opacity:1;stroke-width:0.56016;stroke-linecap:butt;stroke-linejoin:miter;stroke:rgb(0%,0%,0%);stroke-opacity:1;stroke-miterlimit:4;" d="M 80.921419 156.719059 C 80.921419 157.66102 80.156981 158.425458 79.21502 158.425458 C 78.273059 158.425458 77.512244 157.66102 77.512244 156.719059 C 77.512244 155.777098 78.273059 155.012661 79.21502 155.012661 C 80.156981 155.012661 80.921419 155.777098 80.921419 156.719059 Z M 80.921419 156.719059 " transform="matrix(1.078203,0,0,1.078203,232.324514,20.462563)"/>
<path style="fill-rule:evenodd;fill:rgb(96.862745%,77.647059%,0%);fill-opacity:1;stroke-width:0.60887;stroke-linecap:butt;stroke-linejoin:miter;stroke:rgb(0%,0%,0%);stroke-opacity:1;stroke-miterlimit:4;" d="M 71.540852 180.661476 L 86.013449 180.700857 C 86.013449 180.700857 86.24186 178.822373 84.50121 177.680318 C 92.082094 176.640654 90.113033 169.953724 96.461285 169.571726 C 97.693917 169.764694 93.145387 172.41505 93.145387 172.41505 C 93.145387 172.41505 89.317533 175.116601 91.06212 176.491005 C 92.444401 177.581865 93.050872 175.825463 93.239901 174.502254 C 93.428931 173.175107 99.399123 172.320535 98.548489 168.532062 C 97.126827 165.405193 88.785886 170.615328 88.785886 170.615328 L 82.839323 170.583823 C 82.465201 169.914342 80.826943 167.23642 79.133551 167.224606 C 77.125109 167.29943 75.711323 170.615328 75.711323 170.615328 L 62.254762 170.615328 C 62.254762 170.615328 61.794002 174.069061 68.614828 174.730665 C 70.150696 176.739107 71.343946 177.29832 72.67897 177.818152 C 71.788954 178.558519 71.536914 179.456411 71.540852 180.661476 Z M 71.540852 180.661476 " transform="matrix(0.991907,0,0,0.991907,239.233444,25.378752)"/>
<path style="fill:none;stroke-width:0.60887;stroke-linecap:butt;stroke-linejoin:miter;stroke:rgb(0%,0%,0%);stroke-opacity:1;stroke-miterlimit:4;" d="M 72.584455 177.719699 L 84.639044 177.680318 " transform="matrix(0.991907,0,0,0.991907,239.233444,25.378752)"/>
<path style="fill:none;stroke-width:0.60887;stroke-linecap:butt;stroke-linejoin:miter;stroke:rgb(0%,0%,0%);stroke-opacity:1;stroke-miterlimit:4;" d="M 67.063208 170.61139 C 67.063208 170.61139 68.028048 176.246842 72.478125 177.581865 " transform="matrix(0.991907,0,0,0.991907,239.233444,25.378752)"/>
<path style="fill-rule:evenodd;fill:url(#linear3);stroke-width:0.60887;stroke-linecap:butt;stroke-linejoin:miter;stroke:rgb(0%,0%,0%);stroke-opacity:1;stroke-miterlimit:4;" d="M 66.318903 170.540504 C 66.763911 168.390289 67.58304 168.016168 68.473056 165.271297 C 68.618766 162.601251 66.318903 162.900548 66.988384 161.191404 C 68.173759 159.336548 67.579102 157.556517 65.354064 156.14667 C 65.799071 158.596181 62.463483 160.896044 62.463483 162.900548 C 62.463483 164.901114 64.168689 164.456106 63.944216 167.500274 C 64.093865 169.280305 63.499209 168.835297 63.353498 170.540504 Z M 66.318903 170.540504 " transform="matrix(0.991907,0,0,0.991907,239.233444,25.378752)"/>
<path style="fill-rule:evenodd;fill:rgb(96.862745%,77.647059%,0%);fill-opacity:1;stroke-width:0.60887;stroke-linecap:butt;stroke-linejoin:miter;stroke:rgb(0%,0%,0%);stroke-opacity:1;stroke-miterlimit:4;" d="M 80.920819 156.721573 C 80.920819 157.662784 80.156824 158.42678 79.215613 158.42678 C 78.274402 158.42678 77.510406 157.662784 77.510406 156.721573 C 77.510406 155.776424 78.274402 155.012429 79.215613 155.012429 C 80.156824 155.012429 80.920819 155.776424 80.920819 156.721573 Z M 80.920819 156.721573 " transform="matrix(0.991907,0,0,0.991907,239.159858,25.82022)"/>
<path style="fill:none;stroke-width:1.217737;stroke-linecap:butt;stroke-linejoin:miter;stroke:rgb(96.862745%,77.647059%,0%);stroke-opacity:1;stroke-miterlimit:4;" d="M 69.787547 170.530667 L 79.120894 156.818128 L 88.5015 170.558233 " transform="matrix(0.991907,0,0,0.991907,239.44131,-1.365397)"/>
<path style="fill-rule:evenodd;fill:rgb(96.862745%,77.647059%,0%);fill-opacity:1;stroke-width:0.56016;stroke-linecap:butt;stroke-linejoin:miter;stroke:rgb(0%,0%,0%);stroke-opacity:1;stroke-miterlimit:4;" d="M 80.920644 156.720878 C 80.920644 157.662839 80.159829 158.427277 79.217869 158.427277 C 78.275908 158.427277 77.51147 157.662839 77.51147 156.720878 C 77.51147 155.778917 78.275908 155.014479 79.217869 155.014479 C 80.159829 155.014479 80.920644 155.778917 80.920644 156.720878 Z M 80.920644 156.720878 " transform="matrix(1.078203,0,0,1.078203,232.532381,-6.281586)"/>
<path style="fill-rule:evenodd;fill:rgb(96.862745%,77.647059%,0%);fill-opacity:1;stroke-width:0.60887;stroke-linecap:butt;stroke-linejoin:miter;stroke:rgb(0%,0%,0%);stroke-opacity:1;stroke-miterlimit:4;" d="M 71.540011 180.659515 L 86.012607 180.702834 C 86.012607 180.702834 86.241018 178.82435 84.500368 177.682295 C 92.081252 176.638693 90.112191 169.951763 96.460443 169.573703 C 97.693075 169.762733 93.144545 172.417027 93.144545 172.417027 C 93.144545 172.417027 89.316691 175.118578 91.061278 176.489044 C 92.443559 177.579904 93.05003 175.82744 93.23906 174.500293 C 93.432028 173.173146 99.398282 172.322512 98.547647 168.530101 C 97.125985 165.403233 88.788982 170.617305 88.788982 170.617305 L 82.838481 170.581862 C 82.468298 169.91632 80.826101 167.238397 79.132709 167.226583 C 77.124267 167.297469 75.710481 170.617305 75.710481 170.617305 L 62.25392 170.617305 C 62.25392 170.617305 61.79316 174.0671 68.617925 174.732642 C 70.153792 176.737146 71.343105 177.296359 72.678128 177.816191 C 71.788112 178.560496 71.536073 179.458388 71.540011 180.659515 Z M 71.540011 180.659515 " transform="matrix(0.991907,0,0,0.991907,239.44131,-1.365397)"/>
<path style="fill:none;stroke-width:0.60887;stroke-linecap:butt;stroke-linejoin:miter;stroke:rgb(0%,0%,0%);stroke-opacity:1;stroke-miterlimit:4;" d="M 72.583613 177.721676 L 84.638202 177.678357 " transform="matrix(0.991907,0,0,0.991907,239.44131,-1.365397)"/>
<path style="fill:none;stroke-width:0.60887;stroke-linecap:butt;stroke-linejoin:miter;stroke:rgb(0%,0%,0%);stroke-opacity:1;stroke-miterlimit:4;" d="M 67.062367 170.609429 C 67.062367 170.609429 68.027206 176.248819 72.477284 177.583842 " transform="matrix(0.991907,0,0,0.991907,239.44131,-1.365397)"/>
<path style="fill-rule:evenodd;fill:url(#linear4);stroke-width:0.60887;stroke-linecap:butt;stroke-linejoin:miter;stroke:rgb(0%,0%,0%);stroke-opacity:1;stroke-miterlimit:4;" d="M 66.318062 170.538543 C 66.767007 168.388329 67.582199 168.018145 68.472214 165.273274 C 68.617925 162.603228 66.318062 162.898587 66.987542 161.193381 C 68.172917 159.338526 67.582199 157.558495 65.35716 156.148647 C 65.802168 158.598159 62.462641 160.898022 62.462641 162.898587 C 62.462641 164.903091 64.167847 164.458083 63.947313 167.498313 C 64.093023 169.278344 63.502305 168.833336 63.352656 170.538543 Z M 66.318062 170.538543 " transform="matrix(0.991907,0,0,0.991907,239.44131,-1.365397)"/>
<path style="fill-rule:evenodd;fill:rgb(96.862745%,77.647059%,0%);fill-opacity:1;stroke-width:0.60887;stroke-linecap:butt;stroke-linejoin:miter;stroke:rgb(0%,0%,0%);stroke-opacity:1;stroke-miterlimit:4;" d="M 80.923916 156.719613 C 80.923916 157.660824 80.15992 158.424819 79.214771 158.424819 C 78.27356 158.424819 77.509564 157.660824 77.509564 156.719613 C 77.509564 155.778401 78.27356 155.014406 79.214771 155.014406 C 80.15992 155.014406 80.923916 155.778401 80.923916 156.719613 Z M 80.923916 156.719613 " transform="matrix(0.991907,0,0,0.991907,239.367724,-0.923929)"/>
<path style="fill:none;stroke-width:1.217737;stroke-linecap:butt;stroke-linejoin:miter;stroke:rgb(96.862745%,77.647059%,0%);stroke-opacity:1;stroke-miterlimit:4;" d="M 69.787239 170.528948 L 79.120587 156.820348 L 88.501192 170.560453 " transform="matrix(0.991907,0,0,0.991907,239.949427,-28.500411)"/>
<path style="fill-rule:evenodd;fill:rgb(96.862745%,77.647059%,0%);fill-opacity:1;stroke-width:0.56016;stroke-linecap:butt;stroke-linejoin:miter;stroke:rgb(0%,0%,0%);stroke-opacity:1;stroke-miterlimit:4;" d="M 80.920361 156.719297 C 80.923984 157.661258 80.159547 158.425696 79.217586 158.425696 C 78.275625 158.425696 77.511187 157.661258 77.511187 156.719297 C 77.511187 155.777336 78.275625 155.012899 79.217586 155.012899 C 80.159547 155.012899 80.923984 155.777336 80.920361 156.719297 Z M 80.920361 156.719297 " transform="matrix(1.078203,0,0,1.078203,233.040498,-33.4166)"/>
<path style="fill-rule:evenodd;fill:rgb(96.862745%,77.647059%,0%);fill-opacity:1;stroke-width:0.60887;stroke-linecap:butt;stroke-linejoin:miter;stroke:rgb(0%,0%,0%);stroke-opacity:1;stroke-miterlimit:4;" d="M 71.539703 180.661735 L 86.012299 180.701116 C 86.012299 180.701116 86.24071 178.822632 84.503999 177.680577 C 92.080944 176.636974 90.111884 169.953982 96.464074 169.571985 C 97.692767 169.761015 93.144237 172.415308 93.144237 172.415308 C 93.144237 172.415308 89.316383 175.11686 91.060971 176.491264 C 92.443252 177.582124 93.049722 175.825721 93.238752 174.502513 C 93.43172 173.175366 99.397974 172.320793 98.54734 168.532321 C 97.125678 165.405452 88.788675 170.615587 88.788675 170.615587 L 82.838173 170.584082 C 82.46799 169.914601 80.825793 167.236679 79.136339 167.224864 C 77.123959 167.299689 75.710174 170.615587 75.710174 170.615587 L 62.253613 170.615587 C 62.253613 170.615587 61.792853 174.069319 68.617617 174.730924 C 70.153484 176.739366 71.342797 177.298579 72.67782 177.818411 C 71.787805 178.558778 71.539703 179.456669 71.539703 180.661735 Z M 71.539703 180.661735 " transform="matrix(0.991907,0,0,0.991907,239.949427,-28.500411)"/>
<path style="fill:none;stroke-width:0.60887;stroke-linecap:butt;stroke-linejoin:miter;stroke:rgb(0%,0%,0%);stroke-opacity:1;stroke-miterlimit:4;" d="M 72.583305 177.719958 L 84.637895 177.680577 " transform="matrix(0.991907,0,0,0.991907,239.949427,-28.500411)"/>
<path style="fill:none;stroke-width:0.60887;stroke-linecap:butt;stroke-linejoin:miter;stroke:rgb(0%,0%,0%);stroke-opacity:1;stroke-miterlimit:4;" d="M 67.062059 170.611649 C 67.062059 170.611649 68.026899 176.2471 72.476976 177.582124 " transform="matrix(0.991907,0,0,0.991907,239.949427,-28.500411)"/>
<path style="fill-rule:evenodd;fill:url(#linear5);stroke-width:0.60887;stroke-linecap:butt;stroke-linejoin:miter;stroke:rgb(0%,0%,0%);stroke-opacity:1;stroke-miterlimit:4;" d="M 66.321692 170.540763 C 66.7667 168.390548 67.581891 168.016427 68.471907 165.271556 C 68.621555 162.60151 66.321692 162.900807 66.987235 161.191662 C 68.172609 159.336807 67.581891 157.556776 65.356853 156.146929 C 65.80186 158.59644 62.462333 160.896303 62.462333 162.900807 C 62.462333 164.901373 64.16754 164.456365 63.947005 167.496595 C 64.092716 169.280564 63.501997 168.835556 63.352349 170.540763 Z M 66.321692 170.540763 " transform="matrix(0.991907,0,0,0.991907,239.949427,-28.500411)"/>
<path style="fill-rule:evenodd;fill:rgb(96.862745%,77.647059%,0%);fill-opacity:1;stroke-width:0.60887;stroke-linecap:butt;stroke-linejoin:miter;stroke:rgb(0%,0%,0%);stroke-opacity:1;stroke-miterlimit:4;" d="M 80.923608 156.721832 C 80.923608 157.663043 80.159613 158.427039 79.214463 158.427039 C 78.273252 158.427039 77.509257 157.663043 77.509257 156.721832 C 77.509257 155.776683 78.273252 155.012688 79.214463 155.012688 C 80.159613 155.012688 80.923608 155.776683 80.923608 156.721832 Z M 80.923608 156.721832 " transform="matrix(0.991907,0,0,0.991907,239.875842,-28.058943)"/>
<path style="fill:none;stroke-width:1.217737;stroke-linecap:butt;stroke-linejoin:miter;stroke:rgb(96.862745%,77.647059%,0%);stroke-opacity:1;stroke-miterlimit:4;" d="M 69.785175 170.528442 L 79.122461 156.819841 L 88.503066 170.559947 " transform="matrix(0.991907,0,0,0.991907,336.045225,-28.058503)"/>
<path style="fill-rule:evenodd;fill:rgb(96.862745%,77.647059%,0%);fill-opacity:1;stroke-width:0.56016;stroke-linecap:butt;stroke-linejoin:miter;stroke:rgb(0%,0%,0%);stroke-opacity:1;stroke-miterlimit:4;" d="M 80.922085 156.718832 C 80.922085 157.660793 80.157648 158.42523 79.215687 158.42523 C 78.273726 158.42523 77.509288 157.660793 77.509288 156.718832 C 77.509288 155.776871 78.273726 155.012433 79.215687 155.012433 C 80.157648 155.012433 80.922085 155.776871 80.922085 156.718832 Z M 80.922085 156.718832 " transform="matrix(1.078203,0,0,1.078203,329.136296,-32.974692)"/>
<path style="fill-rule:evenodd;fill:rgb(96.862745%,77.647059%,0%);fill-opacity:1;stroke-width:0.60887;stroke-linecap:butt;stroke-linejoin:miter;stroke:rgb(0%,0%,0%);stroke-opacity:1;stroke-miterlimit:4;" d="M 71.541577 180.661228 L 86.014173 180.70061 C 86.014173 180.70061 86.242584 178.822126 84.501935 177.680071 C 92.082818 176.640407 90.113758 169.953476 96.462009 169.571479 C 97.694641 169.764447 93.146111 172.414802 93.146111 172.414802 C 93.146111 172.414802 89.318257 175.116354 91.062845 176.490758 C 92.445126 177.581618 93.051596 175.829154 93.240626 174.502007 C 93.429656 173.17486 99.399848 172.320287 98.545276 168.531815 C 97.127552 165.404946 88.786611 170.615081 88.786611 170.615081 L 82.836109 170.583576 C 82.465926 169.914095 80.827667 167.236173 79.134275 167.224358 C 77.125833 167.299183 75.712048 170.615081 75.712048 170.615081 L 62.255487 170.615081 C 62.255487 170.615081 61.794727 174.068813 68.615553 174.730418 C 70.15142 176.73886 71.344671 177.298073 72.679694 177.817905 C 71.789679 178.558272 71.537639 179.456163 71.541577 180.661228 Z M 71.541577 180.661228 " transform="matrix(0.991907,0,0,0.991907,336.045225,-28.058503)"/>
<path style="fill:none;stroke-width:0.60887;stroke-linecap:butt;stroke-linejoin:miter;stroke:rgb(0%,0%,0%);stroke-opacity:1;stroke-miterlimit:4;" d="M 72.581241 177.719452 L 84.639769 177.680071 " transform="matrix(0.991907,0,0,0.991907,336.045225,-28.058503)"/>
<path style="fill:none;stroke-width:0.60887;stroke-linecap:butt;stroke-linejoin:miter;stroke:rgb(0%,0%,0%);stroke-opacity:1;stroke-miterlimit:4;" d="M 67.063933 170.611143 C 67.063933 170.611143 68.024835 176.246594 72.47885 177.581618 " transform="matrix(0.991907,0,0,0.991907,336.045225,-28.058503)"/>
<path style="fill-rule:evenodd;fill:url(#linear6);stroke-width:0.60887;stroke-linecap:butt;stroke-linejoin:miter;stroke:rgb(0%,0%,0%);stroke-opacity:1;stroke-miterlimit:4;" d="M 66.319628 170.540256 C 66.764636 168.390042 67.579827 168.015921 68.469842 165.27105 C 68.619491 162.601004 66.319628 162.900301 66.989109 161.191156 C 68.174483 159.336301 67.579827 157.55627 65.354788 156.146423 C 65.799796 158.595934 62.464207 160.895797 62.464207 162.900301 C 62.464207 164.900867 64.169414 164.455859 63.944941 167.500027 C 64.094589 169.280058 63.499933 168.83505 63.354223 170.540256 Z M 66.319628 170.540256 " transform="matrix(0.991907,0,0,0.991907,336.045225,-28.058503)"/>
<path style="fill-rule:evenodd;fill:rgb(96.862745%,77.647059%,0%);fill-opacity:1;stroke-width:0.60887;stroke-linecap:butt;stroke-linejoin:miter;stroke:rgb(0%,0%,0%);stroke-opacity:1;stroke-miterlimit:4;" d="M 80.921544 156.721326 C 80.921544 157.662537 80.157548 158.426533 79.216337 158.426533 C 78.275126 158.426533 77.511131 157.662537 77.511131 156.721326 C 77.511131 155.776177 78.275126 155.012181 79.216337 155.012181 C 80.157548 155.012181 80.921544 155.776177 80.921544 156.721326 Z M 80.921544 156.721326 " transform="matrix(0.991907,0,0,0.991907,335.971639,-27.617035)"/>
<path style="fill:none;stroke-width:1.217737;stroke-linecap:butt;stroke-linejoin:miter;stroke:rgb(96.862745%,77.647059%,0%);stroke-opacity:1;stroke-miterlimit:4;" d="M 69.787854 170.528254 L 79.121202 156.819654 L 88.501807 170.559759 " transform="matrix(0.991907,0,0,0.991907,335.167567,-1.421598)"/>
<path style="fill-rule:evenodd;fill:rgb(96.862745%,77.647059%,0%);fill-opacity:1;stroke-width:0.56016;stroke-linecap:butt;stroke-linejoin:miter;stroke:rgb(0%,0%,0%);stroke-opacity:1;stroke-miterlimit:4;" d="M 80.920927 156.718659 C 80.920927 157.66062 80.160112 158.425057 79.218151 158.425057 C 78.272568 158.425057 77.511753 157.66062 77.511753 156.718659 C 77.511753 155.776698 78.272568 155.01226 79.218151 155.01226 C 80.160112 155.01226 80.920927 155.776698 80.920927 156.718659 Z M 80.920927 156.718659 " transform="matrix(1.078203,0,0,1.078203,328.258638,-6.337786)"/>
<path style="fill-rule:evenodd;fill:rgb(96.862745%,77.647059%,0%);fill-opacity:1;stroke-width:0.60887;stroke-linecap:butt;stroke-linejoin:miter;stroke:rgb(0%,0%,0%);stroke-opacity:1;stroke-miterlimit:4;" d="M 71.540318 180.661041 L 86.012914 180.700422 C 86.012914 180.700422 86.241325 178.821938 84.500676 177.679883 C 92.081559 176.640219 90.112499 169.953288 96.46075 169.575229 C 97.693382 169.764259 93.144852 172.414614 93.144852 172.414614 C 93.144852 172.414614 89.316998 175.116166 91.061586 176.49057 C 92.443867 177.58143 93.050337 175.828966 93.239367 174.501819 C 93.428397 173.174672 99.398589 172.320099 98.547955 168.531627 C 97.126293 165.404758 88.785352 170.614893 88.785352 170.614893 L 82.838788 170.583388 C 82.468605 169.913907 80.826408 167.235985 79.133016 167.22417 C 77.124574 167.298995 75.710789 170.614893 75.710789 170.614893 L 62.254228 170.614893 C 62.254228 170.614893 61.793468 174.068625 68.618232 174.73023 C 70.154099 176.738672 71.343412 177.297885 72.678435 177.817717 C 71.78842 178.558084 71.53638 179.455975 71.540318 180.661041 Z M 71.540318 180.661041 " transform="matrix(0.991907,0,0,0.991907,335.167567,-1.421598)"/>
<path style="fill:none;stroke-width:0.60887;stroke-linecap:butt;stroke-linejoin:miter;stroke:rgb(0%,0%,0%);stroke-opacity:1;stroke-miterlimit:4;" d="M 72.58392 177.719264 L 84.63851 177.679883 " transform="matrix(0.991907,0,0,0.991907,335.167567,-1.421598)"/>
<path style="fill:none;stroke-width:0.60887;stroke-linecap:butt;stroke-linejoin:miter;stroke:rgb(0%,0%,0%);stroke-opacity:1;stroke-miterlimit:4;" d="M 67.062674 170.610955 C 67.062674 170.610955 68.027514 176.246406 72.477591 177.585368 " transform="matrix(0.991907,0,0,0.991907,335.167567,-1.421598)"/>
<path style="fill-rule:evenodd;fill:url(#linear7);stroke-width:0.60887;stroke-linecap:butt;stroke-linejoin:miter;stroke:rgb(0%,0%,0%);stroke-opacity:1;stroke-miterlimit:4;" d="M 66.318369 170.540069 C 66.763377 168.389854 67.582506 168.015733 68.472522 165.2748 C 68.618232 162.600816 66.318369 162.900113 66.98785 161.190968 C 68.173224 159.340051 67.582506 157.556082 65.357468 156.150173 C 65.802475 158.595746 62.462948 160.895609 62.462948 162.900113 C 62.462948 164.900679 64.168155 164.455671 63.94762 167.499839 C 64.093331 169.27987 63.502612 168.834862 63.352964 170.540069 Z M 66.318369 170.540069 " transform="matrix(0.991907,0,0,0.991907,335.167567,-1.421598)"/>
<path style="fill-rule:evenodd;fill:rgb(96.862745%,77.647059%,0%);fill-opacity:1;stroke-width:0.60887;stroke-linecap:butt;stroke-linejoin:miter;stroke:rgb(0%,0%,0%);stroke-opacity:1;stroke-miterlimit:4;" d="M 80.920285 156.721138 C 80.924223 157.662349 80.160228 158.426345 79.215078 158.426345 C 78.273867 158.426345 77.509872 157.662349 77.509872 156.721138 C 77.509872 155.775989 78.273867 155.011994 79.215078 155.011994 C 80.160228 155.011994 80.924223 155.775989 80.920285 156.721138 Z M 80.920285 156.721138 " transform="matrix(0.991907,0,0,0.991907,335.093982,-0.98013)"/>
<path style="fill:none;stroke-width:1.217737;stroke-linecap:butt;stroke-linejoin:miter;stroke:rgb(96.862745%,77.647059%,0%);stroke-opacity:1;stroke-miterlimit:4;" d="M 69.786061 170.52873 L 79.123347 156.820129 L 88.503952 170.560235 " transform="matrix(0.991907,0,0,0.991907,333.989659,25.804492)"/>
<path style="fill-rule:evenodd;fill:rgb(96.862745%,77.647059%,0%);fill-opacity:1;stroke-width:0.56016;stroke-linecap:butt;stroke-linejoin:miter;stroke:rgb(0%,0%,0%);stroke-opacity:1;stroke-miterlimit:4;" d="M 80.9229 156.719096 C 80.9229 157.661057 80.158463 158.425495 79.216502 158.425495 C 78.274541 158.425495 77.510103 157.661057 77.510103 156.719096 C 77.510103 155.777136 78.274541 155.012698 79.216502 155.012698 C 80.158463 155.012698 80.9229 155.777136 80.9229 156.719096 Z M 80.9229 156.719096 " transform="matrix(1.078203,0,0,1.078203,327.080729,20.888304)"/>
<path style="fill-rule:evenodd;fill:rgb(96.862745%,77.647059%,0%);fill-opacity:1;stroke-width:0.60887;stroke-linecap:butt;stroke-linejoin:miter;stroke:rgb(0%,0%,0%);stroke-opacity:1;stroke-miterlimit:4;" d="M 71.542463 180.661516 L 86.015059 180.700898 C 86.015059 180.700898 86.239532 178.822414 84.502821 177.680359 C 92.083704 176.640695 90.114644 169.953764 96.462895 169.571767 C 97.695527 169.764735 93.146997 172.41509 93.146997 172.41509 C 93.146997 172.41509 89.319143 175.116642 91.059793 176.491046 C 92.446011 177.581906 93.052482 175.825503 93.241512 174.502295 C 93.430542 173.175148 99.400734 172.320575 98.546162 168.532103 C 97.1245 165.405234 88.787497 170.615369 88.787497 170.615369 L 82.836995 170.583864 C 82.466812 169.914383 80.828553 167.236461 79.135161 167.224646 C 77.126719 167.299471 75.708995 170.615369 75.708995 170.615369 L 62.256373 170.615369 C 62.256373 170.615369 61.795612 174.069101 68.616439 174.730706 C 70.152306 176.739148 71.341619 177.298361 72.676642 177.818193 C 71.786627 178.55856 71.538525 179.456451 71.542463 180.661516 Z M 71.542463 180.661516 " transform="matrix(0.991907,0,0,0.991907,333.989659,25.804492)"/>
<path style="fill:none;stroke-width:0.60887;stroke-linecap:butt;stroke-linejoin:miter;stroke:rgb(0%,0%,0%);stroke-opacity:1;stroke-miterlimit:4;" d="M 72.582127 177.71974 L 84.636717 177.680359 " transform="matrix(0.991907,0,0,0.991907,333.989659,25.804492)"/>
<path style="fill:none;stroke-width:0.60887;stroke-linecap:butt;stroke-linejoin:miter;stroke:rgb(0%,0%,0%);stroke-opacity:1;stroke-miterlimit:4;" d="M 67.060881 170.611431 C 67.060881 170.611431 68.025721 176.246882 72.475798 177.581906 " transform="matrix(0.991907,0,0,0.991907,333.989659,25.804492)"/>
<path style="fill-rule:evenodd;fill:url(#linear8);stroke-width:0.60887;stroke-linecap:butt;stroke-linejoin:miter;stroke:rgb(0%,0%,0%);stroke-opacity:1;stroke-miterlimit:4;" d="M 66.320514 170.540544 C 66.765522 168.39033 67.580713 168.016209 68.470728 165.271338 C 68.620377 162.601292 66.320514 162.900589 66.986057 161.191444 C 68.175369 159.336589 67.580713 157.556558 65.355674 156.146711 C 65.800682 158.596222 62.461155 160.896085 62.461155 162.900589 C 62.461155 164.901155 64.1703 164.456147 63.945827 167.500315 C 64.095475 169.280346 63.500819 168.835338 63.35117 170.540544 Z M 66.320514 170.540544 " transform="matrix(0.991907,0,0,0.991907,333.989659,25.804492)"/>
<path style="fill-rule:evenodd;fill:rgb(96.862745%,77.647059%,0%);fill-opacity:1;stroke-width:0.60887;stroke-linecap:butt;stroke-linejoin:miter;stroke:rgb(0%,0%,0%);stroke-opacity:1;stroke-miterlimit:4;" d="M 80.92243 156.721614 C 80.92243 157.662825 80.158434 158.426821 79.217223 158.426821 C 78.276012 158.426821 77.512017 157.662825 77.512017 156.721614 C 77.512017 155.776465 78.276012 155.012469 79.217223 155.012469 C 80.158434 155.012469 80.92243 155.776465 80.92243 156.721614 Z M 80.92243 156.721614 " transform="matrix(0.991907,0,0,0.991907,333.916073,26.24596)"/>
<path style="fill:none;stroke-width:1.2551;stroke-linecap:butt;stroke-linejoin:miter;stroke:rgb(96.862745%,77.647059%,0%);stroke-opacity:1;stroke-miterlimit:4;" d="M 818.969597 330.259945 L 830.999756 312.59271 L 843.085728 330.295462 " transform="matrix(0.769875,0,0,0.769875,-226.1175,21.19425)"/>
<path style="fill-rule:evenodd;fill:rgb(96.862745%,77.647059%,0%);fill-opacity:1;stroke-width:0.78449;stroke-linecap:butt;stroke-linejoin:miter;stroke:rgb(0%,0%,0%);stroke-opacity:1;stroke-miterlimit:4;" d="M 833.409847 323.658833 C 833.409847 324.97804 832.33926 326.048628 831.020052 326.048628 C 829.700844 326.048628 828.630257 324.97804 828.630257 323.658833 C 828.630257 322.339625 829.700844 321.269037 831.020052 321.269037 C 832.33926 321.269037 833.409847 322.339625 833.409847 323.658833 Z M 833.409847 323.658833 " transform="matrix(0.769875,0,0,0.769875,-226.1175,21.19425)"/>
<path style="fill-rule:evenodd;fill:rgb(96.862745%,77.647059%,0%);fill-opacity:1;stroke-width:0.78446;stroke-linecap:butt;stroke-linejoin:miter;stroke:rgb(0%,0%,0%);stroke-opacity:1;stroke-miterlimit:4;" d="M 821.227472 343.309953 L 839.879039 343.360692 C 839.879039 343.360692 840.16825 340.945527 837.930671 339.474103 C 847.697881 338.129526 845.160943 329.514085 853.340031 329.026993 C 854.92308 329.270539 849.067828 332.690331 849.067828 332.690331 C 849.067828 332.690331 844.13602 336.17101 846.378673 337.936719 C 848.164678 339.342182 848.940981 337.084308 849.189601 335.374411 C 849.433147 333.664515 857.125142 332.568558 856.024111 327.682416 C 854.192442 323.653759 843.451047 330.37157 843.451047 330.37157 L 835.784421 330.325905 C 835.307477 329.46842 833.191671 326.018185 831.014978 326.002963 C 828.422228 326.094293 826.600706 330.37157 826.600706 330.37157 L 809.263273 330.37157 C 809.263273 330.37157 808.66963 334.816285 817.462656 335.67377 C 819.441468 338.256373 820.973778 338.976863 822.693822 339.646615 C 821.547126 340.605577 821.222398 341.757347 821.227472 343.309953 Z M 821.227472 343.309953 " transform="matrix(0.769875,0,0,0.769875,-226.1175,21.19425)"/>
<path style="fill:none;stroke-width:0.78446;stroke-linecap:butt;stroke-linejoin:miter;stroke:rgb(0%,0%,0%);stroke-opacity:1;stroke-miterlimit:4;" d="M 822.572049 339.519768 L 838.103182 339.469029 " transform="matrix(0.769875,0,0,0.769875,-226.1175,21.19425)"/>
<path style="fill:none;stroke-width:0.78446;stroke-linecap:butt;stroke-linejoin:miter;stroke:rgb(0%,0%,0%);stroke-opacity:1;stroke-miterlimit:4;" d="M 815.458475 330.37157 C 815.458475 330.37157 816.701575 337.632286 822.435054 339.35233 " transform="matrix(0.769875,0,0,0.769875,-226.1175,21.19425)"/>
<path style="fill-rule:evenodd;fill:url(#linear9);stroke-width:0.78446;stroke-linecap:butt;stroke-linejoin:miter;stroke:rgb(0%,0%,0%);stroke-opacity:1;stroke-miterlimit:4;" d="M 814.499513 330.270093 C 815.072861 327.499756 816.123153 327.022812 817.269849 323.486321 C 817.462656 320.041159 814.499513 320.426774 815.362072 318.224712 C 816.889308 315.83999 816.123153 313.541525 813.256413 311.730151 C 813.829761 314.881028 809.532189 317.844171 809.532189 320.426774 C 809.532189 323.004303 811.729177 322.430955 811.439966 326.353061 C 811.632773 328.646452 810.866618 328.073104 810.678885 330.270093 Z M 814.499513 330.270093 " transform="matrix(0.769875,0,0,0.769875,-226.1175,21.19425)"/>
<path style="fill-rule:evenodd;fill:rgb(96.862745%,77.647059%,0%);fill-opacity:1;stroke-width:0.78446;stroke-linecap:butt;stroke-linejoin:miter;stroke:rgb(0%,0%,0%);stroke-opacity:1;stroke-miterlimit:4;" d="M 833.222114 313.049359 C 833.222114 314.262015 832.237782 315.246347 831.020052 315.246347 C 829.807396 315.246347 828.823064 314.262015 828.823064 313.049359 C 828.823064 311.836702 829.807396 310.852371 831.020052 310.852371 C 832.237782 310.852371 833.222114 311.836702 833.222114 313.049359 Z M 833.222114 313.049359 " transform="matrix(0.769875,0,0,0.769875,-226.1175,21.19425)"/>
<path style="fill:none;stroke-width:1.217737;stroke-linecap:butt;stroke-linejoin:miter;stroke:rgb(96.862745%,77.647059%,0%);stroke-opacity:1;stroke-miterlimit:4;" d="M 69.785675 170.530616 L 79.122961 156.818078 L 88.503566 170.558183 " transform="matrix(0.991907,0,0,0.991907,335.021291,79.372934)"/>
<path style="fill-rule:evenodd;fill:rgb(96.862745%,77.647059%,0%);fill-opacity:1;stroke-width:0.56016;stroke-linecap:butt;stroke-linejoin:miter;stroke:rgb(0%,0%,0%);stroke-opacity:1;stroke-miterlimit:4;" d="M 80.922545 156.720832 C 80.922545 157.662793 80.158108 158.42723 79.216147 158.42723 C 78.274186 158.42723 77.509748 157.662793 77.509748 156.720832 C 77.509748 155.778871 78.274186 155.014433 79.216147 155.014433 C 80.158108 155.014433 80.922545 155.778871 80.922545 156.720832 Z M 80.922545 156.720832 " transform="matrix(1.078203,0,0,1.078203,328.112362,74.456745)"/>
<path style="fill-rule:evenodd;fill:rgb(96.862745%,77.647059%,0%);fill-opacity:1;stroke-width:0.60887;stroke-linecap:butt;stroke-linejoin:miter;stroke:rgb(0%,0%,0%);stroke-opacity:1;stroke-miterlimit:4;" d="M 71.542077 180.659465 L 86.014674 180.702784 C 86.014674 180.702784 86.239146 178.8243 84.502435 177.682245 C 92.083319 176.638643 90.114258 169.951713 96.46251 169.573653 C 97.695142 169.762683 93.146611 172.416977 93.146611 172.416977 C 93.146611 172.416977 89.318757 175.118528 91.059407 176.488994 C 92.445626 177.579854 93.052097 175.82739 93.241126 174.500243 C 93.430156 173.173096 99.400348 172.322462 98.545776 168.530051 C 97.124114 165.403182 88.787111 170.617255 88.787111 170.617255 L 82.83661 170.581812 C 82.466426 169.916269 80.828168 167.238347 79.134775 167.226533 C 77.126334 167.297419 75.712548 170.617255 75.712548 170.617255 L 62.255987 170.617255 C 62.255987 170.617255 61.795227 174.067049 68.616053 174.732592 C 70.151921 176.737096 71.345171 177.296309 72.680194 177.816141 C 71.790179 178.560446 71.538139 179.458338 71.542077 180.659465 Z M 71.542077 180.659465 " transform="matrix(0.991907,0,0,0.991907,335.021291,79.372934)"/>
<path style="fill:none;stroke-width:0.60887;stroke-linecap:butt;stroke-linejoin:miter;stroke:rgb(0%,0%,0%);stroke-opacity:1;stroke-miterlimit:4;" d="M 72.581741 177.721626 L 84.636331 177.678307 " transform="matrix(0.991907,0,0,0.991907,335.021291,79.372934)"/>
<path style="fill:none;stroke-width:0.60887;stroke-linecap:butt;stroke-linejoin:miter;stroke:rgb(0%,0%,0%);stroke-opacity:1;stroke-miterlimit:4;" d="M 67.060495 170.609379 C 67.060495 170.609379 68.025335 176.248769 72.47935 177.583792 " transform="matrix(0.991907,0,0,0.991907,335.021291,79.372934)"/>
<path style="fill-rule:evenodd;fill:url(#linear10);stroke-width:0.60887;stroke-linecap:butt;stroke-linejoin:miter;stroke:rgb(0%,0%,0%);stroke-opacity:1;stroke-miterlimit:4;" d="M 66.320128 170.538493 C 66.765136 168.388278 67.580327 168.018095 68.470343 165.273224 C 68.619991 162.603178 66.320128 162.898537 66.985671 161.193331 C 68.174984 159.338475 67.580327 157.558444 65.355289 156.148597 C 65.800296 158.598109 62.460769 160.897971 62.460769 162.898537 C 62.460769 164.903041 64.169914 164.458033 63.945441 167.498263 C 64.09509 169.278294 63.500433 168.833286 63.350785 170.538493 Z M 66.320128 170.538493 " transform="matrix(0.991907,0,0,0.991907,335.021291,79.372934)"/>
<path style="fill-rule:evenodd;fill:rgb(96.862745%,77.647059%,0%);fill-opacity:1;stroke-width:0.60887;stroke-linecap:butt;stroke-linejoin:miter;stroke:rgb(0%,0%,0%);stroke-opacity:1;stroke-miterlimit:4;" d="M 80.922044 156.719562 C 80.922044 157.660773 80.158049 158.424769 79.216838 158.424769 C 78.275627 158.424769 77.511631 157.660773 77.511631 156.719562 C 77.511631 155.778351 78.275627 155.014356 79.216838 155.014356 C 80.158049 155.014356 80.922044 155.778351 80.922044 156.719562 Z M 80.922044 156.719562 " transform="matrix(0.991907,0,0,0.991907,334.947706,79.814402)"/>
<path style="fill:none;stroke-width:1.217737;stroke-linecap:butt;stroke-linejoin:miter;stroke:rgb(96.862745%,77.647059%,0%);stroke-opacity:1;stroke-miterlimit:4;" d="M 69.786 170.53031 L 79.123286 156.817771 L 88.503891 170.557877 " transform="matrix(0.991907,0,0,0.991907,256.786594,54.341988)"/>
<path style="fill-rule:evenodd;fill:rgb(96.862745%,77.647059%,0%);fill-opacity:1;stroke-width:0.56016;stroke-linecap:butt;stroke-linejoin:miter;stroke:rgb(0%,0%,0%);stroke-opacity:1;stroke-miterlimit:4;" d="M 80.922845 156.72055 C 80.922845 157.662511 80.158407 158.426948 79.216446 158.426948 C 78.274485 158.426948 77.510048 157.662511 77.510048 156.72055 C 77.510048 155.778589 78.274485 155.014151 79.216446 155.014151 C 80.158407 155.014151 80.922845 155.778589 80.922845 156.72055 Z M 80.922845 156.72055 " transform="matrix(1.078203,0,0,1.078203,249.877664,49.4258)"/>
<path style="fill-rule:evenodd;fill:rgb(96.862745%,77.647059%,0%);fill-opacity:1;stroke-width:0.60887;stroke-linecap:butt;stroke-linejoin:miter;stroke:rgb(0%,0%,0%);stroke-opacity:1;stroke-miterlimit:4;" d="M 71.542402 180.659158 L 86.014999 180.702477 C 86.014999 180.702477 86.239472 178.823994 84.50276 177.681938 C 92.083644 176.638336 90.114583 169.951406 96.462835 169.573346 C 97.695467 169.762376 93.146937 172.41667 93.146937 172.41667 C 93.146937 172.41667 89.319083 175.118221 91.059732 176.488688 C 92.445951 177.579547 93.052422 175.827083 93.241451 174.499936 C 93.430481 173.172789 99.400673 172.322155 98.546101 168.529744 C 97.124439 165.402876 88.787436 170.616948 88.787436 170.616948 L 82.836935 170.581505 C 82.466751 169.915963 80.828493 167.23804 79.135101 167.226226 C 77.126659 167.297112 75.708935 170.616948 75.708935 170.616948 L 62.256312 170.616948 C 62.256312 170.616948 61.795552 174.066743 68.616378 174.732285 C 70.152246 176.736789 71.341558 177.299941 72.68052 177.815834 C 71.786566 178.560139 71.538464 179.458031 71.542402 180.659158 Z M 71.542402 180.659158 " transform="matrix(0.991907,0,0,0.991907,256.786594,54.341988)"/>
<path style="fill:none;stroke-width:0.60887;stroke-linecap:butt;stroke-linejoin:miter;stroke:rgb(0%,0%,0%);stroke-opacity:1;stroke-miterlimit:4;" d="M 72.582067 177.72132 L 84.636656 177.678 " transform="matrix(0.991907,0,0,0.991907,256.786594,54.341988)"/>
<path style="fill:none;stroke-width:0.60887;stroke-linecap:butt;stroke-linejoin:miter;stroke:rgb(0%,0%,0%);stroke-opacity:1;stroke-miterlimit:4;" d="M 67.06082 170.609072 C 67.06082 170.609072 68.02566 176.248462 72.475737 177.583485 " transform="matrix(0.991907,0,0,0.991907,256.786594,54.341988)"/>
<path style="fill-rule:evenodd;fill:url(#linear11);stroke-width:0.60887;stroke-linecap:butt;stroke-linejoin:miter;stroke:rgb(0%,0%,0%);stroke-opacity:1;stroke-miterlimit:4;" d="M 66.320453 170.538186 C 66.765461 168.387972 67.580652 168.017788 68.470668 165.272918 C 68.620316 162.602871 66.320453 162.898231 66.985996 161.193024 C 68.175309 159.338169 67.580652 157.558138 65.355614 156.14829 C 65.800621 158.597802 62.461095 160.897665 62.461095 162.898231 C 62.461095 164.902734 64.170239 164.457727 63.945766 167.497956 C 64.095415 169.277987 63.500759 168.832979 63.35111 170.538186 Z M 66.320453 170.538186 " transform="matrix(0.991907,0,0,0.991907,256.786594,54.341988)"/>
<path style="fill-rule:evenodd;fill:rgb(96.862745%,77.647059%,0%);fill-opacity:1;stroke-width:0.60887;stroke-linecap:butt;stroke-linejoin:miter;stroke:rgb(0%,0%,0%);stroke-opacity:1;stroke-miterlimit:4;" d="M 80.922369 156.719256 C 80.922369 157.660467 80.158374 158.424462 79.217163 158.424462 C 78.275952 158.424462 77.511956 157.660467 77.511956 156.719256 C 77.511956 155.778045 78.275952 155.014049 79.217163 155.014049 C 80.158374 155.014049 80.922369 155.778045 80.922369 156.719256 Z M 80.922369 156.719256 " transform="matrix(0.991907,0,0,0.991907,256.713008,54.783456)"/>
<path style="fill-rule:evenodd;fill:rgb(96.862745%,77.647059%,0%);fill-opacity:1;stroke-width:0.60887;stroke-linecap:butt;stroke-linejoin:miter;stroke:rgb(0%,0%,0%);stroke-opacity:1;stroke-miterlimit:4;" d="M 139.21866 183.898379 C 139.21866 183.898379 142.995318 192.609503 147.299685 187.257596 C 151.600114 181.905689 150.024865 179.59795 150.024865 179.59795 L 140.372529 174.352372 L 137.54102 180.334379 Z M 139.21866 183.898379 " transform="matrix(0.991907,0,0,0.991907,237.462731,105.718826)"/>
<path style="fill-rule:evenodd;fill:rgb(100%,77.647059%,70.980392%);fill-opacity:1;stroke-width:0.60887;stroke-linecap:butt;stroke-linejoin:miter;stroke:rgb(0%,0%,0%);stroke-opacity:1;stroke-miterlimit:4;" d="M 147.508405 182.748447 C 147.508405 182.748447 148.138505 182.854777 148.662275 181.909627 C 149.189983 180.968416 147.508405 180.547037 146.775915 179.499497 L 145.937095 181.177137 Z M 147.508405 182.748447 " transform="matrix(0.991907,0,0,0.991907,237.462731,105.718826)"/>
<path style="fill-rule:evenodd;fill:rgb(100%,77.647059%,70.980392%);fill-opacity:1;stroke-width:0.60887;stroke-linecap:butt;stroke-linejoin:miter;stroke:rgb(0%,0%,0%);stroke-opacity:1;stroke-miterlimit:4;" d="M 125.679398 180.440708 L 117.180932 185.056186 C 117.180932 185.056186 112.986833 185.895006 112.671783 185.056186 C 112.356734 184.217367 112.774175 183.480938 114.979523 183.378547 C 117.180932 183.272217 123.162939 177.817919 123.162939 177.817919 Z M 125.679398 180.440708 " transform="matrix(0.991907,0,0,0.991907,237.462731,105.718826)"/>
<path style="fill-rule:evenodd;fill:rgb(100%,77.647059%,70.980392%);fill-opacity:1;stroke-width:0.60887;stroke-linecap:butt;stroke-linejoin:miter;stroke:rgb(0%,0%,0%);stroke-opacity:1;stroke-miterlimit:4;" d="M 125.789666 29.468886 C 125.789666 29.468886 125.998386 31.461575 126.104716 32.513054 C 126.211045 33.560594 124.427076 35.765942 124.320747 35.659613 C 124.214417 35.553283 123.375597 35.765942 123.481927 36.396041 C 123.588256 37.022203 124.844517 37.234861 124.844517 37.234861 C 124.844517 37.234861 124.320747 39.436271 124.844517 39.5426 C 125.372225 39.644991 123.481927 42.37411 124.844517 43.1066 C 126.211045 43.843029 128.518784 44.788178 129.566324 44.575519 C 130.617803 44.366799 129.566324 48.667228 129.566324 48.667228 L 126.628486 54.964284 L 142.786598 53.286644 L 139.42738 47.934737 C 139.42738 47.934737 137.85607 46.887197 138.273511 43.843029 C 138.69489 40.798861 138.06479 27.058755 138.06479 27.058755 L 126.526095 25.483507 Z M 125.789666 29.468886 " transform="matrix(0.991907,0,0,0.991907,237.462731,105.718826)"/>
<path style="fill-rule:evenodd;fill:rgb(100%,77.647059%,70.980392%);fill-opacity:1;stroke-width:0.60887;stroke-linecap:butt;stroke-linejoin:miter;stroke:rgb(0%,0%,0%);stroke-opacity:1;stroke-miterlimit:4;" d="M 122.851827 53.389035 C 122.851827 53.389035 117.60625 55.803104 117.81497 62.30888 C 116.448442 68.601998 115.715951 74.895116 115.715951 74.895116 C 115.715951 74.895116 109.525224 81.924663 107.638864 84.445061 C 105.748566 86.96152 102.917057 92.100769 101.869516 93.467297 C 100.818038 94.829887 96.72633 99.342974 96.832659 101.020614 C 96.93505 102.698253 95.88751 110.145241 99.979218 110.987999 C 101.026758 111.40544 104.385976 102.383204 104.385976 102.383204 C 104.385976 102.383204 104.594696 98.500216 103.440827 97.767725 C 102.286957 97.031297 105.957286 94.514837 105.957286 94.514837 C 105.957286 94.514837 112.986833 89.375589 114.562082 88.11539 C 116.13733 86.855191 120.437759 82.030992 120.437759 82.030992 Z M 122.851827 53.389035 " transform="matrix(0.991907,0,0,0.991907,237.462731,105.718826)"/>
<path style="fill-rule:evenodd;fill:rgb(100%,100%,100%);fill-opacity:1;stroke-width:0.60887;stroke-linecap:butt;stroke-linejoin:miter;stroke:rgb(0%,0%,0%);stroke-opacity:1;stroke-miterlimit:4;" d="M 128.829896 48.458507 C 128.829896 48.458507 130.192486 52.132774 133.236653 51.502675 C 136.276883 50.872576 139.844821 48.041066 139.844821 48.041066 C 139.844821 48.041066 142.680269 47.934737 143.097709 48.352178 C 143.519088 48.773557 150.757356 55.803104 150.548635 58.004513 C 150.335977 60.209861 147.189418 59.579762 146.035548 61.048681 C 144.881678 62.517601 142.99138 66.18793 143.519088 68.917048 C 144.042859 71.646166 145.614169 75.210166 145.405449 76.576694 C 145.196728 77.939284 144.042859 78.360663 144.042859 79.093154 C 144.042859 79.825644 144.988008 81.085843 144.988008 82.448433 C 144.988008 83.814961 143.727809 85.807651 143.936529 87.170241 C 144.14525 88.536769 144.251579 92.522148 144.251579 92.522148 L 143.936529 110.987999 C 143.936529 110.987999 144.988008 111.618098 145.090399 112.665639 C 145.196728 113.713179 152.226275 144.241496 152.226275 144.241496 C 152.226275 144.241496 151.911225 145.186645 151.174796 145.084254 C 150.442306 144.977925 154.010244 149.802124 154.112635 151.168652 C 154.218964 152.531242 157.786902 163.231118 157.680573 164.700037 C 157.574244 166.168956 157.050474 169.421844 156.735424 169.528174 C 156.420374 169.630565 159.043163 176.242671 158.625722 177.290211 C 158.204343 178.341689 153.903915 178.23536 153.903915 178.23536 L 152.750045 178.02664 C 152.750045 178.02664 152.856374 179.38923 152.017554 179.495559 C 151.174796 179.59795 144.988008 179.180509 144.988008 179.180509 C 144.988008 179.180509 143.204039 181.905689 142.15256 181.803298 C 141.10502 181.696969 139.74243 179.810609 139.42738 180.125658 C 139.112331 180.43677 140.368591 182.220739 140.05748 182.744509 C 139.74243 183.272217 134.390523 184.426087 133.342983 181.905689 C 132.291504 179.38923 133.969144 180.019329 133.654094 179.495559 C 133.342983 178.967851 130.928914 177.605261 130.192486 178.02664 C 129.459995 178.444081 132.082784 179.07418 131.976455 180.125658 C 131.874063 181.173199 129.668715 182.744509 128.829896 182.744509 C 127.991076 182.744509 125.998386 178.86546 123.060548 179.2829 C 120.122709 179.704279 118.232411 180.43677 118.232411 180.43677 C 118.232411 180.43677 114.770802 181.905689 113.301883 181.59064 C 111.832964 181.279528 111.202864 180.12172 111.202864 179.495559 C 111.202864 178.86546 112.254343 176.136341 112.148013 175.297522 C 112.045622 174.458702 111.202864 173.619882 111.202864 172.359683 C 111.202864 171.099484 113.616933 166.799056 113.616933 166.799056 L 113.514541 147.494384 C 113.514541 147.494384 111.309193 147.494384 111.202864 146.131794 C 111.100473 144.769204 114.562082 115.603477 115.085852 113.713179 C 115.609622 111.826819 116.97615 105.112322 116.97615 105.112322 C 116.97615 105.112322 115.400902 105.844812 115.294572 105.112322 C 115.192181 104.375893 120.01638 87.697949 120.01638 87.697949 C 120.01638 87.697949 120.8552 79.408203 120.8552 77.206793 C 120.8552 75.001445 120.437759 71.961216 120.437759 71.961216 C 120.437759 71.961216 116.129454 70.137866 116.031001 67.341799 C 115.637189 62.899598 120.122709 60.418582 120.646479 58.949663 C 121.170249 57.480743 122.745498 53.073985 122.745498 53.073985 C 122.745498 53.073985 125.053237 49.088607 128.829896 48.458507 Z M 128.829896 48.458507 " transform="matrix(0.991907,0,0,0.991907,237.462731,105.718826)"/>
<path style="fill-rule:evenodd;fill:rgb(96.862745%,77.647059%,0%);fill-opacity:1;stroke-width:0.60887;stroke-linecap:butt;stroke-linejoin:miter;stroke:rgb(0%,0%,0%);stroke-opacity:1;stroke-miterlimit:4;" d="M 127.258585 181.700907 C 127.258585 181.700907 117.082479 187.048876 115.61356 187.470255 C 114.144641 187.891634 113.20343 185.686286 114.672349 185.268845 C 116.141268 184.847466 118.449007 184.638746 118.449007 184.638746 C 118.449007 184.638746 114.987399 181.909627 115.08979 181.803298 C 115.196119 181.700907 119.811597 180.023267 119.917927 180.023267 C 120.020318 180.023267 121.386846 182.748447 122.328057 182.539727 C 123.273206 182.331006 126.002324 180.231988 126.002324 180.231988 C 126.002324 180.231988 127.471244 181.909627 127.258585 181.700907 Z M 127.258585 181.700907 " transform="matrix(0.991907,0,0,0.991907,237.462731,105.718826)"/>
<path style="fill-rule:evenodd;fill:rgb(100%,77.647059%,70.980392%);fill-opacity:1;stroke-width:0.60887;stroke-linecap:butt;stroke-linejoin:miter;stroke:rgb(0%,0%,0%);stroke-opacity:1;stroke-miterlimit:4;" d="M 141.601223 184.630869 C 142.562125 185.871378 142.940185 188.021592 145.141594 186.765331 C 147.343004 185.505132 144.011354 183.169826 144.011354 183.169826 Z M 141.601223 184.630869 " transform="matrix(0.991907,0,0,0.991907,237.462731,105.718826)"/>
<path style="fill-rule:evenodd;fill:rgb(100%,77.647059%,70.980392%);fill-opacity:1;stroke-width:0.60887;stroke-linecap:butt;stroke-linejoin:miter;stroke:rgb(0%,0%,0%);stroke-opacity:1;stroke-miterlimit:4;" d="M 145.618107 184.418211 C 145.618107 184.418211 146.669586 185.260969 147.614735 184.31582 C 148.555946 183.370671 145.724436 181.377981 145.724436 181.377981 L 144.361846 182.95323 Z M 145.618107 184.418211 " transform="matrix(0.991907,0,0,0.991907,237.462731,105.718826)"/>
<path style="fill:none;stroke-width:0.60887;stroke-linecap:butt;stroke-linejoin:miter;stroke:rgb(0%,0%,0%);stroke-opacity:1;stroke-miterlimit:4;" d="M 142.471548 52.550215 C 142.471548 52.550215 133.134262 58.528284 133.342983 60.627302 " transform="matrix(0.991907,0,0,0.991907,237.462731,105.718826)"/>
<path style="fill:none;stroke-width:0.60887;stroke-linecap:butt;stroke-linejoin:miter;stroke:rgb(0%,0%,0%);stroke-opacity:1;stroke-miterlimit:4;" d="M 144.570567 53.597756 C 144.570567 53.597756 142.471548 55.905495 142.365219 55.905495 " transform="matrix(0.991907,0,0,0.991907,237.462731,105.718826)"/>
<path style="fill:none;stroke-width:0.60887;stroke-linecap:butt;stroke-linejoin:miter;stroke:rgb(0%,0%,0%);stroke-opacity:1;stroke-miterlimit:4;" d="M 147.398138 56.118153 C 147.398138 56.118153 142.78266 59.894812 143.519088 62.304942 " transform="matrix(0.991907,0,0,0.991907,237.462731,105.718826)"/>
<path style="fill:none;stroke-width:0.60887;stroke-linecap:butt;stroke-linejoin:miter;stroke:rgb(0%,0%,0%);stroke-opacity:1;stroke-miterlimit:4;" d="M 125.580945 52.026445 C 125.580945 52.026445 124.214417 54.857954 124.529467 55.803104 C 124.844517 56.748253 127.152256 60.312253 127.467306 62.517601 C 127.782355 64.71901 127.467306 66.294259 127.467306 66.294259 " transform="matrix(0.991907,0,0,0.991907,237.462731,105.718826)"/>
<path style="fill:none;stroke-width:0.60887;stroke-linecap:butt;stroke-linejoin:miter;stroke:rgb(0%,0%,0%);stroke-opacity:1;stroke-miterlimit:4;" d="M 123.170815 57.272023 C 123.170815 57.272023 123.588256 60.627302 124.218355 61.257402 C 124.848455 61.887501 126.526095 64.71901 126.738753 65.87288 " transform="matrix(0.991907,0,0,0.991907,237.462731,105.718826)"/>
<path style="fill:none;stroke-width:0.60887;stroke-linecap:butt;stroke-linejoin:miter;stroke:rgb(0%,0%,0%);stroke-opacity:1;stroke-miterlimit:4;" d="M 122.328057 71.224787 C 122.328057 71.224787 125.057175 72.587377 127.573635 67.341799 " transform="matrix(0.991907,0,0,0.991907,237.462731,105.718826)"/>
<path style="fill:none;stroke-width:0.60887;stroke-linecap:butt;stroke-linejoin:miter;stroke:rgb(0%,0%,0%);stroke-opacity:1;stroke-miterlimit:4;" d="M 131.661405 63.67147 C 131.555076 63.67147 129.664777 68.810719 133.023995 70.701017 C 136.379274 72.587377 138.899672 72.378657 140.368591 71.854886 C 141.837511 71.331116 143.408821 70.385967 143.408821 70.385967 " transform="matrix(0.991907,0,0,0.991907,237.462731,105.718826)"/>
<path style="fill:none;stroke-width:0.60887;stroke-linecap:butt;stroke-linejoin:miter;stroke:rgb(0%,0%,0%);stroke-opacity:1;stroke-miterlimit:4;" d="M 130.200362 69.964588 C 130.200362 69.964588 130.409082 76.891744 140.585188 83.708632 " transform="matrix(0.991907,0,0,0.991907,237.462731,105.718826)"/>
<path style="fill:none;stroke-width:0.60887;stroke-linecap:butt;stroke-linejoin:miter;stroke:rgb(0%,0%,0%);stroke-opacity:1;stroke-miterlimit:4;" d="M 130.621741 76.470365 C 130.621741 76.470365 130.515412 82.554762 134.50079 85.28388 " transform="matrix(0.991907,0,0,0.991907,237.462731,105.718826)"/>
<path style="fill:none;stroke-width:0.60887;stroke-linecap:butt;stroke-linejoin:miter;stroke:rgb(0%,0%,0%);stroke-opacity:1;stroke-miterlimit:4;" d="M 128.518784 69.334489 C 128.518784 69.334489 125.478554 78.356725 123.064486 79.301874 " transform="matrix(0.991907,0,0,0.991907,237.462731,105.718826)"/>
<path style="fill:none;stroke-width:0.60887;stroke-linecap:butt;stroke-linejoin:miter;stroke:rgb(0%,0%,0%);stroke-opacity:1;stroke-miterlimit:4;" d="M 127.569697 75.946595 C 127.569697 75.946595 127.463367 82.452371 126.624548 84.76011 " transform="matrix(0.991907,0,0,0.991907,237.462731,105.718826)"/>
<path style="fill:none;stroke-width:0.60887;stroke-linecap:butt;stroke-linejoin:miter;stroke:rgb(0%,0%,0%);stroke-opacity:1;stroke-miterlimit:4;" d="M 125.789666 86.331421 C 125.789666 86.331421 127.888685 88.95421 130.196424 88.745489 C 132.504163 88.536769 133.449312 85.807651 135.020622 86.22903 C 136.595871 86.64647 138.06479 87.906669 141.735119 87.59162 " transform="matrix(0.991907,0,0,0.991907,237.462731,105.718826)"/>
<path style="fill:none;stroke-width:0.60887;stroke-linecap:butt;stroke-linejoin:miter;stroke:rgb(0%,0%,0%);stroke-opacity:1;stroke-miterlimit:4;" d="M 136.489542 90.3168 C 136.489542 90.3168 136.489542 95.668707 137.434691 96.192477 C 138.37984 96.716247 137.958461 101.646775 137.958461 101.646775 " transform="matrix(0.991907,0,0,0.991907,237.462731,105.718826)"/>
<path style="fill:none;stroke-width:0.60887;stroke-linecap:butt;stroke-linejoin:miter;stroke:rgb(0%,0%,0%);stroke-opacity:1;stroke-miterlimit:4;" d="M 123.690647 87.80034 C 123.690647 87.80034 123.584318 92.837197 122.954218 94.621166 C 122.328057 96.405135 121.067858 99.445365 121.276579 102.068154 " transform="matrix(0.991907,0,0,0.991907,237.462731,105.718826)"/>
<path style="fill:none;stroke-width:0.60887;stroke-linecap:butt;stroke-linejoin:miter;stroke:rgb(0%,0%,0%);stroke-opacity:1;stroke-miterlimit:4;" d="M 117.2912 105.009931 C 117.81497 104.80121 119.598939 103.225962 119.598939 103.225962 " transform="matrix(0.991907,0,0,0.991907,237.462731,105.718826)"/>
<path style="fill:none;stroke-width:0.60887;stroke-linecap:butt;stroke-linejoin:miter;stroke:rgb(0%,0%,0%);stroke-opacity:1;stroke-miterlimit:4;" d="M 120.54015 104.379831 C 120.54015 104.379831 116.027063 123.684502 117.287262 135.223198 " transform="matrix(0.991907,0,0,0.991907,237.462731,105.718826)"/>
<path style="fill:none;stroke-width:0.60887;stroke-linecap:butt;stroke-linejoin:miter;stroke:rgb(0%,0%,0%);stroke-opacity:1;stroke-miterlimit:4;" d="M 121.591628 105.321042 C 121.591628 105.321042 119.279951 119.797577 120.33143 122.526695 " transform="matrix(0.991907,0,0,0.991907,237.462731,105.718826)"/>
<path style="fill:none;stroke-width:0.60887;stroke-linecap:butt;stroke-linejoin:miter;stroke:rgb(0%,0%,0%);stroke-opacity:1;stroke-miterlimit:4;" d="M 120.441697 104.899663 C 120.544088 104.899663 129.251275 105.529763 129.251275 105.529763 " transform="matrix(0.991907,0,0,0.991907,237.462731,105.718826)"/>
<path style="fill:none;stroke-width:0.60887;stroke-linecap:butt;stroke-linejoin:miter;stroke:rgb(0%,0%,0%);stroke-opacity:1;stroke-miterlimit:4;" d="M 130.511473 104.379831 C 130.511473 104.379831 132.921604 105.64003 136.280821 105.427371 " transform="matrix(0.991907,0,0,0.991907,237.462731,105.718826)"/>
<path style="fill:none;stroke-width:0.60887;stroke-linecap:butt;stroke-linejoin:miter;stroke:rgb(0%,0%,0%);stroke-opacity:1;stroke-miterlimit:4;" d="M 129.459995 111.409378 C 129.459995 111.409378 129.038616 136.168347 128.412455 141.626584 " transform="matrix(0.991907,0,0,0.991907,237.462731,105.718826)"/>
<path style="fill:none;stroke-width:0.60887;stroke-linecap:butt;stroke-linejoin:miter;stroke:rgb(0%,0%,0%);stroke-opacity:1;stroke-miterlimit:4;" d="M 142.369157 117.068458 C 142.369157 117.068458 145.098275 138.787198 146.669586 140.779887 " transform="matrix(0.991907,0,0,0.991907,237.462731,105.718826)"/>
<path style="fill:none;stroke-width:0.60887;stroke-linecap:butt;stroke-linejoin:miter;stroke:rgb(0%,0%,0%);stroke-opacity:1;stroke-miterlimit:4;" d="M 137.119641 119.801515 C 137.119641 119.801515 138.797281 138.999857 139.74243 140.677496 " transform="matrix(0.991907,0,0,0.991907,237.462731,105.718826)"/>
<path style="fill:none;stroke-width:0.60887;stroke-linecap:butt;stroke-linejoin:miter;stroke:rgb(0%,0%,0%);stroke-opacity:1;stroke-miterlimit:4;" d="M 113.309759 147.388055 C 113.309759 147.388055 116.562647 146.340515 119.500486 143.193956 C 122.855765 147.703105 127.998952 143.402676 127.998952 143.402676 C 127.998952 143.402676 135.96971 148.856974 139.537648 142.772577 C 144.991946 146.340515 147.721064 142.248807 147.721064 142.248807 C 147.721064 142.248807 149.713753 145.292975 151.182673 144.977925 " transform="matrix(0.991907,0,0,0.991907,237.462731,105.718826)"/>
<path style="fill:none;stroke-width:0.60887;stroke-linecap:butt;stroke-linejoin:miter;stroke:rgb(0%,0%,0%);stroke-opacity:1;stroke-miterlimit:4;" d="M 142.471548 147.080882 C 142.471548 147.080882 146.563256 166.279224 152.647654 171.733522 " transform="matrix(0.991907,0,0,0.991907,237.462731,105.718826)"/>
<path style="fill:none;stroke-width:0.60887;stroke-linecap:butt;stroke-linejoin:miter;stroke:rgb(0%,0%,0%);stroke-opacity:1;stroke-miterlimit:4;" d="M 121.37897 145.080316 C 121.37897 145.080316 121.90274 161.132099 122.847889 172.462074 " transform="matrix(0.991907,0,0,0.991907,237.462731,105.718826)"/>
<path style="fill:none;stroke-width:0.60887;stroke-linecap:butt;stroke-linejoin:miter;stroke:rgb(0%,0%,0%);stroke-opacity:1;stroke-miterlimit:4;" d="M 120.650417 163.231118 C 120.650417 163.231118 120.126647 173.722273 119.496548 174.454764 " transform="matrix(0.991907,0,0,0.991907,237.462731,105.718826)"/>
<path style="fill:none;stroke-width:0.60887;stroke-linecap:butt;stroke-linejoin:miter;stroke:rgb(0%,0%,0%);stroke-opacity:1;stroke-miterlimit:4;" d="M 114.45969 175.51018 C 114.45969 175.51018 115.61356 180.023267 121.382908 175.82523 C 127.156194 171.627192 127.258585 177.39654 127.467306 178.02664 C 127.679964 178.656739 128.621175 183.169826 130.826523 179.393168 " transform="matrix(0.991907,0,0,0.991907,237.462731,105.718826)"/>
<path style="fill:none;stroke-width:0.60887;stroke-linecap:butt;stroke-linejoin:miter;stroke:rgb(0%,0%,0%);stroke-opacity:1;stroke-miterlimit:4;" d="M 135.438063 173.198503 C 135.438063 173.198503 134.496852 182.535789 142.78266 175.718901 C 151.072405 168.898074 152.434995 175.612571 152.643716 177.71159 " transform="matrix(0.991907,0,0,0.991907,237.462731,105.718826)"/>
<path style="fill-rule:evenodd;fill:rgb(61.176471%,31.764706%,0%);fill-opacity:1;stroke-width:0.60887;stroke-linecap:butt;stroke-linejoin:miter;stroke:rgb(0%,0%,0%);stroke-opacity:1;stroke-miterlimit:4;" d="M 125.470678 28.838786 C 125.470678 28.838786 127.778417 29.153836 129.038616 28.421345 C 130.294877 27.684917 131.763796 27.369867 132.815274 28.838786 C 133.862815 30.307706 134.599243 30.205314 134.599243 30.205314 C 134.599243 30.205314 133.023995 34.084364 134.599243 34.505743 C 136.170554 34.923184 136.906983 34.923184 137.009374 35.450892 C 137.115703 35.974662 135.646784 37.128532 136.064225 37.652302 C 136.485604 38.176072 137.222032 38.806172 137.324423 39.227551 C 137.430753 39.644991 136.379274 41.42896 136.694324 41.850339 C 137.009374 42.26778 137.954523 43.94542 138.584622 43.94542 C 139.214722 43.94542 138.793343 46.568209 140.683641 45.942048 C 142.570001 45.311948 142.46761 43.634308 142.46761 43.634308 C 142.46761 43.634308 144.460299 43.319259 144.98407 41.53529 C 145.50784 39.751321 146.768039 39.329942 146.768039 39.329942 C 146.768039 39.329942 149.284498 37.967352 145.929219 35.868333 C 145.929219 21.183078 136.276883 22.754389 136.276883 22.754389 C 136.276883 22.754389 135.123014 20.1316 133.232715 20.44665 C 131.346355 20.761699 131.240026 22.963109 129.877436 22.754389 C 128.510908 22.545668 128.195858 21.600519 128.093467 21.706848 C 127.987138 21.80924 126.833268 23.908258 126.833268 24.432028 C 126.833268 24.959737 123.162939 23.699538 123.477989 26.428656 C 123.793038 29.153836 125.573069 29.051445 125.470678 28.838786 Z M 125.470678 28.838786 " transform="matrix(0.991907,0,0,0.991907,237.462731,105.718826)"/>
<path style="fill:none;stroke-width:0.60887;stroke-linecap:butt;stroke-linejoin:miter;stroke:rgb(0%,0%,0%);stroke-opacity:1;stroke-miterlimit:4;" d="M 135.548331 25.274786 C 135.548331 25.274786 134.81584 29.890265 139.746368 29.468886 C 139.116269 31.989283 141.006567 32.828103 141.006567 32.828103 " transform="matrix(0.991907,0,0,0.991907,237.462731,105.718826)"/>
<path style="fill:none;stroke-width:0.60887;stroke-linecap:butt;stroke-linejoin:miter;stroke:rgb(0%,0%,0%);stroke-opacity:1;stroke-miterlimit:4;" d="M 144.66902 35.659613 C 144.775349 35.659613 146.874368 37.022203 144.566629 38.699842 " transform="matrix(0.991907,0,0,0.991907,237.462731,105.718826)"/>
<path style="fill:none;stroke-width:0.60887;stroke-linecap:butt;stroke-linejoin:miter;stroke:rgb(0%,0%,0%);stroke-opacity:1;stroke-miterlimit:4;" d="M 137.54102 39.329942 C 137.54102 39.329942 138.58856 40.590141 139.74243 40.275091 C 140.8963 39.960041 142.786598 41.42896 142.786598 41.42896 C 142.786598 41.42896 144.357908 41.952731 144.570567 41.637681 " transform="matrix(0.991907,0,0,0.991907,237.462731,105.718826)"/>
<path style="fill:none;stroke-width:0.60887;stroke-linecap:butt;stroke-linejoin:miter;stroke:rgb(0%,0%,0%);stroke-opacity:1;stroke-miterlimit:4;" d="M 131.141573 43.319259 C 131.141573 43.319259 134.705573 44.681849 137.013312 39.014892 " transform="matrix(0.991907,0,0,0.991907,237.462731,105.718826)"/>
<path style="fill:none;stroke-width:0.60887;stroke-linecap:butt;stroke-linejoin:miter;stroke:rgb(0%,0%,0%);stroke-opacity:1;stroke-miterlimit:4;" d="M 124.529467 37.337252 L 126.628486 37.443582 " transform="matrix(0.991907,0,0,0.991907,237.462731,105.718826)"/>
<path style="fill:none;stroke-width:0.60887;stroke-linecap:butt;stroke-linejoin:round;stroke:rgb(0%,0%,0%);stroke-opacity:1;stroke-miterlimit:4;" d="M 124.848455 39.436271 L 126.738753 39.436271 L 125.061113 40.168762 " transform="matrix(0.991907,0,0,0.991907,237.462731,105.718826)"/>
<path style="fill:none;stroke-width:1.096;stroke-linecap:butt;stroke-linejoin:round;stroke:rgb(0%,0%,0%);stroke-opacity:1;stroke-miterlimit:4;" d="M 127.471244 33.560594 C 127.786293 33.560594 128.940163 33.143153 129.148883 33.454265 C 129.357604 33.769314 127.888685 33.981973 127.471244 33.560594 Z M 127.471244 33.560594 " transform="matrix(0.991907,0,0,0.991907,237.462731,105.718826)"/>
<path style="fill-rule:evenodd;fill:rgb(100%,77.647059%,70.980392%);fill-opacity:1;stroke-width:0.60887;stroke-linecap:butt;stroke-linejoin:miter;stroke:rgb(0%,0%,0%);stroke-opacity:1;stroke-miterlimit:4;" d="M 150.131194 58.488902 C 150.233585 58.488902 153.592803 68.873729 154.010244 71.496517 C 154.431623 74.119306 155.794213 84.610462 155.270443 86.079381 C 154.746673 87.5483 149.394766 94.577847 148.764666 96.361816 C 148.138505 98.141847 144.357908 104.962673 144.357908 104.962673 C 144.357908 104.962673 143.416697 111.67717 142.995318 111.99222 C 142.577877 112.30727 144.078302 113.953404 143.940467 114.508679 C 143.731747 115.134841 140.8963 118.076617 139.640039 117.761568 C 138.37984 117.446518 136.387151 115.977599 136.280821 114.615009 C 136.17843 113.252419 136.387151 108.739332 137.3323 107.585462 C 138.273511 106.431592 143.204039 94.786567 143.519088 94.050139 C 143.834138 93.317648 148.032176 84.189083 148.138505 82.617772 C 148.240896 81.042524 146.831049 77.4037 145.346377 76.068676 C 142.046231 66.349393 143.341873 60.489468 150.131194 58.484964 Z M 150.131194 58.488902 " transform="matrix(0.991907,0,0,0.991907,237.462731,105.718826)"/>
<path style="fill:none;stroke-width:0.60887;stroke-linecap:butt;stroke-linejoin:miter;stroke:rgb(0%,0%,0%);stroke-opacity:1;stroke-miterlimit:4;" d="M 101.251231 103.50163 L 101.412694 108.097418 " transform="matrix(0.991907,0,0,0.991907,237.462731,105.718826)"/>
<path style="fill:none;stroke-width:0.60887;stroke-linecap:butt;stroke-linejoin:miter;stroke:rgb(0%,0%,0%);stroke-opacity:1;stroke-miterlimit:4;" d="M 96.942926 103.159014 C 96.942926 103.159014 99.888641 108.089542 99.644478 110.716269 " transform="matrix(0.991907,0,0,0.991907,237.462731,105.718826)"/>
<path style="fill:none;stroke-width:0.60887;stroke-linecap:butt;stroke-linejoin:round;stroke:rgb(0%,0%,0%);stroke-opacity:1;stroke-miterlimit:4;" d="M 136.45016 113.461139 C 136.45016 113.461139 138.655508 113.22879 138.584622 116.906995 C 139.990532 112.338775 142.853546 112.228507 142.853546 112.228507 " transform="matrix(0.991907,0,0,0.991907,237.462731,105.718826)"/>
<path style="fill-rule:evenodd;fill:rgb(96.862745%,77.647059%,0%);fill-opacity:1;stroke-width:1.568875;stroke-linecap:butt;stroke-linejoin:miter;stroke:rgb(0%,0%,0%);stroke-opacity:1;stroke-miterlimit:4;" d="M 768.251137 391.318964 C 825.337311 389.735915 862.204092 348.505602 861.808329 348.109839 C 861.412567 347.714077 869.337961 336.612437 875.680305 338.20056 C 882.02265 339.783609 891.145478 358.414881 902.242044 362.382651 C 907.792864 371.09957 900.658995 379.030037 898.279347 380.61816 C 895.8997 382.20121 885.198896 386.564743 883.610773 380.217324 C 882.02265 373.87498 878.851478 375.06734 878.851478 375.06734 C 878.851478 375.06734 828.112721 424.61881 769.443497 422.639998 C 708.795462 423.035761 658.843156 375.06734 658.843156 375.06734 L 654.484697 379.826636 C 654.484697 379.826636 649.725402 384.97662 647.345754 384.580857 C 644.966107 384.185095 634.661065 377.446988 633.869541 370.708881 C 633.072942 363.970774 640.211885 359.607241 640.211885 359.607241 C 640.211885 359.607241 657.655869 346.131028 659.634681 338.992085 C 663.602452 335.029388 671.132083 341.767495 671.132083 341.767495 C 671.132083 341.767495 717.116618 394.49521 768.25621 391.324038 Z M 768.251137 391.318964 " transform="matrix(0.769875,0,0,0.769875,-226.1175,21.19425)"/>
<path style="fill:none;stroke-width:1.568875;stroke-linecap:butt;stroke-linejoin:miter;stroke:rgb(0%,0%,0%);stroke-opacity:1;stroke-miterlimit:4;" d="M 639.019524 360.657534 C 639.019524 360.657534 643.738229 359.404286 645.46842 361.367876 C 647.198612 363.331466 659.066407 374.970937 659.066407 374.970937 " transform="matrix(0.769875,0,0,0.769875,-226.1175,21.19425)"/>
<path style="fill:none;stroke-width:1.568875;stroke-linecap:butt;stroke-linejoin:miter;stroke:rgb(0%,0%,0%);stroke-opacity:1;stroke-miterlimit:4;" d="M 649.791362 366.157615 L 645.072658 369.69918 C 645.072658 369.69918 656.945527 372.058532 654.271594 379.841857 " transform="matrix(0.769875,0,0,0.769875,-226.1175,21.19425)"/>
<path style="fill:none;stroke-width:1.568875;stroke-linecap:butt;stroke-linejoin:miter;stroke:rgb(0%,0%,0%);stroke-opacity:1;stroke-miterlimit:4;" d="M 897.990136 360.261771 C 897.990136 360.261771 895.630784 359.00345 891.937003 361.753491 C 888.243221 364.503531 878.886995 374.960789 878.886995 374.960789 " transform="matrix(0.769875,0,0,0.769875,-226.1175,21.19425)"/>
<path style="fill:none;stroke-width:1.568875;stroke-linecap:butt;stroke-linejoin:miter;stroke:rgb(0%,0%,0%);stroke-opacity:1;stroke-miterlimit:4;" d="M 887.380662 365.848108 L 892.490055 369.780362 C 892.490055 369.780362 881.799399 370.490705 884.158751 380.628308 " transform="matrix(0.769875,0,0,0.769875,-226.1175,21.19425)"/>
<path style=" stroke:none;fill-rule:nonzero;fill:rgb(0%,0%,0%);fill-opacity:1;" d="M 312.371094 308.542969 L 312.105469 308.914062 C 311.554688 308.640625 310.925781 308.589844 310.21875 308.761719 C 309.699219 308.894531 308.722656 309.382812 307.285156 310.222656 L 295.191406 317.273438 L 294.859375 317.039062 L 297.90625 302.902344 C 298.273438 301.195312 298.441406 300.160156 298.410156 299.796875 C 298.386719 299.433594 298.128906 299.035156 297.644531 298.601562 L 297.910156 298.230469 L 304.429688 302.878906 L 304.164062 303.25 L 303.945312 303.089844 C 303.355469 302.671875 302.902344 302.460938 302.582031 302.453125 C 302.355469 302.445312 302.175781 302.535156 302.039062 302.730469 C 301.953125 302.851562 301.875 303.011719 301.808594 303.21875 C 301.75 303.417969 301.617188 303.984375 301.414062 304.917969 L 299.484375 313.753906 L 306.472656 309.644531 C 307.3125 309.144531 307.855469 308.796875 308.105469 308.601562 C 308.355469 308.40625 308.542969 308.222656 308.667969 308.050781 C 308.8125 307.847656 308.882812 307.632812 308.886719 307.402344 C 308.890625 307.171875 308.816406 306.945312 308.664062 306.714844 C 308.460938 306.398438 308.117188 306.070312 307.644531 305.730469 L 307.910156 305.359375 L 312.371094 308.542969 M 316.714844 329.554688 L 316.496094 329.957031 L 308.832031 325.765625 L 309.050781 325.367188 L 309.539062 325.632812 C 309.964844 325.863281 310.347656 325.976562 310.6875 325.964844 C 310.929688 325.96875 311.171875 325.875 311.40625 325.683594 C 311.578125 325.554688 311.867188 325.121094 312.269531 324.386719 L 317.539062 314.746094 C 317.949219 313.996094 318.167969 313.507812 318.191406 313.277344 C 318.214844 313.046875 318.140625 312.796875 317.96875 312.523438 C 317.8125 312.25 317.527344 312 317.113281 311.777344 L 316.628906 311.511719 L 316.847656 311.109375 L 324.511719 315.300781 L 324.292969 315.699219 L 323.804688 315.433594 C 323.378906 315.203125 322.996094 315.089844 322.652344 315.101562 C 322.410156 315.097656 322.167969 315.191406 321.925781 315.375 C 321.753906 315.507812 321.464844 315.9375 321.0625 316.671875 L 315.792969 326.3125 C 315.382812 327.0625 315.164062 327.554688 315.140625 327.785156 C 315.125 328.019531 315.199219 328.273438 315.355469 328.546875 C 315.527344 328.816406 315.816406 329.066406 316.226562 329.289062 L 316.714844 329.554688 M 344.707031 322.992188 L 342.730469 328.535156 L 342.300781 328.382812 C 342.324219 326.683594 341.957031 325.253906 341.203125 324.09375 C 340.445312 322.9375 339.453125 322.140625 338.222656 321.699219 C 337.046875 321.28125 335.949219 321.265625 334.929688 321.652344 C 333.917969 322.03125 333.035156 322.753906 332.289062 323.824219 C 331.542969 324.890625 330.945312 326.046875 330.503906 327.292969 C 329.964844 328.800781 329.671875 330.1875 329.625 331.453125 C 329.574219 332.714844 329.847656 333.753906 330.449219 334.570312 C 331.054688 335.386719 331.902344 335.992188 332.996094 336.378906 C 333.375 336.515625 333.773438 336.613281 334.195312 336.675781 C 334.628906 336.734375 335.082031 336.761719 335.554688 336.753906 L 336.71875 333.484375 C 336.941406 332.863281 337.039062 332.449219 337.019531 332.242188 C 337 332.027344 336.878906 331.796875 336.660156 331.554688 C 336.449219 331.3125 336.15625 331.125 335.777344 330.988281 L 335.371094 330.84375 L 335.523438 330.414062 L 343.171875 333.140625 L 343.019531 333.570312 C 342.425781 333.402344 341.988281 333.335938 341.714844 333.378906 C 341.445312 333.414062 341.203125 333.550781 340.980469 333.785156 C 340.859375 333.90625 340.695312 334.253906 340.492188 334.828125 L 339.324219 338.097656 C 338.160156 338.1875 336.992188 338.152344 335.820312 337.988281 C 334.65625 337.835938 333.488281 337.550781 332.320312 337.132812 C 330.828125 336.601562 329.65625 335.957031 328.8125 335.203125 C 327.972656 334.441406 327.292969 333.597656 326.769531 332.671875 C 326.257812 331.738281 325.933594 330.785156 325.804688 329.804688 C 325.644531 328.542969 325.796875 327.253906 326.269531 325.929688 C 327.113281 323.5625 328.65625 321.859375 330.902344 320.820312 C 333.144531 319.777344 335.527344 319.707031 338.050781 320.605469 C 338.832031 320.882812 339.515625 321.195312 340.097656 321.542969 C 340.414062 321.726562 340.902344 322.101562 341.554688 322.664062 C 342.21875 323.222656 342.621094 323.527344 342.757812 323.578125 C 342.976562 323.65625 343.203125 323.648438 343.445312 323.558594 C 343.6875 323.464844 343.964844 323.222656 344.277344 322.835938 L 344.707031 322.988281 M 356.5 341.917969 L 356.429688 342.371094 L 347.796875 341.0625 L 347.863281 340.609375 L 348.414062 340.695312 C 348.890625 340.765625 349.289062 340.738281 349.609375 340.613281 C 349.835938 340.53125 350.027344 340.363281 350.183594 340.101562 C 350.304688 339.921875 350.425781 339.417969 350.550781 338.589844 L 352.195312 327.726562 C 352.324219 326.878906 352.359375 326.347656 352.300781 326.121094 C 352.246094 325.898438 352.089844 325.6875 351.835938 325.488281 C 351.59375 325.289062 351.242188 325.152344 350.777344 325.082031 L 350.230469 324.996094 L 350.296875 324.546875 L 358.933594 325.855469 L 358.863281 326.304688 L 358.316406 326.222656 C 357.839844 326.148438 357.4375 326.175781 357.121094 326.304688 C 356.894531 326.386719 356.695312 326.554688 356.535156 326.8125 C 356.414062 326.992188 356.292969 327.5 356.167969 328.328125 L 354.519531 339.191406 C 354.394531 340.035156 354.359375 340.570312 354.414062 340.792969 C 354.480469 341.019531 354.636719 341.234375 354.878906 341.4375 C 355.132812 341.632812 355.488281 341.765625 355.953125 341.835938 L 356.5 341.917969 M 378.914062 336.472656 L 378.585938 342.363281 L 363.773438 343.117188 L 363.75 342.664062 L 364.304688 342.632812 C 364.789062 342.609375 365.171875 342.503906 365.460938 342.316406 C 365.667969 342.191406 365.820312 341.984375 365.921875 341.699219 C 366 341.5 366.019531 340.980469 365.976562 340.144531 L 365.417969 329.171875 C 365.375 328.316406 365.300781 327.789062 365.199219 327.578125 C 365.101562 327.371094 364.90625 327.195312 364.617188 327.054688 C 364.339844 326.902344 363.964844 326.839844 363.5 326.863281 L 362.945312 326.890625 L 362.921875 326.4375 L 371.816406 325.984375 L 371.839844 326.4375 L 371.113281 326.476562 C 370.628906 326.5 370.246094 326.605469 369.957031 326.792969 C 369.75 326.917969 369.59375 327.125 369.484375 327.410156 C 369.40625 327.609375 369.386719 328.128906 369.429688 328.964844 L 369.96875 339.59375 C 370.015625 340.449219 370.089844 340.992188 370.203125 341.222656 C 370.3125 341.449219 370.511719 341.609375 370.804688 341.710938 C 371.015625 341.773438 371.511719 341.785156 372.300781 341.746094 L 373.691406 341.675781 C 374.578125 341.628906 375.304688 341.4375 375.882812 341.09375 C 376.457031 340.753906 376.9375 340.234375 377.332031 339.539062 C 377.730469 338.847656 378.089844 337.832031 378.410156 336.5 L 378.914062 336.476562 M 395.117188 333.664062 L 389.460938 335.351562 L 389.253906 337.113281 C 389.191406 337.695312 389.207031 338.160156 389.308594 338.496094 C 389.441406 338.945312 389.722656 339.222656 390.148438 339.328125 C 390.398438 339.386719 390.949219 339.328125 391.800781 339.140625 L 391.933594 339.578125 L 386.609375 341.167969 L 386.480469 340.730469 C 387.027344 340.472656 387.429688 340.09375 387.683594 339.597656 C 387.9375 339.09375 388.152344 338.152344 388.332031 336.769531 L 390.238281 322.289062 L 390.464844 322.222656 L 400.15625 333.625 C 401.078125 334.703125 401.765625 335.351562 402.214844 335.566406 C 402.554688 335.730469 402.976562 335.757812 403.476562 335.652344 L 403.605469 336.089844 L 395.863281 338.402344 L 395.730469 337.964844 L 396.050781 337.871094 C 396.671875 337.683594 397.082031 337.46875 397.285156 337.21875 C 397.417969 337.042969 397.453125 336.835938 397.382812 336.597656 C 397.339844 336.457031 397.273438 336.320312 397.179688 336.183594 C 397.144531 336.117188 396.9375 335.859375 396.5625 335.40625 L 395.117188 333.664062 M 394.453125 332.910156 L 390.421875 328.109375 L 389.613281 334.355469 L 394.453125 332.910156 M 415.800781 311.160156 L 417.941406 315.140625 L 417.550781 315.351562 C 416.824219 314.558594 416.214844 314.035156 415.71875 313.789062 C 415.21875 313.535156 414.65625 313.421875 414.035156 313.449219 C 413.691406 313.464844 413.175781 313.660156 412.488281 314.03125 L 411.394531 314.617188 L 417.496094 325.96875 C 417.898438 326.71875 418.191406 327.167969 418.371094 327.3125 C 418.558594 327.453125 418.8125 327.535156 419.128906 327.550781 C 419.449219 327.554688 419.820312 327.445312 420.238281 327.21875 L 420.726562 326.957031 L 420.941406 327.359375 L 413.238281 331.5 L 413.023438 331.097656 L 413.511719 330.835938 C 413.9375 330.605469 414.242188 330.347656 414.417969 330.054688 C 414.554688 329.851562 414.609375 329.597656 414.585938 329.292969 C 414.570312 329.078125 414.363281 328.601562 413.96875 327.863281 L 407.867188 316.515625 L 406.804688 317.085938 C 405.8125 317.617188 405.207031 318.214844 404.984375 318.875 C 404.667969 319.800781 404.71875 320.847656 405.136719 322.023438 L 404.726562 322.246094 L 402.585938 318.265625 L 415.796875 311.160156 M 425.816406 305.21875 L 429.910156 310.648438 L 430.175781 310.445312 C 431.023438 309.808594 431.4375 309.082031 431.414062 308.261719 C 431.394531 307.445312 431.046875 306.480469 430.371094 305.363281 L 430.746094 305.082031 L 436.011719 312.0625 L 435.636719 312.347656 C 434.984375 311.644531 434.347656 311.148438 433.726562 310.855469 C 433.109375 310.558594 432.574219 310.453125 432.117188 310.542969 C 431.652344 310.625 431.105469 310.90625 430.46875 311.382812 L 433.300781 315.140625 C 433.855469 315.875 434.222656 316.300781 434.40625 316.421875 C 434.597656 316.535156 434.816406 316.582031 435.066406 316.558594 C 435.316406 316.535156 435.628906 316.378906 436.011719 316.09375 L 436.804688 315.492188 C 438.050781 314.550781 438.832031 313.511719 439.144531 312.371094 C 439.460938 311.226562 439.339844 309.9375 438.777344 308.511719 L 439.140625 308.238281 L 441.738281 312.929688 L 430.214844 321.621094 L 429.9375 321.257812 L 430.382812 320.921875 C 430.769531 320.632812 431.027344 320.328125 431.160156 320.011719 C 431.261719 319.792969 431.273438 319.535156 431.195312 319.242188 C 431.148438 319.03125 430.875 318.589844 430.371094 317.921875 L 423.753906 309.152344 C 423.296875 308.546875 423.003906 308.191406 422.867188 308.078125 C 422.628906 307.898438 422.371094 307.8125 422.101562 307.820312 C 421.714844 307.824219 421.304688 307.988281 420.871094 308.316406 L 420.429688 308.648438 L 420.15625 308.285156 L 431.316406 299.867188 L 434.289062 303.808594 L 433.917969 304.09375 C 433 303.273438 432.210938 302.785156 431.546875 302.625 C 430.886719 302.464844 430.171875 302.519531 429.394531 302.800781 C 428.9375 302.957031 428.203125 303.417969 427.195312 304.179688 L 425.816406 305.21875 "/>
</g>
</svg>
