<?xml version="1.0" encoding="UTF-8"?>
<svg xmlns="http://www.w3.org/2000/svg" xmlns:xlink="http://www.w3.org/1999/xlink" width="480pt" height="360pt" viewBox="0 0 480 360" version="1.1">
<g id="surface1">
<path style=" stroke:none;fill-rule:evenodd;fill:rgb(0%,0%,0%);fill-opacity:1;" d="M 0 0 L 244.277344 154.28125 L 539.984375 154.28125 L 539.984375 205.710938 L 244.277344 205.710938 L 0 359.984375 L 0 -0.00390625 Z M 0 0 "/>
<path style=" stroke:none;fill-rule:evenodd;fill:rgb(100%,100%,0%);fill-opacity:1;" d="M 0 347.136719 L 249.421875 187.714844 L 539.984375 187.714844 L 539.984375 172.289062 L 249.421875 172.289062 L 0 12.859375 L 0 36 L 233.992188 179.992188 L 0 323.992188 Z M 0 347.136719 "/>
<path style=" stroke:none;fill-rule:evenodd;fill:rgb(25.098039%,66.666667%,25.098039%);fill-opacity:1;" d="M 0 359.988281 L 249.421875 200.566406 L 539.984375 200.566406 L 539.984375 359.988281 Z M 0 359.988281 "/>
<path style=" stroke:none;fill-rule:evenodd;fill:rgb(80.784314%,0%,0%);fill-opacity:1;" d="M 0 0 L 249.421875 159.421875 L 539.984375 159.421875 L 539.984375 0 Z M 0 0 "/>
<path style=" stroke:none;fill-rule:evenodd;fill:rgb(100%,100%,0%);fill-opacity:1;" d="M 67.363281 187.46875 C 68.226562 187.660156 68.453125 187.90625 69.308594 186.652344 C 69.492188 186.023438 70.027344 185.140625 70.492188 184.355469 C 71.117188 183.332031 71.390625 182.921875 71.976562 183.703125 C 72.359375 184.144531 73.871094 183.324219 74.496094 183.757812 C 75.464844 184.402344 74.882812 184.308594 75.675781 183.609375 C 76.289062 182.3125 75.75 182.464844 74.890625 181.875 C 74.285156 181.460938 72.742188 182.3125 72.140625 181.898438 C 72.351562 180.601562 72.765625 180.460938 73.511719 180.210938 C 74.078125 180.597656 75.722656 179.914062 76.234375 179.925781 C 76.953125 180.078125 77.589844 180.15625 77.816406 179.101562 C 78.171875 178.351562 78.019531 178.871094 77.734375 178.324219 C 77.128906 177.910156 75.585938 178.765625 74.984375 178.351562 C 74.199219 177.757812 74.328125 177.535156 74.789062 176.542969 C 75.402344 176.207031 75.855469 176.367188 76.613281 176.839844 C 77.394531 177.375 78.621094 176.335938 79.308594 176.296875 C 79.921875 175.597656 80.648438 175.363281 80.1875 174.511719 C 79.933594 173.863281 79.738281 173.789062 78.894531 173.621094 C 78.03125 173.03125 76.910156 174.117188 76.578125 173.230469 C 77.265625 172.25 77.519531 172.457031 78.351562 173.007812 C 78.882812 173.191406 80.5 172.238281 81.015625 172.207031 C 81.785156 171.984375 81.410156 172.851562 81.953125 170.9375 C 81.765625 170.109375 80.375 171.445312 79.59375 171.230469 C 78.839844 171.332031 78.242188 171.066406 78.171875 170.253906 C 78.179688 169.164062 78.722656 169.089844 79.496094 169.253906 C 80.179688 169.375 81.71875 168.527344 82.289062 168.539062 C 83.105469 168.972656 83.363281 168.808594 84.003906 167.804688 C 84.476562 166.613281 83.953125 167.105469 83.144531 166.496094 C 82.539062 166.082031 81 166.933594 80.394531 166.519531 C 80.5 166.082031 80.691406 165.546875 81.105469 165.332031 C 81.699219 165.449219 82.210938 165.421875 82.957031 165.890625 C 83.695312 166.210938 84.90625 164.789062 85.539062 164.3125 C 85.417969 163.632812 84.214844 164.597656 83.480469 164.09375 C 83.015625 163.777344 82.433594 163.441406 82.289062 163.039062 C 82.707031 161.851562 82.503906 161.910156 83.644531 162.292969 C 84.25 162.136719 85.28125 162.144531 84.582031 161.023438 C 84.472656 160.84375 83.871094 160.90625 83.34375 160.652344 C 82.714844 160.21875 82.105469 159.78125 81.433594 159.582031 C 80.949219 159.507812 80.25 159.351562 79.867188 159.460938 C 79.824219 160.167969 80.003906 160.613281 79.960938 161.441406 C 80.277344 161.953125 80.871094 161.964844 80.996094 162.148438 C 80.363281 162.707031 80.023438 162.421875 79.355469 162.457031 C 78.558594 161.914062 79.015625 160.222656 78.078125 160.625 C 78.292969 161.121094 78.214844 163 78.617188 163.386719 C 79.042969 163.679688 79.585938 163.964844 79.679688 164.355469 C 79.003906 165.394531 78.75 165.335938 77.9375 164.835938 C 77.261719 164.367188 77.472656 162.84375 76.894531 162.921875 C 76.179688 163.460938 76.167969 163.433594 76.3125 164.195312 C 76.351562 165.195312 75.953125 166.582031 76.753906 167.128906 C 77.714844 167.808594 77.835938 167.730469 77.078125 169.027344 C 76.558594 169.660156 76.265625 169.542969 75.667969 169.253906 C 75.023438 168.8125 75.164062 167.1875 74.667969 166.652344 C 73.726562 166.089844 74.269531 166.113281 73.488281 166.800781 C 73.246094 167.683594 73.421875 167.914062 73.8125 168.699219 C 74.132812 169.183594 74.113281 170.84375 74.65625 170.953125 C 75.535156 171.457031 75.566406 171.355469 74.566406 172.324219 C 73.78125 172.355469 73.445312 172.570312 72.839844 171.859375 C 72.109375 171.304688 72.566406 169.605469 71.636719 169.597656 C 70.777344 169.667969 70.589844 169.6875 70.699219 170.867188 C 70.847656 171.902344 70.464844 173.527344 71.296875 174.144531 C 72.074219 174.5 72.546875 174.476562 72.820312 174.953125 C 72.578125 175.164062 72.121094 175.824219 71.851562 175.960938 C 71.308594 176 70.746094 175.625 70.128906 175.496094 C 69.390625 175.15625 69.726562 174.5 69.136719 174.097656 C 68.457031 174.316406 68.445312 173.367188 68.085938 174.332031 C 68.226562 175.125 67.957031 176.15625 68.699219 176.667969 C 69.304688 177.082031 69.832031 177.925781 70.4375 178.339844 C 71.128906 179.15625 70.855469 179.300781 70.429688 180.488281 C 69.855469 180.503906 69.175781 180.105469 68.546875 179.671875 C 67.945312 179.257812 68.050781 177.65625 67.445312 177.242188 C 66.925781 176.726562 67.074219 176.289062 66.265625 177.386719 C 66.191406 178.167969 66.335938 178.222656 66.535156 178.769531 C 66.558594 179.5625 66.34375 181.03125 67.074219 181.53125 C 67.8125 181.679688 68.609375 182.066406 69.191406 182.265625 C 69.746094 182.917969 69.261719 182.789062 68.640625 183.800781 C 68.246094 184.8125 68.242188 184.992188 67.628906 185.496094 C 67.09375 186.210938 66.882812 186.523438 67.363281 187.46875 Z M 67.363281 187.46875 "/>
<path style=" stroke:none;fill-rule:evenodd;fill:rgb(100%,100%,0%);fill-opacity:1;" d="M 85.019531 188.332031 C 85.539062 187.492188 85.855469 187.347656 85.042969 185.9375 C 84.539062 185.492188 83.941406 184.570312 83.410156 183.761719 C 82.71875 182.691406 82.449219 182.238281 83.398438 181.925781 C 83.957031 181.699219 83.804688 179.765625 84.449219 179.273438 C 85.429688 178.5 85.109375 179.082031 84.785156 177.960938 C 83.835938 176.792969 83.765625 177.425781 82.878906 178.101562 C 82.257812 178.578125 82.429688 180.558594 81.808594 181.03125 C 80.703125 180.289062 80.738281 179.792969 80.804688 178.902344 C 81.386719 178.457031 81.414062 176.433594 81.625 175.898438 C 82.050781 175.195312 82.378906 174.546875 81.5 173.882812 C 80.953125 173.207031 81.367188 173.578125 80.753906 173.664062 C 80.132812 174.140625 80.304688 176.117188 79.683594 176.59375 C 78.828125 177.1875 78.675781 176.964844 77.945312 176.078125 C 77.878906 175.292969 78.210938 174.875 78.945312 174.257812 C 79.746094 173.644531 79.28125 171.925781 79.515625 171.183594 C 79.121094 170.25 79.195312 169.386719 78.230469 169.53125 C 77.53125 169.542969 77.386719 169.71875 76.898438 170.550781 C 76.011719 171.230469 76.558594 172.855469 75.617188 172.851562 C 74.988281 171.734375 75.28125 171.546875 76.117188 170.882812 C 76.5 170.390625 76.265625 168.292969 76.445312 167.734375 C 76.546875 166.828125 77.191406 167.570312 75.652344 166.230469 C 74.816406 166.097656 75.492188 168.109375 74.980469 168.855469 C 74.773438 169.695312 74.289062 170.222656 73.519531 169.972656 C 72.523438 169.527344 72.667969 168.921875 73.125 168.164062 C 73.507812 167.488281 73.34375 165.515625 73.582031 164.914062 C 74.304688 164.222656 74.257812 163.882812 73.589844 162.796875 C 72.683594 161.820312 72.929688 162.574219 72.046875 163.1875 C 71.425781 163.664062 71.597656 165.644531 70.976562 166.117188 C 70.613281 165.832031 70.199219 165.414062 70.167969 164.890625 C 70.511719 164.308594 70.691406 163.753906 71.417969 163.144531 C 72.003906 162.492188 71.183594 160.632812 70.996094 159.773438 C 70.324219 159.628906 70.730469 161.296875 69.976562 161.871094 C 69.5 162.238281 68.960938 162.722656 68.53125 162.714844 C 67.609375 161.800781 67.582031 162.039062 68.386719 160.980469 C 68.484375 160.273438 68.902344 159.183594 67.597656 159.476562 C 67.386719 159.523438 67.207031 160.183594 66.765625 160.640625 C 66.113281 161.140625 65.46875 161.609375 65.019531 162.242188 C 64.757812 162.726562 64.332031 163.410156 64.285156 163.859375 C 64.914062 164.183594 65.398438 164.175781 66.140625 164.546875 C 66.738281 164.421875 66.984375 163.792969 67.203125 163.734375 C 67.460938 164.628906 67.0625 164.878906 66.832031 165.601562 C 66.015625 166.226562 64.644531 165.066406 64.640625 166.222656 C 65.183594 166.191406 66.875 167.027344 67.390625 166.753906 C 67.828125 166.417969 68.304688 165.957031 68.703125 166.011719 C 69.390625 167.144531 69.234375 167.394531 68.449219 168.054688 C 67.753906 168.585938 66.4375 167.75 66.277344 168.398438 C 66.488281 169.375 66.460938 169.375 67.21875 169.523438 C 68.148438 169.882812 69.261719 170.859375 70.085938 170.230469 C 71.09375 169.480469 71.066406 169.320312 71.957031 170.640625 C 72.332031 171.449219 72.105469 171.710938 71.605469 172.230469 C 70.941406 172.738281 69.503906 171.941406 68.820312 172.253906 C 67.925781 173.03125 68.164062 172.460938 68.484375 173.566406 C 69.195312 174.179688 69.480469 174.085938 70.355469 173.980469 C 70.929688 173.835938 72.445312 174.519531 72.761719 173.984375 C 73.570312 173.25 73.492188 173.179688 73.984375 174.628906 C 73.699219 175.476562 73.765625 175.917969 72.867188 176.273438 C 72.070312 176.828125 70.691406 175.664062 70.3125 176.648438 C 70.035156 177.589844 69.984375 177.796875 71.105469 178.152344 C 72.117188 178.410156 73.457031 179.46875 74.355469 178.828125 C 74.992188 178.144531 75.15625 177.636719 75.699219 177.535156 C 75.800781 177.875 76.222656 178.625 76.242188 178.964844 C 76.0625 179.558594 75.492188 180.007812 75.128906 180.609375 C 74.523438 181.253906 74.054688 180.640625 73.453125 181.101562 C 73.382812 181.914062 72.507812 181.546875 73.25 182.3125 C 74.03125 182.480469 74.871094 183.179688 75.636719 182.59375 C 76.257812 182.121094 77.242188 181.894531 77.863281 181.417969 C 78.890625 181.011719 78.910156 181.355469 79.832031 182.28125 C 79.617188 182.902344 78.980469 183.460938 78.335938 183.957031 C 77.714844 184.433594 76.285156 183.679688 75.664062 184.15625 C 74.984375 184.503906 74.644531 184.167969 75.328125 185.46875 C 76.011719 185.859375 76.121094 185.726562 76.703125 185.734375 C 77.441406 186.027344 78.703125 186.839844 79.457031 186.265625 C 79.886719 185.539062 80.558594 184.847656 80.96875 184.3125 C 81.789062 183.980469 81.480469 184.445312 82.160156 185.511719 C 82.933594 186.332031 83.097656 186.40625 83.316406 187.261719 C 83.757812 188.113281 83.960938 188.464844 85.019531 188.332031 Z M 85.019531 188.332031 "/>
<path style=" stroke:none;fill-rule:evenodd;fill:rgb(100%,100%,0%);fill-opacity:1;" d="M 68.910156 221.136719 C 68.910156 217.394531 68.332031 213.65625 68.910156 213.65625 C 101.824219 213.65625 110.050781 191.214844 110.050781 176.253906 C 110.050781 161.292969 98.621094 146.332031 77.140625 146.332031 C 52.453125 146.332031 44.226562 160.949219 44.226562 176.253906 C 44.226562 191.214844 56.570312 202.433594 68.910156 202.433594 C 85.367188 202.433594 89.480469 198.695312 101.824219 183.734375 C 97.710938 202.433594 77.140625 209.914062 68.910156 209.914062 C 52.453125 209.914062 36 198.695312 36 176.253906 C 36 157.554688 48.339844 138.851562 77.140625 138.851562 C 101.828125 138.851562 118.28125 157.554688 118.28125 176.253906 C 118.28125 202.4375 97.710938 221.136719 68.910156 221.136719 Z M 68.910156 221.136719 "/>
</g>
</svg>
