<?xml version="1.0" encoding="UTF-8"?>
<svg xmlns="http://www.w3.org/2000/svg" xmlns:xlink="http://www.w3.org/1999/xlink" width="600pt" height="360pt" viewBox="0 0 600 360" version="1.1">
<g id="surface1">
<path style=" stroke:none;fill-rule:evenodd;fill:rgb(100%,100%,100%);fill-opacity:1;" d="M 0 0 L 599.824219 0 L 599.824219 180.023438 L 0 180.023438 Z M 0 0 "/>
<path style=" stroke:none;fill-rule:evenodd;fill:rgb(0%,67.058824%,22.352941%);fill-opacity:1;" d="M 0 180.023438 L 599.824219 180.023438 L 599.824219 360.046875 L 0 360.046875 Z M 0 180.023438 "/>
<path style="fill-rule:evenodd;fill:rgb(82.352941%,6.27451%,20.392157%);fill-opacity:1;stroke-width:1.72289;stroke-linecap:butt;stroke-linejoin:round;stroke:rgb(0%,0%,0%);stroke-opacity:1;stroke-miterlimit:4;" d="M 541.625775 28.561979 C 489.340638 57.468403 442.558066 87.542708 396.561576 125.872917 C 374.502858 145.14566 380.726895 160.505729 379.876204 177.814063 C 380.586908 189.428299 377.361823 200.240625 370.217103 206.747396 C 353.870931 210.057292 337.503223 213.383333 321.157051 216.687847 C 319.590273 212.167014 318.034264 207.646181 316.467487 203.125347 C 317.964271 196.182639 323.698353 192.770486 335.780306 197.124479 C 336.733294 188.201215 329.55627 184.568403 321.157051 181.468403 C 318.271165 179.224132 314.690729 177.496528 315.153763 169.778819 C 313.743125 152.31441 341.772826 171.032813 342.031263 171.032813 C 342.289701 171.032813 341.099811 153.401563 328.221009 149.876389 C 321.19474 147.389931 318.222708 139.984375 320.903997 134.500174 C 326.525013 123.289583 337.099414 135.377431 345.186354 135.813368 C 344.884844 128.493924 342.801191 123.278819 336.501777 117.374826 C 333.109785 115.286632 324.78056 113.715104 324.559811 110.21684 C 324.38752 105.464583 332.372161 103.43559 343.344987 104.748785 C 341.056738 98.091319 333.675117 93.780382 323.531445 90.658854 C 321.533939 87.176736 319.531048 83.7 317.533542 80.217882 C 314.690729 74.959722 313.414694 74.81441 319.999466 64.841667 C 325.916608 61.015104 333.772031 55.60625 339.689173 51.779688 C 337.513991 51.521354 335.333424 51.263021 333.158242 50.999306 C 334.025085 43.868229 334.127383 41.467882 335.780306 29.627604 C 329.437819 38.297917 321.507018 36.747917 314.373066 40.310764 C 314.373066 40.310764 294.04265 43.922049 287.500951 52.560069 C 287.237129 52.560069 236.373398 49.971354 236.373398 49.971354 C 225.535176 51.478299 216.274499 54.551389 214.47082 65.094618 C 189.676973 67.597222 163.714772 65.379861 144.811146 89.092708 C 157.684564 88.484549 168.948132 85.422222 183.404479 87.278993 C 183.404479 87.278993 195.728717 87.515799 198.280788 100.561632 C 198.544609 101.083681 202.469629 101.094444 202.469629 101.094444 C 204.036406 102.310764 205.592415 103.532465 207.153809 104.748785 C 207.767598 103.096528 208.35985 101.433507 208.968255 99.78125 C 210.362741 100.739236 211.762611 101.697222 213.157096 102.655208 C 213.587826 100.830729 214.034707 99.011632 214.47082 97.187153 C 215.859922 98.145139 217.232871 99.108507 218.627357 100.061111 C 218.713503 97.886806 218.821185 95.707118 218.907331 93.532813 C 220.732546 94.835243 222.546992 96.132292 224.377591 97.440104 L 224.377591 88.845139 C 224.377591 88.845139 244.568021 88.796701 250.71668 101.627257 C 250.980501 101.88559 194.048874 112.089757 139.060911 107.375174 C 144.369648 104.764931 149.662233 102.138542 154.97097 99.533681 C 134.920527 95.454167 116.070742 91.772917 98.373158 77.876736 C 105.054844 103.010417 139.55625 132.535764 146.625592 132.406597 C 146.625592 132.664931 139.841608 120.157292 139.841608 120.157292 C 159.757448 121.023785 179.678672 121.879514 199.594512 122.751389 C 201.769694 129.360417 200.805937 136.771354 206.125443 142.594618 C 206.125443 142.594618 202.82498 153.519965 210.158145 157.970833 C 210.416582 158.4875 218.907331 135.813368 218.907331 135.813368 C 218.907331 135.813368 221.507858 141.911111 224.124538 145.969097 C 227.920339 126.459549 249.155286 123.278819 249.155286 123.278819 C 249.155286 123.278819 253.591797 133.456076 253.591797 133.719792 C 246.958568 134.677778 238.70472 148.202604 243.157383 155.624306 C 238.70472 155.710417 230.806224 168.810069 233.250612 175.968056 C 229.508652 179.692361 220.194134 184.654514 222.563145 200.251389 C 215.22998 201.822917 210.885 215.240104 213.157096 229.469965 C 201.807383 240.034722 204.59097 259.425868 214.71849 267.283507 C 210.513496 271.018576 207.929121 273.897917 207.939889 278.499479 C 203.939492 277.014063 200.256758 278.257292 198.533841 280.872917 C 193.634297 275.851562 186.597259 271.459896 181.595417 276.158333 C 180.297845 270.216667 172.560872 263.682986 164.09166 264.436458 C 164.592383 258.171875 161.340378 250.421875 152.375827 247.720139 C 152.375827 247.720139 150.56138 218.361632 141.656055 208.846354 C 140.783828 203.518229 142.167546 199.896181 149.50071 195.531424 C 156.823105 191.624132 158.379115 188.594097 157.846087 177.528819 C 160.731973 170.134028 162.923307 162.593924 153.93722 157.470313 C 154.206426 166.26441 151.508984 170.5 147.939316 174.407292 C 143.669714 173.782986 142.183698 178.761285 139.313965 180.93559 C 135.297415 175.526736 147.783177 167.136285 138.533268 155.091493 C 138.011009 154.569444 132.072331 139.370833 117.406003 139.72066 C 124.378431 143.800174 127.323542 150.667535 127.312773 157.717882 C 122.687819 170.763715 120.340345 180.844097 124.970684 195.811285 C 118.875866 186.683507 115.419264 169.332118 110.374349 166.312847 C 105.953991 165.451736 103.794961 154.989236 86.62502 157.970833 C 94.028177 159.962153 96.381035 165.618576 98.373158 170.747569 C 93.834349 173.094097 96.090293 179.267188 99.406908 183.529687 C 98.776966 193.545486 104.77487 199.39566 113.750189 203.125347 C 112.269557 216.77934 110.788926 230.406424 109.313678 244.060417 C 105.749395 243.608333 100.262982 257.488368 98.093184 257.90816 C 94.604277 260.077083 88.514844 265.916493 95.49804 267.563368 C 93.425156 275.055035 91.497643 279.570486 80.341758 281.125868 C 80.341758 281.125868 92.132969 288.117014 101.905137 276.158333 C 112.382624 275.894618 108.93679 263.403125 113.997858 257.90816 C 113.997858 257.644444 116.872975 255.841493 121.061816 244.846181 C 122.892415 254.662847 132.971478 284.731771 155.751667 299.655903 C 175.608281 320.914583 191.927533 340.983854 191.749857 369.31441 C 199.497598 362.102604 204.127936 350.6875 207.686836 339.81059 C 218.465833 336.064757 233.880553 334.63316 247.626198 335.252083 C 245.267956 340.208854 242.62974 344.971875 246.0325 348.184896 C 236.438008 351.484028 234.338203 358.442882 238.187845 365.407118 C 228.076478 372.274479 227.408848 376.687674 227.247324 388.092014 C 208.54291 412.07934 196.999368 411.282812 178.467246 405.061285 C 172.383197 401.493056 162.96638 396.347917 158.626784 399.060417 C 150.620605 393.72691 139.114753 392.935764 137.219544 405.061285 C 143.222832 400.082986 146.808652 401.046354 151.59513 405.841667 C 150.631374 408.279688 149.829141 410.706944 153.404193 412.095486 C 151.842799 413.833854 150.28679 415.572222 148.720013 417.31059 C 140.10543 415.986632 128.524199 416.061979 125.498327 428.531944 C 129.924069 424.86684 139.73931 424.005729 147.653958 427.498611 C 149.13459 428.02066 150.615221 428.537326 152.095853 429.064757 C 152.268145 431.061458 152.451204 433.063542 152.623496 435.060243 C 152.623496 435.060243 140.89151 433.25191 137.752572 452.282465 C 148.752318 440.576736 156.532363 443.655208 156.532363 443.655208 C 160.769661 449.86059 176.372826 448.924132 187.59332 438.719965 C 203.358008 429.90434 207.950658 442.568056 218.126634 434.279861 C 226.563542 427.988368 236.540306 432.175521 243.405052 439.500347 C 251.319701 442.471181 259.605853 444.914583 266.126016 439.500347 C 266.126016 439.500347 274.089121 434.419792 282.03069 442.627257 C 282.116836 433.370313 275.558984 428.456597 266.653659 428.278993 C 265.786816 427.4125 266.298307 428.623438 264.031595 425.657986 C 255.680833 423.914236 246.301706 424.624653 239.000846 420.4375 C 242.441296 407.370139 247.45929 395.535243 257.247611 385.471007 C 269.340332 372.511285 278.234889 366.618056 293.498854 346.780208 C 292.911986 357.990799 301.505033 370.455382 306.033073 381.843576 C 306.033073 381.843576 315.148379 367.290799 316.467487 355.466667 C 316.731309 355.466667 327.892578 349.659549 332.65752 344.718924 C 342.709661 350.956597 359.10429 339.724479 369.68946 330.435243 C 376.215007 332.905556 381.168392 332.727951 388.749225 330.435243 C 382.659792 342.829861 392.270436 354.320312 407.529017 359.126389 C 408.939655 370.0625 419.987858 372.349826 436.748607 372.435938 C 437.453926 378.872743 447.436074 379.75 447.436074 379.75 C 441.131276 382.688542 437.841582 385.637847 438.062331 392.279167 C 431.596009 392.327604 426.701849 393.952951 425.000469 401.406944 C 416.122064 401.557639 407.076751 402.241146 399.436693 406.627431 C 391.263607 405.357292 381.313763 401.966667 374.906667 395.406076 C 371.60082 392.623611 370.777051 388.608681 364.999896 387.064062 C 361.338698 382.736979 356.961413 383.700347 355.593848 387.844444 C 351.808815 384.889757 337.621673 383.517361 335.252663 396.96684 C 341.875124 392.12309 347.813802 390.271701 351.970339 396.186458 C 349.703626 400.292882 357.483672 402.644792 364.219199 404.280903 C 368.994909 404.57691 377.464121 408.930903 380.123874 416.282639 C 373.964447 418.150174 364.628392 417.536632 358.468965 412.875868 C 352.99332 408.290451 345.595547 408.83941 341.53054 411.842535 C 335.893372 408.247396 322.460007 415.034028 321.937747 425.905556 C 327.596452 420.722743 332.743665 418.214757 337.874727 421.497743 C 335.322656 422.105903 336.291797 422.353472 336.561003 423.844271 C 340.911367 426.368403 345.245579 428.881771 349.595944 431.405903 C 343.199616 433.095833 337.190944 435.641493 339.969147 447.5625 C 339.969147 447.5625 345.175586 437.26684 356.907572 441.061111 C 357.166009 440.802778 358.522806 444.742361 361.877109 442.094444 C 366.948945 436.319618 378.557096 433.730903 388.749225 432.719097 C 396.927695 431.739583 405.095397 429.333854 412.218581 434 C 418.561068 430.738542 425.619642 428.542708 432.845124 433.752431 C 441.368177 436.443403 447.586829 446.378472 458.4089 441.841493 C 463.78763 438.122569 470.393939 437.934201 477.188691 445.501215 C 477.269453 435.959028 470.119349 432.756771 459.970293 430.625521 C 457.617435 429.231597 455.286113 427.82691 452.938639 426.438368 C 446.413092 425.480382 439.866009 426.6375 433.345846 423.56441 C 467.475749 414.738021 491.408138 395.702083 508.249648 368.528646 C 513.644531 370.444618 519.012493 372.333681 524.407376 374.249653 C 528.230098 374.497222 528.52084 375.826563 536.408568 378.189236 C 536.704694 366.575 531.719004 354.610937 510.844792 353.405382 L 483.439648 342.969792 C 477.619421 336.834375 474.991973 323.815451 482.405898 316.092361 C 489.663685 309.628646 490.928952 310.403646 495.720814 302.529861 C 501.541042 302.002431 507.027454 307.997917 512.406185 307.997917 C 514.958255 315.586458 529.678424 322.292361 539.030632 319.999653 C 544.888548 325.187847 556.039049 328.072569 568.250221 323.906944 C 575.179577 329.972396 584.208737 332.507292 594.842363 327.814236 C 597.669023 330.634375 603.629238 332.878646 610.499368 331.468576 C 611.021628 331.468576 613.972122 339.008681 621.46681 341.656597 C 618.198652 344.831944 620.212311 358.620486 623.56123 363.561111 C 621.272982 368.862326 620.55151 374.51875 622.50056 379.997569 C 614.941263 384.857465 613.401406 388.474132 616.78263 396.686979 C 606.881243 412.596007 595.041576 414.409722 583.907227 409.501389 C 579.906829 406.977257 575.906432 404.431597 571.906035 401.907465 C 567.647201 397.731076 563.388366 393.581597 559.124147 389.405208 C 556.954349 387.370833 552.463997 386.730382 551.532546 391.218924 C 551.532546 391.218924 535.132533 387.559201 533.813424 401.406944 C 540.608177 394.787153 550.251126 400.615799 550.251126 400.874132 C 550.251126 401.137847 547.952109 402.698611 549.718099 405.341146 C 550.116523 405.012847 561.69237 409.662847 571.997565 414.092188 C 577.602428 416.218056 578.830007 416.880035 581.279779 418.187847 C 578.59849 416.960764 575.421862 415.56684 571.997565 414.092188 C 565.725072 411.713368 559.614102 409.813542 557.810423 410.281771 C 551.974043 409.738194 545.776927 409.011632 542.939499 413.408681 C 536.661621 416.061979 526.851764 418.187847 527.282493 429.845139 C 531.519792 422.902431 537.334635 423.198438 544.748561 423.844271 C 544.57627 424.366319 544.425514 424.882986 544.247839 425.405035 C 552.29709 429.070139 550.773385 424.409375 558.278841 423.720486 C 564.556719 423.144618 573.45666 425.388889 578.156992 426.971181 C 572.245234 428.709549 564.201367 427.977604 560.405566 432.186285 C 559.711016 433.580208 557.277396 433.009722 558.343451 436.341146 C 558.343451 436.341146 546.810677 436.045139 543.720195 452.002604 C 555.446797 444.48941 564.33597 444.720833 564.594408 444.720833 C 564.852845 444.720833 568.250221 445.501215 568.250221 445.501215 C 568.250221 445.501215 582.335065 436.093576 582.593503 436.093576 C 582.857324 436.093576 596.231465 430.173437 602.407044 436.873958 C 607.796543 439.521875 613.557546 439.694097 619.12472 436.341146 C 630.092161 431.572743 640.354284 431.239062 650.43873 437.939583 L 659.564805 443.407639 C 660.86776 442.535764 662.165332 441.653125 663.468288 440.78125 C 663.468288 440.78125 673.800404 437.864236 681.375853 447.061979 C 678.242298 431.147569 666.876432 430.625521 666.876432 430.625521 C 666.004206 429.839757 665.121211 429.064757 664.248984 428.278993 C 658.859486 426.196181 653.486139 424.086458 648.091257 421.998264 C 645.738398 416.175 639.826641 411.535764 645.716862 404.533854 C 651.736302 374.604861 658.934863 352.129861 647.283639 321.813368 C 658.154167 326.506424 666.28418 341.02691 679.90599 335.908681 C 679.90599 323.72934 635.083236 300.613889 600.845651 282.030035 C 656.937357 279.161458 724.35724 237.752778 698.438112 185.122743 C 702.524655 172.426736 706.60043 159.730729 710.686973 147.02934 C 716.458743 158.65434 728.142272 167.513021 738.625143 171.280382 C 729.983639 154.784722 725.02487 104.350521 729.999792 69.52934 C 707.397279 97.450868 682.436523 122.234722 655.903607 147.406076 C 668.954701 150.457639 680.358255 148.310243 692.967852 146.749479 C 689.403568 154.052778 685.941582 161.382986 682.377298 168.686285 C 647.902812 148.498611 607.430423 163.648785 607.123529 190.596181 C 608.30265 222.015972 647.154421 226.477604 669.563105 215.530729 C 665.121211 244.178819 599.278874 233.624826 599.278874 233.624826 C 575.884896 225.562674 553.664655 226.940451 529.091556 227.123437 C 534.201081 211.413542 562.553828 197.474306 584.154896 203.625868 C 553.912324 169.714236 588.429883 127.616667 630.059857 114.656944 C 584.687923 99.689757 623.755059 65.1 657.718053 40.310764 C 657.718053 40.310764 560.055599 81.412674 551.155658 81.283507 C 523.400547 79.184549 531.019069 46.236285 541.625775 28.561979 Z M 230.353958 68.539062 C 231.360788 67.990104 237.832493 67.796354 242.069792 68.829688 C 246.473997 69.900694 251.815039 70.519618 251.739661 71.832813 C 249.704466 75.244965 244.708008 79.356771 239.786927 79.109201 C 234.865846 78.861632 231.996113 75.933854 230.353958 68.539062 Z M 230.353958 68.539062 " transform="matrix(0.725514,0,0,0.725806,0,0)"/>
<path style="fill-rule:evenodd;fill:rgb(100%,100%,100%);fill-opacity:1;stroke-width:1.90684;stroke-linecap:butt;stroke-linejoin:miter;stroke:rgb(0%,0%,0%);stroke-opacity:1;stroke-miterlimit:4;" d="M 667.732507 194.659549 C 664.130534 205.030556 632.891901 210.337153 630.79748 194.982465 C 629.731426 187.167882 649.297298 175.112326 667.732507 194.659549 Z M 667.732507 194.659549 " transform="matrix(0.725514,0,0,0.725806,0,0)"/>
<path style="fill:none;stroke-width:1.722887;stroke-linecap:round;stroke-linejoin:miter;stroke:rgb(0%,0%,0%);stroke-opacity:1;stroke-miterlimit:4;" d="M 715.958021 116.25 C 715.958021 116.25 713.820527 142.164062 710.686973 147.432986 " transform="matrix(0.725514,0,0,0.725806,0,0)"/>
<path style="fill:none;stroke-width:1.725;stroke-linecap:round;stroke-linejoin:miter;stroke:rgb(0%,0%,0%);stroke-opacity:1;stroke-miterlimit:4;" d="M 703.854531 117.676215 C 703.854531 117.816146 693.032461 146.867882 693.032461 146.867882 " transform="matrix(0.725514,0,0,0.725806,0,0)"/>
<path style="fill:none;stroke-width:1.722887;stroke-linecap:butt;stroke-linejoin:miter;stroke:rgb(0%,0%,0%);stroke-opacity:1;stroke-miterlimit:4;" d="M 682.474212 168.836979 C 684.638626 170.521528 693.010924 174.993924 698.54041 185.332639 " transform="matrix(0.725514,0,0,0.725806,0,0)"/>
<path style="fill:none;stroke-width:1.722887;stroke-linecap:butt;stroke-linejoin:miter;stroke:rgb(0%,0%,0%);stroke-opacity:1;stroke-miterlimit:4;" d="M 668.028633 194.998611 C 668.028633 194.998611 675.819447 201.796007 668.965469 218.205556 " transform="matrix(0.725514,0,0,0.725806,0,0)"/>
<path style="fill:none;stroke-width:1.722887;stroke-linecap:butt;stroke-linejoin:miter;stroke:rgb(0%,0%,0%);stroke-opacity:1;stroke-miterlimit:4;" d="M 552.060189 243.409201 C 567.442604 241.557813 589.51209 275.73316 600.759505 282.422917 " transform="matrix(0.725514,0,0,0.725806,0,0)"/>
<path style="fill:none;stroke-width:1.722887;stroke-linecap:butt;stroke-linejoin:miter;stroke:rgb(0%,0%,0%);stroke-opacity:1;stroke-miterlimit:4;" d="M 666.117272 430.372569 C 666.117272 430.372569 659.710176 435.071007 663.129089 441.19566 " transform="matrix(0.725514,0,0,0.725806,0,0)"/>
<path style="fill:none;stroke-width:1.722887;stroke-linecap:butt;stroke-linejoin:miter;stroke:rgb(0%,0%,0%);stroke-opacity:1;stroke-miterlimit:4;" d="M 558.467285 436.066667 C 558.467285 436.066667 566.155801 438.203299 565.305111 444.613194 " transform="matrix(0.725514,0,0,0.725806,0,0)"/>
<path style="fill:none;stroke-width:1.722887;stroke-linecap:butt;stroke-linejoin:miter;stroke:rgb(0%,0%,0%);stroke-opacity:1;stroke-miterlimit:4;" d="M 542.950267 413.710069 C 542.950267 413.710069 548.501289 419.549479 544.797018 424.393229 " transform="matrix(0.725514,0,0,0.725806,0,0)"/>
<path style="fill:none;stroke-width:1.722887;stroke-linecap:butt;stroke-linejoin:miter;stroke:rgb(0%,0%,0%);stroke-opacity:1;stroke-miterlimit:4;" d="M 551.774831 391.213542 C 551.774831 391.213542 559.177988 394.771007 550.353424 400.89566 " transform="matrix(0.725514,0,0,0.725806,0,0)"/>
<path style="fill:none;stroke-width:1.722887;stroke-linecap:butt;stroke-linejoin:miter;stroke:rgb(0%,0%,0%);stroke-opacity:1;stroke-miterlimit:4;" d="M 458.791172 430.087326 C 458.791172 430.087326 452.384076 435.496181 457.084408 441.620833 " transform="matrix(0.725514,0,0,0.725806,0,0)"/>
<path style="fill:none;stroke-width:1.722887;stroke-linecap:butt;stroke-linejoin:miter;stroke:rgb(0%,0%,0%);stroke-opacity:1;stroke-miterlimit:4;" d="M 349.574408 431.653472 C 349.574408 431.653472 361.252552 432.223958 357.122936 441.050347 " transform="matrix(0.725514,0,0,0.725806,0,0)"/>
<path style="fill:none;stroke-width:1.722887;stroke-linecap:butt;stroke-linejoin:miter;stroke:rgb(0%,0%,0%);stroke-opacity:1;stroke-miterlimit:4;" d="M 340.889831 412.003993 C 340.889831 412.003993 344.793314 419.231944 337.244785 421.228646 " transform="matrix(0.725514,0,0,0.725806,0,0)"/>
<path style="fill:none;stroke-width:1.722887;stroke-linecap:butt;stroke-linejoin:miter;stroke:rgb(0%,0%,0%);stroke-opacity:1;stroke-miterlimit:4;" d="M 355.556159 387.935938 C 355.556159 387.935938 359.400417 395.626736 351.997259 396.622396 " transform="matrix(0.725514,0,0,0.725806,0,0)"/>
<path style="fill:none;stroke-width:1.722887;stroke-linecap:butt;stroke-linejoin:miter;stroke:rgb(0%,0%,0%);stroke-opacity:1;stroke-miterlimit:4;" d="M 347.15694 429.947396 C 347.15694 429.947396 358.404355 420.259896 363.675404 425.388889 C 368.941068 430.5125 391.295911 420.975694 391.295911 420.975694 " transform="matrix(0.725514,0,0,0.725806,0,0)"/>
<path style="fill:none;stroke-width:1.722887;stroke-linecap:butt;stroke-linejoin:miter;stroke:rgb(0%,0%,0%);stroke-opacity:1;stroke-miterlimit:4;" d="M 398.989811 406.589757 L 380.479225 416.271875 " transform="matrix(0.725514,0,0,0.725806,0,0)"/>
<path style="fill:none;stroke-width:1.722887;stroke-linecap:butt;stroke-linejoin:miter;stroke:rgb(0%,0%,0%);stroke-opacity:1;stroke-miterlimit:4;" d="M 425.043542 401.326215 C 425.043542 401.326215 438.713809 415.992014 448.685189 398.188542 " transform="matrix(0.725514,0,0,0.725806,0,0)"/>
<path style="fill:none;stroke-width:1.722887;stroke-linecap:butt;stroke-linejoin:miter;stroke:rgb(0%,0%,0%);stroke-opacity:1;stroke-miterlimit:4;" d="M 438.288464 392.069271 C 447.543757 399.469444 443.75334 403.909549 472.800638 384.4 " transform="matrix(0.725514,0,0,0.725806,0,0)"/>
<path style="fill:none;stroke-width:1.722887;stroke-linecap:butt;stroke-linejoin:miter;stroke:rgb(0%,0%,0%);stroke-opacity:1;stroke-miterlimit:4;" d="M 447.118411 379.680035 C 447.118411 379.680035 471.890723 382.24184 473.032155 384.093229 C 475.880352 381.100868 498.003678 363.184375 470.808516 360.622569 C 466.253555 379.276389 447.543757 379.965278 447.118411 379.680035 Z M 447.118411 379.680035 " transform="matrix(0.725514,0,0,0.725806,0,0)"/>
<path style="fill:none;stroke-width:1.722887;stroke-linecap:butt;stroke-linejoin:miter;stroke:rgb(0%,0%,0%);stroke-opacity:1;stroke-miterlimit:4;" d="M 152.429668 435.114062 C 152.429668 435.114062 161.550358 436.454167 156.209316 443.795139 " transform="matrix(0.725514,0,0,0.725806,0,0)"/>
<path style="fill:none;stroke-width:1.722887;stroke-linecap:butt;stroke-linejoin:miter;stroke:rgb(0%,0%,0%);stroke-opacity:1;stroke-miterlimit:4;" d="M 148.423887 417.757292 C 148.423887 417.757292 155.094805 421.9875 147.530124 427.552431 " transform="matrix(0.725514,0,0,0.725806,0,0)"/>
<path style="fill:none;stroke-width:1.722887;stroke-linecap:butt;stroke-linejoin:miter;stroke:rgb(0%,0%,0%);stroke-opacity:1;stroke-miterlimit:4;" d="M 158.879837 399.29184 C 158.879837 399.29184 161.99724 407.300174 151.535905 406.186111 " transform="matrix(0.725514,0,0,0.725806,0,0)"/>
<path style="fill:none;stroke-width:1.722887;stroke-linecap:butt;stroke-linejoin:miter;stroke:rgb(0%,0%,0%);stroke-opacity:1;stroke-miterlimit:4;" d="M 152.203535 429.107813 C 152.203535 429.107813 164.888509 418.650694 171.564811 425.103646 C 178.020365 427.326389 181.579264 426.885069 181.579264 426.885069 " transform="matrix(0.725514,0,0,0.725806,0,0)"/>
<path style="fill:none;stroke-width:1.722887;stroke-linecap:butt;stroke-linejoin:miter;stroke:rgb(0%,0%,0%);stroke-opacity:1;stroke-miterlimit:4;" d="M 266.357533 428.440451 C 266.136784 428.440451 262.5725 436.007465 265.689902 439.78559 " transform="matrix(0.725514,0,0,0.725806,0,0)"/>
<path style="fill:none;stroke-width:1.722887;stroke-linecap:butt;stroke-linejoin:miter;stroke:rgb(0%,0%,0%);stroke-opacity:1;stroke-miterlimit:4;" d="M 153.318047 411.971701 C 161.329609 411.530382 163.052526 415.147049 170.342617 415.147049 C 178.736452 415.4 186.920306 411.971701 197.602389 409.081597 " transform="matrix(0.725514,0,0,0.725806,0,0)"/>
<path style="fill:none;stroke-width:1.722887;stroke-linecap:butt;stroke-linejoin:miter;stroke:rgb(0%,0%,0%);stroke-opacity:1;stroke-miterlimit:4;" d="M 99.024635 171.205035 C 99.024635 171.205035 104.139544 173.653819 109.033704 166.086806 " transform="matrix(0.725514,0,0,0.725806,0,0)"/>
<path style="fill:none;stroke-width:1.722887;stroke-linecap:butt;stroke-linejoin:miter;stroke:rgb(0%,0%,0%);stroke-opacity:1;stroke-miterlimit:4;" d="M 95.907233 267.331944 C 95.907233 267.331944 104.139544 269.780729 102.804284 276.013021 " transform="matrix(0.725514,0,0,0.725806,0,0)"/>
<path style="fill:none;stroke-width:1.722887;stroke-linecap:butt;stroke-linejoin:miter;stroke:rgb(0%,0%,0%);stroke-opacity:1;stroke-miterlimit:4;" d="M 127.72735 157.411111 C 127.72735 157.411111 127.72735 162.303299 137.962552 154.741667 " transform="matrix(0.725514,0,0,0.725806,0,0)"/>
<path style="fill:none;stroke-width:1.722887;stroke-linecap:butt;stroke-linejoin:miter;stroke:rgb(0%,0%,0%);stroke-opacity:1;stroke-miterlimit:4;" d="M 138.856315 180.553472 C 138.856315 180.553472 131.065501 201.467708 140.412324 206.365278 " transform="matrix(0.725514,0,0,0.725806,0,0)"/>
<path style="fill:none;stroke-width:1.722887;stroke-linecap:butt;stroke-linejoin:miter;stroke:rgb(0%,0%,0%);stroke-opacity:1;stroke-miterlimit:4;" d="M 148.197754 174.767882 C 148.197754 174.767882 152.203535 183.443576 157.765326 178.551389 " transform="matrix(0.725514,0,0,0.725806,0,0)"/>
<path style="fill:none;stroke-width:1.722887;stroke-linecap:butt;stroke-linejoin:miter;stroke:rgb(0%,0%,0%);stroke-opacity:1;stroke-miterlimit:4;" d="M 139.744694 119.802083 L 133.289141 109.344965 L 139.077064 107.342882 " transform="matrix(0.725514,0,0,0.725806,0,0)"/>
<path style="fill:none;stroke-width:1.722887;stroke-linecap:butt;stroke-linejoin:miter;stroke:rgb(0%,0%,0%);stroke-opacity:1;stroke-miterlimit:4;" d="M 204.052559 66.62309 C 204.052559 66.62309 210.281979 74.410764 210.502728 78.861632 C 210.728861 83.307118 205.834701 86.649306 205.834701 86.649306 " transform="matrix(0.725514,0,0,0.725806,0,0)"/>
<path style="fill:none;stroke-width:1.722887;stroke-linecap:butt;stroke-linejoin:miter;stroke:rgb(0%,0%,0%);stroke-opacity:1;stroke-miterlimit:4;" d="M 199.599896 76.186806 C 199.599896 76.186806 198.264635 80.863715 197.823138 83.974479 C 197.823138 86.202604 190.699954 89.092708 190.699954 89.092708 " transform="matrix(0.725514,0,0,0.725806,0,0)"/>
<path style="fill:none;stroke-width:1.722887;stroke-linecap:butt;stroke-linejoin:miter;stroke:rgb(0%,0%,0%);stroke-opacity:1;stroke-miterlimit:4;" d="M 284.83043 53.044444 C 285.051178 53.270486 283.936667 59.276736 280.598516 62.839583 " transform="matrix(0.725514,0,0,0.725806,0,0)"/>
<path style="fill:none;stroke-width:1.722887;stroke-linecap:butt;stroke-linejoin:miter;stroke:rgb(0%,0%,0%);stroke-opacity:1;stroke-miterlimit:4;" d="M 223.855332 69.733854 C 223.855332 69.733854 233.632884 67.048264 240.944512 68.571354 C 248.19153 70.062153 257.904473 72.62934 257.904473 72.62934 C 257.904473 72.62934 269.474935 71.068576 273.254583 68.399132 " transform="matrix(0.725514,0,0,0.725806,0,0)"/>
<path style="fill-rule:evenodd;fill:rgb(0%,0%,0%);fill-opacity:1;stroke-width:1.722887;stroke-linecap:butt;stroke-linejoin:round;stroke:rgb(0%,0%,0%);stroke-opacity:1;stroke-miterlimit:4;" d="M 234.763548 68.178472 L 246.775508 70.401215 C 246.775508 70.401215 238.322448 81.751736 234.763548 68.178472 Z M 234.763548 68.178472 " transform="matrix(0.725514,0,0,0.725806,0,0)"/>
<path style="fill:none;stroke-width:1.72289;stroke-linecap:round;stroke-linejoin:round;stroke:rgb(0%,0%,0%);stroke-opacity:1;stroke-miterlimit:4;" d="M 251.002038 101.777951 L 266.804414 132.040625 L 274.369095 120.695486 L 278.374876 128.48316 L 284.83043 117.132639 L 295.95401 124.252951 L 291.72748 110.459028 L 301.068919 109.791667 C 301.068919 109.791667 298.624531 103.112674 290.166087 101.777951 C 292.395111 99.996528 300.18054 94.878299 300.18054 94.878299 C 300.18054 94.878299 295.733262 89.760069 288.830827 89.53941 C 291.05985 87.090625 294.171868 81.084375 293.95112 81.084375 C 293.730371 81.084375 287.054069 79.528993 287.054069 79.528993 C 287.054069 79.528993 302.851061 84.647222 315.089154 77.521528 " transform="matrix(0.725514,0,0,0.725806,0,0)"/>
<path style="fill:none;stroke-width:1.722887;stroke-linecap:butt;stroke-linejoin:miter;stroke:rgb(0%,0%,0%);stroke-opacity:1;stroke-miterlimit:4;" d="M 199.357611 122.832118 L 223.634583 122.471528 C 231.355404 122.358507 244.078066 111.653819 258.319049 114.990625 " transform="matrix(0.725514,0,0,0.725806,0,0)"/>
<path style="fill:none;stroke-width:1.722887;stroke-linecap:butt;stroke-linejoin:round;stroke:rgb(0%,0%,0%);stroke-opacity:1;stroke-miterlimit:4;" d="M 202.938047 122.250868 C 202.938047 122.030208 204.720189 117.57934 204.720189 117.57934 L 206.701543 122.724479 L 209.894323 122.638368 L 212.004896 117.482465 L 213.733197 122.659896 L 216.90444 122.659896 L 218.864258 116.911979 L 221.820137 122.353125 L 224.334518 122.482292 L 226.310488 115.851736 L 230.386263 120.598611 L 231.866895 120.028125 L 233.137546 113.392188 L 237.164863 118.031424 L 238.322448 117.353299 L 240.190736 110.819618 L 243.534271 115.679514 L 245.219499 115.130556 L 246.780892 109.63559 L 249.89291 114.683854 " transform="matrix(0.725514,0,0,0.725806,0,0)"/>
<path style="fill:none;stroke-width:1.722887;stroke-linecap:butt;stroke-linejoin:miter;stroke:rgb(0%,0%,0%);stroke-opacity:1;stroke-miterlimit:4;" d="M 304.186322 73.743403 C 304.186322 73.743403 291.72748 73.296701 292.615859 68.399132 C 293.509622 62.839583 305.742331 58.830035 305.742331 58.830035 C 305.742331 58.830035 321.986204 48.372917 324.435977 44.815451 " transform="matrix(0.725514,0,0,0.725806,0,0)"/>
<path style="fill:none;stroke-width:1.722887;stroke-linecap:butt;stroke-linejoin:miter;stroke:rgb(0%,0%,0%);stroke-opacity:1;stroke-miterlimit:4;" d="M 307.077591 52.603125 C 307.077591 52.603125 311.083372 48.593576 317.759674 50.601042 " transform="matrix(0.725514,0,0,0.725806,0,0)"/>
<path style="fill:none;stroke-width:1.722887;stroke-linecap:butt;stroke-linejoin:miter;stroke:rgb(0%,0%,0%);stroke-opacity:1;stroke-miterlimit:4;" d="M 207.611458 278.682465 C 207.611458 278.682465 206.055449 286.470139 216.958281 302.045486 C 213.840879 319.402257 230.154746 333.045486 236.604915 335.268229 " transform="matrix(0.725514,0,0,0.725806,0,0)"/>
<path style="fill:none;stroke-width:1.722887;stroke-linecap:butt;stroke-linejoin:miter;stroke:rgb(0%,0%,0%);stroke-opacity:1;stroke-miterlimit:4;" d="M 151.918177 247.547917 C 139.680085 254.447569 158.879837 298.041319 216.958281 302.271528 " transform="matrix(0.725514,0,0,0.725806,0,0)"/>
<path style="fill:none;stroke-width:1.722887;stroke-linecap:butt;stroke-linejoin:miter;stroke:rgb(0%,0%,0%);stroke-opacity:1;stroke-miterlimit:4;" d="M 198.442311 280.786806 C 198.442311 280.786806 202.496549 293.590451 199.158398 299.602083 " transform="matrix(0.725514,0,0,0.725806,0,0)"/>
<path style="fill:none;stroke-width:1.722887;stroke-linecap:butt;stroke-linejoin:miter;stroke:rgb(0%,0%,0%);stroke-opacity:1;stroke-miterlimit:4;" d="M 181.735404 276.201389 C 181.735404 276.201389 176.905853 285.582118 175.791341 290.032986 " transform="matrix(0.725514,0,0,0.725806,0,0)"/>
<path style="fill:none;stroke-width:1.722887;stroke-linecap:butt;stroke-linejoin:miter;stroke:rgb(0%,0%,0%);stroke-opacity:1;stroke-miterlimit:4;" d="M 164.27472 264.527951 C 164.27472 264.527951 160.661979 272.229514 156.209316 274.457639 " transform="matrix(0.725514,0,0,0.725806,0,0)"/>
<path style="fill:none;stroke-width:1.722887;stroke-linecap:butt;stroke-linejoin:miter;stroke:rgb(0%,0%,0%);stroke-opacity:1;stroke-miterlimit:4;" d="M 370.276328 206.365278 C 370.276328 206.365278 385.852572 206.139236 401.428815 163.864062 C 416.78431 106.00816 538.502988 41.473264 540.947376 29.460764 " transform="matrix(0.725514,0,0,0.725806,0,0)"/>
<path style="fill:none;stroke-width:1.722887;stroke-linecap:round;stroke-linejoin:miter;stroke:rgb(0%,0%,0%);stroke-opacity:1;stroke-miterlimit:4;" d="M 414.619896 138.138368 C 437.48623 125.442361 508.093509 99.56059 555.193743 80.578472 " transform="matrix(0.725514,0,0,0.725806,0,0)"/>
<path style="fill:none;stroke-width:1.722887;stroke-linecap:butt;stroke-linejoin:round;stroke:rgb(0%,0%,0%);stroke-opacity:1;stroke-miterlimit:4;" d="M 651.725534 42.861806 C 651.725534 42.861806 435.537181 143.875521 432.387474 149.225174 C 468.891771 138.208333 623.722754 112.407292 627.497018 114.608507 C 618.370944 116.815104 430.49765 159.924479 421.689238 170.311632 C 468.579492 168.734722 566.764206 185.413368 582.18431 201.462326 C 548.824336 193.911458 449.067461 179.121875 418.539531 185.730903 C 440.883607 191.080556 526.48026 246.466146 526.48026 255.276389 C 513.579922 243.005556 410.67334 200.520486 406.581413 204.610764 C 430.185371 218.776042 463.545345 271.325347 463.539961 284.23125 C 456.621374 273.21441 397.14306 209.330729 393.681074 213.421007 C 399.975104 222.236632 412.444714 297.643056 406.069922 301.141319 C 406.069922 292.013542 382.982839 226.009375 381.093014 224.120313 C 376.371146 225.379687 346.941576 304.650347 352.772572 312.023611 C 348.998307 285.5875 353.402513 230.417188 360.638763 232.618403 C 347.738424 234.507465 306.560716 288.800521 310.964922 297.298611 C 312.224805 283.763021 314.066172 274.791319 337.352467 229.7875 C 311.546406 231.359028 258.049844 265.033854 248.918385 276.992535 C 256.16002 255.593924 301.478112 219.400347 321.302422 216.886979 " transform="matrix(0.725514,0,0,0.725806,0,0)"/>
<path style="fill:none;stroke-width:1.722887;stroke-linecap:butt;stroke-linejoin:miter;stroke:rgb(0%,0%,0%);stroke-opacity:1;stroke-miterlimit:4;" d="M 249.279121 123.214236 L 262.254837 123.370312 " transform="matrix(0.725514,0,0,0.725806,0,0)"/>
<path style="fill:none;stroke-width:1.722887;stroke-linecap:butt;stroke-linejoin:miter;stroke:rgb(0%,0%,0%);stroke-opacity:1;stroke-miterlimit:4;" d="M 198.02235 99.517535 C 198.02235 99.517535 206.744616 102.85434 224.835241 88.538368 " transform="matrix(0.725514,0,0,0.725806,0,0)"/>
<path style="fill:none;stroke-width:1.722887;stroke-linecap:butt;stroke-linejoin:miter;stroke:rgb(0%,0%,0%);stroke-opacity:1;stroke-miterlimit:4;" d="M 256.27847 264.05434 C 251.10972 257.380729 260.155033 154.865451 279.32248 128.160243 C 272.646178 176.403993 294.82873 225.71875 300.42821 225.503472 " transform="matrix(0.725514,0,0,0.725806,0,0)"/>
<path style="fill:none;stroke-width:1.722887;stroke-linecap:butt;stroke-linejoin:miter;stroke:rgb(0%,0%,0%);stroke-opacity:1;stroke-miterlimit:4;" d="M 253.263366 133.117014 C 253.263366 133.117014 262.308678 143.019792 272.646178 141.297569 " transform="matrix(0.725514,0,0,0.725806,0,0)"/>
<path style="fill:none;stroke-width:1.722887;stroke-linecap:butt;stroke-linejoin:miter;stroke:rgb(0%,0%,0%);stroke-opacity:1;stroke-miterlimit:4;" d="M 243.146615 155.726562 C 243.146615 155.726562 247.663887 163.481944 264.893053 164.773611 " transform="matrix(0.725514,0,0,0.725806,0,0)"/>
<path style="fill:none;stroke-width:1.722887;stroke-linecap:butt;stroke-linejoin:miter;stroke:rgb(0%,0%,0%);stroke-opacity:1;stroke-miterlimit:4;" d="M 233.186003 176.11875 C 233.186003 176.11875 244.864147 190.402431 260.585762 188.249653 " transform="matrix(0.725514,0,0,0.725806,0,0)"/>
<path style="fill:none;stroke-width:1.722887;stroke-linecap:butt;stroke-linejoin:miter;stroke:rgb(0%,0%,0%);stroke-opacity:1;stroke-miterlimit:4;" d="M 222.681595 200.520486 C 222.681595 200.520486 225.912064 211.074479 256.924564 211.720313 " transform="matrix(0.725514,0,0,0.725806,0,0)"/>
<path style="fill:none;stroke-width:1.722887;stroke-linecap:butt;stroke-linejoin:miter;stroke:rgb(0%,0%,0%);stroke-opacity:1;stroke-miterlimit:4;" d="M 213.636283 230.244965 C 213.636283 230.244965 228.06571 243.161632 255.201647 239.071354 " transform="matrix(0.725514,0,0,0.725806,0,0)"/>
<path style="fill:none;stroke-width:1.722887;stroke-linecap:butt;stroke-linejoin:miter;stroke:rgb(0%,0%,0%);stroke-opacity:1;stroke-miterlimit:4;" d="M 215.143835 267.498785 C 215.143835 267.498785 233.665189 277.8375 256.493835 263.839063 " transform="matrix(0.725514,0,0,0.725806,0,0)"/>
<path style="fill:none;stroke-width:1.722887;stroke-linecap:butt;stroke-linejoin:miter;stroke:rgb(0%,0%,0%);stroke-opacity:1;stroke-miterlimit:4;" d="M 528.499303 227.010417 C 528.499303 227.010417 515.577428 237.994965 527.632461 255.658507 C 487.574648 255.012674 466.043574 273.531944 464.320658 286.023438 C 413.279251 282.358333 422.539928 297.438542 405.956855 302.389931 C 383.774303 283.87066 351.254251 294.203993 353.407897 312.728646 C 338.547741 291.835938 315.719095 301.959375 312.919355 307.126042 C 310.119616 312.29809 311.196439 281.497222 311.196439 281.497222 C 311.196439 281.497222 296.336283 288.176215 285.998783 300.452431 C 286.214147 292.266493 285.998783 278.913889 285.998783 274.608333 C 273.583014 277.121701 261.592591 277.261632 248.74071 276.976389 " transform="matrix(0.725514,0,0,0.725806,0,0)"/>
<path style="fill:none;stroke-width:1.722887;stroke-linecap:butt;stroke-linejoin:miter;stroke:rgb(0%,0%,0%);stroke-opacity:1;stroke-miterlimit:4;" d="M 259.993509 277.08941 C 259.778145 277.08941 238.618574 310.36059 271.78472 319.186979 " transform="matrix(0.725514,0,0,0.725806,0,0)"/>
<path style="fill:none;stroke-width:1.722887;stroke-linecap:butt;stroke-linejoin:miter;stroke:rgb(0%,0%,0%);stroke-opacity:1;stroke-miterlimit:4;" d="M 310.76571 296.787326 C 310.76571 296.787326 305.381595 299.376042 303.443314 298.945486 C 296.982376 300.452431 298.274564 315.527257 306.458418 314.666146 C 309.258158 311.436979 312.273262 306.910764 312.273262 306.910764 " transform="matrix(0.725514,0,0,0.725806,0,0)"/>
<path style="fill:none;stroke-width:1.722887;stroke-linecap:butt;stroke-linejoin:miter;stroke:rgb(0%,0%,0%);stroke-opacity:1;stroke-miterlimit:4;" d="M 299.136022 305.834375 C 299.136022 305.834375 296.767012 309.068924 293.105814 305.619097 C 291.167533 302.174653 284.275866 321.124479 296.336283 321.770312 C 298.489928 316.17309 305.16623 314.666146 305.16623 314.666146 " transform="matrix(0.725514,0,0,0.725806,0,0)"/>
<path style="fill:none;stroke-width:1.722887;stroke-linecap:butt;stroke-linejoin:miter;stroke:rgb(0%,0%,0%);stroke-opacity:1;stroke-miterlimit:4;" d="M 289.229251 312.938542 C 279.75321 312.292708 274.58446 333.185417 292.890449 320.053472 " transform="matrix(0.725514,0,0,0.725806,0,0)"/>
<path style="fill:none;stroke-width:1.722887;stroke-linecap:butt;stroke-linejoin:miter;stroke:rgb(0%,0%,0%);stroke-opacity:1;stroke-miterlimit:4;" d="M 282.552949 315.957812 C 282.552949 315.957812 272.000085 307.771875 272.430814 319.186979 C 272.215449 326.296528 275.661283 328.01875 275.661283 328.01875 C 276.092012 333.185417 280.614668 340.504861 284.275866 333.83125 C 285.783418 327.372917 283.199043 324.568924 283.199043 324.568924 " transform="matrix(0.725514,0,0,0.725806,0,0)"/>
<path style="fill:none;stroke-width:1.722887;stroke-linecap:butt;stroke-linejoin:miter;stroke:rgb(0%,0%,0%);stroke-opacity:1;stroke-miterlimit:4;" d="M 227.204251 388.318056 C 226.988887 388.318056 228.927168 402.531771 238.833939 391.7625 C 245.725605 377.333507 267.477428 336.629861 272.430814 322.631424 " transform="matrix(0.725514,0,0,0.725806,0,0)"/>
<path style="fill:none;stroke-width:1.722887;stroke-linecap:butt;stroke-linejoin:miter;stroke:rgb(0%,0%,0%);stroke-opacity:1;stroke-miterlimit:4;" d="M 257.355293 311.436979 C 257.355293 311.436979 242.064408 315.742535 247.879251 333.83125 C 256.709199 340.940799 265.323783 339.86441 265.323783 339.86441 " transform="matrix(0.725514,0,0,0.725806,0,0)"/>
<path style="fill:none;stroke-width:1.722887;stroke-linecap:butt;stroke-linejoin:miter;stroke:rgb(0%,0%,0%);stroke-opacity:1;stroke-miterlimit:4;" d="M 246.156335 348.044965 C 246.156335 348.044965 256.493835 352.571181 259.939668 350.843576 " transform="matrix(0.725514,0,0,0.725806,0,0)"/>
<path style="fill:none;stroke-width:1.722887;stroke-linecap:butt;stroke-linejoin:miter;stroke:rgb(0%,0%,0%);stroke-opacity:1;stroke-miterlimit:4;" d="M 238.300911 365.778472 C 238.300911 365.778472 242.925866 373.889063 249.386803 371.090451 " transform="matrix(0.725514,0,0,0.725806,0,0)"/>
<path style="fill:none;stroke-width:1.722887;stroke-linecap:butt;stroke-linejoin:miter;stroke:rgb(0%,0%,0%);stroke-opacity:1;stroke-miterlimit:4;" d="M 320.457116 301.959375 C 320.457116 301.959375 321.749303 323.707812 315.288366 331.463194 C 308.827428 339.218576 316.801302 355.321354 316.801302 355.321354 " transform="matrix(0.725514,0,0,0.725806,0,0)"/>
<path style="fill:none;stroke-width:1.722887;stroke-linecap:butt;stroke-linejoin:miter;stroke:rgb(0%,0%,0%);stroke-opacity:1;stroke-miterlimit:4;" d="M 336.824824 300.882986 C 337.040189 301.313542 340.916751 335.553472 332.302168 345.246354 " transform="matrix(0.725514,0,0,0.725806,0,0)"/>
<path style="fill:none;stroke-width:1.722887;stroke-linecap:butt;stroke-linejoin:miter;stroke:rgb(0%,0%,0%);stroke-opacity:1;stroke-miterlimit:4;" d="M 369.775605 293.988715 C 369.775605 293.988715 382.412122 318.438889 369.705612 330.499826 " transform="matrix(0.725514,0,0,0.725806,0,0)"/>
<path style="fill:none;stroke-width:1.722887;stroke-linecap:butt;stroke-linejoin:miter;stroke:rgb(0%,0%,0%);stroke-opacity:1;stroke-miterlimit:4;" d="M 405.956855 301.528819 C 405.956855 301.528819 398.63446 323.282639 388.29696 330.602083 " transform="matrix(0.725514,0,0,0.725806,0,0)"/>
<path style="fill:none;stroke-width:1.722887;stroke-linecap:butt;stroke-linejoin:miter;stroke:rgb(0%,0%,0%);stroke-opacity:1;stroke-miterlimit:4;" d="M 441.922741 302.389931 C 441.922741 302.389931 407.895137 360.536458 470.781595 360.536458 " transform="matrix(0.725514,0,0,0.725806,0,0)"/>
<path style="fill:none;stroke-width:1.722887;stroke-linecap:butt;stroke-linejoin:miter;stroke:rgb(0%,0%,0%);stroke-opacity:1;stroke-miterlimit:4;" d="M 395.619355 323.061979 C 395.619355 322.846701 430.465345 323.158854 432.834355 329.622569 " transform="matrix(0.725514,0,0,0.725806,0,0)"/>
<path style="fill:none;stroke-width:1.722887;stroke-linecap:butt;stroke-linejoin:miter;stroke:rgb(0%,0%,0%);stroke-opacity:1;stroke-miterlimit:4;" d="M 407.033678 359.244792 C 407.464408 358.814236 432.01597 356.446181 436.538626 347.61441 " transform="matrix(0.725514,0,0,0.725806,0,0)"/>
<path style="fill:none;stroke-width:1.722887;stroke-linecap:butt;stroke-linejoin:miter;stroke:rgb(0%,0%,0%);stroke-opacity:1;stroke-miterlimit:4;" d="M 436.565547 372.457465 C 436.780911 372.457465 451.614147 363.550347 448.599043 357.307292 " transform="matrix(0.725514,0,0,0.725806,0,0)"/>
<path style="fill:none;stroke-width:1.722887;stroke-linecap:butt;stroke-linejoin:miter;stroke:rgb(0%,0%,0%);stroke-opacity:1;stroke-miterlimit:4;" d="M 435.246439 285.80816 C 436.969355 308.417708 409.187324 321.339757 398.20373 319.186979 " transform="matrix(0.725514,0,0,0.725806,0,0)"/>
<path style="fill:none;stroke-width:1.722887;stroke-linecap:butt;stroke-linejoin:miter;stroke:rgb(0%,0%,0%);stroke-opacity:1;stroke-miterlimit:4;" d="M 433.092793 299.376042 C 433.092793 299.376042 452.475605 308.848264 469.058678 293.55816 " transform="matrix(0.725514,0,0,0.725806,0,0)"/>
<path style="fill:none;stroke-width:1.722887;stroke-linecap:butt;stroke-linejoin:miter;stroke:rgb(0%,0%,0%);stroke-opacity:1;stroke-miterlimit:4;" d="M 464.536022 286.238715 C 464.536022 286.238715 471.858418 299.376042 480.688366 298.514931 C 492.318053 295.065104 496.625345 302.174653 496.625345 302.174653 " transform="matrix(0.725514,0,0,0.725806,0,0)"/>
<path style="fill:none;stroke-width:1.722887;stroke-linecap:butt;stroke-linejoin:miter;stroke:rgb(0%,0%,0%);stroke-opacity:1;stroke-miterlimit:4;" d="M 513.423783 256.089063 C 513.423783 256.089063 512.562324 288.822049 558.644961 295.49566 C 610.117096 309.709375 634.453294 302.174653 637.468398 359.890625 C 635.530117 381.859722 632.800371 406.670486 616.863392 397.192882 " transform="matrix(0.725514,0,0,0.725806,0,0)"/>
<path style="fill:none;stroke-width:1.722887;stroke-linecap:butt;stroke-linejoin:miter;stroke:rgb(0%,0%,0%);stroke-opacity:1;stroke-miterlimit:4;" d="M 622.608242 380.562674 C 622.608242 380.562674 630.215996 386.956424 635.384746 378.56059 " transform="matrix(0.725514,0,0,0.725806,0,0)"/>
<path style="fill:none;stroke-width:1.722887;stroke-linecap:butt;stroke-linejoin:miter;stroke:rgb(0%,0%,0%);stroke-opacity:1;stroke-miterlimit:4;" d="M 623.620456 363.625694 C 623.620456 363.625694 633.015736 365.326389 637.323027 356.27934 " transform="matrix(0.725514,0,0,0.725806,0,0)"/>
<path style="fill:none;stroke-width:1.722887;stroke-linecap:butt;stroke-linejoin:miter;stroke:rgb(0%,0%,0%);stroke-opacity:1;stroke-miterlimit:4;" d="M 620.98224 341.688889 C 620.98224 341.688889 631.147448 344.218403 634.377917 337.544792 " transform="matrix(0.725514,0,0,0.725806,0,0)"/>
<path style="fill:none;stroke-width:1.722887;stroke-linecap:butt;stroke-linejoin:miter;stroke:rgb(0%,0%,0%);stroke-opacity:1;stroke-miterlimit:4;" d="M 621.316055 314.881424 C 621.316055 314.881424 613.58985 330.004687 610.790111 331.511632 " transform="matrix(0.725514,0,0,0.725806,0,0)"/>
<path style="fill:none;stroke-width:1.722887;stroke-linecap:butt;stroke-linejoin:miter;stroke:rgb(0%,0%,0%);stroke-opacity:1;stroke-miterlimit:4;" d="M 601.287148 305.188542 C 601.287148 305.188542 601.723262 321.339757 594.831595 327.803472 " transform="matrix(0.725514,0,0,0.725806,0,0)"/>
<path style="fill:none;stroke-width:1.722887;stroke-linecap:butt;stroke-linejoin:miter;stroke:rgb(0%,0%,0%);stroke-opacity:1;stroke-miterlimit:4;" d="M 579.535326 301.313542 C 579.535326 301.313542 579.325345 314.666146 568.336367 323.92309 " transform="matrix(0.725514,0,0,0.725806,0,0)"/>
<path style="fill:none;stroke-width:1.722887;stroke-linecap:butt;stroke-linejoin:miter;stroke:rgb(0%,0%,0%);stroke-opacity:1;stroke-miterlimit:4;" d="M 539.052168 319.832812 C 539.267533 319.617535 556.70668 300.452431 552.189408 294.634549 " transform="matrix(0.725514,0,0,0.725806,0,0)"/>
<path style="fill:none;stroke-width:1.722887;stroke-linecap:butt;stroke-linejoin:miter;stroke:rgb(0%,0%,0%);stroke-opacity:1;stroke-miterlimit:4;" d="M 533.237324 286.884549 C 533.237324 286.884549 530.938307 305.333854 512.416953 308.132465 " transform="matrix(0.725514,0,0,0.725806,0,0)"/>
<path style="fill:none;stroke-width:1.722887;stroke-linecap:butt;stroke-linejoin:miter;stroke:rgb(0%,0%,0%);stroke-opacity:1;stroke-miterlimit:4;" d="M 254.867832 250.981597 C 254.867832 250.981597 290.521439 229.599132 292.45972 213.878472 " transform="matrix(0.725514,0,0,0.725806,0,0)"/>
<path style="fill:none;stroke-width:1.722887;stroke-linecap:butt;stroke-linejoin:miter;stroke:rgb(0%,0%,0%);stroke-opacity:1;stroke-miterlimit:4;" d="M 256.063105 232.397743 C 256.063105 232.182465 278.396413 226.703646 287.65709 202.151215 " transform="matrix(0.725514,0,0,0.725806,0,0)"/>
<path style="fill:none;stroke-width:1.722887;stroke-linecap:butt;stroke-linejoin:miter;stroke:rgb(0%,0%,0%);stroke-opacity:1;stroke-miterlimit:4;" d="M 256.709199 218.829861 C 258.64748 219.690972 283.075208 202.097396 283.726686 189.175347 " transform="matrix(0.725514,0,0,0.725806,0,0)"/>
<path style="fill:none;stroke-width:1.722887;stroke-linecap:butt;stroke-linejoin:miter;stroke:rgb(0%,0%,0%);stroke-opacity:1;stroke-miterlimit:4;" d="M 258.216751 203.109201 C 265.323783 201.171701 278.401797 185.354167 280.986172 176.958333 " transform="matrix(0.725514,0,0,0.725806,0,0)"/>
<path style="fill:none;stroke-width:1.722887;stroke-linecap:butt;stroke-linejoin:miter;stroke:rgb(0%,0%,0%);stroke-opacity:1;stroke-miterlimit:4;" d="M 261.44722 186.091493 C 261.44722 186.091493 271.569355 178.987326 279.32248 168.218056 " transform="matrix(0.725514,0,0,0.725806,0,0)"/>
<path style="fill:none;stroke-width:1.722887;stroke-linecap:butt;stroke-linejoin:miter;stroke:rgb(0%,0%,0%);stroke-opacity:1;stroke-miterlimit:4;" d="M 265.366855 165.903819 C 265.58222 171.721701 274.805208 163.858681 278.466406 158.90191 " transform="matrix(0.725514,0,0,0.725806,0,0)"/>
<path style="fill:none;stroke-width:1.722887;stroke-linecap:butt;stroke-linejoin:miter;stroke:rgb(0%,0%,0%);stroke-opacity:1;stroke-miterlimit:4;" d="M 285.352689 227.661632 L 289.65998 233.043576 " transform="matrix(0.725514,0,0,0.725806,0,0)"/>
<path style="fill:none;stroke-width:1.722887;stroke-linecap:butt;stroke-linejoin:miter;stroke:rgb(0%,0%,0%);stroke-opacity:1;stroke-miterlimit:4;" d="M 276.248151 236.046701 L 279.107116 240.583681 " transform="matrix(0.725514,0,0,0.725806,0,0)"/>
<path style="fill:none;stroke-width:1.722887;stroke-linecap:butt;stroke-linejoin:miter;stroke:rgb(0%,0%,0%);stroke-opacity:1;stroke-miterlimit:4;" d="M 266.400605 244.243403 C 266.400605 244.458681 269.846439 249.194792 269.846439 249.194792 " transform="matrix(0.725514,0,0,0.725806,0,0)"/>
<path style="fill:none;stroke-width:1.722887;stroke-linecap:butt;stroke-linejoin:miter;stroke:rgb(0%,0%,0%);stroke-opacity:1;stroke-miterlimit:4;" d="M 260.370397 247.687847 C 260.370397 247.687847 260.585762 254.576736 264.031595 255.007292 " transform="matrix(0.725514,0,0,0.725806,0,0)"/>
<path style="fill:none;stroke-width:1.722887;stroke-linecap:butt;stroke-linejoin:miter;stroke:rgb(0%,0%,0%);stroke-opacity:1;stroke-miterlimit:4;" d="M 261.877949 230.244965 C 261.877949 230.244965 265.754512 243.382292 269.200345 241.224132 " transform="matrix(0.725514,0,0,0.725806,0,0)"/>
<path style="fill:none;stroke-width:1.722887;stroke-linecap:butt;stroke-linejoin:miter;stroke:rgb(0%,0%,0%);stroke-opacity:1;stroke-miterlimit:4;" d="M 271.78472 223.996528 C 272.000085 224.427083 276.092012 236.272743 276.092012 236.272743 " transform="matrix(0.725514,0,0,0.725806,0,0)"/>
<path style="fill:none;stroke-width:1.722887;stroke-linecap:butt;stroke-linejoin:miter;stroke:rgb(0%,0%,0%);stroke-opacity:1;stroke-miterlimit:4;" d="M 280.399303 216.03125 L 285.568053 226.364583 " transform="matrix(0.725514,0,0,0.725806,0,0)"/>
<path style="fill:none;stroke-width:1.722887;stroke-linecap:butt;stroke-linejoin:miter;stroke:rgb(0%,0%,0%);stroke-opacity:1;stroke-miterlimit:4;" d="M 274.579076 206.117708 C 274.79444 206.332986 280.183939 214.09375 281.691491 213.017361 " transform="matrix(0.725514,0,0,0.725806,0,0)"/>
<path style="fill:none;stroke-width:1.722887;stroke-linecap:butt;stroke-linejoin:miter;stroke:rgb(0%,0%,0%);stroke-opacity:1;stroke-miterlimit:4;" d="M 266.831335 213.232639 C 266.831335 213.232639 269.846439 225.072917 272.215449 223.996528 " transform="matrix(0.725514,0,0,0.725806,0,0)"/>
<path style="fill:none;stroke-width:1.722887;stroke-linecap:butt;stroke-linejoin:miter;stroke:rgb(0%,0%,0%);stroke-opacity:1;stroke-miterlimit:4;" d="M 256.536908 222.118229 L 262.093314 230.460243 " transform="matrix(0.725514,0,0,0.725806,0,0)"/>
<path style="fill:none;stroke-width:1.722887;stroke-linecap:butt;stroke-linejoin:miter;stroke:rgb(0%,0%,0%);stroke-opacity:1;stroke-miterlimit:4;" d="M 264.677689 199.228819 C 264.677689 199.228819 266.61597 211.720313 268.338887 211.289757 " transform="matrix(0.725514,0,0,0.725806,0,0)"/>
<path style="fill:none;stroke-width:1.722887;stroke-linecap:butt;stroke-linejoin:miter;stroke:rgb(0%,0%,0%);stroke-opacity:1;stroke-miterlimit:4;" d="M 271.881634 192.113889 C 271.881634 192.329167 277.384199 202.678646 277.814928 202.678646 " transform="matrix(0.725514,0,0,0.725806,0,0)"/>
<path style="fill:none;stroke-width:1.722887;stroke-linecap:butt;stroke-linejoin:miter;stroke:rgb(0%,0%,0%);stroke-opacity:1;stroke-miterlimit:4;" d="M 260.801126 190.617708 C 261.016491 190.617708 266.831335 197.291319 266.831335 197.291319 " transform="matrix(0.725514,0,0,0.725806,0,0)"/>
<path style="fill:none;stroke-width:1.722887;stroke-linecap:butt;stroke-linejoin:miter;stroke:rgb(0%,0%,0%);stroke-opacity:1;stroke-miterlimit:4;" d="M 269.41571 180.278993 C 269.631074 180.494271 274.369095 188.464931 274.369095 188.464931 " transform="matrix(0.725514,0,0,0.725806,0,0)"/>
<path style="fill:none;stroke-width:1.722887;stroke-linecap:butt;stroke-linejoin:miter;stroke:rgb(0%,0%,0%);stroke-opacity:1;stroke-miterlimit:4;" d="M 271.78472 165.85 C 271.78472 165.85 271.78472 175.112326 273.723001 175.327604 " transform="matrix(0.725514,0,0,0.725806,0,0)"/>
<path style="fill:none;stroke-width:1.722887;stroke-linecap:butt;stroke-linejoin:miter;stroke:rgb(0%,0%,0%);stroke-opacity:1;stroke-miterlimit:4;" d="M 267.262064 158.740451 L 272.000085 165.634722 " transform="matrix(0.725514,0,0,0.725806,0,0)"/>
</g>
</svg>
